<svg xmlns="http://www.w3.org/2000/svg" width="413" height="290" viewBox="0 0 413 290"><path fill="#787ACF" d="M452.197149,285.753111 L392.025007,225.538133 C410.056645,216.045079 422.359523,197.142123 422.359523,175.336919 C422.359523,144.008791 396.989072,118.611097 365.68578,118.611097 C355.405149,118.611097 345.79403,121.394672 337.486441,126.183582 C345.261647,137.622232 349.812712,151.418201 349.812712,166.262854 C349.812712,182.795574 344.125091,197.993018 334.675299,210.107379 L326.320925,204.307728 C334.621254,193.856407 339.603872,180.65219 339.603872,166.262854 C339.603872,132.432093 312.206333,105 278.391164,105 C246.95639,105 221.089855,128.720929 217.609202,159.253866 C213.003285,159.899707 208.332838,160.708623 203.5664,161.725822 C118.62798,179.813404 108.603861,265.593187 108.029533,299.693587 C101.874867,299.693587 95.8468438,299.693587 90.2076212,299.693587 C79.9802285,299.699238 71.1765559,301.440587 63.9821308,304.522862 C56.8110983,307.611596 51.1775222,312.041258 47.6670235,317.589839 C45.3277666,321.283241 44.0000182,325.509463 44.0000182,329.830946 C43.9943901,334.062818 45.2922744,338.294691 47.6847696,342.006662 C50.0772648,345.735586 53.5103261,348.97367 57.8048792,351.666827 C66.4294776,357.024077 78.5161763,360.346929 94.4844283,360.957249 C105.375686,361.358477 113.514687,362.734926 119.400741,364.561041 C125.302929,366.392807 128.915871,368.630646 131.122839,370.690071 C132.594151,372.06652 133.485488,373.371925 134.077562,374.622435 C134.855163,376.285475 135.129421,377.925911 135.135874,379.518716 C135.160074,382.391094 134.088855,384.989796 133.975926,385.198887 L133.975926,385.210189 C132.342479,388.562104 133.700055,392.602646 137.037932,394.278603 C140.404849,395.961019 144.489676,394.601524 146.164261,391.231849 C146.40948,390.681269 148.699531,386.179758 148.742283,379.517909 C148.742283,377.111344 148.413174,374.418188 147.498444,371.622504 C146.588554,368.832471 145.076103,365.966552 142.851389,363.302458 C138.377762,357.950859 131.272067,353.605964 120.884153,350.82239 C113.940593,348.955102 105.459577,347.739307 94.9869652,347.344537 C84.251389,346.948959 75.9986518,345.141412 70.1198571,342.704977 C64.2168632,340.275001 60.7838019,337.252465 59.1326092,334.65457 C58.0202521,332.905956 57.6137054,331.355938 57.6080589,329.829331 C57.6145121,328.272855 58.056551,326.645335 59.1753611,324.855549 C60.2877181,323.077872 62.1115319,321.192824 64.7677985,319.457126 C70.0545192,315.997033 78.6428188,313.291767 90.2092345,313.309528 C95.9323477,313.309528 102.050715,313.309528 108.312663,313.309528 C108.331216,313.585625 108.342509,313.752736 108.342509,313.752736 L440.607341,313.752736 C447.233891,313.752736 453.215129,309.759825 455.7504,303.637253 C458.29051,297.502572 456.885343,290.445952 452.197149,285.753111 Z M366.415651,267.09607 C360.467513,267.09607 355.650311,262.274625 355.650311,256.328814 C355.650311,250.383769 360.467513,245.567686 366.415651,245.567686 C372.363788,245.567686 377.18712,250.383769 377.18712,256.328814 C377.18712,262.274625 372.364554,267.09607 366.415651,267.09607 Z" transform="matrix(-1 0 0 1 457 -105)"/></svg>
