<svg xmlns="http://www.w3.org/2000/svg" xmlns:xlink="http://www.w3.org/1999/xlink" width="529" height="208" viewBox="0 0 529 208"><defs><path id="a" d="M118.36,206.58 L118.36,57.64 L118.36,57.64 L82.06,57.64 L82.06,57.64 L82.06,64.02 C78.3933333,61.0866667 74.2133333,58.7766667 69.52,57.09 C64.8266667,55.4033333 59.84,54.56 54.56,54.56 C47.2266667,54.56 40.26,55.99 33.66,58.85 C27.06,61.71 21.23,65.78 16.17,71.06 C11.11,76.34 7.15,82.6466667 4.29,89.98 C1.43,97.3133333 0,105.453333 0,114.4 C0,123.2 1.43,131.266667 4.29,138.6 C7.15,145.933333 11.11,152.276667 16.17,157.63 C21.23,162.983333 27.06,167.126667 33.66,170.06 C40.26,172.993333 47.3,174.46 54.78,174.46 C60.06,174.46 65.01,173.616667 69.63,171.93 C74.25,170.243333 78.3933333,167.86 82.06,164.78 L82.06,164.78 L82.06,206.58 L82.06,206.58 L118.36,206.58 L118.36,206.58 Z M59.62,142.34 L59.143116,142.336252 C52.1814831,142.226306 46.6571111,139.697556 42.57,134.75 C38.39,129.69 36.3,122.906667 36.3,114.4 C36.3,105.893333 38.39,99.1466667 42.57,94.16 C46.75,89.1733333 52.4333333,86.68 59.62,86.68 C66.66,86.68 72.3066667,89.21 76.56,94.27 C80.8133333,99.33 82.94,106.04 82.94,114.4 C82.94,122.76 80.8133333,129.506667 76.56,134.64 C72.3066667,139.773333 66.66,142.34 59.62,142.34 L59.62,142.34 Z M375.21,172.37 C384.083333,174.496667 393.506667,175.046667 403.48,174.02 C413.453333,172.993333 423.5,170.353333 433.62,166.1 L433.62,166.1 L433.62,134.86 C423.353333,138.673333 413.71,141.02 404.69,141.9 C395.67,142.78 387.896667,142.046667 381.37,139.7 C374.843333,137.353333 370.186667,133.393333 367.4,127.82 L367.4,127.82 L440,127.82 C441.613333,119.606667 442.053333,111.833333 441.32,104.5 C440.586667,97.1666667 438.826667,90.42 436.04,84.26 C433.253333,78.1 429.586667,72.7833333 425.04,68.31 C420.493333,63.8366667 415.14,60.3533333 408.98,57.86 C402.82,55.3666667 395.926667,54.12 388.3,54.12 C379.793333,54.12 371.946667,55.6233333 364.76,58.63 C357.573333,61.6366667 351.34,65.89 346.06,71.39 C340.78,76.89 336.71,83.27 333.85,90.53 C330.99,97.79 329.56,105.746667 329.56,114.4 C329.56,124.813333 331.503333,133.98 335.39,141.9 C339.276667,149.82 344.666667,156.346667 351.56,161.48 C358.453333,166.613333 366.336667,170.243333 375.21,172.37 Z M407.22,100.98 L367.4,100.98 C369.306667,96.14 372.056667,92.5466667 375.65,90.2 C379.243333,87.8533333 383.166667,86.68 387.42,86.68 L387.42,86.68 L387.942175,86.6850444 C392.273289,86.7691174 396.095897,87.9041026 399.41,90.09 C402.856667,92.3633333 405.46,95.9933333 407.22,100.98 L407.22,100.98 Z M507.54,171.38 L507.54,90.2 L507.54,90.2 L528.22,90.2 L528.22,90.2 L528.22,57.64 L528.22,57.64 L507.54,57.64 L507.54,57.64 L507.54,27.28 L507.54,27.28 L471.24,27.28 L471.24,27.28 L471.24,57.64 L471.24,57.64 L453.42,57.64 L453.42,57.64 L453.42,90.2 L453.42,90.2 L471.24,90.2 L471.24,90.2 L471.24,171.38 L471.24,171.38 L507.54,171.38 L507.54,171.38 Z"/></defs><g fill="none" transform="translate(.11 .62)"><use xlink:href="#a" fill="#FFF"/><use xlink:href="#a" fill="#4A4B4F"/><path fill="#787ACF" d="M183.26 174.46C188.98 174.46 194.296667 173.69 199.21 172.15 204.123333 170.61 208.56 168.446667 212.52 165.66L212.52 165.66 212.52 171.38 212.52 171.38 248.82 171.38 248.82 171.38 248.82 57.64 248.82 57.64 212.52 57.64 212.52 57.64 212.52 121.88C212.52 128.186667 210.906667 133.026667 207.68 136.4 204.453333 139.773333 199.906667 141.46 194.04 141.46 188.173333 141.46 183.883333 139.663333 181.17 136.07 178.456667 132.476667 177.1 127.746667 177.1 121.88L177.1 121.88 177.1 57.64 177.1 57.64 140.8 57.64 140.8 57.64 140.8 126.72C140.8 136.546667 142.596667 145.053333 146.19 152.24 149.783333 159.426667 154.77 164.926667 161.15 168.74 167.53 172.553333 174.9 174.46 183.26 174.46ZM292.38 44.66 292.891615 44.6546528C296.800816 44.572662 300.406944 43.5477778 303.71 41.58 307.156667 39.5266667 309.906667 36.8133333 311.96 33.44 314.013333 30.0666667 315.04 26.3266667 315.04 22.22 315.04 18.1133333 314.013333 14.41 311.96 11.11 309.906667 7.81 307.156667 5.13333333 303.71 3.08 300.263333 1.02666667 296.486667 0 292.38 0 288.126667 0 284.276667 1.02666667 280.83 3.08 277.383333 5.13333333 274.633333 7.81 272.58 11.11 270.526667 14.41 269.5 18.1133333 269.5 22.22 269.5 26.3266667 270.526667 30.0666667 272.58 33.44 274.633333 36.8133333 277.383333 39.5266667 280.83 41.58 284.276667 43.6333333 288.126667 44.66 292.38 44.66L292.38 44.66Z"/><polygon fill="#787ACF" points="310.42 171.38 310.42 57.64 310.42 57.64 274.12 57.64 274.12 57.64 274.12 171.38 274.12 171.38"/></g></svg>