<svg xmlns="http://www.w3.org/2000/svg" width="413" height="290" viewBox="0 0 413 290"><path fill="#989CFF" d="M451.197167,285.753111 L391.025022,225.538133 C409.056661,216.045079 421.35954,197.142123 421.35954,175.336919 C421.35954,144.008791 395.989087,118.611097 364.685794,118.611097 C354.405163,118.611097 344.794043,121.394672 336.486454,126.183582 C344.26166,137.622232 348.812725,151.418201 348.812725,166.262854 C348.812725,182.795574 343.125104,197.993018 333.675312,210.107379 L325.320938,204.307728 C333.621267,193.856407 338.603885,180.65219 338.603885,166.262854 C338.603885,132.432093 311.206345,105 277.391174,105 C245.956399,105 220.089862,128.720929 216.609209,159.253866 C212.003293,159.899707 207.332845,160.708623 202.566407,161.725822 C117.627983,179.813404 107.603863,265.593187 107.029536,299.693587 C100.87487,299.693587 94.8468461,299.693587 89.2076233,299.693587 C78.9802301,299.699238 70.1765571,301.440587 62.9821317,304.522862 C55.8110989,307.611596 50.1775225,312.041258 46.6670237,317.589839 C44.3277666,321.283241 43.0000182,325.509463 43.0000182,329.830946 C42.9943901,334.062818 44.2922744,338.294691 46.6847698,342.006662 C49.0772651,345.735586 52.5103265,348.97367 56.8048798,351.666827 C65.4294786,357.024077 77.5161778,360.346929 93.4844305,360.957249 C104.375689,361.358477 112.51469,362.734926 118.400745,364.561041 C124.302932,366.392807 127.915874,368.630646 130.122843,370.690071 C131.594155,372.06652 132.485492,373.371925 133.077566,374.622435 C133.855168,376.285475 134.129425,377.925911 134.135878,379.518716 C134.160078,382.391094 133.088859,384.989796 132.97593,385.198887 L132.97593,385.210189 C131.342483,388.562104 132.700058,392.602646 136.037936,394.278603 C139.404853,395.961019 143.48968,394.601524 145.164265,391.231849 C145.409484,390.681269 147.699536,386.179758 147.742288,379.517909 C147.742288,377.111344 147.413179,374.418188 146.498449,371.622504 C145.588558,368.832471 144.076108,365.966552 141.851393,363.302458 C137.377766,357.950859 130.272071,353.605964 119.884156,350.82239 C112.940596,348.955102 104.459579,347.739307 93.9869674,347.344537 C83.2513908,346.948959 74.9986532,345.141412 69.1198582,342.704977 C63.2168641,340.275001 59.7838027,337.252465 58.1326098,334.65457 C57.0202528,332.905956 56.613706,331.355938 56.6080595,329.829331 C56.6145127,328.272855 57.0565516,326.645335 58.1753618,324.855549 C59.2877188,323.077872 61.1115327,321.192824 63.7677994,319.457126 C69.0545204,315.997033 77.6428204,313.291767 89.2092366,313.309528 C94.9323499,313.309528 101.050717,313.309528 107.312666,313.309528 C107.331219,313.585625 107.342512,313.752736 107.342512,313.752736 L439.607358,313.752736 C446.233909,313.752736 452.215147,309.759825 454.750418,303.637253 C457.290528,297.502572 455.885361,290.445952 451.197167,285.753111 Z M364.996887,267 C358.920824,267 354.000018,262.072933 354.000018,255.996869 C354.000018,249.921588 358.920824,245 364.996887,245 C371.072951,245 376.000018,249.921588 376.000018,255.996869 C376.000018,262.072933 371.073734,267 364.996887,267 Z" transform="matrix(-1 0 0 1 456 -105)"/></svg>