<?xml version="1.0" encoding="UTF-8" standalone="no"?><!DOCTYPE svg PUBLIC "-//W3C//DTD SVG 1.1//EN" "http://www.w3.org/Graphics/SVG/1.1/DTD/svg11.dtd"><svg width="100%" height="100%" viewBox="0 0 1721 1504" version="1.1" xmlns="http://www.w3.org/2000/svg" xmlns:xlink="http://www.w3.org/1999/xlink" xml:space="preserve" xmlns:serif="http://www.serif.com/" style="fill-rule:evenodd;clip-rule:evenodd;stroke-linejoin:round;stroke-miterlimit:2;"><rect id="Artboard1" x="0" y="0" width="1720.83" height="1503.55" style="fill:none;"/><clipPath id="_clip1"><rect x="0" y="0" width="1720.83" height="1503.55"/></clipPath><g clip-path="url(#_clip1)"><path d="M20.012,1047.82l250.717,-250.896c-75.132,-39.555 -126.394,-118.317 -126.394,-209.172c0,-130.534 105.711,-236.357 236.141,-236.357c42.836,-0 82.882,11.598 117.497,31.552c-32.397,47.661 -51.359,105.144 -51.359,166.997c-0,68.886 23.698,132.209 63.072,182.685l34.81,-24.165c-34.585,-43.547 -55.345,-98.565 -55.345,-158.52c-0,-140.962 114.156,-255.262 255.052,-255.262c130.979,-0 238.756,98.837 253.259,226.057c19.191,2.691 38.651,6.062 58.511,10.3c353.91,75.365 395.678,432.781 398.071,574.866l74.258,-0c42.614,0.023 79.296,7.279 109.272,20.122c29.88,12.87 53.353,31.327 67.98,54.446c9.747,15.389 15.279,32.998 15.279,51.004c0.024,17.633 -5.384,35.266 -15.353,50.732c-9.969,15.538 -24.273,29.03 -42.167,40.251c-35.936,22.322 -86.297,36.167 -152.831,38.71c-45.381,1.672 -79.293,7.407 -103.818,15.016c-24.593,7.632 -39.647,16.957 -48.842,25.538c-6.131,5.735 -9.845,11.174 -12.312,16.384c-3.24,6.93 -4.383,13.765 -4.409,20.402c-0.101,11.968 4.362,22.796 4.833,23.667l-0,0.047c6.806,13.966 1.149,30.802 -12.759,37.785c-14.029,7.01 -31.049,1.346 -38.026,-12.695c-1.022,-2.294 -10.564,-21.05 -10.742,-48.808c0,-10.027 1.371,-21.249 5.183,-32.897c3.791,-11.625 10.093,-23.567 19.363,-34.667c18.64,-22.298 48.247,-40.402 91.53,-52c28.931,-7.781 64.269,-12.847 107.905,-14.491c44.731,-1.649 79.118,-9.18 103.613,-19.332c24.595,-10.125 38.9,-22.719 45.78,-33.543c4.635,-7.286 6.329,-13.745 6.352,-20.106c-0.027,-6.485 -1.869,-13.266 -6.53,-20.724c-4.635,-7.407 -12.234,-15.261 -23.302,-22.493c-22.028,-14.417 -58.065,-23.8 -106.259,-23.726c-23.846,0 -75.302,-0.042 -75.302,-0.042l-1384.44,-0c-27.611,-0 -52.533,-16.637 -63.096,-42.148c-10.584,-25.561 -4.729,-54.964 14.805,-74.517Zm357.423,-77.738c24.784,-0 44.855,-20.089 44.855,-44.864c0,-24.771 -20.071,-44.838 -44.855,-44.838c-24.784,0 -44.881,20.067 -44.881,44.838c-0,24.775 20.094,44.864 44.881,44.864Z" style="fill:#787acf;fill-rule:nonzero;"/></g></svg>