<svg xmlns="http://www.w3.org/2000/svg" width="830" height="916" viewBox="0 0 830 916"><g fill="none" transform="translate(.198 .466)"><path fill="#313945" d="M167.219707,0.237527827 C188.579707,-1.63217217 210.752707,7.75692783 227.346707,20.6234278 C255.036707,42.0935278 272.797707,77.4870278 277.002707,111.978028 C280.583707,110.649028 284.285707,109.562028 287.920707,108.381028 C288.640707,105.062028 289.526707,102.228028 291.541707,99.4270278 C296.675707,92.2860278 304.643707,89.8790278 312.832707,88.3820278 C313.198707,86.4900278 313.617707,84.5330278 314.453707,82.7890278 C316.374707,78.7820278 319.579707,75.7800278 323.815707,74.3730278 C338.962707,69.3410278 362.616707,81.3510278 375.874707,88.2010278 C380.352707,90.5140278 383.876707,95.1120278 388.523707,96.8060278 C392.981707,98.4300278 398.248707,98.4600278 402.898707,99.5850278 C417.881707,103.208028 455.121707,113.475028 465.200707,124.735028 C474.827707,97.4130278 487.969707,72.2530278 507.538707,50.6450278 C527.853707,28.2134278 555.179707,9.38592783 586.336707,8.08902783 C609.814707,7.11172783 631.817707,16.2726278 648.925707,32.1252278 C672.835707,54.2810278 684.113707,84.2010278 685.365707,116.431028 C686.769707,152.562028 675.533707,188.977028 650.599707,215.681028 C627.016707,240.938028 592.416707,255.537028 558.024707,256.572028 C559.906707,263.556028 561.858707,270.544028 563.177707,277.662028 C566.837707,297.416028 568.336707,324.143028 564.064707,343.876028 C569.098707,344.231028 577.120707,343.800028 581.605707,346.246028 C582.875707,346.939028 583.914707,348.085028 584.034707,349.584028 C584.135707,350.838028 583.503707,352.208028 582.635707,353.081028 C578.894707,356.839028 567.081707,354.661028 562.125707,354.472028 C559.826707,369.295028 550.547707,387.532028 541.084707,399.093028 C546.478707,402.058028 557.267707,407.822028 559.427707,413.944028 C559.845707,415.131028 559.835707,416.292028 559.182707,417.394028 C558.493707,418.558028 557.328707,419.255028 556.023707,419.477028 C551.042707,420.323028 538.307707,410.220028 533.727707,407.094028 C524.980707,416.465028 515.513707,424.642028 505.108707,432.105028 C505.408707,432.382361 505.704707,432.663694 505.996707,432.949028 C517.700707,444.400028 521.748707,457.769028 521.826707,473.777028 C533.637707,475.075028 545.257707,475.239028 556.747707,471.807028 C561.718707,470.322028 566.556707,468.337028 571.561707,466.983028 C583.037707,463.878028 592.289707,466.557028 602.375707,472.338028 C603.413707,470.822028 604.630707,469.405028 605.824707,468.010028 C616.525707,455.501028 642.751707,434.173028 659.972707,433.127028 C665.568707,432.787028 671.291707,433.986028 675.547707,437.842028 C679.101707,441.062028 680.946707,445.760028 681.168707,450.495028 C681.568707,459.029028 676.915707,465.425028 671.515707,471.444028 C685.608707,473.081028 701.637707,475.774028 714.053707,483.014028 C719.930707,486.442028 725.235707,491.667028 726.902707,498.456028 C728.350707,504.350028 726.872707,509.930028 723.716707,514.966028 C726.596707,520.867028 727.897707,525.972028 725.806707,532.500028 C723.442707,539.882028 718.119707,543.828028 711.521707,547.151028 C710.340707,550.032028 709.044707,552.833028 707.367707,555.464028 C700.929707,565.565028 690.012707,569.477028 678.796707,571.926028 C660.631707,575.892028 635.336707,574.264028 619.303707,564.031028 C617.516707,566.169028 615.703707,568.142028 613.406707,569.743028 C606.609707,574.482028 596.891707,575.937028 588.736707,575.377028 C584.603707,575.092028 580.250707,574.381028 576.111707,574.724028 C570.424707,575.196028 564.744707,576.969028 559.049707,577.669028 C539.311707,580.093028 511.011707,581.179028 491.757707,577.438028 C492.001707,597.844028 493.255707,618.295028 493.775707,638.706028 C494.052707,649.584028 494.940707,661.148028 493.135707,671.929028 C492.321707,676.794028 490.707707,680.673028 488.137707,684.866028 C503.714707,698.607028 518.382707,712.803028 532.459707,728.081028 C545.857707,742.621028 557.970707,757.790028 573.348707,770.373028 C590.095707,784.077028 612.103707,793.125028 634.024707,790.752028 C648.534707,789.181028 662.933707,783.517028 672.232707,771.813028 C679.388707,762.807028 682.589707,751.891028 683.296707,740.530028 C684.514707,720.955028 679.641707,702.769028 673.965707,684.281028 C670.737707,673.766028 667.377707,663.110028 666.230707,652.126028 C663.637707,627.295028 669.467707,602.684028 685.429707,583.172028 C698.751707,566.887028 718.347707,555.311028 739.481707,553.242028 C740.137707,553.182694 740.794707,553.131694 741.452707,553.089028 C742.11004,553.045694 742.76804,553.010694 743.426707,552.984028 C744.084707,552.957361 744.74304,552.938694 745.401707,552.928028 C746.06104,552.918028 746.72004,552.915694 747.378707,552.921028 C748.037373,552.927028 748.69604,552.941028 749.354707,552.963028 C750.013373,552.985028 750.671707,553.015361 751.329707,553.054028 C751.987707,553.092028 752.64504,553.138361 753.301707,553.193028 C753.957707,553.247694 754.613373,553.310361 755.268707,553.381028 C755.92404,553.451694 756.578373,553.530361 757.231707,553.617028 C757.88504,553.704361 758.53704,553.799361 759.187707,553.902028 C759.838373,554.005361 760.487707,554.116361 761.135707,554.235028 C761.783707,554.354361 762.430373,554.481361 763.075707,554.616028 C763.720373,554.751361 764.363373,554.894361 765.004707,555.045028 C765.64604,555.195694 766.285707,555.354361 766.923707,555.521028 C767.56104,555.687694 768.196373,555.862361 768.829707,556.045028 C769.46304,556.227028 770.093707,556.417028 770.721707,556.615028 C771.350373,556.813028 771.976373,557.018694 772.599707,557.232028 C773.22304,557.445361 773.843707,557.666361 774.461707,557.895028 C775.079707,558.123694 775.69504,558.360028 776.307707,558.604028 C776.919707,558.848028 777.528707,559.099361 778.134707,559.358028 C778.740707,559.617361 779.343373,559.883694 779.942707,560.157028 C780.54204,560.431028 781.137707,560.712361 781.729707,561.001028 C782.322373,561.289694 782.911373,561.585361 783.496707,561.888028 C784.081373,562.191361 784.662373,562.501694 785.239707,562.819028 C785.817707,563.136361 786.391373,563.460694 786.960707,563.792028 C787.53004,564.124028 788.095373,564.462694 788.656707,564.808028 C789.217373,565.153361 789.77404,565.505694 790.326707,565.865028 C790.878707,566.224361 791.426373,566.590361 791.969707,566.963028 C792.51304,567.335694 793.051707,567.715361 793.585707,568.102028 C794.119707,568.488028 794.64904,568.880361 795.173707,569.279028 C795.697707,569.678361 796.21704,570.084028 796.731707,570.496028 C797.245707,570.908028 797.754707,571.326361 798.258707,571.751028 C815.180707,585.927028 827.342707,605.683028 829.282707,628.002028 C830.090707,637.307028 829.528707,652.299028 822.867707,659.703028 C821.561707,661.155028 819.889707,662.201028 817.887707,662.199028 C810.213707,662.192028 809.253707,646.624028 808.011707,641.165028 C807.22304,637.825694 806.193707,634.562361 804.923707,631.375028 C804.188373,629.503694 803.359373,627.675361 802.436707,625.890028 C801.513373,624.104028 800.50104,622.370028 799.399707,620.688028 C798.298373,619.006694 797.113707,617.386028 795.845707,615.826028 C794.578373,614.266028 793.23404,612.775028 791.812707,611.353028 C791.199373,610.741694 790.57104,610.146361 789.927707,609.567028 C789.28504,608.987028 788.62804,608.423694 787.956707,607.877028 C787.285373,607.329694 786.60104,606.799694 785.903707,606.287028 C785.206373,605.773694 784.496373,605.278361 783.773707,604.801028 C783.051707,604.323028 782.31804,603.863694 781.572707,603.423028 C780.82804,602.981694 780.072707,602.559361 779.306707,602.156028 C778.54004,601.752694 777.76404,601.368694 776.978707,601.004028 C776.193373,600.639361 775.399707,600.294361 774.597707,599.969028 C773.79504,599.643694 772.98504,599.338694 772.167707,599.054028 C771.349707,598.769361 770.525373,598.505028 769.694707,598.261028 C768.86404,598.017028 768.027707,597.794028 767.185707,597.592028 C766.343707,597.390028 765.49704,597.209028 764.645707,597.049028 C763.79504,596.889028 762.940707,596.750361 762.082707,596.633028 C761.225373,596.515694 760.365373,596.419694 759.502707,596.345028 C758.64004,596.270361 757.77604,596.217361 756.910707,596.186028 C756.045373,596.154694 755.179707,596.144694 754.313707,596.156028 C742.112707,596.334028 730.412707,601.769028 721.948707,610.501028 C713.061707,619.669028 707.690707,632.149028 707.943707,644.961028 L707.963707,645.654028 C709.023707,659.358028 713.900707,671.714028 718.570707,684.477028 C726.119707,705.111028 731.341707,726.913028 729.035707,749.034028 C726.348707,774.825028 714.587707,798.863028 694.176707,815.214028 C671.665707,833.247028 641.085707,839.807028 612.793707,836.476028 C565.102707,830.861028 534.154707,801.475028 503.328707,767.821028 C496.172707,760.009028 488.215707,752.507028 481.656707,744.201028 C481.687707,758.665028 483.174707,773.449028 484.423707,787.863028 C485.576707,801.171028 488.653707,817.832028 485.452707,830.769028 C491.531707,845.218028 496.194707,869.255028 491.120707,884.537028 C487.723707,894.768028 479.266707,902.289028 469.781707,906.893028 C450.501707,916.254028 423.367707,917.066028 403.221707,910.096028 C395.055707,907.271028 386.795707,902.288028 383.046707,894.143028 C376.670707,880.290028 381.752707,855.335028 386.627707,841.253028 C384.179707,838.345028 381.904707,835.720028 380.919707,831.942028 C378.537707,822.808028 379.176707,812.077028 377.923707,802.643028 C374.815707,779.242028 369.966707,757.065028 362.616707,734.647028 C358.097373,734.319028 353.572373,734.105361 349.041707,734.006028 C346.207707,755.257028 344.122707,776.304028 342.774707,797.701028 C342.35604,803.709694 342.02804,809.723028 341.790707,815.741028 C341.621707,820.843028 341.870707,826.221028 340.981707,831.257028 C340.212707,835.609028 337.744707,837.690028 334.266707,840.143028 C334.447707,840.612028 334.630707,841.082028 334.791707,841.558028 C337.921707,850.793028 339.110707,862.774028 334.563707,871.755028 C327.489707,885.729028 309.051707,893.105028 295.069707,897.693028 C270.451707,905.772028 234.734707,910.677028 210.963707,898.360028 C202.955707,894.210028 196.247707,887.874028 193.517707,879.053028 C191.076707,871.167028 191.154707,860.806028 195.118707,853.491028 C203.955707,837.183028 228.404707,830.022028 245.113707,825.211028 C234.652707,801.243028 235.589707,721.062028 238.933707,693.136028 C234.048707,690.598028 229.279707,688.227028 225.702707,683.892028 C223.031707,680.654028 221.699707,676.648028 220.940707,672.575028 C219.458707,664.625028 219.796707,656.175028 219.801707,648.106028 C219.814707,624.040028 221.525707,600.220028 224.076707,576.295028 C197.142707,577.216028 173.932707,577.979028 148.884707,566.059028 C140.956707,566.816028 132.808707,566.789028 125.563707,563.016028 C119.955707,560.094028 115.498707,555.197028 113.519707,549.182028 C95.0087065,558.164028 71.2597065,560.294028 50.9317065,558.021028 C41.4477065,556.961028 27.1897065,554.588028 21.0497065,546.484028 C17.4717065,541.760028 17.5627065,537.147028 18.3747065,531.611028 C14.5583065,529.857028 10.7208065,528.118028 7.40880653,525.491028 C2.83290653,521.862028 -0.318593469,516.237028 0.545406531,510.253028 C0.889806531,507.868028 2.03850653,505.257028 1.94710653,502.858028 C1.82560653,499.667028 0.373306531,496.444028 0.0705065312,493.205028 C-0.505893469,487.038028 2.52730653,479.692028 6.40790653,475.069028 C20.8067065,457.917028 47.2867065,462.102028 66.9277065,460.550028 C63.5047065,454.665028 59.6747065,448.740028 58.8307065,441.835028 C58.1397065,436.181028 59.2657065,429.749028 62.9907065,425.292028 C63.2013732,425.035361 63.4183732,424.784694 63.6417065,424.540028 C63.8657065,424.295361 64.0960399,424.056361 64.3327065,423.823028 C64.5687065,423.590361 64.8110399,423.364028 65.0597065,423.144028 C65.3077065,422.924028 65.5617065,422.710694 65.8217065,422.504028 C66.0810399,422.297361 66.3457065,422.097694 66.6157065,421.905028 C66.8857065,421.712361 67.1607065,421.527028 67.4407065,421.349028 C67.7207065,421.171028 68.0050399,421.000361 68.2937065,420.837028 C68.5830399,420.674361 68.8760399,420.519028 69.1727065,420.371028 C69.4700399,420.223694 69.7710399,420.084028 70.0757065,419.952028 C70.3797065,419.820028 70.6873732,419.696361 70.9987065,419.581028 C71.3093732,419.465694 71.6230399,419.358361 71.9397065,419.259028 C72.2563732,419.160361 72.5757065,419.070028 72.8977065,418.988028 C73.2190399,418.906028 73.5423732,418.832361 73.8677065,418.767028 C74.1930399,418.701694 74.5197065,418.645361 74.8477065,418.598028 C75.1763732,418.550028 75.5057065,418.510694 75.8357065,418.480028 C76.1663732,418.450028 76.4973732,418.428361 76.8287065,418.415028 C94.6777065,417.568028 106.688707,439.641028 116.579707,451.670028 C120.982707,457.025028 125.899707,461.630028 130.988707,466.310028 C133.868707,464.885028 136.523707,463.485028 139.768707,463.104028 C152.625707,461.595028 175.955707,471.771028 190.061707,473.367028 C204.808707,475.035028 219.773707,474.039028 234.439707,472.201028 C234.257707,469.740028 233.911707,467.075028 234.239707,464.625028 C234.727707,460.965028 236.506707,459.236028 239.320707,457.052028 C212.920707,443.411028 189.271707,428.454028 171.573707,403.919028 C167.535707,398.320028 163.318707,392.063028 160.935707,385.547028 C155.054707,386.320028 149.145707,386.753028 143.274707,387.653028 C135.886707,388.786028 128.460707,390.520028 121.026707,391.229028 C119.359707,391.388028 116.914707,391.658028 115.357707,391.038028 C113.613707,390.344028 112.670707,388.871028 111.771707,387.317028 C111.684707,385.993028 111.564707,385.546028 112.386707,384.414028 C116.336707,378.968028 148.262707,375.905028 156.297707,374.756028 C152.933707,365.292028 150.948707,355.818028 149.056707,345.982028 C141.213707,345.047028 133.294707,344.100028 125.405707,343.710028 C119.796707,343.433028 114.122707,343.690028 108.532707,343.196028 C106.763707,343.040028 104.399707,342.855028 102.860707,341.933028 C101.841707,341.324028 101.018707,339.942028 100.926707,338.748028 C100.825707,337.435028 101.056707,336.417028 102.022707,335.490028 C107.318707,330.413028 140.516707,333.770028 148.350707,334.720028 C147.912707,302.616028 152.123707,268.404028 164.520707,238.580028 C161.449373,237.454694 158.43304,236.197361 155.471707,234.808028 C152.510373,233.418694 149.61504,231.903028 146.785707,230.261028 C143.95704,228.618361 141.205373,226.855361 138.530707,224.972028 C135.856707,223.088694 133.269707,221.092028 130.769707,218.982028 C103.063707,195.877028 88.7577065,163.962028 85.7067065,128.441028 C82.7317065,93.8160278 91.6377065,55.1770278 114.412707,28.3488278 C128.236707,12.0645278 145.831707,2.05662783 167.219707,0.237527827 Z"/><path fill="#F2F2F4" d="M461.812707,136.513028 C461.721707,139.875028 460.766707,146.765028 463.034707,149.370028 C463.877707,150.340028 465.029707,150.676028 466.275707,150.656028 C467.494707,150.636028 468.877707,150.132028 469.633707,149.155028 C470.619707,147.882028 478.674707,123.166028 480.540707,118.590028 C496.768707,78.7810278 530.058707,33.3179278 574.333707,23.8710278 C575.47704,23.6268945 576.625373,23.4110278 577.778707,23.2234278 C578.932707,23.0357612 580.090373,22.8765945 581.251707,22.7459278 C582.413707,22.6151945 583.57804,22.5130945 584.744707,22.4396278 C585.911373,22.3662278 587.07904,22.3214945 588.247707,22.3054278 C589.416373,22.2894278 590.584707,22.2981358 591.752707,22.3435278 C592.920707,22.3849945 594.087373,22.4550945 595.252707,22.5538278 C596.417373,22.6526278 597.578707,22.7799945 598.736707,22.9359278 C599.895373,23.0918612 601.049373,23.2761612 602.198707,23.4888278 C603.34804,23.7014945 604.491707,23.9422612 605.629707,24.2111278 C606.76704,24.4800612 607.89704,24.7767612 609.019707,25.1012278 C610.14304,25.4256945 611.257373,25.7775612 612.362707,26.1568278 C613.468707,26.5361612 614.564707,26.9423945 615.650707,27.3755278 C616.73604,27.8086612 617.810373,28.2682278 618.873707,28.7542278 C619.936373,29.2402278 620.986707,29.7520612 622.024707,30.2897278 C623.062707,30.8273945 624.08704,31.3902278 625.097707,31.9782278 C626.107707,32.5662945 627.102707,33.1787945 628.082707,33.8157278 C650.313707,48.2770278 664.732707,72.0350278 670.089707,97.7360278 C676.615707,129.045028 671.655707,164.678028 653.766707,191.549028 C636.420707,217.605028 610.849707,235.894028 580.002707,241.956028 C574.471707,243.043028 556.447707,246.173028 551.902707,242.961028 C550.953707,242.291028 550.360707,240.255028 549.960707,239.199028 C545.463707,228.974028 540.183707,219.486028 533.789707,210.320028 C541.051707,196.639028 546.268707,181.935028 546.885707,166.354028 C542.590707,167.775028 538.520707,170.097028 534.413707,171.998028 C530.119707,173.987028 525.696707,175.703028 521.299707,177.449028 C524.072707,141.911028 531.369707,109.756028 555.546707,81.9070278 C566.780707,68.9670278 582.734707,57.6640278 600.333707,56.5990278 C614.200707,55.7590278 628.578707,60.2570278 639.078707,69.4620278 C642.670707,72.6110278 645.619707,76.3670278 649.188707,79.5170278 L649.587707,79.8630278 C643.043707,65.8230278 632.764707,54.8590278 618.009707,49.5060278 C604.417707,44.5741278 589.749707,46.1320278 576.818707,52.2690278 C549.327707,65.3170278 530.244707,94.3460278 520.430707,122.323028 C514.464707,139.332028 512.032707,156.380028 510.957707,174.290028 C510.707707,178.468028 509.806707,184.470028 511.652707,188.365028 C512.079707,189.264028 512.652707,189.743028 513.468707,190.303028 C515.950707,190.809028 533.000707,181.407028 536.230707,179.454028 C532.609707,192.456028 527.709707,199.352028 522.231707,210.879028 L522.502707,211.506028 C526.450707,220.483028 532.655707,228.530028 536.871707,237.490028 C537.81704,239.546028 538.72504,241.618694 539.595707,243.708028 C540.466373,245.797361 541.29904,247.901694 542.093707,250.021028 C542.888373,252.139694 543.644373,254.272361 544.361707,256.419028 C545.079707,258.565694 545.758373,260.724694 546.397707,262.896028 C547.03704,265.066694 547.63704,267.248361 548.197707,269.441028 C548.75904,271.633694 549.28004,273.836028 549.760707,276.048028 C550.24204,278.259361 550.683373,280.478694 551.084707,282.706028 C551.485373,284.933361 551.84604,287.167361 552.166707,289.408028 C552.486707,291.648694 552.766373,293.894361 553.005707,296.145028 C553.244373,298.395694 553.442707,300.649694 553.600707,302.907028 C553.758707,305.165028 553.875707,307.425028 553.951707,309.687028 C554.027707,311.949028 554.062707,314.211694 554.056707,316.475028 C554.051373,318.738361 554.00504,321.000694 553.917707,323.262028 C553.830373,325.524028 553.70204,327.783361 553.532707,330.040028 C553.36404,332.296694 553.154373,334.550028 552.903707,336.800028 C552.65304,339.049361 552.36204,341.293361 552.030707,343.532028 C528.916707,343.441028 480.255707,345.136028 463.033707,361.746028 C461.902707,362.836028 461.027707,363.956028 460.920707,365.584028 C460.864707,366.433028 461.069707,366.549028 461.469707,367.225028 C463.950707,367.325028 468.239707,364.854028 470.754707,363.955028 C477.176707,361.661028 483.867707,360.080028 490.545707,358.730028 C495.420373,357.770694 500.317373,356.943361 505.236707,356.248028 C510.15604,355.552694 515.090707,354.990028 520.040707,354.560028 C524.99004,354.130694 529.947707,353.835028 534.913707,353.673028 C539.87904,353.511028 544.845373,353.482694 549.812707,353.588028 C545.722707,367.650028 539.168707,381.586028 530.638707,393.471028 C514.891707,387.909028 479.961707,377.327028 464.447707,384.656028 C462.356707,385.644028 460.070707,386.733028 459.061707,388.924028 C459.877707,390.002028 459.998707,390.488028 461.442707,390.598028 C463.416707,390.747028 465.672707,390.275028 467.677707,390.233028 C470.427707,390.174028 473.267707,390.440028 476.012707,390.628028 C492.181707,391.740028 506.954707,395.865028 522.045707,401.428028 C517.613707,406.866028 512.067707,411.483028 506.567707,415.816028 C481.416707,435.628028 451.734707,447.913028 421.420707,457.451028 C412.260707,460.333028 399.108707,462.166028 390.946707,466.364028 C384.693707,469.581028 379.412707,475.912028 373.814707,480.233028 C363.126707,488.484028 350.954707,496.334028 339.071707,502.724028 C326.502707,498.346028 316.732707,491.989028 308.479707,481.348028 C312.928707,482.532028 325.027707,486.205028 329.044707,484.885028 C329.830707,484.037028 330.378707,482.995028 330.363707,481.804028 C330.343707,480.177028 329.677707,478.983028 328.477707,477.951028 C325.482707,475.375028 293.314707,465.875028 286.892707,463.817028 C242.853707,449.698028 194.133707,424.554028 171.654707,382.065028 C176.600707,381.495028 181.563707,380.966028 186.547707,380.927028 C189.825707,380.901028 193.151707,381.227028 196.419707,381.084028 C197.135707,381.053028 197.694707,380.854028 198.330707,380.543028 C198.746707,379.607028 198.887707,379.837028 198.534707,379.017028 C197.513707,376.647028 194.190707,374.339028 191.773707,373.605028 C184.826707,371.498028 175.136707,372.259028 167.900707,372.740028 C165.099707,364.874028 163.065707,356.939028 161.475707,348.750028 C171.759707,350.689028 181.491707,353.324028 191.523707,356.248028 C193.048707,356.692028 194.869707,357.457028 196.455707,357.300028 C197.193707,355.993028 197.160707,355.029028 196.729707,353.588028 C195.696707,350.134028 192.329707,348.253028 189.280707,346.726028 C180.469707,342.312028 169.851707,339.927028 160.176707,338.143028 C158.146707,279.179028 181.526707,206.190028 222.207707,162.703028 C224.219707,160.573028 226.290707,158.502028 228.420707,156.490028 C230.551373,154.478694 232.737707,152.530028 234.979707,150.644028 C237.222373,148.758028 239.516707,146.937694 241.862707,145.183028 C244.209373,143.428361 246.604373,141.742361 249.047707,140.125028 C251.49104,138.507028 253.978373,136.960694 256.509707,135.486028 C259.041707,134.011361 261.613707,132.610361 264.225707,131.283028 C266.837707,129.955694 269.485707,128.704028 272.169707,127.528028 C274.853707,126.352694 277.56904,125.255028 280.315707,124.235028 C285.692707,122.246028 291.112707,120.258028 296.900707,120.039028 C303.823707,119.776028 312.302707,124.414028 317.694707,123.359028 C318.558707,122.420028 318.578707,122.373028 318.714707,121.104028 C316.483707,114.849028 302.852707,109.960028 303.755707,104.385028 C305.960707,101.674028 310.618707,101.067028 313.961707,100.742028 C325.654707,99.6070278 338.239707,106.289028 348.700707,110.701028 C344.735707,102.676028 339.711707,97.0250278 332.355707,91.9290278 C330.027707,90.3160278 327.379707,88.9120278 325.401707,86.8740278 C326.115707,85.9680278 326.545707,85.8320278 327.664707,85.7220278 C330.600707,85.4330278 334.091707,86.3100278 336.953707,86.9130278 C350.303707,89.7220278 364.917707,94.8840278 375.214707,104.128028 C377.018707,105.756694 378.630707,107.557028 380.050707,109.529028 C405.915707,109.867028 440.976707,121.364028 461.812707,136.513028 Z"/><path fill="#FAC3B7" d="M521.299707,177.449028 C524.072707,141.911028 531.369707,109.756028 555.546707,81.9070278 C566.780707,68.9670278 582.734707,57.6640278 600.333707,56.5990278 C614.200707,55.7590278 628.578707,60.2570278 639.078707,69.4620278 C642.670707,72.6110278 645.619707,76.3670278 649.188707,79.5170278 L649.587707,79.8630278 C657.887707,87.9110278 661.589707,116.990028 661.750707,128.254028 C662.150707,156.327028 653.548707,185.539028 633.644707,205.983028 C614.141707,226.015028 594.135707,233.550028 566.930707,237.416028 C561.329707,238.212028 555.479707,238.226028 549.960707,239.199028 C545.463707,228.974028 540.183707,219.486028 533.789707,210.320028 C541.051707,196.639028 546.268707,181.935028 546.885707,166.354028 C542.590707,167.775028 538.520707,170.097028 534.413707,171.998028 C530.119707,173.987028 525.696707,175.703028 521.299707,177.449028 Z"/><path fill="#313945" d="M299.294707,350.226028 C306.911707,349.258028 315.697707,350.433028 322.567707,353.960028 C327.784707,356.638028 332.287707,360.846028 334.016707,366.592028 C335.718707,372.252028 334.256707,378.510028 331.328707,383.505028 C326.492707,391.758028 318.787707,395.051028 309.875707,397.195028 C310.602373,405.893028 311.48304,414.575361 312.517707,423.242028 C337.018707,424.223028 360.835707,420.902028 382.683707,408.987028 C386.739707,406.775028 390.534707,404.015028 394.489707,401.622028 C396.875707,400.179028 399.415707,398.690028 402.267707,399.395028 C403.284707,400.256028 403.576707,400.461028 403.817707,401.850028 C404.717707,407.035028 393.652707,427.266028 390.591707,432.048028 C380.453707,447.886028 366.270707,460.785028 347.546707,464.928028 C339.635707,466.499028 330.895707,465.578028 323.755707,461.718028 C311.923707,455.321028 307.349707,444.465028 303.630707,432.213028 C293.443707,429.792028 283.939707,426.129028 275.034707,420.583028 C266.871707,415.499028 252.947707,405.161028 251.183707,394.997028 C250.965707,393.743028 251.070707,393.196028 251.802707,392.187028 C252.932707,391.938028 253.284707,391.752028 254.319707,392.465028 C257.201707,394.452028 261.665707,399.919028 264.885707,402.632028 C275.956707,411.958028 288.881707,417.020028 302.459707,421.481028 C301.483707,413.309694 300.891373,405.110361 300.682707,396.883028 C294.940707,395.286028 289.253707,393.627028 284.352707,390.104028 C278.997707,386.255028 274.739707,380.363028 273.772707,373.746028 C273.068707,368.930028 274.015707,364.091028 277.022707,360.202028 C282.336707,353.327028 291.109707,351.140028 299.294707,350.226028 Z"/><path fill="#FAC3B7" d="M387.208707,418.541028 L387.559707,418.985028 C385.573707,424.875028 380.509707,431.292028 376.495707,435.996028 C368.256707,445.651028 356.278707,455.842028 343.035707,456.715028 C335.075707,457.239028 328.831707,454.392028 322.964707,449.281028 C318.675707,444.569028 316.472707,439.344028 314.333707,433.420028 C342.059707,434.374028 362.164707,431.838028 387.208707,418.541028 Z M297.138707,359.728028 C303.708707,358.974028 311.892707,359.045028 318.182707,361.209028 C321.398707,362.315028 324.653707,364.250028 326.043707,367.506028 C327.041707,369.842028 326.742707,372.565028 325.746707,374.846028 C323.280707,380.496028 317.352707,384.514028 311.812707,386.678028 C304.736707,388.176028 297.520707,386.415028 291.424707,382.679028 C287.256707,380.126028 283.008707,376.118028 282.014707,371.133028 C281.581707,368.956028 281.856707,366.619028 283.229707,364.815028 C286.349707,360.714028 292.419707,360.279028 297.138707,359.728028 Z"/><path fill="#313945" d="M419.212707,276.661028 C424.773707,276.189028 429.976707,277.078028 434.844707,279.924028 C442.409707,284.345028 446.956707,292.375028 449.186707,300.627028 C449.396707,301.422361 449.587373,302.222361 449.758707,303.027028 C449.93004,303.831694 450.081707,304.640028 450.213707,305.452028 C450.345707,306.264028 450.45804,307.078694 450.550707,307.896028 C450.643373,308.713361 450.71604,309.532694 450.768707,310.354028 C450.82204,311.174694 450.85504,311.996361 450.867707,312.819028 C450.88104,313.641694 450.874313,314.464028 450.846707,315.286028 C450.82004,316.108694 450.773373,316.930028 450.706707,317.750028 C450.640707,318.570028 450.554373,319.387694 450.447707,320.203028 C450.341707,321.019028 450.215707,321.832028 450.069707,322.642028 C449.924373,323.451361 449.759373,324.257028 449.574707,325.059028 C449.39004,325.860361 449.18604,326.657028 448.962707,327.449028 C448.739373,328.241028 448.49704,329.027028 448.235707,329.807028 C447.974373,330.587028 447.694373,331.360028 447.395707,332.126028 C447.09704,332.892694 446.779707,333.651694 446.443707,334.403028 C446.108373,335.153694 445.754707,335.896028 445.382707,336.630028 C445.011373,337.364028 444.622373,338.088694 444.215707,338.804028 C439.162707,347.522028 432.653707,352.247028 422.928707,354.896028 C416.764707,355.694028 410.516707,353.945028 405.458707,350.391028 C397.741707,344.968028 393.495707,336.166028 391.909707,327.056028 C389.647707,314.056028 391.855707,299.742028 399.633707,288.877028 C404.452707,282.144028 411.024707,278.005028 419.212707,276.661028 Z"/><path fill="#FFF" d="M425.015707,295.278028 C425.388373,295.206694 425.763707,295.156361 426.141707,295.127028 C426.519707,295.097694 426.898373,295.089694 427.277707,295.103028 C427.65704,295.115694 428.034373,295.149694 428.409707,295.205028 C428.78504,295.259694 429.15604,295.335361 429.522707,295.432028 C429.889373,295.528028 430.249707,295.644361 430.603707,295.781028 C430.957707,295.917694 431.30304,296.073361 431.639707,296.248028 C431.976373,296.423361 432.30204,296.616694 432.616707,296.828028 C432.93204,297.038694 433.234373,297.266694 433.523707,297.512028 C433.81304,297.756694 434.08804,298.017028 434.348707,298.293028 C434.609373,298.568361 434.853707,298.857694 435.081707,299.161028 C435.310373,299.463694 435.521373,299.778361 435.714707,300.105028 C435.907373,300.431028 436.081707,300.767028 436.237707,301.113028 C436.393707,301.459028 436.529707,301.812361 436.645707,302.173028 C436.762373,302.534361 436.858373,302.900694 436.933707,303.272028 C437.00904,303.644028 437.063707,304.018694 437.097707,304.396028 C437.131707,304.774028 437.144373,305.152694 437.135707,305.532028 C437.132373,305.674028 437.126373,305.815694 437.117707,305.957028 C437.108373,306.098361 437.096373,306.239361 437.081707,306.380028 C437.066373,306.521361 437.048373,306.662028 437.027707,306.802028 C437.00704,306.942028 436.983373,307.081694 436.956707,307.221028 C436.93004,307.360361 436.900707,307.499028 436.868707,307.637028 C436.83604,307.775028 436.800707,307.912361 436.762707,308.049028 C436.724707,308.185028 436.68404,308.320694 436.640707,308.456028 C436.596707,308.590694 436.55004,308.724361 436.500707,308.857028 C436.451373,308.989694 436.399373,309.121361 436.344707,309.252028 C436.29004,309.382694 436.232373,309.512361 436.171707,309.641028 C436.111707,309.769028 436.04904,309.896028 435.983707,310.022028 C435.918373,310.147361 435.850373,310.271694 435.779707,310.395028 C435.70904,310.517694 435.635707,310.639028 435.559707,310.759028 C435.484373,310.878361 435.406373,310.996361 435.325707,311.113028 C435.24504,311.229694 435.16204,311.344694 435.076707,311.458028 C434.991373,311.570694 434.903707,311.682028 434.813707,311.792028 C434.723707,311.901361 434.631373,312.008694 434.536707,312.114028 C434.44204,312.220028 434.345373,312.323694 434.246707,312.425028 C434.14804,312.526361 434.04704,312.625694 433.943707,312.723028 C433.84104,312.820361 433.73604,312.915694 433.628707,313.009028 C433.52204,313.101694 433.413373,313.192361 433.302707,313.281028 C433.19204,313.369694 433.079373,313.455694 432.964707,313.539028 C432.850707,313.623028 432.734707,313.704694 432.616707,313.784028 C432.499373,313.862694 432.38004,313.939028 432.258707,314.013028 C432.13804,314.087028 432.015707,314.158361 431.891707,314.227028 C431.767707,314.296361 431.642373,314.362694 431.515707,314.426028 C431.389707,314.490028 431.26204,314.551028 431.132707,314.609028 C431.003373,314.667694 430.87304,314.723361 430.741707,314.776028 C430.610373,314.828694 430.477707,314.879028 430.343707,314.927028 C430.210373,314.974361 430.07604,315.018694 429.940707,315.060028 C429.805373,315.102028 429.66904,315.141028 429.531707,315.177028 C429.39504,315.213028 429.257373,315.246361 429.118707,315.277028 C428.899373,315.325028 428.678373,315.366028 428.455707,315.400028 C428.233707,315.433361 428.010707,315.459361 427.786707,315.478028 C427.562707,315.497361 427.338373,315.509028 427.113707,315.513028 C426.88904,315.517028 426.664373,315.513361 426.439707,315.502028 C426.215707,315.491361 425.99204,315.473361 425.768707,315.448028 C425.545373,315.422028 425.32304,315.389028 425.101707,315.349028 C424.88104,315.309028 424.661707,315.261694 424.443707,315.207028 C424.225707,315.151694 424.009707,315.089694 423.795707,315.021028 C423.581707,314.951694 423.370373,314.875694 423.161707,314.793028 C422.952373,314.709694 422.746373,314.620028 422.543707,314.524028 C422.34104,314.427361 422.141373,314.324028 421.944707,314.214028 C421.748707,314.104028 421.556707,313.988028 421.368707,313.866028 C421.18004,313.743361 420.995707,313.614694 420.815707,313.480028 C420.635707,313.345361 420.460373,313.205028 420.289707,313.059028 C420.11904,312.913028 419.953373,312.761361 419.792707,312.604028 C419.63204,312.446694 419.476707,312.284361 419.326707,312.117028 C419.176707,311.949694 419.032373,311.777694 418.893707,311.601028 C418.75504,311.423694 418.622373,311.242361 418.495707,311.057028 C418.369707,310.871028 418.249373,310.681361 418.134707,310.488028 C418.020707,310.294028 417.913373,310.096694 417.812707,309.896028 C417.711373,309.695361 417.61704,309.491694 417.529707,309.285028 C417.441707,309.077694 417.36104,308.868028 417.287707,308.656028 C417.213707,308.443361 417.14704,308.228694 417.087707,308.012028 C417.027707,307.795361 416.97504,307.577028 416.929707,307.357028 C416.88504,307.137028 416.847373,306.915694 416.816707,306.693028 C416.78604,306.470361 416.762707,306.247028 416.746707,306.023028 C416.731373,305.798361 416.72304,305.573694 416.721621,305.349028 C416.72104,305.124361 416.727707,304.900028 416.741707,304.676028 C416.75504,304.451361 416.77604,304.227694 416.804707,304.005028 C416.833373,303.782361 416.869373,303.560694 416.912707,303.340028 C416.95604,303.119361 417.006707,302.900361 417.064707,302.683028 C417.12204,302.465694 417.186707,302.250694 417.258707,302.038028 C417.330707,301.825361 417.409707,301.615028 417.495707,301.407028 C417.58104,301.199694 417.673373,300.995028 417.772707,300.793028 C417.87204,300.591694 417.97804,300.393694 418.090707,300.199028 C418.203373,300.004361 418.32204,299.813694 418.446707,299.627028 C418.57204,299.440361 418.70304,299.258028 418.839707,299.080028 C418.97704,298.901361 419.12004,298.727694 419.268707,298.559028 C419.417373,298.390361 419.57104,298.227028 419.729707,298.069028 C419.88904,297.910361 420.053707,297.757028 420.223707,297.609028 C420.39304,297.461694 420.56704,297.320028 420.745707,297.184028 C420.924373,297.047361 421.107373,296.917028 421.294707,296.793028 C421.48204,296.669028 421.673373,296.551361 421.868707,296.440028 C422.06404,296.328694 422.262707,296.223694 422.464707,296.125028 C422.666707,296.027028 422.871707,295.935694 423.079707,295.851028 C423.288373,295.766361 423.49904,295.688361 423.711707,295.617028 C423.92504,295.546361 424.140707,295.482694 424.358707,295.426028 C424.57604,295.369361 424.79504,295.320028 425.015707,295.278028 Z"/><path fill="#313945" d="M239.507707,274.124028 C244.832707,273.861028 249.733707,274.463028 254.507707,277.011028 C261.808707,280.909028 266.676707,288.106028 269.030707,295.893028 C269.233373,296.588361 269.41904,297.288028 269.587707,297.992028 C269.756373,298.696028 269.907707,299.403694 270.041707,300.115028 C270.17504,300.827028 270.29104,301.541694 270.389707,302.259028 C270.488373,302.976361 270.569373,303.695694 270.632707,304.417028 C270.69604,305.138361 270.741373,305.860694 270.768707,306.584028 C270.796707,307.307361 270.806707,308.031028 270.798707,308.755028 C270.791373,309.479028 270.76604,310.202361 270.722707,310.925028 C270.678707,311.648361 270.617373,312.369694 270.538707,313.089028 C270.46004,313.809028 270.363707,314.526361 270.249707,315.241028 C270.135707,315.956361 270.00404,316.668361 269.854707,317.377028 C269.705373,318.085028 269.53904,318.789361 269.355707,319.490028 C269.171707,320.190694 268.970707,320.886028 268.752707,321.576028 C268.534707,322.266694 268.30004,322.951361 268.048707,323.630028 C267.797373,324.309361 267.529373,324.981694 267.244707,325.647028 C266.96004,326.313028 266.65904,326.971694 266.341707,327.623028 C266.02504,328.273694 265.692373,328.916361 265.343707,329.551028 C260.846707,337.758028 254.268707,343.349028 245.256707,345.960028 C244.84804,346.037361 244.43804,346.104028 244.026707,346.160028 C243.614707,346.216028 243.201707,346.261694 242.787707,346.297028 C242.373707,346.331694 241.95904,346.356028 241.543707,346.370028 C241.128373,346.383759 240.71304,346.387361 240.297707,346.380028 C239.881707,346.372028 239.466373,346.353694 239.051707,346.325028 C238.637707,346.296361 238.224373,346.257028 237.811707,346.207028 C237.39904,346.157694 236.98804,346.097361 236.578707,346.026028 C236.168707,345.955361 235.76104,345.874028 235.355707,345.782028 C234.950373,345.690028 234.547707,345.588028 234.147707,345.476028 C233.747707,345.363361 233.350707,345.240694 232.956707,345.108028 C232.563373,344.975361 232.173373,344.832694 231.786707,344.680028 C231.40004,344.527361 231.017707,344.364694 230.639707,344.192028 C230.261707,344.020028 229.88804,343.838361 229.518707,343.647028 C229.15004,343.455694 228.786373,343.255028 228.427707,343.045028 C228.06904,342.835028 227.71604,342.616028 227.368707,342.388028 C227.021373,342.159361 226.68004,341.922361 226.344707,341.677028 C219.066707,336.443028 214.873707,327.261028 213.399707,318.623028 C211.502707,307.505028 213.680707,295.022028 220.395707,285.812028 C225.182707,279.244028 231.465707,275.449028 239.507707,274.124028 Z"/><path fill="#FFF" d="M244.140707,290.864028 C244.358707,290.794028 244.57904,290.731361 244.801707,290.676028 C245.024373,290.621361 245.248373,290.573694 245.473707,290.533028 C245.699707,290.493028 245.926373,290.460361 246.153707,290.435028 C246.381707,290.409694 246.61004,290.392028 246.838707,290.382028 C247.06804,290.372028 247.297373,290.369694 247.526707,290.375028 C247.755373,290.380361 247.98404,290.393361 248.212707,290.414028 C248.440707,290.434028 248.66804,290.462028 248.894707,290.498028 C249.120707,290.533361 249.345707,290.576361 249.569707,290.627028 C249.79304,290.677694 250.014373,290.735694 250.233707,290.801028 C250.453707,290.866361 250.67104,290.939028 250.885707,291.019028 C251.100373,291.099028 251.312373,291.186028 251.521707,291.280028 C251.73104,291.373361 251.936707,291.474028 252.138707,291.582028 C252.341373,291.689361 252.54004,291.803694 252.734707,291.925028 C252.929373,292.045694 253.119707,292.172694 253.305707,292.306028 C253.492373,292.439361 253.67404,292.579028 253.850707,292.725028 C254.02804,292.870361 254.20004,293.021694 254.366707,293.179028 C254.533373,293.336361 254.69504,293.498694 254.851707,293.666028 C255.007707,293.834028 255.15804,294.007028 255.302707,294.185028 C255.446707,294.363028 255.58504,294.545361 255.717707,294.732028 C255.850373,294.919361 255.976373,295.110694 256.095707,295.306028 C256.215707,295.501361 256.32904,295.700694 256.435707,295.904028 C256.541707,296.106694 256.64104,296.312694 256.733707,296.522028 C256.826373,296.732028 256.91204,296.944694 256.990707,297.160028 C257.069373,297.375361 257.140707,297.593028 257.204707,297.813028 C257.268707,298.033028 257.325373,298.255028 257.374707,298.479028 C257.42404,298.702361 257.46604,298.927361 257.500707,299.154028 C257.534707,299.380694 257.561373,299.608361 257.580707,299.837028 C257.599373,300.065028 257.610707,300.293694 257.614707,300.523028 C257.618707,300.752361 257.61504,300.981361 257.603707,301.210028 C257.592373,301.439361 257.573373,301.667694 257.546707,301.895028 C257.520707,302.123028 257.486707,302.349694 257.444707,302.575028 C257.403373,302.800361 257.354373,303.024028 257.297707,303.246028 C257.24104,303.468028 257.17704,303.688028 257.105707,303.906028 C257.03504,304.124028 256.956707,304.339361 256.870707,304.552028 C256.785373,304.764694 256.69304,304.974028 256.593707,305.180028 C256.494373,305.386694 256.38804,305.589694 256.274707,305.789028 C256.16204,305.988361 256.042707,306.183694 255.916707,306.375028 C255.790707,306.567028 255.658373,306.754361 255.519707,306.937028 C255.381707,307.119694 255.237373,307.297361 255.086707,307.470028 C254.936707,307.643361 254.78104,307.811361 254.619707,307.974028 C254.457707,308.136694 254.29104,308.293694 254.119707,308.445028 C253.947707,308.596361 253.770707,308.742028 253.588707,308.882028 C253.407373,309.022028 253.221373,309.155694 253.030707,309.283028 C252.84004,309.410361 252.645373,309.531361 252.446707,309.646028 C252.248707,309.760028 252.046707,309.867694 251.840707,309.969028 C251.634707,310.069694 251.425707,310.163694 251.213707,310.251028 C251.001707,310.337694 250.78704,310.417694 250.569707,310.491028 C250.35304,310.563694 250.133707,310.629028 249.911707,310.687028 C249.53304,310.786361 249.149707,310.864028 248.761707,310.920028 C248.373707,310.976028 247.983707,311.009694 247.591707,311.021028 C247.200373,311.032361 246.809373,311.021694 246.418707,310.989028 C246.028707,310.955694 245.641373,310.900361 245.256707,310.823028 C244.872707,310.746361 244.494373,310.647694 244.121707,310.527028 C243.748373,310.407028 243.383373,310.266028 243.026707,310.104028 C242.67004,309.942694 242.323373,309.761361 241.986707,309.560028 C241.650707,309.358694 241.32704,309.139028 241.015707,308.901028 C240.704373,308.663028 240.407707,308.408028 240.125707,308.136028 C239.843707,307.864028 239.577707,307.577028 239.327707,307.275028 C239.078373,306.973028 238.84704,306.658028 238.633707,306.330028 C238.419707,306.001361 238.225373,305.661694 238.050707,305.311028 C237.875373,304.960361 237.720707,304.601028 237.586707,304.233028 C237.452707,303.865028 237.34004,303.490694 237.248707,303.110028 C237.157373,302.728694 237.087707,302.343694 237.039707,301.955028 C236.992373,301.566361 236.96704,301.176028 236.963707,300.784028 C236.961707,300.510694 236.970373,300.237694 236.989707,299.965028 C237.00904,299.693028 237.03904,299.422028 237.079707,299.152028 C237.12104,298.881361 237.172707,298.613028 237.234707,298.347028 C237.296707,298.081028 237.369373,297.818028 237.452707,297.558028 C237.535373,297.298028 237.628707,297.041361 237.732707,296.788028 C237.83604,296.535361 237.94904,296.287028 238.071707,296.043028 C238.19504,295.799694 238.327707,295.561361 238.469707,295.328028 C238.612373,295.094694 238.763707,294.867361 238.923707,294.646028 C239.083707,294.424694 239.252373,294.210028 239.429707,294.002028 C239.606373,293.794028 239.791373,293.593361 239.984707,293.400028 C240.17804,293.206694 240.378373,293.021361 240.585707,292.844028 C240.793707,292.666694 241.008373,292.497694 241.229707,292.337028 C241.45104,292.177028 241.67804,292.025694 241.910707,291.883028 C242.14404,291.741028 242.382707,291.608361 242.626707,291.485028 C242.87004,291.361694 243.118373,291.248028 243.371707,291.144028 C243.624373,291.040694 243.880707,290.947361 244.140707,290.864028 Z"/><path fill="#313945" d="M426.521707,206.669028 C434.256707,205.655028 442.880707,207.738028 449.800707,211.149028 C455.543707,213.979028 465.363707,220.791028 467.154707,227.337028 C467.608707,228.997028 467.157707,231.260028 466.301707,232.737028 C465.489707,234.138028 464.539707,234.585028 463.035707,234.988028 C459.571707,234.309028 456.385707,228.619028 454.193707,225.895028 C454.070707,225.756028 453.953707,225.613028 453.825707,225.479028 C446.120707,217.460028 432.584707,213.222028 421.783707,216.443028 C418.936707,217.293028 414.612707,220.849028 411.830707,220.399028 C410.464707,220.178028 410.251707,219.777028 409.593707,218.706028 C409.508707,216.682028 410.016707,215.049028 411.237707,213.403028 C414.286707,209.293028 421.718707,207.325028 426.521707,206.669028 Z M243.643707,204.248028 C244.249707,204.228028 244.85604,204.214361 245.462707,204.207028 C252.875707,204.127028 261.258707,206.545028 266.495707,212.055028 C267.395707,213.002028 268.191707,214.262028 268.013707,215.627028 C267.846707,216.913028 267.243707,217.672028 266.309707,218.488028 C263.086707,219.171028 259.999707,216.514028 257.125707,215.243028 C248.664707,211.501028 241.454707,212.598028 233.163707,215.745028 C226.092707,218.609028 222.160707,224.851028 216.637707,227.248028 C215.818707,227.167028 215.151707,227.270028 214.476707,226.743028 C213.408707,225.908028 212.935707,224.694028 212.826707,223.371028 C212.598707,220.619028 214.218707,218.562028 215.925707,216.570028 C222.682707,208.686028 233.544707,204.879028 243.643707,204.248028 Z"/><path fill="#3B4352" d="M393.476707,383.569028 C394.49604,383.499694 395.515707,383.488694 396.535707,383.536028 C397.556373,383.583361 398.57104,383.688361 399.579707,383.851028 C400.587707,384.013694 401.583373,384.233028 402.566707,384.509028 C403.550707,384.785694 404.515373,385.117028 405.460707,385.503028 C409.541707,387.191028 414.791707,390.707028 416.328707,395.101028 C416.762707,396.343028 416.683707,397.008028 416.196707,398.189028 C414.814707,398.710028 414.251707,398.360028 412.845707,398.004028 C406.300707,394.482028 399.297707,390.083028 391.870707,388.867028 C390.528707,388.647028 389.358707,388.401028 388.073707,387.962028 C387.842707,387.190028 387.640707,387.232028 387.999707,386.673028 C389.079707,384.996028 391.693707,384.187028 393.476707,383.569028 Z"/><path fill="#7A7BBE" d="M334.919707,517.884028 C336.719707,517.290028 338.658707,516.721028 340.326707,515.813028 C345.125707,513.198028 349.597707,509.240028 354.181707,506.190028 C364.499707,499.325028 375.154707,492.828028 385.212707,485.588028 C388.903707,482.932028 392.455707,479.007028 396.451707,476.939028 C400.862707,474.655028 406.233707,473.794028 411.011707,472.510028 C416.744373,470.936028 422.43904,469.234361 428.095707,467.405028 C433.878373,465.547028 439.610373,463.544694 445.291707,461.398028 C450.973707,459.251361 456.59804,456.963361 462.164707,454.534028 C467.730707,452.104028 473.232373,449.535694 478.669707,446.829028 C484.10704,444.121694 489.472707,441.279694 494.766707,438.303028 C505.172707,448.659028 510.492707,458.396028 511.396707,473.253028 C498.672707,471.815028 486.505707,470.517028 473.838707,473.384028 C449.366707,478.922028 417.757707,498.034028 393.286707,508.089028 C388.048707,510.221694 382.74604,512.180361 377.378707,513.965028 C371.767707,515.822028 361.940707,517.486028 357.399707,520.624028 C357.257707,520.722028 357.130707,520.839028 356.995707,520.947028 L356.887707,522.064028 C358.038707,523.284028 359.057707,523.491028 360.724707,523.559028 C368.322707,523.868028 376.772707,521.641028 384.057707,519.599028 C390.705707,517.781028 397.269373,515.697361 403.748707,513.348028 C410.22804,510.998694 416.601707,508.391361 422.869707,505.526028 C441.172707,497.340028 460.114707,486.350028 480.122707,482.986028 C496.016707,480.313028 511.345707,485.007028 527.045707,486.516028 C534.749707,487.256028 542.395707,486.768028 550.090707,487.140028 C551.376707,486.465028 567.239707,481.927028 568.160707,482.089028 C568.709707,483.597028 568.400707,484.341028 568.120707,485.899028 C563.015707,505.388028 560.249707,528.197028 564.654707,548.036028 C565.924707,553.756028 568.094707,559.101028 570.257707,564.525028 C540.973707,569.049028 510.197707,569.137028 480.671707,567.149028 C472.914707,566.627028 465.268707,565.072028 457.513707,564.582028 C465.007707,568.678028 472.444707,571.978028 480.402707,575.047028 C481.06404,588.918361 481.63304,602.793694 482.109707,616.673028 C482.430707,624.753028 483.311707,633.281028 482.861707,641.345028 C482.740707,643.519028 482.562707,646.215028 481.163707,647.990028 C479.324707,650.323028 476.384707,652.142028 473.876707,653.694028 C456.659707,664.347028 434.659707,667.720028 414.807707,670.027028 C371.173707,675.099028 290.825707,674.681028 250.522707,657.484028 C243.383707,654.438028 237.449707,650.238028 231.407707,645.460028 C231.318707,621.607028 232.951707,597.364028 235.432707,573.654028 C236.814707,560.458028 239.282707,547.237028 239.748707,533.973028 C239.913707,529.265028 240.214707,522.046028 237.930707,517.798028 L237.140707,517.581028 C232.630707,522.413028 227.624707,556.675028 226.130707,564.788028 C207.196707,566.514028 176.213707,566.455028 158.700707,558.633028 C155.198707,557.069028 152.747707,555.376028 151.432707,551.673028 C146.641707,538.179028 152.148707,504.137028 158.465707,491.731028 C160.410707,487.911028 163.113707,484.420028 167.433707,483.314028 C174.792707,481.430028 183.620707,483.617028 191.098707,484.250028 C208.624707,485.734028 225.750707,484.946028 242.578707,479.503028 C256.573707,497.018028 272.502707,509.281028 293.064707,518.282028 C298.509707,520.665028 304.249707,523.112028 310.075707,524.327028 C312.278707,524.786028 315.463707,525.603028 317.451707,524.313028 C317.505707,524.032028 317.658707,523.754028 317.614707,523.471028 C317.420707,522.237028 298.040707,513.039028 295.524707,511.620028 C273.818707,499.375028 260.410707,488.416028 247.304707,466.945028 L247.382707,466.115028 C248.031707,465.229028 248.598707,464.643028 249.639707,464.218028 C253.104707,462.802028 257.724707,465.009028 260.931707,466.320028 C272.156707,470.108028 283.270707,474.392028 294.323707,478.658028 C305.044707,500.071028 320.006707,502.634028 334.919707,517.884028 Z"/><path fill="#715F72" d="M550.090707,487.140028 C551.376707,486.465028 567.239707,481.927028 568.160707,482.089028 C568.709707,483.597028 568.400707,484.341028 568.120707,485.899028 L567.506707,485.339028 C567.349707,485.418028 567.197707,485.508028 567.034707,485.575028 C563.037707,487.229028 554.184707,488.224028 550.090707,487.140028 Z"/><path fill="#497698" d="M249.644707,694.832028 C254.659707,695.282028 259.849707,696.701028 264.800707,697.699028 C274.731707,699.700028 284.675707,701.760028 294.733707,703.024028 C345.240707,709.373028 419.987707,709.924028 468.679707,695.399028 C468.592707,721.370028 470.031707,747.705028 472.250707,773.592028 C473.391707,786.900028 475.421707,800.243028 476.051707,813.574028 C476.274707,818.289028 476.403707,824.652028 472.896707,828.241028 C464.425707,836.913028 438.481707,838.774028 427.008707,838.559028 C415.547707,838.343028 398.854707,837.164028 390.458707,828.388028 C390.253373,822.837361 389.986373,817.289694 389.657707,811.745028 C402.588707,816.615028 418.027707,817.845028 431.756707,817.533028 C440.874707,817.325028 466.067707,815.422028 472.361707,808.279028 C473.833707,806.609028 474.015707,804.878028 473.957707,802.737028 C471.532707,801.571028 461.064707,806.396028 457.888707,807.159028 C439.952707,811.469028 413.741707,810.848028 395.864707,806.254028 C393.842707,805.734028 390.528707,805.219028 388.907707,804.047028 C388.776707,803.953028 388.668707,803.830028 388.549707,803.721028 C386.487707,784.378028 378.342707,739.847028 369.319707,723.017028 C362.98504,723.433694 356.646373,723.501694 350.303707,723.221028 C342.738707,722.850028 323.035707,719.966028 316.637707,721.819028 C315.223707,722.229028 314.204707,722.728028 313.534707,724.048028 C313.606707,724.195028 313.657707,724.355028 313.750707,724.490028 C315.997707,727.769028 333.981707,730.587028 338.640707,731.448028 C337.017707,737.674028 336.332707,744.306028 335.585707,750.690028 C333.615707,767.527028 333.081707,784.464028 331.241707,801.290028 C312.670707,806.384028 288.315707,804.854028 270.036707,799.714028 C264.001707,798.018028 258.203707,795.554028 252.382707,793.248028 C252.344707,795.688028 252.524707,798.094028 252.695707,800.526028 C275.211707,814.485028 305.642707,814.017028 330.779707,809.631028 C330.754707,814.668028 331.791707,826.662028 328.040707,830.271028 C324.182707,833.982028 308.302707,833.601028 302.584707,833.518028 C294.225707,833.396028 262.909707,830.517028 257.124707,824.055028 C248.315707,814.214028 247.287707,754.856028 247.470707,739.907028 C247.654707,724.849028 248.702707,709.854028 249.644707,694.832028 Z"/><path fill="#FAC3B7" d="M171.644707,222.783028 C171.464707,223.229028 171.179707,223.954028 170.970707,224.363028 C170.369707,225.539028 170.053707,225.955028 168.736707,226.290028 C164.365707,227.403028 150.646707,218.987028 146.748707,216.313028 C121.235707,198.818028 105.555707,171.934028 99.8927065,141.807028 C93.9297065,110.091028 98.8157065,73.2620278 117.456707,46.3579278 C128.297707,30.7110278 143.781707,18.6910278 162.831707,15.3014278 C181.535707,11.9733278 200.075707,18.2036278 215.366707,28.9434278 C245.496707,50.1070278 258.523707,82.3300278 264.689707,117.350028 C258.509707,120.445028 252.365707,123.778028 246.638707,127.657028 C241.626707,131.051028 236.449707,135.478028 231.019707,138.046028 C230.995707,136.106028 230.92804,134.167361 230.816707,132.230028 C230.705373,130.292694 230.550373,128.359028 230.351707,126.429028 C230.15304,124.499028 229.91104,122.574361 229.625707,120.655028 C229.339707,118.735694 229.010707,116.824028 228.638707,114.920028 C228.267373,113.015361 227.85304,111.120361 227.395707,109.235028 C226.938373,107.349694 226.438707,105.475361 225.896707,103.612028 C225.354707,101.748694 224.77104,99.8986945 224.145707,98.0620278 C223.519707,96.2253612 222.85304,94.4036945 222.145707,92.5970278 C214.043707,71.7680278 199.128707,50.1290278 178.027707,40.9111278 C167.438707,36.2855278 154.592707,35.3501278 143.763707,39.7896278 C130.422707,45.2592278 121.481707,55.1930278 115.973707,68.3700278 C116.150707,68.2770278 116.336707,68.2010278 116.504707,68.0930278 C119.462707,66.1870278 122.104707,61.7620278 124.643707,59.1640278 C133.810707,49.7830278 147.737707,43.9397278 160.904707,46.0345278 C176.468707,48.5110278 190.308707,59.6400278 199.278707,72.1420278 C215.540707,94.8070278 219.640707,119.759028 221.853707,146.787028 C198.433707,169.827028 184.108707,192.481028 171.644707,222.783028 Z"/><path fill="#F2F2F4" d="M171.644707,222.783028 C171.464707,223.229028 171.179707,223.954028 170.970707,224.363028 C170.369707,225.539028 170.053707,225.955028 168.736707,226.290028 C164.365707,227.403028 150.646707,218.987028 146.748707,216.313028 C121.235707,198.818028 105.555707,171.934028 99.8927065,141.807028 C93.9297065,110.091028 98.8157065,73.2620278 117.456707,46.3579278 C128.297707,30.7110278 143.781707,18.6910278 162.831707,15.3014278 C181.535707,11.9733278 200.075707,18.2036278 215.366707,28.9434278 C245.496707,50.1070278 258.523707,82.3300278 264.689707,117.350028 C258.509707,120.445028 252.365707,123.778028 246.638707,127.657028 C241.626707,131.051028 236.449707,135.478028 231.019707,138.046028 C230.995707,136.106028 230.92804,134.167361 230.816707,132.230028 C230.705373,130.292694 230.550373,128.359028 230.351707,126.429028 C230.15304,124.499028 229.91104,122.574361 229.625707,120.655028 C229.339707,118.735694 229.010707,116.824028 228.638707,114.920028 C228.267373,113.015361 227.85304,111.120361 227.395707,109.235028 C226.938373,107.349694 226.438707,105.475361 225.896707,103.612028 C225.354707,101.748694 224.77104,99.8986945 224.145707,98.0620278 C223.519707,96.2253612 222.85304,94.4036945 222.145707,92.5970278 C214.043707,71.7680278 199.128707,50.1290278 178.027707,40.9111278 C167.438707,36.2855278 154.592707,35.3501278 143.763707,39.7896278 C130.422707,45.2592278 121.481707,55.1930278 115.973707,68.3700278 C113.663707,74.5840278 111.244707,80.8160278 109.717707,87.2790278 C103.671707,112.863028 105.057707,143.304028 116.102707,167.380028 C124.344707,185.346028 138.065707,203.789028 154.910707,214.545028 C160.112707,217.866028 166.025707,220.252028 171.644707,222.783028 Z"/><path fill="#F8C8B4" d="M739.669707,564.721028 C743.766707,564.345028 748.022707,564.276028 752.128707,564.488028 C770.323707,565.426028 787.235707,574.638028 799.176707,588.182028 C812.404707,603.186028 819.158707,620.694028 817.971707,640.708028 C814.801707,625.137028 808.042707,611.553028 795.853707,601.048028 C795.086373,600.377361 794.30304,599.726694 793.503707,599.096028 C792.703707,598.464694 791.888707,597.854028 791.058707,597.264028 C790.22804,596.674028 789.383373,596.105361 788.524707,595.558028 C787.665373,595.010028 786.79304,594.484361 785.907707,593.981028 C785.022373,593.477028 784.124707,592.996028 783.214707,592.538028 C782.305373,592.079361 781.384707,591.644028 780.452707,591.232028 C779.521373,590.819361 778.58004,590.430694 777.628707,590.066028 C776.67804,589.701361 775.718373,589.360694 774.749707,589.044028 C773.781707,588.727361 772.80604,588.435361 771.822707,588.168028 C770.84004,587.900694 769.85104,587.658028 768.855707,587.440028 C767.860373,587.222694 766.860373,587.030361 765.855707,586.863028 C764.85104,586.695694 763.842707,586.553694 762.830707,586.437028 C761.818707,586.320361 760.804373,586.229028 759.787707,586.163028 C758.77104,586.097694 757.753373,586.057694 756.734707,586.043028 C755.71604,586.029028 754.697707,586.040361 753.679707,586.077028 C752.661707,586.113694 751.645373,586.176028 750.630707,586.264028 C735.387707,587.500028 720.513707,594.682028 710.639707,606.471028 C684.690707,637.456028 701.388707,667.007028 712.045707,699.380028 C715.285707,709.225028 717.702707,719.603028 718.527707,729.948028 C720.435707,753.887028 713.576707,778.229028 697.825707,796.610028 C681.923707,815.169028 658.754707,824.455028 634.733707,826.225028 C597.868707,828.942028 569.780707,815.639028 542.535707,792.149028 C528.466707,780.645028 516.603707,765.569028 504.146707,752.350028 C496.289707,744.011028 487.580707,736.436028 479.911707,727.933028 C479.649707,716.267028 479.304707,704.638028 479.254707,692.967028 C495.700707,705.653028 510.888707,721.446028 524.794707,736.848028 C538.227707,751.725028 551.069707,767.024028 567.028707,779.313028 C587.905707,795.390028 612.056707,804.677028 638.699707,801.053028 C655.380707,798.784028 671.596707,790.802028 681.782707,777.121028 C688.247707,768.436028 691.680707,758.738028 693.356707,748.107028 C697.102707,724.359028 690.537707,701.996028 683.727707,679.553028 C681.000707,670.565028 678.227707,661.691028 676.949707,652.351028 C674.030707,631.005028 678.980707,609.780028 692.225707,592.588028 C703.962707,577.355028 720.595707,567.271028 739.669707,564.721028 Z"/><path fill="#F2F2F4" d="M660.903707,444.101028 C663.653707,443.942028 666.283707,443.600028 668.434707,445.666028 C670.162707,447.325028 671.045707,450.361028 670.892707,452.694028 C670.270707,462.194028 659.748707,468.592028 653.426707,474.120028 C652.196707,475.195028 651.288707,476.205028 651.182707,477.908028 C652.168707,479.594028 653.330707,480.220028 655.205707,480.726028 C659.813707,481.968028 664.981707,482.026028 669.720707,482.617028 C683.084707,484.281028 698.259707,487.189028 709.928707,494.118028 C712.680707,495.752028 715.683707,498.091028 716.357707,501.416028 C716.854707,503.870028 715.618707,505.679028 714.349707,507.640028 C701.506707,502.800028 683.566707,500.454028 670.091707,503.541028 C668.291707,503.954028 667.266707,504.523028 666.294707,506.098028 C666.443707,507.352028 666.315707,507.668028 667.587707,508.250028 C669.371707,509.066028 673.278707,509.057028 675.308707,509.347028 C687.060707,511.026028 703.499707,512.778028 712.601707,520.952028 C714.193707,522.382028 715.537707,523.684028 715.564707,525.971028 C715.598707,528.842028 714.359707,532.039028 712.213707,533.970028 C710.265707,535.722028 707.771707,536.517028 705.193707,536.695028 C699.733707,537.071028 693.525707,535.308028 688.106707,534.439028 C682.951707,533.612028 677.820707,533.020028 672.619707,532.563028 C669.803707,532.458028 666.881707,532.039028 664.352707,533.513028 L664.333707,534.317028 C665.522707,535.409028 666.680707,535.944028 668.189707,536.509028 C672.896707,538.270028 678.136707,539.138028 682.995707,540.515028 C688.661707,542.120028 694.135707,544.274028 699.603707,546.440028 C698.098707,549.458028 696.448707,551.423028 693.727707,553.438028 C678.720707,564.550028 652.480707,564.947028 635.499707,558.823028 C627.893707,556.081028 622.765707,551.874028 614.439707,550.665028 C609.095707,546.195028 606.097707,541.169028 604.139707,534.562028 C599.574707,519.152028 601.172707,499.060028 608.927707,484.886028 C618.155707,468.019028 642.528707,449.374028 660.903707,444.101028 Z M75.2557065,428.469028 C90.1257065,428.620028 100.207707,450.275028 108.394707,460.234028 C113.498707,466.443028 119.323707,471.631028 125.389707,476.852028 C114.359707,492.745028 112.748707,518.328028 112.380707,537.221028 C93.6027065,546.832028 63.1917065,550.617028 42.6127065,545.228028 C38.4017065,544.126028 30.3077065,542.568028 28.3637065,538.235028 C27.8487065,537.089028 27.7587065,535.796028 28.3427065,534.658028 C31.4487065,528.602028 45.7297065,529.863028 51.5187065,528.314028 C53.2547065,527.849028 56.2567065,527.011028 57.2297065,525.419028 C55.5317065,523.801028 49.7087065,523.459028 47.3337065,523.114028 C37.1427065,521.422028 26.6917065,522.477028 17.0187065,517.965028 C14.7252065,516.895028 12.2635065,515.283028 11.6210065,512.666028 C11.1908065,510.914028 11.8028065,508.963028 12.8450065,507.539028 C20.2687065,497.393028 47.1137065,500.010028 58.3597065,498.122028 C59.6447065,497.906028 60.0307065,497.529028 60.7857065,496.516028 C60.6387065,495.200028 60.6467065,494.796028 59.6117065,493.840028 C54.7847065,489.384028 30.9027065,490.204028 24.3197065,491.015028 C20.1837065,491.524028 16.2293065,492.905028 12.1063065,493.319028 L11.2903065,492.116028 C11.0355065,489.814028 11.6433065,488.171028 12.6977065,486.126028 C20.4967065,470.994028 52.5247065,471.846028 66.9487065,471.669028 C72.7347065,471.598028 79.4237065,472.279028 84.9917065,470.522028 C85.2527065,470.151028 85.4737065,469.893028 85.5947065,469.425028 C86.8217065,464.660028 79.3297065,457.860028 76.7457065,454.404028 C73.3597065,449.877028 68.5087065,441.858028 69.6047065,436.023028 C70.2357065,432.666028 72.4937065,430.259028 75.2557065,428.469028 Z M253.070707,835.033028 C257.053707,834.895028 262.377707,838.268028 266.507707,839.117028 C285.242707,842.967028 305.295707,844.851028 324.284707,841.868028 C326.658707,849.211028 328.775707,857.944028 325.549707,865.345028 C321.504707,874.626028 308.496707,880.364028 299.673707,883.801028 C286.179707,889.058028 272.308707,892.275028 257.954707,894.004028 C255.566707,894.292028 251.817707,895.229028 249.655707,894.073028 C241.940707,889.949028 257.890707,869.397028 256.643707,864.435028 L255.662707,864.032028 C253.535707,864.583028 251.994707,866.030028 250.295707,867.359028 C249.974707,867.659028 249.651707,867.955028 249.342707,868.267028 C241.485707,876.190028 239.759707,883.236028 239.676707,894.225028 C232.944707,893.241028 223.967707,892.748028 218.213707,888.775028 C216.388707,887.515028 215.224707,885.998028 214.931707,883.753028 C213.905707,875.898028 229.561707,862.661028 234.515707,856.875028 C232.945707,857.266361 231.388707,857.704694 229.844707,858.190028 C218.083707,861.907028 212.163707,868.506028 206.928707,879.343028 C206.800707,879.609028 206.681707,879.880028 206.558707,880.149028 L204.955707,879.656028 C204.843707,879.378028 204.718707,879.106028 204.620707,878.824028 C202.658707,873.147028 201.505707,866.579028 204.241707,861.014028 C211.727707,845.789028 238.176707,840.056028 253.070707,835.033028 Z"/><path fill="#7A7BBE" d="M481.089707,675.707028 C479.703707,677.492028 478.178707,679.089028 476.383707,680.470028 C466.383707,688.166028 452.259707,690.377028 440.096707,692.497028 C392.781707,700.741028 342.612707,700.308028 295.110707,693.978028 C280.408707,692.019028 242.729707,687.126028 234.012707,674.971028 C230.232707,669.700028 230.992707,661.144028 231.979707,655.063028 C243.975707,664.250028 258.077707,667.854028 272.662707,670.820028 C322.282707,680.913028 374.736707,681.711028 424.826707,674.800028 C439.889707,672.722028 456.423707,670.020028 470.344707,663.702028 C474.908707,661.630028 478.642707,658.521028 482.765707,655.788028 L483.233707,656.391028 C483.399707,663.212028 483.544707,669.201028 481.089707,675.707028 Z"/><path fill="#F2F2F4" d="M475.845707,838.462028 C476.872707,839.247028 477.140707,839.953028 477.569707,841.163028 C481.762707,852.990028 484.315707,873.961028 478.156707,885.640028 C473.549707,894.374028 462.811707,897.630028 454.057707,900.271028 C454.971707,896.925028 455.777707,893.775028 455.818707,890.275028 C455.874707,885.436028 454.671707,880.617028 451.110707,877.161028 C449.882707,875.970028 448.048707,874.285028 446.253707,874.332028 C445.544707,875.595028 448.190707,887.705028 447.658707,891.519028 C447.030707,896.022028 444.915707,899.469028 441.232707,902.087028 C441.070707,902.201028 440.906707,902.313028 440.744707,902.426028 C436.131707,902.799028 431.051707,903.234028 426.466707,902.541028 C423.280707,902.060028 420.468707,900.781028 418.552707,898.104028 C414.764707,892.810028 415.661707,884.448028 416.471707,878.370028 C416.840707,876.336028 417.202707,874.357028 417.283707,872.285028 L416.641707,871.691028 C416.199707,871.752028 415.973707,871.748028 415.545707,871.997028 C413.149707,873.388028 409.631707,879.460028 409.103707,882.205028 C407.706707,889.461028 408.346707,893.843028 410.856707,900.766028 C404.020707,898.418028 396.790707,896.016028 393.016707,889.284028 C387.080707,878.695028 393.852707,854.936028 397.266707,843.536028 C398.75204,843.974694 400.241707,844.398028 401.735707,844.806028 C424.675707,851.033028 454.803707,850.473028 475.845707,838.462028 Z"/><path fill="#7A7BBE" d="M577.714707,476.674028 C578.989707,476.569028 580.276707,476.456028 581.557707,476.435028 C587.662707,476.338028 593.922707,478.711028 598.363707,482.926028 C594.963707,494.024028 592.292707,504.840028 592.293707,516.530028 C592.294707,528.172028 595.025707,543.441028 602.037707,553.073028 C603.648707,555.285028 605.837707,557.310028 607.769707,559.241028 C607.073707,560.509028 606.150707,560.904028 604.958707,561.656028 C598.743707,563.822028 591.267707,564.877028 584.780707,563.391028 C581.579707,562.658028 578.434707,561.061028 576.719707,558.143028 C574.532707,554.421028 573.768707,549.245028 573.137707,545.036028 C570.216707,525.559028 572.162707,507.031028 575.729707,487.815028 C576.416707,484.111028 576.816707,480.330028 577.714707,476.674028 Z M143.959707,473.577028 C148.475707,473.519028 152.825707,474.716028 157.124707,475.986028 C154.445707,480.655028 151.193707,484.743028 148.995707,489.733028 C142.567707,504.330028 138.268707,531.462028 140.965707,547.494028 C141.344707,549.751028 141.843707,551.907028 141.350707,554.180028 C140.331707,555.280028 139.976707,555.046028 138.524707,555.121028 C137.02604,554.837694 135.54604,554.478361 134.084707,554.043028 C130.296707,552.874028 126.649707,550.597028 124.848707,546.942028 C119.566707,536.216028 123.767707,508.315028 127.287707,497.004028 C130.201707,487.642028 134.920707,478.283028 143.959707,473.577028 Z"/></g></svg>