<svg xmlns="http://www.w3.org/2000/svg" width="727" height="897" viewBox="0 0 727 897"><g fill="none" fill-rule="evenodd" transform="translate(.25 .392)"><path fill="#313945" fill-rule="nonzero" d="M84.9014477,236.941858 C80.7787811,235.721191 76.7497811,234.245191 72.8144477,232.513858 C68.8791144,230.782524 65.0687811,228.809524 61.3834477,226.594858 C32.2724477,209.247858 12.5214477,179.502858 4.35644772,146.949858 C-4.22155228,112.749858 -0.383552279,73.4388576 18.1124477,43.0989576 C30.5044477,22.7697576 48.9874477,7.40325757 72.4314477,1.91245757 C94.9134477,-3.35294243 119.914448,2.67445757 139.173448,14.8395576 C163.142448,29.9802576 179.027448,55.5778576 187.371448,82.2088576 C190.005448,90.6148576 191.737448,99.2248576 193.702448,107.800858 C200.877448,104.269858 210.473448,103.141858 218.262448,101.556858 L218.637448,99.0858576 C219.047448,96.2148576 219.582448,94.0128576 221.641448,91.8398576 C225.694448,87.5618576 233.558448,88.2168576 239.037448,88.0538576 C238.490448,86.1258576 237.957448,84.0698576 237.670448,82.0868576 C237.285448,79.4328576 237.325448,76.2098576 239.035448,73.9828576 C240.582448,71.9678576 243.068448,71.2048576 245.499448,70.9398576 C262.948448,69.0448576 288.179448,78.7188576 303.846448,86.2888576 C308.193448,88.3898576 312.265448,91.9328576 316.846448,93.2888576 C324.683448,95.6078576 333.773448,95.7198576 341.889448,97.4288576 C368.110448,102.950858 400.958448,114.641858 422.226448,131.259858 C432.603448,105.411858 445.618448,80.3508576 464.416448,59.5338576 C487.667448,33.7868576 517.441448,12.5148576 553.319448,10.8712576 C554.001448,10.8417909 554.683781,10.8207242 555.366448,10.8080576 C556.048448,10.7953909 556.730781,10.7911242 557.413448,10.7952576 C558.096114,10.7993909 558.778781,10.8119242 559.461448,10.8328576 C560.143448,10.8537909 560.825114,10.8831242 561.506448,10.9208576 C562.188448,10.9585909 562.869448,11.0046909 563.549448,11.0591576 C564.230114,11.1136909 564.909781,11.1765576 565.588448,11.2477576 C566.267114,11.3190242 566.945114,11.3985909 567.622448,11.4864576 C568.299114,11.5743909 568.974781,11.6706576 569.649448,11.7752576 C570.324114,11.8797909 570.997114,11.9926576 571.668448,12.1138576 C572.340448,12.2349909 573.010781,12.3643576 573.679448,12.5019576 C574.348114,12.6396242 575.014781,12.7854909 575.679448,12.9395576 C576.344781,13.0936242 577.007781,13.2558576 577.668448,13.4262576 C578.329114,13.5966576 578.987781,13.7751576 579.644448,13.9617576 C580.301114,14.1484242 580.955448,14.3430909 581.607448,14.5457576 C582.259448,14.7484909 582.908781,14.9592242 583.555448,15.1779576 C584.201448,15.3966909 584.845114,15.6233242 585.486448,15.8578576 C586.127114,16.0924576 586.765114,16.3348909 587.400448,16.5851576 C588.035781,16.8354242 588.667781,17.0934909 589.296448,17.3593576 C589.925114,17.6251576 590.550448,17.8986909 591.172448,18.1799576 C591.793781,18.4611576 592.412114,18.7499909 593.027448,19.0464576 C593.642114,19.3429242 594.253114,19.6469242 594.860448,19.9584576 C595.467781,20.2699909 596.071114,20.5889576 596.670448,20.9153576 C597.270448,21.2416909 597.866114,21.5753909 598.457448,21.9164576 C599.048781,22.2574576 599.635781,22.6057242 600.218448,22.9612576 C600.801114,23.3167242 601.379114,23.6793242 601.952448,24.0490576 C602.526448,24.4187909 603.095781,24.7955576 603.660448,25.1793576 C604.225114,25.5630909 604.784781,25.9537242 605.339448,26.3512576 C605.894114,26.7487909 606.444114,27.1530909 606.989448,27.5641576 C607.534114,27.9752242 608.073781,28.3929242 608.608448,28.8172576 C609.143114,29.2416576 609.672448,29.6725576 610.196448,30.1099576 C610.720448,30.5473576 611.239114,30.9911242 611.752448,31.4412576 C612.265114,31.8914576 612.772448,32.3478909 613.274448,32.8105576 C633.815448,51.7968576 643.388448,79.1458576 644.320448,106.640858 C645.598448,144.287858 632.540448,185.676858 606.462448,213.388858 C579.170448,242.390858 548.529448,255.408858 508.951448,256.578858 C514.776448,281.268858 517.307448,312.655858 511.415448,337.511858 C517.440448,338.116858 524.596448,338.615858 530.016448,341.564858 C531.463448,342.351858 532.393448,343.139858 532.890448,344.768858 C532.727448,346.316858 531.990448,347.534858 530.735448,348.466858 C528.052448,350.460858 522.526448,349.528858 519.336448,349.319858 C515.953448,349.004858 512.543448,348.583858 509.152448,348.410858 C505.372448,363.841858 497.519448,380.544858 487.568448,392.877858 C493.071448,394.489858 504.717448,398.603858 507.392448,403.738858 C507.899448,404.711858 507.914448,405.094858 507.825448,406.141858 C506.834448,407.398858 505.785448,407.808858 504.237448,407.981858 C497.283448,408.756858 487.653448,403.947858 481.245448,401.312858 C472.225448,410.898858 462.524448,420.178858 451.594448,427.580858 C465.699448,436.615858 475.699448,447.317858 479.325448,464.181858 C482.569448,479.273858 480.075448,496.558858 471.616448,509.591858 C469.755781,512.469191 467.619448,515.124858 465.207448,517.558858 C462.199448,520.551858 455.662448,524.195858 454.094448,527.904858 C452.741448,531.103858 452.607448,537.977858 452.033448,541.610858 C447.876448,567.926858 444.248448,593.478858 443.977448,620.189858 C443.886448,629.133858 445.906448,644.311858 443.838448,652.485858 C442.137448,659.212858 437.976448,663.173858 431.916448,666.228858 C432.846448,674.074858 432.634448,686.069858 435.109448,693.089858 C437.298448,699.301858 457.365448,716.438858 463.466448,721.224858 C481.566448,735.423858 502.932448,743.645858 526.120448,740.843858 C539.587448,739.216858 553.097448,732.063858 561.423448,721.242858 C571.898448,707.629858 574.744448,689.713858 572.443448,673.019858 C566.948448,633.147858 536.180448,600.355858 542.894448,558.392858 C545.057448,544.874858 550.534448,532.780858 558.731448,521.840858 C573.678448,501.893858 596.087448,489.619858 620.623448,486.166858 C621.400114,486.053524 622.178114,485.949524 622.957448,485.854858 C623.736781,485.760191 624.517114,485.675191 625.298448,485.599858 C626.080448,485.525191 626.862781,485.459524 627.645448,485.402858 C628.428781,485.346858 629.212448,485.300524 629.996448,485.263858 C630.780448,485.227191 631.565114,485.199858 632.350448,485.181858 C633.135114,485.164524 633.919781,485.156524 634.704448,485.157858 C635.489781,485.159858 636.274781,485.171191 637.059448,485.191858 C637.844114,485.213191 638.628448,485.243858 639.412448,485.283858 C640.197114,485.323858 640.980781,485.373524 641.763448,485.432858 C642.546114,485.492191 643.328114,485.561191 644.109448,485.639858 C644.890114,485.718524 645.670114,485.806858 646.449448,485.904858 C647.228114,486.002191 648.005781,486.109191 648.782448,486.225858 C649.558448,486.343191 650.333114,486.469524 651.106448,486.604858 C651.879781,486.740858 652.651114,486.886191 653.420448,487.040858 C654.190448,487.195524 654.958114,487.359858 655.723448,487.533858 C656.489448,487.707191 657.252781,487.889858 658.013448,488.081858 C658.774781,488.274524 659.533448,488.476191 660.289448,488.686858 C661.046114,488.898191 661.799781,489.118524 662.550448,489.347858 C663.301114,489.577191 664.048781,489.815858 664.793448,490.063858 C665.538781,490.311191 666.280781,490.567858 667.019448,490.833858 C667.758114,491.099858 668.493114,491.374858 669.224448,491.658858 C669.956448,491.942858 670.684781,492.235858 671.409448,492.537858 C672.134114,492.839858 672.855114,493.150524 673.572448,493.469858 C674.289781,493.789858 675.002781,494.118191 675.711448,494.454858 C676.420781,494.792191 677.125448,495.138191 677.825448,495.492858 C678.526114,495.846858 679.222448,496.209524 679.914448,496.580858 C680.605781,496.952858 681.292448,497.332858 681.974448,497.720858 C682.657114,498.109524 683.334781,498.506191 684.007448,498.910858 C684.680114,499.315524 685.347448,499.728524 686.009448,500.149858 C686.672114,500.571191 687.329448,501.000858 687.981448,501.438858 C688.633448,501.876191 689.279781,502.321524 689.920448,502.774858 C690.561114,503.228191 691.196448,503.689191 691.826448,504.157858 C709.524448,517.563858 722.717448,537.364858 725.689448,559.604858 C726.214448,563.531858 726.363448,567.427858 726.377448,571.385858 C725.936448,577.780858 724.497448,584.595858 720.727448,589.913858 C718.714448,592.753858 715.985448,595.013858 712.427448,595.441858 C708.465448,595.917858 705.160448,594.766858 702.787448,591.542858 C699.599448,587.211858 698.656448,581.644858 697.263448,576.555858 C693.751448,563.718858 686.973448,551.528858 676.407448,543.205858 C665.607448,534.697858 652.058448,530.431858 638.322448,532.127858 C625.814448,533.672858 615.279448,539.859858 607.579448,549.796858 C588.099448,574.934858 603.264448,604.369858 613.555448,629.692858 C619.938448,645.399858 626.416448,661.144858 628.418448,678.127858 C631.550448,704.684858 623.958448,733.866858 607.174448,754.869858 C587.872448,779.022858 560.016448,792.578858 529.617448,795.930858 C497.389448,799.483858 463.183448,789.139858 437.919448,768.901858 C438.795448,780.077858 438.844448,792.126858 438.468448,803.338858 C438.252448,809.765858 436.881448,812.042858 432.283448,816.286858 C436.108448,831.405858 445.174448,847.499858 442.941448,863.447858 C441.721448,872.164858 437.314448,878.991858 430.319448,884.203858 C413.998448,896.362858 385.630448,897.759858 366.260448,894.973858 C353.464448,893.132858 339.086448,888.619858 331.094448,877.758858 C321.101448,864.177858 325.911448,848.082858 329.432448,833.215858 C330.621448,828.198858 331.495448,823.187858 332.281448,818.095858 L330.809448,817.463858 C327.718448,816.107858 325.211448,814.517858 323.674448,811.375858 C320.397448,804.674858 318.120448,791.292858 316.147448,783.634858 C311.588448,765.935858 306.660448,747.682858 299.911448,730.686858 C291.976448,729.944858 283.725448,729.880858 275.889448,728.486858 C275.710448,744.322858 274.514448,760.196858 273.780448,776.021858 C273.330448,785.705858 273.749448,798.541858 271.612448,807.822858 C270.976448,810.583858 269.474448,812.246858 267.672448,814.320858 C269.589448,826.863858 271.154448,842.474858 265.586448,854.333858 C260.000448,866.231858 246.428448,872.236858 234.785448,876.395858 C204.880448,887.076858 165.250448,892.389858 135.901448,878.307858 C127.794448,874.416858 120.525448,868.675858 117.571448,859.851858 C115.083448,852.418858 116.279448,843.996858 119.859448,837.117858 C129.248448,819.078858 151.372448,813.254858 169.306448,807.688858 C158.252448,790.571858 154.939448,692.512858 154.795448,667.762858 C149.645448,665.197858 144.601448,662.748858 141.220448,657.861858 C134.729448,648.481858 138.092448,629.512858 139.836448,618.742858 C135.401448,618.620858 130.848448,618.215858 126.460448,617.545858 C109.852448,615.010858 93.1604477,608.281858 83.0474477,594.267858 C73.4144477,580.918858 71.7274477,564.324858 74.3324477,548.427858 C79.6654477,515.877858 104.301448,483.349858 128.544448,461.780858 C134.560448,456.428858 141.107448,451.691858 147.652448,447.015858 C118.153448,432.006858 90.7804477,409.014858 78.2374477,377.550858 C71.2454477,379.067858 43.4604477,385.553858 38.2614477,383.281858 C37.0254477,382.741858 36.7544477,382.203858 36.2824477,380.999858 C36.4554477,379.670858 36.7074477,378.811858 37.5534477,377.745858 C42.6944477,371.265858 66.0614477,368.443858 74.7794477,367.299858 C72.2124477,356.488858 70.4524477,345.864858 69.7194477,334.764858 C62.4964477,333.886858 55.3594477,332.801858 48.0994477,332.152858 C42.0234477,331.608858 35.6564477,331.595858 29.6584477,330.523858 C27.6004477,330.156858 25.0254477,329.458858 23.4464477,327.995858 C22.5044477,327.124858 22.2684477,326.548858 22.2294477,325.303858 C22.5454477,324.712858 22.8654477,324.251858 23.3894477,323.821858 C31.2234477,317.387858 59.9994477,322.148858 69.7124477,323.360858 C71.0184477,295.098858 75.0764477,263.576858 84.9014477,236.941858 Z"/><path fill="#F2F2F4" fill-rule="nonzero" d="M548.740448,27.7964576 C549.786448,27.6810576 550.834448,27.5901576 551.884448,27.5237576 C552.934448,27.4573576 553.985448,27.4155576 555.037448,27.3983576 C556.090114,27.3811576 557.142114,27.3893503 558.193448,27.4206576 C559.245448,27.4526576 560.296114,27.5092242 561.345448,27.5903576 C562.394114,27.6715576 563.440781,27.7772242 564.485448,27.9073576 C565.529448,28.0374909 566.569781,28.1919576 567.606448,28.3707576 C568.643781,28.5495576 569.676114,28.7525242 570.703448,28.9796576 C571.730781,29.2067242 572.752114,29.4577242 573.767448,29.7326576 C574.783448,30.0075242 575.792448,30.3060242 576.794448,30.6281576 C577.795781,30.9502242 578.789448,31.2955576 579.775448,31.6641576 C580.760781,32.0327576 581.737114,32.4241909 582.704448,32.8384576 C583.671781,33.2527909 584.628781,33.6894576 585.575448,34.1484576 C586.522114,34.6075242 587.457781,35.0884909 588.382448,35.5913576 C589.306448,36.0941576 590.218448,36.6182909 591.118448,37.1637576 C592.018448,37.7092909 592.905114,38.2755576 593.778448,38.8625576 C594.651781,39.4494909 595.510781,40.0565576 596.355448,40.6837576 C610.641448,51.2208576 624.070448,69.9628576 626.729448,87.7978576 C618.900448,71.7748576 608.725448,57.7558576 591.650448,50.8818576 C576.283448,44.6957576 559.476448,45.8157576 544.377448,52.2868576 C515.932448,64.4778576 496.641448,93.3118576 485.657448,121.277858 C480.513448,134.375858 467.368448,181.071858 472.884448,192.374858 C473.534448,193.706858 474.258448,194.206858 475.635448,194.635858 C479.336448,193.856858 483.222448,188.518858 485.880448,185.826858 C483.508448,195.688858 477.854448,209.038858 478.542448,219.028858 C478.972448,225.267858 485.138448,233.056858 487.345448,239.197858 C498.998448,271.618858 502.663448,301.806858 497.203448,336.013858 C480.350448,334.098858 453.108448,335.709858 436.231448,338.549858 C430.286448,339.549858 412.067448,342.179858 409.096448,347.800858 C408.432448,349.057858 408.512448,349.303858 408.919448,350.563858 C412.851448,353.496858 421.916448,350.708858 426.611448,349.919858 C449.533448,346.065858 471.920448,346.022858 495.063448,346.759858 C491.162448,361.994858 483.120448,375.602858 473.768448,388.061858 C460.439448,384.152858 425.012448,373.234858 413.147448,374.687858 C411.253448,374.919858 409.987448,375.374858 408.784448,376.938858 C408.485448,378.169858 408.505448,378.739858 408.881448,379.948858 C409.830448,381.162858 410.738448,381.804858 412.210448,382.241858 C418.593448,384.141858 425.430448,385.287858 431.928448,386.820858 C443.469448,389.544858 455.075448,392.614858 466.373448,396.221858 C438.643448,427.148858 393.998448,445.441858 354.440448,455.064858 C343.454448,457.737858 329.355448,458.542858 319.310448,462.198858 C306.928448,466.705858 294.494448,472.952858 283.116448,479.579858 C274.038448,484.868858 265.160448,490.711858 255.819448,495.515858 C253.481448,494.907858 251.466448,494.103858 249.289448,493.086858 C232.737448,483.402858 227.059448,475.332858 217.760448,458.962858 C212.405448,456.942858 206.672448,455.809858 201.206448,454.101858 C165.790448,443.040858 128.282448,426.219858 104.893448,396.240858 C100.149448,390.158858 96.4044477,383.617858 92.8494477,376.803858 C99.4874477,376.129858 109.613448,375.714858 115.707448,373.383858 C117.369448,372.747858 119.613448,371.766858 120.251448,369.952858 C120.502448,369.239858 120.086448,368.867858 119.775448,368.238858 C113.281448,363.232858 97.1134477,365.347858 89.0964477,366.215858 C85.8324477,356.710858 84.4894477,346.280858 84.2294477,336.270858 C91.1184477,337.874858 107.167448,343.028858 113.231448,342.917858 C114.403448,342.895858 115.521448,342.508858 116.229448,341.511858 C116.825448,340.673858 116.961448,339.670858 116.533448,338.733858 C114.027448,333.246858 90.6604477,327.886858 84.2584477,326.305858 C84.5384477,279.462858 100.465448,218.558858 126.551448,179.401858 C143.322448,154.228858 168.531448,132.406858 197.262448,122.338858 C207.611448,118.712858 217.883448,116.881858 228.590448,114.692858 C231.140448,114.171858 233.889448,113.824858 235.327448,111.435858 C237.242448,108.253858 235.472448,103.791858 234.452448,100.584858 C241.998448,100.656858 248.525448,101.287858 255.762448,103.508858 C258.747448,104.424858 262.440448,106.079858 265.478448,106.492858 C266.563448,106.640858 267.202448,106.038858 268.004448,105.411858 C268.464448,104.592858 268.834448,103.981858 268.809448,103.001858 C268.683448,98.1188576 255.219448,89.4058576 251.475448,86.0418576 L250.991448,85.5998576 C267.840448,87.4838576 282.651448,91.6028576 297.545448,99.8448576 C302.203448,102.422858 306.347448,106.482858 311.438448,108.106858 C319.148448,110.566858 329.846448,110.646858 338.238448,112.560858 C372.025448,120.266858 402.818448,133.767858 429.720448,155.880858 C432.093448,150.045858 433.712448,143.887858 436.082448,138.017858 C438.152448,132.843191 440.395781,127.744858 442.812448,122.722858 C445.229114,117.700858 447.813448,112.766858 450.565448,107.920858 C453.317448,103.074191 456.230448,98.3265242 459.304448,93.6778576 C462.379114,89.0298576 465.607781,84.4911909 468.990448,80.0618576 C488.727448,54.5918576 515.819448,32.0112576 548.740448,27.7964576 Z"/><path fill="#313945" fill-rule="nonzero" d="M222.655448,325.787858 C231.085448,325.072858 239.914448,325.961858 247.640448,329.595858 C252.796448,332.020858 257.391448,335.826858 259.211448,341.403858 C260.751448,346.126858 259.899448,350.995858 257.673448,355.348858 C252.801448,364.872858 242.593448,371.254858 232.647448,374.283858 C232.763448,377.535858 233.097448,380.586858 234.005448,383.721858 C236.180448,391.223858 240.713448,398.884858 247.791448,402.621858 C254.382448,406.101858 278.985448,401.871858 286.005448,399.716858 C302.762448,394.573858 319.076448,383.502858 327.328448,367.742858 C324.490448,367.348858 320.947448,367.549858 318.358448,366.269858 C316.905448,365.550858 316.235448,364.922858 315.658448,363.417858 C315.945448,362.419858 316.276448,361.838858 317.125448,361.204858 C320.337448,358.804858 325.722448,357.925858 329.622448,358.484858 C336.120448,359.416858 343.511448,363.536858 347.203448,368.923858 C348.665448,371.057858 349.657448,373.268858 349.105448,375.874858 C348.184448,376.895858 347.975448,377.202858 346.525448,377.361858 C342.983448,377.749858 339.030448,374.214858 336.376448,372.315858 C334.018448,376.346858 331.578448,380.225858 328.690448,383.900858 C326.418448,386.596858 323.970114,389.121524 321.345448,391.474858 C318.720114,393.828191 315.943781,395.987524 313.016448,397.952858 C286.639448,415.705858 247.853448,417.838858 217.252448,411.790858 C208.419448,410.044858 194.315448,406.498858 189.262448,398.283858 C188.492448,397.033858 188.360448,396.175858 188.721448,394.775858 C189.890448,393.842858 190.662448,393.334858 192.213448,393.571858 C195.846448,394.127858 199.687448,396.898858 203.322448,398.070858 C213.352448,401.303858 223.427448,402.720858 233.876448,403.609858 C226.412448,394.601858 223.075448,385.719858 221.538448,374.158858 C219.425114,373.520858 217.376114,372.718858 215.391448,371.752858 C213.406781,370.787524 211.511114,369.670524 209.704448,368.401858 C203.599448,364.054858 198.004448,357.135858 196.869448,349.563858 C196.183448,344.987858 197.242448,340.513858 200.019448,336.798858 C205.190448,329.883858 214.451448,326.914858 222.655448,325.787858 Z"/><path fill="#FAC3B7" fill-rule="nonzero" d="M221.421448,333.720858 C227.061448,333.249858 232.616448,333.269858 238.142448,334.643858 C242.413448,335.704858 247.371448,337.649858 249.606448,341.701858 C250.752448,343.778858 250.841448,346.089858 250.148448,348.327858 C248.006448,355.248858 239.891448,360.311858 233.856448,363.574858 C231.649448,364.726858 229.219448,365.579858 226.916448,366.528858 C223.737448,364.959858 220.527448,363.416858 217.549448,361.483858 C212.652448,358.302858 206.870448,353.261858 205.797448,347.274858 C205.379448,344.937858 205.824448,342.548858 207.204448,340.597858 C210.159448,336.421858 216.615448,334.612858 221.421448,333.720858 Z"/><path fill="#313945" fill-rule="nonzero" d="M357.608448,254.785858 C364.178448,254.156858 371.645448,256.738858 376.911448,260.561858 C384.695448,266.213858 389.179448,275.670858 390.486448,285.020858 C392.165448,297.033858 389.804448,310.396858 382.352448,320.183858 C376.686448,327.624858 369.534448,331.321858 360.361448,332.632858 C352.423448,332.751858 344.959448,331.623858 338.525448,326.578858 C330.746448,320.479858 326.928448,310.760858 325.807448,301.176858 C324.398448,289.123858 326.945448,276.083858 334.669448,266.452858 C340.611448,259.043858 348.396448,255.821858 357.608448,254.785858 Z"/><path fill="#FFF" fill-rule="nonzero" d="M367.203448,275.133858 C368.282448,275.042858 369.425448,274.926858 370.502448,275.096858 C372.770448,275.454858 374.897448,277.008858 376.110448,278.923858 C377.509448,281.132858 377.822448,283.831858 377.232448,286.351858 C376.493448,289.514858 374.624448,291.436858 371.942448,293.101858 C370.844448,293.399858 369.662448,293.606858 368.521448,293.451858 C366.589448,293.190858 364.703448,292.014858 363.540448,290.467858 C361.741448,288.076858 361.334448,284.772858 361.923448,281.899858 C362.614448,278.530858 364.398448,276.907858 367.203448,275.133858 Z"/><path fill="#313945" fill-rule="nonzero" d="M164.267448,254.296858 C169.487448,254.114858 174.570448,255.323858 179.030448,258.091858 C186.796448,262.912858 191.930448,271.637858 193.766448,280.448858 C196.277448,292.501858 194.149448,306.321858 187.302448,316.658858 C182.104448,324.504858 174.938448,328.809858 165.784448,330.610858 C158.604448,330.847858 152.404448,329.599858 146.675448,324.990858 C138.991448,318.808858 135.452448,308.908858 134.521448,299.355858 C133.365448,287.487858 135.976448,274.163858 143.720448,264.803858 C149.030448,258.384858 156.054448,255.005858 164.267448,254.296858 Z"/><path fill="#FFF" fill-rule="nonzero" d="M172.711448,274.167858 C173.873448,274.152858 175.106448,274.100858 176.253448,274.314858 C178.209448,274.678858 180.073448,276.144858 181.172448,277.759858 C182.657448,279.941858 183.056448,282.667858 182.512448,285.228858 C181.773448,288.710858 179.797448,290.786858 176.867448,292.624858 C174.764448,292.694858 172.967448,292.678858 171.128448,291.514858 C168.109448,289.603858 167.382448,285.881858 166.577448,282.659858 C167.720448,278.524858 168.984448,276.365858 172.711448,274.167858 Z"/><path fill="#313945" fill-rule="nonzero" d="M355.605448 186.751858C357.266781 186.616524 358.930448 186.561524 360.596448 186.586858 361.371114 186.592191 362.145114 186.616858 362.918448 186.660858 363.691781 186.704858 364.463448 186.768191 365.233448 186.850858 366.003448 186.933524 366.771114 187.035524 367.536448 187.156858 368.301114 187.278191 369.062448 187.418858 369.820448 187.578858 370.578448 187.738191 371.331781 187.916524 372.080448 188.113858 372.829781 188.311858 373.573448 188.528191 374.311448 188.762858 375.049448 188.997524 375.781114 189.250858 376.506448 189.522858 377.231781 189.794191 377.949781 190.083858 378.660448 190.391858 379.371114 190.699191 380.073781 191.024524 380.768448 191.367858 381.462448 191.711191 382.147781 192.071524 382.824448 192.448858 383.500448 192.826191 384.166781 193.220524 384.823448 193.631858 385.480114 194.042524 386.125781 194.469524 386.760448 194.912858 387.395781 195.356191 388.019448 195.815524 388.631448 196.290858 389.243448 196.765524 389.843114 197.255191 390.430448 197.759858 391.017781 198.265191 391.592114 198.784524 392.153448 199.317858 392.714114 199.851858 393.261448 200.399524 393.795448 200.960858 396.951448 204.245858 400.945448 208.826858 400.842448 213.588858 400.498448 214.246858 400.383448 214.879858 399.663448 215.193858 398.648448 215.635858 397.478448 215.573858 396.469448 215.135858 392.523448 213.424858 388.392448 208.807858 384.919448 206.145858 382.358448 204.182858 379.694448 202.733858 376.790448 201.346858 375.211448 200.646858 373.535448 200.126858 371.887448 199.615858 361.997448 196.544858 352.534448 197.078858 343.443448 202.178858 339.986448 204.117858 336.624448 206.508858 333.043448 208.191858 331.714448 208.817858 330.829448 208.808858 329.429448 208.340858 328.418448 207.440858 327.714448 206.703858 327.483448 205.307858 327.234448 203.805858 327.956448 202.325858 328.815448 201.142858 334.522448 193.273858 346.234448 188.024858 355.605448 186.751858ZM160.960448 191.744858C162.320448 191.586858 163.776448 191.600858 165.146448 191.620858 172.213448 191.724858 179.570448 195.356858 184.389448 200.505858 186.493448 202.754858 189.200448 208.037858 188.677448 211.219858 188.432448 212.705858 188.217448 212.837858 187.050448 213.608858 182.388448 213.791858 178.695448 209.703858 175.412448 206.911858 169.958448 202.270858 164.413448 202.310858 157.682448 202.900858 152.931448 204.150858 148.662448 206.039858 144.637448 208.877858 141.577448 211.035858 137.630448 215.242858 134.104448 216.271858 132.768448 215.983858 132.802448 216.029858 131.999448 214.928858 131.510448 211.961858 132.540448 209.394858 134.266448 206.995858 140.217448 198.722858 151.086448 193.270858 160.960448 191.744858Z"/><path fill="#7A7BBE" fill-rule="nonzero" d="M404.560448,478.316858 C405.581448,478.167858 406.668448,478.191858 407.702448,478.175858 C416.179448,478.046858 426.986448,480.151858 433.124448,486.407858 C439.067448,492.465858 440.828448,500.889858 441.153448,509.091858 C441.588448,520.105858 439.277448,531.343858 437.525448,542.188858 C435.146448,556.907858 432.501448,571.646858 430.955448,586.479858 C428.777448,607.370858 430.746448,628.046858 430.254448,648.930858 C421.427448,654.264858 410.669448,657.241858 400.711448,659.819858 C345.528448,674.102858 273.402448,672.153858 216.987448,664.547858 C205.218448,662.961858 158.314448,655.955858 152.077448,646.855858 C148.927448,642.259858 151.757448,625.041858 152.939448,619.239858 C176.548448,616.849858 198.299448,610.673858 219.441448,599.889858 C229.133448,605.706858 238.981448,611.003858 249.318448,615.585858 C284.545448,631.197858 324.496448,638.254858 361.429448,624.033858 C381.894448,615.725858 408.451448,596.117858 418.369448,575.910858 C419.766448,573.063858 423.800448,564.575858 422.227448,561.645858 C421.614448,560.504858 421.207448,560.319858 420.053448,560.131858 C416.214448,562.705858 410.836448,570.618858 407.425448,574.282858 C385.227448,598.125858 355.438448,616.478858 322.268448,617.550858 C290.907448,618.563858 259.000448,607.841858 232.531448,591.376858 C226.955448,587.907858 220.467448,583.825858 215.807448,579.223858 C212.556448,576.011858 211.692448,571.014858 211.740448,566.612858 C211.853448,556.051858 217.906448,546.708858 225.268448,539.574858 C230.796448,534.217858 238.460448,528.510858 246.407448,527.907858 C251.753448,527.501858 256.928448,529.811858 261.548448,532.256858 C265.067114,534.143524 268.484781,536.198524 271.801448,538.421858 C275.117448,540.645191 278.316448,543.026191 281.398448,545.564858 C290.055448,552.584858 302.081448,567.711858 313.982448,567.561858 C320.952448,567.473858 324.478448,562.440858 328.811448,557.807858 C335.345448,556.841858 341.398448,555.500858 345.969448,550.287858 C349.683448,546.052858 350.955448,540.663858 350.583448,535.134858 C349.702448,522.047858 340.695448,511.903858 331.174448,503.898858 C356.577448,499.873858 380.413448,480.325858 404.560448,478.316858 Z"/><path fill="#497698" fill-rule="nonzero" d="M168.574448,669.370858 C175.996448,670.616858 183.442448,672.916858 190.818448,674.528858 C201.463448,676.854858 212.308448,678.553858 223.080448,680.183858 C269.927448,687.272858 327.494448,688.013858 374.202448,680.419858 C389.270448,677.969858 403.891448,674.326858 418.543448,670.093858 C422.403448,702.195191 424.556448,734.410858 425.002448,766.740858 C425.211448,777.401858 426.071448,788.913858 424.725448,799.491858 C400.085448,809.540858 360.964448,808.407858 335.647448,802.191858 C334.533448,798.666858 333.626448,795.060858 332.649448,791.495858 C327.803448,771.852858 321.383448,747.833858 314.027448,729.135858 C312.839448,726.115858 310.668448,720.911858 307.475448,719.769858 C302.056448,717.832858 288.329448,717.736858 281.946448,717.048858 C271.311781,715.923524 260.756781,714.285191 250.281448,712.133858 C246.392448,711.348858 237.502448,707.881858 234.032448,709.819858 C233.765448,710.855858 233.745448,711.089858 234.160448,712.126858 C236.980448,719.157858 257.448448,722.463858 264.319448,725.485858 C264.318448,735.774858 263.248448,746.242858 262.594448,756.526858 C261.719448,770.264858 261.219448,784.345858 259.035448,797.933858 C233.944448,806.702858 202.654448,803.648858 177.884448,794.888858 C175.648448,785.936858 175.140448,775.683858 174.083448,766.450858 C170.362448,733.948858 168.727448,702.076858 168.574448,669.370858 Z"/><path stroke="#313945" stroke-width="10" d="M168.574448,777.588761 C189.33489,782.975959 206.054985,785.669557 218.734733,785.669557 C231.41448,785.669557 249.258586,785.005762 272.267049,783.67817"/><path fill="#FAC3B7" fill-rule="nonzero" d="M567.004448 53.7978576C578.635448 52.7308576 590.940448 56.8868576 600.224448 63.7828576 614.126448 74.1108576 622.903448 90.5638576 625.367448 107.560858 629.657448 137.154858 619.120448 170.768858 601.323448 194.394858 582.809448 218.970858 557.387448 235.151858 526.869448 239.489858 519.272448 240.320858 511.843448 240.139858 504.244448 239.514858 500.491448 230.944858 496.521448 222.751858 491.895448 214.617858 493.303448 203.329858 502.782448 178.617858 502.262448 170.677858 502.159448 169.102858 501.872448 168.232858 500.672448 167.211858 495.077448 166.577858 488.475448 171.788858 483.870448 174.619858 487.981448 141.737858 497.417448 108.890858 518.755448 82.7808576 531.186448 67.5708576 547.033448 55.8688576 567.004448 53.7978576ZM69.0684477 41.7425576C71.3897811 41.4910242 73.7177811 41.3787242 76.0524477 41.4056576 88.5394477 41.4776576 99.9984477 47.3846576 108.596448 56.2298576 131.443448 79.7368576 134.753448 118.018858 134.215448 149.258858 129.553448 155.465858 124.078448 161.100858 119.381448 167.321858 106.906448 183.843858 98.0864477 201.722858 90.4294477 220.866858L84.7454477 219.236858C81.4027811 218.002191 78.1467811 216.570191 74.9774477 214.940858 71.8081144 213.312191 68.7487811 211.498191 65.7994477 209.498858 41.3634477 193.156858 25.2564477 165.784858 19.7984477 137.193858 15.3864477 114.084858 17.0924477 86.3798576 30.8454477 66.4998576 40.0914477 53.1348576 53.1194477 44.6401576 69.0684477 41.7425576ZM632.681448 498.338858C642.225448 498.338858 651.263448 499.048858 660.409448 501.959858 661.038781 502.165858 661.665448 502.379858 662.289448 502.601858 662.913448 502.823191 663.534781 503.052524 664.153448 503.289858 664.771448 503.526524 665.386781 503.771191 665.999448 504.023858 666.611448 504.275858 667.220448 504.535524 667.826448 504.802858 668.432448 505.069524 669.035114 505.343858 669.634448 505.625858 670.233781 505.907858 670.829448 506.197191 671.421448 506.493858 672.013448 506.790524 672.601781 507.094524 673.186448 507.405858 673.771114 507.716524 674.351781 508.034858 674.928448 508.360858 675.505114 508.686191 676.077781 509.018524 676.646448 509.357858 677.215114 509.697191 677.779448 510.043524 678.339448 510.396858 678.899448 510.750858 679.455114 511.111191 680.006448 511.477858 680.557114 511.845191 681.103448 512.219191 681.645448 512.599858 682.187448 512.979858 682.724781 513.366858 683.257448 513.760858 683.790114 514.154858 684.317781 514.555191 684.840448 514.961858 685.362448 515.368524 685.879781 515.781524 686.392448 516.200858 686.905114 516.620858 687.412448 517.046858 687.914448 517.478858 688.415781 517.910858 688.912114 518.348858 689.403448 518.792858 689.894781 519.236858 690.380448 519.686858 690.860448 520.142858 691.340448 520.599524 691.814781 521.061858 692.283448 521.529858 692.752114 521.997191 693.215114 522.470524 693.672448 522.949858 694.129114 523.429191 694.580114 523.914191 695.025448 524.404858 695.470781 524.894858 695.909781 525.390524 696.342448 525.891858 696.775114 526.393191 697.201781 526.899524 697.622448 527.410858 698.043114 527.922858 698.457114 528.439524 698.864448 528.960858 699.272448 529.482858 699.673781 530.009858 700.068448 530.541858 700.463114 531.073191 700.851114 531.609524 701.232448 532.150858 701.613781 532.692191 701.988781 533.238191 702.357448 533.788858 702.725448 534.339524 703.086448 534.894524 703.440448 535.453858 703.795114 536.013191 704.142781 536.576858 704.483448 537.144858 704.824114 537.712858 705.157448 538.284858 705.483448 538.860858 705.810114 539.436858 706.129448 540.017191 706.441448 540.601858 706.753448 541.185858 707.058448 541.773524 707.356448 542.364858 712.062448 551.554858 717.199448 568.402858 713.303448 578.464858 712.890448 579.532858 712.564448 579.893858 711.479448 580.301858 708.732448 578.804858 706.263448 565.872858 704.877448 562.308858 700.022448 549.823858 691.056448 538.189858 680.068448 530.492858 679.223114 529.892858 678.363114 529.314858 677.488448 528.758858 676.614448 528.202191 675.726781 527.668191 674.825448 527.156858 673.924114 526.644858 673.010448 526.156191 672.084448 525.690858 671.158448 525.224858 670.221448 524.782858 669.273448 524.364858 668.324781 523.946191 667.366448 523.551858 666.398448 523.181858 665.430448 522.811191 664.453781 522.465524 663.468448 522.144858 662.483114 521.823524 661.490114 521.527524 660.489448 521.256858 659.489448 520.985524 658.482781 520.739858 657.469448 520.519858 656.456781 520.299858 655.439114 520.105191 654.416448 519.935858 653.394448 519.767191 652.368448 519.624191 651.338448 519.506858 650.308448 519.389524 649.276448 519.298191 648.242448 519.232858 647.207781 519.167524 646.172448 519.128191 645.136448 519.114858 644.099781 519.101524 643.063781 519.114524 642.028448 519.153858 640.992448 519.192524 639.958114 519.257524 638.925448 519.348858 637.893448 519.439524 636.864114 519.556524 635.837448 519.699858 634.810781 519.842524 633.788448 520.011191 632.770448 520.205858 617.658448 523.046858 603.378448 531.747858 594.705448 544.568858 575.750448 572.586858 587.324448 599.256858 598.790448 627.243858 604.840448 642.011858 610.961448 656.932858 613.881448 672.700858 618.322448 696.684858 613.314448 722.687858 599.290448 742.790858 584.248448 764.351858 560.960448 777.548858 535.363448 782.047858 531.608781 782.779858 527.821448 783.250524 524.001448 783.459858 490.600448 785.501858 461.745448 772.486858 437.188448 750.694858 436.654448 745.997858 436.795448 741.096858 436.650448 736.366858 436.402448 728.300858 436.104448 720.236858 435.756448 712.174858 439.411448 716.716858 443.285448 720.964858 447.609448 724.883858 466.993448 742.448858 492.771448 755.777858 519.543448 754.350858 539.353448 753.294858 556.507448 746.108858 569.831448 731.170858 578.930448 720.969858 583.869448 708.522858 585.497448 695.045858 589.121448 665.041858 576.821448 639.614858 565.581448 612.787858 560.477448 600.606858 555.896448 588.428858 555.256448 575.084858 555.207114 573.930858 555.186448 572.776191 555.194448 571.620858 555.201781 570.465524 555.237448 569.310858 555.301448 568.156858 555.365448 567.003524 555.457781 565.852524 555.578448 564.703858 555.699114 563.554524 555.847781 562.409191 556.024448 561.267858 556.201781 560.125858 556.406448 558.989191 556.638448 557.857858 556.871114 556.725858 557.131448 555.600524 557.419448 554.481858 557.706781 553.362524 558.021781 552.251191 558.364448 551.147858 558.706448 550.044524 559.075448 548.950191 559.471448 547.864858 559.867448 546.779524 560.289781 545.704524 560.738448 544.639858 561.186448 543.575191 561.660781 542.522191 562.161448 541.480858 562.661448 540.439524 563.186781 539.410858 563.737448 538.394858 564.288114 537.379524 564.863448 536.377858 565.463448 535.389858 566.063448 534.402524 566.687114 533.430524 567.334448 532.473858 567.981781 531.517191 568.652114 530.576858 569.345448 529.652858 570.039448 528.728858 570.755448 527.822524 571.493448 526.933858 572.231448 526.044524 572.990781 525.174191 573.771448 524.322858 589.148448 507.459858 610.192448 499.292858 632.681448 498.338858Z"/><path fill="#7A7BBE" fill-rule="nonzero" d="M432.163448,438.611858 C432.332448,438.579858 432.499448,438.534858 432.670448,438.516858 C438.513448,437.892858 448.378448,443.065858 452.923448,446.615858 C453.422114,446.999191 453.910781,447.394858 454.389448,447.802858 C454.868114,448.210858 455.336114,448.630858 455.793448,449.062858 C456.251448,449.494858 456.698114,449.937858 457.133448,450.391858 C457.568781,450.845858 457.992114,451.310524 458.403448,451.785858 C458.815448,452.261858 459.215114,452.747524 459.602448,453.242858 C459.989781,453.738191 460.364448,454.243191 460.726448,454.757858 C461.088448,455.272524 461.437114,455.795858 461.772448,456.327858 C462.108448,456.859858 462.430448,457.400191 462.738448,457.948858 C463.047114,458.496858 463.341781,459.052524 463.622448,459.615858 C463.902448,460.178524 464.168448,460.748191 464.420448,461.324858 C464.671781,461.901524 464.908781,462.483858 465.131448,463.071858 C465.353448,463.660524 465.560781,464.254524 465.753448,464.853858 C465.946114,465.452524 466.123448,466.055858 466.285448,466.663858 C466.447448,467.271191 466.594114,467.882524 466.725448,468.497858 C466.856781,469.113191 466.972448,469.731524 467.072448,470.352858 C467.172448,470.973524 467.256781,471.596524 467.325448,472.221858 C468.989448,486.434858 464.726448,498.783858 455.962448,509.825858 C454.961448,501.750858 454.228448,493.811858 450.682448,486.359858 C450.414448,485.797858 450.132448,485.242524 449.836448,484.693858 C449.540448,484.145858 449.231114,483.605524 448.908448,483.072858 C448.585781,482.539524 448.250114,482.014858 447.901448,481.498858 C447.552114,480.982858 447.190448,480.475858 446.816448,479.977858 C446.442448,479.479858 446.056114,478.991191 445.657448,478.511858 C445.259448,478.033191 444.849448,477.564524 444.427448,477.105858 C444.005448,476.647858 443.572448,476.200191 443.128448,475.762858 C442.684448,475.326191 442.230114,474.900524 441.765448,474.485858 C441.300114,474.071858 440.824781,473.669524 440.339448,473.278858 C439.854114,472.888191 439.359448,472.509858 438.855448,472.143858 C438.351448,471.777858 437.838448,471.424524 437.316448,471.083858 C436.795114,470.743858 436.265448,470.416524 435.727448,470.101858 C435.189448,469.787858 434.643781,469.487524 434.090448,469.200858 C433.537781,468.913524 432.978114,468.640524 432.411448,468.381858 C431.844781,468.122524 431.272114,467.877524 430.693448,467.646858 C430.114781,467.416191 429.530781,467.200191 428.941448,466.998858 C401.086448,457.457858 374.811448,475.669858 350.158448,485.955858 C338.725448,490.725858 326.791448,494.094858 315.669448,499.550858 C292.463448,495.536858 278.414448,506.806858 259.716448,518.180858 C246.816448,510.339858 238.631448,505.733858 223.385448,507.119858 C208.339448,496.077858 200.713448,493.643858 182.623448,489.298858 C181.125448,485.739858 178.522448,477.583858 175.068448,475.794858 C173.966448,475.223858 173.135448,475.011858 171.935448,475.430858 C171.235448,475.674858 170.301448,476.500858 169.991448,477.138858 C168.406448,480.394858 170.778448,485.536858 171.888448,488.709858 C169.149448,488.972858 166.419448,489.321858 163.741448,489.966858 C141.744448,495.262858 128.179448,511.589858 116.871448,530.036858 C113.756448,531.626858 107.586448,532.699858 105.879448,535.850858 C105.484448,536.579858 105.822448,536.917858 106.060448,537.639858 C106.486448,538.008858 107.219448,538.843858 107.698448,539.054858 C112.064448,540.978858 124.191448,538.172858 129.388448,537.991858 C142.762448,537.526858 171.384448,548.512858 181.391448,557.891858 C182.397448,561.158858 183.516448,564.339858 184.744448,567.528858 C190.597448,578.789858 198.714448,582.740858 207.429448,590.960858 L207.854448,591.369858 C182.019448,602.683858 144.931448,610.375858 117.825448,601.393858 C106.273448,597.566858 96.4734477,590.771858 90.9624477,579.663858 C84.6334477,566.907858 86.6794477,552.158858 91.1354477,539.163858 C103.104448,504.259858 132.179448,470.655858 165.312448,454.347858 C170.684448,456.141858 175.884448,458.484858 181.244448,460.342858 C188.569448,462.881858 196.122448,464.820858 203.601448,466.845858 C206.038448,470.377858 208.025448,474.165858 210.639448,477.597858 C219.248448,488.898858 232.702448,499.308858 246.652448,502.815858 C249.694448,503.580858 252.994448,504.238858 256.127448,503.815858 C266.992448,502.348858 280.614448,494.773858 290.489448,490.077858 C301.234448,484.969858 312.205448,479.728858 323.474448,475.857858 C335.755448,471.638858 348.734448,469.703858 361.360448,466.789858 C386.747448,460.929858 409.717448,451.836858 432.163448,438.611858 Z"/><path fill="#F2F2F4" fill-rule="nonzero" d="M183.866448 814.108858C188.208448 813.629858 199.091448 817.108858 204.249448 817.826858 220.910448 820.145858 237.664448 819.216858 254.184448 816.387858 255.699448 825.868858 257.468448 838.548858 253.943448 847.674858 251.238448 854.673858 241.060448 860.086858 234.565448 862.933858 219.251448 869.645858 201.812448 873.131858 185.181448 874.103858 182.600448 874.254858 178.122448 874.789858 175.775448 873.554858 174.661448 872.967858 173.986448 872.432858 173.728448 871.141858 172.299448 863.983858 186.166448 852.505858 189.893448 847.647858 191.049448 846.140858 191.414448 845.053858 191.163448 843.172858 190.275448 842.380858 190.023448 842.140858 188.794448 841.982858 185.565448 841.566858 182.588448 844.143858 180.187448 845.973858 178.774114 847.146524 177.385781 848.347524 176.022448 849.576858 168.861448 856.102858 164.545448 863.719858 164.078448 873.494858 160.648448 873.055858 157.208448 872.571858 153.878448 871.605858 150.569448 870.645858 147.059448 868.878858 145.476448 865.645858 142.265448 859.088858 147.836448 850.131858 152.516448 845.542858 155.295448 842.818858 160.751448 839.572858 161.836448 835.753858 162.063448 834.954858 161.814448 834.819858 161.479448 834.139858 160.652448 833.754858 159.985448 833.579858 159.077448 833.643858 153.178448 834.058858 146.605448 838.525858 142.748448 842.845858 137.370448 848.871858 135.669448 855.893858 136.089448 863.745858 133.283448 861.093858 130.847448 858.347858 129.519448 854.649858 128.142448 850.817858 128.519448 846.866858 130.299448 843.234858 138.323448 826.862858 167.687448 819.516858 183.866448 814.108858ZM86.0744477 17.3112576C101.748448 15.2390576 120.107448 21.4483576 132.849448 30.3411576 161.007448 49.9938576 172.288448 83.2778576 178.011448 115.619858 166.144448 122.529858 155.537448 130.195858 145.216448 139.269858 145.565448 124.929858 143.671448 111.041858 140.316448 97.1258576 135.213448 78.5238576 126.649448 61.3488576 112.022448 48.4178576 101.092448 38.7563576 87.6864477 33.5460576 73.0494477 34.4818576 54.2164477 35.6858576 39.9954477 45.7163576 27.9774477 59.5278576 30.7224477 54.1158576 34.2834477 48.9508576 38.1334477 44.2724576 50.7034477 28.9995576 66.1594477 19.2814576 86.0744477 17.3112576ZM418.049448 818.738858C418.348448 818.697858 418.896448 818.867858 419.199448 818.926858 419.377448 819.247858 419.568448 819.562858 419.720448 819.895858 421.276448 823.294858 422.184448 827.375858 423.417448 830.945858 426.984448 841.276858 433.321448 855.530858 428.778448 866.352858 425.681448 873.733858 418.679448 876.872858 411.796448 879.797858 414.242448 870.706858 414.309448 863.185858 411.524448 854.207858 410.707448 851.573858 409.619448 849.464858 408.170448 847.131858 406.938448 845.147858 404.672448 840.954858 402.380448 840.420858L401.646448 841.083858C399.470448 847.483858 403.221448 854.152858 403.965448 860.540858 404.633448 866.279858 404.842448 875.541858 400.870448 880.153858 398.510448 882.893858 394.015448 883.275858 390.630448 883.510858 384.862448 883.912858 374.996448 884.693858 370.456448 880.403858 366.355448 876.527858 366.034448 869.633858 365.736448 864.354858 366.009448 859.437858 369.883448 845.168858 367.890448 841.599858 367.479448 840.863858 367.192448 841.020858 366.446448 840.874858 363.807448 842.036858 361.937448 844.554858 360.581448 847.030858 354.836448 857.517858 356.385448 869.854858 359.750448 880.746858 352.487448 878.322858 345.114448 875.665858 340.849448 868.795858 334.764448 858.993858 339.343448 846.941858 341.902448 836.783858 343.269781 831.177191 344.604114 825.562524 345.905448 819.939858 369.701448 825.648858 394.342448 823.312858 418.049448 818.738858ZM173.002448 499.782858C186.862448 498.743858 200.018448 504.464858 211.550448 511.592858 196.948448 519.701858 188.875448 529.148858 183.112448 544.860858 178.966448 541.462858 174.388448 538.742858 169.773448 536.046858 159.114448 529.845858 149.091448 526.104858 136.864448 524.398858 139.329448 521.338858 141.616448 518.420858 144.900448 516.179858 154.216448 509.822858 169.835448 514.742858 175.225448 510.122858 175.474448 509.221858 175.764448 509.077858 175.105448 508.191858 172.326448 504.451858 163.574448 504.048858 159.369448 503.631858 163.924448 501.637858 168.050448 500.329858 173.002448 499.782858ZM280.710448 519.282858C283.359448 519.618858 286.060448 520.192858 288.636448 520.894858 299.549448 523.872858 310.957448 532.476858 316.427448 542.451858 318.139448 545.573858 319.539448 550.261858 318.319448 553.773858 317.843448 555.145858 317.119448 555.979858 315.784448 556.587858 313.868448 557.460858 312.395448 557.493858 310.429448 556.840858 306.659448 553.675858 303.407448 549.661858 299.863448 546.216858 297.699448 544.078191 295.466448 542.014191 293.164448 540.024858 290.863114 538.035524 288.497781 536.124858 286.068448 534.292858 283.639781 532.461524 281.152448 530.712858 278.606448 529.046858 276.061114 527.380858 273.462781 525.801524 270.811448 524.308858 273.907448 522.070858 277.068448 520.433858 280.710448 519.282858Z"/><path fill="#7A7BBE" fill-rule="nonzero" d="M222.828448,518.177858 C229.237448,517.467858 234.165448,518.864858 240.181448,520.896858 C235.272448,522.206858 230.998448,523.794858 226.663448,526.481858 C214.440448,534.058858 205.639448,545.721858 202.253448,559.706858 C201.605448,563.035858 201.557448,566.592858 201.318448,569.979858 C198.426448,566.646858 195.740448,563.508858 194.411448,559.187858 C192.160448,551.872858 194.442448,543.102858 198.048448,536.567858 C203.575448,526.553858 212.056448,521.234858 222.828448,518.177858 Z"/><path fill="#F2F2F4" fill-rule="nonzero" d="M305.771448,510.790858 C314.464448,510.033858 322.168448,512.552858 329.017448,517.849858 C334.673448,522.223858 339.448448,528.508858 340.179448,535.812858 C340.439448,538.406858 340.048448,541.284858 338.242448,543.295858 C335.769448,546.050858 333.231448,546.851858 329.665448,547.147858 C328.627448,544.287858 327.415781,541.503524 326.030448,538.794858 C319.639448,526.427858 306.799448,517.290858 293.729448,513.207858 C297.673448,512.053858 301.687448,511.248191 305.771448,510.790858 Z"/><path stroke="#313945" stroke-width="10" d="M325.830526,784.518014 C344.192385,788.619043 361.160454,790.669557 376.734733,790.669557 C392.309011,790.669557 410.752474,788.300539 432.06512,783.562501"/></g></svg>