<svg xmlns="http://www.w3.org/2000/svg" width="949" height="1024" viewBox="0 0 949 1024"><defs><linearGradient id="a" x1="50.002%" x2="49.998%" y1="49.978%" y2="49.973%"><stop offset="0%" stop-color="#AB9F72" stop-opacity="0"/><stop offset="100%" stop-color="#B09F78" stop-opacity=".078"/></linearGradient></defs><g fill="none" fill-rule="evenodd"><path fill="#313945" fill-rule="nonzero" d="M595.89,81.493 C605.062,66.4739 614.154,54.208 631.969,49.8043 C654.249,44.2968 679.984,53.7407 698.858,65.2788 C713.775,74.3977 729.299,87.2065 733.607,105.014 C735.442,112.602 734.829,120.344 730.611,127.095 C730.369667,127.479 730.118667,127.857 729.858,128.229 C729.597333,128.600333 729.327667,128.965 729.049,129.323 C728.769667,129.681 728.482,130.031667 728.186,130.375 C727.889333,130.719 727.584333,131.055 727.271,131.383 C726.957667,131.711 726.636,132.031333 726.306,132.344 C725.976667,132.656 725.639667,132.959333 725.295,133.254 C724.950333,133.549333 724.598333,133.835667 724.239,134.113 C723.880333,134.391 723.514667,134.659333 723.142,134.918 C722.769333,135.177333 722.390333,135.427 722.005,135.667 C721.619667,135.907 721.229,136.137333 720.833,136.358 C720.435667,136.578667 720.033667,136.789 719.627,136.989 C719.219667,137.189 718.807667,137.379 718.391,137.559 C717.973667,137.738333 717.552333,137.907333 717.127,138.066 C716.702333,138.224 716.273333,138.371667 715.84,138.509 C715.407333,138.645667 714.971667,138.771333 714.533,138.886 C714.093667,139.001333 713.652,139.105333 713.208,139.198 C696.956,142.747 678.955,135.715 665.486,127.013 L664.925,126.644 C664.12,126.123 663.688,125.927 662.689,126.008 C662.336,126.322 644.002,165.236 641.677,169.802 C630.878333,190.945333 619.722333,211.898333 608.209,232.661 C602.161,243.493 595.095,254.102 589.651,265.227 C590.042,268.73 590.614,271.905 591.826,275.234 C599.06,279.121 605.075,283.517 607.602,291.782 C609.284,297.283 607.578,303.23 609.28,308.423 C611.695,315.79 614.961,322.985 617.677,330.256 C623.415,345.891333 628.796,361.648333 633.82,377.527 C637.123,387.827 640.833,398.519 642.949,409.112 C669.588,413.665 785.109,449.587 804.829,463.617 C812.004,461.368 821.79,462.603 828.498,466.01 C833.503,468.552 836.131,472.171 838.773,476.921 C849.36,477.323 862.068,481.907 871.187,481.393 C884.781,480.625 916.693,462.818 927.295,474.667 C929.675,477.327 930.283,481.151 930.02,484.602 C929.519,491.174 925.351,496.575 920.387,500.584 C916.93,503.376 913.072,505.578 909.233,507.793 C919.793,508.326 936.331,510.549 943.759,518.671 C946.398,521.556 948.273,525.505 948.086,529.482 C947.878,533.909 945.268,537.716 941.935,540.468 C935.961,545.401 927.163,547.55 919.62,548.431 C926.571,552.834 934.612,557.704 936.53,566.398 C937.44,570.522 936.69,575.15 934.285,578.647 C931.405,582.833 926.69,584.949 921.79,585.691007 C905.428,588.169 890.407,579.606 876.907,571.62 C877.653,581.113 878.71,594.607 872.066,602.361 C869.45,605.415 865.046,607.395 861.04,607.571 C857.782,607.713 854.921,606.325 852.603,604.105 C849.227,600.871 847.116,596.508 845.25,592.294 C839.307,578.878 834.805,566.815 821.778,558.607 C814.107,563.1 807.606,563.884 799.027,561.674 C784.967,558.053 771.784,551.572 757.116,550.347 L757.077,551.118 C757.212,551.239 757.349,551.358 757.482,551.48 C758.73,552.621 759.66,553.499 759.746,555.308 C759.807,556.574 759.463,557.497 758.965,558.638 C755.084,560.801 722.988,559.729 717.139,559.528 C725.176,581.938 730.946,606.036 731.326,629.919 C732.276667,629.984333 733.226667,630.061333 734.176,630.15 C735.124667,630.239333 736.072333,630.34 737.019,630.452 C737.965,630.564 738.91,630.688 739.854,630.824 C740.797333,630.959333 741.738667,631.106333 742.678,631.265 C743.618,631.423667 744.556,631.594 745.492,631.776 C746.427333,631.958 747.360333,632.151667 748.291,632.357 C749.221667,632.561667 750.149667,632.778 751.075,633.006 C752.001,633.233333 752.923667,633.472333 753.843,633.723 C754.762333,633.973667 755.678667,634.235667 756.592,634.509 C757.505333,634.782333 758.415,635.066667 759.321,635.362 C760.227,635.658 761.129333,635.965 762.028,636.283 C762.926,636.601 763.820333,636.93 764.711,637.27 C765.601667,637.61 766.487667,637.960667 767.369,638.322 C768.251,638.684 769.128333,639.056667 770.001,639.44 C770.873,639.824 771.740667,640.218333 772.604,640.623 C773.466667,641.027667 774.324333,641.443333 775.177,641.87 C776.029,642.296 776.876,642.732333 777.718,643.179 C778.56,643.626333 779.396333,644.083667 780.227,644.551 C781.057,645.018333 781.881333,645.496 782.7,645.984 C783.518667,646.472 784.331333,646.97 785.138,647.478 C785.944667,647.986 786.744667,648.504 787.538,649.032 C788.332,649.56 789.119,650.097333 789.899,650.644 C790.679667,651.191333 791.453333,651.748333 792.22,652.315 C792.986667,652.881 793.746,653.456333 794.498,654.041 C795.250667,654.626333 795.996,655.220667 796.734,655.824 C797.471333,656.427333 798.201333,657.039667 798.924,657.661 C799.646667,658.282333 800.361667,658.912667 801.069,659.552 C801.776333,660.190667 802.475667,660.838333 803.167,661.495 C803.857667,662.151 804.540333,662.815667 805.215,663.489 C805.889667,664.162333 806.556,664.843667 807.214,665.533 C807.872,666.222333 808.521333,666.92 809.162,667.626 C809.802667,668.331333 810.434667,669.044667 811.058,669.766 C828.999,690.659 839.234,720.429 837.074,747.933 C835.553,767.306 828.486,786.205 813.397,799.009 C800.075,810.314 782.991,814.451 765.784,812.896 C735.775,810.185 707.072,789.431 688.381,766.789 C686.789,764.840333 685.236,762.861 683.722,760.851 C678.444,766.544 672.054,768.438 664.68,769.963 C666.599,773.476 667.921,778.127 666.663,782.095 C665.91,784.471 664.23,786.09 662.033,787.188 C658.266,789.069 653.722,789.712 649.55,789.822 C642.808,790.001 636.059,788.902 629.515,787.37 C626.312,786.621 622.418,785.142 619.181,785.101 C614.14,785.038 608.701,787.167 603.717,788.047 C594.608,789.655 585.6,790.115 576.36,789.995 C578.645,797.744 580.964,805.425 582.361,813.396 C586.779,838.614 584.479,868.022 572.218,890.702 C563.533,906.765 550.324,918.014 532.755,923.229 C515.176,928.446 496,925.261 480.091,916.548 C459.903,905.493 446.218,886.725 439.889,864.818 C431.153,834.582 435.621,800.204 450.841,772.808 C452.296333,770.147333 453.844667,767.542 455.486,764.992 C457.127333,762.442 458.857333,759.953667 460.676,757.527 C462.494667,755.100333 464.397333,752.741667 466.384,750.451 C468.371333,748.160333 470.437333,745.943 472.582,743.799 C462.088,732.804 452.886,721.355 445.348,708.096 C442.87,703.736 440.886,699.135 438.489,694.744 C433.762,700.252 428.589,705.734 424.487,711.718 C421.179,716.544 418.448,722.98 414.56,727.28 C413.666,728.269 412.947,728.572 411.636,728.708 C410.075,728.871 407.903,728.079 406.904,726.852 C406.087,725.847 406.043,724.891 406.349,723.71 C408.822,714.17 427.168,692.393 434.558,684.665 C431.44,675.889 428.517,667.315 426.62,658.176 C421.556,662.352 416.431,666.501 411.781,671.144 C408.395,674.524 405.225,678.592 401.54,681.61 C400.358,682.578 400.098,682.733 398.576,682.944 C397.011,682.409 395.186,681.402 394.604,679.729 C394.281,678.801 394.346,677.574 394.351,676.596 C389.176,682.65 377.08,699.676 374.126,706.328 C373.061,708.727 373.075,711.871 372.487,714.443 C369.488,727.561 363.023,733.922 350.042,737.318 C350.119,745.752 351.291,753.433 354.132,761.404 C358.437,773.482 371.927,790.395 360.358,802.364 C357.559,805.26 353.939,806.229 349.999,806.184 C341.504,806.087 334.615,801.442 329.004,795.467 C326.428,792.724 324.282,789.734 322.368,786.501 C317.069,799.544 306.044,827.497 292.728,833.2 C291.905,833.552 291.067,833.858 290.229,834.171 C290.144,834.202 290.06,834.237 289.976,834.27 C286.642,834.394 283.513,833.864 280.264,833.212 C277.128,831.533 274.616,829.356 272.819,826.255 C268.218,818.315 270.206,807.595 272.619,799.267 C271.466,800.736 270.284,802.2 269.027,803.582 C262.317,810.963 254.952,815.297 244.882,815.777 C240.713,814.965 237.017,813.699 233.967,810.608 C230.459,807.053 229.458,802.693 229.597,797.849 C229.653,797.763 229.732,797.69 229.765,797.593 C230.721,794.78 231.3,791.936 232.562,789.205 C236.107,781.529 242.394,774.343 247.494,767.594 C237.209,766.014 228.424,765.517 219.772,759.227 C219.056,758.449 218.336,757.659 217.705,756.809 C215.093,753.29 213.568,748.615 214.288,744.234 C215.091,739.348 217.978,736.237 221.774,733.397 C228.085,730.214 235.498,729.472 242.351,728.065 C255.088,725.45 264.144,720.197 274.164,712.072 C276.897,709.856 279.897,707.594 282.131,704.872 C284.731,702.786 287.175,700.506 289.652,698.278 C287.821,693.414 286.905,688.094 287.984,682.952 C289.715,674.7 295.249,669.885 302.009,665.599 C319.545,628.117 340.967,592.317 362.486,557.019 C376.955,533.285 391.604,508.172 409.58,486.948 C399.897,471.067 391.028,454.799 382.19,438.437 L377.204,429.339 C363.097,447.029 339.782,456.827 317.789,459.213 C299.106,461.24 280.729,456.68 263.443,449.924 C231.261,437.348 183.078,401.549 153.617,438.029 C141.489,453.045 137.173,473.334 139.38,492.238 C140.975,505.906 146.367,519.742 155.819,529.89 C158.698,533.363 162.222,536.735 161.602,541.668 C161.356,543.623 160.309,545.207 158.669,546.283 C154.053,549.311 147.477,549.38 142.306,548.041 C139.629,547.348 137.02,546.016 134.598,544.704 C117.93,533.641 107.703,513.527 103.841,494.364 C98.4194,467.464 103.39,437.579 118.738,414.653 C130.992,396.35 148.513,384.08 170.249,379.847 C204.862,373.106 236.751,389.734 267.353,403.401 C276.606,407.533 285.908,412.216 295.896,414.265 C306.627,416.466 318.026,415.514 327.927,410.724 C338.879,405.424 347.526,395.755 355.354,386.664 C351.025,377.63 347.089,369.015 350.483,358.782 C351.195,356.634 352.197,354.61 353.308,352.645 C346.811,344.799 339.611,337.245 331.584,330.959 C319.026,321.125 304.496,313.368 290.839,305.144 C262.577,288.126 233.735,271.784 206.057,253.835 C199.677,249.698 195.549,243.407 189.483,238.988 C179.889,259.136 167.855,282.524 145.389,290.592 C137.442,293.446 128.802,293.287 121.166,289.538 C120.722,289.318 120.284,289.087 119.852,288.845 C119.419333,288.603 118.993,288.350333 118.573,288.087 C118.153667,287.824333 117.740667,287.551 117.334,287.267 C116.928,286.983667 116.529,286.690333 116.137,286.387 C115.745667,286.083667 115.361667,285.770667 114.985,285.448 C114.609,285.125333 114.241333,284.793667 113.882,284.453 C113.522,284.112333 113.171,283.763 112.829,283.405 C112.486333,283.046333 112.153,282.679667 111.829,282.305 C111.505,281.930333 111.190333,281.548 110.885,281.158 C110.580333,280.767333 110.285,280.369667 109.999,279.965 C109.713667,279.559667 109.438667,279.147667 109.174,278.729 C108.909333,278.310333 108.655,277.885333 108.411,277.454 C108.167,277.022667 107.934,276.585667 107.712,276.143 C107.49,275.700333 107.279,275.252333 107.079,274.799 C106.879,274.345667 106.690667,273.887333 106.514,273.424 C106.336667,272.961333 106.171,272.494667 106.017,272.024 C100.211,254.138 115.593,225.984 123.848,210.089 C133.951,190.637 160.25,147.611 181.263,140.563 C188.374,138.177 195.648,139.888 202.115,143.243 C214.447,149.639 224.187,160.708 233.18,171.016 C236.425,170.817 239.783,170.518 242.94,171.485 C248.626,173.225 254.22,176.303 259.59,178.859 C270.025333,183.823667 280.419,188.873333 290.771,194.008 L352.463,223.909 C367.332,231.173 382.073,238.734 397.09,245.688 C417.867,237.007 438.638,228.698 460.345,222.559 C473.827,218.747 487.366,216.052 501.081,213.284 C507.466,206.93 512.753,198.304 518.017,190.942 C535.459,166.548 551.155,141.354 567.125,116.002 C573.197,106.362 578.97,94.7804 586.825,86.4814 C589.242,83.9282 592.627,82.5867 595.89,81.493 Z M400.091,669.197 C407.44,661.191 416.253,653.368 424.813,646.651 C424.065,643.831 423.814,637.233 422.316,635.375 C418.951,640.364 399.981,666.4 399.24,669.658 C399.528,669.512 399.855,669.417 400.091,669.197 Z"/><path fill="#F2F2F4" fill-rule="nonzero" d="M434.088,640.979 C433.958868,629 433.589,617.047 435.227,605.145 C440.514,566.717 467.905,530.323 498.408,507.215 C499.394,506.453667 500.389333,505.705 501.394,504.969 C502.398667,504.233 503.412667,503.509667 504.436,502.799 C505.458667,502.088333 506.490333,501.390667 507.531,500.706 C508.571,500.021333 509.619667,499.349667 510.677,498.691 C511.734333,498.032333 512.799667,497.387 513.873,496.755 C514.946333,496.123667 516.027667,495.505667 517.117,494.901 C518.205667,494.295667 519.301667,493.704667 520.405,493.128 C521.509,492.550667 522.62,491.987333 523.738,491.438 C524.856,490.888667 525.980333,490.353333 527.111,489.832 C528.242333,489.310667 529.38,488.803667 530.524,488.311 C531.668,487.818333 532.818,487.34 533.974,486.876 C535.13,486.412 536.291667,485.962667 537.459,485.528 C538.626333,485.093333 539.798667,484.673333 540.976,484.268 C542.154,483.862667 543.336667,483.472 544.524,483.096 C545.712,482.720667 546.904,482.36 548.1,482.014 C549.296667,481.668 550.497667,481.337333 551.703,481.022 C552.907667,480.706 554.116333,480.405333 555.329,480.12 C556.541,479.834667 557.756667,479.564333 558.976,479.309 C560.195333,479.054333 561.417333,478.814667 562.642,478.59 C563.867333,478.366 565.095333,478.157333 566.326,477.964 C567.556667,477.77 568.789333,477.591667 570.024,477.429 C571.258667,477.266333 572.495333,477.119333 573.734,476.988 C574.972667,476.856 576.212667,476.739667 577.454,476.639 C578.695333,476.539 579.938,476.454333 581.182,476.385 C582.425333,476.315 583.669667,476.261 584.915,476.223 C586.159667,476.185 587.404667,476.162333 588.65,476.152826 C589.896,476.148333 591.141667,476.152826 592.387,476.181 C593.632333,476.205 594.877,476.244667 596.121,476.3 C597.365667,476.355333 598.609333,476.426333 599.852,476.513 C601.094,476.599667 602.335,476.702 603.575,476.82 C604.815,476.937333 606.053333,477.070333 607.29,477.219 C608.526667,477.367667 609.761333,477.532 610.994,477.712 C636.271,481.276 668.79,496.165 684.486,516.937 C677.125,520.167 660.641,524.788 655.178,529.193 C653.928,530.2 653.207,531.193 653.012,532.826 C653.436,534.363 653.942,534.726 655.132,535.681 C656.759,536.16 658.162,536.129 659.832,535.801 C662.954,535.186 666.365,533.524 669.379,532.417 C676.396,529.841 683.386,527.163 690.495,524.848 C695.788,532.962 699.66,541.8 703.258,550.758 C695.906,551.107 687.551,551.123 680.385,552.862 C678.528,553.313 677.022,554.116 676.184,555.955 C675.566,557.311 675.748,557.583 676.248,558.883 C681.162,563.108 699.098,559.946 706.253,559.983 C706.539,560.727667 706.82,561.474333 707.096,562.223 C721.61,601.663 727.72,647.47 711.121,687.098 C708.643,693.014 705.577,698.922 702.143,704.34 C699.608,708.341 696.452,712.259 694.505,716.576 C694.437,716.728 694.373,716.881 694.307,717.034 C702.111,736.309 713.875,753.91 730.09,767.098 C745.411,779.56 764.974,788.717 785.132,786.567 C788.834,786.173 796.374,784.674 798.452,781.213 C799.194,779.977 798.868,779.364 798.533,778.078 C786.922,782.654 770.53,778.934 759.512,774.355 C734.303,763.876 715.035,741.792 704.856,716.811 C719.046,694.683 726.573,677.277 730.28,651.05 L731.103,640.882 C731.944333,640.940667 732.785,641.01 733.625,641.09 C734.464333,641.17 735.302667,641.260333 736.14,641.361 C736.977333,641.461 737.813333,641.571667 738.648,641.693 C739.483333,641.814333 740.316667,641.946 741.148,642.088 C741.979333,642.23 742.808667,642.382 743.636,642.544 C744.464,642.706667 745.289667,642.879333 746.113,643.062 C746.936333,643.245333 747.757333,643.438667 748.576,643.642 C749.394667,643.844667 750.210667,644.057667 751.024,644.281 C751.837333,644.505 752.647667,644.738667 753.455,644.982 C754.262333,645.225333 755.066667,645.478667 755.868,645.742 C756.669333,646.006 757.467333,646.279333 758.262,646.562 C759.056,646.845333 759.846667,647.138333 760.634,647.441 C761.421333,647.744333 762.204667,648.057 762.984,648.379 C763.763333,648.701 764.538667,649.032667 765.31,649.374 C766.081333,649.715333 766.848333,650.066333 767.611,650.427 C768.373667,650.787667 769.131667,651.157333 769.885,651.536 C770.638333,651.915333 771.387,652.304 772.131,652.702 C772.874333,653.1 773.613,653.507 774.347,653.923 C775.080333,654.339 775.808667,654.764 776.532,655.198 C777.255333,655.632 777.973,656.075 778.685,656.527 C779.397667,656.979 780.104333,657.439667 780.805,657.909 C781.505667,658.378333 782.200333,658.856 782.889,659.342 C783.578333,659.828667 784.261333,660.324 784.938,660.828 C785.614667,661.331333 786.285,661.843 786.949,662.363 C787.613,662.883 788.270333,663.411333 788.921,663.948 C789.571667,664.484 790.216,665.028333 790.854,665.581 C791.491333,666.133 792.121667,666.693 792.745,667.261 C793.368333,667.829 793.984667,668.404667 794.594,668.988 C795.203333,669.571333 795.805333,670.162 796.4,670.76 C796.994667,671.358 797.582,671.963333 798.162,672.576 C798.741333,673.188667 799.313333,673.808667 799.878,674.436 C800.442,675.062667 800.998333,675.696333 801.547,676.337 C818.002,695.247 827.504,721.521 825.673,746.605 C824.52,762.407 818.397,779.216 806.074,789.706 C794.661,799.42 781.156,802.113 766.484,800.853 C740.444,798.616 715.156,780.939 698.781,761.398 C693.077,754.591 688.453,747.342 684.171,739.592 C683.663,738.674 682.657,736.218 681.94,735.575 C681.605,735.274 681.152,735.141 680.758,734.924 C679.445,734.899 678.054,734.789 676.956,735.656 C675.502,736.802 675.22,738.81 675.199,740.543 C675.151,744.626 677.53,751.552 674.638,754.951 C669.399,761.108 649.962,755.657 649.301,762.749 C648.786,768.261 656.166,772.447 655.781,777.806 C653.272,779.843 646.145,779.099 643.049,778.788 C635.262,778.004 625.796,774.044 618.492,774.45 C613.977,774.702 609.314,776.098 604.878,777.015 C595.995,778.85 585.991,780.3 576.884,779.612 C571.279,779.188 566.505,772.029 561.229,773.249 C560.199,774.144 559.737,774.588 559.582,775.996 C559.204,779.44 566.002,793.989 567.29,798.313 C576.899,830.565 576.466,875.786 550.049,900.348 C539.788,909.889 526.845,914.424 512.893,913.887 C495.644,913.223 479.626,905.166 468.062,892.493 C450.988,873.783 445.844,849.543 447.014,824.844 C448.268,798.374 461.466,768.626 481.078,750.601 L481.379,750.329 C484.65,752.881 487.94,755.348 491.359,757.699 C497.38,761.418 503.392,765.245 509.685,768.492 C514.113,770.777 519.809,772.567 523.768,775.508 C531.356,781.145 538.852,803.644 541.027,812.75 C546.695,836.483 546.528,864.911 533.535,886.422 C533.221,886.941 532.888,887.435 532.539,887.93 C533.782,888.433 534.842,888.625 536.142,888.154 C541.274,886.294 544.316,878.771 546.307,874.1 C557.605,847.599 553.581,813.883 542.22,788.08 C539.599,782.127 536.305,775.023 531.597,770.397 C526.112,765.009 514.189,760.863 507.158,756.687 C480.5,740.855 458.223,714.296 446.536,685.586 C450.817,680.875 470.777,662.001 471.514,656.599 C471.706,655.194 471.344,654.631 470.562,653.516 C469.887,653.196 468.83,652.472 468.085,652.567 C464.449,653.032 446.502,672.344 442.698,676.495 C440.133333,667.851 437.969,659.108 436.205,650.266 C442.543,645.294 449.36,640.684 456.224,636.473 C460.516,633.84 465.257,631.445 469.228,628.361 C470.487,627.384 471.976,626.13 472.667,624.651 C473.191,623.529 473.374,621.792 472.821,620.612 C472.304,619.511 471.678,618.888 470.468,618.622 C466.71,617.793 439.089,637.2 434.088,640.979 Z"/><path fill="#FAC3B7" fill-rule="nonzero" d="M730.28 651.05C757.148 654.487 778.128 664.474 795.047 686.328 807.722 702.7 816.066 725.464 813.325 746.332 812.358 753.694 806.201 772.691 800.154 776.844 799.715 777.146 799.151 777.326 798.65 777.494L798.533 778.078C786.922 782.654 770.53 778.934 759.512 774.355 734.303 763.876 715.035 741.792 704.856 716.811 719.046 694.683 726.573 677.277 730.28 651.05ZM491.359 757.699C497.38 761.418 503.392 765.245 509.685 768.492 514.113 770.777 519.809 772.567 523.768 775.508 531.356 781.145 538.852 803.644 541.027 812.75 546.695 836.483 546.528 864.911 533.535 886.422 533.221 886.941 532.888 887.435 532.539 887.93 531.223 888.03 529.328 889.866 528.138 890.6 521.383 894.77 514.753 896.602 506.846 895.98 506.085333 895.927333 505.326667 895.855333 504.57 895.764 503.813333 895.672667 503.059333 895.562333 502.308 895.433 501.556667 895.303 500.809 895.154667 500.065 894.988 499.321 894.820667 498.582 894.634667 497.848 894.43 497.113333 894.225333 496.384333 894.002333 495.661 893.761 494.938333 893.519667 494.222 893.26 493.512 892.982 492.802 892.704667 492.099333 892.409333 491.404 892.096 490.708667 891.782667 490.022 891.452 489.344 891.104 488.665333 890.756 487.996333 890.391333 487.337 890.01 486.677 889.628 486.027 889.229667 485.387 888.815 484.747 888.400333 484.118 887.97 483.5 887.524 482.882 887.077333 482.275667 886.615333 481.681 886.138 481.086333 885.661333 480.504333 885.169667 479.935 884.663 479.365 884.156333 478.808333 883.635667 478.265 883.101 477.721 882.566333 477.191333 882.018333 476.676 881.457 476.16 880.895667 475.658667 880.321667 475.172 879.735 461.623 863.567 458.355 839.172 460.275 818.81 462.289 797.439 474.665 771.57 491.359 757.699Z"/><path fill="#313945" fill-rule="nonzero" d="M551.645,496.69 C556.556,496.311 561.654,496.892 566.395,498.213 C581.274,502.359 593.201,514.329 600.624,527.47 C607.096,528.608 613.583,530.222 618.099,535.418 C619.853,537.436 620.776,539.313 620.523,541.998 C620.062,542.741 619.903,543.336 619.064,543.706 C614.448,545.736 612.386,539.126 606.513,537.319 C592.93,533.141 574.943,538.595 562.812,544.837 C567.607,550.884 570.972,556.657 573.728,563.876 C574.353333,563.789333 574.979,563.707333 575.605,563.63 C582.253,562.812 589.573,563.035 595.002,567.524 C595.387333,567.841333 595.756,568.177 596.108,568.531 C596.459333,568.885 596.792667,569.255667 597.108,569.643 C597.422667,570.030333 597.717667,570.432 597.993,570.848 C598.267667,571.264667 598.521333,571.693667 598.754,572.135 C598.986667,572.577 599.196667,573.029333 599.384,573.492 C599.571333,573.954 599.735333,574.424667 599.876,574.904 C600.016667,575.382667 600.133333,575.867333 600.226,576.358 C600.318667,576.848 600.386667,577.341667 600.43,577.839 C600.97,583.709 598.344,589.624 594.624,594.037 C594.288,594.435 593.942,594.824333 593.586,595.205 C593.230667,595.585667 592.865667,595.957 592.491,596.319 C592.117,596.681667 591.734,597.034667 591.342,597.378 C590.95,597.720667 590.549667,598.053667 590.141,598.377 C589.731667,598.699667 589.315,599.012 588.891,599.314 C588.466333,599.616 588.034333,599.907333 587.595,600.188 C587.156333,600.468 586.710667,600.737 586.258,600.995 C585.805333,601.253 585.346333,601.499333 584.881,601.734 C584.416333,601.969333 583.945667,602.192333 583.469,602.403 C582.993,602.614333 582.512,602.813667 582.026,603.001 C581.539333,603.187667 581.048667,603.362333 580.554,603.525 C580.058667,603.687667 579.56,603.837667 579.058,603.975 C578.555333,604.112333 578.049667,604.237 577.541,604.349 C577.031667,604.461 576.520333,604.56 576.007,604.646 C575.493,604.732667 574.977333,604.806 574.46,604.866 C573.942667,604.926667 573.424,604.974 572.904,605.008 C566.463,605.46 561.015,604.888 555.943,600.532 C553.36,596.866 552.319,593.26 552.774,588.754 C553.682,579.766 559.253,572.412 566.12,566.988 C563.656,560.515 560.024,554.725 555.842,549.234 C547.064,554.45 538.666,561.424 531.994,569.126 C528.148667,573.648667 524.596667,578.391333 521.338,583.354 C518.972,586.998 516.926,591.08 514.047,594.344 C512.606,595.979 510.931,597.433 508.964,598.399 C506.867,599.429 504.514,599.782 502.289,598.949 C500.949,598.447 499.882,597.63 499.372,596.248 C497.891,592.239 504.672,591.109 506.947,589.296 C508.096,588.381 508.782,586.902 509.456,585.633 L509.771,585.03 C508.064,559.77 507.092,532.303 524.118,511.454 C531.175,502.812 540.581,497.866 551.645,496.69 Z"/><path fill="#E1A39E" fill-rule="nonzero" d="M549.632,505.113 C552.214,504.89 555.006,504.725 557.585,504.979 C572.098,506.412 582.813,516.99 591.566,527.688 C571.107,529.628 553.732,539.082 538.031,551.854 C528.913,559.547 525.099,565.676 517.639,574.02 L517.294,574.4 C516.348,556.862 516.767,537.992 526.171,522.543 C531.69,513.478 539.282,507.564 549.632,505.113 Z"/><path fill="#FAC3B7" fill-rule="nonzero" d="M576.725,571.642 C580.551,571.313 584.715,570.902 588.286,572.629 C590.159,573.535 591.627,574.989 592.292,576.987 C593.232,579.811 592.397,582.897 591.003,585.418 C587.937,590.964 582.474,594.511 576.562,596.353 C572.916,597.207 567.665,597.747 564.186,596.248 C562.473,595.51 561.072,594.099 560.511,592.301 C559.558,589.246 560.637,585.833 562.092,583.124 C565.323,577.108 570.311,573.546 576.725,571.642 Z"/><path fill="#313945" fill-rule="nonzero" d="M519.88,639.071 C525.849,638.752 530.803,639.488 535.99,642.765 C543.808,647.704 548.813,656.854 550.735,665.724 C552.373,673.288 551.993,681.918 547.529,688.5 C544.162,693.466 539.337,695.751 533.625,696.875 C528.632,697.355 523.469,696.135 519.045,693.808 C511.408,689.793 505.899,682.209 503.55,673.993 C501.189,665.738 501.805,656.143 506.142,648.622 C509.431,642.918 513.766,640.658 519.88,639.071 Z"/><path fill="#FFF" fill-rule="nonzero" d="M531.041,667.974 C531.204333,667.915333 531.369,667.862 531.535,667.814 C531.701667,667.766667 531.869667,667.724667 532.039,667.688 C532.208333,667.651333 532.378667,667.620333 532.55,667.595 C532.721333,667.569667 532.893333,667.549667 533.066,667.535 C533.238667,667.521 533.411667,667.512667 533.585,667.51 C533.758333,667.507333 533.931333,667.510333 534.104,667.519 C534.277333,667.527667 534.45,667.542333 534.622,667.563 C534.794,667.583 534.965333,667.608667 535.136,667.64 C535.306,667.671333 535.475,667.708333 535.643,667.751 C535.811,667.793667 535.977333,667.841667 536.142,667.895 C536.306667,667.948333 536.469333,668.007333 536.63,668.072 C536.791333,668.136 536.95,668.205333 537.106,668.28 C537.262667,668.354667 537.416333,668.434667 537.567,668.52 C537.718333,668.604667 537.866333,668.694333 538.011,668.789 C538.156333,668.883667 538.298333,668.983 538.437,669.087 C538.575667,669.191 538.710667,669.299333 538.842,669.412 C538.973333,669.524667 539.101,669.641667 539.225,669.763 C539.348333,669.884333 539.467667,670.009667 539.583,670.139 C539.698333,670.268333 539.809667,670.401333 539.917,670.538 C540.023667,670.674 540.125667,670.813667 540.223,670.957 C540.320333,671.100333 540.413,671.246667 540.501,671.396 C540.588333,671.545333 540.671,671.697333 540.749,671.852 C540.826333,672.006667 540.899,672.164 540.967,672.324 C541.034333,672.483333 541.096333,672.645 541.153,672.809 C541.209667,672.972333 541.261,673.137667 541.307,673.305 C541.352333,673.471667 541.392667,673.64 541.428,673.81 C541.462667,673.98 541.491667,674.150667 541.515,674.322 C541.538333,674.494 541.556,674.666333 541.568,674.839 C541.58,675.011667 541.586333,675.184667 541.587,675.358 C541.588333,675.531333 541.583333,675.704333 541.572,675.877 C541.561333,676.050333 541.545,676.222667 541.523,676.394 C541.501,676.566 541.473333,676.737 541.44,676.907 C541.406667,677.077 541.367667,677.245667 541.323,677.413 C541.279,677.580333 541.229,677.746333 541.173,677.911 C541.117667,678.075 541.057,678.237 540.991,678.397 C540.925,678.557 540.853667,678.714667 540.777,678.87 C540.701,679.026 540.619667,679.179 540.533,679.329 C540.446333,679.479 540.354667,679.626 540.258,679.77 C540.162,679.914 540.061333,680.054667 539.956,680.192 C539.85,680.329333 539.74,680.463 539.626,680.593 C539.511333,680.723 539.392667,680.849333 539.27,680.972 C539.147333,681.094 539.021,681.212 538.891,681.326 C538.760333,681.44 538.626,681.549667 538.488,681.655 C538.350667,681.759667 538.209667,681.86 538.065,681.956 C537.921,682.052 537.773667,682.143 537.623,682.229 C537.473,682.315 537.32,682.396 537.164,682.472 C537.008667,682.548 536.850667,682.618667 536.69,682.684 C536.529333,682.75 536.367,682.810333 536.203,682.865 C536.081667,682.905667 535.959333,682.943333 535.836,682.978 C535.712667,683.012667 535.588667,683.044 535.464,683.072 C535.339333,683.100667 535.214,683.126333 535.088,683.149 C534.961333,683.171 534.834667,683.190333 534.708,683.207 C534.581333,683.223 534.454,683.236 534.326,683.246 C534.198667,683.256 534.071,683.263 533.943,683.267 C533.815,683.271 533.687,683.271667 533.559,683.269 C533.431,683.266333 533.303,683.260667 533.175,683.252 C533.047667,683.244 532.920333,683.232333 532.793,683.217 C532.665667,683.202333 532.539,683.184333 532.413,683.163 C532.286333,683.142333 532.160667,683.118333 532.036,683.091 C531.910667,683.063667 531.786,683.033333 531.662,683 C531.538667,682.967333 531.416,682.931333 531.294,682.892 C531.172,682.852667 531.051333,682.810333 530.932,682.765 C530.812,682.720333 530.693333,682.672333 530.576,682.621 C530.458,682.570333 530.341667,682.516667 530.227,682.46 C530.112333,682.403333 529.999,682.344 529.887,682.282 C529.775,682.22 529.664667,682.155333 529.556,682.088 C529.447333,682.020667 529.34,681.950667 529.234,681.878 C529.128667,681.805333 529.025333,681.73 528.924,681.652 C528.822,681.574667 528.722,681.494667 528.624,681.412 C528.526667,681.329333 528.431,681.244333 528.337,681.157 C528.243667,681.069667 528.152333,680.980333 528.063,680.889 C527.973667,680.797 527.886667,680.703 527.802,680.607 C527.716667,680.511 527.634,680.413 527.554,680.313 C527.474,680.213 527.396667,680.111333 527.322,680.008 C527.246667,679.904 527.174333,679.798333 527.105,679.691 C527.035,679.583667 526.967667,679.474667 526.903,679.364 C526.838333,679.253333 526.776333,679.141333 526.717,679.028 C526.658333,678.914667 526.602,678.799667 526.548,678.683 C526.494667,678.567 526.444333,678.449667 526.397,678.331 C526.349,678.211667 526.304,678.091667 526.262,677.971 C526.22,677.850333 526.181,677.728333 526.145,677.605 C526.109,677.482333 526.076,677.358667 526.046,677.234 C526.016,677.109333 525.989,676.984333 525.965,676.859 C525.941667,676.733 525.921,676.606667 525.903,676.48 C525.885,676.353333 525.870333,676.226333 525.859,676.099 C525.847667,675.971 525.839333,675.843 525.834,675.715 C525.828667,675.587667 525.826333,675.46 525.826889,675.332 C525.828333,675.204 525.832667,675.076 525.84,674.948 C525.846667,674.82 525.856667,674.692333 525.87,674.565 C525.883333,674.437667 525.9,674.310667 525.92,674.184 C525.939333,674.057333 525.962,673.931333 525.988,673.806 C526.013333,673.680667 526.042,673.556 526.074,673.432 C526.106,673.308 526.140667,673.185 526.178,673.063 C526.216,672.940333 526.257,672.819 526.301,672.699 C526.344333,672.578333 526.391,672.459 526.441,672.341 C526.490333,672.223 526.542667,672.106333 526.598,671.991 C526.653333,671.875 526.711333,671.760667 526.772,671.648 C526.832667,671.535333 526.896,671.424333 526.962,671.315 C527.028,671.205667 527.097,671.097667 527.169,670.991 C527.240333,670.885 527.314333,670.780667 527.391,670.678 C527.467,670.575333 527.546,670.474667 527.628,670.376 C527.709333,670.277333 527.793,670.180667 527.879,670.086 C527.965,669.991333 528.053333,669.898667 528.144,669.808 C528.234667,669.717333 528.327667,669.629333 528.423,669.544 C528.517667,669.458 528.614667,669.374333 528.714,669.293 C528.812667,669.212333 528.913667,669.133667 529.017,669.057 C529.119667,668.981 529.224333,668.907333 529.331,668.836 C529.437,668.765333 529.545,668.697 529.655,668.631 C529.765,668.565 529.876333,668.502 529.989,668.442 C530.101667,668.381333 530.216,668.323667 530.332,668.269 C530.448,668.213667 530.565,668.161667 530.683,668.113 C530.801,668.063667 530.920333,668.017333 531.041,667.974 Z"/><path fill="#313945" fill-rule="nonzero" d="M652.533,583.157 C656.947,582.987 661.072,583.899 664.805,586.335 C671.35,590.606 675.292,598.733 676.884,606.2 C678.591,614.209 677.882,623.054 673.161,629.965 C669.538,635.27 664.764,637.793 658.615,638.934 C653.663,639.291 649.367,638.493 645.237,635.596 C638.558,630.912 634.585,622.482 633.362,614.58 C632.109,606.489 633.081,597.274 638.182,590.595 C641.881,585.752 646.706,583.921 652.533,583.157 Z"/><path fill="#FFF" fill-rule="nonzero" d="M652.527,611.544 C653.838,611.508 655.168,611.454 656.451,611.772 C658.62,612.311 660.315,613.771 661.39,615.716 C661.522667,615.953333 661.643,616.196667 661.751,616.446 C661.858333,616.695333 661.952667,616.949667 662.034,617.209 C662.115333,617.468333 662.182667,617.731333 662.236,617.998 C662.29,618.264 662.329667,618.532333 662.355,618.803 C662.381,619.073667 662.392667,619.345 662.39,619.617 C662.388,619.888333 662.371333,620.159 662.34,620.429 C662.309333,620.699 662.265,620.966667 662.207,621.232 C662.148333,621.497333 662.076,621.759 661.99,622.017 C661.147,624.638 659.627,625.912 657.253,627.137 C656.48,627.124 655.709,627.117 654.938,627.061 C652.584,626.89 650.624,625.897 649.156,624.012 C647.755,622.214 647.307,620.074 647.748,617.846 C648.342,614.839 650.139,613.26 652.527,611.544 Z"/><path fill="#313945" fill-rule="nonzero" d="M573.983 721.752C574.895 721.881 575.704 722.098 576.589 722.346 577.35 722.985 577.984 723.464 578.321 724.448 579.148 726.86 577.917 729.75 576.751 731.826 573.106 738.32 566.425 742.814 559.333 744.768 550.576 747.182 542.645 745.583 534.853 741.121 533.97 740.506 533.085 739.901 532.401 739.058 531.168 737.539 530.695 735.417 530.894 733.507 531.957 732.314 532.665 731.986 534.36 732.249 536.264 732.545 538.462 734.17 540.257 734.945 544.465 736.763 550.744 737.439 555.238 736.796 564.396 735.486 568.881 728.493 573.983 721.752ZM696.757 651.737C697.5 652.097 698.091 652.425 698.67 653.041 700.663 655.159 700.461 660.001 699.97 662.615 698.419 670.866 694.027 678.016 687.04 682.751 679.939 687.562 672.13 688.825 663.738 687.251 663.037 686.844 662.294 686.453 661.662 685.939 660.364 684.883 660.144 683.24 659.945 681.685 662.06 676.8 673.839 681.429 681.807 676.163 692.864 668.856 689.812 656.539 696.757 651.737Z"/><path fill="#7A7BBE" fill-rule="nonzero" d="M546.332,303.117 C558.812,302 572.119,301.862 584.443,304.249 C586.946333,304.707 589.419667,305.292333 591.863,306.005 C594.305667,306.717 596.705667,307.552667 599.063,308.512 C608.014,329.288 615.356,351.122 622.313,372.639 C626.991,387.105 632.289,402.086 634.357,417.18 C637.931,418.273 641.824,418.781 645.486,419.571 C651.847333,420.955 658.162333,422.525667 664.431,424.283 C698.876333,433.663667 732.795333,444.666 766.188,457.29 C776.751,461.25 787.732,464.859 797.99,469.526 C805.607,483.907 806.768,497.948 802.257,513.601 C798.71,525.907 792.102,538.479 780.53,544.883 C765.407,542.173 749.324,536.396 734.533,531.787 C724.11,528.54 713.536,525.825 703.133,522.508 C709.322,519.991 716.684,518.362 723.24,517.192 C728.246,516.299 741.97,516.625 745.583,514.232 C746.689,513.5 746.825,513.426 747.072,512.135 C746.588,510.897 745.583,510.143 744.47,509.474 C742.582,508.339 740.177,507.359 737.985,507.061 C727.109,505.583 705.896,511.4 694.653,513.981 C687.026,505.706 680.31,497.955 671.032,491.349 C643.761,471.929 610.14,464.107 576.972,466.697 C569.051,467.316 561.184,468.816 553.352,470.116 C545.976,466.49 537.804,463.745 529.765,461.987 C524.13,460.754 518.588,460.331 513.575,463.718 C502.689,471.07 495.537,486.691 493.127,499.195 C489.406,502.447 485.442,505.41 481.755,508.721 C470.587,518.751 460.075,530.227 451.486,542.545 C454.583,515.805 463.436,489.248 479.403,467.299 C495.985,444.505 511.236,440.526 538.208,444.111 C549.07,445.569667 559.818667,447.622333 570.454,450.269 C573.665,451.074 580.841,453.851 583.816,452.907 C585.295,452.437 586.143,451.131 586.584,449.75 C586.316,448.497 585.976,447.895 584.93,447.099 C576.277,440.52 537.782,435.222 525.747,434.593 C520.852,434.337 515.947,434.435 511.1,435.215 C475.854,440.883 451.803,492.77 445.322,524.321 C444.125,530.151 443.249,536.257 442.85,542.184 C442.529,546.955 442.833,552.1 441.728,556.765 C440.429,562.247 436.475,567.661 434.102,572.809 C431.095,579.334 429.192,586.234 427.482,593.193 C426.351,597.795 424.13,617.244 422.202,619.814 C412.124,633.243 402.097,646.587 392.656,660.48 C384.357,672.692 376.447,686.587 366.565,697.535 L366.602,697.3 L365.538,698.558 C363.282,698.866 361.044,698.716 358.811,698.29 C339.939,694.683 323.29,682.113 312.638,666.49 C317.889,652.096 329.097,633.689 336.77,619.95 C362.23,574.359 389.274,529.405 420.46,487.472 C401.298,454.433 382.366,419.917 367.769,384.571 L371.99,380.106 C407.407,342.783 458.025,321.182 507.432,309.508 C519.964,306.547 533.418,303.458 546.332,303.117 Z"/><path fill="#4B7695" fill-rule="nonzero" d="M595.533,93.3851 C596.991667,93.4541 598.41,93.7310333 599.788,94.2159 C616.592,99.9598 640.04,116.042 648.081,132.323 C635.463667,159.756333 621.836667,186.678667 607.2,213.09 C601.148,223.875 594.853,234.529 588.668,245.239 C585.87,250.084 581.994,255.422 580.161,260.674 C578.658,264.977 580.26,269.524 581.307,273.746 C571.648,272.4 562.021,271.397 552.258,271.439 C537.532,271.502 522.841,273.691 508.398,276.402 C456.698,286.109 399.376,307.968 361.723,345.976 C354.299,338.531 347.484,330.336 339.299,323.684 C329.1,315.394 317.139,308.928 305.92,302.135 L256.264,272.058 C249.17,267.64 208.066,243.43 206.053,238.403 C203.468,231.948 208.742,220.273 211.558,214.481 C215.342,206.694 227.722,185.276 236.241,182.806 C239.169,181.957 243.17,183.529 245.927,184.61 C254.646,188.029 263.128,192.49 271.559,196.578 C284.502333,202.787333 297.411,209.069 310.285,215.423 C336.947,228.515 363.981,240.897 390.501,254.278 C390.128,255.162 389.7,256.077 389.444,257.002 C389.065,258.37 389.285,258.891 389.967,260.081 C391.168,260.488 391.452,260.34 392.621,259.936 C395.024,259.105 397.28,257.63 399.616,256.591 C404.819,254.277 410.085,252.103 415.302,249.82 C445.364,236.666 476.38,228.475 508.671,223.266 C521.836,201.912 537.231,182.13 550.884,161.109 C561.441,144.855 571.445,128.269 582.27,112.183 C586.519,105.868 590.61,99.1938 595.533,93.3851 Z"/><path stroke="#313945" stroke-width="9" d="M642.123047,151.738281 C647.655175,155.126716 639.640625,147.972842 610.947266,125.751953 C591.818359,110.938027 581.17651,103.531064 579.021716,103.531064"/><path fill="#FAC3B7" fill-rule="nonzero" d="M181.286,389.702 C186.543,389.012 192.479,389.539 197.726,390.206 C237.578,395.27 279.055,430.324 316.16,425.976 C335.229,423.741 349.857,411.328 361.311,396.8 C364.916,404.087 368.718,411.285 372.081,418.689 C364.695,428.229 352.868,436.366 341.916,441.217 C294.696,462.132 256.302,432.459 214.149,416.113 C199.236,410.969 184.11,408.055 168.935,413.911 C153.341,419.928 141.758,432.359 135.091,447.507 C125.596,469.079 125.301,499.27 136.902,520.218 C139.841,525.525 147.501,534.014 149.237,538.516 L148.779,538.920233 C146.234,538.936 143.284,538.127 141.13,536.744 C140.932,536.617 140.74,536.482 140.544,536.353 C139.631,535.75 138.738,535.146 137.886,534.456 C122.716,522.171 114.956,502.477 112.954,483.509 C110.395,459.277 117.218,433.335 132.806,414.415 C145.215,399.355 162.07,391.552 181.286,389.702 Z"/><path fill="#F2F2F4" fill-rule="nonzero" d="M294.427 707.421C298.127 710.015 301.404 713.781 304.965 716.654 315.54 725.185 327.014 730.62 339.968 734.465 339.61 746.62 340.967 757.075 346.147 768.158 348.381 772.939 350.914 777.69 352.785 782.623 354.187 786.32 355.221 790.37 353.522 794.124 351.981 795.34 349.847 795.201 347.984 794.97 338.154 793.749 333.937 783.668 328.642 776.693 327.249 774.858 324.81 771.602 322.257 771.563 319.582 771.522 317.279 774.365 315.944 776.365 307.369 789.206 303.945 808.891 292.346 820.135 290.103 822.31 287.923 823.913 284.714 823.861 283.594 823.411 282.862 823.006 282.209 821.948 278.229 815.5 280.636 806.018 282.172 799.122 283.539 793.91 287.093 785.256 285.955 780.057 285.649 778.659 284.729 777.373 283.424 776.735 276.182 773.196 262.876 800.532 249.331 804.094 247.102 804.68 244.002 804.797 242.066 803.319 233.339 796.658 261.904 771.206 260.601 761.44 259.793 755.392 245.611 757.076 241.181 756.503 236.487 755.897 230.927 754.391 227.09 751.537 225.684 750.492 224.326 749.113 224.253 747.248 224.116 743.727 228.785 741.606 231.488 740.713 237.494 738.729 244.118 738.272 250.278 736.716 268.561 732.097 281.121 720.049 294.427 707.421ZM187.854 152.081C188.181 152.104 188.508 152.118 188.834 152.149 201.92 153.396 216.236 168.426 223.903 178.302 210.11 194.641 200.575 209.216 195.266 230.184 192.171 228.349 187.383 224.899 183.742 224.961 182.473 224.982 181.975 225.441 181.351 226.509 179.258 230.097 178.137 234.874 176.535 238.763 172.084 249.566 165.547 259.925 157.338 268.272 150.172 275.558 143.299 279.913 132.848 280.048 136.469 277.277 139.131 274.136 141.93 270.577 142.194 270.224333 142.454667 269.869333 142.712 269.512 146.566 264.137 151.166 256.958 150.043 250.098L149.329 249.624C144.337 251.687 137.146 271.096 126.019 274.375 124.5 274.822 122.921 274.759 121.539 273.918 119.214 272.503 117.555 269.861 116.887 267.27 113.391 253.714 132.233 218.902 139.304 206.503 148.39 190.571 170.147 156.919 187.854 152.081ZM913.783 481.16C915.141 481.039 917.061 480.726 918.312 481.356 919.484 481.945 919.549 482.583 919.861 483.727 918.093 494.34 903.536 498.438 896.454 504.525 894.622 506.099 893.59 507.615 893.37 510.028 895.885 517.722 929.342 517.828 936.491 525.809 937.335 526.751 937.843 527.917 937.612 529.201 936.092 537.687 915.685 538.202 909.257 537.94 904.798 537.758 900.238 536.705 895.793 536.868 894.051 536.933 892.736 537.22 891.344 538.313 887.638 548.583 922.176 555.17 925.639 566.445 926.227 568.357 925.931 570.465 924.932 572.189 923.909 573.958 922.157 574.983 920.2 575.422 909.104 577.907 891.993 568.598 883.083 562.907 879.839 560.948 874.681 557.382 870.764 558.545 863.308 560.76 869.843 586.218 864.03 595.519 863.401 596.525 862.76 597.139 861.582 597.423 855.638 596.67 851.44 581.145 849.268 576.078 847.704 572.360667 845.837333 568.802333 843.668 565.403 839.413 558.867 834.086 553.994 827.631 549.693 839.415 529.797 843.362 510.573 841.021 487.617 850.923 488.607 860.763 491.857 870.724 491.925 885.254 492.025 899.383 483.335 913.783 481.16ZM645.113 60.7135C666.698 61.7674 687.003 70.4021 703.696 84.0514 711.122 90.1227 721.711 101.076 722.45 111.234 722.597 113.256 722.385 115.912 720.776 117.365 712.985 124.4 695.437 102.658 690.28 102.439L689.602 103.149C689.371 105.459 690.218 107.91 691.348 109.903 696.228 118.516 706.394 122.693 715.43 125.193L715.339 125.764 712.596 127.021C699.373 130.053 687.28 126.303 675.717 119.803 673.238 118.41 670.123 116.963 668.066 114.991 665.423 112.457 662.017 106.056 658.687 104.829 657.244 104.298 656.917 104.454 655.543 104.946 652.955 107.605 652.461 115.566 651.335 119.356 642.198 104.464 623.679 91.8492 607.4 86.2098 610.165 81.8137 613.179 77.5346 616.653 73.6661 624.899 64.4828 632.961 61.4045 645.113 60.7135Z"/><path fill="#7A7BBE" fill-rule="nonzero" d="M547.176 280.711C559.412 280.002 582.973 279.959 593.098 286.778 597.468 289.721 598.418 294.552 599.301 299.393 593.126 297.574 586.899 295.934 580.524 294.99 523.582 286.563 436.666 317.517 391.093 351.087 380.626 359.183 371.344 367.36 362.535 377.287 361.013 374.286 359.824 370.715 359.584 367.354 359.259 362.812 361.058 359.18 364.024 355.837 368.062 351.286 373.474 347.343 378.14 343.409 423.241 305.389 489.042 284.817 547.176 280.711ZM808.439 472.579C814.765 472.686 820.168 473.688 826.08 475.958 826.838 476.843333 827.524667 477.780667 828.14 478.77 834.953 489.898 832.629 510.221 829.446 522.149 826.356 533.73 821.028 546.372 810.24 552.654 804.303 553.956 797.058 550.306 791.54 548.264 797.478 542.316 802.328 535.927 805.894 528.28 814.236 510.392 815.138 491.044 808.439 472.579ZM303.961 674.778C304.752 674.882 305.109 675.03 305.749 675.506 308.248 677.367 310.529 679.953 312.813 682.094 317.279 686.28 321.989 690.279 327.083 693.686 337.798 700.853 350.535 705.987 363.408 707.154 362.031 714.075 360.53 719.616 355.166 724.641 354.268 725.167 353.34 725.713 352.342 726.025 345 728.315 331.761 721.442 325.47 718.086 312.732 711.29 301.557 701.653 297.242 687.515 298.385 682.254 300.208 678.682 303.961 674.778Z"/><path fill="#FCF2DE" fill-rule="nonzero" d="M706.094 533.652C712.243 534.739 718.668 537.44 724.692 539.287 733.819 542.085 743.768 544.37 752.544 548.088 753.245 548.385 753.703 548.81 754.192 549.376 740.562 549.669 726.973 549.643 713.342 550.168 710.706 544.815 708.569 539.101 706.094 533.652ZM520.981 472.125C526.768 471.8 532.372 473.445 537.96 474.748 530.118 477.391333 522.545667 480.659 515.243 484.551 511.497 486.376 507.889 488.557 504.257 490.601 508.707 483.374 512.636 475.411 520.981 472.125Z"/><path fill="url(#a)" fill-rule="nonzero" d="M0,0 L3.71479,0 C4.7731,11.3365 4.2759,23.0824 4.27115,34.4719 L4.25211,91.0702 L4.26679,272.724 L4.2239,320.782 C4.21612,326.171 3.29655,335.885 4.49019,340.705 L4.41163,651.342 C4.42689,689.879 5.08423,728.527 4.40796,767.051 C4.36446,776.211 3.88582,785.625 4.39896,794.758 L4.36341,856.244 C4.39722,865.294 3.78857,874.776 4.40233,883.757 L4.34281,974.229 C4.31387,989.573 3.42185,1007.71 4.58017,1022.8 L4.16952,1024 L0,1024 L0,0 Z"/><path fill="#A7976A" fill-opacity=".259" fill-rule="nonzero" d="M4.49019,340.705 C6.13798,347.466 5.0854,364.81 5.08094,372.519 L5.08816,444.507 L4.98338,767.206 L4.40796,767.051 C5.08423,728.527 4.42689,689.879 4.41163,651.342 L4.49019,340.705 Z"/><path fill="#A7976A" fill-opacity=".188" fill-rule="nonzero" d="M4.40233,883.757 L5.10099,883.951 L5.06118,981.794 C5.07582,989.952 6.09712,1017.54 4.58017,1022.8 C3.42185,1007.71 4.31387,989.573 4.34281,974.229 L4.40233,883.757 Z"/><path fill="#A7976A" fill-opacity=".157" fill-rule="nonzero" d="M4.39896,794.758 L5.10024,794.952 L5.10099,883.951 L4.40233,883.757 C3.78857,874.776 4.39722,865.294 4.36341,856.244 L4.39896,794.758 Z"/><path fill="#A7976A" fill-opacity=".133" fill-rule="nonzero" d="M4.40796,767.051 L4.98338,767.206 L5.10024,794.952 L4.39896,794.758 C3.88582,785.625 4.36446,776.211 4.40796,767.051 Z"/><path stroke="#313945" stroke-width="9" d="M212.551013,251.041268 C220.206401,237.996829 227.070907,226.207031 233.144531,215.671875 C239.218156,205.136719 245.700058,194.194673 252.590237,182.845737"/></g></svg>