<?xml version="1.0" encoding="UTF-8" standalone="no"?><!DOCTYPE svg PUBLIC "-//W3C//DTD SVG 1.1//EN" "http://www.w3.org/Graphics/SVG/1.1/DTD/svg11.dtd"><svg width="100%" height="100%" viewBox="0 0 4267 4683" version="1.1" xmlns="http://www.w3.org/2000/svg" xmlns:xlink="http://www.w3.org/1999/xlink" xml:space="preserve" xmlns:serif="http://www.serif.com/" style="fill-rule:evenodd;clip-rule:evenodd;stroke-linejoin:round;stroke-miterlimit:2;"><rect id="Artboard1" x="0" y="0" width="4266.67" height="4682.17" style="fill:none;"/><clipPath id="_clip1"><rect x="0" y="0" width="4266.67" height="4682.17"/></clipPath><g clip-path="url(#_clip1)"><path d="M1908.09,935.746c49.979,-59.879 120.212,-130.304 174.654,-187.983l266.237,-282.705l248.138,-259.337c52.791,-55.383 105.875,-111.758 160.287,-165.563c9.229,-9.125 39.825,-35.6 52.617,-36.095c19.417,-0.755 31.971,6.541 45.683,18.708c11.817,30.458 10.546,203.329 11.809,245.987c7.216,239.355 12.566,478.763 16.058,718.2c14.533,-9.395 30.858,-21.366 45.441,-31.45c213.655,-147.745 502.396,-98.754 643.959,125.35c151.621,240.017 75.85,647.788 -174.946,799.717c-128.6,77.9 -250.783,97.846 -396.813,65.446c-7.35,194.125 -68.05,323.883 -193.241,468.708c22.775,11.846 29.446,17.392 45.633,37.271c56.075,-28.279 149.471,-73.383 201.3,-104.079c32.175,-101.546 144.067,3.087 129.221,-170.396c-10.663,-124.608 68.471,-202.917 182.042,-96.396c27.783,-54.65 85.204,-135.037 147.733,-143.6c70.608,-9.666 89.971,51.584 95.608,105.146c73.504,-49.662 171.025,-33.325 158.309,75.929c-1.538,13.204 -15.663,29.259 -16.746,47.034c38.996,1.383 75.316,14.308 84.591,58.208c19.221,90.996 -88.579,154.237 -141.566,211.2c-40.629,43.679 -76.754,95.821 -125.188,131.742c-29.254,21.745 -70.271,31.12 -104.487,38.508c-6.121,93.258 -80.588,111.25 -147.921,152.354c-29.992,18.308 -60.479,49.221 -92.654,69.504c-148.154,93.4 -301.096,148.392 -471.375,184.534c1.1,111.441 43.633,225.47 43.108,337.158c-0.092,20.025 -22.492,57.712 -22.842,71.858c-2.191,88.129 8.355,104.629 -67.687,153.379c20.721,19.875 44.742,37.417 65.05,57.917c42.896,44.333 84.704,88.25 132,127.583c134.967,112.25 300.6,65.25 306.392,-123.125c2.558,-83.25 -18.446,-143.958 -34.017,-224.262c-7.013,-36.167 -11.388,-72.796 -13.096,-109.596c-7.871,-160.787 48.321,-330.721 221.458,-379.787c91.709,-25.992 197.642,0.545 267.73,65.429c61.679,57.725 98.208,137.366 101.712,221.758c1.558,36.571 -2.642,95.592 -30.671,121.929c-47.666,44.792 -74.804,4.95 -80.366,-43.887c-9.421,-82.742 -61.538,-180.409 -153.842,-186.571c-31.771,-2.35 -63.121,8.362 -86.813,29.658c-97.166,88.359 -10.758,283.196 10.834,386.954c10.837,52.167 14.587,105.584 11.137,158.75c-18.771,321.667 -332.371,460.667 -600.237,303.75c-62.542,-36.625 -105.379,-80 -152.688,-134.541c4.309,11.375 7.909,25.916 9.709,37.708c12.85,84.333 52.662,154.333 83.691,231.75c4.446,11.083 -1.262,38 -3.566,50.5c104.337,73.958 85.712,248.292 38.475,351.083c31.929,4.334 113.516,14.542 120.32,50.417c-14.133,49.417 -193.866,81.125 -238.837,84.917c-58.213,20.458 -123.496,23.666 -184.904,32.416c-40.225,5.709 -82.45,-8.083 -121.317,-16.916c-6.837,-2.375 -16.9,-4.792 -24.133,-6.792c-38.142,2.708 -84.063,1.958 -122.85,1.458c-245.734,-3.25 -493.388,2.917 -738.525,-13.875c-65.429,-4.5 -150.246,-18.5 -208.359,-50c-12.608,-6.833 -13.554,-14 -16.145,-26.625c2.229,-3.125 4.241,-8.208 5.916,-11.833c-7.404,-22.583 -22.971,-30.417 -27.825,-60.042c-6.762,-43.625 4.35,-88.166 30.821,-123.5c49.479,-66.416 110.146,-92.5 188.817,-103.666c-32.146,-49.5 -32.279,-87.334 -41.734,-142.792c-34.779,-204.083 -3.195,-387.208 39.784,-586.125c-51.679,-44.458 -36.588,-70.958 -34.967,-132.246c-0.704,-22.883 -15.108,-45.129 -13.4,-68.316c8.771,-118.884 34.808,-245.063 61.258,-360.65c-122.404,-8.838 -212.533,-28.988 -325.737,-80.121c-31.988,-14.446 -72.017,-34.034 -97.538,-57.992c-82.67,32.683 -234.866,43.546 -322.537,23.633c-28.754,-6.475 -75.629,-18.954 -90.771,-48.279c-31.492,-61.012 19.746,-94.841 63.096,-119.521c-47.446,-32.483 -60.342,-59.65 -43.996,-115.516c-58.396,-59.263 -64.704,-93.796 -19.621,-163.938c-8.025,-12.941 -19.975,-31.125 -22.191,-45.896c-14.084,-93.766 67.791,-122.404 137.87,-135.541c-193.591,-60.459 -269.395,-244.938 -280.745,-434c-2.534,-55.959 -6.492,-220.675 35.029,-261.325c97.2,-95.15 436.058,-121.167 540.037,-40.104c54.825,42.741 67.913,245.85 69.104,322.454c30.696,-4.613 43.213,-3.354 73.505,0.046c2.925,-91.771 41.595,-220.246 76.262,-304.438c-134.987,-41.929 -221.229,-205.425 -236.796,-337.617c-19.816,-174.116 4.904,-323.12 112.271,-464.637c145.867,-192.254 399.154,-282.779 606.167,-124.654c108.296,82.716 147.075,209.266 162.816,340.279Zm16.809,3349c8.85,24.792 14.708,44.125 19.241,70.083c0.792,30.792 1.6,52.25 -10.37,81.792c44.675,3.292 110.041,0.417 156.525,0.25c60.695,-0.25 116.933,3.667 176.829,5c7.029,-12.375 15.283,-25.042 22.883,-37.167c15.821,-17.166 23.158,-26.5 36.746,-45.333c-114.05,-88.417 -193.542,-385.625 -225.383,-523.708c-42.825,0.208 -86.955,-1.125 -129.871,-1.875c-35.013,94.875 -45.063,214.333 -39.992,314.583c3.408,67.333 27.688,65.208 -6.608,136.375Zm-1124.29,-2089.8c10.483,18.596 28.867,67.717 39.35,75.004c9.804,-12.212 10.4,-63.879 11.092,-80.867c235.341,-77.262 235.662,-386.262 177.987,-582.004c-12.925,7.454 -26.275,14.15 -39.979,20.05c-123.979,52.338 -331.283,60.513 -457.554,9.6c-1.983,10.571 -4.075,21.117 -6.271,31.646c-2.6,59.975 -2.287,104.092 0.604,164.533c5.129,9.792 8.159,66.042 12.05,81.359c39.034,153.579 107.5,240.35 262.721,280.679Zm-18.746,-676.717c-42.866,3.159 -207.441,23.079 -231.591,58.267c7.42,36.271 195.133,38.125 228.829,36.362c70.733,-8.491 175.479,-17.845 231.583,-63.704c-58.629,-31.2 -163.787,-38.471 -228.821,-30.925Zm89.113,997.817c-3.175,47.387 -15.946,216.512 -44.688,249.696l-6.825,2.471c-17.308,-10.78 -18.541,-28.675 -20.35,-47.321c-22.154,6.983 -176.404,38.721 -85.112,85.979c41.546,21.508 144.296,16.754 192.279,10.862c68.592,-7.704 132.242,-14.237 181.837,-65.395c-46.829,-28.409 -78.541,-48.75 -133.75,-48.35c1.788,16.929 7.296,45.925 0.105,59.475c-67.575,35.979 -51.017,-227.492 -65.605,-245.755c-5.887,-0.558 -12.016,-1.225 -17.891,-1.662Zm242.683,-641.958c-24.342,164.587 -54.733,278.1 -219.292,360.083c63.555,1.375 112.455,5.2 160.209,55.075c12.712,13.333 23.296,28.542 31.379,45.092c4.954,10.175 19.746,57.033 24.75,57.504c48.829,4.571 85.521,39.05 128.808,54.483c74.259,26.479 199.975,66.938 278.079,69.696l3.684,-1.825c0.154,-11.646 -4.763,-25.367 -14.275,-32.288c-161.196,-117.237 -258.038,-224.462 -311.142,-420.916c-19.837,3.746 -101.642,38.487 -108.667,18.041c-18.541,-53.937 66.575,-62.925 99.467,-68.237c-2.496,-23.921 -0.321,-118.488 -10.367,-131.067c-22.329,-1.116 -40.575,-3.029 -62.633,-5.641Z" style="fill:#323945;fill-rule:nonzero;"/><path d="M1933.77,4436.62c44.675,3.292 110.041,0.417 156.525,0.25c60.696,-0.25 116.933,3.667 176.829,5c-42.004,107.5 -28.379,173.792 81.95,219.25c-38.142,2.708 -84.063,1.958 -122.85,1.458c-245.733,-3.25 -493.388,2.917 -738.525,-13.875c-65.429,-4.5 -150.246,-18.5 -208.358,-50c-12.609,-6.833 -13.555,-14 -16.146,-26.625c2.229,-3.125 4.241,-8.208 5.916,-11.833l1.088,-4.083c19.162,10.5 121.137,57.958 138.912,62.166c73.421,17.417 185.155,16.459 259.325,-4.75c82.042,-23.416 172.313,-61.875 232.267,-124.958c9.683,-10.208 25.525,-38.792 33.067,-52Z" style="fill:#c9cdd4;fill-rule:nonzero;"/><path d="M2797.94,4517.08c31.929,4.334 113.516,14.542 120.321,50.417c-14.134,49.417 -193.867,81.125 -238.838,84.917c2.746,-8.875 41.167,-31.167 53.796,-44.5c29.058,-30.667 44.242,-54.5 64.721,-90.834Z" style="fill:#c9cdd4;fill-rule:nonzero;"/><path d="M1897.68,1028.14c127.567,160.196 541.625,269.784 743.255,261.655c53.883,-2.175 17.566,3.47 47.504,23.325c20.696,3.02 29.462,-11.579 38.787,-27.175c19.371,-34.496 37.863,-68.588 58.888,-102.113c206.791,-329.741 656.75,-362.516 787.658,54.725l-10.296,-0.008c-81.421,-156.438 -241.904,-201.625 -394.708,-116.367c-138.338,77.188 -232.783,222.413 -285.808,368.409c-8.025,22.304 -17.063,62.358 8.425,74.541c9.47,-0.083 9.77,-0.154 18.391,-4.375c15.067,3.534 14.775,0.946 23.542,10.638c2.508,11.329 2.508,20.058 3,31.541c-14.333,8.988 -41.404,28.367 -22.329,46.234c22.916,6.804 75.946,-15.163 101.021,-23.409c-24.867,39.08 -66.271,88.4 -96.121,126.009c11.029,44.85 14.821,80.808 18.062,125.596c33.088,457.491 -339.091,709.32 -760.546,721.266c-19.258,0.546 -61.937,1.409 -70.341,19.971c6.391,24.413 31.046,26.208 51.625,29.421c-55.263,36.337 -121.621,65.333 -182.709,90.446c-42.279,-27.129 -105.208,-85.613 -138.183,-123.371c24.017,7.212 59.979,22.804 80.05,3.254c3.046,-9.5 3.063,-9.796 0.354,-19.15c-18.183,-18.15 -162.675,-60.171 -201.825,-75.6c-37.329,-15 -73.716,-32.233 -108.966,-51.604c-176.813,-97.358 -292.917,-223.438 -349.542,-417.7c27.296,-2.088 96.712,5.179 110.271,-10.171c45.487,-51.504 -100.4,-43.458 -117.788,-41.096c-9.296,-41.575 -8.075,-67.858 -7.741,-110.091c28.47,11.366 126.675,68.758 145.904,42.987c3.971,-44.304 -106.304,-82.771 -141.425,-99.4c4.35,-40.954 8.621,-82.492 18.071,-122.579c73.629,-312.217 310.679,-615.029 633.52,-685.808Z" style="fill:#f2f2f4;fill-rule:nonzero;"/><path d="M1766.92,1892.92c59.421,-0.417 157.542,19.246 173.446,87.371c10.6,45.387 -26.829,83.45 -65.183,99.879c-23.296,9.983 -39.6,13.391 -63.955,18.279c6.792,32.608 14.4,65.037 22.83,97.258c108.133,11.805 284.529,-19.154 344.941,-118.021c25.567,10.542 77.925,53.705 51.734,80.963c-2.846,0.717 -21.021,5.221 -21.696,8.233c-28.446,126.875 -54.496,253.354 -170.784,330.738c-24.954,15.508 -53.258,24.816 -82.545,27.141c-51.592,4.363 -102.771,-12.224 -141.992,-46.016c-72.192,-61.025 -118.671,-167.971 -126.871,-261.142c-27.525,-15.996 -157.633,-102.042 -101.762,-139.021c22.12,2.425 68.045,60.192 98.995,77.388c41.909,23.287 45.796,25.771 92.325,37.608c-5.925,-31.7 -11.525,-60.921 -15.179,-92.937c-131.233,-49.471 -161.758,-194.905 5.696,-207.721Z" style="fill:#323945;fill-rule:nonzero;"/><path d="M1979.35,2314.19c50.217,-5.459 73.534,-0.592 118.488,19.266c-19.992,64.721 -70.463,118.563 -136.234,136.229c-49.746,5.5 -91.204,-3.671 -126.212,-41.375c32.812,-61.237 74.933,-98.95 143.958,-114.12Z" style="fill:#f9c3b7;fill-rule:nonzero;"/><path d="M2146.6,2185.17l3.425,4.862c-6.279,42.838 -11.708,59.825 -28.512,99.505c-126.03,-45.096 -237.975,-19.95 -316.646,92.325c-9.413,-10.646 -15.671,-19.242 -23.996,-30.775c-23.221,-34.634 -32.375,-75.4 -39.367,-115.8l5.013,1.237c128.129,31.217 286.683,17.796 400.083,-51.354Z" style="fill:#915663;fill-rule:nonzero;"/><path d="M1772.7,1939.92c30.154,1.575 87.863,8.046 108.025,32.375c34.492,41.625 -30.846,70.154 -61.521,80.667c-1.692,0.387 -3.387,0.75 -5.087,1.087c-29.513,5.788 -48.884,2.858 -74.492,-14.108c-23.529,-15.588 -51.604,-53.004 -30.058,-80.267c14.275,-18.054 41.895,-18.05 63.133,-19.754Z" style="fill:#f9c3b7;fill-rule:nonzero;"/><path d="M2278.93,1730.14c5.196,-0.454 10.405,-0.766 15.621,-0.941c45.317,-1.442 83.867,11.808 117.092,43.254c36.829,35.4 58.104,83.958 59.162,135.025c1.005,49.408 -42.916,62.8 -59.537,21.121c-16.888,-42.363 -10.517,-73.659 -44.442,-110.759c-60.146,-50.5 -129.162,-22.483 -170.983,35.126c-45.008,61.995 -91.933,10.541 -48.979,-41.18c36.595,-44.066 73.333,-74.345 132.066,-81.646Z" style="fill:#303945;fill-rule:nonzero;"/><path d="M1560.89,1623.76c80.962,-3.637 132.833,48.342 151.52,124.492c5.746,23.421 6.734,57.492 -15.041,73.358c-49.621,7.767 -23.575,-87.304 -96.675,-128.72l-3.434,-1.925c-65.779,-14.425 -95.72,28.666 -123.616,80.579c-23.592,47.412 -70.325,24.25 -55.042,-25.009c20.529,-66.166 73.083,-113.954 142.287,-122.775Z" style="fill:#303945;fill-rule:nonzero;"/><path d="M2486.69,2064.68c21.087,-2.058 43.654,-0.988 64.641,-1.254c50.53,-0.646 271.559,36.658 267.496,102.454c-15.833,18.862 -27.671,12.917 -46.962,4.087c-77.738,-37.5 -151.446,-50.879 -237.192,-55.72c-27.512,-1.555 -92.446,6.6 -104.254,-22.721c8.508,-21.242 36.529,-25.225 56.271,-26.846Z" style="fill:#303945;fill-rule:nonzero;"/><path d="M2424.06,2182.43c79.234,1.375 198.38,71.53 257.442,123.917c23.704,21.029 30.367,44.621 4.471,67.054c-23.667,-6.308 -107.146,-80.875 -143.663,-95.641c-24.995,-10.109 -131.858,-49.796 -134.987,-71.863c4.462,-12.425 7.554,-14.621 16.737,-23.467Z" style="fill:#303945;fill-rule:nonzero;"/><path d="M2343.02,1391.83c73.075,-2.821 141.025,28.904 174.65,98.071c9.1,18.717 16.558,55.85 -8.946,64.425c-10.75,-4.796 -7.196,-2.783 -14.504,-14.213c-23.859,-48.266 -71.938,-95.895 -128.63,-98.708c-29.633,-1.475 -47.945,12.838 -73.97,-5.496c-9.4,-23.441 34.995,-38.458 51.4,-44.079Z" style="fill:#303945;fill-rule:nonzero;"/><path d="M1664.85,1283.53c34.829,-1.933 87.758,9.121 88.842,52.604c-12.25,25.25 -58.604,-4.187 -85.934,-2.737c-31.179,1.658 -41.546,5 -68.65,20.467c-15.971,11.366 -58.583,47 -72.862,21.933c0.179,-11.896 6.85,-24.317 14.787,-32.871c37.338,-40.212 71.488,-54.829 123.817,-59.396Z" style="fill:#303945;fill-rule:nonzero;"/><path d="M3033.58,2416.59c5.421,5.049 17.463,70.199 22.15,84.895c35.596,111.646 100.967,177.675 206.396,225.571c-118.696,86.817 -200.917,129.809 -341.125,179.067c-50.446,17.808 -101.884,32.683 -154.05,44.541c-26.425,5.871 -144.192,17.934 -128.996,56.471c13.696,11.35 34.262,9.467 51.688,9.392c10.395,85.587 29.133,170.258 42.437,255.404c5.6,35.854 12.083,83.008 -12.033,113.971c-53.971,69.267 -297.65,102.308 -379.425,110.058c-246.942,23.25 -512.809,18 -749.18,-63.445c-33.683,-11.605 -79.091,-23.463 -106.5,-46.792c-10.154,-8.642 -14.258,-17.088 -15.916,-30.138c-10.404,-81.9 61.475,-373.07 84.158,-465.641c7.5,-30.613 31.684,-104.554 28.042,-132.617c-0.85,-6.554 -3.363,-13.271 -8.967,-17.158c-5.687,-3.946 -7.346,-3.029 -13.829,-2.1c-36.954,25.312 -42.429,130.646 -68.417,182.516l-1.52,2.984c-98.913,-4.5 -308.659,-42.713 -382.859,-111.192c3.096,-2.854 6.138,-5.767 9.125,-8.737c92.042,-91.48 113.813,-181.101 114.083,-304.9c27.342,12.97 59.896,22.875 88.805,31.379c72.162,21.016 139.425,33.496 213.291,43.921c12.267,26.62 25.771,54.833 52.121,80.795c62.792,61.855 157.763,131.575 246.958,146.784c6.842,1.166 12.121,-5.479 15.8,-9.438c0.767,-5.55 2.713,-13.179 -2.462,-17.162c-91.171,-70.184 -212.671,-110.675 -264.4,-222.659c-3.838,-8.308 -3.696,-11.616 -0.021,-19.425c6.538,-1.875 11.275,-1.733 17.821,0.634c22.433,8.116 44.817,19.625 67.075,28.7c29.396,11.987 80.075,22.091 103.779,41.933c13.538,11.333 35.913,44.913 49.021,60.533c42.587,50.509 94.358,92.488 152.583,123.717c115.259,-17.729 192.075,-92.442 290.988,-142.146c13.958,-7.012 79.4,-11.504 101.891,-15.971c88.409,-16.845 174.555,-43.908 256.709,-80.641c52.492,-23.271 85.462,-54.684 133.125,-83.759c5.112,-3.12 10.079,-3.441 15.879,-3.22c9.767,5.637 9.233,3.179 11.892,11.262c-10.921,18.292 -68.25,41.942 -91.5,57.129c-49.005,32 -91.829,71.084 -140.775,101.421c-115.213,71.558 -244.221,112.542 -372.329,153.992c-13.93,4.508 -44.388,16.254 -36.18,34.229c37.25,27.212 221.755,-45.117 267.113,-60.221c25.671,-8.546 129.392,-65.512 142.975,-64.154c1.687,8.158 1.967,13.446 2.571,21.787l4.3,3.65c20.629,-4.991 50.45,-55.487 67.366,-74.704c67.209,-76.346 163.825,-106.991 253.038,-149.171c53.417,-25.258 105.221,-53.645 157.304,-81.345Z" style="fill:#7a7bbe;fill-rule:nonzero;"/><path d="M2802.95,74.871c2.413,96.858 2.796,231.2 9.296,325.471c1.6,60.983 4.233,125.262 4.258,186.054c3.217,76.162 2.055,155.008 5.859,229.883c-0.084,56.779 3.504,117.05 2.046,172.771l1.762,53.408c-41.037,47.042 -64.417,82.109 -101.204,130.23l-36.746,59.025c-120.696,14.52 -319.958,-23.646 -429.021,-72.571c-56.737,-6.525 -210.225,-76.425 -258.854,-113.521c-24.817,-18.934 -41.9,-37 -62.062,-60.346c28.591,-30.95 57.741,-61.375 87.429,-91.271c37.137,-40.058 74.483,-79.921 112.041,-119.587c46.825,-46.692 94.325,-98.684 140.821,-146.663c37.842,-36.996 83.767,-89.842 121.113,-129.846c41.883,-45.504 84.387,-90.437 127.496,-134.783l123.337,-129.179c47.596,-53 102.454,-107.684 152.429,-159.075Z" style="fill:#1db9bd;fill-rule:nonzero;"/><path d="M2802.95,74.871c2.413,96.858 2.796,231.2 9.296,325.471c1.6,60.983 4.233,125.262 4.258,186.054c3.217,76.162 2.055,155.008 5.859,229.883c-1.184,-4.491 -2.754,-9.108 -4.163,-13.558c-153.675,-21.146 -353.004,-162.613 -418.512,-304.813c41.883,-45.504 84.387,-90.437 127.496,-134.783l123.337,-129.179c47.596,-53 102.454,-107.683 152.429,-159.075Z" style="fill:#1db9bd;fill-rule:nonzero;"/><path d="M2802.95,74.871c2.413,96.858 2.796,231.2 9.296,325.471c1.6,60.983 4.233,125.262 4.258,186.054c-131.87,-52.317 -209.47,-108.629 -289.32,-223.271l123.337,-129.179c47.596,-53 102.454,-107.683 152.429,-159.075Z" style="fill:#fbca6a;fill-rule:nonzero;"/><path d="M2802.95,74.871c2.413,96.858 2.796,231.2 9.296,325.471c-60.992,-22.484 -133.587,-106.738 -161.725,-166.396c47.596,-53 102.454,-107.683 152.429,-159.075Z" style="fill:#1db9bd;fill-rule:nonzero;"/><path d="M2137.76,774.417c106.209,195.787 281.913,304.291 488.984,375.762c30.662,10.584 67.925,12.375 98.229,22.508l-36.746,59.025c-120.696,14.521 -319.958,-23.645 -429.021,-72.57c-56.737,-6.525 -210.225,-76.425 -258.854,-113.521c-24.817,-18.934 -41.9,-37 -62.062,-60.346c28.591,-30.95 57.741,-61.375 87.429,-91.271c37.137,-40.058 74.483,-79.921 112.041,-119.587Z" style="fill:#fbca6a;fill-rule:nonzero;"/><path d="M2025.72,894.004c55.041,91.325 91.346,146.292 174.212,218.804c19.496,17.059 41.904,31.434 59.275,46.334c-56.737,-6.525 -210.225,-76.425 -258.854,-113.521c-24.817,-18.934 -41.9,-37 -62.063,-60.346c28.592,-30.95 57.742,-61.375 87.43,-91.271Z" style="fill:#1db9bd;fill-rule:nonzero;"/><path d="M2399.69,497.908c65.508,142.2 264.837,283.667 418.512,304.813c1.409,4.45 2.979,9.067 4.163,13.558c-0.084,56.779 3.504,117.05 2.046,172.771c-18.938,-3.142 -37.792,-6.75 -56.55,-10.817c-154.25,-34.57 -329.53,-129.112 -429.68,-253.9c-22.271,-27.75 -39.745,-65.408 -59.604,-96.579c37.842,-36.996 83.767,-89.841 121.113,-129.846Z" style="fill:#fbca6a;fill-rule:nonzero;"/><path d="M1511.71,3578.04c41.412,14.458 91.704,34.625 133.462,45.833c267.483,72 553.929,87 825.917,31.917c55.725,-11.292 113.345,-34.209 167.221,-51.834c14.179,16.625 -2.855,91.959 -7.213,114.084c-28.542,144.833 -1.275,229.25 52.575,360.041c-52.254,125.834 -259.329,183.084 -380.829,142.167c-12.575,-13.875 -18.196,-23.542 -28.171,-39.542c-39.654,-75.583 -70.371,-175.625 -92.392,-258c-12.679,-47.458 -22.454,-97.583 -38.35,-143.916c-58.67,1.541 -116.841,2.625 -175.245,-4.5c-29.921,-3.625 -98.9,-33.542 -123.638,-17.834c-5.679,10.792 -5.138,6.167 -2.567,17.375c15.825,17.667 47.359,23.917 70.709,30.959c-39.409,127.583 -38.53,235.416 -37.6,366.541c-105.78,53.459 -297.155,46.709 -395.95,-20.416c-26.121,-175.5 -23,-402.167 32.07,-572.875Z" style="fill:#4b7493;fill-rule:nonzero;"/><path d="M2909.78,1560.75c23.209,-45.783 43.6,-98.116 68.417,-142.212c60.417,-107.342 149.696,-229.917 271.737,-269.975c144.271,-47.359 256.267,50.125 297.105,184.225c33.245,111.187 20.675,231.046 -34.913,332.92c-54.688,103.68 -148.833,180.967 -261.192,214.43c-93.254,27.5 -161.421,22.508 -255.333,6.683c-2.05,-45.754 -6.692,-88.279 -17.817,-132.896c34.584,-34.458 121.217,-120.996 83.234,-173.875c-16.138,-22.471 -104.796,12.392 -124.696,22.879c-0.492,-11.483 -0.492,-20.212 -3,-31.541c-8.767,-9.692 -8.475,-7.105 -23.542,-10.638Z" style="fill:#f9c3b7;fill-rule:nonzero;"/><path d="M1314.37,711.329c152.437,-12.7 225.6,157.854 238.346,284.242c4.633,45.937 4.612,83.692 2.383,129.804c-21.521,24.163 -60.342,55.371 -86.284,83.325c-73.233,78.912 -117.799,148.825 -169.52,240.929l-13.7,23.958c-282.029,-109.562 -275.725,-721.55 28.775,-762.258Z" style="fill:#f9c3b7;fill-rule:nonzero;"/><path d="M665.779,1781.97c102.717,-29.713 249.492,-29.467 350.492,10.025c9.446,3.691 21.404,16.762 22.537,27.158c14.417,132.242 -50.05,309.088 -191.258,340.954c-51.487,11.363 -105.375,1.875 -149.883,-26.387c-73.259,-47.45 -171.8,-217.388 -133.267,-320.208c1.45,-3.88 5.363,-4.484 9.233,-5.9c18.58,11.745 18.309,55.504 22.721,77.725c11.663,55.841 34.65,108.695 67.542,155.308c2.879,-3.104 11.129,-12.046 10.954,-16.054c-1.529,-34.404 -12.025,-58.946 -7.079,-94.396c1.321,-11.838 0.604,-30.079 0.471,-42.479l0.025,-65.638c-0.475,-13.441 -0.588,-26.808 -2.488,-40.108Z" style="fill:#323945;fill-rule:nonzero;"/><path d="M667.771,1930.2c106.942,7.417 225.162,-0.604 327.992,-31.342c-13.259,74.738 -37.83,152.754 -103.863,198.638c-33.662,23.762 -75.533,32.829 -116.012,25.116c-52.042,-10.341 -81.596,-41.741 -111.992,-81.962c2.879,-3.104 11.129,-12.046 10.954,-16.054c-1.529,-34.405 -12.025,-58.946 -7.079,-94.396Z" style="fill:#fbca6a;fill-rule:nonzero;"/><path d="M876.063,1984.08c12.079,3.784 15.041,4.484 25.845,11.705c11.888,21.258 -3.537,31.641 -19.233,45.579c-13.513,3.158 -21.188,3.466 -30.796,-7.275c-9.275,-23.384 7.854,-37.692 24.183,-50.009Z" style="fill:#fdefd3;fill-rule:nonzero;"/><path d="M749.35,1969.39c13.096,1.754 27.013,0.45 28.246,15.65c-8.771,14.295 -13.113,12.1 -26.458,21.808c-8.805,3.912 -4.492,3.712 -13.338,1.187c-11.8,-18.799 -3.813,-26.47 11.55,-38.645Z" style="fill:#fdefd3;fill-rule:nonzero;"/><path d="M668.267,1822.08c91.895,-14.804 183.6,-23.071 275.808,-5.479c20.654,3.942 50.646,6.746 55.567,30.054c-19.013,45.471 -280.246,47.383 -331.4,41.063l0.025,-65.638Z" style="fill:#fbca6a;fill-rule:nonzero;"/><path d="M3425.12,2967.62c126.941,-13.083 224.421,57.008 264.487,177.587c15.338,46.159 12.909,89.509 6.146,136.746c-24.992,-102.212 -69.229,-213.258 -188.55,-232.05c-46.954,-7.392 -92.537,3.754 -129.825,33.688c-142.879,114.691 -44.692,311.112 -16.467,452.325c11.617,55.833 13.892,113.208 6.734,169.791c-26.013,196.167 -184.505,305.459 -378.3,279.042c-128.909,-24.792 -235.954,-107.583 -311.063,-212.958c5.834,-41.709 11.034,-83.542 15.604,-125.417c51.746,21.625 132.134,131.042 189.163,169.25c109.496,73.333 255.729,86 336.7,-33.708c81.329,-120.209 25.108,-281.709 1.6,-410.175c-32.208,-164.004 12.004,-371.654 203.771,-404.121Z" style="fill:#f9c3b7;fill-rule:nonzero;"/><path d="M3523.72,1991.68c92.483,24.3 -32.033,151.496 -36.692,194.288c6.996,27.72 65.088,65.475 84.4,95.987c12.359,19.529 21.017,45.729 37.638,56.7c11.012,1.275 6.15,2.592 15.029,-4.212c10.017,-19.096 5.246,-32.188 1.412,-53.384c33.496,-17.875 125.467,-97.87 150.863,-44.216c9.217,50.679 -96.388,130.541 -123.65,163.054c-77.146,92 -152.429,195.217 -285.971,136.996c-136.083,-72.55 -123.887,-196.354 -123.137,-328.571c0.183,-31.488 -7.084,-92.329 14.104,-116.217c10.1,-4.679 23.775,-7.033 33.654,-2.292c50.125,24.063 50.783,87.613 68.925,129.634c11.096,25.696 39.121,54.016 45.754,84.471c4.196,19.266 -6.921,41.437 0.688,58.054c9.783,8.775 5.05,6.579 17.787,8.529c76.025,-21.388 -19.004,-175.608 -33.654,-220.771c27.787,-57.579 72.558,-132.358 132.85,-158.05Z" style="fill:#f2f2f4;fill-rule:nonzero;"/><path d="M1488.45,577.354c9.042,-0.8 18.125,-1.008 27.192,-0.625c213.9,8.329 338.104,203.196 331.037,401.038c-98.912,30.55 -136.879,52.879 -223.1,105.971l-4.5,1.587c-4.575,-6.737 -2.704,-62.933 -4.679,-78.004c-25.958,-198.188 -112.85,-386.275 -346.137,-342.583c65.1,-49.484 138.295,-81.392 220.187,-87.384Z" style="fill:#f2f2f4;fill-rule:nonzero;"/><path d="M2745.05,4225.79c26.929,37.458 33.941,85.25 32.362,130.375c-2.812,80.416 -32.921,161.833 -93.412,216.916c-22.254,20.25 -58.679,43.292 -90.192,40.792c-7.687,-0.583 -14.633,-3.458 -19.2,-9.875c-19.604,-27.5 6.779,-81.083 12.092,-109.917c1.487,-8.083 1.391,-11.833 -3.409,-18.375c-2.545,-0.208 -4.591,-0.375 -7.066,0.459c-15.346,5.125 -28.509,20.208 -36.109,33.958c-20.937,37.875 -22.662,77.042 -11.275,117.958c-42.333,6.25 -77.75,5.792 -116.004,-14.875c-8.25,-19.208 -15.462,-37.708 -14.816,-58.916c9.479,-27.167 28.22,-49.5 35.666,-72.042c2.834,-8.542 2.571,-11.417 -1.112,-19.375l-7.579,-1.958c-18.671,4.333 -32.196,17.25 -42.955,32.541c-24.858,35.459 -29.295,70.667 -22.404,112.334c-28.6,-10.667 -42.504,-20.292 -58.604,-46.667c-0.954,-14.708 -1.712,-29.542 0.117,-44.25c7.621,-61.208 51.625,-103.708 97.958,-139.5c45.063,6.542 90.95,4.5 135.263,-6c84.12,-19.542 164.716,-69.375 210.679,-143.583Z" style="fill:#f2f2f4;fill-rule:nonzero;"/><path d="M1464.84,4327.21c47.562,-7.458 93.07,10.834 138.783,21.042c95.637,21.375 184.242,3.417 275.75,-25.583c2.683,10.833 5.7,21.791 6.725,32.958c2.967,32.25 -5.517,61.708 -26.4,86.583c-58.042,69.042 -195.654,123.625 -284.954,130.167c-17.425,1.292 -41.104,0.292 -54.446,-12.458c-5.2,-4.959 -8.063,-11.292 -8.192,-18.5c-0.437,-24.25 24.517,-53.542 39.809,-70.709c8.516,-7.666 16.829,-13.916 20.425,-25.208c-1.567,-7.792 -1.392,-7.417 -7.896,-12c-9.53,-1 -17.384,0.208 -26.221,3.875c-26.054,10.75 -47.804,37.958 -58.333,63.458c-11.434,27.709 -9.167,50.667 2.05,77.834c-28.588,-4.959 -66.505,-8.209 -89.08,-28.292c-51.133,-45.458 39.484,-110 37.413,-140.917c-7.379,-4.541 -11.204,-5.166 -19.996,-4c-59.35,7.667 -59.15,82.584 -84.671,109.667c-3.716,3.917 -4.275,2.917 -9.325,3.208c-11.458,-9.458 -17.421,-27.625 -19.412,-42.041c-3.746,-27.209 7.983,-52.959 24.45,-73.875c36.229,-46.125 86.325,-68.792 143.521,-75.209Z" style="fill:#f2f2f4;fill-rule:nonzero;"/><path d="M1478.15,3439.29c45.45,20.416 101.175,44.958 149.029,57.958c274.03,74.375 618.442,85.292 894.975,24.583c43.138,-9.291 85.459,-22 126.55,-38.041c18.425,-7.084 52.93,-27.459 70.53,-22.917l3.512,6.708c-1.117,16.292 -9.408,27.542 -20.779,38.334c-5.938,5.125 -12.104,9.958 -18.484,14.5c-185.92,130.541 -652.516,131.916 -875.725,87.666c-73.37,-14.541 -278.145,-55.041 -324.912,-119.958c-11.583,-16.083 -8.208,-31.083 -4.696,-48.833Z" style="fill:#7a7bbe;fill-rule:nonzero;"/><path d="M920.533,2292.15c208.53,-7.6 154.613,377.537 39.263,358.096c-14.85,-12.721 -14.438,-57.309 -16.313,-79.413c11.98,-3.558 16.259,-5.479 27.25,-10.725c2.971,-13.054 4.196,-12.741 -0.321,-23.025c-33.566,-12.737 -30.32,-19.195 -32.662,-52.87c22.279,-26.371 38.704,-44.317 31.179,-82.213c-1.625,-8.188 -2.191,-7.463 -8.787,-11.771c-18.079,2.338 -34.563,23.029 -46.309,36.138c-80.354,89.683 -127.725,-21 -63.9,-85.417c28.675,-28.937 28.83,-34.371 70.6,-48.8Z" style="fill:#f2f2f4;fill-rule:nonzero;"/><path d="M3184.39,2325.7c4.729,6.292 12.208,74.679 16.399,91.063c8.038,32.266 22.376,62.629 42.192,89.337c30.671,41.629 62.009,66.721 110.054,83.904c11.763,4.209 42.909,12.963 49.738,20.979c2.412,23.301 -62.55,75.026 -83.675,80.113c-137.013,-35.175 -241.5,-179.775 -225.246,-320.204c1.379,-11.883 75.45,-38.05 90.538,-45.192Z" style="fill:#7a7bbe;fill-rule:nonzero;"/><path d="M2702.6,4125.25c1.121,2.5 1.563,3.208 2.271,5.708c6.987,24.334 -2.029,56.542 -14.046,78c-30.75,54.875 -96.542,87.167 -154.971,103.25c-61.537,16.959 -140.221,25.417 -197.308,-7.208c-6.913,-5.917 -14.809,-14.583 -18.679,-22.917c-2.988,-6.458 -3.35,-7.708 -1.146,-14.291c53.941,3.375 104.279,6.083 157.671,-4.375c89.471,-17.459 174.379,-61.25 226.208,-138.167Z" style="fill:#4b7493;fill-rule:nonzero;"/><path d="M1490.86,4209.83c27.809,-2.25 64.871,15.792 92.292,23.167c67.438,18.125 134.2,15.792 202.596,3.833c16.833,-2.916 90.567,-24.416 99.929,-19.25c4.304,15.209 -0.662,28.834 -6.621,42.792c-36.7,26.583 -90.879,32.917 -135.258,37.042c-65.096,6 -176.054,3.75 -227.667,-40.334c-14.458,-12.333 -23.921,-28.083 -25.271,-47.25Z" style="fill:#4b7493;fill-rule:nonzero;"/><path d="M1114.85,2455.46c13.688,5.1 50.917,17.588 56.629,28.767c21.625,42.308 3.542,112.246 -11.716,154.262c-6.367,17.525 -27.63,66.08 -40.296,74.517c-20.929,-11.779 -51.938,-33.508 -72.446,-47.083c53.558,-59.642 67.633,-133.167 67.829,-210.463Z" style="fill:#7a7bbe;fill-rule:nonzero;"/><path d="M3677.81,2070.24c114.138,-1.766 -50.137,167.576 -81.333,173.005l-4.321,-5.492c-14.766,-21.521 -35.1,-38.858 -54.633,-55.875c45.379,-44.233 77.408,-94.371 140.287,-111.638Z" style="fill:#f2f2f4;fill-rule:nonzero;"/><path d="M679.571,2453.58c45.466,3.508 113.621,15.409 144.221,51.208c16.175,18.925 -6.35,38.809 -21.9,47.513c-7.271,1.654 -14.6,3.033 -21.975,4.142c-59.554,8.475 -159.625,-26.525 -100.346,-102.863Z" style="fill:#f2f2f4;fill-rule:nonzero;"/><path d="M738.933,2295.92c20.225,-0.279 35.955,-3.7 49.809,9.054c3.208,19.371 -19.017,48.079 -23.346,68.358c-2.863,13.413 -2.842,29.434 -3.05,43.171c-12.854,0.259 -25.729,-0.912 -38.575,-1.783c-89.75,-30.917 -66.929,-103.613 15.162,-118.8Z" style="fill:#f2f2f4;fill-rule:nonzero;"/><path d="M707.304,2604.59c28.821,-0.838 92.429,-11.063 106.417,16.537c-0.038,18.659 -10.288,29.55 -21.55,43.517c-44.767,22.937 -119.575,-13.342 -84.867,-60.054Z" style="fill:#f2f2f4;fill-rule:nonzero;"/><path d="M1176.29,1879.73l7.833,0.579c6.192,14.53 7.116,113.78 2.533,130.488c-2.496,-23.921 -0.321,-118.488 -10.366,-131.067Z" style="fill:#123141;fill-rule:nonzero;"/><path d="M3563.48,1238.55l10.296,0.008c3.463,11.121 5.167,15.396 5.621,27.379c-7.204,-4.887 -11.504,-18.137 -15.917,-27.387Z" style="fill:#e4d0be;fill-rule:nonzero;"/><path d="M501.683,2997.65c87.671,29.133 -70.679,118.354 -39.304,185.204c27.4,30.717 105.65,-23.779 157.013,-0.929c84.841,37.746 66.979,116.562 3.362,165.333c-14.683,10.067 -67.366,60.946 -46.033,81.317c22.887,21.842 94.933,-10.104 134.246,-2.058c114.041,23.358 122.691,201.816 35.946,257.025c-17.55,-1.792 -24.559,-2 -34.421,-18.292c-7.571,-35.5 52.625,-96.542 27.771,-146.375c-38.225,-76.625 -121.417,3.167 -184.375,-27.958c-16.696,-8.25 -26.063,-14.709 -33.78,-32.625c-38.341,-93.775 56.588,-132.209 92.45,-197.396c3.509,-6.379 1.284,-13.679 -1.633,-20.242c-34.308,-28.604 -111.125,30.896 -161.333,8.692c-99.977,-44.209 -17.55,-219.304 50.091,-251.696Z" style="fill:#323945;fill-rule:nonzero;"/><path d="M1070.4,3037.91c2.471,0.088 13.358,0.667 14.813,1.859c33.233,27.216 57.058,76.012 88.629,107.1c16.92,17.283 56.387,41.587 67.537,61.621c22.792,40.958 -90.7,113.77 -116.808,123.758c-61.642,-5.2 -176.154,-138.425 -172.075,-200.25c1.229,-18.675 99.162,-82.733 117.904,-94.088Z" style="fill:#323945;fill-rule:nonzero;"/><path d="M1067,3097.35c10.029,3.517 25.796,25.771 33.842,35.804c29.791,37.138 54.471,62.496 90.958,92.659c-22.087,20.795 -43.65,36.72 -68.354,54.079l-8.792,0.408c-45.85,-25.225 -89.666,-89.1 -111.712,-136.233c21.454,-15.434 42.808,-31.004 64.058,-46.717Z" style="fill:#ed7d7a;fill-rule:nonzero;"/><path d="M1215.03,145.275c16.455,-1.013 31.996,-0.917 46.388,8.521c18.354,12.029 30.546,39.104 34.987,59.908c32.238,150.975 -151.746,145.688 -178.812,189.409c-11.563,18.675 40.825,82.512 46.1,108.862c4.575,22.842 1.025,47.554 -12.171,67.008c-22.546,33.229 -68.854,50.929 -106.55,58.421c-35.712,6.775 -56.071,-13.833 -43.829,-50.412c9.604,-28.705 85.275,-9.713 93.112,-46.605c5.475,-25.758 -14.508,-46.833 -27.025,-67.254c-28.083,-45.558 -32.554,-77.45 2.705,-121.175c38.97,-48.321 145.329,-41.683 162.62,-105.445c9.513,-35.084 -79.412,-58.209 -17.525,-101.238Z" style="fill:#323945;fill-rule:nonzero;"/><path d="M3410.31,263.742c55.562,-5.5 110.562,51.016 128.512,99.35c8.142,21.554 9.917,44.987 5.112,67.521c-15.745,75.837 -64.3,65.791 -91.437,117.274c-16.129,60.163 76.658,73.167 93.096,131.092c15.733,55.446 -1.85,127.009 -56.95,147.546c-24.913,-1.45 -31.192,-10.921 -44.429,-29.7c12.937,-20.958 49.275,-69.067 42.416,-90.596c-24.441,-60.1 -90.029,-50.583 -105.771,-126.096c-18.85,-90.425 104.209,-119.325 102.23,-186.133c-1.609,-54.367 -137.4,-56.329 -72.78,-130.258Z" style="fill:#323945;fill-rule:nonzero;"/><path d="M467.196,772.321c25.075,1.912 61.621,39.567 84.312,55.016c31.025,21.121 71.179,38.896 96.709,65.509c12.108,31.271 -51.03,117.917 -76.721,135.583c-59.35,-3.041 -109.392,-45.971 -151.321,-83.95c-62.806,-56.896 -15.355,-137.262 47.021,-172.158Z" style="fill:#323945;fill-rule:nonzero;"/><path d="M475.304,833.792c-0.041,-0.009 112.038,73.996 125.004,81.545c-13.075,24.705 -22.279,41.567 -37.791,64.751c-37.554,2.229 -106.509,-63.405 -126.3,-93.746c12.621,-24.267 19.654,-33.384 39.087,-52.55Z" style="fill:#9bc690;fill-rule:nonzero;"/><path d="M3880.02,1566.6c22.829,4.092 115.242,41.1 118.658,67.092c8.009,60.908 -80.491,184.458 -137.429,197.133c-44.887,-4.35 -174.554,-79.829 -96.467,-118.621c53.517,-26.587 93.246,-134.646 115.238,-145.604Z" style="fill:#323945;fill-rule:nonzero;"/><path d="M3895.81,1622.27c16.2,8.745 41.133,18.879 58.516,26.554c-25.604,61.033 -47.821,94.737 -96.462,139.871c-22.542,-11.938 -40.288,-23.925 -61.454,-37.963c44.245,-41.079 73.358,-72.921 99.4,-128.462Z" style="fill:#fbca6a;fill-rule:nonzero;"/><path d="M3928.03,2390.55c2.813,0.154 5.625,0.358 8.433,0.617c47.867,4.495 50.421,87.862 46.546,120.729c-14.416,122.237 -101.554,63.954 -170.521,90.387c-45.262,17.35 71.98,111.975 49.134,148.725c-16.221,72.067 -76.229,69.534 -128.784,113.229c-19.25,5.171 -35.208,-7.004 -33.812,-27.104c3.962,-65.896 158.158,-52.912 84.512,-134.925c-43.529,-49.062 -53.075,-96.145 -5.304,-145.225c46.542,-51.808 152.246,28.067 150.367,-66.646c-0.754,-38.179 -30.504,-70.666 -0.571,-99.787Z" style="fill:#323945;fill-rule:nonzero;"/><path d="M2268.23,107.117c33.338,-0.342 92.713,39.279 117.008,61.804c45.171,41.887 -53.112,176.104 -82.229,204.937c-2.721,1.705 -8.975,5.396 -12.262,4.759c-27.321,-5.321 -108.438,-54.188 -109.646,-82.092c12.179,-34.762 32.213,-62.417 47.817,-95.421c15.662,-33.112 10.85,-68.479 39.312,-93.987Z" style="fill:#323945;fill-rule:nonzero;"/><path d="M2293.21,166.125c19.149,12.558 36.8,24.158 55.262,37.813c-10.654,42.925 -38.071,85.345 -62.817,121.854c-8.716,-4.371 -41.104,-26.113 -51.804,-32.779c31.058,-41.992 50.617,-74.855 59.358,-126.888Z" style="fill:#fbca6a;fill-rule:nonzero;"/><path d="M3838.92,713.113c42.683,13.262 107.85,64.274 81.671,115.183c-26.471,51.475 -93.046,116.908 -146.325,138.437c-36.338,-0.116 -93.05,-82.229 -84.313,-112.283c17.713,-22.95 50.004,-47.029 71.638,-68.279c19.891,-19.546 53.379,-62.825 77.329,-73.058Z" style="fill:#323945;fill-rule:nonzero;"/><path d="M3844.36,765.404c12.796,7.538 30.367,26.313 41.363,37.4c-31.5,49.063 -65.146,79.184 -110.792,113.854c-9.483,-1.941 -32.021,-36.866 -38.912,-46.458c40.591,-29.987 77.025,-65.225 108.341,-104.796Z" style="fill:#ed7d7a;fill-rule:nonzero;"/><path d="M3636.46,3535.21c24.912,1.875 80.774,17.334 100.141,30.834c73.075,50.833 -36.796,178.125 -76.937,218c-27.825,7.625 -61.688,-19.334 -84.234,-33.292c-50.8,-31.375 -45.946,-59.625 -4.083,-96.667c34.887,-30.833 46.321,-77.75 65.112,-118.875Z" style="fill:#323945;fill-rule:nonzero;"/><path d="M3663.01,3586.04c22.867,6.916 34.688,10.875 56.871,20.708c-12.479,46 -43.05,102.792 -79.312,133.625c-17.888,-12.667 -36.85,-24.792 -55.213,-36.833c42.092,-36.834 61.063,-64.625 77.654,-117.5Z" style="fill:#9bc690;fill-rule:nonzero;"/><path d="M293.907,2079.52c23.532,-1.896 98.306,5.883 114.836,27.225c8.436,10.891 -2.344,40.404 -5.385,54.371c-8.428,35.575 -7.655,70.187 -1.873,105.937c4.983,30.817 9.291,46.25 -22.567,60.354c-36.767,7.384 -79.833,10.584 -107.788,-19.254c-43.122,-46.021 -18.915,-192.379 22.777,-228.633Z" style="fill:#323945;fill-rule:nonzero;"/><path d="M306.677,2126.72l56.253,13.283c-8.313,38.184 -11.29,62.717 -9.441,102.338c0.671,14.358 3.748,30.587 2.313,44.054c-72.904,-1.459 -63.902,-19.508 -62.841,-88.513c0.368,-23.916 7.069,-48.287 13.716,-71.162Z" style="fill:#ed7d7a;fill-rule:nonzero;"/><path d="M544.092,1293.49c62.225,5.646 43.645,160.758 -28.929,173.771c-69.188,12.399 -87.98,-57.359 -125.676,-56.63c-44.552,25.85 48.155,169.792 -74.931,215.642c-11.527,0.358 -29.577,-2.408 -33.339,-13.862c-9.084,-27.659 36.413,-34.888 45.966,-71.471c16.323,-37.771 -14.338,-94.021 0.188,-129.763c50.059,-123.154 142.646,-5.437 172.079,3.117c53.521,-11.279 3.592,-83.188 44.642,-120.804Z" style="fill:#323945;fill-rule:nonzero;"/><path d="M3851.93,2956.44c35.475,1.325 150.383,83.408 143.659,126.008c-4.038,25.596 -50.13,67.817 -72.705,83.896c-5.995,1.746 -12.887,4.246 -19.22,3.646c-17.73,-1.692 -102.255,-88.296 -115.938,-106.667c-5.108,-6.858 -9.679,-12.221 -8.013,-21.071c5.276,-28.046 49.671,-69.442 72.217,-85.812Z" style="fill:#323945;fill-rule:nonzero;"/><path d="M3869.52,3003.19c30.337,17.816 55.946,45.27 80.187,70.42c-11.925,18.509 -20.945,29.179 -36.97,43.959c-11.45,-2.05 -69.538,-60.109 -83.242,-72.692c10.242,-12.658 28.137,-29.688 40.025,-41.688Z" style="fill:#fbca6a;fill-rule:nonzero;"/><path d="M679.229,388.179c2.196,-0.104 15.121,-0.133 17.509,1.679c39.287,30.975 73.462,83.171 102.237,124.1c20.483,29.142 -54.621,80.484 -76.008,89.534c-39.709,-14.329 -80.234,-64.159 -104.842,-98.434c-49.996,-69.629 9.521,-84.737 61.104,-116.879Z" style="fill:#323945;fill-rule:nonzero;"/><path d="M683.871,437.75c8.287,2.767 59.546,72.396 70.925,86.042l-36.033,31.425c-27.855,-25.83 -53,-59 -73.638,-90.78c10.567,-8.304 27.208,-18.879 38.746,-26.687Z" style="fill:#ed7d7a;fill-rule:nonzero;"/><path d="M651.492,3794.33l14.087,1.75c19.075,11 69.892,90.334 54.234,111.5c-22.417,30.292 -98.721,75.209 -134.28,84.167c-36.729,-0.167 -38.4,-24.25 -56.145,-51c-10.763,-16.25 -17.705,-33.667 -15.33,-53.333c10.155,-19.209 113.696,-79.875 137.434,-93.084Z" style="fill:#323945;fill-rule:nonzero;"/><path d="M655.383,3840.83c12.763,13.25 21.242,31.959 30.242,47.917c-37.433,25.958 -61.421,43.333 -102.508,62.292c-13.071,-13.709 -20.784,-32.334 -28.992,-49.5c37.413,-19.542 67.292,-35.75 101.258,-60.709Z" style="fill:#578aa2;fill-rule:nonzero;"/><path d="M3831.56,1175.47c28.108,3.171 95.312,94.945 112.229,120.271c25.858,38.708 -55.009,77.308 -80.759,90.1c-39.962,6.487 -105.625,-105.705 -116.933,-137.455c18.217,-40.608 46.054,-52.625 85.463,-72.916Z" style="fill:#323945;fill-rule:nonzero;"/><path d="M3828.18,1228.31c11.667,0.905 63.088,68.775 72.688,81.046l-35.146,29.954c-22.025,-4.229 -60.421,-61.154 -74.704,-81.087l37.162,-29.913Z" style="fill:#9bc690;fill-rule:nonzero;"/><path d="M3548.05,3974.58c22.683,0.709 38.987,12.25 56.562,25.75c27.85,21.459 43.729,42.959 48.613,77.709c-22.738,37.458 -53.975,84.333 -91.204,108.125c-16.746,-0.417 -33.621,-11.084 -46.063,-21.625c-19.466,-16.459 -51.154,-49.959 -52.208,-77.25c-1.133,-29.5 64.75,-90.25 84.3,-112.709Z" style="fill:#323945;fill-rule:nonzero;"/><path d="M3562.59,4018.75c13.921,10.75 40.529,26.458 41.916,45.25c1.409,19.042 -38.396,55.75 -51.196,70.625c-10.033,-0.792 -39.024,-37.417 -47.266,-46.208c18.921,-23.667 39.779,-44.167 56.546,-69.667Z" style="fill:#ed7d7a;fill-rule:nonzero;"/><path d="M409.308,2572.36c18.021,0.7 35.692,27.913 44.342,42.8c28.813,49.571 50.917,68.442 -7.083,106.317c-32.228,21.05 -48.848,32.475 -87.245,44.837c-4.911,0.238 -10.281,-0.458 -15.252,-0.874c-24.73,-14.626 -58.162,-82.563 -55.428,-111.988c7.953,-18.808 98.812,-70.263 120.666,-81.092Z" style="fill:#323945;fill-rule:nonzero;"/><path d="M408.587,2622.29c11.842,11.175 22.217,38.529 28.917,54.204c-21.849,18.595 -51.751,36.766 -76.298,52.591c-9.066,-9.608 -22.818,-44.029 -28.602,-57.575c25.195,-12.891 52.334,-32.812 75.983,-49.22Z" style="fill:#9bc690;fill-rule:nonzero;"/><path d="M1816.01,291.758c6.204,-0.037 9.554,1.43 15.395,3.254c21.763,18.28 40.679,76.038 52.525,103.392c30.988,71.567 -40.575,79.121 -92.212,93.092l-11.529,-0.271c-24.946,-12.417 -69.205,-127.208 -61.88,-155.412c13.517,-17.2 74.63,-36.425 97.701,-44.055Z" style="fill:#323945;fill-rule:nonzero;"/><path d="M1805.4,338.446c14.496,7.187 35.5,72.717 41.642,89.792l-45.863,14.783l-3.975,0.958c-12.483,-9.521 -31.287,-69.046 -37.454,-86.329c14.804,-5.087 31.142,-12.788 45.65,-19.204Z" style="fill:#ed7d7a;fill-rule:nonzero;"/><path d="M999.029,3625.71c6.059,0.417 12.096,1.125 18.092,2.042c21.358,3.542 95.387,25.458 107.846,46.167c12.412,20.666 -10.346,66.291 -17,87.958c-5.63,18.333 -13.529,33.042 -31.729,43.375c-30.142,-3.458 -111.601,-29.625 -129.73,-54.25c-4.987,-16.708 9.05,-44.625 16.121,-60.583c11.25,-25.417 12.225,-49.084 36.4,-64.709Z" style="fill:#323945;fill-rule:nonzero;"/><path d="M1018.86,3668.33c23.738,6.417 42.5,12.167 65.742,20.125c-6.987,21.5 -19.996,50.125 -30.617,69.875l-63.562,-24.166c9.4,-24.792 15.812,-42.459 28.437,-65.834Z" style="fill:#fbca6a;fill-rule:nonzero;"/><path d="M3134.68,554.096c25.229,-0.621 94.217,21.446 110.296,37.987c18.429,18.963 -26.167,129.059 -45.383,144.067l-1.617,-0.117c-40.8,-2.554 -85.242,-24.279 -115.821,-51.225c3.95,-27.454 28.804,-115.429 52.525,-130.712Z" style="fill:#323945;fill-rule:nonzero;"/><path d="M3156.38,596.937l48.563,17.509c-7.888,25.696 -17.559,54.167 -29.008,78.358c-17.055,-6.05 -34.046,-13.946 -50.642,-21.283c11.846,-25.963 20.933,-47.917 31.087,-74.584Z" style="fill:#9bc690;fill-rule:nonzero;"/><path d="M824.017,1019.11c2.083,0.45 8.041,1.775 9.541,2.688c41.159,25.071 112.755,40.183 77.692,103.592c-16.388,29.633 -39.821,71.97 -72.788,83.933c-22.904,-7.2 -65.337,-27.504 -84.15,-41.875c-39.525,-30.196 15.8,-74.492 34.167,-98.788c12.071,-15.971 21.354,-34.145 35.538,-49.55Z" style="fill:#323945;fill-rule:nonzero;"/><path d="M844.417,1074.95c7.421,1.85 28.225,12.587 36.091,16.429c-15.958,28.554 -29.541,49.142 -51.65,73.325c-5.671,-2.271 -28.662,-17.825 -35.175,-22.079c16.942,-20.738 34.659,-45.842 50.734,-67.675Z" style="fill:#fbca6a;fill-rule:nonzero;"/><path d="M2947.75,3087.76c14.225,0.388 21.15,4.1 34.121,7.875c49.763,14.479 97.013,35.592 68.221,96.755c-11.871,25.208 -28.338,61.833 -48.208,82.058c-28.8,7.062 -98.721,-27.55 -104.93,-57.021c-7.52,-35.658 33.825,-95.908 50.796,-129.667Z" style="fill:#323945;fill-rule:nonzero;"/><path d="M2971.67,3133.58c18.421,7.213 29.412,16.263 44.575,28.575c-12.325,23.771 -25.254,45.642 -38.804,68.705c-14.313,-8.134 -32.159,-21.359 -45.996,-31c8.517,-17.03 28.675,-45.075 40.225,-66.28Z" style="fill:#9bc690;fill-rule:nonzero;"/></g></svg>