<svg xmlns="http://www.w3.org/2000/svg" xml:space="preserve" style="fill-rule:evenodd;clip-rule:evenodd;stroke-linejoin:round;stroke-miterlimit:2" viewBox="0 0 9646 3639"><path d="M0 0h9645.02v3638.77H0z" style="fill:none"/><path d="M2430.8 467.888c36.7-157 110.796-302 251.229-389.703 83.179-51.95 195.892-76.955 292.354-54.815 104.992 24.098 192.296 100.513 247.938 190.547 83.846 135.654 105.762 307.737 68.846 461.916-31.209 130.313-108.284 251.659-223.813 322.421-55.45 33.963-111.525 50.338-174.787 63.254 16.979 95.288 19.133 188.717 18.654 285.175 52.087-7.537 214.279-30.416 257.233.913 2.767 2.021 3.288 5.321 4.558 8.425l-3.891 8.596-2.513-3.996.575 6.012c-4.712 4.388-9.366 6.609-15.746 7.459-34.029 4.546-70.67 2.041-105.07 2.846a760.844 760.844 0 0 0-67.925 5.166 760.931 760.931 0 0 0-67.196 11.217c.275 42.833 1.158 83.467-7.888 125.683 36.329 9.529 150.654 38.804 171.4 70.475 3.634 5.546 2.688 8.85 2.263 14.95-5.071 5.617-7.709 8.75-16.029 9.075-19.609.763-134.813-40.225-171.534-48.421a639.123 639.123 0 0 1-9.112 21.134 645.17 645.17 0 0 1-9.879 20.787 629.043 629.043 0 0 1-21.996 40.429 635.235 635.235 0 0 1-12.088 19.588 633.307 633.307 0 0 1-40.421 55.937 624.711 624.711 0 0 1-14.8 17.621 631.684 631.684 0 0 1-15.433 17.075 624.114 624.114 0 0 1-16.046 16.496 627.197 627.197 0 0 1-16.633 15.904 632.834 632.834 0 0 1-34.95 29.938 630.953 630.953 0 0 1-18.271 13.991 625.807 625.807 0 0 1-18.767 13.321c-24.533 16.979-64.779 31.659-84.191 53.067-16.196 17.858-15.838 44.1-19.359 66.612 112.771 114.309 147.021 280.605 205.009 425.584 31.579 12.083 56.762 26.841 83.3 48.033 19.762-60.992 51.462-182.2 79.391-235.458 7.984-15.221 19.109-31.65 34.767-39.6 37.279-18.934 96.45-14.254 137.867-16.763 36.133-2.183 335.862-16.912 344.029-21.8 33.875.671 76.708 1.484 109.417-6.479 74.75 1.129 151.166-7.171 225.833-11.554 29.75-1.746 61.917-5.946 91.583-2.825 14.125 1.483 29.5 5.108 39.834 15.467 14.125 14.12 19.041 32.645 18.291 52.058-2 51.662-36.916 125.775-54.166 176.983l-103.584 303.684c-28.291 82.862-53 176.537-86.875 256.583-9.416 22.246-19.375 40.437-37.458 56.892-10.417 9.483-21.75 17.525-35.333 21.766-34.292 10.709-74.417 12.709-110.125 17.375l-191.917 25.084c16.125 65.329 10.417 126.304-24.417 184.862-23.083 38.829-55.308 71.392-90.633 99.171 47.812 13.721 136.217 39.333 161.967 84.437 6.166 10.846 7.625 22.855 3.708 34.75-10.292 31.28-46.75 53.021-74.833 65.771-89.755 40.742-193.334 54.163-289.7 71.15-57.134 7.838-114.33 16.321-171.646 22.663-34.942 3.866-70.234 5.554-105.079 9.825l-140.963 9.771c-44.529 1.4-90.658 1.325-134.933 6.17a13001.145 13001.145 0 0 1-423.975-.479c-36.238-3.687-73.775-2.754-110.217-3.646-55.333-7.037-114.537-5.383-170.521-9.145-139.721-9.38-280.583-20.671-418.966-42.63a2818.536 2818.536 0 0 1-137.725-24.225c-47.884-8.662-95.355-21.625-142.259-34.495-59.537-20.767-121.033-33.542-172.929-71.888-17.55-12.967-35.433-30.258-37.679-53.233-1.813-18.546 7.95-30.367 18.921-43.717-19.217.067-39.104 1.321-57.867-3.379l-30.579-2.013c-100.254-10.35-189.238-39.887-275.329-92.258-75.1-53.483-129.592-115.046-166.742-199.858-19.496-47.767-31.65-95.134-36.55-146.609a484.024 484.024 0 0 1 .229-65.266 484.53 484.53 0 0 1 9-64.642c13.413-63.571 39-121.237 71.079-177.517 65.996-115.762 210.5-279.52 121.121-418.616-20.066-31.234-55.421-57.788-92.183-65.063-56.079-11.1-115.979 10.275-161.963 41.763-49.033 33.571-87.733 87.296-117.22 138.037-11.575 19.921-23.75 48.204-41.088 63.467-5.333 4.696-15.379 6.092-22.167 4.929-8.25-1.408-14.429-6.475-19.066-13.254-25.221-36.85-13.459-100.292-4.196-141.4 20.475-90.888 85.533-173.158 163.629-222.296 79.221-49.842 174.558-69.671 266.421-48.467 82.9 19.134 154.05 67.109 199.175 139.646 55.067 88.525 66.879 195.879 42.954 296.259-12.925 54.237-34.829 105.404-60.925 154.52-74.4 140.025-199.571 297.946-100.646 459.459 43.425 70.891 117.946 111.212 197.163 129.562 55.7 12.9 112.896 12.746 169.037 2.534 82.759-20.196 153.317-50.642 214.967-110.863 4.692-74.221 24.242-139.575 59.296-205.042-6.421-8.412-12.275-17.341-18.325-26.025-3.104-8.579-5.621-16.887-6.796-25.958-6.521-50.3 18.096-91.1 47.662-129.1-41.129-157.442.784-326.037 58.13-473.683-37.1-26.613-63.771-67.813-79.759-110.067-23.175-61.242-23.846-131.417 3.479-191.408 31.434-69.009 87.125-106.721 155.959-132.517l-29.004-35.425c-33.417 12.767-83.013 49.142-118.2 47.529-8.117-.375-14.646-4.441-19.446-10.991-4.034-5.509-4.738-12.413-2.517-18.755 9.579-27.312 86.988-52.329 113.813-63.691-27.759-54.796-44.317-107.234-59.1-166.846-36.105 4.171-97.271 17.417-131.375 3.221-7.738-3.221-9.609-5.379-12.85-12.834 1.095-2.533 2.025-4.741 3.9-6.812 24.72-27.288 96.57-28.088 131.633-29.958-18.717-87.438-13.8-174.813 3.442-261.934-52.388-.046-104.655-6.929-154.596-23.071-122.538-39.604-218.017-125.346-276.221-239.475-68.775-134.875-76.146-292.337-29.467-435.491 50.684-155.434 144.821-263.842 289.759-337.336 41.995-17.949 83.212-28.365 128.283-34.97 49.725-3.424 96.412-1.916 144.771 11.767 156.996 50.443 246.929 154.784 320.879 298.455a300.741 300.741 0 0 1 5.904 12.029c13.417 30.63 25.704 61.301 36.983 92.776 45.5-22.875 93.063-39.246 139.209-60.28 83.787-38.191 215.4-122.446 312.229-89.654 17.733 6.004 28.337 14.5 38.979 29.646l2.008 2.821c.396.566.775 1.146 1.163 1.717 29.521-4.359 80.1-11.701 105.242 7.825 5.741 4.458 9.391 10.612 9.7 17.958.383 9.096-6.45 18.541-11.338 25.796a700.098 700.098 0 0 1 78 16.562 700.254 700.254 0 0 1 75.621 25.308Z" style="fill:#313945;fill-rule:nonzero"/><path d="M787.633 3333.75c138.925 1.537 254.471-24.783 377.125-90.875 10.446 18.45 21.421 36.083 34.571 52.775 95.625 121.383 255.958 159.721 403.283 161.333 31.321.346 62.396-8.958 93.734-6.608 27.925 2.092 56.741 11.875 84.079 17.954 32.554 7.238 65.137 11.908 98.225 15.925 18.808 18.613 39.491 30.896 65.271 37.408 50.3 12.705 99.662.88 143.158-25.633 97.404 40.975 223.854 79.971 329.442 87.879 104.27 7.804 180.291-18.683 259.612-87.391 180.971-24.034 366.158-72.617 516.196-180.467 47.812 13.721 136.217 39.333 161.967 84.437 6.166 10.846 7.625 22.855 3.708 34.75-10.292 31.28-46.75 53.021-74.833 65.771-89.755 40.742-193.334 54.163-289.7 71.15-57.134 7.838-114.33 16.321-171.646 22.663-34.942 3.866-70.234 5.554-105.079 9.825l-140.963 9.771c-44.529 1.4-90.658 1.325-134.933 6.17a13001.145 13001.145 0 0 1-423.975-.479c-36.238-3.687-73.775-2.754-110.217-3.646-55.333-7.037-114.537-5.383-170.521-9.145-139.721-9.38-280.583-20.671-418.966-42.63a2818.536 2818.536 0 0 1-137.725-24.225c-47.884-8.662-95.355-21.625-142.259-34.495-59.537-20.767-121.033-33.542-172.929-71.888-17.55-12.967-35.433-30.258-37.679-53.233-1.813-18.546 7.95-30.367 18.921-43.717-19.217.067-39.104 1.321-57.867-3.379Z" style="fill:#c9cdd4;fill-rule:nonzero"/><path d="M1235.85 1051.54c-2.492 10.316-5.071 19.7-9.6 29.383-20.609 13.617-82.029 1.55-106.638-3.342-106.1-21.087-199.466-89.729-258.621-179.375-73.629-111.587-92.395-247.329-65.375-377.025 26.538-127.366 102.55-252.483 212.505-324.454 78.395-51.316 179.654-76.487 272.275-56.529 169.637 36.554 275.225 185.946 333.625 338.942 13.87 36.337 24.425 96.65 44.145 127.291 8.246 5.3 10.384 6.038 20.155 6.73 3.15-1.513 7.575-2.821 9.729-5.567 11.854-15.1 5.633-40.713 3.8-58.717 31.733-18.575 63.604-33.679 98.55-45.175 21.575-7.1 45.079-12.571 65.85-21.579 19.141-8.304 36.025-25.821 53.804-37.087 63.029-39.942 123.692-55.525 197.496-63.017-18.484 17.454-64.534 53.333-68.867 78.887-.85 5.009.629 5.034 3.463 8.805 27.041 5.383 104.683-31.234 135.562-39.98 20.5-5.808 40.408-9.041 61.558-11.045-15.941 10.504-32.783 20.766-47.62 32.758-7.275 5.879-14.021 12.125-14.992 21.858 11.954 12.617 54.071 2.096 71.992 4.425 25.266 3.284 51.479 9.796 75.991 16.704a698.678 698.678 0 0 1 36.592 11.196 698.336 698.336 0 0 1 35.917 13.192 696.43 696.43 0 0 1 35.141 15.15 695.077 695.077 0 0 1 99.696 56.683 693.217 693.217 0 0 1 30.992 22.45 692.369 692.369 0 0 1 29.708 24.121c147.158 128.008 235.367 306.296 254.9 499.771 7.429 73.6 4.813 147.583 9.892 221.304-20.963 5.663-43.229 12.7-63.029 21.613-16.68 7.512-36.034 18.062-42.809 35.966 1.488 4.554.692 5.463 5.238 7.925 23.412 12.692 73.896-9.958 96.562-17.662 7.929 35.896 5.325 69.354-.516 105.2-7.637-.736-15.28-1.41-22.93-2.021-27.775-2.179-73.07-6.471-95.683 12.875-.262 3.675-1.087 4.533 1.242 7.696 15.608 21.183 76.237 22.441 101.446 25.754a602.17 602.17 0 0 1-45.038 80.271c-103.633 152.45-274.45 244.946-452.642 278.958-68.008 76.421-156.658 104.646-255.7 71.379-25.095-8.429-49.158-30.55-76.85-22.475-2.933 3.334-4.191 3.296-4.058 8.067.246 8.683 8.329 17.875 14.313 23.587 43.525 41.534 132.691 55.35 189.816 54.125-22.512 24.98-45.225 46.567-73.971 64.492-44.533-22.083-278.329-156.208-291.916-178.254 6.596-3.271 12.796-5.625 17.091-11.904-10.42-14.446-121.754-39.217-146.854-47.792-42.421-14.492-84.533-30.221-124.841-49.929-87.85-42.95-158.517-106.55-223.988-178.325a912.953 912.953 0 0 1 105.792-26.354c26.779-4.975 156.825-17.359 167.987-26.209 6.413-5.087 6.654-9.27 7.734-16.758-2.559-5.096-3.288-8.325-8.388-11.242-42.496-24.308-247.692 24.075-300.046 37.555-28.062-48.442-47.041-98.759-62.733-152.38 69.233-1.766 136.654-1.675 205.567 6.959 33.083 4.141 101.108 27.441 128.029 24.691 8.362-.854 10.421-2.95 15.741-9.104-.12-8.171-.116-11.675-6.379-17.896-51.866-51.529-279.633-53.225-353.404-52.629a785.183 785.183 0 0 1-4.312-37.262 773.302 773.302 0 0 1-1.492-18.696 781.414 781.414 0 0 1-1.65-37.475 776.432 776.432 0 0 1-.158-18.754 786.332 786.332 0 0 1 2.2-56.217 795.317 795.317 0 0 1 1.62-18.683 808.775 808.775 0 0 1 2.067-18.642c.764-6.206 1.6-12.401 2.508-18.588a786.306 786.306 0 0 1 6.338-36.97 793.757 793.757 0 0 1 8.083-36.629 786.035 786.035 0 0 1 15.367-54.117 782.243 782.243 0 0 1 12.367-35.413 786.247 786.247 0 0 1 21.666-51.916 780.164 780.164 0 0 1 8.038-16.946 773.425 773.425 0 0 1 8.437-16.75 778.17 778.17 0 0 1 8.834-16.546 782.398 782.398 0 0 1 28.82-48.312 790.044 790.044 0 0 1 10.363-15.63 781.652 781.652 0 0 1 10.729-15.383c5.675 6.033 12.167 13.929 21.033 14.538 7.167.495 7.792-.63 13.271-5.313 12.875-36.021-16.216-103.708-30.125-138.458 17.675 15.408 58.204 71.946 79.604 73.187 4.38-3.412 6.505-4.516 8.613-9.633 23.187-56.196-17.404-217.788-41.85-275.458-40.917-96.546-110.542-197.825-211.546-237.771-60.342-23.863-147.975-26.271-207.65-.092-76.442 33.538-129.667 116.121-159.371 191.442 4.438 5.866 4.813 8.291 12.192 9.875 18.329-9.196 35.792-43.921 47.612-60.963 69.013-99.504 162.784-137.596 280.109-97.604 82.9 28.258 144.225 110.438 180.941 186.804 29.088 60.496 50.088 130.45 55.284 197.517-23.246-15.808-57.438-40.879-86.646-36.663-6.85 4.675-9.754 6.596-11.242 15.475-5.104 30.43 22.129 80.517 30.954 110.488-68.583 83.271-116.47 175.317-147.416 278.621Z" style="fill:#f2f2f4;fill-rule:nonzero"/><path d="M874.062 447.992c4.438 5.866 4.813 8.291 12.192 9.875 18.329-9.196 35.792-43.921 47.612-60.963 69.013-99.504 162.784-137.596 280.109-97.604 82.9 28.258 144.225 110.438 180.941 186.804 29.088 60.496 50.088 130.45 55.284 197.517-23.246-15.808-57.438-40.879-86.646-36.663-6.85 4.675-9.754 6.596-11.242 15.475-5.104 30.43 22.129 80.517 30.954 110.488-68.583 83.271-116.47 175.317-147.416 278.621-27.463.483-54.15-1.096-81.138-6.513-100.996-20.271-190.1-86.866-246.316-172.175a437.987 437.987 0 0 1-10.98-17.8 438.572 438.572 0 0 1-14.837-27.633 431.02 431.02 0 0 1-4.5-9.442 434.879 434.879 0 0 1-15.704-38.754 441.578 441.578 0 0 1-3.342-9.908 450.376 450.376 0 0 1-3.1-9.988 432.92 432.92 0 0 1-5.483-20.183 436.608 436.608 0 0 1-2.379-10.183 447.155 447.155 0 0 1-4.017-20.526 433.211 433.211 0 0 1-4.175-31.091c-.342-3.47-.64-6.942-.896-10.417a454.83 454.83 0 0 1-.646-10.442 432.92 432.92 0 0 1-.391-10.45 434.092 434.092 0 0 1-.038-20.912c.075-3.486.193-6.971.354-10.454.161-3.481.364-6.96.609-10.438.244-3.477.53-6.952.858-10.425.325-3.469.693-6.936 1.104-10.4.411-3.461.863-6.916 1.354-10.366a435.82 435.82 0 0 1 3.454-20.63c6.917-34.845 21.255-67.937 28.03-102.291.137-.709.258-1.421.391-2.129Z" style="fill:#fac3b7;fill-rule:nonzero"/><path d="M2317.07 1424.74c29.129-1.013 61.387.508 87.016 15.9 15.238 9.154 27.263 23.587 30.867 41.308 3.971 19.525-2.567 39.254-13.075 55.608-19.088 29.7-48.054 48.063-82.038 55.563-2.629 33.675-7.087 63.154-19.066 95.004 165.6-18.942 151.666-111.108 192.2-121.738 8.5 2.417 9.391 2.663 14.879 9.517 4.158 17.583-3.767 37.796-11.25 53.688-24.733 52.537-75.096 74.958-126.788 93.258a366.196 366.196 0 0 1-8.92 22.521c-28.68 65.808-77 147.583-147.05 173.65-48.788 18.154-97.88 10.829-144.355-9.975-16.675-9.467-32.875-19.992-47.57-32.33-76.121-63.895-110.605-158.779-119.438-255.158-6.75-8.121-17.887 5.075-28.217 3.196-4.787-.871-5.12-3.521-7.791-7.292-1.871-9.733-2.304-17.508 3.887-25.862 12.763-17.229 43.321-24.067 63.325-26.475 16.609-2 49.963-3.275 63.134 9.05 5.541 5.183 5.654 8.387 5.233 15.525-8.85 8.9-16.696 8.483-29.017 9.75 2.054 8.766 11.525 16.533 18.196 22.454 70.842 62.867 167.146 74.987 257.7 71.192 23.075-34.213 27.058-62.484 26.667-102.805-18.35-6.824-34.734-14.949-50.317-26.954-20.992-16.175-43.3-39.97-45.833-67.72-1.254-13.763 3.087-26.346 12.396-36.538 24.833-27.2 70.85-32.413 105.225-34.337Z" style="fill:#313945;fill-rule:nonzero"/><path d="M1974.36 1650.03c23.138 12.75 43.617 30.913 67.429 43.692 92.788 49.792 193.425 47.133 295.392 38.35-13.558 28.862-30.571 56.175-48.254 82.646-9.534 13.233-20.646 25.308-31.392 37.562a164.936 164.936 0 0 0-1.842-4.766c-15.616-38.325-44.45-70.467-83.312-85.917-50.746-20.179-115.375-24.483-165.883-2.475-19.05-34.475-26.884-70.554-32.138-109.092Z" style="fill:#eca09c;fill-rule:nonzero"/><path d="M2063.95 1774.44c34.991-1.459 77.158 5.237 108.025 22.037 18.241 9.929 50.9 34.209 55.941 55.538 1.821 7.708-.8 13.183-4.92 19.512-9.113 8.296-22.255 9.109-33.955 11.146-23.266.363-41.733-.725-63.595-9.092-25.388-9.712-90.242-50.912-100.596-77.629-2.363-6.087-1.842-7.096.729-12.962 11.696-5.779 25.592-6.684 38.371-8.55ZM2306.68 1471.11c15.812-.859 33.075-2.305 48.679 1.112 11.229 2.458 25.442 8.942 31.35 19.375 3.05 5.392 3.458 11.617 1.421 17.442-6.488 18.512-31.083 29.712-47.858 36.758-15.788 1.108-31.313 2.033-46.438-3.633-25.292-9.479-36.825-28.888-47.429-52.375 19.375-10.413 38.604-15.521 60.275-18.679Z" style="fill:#fac3b7;fill-rule:nonzero"/><path d="M1860.87 1108.23c23.866-.142 45.241 6.321 65.091 19.7 38.513 25.95 60.063 71.183 68.584 115.688 9.7 50.679 4.479 109.5-25.325 152.987-21.875 31.925-49.23 45.429-86.363 52.313-25.775-1.18-50.742-6.767-72.95-20.309-34.837-21.246-56.783-57-65.946-96.246-12.225-52.362-3.562-112.504 25.221-158.17 22.142-35.13 51.413-56.671 91.688-65.963Z" style="fill:#313945;fill-rule:nonzero"/><path d="M1917.54 1203.77c14.109 1.5 24.096 3.791 33.555 15.121 8.295 9.937 10.85 21.35 9.55 34.112-1.925 18.867-11.188 28.404-25.08 39.567-12.658-1.534-22.345-4.792-31.083-14.554-8.658-9.671-11.829-21.646-10.779-34.446 1.533-18.709 10.325-28.409 23.837-39.8Z" style="fill:#fff;fill-rule:nonzero"/><path d="M2581.78 1099.23c18.062-.529 34.45 3.334 50.15 12.242 33.337 18.908 53.362 53.837 63.279 89.912 14.063 51.15 10.992 112.425-16.179 158.871-20.288 34.675-47.4 52.804-85.583 63.013-22.93 2.896-42.246.671-61.955-12.063-30.029-19.408-46.537-55.796-53.741-89.679-11.925-56.112-2.567-124.4 29.85-172.433 18.933-28.059 41.175-43.292 74.179-49.863Z" style="fill:#313945;fill-rule:nonzero"/><path d="M2620.75 1175.51c11.058.845 20.641 3.991 29.02 11.554 9.034 8.158 14.021 19.312 13.817 31.512-.3 18.184-8.092 28.392-20.525 40.167-1.975-.067-3.95-.096-5.925-.192-12.379-.587-20.583-3.866-28.833-13.354-8.967-10.312-12.259-23.129-10.359-36.579 2.296-16.225 10.121-24.204 22.805-33.108Z" style="fill:#fff;fill-rule:nonzero"/><path d="M1826.03 830.308a150.64 150.64 0 0 1 7.633-.262c20.729-.158 60.146 2.929 74.954 19.65 5.767 6.517 7.084 12.729 6.413 21.158-17.229 22.554-61.642-2.029-86.521.517-25.308 2.592-49.567 15.867-71.446 28.075-20.092 14.317-33.829 40.317-59.729 42.642-4.275-2.367-6.404-2.559-7.5-7.73-2.604-12.308 6.621-27.87 13.808-37.466 29.175-38.955 75.371-59.954 122.388-66.584ZM2536.62 820.833c8.85-.625 17.7-.63 26.55-.016 35.916 2.387 75.479 18.75 99.154 46.641 9.05 10.663 14.65 21.888 13.312 36.113-5.366 7.525-5.37 6.783-13.9 8.35-12.412-2.888-20.516-12.983-29.379-21.617-84.241-58.287-101.487-7.225-150.529-18.983-5.883-1.408-6.312-3.617-9.287-8.446.041-5.783.558-10.604 3.679-15.637 11.241-18.113 41.229-22.709 60.4-26.405Z" style="fill:#313945;fill-rule:nonzero"/><path d="M1357.88 1738.77c16.375.442 52.454 41.217 65.863 53.883-24.35 1.35-76.096 1.842-92.63 21.942-4.908 5.971-3.62 9.917-2.537 16.783 22.592 22.596 96.862 14.304 128.537 18.859 28.917 4.154 58.542 12.104 85.921 22.208 38.334 14.146 76.138 29.671 114.55 43.621 37.096 13.471 77.767 25.066 112.396 44.091 29.446 16.171 56.7 37.913 85.113 55.98 81.033 51.533 194.291 120.804 283.225 153.654 95.52-40.909 165.758-129.129 220.012-214.504 51.492-2.809 98.213-16.163 147.05-31.813-23.846 98.638-108.821 153.479-189.342 205.05-14.104 9.033-36.837 19.35-45.737 33.688-.267 7.195-.629 7.079 3.925 12.579 3.258.879 6.033 1.604 9.437 1.495 60.792-1.887 211.113-112.912 252.421-158.912 85.484 96.075 117.817 229.975 156.346 349.854-15.554-.404-31.221-.616-46.729.896-24.033 2.35-62.704 18.779-76.817 39.263-4.754 6.895-4.525 9.541-2.687 17.37 19.1 9.534 62.375-12.808 84.441-16.704 19.255-3.4 40.155-3.671 59.455-.479 26.17 4.325 44.1 16.321 59.425 37.563-26.196-.2-51.338 2.2-76.521 9.812-74.85 22.621-136.084 84.4-153.025 161.213-2.784 12.612.096 37.387-4.984 46.925l.217-13.263-2.187 4.967c7.516-37.15 4.012-116.884 3.2-157.38-1.1-54.945-18.613-292.491-53.784-322.462-4.975-4.242-7.404-3.45-13.541-3.275l-1.721 1.375c-9.538 7.621-11.775 15.137-11.625 27.512.371 30.592 12.412 71.584 16.525 103.175 12.254 94.155 29.741 301.234 2.287 389.575-3.254 10.471-7.054 18.905-17.029 24.217-5.675-.55-9.887.538-12.671-5.558-4.308-9.438-5.258-24.409-7.821-34.788-7.504-30.366-27.758-62.079-47.879-85.608-53.833-62.95-131.021-88.296-211.271-94.333-47.995-5.109-98.962 3.679-146.179 11.491-9.479-7.304-19.454-14.62-30.216-19.896a190.525 190.525 0 0 0-8.555-3.912 191.037 191.037 0 0 0-17.629-6.525 189.262 189.262 0 0 0-27.446-6.438 188.725 188.725 0 0 0-28.091-2.299 188.498 188.498 0 0 0-18.788.795c-3.122.289-6.234.655-9.337 1.096-3.106.442-6.197.961-9.275 1.559a184.856 184.856 0 0 0-9.184 2.016 188.658 188.658 0 0 0-18.016 5.384c-63.184-37.8-128.209-49.221-200.363-56.117 2.296-44.529 12.3-167.017-7.291-202.338-6.838-4.725-6.738-5.608-15.409-4.554-24.679 22.729-27.596 170.513-30.008 208.896-29.421.304-71.775-2.221-96.363 15.846-8.366 6.15-11.904 11.183-13.612 21.142 7.787 8.712 16.471 10.429 27.987 10.904 25.421 1.046 52.842-4.859 78.313-7.046 74.258-6.379 145.446 8.512 212.046 41.525-40.213 33.179-67.154 72.442-82.046 122.658-17.096 57.642-18.663 116.417 10.287 170.046-83.358 14.396-197.195 4.679-279.137-16.242-77.042-19.67-142.675-60.962-183.333-130.637-67.096-114.971-44.046-288.142-11.163-410.933 23.638-88.255 62.629-195.555 146.75-242.909 87-48.971 257.004 53.4 336.442 90.842 52.625 24.808 108.141 50.067 164.233 65.879 18.521 5.225 52.275 14.471 69.842 4.6-.738-2-.634-2.033-2.079-4.092-6.075-8.629-21.013-15.858-30.313-20.416-52.954-25.938-109.75-45.192-163.362-70.15-78.18-36.396-154.425-78.9-234.909-110.142-33.387-12.958-68.908-24.079-104.675-27.683-38.65-3.896-104.416-5.617-135.483 19.446-2.292 5.208-4.204 6.875-1.729 12.433 4.991 11.217 21.887 16.383 32.458 20.883-31.862 30.513-50.571 63.954-68.85 103.459-19.967-19.825-35.637-40.546-46.225-66.859-20.667-51.383-21.404-114.162.6-165.208 25.083-58.183 73.333-91.958 130.3-114.975Z" style="fill:#7a7bbe;fill-rule:nonzero"/><path d="M3014.89 2205.65c186.15-15.729 373.659-22.783 560.2-33.858 51.375-3.05 270.25-21.592 300.084-14.054 4.25 3.583 6.416 3.771 7.25 9.591 1.25 9.059-2.042 19.434-4.584 28.067-38.291 129.621-86.625 257.658-130.208 385.725l-69.625 202.663c-10.625 31.733-19.083 64.7-31.25 95.858-5.042 13.021-11.792 26.908-21.375 37.267-10.542 11.383-24.125 16.004-38.75 19.562-69.375 16.854-146.75 20.846-217.792 30.525l-460.883 62.75c-46.446 6.363-131.279 11.7-170.8 27.408-7.338 1.063-17.179 1.4-23.554-2.991-3.934-2.704-5.921-5.471-6.659-10.246-1.712-11.113 225.896-710.558 249.346-774.7 5.359-14.658 11.654-29.342 20.592-42.221 10.237-14.746 21.358-18.325 38.008-21.346Z" style="fill:#c2c0bf;fill-rule:nonzero"/><path d="M3247.22 2482.95c8.097-1.706 15.894-3.023 23.872.024 7.658 2.924 13.264 8.059 18.784 13.922 22.79 24.215 41.542 52.796 62.684 78.487 20.843 25.319 42.686 49.961 63.758 75.131 13.758 16.433 36.936 61.735 46.38 81.149-10.381 6.294-10.381 6.294-22.51 8.447-31.596 7.863-63.89 9.177-96.159 12.622-18.555 1.98-36.83 5.805-55.541 5.803-25.013 4.39-66.21 11.005-90.804 9.433-17.025-1.086-26.403-6.998-37.329-19.507-1.092-5.208-2.525-10.821-2.432-16.172.252-14.609 6-64.587 12.994-76.015 8.126-3.507 36.065 8.659 45.82 11.205 9.245-8.438 12.133-13.605 15.083-25.78-2.894-4.546-6.036-10.289-10.281-13.68-6.108-4.875-24.738-11.818-27.985-17.709-3.523-6.39-.923-17.096.909-23.652 6.041-21.645 28.046-75.105 40.502-93.017 3.332-4.791 7.244-7.82 12.255-10.691Z" style="fill:#8b8b8a;fill-rule:nonzero"/><path d="M3319.03 2655.16c7.354.999 15.361 1.8 22.347 4.285 11.708 4.158 22.114 13.798 26.782 25.324 3.117 7.693 3.476 15.402-.094 23-2.611 5.55-13.071 14.374-18.749 16.285l-9.35-.137c-5.217-.021-10.062.12-15.118-1.441-10.132-3.124-21.163-9.362-25.832-19.328-5.884-12.57-2.213-22.152 2.321-34.204 5.726-4.78 11.791-9.221 17.693-13.784Zm4.89-124.653c6.166.838 12.879 1.51 18.737 3.593 9.818 3.487 18.542 11.569 22.456 21.234 2.613 6.45 2.916 12.914-.079 19.284-2.188 4.655-10.96 12.053-15.719 13.655l-7.841-.114c-4.374-.018-8.436.1-12.676-1.208-8.495-2.621-17.744-7.851-21.659-16.207-4.934-10.539-1.855-18.574 1.946-28.68 4.801-4.008 9.886-7.73 14.834-11.557h.001Z" style="fill:#c2c0bf;fill-rule:nonzero"/><path d="M2737.15 3057.16c-7.338 1.063-17.179 1.4-23.554-2.991-3.934-2.704-5.921-5.471-6.659-10.246-1.712-11.113 225.896-710.558 249.346-774.7 5.359-14.658 11.654-29.342 20.592-42.221 10.237-14.746 21.358-18.325 38.008-21.346-4.337 25.063-15.696 50.779-24.058 74.909a12210.758 12210.758 0 0 0-45.513 133.487l-146.295 451.846c-20.405 63.637-43.705 126.992-61.867 191.262Z" style="fill:#8b8b8a;fill-rule:nonzero"/><path d="M2480.94 491.454c34.775-141.85 99.505-283.804 229.475-362.566 75.98-46.046 171.013-67.181 258.084-44.902 90.087 23.051 163.841 88.402 210.012 167.493 73.325 125.6 91.992 285.488 55.025 425.742-30.579 116.025-101.471 219.033-206.25 279.579-33.129 19.146-105.954 54.263-143.637 44.646-2.988-.763-1.788-.2-3.888-3.829-4.037-6.975-5.746-15.663-7.825-23.4-30.704-112.084-94.016-213.979-167.487-302.692 10.25-26.175 20.596-52.85 28.129-79.954 4.854-17.463 11.033-40.042 1.533-56.783-2.791-1.58-5.762-4.171-9.021-4.088-27.07.717-53.529 30.575-71.5 48.492 22.875-106.759 61.475-207.067 139.184-286.15 59.104-60.146 160.858-115.213 245.483-73.204 27.854 13.829 70.421 61.337 96.933 60.762.867-.021 1.734-.075 2.6-.112 1.805-17.755-7.416-30.867-18.283-43.967a211.14 211.14 0 0 0-6.846-7.888 215.984 215.984 0 0 0-7.233-7.533 212.35 212.35 0 0 0-15.546-13.942 207.41 207.41 0 0 0-16.854-12.325 206.827 206.827 0 0 0-8.867-5.52 207.15 207.15 0 0 0-9.129-5.071 210.822 210.822 0 0 0-18.958-8.746 211.164 211.164 0 0 0-19.738-6.813 206.91 206.91 0 0 0-10.096-2.662 207.615 207.615 0 0 0-20.533-3.8c-3.45-.464-6.91-.84-10.379-1.129-70.379-5.442-131.958 22.7-184.246 68.079-99.408 86.275-163.054 218.408-182.308 347.721-41.546-30.317-83.334-59.529-127.834-85.438Z" style="fill:#fac3b7;fill-rule:nonzero"/><path d="M2480.94 491.454c34.775-141.85 99.505-283.804 229.475-362.566 75.98-46.046 171.013-67.181 258.084-44.902 90.087 23.051 163.841 88.402 210.012 167.493 73.325 125.6 91.992 285.488 55.025 425.742-30.579 116.025-101.471 219.033-206.25 279.579-33.129 19.146-105.954 54.263-143.637 44.646-2.988-.763-1.788-.2-3.888-3.829-4.037-6.975-5.746-15.663-7.825-23.4 78.734-11.267 142.342-40.1 200.384-94.879 136.016-128.375 168.975-332.271 106.366-504.7-4.412-12.15-41.487-89.034-41.271-91.409.088-.916.25-1.829.375-2.741 1.805-17.755-7.416-30.867-18.283-43.967a211.14 211.14 0 0 0-6.846-7.888 215.984 215.984 0 0 0-7.233-7.533 212.35 212.35 0 0 0-15.546-13.942 207.41 207.41 0 0 0-16.854-12.325 206.827 206.827 0 0 0-8.867-5.52 207.15 207.15 0 0 0-9.129-5.071 210.822 210.822 0 0 0-18.958-8.746 211.164 211.164 0 0 0-19.738-6.813 206.91 206.91 0 0 0-10.096-2.662 207.615 207.615 0 0 0-20.533-3.8c-3.45-.464-6.91-.84-10.379-1.129-70.379-5.442-131.958 22.7-184.246 68.079-99.408 86.275-163.054 218.408-182.308 347.721-41.546-30.317-83.334-59.529-127.834-85.438Z" style="fill:#f2f2f4;fill-rule:nonzero"/><path d="M1208.37 2824.16c24.07 13.8 47.462 24.575 73.633 33.567-1.321 1.004-2.65 2.004-3.946 3.042-35.858 28.671-78.475 86.491-80.583 133.416-.329 7.359-.104 10.117 4.829 15.346 2.437.067 5.033 1.075 7.304.2 8.017-3.087 30.163-40.983 36.433-49.775 38.821-54.404 81.892-83.962 146.98-100.891 196.712-51.163 354.004 69.3 506.679 173.279 40.262 27.425 82.812 51.729 124.675 76.616 7.65 35.746 6.558 70.463-.025 106.3-15.779 85.925-58.725 170.375-131.979 220.609-61.609-.504-120.863-16.092-179.671-32.884-111.821-34.47-229.1-81.9-325.267-149.041a431.082 431.082 0 0 1-50.025-40.425c-15.662-14.825-34.746-48.134-54.508-55.259l-4.434 2.563c-2.37 7.946-.358 14.654 2.505 22.246 43.691 115.962 194.983 177.25 298.345 225.362-65.77-2.383-127.241-10.666-188.829-35.133-87.916-34.925-159.079-94.15-196.871-182.963-52.137-122.516-32.804-246.408 14.755-366.175Z" style="fill:#4b7493;fill-rule:nonzero"/><path d="M340.779 1964.98c30.187-5.025 66.321-2.879 96.042 3.088a271.011 271.011 0 0 1 25.616 6.683 269.002 269.002 0 0 1 12.534 4.267 270.105 270.105 0 0 1 12.312 4.867 270.683 270.683 0 0 1 23.846 11.508 272.97 272.97 0 0 1 11.475 6.604 276.434 276.434 0 0 1 11.137 7.158 271.717 271.717 0 0 1 21.175 15.896 271.95 271.95 0 0 1 28.625 27.5 271.954 271.954 0 0 1 8.613 10.059 271.792 271.792 0 0 1 15.712 21.312c29.855 45.171 47.355 101.946 50.675 155.908 13.571 220.6-165.841 348.809-204.354 544.15-16.241 82.371.829 162.1 48.109 231.175 55.258 80.738 150.8 122.584 244.22 139.405 134.213 24.162 257.159-16.425 367.025-92.709 4.98 48.196 14.309 93.104 31.825 138.35-135.412 73.213-269.233 98.934-422.27 79.559-66.08-12.284-128.784-29.35-187.713-62.721a418.529 418.529 0 0 1-8.8-5.034 393.468 393.468 0 0 1-8.667-5.245 418.715 418.715 0 0 1-8.541-5.463 409.878 409.878 0 0 1-32.717-23.913 416.859 416.859 0 0 1-15.429-13.145 397.093 397.093 0 0 1-14.758-13.896 396.998 396.998 0 0 1-7.117-7.217 384.538 384.538 0 0 1-6.938-7.392 417.166 417.166 0 0 1-6.75-7.558 416.358 416.358 0 0 1-12.929-15.617 409.448 409.448 0 0 1-12.133-16.233 407.586 407.586 0 0 1-21.788-34.179 409.597 409.597 0 0 1-18.295-36.167 412.077 412.077 0 0 1-7.78-18.716 405.896 405.896 0 0 1-3.537-9.5 408.601 408.601 0 0 1-9.192-28.984c-60.487-219.866 60.534-348.354 160.188-525.321 41.083-72.95 69.062-160.15 45.237-243.495-14.579-51.005-49.446-98.488-96.308-124.134-49.492-27.091-106.1-30.091-159.638-14.204-113.104 33.567-179.42 123.108-232.479 222.054 3.975-66.904 19.934-126.021 59.563-181.279 53.587-74.717 133.916-122.717 224.204-137.421Z" style="fill:#fac3b7;fill-rule:nonzero"/><path d="m3248.67 3040.73 7.916-.975c6.834 6.263 8.542 12.246 10.417 21.167 10.625 50.454-7.083 104.275-35.608 145.625-103.934 150.617-357.967 208.346-526.075 239.313 8.183-28.625 13.8-57.263 18.345-86.659.959-30.121-1.637-57.862-13.529-85.937-22.866-54.013-70.754-90.113-123.666-111.888 16.562.292 34.32.954 50.275-4.104 22.295-7.071 32.05-22.1 41.925-41.737 67.45-3.609 135.591-16.255 202.587-25.238l367.413-49.567Z" style="fill:#4b7493;fill-rule:nonzero"/><path d="M2431.87 3187.58c62.129-8.292 128.045 2.279 179.825 38.825 39.704 28.021 60.008 61.192 68.141 108.592-36.271-24.55-77.125-40.767-119.883-49.892-19.008-4.054-66.838-15.729-82.021-4.004-4.25 3.283-3.167 5.479-3.771 10.483 1.396 1.621 2.375 3.729 4.192 4.854 4.904 3.025 20.479 4.596 26.779 6.059 47.179 10.929 101.979 24.362 138.133 58.291 12.571 11.8 22.813 27.584 22.646 45.425-.279 30.179-25.016 56.746-45.737 75.85-2.209-2.491-4.413-4.9-6.742-7.279-38.5-39.275-90.233-69.325-146.737-68.992-8.575.05-17.321-.141-23.53 6.63-5.762 6.283-4.987 8.154-4.904 16.295 61.346 13.642 108.442 28.734 150.104 78.459-152.766 67.542-322.57 2.087-470.054-49.138a324.384 324.384 0 0 0 11.05-13.579c55.029-71.737 73.6-167.833 62.404-256.229 81.005 10.321 159.046 5.404 240.105-.65ZM2119.35 2543.68c24.945-2.266 51.562-2.012 76.437.821 69.771 7.946 131.133 43.329 174.208 99 26.892 34.763 35.68 71.621 29.896 115.246-1.462 11.046-3.358 19.371-12.383 26.371l-5.471-1.513c-3.387-16.316-6.162-33.72-11.562-49.479-14.613-42.646-55.83-80.612-95.505-99.862-14.712-7.138-39.395-16.446-55.587-10.892 1.508 18.071 72.846 64.483 87.217 83.288 16.275 21.3 34.229 54.954 29.175 82.804-2.192 12.058-8.3 23.45-18.963 29.979-8.467 5.183-18.187 6.2-27.679 3.446-34.992-10.146-36.392-56.892-52.221-84.988-4.75-6.341-9.642-12.575-15.1-18.329-23.704-25.021-67.237-59.987-103.404-60.892-8.842 3.725-9.138 4.15-13.808 12.563 6.52 14.321 76.82 46.042 100.966 93 6.492 12.629 14.575 30.937 9.546 45.083-2.775 7.8-8.658 13.317-16.383 16.209-30.463 11.404-75.721-33.467-102.763-45.001-10.208-4.354-18.821-5.774-29.187-1.487-1.504 3.313-3.046 7.471-5.229 10.363-7.446 9.858-44.613 15.462-56.605 16.875-32.829 3.875-72.895 1.17-99.587-20.625-14.992-12.242-21.8-27.825-23.204-46.771-3.375-45.525 13.225-96.9 43.366-131.192 49.355-56.15 124.434-59.167 193.83-64.017Z" style="fill:#f2f2f4;fill-rule:nonzero"/><path d="M2566.88 2743.84c7.642 2.333 16.138 9.466 22.983 13.771 32.93 20.708 52.896 25.8 92.1 26.025 12.313 9.283 25.85 16.925 39.055 24.85-53.946 6.429-108.138 18.108-161.771 27.17-78.529 13.271-157.609 25.075-235.788 40.13-9.1 1.75-13.708 3.629-18.916 11.308l1.754 6.4c41.058 27.608 290.554 101.871 355.175 120.862l-12.896 40.6c-46.4-15.516-92.613-31.408-139.183-46.429-53.517-20.233-110.209-35.479-164.738-53.25a20335.444 20335.444 0 0 0-330.742-105.791c25.184-5.409 48.967-12.48 72.925-21.884a855.695 855.695 0 0 0 14.134 9.825c41.629 28.292 69.883 39.809 120.046 30.188l22.187-18.221c20.333 11.421 39.817 19.258 63.579 18.637 26.592-.7 44.909-12.633 62.492-31.45 9.408-1.745 19.875-3.383 28.671-7.308 28.904-12.892 39.208-39.246 49.958-66.887a2988.365 2988.365 0 0 1 118.975-18.546Z" style="fill:#8b8b8a;fill-rule:nonzero"/><path d="M2737.81 2496.28c33.079-2.371 58.546 5.067 88.65 18.221-11.829 38.133-25.187 75.988-37.758 113.896-8.084-10.983-17.667-23.508-28.796-31.521-9.933-7.154-20.946-11.529-33.275-9.504-3.117.512-4.004 3.296-5.817 5.729 1.159 20.246 38.675 62.833 49.659 86.254-8.092 31.609-19.246 63.334-32.113 93.313-21.812-15.304-30.971-30.838-43.267-53.792-12.275-23.637-29.45-63.979-55.783-73.975-4.592 1.933-4.983.896-6.912 6.038-9.405 25.062 16.079 69.641 26.383 91.966-13.421-4.791-27.283-9.391-38.988-17.741-21.204-15.13-35.95-36.296-39.829-62.3-4.875-32.709 6.159-65.575 25.567-91.763 32.129-43.346 80.058-66.55 132.279-74.821Z" style="fill:#f2f2f4;fill-rule:nonzero"/><path d="M1920.58 2840.7c240.9 72.7 480.125 155.459 717.75 238.317l-10.908 35.146c-3.963 2.75-7.525 3.591-12.325 3.437-40.792-1.296-230.784-73.283-283.205-90.887-127.612-42.854-257.133-81.917-383.57-128.104-7.338-2.684-19.946-6.4-25.105-12.559-8.154-9.729-3.562-33.612-2.637-45.35Z" style="fill:#8b8b8a;fill-rule:nonzero"/><path d="M1770.93 2833.75c35.292 21.854 62.288 22.742 102.125 15.729.563 17.717.175 36.834 8.583 52.971 7.784 14.929 20.43 22.496 34.93 29.696 38.037 18.888 82.991 29.488 123.425 42.875l239.262 79.158c-22.279 12.317-45.325 23.438-68.046 34.938l-48.3 23.75c-53.546-50.346-94.083-35.313-152.321-67.575-105.15-58.254-196.45-136.433-304.341-190.563 22.587-4.445 43.75-11.466 64.683-20.979ZM2052.54 3103.93c17.663 4.313 36.888 9.075 52.434 18.734 22.816 14.166 34.604 37.754 40.216 63.366 15.717 71.759-7.991 160.717-47.154 221.846-23.191 36.2-50.35 63.338-93.15 72.533-37.221.105-60.737-4.804-92.841-23.92 50.325-29.605 86.887-70.625 114.32-122.2 38.2-71.809 49.58-151.988 26.175-230.359Z" style="fill:#4b7493;fill-rule:nonzero"/><path d="M1923.35 2512.34c16.35-.142 33.083 2.379 49.366 4.025-52.237 28.746-92.091 61.991-114.533 119.237-23.079 58.859-22.258 118.725 2.879 175.75l-2.504 3.375c-10.463 2.675-20.592 1.234-31.208.338-13.388-5.342-25.992-9.271-37.242-18.721-20.088-16.879-30.154-40.417-31.875-66.267-3.946-59.266 21.75-123.571 60.437-167.746 30.471-34.8 59.33-47.166 104.68-49.991Z" style="fill:#7a7bbe;fill-rule:nonzero"/><path d="M2342.47 3076.44c25.525.25 183.192 61.262 221.692 74.633-49.537-6.721-97.404-9.104-147.392-7.329-73.745 4.346-146.7 5.167-220.562 4.258 47.196-26.204 97.546-48.233 146.262-71.562Z" style="fill:#4b7493;fill-rule:nonzero"/><path d="M1212.67 2663.37c6.534 7.725 11.405 19.029 16.713 27.871 15.808 26.32 33.875 51.15 56.958 71.595 9.296 8.234 19.271 16.338 29.838 22.88 12.546 7.762 49.566 20.329 55.708 32.483l-6.696 2.758c-39.262.417-80.275-11.958-114.625-30.796-22.95-12.583-44.166-30.587-51.35-56.72-7.116-25.875.854-47.625 13.454-70.071Z" style="fill:#7a7bbe;fill-rule:nonzero"/><path d="M2453.8 2880.95c27.637-5.896 63.12 12.513 88.604 21.871a1719.856 1719.856 0 0 0-92.467 17.146c-27.562-1.504-59.008-15.108-85.05-24.183a3165.444 3165.444 0 0 0 88.913-14.834ZM2581.35 2859.07c29.254-6.25 63.662 11.362 90.821 20.958-24.879 6.271-50.634 10.413-75.834 15.321-25.462 3.083-64.65-14.696-89.033-22.358 24.188-6.3 49.417-9.663 74.046-13.921ZM2554.9 2915.48c28.15-4.379 56.237 9 82.425 18.03a3564.429 3564.429 0 0 1-78.425 16.458c-20.292 7.458-62.225-12.908-82.146-20.213 25.858-6.129 51.904-10.191 78.146-14.275Z" style="fill:#8b8b8a;fill-rule:nonzero"/><path d="M4411.81 1160.59a277.407 277.407 0 0 1 39.653-6.478 277.993 277.993 0 0 1 40.154-.688 278.469 278.469 0 0 1 26.622 2.77 274.996 274.996 0 0 1 26.197 5.325 274.683 274.683 0 0 1 37.972 12.659 273.912 273.912 0 0 1 24.066 11.437 268.72 268.72 0 0 1 11.57 6.579 269.961 269.961 0 0 1 22.084 14.795 273.883 273.883 0 0 1 10.461 8.183 269.949 269.949 0 0 1 19.618 17.838 264.971 264.971 0 0 1 9.117 9.611 265.298 265.298 0 0 1 8.625 10.041c2.792 3.418 5.496 6.9 8.111 10.45a262.555 262.555 0 0 1 7.578 10.83c2.437 3.672 4.779 7.4 7.028 11.187a262.072 262.072 0 0 1 6.46 11.517 265.536 265.536 0 0 1 11.16 23.909 267.223 267.223 0 0 1 4.668 12.331 264.171 264.171 0 0 1 12.371 51.172 264.146 264.146 0 0 1 1.483 13.095 265.839 265.839 0 0 1 .993 26.346 267.12 267.12 0 0 1-1.635 26.324 264.775 264.775 0 0 1-7.334 38.907 265.647 265.647 0 0 1-3.724 12.689 268.377 268.377 0 0 1-4.35 12.496 268.397 268.397 0 0 1-4.97 12.274 266.312 266.312 0 0 1-11.733 23.766 269.796 269.796 0 0 1-21.878 33.271 268.267 268.267 0 0 1-8.364 10.349 267.94 267.94 0 0 1-8.868 9.934 273.573 273.573 0 0 1-9.345 9.5 273.753 273.753 0 0 1-30.706 25.648 274.482 274.482 0 0 1-11.04 7.531 277.262 277.262 0 0 1-23.129 13.427 276.624 276.624 0 0 1-24.343 11.138 280.416 280.416 0 0 1-12.552 4.681 279.105 279.105 0 0 1-12.767 4.067 277.753 277.753 0 0 1-26.069 6.266 275.616 275.616 0 0 1-26.567 3.729c-4.455.407-8.917.708-13.386.9a278.615 278.615 0 0 1-26.814-.147 278.812 278.812 0 0 1-13.363-1.047 276.098 276.098 0 0 1-26.479-4.021 276.83 276.83 0 0 1-25.937-6.561 272.492 272.492 0 0 1-12.682-4.215 273.445 273.445 0 0 1-12.46-4.821 275.382 275.382 0 0 1-24.105-11.425 274.11 274.11 0 0 1-11.592-6.578 268.394 268.394 0 0 1-11.247-7.13 270.992 270.992 0 0 1-21.349-15.847 269.837 269.837 0 0 1-19.657-17.845 266.858 266.858 0 0 1-25.898-30.124 265.488 265.488 0 0 1-14.631-22.037 262.416 262.416 0 0 1-6.471-11.528 264.412 264.412 0 0 1-19.904-48.838 264.254 264.254 0 0 1-9.814-51.782 265.224 265.224 0 0 1-.99-26.37 264.107 264.107 0 0 1 1.645-26.358 262.494 262.494 0 0 1 1.805-13.09 262.822 262.822 0 0 1 2.455-12.994c.927-4.312 1.96-8.6 3.099-12.861a269.097 269.097 0 0 1 3.737-12.701 268.532 268.532 0 0 1 27.87-60.021 270.125 270.125 0 0 1 15.177-21.847 271.382 271.382 0 0 1 8.384-10.352 275.976 275.976 0 0 1 8.886-9.937 273.37 273.37 0 0 1 19.204-18.535 274.153 274.153 0 0 1 20.943-16.602 276.438 276.438 0 0 1 11.06-7.526 276.987 276.987 0 0 1 23.178-13.409 274.937 274.937 0 0 1 12.056-5.851 277.542 277.542 0 0 1 50.663-17.406Z" style="fill:var(--quiet-strident, #000);fill-rule:nonzero"/><path d="M4400.19 1201.11c.506-.146 1.01-.302 1.522-.437 67.997-17.947 131.938-17.1 193.623 18.873a237.62 237.62 0 0 1 19.372 12.748 231.222 231.222 0 0 1 9.181 7.063 230.458 230.458 0 0 1 8.815 7.501 231.917 231.917 0 0 1 16.448 16.241 234.21 234.21 0 0 1 14.743 17.76 232.837 232.837 0 0 1 12.889 19.111 234.494 234.494 0 0 1 10.914 20.272 231.634 231.634 0 0 1 8.831 21.24 227.17 227.17 0 0 1 3.608 10.922 228.672 228.672 0 0 1 3.06 11.082c15.606 61.881 5.928 123.565-27.078 178.46-8.28-8.617-16.623-17.309-25.928-24.872-37.17-30.205-76.328-38.482-123.658-33.817-27.156 2.542-55.577 6.924-81.871 14.235-60.146 16.729-91.039 51.289-120.255 102.996-33.227-28.56-56.559-58.109-71.038-99.658-21.093-60.521-18.41-126.709 10.612-184.558 28.105-56.019 76.6-95.365 136.21-115.162Z" style="fill:var(--quiet-paper-color, #fff);fill-rule:nonzero"/><path d="M4425.76 1283.02a98.912 98.912 0 0 1 13.625-4.741 98.164 98.164 0 0 1 4.675-1.135 99.925 99.925 0 0 1 14.286-2.037 98.988 98.988 0 0 1 4.808-.215 99.012 99.012 0 0 1 23.862 2.402 97.343 97.343 0 0 1 9.246 2.561 96.757 96.757 0 0 1 8.941 3.443 96.65 96.65 0 0 1 8.552 4.292 97.646 97.646 0 0 1 8.076 5.1 95.387 95.387 0 0 1 3.836 2.838 94.72 94.72 0 0 1 7.222 6.219 97.036 97.036 0 0 1 6.564 6.886 98.227 98.227 0 0 1 3.012 3.672 92.51 92.51 0 0 1 2.826 3.821 94.703 94.703 0 0 1 2.631 3.951 95.656 95.656 0 0 1 6.667 12.551 90.972 90.972 0 0 1 1.793 4.385 93.53 93.53 0 0 1 2.918 9.005c.412 1.526.786 3.06 1.122 4.602a95.645 95.645 0 0 1 1.54 9.339 95.735 95.735 0 0 1 .605 9.447 95.998 95.998 0 0 1-.869 14.174 95.392 95.392 0 0 1-6.095 22.886 96.709 96.709 0 0 1-6.315 12.799 93.25 93.25 0 0 1-2.524 4.046 96.253 96.253 0 0 1-5.629 7.71 99.638 99.638 0 0 1-3.094 3.644 98.953 98.953 0 0 1-10.322 9.978 101.69 101.69 0 0 1-3.753 2.979 102.967 102.967 0 0 1-3.9 2.8 101.02 101.02 0 0 1-8.19 5.015 97.817 97.817 0 0 1-4.273 2.203 99.702 99.702 0 0 1-4.373 1.999 104.078 104.078 0 0 1-4.455 1.78 99.738 99.738 0 0 1-4.544 1.561 96.478 96.478 0 0 1-4.61 1.344 96.358 96.358 0 0 1-4.67 1.117 100.032 100.032 0 0 1-19.055 2.197 100.7 100.7 0 0 1-9.594-.29 101.882 101.882 0 0 1-9.512-1.212 99.71 99.71 0 0 1-9.343-2.126 99.283 99.283 0 0 1-9.078-3.016 99.37 99.37 0 0 1-8.73-3.876 103.614 103.614 0 0 1-4.212-2.253 97.773 97.773 0 0 1-4.088-2.454 98.465 98.465 0 0 1-3.963-2.643 99.007 99.007 0 0 1-7.499-5.857 92.575 92.575 0 0 1-3.524-3.191 91.666 91.666 0 0 1-3.355-3.361 95.642 95.642 0 0 1-9.011-10.994 95.283 95.283 0 0 1-2.621-3.945 93.298 93.298 0 0 1-4.644-8.245 92.092 92.092 0 0 1-2.007-4.28 97.339 97.339 0 0 1-1.791-4.373 96.129 96.129 0 0 1-1.567-4.458 94.518 94.518 0 0 1-2.467-9.119 96.3 96.3 0 0 1-1.541-9.319 93.485 93.485 0 0 1-.421-4.705 92.832 92.832 0 0 1-.138-9.446 90.92 90.92 0 0 1 .282-4.718 94.496 94.496 0 0 1 1.271-9.373c.287-1.551.614-3.094.98-4.629a93.263 93.263 0 0 1 2.655-9.099 95.836 95.836 0 0 1 5.634-13.066 97.41 97.41 0 0 1 2.301-4.159 97.416 97.416 0 0 1 11.191-15.391 98.676 98.676 0 0 1 10.268-9.982 99.252 99.252 0 0 1 7.62-5.788 100.045 100.045 0 0 1 8.155-5.029 99.1 99.1 0 0 1 8.613-4.221Z" style="fill:var(--quiet-strident, #000);fill-rule:nonzero"/><path d="M4442.27 1313.37a64.226 64.226 0 0 1 32.784-3.482 63.755 63.755 0 0 1 8.115 1.808 64.91 64.91 0 0 1 3.945 1.294c1.302.477 2.585.994 3.849 1.55a64.019 64.019 0 0 1 3.733 1.799 61.358 61.358 0 0 1 7.067 4.3 62.987 62.987 0 0 1 6.424 5.183 63.155 63.155 0 0 1 5.668 5.975 63.475 63.475 0 0 1 2.52 3.253 60.687 60.687 0 0 1 2.297 3.411 60.756 60.756 0 0 1 2.065 3.552 63.145 63.145 0 0 1 1.816 3.682 62.079 62.079 0 0 1 2.88 7.679 61.034 61.034 0 0 1 2.516 20.251 61.08 61.08 0 0 1-.315 4.094 62.77 62.77 0 0 1-1.453 8.08 60.348 60.348 0 0 1-1.131 3.953 61.155 61.155 0 0 1-3.035 7.653 61.931 61.931 0 0 1-4.032 7.197 62.6 62.6 0 0 1-4.954 6.616 64.779 64.779 0 0 1-2.798 3.059 66.338 66.338 0 0 1-2.995 2.864 61.239 61.239 0 0 1-3.18 2.669 63.785 63.785 0 0 1-14.278 8.46 66.043 66.043 0 0 1-3.881 1.517 63.434 63.434 0 0 1-11.919 2.964 63.011 63.011 0 0 1-3.05.381c-1.02.105-2.043.183-3.067.236a63.049 63.049 0 0 1-6.145.027 63.693 63.693 0 0 1-6.117-.557 65.292 65.292 0 0 1-6.029-1.143 66.597 66.597 0 0 1-2.964-.788 63.812 63.812 0 0 1-5.79-1.995 64.28 64.28 0 0 1-5.561-2.542 62.822 62.822 0 0 1-5.282-3.062 62.718 62.718 0 0 1-2.518-1.72 60.337 60.337 0 0 1-2.434-1.838 60.776 60.776 0 0 1-2.336-1.952 59.935 59.935 0 0 1-2.238-2.061 60.56 60.56 0 0 1-2.134-2.167 65.78 65.78 0 0 1-3.928-4.633 60.857 60.857 0 0 1-1.785-2.451 56.845 56.845 0 0 1-1.663-2.532 62.771 62.771 0 0 1-2.941-5.298 61.1 61.1 0 0 1-2.401-5.555 62.314 62.314 0 0 1-.989-2.86 62.041 62.041 0 0 1-.852-2.902 65.159 65.159 0 0 1-.704-2.941 63.445 63.445 0 0 1-.968-5.971 60.804 60.804 0 0 1-.258-3.011 59.895 59.895 0 0 1-.072-6.048c.036-1.01.098-2.017.188-3.022a61.573 61.573 0 0 1 6.754-23.155c.469-.901.959-1.79 1.472-2.664a60.307 60.307 0 0 1 3.327-5.106 60.101 60.101 0 0 1 1.847-2.428 60.132 60.132 0 0 1 1.967-2.337 63.005 63.005 0 0 1 11.417-10.139 60.478 60.478 0 0 1 5.205-3.246c.895-.5 1.8-.977 2.715-1.433.919-.456 1.847-.89 2.783-1.302a65.92 65.92 0 0 1 2.843-1.166ZM4491.36 1520.72c19.864-2.865 40.285-6.53 60.385-5.555 42.45 2.072 74.675 19.982 102.917 50.537-35.672 49.649-84.149 73.967-143.373 85.459-55.345 9.118-111.57 3.77-159.522-26.184 3.667-10.494 8.027-21.507 13.941-30.969 27.928-44.706 76.438-61.844 125.652-73.288Z" style="fill:var(--quiet-paper-color, #fff);fill-rule:nonzero"/><path d="M4752.4 1985.45c49.54 1.748 101.993 14.321 151.143 22.213l294.95 47.406 380.038 60.289c65.304 10.32 133.166 17.306 197.415 32.375 23.415 5.494 50.243 15.586 68.183 32.169 18.501 17.083 31.704 49.104 32.103 74.108.921 60.375-29.239 199.387-39.768 264.983l-38.639 242.456c-7.634 47.781-13.52 96.986-25.508 143.893-5.613 21.845-11.816 39.968-27.656 56.594-21.47 22.503-50.599 34.854-81.492 35.679-43.023 5.051-113.606-13.643-158.621-20.839l-288.351-46.371-367.199-58.446c-61.343-9.765-123.778-17.648-184.673-29.92-22.1-4.454-45.166-11.2-64.768-22.632-24.071-14.057-40.071-41.854-46.634-68.459-2.678-10.747-3.105-21.362-2.042-32.346 7.127-72.11 100.405-654.698 115.861-678.191 22.053-33.577 47.396-45.717 85.658-54.961Z" style="fill:var(--quiet-strident, #000);fill-rule:nonzero"/><path d="M4754.14 2026.48c55.963 4.502 112.767 16.417 168.178 25.304l301.275 48.292 352.243 55.948c61.882 9.793 125.341 17.137 186.486 30.313 15.37 3.315 35.397 8.065 47.851 18.192 13.107 10.675 23.188 29.167 24.724 45.82 2.754 29.735-88.694 589.133-100.816 641.208-3.568 15.23-7.453 27.792-18.246 39.72-15.349 16.962-35.285 24.921-57.622 26.591-26.337 1.668-972.593-148.676-1006.1-159.632-17.831-5.832-48.568-18.653-55.982-37.455-7.199-18.292-4.598-50.031-2.607-69.284 11.097-107.466 33.816-216.294 50.881-323.101 8.981-55.91 34.424-260.585 53.194-300.187 11.486-24.294 32.516-34.157 56.537-41.729Z" style="fill:var(--quiet-paper-color, #fff);fill-rule:nonzero"/><path d="M4831.2 2205.47c58.987 3.815 120.967 17.943 179.412 27.317l346.568 55.608 172.746 27.618c27.373 4.211 59.301 5.564 85.535 13.81 17.677 5.554 30.106 9.659 38.858 26.581l-3.806 7.129c-8.219 4.162-15.41 5.897-24.458 7.527-59.45-7.098-119.1-18.812-178.274-28.25l-346.825-55.244-176.562-28.15c-32.645-5.206-69.729-7.66-100.764-18.92-5.013-5.712-8.942-8.933-7.388-17.429 1.839-9.956 7.221-12.435 14.958-17.597ZM4763.83 2613.27c35.292-.855 74.379 9.152 109.317 14.834l191.609 31.012 331.445 52.926c50.366 8.012 102.551 13.294 152.313 23.861 10.792 2.287 25.287 6.444 33.438 14.145 5.532 5.239 5.204 6.984 5.354 14.075-7.143 7.627-12.211 9.676-22.15 12.552-3.781.486-6.954.879-10.765.621-31.312-2.111-64.859-10.324-96.055-15.328l-214.527-34.353-302.239-48.136c-53.697-8.49-108.482-15.111-161.696-26.007-11.905-2.44-16.569-2.613-24.915-11.565-1.828-11.11 3.894-19.113 8.871-28.637ZM4797.88 2407.58c89.56 6.844 181.558 27.477 270.374 41.756l182.184 29.74c24.714 3.855 50.181 5.158 74.596 10.259 9.939 2.072 24.217 5.109 30.948 13.042 5.075 5.946 3.389 9.7 2.751 16.783-7.095 9.794-8.957 9.397-20.793 12.705-115.727-10.871-243.916-38.003-359.799-56.853-42.783-6.963-152.976-16.629-186.314-32.329-6.348-7.853-7.284-9.109-8.309-19.069 4.366-10.022 4.859-10.629 14.362-16.034ZM9476.06 912.344c8.483-1.642 17.335-3.663 25.903-1.494 22.747 5.756 34.149 31.493 45.106 50.102 19.741-2.16 41.851-4.757 58.301 9.058 6.464 5.432 9.724 12.651 9.864 21.08.399 24.063-17.652 40.17-32.779 56.252 6.09 20.486 15.497 44.086 8.926 65.431-1.942 6.312-6.091 11.953-12.14 14.839-20.703 9.881-47.742-3.119-67.654-10.276-18.917-.021-42.49 31.504-69.661 32.308-5.229-1.996-8.469-2.579-12.124-7.008-15.73-19.069-13.54-51.46-11.981-74.553-15.084-9.975-33.035-22.165-39.331-39.91-3.014-8.501-2.678-17.213 1.947-25.089 12.802-21.803 39.669-26.281 62.078-32.139 6.047-26.183 9.842-42.971 33.545-58.601Z" style="fill:var(--quiet-strident, #000);fill-rule:nonzero"/><path d="M9487.66 945.293c17.932 6.797 26.045 31.347 34.585 47.661 21.589-1.008 43.117-1.103 64.725-1.118-12.374 17.198-27.648 32.526-41.93 48.145 6.204 19.09 11.503 37.898 16.085 57.447-18.601-4.166-36.876-11.438-54.913-17.589-15.53 7.82-31.166 25.259-49.168 26.181l-4.622-5.069c-3.612-15.231.287-33.307 2.033-48.79-16.625-11.274-31.69-22.755-46.777-36.039 19.72-7.466 40.179-11.626 60.713-16.165 5.628-18.573 10.867-37.111 19.269-54.664Z" style="fill:var(--quiet-paper-color, #fff);fill-rule:nonzero"/><path d="M8902.52 984.159c9.912-1.62 19.457-3.274 29.393-.634 22.604 6.01 32.542 30.283 42.741 49.109a531.686 531.686 0 0 1 18.389-1.925c15.26-1.266 33.056.033 44.844 11.019 5.71 5.322 8.731 12.634 8.825 20.412.288 24.637-17.458 41.43-32.624 58.464 6.307 19.553 14.901 40.562 9.773 61.353-1.783 7.227-6.211 13.289-12.949 16.623-18.866 9.351-39.01-.024-57.227-6.343-23.664-9.123-52.74 30.086-79.606 27.063-6.469-.728-10.378-3.222-14.268-8.548-12.43-17.031-9.435-51.86-7.469-71.988-15.448-8.848-31.699-19.409-38.838-36.521-3.622-8.681-3.886-17.912.305-26.456 11.188-22.813 35.92-27.653 57.951-34.327 7.157-23.151 11.86-40.876 30.76-57.301Z" style="fill:var(--quiet-strident, #000);fill-rule:nonzero"/><path d="M8917.05 1016.8c18.932 6.811 26.48 30.9 35.294 48.033 16.68-1.252 39.558-5.512 54.764 2.684l1.518 6.156c-5.735 14.534-20.057 26.52-30.845 37.641 5.329 19.211 9.674 38.586 14.009 58.035a1692.787 1692.787 0 0 0-52.895-19.617c-18.828 10.342-37.01 23.709-55.38 35.051-1.703-20.868.552-42.589 1.515-63.497-12.813-7.45-30.266-15.272-35.982-29.675l3.345-6.406c12.912-8.757 29.98-10.492 45.072-13.4 5.529-18.785 10.533-37.536 19.585-55.005Z" style="fill:var(--quiet-paper-color, #fff);fill-rule:nonzero"/><path d="M8632.67 1015.24c6.76.318 13.499 1.097 19.967 3.182 21.52 6.932 29.864 30.091 38.771 48.733 8.214-.759 16.518-1.586 24.766-1.703 13.464-.196 27.791 4.44 37.33 14.21 6.046 6.191 8.712 14.052 8.389 22.654-.835 22.184-16.448 36.332-31.112 50.75 6.248 20.451 16.966 46.549 9.333 67.653-2.269 6.263-6.529 11.239-12.67 13.95-20.59 9.091-46.187-3.59-65.797-10.809-18.353 12.262-37.739 27.536-60.937 27.347-7.951-.062-15.316-2.759-20.69-8.745-15.45-17.219-11.137-46.965-9.408-67.981-15.743-10.82-33.622-22.73-39.464-42.048-2.709-8.954-2.035-17.737 3.089-25.682 12.474-19.329 36.675-23.009 57.321-27.404 2.779-11.29 5.277-23.301 9.371-34.183 5.916-15.723 17.333-23.244 31.741-29.924Z" style="fill:var(--quiet-strident, #000);fill-rule:nonzero"/><path d="M8634.74 1051.87c.749.203 1.502.402 2.248.618 17.199 4.942 27.829 32.218 36.039 47.025 15.648-1.051 37.26-5.127 51.02 3.913l.927 6.534c-6.093 13.916-19.997 25.313-30.639 36.013 6.341 18.813 11.056 37.893 15.781 57.155-18.062-4.204-35.719-11.248-53.089-17.661-18.158 12.449-36.093 24.188-55.519 34.624-.33-20.877 2.036-42.172 3.397-63.02-12.919-8.283-29.768-16.639-37.009-30.563l2.108-6.219c14.075-9.423 32.449-11.724 48.758-15.715a718.786 718.786 0 0 1 15.978-52.704Z" style="fill:var(--quiet-paper-color, #fff);fill-rule:nonzero"/><path d="M9193.03 945.16c6.784.289 14.273.784 20.822 2.611 20.916 5.832 32.608 32.146 42.804 49.512 19.338-2.369 43.431-4.544 59.751 8.415 6.49 5.152 10.099 12.014 10.866 20.255 2.234 24.017-15.094 40.208-29.416 56.819 4.762 22.835 16.162 47.714 6.239 70.763-2.652 6.161-7.307 10.608-13.595 12.956-20.15 7.532-44.357-5.307-62.752-13.145-22.701 7.29-42.635 30.904-69.19 28.924-6.233-.465-10.342-2.243-14.029-7.547-12.212-17.561-7.667-51.239-5.738-71.63-17.446-11.445-38.59-24.069-43.199-46.175-1.642-7.868-.092-15.422 4.436-22.066 12.374-18.165 34.334-21.537 54.155-26.027 8.124-28.097 13.453-46.816 38.846-63.665Z" style="fill:var(--quiet-strident, #000);fill-rule:nonzero"/><path d="M9198.48 981.765c19.58 7.279 27.863 30.353 37.677 47.848 21.992-1.363 43.584-1.458 65.599-.954-11.268 17.327-26.714 32.034-40.863 47.027a1063.953 1063.953 0 0 1 14.932 57.872l-53.708-19.646c-17.733 9.542-34.181 23.026-51.714 33.384-1.184-20.225.804-40.445 2.258-60.61-11.469-6.704-28.571-14.577-36.157-25.551-3.049-4.416-1.905-5.315-.817-10.552 12.707-10.345 29.674-12.161 45.292-15.773 5.995-17.887 9.324-35.828 17.5-53.045h.001Z" style="fill:var(--quiet-paper-color, #fff);fill-rule:nonzero"/><path d="M4803.05 324.826c46.77-10.687 95.643-16.085 143.084-23.368l255.087-39.232 192.171-29.528c35.591-5.45 72.962-13.743 108.863-14.797 15.541-.458 31.517 3.991 45.361 10.781 29.299 14.332 47.749 38.488 57.918 69.142 18.865 57.002 21.193 127.16 30.423 187.135 10.722 69.428 31.23 151.934 32.811 221.061.503 21.602-3.336 43.216-13.32 62.523-15.218 29.453-39.855 46.741-70.809 56.757-128.158 24.717-259.277 40.154-388.336 60.171-88.484 13.723-191.358 36.014-279.465 42.404-17.771 1.287-36.878-.186-53.845-5.878-26.463-8.874-51.113-32.981-63.253-57.827-15.409-31.545-64.667-365.077-68.244-417.569-1.168-17.079-1.829-35.548 3.847-51.936 11.628-33.568 36.746-54.604 67.707-69.839Z" style="fill:var(--quiet-strident, #000);fill-rule:nonzero"/><path d="M4817.6 360.084c132.414-26.269 268.751-41.545 402.326-61.914 79.278-12.091 187.999-35.505 264.917-40.546 15.724-1.034 32.799.555 47.622 6.046 15.017 5.577 21.389 13.502 27.955 27.714 18.892 40.64 66.125 354.392 69.816 412.468.908 13.906 1.326 28.163-4.128 41.297-8.003 19.252-21.86 31.876-41.065 39.143-24.041 7.582-51.512 9.617-76.488 13.465l-142.042 21.81c-147.483 22.622-295.558 49.063-443.544 67.485-12.3 1.531-26.261 4.121-38.407 1.035-18.781-4.775-34.529-14.888-44.521-31.859-6.238-10.597-10.195-22.814-12.836-34.772-11.185-50.616-15.387-104.822-23.5-156.231-11.237-71.197-26.903-144.299-33-216.024-1.187-13.958-1.715-29.515 2.366-43.086 6.815-22.686 24.593-35.72 44.529-46.031Z" style="fill:var(--quiet-paper-color, #fff);fill-rule:nonzero"/><path d="M4896.43 456.749c127.131-24.69 257.646-39.93 385.857-59.274 42.679-6.437 112.634-24.449 152.885-22.517 10.895.53 14.691 2.274 21.936 9.992.4 2.61 1.133 5.918.684 8.602-1.602 9.336-7.542 11.322-14.783 15.743-86.766 18.45-178.042 27.831-265.837 41.334-90.845 13.976-183.683 32.957-275.206 40.701-8.268-3.842-9.16-3.845-13.845-12.227-.097-9.972 2.419-14.461 8.309-22.354ZM4901.78 604.977c61.005-11.754 123.234-19.233 184.639-28.664 34.836-5.349 70.091-13.874 105.128-17.026 15.085-1.366 26.039-1.93 37.979 8.074.662 2.555 1.682 5.671 1.373 8.383-1.241 10.208-6.42 12.44-14.22 17.643l-212.766 33.067c-27.371 4.191-66.266 15.034-93.445 12.238-7.283-.754-9.017-4.131-13.244-9.66-1.529-10.046-.032-15.076 4.556-24.055ZM4939.65 742.654c42.782-7.533 281.829-49.982 305.497-41.095 7.152 2.678 7.101 4.405 9.742 11.018-.869 2.894-1.691 6.096-3.281 8.711-6.847 11.134-13.42 11.353-25.031 14.426-42.628 6.764-278.824 50.043-300.537 39.033-3.049-5.605-4.629-9.16-2.559-15.617 3.083-9.621 8.012-11.711 16.168-16.476h.001ZM7413.31 1651.42c-127.924-18.891-257.175-32.333-385.573-47.938-74.907-9.103-151.093-22.753-226.233-28.185-16.315-1.176-34.115-1.164-50.021 3.161-27.177 7.402-51.611 30.587-64.347 55.277-14.997 29.067-61.393 434.697-64.216 493.436-.631 13.185-1.019 26.65 3.819 39.16 12.435 32.166 36.819 48.375 67.165 61.885 136.156 21.179 274.54 34.424 411.399 50.935 71.911 8.675 146.949 24.328 218.952 27.447 19.297.834 39.087-1.201 56.858-9.253 23.484-10.643 43.583-31.382 52.655-55.555 12.786-34.053 58.585-419.568 60.969-472.602.862-19.181 1.188-41.422-7.325-59.098-15.302-31.753-41.937-47.511-74.102-58.67Z" style="fill:var(--quiet-strident, #000);fill-rule:nonzero"/><path d="M7424.24 1694.6c-56.584-10.411-115.125-15.307-172.268-22.324l-310.236-38.164-71.096 577.56 38.189 4.741 291.322 36.239c43.582 5.441 102.924 19.952 146.543 14.629 16.985-2.072 34.655-10.42 44.858-24.606 8.324-11.569 11.834-27.693 14.252-41.537 8.349-47.795 57.305-445.343 52.624-466.598-4.469-20.283-17.9-29.488-34.188-39.94Z" style="fill:var(--quiet-paper-color, #fff);fill-rule:nonzero"/><path d="m7312.91 2109.82-229.806-28.935c-28.805-3.58-68.377-13.371-96.857-10.254-8.658.945-10.453 4.595-15.119 11.009-1.566 9.437-1.311 13.72 2.644 22.479a482.637 482.637 0 0 0 20.25 3.313l200.159 25.702c30.899 3.925 68.353 12.611 99.24 10.786 9.367-.555 10.877-1.593 18.036-7.06 3.944-9.877 3.138-16.699 1.453-27.04ZM7350.39 1798.94a465.471 465.471 0 0 0-16.977-2.647c-39.239-5.258-302.211-43.174-319.871-37.636-2.015.631-5.949 4.546-7.821 5.974-3.741 10.152-2.715 16.265-.682 26.757 50.379 9.427 102.739 13.684 153.649 20.129 55.336 7.002 111.558 16.362 167.151 20.297 11.054.78 16.046.302 24.441-7.086 3.263-9.833 2.552-15.817.11-25.788ZM7328.22 1955.61c-45.814-6.744-195.471-31.867-231.625-25.822-9.208 1.543-11.351 4.29-16.145 11.865-.238 9.051 1.308 12.62 6.342 20.065 40.212 7.815 195.487 31.747 229.491 28.391 9.775-.963 11.397-3.934 16.887-11.132 1.026-9.744-.797-14.593-4.95-23.367Z" style="fill:var(--quiet-strident, #000);fill-rule:nonzero"/><path d="M6903.71 1629.64a4043.131 4043.131 0 0 0-142.919-16.717c-15.381 7.797-33.898 18.804-39.917 35.886-16.818 47.7-24.153 165.507-30.972 220.849-9.611 78.043-29.701 186.369-29.308 262.469.068 13.72 3.861 24.727 9.356 37.048 33.412 35.246 116.422 32.8 162.734 37.868l71.026-577.403Z" style="fill:var(--quiet-paper-color, #fff);fill-rule:nonzero"/><path d="M6821.75 1720.81a30.644 30.644 0 0 0-2.393-1.295c-.41-.195-.823-.382-1.239-.559a26.46 26.46 0 0 0-1.267-.5 23.794 23.794 0 0 0-1.287-.442 23.2 23.2 0 0 0-1.305-.377 28.199 28.199 0 0 0-4.007-.761c-.45-.056-.902-.099-1.355-.129-.452-.03-.906-.051-1.358-.063a34.318 34.318 0 0 0-1.361.003c-.451.011-.904.032-1.358.065a27.647 27.647 0 0 0-2.701.329 28.845 28.845 0 0 0-3.964.959c-.43.14-.857.29-1.283.448a32.31 32.31 0 0 0-2.503 1.067c-.409.199-.812.408-1.211.627-.398.215-.791.442-1.18.677a27.483 27.483 0 0 0-2.25 1.523c-.365.271-.722.55-1.073.837a30.19 30.19 0 0 0-2.019 1.827 27.823 27.823 0 0 0-1.834 2.009c-.289.349-.569.703-.844 1.063-.271.364-.535.734-.792 1.108-.257.375-.505.756-.74 1.142-.237.387-.465.78-.684 1.178a29.189 29.189 0 0 0-1.202 2.441 28.146 28.146 0 0 0-.96 2.542 28.168 28.168 0 0 0-.982 3.957c-.08.447-.147.896-.203 1.345-.059.453-.104.906-.138 1.359-.036.452-.061.904-.073 1.356a28.118 28.118 0 0 0 .167 4.074c.049.453.108.904.179 1.35.074.447.157.893.247 1.339.093.443.197.883.309 1.323a27.56 27.56 0 0 0 .811 2.598c.153.426.316.848.492 1.266.175.422.36.837.556 1.245.192.41.395.815.611 1.214a28.292 28.292 0 0 0 1.39 2.338c.253.378.513.75.779 1.117a30.297 30.297 0 0 0 2.638 3.112c.316.322.641.637.975.946.33.308.67.61 1.018.904.345.292.698.576 1.057.853a30.15 30.15 0 0 0 3.242 2.156 29.71 29.71 0 0 0 3.501 1.695 29.62 29.62 0 0 0 3.701 1.207 28.856 28.856 0 0 0 11.593.516 28.257 28.257 0 0 0 5.632-1.5 29.794 29.794 0 0 0 1.798-.754 28.294 28.294 0 0 0 1.742-.872c.57-.308 1.129-.636 1.68-.984a29.678 29.678 0 0 0 3.136-2.304c.496-.421.978-.856 1.446-1.305a29.403 29.403 0 0 0 3.76-4.462c.366-.538.712-1.086 1.038-1.644.331-.561.64-1.134.929-1.715a28.02 28.02 0 0 0 1.499-3.591c.211-.617.399-1.239.565-1.867a27.04 27.04 0 0 0 .436-1.898c.126-.636.228-1.278.308-1.923.081-.645.14-1.292.175-1.94.036-.647.052-1.295.046-1.944-.008-.651-.037-1.3-.087-1.949a30.87 30.87 0 0 0-.22-1.935 27.55 27.55 0 0 0-.352-1.915 28.06 28.06 0 0 0-.481-1.888 27.157 27.157 0 0 0-.604-1.85 27.55 27.55 0 0 0-.729-1.805 30.093 30.093 0 0 0-.851-1.753 27.127 27.127 0 0 0-.965-1.692 28.524 28.524 0 0 0-1.081-1.621 27.093 27.093 0 0 0-1.185-1.543 28.934 28.934 0 0 0-1.29-1.458 28.068 28.068 0 0 0-2.856-2.642c-.507-.41-1.026-.8-1.557-1.175a29.588 29.588 0 0 0-1.632-1.06ZM6804.96 1885.85a30.223 30.223 0 0 0-1.485-1.179 30.373 30.373 0 0 0-1.56-1.075 29.29 29.29 0 0 0-3.314-1.829 27.481 27.481 0 0 0-1.741-.743 28.527 28.527 0 0 0-3.617-1.139 29.715 29.715 0 0 0-3.729-.646 27.344 27.344 0 0 0-1.892-.138 29.108 29.108 0 0 0-1.892-.01 27.753 27.753 0 0 0-3.773.358 30.238 30.238 0 0 0-3.69.851 29.61 29.61 0 0 0-3.547 1.336 29.757 29.757 0 0 0-3.335 1.797c-.535.335-1.058.688-1.57 1.06a27.695 27.695 0 0 0-2.915 2.42 28.24 28.24 0 0 0-2.571 2.784 27.894 27.894 0 0 0-2.177 3.101 28.167 28.167 0 0 0-1.745 3.362 28.793 28.793 0 0 0-1.288 3.56c-.172.61-.326 1.222-.462 1.838a28.26 28.26 0 0 0-.55 3.751 28.468 28.468 0 0 0-.054 3.786 29.693 29.693 0 0 0 .449 3.764 27.44 27.44 0 0 0 .949 3.669c.197.602.414 1.193.651 1.776a27.711 27.711 0 0 0 1.656 3.412c.31.548.641 1.086.992 1.615.348.525.713 1.039 1.095 1.543.383.504.782.993 1.2 1.469.413.476.843.937 1.289 1.383.45.449.912.882 1.387 1.299a27.885 27.885 0 0 0 2.577 2.012c.377.261.761.513 1.15.756.39.243.784.476 1.185.698a30.137 30.137 0 0 0 2.467 1.225 28.324 28.324 0 0 0 2.573.977 25.807 25.807 0 0 0 2.656.727 27.827 27.827 0 0 0 2.711.47c.456.056.913.102 1.373.136.455.034.913.055 1.371.064a27.582 27.582 0 0 0 5.486-.389c.454-.077.905-.163 1.355-.259.446-.099.892-.209 1.335-.327a30.956 30.956 0 0 0 2.622-.85c.43-.162.853-.333 1.273-.514.423-.185.84-.378 1.252-.579.41-.205.815-.418 1.217-.64.403-.221.8-.453 1.191-.695a29.073 29.073 0 0 0 2.266-1.56 29.713 29.713 0 0 0 2.107-1.772c.338-.311.666-.631.987-.96.321-.329.635-.665.941-1.005.304-.344.6-.695.89-1.053.29-.358.569-.722.838-1.092.269-.371.531-.748.787-1.132.251-.385.495-.774.728-1.168.233-.397.454-.797.668-1.203.217-.405.421-.815.614-1.233.197-.417.381-.836.552-1.26.175-.425.339-.854.493-1.286.155-.435.297-.872.426-1.313a27.504 27.504 0 0 0 .668-2.672c.087-.449.165-.901.234-1.356.068-.455.124-.909.167-1.364.046-.457.081-.916.102-1.377.026-.456.038-.915.037-1.374.002-.46-.007-.919-.029-1.379-.02-.456-.052-.914-.097-1.373a24.288 24.288 0 0 0-.162-1.365 28.375 28.375 0 0 0-.225-1.361c-.09-.448-.189-.897-.299-1.345a23.276 23.276 0 0 0-.356-1.329 28.087 28.087 0 0 0-.908-2.602 31.781 31.781 0 0 0-.545-1.262 25.3 25.3 0 0 0-.609-1.237 28.245 28.245 0 0 0-2.167-3.511 24.294 24.294 0 0 0-.835-1.095 27.11 27.11 0 0 0-1.82-2.066 28.924 28.924 0 0 0-.982-.967 29.058 29.058 0 0 0-1.026-.915ZM6785.27 2039.93c-.34-.309-.687-.612-1.041-.907a32.448 32.448 0 0 0-1.086-.857 30.54 30.54 0 0 0-1.126-.799 34.052 34.052 0 0 0-1.16-.742 34.076 34.076 0 0 0-1.201-.687 28.404 28.404 0 0 0-1.232-.623 28 28 0 0 0-6.53-2.191c-.449-.09-.902-.17-1.359-.238a27.51 27.51 0 0 0-5.507-.293c-.458.018-.918.05-1.377.095-.459.041-.915.095-1.372.162-.455.067-.908.144-1.36.23-.451.09-.902.189-1.35.297a33.14 33.14 0 0 0-1.329.366c-.442.132-.88.275-1.315.43a24.676 24.676 0 0 0-2.552 1.047 26.326 26.326 0 0 0-2.441 1.292 28.555 28.555 0 0 0-5.445 4.217 28.905 28.905 0 0 0-2.714 3.125c-.274.37-.541.744-.799 1.125-.255.385-.503.773-.743 1.167-.238.392-.465.793-.681 1.201-.22.405-.429.814-.629 1.231a30.277 30.277 0 0 0-1.063 2.543c-.158.434-.303.872-.436 1.313-.135.439-.261.883-.375 1.328a34.52 34.52 0 0 0-.308 1.347 30.209 30.209 0 0 0-.41 2.732c-.047.458-.083.917-.108 1.376-.021.461-.035.92-.037 1.38a27.311 27.311 0 0 0 .129 2.757 26.132 26.132 0 0 0 .397 2.731c.086.452.185.902.297 1.351.109.448.229.891.362 1.329a27.789 27.789 0 0 0 1.481 3.867c.194.417.4.83.618 1.238a26.889 26.889 0 0 0 1.41 2.37 27.495 27.495 0 0 0 2.537 3.27c.307.342.624.677.948 1.004a28.963 28.963 0 0 0 2.041 1.857c.355.292.717.576 1.087.851.368.276.744.542 1.125.8.381.255.768.501 1.161.738.392.24.791.469 1.196.685.408.218.819.426 1.232.624.417.2.836.386 1.259.561.425.179.853.346 1.285.503.433.157.87.302 1.308.434.439.137.882.26 1.328.372.447.114.896.216 1.347.307.448.089.9.169 1.355.241.454.068.912.127 1.372.174.458.043.915.078 1.372.102.46.025.92.038 1.379.037.46.003.919-.007 1.379-.03.459-.018.918-.05 1.377-.095a35.34 35.34 0 0 0 1.367-.162 29.99 29.99 0 0 0 2.706-.533c.448-.108.891-.229 1.329-.36.442-.135.88-.279 1.315-.43.432-.155.861-.319 1.289-.493a28.357 28.357 0 0 0 2.497-1.173c.404-.215.804-.439 1.202-.674a28.904 28.904 0 0 0 2.295-1.523 29.53 29.53 0 0 0 3.141-2.691 28.052 28.052 0 0 0 1.857-2.04 25.648 25.648 0 0 0 1.65-2.207 30.033 30.033 0 0 0 1.428-2.361c.218-.405.426-.815.624-1.232.2-.413.388-.833.567-1.258a29.027 29.027 0 0 0 .936-2.593c.137-.439.26-.883.372-1.329.115-.446.216-.893.306-1.342a26.117 26.117 0 0 0 .416-2.727 30.187 30.187 0 0 0 .149-2.755c-.001-.46-.01-.919-.03-1.378-.022-.46-.054-.918-.095-1.377a33.942 33.942 0 0 0-.163-1.372 31.981 31.981 0 0 0-.23-1.356 28.061 28.061 0 0 0-1.578-5.277c-.174-.427-.358-.85-.553-1.269a27.778 27.778 0 0 0-.618-1.232c-.215-.407-.44-.809-.675-1.203a29.932 29.932 0 0 0-1.517-2.298 27.113 27.113 0 0 0-.845-1.091 26.381 26.381 0 0 0-1.846-2.051 22.986 22.986 0 0 0-.992-.958ZM7093.01 2667.68c.799-.096 1.6-.227 2.401-.288 26.27-1.991 55.163 3.551 75.867 20.623 28.643 23.608 38.157 61.422 40.981 96.882l14.563 197.676c3.374 44.992 11.129 94.659 5.696 139.498-2.636 21.759-8.494 42.557-23.207 59.3-17.223 19.608-42.327 33.411-67.603 39.352-55.647 13.078-170.609 14.206-234.542 18.677l-535.154 37.315c-29 .704-54.794-5.471-78.052-23.638-32.312-25.24-39.493-58.763-43.696-97.616-6.826-63.052-9.627-127.086-14.086-190.368-3.631-51.633-13.775-113.157-5.998-164.389 2.227-14.675 9.18-27.828 18.541-39.197 11.389-13.84 28.886-29.75 46.617-34.147 57.549-14.286 170.313-14.84 236.291-19.338 186.99-12.751 374.788-22.884 561.379-40.342h.002Z" style="fill:var(--quiet-strident, #000);fill-rule:nonzero"/><path d="M6276.57 2936.21c109.446-4.291 219.278-14.728 328.606-22.383l572.753-40.595c4.638 58.863 24.502 205.733 13.262 254.81-2.764 12.059-8.531 20.397-15.904 29.956-13.257 11.168-24.385 18.707-41.93 21.945-39.434 7.27-82.952 7.213-123.018 10.042l-231.887 16.38-266.126 18.682c-48.821 3.409-100.429 10.49-149.304 7.853-14.544-.784-42.593-1.615-52.045-13.801-27.095-34.948-37.204-232.832-34.407-282.89v.001ZM6328.02 2762.05c248.509-15.143 496.68-38.078 745.204-52.292 19.395-1.109 57.884-3.887 72.952 9.866 30.296 27.646 26.634 73.611 28.645 111.293l-48.736 3.359-853.986 60.021c-3.408-31.543-14.482-81.023 4.922-108.431 13.04-18.415 30.303-21.173 50.998-23.817l.001.001Z" style="fill:var(--quiet-paper-color, #fff);fill-rule:nonzero"/><path d="M7902.7 1462.22a856.354 856.354 0 0 1 22.541-.733c134.889-1.806 270.011-.318 404.922-.334 76.089-.011 160.614-7.136 235.764 4.328 26.687 4.066 50.442 10.703 69.907 30.36 30.399 30.696 33.234 74.002 33.266 114.729 129.994 27.068 264.045 44.225 395.243 64.975 55.927 8.846 117.648 13.721 171.633 30.584 15.939 4.981 31.194 14.448 43.046 26.209 20.877 20.708 30.393 48.202 30.537 77.262.392 79.742-30.744 196.742-44.327 278.333-14.4 86.485-21.493 188.48-45.87 271.318-6.787 23.054-15.649 39.176-32.39 56.314-26.013 17.231-46.009 29.476-78.192 29.528-95.91.166-236.289-31.508-335.491-47.84-78.696-12.961-164.035-20.974-240.512-42.585-16.831-4.757-30.78-10.237-43.264-22.97-33.445-34.12-31.874-79.545-30.812-123.882-126.256-3.138-253.366-.016-379.706.006-53.039.01-109.009 3.679-161.623-1.806-17.847-1.858-33.76-6.058-49.604-14.581-29.336-15.78-53.39-42.955-62.592-75.276-8.841-31.068-8.192-486.305-4.151-538.665 1.561-20.208 6.142-40.078 16.231-57.812 18.451-32.443 50.677-48.165 85.444-57.462Z" style="fill:var(--quiet-strident, #000);fill-rule:nonzero"/><path d="M7895.99 1509.92c129.749-3.01 259.913-.137 389.726-.286 83.602-.096 169.429-4.975 252.818-.425 17.056.934 36.059 2.75 52.079 9.048 12.664 4.98 16.72 7.752 21.95 20.633 6.987 17.205 10.046 38.242 11.288 56.661 4.105 61.051 6.781 503.625-9.021 534.661-8.888 17.453-27.425 25.211-44.766 31.338-119.597 4.588-240.676.887-360.421.961-61.636.043-260.353 9.308-308.847-6.048-19.742-6.255-39.107-19.63-48.287-38.676-7.759-16.114-9.499-36.376-10.482-54.006-4.078-73.12 1.067-148.232.765-221.564-.324-79.467-6.256-162.496-.829-241.605a178.892 178.892 0 0 1 8.538-44.188c8.316-24.744 23.23-35.486 45.489-46.504Z" style="fill:var(--quiet-paper-color, #fff);fill-rule:nonzero"/><path d="m8668.44 1657.77 353.072 56.862c59.702 9.702 124.476 15.876 182.708 31.748 16.763 4.566 35.358 11.606 48.893 22.779 8.84 7.295 10.396 12.116 11.134 23.171 3.648 54.282-14.623 118.678-24.149 172.232l-43.965 249.84c-7.311 41.74-9.132 86.768-19.752 127.594-3.722 14.299-9.945 28.937-20.071 39.876-15.026 16.221-32.219 18.749-52.944 20.172l-362.379-58.593c-63.489-10.253-130.382-17.278-192.644-33.096-10.391-2.639-20.745-5.622-28.593-13.407-22.206-22.015-18.271-60.24-18.043-88.976 46.281-.424 98.587 2.389 133.828-33.212 16.672-16.838 25.551-43.041 29.426-65.959 8.751-51.812 3.712-110.421 3.59-163.008l-.111-288.023Z" style="fill:var(--quiet-paper-color, #fff);fill-rule:nonzero"/><path d="M6353.57 313.086c66.465 7.339 133.927 22.253 199.953 33.656 57.773 9.976 118.905 16.734 175.345 31.818 16.784 4.482 32.997 10.764 47.956 19.667 23.853 14.199 39.573 34.301 46.367 61.378 11.069 44.117-7.714 161.669-31.768 201.167-21.145 34.717-53.333 47.637-91.256 56.734-61.175 1.214-164.871-25.311-228.402-36.69-49-8.778-100.808-13.974-148.853-26.581-18.255-4.79-36.03-11.831-51.494-22.81-23.164-16.436-37.746-40.088-42.47-68.051-7.802-46.212 14.156-166.156 41.585-204.104 20.2-27.95 49.726-40.982 83.037-46.184Z" style="fill:var(--quiet-strident, #000);fill-rule:nonzero"/><path d="M6345.88 354.002c53.557 6.155 376.567 59.33 406.373 74.784 14.832 7.689 23.412 18.95 28.496 34.769 14.14 44.001-4.868 135.875-25.936 175.946-11.805 22.458-26.565 29.21-49.445 36.46-45.838-1.216-344.803-51.763-388.478-68.777-20.706-8.068-36.852-18.262-45.436-39.947-11.9-30.038 7.02-136.675 19.8-167.009 10.95-26.006 30.141-36.129 54.626-46.226Z" style="fill:var(--quiet-paper-color, #fff);fill-rule:nonzero"/><path d="M6511.49 484.757a33.312 33.312 0 0 1 2.175-.698 33.74 33.74 0 0 1 4.471-.961 33.686 33.686 0 0 1 4.56-.353c.763-.011 1.524.006 2.286.049.763.042 1.524.109 2.282.204.756.091 1.51.209 2.259.353a32.59 32.59 0 0 1 2.228.502c.74.191 1.47.408 2.192.65.724.243 1.439.509 2.146.796a34.157 34.157 0 0 1 7.911 4.544 35.697 35.697 0 0 1 3.436 3.019 33.293 33.293 0 0 1 1.555 1.679 33.677 33.677 0 0 1 2.769 3.641 34 34 0 0 1 1.195 1.95c.377.665.732 1.34 1.064 2.024.331.687.639 1.386.923 2.092.288.707.55 1.425.785 2.15a34.64 34.64 0 0 1 1.668 8.974c.038.764.05 1.526.037 2.287a37.811 37.811 0 0 1-.111 2.286 34.961 34.961 0 0 1-.269 2.274 33.462 33.462 0 0 1-.981 4.466 31.038 31.038 0 0 1-.708 2.177 36.477 36.477 0 0 1-.853 2.12 34.884 34.884 0 0 1-.997 2.06 30.399 30.399 0 0 1-1.129 1.996 35.587 35.587 0 0 1-2.639 3.734c-.479.59-.979 1.166-1.497 1.726-.523.558-1.061 1.1-1.615 1.622a34.06 34.06 0 0 1-3.532 2.907 33.998 33.998 0 0 1-3.886 2.412c-.673.358-1.357.695-2.051 1.008a35.25 35.25 0 0 1-2.118.868c-.717.264-1.441.507-2.17.724-.532.158-1.065.302-1.602.435a32.14 32.14 0 0 1-1.617.354c-.54.108-1.083.201-1.631.281-.548.078-1.097.145-1.647.199-.547.052-1.096.092-1.649.119a35.256 35.256 0 0 1-4.965-.118 39.836 39.836 0 0 1-1.644-.2 39.348 39.348 0 0 1-1.636-.281 29.763 29.763 0 0 1-1.616-.359 33.765 33.765 0 0 1-3.173-.944 38.342 38.342 0 0 1-1.551-.584c-.512-.21-1.017-.43-1.518-.661a37.308 37.308 0 0 1-2.935-1.54 32.205 32.205 0 0 1-2.77-1.814 31.757 31.757 0 0 1-2.586-2.068 34.166 34.166 0 0 1-3.473-3.55 34.97 34.97 0 0 1-1.042-1.291 36.43 36.43 0 0 1-1.887-2.723 33.22 33.22 0 0 1-.84-1.424c-.272-.483-.53-.972-.776-1.466-.246-.495-.48-.994-.704-1.499a38.568 38.568 0 0 1-.625-1.536 33.172 33.172 0 0 1-1.031-3.149 35.862 35.862 0 0 1-.404-1.605 46.267 46.267 0 0 1-.321-1.627 35.982 35.982 0 0 1-.407-3.287 35.34 35.34 0 0 1-.094-3.313 34.619 34.619 0 0 1 .233-3.302 31.235 31.235 0 0 1 .546-3.274c.118-.536.247-1.072.389-1.605.144-.536.3-1.067.467-1.592.167-.526.35-1.047.546-1.564.192-.517.398-1.031.617-1.54.219-.506.449-1.007.689-1.502a32.335 32.335 0 0 1 1.601-2.904 32.305 32.305 0 0 1 1.87-2.735c.333-.441.677-.874 1.032-1.298.352-.425.715-.841 1.091-1.247.375-.404.759-.8 1.153-1.191.393-.386.794-.765 1.204-1.135a35.084 35.084 0 0 1 3.93-3.036c.46-.307.93-.602 1.407-.885.474-.279.954-.55 1.442-.81.486-.262.979-.509 1.479-.744.5-.234 1.004-.458 1.514-.67.513-.212 1.028-.41 1.548-.597ZM6397.44 464.974a36.286 36.286 0 0 1 3.186-.84 33.254 33.254 0 0 1 1.624-.301 34.474 34.474 0 0 1 3.28-.368c.546-.03 1.095-.05 1.647-.056a33.615 33.615 0 0 1 3.296.125 36.25 36.25 0 0 1 1.638.177c.544.074 1.087.163 1.627.263a33.085 33.085 0 0 1 3.209.767 33.73 33.73 0 0 1 3.119 1.078c.508.206 1.013.423 1.514.655.501.228.994.469 1.48.726a32.19 32.19 0 0 1 2.847 1.667c.46.3.912.612 1.356.936.444.324.879.659 1.308 1.004.43.342.851.695 1.263 1.062a36.544 36.544 0 0 1 2.354 2.311c.371.404.734.816 1.088 1.238.35.423.693.855 1.028 1.293.33.438.651.885.961 1.339.308.454.605.918.893 1.388.288.469.563.944.824 1.429.265.483.516.972.756 1.466.238.498.465 1 .682 1.506.212.506.414 1.017.605 1.534.187.514.364 1.034.528 1.56a34.004 34.004 0 0 1 .824 3.194c.114.54.213 1.081.297 1.623a35.584 35.584 0 0 1 .346 3.281 36.516 36.516 0 0 1 .024 3.301 33.86 33.86 0 0 1-.112 1.644 39.174 39.174 0 0 1-.189 1.64 32.817 32.817 0 0 1-.274 1.626c-.105.54-.221 1.078-.349 1.614a34.188 34.188 0 0 1-.431 1.588 34.18 34.18 0 0 1-.511 1.569 28.837 28.837 0 0 1-.583 1.547 36.632 36.632 0 0 1-.66 1.513 34.004 34.004 0 0 1-3.357 5.668c-.326.442-.662.876-1.008 1.303-.348.428-.706.846-1.072 1.256-.368.407-.746.807-1.132 1.198a32.12 32.12 0 0 1-1.192 1.143c-.403.371-.817.732-1.241 1.082-.424.354-.857.695-1.298 1.022-.441.33-.888.648-1.342.956a34.496 34.496 0 0 1-4.296 2.454c-.496.235-.997.459-1.504.673-.509.211-1.022.411-1.537.599-.519.186-1.04.36-1.565.523a39.49 39.49 0 0 1-1.577.443 35.035 35.035 0 0 1-3.216.65 33.414 33.414 0 0 1-3.255.329c-.547.032-1.094.047-1.642.048a28.03 28.03 0 0 1-1.638-.035 32.012 32.012 0 0 1-1.638-.111 34.078 34.078 0 0 1-4.843-.82 32.609 32.609 0 0 1-3.139-.939 27.662 27.662 0 0 1-1.531-.58 27.181 27.181 0 0 1-1.502-.658c-.498-.23-.987-.473-1.47-.729-.483-.255-.96-.522-1.432-.799a33.775 33.775 0 0 1-4.034-2.805 36.86 36.86 0 0 1-1.246-1.065 31.603 31.603 0 0 1-2.331-2.302 33.065 33.065 0 0 1-2.095-2.522 37.59 37.59 0 0 1-.954-1.333 37.001 37.001 0 0 1-.889-1.377 32.866 32.866 0 0 1-1.561-2.881 31.812 31.812 0 0 1-1.28-3.022 32.49 32.49 0 0 1-.973-3.128 32.845 32.845 0 0 1-.881-4.837 31.444 31.444 0 0 1-.19-3.268c-.004-.549.006-1.096.025-1.645.023-.543.059-1.087.107-1.634.05-.543.111-1.084.185-1.626.075-.542.164-1.081.268-1.617a32.686 32.686 0 0 1 .763-3.189c.155-.524.322-1.045.498-1.562.179-.516.372-1.029.576-1.538a36.77 36.77 0 0 1 .648-1.503 34.588 34.588 0 0 1 2.378-4.299c.3-.458.61-.909.93-1.352.321-.445.652-.88.993-1.306a36.096 36.096 0 0 1 2.173-2.45c.384-.391.776-.774 1.177-1.145a34.935 34.935 0 0 1 2.509-2.109c.434-.331.877-.65 1.328-.959.451-.308.909-.606 1.374-.895.467-.284.939-.56 1.417-.826a36.444 36.444 0 0 1 2.946-1.436c.503-.214 1.01-.417 1.519-.609.512-.19 1.031-.369 1.552-.535ZM6641.93 504.269a30.615 30.615 0 0 1 3.16.162 31.532 31.532 0 0 1 3.129.459 30.07 30.07 0 0 1 1.542.342c.514.123 1.023.26 1.531.41.504.153 1.004.316 1.502.489.499.176.994.361 1.484.556a32.167 32.167 0 0 1 2.87 1.328c.467.243.93.497 1.386.761.457.265.908.542 1.35.831a33.215 33.215 0 0 1 6.065 5.05 30.5 30.5 0 0 1 1.058 1.176 31.054 31.054 0 0 1 1.943 2.491c.305.432.599.871.884 1.314.282.447.554.898.817 1.355a34.057 34.057 0 0 1 1.438 2.818c.217.483.421.969.613 1.458a32.776 32.776 0 0 1 1.423 4.526 29.878 29.878 0 0 1 .582 3.11 30.908 30.908 0 0 1 .286 3.152 29.953 29.953 0 0 1-.019 3.165 28.731 28.731 0 0 1-.121 1.576c-.05.525-.114 1.05-.192 1.574a43.53 43.53 0 0 1-.272 1.554 34.637 34.637 0 0 1-.762 3.072 34.333 34.333 0 0 1-.494 1.504 25.97 25.97 0 0 1-.562 1.48c-.197.489-.407.972-.628 1.45-.224.479-.457.953-.7 1.423a32.113 32.113 0 0 1-1.601 2.73 27.25 27.25 0 0 1-.895 1.302 31.84 31.84 0 0 1-1.968 2.476c-.35.397-.707.787-1.072 1.168-.367.378-.743.747-1.128 1.107-.381.365-.773.718-1.175 1.058-.403.344-.813.679-1.228 1.004a36.272 36.272 0 0 1-2.587 1.817 32.5 32.5 0 0 1-4.182 2.243c-.479.217-.966.422-1.457.613a32.977 32.977 0 0 1-4.53 1.413c-.514.122-1.03.23-1.545.325-.521.098-1.042.18-1.565.251-.521.072-1.046.132-1.571.177-.744.065-1.486.104-2.228.119-.746.018-1.493.008-2.24-.026a33.082 33.082 0 0 1-4.434-.513 32.092 32.092 0 0 1-4.332-1.101 30.391 30.391 0 0 1-2.1-.767 30.93 30.93 0 0 1-2.04-.906 31.58 31.58 0 0 1-3.88-2.212 30.58 30.58 0 0 1-1.823-1.299 33.482 33.482 0 0 1-1.724-1.415 35.222 35.222 0 0 1-1.633-1.529 36.81 36.81 0 0 1-1.522-1.636 36.49 36.49 0 0 1-1.406-1.736 33.035 33.035 0 0 1-2.45-3.734c-.366-.65-.711-1.31-1.035-1.983a34.153 34.153 0 0 1-.895-2.047 31.328 31.328 0 0 1-.757-2.104 31.662 31.662 0 0 1-.611-2.15 33.885 33.885 0 0 1-.788-4.394 37.984 37.984 0 0 1-.171-2.233 32.552 32.552 0 0 1-.015-2.231 32.512 32.512 0 0 1 .407-4.448c.118-.736.261-1.467.43-2.194.167-.727.36-1.447.576-2.16.218-.715.458-1.421.72-2.118a34.378 34.378 0 0 1 1.859-4.06c.354-.657.73-1.3 1.128-1.929a32.362 32.362 0 0 1 2.638-3.606c.479-.574.977-1.129 1.492-1.665a31.449 31.449 0 0 1 1.602-1.559 31.363 31.363 0 0 1 3.499-2.773 33.432 33.432 0 0 1 5.868-3.227 33.714 33.714 0 0 1 4.218-1.461 34.395 34.395 0 0 1 2.176-.518c.73-.147 1.466-.268 2.206-.365a31.928 31.928 0 0 1 4.456-.29ZM7968.87 2813.82c48.867 3.226 98.065 11.549 146.722 17.446 36.037 4.367 74.543 5.781 109.827 14.096a99.4 99.4 0 0 1 29.93 12.545c21.574 13.372 38.208 33.672 43.869 58.742a89.355 89.355 0 0 1 1.466 8.758c.173 1.47.31 2.945.41 4.421.098 1.478.161 2.957.188 4.438a91.34 91.34 0 0 1-.286 8.874 89.767 89.767 0 0 1-1.159 8.804 91.537 91.537 0 0 1-2.027 8.643 90.479 90.479 0 0 1-1.33 4.237 86.852 86.852 0 0 1-1.539 4.166 91.322 91.322 0 0 1-3.689 8.078 89.13 89.13 0 0 1-4.469 7.673c-17.231 26.446-42.022 37.4-71.921 43.502-.487.081-.972.169-1.462.235-18.697 2.55-227.613-23.175-251.795-28.808-15.518-3.613-30.336-9.602-43.163-19.19-18.621-13.913-31.564-33.961-34.71-57.171-3.477-25.663 4.222-52.555 19.881-73.069 17.047-22.336 38.028-32.485 65.257-36.42Z" style="fill:var(--quiet-strident, #000);fill-rule:nonzero"/><path d="M7957.99 2844.26c65.748 3.313 132.661 15.09 198.054 23.272-23.572 27.442-45.93 61.923-27.938 98.924 3.905 8.029 11.657 16.211 11.75 25.065l-7.303-.182c-45.491-6.026-139.653-10.338-177.987-24.572-16.73-6.212-31.967-17.819-38.958-34.666-6.439-15.519-5.29-35.085.893-50.537 7.817-19.539 23.014-29.112 41.489-37.304ZM8208.03 2875.49a59.187 59.187 0 0 1 5.96-.042c.993.041 1.984.107 2.975.195a61.5 61.5 0 0 1 5.899.835 60.203 60.203 0 0 1 14.145 4.576 59.632 59.632 0 0 1 7.8 4.361 62.433 62.433 0 0 1 2.446 1.703 61.186 61.186 0 0 1 6.796 5.805c.706.7 1.394 1.418 2.065 2.153a60.207 60.207 0 0 1 5.524 7.021 59.99 59.99 0 0 1 1.607 2.511 61.9 61.9 0 0 1 2.826 5.248 59.762 59.762 0 0 1 2.301 5.5 60.915 60.915 0 0 1 2.406 8.606c.197.974.369 1.954.517 2.939a61.38 61.38 0 0 1 .598 5.931 60.41 60.41 0 0 1-3.446 23.449 56.656 56.656 0 0 1-1.071 2.779c-.38.92-.781 1.83-1.205 2.728a60.13 60.13 0 0 1-2.81 5.257 59.002 59.002 0 0 1-3.311 4.957 58.36 58.36 0 0 1-1.836 2.349 59.56 59.56 0 0 1-1.948 2.258 58.984 58.984 0 0 1-4.217 4.211 58.77 58.77 0 0 1-2.26 1.945 59.98 59.98 0 0 1-9.907 6.601c-.879.468-1.768.914-2.667 1.338-.899.421-1.809.821-2.728 1.2a59.078 59.078 0 0 1-5.613 1.995 60.883 60.883 0 0 1-5.787 1.434c-.974.192-1.953.36-2.938.501a58.918 58.918 0 0 1-5.933.566c-.986.045-1.973.066-2.96.062a63.522 63.522 0 0 1-2.958-.081 56.758 56.758 0 0 1-2.949-.228 61.467 61.467 0 0 1-5.855-.882 58.989 58.989 0 0 1-2.887-.658 58.665 58.665 0 0 1-2.849-.796 58.51 58.51 0 0 1-2.81-.934 56.968 56.968 0 0 1-2.759-1.071 57.173 57.173 0 0 1-2.703-1.205 58.88 58.88 0 0 1-2.643-1.335 62.825 62.825 0 0 1-2.574-1.463 60.835 60.835 0 0 1-7.25-5.116 60.46 60.46 0 0 1-4.383-3.982 61.653 61.653 0 0 1-2.041-2.141 62.327 62.327 0 0 1-1.931-2.243 58.278 58.278 0 0 1-1.82-2.336 58.907 58.907 0 0 1-3.289-4.922 57.844 57.844 0 0 1-1.461-2.574 56.785 56.785 0 0 1-1.334-2.642 59.978 59.978 0 0 1-1.2-2.707 58.927 58.927 0 0 1-2.001-5.572 62.175 62.175 0 0 1-1.446-5.742 57.665 57.665 0 0 1-.51-2.915 58.324 58.324 0 0 1-.367-2.938 58.08 58.08 0 0 1-.225-2.952 62.216 62.216 0 0 1-.08-2.96 63.41 63.41 0 0 1 .067-2.959c.046-.986.116-1.971.211-2.955.094-.981.212-1.96.352-2.938.144-.977.31-1.951.499-2.92.191-.97.405-1.932.642-2.889a61.53 61.53 0 0 1 .778-2.858 62.09 62.09 0 0 1 .92-2.816 62.04 62.04 0 0 1 1.055-2.764 61.537 61.537 0 0 1 2.51-5.36 61.677 61.677 0 0 1 3.022-5.091 60.806 60.806 0 0 1 3.506-4.771 58.897 58.897 0 0 1 1.922-2.25 58.292 58.292 0 0 1 4.164-4.21 61.706 61.706 0 0 1 6.965-5.496 65.139 65.139 0 0 1 2.493-1.602c.844-.512 1.7-1.003 2.568-1.473a65.228 65.228 0 0 1 2.633-1.348 59.421 59.421 0 0 1 2.702-1.215 58.006 58.006 0 0 1 2.753-1.085 59.272 59.272 0 0 1 5.654-1.755 60.17 60.17 0 0 1 11.681-1.822Z" style="fill:var(--quiet-paper-color, #fff);fill-rule:nonzero"/><path d="M7046.14 905.278c82.554-.559 165.794-6.299 248.326-9.69L7760.35 876.3c88.954-3.726 182.916-14.456 271.559-10.189 4.366.172 8.706.609 13.019 1.309a107.445 107.445 0 0 1 25.083 7.309 107.385 107.385 0 0 1 11.691 5.883c28.283 16.223 48.919 44.32 57.286 75.698 8.714 32.692 4.4 64.348-12.693 93.393-21.633 36.768-47.85 51.4-88.193 61.85-222.791 13.865-447.33 18.985-670.423 27.874l-192.253 7.901c-42.329 2.107-87.151 7.744-129.321 3.965-25.884-2.323-50.499-10.811-70.983-27.081a124.512 124.512 0 0 1-9.116-8.036 118.384 118.384 0 0 1-4.245-4.347 120.943 120.943 0 0 1-4.028-4.554 120.567 120.567 0 0 1-3.799-4.744 117.046 117.046 0 0 1-3.561-4.925 125.703 125.703 0 0 1-3.31-5.096 125.278 125.278 0 0 1-3.059-5.258 125.12 125.12 0 0 1-2.79-5.4 122.464 122.464 0 0 1-4.765-11.175 121.414 121.414 0 0 1-1.962-5.755 120.808 120.808 0 0 1-3.062-11.763 126.791 126.791 0 0 1-1.094-5.976 127.076 127.076 0 0 1-.792-6.029c-3.724-33.466 5.385-66.982 26.894-93.071 24.363-29.548 52.703-39.483 89.707-42.805Z" style="fill:var(--quiet-strident, #000);fill-rule:nonzero"/><path d="m7034.48 945.705 732.175-29.305c61.433-2.452 221.268-18.191 271.151-7.759 20.685 4.325 40.21 15.046 51.309 33.63 12.009 20.098 12.488 48.505 5.801 70.575-7.485 24.701-24.368 39.016-46.13 50.661-39.28 11.396-91.495 7.975-132.652 9.634l-243.712 9.75-398.081 16.428c-75.187 3.181-151.505 9.091-226.729 8.423-14.472-.128-28.287-2.915-40.97-10.163-18.059-10.317-30.276-28.695-35.316-48.607a89.59 89.59 0 0 1-2.682-17.482 89.933 89.933 0 0 1-.032-8.858c.136-2.951.419-5.888.849-8.811a89.592 89.592 0 0 1 4.278-17.164 89.844 89.844 0 0 1 3.395-8.178 89.259 89.259 0 0 1 4.186-7.803c12.884-21.208 30.137-29.697 53.16-34.971Z" style="fill:var(--quiet-paper-color, #fff);fill-rule:nonzero"/><path d="M7876.78 2711.74c52.42 5.422 105.284 16.603 157.363 25.232l298.183 49.474 274.84 45.682c50.393 8.383 102.779 14.652 152.383 26.652 17.406 4.211 32.264 10.214 45.545 22.591 17.788 16.59 31.385 47.66 31.05 71.969-.224 15.175-5.598 31.131-8.237 46.159-7.34 42.173-7.682 94.461-39.404 126.977-16.921 17.419-42.366 25.731-66.199 25.747-36.061 3.316-239.928-37.852-288.312-45.905l-382.542-63.817c-65.048-10.716-131.234-18.708-195.766-31.941-15.731-3.23-33.349-7.556-47.063-16.281-20.884-13.286-34.279-36.574-39.13-60.47-7.891-38.823 8.79-145.505 30.818-177.953 18.995-27.971 44.362-37.901 76.471-44.116Z" style="fill:var(--quiet-strident, #000);fill-rule:nonzero"/><path d="M7859.52 2750.77c68.848 7.83 137.846 21.937 206.223 33.422-12.023 68.204-17.442 142.136-36.506 208.475-8.29 4.124-14.332 2.101-23.247 1.098-58.873-9.662-118.559-17.844-176.705-31.197-7.127-6.167-15.263-13.097-19.625-21.566-17.833-34.6 1.008-119.519 13.967-154.216 7.447-19.931 17.17-27.457 35.893-36.016Z" style="fill:var(--quiet-paper-color, #fff);fill-rule:nonzero"/><path d="M7935.5 2842.12c.514.011 1.026.031 1.538.064a28 28 0 0 1 1.534.138c.513.057 1.021.125 1.528.206.507.085 1.013.18 1.514.285.505.106 1.004.223 1.498.352a37.331 37.331 0 0 1 2.943.921c.481.178.958.366 1.432.566.473.201.941.413 1.404.633a32.3 32.3 0 0 1 4.015 2.286c.429.287.848.583 1.26.889.411.306.817.621 1.217.943.397.326.787.661 1.171 1.007.381.341.753.695 1.118 1.058a32.78 32.78 0 0 1 2.086 2.265c.328.396.647.799.957 1.211.311.407.611.823.9 1.247.289.426.57.857.84 1.294.268.438.528.881.779 1.329a31.63 31.63 0 0 1 1.354 2.769c.207.469.401.944.579 1.428.184.481.355.964.514 1.451.16.489.307.982.439 1.48.137.494.26.992.371 1.491a31.292 31.292 0 0 1 .523 3.038c.065.512.116 1.024.152 1.536a31.614 31.614 0 0 1 .09 3.078 33.026 33.026 0 0 1-.07 1.541 28.034 28.034 0 0 1-.137 1.535 36.36 36.36 0 0 1-.212 1.527 31.784 31.784 0 0 1-.289 1.513 29.112 29.112 0 0 1-.357 1.499c-.13.497-.273.99-.43 1.481a31.65 31.65 0 0 1-1.061 2.891c-.202.473-.413.942-.638 1.404-.22.464-.452.921-.696 1.371-.248.454-.503.901-.768 1.341-.266.437-.543.87-.829 1.297-.287.426-.584.845-.89 1.26-.306.411-.623.816-.947 1.212-.327.4-.662.79-1.007 1.17-.344.38-.697.754-1.058 1.119-.361.365-.731.721-1.111 1.067a33.82 33.82 0 0 1-2.368 1.971c-.411.306-.827.605-1.251.894a36.84 36.84 0 0 1-1.298.84c-.435.268-.879.526-1.33.773a31.058 31.058 0 0 1-4.195 1.929c-.48.184-.966.353-1.454.509-.49.16-.981.307-1.476.44a34.929 34.929 0 0 1-3.009.663 30.37 30.37 0 0 1-3.059.373 31.687 31.687 0 0 1-4.354.027 32.747 32.747 0 0 1-4.316-.553 32.542 32.542 0 0 1-2.119-.493 32.588 32.588 0 0 1-6.097-2.323 31.747 31.747 0 0 1-1.909-1.044 30.6 30.6 0 0 1-1.837-1.164 34.015 34.015 0 0 1-1.756-1.291 31.455 31.455 0 0 1-3.23-2.915 32.185 32.185 0 0 1-2.811-3.329 31.179 31.179 0 0 1-2.334-3.672 30.254 30.254 0 0 1-.982-1.945 31.926 31.926 0 0 1-.842-2.007 31.668 31.668 0 0 1-.709-2.06 32.59 32.59 0 0 1-.994-4.237 31.386 31.386 0 0 1-.279-2.162 32.34 32.34 0 0 1-.125-4.35c.029-.727.083-1.451.16-2.174a32.988 32.988 0 0 1 .753-4.284 32.938 32.938 0 0 1 1.324-4.151c.269-.675.558-1.34.867-1.995.312-.659.647-1.303 1.002-1.936a31.01 31.01 0 0 1 2.378-3.642 31.492 31.492 0 0 1 2.847-3.294 30.945 30.945 0 0 1 1.58-1.497 34.016 34.016 0 0 1 1.68-1.386 33.583 33.583 0 0 1 3.62-2.418 30.978 30.978 0 0 1 1.924-1.018 32.289 32.289 0 0 1 14.743-3.272Z" style="fill:var(--quiet-strident, #000);fill-rule:nonzero"/><path d="M8575.95 2870.93c46.097.937 120.809 14.554 166.416 25.489 17.005 4.081 42.444 12.743 51.055 29.226 11.61 22.149-6.607 119.03-14.924 145.356-4.741 14.973-11.189 23.001-25.078 30.083-1.905 3.839-1.07 3.05-4.723 6.119-16.974 14.071-179.793-19.509-211.185-24.802.644-.771 1.373-1.489 1.932-2.311 10.931-14.962 38.457-188.722 36.507-209.16Z" style="fill:var(--quiet-paper-color, #fff);fill-rule:nonzero"/><path d="M8672.73 2964.24c.529.02 1.04.048 1.534.087a33.938 33.938 0 0 1 3.123.406 31.42 31.42 0 0 1 3.026.696c.509.141 1 .291 1.473.452.505.165.992.339 1.461.524a27.824 27.824 0 0 1 2.841 1.255c.461.231.922.473 1.38.727.457.257.913.524 1.368.799.423.274.846.558 1.265.853.451.3.869.606 1.255.917.417.317.832.644 1.244.981.383.333.764.676 1.143 1.03s.756.718 1.132 1.093c.345.367.689.745 1.03 1.133.373.394.713.791 1.022 1.192.338.408.661.821.966 1.241.306.42.595.846.866 1.278.304.436.574.875.814 1.318.27.448.522.902.759 1.36.268.46.502.924.706 1.393.234.473.452.95.654 1.427.171.475.356.96.556 1.453.17.488.322.979.458 1.474.168.5.304.999.409 1.498a25.488 25.488 0 0 1 .618 3.054c.101.514.172 1.029.211 1.546.07.518.11 1.033.119 1.548a26.175 26.175 0 0 1-.072 4.665 13.331 13.331 0 0 1-.164 1.549c-.055.516-.124 1.03-.209 1.541l-.347 1.519a25.212 25.212 0 0 1-.391 1.506c-.145.501-.291.999-.436 1.495-.176.49-.365.974-.57 1.452-.174.488-.365.968-.569 1.444-.234.468-.467.935-.701 1.399l-.698 1.376c-.263.45-.539.894-.831 1.33-.26.441-.536.875-.826 1.302a149.033 149.033 0 0 1-1.91 2.46c-.347.393-.693.779-1.037 1.159a82.572 82.572 0 0 1-2.235 2.162c-.402.343-.801.677-1.199 1.002-.428.319-.841.632-1.235.939a23.5 23.5 0 0 1-1.318.874c-.423.286-.86.561-1.31.824-.45.259-.898.511-1.345.756-.478.237-.953.464-1.428.682-.443.224-.916.431-1.416.623-.47.197-.955.381-1.453.552a38.927 38.927 0 0 1-2.964.9c-.519.119-1.023.232-1.51.34a35.727 35.727 0 0 1-3.079.459c-.539.048-1.062.086-1.567.115-.725.039-1.462.05-2.21.035a28.16 28.16 0 0 1-2.188-.106 30.948 30.948 0 0 1-4.301-.644 29.863 29.863 0 0 1-2.116-.54 29.037 29.037 0 0 1-2.09-.685 32.55 32.55 0 0 1-2.021-.823 34.102 34.102 0 0 1-1.998-.961 34.153 34.153 0 0 1-1.884-1.083 26.998 26.998 0 0 1-1.815-1.211 23.96 23.96 0 0 1-1.749-1.332 22.809 22.809 0 0 1-1.636-1.445 33.428 33.428 0 0 1-1.571-1.556 22.783 22.783 0 0 1-1.414-1.652 34.642 34.642 0 0 1-1.351-1.749 24.007 24.007 0 0 1-1.197-1.831 24.913 24.913 0 0 1-1.09-1.913 39.65 39.65 0 0 1-.938-1.975 24.063 24.063 0 0 1-.787-2.036c-.26-.69-.489-1.387-.684-2.088a43.625 43.625 0 0 1-.538-2.13 25.276 25.276 0 0 1-.392-2.157 49.417 49.417 0 0 1-.247-2.18l-.104-2.194c-.004-.732.024-1.463.083-2.192.027-.729.085-1.458.175-2.184.09-.727.21-1.447.359-2.163a54.74 54.74 0 0 1 .496-2.137c.181-.708.391-1.409.631-2.1.24-.692.494-1.376.764-2.054.299-.673.614-1.337.941-1.992.327-.656.669-1.299 1.025-1.931a24.73 24.73 0 0 1 2.478-3.622c.44-.578.909-1.138 1.405-1.68.467-.549.961-1.078 1.484-1.589a25.484 25.484 0 0 1 1.652-1.474 36.07 36.07 0 0 1 1.683-1.371 61.529 61.529 0 0 1 1.801-1.244 55.604 55.604 0 0 1 1.875-1.124 52.175 52.175 0 0 1 1.949-.998c.676-.307 1.35-.595 2.019-.862.7-.258 1.397-.497 2.09-.717a29.517 29.517 0 0 1 2.114-.582 34.828 34.828 0 0 1 2.137-.442 28.06 28.06 0 0 1 2.16-.297 34.437 34.437 0 0 1 2.183-.148 37.673 37.673 0 0 1 2.204-.001Z" style="fill:var(--quiet-strident, #000);fill-rule:nonzero"/><path d="M8339.46 2829.94c65.331 9.674 130.538 21.49 195.731 32.267 1.893 4.701 3.272 8.537 3.069 13.706-.749 21.157-24.676 178.343-32.145 192.51-1.168 2.235-6.274 5.861-8.281 7.77-63.632-13.956-129.468-22.279-193.786-32.962l35.412-213.291Z" style="fill:var(--quiet-paper-color, #fff);fill-rule:nonzero"/><path d="M8426.68 2923.19a33.5 33.5 0 0 1 3.045.305c.519.081 1.035.171 1.55.272.484.097.982.208 1.493.333.51.125 1.005.259 1.481.4.506.151.997.31 1.468.48a30.077 30.077 0 0 1 2.857 1.155c.465.214.928.44 1.389.677.46.238.904.485 1.33.741.458.26.897.529 1.321.806a42.045 42.045 0 0 1 2.516 1.793c.416.322.814.651 1.196.987.382.335.763.681 1.141 1.038.348.352.71.715 1.086 1.09.344.371.688.751 1.029 1.143.342.388.668.784.975 1.189.308.401.616.813.921 1.233.305.418.595.844.867 1.274.272.433.542.874.812 1.322.24.439.479.889.714 1.348.237.455.458.915.662 1.381.235.47.438.943.609 1.419a24.398 24.398 0 0 1 1.017 2.908c.168.498.304.993.41 1.489.135.501.239 1.003.313 1.502.103.505.191 1.013.263 1.521l.214 1.537c.04.507.08 1.019.119 1.536l.026 1.537a24.89 24.89 0 0 1-.023 1.545 23.888 23.888 0 0 1-.114 1.533l-.16 1.532-.252 1.519-.345 1.505c-.114.5-.243.996-.388 1.488l-.433 1.476c-.174.484-.363.963-.568 1.439-.173.481-.362.957-.565 1.426-.234.464-.466.927-.699 1.386-.233.457-.465.912-.696 1.361-.262.444-.537.883-.829 1.317-.259.435-.534.863-.822 1.284-.321.416-.624.829-.911 1.242-.318.403-.649.801-.996 1.19-.346.389-.691.771-1.034 1.146-.345.378-.703.744-1.073 1.097-.373.357-.744.708-1.114 1.049-.4.34-.799.669-1.195.988-.398.321-.809.633-1.235.935-.394.303-.818.594-1.271.872-.422.283-.858.554-1.307.815-.42.265-.868.515-1.346.751-.446.242-.906.471-1.38.686-.444.223-.901.433-1.371.63-.5.189-.985.373-1.452.552a39.37 39.37 0 0 1-1.487.479c-.494.15-.986.289-1.477.417-.49.128-.993.241-1.511.34-.486.107-.986.198-1.499.276-.514.08-1.025.146-1.535.2-.509.056-1.017.1-1.522.13-.727.046-1.466.064-2.214.055a28.613 28.613 0 0 1-2.191-.088 32.763 32.763 0 0 1-8.605-1.842 32.872 32.872 0 0 1-2.068-.828 36.743 36.743 0 0 1-1.998-.956 36.392 36.392 0 0 1-1.884-1.087 37.074 37.074 0 0 1-1.861-1.22 45.552 45.552 0 0 1-1.748-1.336 30.792 30.792 0 0 1-1.68-1.462 46.044 46.044 0 0 1-1.524-1.557 35 35 0 0 1-1.458-1.668 34.78 34.78 0 0 1-1.349-1.763c-.4-.599-.799-1.213-1.194-1.845a24.059 24.059 0 0 1-1.087-1.926 40.574 40.574 0 0 1-.936-1.989 44.843 44.843 0 0 1-.831-2.057c-.228-.692-.456-1.394-.681-2.107a44.315 44.315 0 0 1-.534-2.148 46.388 46.388 0 0 1-.588-4.367 25.906 25.906 0 0 1-.101-2.212c-.003-.735.025-1.47.085-2.204.059-.731.133-1.463.224-2.196.091-.732.211-1.458.362-2.177.151-.723.318-1.441.499-2.154.18-.711.406-1.413.678-2.107a51.86 51.86 0 0 1 .765-2.063c.301-.675.615-1.343.943-2.001.328-.659.686-1.303 1.072-1.932a45.59 45.59 0 0 1 1.199-1.856c.414-.606.857-1.196 1.327-1.768a40.166 40.166 0 0 1 2.98-3.253 24.815 24.815 0 0 1 1.651-1.466 69.823 69.823 0 0 1 1.725-1.35 34.032 34.032 0 0 1 1.846-1.232 33.336 33.336 0 0 1 3.909-2.065 31.219 31.219 0 0 1 2.061-.831 24.047 24.047 0 0 1 2.086-.694 28.377 28.377 0 0 1 2.109-.555 47.52 47.52 0 0 1 2.178-.402c.737-.106 1.47-.191 2.2-.254.73-.061 1.469-.093 2.221-.1.722-.015 1.455 0 2.198.041Z" style="fill:var(--quiet-strident, #000);fill-rule:nonzero"/><path d="m8104.43 2790.79 199.48 33.047c-12.694 70.996-23.891 142.321-35.755 213.464l-199.637-33.18a11833.37 11833.37 0 0 1 35.912-213.331Z" style="fill:var(--quiet-paper-color, #fff);fill-rule:nonzero"/><path d="M8188.97 2883.9c.54-.02 1.08-.026 1.62-.017.543.006 1.085.025 1.623.058.541.034 1.081.082 1.618.143.537.061 1.074.135 1.61.221.533.086 1.065.184 1.596.299a33.963 33.963 0 0 1 4.67 1.366c.507.191 1.008.393 1.504.607a33.485 33.485 0 0 1 4.311 2.26c.459.286.911.583 1.356.892.443.308.88.626 1.311.954.429.331.851.672 1.265 1.022.41.352.813.714 1.209 1.083a32.43 32.43 0 0 1 3.292 3.587c.332.424.657.856.971 1.296.315.441.619.889.911 1.344.291.458.57.921.838 1.391a30.588 30.588 0 0 1 1.476 2.891 32.854 32.854 0 0 1 2.636 17.446 29.264 29.264 0 0 1-.24 1.608 34.542 34.542 0 0 1-.311 1.589c-.12.531-.252 1.056-.398 1.577-.144.523-.3 1.041-.469 1.554-.17.516-.354 1.027-.551 1.531a31.236 31.236 0 0 1-.619 1.497c-.22.495-.452.985-.695 1.469-.245.482-.501.958-.768 1.431-.268.471-.547.934-.835 1.39-.293.458-.594.909-.905 1.35-.314.442-.639.877-.972 1.302a31.565 31.565 0 0 1-2.13 2.451 29.438 29.438 0 0 1-2.354 2.231c-.413.353-.832.697-1.26 1.029-.43.329-.865.648-1.309.96-.442.311-.894.61-1.354.896-.458.29-.922.566-1.395.829-.473.264-.951.518-1.435.759-.487.241-.979.469-1.474.684-.496.218-.997.422-1.505.614a33.65 33.65 0 0 1-3.083 1.002c-.525.141-1.05.269-1.58.385-.529.115-1.06.216-1.593.302-.534.09-1.07.166-1.61.23a33.918 33.918 0 0 1-4.842.199 34.421 34.421 0 0 1-1.603-.088 35.728 35.728 0 0 1-3.176-.415 34.65 34.65 0 0 1-1.569-.328 27.6 27.6 0 0 1-1.553-.398 30.711 30.711 0 0 1-1.53-.475 32.41 32.41 0 0 1-2.986-1.167c-.486-.219-.968-.45-1.446-.696a31.723 31.723 0 0 1-4.108-2.489c-.436-.31-.865-.63-1.285-.959-.422-.33-.832-.671-1.233-1.021a29.48 29.48 0 0 1-1.187-1.08c-.385-.37-.761-.75-1.127-1.139a31.859 31.859 0 0 1-3.041-3.719 30.638 30.638 0 0 1-1.711-2.714 29.803 29.803 0 0 1-.755-1.411 30.362 30.362 0 0 1-.683-1.45 35.23 35.23 0 0 1-.613-1.481 37.373 37.373 0 0 1-.541-1.512 32.29 32.29 0 0 1-1.406-6.247 32.783 32.783 0 0 1-.242-3.197 33.032 33.032 0 0 1-.006-1.605c.014-.532.04-1.066.079-1.601a27.02 27.02 0 0 1 .153-1.597c.063-.531.14-1.06.23-1.585a31.39 31.39 0 0 1 .69-3.131c.142-.515.295-1.027.463-1.538.162-.507.339-1.01.531-1.511.19-.5.391-.994.604-1.485.216-.489.443-.974.683-1.453.235-.477.484-.95.747-1.42.259-.465.531-.926.816-1.378a33.874 33.874 0 0 1 1.83-2.633c.327-.424.664-.839 1.009-1.244a31.182 31.182 0 0 1 2.195-2.337 34.375 34.375 0 0 1 2.41-2.113c.418-.332.845-.652 1.282-.965a28.79 28.79 0 0 1 1.323-.901c.451-.291.907-.57 1.367-.838.464-.266.934-.522 1.409-.769a33.922 33.922 0 0 1 4.422-1.882 32.522 32.522 0 0 1 1.529-.478 32.164 32.164 0 0 1 4.706-.99 29.87 29.87 0 0 1 1.591-.177 37.157 37.157 0 0 1 1.601-.095h.001ZM5521.22 1097.41l464.35 29.005c73.196 4.655 180.028 3.751 247.187 21.417 21.13 5.563 39.556 19.095 53.939 35.289 30.977 34.833 29.941 73.438 27.515 117.638l-15.57 243.27c-2.96 45.147-1.022 99.264-13.588 142.47-5.455 18.726-17.527 38.602-32.293 51.426-50.402 43.751-128.49 26.66-189.342 22.189l-316.042-19.874c-10.406 18.07-126.327 89.334-147.799 95.23-12.996 3.57-24.256 3.451-36.046-3.28-23.25-27.923-13.168-71.12-10.369-104.424-41.268-2.338-88.742.065-123.436-25.754-22.202-16.52-44.638-47.277-48.301-75.245-4.841-36.968 19.004-390.703 26.763-431.646 3.924-20.714 9.888-36.161 23.201-52.672 23.354-28.971 53.67-41.175 89.831-45.039Z" style="fill:var(--quiet-strident, #000);fill-rule:nonzero"/><path d="M5517.93 1135.65c3.201.01 6.399.091 9.595.24 153.534 7.248 307.209 19.161 460.639 28.85 61.278 3.871 177.452 4.994 233.458 17.278 14.139 3.099 26.42 11.056 35.937 21.845 25.46 28.849 21.361 66.873 19.223 102.501l-14.606 230.815c-2.658 42.446-.049 98.853-12.784 139.313-4.047 12.845-13.835 23.889-23.815 32.557-39.42 34.221-108.901 17.855-156.589 14.226l-330.455-20.693c-16.613 17.494-105.164 72.792-130.134 87.326-6.971 4.061-12.914 7.673-20.901 5.636-11.965-24.682-2.379-74.888-.38-102.802-40.379-2.789-94.413 2.059-130.666-18.568-18.323-10.427-32.942-30.138-37.651-50.771-7.475-32.741 15.508-358.517 22.825-407.462 2.339-15.64 5.048-30.805 14.105-44.108 14.686-21.579 37.371-31.523 62.199-36.183Z" style="fill:var(--quiet-paper-color, #fff);fill-rule:nonzero"/></svg>
