<svg xmlns="http://www.w3.org/2000/svg" xml:space="preserve" style="fill-rule:evenodd;clip-rule:evenodd;stroke-linejoin:round;stroke-miterlimit:2" viewBox="0 0 16426 15176"><path d="M0 0h16425.9v15175.6H0z" style="fill:none"/><clipPath id="a"><path d="M0 0h16425.9v15175.6H0z"/></clipPath><g clip-path="url(#a)"><path d="M-4.167-8.333h40187.6v15161.5H-4.167z" style="fill:none"/><path d="M10124.2 1941.2c152.916-654.167 461.65-1258.33 1046.79-1623.76 346.579-216.458 816.217-320.645 1218.14-228.395 437.467 100.408 801.233 418.804 1033.08 793.946 349.358 565.225 440.675 1282.24 286.858 1924.65-130.037 542.97-451.183 1048.58-932.554 1343.42-231.042 141.513-464.688 209.742-728.279 263.559 70.746 397.033 79.721 786.32 77.725 1188.23 217.029-31.404 892.829-126.734 1071.8 3.804 11.529 8.421 13.7 22.171 18.992 35.104l-16.213 35.817-10.471-16.65 2.396 25.05c-19.633 18.283-39.025 27.537-65.608 31.079-141.788 18.942-294.459 8.504-437.792 11.858a3170.191 3170.191 0 0 0-283.021 21.525 3170.305 3170.305 0 0 0-279.983 46.738c1.146 178.471 4.825 347.779-32.867 523.679 151.371 39.704 627.725 161.683 714.167 293.646 15.142 23.108 11.2 36.875 9.429 62.291-21.129 23.405-32.121 36.459-66.787 37.813-81.704 3.179-561.721-167.604-714.725-201.754a2665.94 2665.94 0 0 1-37.967 88.058 2686.115 2686.115 0 0 1-41.163 86.613 2643.049 2643.049 0 0 1-44.291 85.07 2620.553 2620.553 0 0 1-47.359 83.384 2646.064 2646.064 0 0 1-50.366 81.616 2637.875 2637.875 0 0 1-53.296 79.705 2598.462 2598.462 0 0 1-56.167 77.725 2623.413 2623.413 0 0 1-58.958 75.641 2601.808 2601.808 0 0 1-61.667 73.421 2631.658 2631.658 0 0 1-64.304 71.146 2599.928 2599.928 0 0 1-66.858 68.733 2613.826 2613.826 0 0 1-69.304 66.267 2636.272 2636.272 0 0 1-71.684 63.7 2617.434 2617.434 0 0 1-150.071 119.337 2606.617 2606.617 0 0 1-78.195 55.505c-102.221 70.745-269.913 131.912-350.796 221.112-67.484 74.408-65.992 183.75-80.663 277.55 469.879 476.288 612.588 1169.19 854.204 1773.27 131.58 50.346 236.509 111.837 347.084 200.137 82.342-254.133 214.425-759.166 330.796-981.075 33.266-63.421 79.62-131.875 144.862-165 155.329-78.891 401.875-59.391 574.446-69.846 150.554-9.095 1399.42-70.466 1433.45-90.833 141.146 2.796 319.617 6.183 455.904-26.996 311.459 4.704 629.859-29.879 940.971-48.141 123.959-7.275 257.988-24.775 381.596-11.771 58.854 6.179 122.917 21.283 165.975 64.446 58.854 58.833 79.338 136.02 76.213 216.908-8.334 215.258-153.817 524.062-225.692 737.429l-431.6 1265.35c-117.879 345.258-220.833 735.571-361.979 1069.1-39.234 92.692-80.729 168.487-156.075 237.05-43.404 39.513-90.625 73.021-147.221 90.692-142.883 44.621-310.071 52.954-458.854 72.396l-799.655 104.516c67.188 272.204 43.405 526.267-101.737 770.258-96.179 161.788-230.45 297.467-377.638 413.213 199.217 57.171 567.571 163.888 674.863 351.821 25.692 45.191 31.771 95.229 15.45 144.791-42.883 130.334-194.792 220.921-311.804 274.046-373.979 169.759-805.558 225.68-1207.08 296.459-238.059 32.658-476.375 68.004-715.192 94.429-145.592 16.108-292.642 23.142-437.829 40.937l-587.346 40.713c-185.538 5.833-377.742 5.521-562.221 25.708a54168.927 54168.927 0 0 1-1766.56-1.996c-150.991-15.362-307.395-11.475-459.237-15.191-230.554-29.321-477.238-22.429-710.504-38.104-582.171-39.084-1169.1-86.13-1745.69-177.626a11743.456 11743.456 0 0 1-573.854-100.937c-199.517-36.092-397.313-90.104-592.746-143.729-248.071-86.529-504.304-139.758-720.537-299.533-73.125-54.03-147.638-126.075-156.996-221.805-7.554-77.275 33.125-126.529 78.837-182.154-80.07.279-162.933 5.504-241.112-14.079l-127.413-8.388c-417.725-43.124-788.491-166.195-1147.2-384.408-312.916-222.846-539.967-479.358-694.758-832.742-81.233-199.029-131.875-396.391-152.292-610.87a2024.212 2024.212 0 0 1-4.112-135.988c.158-45.371 1.85-90.687 5.066-135.954a2023.833 2023.833 0 0 1 14.204-135.296 2019.185 2019.185 0 0 1 23.296-134.046c55.888-264.879 162.5-505.154 296.163-739.654 274.983-482.341 877.083-1164.67 504.671-1744.23-83.609-130.142-230.921-240.783-384.096-271.096-233.663-46.25-483.246 42.813-674.846 174.013-204.304 139.879-365.554 363.733-488.417 575.154-48.229 83.004-98.958 200.85-171.2 264.445-22.221 19.567-64.079 25.384-92.362 20.538-34.375-5.867-60.121-26.979-79.442-55.225-105.087-153.542-56.079-417.883-17.483-589.167 85.312-378.7 356.387-721.491 681.787-926.233 330.088-207.675 727.325-290.296 1110.09-201.946 345.416 79.725 641.875 279.621 829.896 581.858 229.445 368.855 278.662 816.163 178.975 1234.41-53.855 225.987-145.121 439.183-253.855 643.833-310 583.438-831.545 1241.44-419.358 1914.41 180.938 295.379 491.442 463.383 821.513 539.841 232.083 53.75 470.4 53.109 704.321 10.559 344.829-84.15 638.82-211.009 895.695-461.929 19.55-309.255 101.009-581.563 247.067-854.342-26.754-35.05-51.146-72.254-76.354-108.438-12.933-35.745-23.421-70.362-28.317-108.158-27.171-209.583 75.4-379.583 198.592-537.917-171.371-656.008 3.267-1358.49 242.208-1973.68-154.583-110.887-265.712-282.554-332.329-458.612-96.562-255.175-99.358-547.571 14.496-797.534 130.975-287.537 363.021-444.67 649.829-552.154l-120.85-147.604c-139.237 53.196-345.887 204.758-492.5 198.038-33.821-1.563-61.025-18.505-81.025-45.796-16.808-22.954-19.742-51.721-10.487-78.146 39.912-113.8 362.45-218.038 474.22-265.379-115.662-228.317-184.654-446.809-246.25-695.192-150.437 17.379-405.295 72.571-547.395 13.421-32.242-13.421-40.038-22.413-53.542-53.475 4.562-10.554 8.437-19.754 16.25-28.383 103-113.7 402.375-117.034 548.471-124.825-77.988-364.325-57.5-728.388 14.341-1091.39-218.283-.192-436.062-28.871-644.15-96.129-510.575-165.017-908.404-522.275-1150.92-997.813-286.563-561.979-317.275-1218.07-122.78-1814.55 211.184-647.641 603.421-1099.34 1207.33-1405.57 174.979-74.788 346.716-118.188 534.512-145.709 207.188-14.266 401.717-7.983 603.213 49.03 654.15 210.179 1028.87 644.933 1337 1243.56a1253.205 1253.205 0 0 1 24.6 50.121c55.905 127.625 107.1 255.421 154.096 386.567 189.584-95.313 387.763-163.525 580.038-251.167 349.112-159.129 897.5-510.192 1300.95-373.558 73.887 25.016 118.071 60.416 162.412 123.525l8.367 11.754c1.65 2.358 3.229 4.775 4.846 7.154 123.004-18.163 333.75-48.754 438.508 32.604 23.921 18.575 39.129 44.217 40.417 74.825 1.596 37.9-26.875 77.254-47.242 107.483a2917.285 2917.285 0 0 1 325 69.009 2917.418 2917.418 0 0 1 315.088 105.45v.004Z" style="fill:#313945;fill-rule:nonzero"/><path d="M3277.64 13882.3c578.854 6.404 1060.3-103.263 1571.35-378.646 43.525 76.875 89.254 150.346 144.045 219.896 398.438 505.762 1066.49 665.504 1680.35 672.221 130.505 1.441 259.984-37.325 390.559-27.534 116.354 8.717 236.421 49.479 350.329 74.809 135.642 30.158 271.404 49.616 409.271 66.354 78.366 77.554 164.546 128.733 271.962 155.866 209.584 52.938 415.259 3.667 596.492-106.804 405.85 170.729 932.725 333.213 1372.67 366.163 434.458 32.516 751.212-77.846 1081.72-364.129 754.045-100.142 1525.66-302.571 2150.82-751.946 199.217 57.171 567.571 163.887 674.863 351.821 25.691 45.191 31.771 95.229 15.45 144.791-42.884 130.334-194.792 220.921-311.804 274.046-373.98 169.758-805.559 225.679-1207.08 296.458-238.058 32.659-476.375 68.005-715.191 94.43-145.592 16.108-292.642 23.141-437.83 40.937l-587.345 40.713c-185.538 5.833-377.742 5.52-562.221 25.708a54171.747 54171.747 0 0 1-1766.56-1.996c-150.992-15.362-307.396-11.475-459.237-15.192-230.555-29.32-477.238-22.429-710.505-38.104-582.17-39.083-1169.1-86.129-1745.69-177.625a11744.656 11744.656 0 0 1-573.854-100.937c-199.517-36.092-397.313-90.104-592.746-143.729-248.071-86.53-504.304-139.759-720.538-299.534-73.125-54.029-147.637-126.075-156.996-221.804-7.554-77.275 33.125-126.529 78.838-182.154-80.071.279-162.933 5.504-241.113-14.079Z" style="fill:#c9cdd4;fill-rule:nonzero"/><path d="M5145.21 4373.08c-10.383 42.984-21.129 82.084-40 122.43-85.87 56.737-341.787 6.458-444.325-13.926-442.083-87.862-831.108-373.87-1077.59-747.395-306.788-464.946-384.979-1030.54-272.396-1570.94 110.575-530.692 427.292-1052.01 885.438-1351.89 326.645-213.816 748.558-318.695 1134.48-235.537 706.82 152.308 1146.77 774.775 1390.1 1412.26 57.791 151.404 101.771 402.709 183.937 530.379 34.359 22.084 43.267 25.159 83.979 28.042 13.126-6.304 31.563-11.754 40.538-23.196 49.392-62.916 23.471-169.637 15.833-244.654 132.221-77.396 265.017-140.329 410.625-188.229 89.896-29.583 187.829-52.379 274.375-89.913 79.755-34.6 150.105-107.587 224.184-154.529 262.621-166.425 515.383-231.354 822.9-262.571-77.017 72.725-268.892 222.221-286.946 328.696-3.542 20.871 2.621 20.975 14.429 36.688 112.671 22.429 436.179-130.142 564.842-166.584 85.416-24.2 168.366-37.67 256.491-46.02-66.421 43.766-136.595 86.525-198.416 136.491-30.313 24.496-58.421 50.521-62.467 91.075 49.808 52.571 225.296 8.734 299.967 18.438 105.275 13.683 214.495 40.816 316.629 69.6a2910.255 2910.255 0 0 1 152.466 46.65 2909.794 2909.794 0 0 1 149.655 54.966 2902.137 2902.137 0 0 1 146.42 63.125 2885.263 2885.263 0 0 1 142.725 71.059 2895.41 2895.41 0 0 1 138.613 78.804 2893.358 2893.358 0 0 1 134.062 86.317 2888.167 2888.167 0 0 1 129.134 93.541 2885.85 2885.85 0 0 1 123.783 100.504c613.158 533.367 980.696 1276.23 1062.08 2082.38 30.954 306.666 20.054 614.929 41.216 922.1-87.346 23.595-180.121 52.916-262.621 90.054-69.5 31.3-150.141 75.258-178.371 149.858 6.2 18.975 2.884 22.763 21.825 33.021 97.55 52.883 307.9-41.492 402.342-73.592 33.038 149.567 22.188 288.975-2.15 438.334a5855.025 5855.025 0 0 0-95.542-8.421c-115.729-9.079-304.458-26.963-398.679 53.646-1.091 15.312-4.529 18.887 5.175 32.066 65.034 88.263 317.654 93.504 422.692 107.309a2509.17 2509.17 0 0 1-187.658 334.462c-431.805 635.208-1143.54 1020.61-1886.01 1162.33-283.366 318.421-652.741 436.025-1065.42 297.413-104.563-35.121-204.825-127.292-320.209-93.646-12.221 13.891-17.462 13.733-16.908 33.612 1.025 36.179 34.704 74.479 59.637 98.279 181.355 173.059 552.88 230.625 790.9 225.521-93.8 104.084-188.437 194.029-308.212 268.717-185.554-92.013-1159.7-650.867-1216.32-742.725 27.484-13.629 53.317-23.438 71.213-49.6-43.417-60.192-507.309-163.404-611.892-199.133-176.754-60.384-352.221-125.921-520.171-208.038-366.041-178.958-660.487-443.958-933.283-743.021a3804.07 3804.07 0 0 1 440.8-109.808c111.579-20.729 653.437-72.329 699.946-109.204 26.721-21.196 27.725-38.625 32.225-69.825-10.663-21.234-13.7-34.688-34.95-46.842-177.067-101.283-1032.05 100.313-1250.19 156.479-116.925-201.841-196.004-411.496-261.387-634.916 288.47-7.359 569.391-6.98 856.529 28.995 137.846 17.255 421.283 114.338 533.454 102.88 34.842-3.559 43.421-12.292 65.587-37.934-.5-34.046-.483-48.646-26.579-74.566-216.108-214.705-1165.14-221.771-1472.52-219.288a3269.447 3269.447 0 0 1-9.913-77.517c-3-25.879-5.683-51.795-8.054-77.741a3223.077 3223.077 0 0 1-6.217-77.9 3255.855 3255.855 0 0 1-6.875-156.146 3236.03 3236.03 0 0 1-.658-78.142c.092-26.054.492-52.104 1.196-78.146.708-26.041 1.725-52.07 3.054-78.087a3315.559 3315.559 0 0 1 11.667-155.85 3364.256 3364.256 0 0 1 8.612-77.675 3364.265 3364.265 0 0 1 10.45-77.45 3244.88 3244.88 0 0 1 12.292-77.188c4.4-25.67 9.104-51.287 14.116-76.854a3301.55 3301.55 0 0 1 33.68-152.621 3270.669 3270.669 0 0 1 19.55-75.662 3239.51 3239.51 0 0 1 21.354-75.192 3259.226 3259.226 0 0 1 23.125-74.633 3256.022 3256.022 0 0 1 24.879-74.079 3243.682 3243.682 0 0 1 26.65-73.475 3276.897 3276.897 0 0 1 28.367-72.813 3215.577 3215.577 0 0 1 30.104-72.116 3207.32 3207.32 0 0 1 31.804-71.388 3248.366 3248.366 0 0 1 33.492-70.608 3221.485 3221.485 0 0 1 35.154-69.792 3240.57 3240.57 0 0 1 36.808-68.942 3243.963 3243.963 0 0 1 38.417-68.037 3264.17 3264.17 0 0 1 40.037-67.117 3292.13 3292.13 0 0 1 84.809-131.271 3251.345 3251.345 0 0 1 44.704-64.095c23.646 25.137 50.696 58.037 87.637 60.575 29.863 2.062 32.467-2.625 55.296-22.138 53.646-150.087-67.567-432.117-125.521-576.908 73.646 64.2 242.517 299.775 331.684 304.946 18.25-14.217 27.104-18.817 35.887-40.138 96.613-234.15-72.517-907.45-174.375-1147.74-170.487-402.275-460.592-824.27-881.442-990.712-251.425-99.429-616.562-109.463-865.208-.383-318.508 139.741-540.279 483.837-664.046 797.675 18.492 24.441 20.054 34.545 50.8 41.145 76.371-38.316 149.134-183.004 198.384-254.012 287.554-414.6 678.266-573.317 1167.12-406.683 345.417 117.741 600.938 460.158 753.921 778.35 121.2 252.066 208.7 543.541 230.35 822.987-96.858-65.867-239.325-170.329-361.025-152.762-28.541 19.479-40.641 27.483-46.841 64.479-21.267 126.791 92.204 335.487 128.975 460.366-285.763 346.963-485.292 730.488-614.234 1160.92Z" style="fill:#f2f2f4;fill-rule:nonzero"/><path d="M3637.76 1858.3c18.492 24.442 20.055 34.546 50.8 41.146 76.371-38.317 149.134-183.004 198.384-254.013 287.554-414.6 678.266-573.316 1167.12-406.683 345.417 117.742 600.938 460.158 753.921 778.35 121.2 252.067 208.7 543.542 230.35 822.988-96.858-65.867-239.325-170.33-361.025-152.763-28.541 19.479-40.641 27.483-46.841 64.479-21.267 126.792 92.204 335.488 128.975 460.367-285.763 346.962-485.292 730.487-614.234 1160.92-114.429 2.012-225.625-4.567-338.075-27.138-420.816-84.462-792.083-361.941-1026.32-717.396a1822.064 1822.064 0 0 1-23.317-36.804 1798.94 1798.94 0 0 1-22.433-37.362 1856.261 1856.261 0 0 1-21.525-37.879 1829.776 1829.776 0 0 1-20.609-38.388 1884.327 1884.327 0 0 1-19.687-38.871 1792.372 1792.372 0 0 1-18.75-39.341 1812.193 1812.193 0 0 1-34.654-79.946 1860.246 1860.246 0 0 1-15.884-40.592 1836.404 1836.404 0 0 1-28.821-82.221 1881.21 1881.21 0 0 1-12.916-41.616 1801.184 1801.184 0 0 1-11.925-41.909 1840.167 1840.167 0 0 1-10.921-42.187 1823.396 1823.396 0 0 1-9.913-42.429 1865.68 1865.68 0 0 1-8.875-42.675c-2.8-14.25-5.42-28.53-7.862-42.85a1809.607 1809.607 0 0 1-6.842-43.038 1818.89 1818.89 0 0 1-10.554-86.508 1760.295 1760.295 0 0 1-3.733-43.404 1891.417 1891.417 0 0 1-2.692-43.509c-.717-14.5-1.262-29.012-1.629-43.541a1742.093 1742.093 0 0 1-.608-43.559c-.025-14.525.125-29.05.45-43.575a1762.59 1762.59 0 0 1 1.475-43.558c.67-14.504 1.516-29 2.537-43.492a1813.64 1813.64 0 0 1 3.575-43.437c1.354-14.454 2.888-28.9 4.6-43.334a1882.168 1882.168 0 0 1 5.642-43.191 1867.886 1867.886 0 0 1 6.683-43.075 1814.972 1814.972 0 0 1 7.709-42.884c28.82-145.187 88.562-283.07 116.791-426.212.571-2.954 1.075-5.921 1.629-8.871Z" style="fill:#fac3b7;fill-rule:nonzero"/><path d="M9650.29 5928.08c121.371-4.22 255.779 2.117 362.566 66.25 63.492 38.142 113.596 98.28 128.613 172.117 16.546 81.354-10.696 163.558-54.479 231.7-79.534 123.75-200.225 200.263-341.825 231.513-10.954 140.312-29.529 263.141-79.442 395.85 690-78.926 631.942-462.95 800.833-507.242 35.417 10.071 39.13 11.096 61.996 39.654 17.325 73.262-15.696 157.483-46.875 223.7-103.054 218.904-312.9 312.325-528.283 388.575a1525.645 1525.645 0 0 1-37.167 93.838c-119.5 274.2-320.833 614.929-612.708 723.541-203.283 75.642-407.833 45.121-601.479-41.562-69.479-39.446-136.979-83.3-198.209-134.709-317.17-266.229-460.854-661.579-497.658-1063.16-28.125-33.837-74.529 21.146-117.571 13.317-19.946-3.629-21.333-14.671-32.462-30.384-7.796-40.554-9.6-72.95 16.196-107.758 53.179-71.787 180.504-100.279 263.854-110.312 69.204-8.334 208.179-13.646 263.058 37.708 23.088 21.596 23.558 34.946 21.804 64.687-36.875 37.084-69.566 35.346-120.904 40.625 8.558 36.525 48.021 68.888 75.817 93.559 295.175 261.946 696.441 312.446 1073.75 296.633 96.146-142.554 112.741-260.35 111.112-428.354-76.458-28.433-144.725-62.288-209.654-112.308-87.467-67.396-180.417-166.542-190.971-282.167-5.225-57.346 12.863-109.775 51.65-152.242 103.471-113.333 295.209-135.054 438.438-143.071Z" style="fill:#313945;fill-rule:nonzero"/><path d="M8222.33 6866.79c96.409 53.125 181.738 128.804 280.954 182.05 386.617 207.466 805.938 196.387 1230.8 159.791-56.492 120.259-127.38 234.063-201.059 344.359-39.725 55.137-86.025 105.45-130.8 156.508a685.09 685.09 0 0 0-7.675-19.858c-65.066-159.688-185.208-293.613-347.133-357.988-211.442-84.079-480.729-102.012-691.179-10.312-79.375-143.646-112.017-293.975-133.909-454.55Z" style="fill:#eca09c;fill-rule:nonzero"/><path d="M8595.62 7385.17c145.796-6.079 321.492 21.821 450.104 91.821 76.004 41.37 212.084 142.537 233.088 231.408 7.587 32.117-3.334 54.929-20.5 81.3-37.971 34.567-92.729 37.954-141.479 46.441-96.942 1.513-173.888-3.02-264.98-37.883-105.783-40.467-376.008-212.133-419.15-323.454-9.845-25.363-7.675-29.567 3.038-54.008 48.733-24.08 106.633-27.85 159.879-35.625ZM9607 6121.29c65.883-3.579 137.813-9.605 202.829 4.633 46.788 10.242 106.009 37.258 130.625 80.729 12.709 22.467 14.409 48.404 5.921 72.675-27.033 77.133-129.513 123.8-199.408 153.159-65.784 4.616-130.471 8.47-193.492-15.138-105.383-39.496-153.438-120.367-197.621-218.229 80.729-43.388 160.85-64.671 251.146-77.829Z" style="fill:#fac3b7;fill-rule:nonzero"/><path d="M7749.46 4609.29c99.442-.592 188.504 26.337 271.213 82.083 160.471 108.125 250.262 296.596 285.766 482.033 40.417 211.163 18.663 456.25-105.52 637.446-91.146 133.021-205.125 189.288-359.846 217.971-107.396-4.917-211.425-28.196-303.959-84.621-145.154-88.525-236.595-237.5-274.775-401.025-50.937-218.175-14.841-468.766 105.088-659.041 92.258-146.376 214.221-236.13 382.033-274.846Z" style="fill:#313945;fill-rule:nonzero"/><path d="M7985.58 5007.38c58.788 6.25 100.4 15.796 139.813 63.004 34.562 41.404 45.208 88.959 39.791 142.134-8.02 78.612-46.616 118.35-104.499 164.862-52.742-6.392-93.105-19.967-129.513-60.642-36.075-40.295-49.288-90.191-44.913-143.525 6.388-77.954 43.021-118.37 99.321-165.833Z" style="fill:#fff;fill-rule:nonzero"/><path d="M10753.2 4571.79c75.258-2.204 143.542 13.891 208.958 51.008 138.905 78.783 222.342 224.321 263.663 374.633 58.596 213.125 45.8 468.438-67.413 661.963-84.533 144.479-197.5 220.017-356.595 262.554-95.542 12.067-176.025 2.796-258.146-50.262-125.121-80.867-193.904-232.484-223.921-373.663-49.688-233.8-10.696-518.333 124.375-718.471 78.887-116.912 171.562-180.383 309.079-207.762Z" style="fill:#313945;fill-rule:nonzero"/><path d="M10915.6 4889.62c46.075 3.521 86.004 16.629 120.917 48.142 37.641 33.991 58.421 80.466 57.571 131.3-1.25 75.766-33.717 118.3-85.521 167.362-8.229-.279-16.459-.4-24.688-.8-51.579-2.446-85.762-16.108-120.137-55.641-37.363-42.967-51.079-96.371-43.163-152.413 9.567-67.604 42.171-100.85 95.021-137.95Z" style="fill:#fff;fill-rule:nonzero"/><path d="M7604.29 3451.28a627.028 627.028 0 0 1 31.804-1.091c86.371-.659 250.608 12.204 312.308 81.875 24.029 27.154 29.517 53.037 26.721 88.158-71.788 93.975-256.842-8.454-360.504 2.154-105.45 10.8-206.529 66.113-297.692 116.979-83.716 59.655-140.954 167.988-248.871 177.675-17.812-9.862-26.683-10.662-31.25-32.208-10.85-51.283 27.588-116.125 57.534-156.108 121.562-162.313 314.046-249.809 509.95-277.434ZM10565.1 3411.8a791.07 791.07 0 0 1 110.625-.066c149.65 9.945 314.496 78.124 413.142 194.337 37.708 44.429 61.042 91.2 55.467 150.471-22.359 31.354-22.375 28.262-57.917 34.791-51.717-12.033-85.483-54.095-122.413-90.07-351.004-242.863-422.862-30.105-627.204-79.096-24.512-5.867-26.3-15.071-38.695-35.192.17-24.096 2.325-44.183 15.329-65.154 46.837-75.471 171.787-94.621 251.666-110.021Z" style="fill:#313945;fill-rule:nonzero"/><path d="M5653.67 7236.54c68.229 1.841 218.558 171.737 274.429 224.512-101.458 5.625-317.067 7.675-385.958 91.425-20.45 24.879-15.084 41.321-10.571 69.929 94.133 94.15 403.591 59.6 535.571 78.579 120.487 17.309 243.925 50.434 358.004 92.534 159.725 58.942 317.241 123.629 477.291 181.754 154.567 56.129 324.03 104.442 468.317 183.713 122.692 67.379 236.25 157.97 354.638 233.249 337.637 214.721 809.545 503.351 1180.1 640.226 398-170.455 690.658-538.038 916.716-893.767 214.55-11.704 409.221-67.346 612.709-132.554-99.359 410.991-453.421 639.496-788.925 854.375-58.767 37.637-153.488 80.625-190.571 140.366-1.113 29.98-2.621 29.496 16.354 52.413 13.575 3.662 25.138 6.683 39.321 6.229 253.3-7.862 879.637-470.467 1051.75-662.133 356.183 400.312 490.904 958.229 651.442 1457.73-64.809-1.684-130.088-2.567-194.704 3.733-100.138 9.792-261.267 78.246-320.071 163.596-19.809 28.729-18.854 39.754-11.196 72.375 79.583 39.725 259.896-53.367 351.837-69.6 80.23-14.167 167.313-15.296 247.73-1.996 109.041 18.021 183.75 68.004 247.604 156.513-109.15-.834-213.909 9.166-318.838 40.883-311.875 94.254-567.016 351.667-637.604 671.721-11.6 52.55.4 155.779-20.767 195.521l.905-55.263-9.113 20.696c31.317-154.792 16.717-487.017 13.333-655.75-4.583-228.938-77.554-1218.71-224.1-1343.59-20.729-17.675-30.85-14.375-56.421-13.646l-7.17 5.73c-39.742 31.754-49.063 63.07-48.438 114.633 1.546 127.467 51.717 298.267 68.854 429.896 51.059 392.312 123.921 1255.14 9.529 1623.23-13.558 43.629-29.391 78.771-70.954 100.904-23.646-2.292-41.196 2.242-52.796-23.158-17.95-39.325-21.908-101.704-32.587-144.95-31.267-126.525-115.658-258.663-199.496-356.7-224.304-262.292-545.921-367.9-880.296-393.054-199.979-21.288-412.341 15.329-609.079 47.879-39.496-30.434-81.058-60.917-125.9-82.9a793.131 793.131 0 0 0-35.646-16.3 769.17 769.17 0 0 0-36.387-14.496 795.754 795.754 0 0 0-37.067-12.692 788.58 788.58 0 0 0-37.654-10.833 799.325 799.325 0 0 0-38.163-8.958 792.825 792.825 0 0 0-38.541-7.034 790.742 790.742 0 0 0-38.834-5.137c-13-1.388-26.02-2.454-39.062-3.192a787.026 787.026 0 0 0-39.15-1.25 797.345 797.345 0 0 0-39.183.675 784.13 784.13 0 0 0-39.1 2.638 801.95 801.95 0 0 0-38.905 4.566 775.42 775.42 0 0 0-38.645 6.496 770.121 770.121 0 0 0-38.267 8.4 787.363 787.363 0 0 0-37.813 10.279 801.885 801.885 0 0 0-37.254 12.154c-263.266-157.5-534.204-205.087-834.846-233.82 9.567-185.538 51.25-695.905-30.379-843.076-28.491-19.687-28.075-23.366-64.204-18.975-102.829 94.705-114.983 710.471-125.033 870.401-122.588 1.266-299.063-9.255-401.513 66.025-34.858 25.625-49.6 46.595-56.716 88.091 32.445 36.3 68.629 43.454 116.612 45.434 105.921 4.358 220.175-20.246 326.304-29.359 309.409-26.579 606.025 35.467 883.525 173.021-167.554 138.246-279.808 301.842-341.858 511.075-71.233 240.175-77.763 485.071 42.862 708.525-347.325 59.983-821.645 19.496-1163.07-67.675-321.009-81.958-594.48-254.008-763.888-544.321-279.567-479.046-183.525-1200.59-46.512-1712.22 98.491-367.729 260.954-814.812 611.458-1012.12 362.5-204.045 1070.85 222.5 1401.84 378.509 219.27 103.366 450.587 208.612 684.304 274.496 77.171 21.77 217.812 60.295 291.008 19.166-3.075-8.333-2.642-8.471-8.662-17.05-25.313-35.954-87.555-66.075-126.305-85.066-220.641-108.075-457.291-188.3-680.675-292.292-325.75-151.65-643.437-328.75-978.787-458.925-139.113-53.992-287.117-100.329-436.146-115.346-161.042-16.233-435.067-23.404-564.512 81.025-9.55 21.7-17.517 28.646-7.205 51.804 20.796 46.738 91.196 68.263 135.242 87.013-132.758 127.137-210.712 266.475-286.875 431.079-83.196-82.604-148.487-168.942-192.604-278.579-86.113-214.096-89.183-475.675 2.5-688.367 104.512-242.429 305.554-383.158 542.917-479.062Z" style="fill:#7a7bbe;fill-rule:nonzero"/><path d="M12557.9 9181.88c775.625-65.537 1556.91-94.929 2334.17-141.075 214.062-12.708 1126.04-89.967 1250.35-58.558 17.708 14.929 26.733 15.712 30.208 39.962 5.208 37.746-8.508 80.975-19.1 116.946-159.546 540.088-360.937 1073.58-542.533 1607.19l-290.104 844.429c-44.271 132.221-79.513 269.583-130.209 399.408-21.008 54.254-49.133 112.117-89.062 155.279-43.925 47.429-100.521 66.684-161.459 81.508-289.062 70.226-611.458 86.859-907.466 127.188l-1920.35 261.458c-193.525 26.513-546.996 48.75-711.667 114.2-30.575 4.43-71.579 5.834-98.141-12.462-16.392-11.267-24.671-22.796-27.746-42.692-7.134-46.304 941.233-2960.66 1038.94-3227.92 22.329-61.075 48.559-122.258 85.8-175.92 42.655-61.442 88.992-76.355 158.367-88.942Z" style="fill:#c2c0bf;fill-rule:nonzero"/><path d="M13525.9 10337.3c33.737-7.109 66.225-12.596 99.466.1 31.909 12.183 55.267 33.579 78.267 58.008 94.958 100.896 173.092 219.983 261.183 327.029 86.846 105.496 177.859 208.171 265.659 313.046 57.325 68.471 153.9 257.229 193.25 338.121-43.254 26.225-43.254 26.225-93.792 35.196-131.65 32.762-266.208 38.237-400.662 52.591-77.313 8.25-153.459 24.188-231.421 24.179-104.221 18.292-275.875 45.855-378.35 39.305-70.938-4.525-110.013-29.159-155.538-81.28-4.55-21.7-10.521-45.087-10.133-67.383 1.05-60.871 25-269.112 54.142-316.729 33.858-14.613 150.27 36.079 190.916 46.687 38.521-35.158 50.554-56.687 62.846-107.416-12.058-18.942-25.15-42.871-42.837-57-25.45-20.313-103.075-49.242-116.605-73.788-14.679-26.625-3.845-71.233 3.788-98.55 25.171-90.187 116.858-312.937 168.758-387.571 13.884-19.962 30.184-32.583 51.063-44.545Z" style="fill:#8b8b8a;fill-rule:nonzero"/><path d="M13825.1 11054.8c30.642 4.163 64.004 7.5 93.113 17.854 48.783 17.325 92.141 57.492 111.591 105.517 12.988 32.054 14.484 64.175-.391 95.833-10.88 23.126-54.463 59.892-78.121 67.855l-38.959-.571c-21.737-.088-41.925.5-62.991-6.004-42.217-13.017-88.179-39.009-107.634-80.534-24.516-52.375-9.22-92.3 9.671-142.516 23.859-19.917 49.129-38.421 73.721-57.434Zm20.375-519.387c25.692 3.492 53.663 6.292 78.071 14.971 40.908 14.529 77.258 48.204 93.567 88.475 10.887 26.875 12.15 53.808-.33 80.35-9.116 19.396-45.666 50.22-65.495 56.896l-32.671-.476c-18.225-.075-35.15.417-52.817-5.033-35.396-10.921-73.933-32.712-90.246-67.529-20.558-43.913-7.729-77.392 8.109-119.5 20.004-16.7 41.191-32.208 61.808-48.154h.004Z" style="fill:#c2c0bf;fill-rule:nonzero"/><path d="M11400.6 12729.8c-30.575 4.43-71.579 5.834-98.142-12.462-16.391-11.267-24.67-22.796-27.745-42.692-7.134-46.304 941.233-2960.66 1038.94-3227.92 22.329-61.075 48.559-122.258 85.8-175.92 42.654-61.442 88.992-76.355 158.367-88.942-18.071 104.429-65.4 211.579-100.242 312.121a50865.018 50865.018 0 0 0-189.637 556.196l-609.563 1882.69c-85.021 265.155-182.104 529.134-257.779 796.925Z" style="fill:#8b8b8a;fill-rule:nonzero"/><path d="M10333.1 2039.39c144.896-591.042 414.605-1182.52 956.146-1510.69 316.584-191.858 712.554-279.921 1075.35-187.092 375.363 96.046 682.671 368.342 875.05 697.888 305.521 523.333 383.3 1189.53 229.271 1773.92-127.413 483.437-422.796 912.637-859.375 1164.91-138.037 79.775-441.475 226.096-598.488 186.025-12.45-3.179-7.45-.833-16.2-15.954-16.82-29.062-23.941-65.262-32.604-97.5-127.933-467.017-391.733-891.579-697.862-1261.22 42.708-109.062 85.816-220.208 117.204-333.141 20.225-72.763 45.971-166.842 6.387-236.596-11.629-6.583-24.008-17.379-37.587-17.033-112.792 2.987-223.038 127.396-297.917 202.05 95.313-444.83 256.146-862.78 579.934-1192.29 246.266-250.608 670.241-480.054 1022.85-305.017 116.059 57.621 293.421 255.571 403.888 253.175 3.612-.087 7.225-.312 10.833-.466 7.521-73.98-30.9-128.613-76.179-183.196a879.32 879.32 0 0 0-28.525-32.867 899.622 899.622 0 0 0-30.137-31.387 884.183 884.183 0 0 0-31.667-29.842 853.797 853.797 0 0 0-33.108-28.25 876.956 876.956 0 0 0-34.463-26.563 863.955 863.955 0 0 0-35.762-24.791 861.971 861.971 0 0 0-36.946-23 862.239 862.239 0 0 0-38.038-21.129 880.48 880.48 0 0 0-39.046-19.205 878.518 878.518 0 0 0-39.945-17.237 879.737 879.737 0 0 0-40.767-15.208 854.653 854.653 0 0 0-41.475-13.18 862.32 862.32 0 0 0-42.067-11.091 888.333 888.333 0 0 0-42.566-8.992 864.827 864.827 0 0 0-42.988-6.842 860.37 860.37 0 0 0-43.246-4.704c-293.246-22.675-549.825 94.584-767.691 283.663-414.2 359.479-679.392 910.033-759.617 1448.84-173.108-126.321-347.225-248.037-532.642-355.991Z" style="fill:#fac3b7;fill-rule:nonzero"/><path d="M10333.1 2039.39c144.896-591.042 414.605-1182.52 956.146-1510.69 316.584-191.858 712.554-279.921 1075.35-187.092 375.363 96.046 682.671 368.342 875.05 697.888 305.521 523.333 383.3 1189.53 229.271 1773.92-127.413 483.437-422.796 912.637-859.375 1164.91-138.037 79.775-441.475 226.096-598.488 186.025-12.45-3.179-7.45-.833-16.2-15.954-16.82-29.062-23.941-65.262-32.604-97.5 328.059-46.946 593.092-167.083 834.934-395.329 566.733-534.896 704.062-1384.46 443.191-2102.92-18.383-50.625-172.862-370.975-171.962-380.871.367-3.816 1.041-7.62 1.562-11.42 7.521-73.979-30.9-128.613-76.179-183.196a879.32 879.32 0 0 0-28.525-32.867 899.622 899.622 0 0 0-30.137-31.387 885.085 885.085 0 0 0-31.667-29.842 853.797 853.797 0 0 0-33.108-28.25 876.956 876.956 0 0 0-34.463-26.563 863.955 863.955 0 0 0-35.762-24.791 861.971 861.971 0 0 0-36.946-23 862.239 862.239 0 0 0-38.038-21.129 880.48 880.48 0 0 0-39.046-19.205 879.642 879.642 0 0 0-39.945-17.237 879.737 879.737 0 0 0-40.767-15.208 854.653 854.653 0 0 0-41.475-13.18 862.32 862.32 0 0 0-42.067-11.091 888.333 888.333 0 0 0-42.566-8.992 864.827 864.827 0 0 0-42.988-6.842 860.37 860.37 0 0 0-43.246-4.704c-293.246-22.675-549.825 94.584-767.691 283.663-414.2 359.479-679.392 910.033-759.617 1448.84-173.108-126.321-347.225-248.037-532.642-355.991Z" style="fill:#f2f2f4;fill-rule:nonzero"/><path d="M5030.71 11759c100.292 57.5 197.759 102.396 306.804 139.862-5.504 4.184-11.041 8.351-16.441 12.675-149.409 119.463-326.979 360.38-335.763 555.901-1.371 30.662-.433 42.154 20.121 63.941 10.154.279 20.971 4.479 30.433.834 33.405-12.863 125.68-170.763 151.805-207.396 161.754-226.684 341.216-349.842 612.416-420.38 819.634-213.179 1475.02 288.751 2111.16 721.996 167.758 114.271 345.05 215.538 519.479 319.234 31.875 148.941 27.325 293.595-.104 442.916-65.746 358.021-244.688 709.896-549.913 919.204-256.704-2.099-503.596-67.049-748.629-137.016-465.921-143.625-954.583-341.25-1355.28-621.004a1796.15 1796.15 0 0 1-208.438-168.438c-65.258-61.771-144.775-200.558-227.116-230.246l-18.475 10.679c-9.875 33.109-1.492 61.059 10.437 92.692 182.046 483.175 812.429 738.542 1243.1 939.008-274.041-9.929-530.17-44.441-786.787-146.387-366.317-145.521-662.829-392.292-820.296-762.346-217.237-510.483-136.683-1026.7 61.479-1525.73Z" style="fill:#4b7493;fill-rule:nonzero"/><path d="M1415.75 8179.08c125.779-20.937 276.337-11.995 400.175 12.867a1129.257 1129.257 0 0 1 53.696 12.621c17.8 4.641 35.479 9.717 53.037 15.225a1120.635 1120.635 0 0 1 52.225 17.779 1125.71 1125.71 0 0 1 51.3 20.279 1145.704 1145.704 0 0 1 50.263 22.758 1128.146 1128.146 0 0 1 49.096 25.192 1137.79 1137.79 0 0 1 47.812 27.517 1151.437 1151.437 0 0 1 46.404 29.825 1154.974 1154.974 0 0 1 44.934 32.05 1132.414 1132.414 0 0 1 43.295 34.183 1148.337 1148.337 0 0 1 41.6 36.25 1133.741 1133.741 0 0 1 39.792 38.229 1147.858 1147.858 0 0 1 37.879 40.104 1133.63 1133.63 0 0 1 35.888 41.913 1146.546 1146.546 0 0 1 33.821 43.608 1133.237 1133.237 0 0 1 31.645 45.192c124.396 188.212 197.313 424.775 211.146 649.617 56.546 919.166-691.004 1453.37-851.475 2267.29-67.671 343.213 3.454 675.417 200.454 963.23 230.242 336.408 628.334 510.766 1017.58 580.854 559.22 100.675 1071.5-68.438 1529.27-386.288 20.75 200.817 59.621 387.934 132.605 576.459-564.217 305.054-1121.8 412.225-1759.46 331.495-275.333-51.183-536.6-122.291-782.137-261.337a1745.165 1745.165 0 0 1-36.667-20.975 1642.13 1642.13 0 0 1-36.112-21.854 1743.468 1743.468 0 0 1-35.588-22.763 1705.305 1705.305 0 0 1-34.983-23.629 1660.422 1660.422 0 0 1-34.408-24.496 1702.078 1702.078 0 0 1-33.788-25.346 1718.41 1718.41 0 0 1-33.142-26.166 1707.51 1707.51 0 0 1-32.483-26.996 1734.76 1734.76 0 0 1-31.804-27.775 1789.957 1789.957 0 0 1-31.113-28.558 1658.97 1658.97 0 0 1-30.379-29.342 1655.243 1655.243 0 0 1-29.654-30.071 1599.214 1599.214 0 0 1-28.908-30.8 1735.958 1735.958 0 0 1-28.125-31.492 1686.008 1686.008 0 0 1-27.325-32.204 1739.419 1739.419 0 0 1-26.546-32.866 1707.747 1707.747 0 0 1-25.692-33.505 1692.467 1692.467 0 0 1-24.862-34.133 1696.306 1696.306 0 0 1-24.029-34.758 1696.37 1696.37 0 0 1-23.142-35.329 1763.702 1763.702 0 0 1-22.258-35.884 1739.668 1739.668 0 0 1-21.355-36.441 1748.039 1748.039 0 0 1-20.45-36.946 1709.212 1709.212 0 0 1-19.529-37.446 1729.58 1729.58 0 0 1-18.596-37.933 1693.542 1693.542 0 0 1-17.654-38.371 1725.26 1725.26 0 0 1-32.416-77.984 1687.388 1687.388 0 0 1-14.738-39.583 1667.217 1667.217 0 0 1-13.767-39.933 1704.34 1704.34 0 0 1-12.762-40.259 1645.638 1645.638 0 0 1-11.771-40.575c-252.029-916.108 252.225-1451.48 667.45-2188.84 171.179-303.958 287.758-667.292 188.488-1014.56-60.746-212.52-206.025-410.366-401.284-517.225-206.216-112.879-442.083-125.379-665.158-59.183-471.267 139.863-747.583 512.95-968.663 925.225 16.563-278.767 83.059-525.087 248.18-755.329 223.279-311.321 557.983-511.321 934.183-572.588Z" style="fill:#fac3b7;fill-rule:nonzero"/><path d="m13532 12661.4 32.984-4.063c28.475 26.096 35.591 51.026 43.404 88.196 44.271 210.225-29.513 434.48-148.367 606.771-433.058 627.571-1491.53 868.109-2191.98 997.138 34.096-119.271 57.5-238.596 76.438-361.08 3.995-125.504-6.821-241.091-56.371-358.07-95.275-225.055-294.809-375.471-515.275-466.2 69.008 1.216 143 3.975 209.479-17.1 92.896-29.463 133.541-92.084 174.687-173.904 281.042-15.038 564.963-67.73 844.113-105.159l1530.89-206.529Z" style="fill:#4b7493;fill-rule:nonzero"/><path d="M10128.6 13273.2c258.871-34.55 533.521 9.496 749.271 161.771 165.433 116.754 250.033 254.966 283.921 452.466-151.13-102.291-321.355-169.862-499.513-207.883-79.2-16.892-278.492-65.537-341.754-16.683-17.708 13.679-13.196 22.829-15.712 43.679 5.816 6.754 9.895 15.538 17.466 20.225 20.433 12.604 85.329 19.15 111.579 25.246 196.579 45.537 424.913 101.508 575.554 242.879 52.38 49.167 95.055 114.933 94.359 189.271-1.163 125.746-104.234 236.442-190.571 316.042-9.204-10.38-18.388-20.417-28.092-30.33-160.416-163.645-375.971-288.854-611.404-287.466-35.729.208-72.171-.588-98.042 27.625-24.008 26.179-20.779 33.975-20.433 67.896 255.608 56.841 451.842 119.725 625.433 326.912-636.525 281.425-1344.04 8.696-1958.56-204.742a1351.62 1351.62 0 0 0 46.042-56.579c229.287-298.904 306.666-699.304 260.016-1067.62 337.521 43.004 662.692 22.517 1000.44-2.708ZM8826.46 10590.3c103.938-9.441 214.842-8.383 318.488 3.421 290.712 33.108 546.387 180.538 725.867 412.5 112.049 144.846 148.666 298.421 124.566 480.192-6.091 46.025-13.992 80.712-51.596 109.879l-22.795-6.304c-14.113-67.984-25.675-140.5-48.175-206.163-60.888-177.691-232.625-335.883-397.938-416.091-61.3-29.742-164.146-68.525-231.612-45.384 6.283 75.296 303.524 268.68 363.404 347.034 67.812 88.75 142.62 228.975 121.562 345.016-9.133 50.242-34.583 97.709-79.012 124.913-35.28 21.596-75.779 25.833-115.329 14.358-145.801-42.275-151.634-237.05-217.588-354.116-19.792-26.421-40.175-52.396-62.917-76.371-98.766-104.255-280.154-249.946-430.85-253.717-36.841 15.521-38.075 17.292-57.533 52.346 27.167 59.671 320.083 191.842 420.692 387.5 27.05 52.621 60.729 128.904 39.775 187.846-11.563 32.5-36.075 55.487-68.263 67.537-126.929 47.517-315.504-139.446-428.179-187.504-42.533-18.142-78.421-24.058-121.612-6.196-6.267 13.804-12.692 31.129-21.788 43.179-31.025 41.075-185.887 64.425-235.854 70.313-136.788 16.146-303.729 4.875-414.946-85.938-62.467-51.008-90.833-115.937-96.683-194.879-14.063-189.687 55.104-403.75 180.691-546.633 205.646-233.959 518.475-246.529 807.625-266.738Z" style="fill:#f2f2f4;fill-rule:nonzero"/><path d="M10691.2 11424.3c31.841 9.721 67.241 39.442 95.762 57.38 137.209 86.283 220.4 107.5 383.75 108.437 51.304 38.679 107.709 70.521 162.729 103.542-224.775 26.787-450.575 75.45-674.045 113.208-327.205 55.296-656.705 104.479-982.45 167.208-37.917 7.292-57.117 15.121-78.817 47.117l7.308 26.667c171.075 115.033 1210.64 424.462 1479.9 503.591l-53.733 169.167c-193.334-64.65-385.888-130.867-579.93-193.454-222.987-84.304-459.204-147.829-686.408-221.875a84732.86 84732.86 0 0 0-1378.09-440.796c104.933-22.537 204.029-52 303.854-91.183a3570.08 3570.08 0 0 0 58.891 40.937c173.455 117.884 291.18 165.871 500.192 125.784l92.446-75.921c84.721 47.587 165.904 80.241 264.912 77.654 110.8-2.917 187.121-52.638 260.384-131.042 39.2-7.271 82.812-14.096 119.462-30.45 120.434-53.716 163.367-163.525 208.159-278.696a12453.565 12453.565 0 0 1 495.729-77.275Z" style="fill:#8b8b8a;fill-rule:nonzero"/><path d="M11403.4 10392.8c137.829-9.879 243.942 21.113 369.375 75.921-49.287 158.888-104.946 316.617-157.325 474.567-33.683-45.763-73.612-97.95-119.983-131.338-41.388-29.808-87.275-48.037-138.646-39.6-12.988 2.134-16.683 13.734-24.238 23.871 4.83 84.359 161.146 261.804 206.913 359.392-33.717 131.704-80.192 263.892-133.804 388.804-90.884-63.767-129.046-128.492-180.279-224.133-51.146-98.488-122.709-266.579-232.43-308.229-19.133 8.054-20.762 3.733-28.8 25.158-39.187 104.425 66.996 290.171 109.93 383.192-55.921-19.963-113.68-39.13-162.45-73.921-88.35-63.042-149.792-151.234-165.955-259.584-20.312-136.287 25.663-273.229 106.53-382.345 133.87-180.609 333.575-277.292 551.162-311.755Z" style="fill:#f2f2f4;fill-rule:nonzero"/><path d="M7998.25 11827.9c1003.75 302.916 2000.52 647.745 2990.62 992.987l-45.45 146.442c-16.512 11.458-31.354 14.962-51.354 14.321-169.967-5.4-961.6-305.346-1180.02-378.696-531.717-178.558-1071.39-341.321-1598.21-533.767-30.575-11.183-83.109-26.666-104.604-52.329-33.975-40.537-14.842-140.05-10.988-188.958Z" style="fill:#8b8b8a;fill-rule:nonzero"/><path d="M7374.71 11799c147.05 91.059 259.534 94.759 425.521 65.538 2.346 73.821.729 153.475 35.763 220.712 32.433 62.204 85.125 93.734 145.541 123.734 158.488 78.7 345.796 122.866 514.271 178.645l996.925 329.825c-92.829 51.321-188.854 97.659-283.525 145.575l-201.25 98.959c-223.108-209.775-392.012-147.138-634.671-281.563-438.125-242.725-818.541-568.471-1268.09-794.012 94.112-18.521 182.292-47.775 269.512-87.413ZM8548.08 12924.7c73.596 17.971 153.7 37.813 218.475 78.059 95.067 59.025 144.184 157.308 167.567 264.025 65.488 298.995-33.296 669.654-196.475 924.358-96.629 150.833-209.792 263.908-388.125 302.221-155.087.437-253.071-20.017-386.837-99.667 209.687-123.354 362.029-294.271 476.333-509.167 159.167-299.204 206.583-633.283 109.062-959.829Z" style="fill:#4b7493;fill-rule:nonzero"/><path d="M8009.79 10459.8c68.125-.592 137.845 9.913 205.691 16.771-217.654 119.775-383.712 258.296-477.221 496.821-96.162 245.246-92.741 494.687 11.996 732.291l-10.433 14.063c-43.596 11.146-85.8 5.142-130.033 1.408-55.784-22.258-108.3-38.629-155.175-78.004-83.7-70.329-125.642-168.404-132.813-276.112-16.441-246.942 90.625-514.88 251.821-698.942 126.962-145 247.208-196.525 436.167-208.296Z" style="fill:#7a7bbe;fill-rule:nonzero"/><path d="M9756.12 12810.2c106.354 1.041 763.3 255.258 923.717 310.97-206.404-28.004-405.85-37.933-614.134-30.537-307.27 18.108-611.25 21.529-919.008 17.742 196.65-109.184 406.442-200.971 609.425-298.175Z" style="fill:#4b7493;fill-rule:nonzero"/><path d="M5048.62 11089c27.225 32.187 47.521 79.287 69.637 116.129 65.867 109.667 141.146 213.125 237.326 298.312 38.733 34.309 80.295 68.075 124.325 95.334 52.275 32.341 206.525 84.704 232.116 135.345l-27.9 11.492c-163.591 1.738-334.479-49.825-477.604-128.317-95.625-52.429-184.025-127.445-213.958-236.333-29.65-107.812 3.558-198.437 56.058-291.962Z" style="fill:#7a7bbe;fill-rule:nonzero"/><path d="M10220 11995.6c115.154-24.567 263 52.137 369.183 91.129a7166.033 7166.033 0 0 0-385.279 71.442c-114.841-6.267-245.866-62.95-354.375-100.763A13184.8 13184.8 0 0 0 10220 11995.6ZM10751.5 11904.5c121.892-26.041 265.259 47.342 378.421 87.325-103.662 26.13-210.975 43.388-315.975 63.838-106.091 12.846-269.375-61.234-370.971-93.159 100.784-26.25 205.905-40.262 308.525-58.004ZM10641.2 12139.5c117.292-18.246 234.321 37.5 343.438 75.125a14852.208 14852.208 0 0 1-326.771 68.575c-84.55 31.075-259.271-53.783-342.275-84.221 107.741-25.537 216.266-42.462 325.608-59.479Z" style="fill:#8b8b8a;fill-rule:nonzero"/></g></svg>
