<?xml version="1.0" encoding="UTF-8" standalone="no"?><!DOCTYPE svg PUBLIC "-//W3C//DTD SVG 1.1//EN" "http://www.w3.org/Graphics/SVG/1.1/DTD/svg11.dtd"><svg width="100%" height="100%" viewBox="0 0 3331 3867" version="1.1" xmlns="http://www.w3.org/2000/svg" xmlns:xlink="http://www.w3.org/1999/xlink" xml:space="preserve" xmlns:serif="http://www.serif.com/" style="fill-rule:evenodd;clip-rule:evenodd;stroke-linejoin:round;stroke-miterlimit:2;"><rect id="Artboard1" x="-0" y="0" width="3330.38" height="3866.32" style="fill:none;"/><path d="M564.372,1136.58c-4.461,-1.186 -8.908,-2.428 -13.342,-3.725c-4.43,-1.297 -8.846,-2.649 -13.246,-4.054c-4.397,-1.406 -8.776,-2.866 -13.137,-4.379c-4.364,-1.514 -8.707,-3.081 -13.029,-4.7c-4.325,-1.623 -8.629,-3.298 -12.913,-5.025c-4.28,-1.725 -8.54,-3.505 -12.779,-5.338c-4.239,-1.831 -8.454,-3.714 -12.646,-5.65c-4.191,-1.936 -8.36,-3.924 -12.504,-5.962c-4.142,-2.039 -8.258,-4.13 -12.35,-6.271c-4.092,-2.142 -8.156,-4.332 -12.192,-6.571c-4.039,-2.242 -8.048,-4.532 -12.029,-6.871c-3.98,-2.339 -7.932,-4.728 -11.854,-7.167c-3.922,-2.436 -7.814,-4.92 -11.675,-7.454c-3.861,-2.533 -7.69,-5.114 -11.487,-7.741c-3.795,-2.628 -7.559,-5.302 -11.292,-8.021c-3.731,-2.72 -7.427,-5.486 -11.088,-8.3c-3.664,-2.811 -7.291,-5.667 -10.883,-8.567c-3.594,-2.9 -7.151,-5.844 -10.671,-8.833c-3.519,-2.989 -7.001,-6.021 -10.446,-9.096c-3.444,-3.075 -6.851,-6.192 -10.22,-9.35c-3.367,-3.158 -6.695,-6.358 -9.984,-9.6c-3.289,-3.242 -6.537,-6.522 -9.746,-9.842c-3.208,-3.322 -6.375,-6.683 -9.5,-10.083c-3.125,-3.397 -6.208,-6.833 -9.25,-10.308c-3.039,-3.475 -6.036,-6.988 -8.991,-10.538c-2.953,-3.55 -5.863,-7.135 -8.729,-10.754c-2.864,-3.622 -5.684,-7.278 -8.459,-10.967c-2.775,-3.691 -5.504,-7.416 -8.187,-11.175c-2.684,-3.758 -5.321,-7.548 -7.913,-11.371c-2.589,-3.822 -5.13,-7.676 -7.625,-11.562c-2.494,-3.886 -4.941,-7.802 -7.341,-11.746c-2.398,-3.947 -4.746,-7.922 -7.046,-11.925c-88.179,-150.387 -107.825,-336.875 -63.367,-504.579c33.175,-125.146 111.25,-249.893 224.888,-315.68c88.841,-51.431 189.275,-59.741 287.629,-33.277c139.133,37.435 248.025,141.316 318.254,264.103c27.154,47.475 47.158,97.929 65.242,149.425c23.987,-9.467 47.387,-18.596 72.87,-23.342c19.85,-3.696 40.55,-4.775 60.092,-9.7c-9.321,-11.258 -24.012,-26.917 -22.608,-42.808c0.604,-6.838 3.346,-11.838 8.733,-15.967c34.508,-26.454 125.429,-13.192 165.921,-6.271c44.45,7.592 88.708,21.217 130.962,36.859c20.792,7.695 41.663,17.7 63.059,23.4c27.237,7.254 56.887,6.275 84.716,11.025c99.896,17.05 202.884,45.687 289.325,99.891c58.609,-176.004 194.996,-349.821 362.059,-433.66c99.291,-49.831 210.7,-64.588 317.166,-28.872c114.496,38.41 204.205,128.977 257.075,235.891c76.705,155.1 78.921,353.995 23.242,516.191c-48.658,141.746 -146.521,261.959 -282.154,328.388c-82.346,40.333 -178.913,59.391 -270.079,64.741c3.9,82.625 3.325,141.45 -4.4,224.18c56.471,2.883 115.496,15.245 168.037,36.216l-3.062,0.95c-36.7,11.159 -80.159,13.613 -118.304,17.475c-15.28,1.55 -32.492,1.813 -47.138,6.513c-4.858,1.558 -6.017,2.604 -8.458,7.179c-7.604,14.267 -9.309,33.658 -14.242,49.117c-17.737,55.608 -45.962,120.512 -84.987,164.02c26.745,15.255 119.85,66.509 127.695,95.263c0.596,2.196 0.325,3.571 0.142,5.683c-5.137,3.363 -11.708,1.646 -17.579,0.438c-38.713,-7.963 -124.3,-40.663 -156.688,-37.988l-3.329,2.238c2.867,11.904 36.771,31.571 47.554,40.229c71.546,57.467 76.534,144.862 52.017,227.233c25.346,13.046 49.558,29.6 73.333,45.309c97.63,64.508 178.721,140.466 215.709,254.741c32.296,99.784 33.55,214.121 0.233,313.888c-12.542,37.546 -29.754,71.483 -45.137,107.671c15.004,68.775 6.633,150.083 -32.188,210.22c-23.779,36.846 -59.975,66.625 -103.542,75.838c-28.241,5.967 -54.954,2.383 -81.9,-7.417c-36.716,7.992 -69.875,11.142 -103.362,-10.141c-17.392,-11.055 -33.25,-25.675 -51.5,-35.238c-13.721,-7.192 -29.388,-11.012 -43.571,-17.304c-29.958,-13.296 -51.896,-42.908 -58.292,-74.704c-6.566,-32.613 2.559,-61.392 14.655,-91.425c-20.613,-40.621 -28.275,-76.55 -14.017,-121.05c13.704,-42.775 39.675,-74.013 79.233,-95.121c-13.05,-33.463 -16.941,-64.667 -17.566,-100.433c-24.246,-18.146 -51.65,-30.488 -77.246,-46.38c-4.467,43.117 -5.875,87.942 -4.771,131.25c1.287,50.621 8.721,106.467 -1.775,156.167c-3.879,18.363 -11.142,31.671 -21.054,47.354c3.458,28.8 6.866,52.354 -11.929,77.038c-6.08,7.983 -13.95,15.154 -21.038,22.262c6.4,16.129 12.383,41.217 23.983,54.004c20.267,22.338 52.663,40.842 77.363,58.717c114.767,83.063 231.85,166.363 362.508,222.746c109.984,47.458 231.813,67.121 346.038,21.942c77.646,-30.709 145.371,-89.163 178.746,-166.771c1.833,-4.273 3.561,-8.588 5.183,-12.946c1.622,-4.356 3.136,-8.749 4.542,-13.179c1.402,-4.434 2.697,-8.898 3.883,-13.392c1.183,-4.497 2.257,-9.019 3.221,-13.567c0.961,-4.547 1.809,-9.116 2.546,-13.708c0.738,-4.589 1.362,-9.194 1.87,-13.817c0.511,-4.622 0.907,-9.252 1.188,-13.891c0.283,-4.642 0.451,-9.286 0.504,-13.934c0.053,-4.65 -0.01,-9.297 -0.187,-13.941c-0.175,-4.648 -0.466,-9.286 -0.871,-13.917c-0.403,-4.631 -0.921,-9.249 -1.554,-13.854c-0.634,-4.606 -1.38,-9.193 -2.238,-13.763c-0.858,-4.569 -1.829,-9.115 -2.912,-13.637c-1.081,-4.52 -2.274,-9.011 -3.58,-13.475c-1.302,-4.464 -2.715,-8.892 -4.237,-13.283c-1.522,-4.392 -3.152,-8.745 -4.888,-13.059c-26.825,-66.675 -74.612,-123.446 -122.691,-175.866c-101.671,-110.838 -209.042,-218.259 -229.342,-375.246c-7.962,-61.554 -1.358,-127.938 22.954,-185.338c1.978,-4.608 4.07,-9.166 6.275,-13.675c2.203,-4.505 4.515,-8.955 6.938,-13.35c2.422,-4.391 4.951,-8.722 7.587,-12.991c2.636,-4.267 5.377,-8.467 8.221,-12.6c2.842,-4.134 5.785,-8.195 8.829,-12.184c3.045,-3.989 6.184,-7.9 9.417,-11.733c3.236,-3.833 6.565,-7.583 9.987,-11.25c3.42,-3.67 6.928,-7.253 10.525,-10.75c3.6,-3.497 7.282,-6.903 11.046,-10.217c3.767,-3.316 7.611,-6.537 11.534,-9.662c3.925,-3.125 7.923,-6.152 11.995,-9.079c4.073,-2.931 8.216,-5.757 12.43,-8.48c4.211,-2.725 8.487,-5.344 12.829,-7.858c4.341,-2.514 8.741,-4.919 13.2,-7.217c4.461,-2.297 8.975,-4.482 13.541,-6.554c4.57,-2.075 9.186,-4.036 13.85,-5.883c2.731,-1.078 5.474,-2.122 8.23,-3.133c2.755,-1.009 5.522,-1.984 8.3,-2.925c2.78,-0.942 5.572,-1.848 8.375,-2.717c2.802,-0.872 5.616,-1.708 8.441,-2.508c2.822,-0.803 5.654,-1.57 8.496,-2.3c2.844,-0.728 5.696,-1.423 8.554,-2.084c2.861,-0.658 5.729,-1.28 8.604,-1.866c2.875,-0.589 5.759,-1.141 8.65,-1.655c2.889,-0.516 5.784,-0.995 8.684,-1.437c2.902,-0.445 5.809,-0.852 8.721,-1.221c2.911,-0.372 5.826,-0.707 8.745,-1.004c2.92,-0.297 5.843,-0.558 8.771,-0.783c2.925,-0.225 5.853,-0.413 8.784,-0.563c2.93,-0.153 5.863,-0.268 8.8,-0.346c2.933,-0.078 5.866,-0.119 8.8,-0.125c2.936,-0.005 5.87,0.027 8.804,0.096c2.936,0.067 5.869,0.171 8.8,0.313c2.93,0.141 5.859,0.319 8.787,0.533c2.928,0.214 5.852,0.465 8.771,0.754c2.922,0.286 5.839,0.61 8.75,0.971c2.914,0.361 5.822,0.758 8.725,1.192c2.903,0.433 5.8,0.902 8.692,1.408c2.889,0.503 5.772,1.043 8.65,1.621c2.877,0.577 5.748,1.191 8.612,1.841c2.861,0.648 5.714,1.332 8.559,2.055c2.847,0.719 5.683,1.475 8.508,2.266c2.825,0.789 5.64,1.615 8.446,2.479c2.808,0.861 5.604,1.757 8.387,2.688c2.781,0.93 5.552,1.896 8.313,2.896c2.758,1 5.504,2.034 8.237,3.104c2.734,1.069 5.453,2.172 8.159,3.308c2.705,1.136 5.397,2.307 8.075,3.513c108.245,48.141 205.425,143.912 248.045,255.7c15.242,39.979 33.925,118.991 15.755,159.95c-2.671,6.021 -6.609,11.991 -12.784,14.754c-3.471,1.558 -6.783,0.567 -10.45,0.258c-15.854,-8.425 -38.421,-60.696 -50.696,-77.775c-70.966,-98.733 -214.137,-221.1 -346.383,-181.404c-34.175,10.258 -63.762,31.746 -80.767,63.529c-19.554,36.554 -19.341,77.5 -7.033,116.321c23.492,74.096 78.867,130.517 132.404,184.342c126.975,127.65 242.65,254.387 254.229,444.591c0.37,5.7 0.643,11.406 0.821,17.117c0.178,5.708 0.26,11.418 0.246,17.129c-0.011,5.714 -0.119,11.425 -0.325,17.134c-0.206,5.708 -0.507,11.411 -0.904,17.108c-0.397,5.7 -0.89,11.39 -1.479,17.071c-0.586,5.683 -1.268,11.354 -2.046,17.012c-0.781,5.659 -1.654,11.303 -2.621,16.934c-0.967,5.63 -2.029,11.241 -3.187,16.833c-1.156,5.594 -2.405,11.168 -3.746,16.721c-1.345,5.552 -2.782,11.08 -4.313,16.583c-1.528,5.506 -3.148,10.982 -4.862,16.429c-1.711,5.45 -3.514,10.87 -5.409,16.259c-1.897,5.388 -3.882,10.744 -5.954,16.066c-2.075,5.322 -4.239,10.609 -6.491,15.859c-2.253,5.25 -4.592,10.459 -7.017,15.629c-2.428,5.172 -4.942,10.301 -7.542,15.387c-2.111,4.042 -4.271,8.059 -6.479,12.05c-2.208,3.989 -4.467,7.952 -6.775,11.888c-2.306,3.933 -4.66,7.839 -7.062,11.716c-2.403,3.878 -4.853,7.725 -7.35,11.542c-2.498,3.817 -5.041,7.601 -7.63,11.354c-2.591,3.756 -5.227,7.478 -7.908,11.167c-2.681,3.689 -5.407,7.344 -8.179,10.967c-2.77,3.622 -5.585,7.211 -8.446,10.766c-2.858,3.553 -5.761,7.07 -8.708,10.55c-2.945,3.484 -5.932,6.929 -8.963,10.338c-3.03,3.408 -6.103,6.779 -9.216,10.112c-3.114,3.334 -6.267,6.628 -9.459,9.884c-3.194,3.255 -6.429,6.472 -9.704,9.65c-3.272,3.175 -6.583,6.309 -9.933,9.404c-3.35,3.097 -6.738,6.151 -10.163,9.162c-3.425,3.011 -6.886,5.981 -10.383,8.909c-3.5,2.925 -7.033,5.808 -10.6,8.65c-3.57,2.838 -7.174,5.634 -10.813,8.387c-3.636,2.75 -7.307,5.456 -11.012,8.117c-3.703,2.661 -7.439,5.276 -11.208,7.846c-3.767,2.569 -7.566,5.093 -11.396,7.57c-3.831,2.475 -7.691,4.905 -11.579,7.288c-3.892,2.38 -7.812,4.714 -11.759,7c-3.944,2.283 -7.918,4.519 -11.921,6.708c-4.002,2.186 -8.032,4.324 -12.087,6.413c-4.053,2.089 -8.132,4.127 -12.238,6.116c-4.105,1.989 -8.234,3.927 -12.387,5.813c-4.15,1.886 -8.324,3.722 -12.521,5.508c-4.2,1.784 -8.419,3.515 -12.658,5.196c-4.239,1.681 -8.499,3.31 -12.779,4.888c-4.281,1.575 -8.58,3.098 -12.896,4.57c-4.317,1.47 -8.652,2.886 -13.004,4.25c-192.125,60.78 -403.134,17.83 -577.905,-74.062c-48.287,-25.388 -94.35,-53.5 -140.52,-82.479c-19.25,-12.079 -41.309,-23.467 -57.796,-38.971c-0.263,-0.25 -0.538,-0.492 -0.804,-0.738c11.15,55.871 31.241,153.913 12.562,206.642c65.325,52.271 142.858,129.3 152.521,216.188c3.675,33.058 -3.483,65.783 -24.738,92.1c-37.22,46.079 -103.908,63.52 -160.204,68.866c-88.562,8.404 -200.683,-8.754 -271.029,-67.496c-2.611,-2.216 -5.167,-4.493 -7.667,-6.829c-2.5,-2.339 -4.943,-4.736 -7.329,-7.191c-2.386,-2.459 -4.711,-4.971 -6.975,-7.538c-2.264,-2.569 -4.465,-5.19 -6.604,-7.862c-2.139,-2.675 -4.211,-5.399 -6.217,-8.171c-2.008,-2.775 -3.948,-5.596 -5.82,-8.463c-1.87,-2.866 -3.671,-5.776 -5.405,-8.729c-1.73,-2.953 -3.39,-5.946 -4.979,-8.979c-1.586,-3.033 -3.098,-6.104 -4.537,-9.213c-1.442,-3.105 -2.807,-6.244 -4.096,-9.416c-1.289,-3.173 -2.5,-6.374 -3.633,-9.604c-1.137,-3.228 -2.194,-6.484 -3.171,-9.767c-0.978,-3.281 -1.877,-6.583 -2.696,-9.908c-0.82,-3.323 -1.558,-6.664 -2.217,-10.025c-0.658,-3.359 -1.236,-6.732 -1.733,-10.121c-0.495,-3.386 -0.908,-6.784 -1.242,-10.192c-0.091,-0.967 -0.158,-1.933 -0.237,-2.904c-6.329,-31.521 -4.496,-67.121 -2.904,-99.133c1.012,-25.121 -25.742,-40.996 -34.055,-64.446c-13.9,-39.225 -22.266,-80.646 -34.079,-120.538c-25.687,-86.741 -58.096,-175.575 -101.575,-255.141c-66.25,-0.63 -131.629,-5.875 -197.675,-9.859c-18.783,58.996 -32.096,117.584 -42.787,178.579c-6.742,38.484 -10.075,77.775 -14.013,116.638c-2.496,24.642 -3.604,50.775 -10.704,74.592c-2.558,8.575 -7.008,16.091 -11.808,23.562c16.471,40.692 26.608,93.479 8.475,135.296c-25.979,59.908 -101.096,93.417 -158.084,114.75c-115.658,43.292 -291.87,70.142 -406.958,17.312c-35.321,-16.216 -69.621,-45.129 -83.079,-82.587c-11.954,-33.271 -7.179,-76.433 8.633,-107.783c25.921,-51.392 80.059,-81.825 132.946,-98.871c30.317,-9.767 61.871,-16.688 93.192,-22.292c-7.963,-32.896 -8.292,-68.633 -9.842,-102.342c-5.371,-116.641 0.929,-238.366 19.013,-353.766c6.12,-39.034 14.862,-77.017 22.762,-115.667c-21.787,-37.467 -24.917,-63.546 -16.925,-106.15c-10.904,-14.592 -20.092,-27.433 -26.062,-44.896c-16.846,-49.283 -2.309,-143.425 1.562,-196.25c-103.492,50.434 -168.4,57.234 -281.742,47.571c-32.891,-2.8 -64.1,-5.058 -95.637,-15.887c-16.4,-5.781 -32.297,-12.713 -47.692,-20.796c-75.754,18.329 -149.479,8.879 -216.346,-32.396c-56.908,-35.125 -107.441,-96.004 -122.55,-162.125c-4.22,-18.463 -6.033,-37.538 -10.7,-55.846c-4.904,-19.237 -14.229,-37.171 -18.925,-56.454c-14.037,-57.696 -1.9,-128.221 30.021,-178.088c35.575,-55.57 93.829,-97.745 158.521,-111.545c24.417,-5.209 46.488,-5.467 71.092,-1.817c40.079,-20.846 76.812,-26.133 120.475,-12.508c45.125,14.079 73.683,45.091 97.546,84.62c38.858,7.163 62.341,22.092 86.445,53.659c26.88,-8.767 54.275,-16.604 82.617,-18.684c18.15,-1.329 37,2.446 54.554,-2.929c48.8,-14.937 114.059,-63.408 165.609,-85.875c-104.067,-55.933 -205.98,-121.933 -281.792,-213.979c-26.158,7.858 -163.196,49.721 -178.75,43.85c1.533,-14.292 27.062,-34.637 38.037,-43.408c30.634,-24.475 66.688,-40.85 102.775,-55.542c-27.345,-57.242 -50.737,-113.487 -44.587,-178.537c-46.05,-17.559 -95.704,-27.046 -143.75,-37.575c-16.913,-3.709 -40.825,-5.038 -55.954,-12.509l-0.192,-3.008c25.25,-22.058 113.033,-24.158 146.146,-21.992c21.692,1.417 43.362,3.75 65,5.879c4.75,-25.112 20.429,-54.2 35.221,-74.891c-0.313,-75.592 -9.05,-153.388 4.254,-228.446Z" style="fill:#333944;fill-rule:nonzero;"/><path d="M1665.74,3545.7c0.604,-5.238 1.191,-8.459 3.933,-13c4.092,8.433 4.537,99.45 0.521,109.387c-0.392,0.975 -1.034,1.833 -1.55,2.746c-6.329,-31.521 -4.496,-67.121 -2.904,-99.133Z" style="fill:#15181e;fill-rule:nonzero;"/><path d="M1928.45,708.167l1.092,-2.866c8.025,-21.475 12.425,-44.529 18.021,-66.742c6.975,-28.808 15.49,-57.153 25.546,-85.033c59.937,-168.2 178.5,-340.045 344.054,-417.478c84.391,-39.471 168.033,-50.351 256.196,-17.513c97.712,36.397 168.595,117.412 210.779,210.92c62.071,137.587 64.971,306.662 11.291,447.387c-48.308,126.634 -141.737,234.292 -266.508,289.817c-70.258,31.263 -152.758,48.075 -229.521,47.317c-2.6,-11.721 -4.841,-23.684 -8.237,-35.196c-15.45,-64.4 -41.146,-121.383 -69.171,-180.946c19.4,-34.046 38.921,-68.758 51.612,-105.954c9.725,-28.508 23.559,-79.213 8.13,-107.633c-1.959,-3.609 -6.388,-8.83 -10.642,-9.375c-19.546,-2.517 -92.683,51.933 -113.917,65.208c30.35,-128.229 81.3,-250.3 165.267,-353.025c47.037,-57.538 110.517,-116.229 188.171,-123.45c46.679,-4.342 88.941,11.942 124.408,41.854c97.883,82.55 123.888,230.054 125.442,351.708c0.316,24.755 -6.263,64.342 -4.067,85.296c0.117,1.117 0.267,2.229 0.4,3.342c46.942,-114.196 55.317,-245.483 7.133,-361.138c-30.766,-73.854 -82.87,-139.425 -158.27,-170.61c-60.221,-24.909 -125.425,-20.439 -184.821,4.51c-134.309,56.413 -224.142,205.509 -276.188,336.017c-17.479,43.829 -73.337,239.617 -63.191,277.971c7.808,4.812 16.633,2.25 25.17,0.242c32.871,-7.746 68.375,-23.659 97.259,-41.088c-12.384,37.871 -32.846,71.633 -53.329,105.492c2.55,4.85 5.051,9.723 7.504,14.621c2.452,4.9 4.855,9.822 7.208,14.766c2.356,4.947 4.661,9.917 6.917,14.909c2.255,4.994 4.461,10.009 6.616,15.045c2.156,5.036 4.261,10.093 6.317,15.171c2.056,5.078 4.061,10.177 6.017,15.296c1.952,5.117 3.854,10.254 5.704,15.413c1.853,5.155 3.653,10.329 5.4,15.52c1.75,5.192 3.447,10.4 5.092,15.625c1.644,5.225 3.236,10.467 4.775,15.725c1.541,5.259 3.03,10.531 4.466,15.817c1.434,5.286 2.815,10.588 4.146,15.904c1.331,5.314 2.607,10.64 3.829,15.979c1.225,5.339 2.396,10.691 3.513,16.055c1.116,5.363 2.18,10.737 3.191,16.12c1.011,5.386 1.968,10.781 2.871,16.184c0.903,5.402 1.752,10.815 2.546,16.237c0.794,5.42 1.535,10.847 2.221,16.284c0.689,5.433 1.322,10.873 1.9,16.32c0.578,5.45 1.103,10.905 1.575,16.363c0.469,5.455 0.885,10.917 1.246,16.383c0.361,5.467 0.668,10.936 0.921,16.409c0.252,5.475 0.45,10.95 0.591,16.425c0.145,5.477 0.234,10.955 0.267,16.433c0.036,5.478 0.017,10.955 -0.058,16.433c-0.075,5.478 -0.205,10.954 -0.388,16.429c-0.183,5.475 -0.422,10.949 -0.717,16.421c-0.291,5.47 -0.639,10.936 -1.041,16.4c-0.4,5.464 -0.856,10.922 -1.367,16.375c-0.511,5.456 -1.075,10.906 -1.692,16.35c-0.619,5.442 -1.293,10.878 -2.02,16.309c-0.725,5.43 -1.506,10.852 -2.342,16.266c-114.554,11.292 -238.946,40.167 -315.358,134.371l-2.892,3.613c70.162,-20.371 139.387,-43.475 211.129,-57.863c32.15,-6.446 64.938,-9.437 97.413,-13.821c-16.259,69.109 -48.292,132.963 -88.059,191.4c-68.446,-21.725 -152.729,-48.058 -221.325,-14.075c25.538,12.079 53.434,20.167 79.929,30.071c31.242,11.675 61.98,24.954 93.013,37.217c-157.179,171.858 -443.463,278.7 -672.442,288.866c-188.216,8.359 -371.271,-43.604 -535.279,-134.208c-62.237,-34.379 -123.033,-74.733 -175.358,-123.1c-11.367,-10.504 -22.596,-21.537 -32.763,-33.221c34.971,-10.816 68,-24.321 101.438,-39.15c-44.263,-13.662 -91.909,-15.766 -136.509,-1.962c-29.445,-48.434 -50.595,-93.763 -59.1,-150.417c56.95,13.883 113.681,28.615 170.192,44.196c-36.025,-51.413 -101.196,-89.138 -159.579,-109.95c12.912,-27.554 30.467,-51.633 44.496,-78.413c-2.1,-46.829 -8.146,-93.304 -7.713,-140.279c1.809,-195.4 66.625,-374.15 199.117,-518.883c69.7,-76.133 175.95,-161.763 279.504,-179.438c0.725,0.23 1.454,0.442 2.175,0.684c27.683,9.337 51.333,34.429 80.142,39.4c2.512,-1.692 4.108,-1.713 4.479,-5.05c2.2,-19.9 -39.708,-67.654 -52.771,-81.496c-4.167,-4.411 -8.376,-8.781 -12.629,-13.108c61.108,-10.325 110.029,-5.871 168.446,14.845c20.787,7.371 41.925,16.388 63.471,21.084c-17.884,-52.771 -57.509,-91.304 -100.871,-124.746c89.625,9.575 160.433,36.008 238.066,80.942c130.05,-1.542 280.23,32.42 392.117,101.512c-8.392,31.008 -14.267,67.625 2.517,97.038c9.237,16.183 22.075,25.537 37.687,34.92Z" style="fill:#f2f2f4;fill-rule:nonzero;"/><path d="M2157.18,740.08c30.35,-128.229 81.3,-250.3 165.267,-353.025c47.037,-57.538 110.517,-116.229 188.171,-123.45c46.679,-4.342 88.941,11.942 124.408,41.854c97.883,82.55 123.888,230.054 125.442,351.708c0.316,24.755 -6.263,64.342 -4.067,85.296c0.117,1.117 0.267,2.229 0.4,3.342c-38.058,114.217 -120.287,218.904 -229.062,273.142c-33.055,16.483 -69.28,29.825 -105.317,37.995c-23.488,5.325 -121.35,15.717 -131.254,21.838c-15.45,-64.4 -41.146,-121.383 -69.171,-180.946c19.4,-34.046 38.921,-68.758 51.612,-105.954c9.725,-28.508 23.559,-79.213 8.13,-107.633c-1.959,-3.609 -6.388,-8.83 -10.642,-9.375c-19.546,-2.517 -92.683,51.933 -113.917,65.208Z" style="fill:#f1c5b9;fill-rule:nonzero;"/><path d="M1358.24,1151.3c7.162,34.287 12.312,97.295 44.383,117.4c7.104,4.45 15.45,6.066 23.633,4.045c40.692,-10.041 113.154,-63.087 151.329,-87.825c70.242,-45.504 210.671,-134.091 289.709,-156.27c20.633,-5.792 48.166,-10.575 67.904,-0.225c5.158,2.704 10.554,7.466 12.692,13.029c1.025,2.658 1.241,5.808 -0.292,8.271c-10.742,17.245 -90.542,40.104 -113.454,50.262c46.5,23.238 80.133,52.813 97.275,103.175c20.441,60.063 15.362,137.133 -13.084,193.875c-9.15,18.25 -27.841,49.796 -47.379,57.083c-2.212,0.825 -2.837,0.642 -4.904,0.567c-29.579,23.692 -75.271,45.504 -111.612,55.008c-58.438,15.284 -118.4,9.288 -170.292,-21.654c-43.346,-25.846 -78.758,-65.121 -92,-114.558c-4.913,-18.338 -6.871,-37.246 -11.617,-55.479l-1.033,-3.838c-26.529,12.271 -55.642,23.196 -84.746,12.192c-18.987,-7.179 -32.121,-23.167 -39.921,-41.442c-18.158,-42.541 -7.241,-90.625 3.409,-133.616Z" style="fill:#333944;fill-rule:nonzero;"/><path d="M1827.39,1222.76c-12.929,9.8 -27.509,20.438 -44.804,17.85c-11.83,-1.767 -25.213,-12.154 -31.784,-21.892c-3.679,-5.45 -5.229,-11.429 -3.646,-17.92c4.846,-19.896 24.059,-24.45 33.946,-38.946c1.367,-2.009 -0.596,-10.288 -0.996,-12.492c4.709,-5.037 12.163,-5.325 18.963,-5.508c28.183,-0.759 55.642,14.05 75.021,33.746c30.412,30.912 43.5,81.17 42.921,123.595c-0.767,55.917 -19.83,107.571 -50.963,153.492c-29.579,23.692 -67.141,52.088 -103.483,61.592c-58.437,15.283 -129.85,10.972 -181.741,-19.97c-43.346,-25.845 -84.968,-66.471 -98.21,-115.909c-4.912,-18.337 -5.345,-20.465 -2.087,-62.396l-2.268,-3.09c24.138,-14.212 48.989,-29.473 71.856,-45.698c-7.654,46.663 -0.104,98.004 27.625,137.25c21.258,30.092 53.983,49.663 90.204,55.75c38.175,6.421 79.937,-1.508 111.5,-24.425c35.104,-25.483 55.554,-68.616 61.612,-110.779c5.155,-35.85 1.175,-71.158 -13.666,-104.25Z" style="fill:#f2f2f4;fill-rule:nonzero;"/><path d="M785.364,1020.71c72.212,-0.625 206.008,130.733 261.012,180.192c20.396,18.341 56.1,57.158 83.65,61.995c15.767,-6.679 23.379,-66.1 27.954,-83.125c3.475,-12.929 7.804,-25.22 12.892,-37.595c13.175,34.05 16.942,85.325 6.654,120.779c-5.021,17.308 -13.937,35.933 -30.667,44.625c-16.812,8.737 -29.133,4.033 -45.683,-1.771c-0.437,15.929 -1.292,31.708 -4.492,47.358c-7.637,37.359 -25.804,71.954 -58.629,92.984c-22.654,14.508 -49.583,20.7 -76.025,14.366c-35.3,-8.454 -56.962,-34.154 -75.358,-63.266c-19.033,-37.825 -26.317,-75.438 -23.313,-117.796c3.15,-44.463 17.9,-79.017 51.95,-108.296c-11.737,-10.775 -23.52,-21.046 -37.095,-29.45c-11.017,2.179 -21.925,4.483 -32.196,9.179c-28.813,13.179 -46.388,38.367 -56.475,67.488c-25.213,72.812 -5.892,148.116 26.612,214.783c-5.078,-5.439 -9.886,-11.107 -14.425,-17.004c-4.539,-5.898 -8.786,-11.998 -12.741,-18.3c-3.956,-6.303 -7.603,-12.779 -10.942,-19.429c-3.339,-6.65 -6.354,-13.444 -9.046,-20.38c-21.658,-56.666 -23.487,-130.162 1.817,-185.987c14.691,-32.408 37.491,-56.608 71.008,-69.433c-22.875,-14.846 -61.733,-30.221 -78.887,-49.959c-4.642,-5.341 -5.334,-9.291 -4.738,-16.15c6.554,-10.191 16.013,-12.433 27.163,-15.808Z" style="fill:#333944;fill-rule:nonzero;"/><path d="M1020.14,1258.5c11.062,1.375 17.496,4.995 25.666,12.558c7.75,7.171 13.9,17.025 13.725,27.929c-0.15,9.238 -4.641,14.383 -11.166,20.321c-8.429,0.921 -14.796,0.667 -22.325,-3.533c-7.504,-4.188 -12.363,-11.146 -14.438,-19.417c-3.666,-14.633 0.713,-25.629 8.538,-37.858Z" style="fill:#fff;fill-rule:nonzero;"/><path d="M1179.47,1498.13c36.146,-4.196 78.612,-1.546 113.721,7.525c21.916,5.666 48.154,15.587 59.454,36.604c7.725,14.367 6.141,30.996 1.071,45.954c-17.93,52.929 -71.684,90.138 -119.18,114.15c-0.325,23.433 0.921,46.496 2.471,69.858c59.304,-18.07 118.967,-41.945 179.967,-53.108c55.587,-10.167 125.404,-9.129 173.525,24.625c13.862,9.725 29.95,22.1 33.121,39.592c-1.679,5.437 -1.975,5.9 -6.371,9.508c-18.463,-1.383 -36.642,-6.767 -54.717,-10.637c-20.729,-4.434 -41.291,-7.396 -62.371,-9.488c-94.233,-2.829 -194.462,25.75 -283.787,54.158c-29.879,9.505 -59.875,21.78 -90.304,29.155c-9.421,2.283 -22.5,6.575 -30.913,1.375c-2.116,-6.796 -1.566,-12.025 1.996,-18.309c20.129,-35.491 81.063,-50.408 116.817,-60.241c-9.279,-23.65 -16.029,-48.95 -17.738,-74.338c-11.547,-4.033 -22.778,-8.808 -33.691,-14.325c-10.917,-5.519 -21.421,-11.733 -31.513,-18.642c-30.021,-20.483 -64.162,-53.695 -70.35,-91.2c-2.387,-14.47 0.775,-28.929 9.733,-40.629c23.48,-30.687 73.4,-37.708 109.059,-41.587Z" style="fill:#333944;fill-rule:nonzero;"/><path d="M1182.57,1552.31c37.75,-2.442 64.671,3.779 99.316,18.696c-18.633,23.725 -42.504,39.896 -69.279,53.075c-4.641,1.604 -8.496,2.821 -13.504,2.379c-28.283,-2.475 -65.95,-36.2 -84.208,-56.325c21.646,-12.037 43.433,-15.337 67.675,-17.825Z" style="fill:#f1c5b9;fill-rule:nonzero;"/><path d="M2101.92,1809.11c38.721,21.654 79.112,52.296 93.379,96.221c9.4,28.929 9.508,64.933 -4.583,92.237c-27.384,-13.737 -49.75,-35.795 -78.913,-46.804c-81.321,-30.696 -262.412,75.759 -334.333,113.763c-32.783,17.086 -65.795,33.719 -99.033,49.9c-85.6,40.812 -172.675,77.946 -259.163,116.766c102.304,15.996 314.646,-80.3 409.129,-128.22c36.384,-18.455 71.088,-40.188 107.617,-58.371c-1.111,1.775 -2.202,3.562 -3.271,5.362c-36.262,61.371 -56.075,153.521 -37.912,223.484c10.745,-20.5 16.458,-43.555 23.845,-65.421c19.692,-58.284 48.567,-141.042 96.067,-181.071c14.942,-12.592 34.7,-23.15 54.825,-20.821c28.979,3.35 54.583,25.058 79.492,38.85c68.696,38.042 138.575,75.225 201.046,123.271c13.144,9.978 25.656,20.692 37.537,32.142c11.883,11.45 23.053,23.558 33.508,36.325c81.35,100.033 91.125,235.312 78.034,358.533c-14.359,-25.825 -28.509,-51.596 -49.579,-72.692c-38.363,-38.412 -93.275,-57.704 -147.059,-57.129c-58.616,0.625 -111.808,18.246 -152.946,60.542c-15.858,-96.284 30.159,-143.65 110.275,-188.175c12.734,-7.075 34.496,-16.392 41.484,-29.713l-1.309,-3.05c-15.475,-7.108 -40.783,-3.154 -57.041,1.304c-59.109,16.221 -105.788,57.38 -135.892,109.359c-38.392,-21.075 -154.954,-89.088 -194.837,-89.096c-4.046,-0 -4.33,0.317 -7.175,3.279c-1.475,19.858 32.475,46.913 44.479,62.129l1.441,1.863c2.721,57.846 -5.87,117.254 -6.379,175.433c-0.325,37.204 7.021,74.788 5.029,111.708c-0.666,12.305 -2.637,25.18 -10.254,35.23c-34.858,45.987 -190.729,68.354 -248.233,77.05c-237.371,30.783 -533.963,28.604 -762.963,-43.217c-19.816,-6.217 -50.312,-14.575 -60.791,-34.233c-16.829,-31.571 -3.275,-101.65 -0.596,-138.146c3.346,-45.604 5.721,-91.321 9.737,-136.871c3.905,-44.333 36.046,-295.758 21.455,-323.667l-4.675,-0.525c-10.9,5.35 -16.846,18.629 -22.042,29.121c-15.596,31.5 -24.913,68.908 -31.138,103.408c-8.633,47.85 -11.85,159.621 -42.116,193.596c-50.229,56.388 -154.892,68.271 -225.692,73.796c23.375,-28.808 42.392,-57.4 54.108,-92.917c22.296,-67.579 12.292,-149.283 -12.875,-214.691c-5.991,-15.567 -13.937,-29.934 -21.241,-44.871c-5.313,-10.858 -8.721,-23.913 -4.096,-35.621c10.062,-25.483 109.304,-17.583 137.008,-22.783c62.675,-11.75 112.088,-64.996 170.325,-88.534c28.609,23.221 53.192,52.767 81.342,77.059c43.687,37.7 185.875,137.208 239.962,142.383c5.334,0.508 7.071,-0.587 10.959,-3.987c-1.129,-8.671 -8.525,-14.28 -15.004,-19.671c-19.217,-16.009 -40.859,-29.792 -60.809,-44.971c-71.421,-54.333 -137.641,-108.688 -191.637,-180.913c31.537,13.971 64.854,24.934 98.125,33.963c24.921,6.762 50.954,12.15 75.016,21.446c18.409,20.754 33.367,45.279 50.442,67.254c37.917,48.808 83.496,95.371 133,132.296c67.739,-38.203 132.967,-80.296 195.683,-126.279c17.809,-12.681 35.436,-25.606 52.884,-38.775c13.133,-10.1 26.137,-22.342 40.737,-30.184c35.679,-19.158 101.509,-30.366 142.996,-43.587c131.967,-42.059 245.183,-107.229 352.621,-194.067Z" style="fill:#7a7bb9;fill-rule:nonzero;"/><path d="M2859.59,1981.46c32.187,-6.104 68.195,-7.671 100.241,0.025c17.175,2.271 35.613,8.521 51.842,14.479c108.229,39.709 189.362,129.109 237.267,231.755c-24.646,-24.884 -45.013,-52.138 -71.984,-75.138c-71.829,-61.25 -161.825,-108.892 -258.791,-100.971c-3.287,0.267 -6.563,0.615 -9.83,1.046c-3.269,0.433 -6.525,0.946 -9.766,1.538c-3.242,0.594 -6.467,1.269 -9.675,2.025c-3.209,0.755 -6.396,1.59 -9.563,2.504c-3.166,0.914 -6.31,1.905 -9.429,2.975c-3.117,1.072 -6.206,2.221 -9.267,3.446c-3.058,1.225 -6.084,2.526 -9.079,3.904c-2.994,1.375 -5.953,2.825 -8.875,4.35c-2.925,1.525 -5.808,3.122 -8.65,4.791c-2.841,1.667 -5.64,3.405 -8.396,5.213c-2.758,1.808 -5.468,3.685 -8.129,5.629c-2.661,1.944 -5.272,3.954 -7.833,6.029c-2.564,2.072 -5.072,4.209 -7.525,6.409c-2.456,2.2 -4.854,4.459 -7.196,6.779c-2.344,2.319 -4.628,4.696 -6.85,7.129c-2.222,2.433 -4.383,4.921 -6.483,7.462c-25.871,30.746 -39.242,67.942 -42.196,107.813c-10.063,136.054 96.312,233.642 183.187,322.687c38.546,39.509 76.284,79.421 109.092,123.934c53.367,72.408 92.488,154.487 100.296,245.021c0.3,3.733 0.554,7.47 0.762,11.212c0.211,3.739 0.375,7.481 0.492,11.225c0.119,3.744 0.193,7.489 0.221,11.233c0.028,3.748 0.01,7.493 -0.054,11.238c-0.064,3.747 -0.174,7.492 -0.329,11.233c-0.156,3.742 -0.356,7.482 -0.6,11.221c-0.248,3.739 -0.539,7.474 -0.875,11.204c-0.337,3.731 -0.719,7.457 -1.146,11.179c-0.428,3.72 -0.9,7.435 -1.417,11.146c-0.519,3.711 -1.082,7.414 -1.687,11.109c-0.609,3.697 -1.262,7.386 -1.959,11.066c-0.697,3.681 -1.439,7.353 -2.225,11.017c-0.789,3.661 -1.621,7.312 -2.496,10.954c-0.875,3.642 -1.794,7.274 -2.758,10.896c-0.964,3.619 -1.972,7.226 -3.025,10.821c-1.05,3.594 -2.144,7.176 -3.283,10.746c-1.139,3.569 -2.321,7.123 -3.546,10.662c-1.225,3.542 -2.493,7.067 -3.804,10.575c-1.311,3.508 -2.664,7.001 -4.059,10.479c-1.397,3.475 -2.834,6.934 -4.312,10.375c-1.481,3.442 -3.003,6.864 -4.567,10.267c-1.564,3.405 -3.168,6.792 -4.812,10.158c-1.645,3.364 -3.331,6.709 -5.059,10.034c-1.725,3.325 -3.491,6.627 -5.3,9.908c-1.805,3.28 -3.652,6.539 -5.541,9.775c-1.886,3.236 -3.811,6.45 -5.775,9.642c-1.964,3.188 -3.967,6.352 -6.009,9.491c-2.041,3.142 -4.12,6.259 -6.237,9.35c-2.117,3.089 -4.271,6.153 -6.463,9.192c-2.191,3.036 -4.42,6.047 -6.687,9.033c-2.264,2.984 -4.564,5.939 -6.9,8.867c-2.336,2.928 -4.708,5.826 -7.117,8.696c-89.696,106.237 -219.983,168.237 -357.966,179.208c-178.03,14.154 -343.863,-50.35 -494.055,-139.925c-51.291,-30.583 -102.245,-63.483 -147.633,-102.45c-16.833,-60.671 -32.171,-123.771 -45.129,-185.4c16.339,12.492 32.75,24.89 49.233,37.196c173.996,130.175 427.525,299.471 656.529,265.396c3.281,-0.489 6.555,-1.017 9.821,-1.584c3.267,-0.569 6.525,-1.179 9.775,-1.829c3.253,-0.647 6.497,-1.336 9.734,-2.066c3.233,-0.728 6.458,-1.496 9.675,-2.305c3.216,-0.808 6.422,-1.655 9.616,-2.541c3.195,-0.886 6.378,-1.811 9.55,-2.775c3.172,-0.967 6.332,-1.971 9.479,-3.013c3.148,-1.041 6.282,-2.123 9.405,-3.246c3.122,-1.119 6.229,-2.276 9.32,-3.47c3.092,-1.198 6.17,-2.432 9.234,-3.705c3.061,-1.272 6.107,-2.58 9.137,-3.925c3.031,-1.347 6.043,-2.732 9.038,-4.154c2.997,-1.419 5.976,-2.876 8.937,-4.371c2.959,-1.494 5.899,-3.025 8.821,-4.591c2.925,-1.564 5.828,-3.166 8.708,-4.804c2.884,-1.637 5.748,-3.309 8.592,-5.017c2.842,-1.708 5.661,-3.452 8.458,-5.229c2.8,-1.778 5.578,-3.589 8.334,-5.434c2.755,-1.847 5.487,-3.726 8.196,-5.637c2.708,-1.914 5.393,-3.86 8.054,-5.838c2.658,-1.98 5.293,-3.993 7.904,-6.037c2.611,-2.042 5.197,-4.117 7.758,-6.225c2.561,-2.106 5.096,-4.243 7.604,-6.413c2.506,-2.169 4.986,-4.369 7.442,-6.6c2.453,-2.23 4.878,-4.491 7.275,-6.783c2.397,-2.289 4.767,-4.608 7.108,-6.958c2.342,-2.348 4.655,-4.724 6.938,-7.129c2.28,-2.406 4.532,-4.839 6.754,-7.3c2.225,-2.462 4.418,-4.949 6.579,-7.463c2.161,-2.514 4.292,-5.054 6.392,-7.621c2.097,-2.566 4.164,-5.16 6.2,-7.779c2.036,-2.617 4.039,-5.258 6.008,-7.925c2.442,-3.331 4.822,-6.704 7.142,-10.121c2.319,-3.419 4.576,-6.879 6.771,-10.379c2.194,-3.5 4.323,-7.039 6.387,-10.617c2.064,-3.577 4.063,-7.191 5.996,-10.841c1.933,-3.65 3.799,-7.335 5.596,-11.054c1.8,-3.717 3.53,-7.467 5.192,-11.25c1.661,-3.781 3.252,-7.591 4.775,-11.43c1.525,-3.841 2.977,-7.708 4.358,-11.6c1.383,-3.891 2.694,-7.808 3.933,-11.75c1.239,-3.939 2.406,-7.9 3.5,-11.883c1.095,-3.983 2.117,-7.985 3.067,-12.004c0.947,-4.02 1.822,-8.056 2.625,-12.108c0.8,-4.053 1.528,-8.119 2.183,-12.196c0.653,-4.078 1.231,-8.167 1.734,-12.267c0.505,-4.1 0.936,-8.207 1.291,-12.321c0.353,-4.116 0.632,-8.237 0.838,-12.362c16.762,-298.642 -324.942,-384.55 -370.571,-675.325c-11.467,-73.071 0.746,-149.329 45.087,-209.888c39.055,-53.337 102.45,-89.446 167.43,-99.7Z" style="fill:#f1c5b9;fill-rule:nonzero;"/><path d="M2859.59,1981.46c32.187,-6.104 68.195,-7.671 100.241,0.025c-1.904,1.325 -2.2,1.704 -4.762,2.463c-11.396,3.354 -86.579,2.937 -95.479,-2.488Z" style="fill:#f2c7b8;fill-rule:nonzero;"/><path d="M304.272,754.167c0.033,-1.183 0.087,-2.362 0.1,-3.541c0.296,-22.425 -9.588,-46.271 -10.754,-69.271c-6.513,-128.221 8.408,-286.7 102.546,-382.892c31.979,-32.675 74.02,-54.129 120.37,-54.087c55.859,0.05 106.88,30.829 145.138,69.491c86.025,86.938 121.842,203.817 152.796,318.521c-107.634,109.475 -197.609,236.342 -228.879,389.759c-15.509,-4.192 -31.063,-9.517 -45.934,-15.559c-89.225,-36.262 -149.371,-101.141 -198.091,-182.229c-13.821,-23 -26.859,-45.383 -37.292,-70.192Z" style="fill:#f1c5b9;fill-rule:nonzero;"/><path d="M1892.46,2901.44l3.25,2.367c10.833,24.863 14.72,58.183 20.937,84.783c19.688,84.242 38.388,168.25 53.658,253.43c7.184,40.075 16.521,83.579 16.234,124.404c-87.338,40.054 -231.959,50.037 -323.096,18.304c-14.817,-61.233 -31.75,-120.354 -53.904,-179.325c-15.096,-39.863 -47.092,-124.558 -77.692,-151.079c-65.35,-8.221 -131.662,-6.375 -196.896,-17.209c-8.787,-24.37 -11.679,-51.012 -15.604,-76.512c187.425,9.496 396.367,10.512 573.113,-59.163Z" style="fill:#547390;fill-rule:nonzero;"/><path d="M902.193,2885.28c116.608,48.942 249.096,65.746 374.421,73.663c1.55,27.579 5.658,54.145 11.208,81.162c-16.742,-1.646 -93.025,-23.687 -102.975,-18.533c-2.954,5.246 -4.163,6.646 -2.671,12.875c4.421,18.475 41.433,36.791 56.438,45.129c-18.805,55.2 -33.642,110.279 -43.209,167.837c-6.208,37.545 -10.91,75.277 -14.104,113.196c-92.558,30.717 -227.421,21.379 -316.958,-15.246c-5.288,-108.008 3.137,-233.166 17.758,-340.029c5.5,-40.191 15.238,-79.775 20.092,-120.054Z" style="fill:#547390;fill-rule:nonzero;"/><path d="M576.372,1062.1c-32.192,-10.379 -63.179,-21.5 -93.283,-37.196c-120.23,-62.683 -208.555,-177.429 -248.159,-306.279c-44.441,-144.6 -30.004,-309.675 41.671,-443.179c44.921,-83.675 116.608,-159.103 209.554,-186.824c83.842,-25.004 167.196,-5.822 242.5,35.153c143.663,78.168 222.863,226.175 267.588,377.512c-43.788,20.592 -78.517,50.571 -118.221,77.063c-15.563,-57.504 -34.129,-114.209 -60.15,-167.925c-45.517,-93.963 -116.592,-186.409 -218.983,-221.231c-56.692,-19.28 -117.259,-16.745 -171.08,9.927c-75.333,37.337 -122.945,110.162 -149.2,188.058c-39.308,116.612 -28.808,256.4 25.663,366.987c10.433,24.809 23.471,47.192 37.292,70.192c48.72,81.088 108.866,145.967 198.091,182.229c14.871,6.042 30.425,11.367 45.934,15.559c-3.596,13.129 -6.213,26.67 -9.217,39.954Z" style="fill:#f2f2f4;fill-rule:nonzero;"/><path d="M231.414,2002.22c17.733,-1.888 37.545,2.091 52.487,11.954c26.996,17.821 35.675,48.179 42.254,77.854c-30.516,-4.475 -67.266,-6.25 -96.291,6.292c-20.08,8.679 -56.971,26.166 -64.792,48.637c-1.371,3.942 -1.104,2.263 0.883,6.7c13.571,4.079 92.317,-24.083 121.684,-24.517c26.1,-0.383 54.8,6.625 73.495,25.788c22.075,22.625 23.888,50.85 23.463,80.525c-20.029,-2.238 -39.771,-3.633 -59.867,-1.2c-40.858,4.95 -82.671,22.596 -107.912,56.312c-3.759,5.025 -6.279,9.15 -5.325,15.446c18.996,10.279 94.483,-21.312 121.266,-24.104c14.475,-1.508 27.125,0.413 41.175,3.525c3.438,3.271 7.046,6.521 10.013,10.233c10.879,13.617 11.746,35.592 10.275,52.255c-1.629,18.404 -7.258,41.75 -22.517,53.812c-26.946,21.304 -50.191,4.946 -78.475,1.388c-2.341,2.141 -3.591,2.662 -4.504,5.912c-2.712,9.625 1.646,22.854 6.942,30.992c8.354,12.825 24.821,16.796 38.837,19.804c9.763,0.304 19.092,-0.279 28.521,-3.046c26.458,-7.771 47,-26.142 60.263,-50.008c24.337,-43.784 18.45,-86.6 5.341,-132.888c9.092,2.975 19.775,6.038 27.421,11.892c12.004,9.2 18.45,23.379 20.317,38.079c4.662,36.658 -8.942,76.192 -30.842,105.279c-21.967,29.171 -52.196,47.763 -88.587,52.634c-60.863,8.15 -128.205,-4.875 -177.459,-42.684c-69.037,-53 -71.837,-98.012 -89.671,-175.771c-5.141,-22.4 -13.495,-44.4 -16.383,-67.245c-5.704,-45.13 6.596,-87.046 34.583,-122.746c31.417,-40.075 72.734,-64.896 123.405,-71.104Z" style="fill:#f2f2f4;fill-rule:nonzero;"/><path d="M2198.49,2621.03c48.612,-8.046 110.591,9.675 152.829,33.258c38.412,21.446 71.737,52.671 83.725,96.18c14.987,54.387 6.496,127.008 -21.692,176.016c-19.55,33.984 -47.746,46.896 -83.979,56.413c5.996,-9.879 11.896,-20.479 15.221,-31.6c2.612,-8.729 4.837,-15.667 0.387,-23.929c-26.362,8.433 -47.379,40.491 -77.758,51.145c-26.221,9.192 -53.271,1.163 -77.021,-10.754c34.479,-10.229 56.559,-23.754 75.867,-54.541c0.558,-1.28 1.137,-2.55 1.671,-3.842c5.646,-13.575 14.95,-38.921 9.066,-52.838c-13.012,-6.012 -45.891,38.267 -57.516,47.655c-16.475,13.3 -35.913,22.908 -57.275,24.42c-22.725,1.609 -50.521,-5.85 -67.388,-21.754c-11.287,-10.641 -19.341,-26.946 -19.087,-42.65c0.287,-17.762 10.062,-31.812 21.979,-44.021c5.867,11.421 13.058,25.834 24.325,32.73c4.862,2.975 7.733,2.479 13.121,1.545c2.362,-3.054 3.187,-3.312 3.587,-7.379c1.979,-19.941 -9.504,-39.037 -6.108,-60.483c5.312,-33.588 41.221,-36.667 45.687,-55.329c-2.02,-2.379 -2.35,-2.942 -4.987,-5.138c-5.871,-4.887 -14.446,-6.504 -21.854,-5.996c-30.784,2.096 -51.242,24.955 -70.584,46.113c-2.662,-7.913 -4.7,-15.858 -5.691,-24.167c-3.221,-26.904 4.8,-52.716 21.721,-73.762c25.295,-31.454 63.333,-42.696 101.754,-47.292Z" style="fill:#f2f2f4;fill-rule:nonzero;"/><path d="M869.322,3495.83c21.208,-3.958 70.75,19.1 96.546,23.362c66.333,10.967 131.829,5.663 196.941,-9.358c7.45,17.525 12.9,36.913 13.284,56.058c0.475,23.705 -9.096,42.021 -25.7,58.509c-71.859,71.358 -244.996,99.3 -344.009,97.466c3.05,-17.941 7.009,-33.716 15.892,-49.825c9.233,-16.745 57.15,-64.575 57.063,-75.633c-7.7,-2.946 -16.513,-1.454 -24.596,-0.967c-16.634,3.6 -33.017,13.092 -46.4,23.434c-32.659,25.229 -50.554,60.337 -55.917,100.787c-9.242,-1.854 -18.562,-3.65 -27.708,-5.941c-13.038,-3.267 -27.696,-10.296 -34.379,-22.646c-6.184,-11.421 -4.855,-23.859 -0.696,-35.7c16.616,-47.317 73.308,-80.067 77.637,-95.842l-2.2,-3.021c-4.637,-1.187 -8.475,-1.133 -13.191,-0.65c-39.113,4.021 -77.234,28.579 -93.988,64.634c-4.425,9.516 -6.904,24.575 -13.587,32.233c-2.613,2.996 -1.213,2.096 -5.48,2.383c-4.654,-5.175 -5.425,-8.787 -6.766,-15.529c-4.317,-21.646 -1.104,-38.617 11.829,-56.696c43.896,-61.35 156.05,-74.696 225.425,-87.058Z" style="fill:#f2f2f4;fill-rule:nonzero;"/><path d="M1996,3515.79c0.617,0.05 1.246,0.009 1.846,0.142c6.154,1.387 14.154,9.987 18.937,14.087c37.413,32.059 76.475,71.034 101.546,113.55c13.7,23.234 27.733,55.634 20.079,82.792c-5.616,19.921 -19.329,29.767 -36.216,39.625c-1.238,-16.454 -3.017,-32.371 -7.4,-48.325c-8.75,-31.854 -27.421,-63.575 -57.192,-79.767c-8.488,-4.616 -21.646,-11.445 -31.008,-8.6c-0.305,10.992 38.1,69.988 42.95,101.021c2.125,13.604 4.175,43.717 -5.08,54.554c-10.483,12.28 -74.658,8.859 -92.825,8.338c-1.379,-26.817 -7.329,-52.325 -17.07,-77.263c-3.345,-7.036 -6.984,-13.916 -10.917,-20.641c-17.946,-31.125 -39.517,-45.542 -73.871,-54.638c24.258,62.684 46.533,72.263 47.496,145.771c-49.829,-10.45 -102.188,-25.104 -136.3,-65.617c-40.704,-48.341 -39.842,-118.483 -34.425,-177.82c91.65,16.862 183.475,10.104 269.45,-27.209Z" style="fill:#f2f2f4;fill-rule:nonzero;"/><path d="M890.076,2787.97c23.513,3.542 48.158,13.888 71.225,20.25c40.247,10.817 80.94,19.564 122.079,26.242c248.729,41.221 591.875,39.542 830.5,-44.371c4.867,2.229 4.192,2.613 6.584,7.05c0.554,12.225 -2.313,19.413 -9.792,29.079c-52.763,42.321 -153.046,57.038 -220.075,66.38c-212.546,29.625 -471.013,22.42 -679.05,-30.938c-34.408,-8.825 -78.238,-17.354 -106.563,-39.721c-12.487,-9.858 -13.308,-19.025 -14.908,-33.971Z" style="fill:#7a7bb9;fill-rule:nonzero;"/><path d="M569.443,2219.47l2.983,2.6c16.1,39.254 20.15,89.229 17.483,131.304c-2.962,46.775 -17.433,98.162 -54.575,129.508c-22.175,18.713 -40.912,20.079 -68.379,18.029c-6.35,-0.787 -11.837,-1.225 -17.546,-4.404c3.475,-10.708 21.55,-22.712 29.434,-32.304c7.358,-9.045 13.796,-18.703 19.312,-28.975c26.909,-49.433 32.071,-100.379 16.538,-154.088c24.725,-17.779 40.129,-34.945 54.75,-61.67Z" style="fill:#7a7bb9;fill-rule:nonzero;"/><path d="M1994.96,3405.36l2.625,1.938c3.629,11.329 4.795,26.866 -0.075,37.991c-5.442,12.429 -17.3,22.559 -29.975,27.125c-68.275,24.596 -204.25,37.079 -270.359,6.584c-6.916,-13.905 -10.704,-28.367 -14.333,-43.375c97.583,11.995 223.067,18.012 312.117,-30.263Z" style="fill:#547390;fill-rule:nonzero;"/><path d="M2281.45,2518.74c3.67,-0.508 7.353,-0.901 11.05,-1.179c3.695,-0.281 7.395,-0.446 11.1,-0.496c3.706,-0.053 7.409,0.01 11.109,0.188c3.702,0.177 7.395,0.469 11.079,0.875c3.683,0.405 7.35,0.923 11,1.554c3.652,0.633 7.282,1.378 10.887,2.233c3.606,0.856 7.181,1.822 10.725,2.9c3.547,1.075 7.057,2.26 10.529,3.554c37.646,14.375 70.884,45.617 86.655,82.834c9.875,23.3 8.783,41.366 -0.205,64.221c-12.095,-18.075 -23.775,-32.596 -40.545,-46.513c-67.35,-58.242 -143.717,-61.783 -227.742,-60.467c0.953,-1.391 1.918,-2.775 2.896,-4.15c22.191,-30.991 55.958,-39.591 91.462,-45.554Z" style="fill:#7a7bb9;fill-rule:nonzero;"/><path d="M871.768,3392.23c92.654,33.583 208.696,32.104 304.808,14.808c0.1,13.542 2.092,30.163 -5.029,42.146c-9.046,3.971 -18.383,6.771 -27.963,9.117c-72.625,17.775 -198.504,16.65 -263.508,-22.892c-4.633,-14.233 -6.437,-28.375 -8.308,-43.179Z" style="fill:#547390;fill-rule:nonzero;"/><path d="M1221.42,2063.36c78.612,16.4 171.262,16.437 250.487,5.425c-17.97,15.521 -38.229,29.221 -57.304,43.425c-29.837,22.971 -61.725,43.767 -92.762,65.1c-37.454,-35.271 -71.134,-71.379 -100.421,-113.95Z" style="fill:#f2f2f4;fill-rule:nonzero;"/><path d="M500.801,2077.01c0.875,0.554 1.767,1.079 2.617,1.663c14.504,9.908 23.796,32.362 26.625,49.071c4.721,27.904 0.733,60.025 -16.213,83.225c-14.671,20.087 -30.933,26.604 -54.454,29.92c-5.937,0.867 -8.2,1.859 -13.771,-0.645c-13.221,-18 -14.633,-42.934 -18.333,-64.417c7.942,-3.633 16.112,-7.438 23.433,-12.225c32.488,-21.25 42.796,-50.4 50.096,-86.592Z" style="fill:#f2f2f4;fill-rule:nonzero;"/><path d="M326.559,1981.58c26.105,-1.758 48.721,3.858 70.084,19.579c20.854,15.342 38.762,39.617 42.179,65.721c2.679,20.471 -3.804,36.929 -16.471,52.637c-10.996,8.85 -21.05,12.255 -34.45,15.738c-6.692,-33.838 -13.087,-70.554 -27.312,-102.075c-6.15,-13.629 -33.484,-41.388 -34.03,-51.6Z" style="fill:#f2f2f4;fill-rule:nonzero;"/></svg>