<svg xmlns="http://www.w3.org/2000/svg" width="764" height="906" viewBox="0 0 764 906"><g fill="none" transform="translate(.2 .204)"><path fill="#313945" d="M85.7314753,0.493750929 C105.305475,-2.02954907 128.624475,5.39355093 144.630475,16.4853509 C175.600475,37.9479509 188.627475,73.6852509 195.111475,109.210251 C201.948475,106.541251 208.571475,104.357251 215.757475,102.820251 C215.765475,102.660251 215.772475,102.499251 215.781475,102.339251 L215.835475,101.537251 C216.022475,98.3802509 216.695475,95.9672509 218.979475,93.6562509 C223.526475,89.0552509 231.711475,89.3332509 237.697475,89.2442509 C237.736475,85.5042509 237.979475,82.4502509 239.923475,79.1132509 C242.052475,75.4592509 245.493475,73.2692509 249.534475,72.2292509 C266.664475,67.8232509 295.387475,79.1312509 310.212475,88.0852509 C315.538475,91.3022509 320.694475,96.4582509 326.484475,98.6412509 C332.204475,100.798251 338.955475,100.852251 344.949475,102.252251 C363.785475,106.649251 380.895475,113.823251 397.508475,123.693251 C404.181475,100.363251 414.843475,77.4652509 429.160475,57.8422509 C447.728475,32.3929509 475.051475,10.2018509 506.963475,5.35195093 C507.694142,5.24195093 508.425809,5.14108426 509.158475,5.04935093 C509.891142,4.9576176 510.624809,4.87505093 511.359475,4.80165093 C512.094809,4.72825093 512.830809,4.6640176 513.567475,4.60895093 C514.303475,4.55388426 515.040475,4.5080176 515.778475,4.47135093 C516.515809,4.43468426 517.253809,4.40725093 517.992475,4.38905093 C518.730475,4.37078426 519.468809,4.36175093 520.207475,4.36195093 C520.946142,4.36215093 521.684475,4.37155093 522.422475,4.39015093 C523.161142,4.40875093 523.899142,4.43655093 524.636475,4.47355093 C525.374475,4.5106176 526.111809,4.55685093 526.848475,4.61225093 C527.584475,4.6677176 528.320142,4.7323176 529.055475,4.80605093 C529.790142,4.87985093 530.523809,4.9628176 531.256475,5.05495093 C531.989142,5.1470176 532.720809,5.2482176 533.451475,5.35855093 C534.181475,5.46888426 534.910142,5.58835093 535.637475,5.71695093 C536.364809,5.84548426 537.090475,5.98305093 537.814475,6.12965093 C538.537809,6.2763176 539.259475,6.43198426 539.979475,6.59665093 C540.699475,6.7613176 541.417475,6.9349176 542.133475,7.11745093 C542.848809,7.30005093 543.562142,7.49155093 544.273475,7.69195093 C544.984142,7.89228426 545.692142,8.10148426 546.397475,8.31955093 C547.103475,8.5376176 547.806475,8.76445093 548.506475,9.00005093 C549.206475,9.23558426 549.903475,9.47985093 550.597475,9.73285093 C551.291475,9.98585093 551.982142,10.2474509 552.669475,10.5176509 C553.356809,10.7878509 554.040475,11.0666176 554.720475,11.3539509 C555.401142,11.6412176 556.077809,11.9369176 556.750475,12.2410509 C557.423809,12.5452509 558.093142,12.8577843 558.758475,13.1786509 C559.423142,13.4995176 560.084142,13.8286176 560.741475,14.1659509 C561.398142,14.5033509 562.050809,14.8488843 562.699475,15.2025509 C563.348142,15.5562176 563.992142,15.9178843 564.631475,16.2875509 C565.270809,16.6572843 565.905475,17.0349509 566.535475,17.4205509 C567.164809,17.8060843 567.789809,18.1994176 568.410475,18.6005509 C569.030475,19.0017509 569.645475,19.4105843 570.255475,19.8270509 C570.864809,20.2435843 571.469142,20.6676509 572.068475,21.0992509 C572.667809,21.5308509 573.261809,21.9698509 573.850475,22.4162509 C597.027475,39.7595509 610.004475,65.5492509 613.905475,93.9012509 C619.167475,132.152251 609.942475,174.733251 586.304475,205.593251 C560.823475,238.859251 526.561475,249.722251 486.908475,254.818251 C493.702475,281.040251 493.591475,306.576251 490.128475,333.244251 C491.315475,333.984251 492.623475,334.722251 493.702475,335.613251 C495.029475,336.707251 496.286475,338.936251 496.265475,340.692251 C496.251475,341.994251 495.870475,342.938251 494.824475,343.758251 C492.864475,345.293251 490.167475,344.682251 487.877475,344.466251 C483.900475,357.870251 479.190475,370.600251 472.128475,382.722251 C477.092475,385.365251 483.899475,389.000251 486.268475,394.373251 C486.910475,395.828251 487.012475,397.201251 486.335475,398.688251 C485.723475,400.034251 483.912475,401.517251 482.452475,401.692251 C477.910475,402.234251 469.078475,395.331251 465.226475,392.890251 C456.118475,405.086251 446.137475,414.633251 434.530475,424.328251 C435.764475,424.684251 436.943475,425.171251 438.128475,425.662251 C444.570475,428.328251 447.175475,431.449251 449.785475,437.747251 C454.703475,435.748251 460.409475,434.736251 465.619475,433.661251 C483.417475,429.988251 500.927475,427.932251 519.087475,427.740251 C519.620475,417.984251 520.969475,408.402251 524.887475,399.369251 C529.372475,389.030251 535.536475,379.775251 538.566475,368.777251 C531.493475,366.434251 525.553475,363.464251 520.053475,358.372251 C516.061475,354.676251 512.563475,350.507251 509.089475,346.333251 C501.379475,337.072251 495.153475,328.862251 494.745475,316.293251 C494.418475,306.205251 499.139475,295.341251 506.029475,288.073251 C514.276475,279.374251 525.870475,275.605251 537.654475,275.358251 C559.266475,274.905251 583.479475,284.408251 599.061475,299.348251 C618.213475,317.711251 622.903475,339.742251 623.493475,365.270251 C625.251475,367.269251 627.185475,369.302251 628.470475,371.645251 C633.647475,381.090251 633.228475,397.489251 633.334475,408.251251 C633.676475,442.932251 625.556475,483.972251 600.491475,509.249251 C560.556475,549.522251 486.140475,559.413251 432.286475,559.855251 L432.988475,602.969251 C433.138475,611.084251 433.716475,619.440251 433.065475,627.529251 C432.368475,636.193251 430.234475,640.413251 423.578475,646.030251 C424.279475,654.408251 424.415475,660.052251 420.714475,667.880251 C431.417142,677.544251 441.428809,687.877584 450.749475,698.880251 C469.753475,721.223251 486.464475,745.531251 513.468475,759.121251 C533.101475,769.001251 555.736475,771.265251 576.677475,764.219251 C590.962475,759.413251 604.030475,750.254251 610.781475,736.447251 C625.076475,707.208251 607.699475,675.046251 598.383475,647.278251 C589.343475,620.333251 586.885475,592.533251 600.037475,566.347251 C600.346142,565.729251 600.662142,565.115251 600.985475,564.505251 C601.309475,563.895251 601.640809,563.289251 601.979475,562.687251 C602.318142,562.085251 602.664475,561.487584 603.018475,560.894251 C603.372475,560.300918 603.733475,559.712251 604.101475,559.128251 C604.470142,558.544251 604.845809,557.964584 605.228475,557.389251 C605.611142,556.814584 606.001142,556.244584 606.398475,555.679251 C606.795142,555.113918 607.199142,554.553918 607.610475,553.999251 C608.021142,553.443918 608.438809,552.893918 608.863475,552.349251 C609.288142,551.804584 609.719475,551.265251 610.157475,550.731251 C610.595475,550.197251 611.040142,549.668584 611.491475,549.145251 C611.942809,548.622584 612.400475,548.105251 612.864475,547.593251 C613.329142,547.081918 613.799809,546.576584 614.276475,546.077251 C614.753142,545.577251 615.235809,545.083251 615.724475,544.595251 C616.213809,544.107918 616.708809,543.626251 617.209475,543.150251 C617.710809,542.674918 618.217809,542.205918 618.730475,541.743251 C619.243142,541.280584 619.761475,540.824251 620.285475,540.374251 C620.809475,539.924251 621.339142,539.480918 621.874475,539.044251 C622.409142,538.607584 622.949475,538.177584 623.495475,537.754251 C624.041475,537.330918 624.592475,536.914584 625.148475,536.505251 C625.704475,536.095251 626.265809,535.692584 626.832475,535.297251 C627.398475,534.901918 627.969475,534.513584 628.545475,534.132251 C629.121475,533.750918 629.702142,533.376584 630.287475,533.009251 C630.872142,532.642584 631.461809,532.283251 632.056475,531.931251 C632.650475,531.578584 633.248809,531.233584 633.851475,530.896251 C634.454142,530.558918 635.061142,530.229251 635.672475,529.907251 C636.283142,529.585251 636.897809,529.270918 637.516475,528.964251 C638.135142,528.656918 638.757809,528.357584 639.384475,528.066251 C640.010475,527.774918 640.640142,527.491584 641.273475,527.216251 C641.906809,526.940251 642.543475,526.672251 643.183475,526.412251 C643.823475,526.152251 644.466475,525.900584 645.112475,525.657251 C645.758475,525.413251 646.407475,525.177584 647.059475,524.950251 C647.712142,524.722251 648.367142,524.502584 649.024475,524.291251 C649.714475,524.070584 650.407142,523.858251 651.102475,523.654251 C651.798475,523.450251 652.496475,523.254918 653.196475,523.068251 C653.896475,522.882251 654.598809,522.704584 655.303475,522.535251 C656.008142,522.365918 656.714809,522.205251 657.423475,522.053251 C658.132142,521.901251 658.842475,521.758251 659.554475,521.624251 C660.266475,521.489584 660.980142,521.363918 661.695475,521.247251 C662.410809,521.130584 663.127475,521.022584 663.845475,520.923251 C664.563475,520.824584 665.282475,520.734584 666.002475,520.653251 C666.722475,520.571918 667.443475,520.499251 668.165475,520.435251 C668.887475,520.371918 669.610142,520.317251 670.333475,520.271251 C671.056142,520.225918 671.779809,520.189251 672.504475,520.161251 C673.228475,520.133251 673.952809,520.114251 674.677475,520.104251 C675.402142,520.094251 676.126809,520.093251 676.851475,520.101251 C677.576142,520.108584 678.300475,520.125251 679.024475,520.151251 C679.748475,520.176584 680.472142,520.211251 681.195475,520.255251 C681.918809,520.298584 682.641475,520.350918 683.363475,520.412251 C684.086142,520.473584 684.807475,520.543918 685.527475,520.623251 C686.248142,520.701918 686.967475,520.789918 687.685475,520.887251 C688.403475,520.983918 689.120142,521.089584 689.835475,521.204251 C690.551475,521.318918 691.265809,521.442251 691.978475,521.574251 C692.690475,521.706251 693.401142,521.847251 694.110475,521.997251 C694.819809,522.146584 695.526809,522.304918 696.231475,522.472251 C696.936809,522.639584 697.639809,522.815251 698.340475,522.999251 C699.041142,523.183918 699.739475,523.376918 700.435475,523.578251 C701.132142,523.780251 701.825809,523.990584 702.516475,524.209251 C703.207142,524.427918 703.895142,524.655251 704.580475,524.891251 C705.265809,525.126584 705.948142,525.370584 706.627475,525.623251 C707.306809,525.875918 707.982809,526.136918 708.655475,526.406251 C709.328142,526.675584 709.997475,526.952918 710.663475,527.238251 C711.329475,527.524251 711.991809,527.818251 712.650475,528.120251 C713.309142,528.422251 713.964142,528.732251 714.615475,529.050251 C715.266142,529.368918 715.913142,529.695251 716.556475,530.029251 C736.957475,540.541251 753.079475,558.295251 760.029475,580.309251 C762.702475,589.800251 764.019475,599.211251 762.972475,609.066251 C762.184475,616.476251 760.156475,625.004251 753.953475,629.787251 C751.280475,631.847251 747.829475,632.848251 744.470475,632.340251 C733.466475,630.675251 731.873475,614.529251 728.587475,606.138251 C726.612475,601.096251 723.709475,596.242251 720.357475,591.999251 C712.281475,581.777251 700.293475,574.061251 687.186475,572.639251 C677.187475,571.554251 666.472475,573.449251 658.554475,579.975251 C627.320475,605.715251 655.622475,647.601251 664.600475,677.100251 C669.264475,692.425251 671.440475,708.640251 669.929475,724.633251 C667.348475,751.945251 654.503475,777.967251 633.226475,795.517251 C607.061475,817.098251 570.271475,824.783251 536.979475,821.405251 C484.927475,816.123251 451.053475,787.868251 419.239475,748.797251 C419.434475,764.698251 421.072475,780.707251 421.615475,796.628251 C421.859475,803.797251 422.574475,811.633251 421.040475,818.683251 C420.460475,821.353251 419.296475,823.165251 417.760475,825.364251 C425.474475,840.354251 432.696475,857.703251 428.955475,874.911251 C427.047475,883.691251 421.250475,890.603251 413.769475,895.337251 C395.459475,906.924251 360.718475,906.937251 340.043475,902.286251 C329.403475,899.892251 319.306475,895.574251 313.353475,885.968251 C303.856475,870.643251 309.858475,850.289251 313.559475,834.064251 C310.455475,832.131251 306.982475,830.161251 305.258475,826.787251 C301.367475,819.170251 298.907475,802.685251 296.686475,793.662251 C291.185475,771.303251 285.662475,749.032251 279.281475,726.902251 C274.887475,727.397251 270.368475,727.282251 265.948475,727.356251 C263.167475,746.788251 261.157475,766.585251 259.614475,786.157251 C258.813475,796.323251 259.397475,808.402251 256.948475,818.121251 C256.079475,821.572251 254.101475,823.776251 251.759475,826.304251 C254.028475,839.627251 257.262475,853.870251 248.806475,865.802251 C236.186475,883.610251 206.136475,891.478251 185.393475,894.831251 C161.856475,898.636251 131.207475,899.167251 111.123475,884.444251 C103.987475,879.213251 98.4604753,871.497251 97.2764753,862.582251 C96.0754753,853.548251 98.7274753,844.651251 104.247475,837.458251 C115.928475,822.238251 133.765475,816.882251 151.985475,814.411251 C145.125475,780.768251 144.262475,741.906251 144.866475,707.570251 C145.023475,698.670251 145.750475,689.800251 145.878475,680.901251 C142.344475,683.370251 138.874475,685.444251 134.822475,686.967251 C124.779475,690.742251 113.036475,690.793251 103.224475,686.260251 C95.0624753,682.489251 88.2204753,675.722251 85.2194753,667.155251 C81.6664753,657.012251 84.8884753,649.285251 89.2204753,640.153251 C82.2154753,637.162251 77.3744753,633.780251 71.1704753,629.502251 C58.4074753,620.700251 48.1964753,611.971251 39.7474753,598.696251 C27.2264753,579.024251 22.5814753,555.909251 27.8674753,533.031251 C37.9074753,489.580251 79.9754753,463.196251 119.730475,450.471251 C126.832475,448.198251 144.933475,444.732251 150.011475,441.543251 C149.695475,440.334251 149.175475,439.788251 148.155475,439.086251 C140.039475,433.503251 131.838475,428.574251 124.195475,422.252251 C107.211475,408.204251 90.8254753,386.883251 84.0174753,365.613251 C77.0904753,366.831251 69.9204753,367.283251 62.9294753,368.125251 C57.6924753,368.757251 52.2724753,370.046251 47.0014753,370.051251 C44.6684753,370.053251 41.1704753,369.890251 39.1534753,368.562251 C38.2274753,367.953251 37.5974753,367.314251 37.4924753,366.166251 C37.3794753,364.923251 38.2714753,363.439251 38.9684753,362.459251 C44.3574753,354.879251 69.9774753,354.727251 78.9964753,353.247251 C77.7884753,348.941918 76.771142,344.591918 75.9444753,340.197251 C75.1178086,335.803251 74.4844753,331.381251 74.0444753,326.931251 C64.8444753,325.605251 55.3604753,324.303251 46.1014753,323.514251 C41.0104753,323.081251 35.4134753,323.424251 30.4434753,322.287251 C28.7854753,321.908251 26.1204753,321.076251 25.0444753,319.640251 C24.3644753,318.732251 23.9884753,317.856251 24.3084753,316.719251 C24.7224753,315.248251 25.9244753,313.953251 27.1334753,313.080251 C35.9094753,306.751251 63.1224753,311.827251 74.0434753,313.549251 C74.030142,307.099251 74.2534753,300.657251 74.7134753,294.223251 C75.1734753,287.789251 75.869142,281.380918 76.8004753,274.998251 C77.731142,268.615584 78.8948086,262.275584 80.2914753,255.978251 C81.688142,249.680918 83.314142,243.443251 85.1694753,237.265251 C72.1134753,233.324251 60.7494753,228.017251 49.8614753,219.707251 C22.5634753,198.872251 5.87247531,165.988251 1.38547531,132.319251 C-3.07052469,98.8782509 2.91247531,62.6522509 23.8474753,35.4857509 C39.5614753,15.0931509 60.4664753,3.86195093 85.7314753,0.493750929 Z"/><path fill="#F2F2F4" d="M240.436475,117.706251 L240.173475,117.046251 C238.300475,112.477251 231.145475,106.448251 230.962475,105.878251 C230.844475,105.510251 231.216475,105.147251 231.343475,104.782251 C235.137475,102.276251 244.050475,103.682251 248.325475,104.536251 C256.381475,106.148251 261.419475,109.770251 268.760475,112.419251 C269.752475,112.778251 270.639475,113.039251 271.683475,112.778251 C272.405475,111.850251 272.827475,111.305251 272.610475,110.068251 C270.404475,97.5212509 251.951475,92.3422509 253.455475,87.9472509 C255.574475,86.2282509 258.116475,86.4682509 260.690475,86.7402509 C275.560475,88.3152509 291.678475,94.7542509 304.121475,102.934251 C308.973475,106.123251 313.891475,110.534251 319.346475,112.583251 C324.283475,114.438251 329.996475,114.380251 335.130475,115.600251 C342.096475,117.224251 348.959142,119.206584 355.718475,121.547251 C362.477809,123.887918 369.096809,126.574251 375.575475,129.606251 C382.707475,133.019584 389.547142,136.941918 396.094475,141.373251 C398.391475,142.957251 403.560475,148.019251 406.215475,147.831251 C409.178475,142.804251 410.200475,135.281251 411.806475,129.632251 C413.003809,125.571584 414.355475,121.562918 415.861475,117.606251 C430.751475,77.4702509 458.570475,34.4210509 502.534475,23.0960509 C503.691142,22.7904509 504.855142,22.5141843 506.026475,22.2672509 C507.197142,22.0203176 508.373475,21.8030843 509.555475,21.6155509 C510.736809,21.4279509 511.922475,21.2702843 513.112475,21.1425509 C514.302475,21.0148176 515.494809,20.9171176 516.689475,20.8494509 C517.884142,20.7818509 519.079809,20.7444176 520.276475,20.7341951 C521.473142,20.7341951 522.669142,20.7526843 523.864475,20.8057509 C525.059809,20.8587509 526.253142,20.9418509 527.444475,21.0550509 C528.635809,21.1683176 529.823475,21.3115176 531.007475,21.4846509 C532.191475,21.6577843 533.370142,21.8606509 534.543475,22.0932509 C535.717475,22.3257843 536.884809,22.5878176 538.045475,22.8793509 C539.206142,23.1708176 540.358475,23.4913509 541.502475,23.8409509 C542.647142,24.1905509 543.782142,24.5687843 544.907475,24.9756509 C546.032809,25.3824509 547.147142,25.8173843 548.250475,26.2804509 C549.353809,26.7435176 550.444809,27.2341176 551.523475,27.7522509 C552.602142,28.2703176 553.667142,28.8152843 554.718475,29.3871509 C555.769142,29.9589509 556.805142,30.5568843 557.826475,31.1809509 C577.479475,42.9520509 590.703475,63.9182509 596.173475,85.8342509 C604.118475,117.660251 597.725475,157.265251 580.727475,185.333251 C565.125475,211.098251 540.566475,228.055251 511.458475,235.117251 C501.947475,237.424251 491.361475,238.709251 481.549475,238.792251 L477.805475,229.901251 C476.090142,225.700584 474.148142,221.607251 471.979475,217.621251 C469.810809,213.635918 467.428809,209.782251 464.833475,206.060251 C465.689475,200.033251 467.134475,194.077251 468.827475,188.233251 C470.285475,183.198251 477.674475,166.839251 476.595475,162.777251 C476.558142,162.637251 476.513142,162.499918 476.460475,162.365251 C476.407142,162.230584 476.346142,162.099251 476.277475,161.971251 C476.209475,161.843251 476.134142,161.719918 476.051475,161.601251 C475.968809,161.481918 475.879475,161.367918 475.783475,161.259251 C475.688142,161.150584 475.586475,161.047584 475.478475,160.950251 C475.371142,160.853584 475.258475,160.763251 475.140475,160.679251 C475.021809,160.595251 474.899142,160.518584 474.772475,160.449251 C474.645142,160.379251 474.514475,160.316918 474.380475,160.262251 C471.237475,158.999251 454.549475,169.887251 450.687475,172.016251 C450.701475,171.444918 450.718475,170.873584 450.738475,170.302251 C451.959475,134.853251 467.482475,88.6472509 493.790475,64.4092509 C507.538475,51.7433509 526.239475,44.8069509 544.784475,49.3282509 C549.362475,50.4444509 555.016475,53.8379509 559.534475,54.0228509 L560.481475,53.1256509 C554.841475,45.7189509 546.008475,42.2769509 537.020475,41.0261509 C519.939475,38.6491509 503.143475,43.7291509 489.523475,54.0982509 C459.139475,77.2292509 445.186475,118.464251 440.397475,155.091251 C439.548475,161.585251 436.215475,185.731251 439.768475,190.183251 C440.337475,190.896251 440.802475,190.980251 441.707475,191.054251 C446.131475,191.413251 452.842475,186.145251 457.054475,184.571251 C454.851475,192.864251 452.488475,200.782251 452.764475,209.452251 C457.187475,217.258251 461.416475,225.037251 464.806475,233.362251 C476.678475,262.520251 481.950475,298.402251 476.132475,329.503251 C451.552475,327.074251 423.097475,326.213251 400.058475,336.528251 C397.165475,337.823251 393.942475,339.078251 391.432475,341.027251 C389.861475,342.246251 388.568475,343.393251 387.798475,345.249251 C387.974475,346.053251 387.830475,346.364251 388.591475,346.838251 C392.184475,349.077251 411.557475,342.783251 417.169475,341.914251 C435.247475,339.115251 455.919475,337.464251 474.025475,340.733251 C470.510475,353.519251 465.402475,365.511251 458.999475,377.108251 C441.052475,370.511251 422.788475,365.494251 403.576475,364.628251 C400.991475,364.512251 396.563475,363.971251 394.237475,365.283251 C393.193475,365.872251 392.706475,366.680251 392.744475,367.896251 C392.782475,369.091251 393.290475,370.097251 394.270475,370.779251 C396.402475,372.263251 400.731475,372.683251 403.302475,373.237251 C419.439475,376.718251 435.610475,380.528251 450.639475,387.574251 C424.009475,419.486251 386.833475,436.312251 347.718475,447.648251 C343.207809,449.000918 338.646142,450.150584 334.033475,451.097251 C329.284475,452.026251 323.777475,452.423251 319.298475,454.247251 C313.888475,456.451251 308.223475,463.949251 302.554475,467.375251 C294.136475,472.461251 285.135475,475.061251 276.469475,479.367251 C273.213475,486.392251 265.899475,488.826251 259.356475,492.196251 C253.620475,488.737251 249.076475,485.476251 247.268475,478.657251 C240.414475,474.319251 233.183475,470.379251 226.901475,465.214251 C222.132475,461.292251 216.825475,453.406251 211.709475,450.740251 C205.621475,447.567251 192.930475,444.612251 185.506475,441.487251 C148.248475,425.805251 114.685475,401.876251 98.0294753,363.614251 C102.916475,363.083251 114.698475,362.853251 118.011475,359.032251 C118.502475,358.467251 118.529475,358.332251 118.828475,357.730251 C118.415475,356.222251 117.762475,355.524251 116.370475,354.781251 C110.279475,351.528251 100.483475,352.261251 93.7644753,352.388251 C91.5094753,344.319251 89.7614753,336.109251 88.9754753,327.755251 C95.3984753,329.431251 108.198475,334.213251 113.702475,334.671251 C114.875475,334.768251 115.800475,334.511251 116.822475,333.938251 C117.782475,333.399251 117.830475,333.167251 118.406475,332.300251 C118.080475,329.881251 116.653475,328.789251 114.768475,327.367251 C107.172475,321.639251 97.6634753,318.237251 88.6034753,315.672251 C86.5664753,266.108251 106.751475,201.501251 140.538475,164.769251 C141.715809,163.491918 142.913142,162.233584 144.130475,160.994251 C145.347809,159.754918 146.584475,158.534918 147.840475,157.334251 C149.096475,156.134251 150.371142,154.954251 151.664475,153.794251 C152.957809,152.633584 154.269142,151.494251 155.598475,150.376251 C156.927809,149.257584 158.274475,148.160251 159.638475,147.084251 C161.002475,146.008251 162.383142,144.954251 163.780475,143.922251 C165.177809,142.889584 166.591142,141.879584 168.020475,140.892251 C169.449809,139.904251 170.894475,138.939584 172.354475,137.998251 C173.813809,137.056251 175.288142,136.137584 176.777475,135.242251 C178.266142,134.346918 179.768809,133.475251 181.285475,132.627251 C182.801475,131.779918 184.330809,130.956584 185.873475,130.157251 C187.416142,129.357918 188.970809,128.582918 190.537475,127.832251 C192.104809,127.082251 193.683475,126.357251 195.273475,125.657251 C196.862809,124.957251 198.463142,124.282251 200.074475,123.632251 C201.685809,122.982918 203.307142,122.358918 204.938475,121.760251 C206.569142,121.162251 208.209142,120.589918 209.858475,120.043251 C215.464475,118.238251 221.866475,116.198251 227.811475,116.100251 C232.075475,116.030251 236.180475,117.534251 240.436475,117.706251 Z"/><path fill="#FAC3B7" d="M450.687475,172.016251 C450.701475,171.444918 450.718475,170.873584 450.738475,170.302251 C451.959475,134.853251 467.482475,88.6472509 493.790475,64.4092509 C507.538475,51.7433509 526.239475,44.8069509 544.784475,49.3282509 C549.362475,50.4444509 555.016475,53.8379509 559.534475,54.0228509 L560.481475,53.1256509 C562.606475,54.3701509 565.355475,55.5203509 567.205475,57.1282509 C575.606475,64.4272509 581.814475,80.0222509 584.521475,90.5302509 C592.054475,119.771251 585.202475,152.349251 569.979475,177.930251 C556.923475,199.869251 535.043475,218.857251 509.943475,225.297251 C499.184475,228.057251 488.669475,228.356251 477.805475,229.901251 C476.090142,225.700584 474.148142,221.607251 471.979475,217.621251 C469.810809,213.635918 467.428809,209.782251 464.833475,206.060251 C465.689475,200.033251 467.134475,194.077251 468.827475,188.233251 C470.285475,183.198251 477.674475,166.839251 476.595475,162.777251 C476.558142,162.637251 476.513142,162.499918 476.460475,162.365251 C476.407142,162.230584 476.346142,162.099251 476.277475,161.971251 C476.209475,161.843251 476.134142,161.719918 476.051475,161.601251 C475.968809,161.481918 475.879475,161.367918 475.783475,161.259251 C475.688142,161.150584 475.586475,161.047584 475.478475,160.950251 C475.371142,160.853584 475.258475,160.763251 475.140475,160.679251 C475.021809,160.595251 474.899142,160.518584 474.772475,160.449251 C474.645142,160.379251 474.514475,160.316918 474.380475,160.262251 C471.237475,158.999251 454.549475,169.887251 450.687475,172.016251 Z"/><path fill="#313945" d="M225.828475,324.992251 C234.141475,323.912251 244.088475,324.892251 251.819475,328.280251 C256.789475,330.458251 261.380475,334.002251 263.307475,339.245251 C264.855475,343.456251 264.290475,347.873251 262.440475,351.890251 C257.486475,362.650251 246.560475,367.853251 236.089475,371.750251 C238.001475,379.915251 240.586475,387.398251 244.559475,394.797251 C246.342142,394.803918 248.122142,394.742584 249.899475,394.613251 C270.366475,393.093251 303.299475,383.981251 317.125475,367.860251 C314.421475,367.116251 310.778475,366.703251 308.311475,365.523251 C307.249475,365.015251 307.245475,364.814251 306.915475,363.764251 C307.409475,362.613251 308.258475,361.746251 309.292475,361.050251 C313.232475,358.399251 320.231475,359.418251 324.699475,360.208251 C331.002475,361.321251 339.772475,364.991251 343.347475,370.586251 C344.242475,371.986251 344.888475,374.186251 344.325475,375.821251 C343.882475,377.108251 343.300475,377.329251 342.186475,377.887251 C339.913475,377.983251 331.072475,374.218251 328.231475,373.269251 C323.510475,397.760251 318.377475,420.767251 300.738475,439.569251 C294.575475,445.722251 287.642475,450.699251 279.304475,453.453251 C268.692475,456.958251 257.030475,456.482251 247.052475,451.295251 C228.556475,441.680251 217.769475,421.388251 211.804475,402.265251 C203.352475,399.385251 194.740475,396.293251 187.627475,390.729251 C183.689475,387.649251 175.938475,380.945251 175.853834,375.575251 C175.838475,374.475251 176.312475,373.556251 177.139475,372.858251 C177.823475,372.281251 178.465475,371.695251 179.425475,372.039251 C182.687475,373.209251 188.983475,379.798251 192.667475,382.089251 C204.598475,389.508251 218.157475,393.247251 232.060475,394.527251 C228.736475,386.792251 226.403475,379.791251 225.447475,371.406251 C220.126475,369.769251 215.106475,367.873251 210.584475,364.542251 C204.836475,360.309251 200.055475,354.039251 199.124475,346.799251 C199.052475,346.276584 199.007809,345.751251 198.990475,345.223251 C198.972475,344.695918 198.981809,344.169251 199.018475,343.643251 C199.054475,343.116584 199.117809,342.593251 199.208475,342.073251 C199.298475,341.553251 199.414809,341.039251 199.557475,340.531251 C199.700809,340.023251 199.869809,339.523918 200.064475,339.033251 C200.258475,338.542584 200.477475,338.063251 200.721475,337.595251 C200.964809,337.127251 201.231809,336.672918 201.522475,336.232251 C201.813142,335.791584 202.125475,335.366918 202.459475,334.958251 C208.068475,328.077251 217.454475,325.963251 225.828475,324.992251 Z"/><path fill="#CA9696" d="M312.530475,386.236251 L312.941475,386.551251 C313.625475,390.760251 309.585475,402.532251 308.190475,406.978251 C297.865475,404.248251 287.329475,404.359251 276.981475,406.928251 C261.265475,410.829251 250.384475,419.530251 242.080475,433.223251 C239.126475,430.590251 236.777475,427.569251 234.420475,424.408251 C233.339809,422.904918 232.314475,421.364584 231.344475,419.787251 C230.375142,418.209918 229.463809,416.599584 228.610475,414.956251 C227.757142,413.312918 226.964142,411.640918 226.231475,409.940251 C225.499475,408.240251 224.829475,406.515584 224.221475,404.766251 C254.790475,408.113251 286.145475,402.605251 312.530475,386.236251 Z"/><path fill="#FBC3AD" d="M292.755475,413.502251 C296.599475,413.541251 300.297475,414.019251 304.070475,414.717251 C301.044475,421.340251 297.173475,427.505251 291.987475,432.661251 C283.697475,440.903251 274.152475,444.746251 262.527475,444.704251 C259.205475,444.274251 255.270475,444.014251 252.268475,442.431251 C251.142475,441.836251 250.377475,441.078251 250.153475,439.767251 C249.523475,436.080251 253.446475,431.298251 255.771475,428.682251 C265.644475,417.576251 278.416475,414.272251 292.755475,413.502251 Z M226.516475,335.985251 C232.245475,335.459251 238.802475,335.643251 244.392475,337.176251 C247.315475,337.978251 250.914475,339.336251 252.420475,342.197251 C253.285475,343.842251 253.202475,345.716251 252.525475,347.407251 C250.107475,353.449251 242.256475,357.703251 236.503475,359.980251 C229.889475,361.333251 224.041475,360.390251 218.316475,356.641251 C214.659475,354.247251 210.195475,349.744251 209.489475,345.228251 C209.242475,343.648251 209.569475,342.163251 210.557475,340.898251 C213.481475,337.154251 222.065475,336.513251 226.516475,335.985251 Z"/><path fill="#313945" d="M340.788475,257.330251 C346.563475,256.967251 351.622475,257.270251 356.848475,260.042251 C364.119475,263.898251 368.772475,271.181251 371.124475,278.876251 C374.534475,290.026251 373.260475,303.241251 367.725475,313.507251 C363.442475,321.451251 357.044475,326.284251 348.435475,328.810251 C347.684142,328.962251 346.927809,329.079584 346.166475,329.162251 C345.404475,329.245584 344.640475,329.294251 343.874475,329.308251 C343.108475,329.322251 342.343142,329.301584 341.578475,329.246251 C340.814475,329.191584 340.054142,329.102251 339.297475,328.978251 C338.541475,328.854251 337.792475,328.696251 337.050475,328.504251 C336.308475,328.312251 335.576809,328.087251 334.855475,327.829251 C334.134142,327.571251 333.425809,327.281251 332.730475,326.959251 C332.035142,326.636584 331.355809,326.283584 330.692475,325.900251 C323.642475,321.825251 319.524475,314.770251 317.404475,307.120251 C314.200475,295.557251 316.241475,281.618251 322.275475,271.276251 C326.595475,263.872251 332.510475,259.571251 340.788475,257.330251 Z"/><path fill="#FFF" d="M353.809475,273.841251 C355.092475,273.844251 356.425475,273.793251 357.657475,274.202251 C357.940142,274.296918 358.217475,274.404918 358.489475,274.526251 C358.761475,274.647584 359.026809,274.782251 359.285475,274.930251 C359.544809,275.077584 359.795809,275.237584 360.038475,275.410251 C360.281809,275.582918 360.515809,275.766918 360.740475,275.962251 C360.965809,276.157584 361.180809,276.363584 361.385475,276.580251 C361.590142,276.796251 361.783809,277.022251 361.966475,277.258251 C362.149142,277.493584 362.319809,277.737584 362.478475,277.990251 C362.636475,278.242251 362.782142,278.501584 362.915475,278.768251 C364.163475,281.265251 364.258475,284.238251 363.392475,286.869251 C362.367475,289.985251 360.511475,291.152251 357.700475,292.590251 C356.571475,292.485251 355.407475,292.395251 354.301475,292.146251 C352.041475,291.637251 349.816475,290.013251 348.574475,288.072251 C347.344475,286.152251 347.024475,283.815251 347.529475,281.605251 C348.360475,277.969251 350.800475,275.776251 353.809475,273.841251 Z"/><path fill="#313945" d="M160.094475,255.844251 C165.335475,255.539251 169.883475,255.616251 174.698475,258.098251 C181.034475,261.364251 185.116475,267.652251 187.226475,274.296251 C190.872475,285.782251 189.665475,301.041251 184.087475,311.734251 C180.343475,318.909251 174.901475,323.232251 167.195475,325.625251 C162.253475,325.968251 157.893475,325.978251 153.265475,323.849251 C146.568475,320.770251 142.205475,314.682251 139.895475,307.861251 C135.911475,296.098251 137.707475,281.598251 143.243475,270.615251 C147.014475,263.134251 152.054475,258.432251 160.094475,255.844251 Z"/><path fill="#FFF" d="M170.872475,270.850251 C172.186475,270.784251 173.577475,270.778251 174.849475,271.170251 C177.145475,271.877251 178.964475,273.754251 179.989475,275.876251 C181.293475,278.572251 181.314475,281.781251 180.209475,284.548251 C179.097475,287.332251 177.320475,288.480251 174.686475,289.689251 C173.921475,289.688251 173.150475,289.668251 172.387475,289.601251 C172.100142,289.575251 171.814809,289.534251 171.531475,289.478251 C171.248809,289.422251 170.969809,289.351251 170.694475,289.265251 C170.419142,289.179251 170.148809,289.079251 169.883475,288.965251 C169.618809,288.850584 169.360809,288.722251 169.109475,288.580251 C168.858142,288.438918 168.615142,288.284251 168.380475,288.116251 C168.145809,287.948918 167.920475,287.769584 167.704475,287.578251 C167.488475,287.386918 167.283475,287.184584 167.089475,286.971251 C166.894809,286.757918 166.712142,286.534918 166.541475,286.302251 C164.892475,284.082251 164.550475,281.205251 165.105475,278.549251 C165.872475,274.876251 167.768475,272.793251 170.872475,270.850251 Z"/><path fill="#313945" d="M341.065475,186.904251 C345.736475,186.671251 350.163475,186.694251 354.749475,187.727251 C364.815475,189.994251 373.083475,196.155251 378.521475,204.869251 C381.304475,209.329251 383.526475,214.649251 382.276475,219.991251 C381.394475,221.092251 381.472475,221.105251 380.088475,221.320251 C376.129475,220.099251 373.536475,214.332251 371.215475,211.015251 C367.774475,207.285251 364.027475,204.136251 359.453475,201.865251 C352.793475,198.560251 344.224475,197.597251 337.060475,199.873251 C334.327475,200.741251 331.831475,202.260251 329.087475,203.101251 C327.171475,203.687251 325.774475,203.741251 323.974475,202.781251 C323.310475,202.027251 322.998475,201.593251 322.777475,200.583251 C322.365475,198.695251 323.240475,196.320251 324.295475,194.783251 C327.762475,189.735251 335.375475,187.909251 341.065475,186.904251 Z M162.465475,189.895251 C168.577475,189.605251 174.291475,189.322251 179.718475,192.608251 C182.711475,194.421251 186.788475,198.025251 187.394475,201.697251 C187.573475,202.779251 187.486475,203.835251 186.755475,204.709251 C182.290475,210.039251 176.485475,202.808251 171.692475,201.821251 C167.208475,200.898251 162.595475,201.657251 158.178475,202.536251 C153.079475,204.197251 142.064475,212.055251 138.907475,212.024613 C137.969475,212.014251 138.054475,211.836251 137.444475,211.225251 C137.369475,208.682251 139.250475,205.908251 140.606475,203.832251 C145.855475,195.792251 153.234475,191.801251 162.465475,189.895251 Z"/><path fill="#7A7BBE" d="M538.996475,402.066251 C542.686475,404.709251 547.048475,406.800251 551.313475,408.331251 C573.799475,416.403251 597.780475,412.408251 618.781475,402.366251 C620.088475,432.759251 614.707475,470.145251 594.190475,493.734251 C566.302475,525.797251 515.497475,538.768251 474.654475,543.076251 C462.387142,544.274918 450.100809,545.221584 437.795475,545.916251 C430.779475,546.259251 423.717475,546.269251 416.715475,546.831251 C413.787475,547.065251 412.066475,547.511251 410.119475,549.802251 C409.966475,550.555251 409.726475,551.015251 410.018475,551.763251 C411.247475,554.905251 415.865475,556.623251 418.754475,557.912251 L419.308475,601.588251 C419.429475,608.978251 420.277475,617.015251 419.503475,624.333251 C419.153475,627.642251 418.493475,631.614251 416.407475,634.296251 C408.497475,644.472251 363.927475,649.368251 350.706475,651.118251 C297.299475,658.190251 240.739475,657.360251 187.836475,647.130251 C178.078475,645.244251 161.461475,641.884251 153.997475,635.828251 C150.546475,633.029251 149.169475,627.481251 148.543475,623.230251 C147.186475,614.007251 148.181475,603.687251 148.654475,594.391251 C149.765475,572.562251 151.361475,550.594251 154.836475,528.997251 C156.126475,520.983251 161.769475,496.848251 161.125475,490.516251 C160.341475,489.329251 160.315475,489.155251 159.003475,488.659251 C157.750475,488.805251 156.930475,489.192251 155.928475,489.926251 C145.866475,497.296251 142.224475,532.575251 140.264475,545.180251 C136.094475,545.427251 132.690475,546.248251 128.878475,547.961251 C126.144475,544.236251 123.414475,540.404251 120.214475,537.058251 C114.538475,531.125251 106.859475,527.058251 98.5144753,527.056251 C96.7234753,527.056251 94.8144753,527.434251 93.6384753,528.919251 C92.8784753,529.879251 92.4864753,531.211251 92.7294753,532.424251 C93.5214753,536.374251 100.706475,538.202251 103.929475,539.980251 C113.349475,545.175251 119.224475,556.498251 122.086475,566.410251 C114.652475,569.359251 107.032475,572.158251 100.268475,576.487251 C87.1734753,584.868251 75.4514753,598.407251 72.0444753,613.902251 C69.5494753,612.121251 67.1744753,610.296251 64.9374753,608.194251 C49.4564753,593.641251 39.5754753,573.138251 39.1064753,551.793251 C38.6474753,530.915251 48.1924753,514.393251 62.2214753,499.620251 C86.5114753,474.314251 121.414475,463.269251 154.533475,455.061251 C171.621475,475.945251 198.089475,494.510251 224.620475,501.102251 C226.344475,501.531251 227.649475,501.729251 229.208475,500.800251 C229.730475,497.907251 225.683475,495.856251 223.512475,494.574251 C219.536475,492.226251 215.281475,490.344251 211.259475,488.062251 C192.347475,477.333251 173.284475,464.733251 161.554475,446.026251 C166.676475,447.325251 171.471475,449.793251 176.317475,451.862251 C185.846475,455.930251 196.109475,459.940251 206.342475,461.618251 C217.881475,474.030251 245.087475,498.388251 259.744475,505.533251 C274.582475,499.137251 295.870475,487.086251 309.368475,478.097251 C314.586475,474.622251 319.150475,469.913251 324.606475,466.832251 C330.073475,463.745251 337.842475,463.508251 343.941475,462.198251 C348.086475,461.307251 352.196475,460.178251 356.299475,459.113251 C369.519475,455.684251 382.432475,451.737251 395.066475,446.498251 C402.453475,443.434251 411.465475,438.153251 418.985475,436.182251 C421.714475,435.466251 425.099475,435.939251 427.773475,436.682251 C429.594475,437.188251 431.398475,437.840251 432.336475,439.583251 C432.298475,441.093251 431.830475,441.881251 430.529475,442.724251 C423.857475,447.045251 405.848475,453.767251 397.622475,457.430251 C385.935475,462.636251 297.616475,502.577251 295.126475,506.792251 C294.450475,507.935251 294.500475,508.434251 294.846475,509.593251 C295.326475,509.853251 295.657475,510.070251 296.223475,510.179251 C301.162475,511.137251 319.065475,503.360251 324.056475,501.377251 C340.347475,494.902251 356.395475,487.164251 372.417475,480.019251 C384.084475,474.817251 398.145475,469.501251 408.917475,462.962251 C407.157475,465.676251 405.390475,468.433251 403.916475,471.315251 C399.090475,480.760251 389.927475,506.080251 393.256475,516.543251 C394.194475,517.426251 394.186475,517.307251 395.494475,517.291251 C397.077475,516.385251 398.008475,515.656251 398.664475,513.897251 C400.270475,509.591251 400.726475,504.487251 401.629475,499.975251 C404.424475,485.996251 409.301475,473.112251 419.111475,462.550251 C420.859475,460.668251 422.902475,458.833251 425.183475,457.628251 C435.326475,452.270251 448.654475,450.470251 459.861475,448.456251 C480.319475,444.779251 500.190475,441.694251 520.988475,441.038251 C521.966475,445.218251 523.803475,450.781251 527.012475,453.856251 C527.877475,454.685251 528.373475,454.878251 529.539475,454.817251 C530.804475,453.916251 531.323475,452.662251 531.602475,451.178251 C532.238475,447.800251 531.188475,443.315251 531.239475,439.788251 C531.423475,427.099251 533.614475,413.578251 538.996475,402.066251 Z"/><path fill="#477599" d="M160.647475,672.498251 C197.002475,692.592251 292.927475,693.601251 334.557475,689.030251 C348.789475,687.468251 362.828475,685.483251 376.850475,682.587251 C384.105475,681.088251 391.231475,678.904251 398.501475,677.556251 L399.150475,677.439251 C400.516475,696.666251 402.410475,715.857251 403.880475,735.078251 C405.485142,755.436251 406.761475,775.814584 407.709475,796.213251 C394.654475,804.919251 374.148475,807.030251 358.724475,807.625251 C349.835475,807.967251 318.530475,806.773251 312.285475,800.987251 C309.239475,788.298251 293.997475,722.187251 290.154475,716.798251 C284.601475,714.362251 272.349475,715.431251 265.792475,715.047251 C260.463475,714.735251 255.328475,714.212251 250.076475,713.267251 C244.213475,712.213251 237.604475,710.307251 231.633475,710.466251 C230.062475,710.508251 228.586475,710.630251 227.456475,711.820251 C227.281475,712.693251 227.012475,713.297251 227.284475,714.178251 C227.903475,716.180251 229.567475,717.051251 231.272475,718.024251 C238.055475,721.898251 244.464475,723.442251 251.990475,725.169251 C248.385475,748.770251 246.917475,772.799251 244.564475,796.547251 C217.758475,804.767251 188.598475,800.795251 162.460475,792.264251 C161.629475,782.785251 160.435475,773.335251 159.812475,763.838251 C157.848475,733.846251 157.850475,702.457251 160.647475,672.498251 Z"/><path fill="#FAC3B7" d="M90.6654753,222.534251 C81.2634753,220.404251 72.7344753,216.803251 64.6304753,211.553251 C40.5044753,195.925251 24.2914753,167.444251 18.3824753,139.793251 C12.1294753,110.534251 15.9274753,77.7962509 32.4904753,52.3957509 C43.6314753,35.3095509 60.0264753,21.7764509 80.3354753,17.6402509 C98.4164753,13.9578509 118.206475,18.2684509 133.443475,28.5842509 C163.403475,48.8687509 174.071475,82.0502509 180.473475,115.854251 C171.072475,122.145251 161.788475,128.059251 152.736475,134.904251 C152.387142,131.031584 152.008809,127.161918 151.601475,123.295251 C148.576475,95.6992509 139.159475,64.8882509 116.578475,47.0492509 C104.750475,37.7047509 90.6554753,32.9693509 75.5614753,34.7923509 C67.5114753,35.7646509 58.2984753,39.0399509 53.1454753,45.6108509 C56.9434753,46.8057509 64.3914753,43.2221509 68.6444753,42.5258509 C94.9244753,38.2226509 116.498475,56.0346509 127.946475,78.2202509 C138.213475,98.1202509 140.989475,121.678251 141.777475,143.811251 C141.688475,143.926251 141.599475,144.043251 141.508475,144.158251 C137.153475,149.628251 131.268475,153.958251 126.656475,159.249251 C112.853475,175.083251 102.707475,193.394251 94.7224753,212.729251 C93.4834753,216.066251 92.1864753,219.315251 90.6654753,222.534251 Z"/><path fill="#F2F2F4" d="M90.6654753,222.534251 C81.2634753,220.404251 72.7344753,216.803251 64.6304753,211.553251 C40.5044753,195.925251 24.2914753,167.444251 18.3824753,139.793251 C12.1294753,110.534251 15.9274753,77.7962509 32.4904753,52.3957509 C43.6314753,35.3095509 60.0264753,21.7764509 80.3354753,17.6402509 C98.4164753,13.9578509 118.206475,18.2684509 133.443475,28.5842509 C163.403475,48.8687509 174.071475,82.0502509 180.473475,115.854251 C171.072475,122.145251 161.788475,128.059251 152.736475,134.904251 C152.387142,131.031584 152.008809,127.161918 151.601475,123.295251 C148.576475,95.6992509 139.159475,64.8882509 116.578475,47.0492509 C104.750475,37.7047509 90.6554753,32.9693509 75.5614753,34.7923509 C67.5114753,35.7646509 58.2984753,39.0399509 53.1454753,45.6108509 C38.1574753,56.4453509 31.2894753,76.1542509 28.4564753,93.8222509 C23.6644753,123.704251 31.9614753,157.975251 49.8174753,182.382251 C50.898142,183.868251 52.029142,185.314918 53.2104753,186.722251 C54.391142,188.129584 55.619142,189.494251 56.8944753,190.816251 C58.1698086,192.138918 59.4894753,193.415918 60.8534753,194.647251 C62.2174753,195.877918 63.622142,197.060251 65.0674753,198.194251 C66.5134753,199.328251 67.9968086,200.410584 69.5174753,201.441251 C71.0374753,202.472584 72.5918086,203.449918 74.1804753,204.373251 C75.7684753,205.296584 77.3868086,206.164251 79.0354753,206.976251 C80.6834753,207.787584 82.3578086,208.540918 84.0584753,209.236251 C87.5354753,210.637251 91.3204753,211.327251 94.7224753,212.729251 C93.4834753,216.066251 92.1864753,219.315251 90.6654753,222.534251 Z"/><path fill="#FAC3B7" d="M670.635475,535.006251 C678.035475,534.567251 685.349475,534.935251 692.589475,536.606251 C711.197475,540.900251 729.293475,552.714251 739.418475,569.089251 C747.946475,582.881251 750.809475,598.177251 747.145475,613.992251 C744.570475,608.982251 742.712475,603.595251 740.382475,598.465251 C735.019475,586.660251 726.610475,575.769251 715.801475,568.471251 C702.545475,559.522251 687.336475,555.725251 671.476475,558.878251 C670.645142,559.034918 669.818475,559.212584 668.996475,559.411251 C668.173809,559.609251 667.356809,559.827584 666.545475,560.066251 C665.734142,560.304918 664.929142,560.563584 664.130475,560.842251 C663.331809,561.120918 662.540475,561.419251 661.756475,561.737251 C660.972475,562.055251 660.197142,562.392584 659.430475,562.749251 C658.663809,563.106584 657.906142,563.482251 657.157475,563.876251 C656.409475,564.270918 655.671475,564.683584 654.943475,565.114251 C654.215475,565.545584 653.498809,565.994584 652.793475,566.461251 C652.088142,566.927918 651.394809,567.411918 650.713475,567.913251 C650.032142,568.414584 649.363475,568.932584 648.707475,569.467251 C648.052142,570.001918 647.410475,570.552251 646.782475,571.118251 C646.153809,571.684918 645.539809,572.266584 644.940475,572.863251 C644.341809,573.460584 643.757809,574.072251 643.188475,574.698251 C642.619809,575.324251 642.066809,575.963918 641.529475,576.617251 C640.992809,577.270584 640.472475,577.936918 639.968475,578.616251 C639.464475,579.296251 638.977809,579.987918 638.508475,580.691251 C614.112475,617.731251 646.109475,655.945251 653.712475,692.730251 C658.812475,717.404251 654.696475,743.929251 640.677475,765.040251 C626.231475,786.792251 603.288475,799.914251 578.049475,804.990251 C539.488475,812.746251 505.309475,804.116251 473.052475,782.593251 C457.764475,771.562251 445.204475,758.600251 432.599475,744.676251 C427.157475,738.664251 421.475475,732.648251 416.618475,726.147251 C415.141475,711.008251 414.119475,695.469251 413.660475,680.267251 C423.337809,689.617918 432.529142,699.424251 441.234475,709.686251 C454.517475,725.492251 466.488475,742.005251 482.433475,755.356251 C504.252475,773.627251 531.450475,785.122251 560.298475,782.363251 C581.359475,780.349251 601.918475,771.891251 615.560475,755.254251 C623.122475,746.032251 627.700475,735.314251 629.614475,723.573251 C636.404475,681.922251 609.046475,652.856251 605.416475,614.148251 C603.550475,594.254251 609.317475,574.861251 622.141475,559.481251 C634.371475,544.811251 651.826475,536.723251 670.635475,535.006251 Z"/><path fill="#F2F2F4" d="M532.416475,290.407251 C534.456475,290.212251 536.481475,290.075251 538.532475,290.081326 C557.485475,290.144251 577.542475,298.816251 590.798475,312.312251 C606.339475,328.132251 609.935475,348.589251 609.739475,369.986251 C605.443475,372.346251 601.052475,374.466251 596.321475,375.800251 C582.555475,379.681251 565.640475,378.562251 553.055475,371.563251 C557.826475,371.483251 562.618475,371.637251 567.235475,370.245251 C571.369475,368.998251 575.556475,366.450251 577.506475,362.448251 C578.434475,360.544251 578.799475,358.208251 577.853475,356.238251 C577.306475,355.097251 576.247475,354.244251 575.055475,353.844251 C572.304475,352.920251 569.730475,354.674251 567.434475,355.967251 C564.113475,357.468251 560.841475,357.947251 557.225475,357.276251 C553.875475,356.654251 550.532475,355.033251 548.662475,352.080251 C543.783475,344.371251 548.969475,335.500251 550.250475,327.682251 C550.531475,325.966251 550.561475,324.629251 549.495475,323.183251 C548.623475,322.759251 548.135475,322.589251 547.137475,322.640251 C544.745475,322.764251 542.595475,324.928251 541.185475,326.657251 C534.901475,334.360251 536.132475,343.815251 536.943475,352.950251 C523.587475,344.525251 520.984475,333.386251 526.599475,319.101251 C527.812475,316.013251 531.190475,310.579251 530.311475,307.469251 C529.908475,307.249251 529.613475,307.049251 529.127475,306.987251 C527.503475,306.778251 525.635475,307.522251 524.318475,308.410251 C516.506475,313.679251 515.456475,324.447251 514.030475,332.963251 C511.743475,329.508251 509.806475,326.095251 508.910475,322.006251 C507.451475,315.350251 509.285475,307.923251 512.977475,302.274251 C517.570475,295.249251 524.507475,292.001251 532.416475,290.407251 Z M156.582475,826.506251 C166.664475,825.796251 176.371475,829.043251 186.123475,831.058251 C203.735475,834.695251 220.988475,833.852251 238.468475,830.220251 C239.662475,834.454251 240.527475,838.674251 240.671475,843.086251 C240.879475,849.482251 239.301475,855.016251 234.748475,859.662251 C219.180475,875.546251 180.585475,882.605251 158.949475,882.757251 C158.335475,880.291251 157.873475,877.843251 157.907475,875.289251 C158.003475,867.972251 160.910475,861.563251 166.145475,856.516251 C167.429475,855.279251 169.460475,854.001251 170.457475,852.634251 C171.289475,851.493251 170.969475,850.518251 170.846475,849.231251 C169.471475,848.279251 168.303475,847.531251 166.563475,847.500251 C163.280475,847.443251 160.020475,849.724251 157.737475,851.858251 C148.755475,860.254251 147.042475,870.519251 146.659475,882.225251 C145.722809,882.117918 144.787142,882.001918 143.852475,881.877251 C138.164475,881.111251 127.118475,879.872251 123.555475,874.756251 C122.011475,872.540251 121.920475,869.886251 122.525475,867.337251 C125.300475,855.629251 137.754475,849.808251 138.578475,844.686251 C137.974475,843.910251 138.202475,843.905251 137.386475,843.708251 C133.710475,842.822251 129.158475,844.242251 125.977475,846.061251 C117.538475,850.885251 115.343475,859.737251 113.065475,868.411251 C111.536475,865.200251 110.118475,861.781251 109.908475,858.197251 C109.596475,852.849251 112.121475,848.129251 115.566475,844.209251 C125.596475,832.797251 141.847475,827.548251 156.582475,826.506251 Z M405.286475,832.345251 C405.737475,832.375251 406.083475,832.616251 406.483475,832.815251 C410.158475,838.167251 412.689475,845.198251 414.494475,851.403251 C416.826475,859.419251 418.018475,868.529251 413.606475,876.082251 C409.257475,883.526251 402.071475,886.230251 394.253475,888.409251 C395.439475,880.869251 396.504475,873.187251 394.308475,865.714251 C393.372475,862.528251 391.254475,857.262251 387.925475,856.003251 C386.583475,855.496251 386.202475,855.724251 385.060475,856.350251 C383.194475,860.176251 385.455475,866.887251 385.721475,871.160251 C386.040475,876.258251 385.869475,883.881251 382.205475,887.766251 C378.458475,891.740251 369.245475,891.051251 364.037475,891.098251 C361.263475,891.123251 357.680475,891.050251 355.659475,888.845251 C352.771475,885.694251 353.762475,878.636251 353.862475,874.676251 C354.308475,871.091251 355.916475,863.848251 353.805475,860.769251 C352.985475,859.575251 352.675475,859.498251 351.353475,859.255251 C350.463475,859.558251 349.866475,859.910251 349.212475,860.575251 C342.420475,867.483251 343.671475,880.329251 343.717475,889.106251 C341.976142,888.660918 340.242142,888.188584 338.515475,887.689251 C332.467475,885.903251 327.361475,882.096251 324.427475,876.452251 C318.406475,864.867251 323.975475,848.479251 327.517475,836.826251 C353.529475,841.236251 380.022475,840.187251 405.286475,832.345251 Z"/><path fill="#7A7BBE" d="M155.743475,649.669251 C224.196475,673.637251 341.941475,670.239251 410.681475,650.947251 C410.790475,652.752251 410.950475,654.598251 410.886475,656.406251 C410.799475,658.856251 410.158475,660.145251 408.375475,661.782251 C400.419475,665.648251 391.067475,667.787251 382.452475,669.629251 C329.322475,680.987251 203.266475,687.501251 157.195475,657.653251 C156.372475,654.913251 155.854475,652.534251 155.743475,649.669251 Z"/><path fill="#F2F2F4" d="M134.637475,592.764251 C135.417475,593.287251 135.513475,593.090251 135.663475,594.094251 C136.153475,597.376251 135.452475,601.581251 135.281475,604.950251 C134.346475,623.351251 133.714475,625.535251 141.366475,642.230251 C143.978475,647.930251 145.231475,657.880251 142.838475,663.803251 C140.811475,668.820251 135.721475,671.577251 130.944475,673.489251 C122.809475,676.746251 114.518475,676.544251 106.515475,672.860251 C101.142475,670.388251 97.6394753,666.629251 95.4864753,661.133251 C94.9024753,658.671251 94.5354753,655.282251 95.3474753,652.860251 C98.2274753,650.745251 107.364475,662.029251 113.328475,660.758251 C114.678475,660.471251 115.317475,659.718251 116.101475,658.668251 C116.939475,653.480251 105.139475,647.053251 102.684475,641.255251 C99.8154753,634.478251 99.8434753,627.350251 102.581475,620.541251 C107.891475,607.339251 122.088475,598.108251 134.637475,592.764251 Z"/><path fill="#7A7BBE" d="M615.899475,380.216251 L616.541475,380.431251 C618.629475,382.837251 618.573475,389.180251 618.875475,392.346251 C613.388475,395.812251 608.070475,398.378251 601.771475,400.038251 C584.920475,404.481251 561.259475,405.357251 545.742475,396.232251 C544.342475,395.406251 543.012475,394.361251 541.679475,393.429251 C543.524475,389.504251 545.458475,385.706251 547.633475,381.954251 C571.534475,391.287251 592.359475,390.110251 615.899475,380.216251 Z"/><path fill="#45759B" d="M406.975475,807.224251 C407.534475,807.428251 407.192475,807.249251 407.814475,808.021251 C407.847475,810.282251 408.276475,813.666251 407.497475,815.758251 C406.652475,818.028251 404.505475,819.264251 402.401475,820.232251 C383.345475,828.997251 337.922475,829.351251 318.426475,821.767251 L316.926475,820.701251 C316.013475,818.866251 315.212475,816.541251 315.766475,814.499251 C316.755475,813.870251 317.722475,813.985251 318.862475,814.084251 C323.417475,814.483251 328.018475,815.828251 332.564475,816.506251 C339.464475,817.536251 346.919475,817.824251 353.883475,817.784251 C371.497475,817.683251 391.067475,815.017251 406.975475,807.224251 Z M164.066475,802.392251 C189.595475,811.628251 217.940475,813.823251 244.334475,806.741251 C244.297475,809.775251 244.166475,812.618251 243.643475,815.611251 C241.524475,816.969251 239.422475,817.743251 236.987475,818.333251 C218.785475,822.743251 197.473475,821.207251 179.385475,817.224251 C175.677475,816.407251 171.171475,815.590251 167.934475,813.517251 C164.750475,811.478251 164.827475,805.939251 164.066475,802.392251 Z"/><path fill="#7A7BBE" d="M121.749475,576.430251 C122.354475,576.405251 123.316475,576.411251 123.922475,576.596251 C125.249475,577.002251 126.400475,578.370251 127.016475,579.586251 C128.354475,582.226251 126.700475,583.475251 124.648475,584.725251 C110.106475,593.583251 95.3434753,604.380251 89.9314753,621.314251 C89.4524753,622.811251 89.4074753,623.624251 88.0144753,624.361251 C85.7904753,623.441251 81.9534753,622.322251 80.8084753,620.117251 C80.6534753,613.001251 84.2664753,605.126251 88.3224753,599.433251 C95.4784753,589.389251 109.348475,578.464251 121.749475,576.430251 Z"/></g></svg>