<svg xmlns="http://www.w3.org/2000/svg" width="858" height="909" viewBox="0 0 858 909"><g fill="none" transform="translate(.805 .098)"><path fill="#313945" d="M255.786053,0.102736373 C274.381053,-0.703163627 291.844053,3.19583637 307.704053,13.0878364 C328.711053,26.1899364 342.881053,47.1112364 350.272053,70.5072364 C352.738053,78.3142364 354.303053,86.5162364 356.172053,94.4892364 C363.441053,91.8862364 375.719053,88.9682364 383.345053,90.3412364 C381.277053,87.7352364 379.352053,85.3492364 377.791053,82.3902364 C377.983053,80.2592364 378.086053,78.2872364 379.313053,76.4682364 C381.130053,73.7752364 384.026053,72.1952364 387.172053,71.5982364 C398.193053,69.5042364 420.486053,75.3302364 430.704053,80.4572364 C435.558053,82.8932364 440.016053,86.5392364 445.161053,88.3262364 C449.503053,89.8332364 454.696053,89.8882364 459.224053,90.7942364 C474.208053,93.7932364 490.908053,99.2982364 503.455053,107.974236 C505.809053,102.080236 507.339053,95.8122364 509.556053,89.8452364 C510.911386,86.283903 512.393053,82.7755697 514.001053,79.3202364 C515.608386,75.8655697 517.338053,72.4732364 519.190053,69.1432364 C521.042719,65.8125697 523.012386,62.5532364 525.099053,59.3652364 C527.185719,56.1765697 529.384386,53.0672364 531.695053,50.0372364 C550.192053,25.8992364 576.543053,7.47813637 607.216053,3.58643637 C631.426053,0.514636373 654.748053,9.70353637 673.562053,24.5612364 C694.678053,41.2377364 708.190053,67.4142364 711.284053,93.9592364 C711.403386,94.9612364 711.510719,95.9645697 711.606053,96.9692364 C711.701386,97.9732364 711.784386,98.9785697 711.855053,99.9852364 C711.925719,100.991903 711.984053,101.999236 712.030053,103.007236 C712.076053,104.015236 712.109719,105.02357 712.131053,106.032236 C712.152386,107.040903 712.161386,108.049903 712.158053,109.059236 C712.154719,110.067903 712.139053,111.07657 712.111053,112.085236 C712.083053,113.093903 712.042719,114.101903 711.990053,115.109236 C711.937386,116.117236 711.872386,117.124236 711.795053,118.130236 C711.717719,119.136236 711.628386,120.141236 711.527053,121.145236 C711.425053,122.14857 711.311053,123.150903 711.185053,124.152236 C711.058386,125.152903 710.919719,126.152236 710.769053,127.150236 C710.618386,128.148236 710.455719,129.143903 710.281053,130.137236 C710.105719,131.131236 709.918386,132.12257 709.719053,133.111236 C709.520386,134.10057 709.309386,135.087236 709.086053,136.071236 C708.862053,137.055236 708.626386,138.036236 708.379053,139.014236 C708.131719,139.992903 707.872719,140.967903 707.602053,141.939236 C707.330719,142.911236 707.047719,143.879903 706.753053,144.845236 C706.458386,145.809903 706.151719,146.770903 705.833053,147.728236 C705.515053,148.68557 705.185053,149.639236 704.843053,150.589236 C704.501719,151.53857 704.148719,152.48357 703.784053,153.424236 C703.419386,154.364903 703.043053,155.300903 702.655053,156.232236 C702.267719,157.164236 701.869053,158.091236 701.459053,159.013236 C701.048386,159.93457 700.627053,160.851236 700.195053,161.763236 C699.762386,162.67457 699.318386,163.58057 698.863053,164.481236 C698.408386,165.381903 697.942719,166.276903 697.466053,167.166236 C696.989386,168.05557 696.502053,168.938903 696.004053,169.816236 C695.506053,170.69357 694.997053,171.564903 694.477053,172.430236 C693.957719,173.294903 693.427719,174.153236 692.887053,175.005236 C692.347053,175.857236 691.796386,176.70257 691.235053,177.541236 C690.673719,178.379903 690.102386,179.21157 689.521053,180.036236 C688.939719,180.860903 688.348386,181.678236 687.747053,182.488236 C687.145719,183.298236 686.534386,184.100903 685.913053,184.896236 C663.097053,213.605236 631.110053,228.856236 595.158053,232.934236 C601.751053,259.159236 600.958053,283.911236 598.834053,310.590236 C604.318053,311.974236 611.976053,312.975236 615.687053,317.656236 C616.696053,318.929236 616.896053,319.882236 616.750053,321.465236 C616.291053,322.117236 615.865053,322.679236 615.178053,323.112236 C609.619053,326.617236 601.481053,324.108236 595.561053,322.719236 C589.822053,340.201236 582.678053,355.500236 571.746053,370.351236 C574.276053,372.458236 576.834053,374.384236 578.349053,377.390236 C579.129053,378.938236 579.818053,381.007236 579.026053,382.689236 C578.463053,383.886236 577.323053,384.590236 576.084053,384.922236 C571.301053,386.205236 566.327053,382.737236 562.447053,380.436236 C560.697053,381.631236 558.797053,382.498236 556.896053,383.421236 C565.575053,391.286236 573.680053,400.313236 577.834053,411.463236 C581.298053,420.760236 581.950053,429.590236 577.743053,438.764236 C586.290053,447.904236 592.333053,459.642236 596.351053,471.423236 C598.040053,476.378236 599.275053,481.815236 601.659053,486.472236 C603.941053,490.931236 607.469053,494.899236 610.043053,499.231236 C619.184053,514.617236 630.061053,534.225236 635.987053,551.027236 C642.434053,569.307236 642.841053,577.844236 634.621053,594.967236 C637.853053,606.118236 640.763053,611.145236 636.481053,622.885236 C636.589053,622.989236 636.698053,623.092236 636.805053,623.198236 C638.764053,625.136236 640.790053,626.556236 643.135053,627.985236 C661.376053,639.106236 682.527053,645.400236 703.793053,640.157236 C716.714053,636.971236 728.087053,630.140236 734.987053,618.538236 C752.974053,588.294236 728.719053,556.656236 714.657053,530.547236 C706.721053,515.813236 699.442053,500.720236 695.361053,484.405236 C688.615053,457.434236 690.926053,427.028236 705.605053,402.944236 C705.955719,402.370236 706.313386,401.800236 706.678053,401.234236 C707.042719,400.668903 707.414053,400.108236 707.792053,399.552236 C708.170719,398.99557 708.556053,398.443903 708.948053,397.897236 C709.340053,397.349903 709.738386,396.807903 710.143053,396.271236 C710.548386,395.733903 710.960053,395.20157 711.378053,394.674236 C711.796719,394.14757 712.221386,393.625903 712.652053,393.109236 C713.083386,392.59257 713.520719,392.081236 713.964053,391.575236 C714.407386,391.069236 714.857053,390.56857 715.313053,390.073236 C715.769053,389.57857 716.230719,389.089236 716.698053,388.605236 C717.166053,388.121903 717.639719,387.644236 718.119053,387.172236 C718.598386,386.700236 719.083386,386.234236 719.574053,385.774236 C720.065386,385.31357 720.562053,384.859236 721.064053,384.411236 C721.566053,383.963236 722.073386,383.52157 722.586053,383.086236 C723.098719,382.650903 723.616719,382.22157 724.140053,381.798236 C724.663386,381.37557 725.191719,380.959236 725.725053,380.549236 C726.259053,380.139236 726.797719,379.735903 727.341053,379.339236 C727.884386,378.94257 728.432386,378.55257 728.985053,378.169236 C729.538386,377.785903 730.096053,377.409236 730.658053,377.039236 C731.220053,376.669903 731.786719,376.307236 732.358053,375.951236 C732.928719,375.595236 733.504053,375.24657 734.084053,374.905236 C734.663386,374.563236 735.247053,374.22857 735.835053,373.901236 C736.423053,373.573903 737.014719,373.253903 737.610053,372.941236 C738.206053,372.627903 738.805386,372.322236 739.408053,372.024236 C740.011386,371.72557 740.618053,371.43457 741.228053,371.151236 C741.838719,370.867903 742.452386,370.592236 743.069053,370.324236 C743.686386,370.05557 744.306719,369.79457 744.930053,369.541236 C745.553386,369.28857 746.179719,369.043236 746.809053,368.805236 C747.438386,368.567236 748.070719,368.337236 748.706053,368.115236 C749.340719,367.89257 749.978386,367.677903 750.619053,367.471236 C751.259053,367.26457 751.901719,367.065903 752.547053,366.875236 C753.191719,366.683903 753.839053,366.50057 754.489053,366.325236 C755.138386,366.15057 755.790053,365.98357 756.444053,365.824236 C777.584053,360.683236 801.579053,363.187236 820.336053,374.663236 C836.838053,384.758236 849.722053,401.267236 854.226053,420.154236 C857.295053,433.028236 858.023053,451.219236 850.580053,462.851236 C848.629053,465.900236 845.882053,468.455236 842.223053,469.148236 C829.303053,471.596236 828.319053,446.094236 824.713053,437.155236 C821.039053,428.044236 815.314053,420.497236 807.103053,415.020236 C806.503053,414.612236 805.893053,414.219236 805.273053,413.841236 C804.653053,413.463236 804.024053,413.100903 803.386053,412.754236 C802.748053,412.408236 802.102053,412.077903 801.448053,411.763236 C800.793386,411.449236 800.131719,411.15157 799.463053,410.870236 C798.793719,410.588903 798.117719,410.32457 797.435053,410.077236 C796.752386,409.829903 796.064386,409.59957 795.371053,409.386236 C794.677053,409.172903 793.978053,408.977236 793.274053,408.799236 C792.570719,408.621236 791.863053,408.46057 791.151053,408.317236 C790.439719,408.17457 789.725053,408.04957 789.007053,407.942236 C788.289053,407.834903 787.568719,407.74557 786.846053,407.674236 C786.123386,407.602903 785.399719,407.54957 784.675053,407.514236 C783.949719,407.478903 783.224053,407.46157 782.498053,407.462236 C781.772719,407.46357 781.047386,407.482903 780.322053,407.520236 C779.597386,407.556903 778.873719,407.611903 778.151053,407.685236 C777.429053,407.75857 776.709386,407.849903 775.992053,407.959236 C775.274053,408.06857 774.559386,408.19557 773.848053,408.340236 C763.139053,410.481236 753.985053,417.243236 748.073053,426.348236 C723.730053,463.843236 758.093053,506.308236 775.305053,538.778236 C781.408053,550.291236 786.659053,562.631236 789.369053,575.403236 C794.556053,599.846236 790.514053,627.194236 776.710053,648.196236 C762.562053,669.724236 739.703053,683.631236 714.693053,688.836236 C689.474053,694.084236 654.591053,693.147236 632.488053,678.634236 C630.607053,682.794236 628.801053,686.992236 626.489053,690.936236 C639.257053,690.555236 650.854053,692.195236 662.053053,698.780236 C684.100053,711.745236 708.386053,741.577236 714.592053,766.252236 C716.893053,775.403236 716.810053,785.911236 711.689053,794.142236 C705.890053,803.463236 694.483053,810.120236 683.973053,812.524236 C664.468053,816.984236 642.744053,812.339236 625.987053,801.794236 C619.827053,805.933236 613.826053,808.310236 606.726053,810.469236 C606.111053,819.028236 606.385053,827.697236 606.455053,836.273236 C606.495053,841.281236 606.915053,846.665236 605.946053,851.591236 C605.380053,854.472236 604.152053,857.030236 602.179053,859.211236 C597.421053,864.468236 575.780053,877.431236 568.396053,882.348236 C556.968053,889.394236 534.150053,907.448236 521.568053,907.873236 C513.976053,908.129236 506.123053,906.823236 498.593053,905.901236 C487.618386,904.597903 476.663719,903.141903 465.729053,901.533236 L368.177053,886.676236 L205.124053,861.175236 L122.919053,848.589236 C109.184053,846.499236 95.3070525,844.817236 81.6350525,842.374236 C78.6800525,841.846236 72.5700525,840.969236 70.4900525,838.838236 C70.3500525,838.695236 70.2220525,838.539236 70.0840525,838.394236 C64.4150525,832.431236 63.7580525,827.328236 63.6840525,819.451236 C63.5990525,810.387236 62.4220525,780.072236 64.9780525,773.298236 C66.4250525,769.462236 69.7900525,766.510236 72.6010525,763.662236 C71.9760525,763.372236 71.3550525,763.091236 70.7700525,762.724236 C67.3320525,760.570236 65.3030525,756.274236 64.5730525,752.419236 C63.3120525,745.760236 62.9840525,709.686236 63.8750525,702.808236 C64.2420525,699.978236 65.0390525,696.694236 66.7820525,694.371236 C71.2860525,688.367236 97.5990525,683.032236 105.683053,681.614236 C108.328053,675.660236 111.291053,670.650236 116.244053,666.309236 C122.251053,661.044236 129.591053,658.213236 137.513053,657.575236 C140.876053,657.304236 144.508053,657.294236 147.782053,656.423236 C156.126053,654.201236 162.663053,649.840236 171.699053,649.824236 C178.129053,649.813236 182.019053,653.100236 187.927053,654.362236 C192.357053,655.308236 196.994053,654.608236 201.427053,655.355236 C205.130053,655.980236 208.494053,658.102236 212.216053,658.659236 C220.169053,659.851236 229.216053,657.265236 237.603053,658.095236 C240.983719,658.461903 244.333053,659.01657 247.651053,659.759236 C250.969053,660.50257 254.235053,661.429236 257.449053,662.539236 C262.340053,664.261236 267.296053,666.477236 272.410053,667.412236 C280.221053,668.839236 288.331053,667.782236 296.218053,669.440236 C301.614053,670.574236 305.662053,673.667236 310.655053,675.683236 C316.816053,678.171236 327.199053,679.108236 333.860053,679.546236 C335.232053,679.636236 338.387053,679.946236 339.494053,679.140236 C344.871053,675.224236 351.721053,664.629236 356.582053,659.051236 C363.945386,650.569903 371.855386,642.63357 380.312053,635.242236 C377.427053,632.552236 374.682053,629.878236 372.413053,626.632236 C364.286053,615.002236 364.685053,602.060236 366.993053,588.685236 C358.328053,576.572236 350.054053,562.460236 345.645053,548.114236 C325.998053,563.748236 303.767053,576.136236 278.266053,578.280236 C272.380053,578.775236 266.506053,577.926236 260.619053,577.924236 C255.216053,577.922236 249.798053,578.695236 244.391053,578.827236 C231.663053,579.138236 223.157053,574.602236 214.102053,566.038236 C204.669053,564.794236 197.305053,561.831236 189.685053,556.191236 C188.017053,557.856236 186.408053,559.600236 184.659053,561.180236 C176.481053,568.565236 165.876053,567.470236 155.793053,566.863236 C163.783053,571.547236 176.161053,575.929236 182.534053,582.099236 C184.643053,584.141236 186.346053,586.851236 186.274053,589.883236 C186.150053,595.158236 182.884053,599.613236 179.170053,603.076236 C167.504053,613.955236 145.959053,626.161236 131.892053,634.567236 C107.784053,648.973236 83.5340525,662.894236 58.2890525,675.234236 C48.9270525,679.810236 39.4210525,684.794236 29.4940525,688.027236 C25.4849525,689.333236 21.4532525,690.059236 17.2268525,689.869236 C12.2122525,689.645236 6.92315252,688.104236 3.56765252,684.152236 C0.427952521,680.454236 -0.369447479,675.461236 0.143752521,670.768236 C0.654452521,666.099236 2.37105252,661.727236 4.36325252,657.510236 C12.7379525,639.783236 61.7310525,557.199236 74.8850525,546.951236 C86.8770525,537.610236 102.733053,547.894236 115.402053,549.757236 L116.035053,549.082236 C116.375053,547.968236 116.679053,547.002236 116.295053,545.836236 C115.636053,543.837236 114.195053,541.888236 113.288053,539.961236 C112.611386,538.53857 112.002053,537.087903 111.460053,535.609236 C110.918053,534.129903 110.446053,532.62857 110.044053,531.105236 C109.642053,529.58257 109.311719,528.044236 109.053053,526.490236 C108.795053,524.936236 108.609386,523.37357 108.496053,521.802236 C107.007053,502.409236 118.828053,482.687236 137.030053,475.308236 C142.462053,473.105236 150.598053,472.279236 155.037053,468.536236 C160.050053,464.308236 163.543053,457.482236 167.322053,452.162236 C171.400053,446.412903 175.739719,440.86857 180.341053,435.529236 C188.201053,426.500236 197.460053,418.141236 209.999053,417.378236 C218.485053,416.862236 225.732053,419.587236 232.031053,425.207236 C237.503053,430.089236 240.776053,436.524236 241.183053,443.884236 C241.912053,457.060236 231.286053,466.554236 223.254053,475.600236 C228.985053,473.454236 234.693053,472.035236 240.823053,471.739236 C245.650053,471.507236 250.647053,471.714236 255.403053,470.735236 C275.913053,466.513236 305.476053,438.952236 320.502053,424.434236 C318.319386,423.526236 316.151053,422.584236 313.997053,421.608236 C280.425053,406.246236 249.564053,381.904236 236.217053,346.319236 C223.857053,346.990236 212.958053,348.821236 200.972053,352.011236 C199.555053,351.602236 197.945053,351.210236 196.670053,350.466236 C195.341053,349.689236 194.362053,348.520236 194.144053,346.950236 C193.952053,345.566236 194.439053,344.279236 195.329053,343.237236 C201.164053,336.407236 223.455053,334.644236 232.453053,333.770236 C230.391053,323.325236 229.831053,313.189236 231.092053,302.615236 C223.482053,300.311236 215.899053,298.107236 208.076053,296.642236 C200.974053,295.311236 193.374053,294.607236 186.423053,292.709236 C183.922053,292.026236 181.342053,290.694236 180.105053,288.296236 C179.516053,287.157236 179.315053,285.839236 179.860053,284.633236 C180.350053,283.549236 181.365053,282.766236 182.433053,282.303236 C191.083053,278.548236 223.535053,287.022236 232.974053,290.394236 C236.191053,262.804236 242.247053,235.339236 249.614053,208.584236 C242.116053,204.266236 234.994053,199.579236 228.311053,194.066236 C227.561053,193.446236 226.818719,192.816903 226.084053,192.178236 C225.349386,191.53957 224.622719,190.892236 223.904053,190.236236 C223.185386,189.57957 222.475053,188.914236 221.773053,188.240236 C221.071053,187.566236 220.377386,186.88357 219.692053,186.192236 C219.006719,185.500903 218.330053,184.801236 217.662053,184.093236 C216.994053,183.385236 216.335053,182.669236 215.685053,181.945236 C215.035053,181.22057 214.394053,180.488236 213.762053,179.748236 C213.130053,179.008236 212.507386,178.260236 211.894053,177.504236 C211.280053,176.748903 210.676053,175.985903 210.082053,175.215236 C209.487386,174.44457 208.902386,173.666903 208.327053,172.882236 C207.751719,172.096903 207.186053,171.30457 206.630053,170.505236 C206.074719,169.70657 205.529053,168.900903 204.993053,168.088236 C204.457053,167.27557 203.931386,166.45657 203.416053,165.631236 C202.900719,164.805236 202.395719,163.973236 201.901053,163.135236 C201.405719,162.297236 200.921053,161.453236 200.447053,160.603236 C199.973053,159.753236 199.509719,158.897236 199.057053,158.035236 C198.604386,157.173903 198.162386,156.306903 197.731053,155.434236 C197.299719,154.56157 196.879386,153.683903 196.470053,152.801236 C196.060719,151.91857 195.662053,151.03057 195.274053,150.137236 C194.886719,149.24457 194.510386,148.347236 194.145053,147.445236 C193.779719,146.543236 193.425719,145.63657 193.083053,144.725236 C192.739719,143.81457 192.408053,142.89957 192.088053,141.980236 C191.768053,141.06157 191.459053,140.138903 191.161053,139.212236 C190.863719,138.284903 190.578053,137.35457 190.304053,136.421236 C190.029386,135.487236 189.766719,134.549903 189.516053,133.609236 C189.264719,132.669236 189.025053,131.726236 188.797053,130.780236 C188.569719,129.83357 188.353719,128.88457 188.149053,127.933236 C187.945053,126.981236 187.752719,126.027236 187.572053,125.071236 C187.391386,124.11457 187.222719,123.155903 187.066053,122.195236 C186.908719,121.23457 186.763719,120.272236 186.631053,119.308236 C186.497719,118.344236 186.376386,117.37857 186.267053,116.411236 C186.158386,115.443903 186.061386,114.47557 185.976053,113.506236 C183.114053,83.1642364 190.517053,47.5752364 210.386053,23.8547364 C211.083386,23.0087364 211.801719,22.1806364 212.541053,21.3704364 C213.279719,20.560303 214.038386,19.7690697 214.817053,18.9967364 C215.595719,18.2244697 216.393053,17.472103 217.209053,16.7396364 C218.025053,16.007103 218.858719,15.295403 219.710053,14.6045364 C220.562053,13.913603 221.430386,13.2443697 222.315053,12.5968364 C223.199719,11.949303 224.100386,11.3242364 225.017053,10.7216364 C225.933053,10.1189697 226.863719,9.53956971 227.809053,8.98343637 C228.753719,8.42730304 229.712053,7.89506971 230.684053,7.38673637 C231.655386,6.87840304 232.639053,6.39460304 233.635053,5.93533637 C234.630386,5.47613637 235.637053,5.04203637 236.655053,4.63303637 C237.672386,4.22403637 238.699386,3.84066971 239.736053,3.48293637 C240.772053,3.12520304 241.816719,2.79353637 242.870053,2.48793637 C243.923386,2.18233637 244.983386,1.90320304 246.050053,1.65053637 C247.117386,1.39786971 248.190386,1.17196971 249.269053,0.972836373 C250.347053,0.77370304 251.429386,0.601569706 252.516053,0.456436373 C253.603386,0.311369706 254.693386,0.193469706 255.786053,0.102736373 Z M177.576053,553.921236 C178.785053,553.774236 179.916053,553.735236 180.968053,553.062236 L180.969053,553.041236 C170.747053,550.796236 164.944053,550.267236 157.922053,541.387236 C156.490053,544.610236 153.818053,549.073236 155.635053,552.648236 C156.386053,554.127236 157.898053,554.854236 159.444053,555.177236 C164.778053,556.295236 172.256053,554.818236 177.576053,553.921236 Z"/><path fill="#F2F2F4" d="M502.137053,122.120236 C501.819053,125.430236 501.007053,130.031236 503.340053,132.788236 C503.978053,133.542236 504.691053,133.837236 505.572053,134.202236 C507.058053,134.024236 507.884053,133.697236 508.868053,132.523236 C514.050053,126.338236 515.988053,111.094236 518.791053,103.155236 C532.678053,63.8242364 563.555053,23.0733364 607.740053,17.5354364 C628.500053,14.9335364 648.019053,21.3981364 664.377053,34.2107364 C683.717053,49.3592364 695.078053,71.3062364 697.970053,95.5812364 C701.383053,124.235236 693.417053,154.221236 675.335053,176.833236 C653.183053,204.537236 625.763053,215.895236 591.468053,220.382236 L588.865053,213.352236 C585.256053,203.280236 580.315053,192.865236 573.706053,184.448236 C580.384053,173.093236 584.548053,158.448236 586.682053,145.531236 C587.488053,140.652236 589.767053,127.693236 586.235053,123.714236 C585.450053,122.831236 584.436053,122.400236 583.266053,122.366236 C576.621053,122.172236 566.178053,131.626236 561.540053,135.736236 C565.256053,115.497236 569.708053,95.8662364 581.029053,78.2982364 C590.376053,63.7932364 604.868053,50.8572364 622.124053,47.1652364 C634.795053,44.4554364 647.406053,48.0112364 658.198053,54.8132364 C661.978053,57.1952364 665.415053,60.0922364 669.181053,62.4902364 C671.006053,63.6522364 671.921053,63.9632364 674.025053,63.4462364 C674.169053,63.4112364 674.311053,63.3712364 674.454053,63.3342364 C675.065053,60.7622364 674.260053,59.2722364 672.870053,57.0952364 C666.122053,46.5317364 650.210053,38.9243364 638.302053,36.4863364 C623.216053,33.3979364 607.680053,37.7904364 595.128053,46.2072364 C569.966053,63.0812364 557.699053,92.6242364 552.190053,121.344236 C550.627053,129.492236 544.905053,157.900236 548.754053,164.079236 C549.184053,164.347236 549.662053,164.752236 550.162053,164.839236 L550.658053,164.097236 L550.682053,164.533236 C555.489053,160.549236 559.011053,155.576236 563.185053,150.996236 C567.135053,146.661236 571.639053,142.957236 576.250053,139.354236 C574.397053,149.189236 571.858053,158.713236 568.228053,168.048236 C565.857053,174.149236 562.996053,180.105236 560.823053,186.272236 C565.381053,192.893236 569.653053,199.367236 573.012053,206.708236 C584.504053,231.822236 588.366053,259.904236 587.240053,287.349236 C586.989053,293.471236 586.711053,299.871236 585.569053,305.891236 C585.405053,306.756236 585.200053,307.581236 584.971053,308.432236 C564.151053,306.092236 519.998053,307.434236 503.662053,320.986236 C502.223053,322.180236 501.045053,323.316236 500.671053,325.219236 C501.253053,326.333236 501.671053,326.873236 502.944053,327.230236 C505.772053,328.022236 528.862053,321.996236 534.322053,321.039236 C549.550053,318.371236 567.126053,317.628236 582.403053,320.076236 C576.830053,335.326236 570.295053,351.416236 559.046053,363.483236 C542.835053,356.525236 527.531053,351.056236 509.690053,349.955236 C505.466053,349.695236 500.227053,349.447236 496.223053,350.983236 C494.781053,351.535236 494.083053,352.148236 493.314053,353.511236 C493.236053,354.993236 493.225053,355.191236 493.947053,356.475236 C496.685053,358.282236 519.885053,361.699236 525.755053,363.215236 C534.121053,365.375236 542.629053,368.215236 550.481053,371.856236 C526.162053,397.139236 484.150053,412.953236 451.137053,422.493236 C448.002053,423.399236 440.372053,424.922236 440.186053,428.782236 C441.358053,430.614236 443.150053,431.538236 445.268053,431.918236 C446.271053,432.098236 447.290053,431.983236 448.293053,431.864236 C444.104053,436.608236 430.714053,445.072236 424.983053,449.441236 C420.665053,452.734236 416.700053,456.877236 412.089053,459.701236 C404.172053,455.820236 398.354053,449.229236 393.888053,441.726236 C398.463053,440.259236 405.538053,437.882236 407.720053,433.201236 C408.241053,432.083236 408.143053,430.973236 407.561053,429.917236 C407.141053,429.155236 406.866053,429.200236 406.122053,428.878236 C395.204053,430.484236 384.900053,432.419236 373.824053,430.584236 C367.141053,429.477236 361.799053,427.722236 356.119053,424.003236 C353.674053,422.402236 351.232053,420.530236 348.528053,419.406236 C342.589053,416.938236 336.200053,415.384236 330.118053,413.281236 C314.582053,407.908236 299.993053,400.600236 286.763053,390.792236 C284.809053,389.32357 282.901719,387.796903 281.041053,386.212236 C279.180386,384.626903 277.369386,382.986903 275.608053,381.292236 C273.846719,379.59757 272.138386,377.850903 270.483053,376.052236 C268.827719,374.25357 267.228386,372.40657 265.685053,370.511236 C264.142386,368.615236 262.658386,366.674236 261.233053,364.688236 C259.807719,362.702903 258.444386,360.675903 257.143053,358.607236 C255.841053,356.53857 254.603053,354.432236 253.429053,352.288236 C252.255053,350.144236 251.147053,347.96657 250.105053,345.755236 C254.303053,346.067236 263.841053,347.797236 267.083053,344.630236 C267.848053,343.883236 267.611053,343.824236 267.573053,342.851236 C264.198053,337.948236 257.941053,336.591236 252.426053,335.574236 C250.314719,335.192236 248.196719,334.850903 246.072053,334.550236 C243.478053,325.309236 242.608053,316.071236 243.843053,306.540236 C247.576053,308.171236 255.693053,312.814236 259.531053,311.632236 C260.445053,311.351236 260.564053,310.909236 261.109053,310.187236 C261.220053,308.422236 260.739053,307.357236 259.569053,306.085236 C255.584053,301.752236 249.508053,299.712236 244.953053,296.055236 C247.200386,281.107903 249.833719,266.22857 252.853053,251.417236 C262.358053,203.722236 277.608053,159.093236 318.214053,128.861236 C330.032053,120.063236 342.925053,113.236236 357.149053,109.284236 C360.609053,112.943236 367.563053,120.521236 373.108053,120.611236 C374.139053,120.628236 374.628053,120.451236 375.510053,119.979236 C376.305053,119.060236 376.755053,118.395236 376.672053,117.120236 C376.568053,115.535236 370.103053,108.751236 368.548053,105.297236 L369.243053,105.081236 C377.700053,102.521236 387.077053,103.454236 395.641053,105.066236 C398.678053,105.638236 401.936053,106.608236 405.021053,106.562236 C406.502053,106.540236 407.466053,106.248236 408.548053,105.251236 C409.122053,103.183236 407.987053,101.116236 406.963053,99.3642364 C403.571053,93.5572364 397.899053,89.4812364 393.200053,84.8162364 C406.035053,85.8282364 419.422053,88.7712364 430.772053,95.0872364 C434.187053,96.9882364 437.033053,100.100236 440.803053,101.324236 C446.176053,103.069236 452.153053,103.025236 457.704053,103.969236 C473.365053,106.630236 488.961053,113.336236 502.137053,122.120236 Z"/><path fill="#FAC3B7" d="M561.540053,135.736236 C565.256053,115.497236 569.708053,95.8662364 581.029053,78.2982364 C590.376053,63.7932364 604.868053,50.8572364 622.124053,47.1652364 C634.795053,44.4554364 647.406053,48.0112364 658.198053,54.8132364 C661.978053,57.1952364 665.415053,60.0922364 669.181053,62.4902364 C671.006053,63.6522364 671.921053,63.9632364 674.025053,63.4462364 C674.169053,63.4112364 674.311053,63.3712364 674.454053,63.3342364 C677.669053,69.4072364 681.007053,75.5852364 683.391053,82.0472364 C690.132053,100.320236 690.602053,122.588236 684.856053,141.204236 C677.607053,164.686236 657.036053,187.853236 635.529053,199.220236 C625.875053,204.324236 614.063053,208.580236 603.401053,210.750236 C598.663053,211.714236 593.408053,211.753236 588.865053,213.352236 C585.256053,203.280236 580.315053,192.865236 573.706053,184.448236 C580.384053,173.093236 584.548053,158.448236 586.682053,145.531236 C587.488053,140.652236 589.767053,127.693236 586.235053,123.714236 C585.450053,122.831236 584.436053,122.400236 583.266053,122.366236 C576.621053,122.172236 566.178053,131.626236 561.540053,135.736236 Z"/><path fill="#313945" d="M336.481053,320.608236 C343.857053,319.279236 354.227053,320.232236 361.440053,322.296236 C366.369053,323.707236 371.167053,326.184236 373.594053,330.928236 C375.583053,334.816236 375.333053,339.217236 373.819053,343.218236 C369.804053,353.828236 360.969053,358.613236 351.242053,363.065236 C351.184719,364.219903 351.179386,365.37457 351.226053,366.529236 C351.568053,374.588236 354.820053,381.522236 360.746053,386.954236 C370.127053,388.719236 379.991053,387.664236 389.195053,385.361236 C402.483053,382.036236 414.758053,375.400236 421.888053,363.396236 C419.596053,362.314236 418.020053,361.613236 416.918053,359.217236 C416.924053,357.937236 416.815053,357.315236 417.786053,356.323236 C420.141053,353.918236 424.788053,353.646236 427.903053,353.960236 C433.153053,354.488236 438.145053,356.487236 441.398053,360.806236 C442.545053,362.329236 444.020053,365.171236 443.445053,367.161236 C443.034053,368.582236 442.612053,368.716236 441.414053,369.413236 C437.886053,369.658236 436.054053,367.588236 433.502053,365.488236 C427.724053,378.464236 417.070053,385.671236 404.352053,391.298236 C389.238053,397.355236 373.430053,399.396236 357.236053,397.901236 C338.880053,396.206236 318.921053,389.831236 306.836053,375.077236 C303.298053,370.757236 298.603053,363.358236 299.351053,357.601236 C299.538053,356.169236 300.183053,354.925236 301.504053,354.219236 C304.585053,352.572236 311.400053,365.136236 313.515053,367.604236 C321.437053,376.850236 333.583053,382.825236 345.324053,385.368236 C341.854053,378.381236 340.288053,371.677236 339.088053,364.018236 C334.743053,362.046236 330.511053,360.112236 326.735053,357.153236 C321.124053,352.755236 315.204053,344.958236 314.475053,337.716236 C314.427053,337.280903 314.401053,336.84457 314.397053,336.407236 C314.393053,335.969236 314.410719,335.532236 314.450053,335.096236 C314.490053,334.660903 314.551386,334.228236 314.634053,333.798236 C314.717386,333.368236 314.821719,332.94357 314.947053,332.524236 C315.072386,332.104903 315.218386,331.692903 315.385053,331.288236 C315.552386,330.88357 315.739053,330.488236 315.945053,330.102236 C316.151719,329.716236 316.377053,329.34157 316.621053,328.978236 C316.864386,328.614903 317.125719,328.26457 317.405053,327.927236 C322.045053,322.282236 329.662053,321.167236 336.481053,320.608236 Z"/><path fill="#FDC9B2" d="M336.024053,329.081236 C342.075053,328.295236 349.386053,328.673236 355.350053,329.978236 C358.473053,330.661236 363.209053,332.012236 364.801053,335.101236 C365.577053,336.606236 365.643053,338.102236 365.143053,339.697236 C363.382053,345.321236 356.308053,349.655236 351.482053,352.422236 C348.966053,353.552236 346.600053,354.319236 343.923053,354.967236 C340.965053,354.328236 338.579053,353.320236 336.043053,351.696236 C331.361053,348.698236 324.681053,342.805236 323.626053,337.133236 C323.332053,335.548236 323.666053,334.168236 324.628053,332.886236 C326.937053,329.807236 332.533053,329.573236 336.024053,329.081236 Z"/><path fill="#313945" d="M447.956053,250.501236 C453.587053,250.360236 458.982053,251.619236 463.541053,255.074236 C470.444053,260.306236 474.054053,269.172236 475.269053,277.523236 C476.790053,287.981236 475.071053,299.674236 468.450053,308.194236 C463.970053,313.959236 458.050053,317.230236 450.866053,318.253236 C445.202053,318.417236 439.806053,317.431236 435.160053,313.976236 C428.419053,308.963236 425.121053,300.473236 423.869053,292.422236 C422.178053,281.538236 424.186053,269.457236 430.796053,260.456236 C435.238053,254.408236 440.706053,251.657236 447.956053,250.501236 Z"/><path fill="#FFF" d="M452.678053,270.841236 C453.014053,270.854236 453.350053,270.860236 453.685053,270.880236 C455.667053,270.995236 457.373053,271.931236 458.582053,273.513236 C460.035053,275.415236 460.385053,277.887236 460.046053,280.207236 C459.563053,283.506236 458.138053,285.813236 455.537053,287.827236 C454.901053,287.870236 454.264053,287.912236 453.627053,287.898236 C452.079053,287.863236 450.879053,287.106236 449.891053,285.966236 C448.328053,284.160236 447.966053,281.714236 448.171053,279.405236 C448.508053,275.608236 449.837053,273.299236 452.678053,270.841236 Z"/><path fill="#313945" d="M303.636053,246.925236 C307.600053,246.711236 310.917053,247.146236 314.387053,249.226236 C320.404053,252.831236 323.968053,259.520236 325.585053,266.165236 C328.246053,277.096236 327.863053,291.250236 321.694053,301.007236 C318.291053,306.390236 313.990053,309.050236 307.934053,310.434236 C304.111053,310.639236 300.486053,309.999236 297.098053,308.151236 C291.148053,304.908236 287.680053,298.806236 285.903053,292.465236 C282.892053,281.716236 283.897053,267.972236 289.500053,258.196236 C292.810053,252.421236 297.177053,248.694236 303.636053,246.925236 Z"/><path fill="#FFF" d="M306.170053,265.865236 C308.053053,265.707236 309.713053,265.833236 311.177053,267.155236 C312.825053,268.643236 313.560053,270.804236 313.545053,272.988236 C313.523053,276.458236 312.480053,278.495236 310.000053,280.812236 C308.152053,281.025236 306.548053,281.020236 305.001053,279.838236 C303.536053,278.719236 302.835053,276.783236 302.705053,275.007236 C302.431053,271.253236 303.706053,268.572236 306.170053,265.865236 Z"/><path fill="#313945" d="M452.349053,180.959236 C456.454053,180.775236 460.613053,180.592236 464.682053,181.293236 C475.439053,183.147236 483.507053,190.268236 489.444053,199.114236 C490.965053,201.380236 492.570053,206.372236 491.570053,209.074236 C491.113053,210.307236 490.588053,210.387236 489.469053,210.705236 C485.489053,210.011236 483.021053,205.720236 480.548053,202.760236 C472.055053,194.609236 459.846053,188.459236 447.909053,192.812236 C445.506053,193.687236 442.231053,195.973236 439.584053,195.478236 C438.225053,195.225236 438.025053,194.601236 437.391053,193.523236 C437.206053,191.593236 437.662053,190.068236 438.753053,188.473236 C441.831053,183.974236 447.253053,182.038236 452.349053,180.959236 Z M305.277053,180.454236 C306.955053,180.414236 308.688053,180.334236 310.356053,180.547236 C315.010053,181.141236 320.210053,184.192236 322.877053,188.068236 C323.643053,189.182236 324.270053,190.606236 323.814053,191.967236 C323.299053,193.505236 321.688053,194.926236 320.159053,195.426236 C317.972053,196.141236 315.365053,192.448236 313.395053,191.683236 C308.877053,189.929236 303.449053,190.881236 299.060053,192.566236 L298.424053,192.817236 C294.545053,194.908236 291.645053,198.044236 287.917053,200.164236 C286.789053,200.806236 286.258053,200.814236 285.057053,200.444236 C284.287053,199.589236 283.803053,198.893236 283.562053,197.740236 C283.172053,195.871236 283.890053,194.063236 284.928053,192.542236 C289.159053,186.340236 298.101053,181.940236 305.277053,180.454236 Z"/><path fill="#7A7BBE" d="M546.124053,392.246236 C546.295053,392.238236 546.467053,392.206236 546.637053,392.222236 C548.938053,392.435236 552.429053,395.599236 554.118053,397.251236 C561.979053,404.938236 567.049053,414.699236 567.249053,425.770236 C559.196053,420.329236 551.050053,417.773236 541.295053,418.174236 C532.360053,418.541236 524.063053,421.390236 516.105053,425.345236 C496.676053,435.001236 480.408053,449.700236 461.984053,460.910236 C454.618053,465.392236 430.917053,476.921236 426.943053,481.263236 C427.058053,482.490236 427.092053,482.478236 427.960053,483.362236 C433.089053,484.823236 440.489053,481.083236 445.140053,479.024236 C459.724053,472.568236 473.134053,464.950236 486.558053,456.370236 C499.153053,448.321236 512.246053,438.278236 526.341053,433.127236 C535.658053,429.722236 546.725053,428.930236 555.862053,433.393236 C569.167053,439.893236 578.239053,458.953236 582.960053,472.135236 C595.813053,508.024236 603.591053,560.895236 586.540053,596.187236 C578.745053,612.321236 563.825053,627.995236 546.667053,634.006236 C547.021053,619.474236 543.154053,608.678236 534.185053,597.120236 C523.532053,583.392236 508.468053,576.016236 491.486053,573.894236 C496.464053,568.798236 501.398053,563.404236 507.070053,559.073236 C516.450053,551.911236 527.856053,550.657236 539.253053,552.631236 C543.120053,553.300236 547.251053,554.600236 551.138053,554.897236 C552.610053,555.010236 553.233053,554.885236 554.371053,553.972236 C554.432053,553.501236 554.511053,553.156236 554.396053,552.664236 C553.946053,550.746236 551.380053,548.280236 549.724053,547.344236 C547.620053,546.155236 544.925053,545.561236 542.611053,544.890236 C532.059053,541.832236 522.976053,542.530236 512.577053,545.815236 C513.577053,535.103236 512.064053,501.713236 505.902053,493.037236 C505.022053,491.797236 504.245053,491.234236 502.767053,490.949236 C502.255053,491.170236 501.683053,491.369236 501.308053,491.806236 C499.833053,493.523236 499.362053,496.176236 499.178053,498.347236 C498.682053,504.197236 499.420053,510.569236 499.840053,516.415236 C500.612053,527.177236 501.551053,538.477236 500.857053,549.261236 L500.798053,550.108236 C497.664053,553.387236 493.874053,556.187236 490.473053,559.200236 C485.562053,563.551236 481.935053,568.370236 478.328053,573.805236 C477.054719,574.249236 475.788719,574.714236 474.530053,575.200236 C465.435053,578.748236 460.153053,584.913236 456.273053,593.671236 C450.185053,595.296236 443.761053,595.745236 437.628053,597.397236 C418.867053,602.452236 404.172053,615.404236 390.640053,628.688236 C386.648053,625.847236 383.256053,622.582236 380.859053,618.268236 C377.191053,611.664236 377.220053,605.389236 379.103053,598.309236 C381.640053,600.528236 384.170053,602.664236 386.902053,604.640236 C387.656053,604.973236 388.616053,605.415236 389.463053,605.400236 C390.711053,605.377236 391.044053,604.860236 391.701053,603.976236 C391.947053,602.009236 391.369053,600.495236 390.308053,598.856236 C387.114053,593.918236 382.365053,589.543236 378.758053,584.831236 C371.525053,575.379236 365.898053,564.207236 361.201053,553.285236 C357.177053,543.927236 353.971053,534.475236 351.286053,524.651236 C349.363386,517.49457 347.577053,510.304236 345.927053,503.080236 C344.074053,494.895236 343.094053,480.621236 338.399053,473.989236 C337.495053,472.712236 336.596053,472.104236 335.023053,471.870236 C334.347053,472.123236 333.968053,472.119236 333.542053,472.761236 C328.433053,480.458236 339.067053,524.067236 341.487053,534.396236 C339.021053,536.905236 336.170053,539.199236 333.396053,541.371236 C314.697053,556.013236 290.045053,568.141236 265.751053,565.237236 C266.424386,564.419903 267.073053,563.58357 267.697053,562.728236 C268.321053,561.872236 268.919053,560.99857 269.491053,560.107236 C270.063053,559.215903 270.608053,558.30857 271.126053,557.385236 C271.644719,556.461236 272.135053,555.522903 272.597053,554.570236 C273.059053,553.61757 273.492719,552.651903 273.898053,551.673236 C274.302719,550.69457 274.678053,549.704903 275.024053,548.704236 C275.370053,547.702903 275.686386,546.69257 275.973053,545.673236 C276.259053,544.653236 276.514386,543.625903 276.739053,542.591236 C279.307053,530.733236 278.220053,515.352236 271.323053,505.040236 C269.896053,502.907236 267.275053,499.886236 264.680053,499.345236 C263.053053,501.265236 265.488053,506.849236 266.110053,509.332236 C269.196053,521.654236 270.806053,533.354236 266.529053,545.664236 C263.973053,553.020236 258.804053,561.227236 251.521053,564.551236 C245.613053,567.247236 238.128053,566.812236 232.089053,564.671236 C234.353053,563.445236 236.516053,562.206236 238.360053,560.376236 C246.614053,552.181236 250.140053,538.849236 250.146053,527.510236 C250.152053,517.167236 246.849053,504.971236 240.703053,496.557236 C237.344053,491.959236 233.077053,488.041236 229.043053,484.045236 C238.089053,483.557236 247.324053,484.571236 256.308053,483.248236 C275.642053,480.399236 301.088053,460.205236 315.590053,447.600236 C321.925053,442.094236 328.151053,433.850236 335.451053,429.861236 C337.460053,429.832236 337.886053,432.546236 338.511053,434.223236 C344.037053,449.066236 355.518053,463.248236 368.317053,472.531236 C372.613053,475.647236 387.929053,485.029236 392.975053,483.544236 C394.194053,483.185236 394.395053,482.737236 394.934053,481.710236 C394.574053,476.774236 386.094053,473.528236 382.462053,471.061236 C368.581053,461.633236 358.457053,449.846236 351.454053,434.626236 C360.942053,439.482236 369.888053,441.324236 380.300053,443.044236 C380.793386,444.186903 381.340719,445.30357 381.942053,446.394236 C385.659053,453.092236 402.703053,471.782236 410.433053,473.537236 C412.600053,474.028236 414.566053,473.231236 416.413053,472.145236 C421.416053,469.207236 426.011053,464.592236 430.450053,460.858236 C438.671053,453.944236 447.101053,447.324236 455.488053,440.612236 C459.656053,437.276236 463.814053,433.365236 468.308053,430.502236 C472.956053,427.541236 478.688053,426.361236 483.858053,424.627236 C488.170719,423.175236 492.414386,421.543236 496.589053,419.731236 C514.987053,411.942236 529.551053,403.174236 546.124053,392.246236 Z"/><path fill="#BA573E" d="M384.065053,684.523236 C384.800053,684.429236 385.625053,684.265236 386.351053,684.497236 C387.897053,684.991236 389.825053,686.733236 391.177053,687.692236 C398.095053,692.602236 404.872053,697.867236 413.414053,699.436236 C418.235053,700.322236 422.857053,699.853236 427.669053,699.171236 C429.417053,700.207236 431.223053,701.300236 433.115053,702.049236 C446.148053,707.206236 457.423053,697.516236 468.492053,692.429236 L469.074053,692.167236 C476.644053,694.458236 484.322053,695.318236 492.130053,696.338236 C505.979053,698.149236 520.471053,699.364236 534.051053,702.620236 C522.184053,709.123236 473.618053,727.745236 468.087053,734.238236 C467.278053,735.187236 467.059053,735.783236 467.101053,737.003236 L467.999053,737.656236 C475.906053,738.233236 527.348053,714.882236 539.393053,709.829236 C539.518053,717.648236 539.328053,761.930236 537.322053,766.213236 C536.281053,768.437236 533.389053,769.483236 531.303053,770.513236 C516.191053,778.18257 501.122053,785.93557 486.096053,793.772236 C478.009053,798.013236 470.015053,802.790236 461.705053,806.563236 C444.210386,804.559903 426.741719,802.350903 409.299053,799.936236 C399.787053,798.621236 390.345053,796.956236 380.808053,795.801236 C365.769386,794.079236 350.750053,792.204236 335.750053,790.176236 C329.112053,789.282236 322.287053,788.759236 315.740053,787.350236 C312.887053,786.736236 309.230053,785.932236 307.214053,783.666236 C306.017053,782.320236 305.935053,780.334236 305.769053,778.629236 C305.110053,771.837236 305.661053,764.633236 305.665053,757.790236 L305.676053,715.431236 C311.894053,711.268236 320.397053,708.805236 327.333053,705.844236 C347.969053,697.033236 361.168053,688.969236 384.065053,684.523236 Z"/><path fill="#313945" d="M320.059053,716.945236 C320.775719,716.907903 321.493053,716.88957 322.211053,716.890202 C328.949053,716.893236 335.865053,718.106236 342.551053,718.962236 L376.353053,723.421236 L421.776053,729.727236 C431.757053,731.099236 441.938053,732.089236 451.796053,734.194236 C453.470053,734.551236 454.463053,734.989236 455.665053,736.202236 C456.179053,737.907236 455.876053,738.242236 455.310053,739.880236 C446.388053,740.224236 434.651053,737.429236 425.516053,736.311236 C405.514053,733.795903 385.536719,731.09857 365.584053,728.219236 C352.404053,726.372236 338.898053,724.911236 325.897053,722.082236 C324.231053,721.720236 321.953053,721.143236 320.701053,719.911236 C319.677053,718.904236 319.937705,718.235236 320.059053,716.945236 Z M461.643053,746.078236 C462.797053,746.440236 463.419053,746.835236 464.334053,747.623236 C465.096053,749.397236 465.132053,751.431236 465.189053,753.342236 C465.436053,761.548236 466.261053,789.426236 464.661053,795.903236 C464.361053,797.121236 463.564053,798.009236 462.722053,798.898236 C461.570053,798.448236 460.919053,798.029236 460.023053,797.177236 C458.170053,792.073236 458.971053,761.239236 459.234053,754.007236 C459.345053,750.955236 459.294053,748.284236 461.643053,746.078236 Z"/><path fill="#BA573E" d="M593.559053,790.357236 C595.314053,798.658236 594.233053,810.800236 594.223053,819.413236 C594.211053,829.323236 594.880053,839.897236 593.783053,849.736236 C588.566053,855.248236 580.683053,859.385236 574.360053,863.535236 C565.798053,869.253903 557.190719,874.90357 548.538053,880.484236 C542.644053,884.281236 529.740053,893.946236 523.412053,895.282236 C517.046053,896.627236 508.844053,894.927236 502.354053,894.281236 C476.086053,891.665236 450.067053,887.437236 423.959053,883.586236 C408.056053,881.240236 391.608053,879.648236 375.925053,876.253236 C375.064053,875.677236 374.287053,875.079236 373.676053,874.224236 C372.975053,873.243236 372.771053,872.172236 372.724053,870.996236 C372.325053,860.937236 372.942053,850.673236 372.914053,840.590236 C372.887053,830.544236 371.807053,819.279236 373.213053,809.378236 C376.738053,804.557236 388.551053,807.632236 393.879053,808.293236 C414.108386,810.795236 434.322053,813.41657 454.520053,816.157236 C467.945053,817.940236 515.816053,825.415236 525.903053,823.302236 C539.286053,820.498236 558.803053,808.929236 571.056053,802.363236 C578.553053,798.346236 586.201053,794.635236 593.559053,790.357236 Z"/><path fill="#313945" d="M523.757053,831.025236 C525.201053,831.293236 525.920053,831.334236 526.965053,832.455236 C528.468053,837.346236 528.013053,879.174236 527.168053,885.448236 C526.999053,886.698236 526.678053,887.784236 526.117053,888.909236 C524.667053,888.605236 524.087053,888.588236 522.943053,887.605236 C521.176053,882.744236 521.839053,842.621236 522.460053,835.804236 C522.618053,834.071236 523.044053,832.606236 523.757053,831.025236 Z"/><path fill="#753D31" d="M564.669053,844.681236 C565.673053,844.771236 566.591053,844.907236 567.569053,845.149236 L568.035053,846.043236 C567.705053,847.813236 566.109053,849.365236 565.006053,850.745236 C563.768053,850.623236 563.578053,850.557236 562.574053,849.825236 C562.425053,849.377236 562.294053,849.094236 562.318053,848.586236 C562.401053,846.839236 563.491053,845.814236 564.669053,844.681236 Z M491.483053,839.683236 C491.963053,839.818236 492.786053,840.034236 493.221053,840.230236 C494.441053,840.781236 494.608053,841.172236 495.127053,842.313236 C494.849053,843.652236 494.390053,844.198236 493.546053,845.224236 C493.047053,845.161236 492.546053,845.107236 492.049053,845.025236 C490.660053,844.794236 490.246053,844.515236 489.470053,843.423236 C489.645053,841.833236 490.537053,840.895236 491.483053,839.683236 Z M427.986053,854.228236 C429.059053,855.069236 430.015053,856.256236 430.114053,857.666236 C430.221053,859.188236 429.228053,860.385236 428.393053,861.545236 C427.351053,860.444236 426.562053,859.622236 426.039053,858.157236 C426.126053,856.404236 426.950053,855.541236 427.986053,854.228236 Z"/><path fill="#FAC3B7" d="M257.253053,191.811236 C256.426053,193.438236 256.122053,194.425236 254.474053,195.268236 C252.831053,195.170236 251.519053,194.578236 250.098053,193.761236 C226.655053,180.299236 209.287053,155.598236 202.710053,129.640236 C195.766053,102.229236 199.230053,67.8052364 213.941053,43.3550364 C222.343053,29.3918364 234.517053,18.6736364 250.573053,14.8322364 C267.268053,10.8380364 284.524053,15.0810364 298.952053,23.9469364 C316.896053,34.9736364 329.918053,53.4152364 336.491053,73.2132364 C339.382053,81.9212364 341.176053,91.0662364 343.264053,99.9952364 C329.476053,106.756236 318.232053,113.589236 306.333053,123.295236 C305.555719,116.321236 304.571053,109.376903 303.379053,102.462236 C299.582053,80.8692364 292.101053,54.1982364 273.113053,41.0928364 C264.149053,34.9057364 253.401053,32.7730364 242.720053,34.7979364 C237.265053,35.8321364 231.351053,38.0319364 228.138053,42.7938364 C228.905053,44.0911364 229.096053,44.8451364 230.483053,45.4960364 C235.018053,45.3535364 239.344053,43.9937364 243.828053,43.6835364 C253.409053,43.0206364 262.780053,47.5572364 269.588053,54.0372364 C284.522053,68.2542364 289.856053,91.7742364 292.931053,111.470236 C293.974053,118.151236 294.529053,124.964236 295.844053,131.594236 C279.344053,148.661236 264.471053,168.910236 257.253053,191.811236 Z"/><path fill="#F2F2F4" d="M257.253053,191.811236 C256.426053,193.438236 256.122053,194.425236 254.474053,195.268236 C252.831053,195.170236 251.519053,194.578236 250.098053,193.761236 C226.655053,180.299236 209.287053,155.598236 202.710053,129.640236 C195.766053,102.229236 199.230053,67.8052364 213.941053,43.3550364 C222.343053,29.3918364 234.517053,18.6736364 250.573053,14.8322364 C267.268053,10.8380364 284.524053,15.0810364 298.952053,23.9469364 C316.896053,34.9736364 329.918053,53.4152364 336.491053,73.2132364 C339.382053,81.9212364 341.176053,91.0662364 343.264053,99.9952364 C329.476053,106.756236 318.232053,113.589236 306.333053,123.295236 C305.555719,116.321236 304.571053,109.376903 303.379053,102.462236 C299.582053,80.8692364 292.101053,54.1982364 273.113053,41.0928364 C264.149053,34.9057364 253.401053,32.7730364 242.720053,34.7979364 C237.265053,35.8321364 231.351053,38.0319364 228.138053,42.7938364 C211.277053,60.7262364 206.370053,78.7502364 207.197053,103.260236 C207.807053,121.321236 213.828053,142.214236 223.825053,157.389236 C229.732053,166.356236 236.992053,173.970236 244.828053,181.237236 C248.826053,184.945236 253.006053,188.396236 257.253053,191.811236 Z"/><path fill="#BA573E" d="M102.415053,694.072236 C109.032053,693.468236 112.074053,696.118236 117.580053,699.222236 C126.466053,704.231236 134.866053,702.708236 144.257053,704.912236 C151.260053,706.555236 157.232053,710.190236 164.588053,710.936236 C171.377053,711.624236 178.433053,710.204236 185.085053,711.248236 C193.872053,712.627236 201.403053,717.363236 210.634053,717.329236 C217.023053,717.305236 223.731053,714.192236 229.840053,712.463236 C235.091053,714.255236 240.425053,716.213236 245.993053,716.690236 C254.480053,717.417236 261.713053,715.115236 269.972053,714.256236 C275.856053,713.644236 283.377053,714.654236 289.137053,716.076236 C291.230053,716.593236 293.532053,717.493236 294.511053,719.576236 C295.245053,721.136236 295.223053,722.778236 294.624053,724.358236 C290.224053,728.998236 281.408053,732.433236 275.547053,734.920236 C275.551053,749.743236 277.038053,771.408236 274.751053,785.386236 C274.299053,785.876236 273.865053,786.318236 273.237053,786.590236 C270.465053,787.788236 242.995053,782.639236 238.407053,781.924236 C202.139053,776.260903 165.825053,770.909903 129.465053,765.871236 L101.689053,761.965236 C93.7370525,760.900236 85.5660525,760.310236 77.9450525,757.661236 C77.0090525,756.484236 76.4120525,755.461236 75.9710525,754.011236 C74.5270525,749.263236 74.1090525,705.271236 75.9780525,701.674236 C80.4690525,697.837236 96.1770525,694.858236 102.415053,694.072236 Z"/><path fill="#313945" d="M119.559053,711.354236 C126.421053,710.857236 134.682053,712.874236 141.479053,713.918236 C151.503719,715.482903 161.541053,716.963236 171.591053,718.359236 L244.280053,728.145236 C250.949053,729.026236 257.687053,729.566236 264.338053,730.522236 C266.005053,730.762236 268.443053,731.220236 269.727053,732.397236 C270.859053,733.433236 270.522053,734.253236 270.413053,735.628236 C269.835053,735.749236 269.818053,735.766236 269.282053,735.833236 C262.083053,736.736236 242.405053,732.781236 234.024053,731.648236 C209.884053,728.45757 185.783719,724.98957 161.723053,721.244236 C149.395053,719.399236 136.715053,717.920236 124.501053,715.566236 C122.986053,715.274236 121.326053,714.865236 120.139053,713.829236 C119.411053,713.194236 119.628053,712.258236 119.559053,711.354236 Z M90.2030525,706.562236 C95.4650525,706.099236 101.324053,706.261236 106.384053,707.958236 C108.293053,708.598236 109.655053,709.295236 110.544053,711.171236 C110.481053,712.755236 110.116053,713.168236 109.308053,714.493236 C107.841053,714.531236 106.403053,714.470236 104.951053,714.246236 C101.018053,713.639236 91.9280525,712.472236 89.3930525,709.082236 C89.3270525,707.673236 89.3510525,707.693236 90.2030525,706.562236 Z"/><path fill="#FAC3B7" d="M637.706053,638.324236 C650.625053,645.981236 662.711053,651.366236 677.790053,653.196236 C696.498053,655.468236 717.540053,651.645236 732.526053,639.669236 C733.108053,639.21257 733.680719,638.744236 734.244053,638.264236 C734.806719,637.784236 735.359386,637.292903 735.902053,636.790236 C736.445386,636.288236 736.978053,635.774903 737.500053,635.250236 C738.022053,634.726236 738.533386,634.191903 739.034053,633.647236 C739.534053,633.101903 740.023053,632.546903 740.501053,631.982236 C740.979053,631.41757 741.445053,630.843236 741.899053,630.259236 C742.353719,629.675236 742.796386,629.08257 743.227053,628.481236 C743.657053,627.879236 744.074719,627.268903 744.480053,626.650236 C744.886053,626.03157 745.279053,625.40457 745.659053,624.769236 C746.038386,624.13457 746.405053,623.49257 746.759053,622.843236 C747.113053,622.193236 747.453719,621.53657 747.781053,620.873236 C748.108386,620.209236 748.421719,619.539236 748.721053,618.863236 C749.021053,618.18657 749.307053,617.50457 749.579053,616.817236 C749.851719,616.129236 750.110053,615.435903 750.354053,614.737236 C750.597386,614.03857 750.826719,613.33557 751.042053,612.628236 C751.257386,611.920236 751.458386,611.208236 751.645053,610.492236 C761.476053,571.650236 729.099053,536.920236 714.747053,502.736236 C706.899053,484.046236 702.450053,464.361236 704.768053,444.016236 C707.102053,423.531236 717.316053,403.264236 733.588053,390.383236 C734.516719,389.65857 735.462719,388.957236 736.426053,388.279236 C737.389386,387.601236 738.368719,386.947236 739.364053,386.317236 C740.359386,385.687236 741.369719,385.081903 742.395053,384.501236 C743.419719,383.92057 744.458053,383.365236 745.510053,382.835236 C746.562719,382.305903 747.627386,381.802236 748.704053,381.324236 C749.780719,380.846903 750.868386,380.395903 751.967053,379.971236 C753.066386,379.547236 754.175053,379.149903 755.293053,378.779236 C756.411719,378.409236 757.538719,378.066903 758.674053,377.752236 C759.808719,377.43757 760.950719,377.15057 762.100053,376.891236 C763.249386,376.63257 764.404386,376.401903 765.565053,376.199236 C766.725053,375.99657 767.889719,375.82257 769.059053,375.677236 C770.227719,375.531903 771.399386,375.415236 772.574053,375.327236 C773.748719,375.239236 774.925053,375.180236 776.103053,375.150236 C777.280386,375.11957 778.458053,375.117903 779.636053,375.145236 C780.813386,375.17257 781.989719,375.22857 783.165053,375.313236 C784.339719,375.39857 785.511719,375.512236 786.681053,375.654236 C804.692053,377.851236 821.263053,386.617236 832.381053,401.101236 C843.447053,415.517236 846.423053,432.098236 844.107053,449.801236 C843.249053,452.545236 842.255053,455.150236 841.113053,457.789236 C840.707053,455.471236 840.236053,453.145236 839.990053,450.804236 C839.075053,445.784236 838.120053,440.817236 836.521053,435.959236 C831.532053,420.803236 821.638053,407.993236 807.241053,400.783236 C806.437719,400.379903 805.625053,399.99657 804.803053,399.633236 C803.980386,399.269903 803.149719,398.926903 802.311053,398.604236 C801.471719,398.28157 800.625053,397.979903 799.771053,397.699236 C798.917719,397.41857 798.057719,397.158903 797.191053,396.920236 C796.324386,396.68157 795.452386,396.464236 794.575053,396.268236 C793.697719,396.072903 792.816053,395.898903 791.930053,395.746236 C791.044053,395.594236 790.154719,395.463903 789.262053,395.355236 C788.370053,395.24657 787.475719,395.159903 786.579053,395.095236 C785.682386,395.03057 784.784719,394.987903 783.886053,394.967236 C782.987386,394.94657 782.088719,394.948236 781.190053,394.972236 C780.291386,394.99557 779.394053,395.041236 778.498053,395.109236 C777.601386,395.177236 776.707386,395.267236 775.816053,395.379236 C774.924053,395.49057 774.035386,395.624236 773.150053,395.780236 C772.264719,395.93557 771.383719,396.11257 770.507053,396.311236 C769.630386,396.509903 768.759053,396.730236 767.893053,396.972236 C767.027053,397.21357 766.167719,397.476236 765.315053,397.760236 C751.625053,402.329236 740.306053,412.645236 733.887053,425.510236 C730.317053,432.665236 728.476053,440.482236 727.726053,448.413236 C723.506053,493.016236 760.672053,526.401236 773.970053,566.100236 C781.327053,588.063236 781.117053,613.059236 770.472053,633.957236 C760.803053,652.937236 743.261053,666.854236 723.133053,673.350236 C695.402053,682.299236 662.162053,680.894236 636.076053,667.545236 C637.449053,657.781236 638.288053,648.193236 637.706053,638.324236 Z"/><path fill="#BA573E" d="M197.067053,785.848236 C231.038053,791.115236 264.986053,797.047236 299.038053,801.714236 C310.750053,803.328903 322.486719,804.740903 334.248053,805.950236 C340.883053,806.669236 347.775053,807.054236 354.327053,808.288236 C356.326053,808.665236 359.792053,809.425236 361.024053,811.280236 C363.322053,814.740236 363.327053,865.489236 361.945053,871.142236 C361.556053,872.732236 360.823053,872.815236 359.517053,873.515236 C332.125053,870.163236 304.724053,865.256236 277.450053,860.963236 L228.948053,853.151236 C220.118053,851.733236 211.159053,850.590236 202.383053,848.881236 C200.713053,848.556236 195.882053,847.783236 194.806053,846.609236 C192.435053,844.022236 193.026053,803.844236 193.140053,797.744236 C193.226053,793.075236 193.594053,789.230236 197.067053,785.848236 Z"/><path fill="#753D31" d="M325.862053,820.736236 C326.859053,822.369236 327.662053,824.913236 327.311053,826.782236 L325.841053,827.354236 C324.809053,826.917236 324.235053,826.642236 323.521053,825.767236 C323.580053,823.823236 324.853053,822.374236 325.862053,820.736236 Z"/><path fill="#47759A" d="M625.573053,628.457236 C627.495053,634.730236 626.207053,644.581236 625.521053,651.188236 C622.365053,681.561236 605.678053,705.860236 584.458053,726.756236 C577.265053,733.840236 569.536053,740.297236 562.532053,747.598236 C561.039053,749.153236 558.048053,751.756236 557.584053,753.930236 C557.318053,755.179236 557.595053,756.096236 558.163053,757.185236 C558.819053,757.580236 559.004053,757.814236 559.818053,757.811236 C567.434053,757.786236 590.061053,735.053236 595.982053,729.324236 C600.168053,734.057236 603.683053,739.545236 605.845053,745.498236 C611.697053,761.613236 610.493053,780.507236 603.392053,795.946236 C603.475053,794.981236 603.662053,794.027236 603.795053,793.067236 C604.435053,788.438236 604.051053,784.074236 601.007053,780.301236 C595.853053,773.915236 586.805053,773.823236 579.311053,773.056236 C569.200053,771.918236 557.746053,771.415236 548.000053,768.650236 C549.799053,757.545236 550.475053,746.048236 550.706053,734.802236 C550.894053,725.692236 552.357053,707.697236 548.267053,699.869236 C547.188053,697.805236 545.534053,695.724236 543.444053,694.614236 C532.431053,688.769236 481.919053,686.816236 478.920053,683.695236 C479.415053,682.249236 480.009053,681.667236 481.442053,681.074236 C486.111053,679.139236 494.203053,678.376236 499.800053,676.420236 C504.633053,674.732236 509.933053,672.253236 514.108053,669.290236 C515.811053,668.081236 517.217053,666.263236 519.062053,665.306236 C522.146053,663.704236 525.719053,662.730236 528.935053,661.369236 C536.087053,658.341236 541.101053,653.298236 546.501053,647.905236 C554.284053,647.465236 562.143053,648.284236 569.950053,647.874236 C589.807053,646.831236 608.626053,638.347236 625.573053,628.457236 Z"/><path fill="#B3B1AF" d="M137.660053,527.370236 C139.036053,527.540236 140.275053,527.769236 141.562053,528.308236 C143.526053,529.131236 145.124053,530.486236 145.781053,532.564236 C146.839053,535.909236 139.326053,561.000236 137.738053,565.577236 C136.365053,569.530236 134.655053,573.339236 132.936053,577.150236 C135.250053,576.965236 137.656053,576.614236 139.972053,576.638236 C146.787053,576.708236 166.337053,583.946236 170.875053,588.646236 C171.698053,589.499236 172.323053,590.024236 172.300353,591.265236 C167.610053,597.044236 155.823053,603.528236 149.270053,607.717236 C121.169386,625.755903 92.3170525,642.499236 62.7130525,657.947236 C52.0250525,663.417236 41.5670525,669.045236 30.3540525,673.409236 C26.3054525,674.939236 18.4811525,678.918236 14.4659525,676.901236 C13.3267525,676.328236 12.3764525,675.179236 12.0441525,673.935236 C11.2827525,671.082236 12.8491525,667.899236 14.0818525,665.381236 C18.3285525,656.705236 23.6795525,648.401236 28.6130525,640.098236 C37.7817192,624.314903 47.3767192,608.795236 57.3980525,593.539236 C64.2410525,582.994236 70.7430525,571.591236 78.6000525,561.809236 C80.2620525,559.739236 82.6930525,556.592236 85.2850525,555.815236 C92.1720525,553.750236 106.034053,558.330236 112.304053,561.673236 C112.742053,561.906236 113.757053,562.551236 113.891053,563.040236 C114.756053,566.188236 110.049053,573.367236 111.553053,577.827236 L112.396053,578.244236 C114.771053,577.520236 116.723053,575.325236 118.293053,573.485236 C130.440053,559.241236 128.207053,535.292236 137.660053,527.370236 Z"/><path fill="#F2F2F4" d="M459.068053,605.098236 C464.191053,604.231236 470.615053,604.653236 475.764053,605.404236 C488.947053,607.326236 502.303053,613.482236 510.323053,624.471236 C514.504053,630.201236 517.077053,637.291236 515.817053,644.435236 C514.059053,654.393236 504.471053,663.909236 494.601053,665.993236 C489.282053,667.117236 483.199053,666.567236 478.264053,669.062236 C470.168053,673.156236 463.182053,680.648236 455.678053,685.822236 C451.150053,688.942236 444.400053,692.850236 438.737053,691.596236 C436.586053,691.120236 434.589053,689.784236 433.417053,687.904236 C427.988053,679.189236 442.476053,660.198236 447.691053,653.973236 C450.267053,650.898236 458.602053,644.347236 459.064053,640.558236 C459.161053,639.765236 458.856053,639.717236 458.374053,639.184236 C457.009053,638.839236 455.627053,639.116236 454.289053,639.482236 C443.493053,642.439236 434.232053,655.436236 428.746053,664.453236 C424.073053,672.427236 422.865053,679.855236 422.087053,688.885236 C419.114053,688.950236 416.208053,688.889236 413.362053,687.906236 C410.311053,686.852236 408.099053,684.906236 406.749053,681.960236 C402.047053,671.696236 416.594053,650.583236 422.925053,643.000236 C425.646053,639.741236 431.380053,635.486236 432.768053,631.642236 C432.524053,630.422236 432.551053,630.513236 431.517053,629.810236 C429.233053,629.687236 427.128053,630.809236 425.235053,631.983236 C408.964053,642.066236 399.868053,659.449236 395.738053,677.541236 C395.184719,677.18457 394.640386,676.81457 394.105053,676.431236 C390.727053,674.047236 388.680053,671.691236 388.074053,667.461236 C386.678053,657.722236 394.033053,645.619236 399.750053,638.300236 C414.358053,619.599236 435.582053,607.999236 459.068053,605.098236 Z"/><path fill="#BA573E" d="M81.1940525,770.961236 C92.0320525,770.332236 172.219053,781.376236 181.237053,784.502236 L181.668053,785.344236 L182.231053,785.160236 L182.218053,785.111236 C182.660053,786.509236 182.895053,787.810236 183.041053,789.270236 C183.995053,798.815236 183.414053,808.990236 183.518053,818.597236 C183.596053,825.740236 184.439053,833.844236 183.614053,840.899236 C183.485053,841.998236 183.070053,843.176236 182.266053,843.964236 C181.155053,845.054236 179.938053,845.061236 178.496053,845.153236 C172.605053,844.613236 166.667053,843.353236 160.825053,842.405236 C151.013053,840.807236 141.186386,839.305236 131.345053,837.899236 L99.1250525,833.262236 C93.1950525,832.412236 86.9880525,831.872236 81.1680525,830.455236 C79.3610525,830.015236 78.2700525,829.421236 76.9990525,828.032236 C76.0150525,826.955236 75.6710525,825.892236 75.4250525,824.484236 C74.3180525,818.150236 74.9200525,811.250236 74.9550525,804.833236 C75.0050525,795.556236 74.8750525,786.261236 75.2610525,776.991236 C76.8920525,774.355236 78.6100525,772.686236 81.1940525,770.961236 Z"/><path fill="#753D31" d="M107.339053,784.955236 C107.763053,784.917236 108.187053,784.872236 108.613053,784.863236 C110.226053,784.831236 111.738053,784.961236 112.949053,786.108236 C113.203053,787.508236 113.054053,787.657236 112.453053,788.970236 C111.171053,789.113236 110.731053,789.328236 109.612053,788.578236 C108.382053,787.753236 107.611053,786.377236 107.339053,784.955236 Z"/><path fill="#B3B1AF" d="M167.622053,662.020236 C176.508053,660.912236 178.766053,664.502236 186.644053,665.526236 C191.147053,666.112236 195.960053,665.395236 200.390053,666.392236 C203.439053,667.079236 206.184053,668.843236 209.271053,669.374236 C220.020053,671.222236 230.958053,667.726236 241.749053,669.569236 C250.946053,671.140236 259.332053,675.316236 268.333053,677.480236 C275.937053,679.308236 283.804053,678.438236 291.428053,679.929236 C297.874053,681.191236 303.575053,684.597236 309.876053,686.280236 C318.739053,688.647236 328.921053,689.066236 338.058053,690.138236 C330.252053,693.757236 301.645053,706.027236 294.523053,706.666236 C290.461053,707.030236 286.064053,705.753236 282.089053,704.932236 C266.038053,701.761236 255.637053,709.166236 241.761053,705.672236 C237.310053,704.551236 233.297053,702.444236 229.148053,700.541236 C224.661053,702.260236 220.602053,704.824236 215.942053,706.218236 C204.295053,709.702236 199.254053,702.788236 188.824053,701.098236 C181.619053,699.930236 174.185053,701.575236 166.952053,700.927236 C159.459053,700.255236 152.954053,696.542236 145.770053,694.847236 C139.711053,693.418236 133.307053,694.433236 127.189053,692.595236 C125.311053,692.031236 123.437053,691.257236 121.741053,690.276236 C119.749053,689.125236 117.949053,687.676236 117.463053,685.313236 C116.972053,682.927236 118.678053,680.169236 119.917053,678.289236 C127.780053,666.358236 140.403053,669.695236 152.132053,667.034236 C157.430053,665.832236 162.229053,663.094236 167.622053,662.020236 Z"/><path fill="#313945" d="M163.306053,681.000236 C167.612053,681.090236 185.532053,681.736236 188.268053,683.616236 L188.413053,684.686236 L187.179053,686.027236 C186.559719,686.22657 185.935386,686.408903 185.306053,686.574236 C179.587053,688.064236 171.138053,688.525236 166.003053,685.196236 C164.297053,684.090236 163.772053,682.927236 163.306053,681.000236 Z M261.546053,688.45015 C265.643053,688.444236 271.348053,689.060236 274.972053,691.118236 C276.225053,691.830236 276.498053,692.282236 276.864053,693.639236 L275.888053,695.073236 C271.984053,694.932236 263.893053,693.610236 260.954053,690.901236 C260.285053,690.284236 260.479053,690.205236 260.464053,689.366236 L261.546053,688.45015 Z"/><path fill="#F2F2F4" d="M627.159053,702.097236 C629.449053,701.933236 631.813053,701.825236 634.107053,701.980236 C651.858053,703.176236 667.821053,716.529236 679.054053,729.304236 C690.015053,741.770236 706.296053,763.621236 704.902053,780.887236 C704.707053,783.297236 704.242053,786.606236 702.036053,788.068236 C697.136053,791.315236 681.841053,781.003236 677.704053,777.871236 C675.104053,775.901236 671.224053,770.814236 668.125053,770.386236 L667.431053,771.095236 C667.320053,771.921236 667.252053,772.634236 667.392053,773.463236 C668.696053,781.145236 676.717053,787.771236 682.848053,791.826236 L690.999053,796.877236 C689.558053,797.865236 688.098053,798.905236 686.523053,799.671236 C675.890053,804.840236 666.922053,797.469236 659.468053,790.614236 C657.829053,789.106236 655.647053,786.623236 653.548053,785.862236 L652.775053,786.481236 C652.522053,787.282236 652.336053,787.962236 652.317053,788.809236 C652.201053,793.925236 658.817053,799.160236 662.172053,802.641236 C652.319053,801.393236 643.938053,799.860236 635.341053,794.612236 C639.194053,789.696236 642.812053,784.722236 645.203053,778.908236 C653.455053,758.846236 647.938053,734.277236 636.044053,716.838236 C633.973053,713.801236 626.521053,705.602236 626.235053,702.892236 L627.159053,702.097236 Z M211.187053,488.844236 C216.260053,490.747236 221.243053,493.577236 225.246053,497.254236 C233.274053,504.630236 237.445053,515.206236 237.826053,526.000236 C238.107053,533.924236 236.529053,543.982236 230.817053,549.874236 C227.642053,553.147236 223.500053,554.744236 218.972053,554.753329 C213.046053,554.765236 203.826053,552.463236 199.716053,548.041236 C198.601053,546.842236 198.333053,545.856236 198.351053,544.259236 C200.130053,541.752236 203.812053,539.483236 206.192053,537.395236 C207.117053,536.416236 208.081053,535.332236 208.613053,534.077236 C209.140053,532.833236 209.340053,531.680236 208.848053,530.400236 C204.359053,528.617236 190.694053,541.640236 180.469053,541.312236 C176.926053,541.199236 172.267053,539.863236 169.839053,537.119236 C168.126053,535.184236 167.957053,532.065236 168.103053,529.614236 C168.661053,520.198236 173.216053,510.660236 182.365053,506.974236 C187.242053,505.010236 192.282053,503.925236 196.915053,501.302236 C202.319053,498.242236 206.545053,492.941236 211.187053,488.844236 Z"/><path fill="#8E8D8D" d="M209.750053,430.031236 C211.463053,429.912236 213.245053,429.891236 214.950053,430.089236 C215.453386,430.145236 215.952386,430.226236 216.447053,430.332236 C216.942386,430.438236 217.431053,430.568236 217.913053,430.722236 C218.395719,430.876903 218.869053,431.054903 219.333053,431.256236 C219.797719,431.458236 220.251053,431.68257 220.693053,431.929236 C221.135053,432.175903 221.564053,432.443903 221.980053,432.733236 C222.395386,433.02257 222.795386,433.331903 223.180053,433.661236 C223.564719,433.989903 223.932053,434.337236 224.282053,434.703236 C224.632053,435.069236 224.963053,435.45157 225.275053,435.850236 C227.760053,438.977236 228.351053,442.988236 227.756053,446.863236 C227.245053,450.193236 225.868053,453.257236 224.073053,456.082236 C217.895053,465.799236 198.792053,484.766236 189.682053,491.387236 C187.339053,490.731236 185.084053,489.811236 182.813053,488.943236 C176.124053,485.547236 168.673053,483.278236 161.613053,480.757236 C161.807053,480.45257 162.004719,480.15057 162.206053,479.851236 C165.590053,474.922236 169.381053,470.195236 172.898053,465.351236 C181.294053,453.787236 194.984053,432.767236 209.750053,430.031236 Z"/><path fill="#BA573E" d="M536.966053,779.386236 C542.619053,778.907236 549.269053,780.443236 554.898053,781.144236 C565.406053,782.51357 575.929719,783.746236 586.469053,784.842236 C573.273053,792.192236 559.792053,798.982236 546.556053,806.256236 C540.661053,809.496236 534.405053,812.575236 528.928053,816.489236 C528.027053,817.158236 527.111053,817.733236 526.153053,818.313236 C521.801053,818.715236 516.210053,815.673236 511.923053,814.610236 C503.775053,812.591236 489.134053,813.110236 482.326053,809.663236 L482.186053,809.004236 C488.668053,803.620236 497.151053,800.042236 504.614053,796.185236 L536.966053,779.386236 Z"/><path fill="#47759A" d="M614.748053,710.870236 C617.540053,712.237236 620.082053,714.507236 622.203053,716.766236 C632.371053,727.591236 638.096053,744.892236 637.522053,759.616236 C636.998053,773.044236 631.904053,781.139236 622.254053,790.069236 L617.267053,793.279236 C618.327719,789.141236 619.081386,784.948236 619.528053,780.700236 C621.861053,759.116236 618.119053,738.702236 604.356053,721.591236 C607.826053,718.005236 611.054053,714.241236 614.748053,710.870236 Z"/><path fill="#7A7BBE" d="M604.241053,513.201236 C604.780053,513.541236 605.237053,513.919236 605.656053,514.403236 C608.343053,517.502236 610.210053,522.136236 612.035053,525.833236 C618.056053,538.038236 629.845053,562.143236 628.454053,575.280236 C627.475053,584.529236 615.522053,592.861236 608.821053,598.027236 C604.398053,601.167236 600.219053,603.839236 595.088053,605.656236 C599.122053,597.416236 602.643053,588.703236 604.718053,579.756236 C609.273053,560.121236 608.834053,532.805236 604.241053,513.201236 Z M487.640053,583.614236 C488.985053,583.477236 490.293053,583.537236 491.641053,583.645236 C504.851053,584.705236 518.004053,593.015236 526.381053,603.015236 C533.126053,611.067236 538.287053,622.652236 537.083053,633.354236 C536.182053,641.351236 531.499053,646.481236 525.470053,651.177236 C525.797053,649.291236 526.025053,647.433236 526.182053,645.526236 C527.109053,633.703236 522.772053,622.375236 515.155053,613.369236 C502.691053,598.633236 487.102053,594.294236 468.660053,592.753236 C474.228053,586.689236 479.626053,584.454236 487.640053,583.614236 Z M622.896053,600.342236 L623.778053,600.835236 C625.922053,604.187236 626.610053,608.001236 627.393053,611.835236 C614.394053,627.074236 589.471053,634.452236 570.310053,636.858236 C568.873053,636.964236 567.649053,636.953236 566.218053,636.785236 L566.170053,636.327236 C573.158053,631.496236 578.507053,624.105236 585.547053,619.727236 C590.604053,616.583236 597.001053,615.769236 602.459053,613.407236 C610.012053,610.138236 616.180053,604.962236 622.896053,600.342236 Z"/><path fill="#8E8D8D" d="M156.788053,492.689236 C162.584053,493.043236 167.741053,495.455236 172.760053,498.192236 C169.533053,501.061236 166.785053,503.749236 164.506053,507.457236 C162.934053,510.013236 158.297053,521.621236 157.396053,522.371236 L156.534053,521.994236 C151.141053,517.480236 146.969053,515.673236 139.974053,515.707236 C144.035053,506.356236 149.989053,500.153236 156.788053,492.689236 Z"/><path fill="#BA573E" d="M293.607053,734.350236 L294.059053,734.816236 C295.341053,743.139236 295.040053,768.151236 294.329053,776.726236 C291.345053,779.010236 287.964053,780.824236 284.727053,782.728236 C283.940053,781.046236 284.194053,745.784236 284.199053,740.464236 C287.166053,738.251236 290.485053,736.349236 293.607053,734.350236 Z"/><path fill="#F2F2F4" d="M146.273053,484.889236 C146.829053,485.176236 146.484053,484.943236 147.081053,485.842236 C146.817053,490.669236 134.586053,501.403236 131.826053,506.962236 C130.412053,509.809236 129.299053,513.176236 128.525053,516.261236 C127.595053,519.972236 127.451053,528.113236 124.980053,530.760236 C124.393053,531.390236 124.049053,531.211236 123.256053,531.253236 C122.820719,530.303236 122.415719,529.340236 122.041053,528.364236 C119.252053,521.105236 121.070053,511.908236 124.168053,505.040236 C128.854053,494.653236 135.797053,488.889236 146.273053,484.889236 Z"/><path fill="#47759A" d="M378.593053,652.903236 C379.331053,654.234236 377.613053,663.294236 377.504053,665.381236 C377.354053,668.266236 377.587053,671.144236 377.847053,674.016236 C371.297053,675.749236 364.961053,678.153236 358.305053,679.515236 C357.488053,679.290236 357.851053,679.517236 357.282053,678.738236 C358.535053,672.000236 373.137053,657.570236 378.593053,652.903236 Z"/><path fill="#BA573E" d="M295.424053,783.876236 C296.654053,785.288236 297.847053,787.482236 298.305053,789.274236 C298.106053,790.133236 298.216053,790.544236 297.458053,791.103236 C295.457053,792.578236 292.555053,791.626236 290.298053,791.234236 C289.187053,791.038236 288.547053,790.900236 287.646053,790.207236 L287.778053,789.161236 C289.698053,786.903236 292.882053,785.404236 295.424053,783.876236 Z"/><path fill="#FFF" d="M159.368881,541.654189 C152.63299,530.000189 148.076162,549.07015 156.367053,554.753283 C164.657943,560.436416 180.969053,555.636291 180.969053,553.041236 C180.969053,550.446182 166.104771,553.308189 159.368881,541.654189 Z"/></g></svg>