<svg xmlns="http://www.w3.org/2000/svg" width="858" height="934" viewBox="0 0 858 934"><g fill="none" transform="translate(.514 .378)"><path fill="#313945" d="M176.248289,0.326032038 C176.353289,0.310032038 176.458289,0.287432038 176.564289,0.278032038 C197.164289,-1.54766796 219.658289,5.75513204 235.992289,18.149532 C260.403289,36.673632 273.920289,65.253032 278.050289,95.114032 C292.043289,91.520032 298.106289,91.102032 312.420289,92.952032 C310.066289,90.391032 307.986289,87.649032 307.198289,84.189032 C306.540289,81.298032 306.670289,77.812032 308.346289,75.273032 C310.180289,72.496032 313.567289,70.839032 316.762289,70.250032 C333.381289,67.184032 356.365289,75.500032 370.577289,83.714032 C374.986289,86.262032 379.220289,90.514032 384.079289,92.003032 C390.295289,93.910032 397.475289,93.590032 403.930289,94.969032 C427.844289,100.080032 452.501289,108.235032 472.953289,121.949032 C481.575289,95.707032 495.221289,72.003032 514.360289,51.969232 C538.312289,26.897832 570.510289,6.51073204 606.105289,5.86423204 C606.905289,5.84476537 607.705289,5.8351987 608.505289,5.83553204 C609.305289,5.83593204 610.104956,5.84626537 610.904289,5.86653204 C611.704289,5.88673204 612.503956,5.91686537 613.303289,5.95693204 C614.101956,5.99706537 614.900289,6.0470987 615.698289,6.10703204 C616.495622,6.1668987 617.292289,6.2366987 618.088289,6.31643204 C618.884289,6.39616537 619.679289,6.48573204 620.473289,6.58513204 C621.267289,6.6845987 622.059956,6.7938987 622.851289,6.91303204 C623.641956,7.03216537 624.431289,7.1610987 625.219289,7.29983204 C626.007289,7.43856537 626.793289,7.58703204 627.577289,7.74523204 C628.361956,7.9034987 629.144289,8.07146537 629.924289,8.24913204 C630.704289,8.4267987 631.481956,8.61413204 632.257289,8.81113204 C633.032622,9.00813204 633.805289,9.21473204 634.575289,9.43093204 C635.345956,9.64706537 636.113622,9.87276537 636.878289,10.108032 C637.642956,10.343232 638.404622,10.587932 639.163289,10.842132 C639.921289,11.0962654 640.676289,11.3597987 641.428289,11.632732 C642.180289,11.9055987 642.928956,12.1877987 643.674289,12.479332 C644.419622,12.7707987 645.160956,13.0714654 645.898289,13.381332 C646.635622,13.6912654 647.369289,14.0102987 648.099289,14.338432 C648.828622,14.6665654 649.553956,15.0036987 650.275289,15.349832 C650.996622,15.6959654 651.713622,16.0509987 652.426289,16.414932 C653.138289,16.7788654 653.845956,17.1515654 654.549289,17.533032 C655.252622,17.9145654 655.950956,18.3047654 656.644289,18.703632 C657.337622,19.1024987 658.025956,19.5098987 658.709289,19.925832 C659.392622,20.3417654 660.070956,20.766132 660.744289,21.198932 C661.416956,21.631732 662.084289,22.0727987 662.746289,22.522132 C663.408289,22.971532 664.064622,23.4290654 664.715289,23.894732 C665.365289,24.3603987 666.009622,24.8340654 666.648289,25.315732 C667.287622,25.7973987 667.920622,26.2868987 668.547289,26.784232 C669.173289,27.281632 669.793622,27.786732 670.408289,28.299532 C671.022289,28.812332 671.629622,29.3326654 672.230289,29.860532 C672.831622,30.3883987 673.426289,30.923632 674.014289,31.466232 C674.602289,32.0088987 675.183289,32.5587654 675.757289,33.115832 C697.608289,54.533332 708.250289,85.444032 708.467289,115.643032 C708.480622,116.963699 708.477622,118.284365 708.458289,119.605032 C708.438956,120.925699 708.403289,122.246032 708.351289,123.566032 C708.298622,124.886032 708.229956,126.205032 708.145289,127.523032 C708.059956,128.841032 707.958289,130.157699 707.840289,131.473032 C707.722289,132.789032 707.587622,134.103032 707.436289,135.415032 C707.285622,136.727032 707.118622,138.037032 706.935289,139.345032 C706.751956,140.653032 706.552289,141.958699 706.336289,143.262032 C706.120289,144.564699 705.887956,145.864699 705.639289,147.162032 C705.390622,148.459365 705.125956,149.753365 704.845289,151.044032 C704.564622,152.334699 704.267622,153.621699 703.954289,154.905032 C703.641622,156.188365 703.312956,157.467365 702.968289,158.742032 C702.623622,160.017365 702.262956,161.288032 701.886289,162.554032 C701.509622,163.820032 701.117289,165.081032 700.709289,166.337032 C700.301956,167.593699 699.878622,168.844699 699.439289,170.090032 C698.999956,171.336032 698.545289,172.576032 698.075289,173.810032 C697.605289,175.044699 697.119956,176.273032 696.619289,177.495032 C696.118622,178.717699 695.602622,179.933699 695.071289,181.143032 C694.540622,182.352365 693.994622,183.555032 693.433289,184.751032 C692.871956,185.946365 692.295956,187.134699 691.705289,188.316032 C691.114622,189.497365 690.509622,190.671365 689.890289,191.838032 C689.270289,193.004032 688.635622,194.162365 687.986289,195.313032 C687.337622,196.463699 686.674622,197.606032 685.997289,198.740032 C685.319956,199.873365 684.628622,200.998365 683.923289,202.115032 C683.217956,203.231699 682.498622,204.339699 681.765289,205.439032 C681.032622,206.537699 680.285956,207.627032 679.525289,208.707032 C678.765289,209.787032 677.991622,210.857365 677.204289,211.918032 C676.417622,212.979365 675.617622,214.030365 674.804289,215.071032 C673.991622,216.111699 673.165622,217.142365 672.326289,218.163032 C671.487622,219.183032 670.636289,220.192365 669.772289,221.191032 C668.908289,222.190365 668.031956,223.178699 667.143289,224.156032 C666.254622,225.132699 665.353956,226.098365 664.441289,227.053032 C663.527956,228.008365 662.603289,228.951699 661.667289,229.883032 C636.237289,255.426032 602.978289,268.682032 567.122289,268.693032 C572.727289,291.559032 573.801289,325.601032 568.180289,348.494032 C577.410289,349.321032 593.476289,350.614032 601.388289,354.752032 C604.088289,356.164032 606.375289,357.946032 607.314289,360.922032 C607.132289,362.051032 607.164289,362.476032 606.284289,363.287032 C600.916289,368.234032 573.456289,363.482032 565.781289,362.541032 C560.368289,382.535032 550.929289,399.259032 538.657289,415.781032 C545.683289,418.603032 553.475289,422.997032 558.224289,429.037032 C559.504289,430.666032 560.304289,431.968032 560.009289,434.089032 C559.479289,435.028032 558.958289,435.529032 557.967289,435.995032 C555.813289,437.007032 552.988289,436.922032 550.721289,436.364032 C547.486289,435.568032 544.117289,433.153032 541.070289,431.679032 C536.900289,429.660032 532.636289,428.034032 528.276289,426.486032 C523.813289,430.641032 519.191289,434.618032 514.738289,438.784032 C526.831289,443.637032 535.099289,448.916032 540.422289,461.203032 C571.786289,472.265032 613.168289,492.710032 637.856289,515.384032 C639.961622,517.346032 642.000956,519.374365 643.974289,521.469032 C645.946956,523.563699 647.849622,525.720699 649.682289,527.940032 C651.514289,530.158699 653.272289,532.434699 654.956289,534.768032 C656.640289,537.102032 658.246622,539.488032 659.775289,541.926032 C669.464289,557.188032 684.346289,590.778032 685.889289,608.292032 C686.259289,612.497032 685.528289,616.152032 684.620289,620.223032 C693.929289,627.067032 698.777289,635.849032 706.097289,644.416032 C701.108289,631.347032 698.332289,615.877032 698.708289,601.856032 C699.232289,582.325032 706.202289,563.446032 720.633289,549.972032 C734.754289,536.787032 753.380289,530.508032 772.573289,531.183032 C773.284622,531.212365 773.995289,531.250032 774.705289,531.296032 C775.415956,531.342699 776.125622,531.398032 776.834289,531.462032 C777.543622,531.525365 778.251622,531.597699 778.958289,531.679032 C779.665622,531.760365 780.371956,531.850365 781.077289,531.949032 C781.781956,532.047032 782.485622,532.154032 783.188289,532.270032 C783.890289,532.385365 784.590956,532.509365 785.290289,532.642032 C785.989622,532.774699 786.687289,532.916032 787.383289,533.066032 C788.079289,533.216032 788.773289,533.374365 789.465289,533.541032 C790.157289,533.707699 790.847289,533.882699 791.535289,534.066032 C792.222622,534.250032 792.907956,534.442365 793.591289,534.643032 C794.273956,534.843032 794.954289,535.051699 795.632289,535.269032 C796.310289,535.485699 796.985622,535.711032 797.658289,535.945032 C798.330289,536.178365 798.999622,536.420032 799.666289,536.670032 C800.332956,536.920032 800.996289,537.178032 801.656289,537.444032 C802.316956,537.710032 802.973956,537.984032 803.627289,538.266032 C804.280622,538.548699 804.930622,538.839032 805.577289,539.137032 C806.223289,539.435032 806.865956,539.740699 807.505289,540.054032 C808.143956,540.368032 808.778956,540.689699 809.410289,541.019032 C810.040956,541.348365 810.667956,541.685365 811.291289,542.030032 C811.913956,542.374699 812.532289,542.727032 813.146289,543.087032 C813.760289,543.446365 814.369956,543.813365 814.975289,544.188032 C815.580622,544.562699 816.181289,544.944699 816.777289,545.334032 C817.373289,545.723365 817.964289,546.120032 818.550289,546.524032 C819.136956,546.928032 819.718289,547.339032 820.294289,547.757032 C820.870289,548.175032 821.441289,548.600032 822.007289,549.032032 C822.572622,549.464032 823.132956,549.902699 823.688289,550.348032 C824.242956,550.794032 824.792289,551.246699 825.336289,551.706032 C825.880289,552.164699 826.418622,552.630365 826.951289,553.103032 C827.483956,553.575032 828.010622,554.053699 828.531289,554.539032 C829.052622,555.024365 829.567622,555.515699 830.076289,556.013032 C830.584956,556.511032 831.087622,557.015032 831.584289,557.525032 C832.080956,558.035032 832.571289,558.551032 833.055289,559.073032 C847.806289,575.107032 858.015289,596.533032 856.939289,618.695032 C856.627289,625.114032 855.140289,635.713032 849.982289,640.104032 C847.755289,641.999032 844.603289,642.632032 841.754289,642.049032 C840.163289,641.723032 839.399289,640.869032 838.602289,639.510032 C836.568289,636.040032 835.442289,631.809032 833.998289,628.044032 C833.320289,626.252699 832.577289,624.488365 831.769289,622.751032 C830.961956,621.014365 830.091956,619.309365 829.159289,617.636032 C828.226622,615.962699 827.234289,614.325699 826.182289,612.725032 C825.129622,611.124365 824.019956,609.564365 822.853289,608.045032 C812.952289,595.246032 798.200289,584.271032 781.762289,582.331032 C774.091289,581.426032 766.331289,583.150032 760.308289,588.148032 C738.934289,605.885032 760.172289,644.590032 768.741289,664.003032 C772.985289,673.618032 776.892289,683.284032 780.124289,693.292032 C785.522289,710.004032 788.075289,726.902032 786.406289,744.448032 C783.479289,775.222032 768.441289,797.418032 745.159289,816.598032 C723.881289,833.292032 696.754289,840.667032 670.046289,841.176032 C621.584289,842.100032 581.190289,815.505032 547.640289,783.213032 C551.162289,791.435032 554.479289,799.836032 557.653289,808.197032 C560.893289,816.729032 565.622289,828.584032 561.628289,837.479032 C571.478289,850.244032 581.181289,872.507032 581.116289,888.634032 C581.075289,898.858032 577.438289,908.118032 570.117289,915.301032 C556.414289,928.748032 533.760289,933.781032 515.156289,933.547321 C498.237289,933.319032 475.094289,930.128032 462.755289,917.183032 C456.826289,910.963032 454.243289,903.276032 454.491289,894.774032 C454.902289,880.724032 461.753289,868.525032 471.787289,859.018032 C464.976289,853.134032 461.024289,846.293032 456.079289,838.937032 C438.092289,812.184032 419.527289,777.754032 411.188289,746.608032 C400.650289,746.779032 389.967289,745.040032 379.468289,744.171032 C375.217289,743.819032 369.869289,743.074032 365.709289,744.185032 C357.664289,746.333032 329.818289,767.300032 320.976289,773.489032 C322.235289,784.860032 323.126289,796.309032 324.071289,807.711032 C324.899289,817.694032 326.537289,828.726032 325.215289,838.661032 C324.731289,842.292032 323.546289,845.075032 321.897289,848.298032 C326.385289,854.957032 328.484289,862.604032 329.369289,870.522032 C330.401289,879.752032 329.440289,889.024032 323.244289,896.448032 C307.443289,915.381032 255.392289,924.594032 231.039289,926.366032 C210.069289,927.892032 179.613289,924.812032 163.267289,910.408032 C157.721289,905.521032 154.044289,898.610032 153.737289,891.157032 C153.364289,882.123032 157.565289,873.562032 163.519289,867.000032 C176.668289,852.507032 196.433289,844.604032 215.758289,843.607032 C212.722289,836.541032 211.094289,828.807032 209.287289,821.354032 C204.648289,802.229032 199.849289,782.075032 200.579289,762.276032 C200.669289,760.044699 200.854622,757.821032 201.135289,755.605032 C201.415289,753.389699 201.789622,751.190032 202.258289,749.006032 C202.726956,746.822699 203.287622,744.663032 203.940289,742.527032 C204.593622,740.391032 205.336622,738.287032 206.169289,736.215032 C215.193289,713.538032 239.027289,683.668032 256.746289,667.046032 C256.544289,666.910032 256.340289,666.775032 256.139289,666.637032 C251.900289,663.714032 249.060289,660.284032 247.510289,655.310032 C244.998289,647.248032 248.608289,639.242032 246.825289,631.316032 C244.885289,622.692032 240.838289,614.136032 238.202289,605.657032 C235.327622,596.559032 232.763956,587.374365 230.511289,578.103032 C228.257956,568.831699 226.320289,559.495032 224.698289,550.093032 C217.161289,548.183032 209.669289,546.202032 202.256289,543.854032 C191.132289,540.335365 180.135956,536.454699 169.267289,532.212032 C158.398622,527.969365 147.681289,523.373699 137.115289,518.425032 C96.264289,499.260032 29.064289,460.623032 7.849289,419.166032 C-4.203711,395.614032 -0.712711002,368.489032 7.199289,344.185032 C16.177289,316.604032 41.724289,265.150032 61.825289,245.192032 C66.374289,240.675032 72.574289,239.365032 77.308289,235.262032 C88.480289,225.580032 98.658289,216.551032 112.023289,209.771032 C110.859956,208.357699 109.723956,206.922365 108.615289,205.465032 C107.507289,204.007699 106.427622,202.529365 105.376289,201.030032 C104.325622,199.531365 103.303622,198.012699 102.310289,196.474032 C101.317622,194.936032 100.354956,193.379365 99.422289,191.804032 C98.4896223,190.228699 97.5876223,188.635699 96.716289,187.025032 C95.8449557,185.415032 95.0049557,183.788699 94.196289,182.146032 C93.3876223,180.503365 92.6109557,178.846032 91.866289,177.174032 C91.1216223,175.501365 90.4096223,173.815032 89.730289,172.115032 C89.050289,170.415032 88.403289,168.702699 87.789289,166.978032 C87.1759557,165.252699 86.5956223,163.516699 86.048289,161.770032 C85.5016223,160.022699 84.9886223,158.265365 84.509289,156.498032 C84.0299557,154.731365 83.5849557,152.955699 83.174289,151.171032 C82.7636223,149.387032 82.3876223,147.595699 82.046289,145.797032 C81.704289,143.998365 81.397289,142.194032 81.125289,140.384032 C80.853289,138.573365 80.6159557,136.758032 80.413289,134.938032 C80.211289,133.118699 80.044289,131.296032 79.912289,129.470032 C77.318289,96.089032 87.230289,60.493032 109.229289,34.918732 C126.498289,14.843432 149.725289,2.23573204 176.248289,0.326032038 Z M535.139289,648.596032 C537.370289,659.972032 539.059289,669.521032 534.186289,680.517032 C534.996289,685.753032 535.434289,691.467032 538.053289,696.164032 C541.432289,702.225032 547.543289,707.610032 552.268289,712.684032 C569.953289,731.672032 587.755289,750.520032 608.769289,765.924032 C629.191289,780.893032 654.776289,791.694032 680.541289,787.717032 C695.884289,785.349032 709.690289,777.667032 718.894289,765.043032 C729.862289,750.002032 732.607289,730.330032 729.638289,712.246032 C728.180289,703.365032 722.820289,684.827032 718.500289,677.364032 L718.156289,677.370032 L718.555289,679.243032 C721.969289,691.969032 724.050289,711.411032 717.277289,723.478032 C715.371289,726.874032 711.903289,730.462032 707.964289,731.351032 C706.547289,731.671032 704.979289,731.624032 703.533289,731.610032 C701.174289,739.295032 698.175289,749.274032 690.398289,753.192032 C687.118289,754.844032 683.035289,755.234032 679.578289,753.871032 C679.322289,753.770032 679.070289,753.658032 678.816289,753.552032 C675.343289,758.180032 671.580289,762.270032 665.549289,763.260032 C661.024289,764.004032 656.722289,762.471032 653.114289,759.776032 C634.542289,745.907032 632.864289,714.990032 615.153289,699.897032 C607.372289,707.146032 598.213289,717.488032 586.579289,716.925032 C581.653289,716.687032 577.131289,714.571032 573.932289,710.793032 C570.048289,706.206032 568.872289,700.268032 569.453289,694.397032 C571.013289,678.664032 585.963289,657.384032 595.531289,645.039032 C591.583289,640.318032 588.376289,635.439032 585.680289,629.895032 C581.700289,621.711032 570.825289,588.959032 565.480289,585.301032 C562.220289,583.070032 556.993289,581.616032 553.266289,580.205032 C543.176289,576.386032 532.751289,572.973032 522.993289,568.374032 C528.884289,581.181032 537.089289,614.706032 538.140289,628.300032 C538.559289,633.714032 538.490289,639.934032 536.580289,645.080032 C536.131622,646.265365 535.651289,647.437365 535.139289,648.596032 Z M125.154289,357.582032 C124.843289,358.938032 124.467289,359.434032 125.222289,360.680032 C128.039289,365.327032 139.554289,376.411032 143.990289,380.928032 C147.286289,380.410032 150.595289,379.796032 153.904289,379.383032 L154.728289,379.051032 C155.093289,374.219032 152.571289,367.426032 151.572289,362.550032 C144.534289,360.338032 132.485289,357.300032 125.154289,357.582032 Z M151.704289,285.446032 C149.192289,291.687032 147.017289,298.073032 144.417289,304.274032 C142.028289,309.974032 138.847289,315.333032 136.513289,321.038032 C134.334289,326.364032 132.876289,332.178032 131.163289,337.678032 C130.305289,340.434032 128.840289,343.557032 128.635289,346.412032 C130.441289,346.620032 132.186289,346.674032 134.003289,346.675032 C139.619289,347.461032 145.216289,348.335032 150.701289,349.814032 C149.804289,336.805032 148.942289,323.649032 149.832289,310.614032 C150.206289,305.137032 152.882289,289.418032 151.704289,285.446032 Z"/><path fill="#F2F2F4" d="M470.395289,137.961032 C469.622289,142.754032 468.049289,151.541032 470.967289,155.781032 C471.446289,156.477032 472.005289,156.760032 472.739289,157.106032 C474.304289,157.181032 474.978289,157.001032 476.351289,156.364032 C479.398289,149.809032 481.092289,142.660032 483.233289,135.775032 C484.999956,130.285032 487.010622,124.886032 489.265289,119.578032 C505.965289,79.505032 537.455289,41.499232 579.017289,26.190532 C599.799289,18.535932 621.931289,18.263832 642.198289,27.654932 C663.160289,37.368532 679.082289,56.095032 686.827289,77.740032 C698.460289,110.252032 694.241289,149.188032 679.469289,180.094032 C664.840289,210.701032 638.472289,237.550032 606.044289,248.803032 C592.473289,253.512032 578.093289,255.300032 563.768289,255.158032 C562.842289,251.942032 562.082289,248.446032 560.764289,245.381032 C556.666289,233.292032 551.679289,222.227032 544.661289,211.542032 C546.092289,205.426032 547.297289,199.266032 549.085289,193.237032 C551.294289,185.788032 554.113289,178.451032 556.054289,170.934032 C556.886289,167.714032 558.072289,163.021032 556.296289,160.031032 C555.823289,159.840032 555.526289,159.687032 554.981289,159.649032 C548.236289,159.182032 533.837289,172.171032 528.803289,176.335032 C529.833289,160.836032 533.849289,145.028032 538.855289,130.373032 C548.098289,103.312032 565.922289,74.253032 592.424289,61.433032 C614.313289,50.843532 637.799289,52.877132 656.722289,68.486032 C659.509289,70.784032 665.032289,77.521032 667.980289,78.542032 L668.866289,77.694032 C665.784289,66.140032 657.288289,56.678032 647.040289,50.781832 C633.526289,43.006532 617.034289,41.729532 602.122289,45.773032 C575.263289,53.056032 554.835289,74.662032 541.544289,98.249032 C527.466289,123.231032 521.437289,149.902032 520.206289,178.390032 C519.967289,183.915032 518.909289,191.036032 520.435289,196.383032 C520.632289,197.072032 520.925289,197.557032 521.384289,198.099032 C522.589289,198.256032 522.533289,198.183032 523.447289,197.463032 C526.231289,195.269032 528.703289,192.261032 531.249289,189.771032 C535.117289,185.988032 539.238289,182.378032 543.362289,178.874032 C538.541289,190.033032 531.243289,207.368032 536.011289,219.444032 C538.580289,225.951032 542.116289,232.027032 544.412289,238.663032 C556.294289,273.007032 560.328289,312.750032 553.300289,348.565032 C543.442289,348.657032 533.767289,349.602032 524.008289,350.973032 C511.874289,352.678032 470.055289,360.501032 462.312289,368.279032 C461.335289,369.261032 460.949289,370.093032 460.896289,371.490032 C461.216289,372.202032 461.323289,372.978032 462.075289,373.328032 C463.581289,374.030032 465.650289,373.814032 467.253289,373.586032 C473.422289,372.707032 479.623289,370.946032 485.746289,369.710032 C495.706956,367.763365 505.710956,366.073699 515.758289,364.641032 C527.267622,363.017032 538.833622,362.120365 550.456289,361.951032 C545.206289,379.023032 537.505289,395.047032 525.152289,408.172032 C512.871289,404.089032 471.734289,391.602032 460.863289,396.834032 C459.589289,397.447032 459.360289,397.942032 458.968289,399.245032 C459.417289,400.764032 459.839289,401.769032 461.271289,402.596032 C464.299289,404.346032 481.203289,407.456032 486.060289,408.740032 C496.047289,411.379032 506.076289,414.379032 515.823289,417.799032 C512.627956,420.531032 509.372956,423.190365 506.058289,425.777032 C502.743622,428.363032 499.372622,430.873699 495.945289,433.309032 C492.518622,435.743699 489.038622,438.100699 485.505289,440.380032 C481.972622,442.658699 478.390289,444.857365 474.758289,446.976032 C471.126956,449.094032 467.449956,451.129699 463.727289,453.083032 C460.003956,455.036365 456.238956,456.905032 452.432289,458.689032 C448.625622,460.473032 444.780622,462.171032 440.897289,463.783032 C437.014622,465.395032 433.097622,466.919032 429.146289,468.355032 C416.849289,472.842032 403.943289,476.049032 391.788289,480.819032 C384.909289,483.518032 378.451289,487.194032 371.866289,490.521032 C356.087289,498.492032 339.859289,503.061032 322.059289,501.555032 C306.756289,500.260032 290.776289,493.859032 278.624289,484.479032 C273.895289,480.829032 269.533289,476.333032 264.334289,473.355032 C255.954289,468.556032 246.936289,464.848032 238.341289,460.452032 C221.551289,451.865032 205.298289,439.614032 193.152289,425.189032 C178.330289,407.585032 169.980289,387.489032 165.531289,365.064032 C170.413289,366.957032 177.265289,370.328032 182.575289,369.708032 C183.363289,369.047032 183.778289,368.731032 183.880289,367.607032 C184.075289,365.480032 181.751289,363.245032 180.329289,361.971032 C175.653289,357.782032 169.466289,354.878032 163.913289,352.067032 C161.787289,328.435032 162.502289,306.017032 165.287289,282.489032 L201.029289,273.273032 C205.888289,271.978032 210.616289,270.015032 215.522289,268.944032 C223.390289,267.227032 231.180289,267.972032 239.001289,265.249032 C245.764289,262.894032 250.127289,258.110032 256.222289,254.871032 C260.355289,252.675032 264.783289,251.799032 268.638289,248.962032 C269.296956,248.483365 269.930956,247.974365 270.540289,247.435032 C271.150289,246.896365 271.732956,246.329365 272.288289,245.734032 C272.843622,245.138699 273.368956,244.518365 273.864289,243.873032 C274.360289,243.227032 274.823956,242.559032 275.255289,241.869032 C278.294289,236.937032 279.376289,231.020032 277.788289,225.403032 C275.630289,217.770032 269.009289,211.907032 262.230289,208.290032 C242.068289,197.532032 210.855289,195.909032 188.111289,195.505032 C207.818289,160.838032 245.669289,128.462032 284.460289,117.755032 C291.153289,115.907032 295.567289,116.899032 301.883289,119.166032 C303.307289,119.678032 304.611289,120.327032 306.136289,120.347032 C306.806289,119.149032 307.000289,118.877032 306.647289,117.451032 C305.414289,112.476032 298.804289,107.616032 294.864289,104.753032 C305.284289,104.040032 315.579289,104.044032 325.798289,106.610032 C328.660289,107.329032 331.536289,109.347032 334.435289,109.627032 C335.416289,109.722032 335.328289,109.567032 336.067289,109.024032 C336.811289,106.222032 334.505289,102.526032 333.122289,100.116032 C329.729289,94.205032 325.101289,88.978032 320.742289,83.763032 C337.417289,83.682032 353.939289,89.278032 367.648289,98.746032 C371.594289,101.470032 375.133289,104.613032 378.914289,107.535032 C414.583289,109.439032 440.420289,119.429032 470.395289,137.961032 Z"/><path fill="#FAC3B7" d="M528.803289,176.335032 C529.833289,160.836032 533.849289,145.028032 538.855289,130.373032 C548.098289,103.312032 565.922289,74.253032 592.424289,61.433032 C614.313289,50.843532 637.799289,52.877132 656.722289,68.486032 C659.509289,70.784032 665.032289,77.521032 667.980289,78.542032 L668.866289,77.694032 C668.873289,78.030032 668.871289,78.366032 668.887289,78.702032 C669.081289,82.629032 674.677289,96.947032 675.812289,103.098032 C680.757289,129.897032 677.075289,160.080032 663.625289,183.959032 C659.993289,190.407032 655.263289,196.548032 650.532289,202.237032 C649.493622,203.506365 648.427956,204.753032 647.335289,205.977032 C646.243289,207.201032 645.125289,208.401032 643.981289,209.577032 C642.837289,210.753032 641.668956,211.903699 640.476289,213.029032 C639.282956,214.155032 638.066289,215.255032 636.826289,216.329032 C635.586289,217.402365 634.323622,218.449032 633.038289,219.469032 C631.753622,220.488365 630.447289,221.480032 629.119289,222.444032 C627.791956,223.407365 626.444289,224.342032 625.076289,225.248032 C623.708956,226.154032 622.322622,227.030032 620.917289,227.876032 C619.512622,228.722699 618.089956,229.538699 616.649289,230.324032 C615.209289,231.109365 613.753289,231.863699 612.281289,232.587032 C610.808622,233.310365 609.321289,234.001699 607.819289,234.661032 C606.317289,235.320365 604.801622,235.947032 603.272289,236.541032 C601.743622,237.135699 600.202622,237.697365 598.649289,238.226032 C597.096622,238.754032 595.533289,239.248699 593.959289,239.710032 C592.384622,240.171365 590.801289,240.598699 589.209289,240.992032 C587.616622,241.386032 586.016289,241.745365 584.408289,242.070032 C576.746289,243.576032 568.120289,243.453032 560.764289,245.381032 C556.666289,233.292032 551.679289,222.227032 544.661289,211.542032 C546.092289,205.426032 547.297289,199.266032 549.085289,193.237032 C551.294289,185.788032 554.113289,178.451032 556.054289,170.934032 C556.886289,167.714032 558.072289,163.021032 556.296289,160.031032 C555.823289,159.840032 555.526289,159.687032 554.981289,159.649032 C548.236289,159.182032 533.837289,172.171032 528.803289,176.335032 Z"/><path fill="#313945" d="M387.172289,283.689032 C394.092289,283.246032 400.251289,283.741032 406.463289,286.978032 C415.094289,291.475032 420.553289,299.711032 423.337289,308.860032 C426.786289,320.197032 425.971289,333.312032 420.334289,343.820032 C415.481289,352.867032 408.471289,357.924032 398.743289,360.798032 C398.289289,360.894699 397.833289,360.980699 397.375289,361.056032 C396.917289,361.130699 396.457622,361.194699 395.996289,361.248032 C395.535622,361.300699 395.073622,361.342365 394.610289,361.373032 C394.146956,361.404365 393.683289,361.424365 393.219289,361.433032 C392.755289,361.441699 392.291289,361.439365 391.827289,361.426032 C391.363289,361.412699 390.899956,361.388032 390.437289,361.352032 C389.974622,361.316699 389.512956,361.270365 389.052289,361.213032 C388.591622,361.155032 388.132622,361.086365 387.675289,361.007032 C387.218622,360.927699 386.763622,360.837365 386.310289,360.736032 C385.857622,360.634699 385.407289,360.522365 384.959289,360.399032 C384.511956,360.276365 384.067622,360.143032 383.626289,359.999032 C383.184956,359.855032 382.747622,359.700365 382.314289,359.535032 C381.880289,359.370365 381.450622,359.195365 381.025289,359.010032 C380.599956,358.824032 380.178956,358.628365 379.762289,358.423032 C379.346289,358.217032 378.935622,358.001699 378.530289,357.777032 C378.124289,357.551699 377.723956,357.316699 377.329289,357.072032 C368.804289,351.774032 363.726289,342.448032 361.611289,332.840032 C359.010289,321.021032 360.617289,307.537032 367.301289,297.291032 C372.128289,289.892032 378.457289,285.509032 387.172289,283.689032 Z"/><path fill="#F2F2F4" d="M399.572289,302.135032 C400.693289,302.001032 401.774289,301.942032 402.889289,302.148032 C404.874289,302.515032 406.755289,303.890032 407.879289,305.544032 C409.219289,307.515032 409.540289,310.065032 409.094289,312.371032 C408.524289,315.320032 406.899289,316.920032 404.542289,318.610032 C403.324289,318.716032 402.068289,318.844032 400.858289,318.614032 C398.720289,318.207032 396.798289,316.690032 395.669289,314.859032 C394.446289,312.877032 394.112289,310.395032 394.684289,308.145032 C395.450289,305.132032 396.990289,303.702032 399.572289,302.135032 Z"/><path fill="#313945" d="M211.086289,283.694032 C216.643289,283.523032 221.080289,284.099032 225.901289,287.212032 C233.573289,292.168032 238.154289,301.309032 240.126289,310.000032 C242.782289,321.704032 241.082289,335.784032 234.585289,346.017032 C230.349289,352.689032 224.743289,356.334032 217.102289,358.058032 C211.677289,358.693032 206.693289,357.847032 201.982289,354.956032 C194.191289,350.175032 189.885289,341.783032 187.865289,333.125032 C185.041289,321.023032 186.591289,306.581032 193.384289,295.994032 C197.647289,289.352032 203.381289,285.397032 211.086289,283.694032 Z"/><path fill="#F2F2F4" d="M221.109289,302.187032 C221.890622,302.083699 222.675289,302.036365 223.463289,302.045032 C225.580289,302.070032 227.351289,302.927032 228.749289,304.520032 C230.280289,306.266032 230.954289,308.674032 230.779289,310.971032 C230.524289,314.322032 229.174289,316.447032 226.635289,318.536032 C225.726289,318.641032 224.820289,318.754032 223.902289,318.726032 C221.675289,318.656032 219.799289,317.654032 218.364289,315.956032 C216.883289,314.203032 216.293289,311.814032 216.565289,309.557032 C216.959289,306.286032 218.589289,304.165032 221.109289,302.187032 Z"/><path fill="#304359" d="M268.282289,367.827032 C277.628289,366.859032 289.742289,368.699032 297.245289,374.732032 C301.002289,377.753032 303.740289,382.002032 304.194289,386.871032 C304.691289,392.212032 302.472289,397.538032 299.119289,401.606032 C293.273289,408.699032 284.731289,411.993032 275.810289,412.858032 C266.448289,413.670032 256.330289,411.067032 248.897289,405.237032 C244.006289,401.401032 240.034289,395.923032 239.427289,389.592032 C239.002289,385.156032 240.280289,380.882032 243.187289,377.489032 C249.106289,370.581032 259.701289,368.642032 268.282289,367.827032 Z"/><path fill="#FAC3B7" d="M266.289289,376.803032 C273.083289,376.013032 281.326289,376.497032 287.657289,379.360032 C290.403289,380.602032 293.193289,382.567032 294.212289,385.538032 C294.949289,387.690032 294.554289,390.041032 293.512289,392.018032 C290.434289,397.858032 283.718289,400.733032 277.769289,402.597032 C277.509289,402.653032 277.250289,402.713032 276.990289,402.764032 C270.050289,404.131032 262.320289,402.316032 256.502289,398.361032 C253.105289,396.053032 249.487289,392.473032 248.905289,388.201032 C248.640289,386.249032 249.082289,384.370032 250.294289,382.807032 C253.664289,378.461032 261.152289,377.438032 266.289289,376.803032 Z"/><path fill="#304359" d="M318.341289,427.817032 C319.584289,427.640032 320.843289,427.652032 322.097289,427.626032 C335.249289,427.351032 350.100289,430.715032 359.804289,440.160032 C363.790289,444.039032 367.604289,449.757032 367.466289,455.508032 C367.411289,457.765032 366.530289,459.871032 364.796289,461.353032 C357.772289,467.355032 343.643289,462.948032 335.236289,462.025032 C326.504956,460.744365 317.728289,459.995699 308.906289,459.779032 C303.332289,459.676032 297.393289,460.171032 291.885289,459.515032 C289.902289,459.279032 287.952289,458.706032 286.261289,457.622032 C284.591289,456.551032 283.422289,455.069032 283.058289,453.089032 C282.425289,449.646032 284.490289,445.933032 286.515289,443.317032 C293.801289,433.907032 306.894289,429.067032 318.341289,427.817032 Z"/><path fill="#E1A39E" d="M316.235289,436.727032 C327.242289,436.111032 336.848289,436.598032 346.685289,442.052032 C350.802289,444.334032 355.691289,447.769032 356.906289,452.556032 C357.209289,453.753032 357.412289,454.262032 356.721289,455.366032 C351.449289,456.616032 342.985289,454.094032 337.604289,453.220032 C322.847289,451.385032 308.802289,451.093032 293.957289,450.996032 L293.451289,450.405032 C293.620289,449.602032 293.850289,448.977032 294.326289,448.300032 C299.351289,441.150032 308.123289,438.429032 316.235289,436.727032 Z"/><path fill="#313945" d="M406.858289,219.781032 C406.948289,219.769032 407.037289,219.751032 407.127289,219.744032 C417.364289,218.986032 429.545289,221.888032 437.458289,228.687032 C439.084289,230.084032 440.726289,231.896032 440.648289,234.192032 C440.588289,235.967032 439.698289,237.219032 438.382289,238.319032 C435.636289,238.871032 429.473289,235.596032 426.695289,234.581032 C414.106289,229.983032 403.599289,232.699032 391.890289,238.143032 C383.646289,241.512032 373.986289,244.135032 365.236289,241.089032 C361.419289,239.760032 358.362289,237.725032 356.652289,233.912032 C355.964289,232.375032 355.980289,231.342032 356.528289,229.784032 C360.062289,227.280032 368.128289,230.395032 372.738289,230.305032 C384.728289,230.071032 394.864289,221.451032 406.858289,219.781032 Z"/><path fill="#7A7BBE" d="M49.638289,284.971032 C55.660289,295.987032 59.656289,303.197032 70.236289,310.646032 C84.845289,320.933032 105.173289,326.650032 122.988289,323.621032 C121.667289,329.465032 119.602289,335.190032 117.772289,340.897032 C112.703289,356.704032 107.522289,373.618032 97.881289,387.350032 C94.117289,392.712032 84.020289,400.694032 82.185289,406.081032 C82.395289,407.449032 82.556289,407.370032 83.665289,408.238032 C85.079289,408.599032 85.957289,408.486032 87.359289,408.077032 C103.137289,403.480032 111.719289,387.439032 119.135289,374.040032 C122.127289,376.810032 125.015289,379.591032 127.754289,382.613032 C125.879289,384.418032 123.954289,386.219032 122.188289,388.131032 C120.882289,389.544032 119.072289,391.950032 119.319289,393.977032 C119.414289,394.752032 119.848289,394.888032 120.396289,395.364032 C125.847289,396.833032 133.172289,394.584032 138.759289,393.884032 C145.728289,399.433032 151.817289,406.581032 158.600289,412.493032 C164.002289,417.201032 170.553289,420.806032 175.554289,425.911032 C179.589289,430.031032 182.959289,434.890032 186.748289,439.245032 C191.691289,444.927032 197.473289,450.071032 203.423289,454.684032 C215.746289,464.238032 229.681289,470.912032 243.642289,477.653032 C245.553289,482.520032 247.603289,487.260032 250.331289,491.733032 C261.990289,510.853032 280.818289,525.581032 301.362289,534.112032 C304.885289,535.575032 308.419289,537.144032 312.139289,538.026032 C314.018289,538.472032 315.728289,538.927032 317.433289,537.872032 C316.391289,533.373032 305.701289,528.254032 301.781289,526.045032 C281.876289,514.827032 266.725289,501.061032 254.893289,481.469032 C261.899289,485.739032 268.057289,491.089032 274.625289,495.967032 C285.973289,504.393032 298.241289,509.160032 311.911289,512.177032 C320.213289,520.354032 325.566289,529.478032 335.147289,537.506032 C338.230289,540.090032 341.940289,542.794032 346.179289,542.345032 C357.698289,541.125032 387.185289,511.632032 396.156289,502.631032 C400.642289,498.130032 405.207289,492.269032 410.415289,488.666032 C414.989289,485.501032 426.212289,483.597032 432.094289,481.707032 C438.326956,479.697699 444.485622,477.481699 450.570289,475.059032 C458.320289,471.948032 465.873289,467.905032 473.216289,463.936032 C480.968289,459.746032 491.676289,451.516032 500.356289,450.792032 C508.409289,450.120032 515.233289,452.224032 521.450289,457.457032 C511.707289,458.009032 504.743289,459.507032 495.782289,463.645032 C482.618289,469.725032 471.028289,479.565032 459.162289,487.776032 C440.584289,500.632032 421.785289,512.681032 401.544289,522.776032 C396.369289,525.356032 378.269289,533.127032 376.695289,537.832032 C377.161289,538.491032 377.148289,538.702032 377.961289,538.978032 C381.857289,540.301032 389.959289,536.971032 393.663289,535.602032 C418.428289,526.446032 442.107289,511.408032 463.444289,495.989032 C475.051289,487.601032 486.894289,477.124032 500.015289,471.292032 C516.192289,464.100032 529.251289,470.142032 544.677289,476.089032 C574.059289,488.074032 616.137289,509.259032 636.949289,533.427032 C649.053289,547.482032 657.496289,563.251032 664.330289,580.392032 C666.286289,585.297032 669.002289,591.049032 668.433289,596.448032 C667.952289,601.012032 664.717289,604.653032 661.288289,607.427032 C648.280289,617.948032 627.547289,622.871032 611.086289,621.099032 C597.498289,619.637032 593.346289,615.719032 588.420289,603.220032 C586.526289,598.365365 584.544289,593.546699 582.474289,588.764032 C581.019289,585.463032 579.627289,582.251032 577.288289,579.452032 C574.671289,576.320032 571.302289,574.168032 567.693289,572.365032 C556.773289,566.911032 502.117289,547.893032 491.361289,547.390032 C489.700289,547.312032 488.707289,547.469032 487.464289,548.577032 L487.522289,549.882032 C491.523289,557.157032 501.902289,558.918032 508.517289,563.297032 L509.132289,563.708032 C515.297289,577.103032 527.475289,623.099032 526.180289,636.679032 C525.675289,641.964032 523.910289,645.286032 519.773289,648.650032 C508.407289,657.892032 491.671289,661.767032 477.570289,664.811032 C427.954289,675.520032 375.868289,676.732032 325.484289,671.189032 C311.264289,669.624032 269.033289,665.257032 260.262289,653.523032 C256.980289,649.132032 259.194289,642.476032 260.010289,637.554032 C260.368289,635.394032 260.705289,633.094032 260.210289,630.930032 C257.416289,618.740032 252.291289,606.892032 248.747289,594.864032 C242.786289,574.636032 238.859289,553.893032 235.808289,533.051032 C234.894289,526.809032 234.010289,520.472032 233.741289,514.164032 C233.555289,509.793032 233.929289,505.297032 233.374289,500.961032 C233.233289,499.864032 232.981289,498.982032 232.268289,498.101032 C231.712289,497.413032 231.871289,497.637032 230.872289,497.572032 C230.253289,498.012032 230.210289,497.998032 229.629289,498.666032 C228.395289,500.086032 227.625289,502.499032 226.993289,504.276032 C223.149289,515.080032 223.425289,525.617032 223.506289,536.915032 C217.419622,535.210365 211.367289,533.391365 205.349289,531.458032 C199.331289,529.524699 193.351956,527.478365 187.411289,525.319032 C181.469956,523.159699 175.571956,520.888699 169.717289,518.506032 C163.862622,516.124032 158.054956,513.632032 152.294289,511.030032 C146.533622,508.428032 140.824289,505.718365 135.166289,502.901032 C129.507622,500.083032 123.904622,497.159365 118.357289,494.130032 C112.809289,491.100699 107.320622,487.967365 101.891289,484.730032 C96.4626223,481.493365 91.0966223,478.155032 85.793289,474.715032 C60.385289,458.438032 20.272289,428.565032 13.752289,397.841032 C6.778289,364.977032 31.611289,312.329032 49.638289,284.971032 Z"/><path fill="#477598" d="M260.318289,681.962032 C266.801289,688.181032 275.439289,691.709032 283.915289,694.319032 C300.559289,699.443032 318.459289,702.331032 335.712289,704.452032 C383.896289,710.376032 431.701289,709.591032 479.208289,699.115032 C494.262289,695.796032 508.575289,692.243032 522.291289,684.955032 C525.089289,694.813032 525.481289,706.132032 526.281289,716.316032 C527.402289,730.606032 528.414289,744.961032 530.675289,759.124032 C533.469289,776.634032 541.034289,792.459032 545.098289,809.523032 L545.288289,810.337032 L545.125289,810.835032 C542.276289,819.263032 533.495289,824.998032 525.861289,828.744032 C511.538289,835.771032 489.573289,839.456032 474.185289,834.059032 C471.160289,832.997032 468.310289,831.478032 465.946289,829.291032 C456.423289,820.480032 446.025289,798.668032 440.220289,786.467032 C434.760289,776.158032 430.241289,765.372032 425.791289,754.600032 C423.611289,749.323032 421.700289,743.554032 418.984289,738.546032 C418.155289,737.017032 417.444289,736.395032 415.761289,735.943032 C408.322289,733.945032 397.734289,734.279032 389.922289,733.783032 C375.889289,732.892032 362.089289,731.622032 348.295289,728.822032 C344.145289,727.980032 332.373289,724.324032 328.946289,726.429032 C328.662289,727.150032 328.365289,727.334032 328.743289,728.092032 C330.849289,732.317032 345.424289,736.535032 350.054289,738.129032 C339.782289,744.343032 312.768289,763.519032 306.163289,772.119032 C304.771289,773.930032 303.550289,775.729032 303.817289,778.093032 C305.111289,779.669032 307.081289,779.126032 308.672289,780.260032 C310.336289,789.903032 311.627289,808.965032 311.591289,819.003032 C309.921289,820.367699 308.121622,821.532032 306.192289,822.496032 C284.757289,833.103032 244.539289,828.733032 222.262289,821.005032 C217.274289,808.486032 212.896289,780.560032 212.800895,767.301032 C212.762289,761.347032 213.239289,755.591032 214.907289,749.856032 C221.381289,727.587032 244.056289,698.536032 260.318289,681.962032 Z"/><path fill="#FAC3B7" d="M125.800289,203.372032 C109.227289,188.262032 97.937289,161.805032 94.428289,139.993032 C89.486289,109.269032 95.626289,75.359032 114.087289,49.974932 C127.708289,31.245432 147.441289,18.217632 170.489289,14.697732 C171.682622,14.5112654 172.879956,14.3546654 174.081289,14.227932 C175.281956,14.101132 176.485289,14.004332 177.691289,13.937532 C178.897289,13.870732 180.104289,13.834032 181.312289,13.8263246 C182.520289,13.8207654 183.727622,13.8441987 184.934289,13.897732 C186.140956,13.9512654 187.345289,14.034832 188.547289,14.148432 C189.749956,14.262032 190.948956,14.4054987 192.144289,14.578832 C193.339622,14.7521654 194.529956,14.9551654 195.715289,15.187832 C196.900622,15.420432 198.079289,15.6824654 199.251289,15.973932 C200.423289,16.265332 201.587289,16.585732 202.743289,16.935132 C203.899956,17.2845987 205.046956,17.6625987 206.184289,18.069132 C207.321622,18.475732 208.447956,18.9103987 209.563289,19.373132 C210.679289,19.8358654 211.782622,20.3260987 212.873289,20.843832 C213.964622,21.3615654 215.042289,21.9061654 216.106289,22.477632 C217.170956,23.0490987 218.220289,23.6466987 219.254289,24.270432 C220.288289,24.8941654 221.306289,25.5432654 222.308289,26.217732 C223.310289,26.8922654 224.294956,27.5912987 225.262289,28.314832 C252.139289,48.076632 260.766289,77.518032 265.667289,109.001032 C251.801289,115.679032 239.032289,123.510032 226.570289,132.528032 C226.455289,110.299032 221.928289,86.420032 210.073289,67.325032 C201.616289,53.702432 189.145289,43.549732 173.312289,39.966232 C160.185289,36.995232 145.428289,39.370632 134.076289,46.674432 C127.912289,50.640032 121.973289,55.568032 120.361289,63.064032 C120.622289,63.005032 120.884289,62.952032 121.143289,62.887032 C125.141289,61.886032 130.113289,57.772032 133.854289,55.748032 C148.382289,47.887032 166.266289,47.245932 180.861289,55.307032 C196.867289,64.148032 205.365289,79.974032 210.189289,97.023032 C214.314289,111.601032 215.548289,126.584032 215.580289,141.668032 C198.566289,158.200032 185.466289,174.814032 173.967289,195.590032 C160.381289,196.781032 144.498289,196.633032 131.684289,201.647032 L125.800289,203.372032 Z"/><path fill="#F2F2F4" d="M125.800289,203.372032 C109.227289,188.262032 97.937289,161.805032 94.428289,139.993032 C89.486289,109.269032 95.626289,75.359032 114.087289,49.974932 C127.708289,31.245432 147.441289,18.217632 170.489289,14.697732 C171.682622,14.5112654 172.879956,14.3546654 174.081289,14.227932 C175.281956,14.101132 176.485289,14.004332 177.691289,13.937532 C178.897289,13.870732 180.104289,13.834032 181.312289,13.8263246 C182.520289,13.8207654 183.727622,13.8441987 184.934289,13.897732 C186.140956,13.9512654 187.345289,14.034832 188.547289,14.148432 C189.749956,14.262032 190.948956,14.4054987 192.144289,14.578832 C193.339622,14.7521654 194.529956,14.9551654 195.715289,15.187832 C196.900622,15.420432 198.079289,15.6824654 199.251289,15.973932 C200.423289,16.265332 201.587289,16.585732 202.743289,16.935132 C203.899956,17.2845987 205.046956,17.6625987 206.184289,18.069132 C207.321622,18.475732 208.447956,18.9103987 209.563289,19.373132 C210.679289,19.8358654 211.782622,20.3260987 212.873289,20.843832 C213.964622,21.3615654 215.042289,21.9061654 216.106289,22.477632 C217.170956,23.0490987 218.220289,23.6466987 219.254289,24.270432 C220.288289,24.8941654 221.306289,25.5432654 222.308289,26.217732 C223.310289,26.8922654 224.294956,27.5912987 225.262289,28.314832 C252.139289,48.076632 260.766289,77.518032 265.667289,109.001032 C251.801289,115.679032 239.032289,123.510032 226.570289,132.528032 C226.455289,110.299032 221.928289,86.420032 210.073289,67.325032 C201.616289,53.702432 189.145289,43.549732 173.312289,39.966232 C160.185289,36.995232 145.428289,39.370632 134.076289,46.674432 C127.912289,50.640032 121.973289,55.568032 120.361289,63.064032 C120.326289,63.227032 120.305289,63.394032 120.256289,63.553032 C119.432289,66.248032 116.849289,69.223032 115.425289,71.730032 C113.113289,75.804032 111.137289,79.992032 109.310289,84.302032 C97.246289,112.767032 99.727289,144.525032 112.556289,172.184032 C115.545289,178.629032 118.953289,185.118032 123.225289,190.813032 C125.968289,194.467032 129.172289,197.837032 131.684289,201.647032 L125.800289,203.372032 Z"/><path fill="#FAC3B7" d="M764.858289,544.322032 C765.605289,544.205032 765.378289,544.217032 766.061289,544.190032 C785.634289,543.412032 804.638289,551.080032 818.819289,564.520032 C834.705289,579.576032 843.859289,598.673032 844.388289,620.571032 C837.047289,602.697032 823.024289,586.829032 805.987289,577.579032 C793.925289,571.030032 779.193289,567.481032 765.739289,571.520032 C756.222289,574.377032 747.686289,581.210032 743.022289,590.004032 C730.292289,614.005032 746.108289,644.359032 755.975289,666.747032 C760.743289,677.564032 765.540289,688.432032 768.927289,699.778032 C776.623289,725.566032 776.295289,752.723032 763.196289,776.774032 C750.370289,800.323032 727.363289,816.933032 701.847289,824.406032 C667.861289,834.360032 633.172289,826.775032 602.688289,810.256032 C595.958956,806.506032 589.511289,802.322699 583.345289,797.706032 C573.439289,790.295032 544.363289,765.718032 541.677289,754.436032 C540.652289,750.132032 540.551289,745.449032 540.197289,741.046032 C539.496289,732.341032 539.036289,723.558032 537.781289,714.912032 C553.007289,734.374032 570.964289,753.529032 590.226289,769.010032 C615.748289,789.522032 645.556289,805.110032 679.292289,801.300032 C698.824289,799.095032 716.572289,789.812032 728.750289,774.274032 C736.394289,764.521032 740.827289,753.362032 742.641289,741.132032 C749.440289,695.290032 717.371289,660.247032 712.071289,616.462032 C709.924289,598.724032 712.898289,580.154032 724.217289,565.851032 C734.426289,552.950032 748.739289,546.167032 764.858289,544.322032 Z"/><path fill="#F2F2F4" d="M180.914289 208.347032C198.806289 207.868032 216.797289 208.510032 234.456289 211.679032 244.056289 213.402032 258.856289 216.512032 264.634289 225.280032 266.097289 227.502032 266.991289 230.013032 266.278289 232.664032 265.158289 236.832032 260.797289 239.343032 257.258289 241.244032 256.541289 237.460032 255.780289 234.438032 253.499289 231.217032 245.917289 220.514032 229.709289 216.308032 217.446289 214.436032 211.851289 213.582032 187.281289 211.449032 183.723289 214.995032 182.836289 215.879032 182.739289 216.093032 182.718289 217.322032 186.790289 220.649032 226.083289 220.507032 242.285289 232.660032 244.763289 234.519032 246.842289 236.985032 247.238289 240.151032 247.572289 242.815032 246.699289 245.510032 245.046289 247.596032 240.517289 253.313032 231.909289 255.133032 225.080289 256.127032 225.611289 253.979032 226.094289 251.803032 226.078289 249.576032 226.046289 245.172032 223.728289 241.017032 220.655289 237.990032 210.465289 227.953032 190.164289 225.288032 176.585289 225.531032 172.342289 225.607032 168.436289 225.915032 165.349289 229.089032 165.953289 230.326032 166.421289 230.875032 167.749289 231.351032 171.656289 232.749032 176.466289 232.914032 180.564289 233.452032 189.787289 234.663032 204.773289 237.078032 212.085289 242.777032 214.306289 244.508032 215.632289 246.709032 215.903289 249.532032 216.124289 251.838032 215.233289 253.891032 213.686289 255.574032 211.088289 258.403032 207.287289 260.074032 203.709289 261.303032 194.483289 264.472032 184.495289 265.470032 174.995289 267.602032 164.817289 269.887032 150.495289 274.267032 140.414289 275.160032 136.136289 275.539032 131.857289 275.692032 127.572289 275.355032 124.310289 275.098032 120.420289 274.254032 117.182289 274.586032 116.145289 274.693032 116.036289 274.679032 115.359289 275.506032 115.417289 275.825032 115.416289 276.160032 115.533289 276.462032 117.558289 281.679032 128.479289 284.268032 133.255289 285.837032 131.313956 286.195699 129.356622 286.409699 127.383289 286.479032 113.542289 287.079032 99.349289 281.670032 89.246289 272.238032 84.926289 268.205032 80.733289 262.921032 80.6481725 256.743032 80.594289 252.719032 82.577289 249.897032 85.286289 247.078032 104.087289 227.511032 127.434289 214.027032 154.525289 210.052032 163.281289 208.767032 172.083289 208.593032 180.914289 208.347032ZM678.095289 631.413032C678.548289 631.577032 678.721289 631.613032 679.161289 631.932032 681.712289 633.786032 684.036289 637.038032 686.036289 639.464032 697.307289 653.141032 705.911289 669.404032 709.308289 686.909032 711.669289 699.077032 710.966289 711.671032 703.844289 722.129032 702.517289 717.295032 702.168289 712.246032 700.831289 707.411032 698.929289 700.533032 693.656289 685.683032 687.097289 681.942032 685.094289 682.962032 686.415289 687.049032 686.896289 688.851032 690.922289 703.910032 696.645289 723.082032 689.106289 738.112032 687.785289 740.746032 686.070289 742.776032 683.240289 743.734032 680.597289 743.064032 681.221289 739.266032 681.010289 736.944032 679.774289 723.382032 674.286289 704.286032 664.383289 694.428032 663.126289 693.178032 661.461289 691.609032 659.587289 691.628032 659.339289 692.438032 659.217289 692.944032 659.370289 693.798032 659.963289 697.125032 662.027289 701.003032 663.149289 704.244032 665.176622 710.156032 666.895622 716.156032 668.306289 722.244032 669.646289 728.875032 672.141289 739.737032 668.866289 746.064032 667.960289 747.815032 666.532289 749.122032 664.618289 749.670032 654.537289 752.557032 643.522289 722.511032 640.065289 715.340032 637.435289 709.886032 634.520289 704.445032 631.011289 699.503032 626.405289 693.014032 620.825289 688.073032 613.805289 684.346032 605.616289 690.299032 600.163289 701.533032 589.863289 704.594032 587.977289 705.155032 585.153289 705.069032 583.450289 703.970032 582.050289 703.065032 581.272289 701.922032 580.966289 700.306032 578.758289 688.655032 600.869289 660.403032 608.200289 650.315032 615.047289 652.313032 621.744289 653.691032 628.911289 653.601032 647.164289 653.371032 665.463289 644.324032 678.095289 631.413032ZM223.590289 854.325032C232.024289 852.962032 239.313289 856.290032 247.417289 857.922032 268.534289 862.173032 291.925289 861.557032 312.270289 854.329032 315.919289 861.335032 318.996289 872.421032 317.063289 880.269032 315.547289 886.424032 310.166289 890.965032 304.923289 894.083032 286.526289 905.023032 249.162289 913.340032 227.847289 913.716032 225.326289 913.760032 221.341289 914.246032 219.011289 913.427032 217.776289 912.993032 217.137289 912.363032 216.627289 911.155032 210.198289 895.922032 228.663289 887.285032 230.768289 879.571032 230.845289 879.286032 230.900289 878.996032 230.966289 878.709032 230.150289 878.491032 229.343289 878.240032 228.487289 878.307032 221.774289 878.832032 215.119289 884.529032 211.261289 889.751032 206.040289 896.817032 204.847289 904.015032 206.067289 912.565032 200.910289 911.728032 195.627289 911.026032 190.582289 909.658032 187.640289 908.860032 184.493289 907.902032 182.982289 905.023032 181.616289 902.422032 182.101289 899.438032 182.840289 896.730032 186.554289 883.108032 199.963289 875.434032 201.411289 870.249032L200.850289 869.584032C196.338289 869.478032 190.311289 872.941032 186.715289 875.581032 177.917289 882.041032 173.724289 891.130032 172.147289 901.710032 169.249289 898.806032 166.842289 895.517032 166.321289 891.341032 165.677289 886.181032 168.410289 881.184032 171.561289 877.300032 184.069289 861.887032 204.684289 856.153032 223.590289 854.325032ZM553.451289 847.569032C553.621289 847.721032 553.794289 847.870032 553.961289 848.026032 561.279289 854.865032 568.541289 875.748032 568.600898 885.875032 568.646289 893.841032 566.089289 901.028032 560.334289 906.674032 555.940289 910.986032 547.310289 916.630032 541.011289 916.539032 540.012289 916.110032 539.608289 915.551032 539.008289 914.675032 532.210289 904.744032 536.696289 893.447032 538.366289 882.868032 538.551289 881.702032 538.524289 881.260032 537.772289 880.309032L536.511289 880.209032C533.681289 881.599032 531.206289 885.329032 529.732289 888.112032 524.125289 898.698032 526.023289 908.808032 529.399289 919.737032 521.357289 920.730032 508.416289 922.394032 501.091289 918.586032 496.202289 916.045032 494.316289 911.457032 492.696289 906.519032 491.421289 896.800032 494.772289 890.006032 497.372289 880.970032L496.784289 880.006032C495.739289 879.836032 495.311289 879.887032 494.293289 880.314032 489.329289 882.396032 485.409289 889.332032 483.684289 894.265032 480.919289 902.174032 482.929289 909.275032 486.392289 916.525032 480.988289 914.835032 475.921289 912.865032 471.992289 908.551032 468.064289 904.238032 466.655289 898.368032 467.113289 892.649032 468.068289 880.738032 476.751289 869.938032 485.550289 862.551032 489.075289 863.282032 492.647289 863.919032 496.230289 864.288032 516.364289 866.363032 537.713289 860.231032 553.451289 847.569032Z"/><path fill="#7A7BBE" d="M523.832289 658.546032C524.371289 659.058032 524.256289 658.863032 524.610289 659.589032 525.998289 662.436032 525.958289 667.542032 524.632289 670.434032 521.809289 676.593032 512.517289 679.299032 506.625289 681.512032 494.330289 686.129032 481.154289 688.797032 468.268289 691.145032 420.928289 699.771032 381.112289 698.916032 333.748289 693.719032 315.565289 691.723032 290.499289 688.257032 273.849289 680.695032 272.691289 680.035032 271.310289 679.266032 270.393289 678.296032 268.463289 676.253032 269.027289 672.939032 269.154289 670.380032 275.309289 672.256032 281.457289 674.240032 287.745289 675.628032 346.243289 688.545032 472.345289 691.216032 523.832289 658.546032ZM66.784289 257.513032C67.819289 259.568032 67.783289 262.253032 68.466289 264.494032 71.204289 273.486032 76.127289 280.100032 83.587289 285.763032 97.367289 296.223032 115.170289 302.942032 132.551289 300.546032 131.153289 304.170032 129.924289 308.344032 127.855289 311.636032 126.389289 313.969032 125.362289 314.384032 122.776289 315.012032L122.039289 315.109032 121.283289 315.220032C105.612289 317.418032 86.921289 311.987032 74.405289 302.439032 66.377289 296.315032 58.699289 286.851032 57.558289 276.449032 56.718289 268.794032 62.259289 262.971032 66.784289 257.513032Z"/><path fill="#477598" d="M312.508289,827.693032 L312.820289,828.000032 C313.688289,830.979032 314.229289,836.125032 312.726289,838.919032 C310.482289,843.091032 304.742289,844.659032 300.466289,845.752032 C280.521289,850.853032 245.607289,850.709032 227.361289,839.790032 C225.684289,836.811032 224.985289,832.904032 224.073289,829.597032 C230.151289,831.373032 236.049289,833.341032 242.287289,834.533032 C263.126289,838.517032 294.324289,839.987032 312.508289,827.693032 Z"/><path fill="#7A7BBE" d="M672.822289,607.460032 C673.734289,608.294032 673.948289,608.946032 674.160289,610.125032 C674.944289,614.497032 673.278289,618.028032 670.774289,621.510032 C663.140289,632.128032 648.241289,639.031032 635.600289,640.946032 C625.147289,642.529032 613.065289,641.169032 604.394289,634.746032 C601.849289,632.182032 599.719289,629.562032 597.629289,626.618032 C604.596289,629.093032 612.340289,630.062032 619.712289,629.963032 C641.197289,629.674032 657.864289,622.694032 672.822289,607.460032 Z"/><path fill="#477598" d="M549.441289,821.022032 C551.122289,822.756032 551.553289,827.400032 552.075289,829.769032 L551.913289,830.207032 C551.553289,831.205032 551.201289,832.219032 550.710289,833.163032 C546.542289,841.186032 535.501289,846.769032 527.311289,849.487032 C512.757289,854.318032 492.238289,856.374032 478.084289,849.225032 C475.964289,846.893032 474.575289,844.103032 473.076289,841.356032 C474.872956,841.880699 476.686956,842.334699 478.518289,842.718032 C480.350289,843.101365 482.193956,843.413032 484.049289,843.653032 C485.905289,843.893032 487.767956,844.060365 489.637289,844.155032 C491.505956,844.250365 493.375622,844.272699 495.246289,844.222032 C516.259289,843.675032 534.890289,836.300032 549.441289,821.022032 Z"/><path fill="#F2F2F4" d="M385.862289,495.653032 L386.126289,495.836032 C385.426289,498.692032 350.777289,527.302032 346.593289,529.858032 C343.505289,527.709032 340.576289,525.461032 337.680289,523.059032 C334.379289,520.147032 331.378289,516.850032 328.313289,513.692032 C349.577289,513.377032 367.398289,505.327032 385.862289,495.653032 Z"/></g></svg>