<?xml version="1.0" encoding="UTF-8" standalone="no"?><!DOCTYPE svg PUBLIC "-//W3C//DTD SVG 1.1//EN" "http://www.w3.org/Graphics/SVG/1.1/DTD/svg11.dtd"><svg width="100%" height="100%" viewBox="0 0 3764 3615" version="1.1" xmlns="http://www.w3.org/2000/svg" xmlns:xlink="http://www.w3.org/1999/xlink" xml:space="preserve" xmlns:serif="http://www.serif.com/" style="fill-rule:evenodd;clip-rule:evenodd;stroke-linejoin:round;stroke-miterlimit:2;"><rect id="Artboard1" x="0" y="-0" width="3763.35" height="3614.29" style="fill:none;"/><path d="M2315.56,21.654c5.1,-0.511 10.208,-0.911 15.325,-1.2c5.117,-0.291 10.237,-0.471 15.362,-0.537c5.125,-0.067 10.249,-0.023 15.371,0.133c5.125,0.156 10.243,0.421 15.354,0.796c5.112,0.378 10.212,0.867 15.3,1.467c5.092,0.597 10.167,1.305 15.225,2.125c5.059,0.819 10.098,1.748 15.117,2.787c5.02,1.039 10.014,2.186 14.983,3.442c4.97,1.252 9.91,2.614 14.821,4.083c4.909,1.469 9.784,3.046 14.625,4.729c4.842,1.681 9.645,3.465 14.409,5.354c4.766,1.889 9.488,3.882 14.166,5.98c4.675,2.094 9.304,4.288 13.888,6.583c4.583,2.297 9.114,4.692 13.591,7.183c4.478,2.492 8.9,5.081 13.267,7.767c4.367,2.683 8.672,5.461 12.917,8.333c111.721,76.546 156.812,195.034 180.45,323.092c60.312,-6.608 137.6,-13.783 190.146,20.475c19.466,-41.713 40.516,-71.767 83.191,-92.458c51.084,-24.767 122.738,-24.496 175.559,-5.346c50.633,18.358 80.404,50.941 102.741,98.837c13.859,-25.437 30.196,-50.391 55.154,-66.25c14.688,-9.329 31.492,-14.129 48.684,-15.941c38.783,-4.096 80.696,1.541 119.546,4.425c51.587,3.833 104.987,6.12 155.72,16.658c30.725,6.383 56.675,15.421 74.446,43.137c9.196,14.346 10.629,28.596 11.725,45.255c3.825,58.004 -1.241,124.629 -1.362,183.649c-0.145,156.148 -1.379,312.285 -3.704,468.413l-8.588,1733.63c-0.397,157.525 -1.646,315.043 -3.746,472.554l-0.496,114.121c-0.095,33.85 1.388,67.684 -5.391,101.021c-1.775,8.738 -7.042,14.396 -13.017,20.704c-22.442,23.683 -54.167,42.925 -87.412,43.721c-49.213,1.179 -266.938,-35.608 -312.942,-53.308c-18.488,-7.113 -31.958,-17.538 -46.208,-31.034c-35.642,18.829 -58.992,15.4 -97.571,9.921c-46.934,-6.666 -179.6,-22.658 -218.388,-42.05c-18.437,-9.221 -29.275,-21.579 -41.375,-37.604c-11.046,3.875 -22.075,7.154 -33.75,8.325c-55.912,5.588 -224.2,-22.283 -278.025,-42.429c-17.487,-6.542 -31.104,-15.325 -45.454,-27.113c-31.442,10.359 -58.267,11.146 -90.992,7.813c-47.783,-4.867 -171.175,-19.263 -209.629,-40.284c-13.362,-7.304 -23.287,-19.937 -32.741,-31.562c-11.259,3.821 -22.546,6.762 -34.48,7.292c-28.85,1.271 -58.391,-5 -86.758,-9.709c-42.342,-6.961 -84.633,-14.212 -126.875,-21.754c-32.167,-5.754 -65.287,-13.367 -97.962,-14.737c12.358,9.67 28.183,15.35 42.029,22.683c41.283,21.863 81.287,53.446 98.683,98.342c10.138,26.162 11.558,56.229 -0.533,81.979c-12.842,27.35 -36.104,43.229 -63.913,52.617c-94.954,32.066 -259.783,10.129 -347.496,-33.371c-38.775,-19.234 -75.212,-47.475 -88.841,-90.229c-11.188,-35.075 -1.65,-68.401 14.566,-99.842c-6.6,-6.863 -15.85,-16.304 -17.645,-25.892c-4.759,-25.404 3.687,-57.287 7.4,-82.533c8.045,-54.729 10.054,-119.075 -6.146,-172.634c-1.517,-5.008 -1.688,-5.145 -6.134,-7.454l-1.887,1.038c-7.075,3.883 -12.196,51.937 -15.05,62.546c-19.013,70.679 -40.096,168.841 -81.442,229.121c-7.275,10.612 -16.737,19.466 -25.883,28.437c43.575,23.029 89.008,52.633 106.771,101.267c10.246,28.058 10.946,64.708 -2.759,91.525c-15.087,29.516 -46.475,48 -77,58.104c-98.337,32.554 -224.362,14.671 -315.725,-31.054c-47.15,-23.596 -98.145,-61.609 -115.016,-113.904c-17.538,-54.355 1.058,-110.05 26.258,-158.546c-25.067,-38.134 -1.908,-92.05 10.767,-130.838c6.505,-19.903 12.415,-39.982 17.729,-60.237c7.946,-30.263 12.533,-59.079 12.717,-90.417c-12.85,12.813 -24.513,26.742 -37.675,39.279c-64.125,61.071 -139.584,106.438 -226.525,125.784c-98.355,21.887 -207.071,6.058 -292.338,-48.75c-76.904,-49.434 -121.312,-123.384 -140.85,-211.28c-26.967,-138.808 18.063,-248.529 78.258,-369.583c36.763,-73.929 89.825,-171.496 60.621,-256.071c-9.004,-26.062 -26.058,-46.983 -51.246,-58.796c-36.004,-16.887 -84.716,-13.587 -121.195,0.325c-97.892,37.334 -177.288,154.442 -182.98,257.596c-1.454,26.363 12.25,82.417 2.592,100.967c-2.542,4.879 -6.3,8.312 -11.829,9.437c-14.682,2.98 -32.265,-8.166 -43.262,-16.616c-33.32,-25.596 -48.649,-68.288 -54.287,-108.542c-13.423,-95.825 24.425,-189.821 82.027,-265.05c61.697,-80.579 149.759,-143.158 252.151,-156.571c71.246,-9.333 146.158,8.492 203.375,52.567c2.628,2.064 5.215,4.175 7.763,6.333c2.547,2.161 5.052,4.37 7.516,6.625c2.464,2.256 4.885,4.557 7.263,6.904c2.378,2.348 4.709,4.739 6.996,7.175c2.286,2.436 4.525,4.914 6.716,7.434c2.195,2.519 4.339,5.08 6.434,7.683c2.097,2.6 4.143,5.239 6.137,7.917c1.997,2.68 3.942,5.396 5.833,8.146c1.892,2.752 3.732,5.54 5.521,8.362c1.786,2.822 3.52,5.678 5.2,8.567c1.681,2.886 3.306,5.804 4.875,8.754c1.567,2.95 3.079,5.928 4.538,8.933c1.455,3.006 2.854,6.039 4.196,9.1c1.341,3.059 2.625,6.142 3.85,9.25c1.222,3.108 2.387,6.238 3.495,9.388c1.106,3.152 2.152,6.325 3.138,9.516c74.733,235.467 -155.004,430.509 -129.696,617.234c5.988,44.191 27.279,86.341 63.492,113.25c42.562,31.62 99.708,35.879 150.571,27.97c88.525,-13.766 168.537,-77.666 222.037,-147.104c25.25,-32.771 46.379,-68.337 70.8,-101.679c-5.662,-6.329 -11.608,-12.904 -16.312,-19.987c-17.684,-26.613 -11.605,-51.263 -5.405,-80.259c-5.962,-8.666 -11.087,-19.395 -14.333,-29.425c-5.529,-17.1 -5.862,-34.062 -2.696,-51.616c12.992,-71.971 90.729,-215.35 127.129,-283.896c-35.616,-2.308 -69.345,-11.292 -98.479,-32.467c-43.975,-31.962 -71.875,-80.971 -71.904,-135.987c-0.008,-19.696 5.85,-39.071 4.6,-58.859c-1.55,-24.583 -12.996,-48.008 -16.504,-72.42c-5.733,-39.921 -4.058,-77.075 21.217,-110.563c19.387,-25.687 59.3,-51.9 91.25,-56.579c-32.642,-32.508 -59.884,-64.483 -85.017,-103.263c-38.379,12.905 -75.792,30.3 -111.988,48.446c-10.829,5.429 -20.462,12.975 -31.475,18.025c-4.683,2.146 -9.987,3.734 -15.187,2.7c-5.283,-1.054 -8.663,-4.4 -11.183,-8.941c-2.088,-3.763 -2.234,-7.805 -0.655,-11.867c12.538,-32.258 115.759,-72.254 150.267,-85.975c-17.267,-28.213 -28.171,-59.883 -40.196,-90.558c-29.187,2.525 -60.133,10.312 -88.471,17.816c-23.6,6.254 -53.195,18.313 -77.708,16.854c-2.746,-3.212 -5.846,-6.566 -7.242,-10.654c-1.758,-5.141 -1.979,-9.9 0.78,-14.787c13.054,-23.121 134.037,-44.954 162.27,-50.813c-18.862,-60.679 -21.945,-118.616 -27.795,-181.066c-9.117,1.055 -18.257,1.811 -27.421,2.266c-9.167,0.453 -18.338,0.606 -27.513,0.459c-9.178,-0.148 -18.339,-0.596 -27.483,-1.346c-9.147,-0.75 -18.26,-1.8 -27.338,-3.15c-9.075,-1.35 -18.097,-2.996 -27.066,-4.938c-8.97,-1.944 -17.866,-4.179 -26.688,-6.704c-8.822,-2.528 -17.551,-5.342 -26.187,-8.442c-8.639,-3.102 -17.166,-6.484 -25.579,-10.145c-120.105,-52.046 -211.655,-162.996 -259.25,-282.93c-49.246,-124.104 -62.496,-279.337 -7.817,-403.991c36.221,-82.575 101.458,-151.279 186.304,-183.967c93.096,-35.867 195.55,-28.396 285.729,12.333c130.246,58.825 212.529,164.03 261.567,295.521c37.425,-33.237 84.712,-71.8 133.071,-87.058l-2.321,-3.258c-5.083,-7.013 -10.604,-13.555 -11.238,-22.571c-0.55,-7.825 3.334,-15.954 8.721,-21.446c22.317,-22.758 82.296,-33.888 113.021,-33.392c-5.512,-7.154 -11.392,-14.554 -14.842,-22.979c-3.858,-9.408 -6.862,-23.433 -1.82,-32.983c4.095,-7.759 11.229,-12.192 19.329,-15.079c66.475,-23.696 181.466,10.32 242.196,39.462c87.1,-14.383 190.87,-0.596 274.05,27.846c19.437,-142.346 60.345,-273.492 150.554,-387.95c73.704,-93.517 174.246,-161.063 293.879,-175.067Zm428.05,1558.59c112.875,45.004 217.537,107.783 323.696,166.321c9.487,-8.892 16.766,-21.613 24.116,-32.354c-73.704,-37.38 -145.97,-77.825 -219.17,-116.242c-31.571,-16.571 -65.021,-38.075 -98.859,-48.883c-8.837,11.616 -19.154,21.212 -29.783,31.158Z" style="fill:#313945;fill-rule:nonzero;"/><path d="M1597.46,610.013c90.616,-20.28 191.958,-3.35 277.066,30.9c10.738,4.325 27.238,12.954 35.571,0.191c7.45,-11.408 13.292,-93.629 17.742,-117.191c35.608,-188.484 150.096,-392.763 347.6,-445.138c4.761,-1.258 9.551,-2.399 14.371,-3.421c4.816,-1.022 9.655,-1.926 14.516,-2.712c4.864,-0.784 9.743,-1.448 14.638,-1.992c4.894,-0.544 9.8,-0.968 14.717,-1.271c4.916,-0.303 9.836,-0.485 14.758,-0.546c4.925,-0.061 9.849,-0.001 14.771,0.18c4.922,0.18 9.837,0.483 14.746,0.908c4.905,0.422 9.798,0.965 14.679,1.629c4.88,0.664 9.741,1.447 14.583,2.35c4.842,0.903 9.658,1.924 14.45,3.063c4.789,1.138 9.549,2.395 14.279,3.77c4.731,1.373 9.424,2.861 14.079,4.467c4.656,1.606 9.27,3.324 13.842,5.154c4.572,1.834 9.096,3.777 13.571,5.829c4.478,2.056 8.901,4.22 13.271,6.492c4.369,2.272 8.68,4.65 12.933,7.133c89.575,52.805 146.563,150.246 171.238,249.138c38.158,152.95 8.466,322.775 -73.309,456.762c-53.141,87.075 -140.625,163.721 -241.496,187.755c-15.641,3.725 -31.437,6.137 -47.358,8.275l-21.2,-40.809c3.083,-1.829 6.733,-2.729 10.217,-3.483c89.85,-19.429 162.825,-81.529 218.671,-151.896c10.979,-13.833 17.983,-32.954 29.916,-45.425c0.521,-0.55 1.121,-1.025 1.679,-1.533c49.617,-40.171 74.33,-154.913 80.646,-215.575c11.367,-109.25 -8.925,-234.746 -79.754,-322.109c-38.067,-46.954 -88.871,-77.72 -149.558,-83.9c-64.329,-6.545 -125.488,16.063 -174.692,56.95c-106.246,88.288 -152.192,234.571 -163.704,368.055c-2.796,32.37 -6.779,154.629 12.808,177.183c2.538,2.921 3.554,2.996 6.946,4.392c29.533,-20.475 33.608,-55.209 73.683,-77.213c-8.895,30.475 -41.133,108.979 -26.112,136.463c2.833,5.179 7.483,8.837 13.162,10.312c16.584,4.296 36.613,-6.583 51.409,-13.404c-8.546,30.496 -17.129,71.096 -0.059,100.208c14.05,23.959 33.896,44.546 48.088,68.592c3.908,6.692 7.711,13.442 11.408,20.25c3.697,6.811 7.286,13.678 10.767,20.6c3.48,6.925 6.85,13.901 10.108,20.929c3.261,7.031 6.41,14.11 9.446,21.237c3.039,7.128 5.964,14.303 8.775,21.525c2.811,7.22 5.507,14.482 8.088,21.788c2.583,7.306 5.05,14.65 7.4,22.033c2.35,7.384 4.583,14.803 6.7,22.259c2.116,7.452 4.115,14.937 5.995,22.454c1.884,7.517 3.646,15.061 5.288,22.633c1.644,7.575 3.168,15.172 4.571,22.792c1.403,7.619 2.686,15.26 3.85,22.921c1.164,7.661 2.205,15.339 3.125,23.033c0.922,7.694 1.722,15.4 2.4,23.117c0.678,7.719 1.233,15.447 1.666,23.183c0.437,7.736 0.749,15.478 0.938,23.225c-91.225,16.913 -191.338,30.388 -273.596,76.496c-6.737,3.775 -18.704,8.683 -22.783,15.158c-4.142,6.575 -4.938,11.713 -3.367,19.3c3.688,4.25 4.433,5.504 10.483,5.867c4.025,0.242 95.871,-37.421 110.775,-42.163c51.771,-16.475 123.7,-36.625 178.267,-36.579c-6.571,53.325 -13.55,105.121 -31.125,156.209c-76.146,-13.288 -157.629,-25.375 -234.804,-14.521c-9.125,1.279 -23.833,2.383 -31.1,8.141c-2.408,1.909 -2.713,4.292 -3.721,7.03c1.125,5.15 1.908,9.362 6.55,12.616c3.546,2.488 6.863,3.413 11.125,3.763c10.558,0.871 22.475,-1.538 33.158,-1.917c22.125,-0.779 44.73,-0.512 66.805,0.975c45.208,3.247 89.969,9.626 134.283,19.138c-70.708,138.629 -206.067,255.995 -348.238,317.8c-46.083,20.029 -95.041,32.237 -141.854,50.233c-37.554,14.437 -69.021,38.825 -107.829,51.508c-26.133,8.538 -51.946,12.567 -79.192,6.717c-55.966,-12.017 -107.541,-47.229 -161.666,-66.292c-97.546,-34.354 -210.004,-49.012 -300.988,-96.071c-50.537,-26.137 -124.9,-83.466 -147.721,-136.708c16.863,-4.654 57.567,-7.858 66.563,-23.587c1.571,-2.75 1.712,-6.284 1.079,-9.359c-1.062,-5.162 -5.35,-8.996 -9.987,-11.021c-21.288,-9.308 -61.871,4.346 -84.163,9.38c-15.217,-28.467 -27.296,-57.434 -38.587,-87.621c19.037,-0.484 93.258,9.496 100.758,4.146c3.671,-4.809 4.587,-6.963 4.846,-13.017c-6.017,-10.563 -15.967,-14.829 -27.329,-17.863c-28.35,-7.566 -58.863,-11.45 -88.192,-11.058c-51.813,-183.35 -32.288,-387.979 61.062,-555.233c57.505,-103.025 174.605,-237.625 291.255,-270.646c13.637,-3.858 50.162,-4.817 57.204,-15.608c-0.925,-7.967 -5.225,-11.888 -11.442,-16.721c-12.108,-9.417 -26.821,-14.375 -39.304,-23.021c46.862,-13.042 75.621,-15.767 123.775,-8.971c11.029,1.558 21.117,3.7 31.221,-2.254c2.396,-5.054 3.025,-7.329 1.262,-12.813c-6.929,-21.612 -34.408,-44.925 -49.85,-61.454c68.134,-1.379 140.854,8.759 198.438,47.509Z" style="fill:#f2f2f4;fill-rule:nonzero;"/><path d="M1510.35,1471.65c13.991,-0.962 28.075,-0.396 41.704,3.221c17.575,4.667 33.95,14.779 43.066,30.888c8.763,15.483 9.109,33.745 3.792,50.445c-12.612,39.625 -46.187,56.25 -80.358,73.455c0.855,3.775 1.757,7.54 2.704,11.295c8.029,31.655 23.233,52.471 51.454,69.155c36.417,0.958 75.338,-8.913 108.363,-24.075c44.312,-20.342 85.95,-54.538 103.195,-101.367c-12.358,-0.346 -28.441,2.079 -38.391,-6.738c-2.75,-2.433 -2.134,-3.45 -2.525,-6.82c2.871,-4.359 5.546,-6.367 10.25,-8.392c27.433,-11.8 73.162,-2.433 99.812,9.142c8.996,3.904 23.621,11.841 26.792,21.912c0.871,2.763 -0.6,3.608 -2.004,5.813c-18.204,8.57 -36.1,2.975 -54.809,-0.567c-4.683,22.046 -6.966,44.846 -11.125,67.062c-15.233,81.33 -41.229,167.071 -108.187,220.304c-7.267,4.742 -14.946,9.426 -22.863,12.992c-2.15,0.97 -4.322,1.885 -6.516,2.746c-2.195,0.861 -4.409,1.668 -6.642,2.421c-2.236,0.75 -4.489,1.444 -6.758,2.083c-2.27,0.639 -4.553,1.221 -6.85,1.746c-2.3,0.525 -4.61,0.993 -6.929,1.404c-2.323,0.409 -4.653,0.76 -6.992,1.054c-2.339,0.295 -4.685,0.531 -7.038,0.709c-2.35,0.175 -4.704,0.293 -7.062,0.354c-2.356,0.061 -4.713,0.062 -7.071,0.004c-2.355,-0.058 -4.708,-0.174 -7.058,-0.346c-2.353,-0.175 -4.699,-0.408 -7.038,-0.7c-2.339,-0.292 -4.669,-0.642 -6.991,-1.05c-2.323,-0.405 -4.634,-0.871 -6.934,-1.396c-2.297,-0.522 -4.582,-1.101 -6.854,-1.737c-2.269,-0.636 -4.522,-1.328 -6.758,-2.075c-2.236,-0.75 -4.452,-1.554 -6.646,-2.413c-65.054,-24.908 -105.129,-93.596 -132.371,-153.712c-26.55,-6.546 -52.179,-12.867 -76.65,-25.525c-18.496,-9.567 -54.321,-31.159 -59.971,-52.484c-0.194,-0.738 -0.347,-1.487 -0.458,-2.245c-0.108,-0.756 -0.174,-1.516 -0.196,-2.28c-0.025,-0.766 -0.004,-1.53 0.063,-2.291c0.063,-0.761 0.172,-1.517 0.325,-2.267c0.15,-0.75 0.343,-1.489 0.579,-2.216c0.236,-0.728 0.514,-1.439 0.833,-2.134c0.317,-0.697 0.672,-1.372 1.067,-2.025c0.397,-0.655 0.829,-1.286 1.296,-1.892c3.725,-4.816 6.212,-5.287 11.766,-6.595c16.709,3.4 29.734,24.008 42.059,35.183c37.316,33.842 125.712,40.596 173.791,37.892c-27.054,-26.455 -38.525,-53.155 -47.433,-89.554c-3.186,-0.173 -6.364,-0.457 -9.533,-0.855c-3.167,-0.397 -6.316,-0.904 -9.446,-1.52c-3.134,-0.614 -6.241,-1.339 -9.321,-2.176c-3.081,-0.833 -6.129,-1.773 -9.146,-2.82c-3.014,-1.048 -5.989,-2.198 -8.925,-3.45c-2.933,-1.256 -5.821,-2.613 -8.662,-4.071c-2.839,-1.456 -5.624,-3.01 -8.355,-4.663c-2.733,-1.652 -5.404,-3.398 -8.012,-5.237c-15.3,-11.013 -28.438,-26.496 -31.042,-45.75c-2.004,-14.842 2.413,-28.496 11.667,-40.142c25.837,-32.517 76.287,-43.462 115.342,-47.7Z" style="fill:#313945;fill-rule:nonzero;"/><path d="M1779.91,1656.01l1.2,1.283c-0.875,19.991 -21.404,78.437 -27.417,101.6c-26.258,-4.325 -53.187,-5.892 -79.454,-0.704c-56.033,11.071 -96.338,44.537 -127.108,90.896c-12.459,-8.355 -21.975,-17.596 -31.496,-29.021c-15.2,-22.084 -27.434,-44.934 -37.304,-69.834c8.144,0.289 16.291,0.411 24.441,0.367c97.559,-0.821 206.475,-22.875 277.138,-94.587Z" style="fill:#905a6d;fill-rule:nonzero;"/><path d="M1515.12,1502.91c0.292,-0.038 0.579,-0.092 0.871,-0.113c15.567,-1.067 35.442,-2.133 47.467,9.663c5.921,5.808 8.316,13.67 7.941,21.825c-0.741,16.258 -10.35,31.633 -22.495,41.987c-22.63,19.296 -48.913,21.283 -77.121,19.317c-13.409,-2.584 -25.275,-6.471 -37.146,-13.38c-8.708,-5.07 -19.433,-12.374 -21.033,-23.208c-1.05,-7.129 2.116,-14.112 6.416,-19.608c19.963,-25.504 64.821,-33.529 95.1,-36.483Z" style="fill:#fac3b7;fill-rule:nonzero;"/><path d="M1692.14,1783.98c16.213,-1.65 33.038,-0.679 49.346,-0.504c-4.562,9.441 -9.342,18.583 -14.992,27.429c-24.262,38.008 -51.029,60.692 -95.9,70.687c-11.725,0.059 -27.054,-0.954 -38.004,-5.27c-6.162,-2.425 -9.766,-5.521 -12.604,-11.621c-0.521,-8.659 2.142,-14.242 7.304,-21.025c24.779,-32.563 65.075,-53.796 104.85,-59.696Z" style="fill:#fac3b7;fill-rule:nonzero;"/><path d="M1837.07,1158.84c20.475,-1.713 43.6,5.716 60.292,17.258c31.608,21.85 50.692,61.1 56.642,98.3c6.291,39.375 0.625,87.358 -23.792,120.033c-18.163,24.304 -40.796,34.596 -69.925,38.9c-22.638,-0.421 -42.467,-4.008 -61.608,-17.116c-31.834,-21.8 -48.834,-61.23 -54.946,-98.213c-6.559,-39.671 -0.525,-84.942 23.866,-117.904c18.038,-24.375 40.013,-36.4 69.471,-41.258Z" style="fill:#313945;fill-rule:nonzero;"/><path d="M1869.8,1216.59c4.07,-0.096 8.27,-0.2 12.27,0.679c11.217,2.475 20.188,11.266 26.205,20.666c8.308,12.98 12.25,30.53 8.495,45.65c-2.87,11.542 -8.216,18.871 -18.37,24.88c-2.45,0.033 -4.905,0.02 -7.355,-0.05c-11.291,-0.326 -19.795,-4.955 -27.283,-13.384c-9.908,-11.158 -14.517,-26.546 -13.604,-41.337c1.008,-16.313 7.646,-26.546 19.642,-37.105Z" style="fill:#fff;fill-rule:nonzero;"/><path d="M1201.2,1252.35c19.845,-1.171 38.216,3.263 55.108,13.875c30.3,19.034 48.896,52.817 56.833,86.946c9.146,39.325 6.2,88.046 -16.05,122.746c-14.716,22.958 -35.691,34.675 -61.775,40.008c-19.241,1.775 -36.879,-0.412 -53.904,-10.329c-29.525,-17.192 -48.25,-51.187 -56.883,-83.35c-10.9,-40.633 -7.729,-89.938 14.487,-126.467c15.129,-24.87 34.554,-36.779 62.184,-43.429Z" style="fill:#313945;fill-rule:nonzero;"/><path d="M1239.88,1308.3c2.879,-0.133 5.687,-0.025 8.562,0.254c9.75,0.946 18.425,7.946 24.338,15.342c9.671,12.091 14.966,29.121 12.875,44.562c-1.646,12.15 -6.9,18.863 -16.463,26.038c-2.808,0.541 -5.583,0.991 -8.446,1.112c-9.541,0.404 -17.354,-3.012 -24.025,-9.85c-10.241,-10.496 -14.304,-26.191 -13.904,-40.533c0.446,-16.267 5.159,-26.192 17.063,-36.925Z" style="fill:#fff;fill-rule:nonzero;"/><path d="M1807.44,877.838c11.546,-0.4 23.079,-0.009 34.484,1.954c28.325,4.883 63.683,21.229 79.879,45.787c5.587,8.471 7.933,16.009 6.116,26.013c-2.033,2.533 -2.991,4.758 -6.225,5.812c-18.445,5.992 -49.454,-23.116 -67.27,-31.012c-66.425,-20.5 -103.625,21.746 -129.121,13.533c-4.284,-4.8 -5.754,-6.892 -6.909,-13.487c0.846,-4.305 1.6,-7.63 4.355,-11.146c17.116,-21.859 58.116,-34.617 84.691,-37.454Z" style="fill:#313945;fill-rule:nonzero;"/><path d="M1190.41,990.238c11.837,-0.871 26.212,0.208 36.4,6.879c6.812,4.458 14.146,13.125 14.85,21.562c0.458,5.492 -1.292,9.221 -4.946,13.2c-10.058,10.963 -43.167,2 -57.917,4.121c-36.233,5.212 -59.35,29.05 -80.279,56.608c-3.704,5.792 -7.896,12.259 -13.292,16.617c-4.187,3.383 -8.3,4.35 -13.587,3.7c-4.954,-3.867 -7.308,-6.15 -8.092,-12.871c-2.179,-18.746 10.759,-39.525 21.904,-53.833c26.292,-33.754 63.163,-50.8 104.959,-55.983Z" style="fill:#313945;fill-rule:nonzero;"/><path d="M3295.63,874.65c-1.359,-55.842 -0.571,-111.908 -0.484,-167.771c0.08,-53.737 -0.687,-108.175 2.375,-161.829c2.521,-44.071 19.492,-103.933 54.242,-133.521c30.892,-26.3 70.838,-20.258 108.038,-17.396c8.329,0.321 16.745,0.388 25.012,1.488c22.467,1.108 46.196,5.296 68.554,4.287c12.246,1.492 25.538,1.121 37.492,3.371c13.487,1.313 49.192,1.134 57.692,11.004c7.279,29.809 3.154,66.313 3.033,97.163c-0.158,54.908 -0.592,109.815 -1.3,164.721l-2.671,443.633l-10.937,1601.84l-125.592,-15.23c-12.333,-1.062 -28.667,0.642 -40.042,-3.783c-21.641,-1.192 -43.312,-4.004 -64.875,-6.242c-9.204,-0.725 -18.2,-1.212 -27.158,-3.604c-29.238,-3.691 -58.504,-7.958 -87.925,-9.754l0.083,-633.825l0.679,-216.096c0.184,-42.725 -0.866,-85.808 1.5,-128.454c-0.812,-49.133 -0.195,-98.383 -0.2,-147.529c-0.004,-31.304 -1.762,-63.946 1.238,-95.088c2.6,-27 13.721,-51.95 15.417,-79.47c-3.905,-9.546 -9.342,-17.696 -14.984,-26.25c-0.833,-160.338 -2.266,-321.38 0.813,-481.663Z" style="fill:#c5a07c;fill-rule:nonzero;"/><path d="M3295.63,874.65l3.85,-1.792c12.058,-17.445 27.329,-39.304 49.437,-44.037c16.379,-3.504 33.767,4.4 47,13.429c22.513,15.363 34.075,45.517 38.175,71.621c7.513,47.825 1.542,100.004 -0.179,148.342c-1.447,48.622 -1.768,97.25 -0.962,145.883c1.725,93.796 7.629,187.437 12.133,281.112c3.025,62.95 6.958,126.329 3.079,189.334c-2.133,34.571 -5.933,74.441 -26.979,103.395c-7.892,10.855 -17.771,19.334 -31.417,21.255c-12.329,1.733 -26.846,-2.779 -36.575,-10.404c-13.841,-10.851 -18.254,-28.538 -19.646,-45.292c-1.52,-18.321 3.413,-47.738 -8.266,-62.479c-11.704,0.308 -22.375,13.466 -31.934,19.633c-0.812,-49.133 -0.195,-98.383 -0.2,-147.529c-0.004,-31.304 -1.762,-63.946 1.238,-95.088c2.6,-27 13.721,-51.95 15.417,-79.47c-3.905,-9.546 -9.342,-17.696 -14.984,-26.251c-0.833,-160.337 -2.266,-321.379 0.813,-481.662Z" style="fill:#7a7bbe;fill-rule:nonzero;"/><path d="M3379.01,2692.78l4.271,-1.391c2.179,-13.23 -0.371,-27.638 -0.459,-41.105l0.088,-99.054c0.478,-86.841 1.728,-173.672 3.75,-260.491c0.796,-50.238 -1.675,-368.584 19.412,-392.575c7.65,12.375 8.346,34.691 8.734,49.07c1.108,41.046 -2.325,82.505 -2.8,123.6l-4.063,330.475l-0.208,198.346c0.029,30.892 3.512,66.546 -1.567,96.729c-9.204,-0.725 -18.2,-1.212 -27.158,-3.604Z" style="fill:#8d6e59;fill-rule:nonzero;"/><path d="M3459.8,394.133c8.329,0.321 16.745,0.388 25.012,1.488c2.514,131.303 3.356,262.617 2.525,393.942c0.104,57.283 6.217,167.016 -7.437,217.058c-5.821,-13.471 -7.609,-26.058 -8.963,-40.567c-9.421,-100.808 -6.683,-202.716 -9.487,-303.804c-2.25,-64.322 -3.491,-128.665 -3.721,-193.029c0.004,-24.333 -2.259,-51.1 2.071,-75.088Z" style="fill:#8d6e59;fill-rule:nonzero;"/><path d="M3505.6,2385.49c8.588,50.866 6.338,105.404 6.3,156.891c-0.041,54.642 0.517,109.4 -0.812,164.029c-12.333,-1.062 -28.667,0.642 -40.042,-3.783l13.534,-0.313c0.779,-0.829 1.875,-1.445 2.341,-2.487c2.779,-6.204 0.238,-57.362 0.367,-67.5c0.725,-57.837 2.15,-196.979 18.312,-246.837Z" style="fill:#8d6e59;fill-rule:nonzero;"/><path d="M3553.37,399.908c12.246,1.492 25.538,1.121 37.492,3.371c-4.017,0.404 -7.858,1.117 -11.813,1.938c-4.37,17.491 -0.179,51.121 -0.05,70.746c0.405,61.15 2.53,124.741 -6.737,185.254c-11.654,-34.25 -10.367,-71.242 -11.6,-107.004c-1.592,-46.113 -1.963,-91.955 -2.871,-138.042c-0.137,-6.917 0.679,-11.358 -4.421,-16.263Z" style="fill:#8d6e59;fill-rule:nonzero;"/><path d="M3534.74,1224.01c4.242,3.47 5.721,5.879 6.492,11.458c5.541,39.992 1.945,84.983 2.07,125.475l1.996,218.729c1.413,167.121 13.829,336.354 2.475,503.288c-1.133,16.633 -1.525,33.92 -11.821,47.766c-3.341,-1.296 -4.554,-2.475 -7.116,-4.875c-8.788,-23.279 -4.1,-308.125 -4.546,-353.804c-1.217,-125.533 -6.813,-251.129 -3.638,-376.712c1.275,-50.521 -1,-124.246 14.088,-171.325Z" style="fill:#8d6e59;fill-rule:nonzero;"/><path d="M1408.82,2080.04c85.809,-5.462 164.259,21.3 246.504,40.021c59.839,14.095 120.356,24.095 181.55,30c86.23,8.346 172.546,9.938 258.534,-1.929c43.971,-6.071 89.296,-18.566 133.529,-20.483c15.504,-0.675 27.921,2.691 39.321,13.517c36.587,34.733 46.471,107.175 47.316,154.654c0.584,32.7 -2.516,81.833 -27.141,106.171c-19.634,19.4 -54.979,25.725 -80.925,32.9c-166.454,46.033 -348.409,46.87 -517.175,12.629c-28.009,-5.684 -55.588,-12.125 -82.967,-20.35c-26.004,-7.809 -70.104,-30.229 -94.671,-30.238c-5.716,2.288 -8.154,4.271 -12.271,8.608c-1.362,4.83 -2.208,6.959 0.509,11.738c17.037,30.004 119.925,54.508 155.287,62.229c85.821,18.334 172.484,32.021 260.467,32.967c-3.204,60.829 -16.046,148.562 -32.221,207.279c-32.55,14.867 -71.992,23.254 -107.062,30.5c-193.075,39.888 -392.055,11.392 -576.896,-52.221c-52.221,-17.971 -138.467,-47.171 -163.004,-100.704c-6.363,-13.875 -6.955,-27.912 -4.33,-42.792c13.371,-75.791 114.213,-257.57 156.638,-333.145c20.096,-35.796 44.437,-71.726 59.212,-109.984l1.271,-3.346c49.404,-19.662 105.842,-24.729 158.525,-28.021Z" style="fill:#7a7bbe;fill-rule:nonzero;"/><path d="M2025.43,2584.85c78.754,6.421 157.317,17.825 235.904,26.05c221.961,22.733 443.753,47.015 665.375,72.846l445.758,49c87.917,9.479 176.963,15.958 264.325,29.521c-2.745,39.312 0.6,276.179 -6.483,289.166c-39.596,-5.821 -79.342,-15.437 -118.746,-22.912c-62.375,-11.495 -124.826,-22.564 -187.354,-33.209l-594.421,-100.116l-493.904,-80.575c-68.104,-10.988 -137.429,-17.963 -205.017,-31.621c8.605,-33.117 1.038,-61.488 -0.095,-94.658c-1.209,-35.35 0.058,-68.092 -5.342,-103.492Z" style="fill:#c5a07c;fill-rule:nonzero;"/><path d="M2515.8,2779.37c17.345,-0.747 34.663,-0.361 51.955,1.158c67.183,5.717 134.783,17.963 201.441,28.088c56.4,8.566 115.392,14.808 170.517,29.316c9.4,2.475 25.767,7.996 32.062,15.446l-0.487,4.996c-4.867,-0.075 -9.724,-0.328 -14.571,-0.758c-105.408,-9.646 -210.992,-28.238 -315.433,-45.334c-29.204,-4.783 -58.313,-9.633 -87.388,-15.146c-9.683,-1.837 -20.266,-1.974 -29.641,-4.945c-5.088,-1.613 -6.492,-2.85 -9.738,-6.8l1.283,-6.021Z" style="fill:#8d6e59;fill-rule:nonzero;"/><path d="M3105.12,2796.23c50.7,-2.479 385.825,40.65 422.804,56.467c4.888,2.091 6.534,3.704 8.467,8.525l-3.042,6.183c-40.041,-0.817 -82.075,-10.762 -122.066,-15.412c-95.367,-11.084 -192.525,-19.359 -287,-36.617c-7.413,-1.354 -17.125,-2.442 -22.675,-7.792c-0.025,-5.621 0.587,-6.466 3.512,-11.354Z" style="fill:#8d6e59;fill-rule:nonzero;"/><path d="M3445.06,2953.82c-25.175,0.679 -123.434,-24.592 -150.717,-32.567c-8.292,-2.425 -25.775,-6.716 -29.792,-14.05c19.346,-10.575 122.542,14.413 151.359,19.754l116.508,19.592c31.271,5.029 65.492,8.267 95.592,18.258c1.825,4.284 1.846,5.98 1.837,10.509c-11.621,6.287 -162.975,-14.625 -181.991,-20.584c-0.934,-0.291 -1.863,-0.608 -2.796,-0.912Z" style="fill:#8d6e59;fill-rule:nonzero;"/><path d="M3445.06,2953.82c-25.175,0.679 -123.434,-24.592 -150.717,-32.567c-8.292,-2.425 -25.775,-6.716 -29.792,-14.05c19.346,-10.575 122.542,14.413 151.359,19.754l-1.221,3.163c-39.2,-3.725 -89.888,-21.971 -127.9,-17.292c33.342,8.038 66.104,18.159 99.55,26.075c19.15,4.534 38.7,6.363 57.712,11.529l1.009,3.388Z" style="fill:#7d5e4f;fill-rule:nonzero;"/><path d="M2080.26,2666.79c1.611,-0.081 3.224,-0.136 4.838,-0.167c37.775,-0.679 322.366,32.054 337.52,49.104c2.488,2.8 1.292,5.963 1.155,9.471c-54.596,-2.283 -110.5,-13.017 -164.834,-20.021c-53.1,-6.846 -106.954,-10.841 -159.741,-19.554c-6.671,-1.104 -12.325,-1.946 -18.088,-5.696c-3.042,-5.796 -2.158,-6.6 -0.85,-13.137Z" style="fill:#8d6e59;fill-rule:nonzero;"/><path d="M2733.21,454.175c28.854,-2.296 58.162,-4.137 87.096,-2.662c8.67,0.391 17.929,0.116 26.429,1.762c9.941,0.954 19.954,1.563 29.679,3.908c25.392,23.13 29.087,47.967 30.687,80.867c3.513,72.288 2.675,145.254 2.638,217.625l-0.313,270.463c2.088,56.441 -1.091,113.091 -1.47,169.541c-16.925,0.467 -33.43,1.238 -45.855,14.525c-10.887,11.646 -17.716,28.163 -25.012,42.225c-3.725,71.059 -33.358,176.217 -73,234.779c-29.442,43.496 -109.258,114.963 -118.133,158.65c-8.959,44.075 12.458,83.246 13.433,126.304c0.879,38.8 -22.146,78.992 -47.879,106.609c-13.996,1.15 -27.588,2.625 -41.379,5.304l-1.842,-953.058c124.525,-138.909 170.146,-292.28 164.921,-476.842Z" style="fill:#c5a07c;fill-rule:nonzero;"/><path d="M2907.59,1090.51c0.258,-21.462 0.237,-42.954 1.837,-64.37c2.088,56.441 -1.091,113.091 -1.47,169.541c-16.925,0.467 -33.43,1.238 -45.855,14.525c-10.887,11.646 -17.716,28.163 -25.012,42.225c-7.217,-48.987 -17.117,-97.183 -11.958,-146.796l2.1,-7.866c2.845,-1.275 5.466,-2.534 8.12,-4.184c0.717,-0.445 1.421,-0.92 2.13,-1.379c4.141,-3.125 8.45,-6.454 13.166,-8.679c18.817,-8.883 39.138,0.196 56.942,6.983Z" style="fill:#7a7bbe;fill-rule:nonzero;"/><path d="M2820.3,451.513c8.67,0.391 17.929,0.116 26.429,1.762c-3.559,0.563 -7.021,1.367 -10.538,2.158c-2.804,26.334 2.629,55.934 3.746,82.596c1.175,28.088 3.863,192.367 -4.608,207.304c-2.9,5.113 -3.788,5.425 -9.088,6.65c-0.516,-0.47 -1.108,-0.866 -1.546,-1.408c-12.062,-14.867 -7.712,-262.958 -4.395,-299.062Z" style="fill:#8d6e59;fill-rule:nonzero;"/><path d="M2824.61,1076.55c-1.996,-23.642 -3.504,-139.058 6.138,-154.954c11.204,11.558 8.716,112.487 8.445,135.733c-0.12,10.396 -0.025,21.35 -2.741,31.446l1.021,3.429c-0.709,0.458 -1.413,0.934 -2.13,1.379c-2.654,1.65 -5.275,2.909 -8.12,4.184l-2.1,7.866c-0.092,-9.694 -0.263,-19.389 -0.513,-29.083Z" style="fill:#7d5e4f;fill-rule:nonzero;"/><path d="M2824.61,1076.55l0.75,2.958c1.079,4.413 0.713,2.667 1.363,7.425l1.254,0.613l-0.804,-3.463l1.17,0.25c-1.67,-20.92 -3.383,-98.462 2.271,-118.016l-0.546,1.295l2.171,2.138c3.129,24.983 4.959,94.229 0.754,116.821l3.459,2.204l1.021,3.429c-0.709,0.458 -1.413,0.934 -2.13,1.379c-2.654,1.65 -5.275,2.909 -8.12,4.184l-2.1,7.866c-0.092,-9.694 -0.263,-19.389 -0.513,-29.083Z" style="fill:#8d6e59;fill-rule:nonzero;"/><path d="M2735.4,900.904l0.805,-0.237l0.137,2.946l3.138,0.533c5.47,22.392 2.483,462.037 -3.555,492.187l-0.945,-1.933c-2.421,-3.654 -4.859,-7.408 -6.567,-11.463c-18.446,-43.758 -9.138,-380.379 -2.258,-442.162c1.575,-14.158 4.016,-26.575 9.245,-39.871Z" style="fill:#8d6e59;fill-rule:nonzero;"/><path d="M2643.05,1320.56c6.925,39.887 6.65,82.304 6.741,122.737c0.879,4.508 1.254,8.925 1.496,13.508c1.521,28.896 0.496,57.98 0.788,86.917c0.225,22.388 2.529,45.704 -0.3,67.929c-0.775,6.096 -2.034,10.942 -6.225,15.6l-3.28,-0.792c-4.912,-6.449 -7.025,-12.979 -8.329,-20.975c-4.383,-26.879 -2.621,-135.462 0.45,-164.12c0.479,-40.042 2.613,-81.188 8.659,-120.804Z" style="fill:#8d6e59;fill-rule:nonzero;"/><path d="M2643.05,1320.56c6.925,39.887 6.65,82.304 6.741,122.737c0.113,7.071 0.125,13.4 -1.396,20.329c-8.379,-12.958 -0.82,-58.487 -4.495,-76.458l-1.871,1.129c-3.259,28.333 -1.271,57.15 -5.017,85.267l-1.279,-1.063c-0.988,-10.391 -1.179,-20.708 -1.342,-31.137c0.479,-40.042 2.613,-81.188 8.659,-120.804Z" style="fill:#7d5e4f;fill-rule:nonzero;"/><path d="M3255.51,1519.1c3.504,78.825 1.95,157.975 1.65,236.867l-1.487,311.937c3.17,203.196 0.366,407.125 -2.013,610.355c-41.65,-5.731 -83.357,-11.024 -125.121,-15.88c-7.746,0.175 -15.621,-0.65 -23.358,-1.137c-54.433,-5.179 -108.792,-12.629 -163.308,-16.633c3.245,-120.155 3.045,-240.955 3.037,-361.171c0,-34.688 -4.3,-155.367 2.913,-181.934c-7.638,-31.075 -2.863,-163.733 -2.796,-205.425c17.3,-0.358 35.471,-1.045 52.387,-4.937c17.525,-4.033 35.029,-12.238 47.992,-24.9c30.3,-29.596 49.871,-72.592 71.208,-108.888c30.563,-51.983 62.279,-103.312 92.567,-155.454c15.233,-26.225 27.729,-54.008 44.179,-79.5l2.15,-3.3Z" style="fill:#c5a07c;fill-rule:nonzero;"/><path d="M3255.51,1519.1c3.504,78.825 1.95,157.975 1.65,236.867l-1.487,311.937c-12.563,5.896 -27.23,10.663 -40.971,5.921c-26.042,-8.987 -34.5,-42.016 -46.463,-63.587c-0.654,0.441 -1.312,0.879 -1.962,1.329c-18.559,12.862 -27.275,32.6 -31.017,54.429c-10.087,58.908 26.004,185.379 -28.412,222.646c-13.084,8.962 -30.58,13.929 -46.292,10.271c-13.396,-3.121 -27.5,-12.163 -34.792,-23.992c-32.625,-52.937 2.55,-201.287 -35.383,-217.629c-8.675,-0.067 -12.854,2.408 -18.729,8.396c-8.838,9.004 -19.188,24.158 -23.829,35.816c-7.638,-31.075 -2.863,-163.733 -2.796,-205.425c17.3,-0.358 35.471,-1.045 52.387,-4.937c17.525,-4.033 35.029,-12.238 47.992,-24.9c30.3,-29.596 49.871,-72.592 71.208,-108.888c30.563,-51.983 62.279,-103.312 92.567,-155.454c15.233,-26.225 27.729,-54.008 44.179,-79.5l2.15,-3.3Z" style="fill:#7a7bbe;fill-rule:nonzero;"/><path d="M3105.18,2661.25c-1.413,-39.542 -4.329,-255.204 18.079,-276.654c0.508,-0.484 1.133,-0.825 1.7,-1.242c3.375,4.633 3.517,8.213 3.896,13.917c2.121,31.621 -0.292,64.604 -0.308,96.425c-0.03,56.183 1.029,112.529 -0.009,168.691c-7.746,0.175 -15.621,-0.65 -23.358,-1.137Z" style="fill:#8d6e59;fill-rule:nonzero;"/><path d="M2104.03,676.396c-2.392,-143.446 20.196,-302.492 122.733,-411.579c40.846,-43.454 94.025,-76.371 155.013,-77.609c48.929,-0.995 92.204,17.138 127.279,51.117c109.017,105.617 107.554,300.846 71.225,437.804c-4.833,18.217 -29.463,77.167 -28.617,89.371c0.071,1.033 0.221,2.063 0.329,3.092c-0.558,0.508 -1.158,0.983 -1.679,1.533c-11.933,12.471 -18.937,31.592 -29.916,45.425c-55.846,70.367 -128.821,132.467 -218.671,151.896c-3.484,0.754 -7.134,1.654 -10.217,3.483c-17.017,-28.412 -61.412,-79.646 -62.471,-111.512c-0.7,-21.092 5.517,-41.892 2.717,-63.067c-0.979,-7.425 -3.25,-16.125 -10.225,-20.2c-14.671,-8.562 -38.733,2.788 -52.913,7.625c7.688,-38.387 26.471,-76.979 32.034,-113.542c1.525,-10.012 1.925,-24.179 -5.609,-32.179c-4.85,-5.15 -10.175,-6.871 -17.075,-6.637c-29.462,0.987 -55.02,24.683 -73.937,44.979Z" style="fill:#fac3b7;fill-rule:nonzero;"/><path d="M3081.23,363.942c10.537,-3.567 35.75,-1.217 46.779,1.479c37.95,6.583 67.946,17.954 91.075,51.129c20.171,28.929 31.804,65.329 36.958,99.958c9.259,62.184 3.842,154.48 3.709,219.696c-0.2,99.167 3.112,199.634 -1.788,298.65c1.429,45.475 0.088,91.458 0.025,136.975c-0.067,52.379 0.967,105.034 -0.883,157.379c-36.442,-20.608 -102.525,-43.029 -144.017,-48.016c-42.654,-45.2 -107.217,-46.671 -163.537,-64.675c-2.838,-103.975 -2,-209.434 -0.096,-313.434c-0.661,-87.747 -0.866,-175.495 -0.613,-263.245c0.034,-49.942 -4.525,-104.655 4.038,-153.738c5.041,-28.9 16.646,-58.558 35.629,-81.2c24.158,-28.808 56.808,-38.042 92.721,-40.958Z" style="fill:#c5a07c;fill-rule:nonzero;"/><path d="M2949.46,903.083c12.412,-15.42 24.75,-30.629 40.316,-43.012c19.488,-15.5 44.138,-26.463 69.484,-23.104c25.925,3.437 41.329,20.362 56.237,40.008l7.546,9.892c1.758,40.816 7.871,122.95 38.658,150.566c5.863,5.263 13.08,9.034 19.938,12.83c25.096,-11.13 48.267,-24.755 76.329,-15.409c1.429,45.475 0.088,91.459 0.025,136.975c-0.067,52.379 0.967,105.034 -0.883,157.379c-36.442,-20.608 -102.525,-43.029 -144.017,-48.016c-42.654,-45.2 -107.217,-46.671 -163.537,-64.675c-2.838,-103.975 -2,-209.434 -0.096,-313.434Z" style="fill:#7a7bbe;fill-rule:nonzero;"/><path d="M3128.01,365.421c37.95,6.583 67.946,17.954 91.075,51.129c20.171,28.929 31.804,65.329 36.958,99.958c9.259,62.184 3.842,154.48 3.709,219.696c-0.2,99.167 3.112,199.634 -1.788,298.65c-28.062,-9.346 -51.233,4.279 -76.329,15.409c-6.858,-3.796 -14.075,-7.567 -19.938,-12.83c-30.787,-27.616 -36.9,-109.75 -38.658,-150.566c10.983,-59.446 5.488,-134.692 5.496,-195.975l-0.525,-325.471Z" style="fill:#c5a07c;fill-rule:nonzero;"/><path d="M3081.23,363.942c10.537,-3.567 35.75,-1.217 46.779,1.479l0.525,325.471c-0.008,61.283 5.487,136.529 -5.496,195.975l-7.546,-9.892c-5.966,-40.275 -5.025,-82.921 -6.354,-123.633l-7.221,-293.2c-0.8,-31.113 1.825,-62.925 -0.629,-93.854c-5.262,-3.23 -13.912,-2.263 -20.058,-2.346Z" style="fill:#8d6e59;fill-rule:nonzero;"/><path d="M1066.88,2767.34c22.516,13.271 44.15,28.191 67.437,40.121c52.113,26.691 111.388,44.254 168.029,58.425c189.592,47.429 347.25,44.966 534.455,-16.038c7.366,127.95 47.308,214.233 17.2,347.358c-98.742,31.775 -198.284,35.288 -299.788,16.229c5.367,-41.2 5.317,-82.941 3.6,-124.37c0.179,-25.796 -5.929,-52.575 -11.925,-77.505c33.975,-4.933 110.713,-24.533 133.638,-51.024c4.137,-4.784 6.77,-9.817 6.316,-16.238l-3.187,-2.108c-26.163,-2.392 -58.6,12.004 -84.596,17.854c-38.929,8.766 -79.979,10.754 -118.313,20.562c-6.408,1.642 -16.6,4.454 -20.8,10.109c-9.308,12.525 -11.166,56.483 -15.037,73.87c-9.579,42.996 -30.092,127.621 -52.829,163.259c-8.2,12.85 -22.229,17.371 -36.584,20.529c-69.862,15.371 -184.037,3.813 -250.779,-20.196c-21.858,-7.862 -40.983,-18.458 -60.437,-31.046c15.925,-60.375 38.091,-115.637 38.333,-179.425c0.138,-36.275 -8.55,-69.037 -16.029,-104.125c-10.521,-49.341 -9.608,-96.933 1.296,-146.241Z" style="fill:#477599;fill-rule:nonzero;"/><path d="M615.081,1187.24c-86.567,-117.692 -157.804,-251.575 -134.621,-403.371c8.192,-53.642 29.208,-108.771 74.454,-141.883c37.35,-27.334 86.475,-34.371 131.458,-27.196c77.967,12.437 144.359,66.275 189.367,128.933c41.608,57.925 68.708,122.696 87.942,191.017c-56.275,107.058 -90.379,214.862 -99.613,335.929c-21.712,-0.767 -43.466,-1.408 -65.116,-3.246c-55.963,-4.742 -147.209,-36.517 -183.871,-80.183Z" style="fill:#fac3b7;fill-rule:nonzero;"/><path d="M2425.99,1031.98c38.771,-18.47 72.621,-41.229 106.646,-67.129l-0.808,925.879c-26.409,17.934 -50.605,37.405 -74.309,58.755c-5.746,5.845 -11.391,11.866 -17.404,17.441c-25.271,28.042 -48.225,56.259 -67.846,88.604c-7.808,-0.45 -15.754,-1.254 -23.566,-0.725c-9.617,1.639 -19.25,3.166 -28.9,4.58c-27.113,8.341 -53.75,18.475 -80.438,28.087c-1.533,-39.887 -0.621,-80.137 -0.771,-120.067c-0.028,-82.164 -0.618,-164.323 -1.771,-246.479c41.484,-44.071 74.184,-91.496 99.984,-146.321c26.362,6.496 56.129,20.759 83.2,20.413c6.741,-2.821 12.062,-7.271 14.629,-14.342c1.646,-4.541 1.146,-8.966 -1.521,-13c-11.204,-16.916 -56.117,-27.371 -75.583,-31.333c16.525,-56.358 27.091,-110.888 29.591,-169.617c19.959,-0.425 65.096,8.217 81.184,-2.55c5.083,-3.4 5.4,-4.991 7.012,-10.533c-0.95,-4.967 -2.137,-8.275 -5.808,-11.946c-15.771,-15.75 -59.463,-11.025 -80.533,-11.658c-0.105,-92.167 -20.6,-187.83 -56.025,-272.667c25.875,-4.517 50.116,-10.358 74.92,-19.012l18.117,-6.38Z" style="fill:#c5a07c;fill-rule:nonzero;"/><path d="M2438.92,1732.55c0.642,-0.704 1.371,-1.337 1.93,-2.112c12.675,-17.513 -2.488,-48.984 11.016,-66.096c8.846,12.65 -6.358,51.704 5.534,67.087c1.429,72.392 1.866,145.683 0.116,218.059c-5.746,5.845 -11.391,11.866 -17.404,17.441c-5.442,-52.391 -3.642,-105.662 -3.533,-158.279c0.05,-23.987 -2.642,-52.75 2.341,-76.1Z" style="fill:#8d6e59;fill-rule:nonzero;"/><path d="M2319.8,2059.39c-0.162,-6.595 -0.238,-13.191 -0.23,-19.788c0.055,-29.729 -2.162,-189.304 12.313,-203.783l3.642,1.05c15.408,32.008 -2.025,169.604 6.487,216.158l6.688,1.783c-9.617,1.639 -19.25,3.166 -28.9,4.58Z" style="fill:#8d6e59;fill-rule:nonzero;"/><path d="M2407.87,1038.36l18.117,-6.38c3.754,23.742 7.038,103.246 -4.829,121.425c-0.371,0.567 -0.854,1.05 -1.283,1.575c-4.459,-2.179 -4.25,-3.408 -5.717,-7.962c-9.996,-31.021 -7.067,-76.004 -6.288,-108.658Z" style="fill:#8d6e59;fill-rule:nonzero;"/><path d="M2438.92,1732.55c0.221,-29.083 0.775,-65.796 10.217,-93.35l2.663,-1.979c9.941,18.425 6.366,71.483 5.6,94.208c-11.892,-15.383 3.312,-54.437 -5.534,-67.087c-13.504,17.112 1.659,48.583 -11.016,66.095c-0.559,0.775 -1.288,1.409 -1.93,2.113Z" style="fill:#7d5e4f;fill-rule:nonzero;"/><path d="M374.51,2088.34c51.117,-4.554 107.829,10.145 149.237,40.612c2.356,1.731 4.675,3.506 6.959,5.325c2.286,1.82 4.534,3.684 6.746,5.592c2.211,1.908 4.384,3.858 6.52,5.85c2.137,1.994 4.234,4.029 6.292,6.104c2.056,2.075 4.07,4.189 6.042,6.342c1.975,2.155 3.907,4.347 5.796,6.575c1.886,2.23 3.729,4.496 5.529,6.796c1.8,2.3 3.554,4.636 5.262,7.008c1.709,2.369 3.37,4.771 4.984,7.204c1.613,2.436 3.18,4.901 4.7,7.396c1.516,2.497 2.984,5.022 4.404,7.575c1.419,2.553 2.789,5.133 4.108,7.742c1.32,2.605 2.586,5.236 3.8,7.891c1.217,2.659 2.381,5.338 3.492,8.038c1.111,2.702 2.169,5.426 3.175,8.171c1.003,2.741 1.953,5.502 2.85,8.283c70.691,216.875 -163.354,405.696 -128.534,617.483c9.138,55.6 35.296,103.567 81.671,136.413c52.142,36.929 120.729,45.371 182.646,34.471c118.079,-20.788 206.375,-99.417 273.708,-194.209c1.13,38.109 9.763,74.925 18.396,111.859c-5.864,7.85 -11.958,15.518 -18.283,23.004c-6.325,7.483 -12.868,14.772 -19.629,21.866c-6.761,7.092 -13.728,13.975 -20.9,20.65c-7.172,6.678 -14.539,13.134 -22.1,19.367c-7.559,6.236 -15.297,12.239 -23.217,18.008c-7.919,5.773 -16.004,11.302 -24.254,16.588c-8.25,5.286 -16.651,10.321 -25.204,15.104c-8.553,4.783 -17.241,9.307 -26.063,13.571c-2.791,1.333 -5.6,2.63 -8.425,3.892c-2.825,1.263 -5.665,2.491 -8.521,3.683c-2.855,1.192 -5.726,2.347 -8.612,3.467c-2.883,1.122 -5.781,2.206 -8.692,3.254c-2.911,1.047 -5.836,2.058 -8.775,3.033c-2.936,0.975 -5.883,1.914 -8.841,2.817c-2.962,0.902 -5.932,1.768 -8.913,2.596c-2.983,0.827 -5.975,1.618 -8.975,2.37c-3.003,0.753 -6.014,1.468 -9.033,2.146c-3.02,0.678 -6.046,1.318 -9.079,1.921c-3.037,0.603 -6.078,1.167 -9.125,1.692c-3.05,0.527 -6.106,1.016 -9.167,1.466c-3.061,0.45 -6.128,0.863 -9.2,1.238c-3.072,0.375 -6.149,0.711 -9.229,1.008c-3.081,0.297 -6.164,0.556 -9.25,0.775c-3.086,0.222 -6.175,0.404 -9.267,0.546c-3.089,0.144 -6.18,0.25 -9.275,0.317c-3.094,0.066 -6.189,0.094 -9.283,0.083c-3.095,-0.011 -6.188,-0.06 -9.279,-0.146c-3.095,-0.089 -6.187,-0.215 -9.275,-0.379c-3.089,-0.167 -6.177,-0.371 -9.263,-0.612c-3.086,-0.242 -6.168,-0.523 -9.246,-0.842c-3.078,-0.317 -6.151,-0.674 -9.221,-1.071c-3.066,-0.394 -6.129,-0.828 -9.187,-1.3c-3.058,-0.472 -6.111,-0.982 -9.158,-1.529c-3.045,-0.547 -6.082,-1.132 -9.113,-1.754c-3.03,-0.625 -6.053,-1.286 -9.067,-1.984c-3.016,-0.7 -6.022,-1.436 -9.016,-2.208c-2.997,-0.775 -5.984,-1.587 -8.959,-2.437c-2.975,-0.848 -5.94,-1.732 -8.895,-2.655c-2.953,-0.922 -5.895,-1.88 -8.825,-2.875c-2.931,-0.994 -5.848,-2.026 -8.75,-3.095c-7.356,-2.917 -14.582,-6.125 -21.68,-9.625c-7.097,-3.5 -14.041,-7.28 -20.833,-11.338c-6.794,-4.058 -13.412,-8.383 -19.854,-12.975c-6.445,-4.592 -12.695,-9.435 -18.75,-14.529c-2.781,-2.32 -5.515,-4.69 -8.204,-7.113c-2.689,-2.425 -5.331,-4.9 -7.925,-7.425c-2.595,-2.522 -5.141,-5.094 -7.638,-7.716c-2.497,-2.623 -4.943,-5.291 -7.337,-8.004c-2.397,-2.714 -4.741,-5.473 -7.029,-8.275c-2.292,-2.806 -4.528,-5.653 -6.709,-8.542c-2.183,-2.889 -4.309,-5.818 -6.379,-8.788c-2.069,-2.969 -4.082,-5.977 -6.037,-9.025c-1.956,-3.047 -3.853,-6.129 -5.692,-9.245c-1.839,-3.12 -3.617,-6.273 -5.333,-9.459c-1.72,-3.186 -3.377,-6.404 -4.971,-9.654c-1.595,-3.25 -3.128,-6.529 -4.6,-9.837c-1.47,-3.309 -2.877,-6.644 -4.221,-10.005c-1.345,-3.361 -2.624,-6.747 -3.838,-10.158c-1.213,-3.411 -2.362,-6.843 -3.445,-10.296c-1.084,-3.455 -2.102,-6.929 -3.055,-10.421c-67.066,-237.675 161.68,-406.816 144.713,-605.187c-3.588,-41.992 -21.963,-83.992 -54.958,-111.183c-34.413,-28.363 -80.438,-36.28 -123.825,-31.98c-73.359,7.271 -141.296,53.459 -187.2,109.405c-60.432,73.65 -88.325,161.845 -78.973,256.433c-14.597,-25.883 -24.196,-53.196 -27.127,-82.85c-8.23,-83.258 30.903,-167.746 82.775,-230.908c58.85,-71.659 135.566,-122.025 228.908,-131.396Z" style="fill:#fac3b7;fill-rule:nonzero;"/><path d="M2740.22,2005.11c19.654,-41.762 50.663,-99.658 96.988,-116.6c16.291,-5.954 47.454,-7.52 63.721,0.238c2.995,1.429 4.275,2.466 5.416,5.767c5.292,15.283 1.596,117.154 1.575,142.637l-4.4,603.404l-144.741,-16.229c-27.209,-3.042 -55.871,-4.725 -82.571,-10.567l-5.788,-0.9c-33.633,-1.708 -66.812,-7.916 -100.391,-10.054c-0.205,-70.216 1.091,-140.675 -0.596,-210.862c34.337,0.166 65.233,-2.171 90.912,-28.225c18.9,-19.175 27.238,-44.634 26.525,-71.217c-0.141,-6.878 -0.678,-13.724 -1.608,-20.537c21.562,-11.001 39.296,-23.805 47.267,-47.98c9.454,-28.7 -7.092,-50.762 -3.413,-64.795c23.079,-11.838 40.733,-26.267 49.054,-52.096c6.959,-21.609 3.671,-44.696 -6.983,-64.492c-7.888,-14.646 -19.158,-26.008 -30.967,-37.492Z" style="fill:#c5a07c;fill-rule:nonzero;"/><path d="M2670.42,2612.86l-9.779,-5.966c-2.237,-27.913 -2.45,-231.709 4.788,-244.542l5.645,0.983c18.771,35.5 14.042,195.609 11.317,244.004c-2.879,2.146 -4.517,2.959 -7.792,4.175l1.609,2.246l-5.788,-0.9Z" style="fill:#8d6e59;fill-rule:nonzero;"/><path d="M2809.14,2374.3c-5.242,-27.542 1.358,-214.775 13.083,-233.404l3.442,-0.471c5.267,7.95 4.575,19.488 4.583,28.721c0.809,40.854 4,207.633 -7.604,234.837l-3.833,2.475c-4.379,-3.07 -6.904,-6.37 -8.325,-11.695c-0.988,-3.696 -0.788,-7.98 -0.938,-11.78l-0.408,-8.683Z" style="fill:#8d6e59;fill-rule:nonzero;"/><path d="M2809.14,2374.3l1.579,-4.171c5.996,3.671 3.142,26.688 7.35,34.346c14.967,-24.283 4.458,-191.917 9.442,-233.696l2.737,-1.633c0.809,40.854 4,207.633 -7.604,234.837l-3.833,2.475c-4.379,-3.071 -6.904,-6.371 -8.325,-11.696c-0.988,-3.695 -0.788,-7.979 -0.938,-11.779l-0.408,-8.683Z" style="fill:#7d5e4f;fill-rule:nonzero;"/><path d="M3290.96,3029.37c32.25,6.737 66.454,8.575 97.983,17.779c3.709,5.758 2.513,10.85 2.513,17.612c0.587,-1.025 1.333,-1.975 1.762,-3.075c1.704,-4.346 1.75,-7.558 4.375,-11.821c6.963,-2.97 12.904,-0.5 20.171,0.9c71.521,12.942 143.8,24.392 214.983,38.846c0.163,150.775 1.342,302.388 -4.32,453.034c-37.888,0.441 -75.3,-6.671 -112.817,-11.113l-22.013,-3.104c-25.052,-3.944 -50.055,-8.189 -75.008,-12.733c-9.071,-1.08 -18.042,-2.2 -27.012,-3.967c-27.121,-4.546 -67.671,-6.775 -87.796,-27.058c-10.984,-11.071 -14.479,-29.93 -16.092,-44.988c-4.962,-46.346 -0.833,-105.425 0.042,-153.033l3.229,-257.279Z" style="fill:#c5a07c;fill-rule:nonzero;"/><path d="M3290.96,3029.37c32.25,6.737 66.454,8.575 97.983,17.779c3.709,5.758 2.513,10.85 2.513,17.612c-3.692,40.2 -1.484,82.28 -1.121,122.65c0.475,52.667 0.075,105.425 1.808,158.059c0.717,21.708 7.488,152.716 3.713,165.233l-4.279,1.025c-27.121,-4.546 -67.671,-6.775 -87.796,-27.058c-10.984,-11.071 -14.479,-29.93 -16.092,-44.988c-4.962,-46.346 -0.833,-105.425 0.042,-153.033l3.229,-257.279Z" style="fill:#c5a07c;fill-rule:nonzero;"/><path d="M3391.46,3064.76c0.587,-1.025 1.333,-1.975 1.762,-3.075c1.704,-4.346 1.75,-7.558 4.375,-11.821c6.963,-2.97 12.904,-0.5 20.171,0.9c-6.987,13.93 2.333,346.271 2.442,383.146c0.066,23 3.979,60.563 -1.617,81.784c-9.071,-1.08 -18.042,-2.2 -27.012,-3.967l4.279,-1.025c3.775,-12.517 -2.996,-143.525 -3.713,-165.233c-1.733,-52.634 -1.333,-105.392 -1.808,-158.059c-0.363,-40.37 -2.571,-82.45 1.121,-122.65Z" style="fill:#8d6e59;fill-rule:nonzero;"/><path d="M3509.93,3241.88c10.075,68.558 6.287,141.383 6.529,210.6c0.083,24.779 3.375,54.892 -0.846,79.054l-22.013,-3.104c-2.579,-73.321 -7.779,-219.958 16.33,-286.55Z" style="fill:#8d6e59;fill-rule:nonzero;"/><path d="M2568.04,2907.56l99.525,16.533c0.163,1.071 0.35,2.142 0.488,3.216c0.554,4.384 0.662,2.646 -0.525,6.571l4.416,3.946l-3.708,0.125l1.979,-1.546c0.263,-0.766 0.483,-1.545 0.788,-2.295c1.37,-3.384 3.191,-5.292 5.633,-7.917c6.404,-0.475 12.592,0.971 18.871,2.071c69.516,12.262 140.283,21.312 209.379,35.316c-2.438,53.655 1.087,404.013 -13.525,433.788c-22.333,12.767 -74.75,0.967 -99.5,-2.617l-23.5,-2.546c-24.292,-3.889 -48.606,-7.629 -72.942,-11.22l-16.091,-2.492c-41.33,-9.008 -83.813,-9.233 -110.596,-47.167c-6.95,-39.604 -1.938,-103.675 -1.675,-145.196l0.983,-278.57Z" style="fill:#c5a07c;fill-rule:nonzero;"/><path d="M2568.04,2907.56l99.525,16.533c0.163,1.071 0.35,2.142 0.488,3.216c0.554,4.384 0.662,2.646 -0.525,6.571l4.416,3.946l-3.708,0.125l1.979,-1.546c0.263,-0.766 0.483,-1.545 0.788,-2.295c1.37,-3.384 3.191,-5.292 5.633,-7.917c6.404,-0.475 12.592,0.971 18.871,2.071l-0.213,306.008c0.275,34.717 7.342,118.6 0.125,146.713l-16.091,-2.492c-41.33,-9.008 -83.813,-9.233 -110.596,-47.167c-6.95,-39.604 -1.938,-103.675 -1.675,-145.196l0.983,-278.57Z" style="fill:#c5a07c;fill-rule:nonzero;"/><path d="M2667.56,2924.1c0.163,1.071 0.35,2.142 0.488,3.216c0.554,4.384 0.662,2.646 -0.525,6.571l4.416,3.946l-3.708,0.125l1.979,-1.546c0.263,-0.766 0.483,-1.545 0.788,-2.295c1.37,-3.384 3.191,-5.292 5.633,-7.917c6.404,-0.475 12.592,0.971 18.871,2.071l-0.213,306.008c0.275,34.717 7.342,118.6 0.125,146.713l-16.091,-2.492c-10.655,-32.65 -5.159,-68.379 -11.125,-101.854l-1.913,-337.809l1.275,-14.737Z" style="fill:#8d6e59;fill-rule:nonzero;"/><path d="M2768.36,3392.21c-0.192,-37.808 -5,-225.029 12.9,-245.354c1.392,-1.575 2.529,-2.062 4.233,-3.017c4.521,2.775 5.1,5.234 6.275,10.217c8.242,34.875 1.542,193.421 0.092,240.7l-23.5,-2.546Z" style="fill:#8d6e59;fill-rule:nonzero;"/><path d="M2941.11,2968.22c57.208,12.991 115.979,18.537 173.367,30.85c9.304,1.466 18.854,2.558 28.062,4.504c37.204,6.571 74.483,13.442 111.963,18.254c-2.592,103.496 -1.446,207.183 -3.492,310.75c-0.896,45.271 -0.204,91.096 -4.871,136.15c-41.579,10.821 -124.967,-4.271 -168.887,-13.675c-5.971,-0.437 -11.884,-1.554 -17.792,-2.504c-35.438,-6.504 -75.625,-6.446 -108.108,-22.963c-6.784,-12.175 -9.3,-23.633 -10.688,-37.345c-5.721,-56.525 -1.9,-116.75 -1.129,-173.584c1.103,-83.475 1.628,-166.954 1.575,-250.437Z" style="fill:#c5a07c;fill-rule:nonzero;"/><path d="M3114.48,2999.07c9.304,1.466 18.854,2.558 28.062,4.504c1.888,32.287 -0.671,65.933 -1.042,98.367c-0.379,33.175 3.159,91.341 -3.5,121.662c-0.95,4.329 -0.758,5.525 -4.612,7.996c-0.558,-0.521 -1.179,-0.979 -1.679,-1.559c-22.367,-26.024 -19.121,-193.458 -17.229,-230.97Z" style="fill:#8d6e59;fill-rule:nonzero;"/><path d="M3059.46,3452.55c-5.725,-34.996 -3.829,-177.113 10.171,-208.121l2.762,-0.717c7.138,15.663 11.5,195.592 5.992,209.234c-0.3,0.737 -0.754,1.404 -1.133,2.108c-5.971,-0.438 -11.884,-1.554 -17.792,-2.504Z" style="fill:#8d6e59;fill-rule:nonzero;"/><path d="M2237.93,2853.15l186.896,30.283c35.408,5.538 73.191,8.675 107.796,17.9c-1.339,98.075 -1.925,196.155 -1.759,294.238c-0.166,46.667 2.634,95.671 -2.287,141.958c-32.8,7.363 -65.534,1.292 -98.421,-2.804c-6.754,-0.45 -13.213,-0.992 -19.854,-2.337c-28.014,-3.881 -55.914,-8.456 -83.7,-13.725l-10.754,-1.325c-24.58,-5.9 -56.73,-9.984 -70.305,-34.217c-5.804,-10.354 -7.266,-25.5 -8.008,-37.317c-3.179,-50.566 -0.196,-103.108 0.017,-153.875c0.333,-79.571 -0.709,-159.221 0.379,-238.779Z" style="fill:#c5a07c;fill-rule:nonzero;"/><path d="M2410.31,3332.39c4.391,-4.646 3.2,-8.246 3.033,-14.592c-0.812,-30.846 -3.825,-61.692 -4.9,-92.563c-2.008,-66.733 -2.518,-133.477 -1.529,-200.233c0.317,-26.825 -2.375,-55.912 1.05,-82.308c0.825,-6.363 1.971,-9.567 6.275,-14.246l3.975,0.3c2.979,3.683 3.642,4.8 4.275,9.633c8.4,64.042 5.175,139.163 7.042,204.379c1.697,46.156 2.825,92.325 3.383,138.509c0.067,13.516 1.917,30.825 -0.388,43.85c-0.475,2.679 -1.737,4.204 -3.283,6.346c0.329,2.879 -0.283,1.929 0.921,3.262c-6.754,-0.45 -13.213,-0.992 -19.854,-2.337Z" style="fill:#8d6e59;fill-rule:nonzero;"/><path d="M2315.85,3317.34c-2.271,-28.071 -3.146,-219.563 6.012,-231.817c3.75,2.237 3.588,1.204 4.913,5.954c5.175,18.529 14.425,211.75 7.945,223.063l-8.116,4.124l-10.754,-1.325Z" style="fill:#8d6e59;fill-rule:nonzero;"/><path d="M861.577,1300.82c-59.046,11.171 -130.021,1.354 -185.63,-20.779c-109.233,-43.48 -196.995,-143.142 -242.137,-249.971c-47.708,-112.913 -63.096,-255.221 -15.567,-370.692c1.834,-4.58 3.781,-9.112 5.842,-13.596c2.058,-4.483 4.229,-8.912 6.512,-13.287c2.281,-4.375 4.668,-8.69 7.163,-12.946c2.497,-4.256 5.099,-8.446 7.804,-12.571c2.706,-4.128 5.513,-8.185 8.421,-12.171c2.905,-3.986 5.91,-7.897 9.012,-11.733c3.103,-3.836 6.3,-7.592 9.592,-11.267c3.289,-3.677 6.668,-7.27 10.138,-10.779c3.469,-3.508 7.023,-6.928 10.662,-10.258c3.642,-3.331 7.363,-6.568 11.163,-9.713c3.802,-3.147 7.68,-6.195 11.633,-9.145c3.953,-2.953 7.978,-5.805 12.075,-8.555c4.094,-2.752 8.255,-5.4 12.483,-7.941c4.228,-2.545 8.517,-4.982 12.867,-7.313c4.347,-2.328 8.751,-4.547 13.212,-6.658c4.462,-2.108 8.971,-4.106 13.53,-5.992c77.354,-31.929 164.845,-25.262 241.016,6.738c92.729,38.958 169.863,112.766 218.15,200.441c15.267,27.721 26.925,56.909 38.788,86.184c-32.592,32.529 -59.3,68.183 -89.129,102.912c-35.525,-100.079 -85.313,-201.279 -173.975,-264.916c-56.338,-40.438 -129.063,-64.888 -198.671,-53.059c-3.128,0.522 -6.242,1.121 -9.342,1.796c-3.097,0.678 -6.176,1.431 -9.237,2.258c-3.062,0.831 -6.1,1.736 -9.117,2.717c-3.014,0.981 -6.003,2.036 -8.967,3.167c-2.964,1.13 -5.897,2.333 -8.8,3.608c-2.903,1.275 -5.772,2.622 -8.608,4.042c-2.839,1.416 -5.639,2.904 -8.4,4.462c-2.764,1.558 -5.486,3.184 -8.167,4.875c-2.68,1.695 -5.318,3.454 -7.912,5.279c-2.595,1.823 -5.142,3.71 -7.642,5.663c-2.5,1.95 -4.95,3.961 -7.35,6.033c-2.4,2.075 -4.747,4.207 -7.042,6.396c-2.294,2.189 -4.532,4.435 -6.712,6.738c-2.183,2.299 -4.307,4.654 -6.371,7.062c-2.067,2.406 -4.071,4.862 -6.012,7.371c-1.942,2.505 -3.821,5.058 -5.638,7.658c-50.525,72.679 -54.25,168.846 -39.233,253.367c18.921,106.491 72.662,217.858 163.1,280.996c36.662,43.666 127.908,75.441 183.871,80.183c21.65,1.838 43.404,2.479 65.116,3.246c-0.104,10.162 -1.316,20.071 -2.491,30.15Z" style="fill:#f2f2f4;fill-rule:nonzero;"/><path d="M3683.1,428.088c6.32,2.466 12.612,5.625 17.487,10.45c11.254,11.141 11.538,27.466 11.85,42.358c1.225,58.504 -0.367,117.312 -0.475,175.846c0.261,144.633 -0.361,289.262 -1.867,433.887l-5.745,1260.35l-4.871,688.796c0.666,108.347 0.275,216.69 -1.175,325.029c-0.6,39.904 1.616,80.692 -1.329,120.454c-1.075,14.534 -7.559,22.554 -17.463,32.754c-6.625,4.746 -13.217,7.946 -20.7,11.138c7.163,-237.525 1.133,-475.913 3.188,-713.55l12.108,-1422.66l4.196,-609.37c-0.178,-77.792 0.459,-155.577 1.912,-233.355c0.459,-40.145 -1.891,-82.354 2.884,-122.12Z" style="fill:#c5a07c;fill-rule:nonzero;"/><path d="M1077.88,1834.34c13.687,6.541 26.475,15.062 40.154,21.775c28.613,14.05 58.45,25.437 88.504,35.97c-25.166,-0.587 -50.679,0.096 -75.771,-1.437c-16.062,-0.983 -33.233,-4.696 -49.2,-4.25c-4.575,0.125 -8.545,1.642 -11.225,5.587c-3.275,4.821 -2.629,11.042 -2.383,16.509c1.467,2.566 2.017,4.416 4.542,6.054c48.391,31.337 180.754,13.729 243.629,20.808c73.696,8.292 175.504,38.75 239.837,76.517c60.5,24.491 107.471,48.491 162.263,84.679c-44.583,-17.546 -93.033,-21.775 -137.817,-37.942c-128.85,-26.704 -267.216,-35.4 -387.358,28.5c-17.417,9.263 -54.5,27.979 -58.121,49.388c-0.946,5.604 0.742,7.771 3.529,12.216c2.846,1.763 5.413,3.434 8.771,4.005c18.529,3.129 34.767,-10.063 48.638,-20.292c-20.713,30.771 -37.096,63.683 -53.9,96.675c-17.955,0.654 -35.109,0.883 -52.717,-3.208c-34.458,-8.013 -66.838,-30.688 -85.15,-61.03c-24.688,-40.904 -19.425,-80.237 -8.163,-124.308c-13.42,-44.071 -37.783,-101.504 -13.762,-145.854c18.637,-34.408 60.642,-49.275 95.7,-60.362Z" style="fill:#7a7bbe;fill-rule:nonzero;"/><path d="M1555.97,2011.87c60.5,24.492 107.471,48.492 162.263,84.679c-44.583,-17.546 -93.033,-21.775 -137.817,-37.942l2.146,-3.116c25.588,2.129 60.75,20.966 84.788,16.891c-2.809,-16.908 -104.371,-45.345 -111.38,-60.512Z" style="fill:#7a7bbe;fill-rule:nonzero;"/><path d="M2577.28,1924.84l2.266,0.775c1.075,15.641 -29.204,48.579 -35.7,66.05c-2.325,6.25 -3.266,11.212 -0.233,17.454c3.7,2.812 6.587,4.071 11.3,4.296c12.104,0.587 25.154,-1.746 37.246,-2.7c27.741,-2.196 57.046,-1.967 83.983,5.783c25.888,7.45 51.221,23.867 63.879,48.313c4.913,9.487 7.742,20.662 3.663,30.983c-5.604,14.171 -17.559,21.871 -31.013,27.292c-15.337,-10.467 -31.237,-22.355 -50.571,-22.534c-7.229,-0.062 -16.962,-0.158 -22.47,5.092c0.908,14.108 27.754,28.562 37.391,39.462c12.375,13.996 21.359,34.959 19.688,53.896c-1.554,17.621 -9.888,28.421 -23.167,39.154c-16.075,-9.633 -28.804,-18.037 -48.037,-19.825c-6.542,-0.604 -10.984,-0.587 -16.171,3.559c0.296,16.958 33.046,35.704 39.091,62.55c0.163,0.72 0.313,1.45 0.467,2.175c0.717,15.587 0.813,31.325 -10.246,43.6c-12.696,14.087 -32.591,23.22 -51.529,24.058c-7.017,0.312 -10.521,-1.242 -15.471,-6.033l0.1,-3.563c4.829,-3.771 9.159,-7.483 13.475,-11.829c0.809,-4.904 1.271,-5.917 -2.096,-10.083c-3.333,-4.121 -9.62,-7.446 -14.854,-7.417c-12.054,0.071 -25.708,11.45 -37.712,14.612c-25.638,6.742 -54.384,2.217 -80.446,0.038c7.887,-21.333 11.383,-42.942 11.937,-65.658c1.5,-61.492 -12.966,-136.446 -56.662,-182.3c25.3,-45.805 67.654,-96.709 111.312,-126.23c19.03,-12.862 39.48,-22.075 60.58,-30.97Z" style="fill:#f2f2f4;fill-rule:nonzero;"/><path d="M2720.76,1607.54c25.317,7.12 51.579,21.808 75.221,33.27c56.978,27.917 113.43,56.859 169.358,86.825c28.521,15.08 59.429,28.55 86.229,46.35c-0.345,0.838 -0.683,1.684 -1.041,2.521c-55.988,131.838 -146.059,36.709 -241.671,75.492c-52.717,24.571 -80.125,80.062 -107.538,128.212c-30.808,-4.237 -58.987,-9.512 -90.462,-9.437c4.162,-11.863 8.254,-24.05 14.625,-34.933c8.967,-15.321 21.104,-28.496 32.004,-42.426c27.813,-35.541 47.338,-73.379 47.038,-119.341c-0.225,-34.338 -12.013,-66.696 -13.5,-100.567c-1.275,-28.962 11.337,-45.554 29.737,-65.966Z" style="fill:#c5a07c;fill-rule:nonzero;"/><path d="M2884.38,1239.18c27.454,2.842 62.82,14.721 87.425,27.584c-2.634,14.196 -8.021,28.096 -12.405,41.846c-4.016,12.608 -14.166,35.745 -7.9,47.879c21.296,-4.529 42.463,-61.992 58.092,-79.763c0.504,-0.571 1.025,-1.129 1.533,-1.696c17.584,5.475 44.909,10.88 59.105,22.304c15.945,12.834 -13.855,62.788 -12.605,79.838l4.346,1.475c17.067,-3.429 29.404,-32.362 41.721,-44.542c5.6,-5.541 13.088,-9.641 21.188,-9.008c7.733,0.604 18.591,5.517 23.133,12.013c17.187,24.566 -18.133,58.216 -20.55,82.979c-0.467,4.771 0.783,5.562 3.575,9.133l3.112,0.333c24.605,-21.612 38.525,-53.941 62.267,-76.341c0.525,-0.5 1.071,-0.975 1.604,-1.463c20.367,6.947 40.018,15.531 58.954,25.75c1.4,17.646 2.246,34.171 -1.887,51.559c-4.967,20.916 -17.45,42.295 -28.413,60.6c-10.766,17.983 -56.129,95.125 -72.983,99.345c-17.958,-7.829 -7.958,-63.933 -17.492,-85.179c-7.8,-17.391 -20.175,-23.629 -36.92,-30.208c-2.288,0.758 -4.505,1.583 -6.767,2.412c-28.579,10.471 -49.492,38.384 -74.367,47.55c-9.65,3.555 -22.65,7.625 -32.312,1.9c-20.846,-12.337 -12.504,-56.629 -20.817,-77.2c-6.483,-16.041 -24.604,-20.866 -39.3,-26.808c-22.229,6.263 -40.362,18.696 -60.321,29.838l-25.458,-21.917c7.437,-33.375 19.154,-65.758 26.767,-99.154c6.87,-30.129 9.57,-61.313 17.675,-91.059Z" style="fill:#7a7bbe;fill-rule:nonzero;"/><path d="M2095.18,1848.09c37.6,-28.904 74.145,-56.5 108.17,-89.767c0.434,110.808 1.513,221.817 0.134,332.604c-30.038,2.704 -59.688,8.733 -89.5,13.217c-46.979,7.066 -96.238,12.142 -143.754,12.637c-21.284,-68.146 -38.45,-107.737 -49.605,-181.633c18.223,-5.814 36.103,-12.539 53.642,-20.175c17.536,-7.636 34.64,-16.143 51.313,-25.521c16.433,-9.133 32.35,-19.725 49.025,-28.308c5.462,-5.096 14.12,-9.088 20.575,-13.054Z" style="fill:#c5a07c;fill-rule:nonzero;"/><path d="M2095.18,1848.09c0.379,28.912 -2.275,215.212 -11.917,228.071l-3.542,1.024c-9.254,-8.679 -8.091,-18.116 -8.487,-30.062c-1.492,-45.012 -4.484,-146.271 3.371,-185.979c5.462,-5.096 14.12,-9.088 20.575,-13.054Z" style="fill:#8d6e59;fill-rule:nonzero;"/><path d="M1036.26,3317.26c17.467,8.075 33.062,19.471 51.262,26.984c59.209,24.437 132.425,29.108 195.83,26.791c11.354,-0.412 22.445,-2.904 33.729,-3.562c30.496,-1.779 76.175,27.004 98.116,46.975c17.955,16.346 33.013,38.475 33.559,63.492c0.5,23.066 -11.484,37.874 -26.513,53.533c-7.516,-39.333 -20.6,-72.85 -54.679,-96.821c-7.358,-5.179 -17.562,-10.621 -26.812,-9.167c-1.767,2.988 -2.209,2.167 -1.025,5.134c2.404,6.016 8.345,11.566 12.575,16.504c21.029,24.529 33.362,45.321 35.062,78.379c-0.462,6.004 -0.787,12.192 -4.721,17.125c-10.558,13.238 -41.141,13.679 -57.179,16.35c-8.625,-40.787 -25.729,-78.896 -61.183,-103.379c-7.388,-5.104 -16.054,-11.809 -25.467,-10.129c-4.95,17.85 35.6,52.137 43.029,70.754c5.521,13.837 5.484,27.679 5.442,42.279c-56.667,-0.9 -117.504,-13.783 -169.167,-37.229c-39.066,-17.729 -86.2,-46.496 -101.321,-89.129c-14.329,-40.405 1.767,-78.892 19.463,-114.884Z" style="fill:#f2f2f4;fill-rule:nonzero;"/><path d="M1848.31,3312.5c0.679,-0.066 1.354,-0.183 2.037,-0.2c26.475,-0.704 75.921,32.992 94.463,51.109c17.175,16.775 33.262,40.187 33.012,65.025c-0.195,19.258 -8.541,29.637 -21.7,42.191c-2.129,-11.971 -4.766,-23.796 -9.62,-34.996c-10.98,-25.337 -34.484,-51.929 -61.192,-61.587c-5.813,-2.104 -12.608,-3.983 -18.3,-1.425c2.446,14.279 51.871,49.033 58.254,86.967c1.254,7.445 0.063,15.058 -4.858,21.029c-12.159,14.741 -39.3,14.421 -56.721,15.808c-4.813,-27.012 -16.629,-50.312 -36.221,-69.517c-12.85,-12.595 -29.829,-26.4 -48.579,-26.116l-3.088,3.762l1.059,2.004c13.521,25.813 40.866,40.959 50.266,70.346c1.98,6.192 3.15,13.554 0.075,19.55c-52.35,10.271 -161.425,-18.35 -208.358,-41.1c-27.017,-13.091 -57.125,-32.1 -66.796,-62.237c-7.758,-24.18 -0.425,-47.146 10.742,-68.704c90.729,31.183 196.083,16.733 285.525,-11.909Z" style="fill:#f2f2f4;fill-rule:nonzero;"/><path d="M2076.33,2828.8l127.154,20.112c0.347,93.559 0.086,187.116 -0.784,280.671c-0.404,41.904 1.55,85.529 -1.783,127.179c-0.579,7.284 -0.608,12.3 -5.429,17.88c-26.988,6.716 -99.55,-10.084 -130.55,-15.126c4.242,-26.683 -3.621,-153.404 4.654,-164.129c17.65,0.213 34.125,-5.716 46.667,-18.525c20.546,-20.987 25.283,-56.375 24.091,-84.587c-2.429,-57.5 -27.016,-119.554 -64.02,-163.475Z" style="fill:#c5a07c;fill-rule:nonzero;"/><path d="M1043.14,2662.57c16.517,9.837 31.75,21.983 48.217,31.992c27.712,16.841 60.8,28.575 91.291,39.562c156.209,56.279 334.263,83.758 499.805,69.317c62.258,-5.434 120.554,-20.784 181.029,-35.329c-3.559,16.916 -6.696,26.537 -19.884,38.491c-25.304,13.25 -53.629,20.825 -81.133,28.171c-150.725,40.25 -314.237,31.225 -464.129,-7.317c-73.692,-18.945 -224.379,-67.033 -263.263,-132.912c1.509,-10.921 4.984,-21.417 8.067,-31.975Z" style="fill:#7a7bbe;fill-rule:nonzero;"/><path d="M2011.58,2816.16c39.562,33.858 76.566,103.32 85.325,154.55c3.779,22.095 6.325,55.72 -7.984,74.3c-3.2,4.154 -7.57,7.266 -13,7.454c-24.137,0.833 -52.725,-48.634 -66.866,-65.2c-10.171,-11.913 -21.359,-23.442 -33.921,-32.855c-8.888,-6.658 -22.629,-15.55 -34.367,-13.458c-4.725,0.842 -4.916,0.725 -7.641,4.846l2.475,5.529c2.08,2.07 4.105,4.193 6.075,6.371c16.233,17.754 48.691,58.183 47.67,83.033c-2.495,4.309 -3.354,6.454 -8.558,7.934c-23.329,6.633 -65.533,-19.538 -84.6,-30.884c-3.767,-47.341 -13.608,-94.312 -18.167,-141.683c51.917,-8.667 95.78,-21.967 133.559,-59.938Z" style="fill:#f2f2f4;fill-rule:nonzero;"/><path d="M2915.73,1464.12l8.6,0.717c12.354,11.35 10.745,52.504 21.966,72.812c7.717,13.967 19.771,26.867 35.717,30.863c45.567,11.421 90.004,-31.846 125.808,-52.834c-4.579,53.017 -4.112,74.73 29.725,117.875c-9.508,18.455 -20.304,36.509 -30.437,54.642c-11.809,-4.333 -22.642,-9.829 -33.767,-15.642c-32.229,-18.5 -65.721,-34.816 -97.908,-53.345c-24.821,-14.292 -48.45,-30.834 -73.992,-43.85c-17.325,-8.825 -97.862,-39.15 -104.542,-50.892c4.096,-15.858 12.313,-30.429 19.655,-44.988c5.263,1.595 10.544,3.136 15.841,4.625c33.85,9.521 54.867,-4.054 83.334,-19.983Z" style="fill:#c5a07c;fill-rule:nonzero;"/><path d="M1907.94,3074.66c10.625,4.738 21.263,9.617 32.492,12.746c31.062,8.663 55.987,4.313 83.408,-11.4c6.409,3.542 12.596,6.7 19.417,9.367c8.392,3.087 18.625,5.646 26.329,10.012c-8.275,10.725 -0.412,137.446 -4.654,164.13l-19.758,-2.638c-50.15,-11.092 -104.246,-12.088 -153.234,-27.642c11.55,-50.804 13.525,-102.712 16,-154.575Z" style="fill:#c5a07c;fill-rule:nonzero;"/><path d="M2043.26,3085.37c8.392,3.087 18.625,5.646 26.329,10.012c-8.275,10.725 -0.412,137.446 -4.654,164.13l-19.758,-2.638c-3.55,-20.25 -1.209,-43.537 -0.867,-64.104c0.587,-35.804 1.2,-71.634 -1.05,-107.4Z" style="fill:#8d6e59;fill-rule:nonzero;"/><path d="M2361.54,2478.06c23.429,10.925 48.021,13.512 72.546,4.195c43.704,-16.608 74.296,-64.362 98.146,-102.05c0.808,72.445 0.91,144.889 0.304,217.334c-57.354,-5.192 -115.021,-10.567 -172.108,-18.142c4.991,-31.854 1.479,-68.904 1.112,-101.337Z" style="fill:#c5a07c;fill-rule:nonzero;"/><path d="M2287.91,2109.63c24.821,-1.8 48.642,-10.483 73.579,-12.433c14.075,10.092 27.388,23.975 34.579,39.85c25.079,43.6 29.838,101.633 23.546,150.617c-0.058,25.125 -10.996,52.295 -27.171,71.112c-8.733,10.167 -26.754,20.408 -40.433,20.717c-4.283,0.1 -2.633,0.55 -5.783,-2.654c-2.638,-15.117 1.67,-32.659 2.633,-48.038c4.804,-76.562 -8.967,-160.125 -60.95,-219.171Z" style="fill:#7a7bbe;fill-rule:nonzero;"/><path d="M2396.07,2137.05c25.079,43.6 29.838,101.633 23.546,150.617c-8.254,-12.48 -2.325,-65.271 -6.087,-84.142c-4.046,-20.304 -19.059,-46.508 -17.459,-66.475Z" style="fill:#a25d70;fill-rule:nonzero;"/><path d="M1036.16,3229.61c25.929,13.071 51.2,25.775 78.946,34.755c81.512,26.37 176.887,22.641 260.246,8.662c-4.621,11.333 -9.284,21.396 -16.05,31.633c-2.867,3.134 -5.78,6.121 -9.025,8.871c-26.955,22.854 -116.525,17.213 -151.1,13.892c-47.763,-4.583 -126.23,-16.442 -158.334,-57.317c-9.696,-12.341 -6.483,-26.091 -4.683,-40.496Z" style="fill:#477599;fill-rule:nonzero;"/><path d="M2240.28,2468.09c30.4,-12.059 55.242,-27.184 83.225,-43.571c6.904,10.771 11.696,21.262 16.375,33.137c6.546,7.738 13.912,13.942 21.658,20.405c0.367,32.433 3.879,69.483 -1.112,101.337c-7.338,-0.317 -14.679,-1.367 -21.979,-2.183c-32.539,-3.084 -65.055,-6.414 -97.546,-9.992l-0.621,-99.133Z" style="fill:#c5a07c;fill-rule:nonzero;"/><path d="M2339.89,2457.66c6.546,7.738 13.912,13.942 21.658,20.405c0.367,32.433 3.879,69.483 -1.112,101.337c-7.338,-0.317 -14.679,-1.367 -21.979,-2.183c-5.438,-37.792 -1.805,-81.542 1.433,-119.559Z" style="fill:#8d6e59;fill-rule:nonzero;"/><path d="M1835.62,3229.45c5.346,-0.562 10.35,-1.662 15.425,0.592c1.896,6.183 0.65,10.979 -1.241,17.208c-4.13,13.608 -16.196,24.054 -28.734,29.792c-15.758,7.208 -33.775,10.525 -50.666,14.079c-62.175,13.087 -133.567,22.308 -194.496,-0.217c-13.792,-5.5 -24.346,-14.512 -30.296,-28.479c-2.096,-4.917 -1.558,-7.417 0.321,-12.187c7.566,-5.65 16.154,-2.388 25.312,-1.263c98.059,12.033 168.467,9.896 264.375,-19.525Z" style="fill:#477599;fill-rule:nonzero;"/><path d="M2200.62,2479.5l2.217,0.537c5.113,13.267 1.071,65.484 0.854,82.834c-54.45,-2.729 -109.971,-12.35 -164.233,-18.583c-7.971,-0.788 -15.917,-2.117 -23.846,-3.255c-2.829,-9.82 -4.829,-19.954 -7.108,-29.92c64.729,-6.796 128.908,-15.788 192.116,-31.613Z" style="fill:#c5a07c;fill-rule:nonzero;"/><path d="M1867.79,1952.82c4.784,-0.75 5.304,-1.054 9.584,1.067c8.875,15.433 9.891,32.712 7.662,50.058c-3.842,29.858 -21.454,73.233 -46.475,90.871c-13.029,9.183 -26.179,11.529 -41.704,9.083l-28.254,-5.779c11.312,-22.133 24.562,-43.025 34.371,-65.975c9.058,-21.204 14.787,-47.909 26.82,-67.3c5.605,-9.034 28.296,-10.429 37.996,-12.025Z" style="fill:#7a7bbe;fill-rule:nonzero;"/><path d="M1956.3,2509.24c5.695,2.337 8.329,3.754 11.012,9.399c15.196,31.98 34.192,129.355 22.792,160.43c-5.767,15.729 -16.463,20.908 -31.138,27.233c-10.141,4.033 -20.687,7.258 -31.029,10.763c16.446,-67.796 23.879,-138.35 28.363,-207.825Z" style="fill:#7a7bbe;fill-rule:nonzero;"/><path d="M1994.72,2728.84c4.067,19.271 3.063,38.029 -3.008,56.762c-33.063,34.933 -68.1,44.121 -114.279,52.496l-1.859,-2.096c11.388,-23.562 22.521,-46.433 29.325,-71.796c31.971,-7.85 60.684,-20.175 89.821,-35.366Z" style="fill:#7a7bbe;fill-rule:nonzero;"/><path d="M2438.06,2366.41c12.7,5.804 28.7,8.595 42.312,12.079c-12.833,30.054 -34.783,54.091 -64.779,67.12l-3.817,0.284c-10.85,0.704 -19.566,0.316 -27.929,-7.354c-3.787,-3.475 -7.433,-8.155 -7.358,-13.505c0.242,-17.441 29.546,-29.52 41.583,-38.995c7.238,-5.696 13.638,-12.963 19.988,-19.63Z" style="fill:#c5a07c;fill-rule:nonzero;"/><path d="M1782.26,1987.51c-1.938,19.859 -28.467,62.367 -41.425,78.188c-11.208,-6.988 -22.004,-14.842 -32.892,-22.325l-22.6,-15.471c35.446,-8.125 65.429,-22.487 96.917,-40.392Z" style="fill:#f2f2f4;fill-rule:nonzero;"/><path d="M1908.99,2051.71c6.613,8.459 18.571,50.959 23.796,64.75c-10.262,-0.008 -20.533,-0.712 -30.779,-1.225l-28.196,-2.075c15.571,-18.762 25.021,-39.508 35.179,-61.45Z" style="fill:#7a7bbe;fill-rule:nonzero;"/><path d="M2742.13,1581.25l37.246,-39.59l318.978,172.103l-28.294,41.576l-327.93,-174.089Z" style="fill:#8d6e59;"/></svg>