<?xml version="1.0" encoding="UTF-8" standalone="no"?><!DOCTYPE svg PUBLIC "-//W3C//DTD SVG 1.1//EN" "http://www.w3.org/Graphics/SVG/1.1/DTD/svg11.dtd"><svg width="100%" height="100%" viewBox="0 0 3164 3879" version="1.1" xmlns="http://www.w3.org/2000/svg" xmlns:xlink="http://www.w3.org/1999/xlink" xml:space="preserve" xmlns:serif="http://www.serif.com/" style="fill-rule:evenodd;clip-rule:evenodd;stroke-linejoin:round;stroke-miterlimit:2;"><rect id="Artboard1" x="-0" y="0" width="3163.91" height="3878.97" style="fill:none;"/><path d="M1419.27,10.659c61.692,-8.784 163.363,5.36 223.85,21.79c210.904,57.285 334.533,201.121 438.879,382.869c53.129,-104.858 147.713,-199.582 254.817,-247.769c105.575,-47.5 220.867,-46.647 328.142,-5.364c113.87,43.82 203.029,140.204 251.308,250.758c61.954,141.871 55.583,310.729 -0.646,453.334c-40.696,103.204 -113.087,202.27 -208.162,261.554c-33.246,20.729 -68.534,34.95 -104.23,50.587c110.992,21.034 188.317,137.971 263.813,211.734c18.642,18.212 49.15,31.529 63.825,52.595c4.662,6.696 6.192,16.088 4.487,24.017c-2.408,11.208 -11.37,19.179 -20.75,24.917c-53.625,32.825 -148.333,40.891 -209.633,35.804c-28.342,-2.354 -55.517,-8.125 -83.046,-14.904c4.992,37.558 6.175,77.383 5.1,115.275c-0.612,21.454 -1.641,94.775 -18.779,109.433c-6.671,5.704 -15.742,6.975 -24.221,6.446c-33.446,-2.079 -75.108,-25.929 -102.871,-43.871c-110.133,-71.175 -158.654,-170.796 -176.454,-297.171c-2.079,-14.762 1.959,-36.746 -8.508,-48.283c-4.854,-1.717 -5.496,-1.583 -10.546,-0.417c-4.125,16.321 1.758,56.234 1.833,75.792c0.262,20.594 -0.619,41.14 -2.641,61.637c-2.022,20.498 -5.172,40.82 -9.45,60.967c9.4,2.346 18.912,4.279 28.271,6.775c10.141,2.7 23.954,10.05 28.575,20.075c2.104,4.563 3.187,9.271 1.225,14.108c-2.396,5.9 -8.559,9.93 -14.23,12.288c-18.875,7.862 -36.858,0.746 -54.583,-5.95c-22.5,68.167 -53.5,124.571 -94.367,183.1c23.967,19.287 78.759,48.771 87.584,78.842c1.912,6.525 1.166,13.683 -2.454,19.5c-4.45,7.141 -12.467,10.595 -20.271,12.558c-19.95,-5.288 -79.279,-56.525 -98.471,-71.908c-69.804,71.287 -195.642,163.854 -294.029,183.095c83.558,31.142 157.687,74.984 226.208,132.08c87.692,73.075 172.542,171.666 182.592,289.845c6.212,73.046 -17.125,154.025 -64.571,210.205c1.908,4.955 3.54,10.001 4.896,15.137c6.291,24.671 -7.221,53.654 -20.175,74.213c-34.475,54.695 -90.446,100.57 -154.05,114.937c-12.184,28.571 -25.484,52.196 -43.279,77.671c52.545,58.333 241.516,227.45 305.237,255.958c32.008,14.321 74.763,1.479 106.017,-10.583c62.079,-23.967 118.1,-74.529 145.029,-135.788c66.258,-150.729 -31.079,-288.579 -84.142,-424.629c-43.15,-110.625 -49.616,-230.758 -0.816,-340.766c1.38,-3.1 2.797,-6.182 4.25,-9.246c1.455,-3.061 2.95,-6.106 4.483,-9.134c1.531,-3.027 3.099,-6.034 4.704,-9.02c1.606,-2.989 3.247,-5.957 4.925,-8.905c1.678,-2.947 3.393,-5.873 5.146,-8.779c1.75,-2.903 3.536,-5.784 5.358,-8.646c1.823,-2.861 3.681,-5.698 5.575,-8.512c1.892,-2.814 3.82,-5.606 5.784,-8.375c1.961,-2.767 3.957,-5.508 5.987,-8.225c2.028,-2.717 4.09,-5.408 6.188,-8.075c2.097,-2.667 4.226,-5.307 6.387,-7.921c2.161,-2.614 4.356,-5.2 6.583,-7.758c2.225,-2.561 4.482,-5.093 6.771,-7.596c2.289,-2.503 4.607,-4.978 6.954,-7.425c2.35,-2.445 4.731,-4.861 7.142,-7.25c2.408,-2.386 4.847,-4.743 7.317,-7.071c2.466,-2.325 4.962,-4.621 7.487,-6.887c2.525,-2.264 5.078,-4.498 7.659,-6.7c2.58,-2.2 5.187,-4.37 7.82,-6.509c2.634,-2.136 5.294,-4.24 7.98,-6.312c2.686,-2.072 5.397,-4.11 8.133,-6.113c2.736,-2.005 5.496,-3.976 8.279,-5.912c2.786,-1.936 5.596,-3.838 8.429,-5.704c2.831,-1.867 5.685,-3.698 8.563,-5.492c2.878,-1.795 5.778,-3.554 8.7,-5.279c2.919,-1.725 5.861,-3.413 8.825,-5.063c2.961,-1.653 5.943,-3.266 8.946,-4.841c3.002,-1.578 6.025,-3.118 9.066,-4.621c3.042,-1.503 6.1,-2.968 9.175,-4.396c3.078,-1.425 6.173,-2.813 9.284,-4.163c3.114,-1.352 6.241,-2.665 9.383,-3.937c3.144,-1.272 6.304,-2.506 9.479,-3.7c90.613,-34.979 200.467,-35.246 289.642,4.55c75.608,33.737 138.262,97.85 167.696,175.512c22.158,58.463 33.15,141.134 5.933,199.771c-9.454,20.367 -19.246,35.013 -41.517,42.634c-15.987,5.47 -29.941,5.787 -45.204,-2.121c-46.358,-24.025 -36.329,-95.138 -50.742,-138.654c-15.691,-47.384 -47.675,-83.1 -92.362,-105.08c-45.692,-22.475 -102.292,-26.45 -150.417,-9.637c-54.916,19.192 -95.791,56.983 -120.966,109.137c-74.713,154.796 40.829,301.3 91.012,443.934c42.967,122.133 43.192,243.954 -13.108,361.779c-2.425,4.811 -4.938,9.576 -7.538,14.296c-2.6,4.716 -5.286,9.384 -8.058,14.004c-2.772,4.619 -5.628,9.187 -8.567,13.704c-2.941,4.514 -5.964,8.972 -9.066,13.375c-3.103,4.406 -6.286,8.751 -9.55,13.038c-3.264,4.286 -6.606,8.511 -10.025,12.675c-3.42,4.163 -6.914,8.262 -10.484,12.295c-3.569,4.037 -7.211,8.006 -10.925,11.909c-3.716,3.9 -7.502,7.73 -11.358,11.491c-3.858,3.764 -7.783,7.455 -11.775,11.071c-3.992,3.617 -8.049,7.16 -12.171,10.629c-4.122,3.47 -8.307,6.862 -12.554,10.175c-4.247,3.314 -8.554,6.549 -12.921,9.705c-4.367,3.158 -8.789,6.233 -13.267,9.225c-4.48,2.994 -9.013,5.905 -13.6,8.733c-4.586,2.828 -9.222,5.569 -13.908,8.225c24.342,4.458 56.979,9.454 78.45,21.725c7.25,4.146 17.071,11.996 18.396,20.837c0.704,4.684 -1.133,9.325 -3.733,13.125c-21.071,30.809 -101.921,48.025 -135.938,54.559c-176.092,33.816 -368.246,4.879 -521.908,-88.625c-24.071,-14.646 -47.959,-30.492 -70.246,-47.734c-20.263,-15.679 -39.592,-32.82 -60.925,-47.045l-2.75,-1.817c0.733,1.528 1.45,3.062 2.15,4.604c14.808,32.567 38.529,114.813 24.058,149.388c-10.896,26.041 -42.679,37.645 -66.737,47.308c1.879,34.883 5.479,73.721 20.316,105.837c25.942,56.163 71.555,85.167 80.005,154.3c4.12,33.688 -3.342,65.134 -24.83,91.8c-39.829,49.425 -110.37,67.413 -170.616,73.984c-78.596,8.575 -181.363,5.487 -245.734,-47.342c-50.754,-41.654 -53.979,-107.221 -28.816,-164.079c11.546,-26.092 28.204,-49.771 35.525,-77.625c8.879,-33.788 4.687,-70.088 1.333,-104.346c-32.242,-7.3 -67.129,-10.042 -96.892,-25.475c-12.379,-6.421 -19.016,-13.312 -24.995,-26.083c-11.817,-25.238 -14.65,-58.175 -19.934,-85.471c-8.808,-45.467 -17.737,-93.608 -31.75,-137.767l-0.779,-2.387c-31.075,-0.209 -61.696,-0.746 -92.525,-5.275c-0.017,35.908 5.996,196.996 -9.7,219.379c-15.917,22.692 -45.587,26.504 -70.846,30.15l1.85,118.621c0.471,28.125 2.717,57.496 -1.7,85.346c-2.441,15.391 -7.483,30.929 -15.558,44.291c-34.517,57.142 -113.008,86.938 -174.288,102.5c-112.85,28.659 -284.67,38.475 -386.929,-22.954c-25.204,-15.142 -45.362,-37.737 -52.037,-67.004c-7.588,-33.242 1.741,-69.821 19.308,-98.438c57.633,-93.875 164.042,-96.958 259.583,-119.954c0.981,-21.111 1.491,-42.234 1.53,-63.371c-25.092,-8.704 -54.7,-19.27 -71.321,-41.212c-26.629,-35.154 -5.563,-140.138 1.246,-183.538c-20.78,-6.708 -41.355,-13.787 -61.205,-22.954c-33.525,-15.479 -59.125,-33.266 -72.25,-69.325c2.88,-26.833 12.496,-53.066 20.08,-78.846c7.441,-25.958 14.716,-51.963 21.825,-78.016c-6.12,-2.353 -12.195,-4.814 -18.225,-7.384c-23.613,-10.22 -43.496,-29.212 -52.4,-53.595c-11.363,-31.117 -1.13,-58.7 11.758,-87.1c-12.579,-7.888 -24.967,-15.95 -36.896,-24.8c-36.442,-27.038 -66.821,-55.992 -73.767,-102.396c-27.2,-28.988 -53.4,-53.054 -72.112,-88.884c-30.442,-58.275 -33.508,-126.875 -13.521,-189.016c48.613,-151.113 211.183,-258.279 346.138,-326.688c41.595,-21.087 85.541,-37.266 126.829,-58.629c-4.614,-1.272 -9.165,-2.736 -13.654,-4.392c-36.18,-13.437 -70.7,-31.5 -103.813,-51.237c-108.133,-64.458 -170.946,-140.521 -222.621,-254.733c-3.789,1.43 -7.596,2.813 -11.421,4.15c-24.958,8.575 -136.979,50.62 -156.487,37.141c-5.079,-3.512 -6.2,-6.266 -7.921,-11.875c-1.942,-6.337 -1.1,-10.65 2.288,-16.358c15.295,-25.788 128.583,-51.992 160.5,-60.938c-13.963,-43.437 -18.4,-90.82 -22.596,-136.104c-27.567,-0.708 -55.167,-2.496 -82.734,-2.641c-25.966,-0.138 -52.004,1.779 -77.941,1.337c-11.954,-0.204 -27.521,-0.225 -35.675,-10.454c-0.431,-0.55 -0.835,-1.121 -1.213,-1.713c-0.375,-0.588 -0.722,-1.195 -1.041,-1.82c-0.317,-0.625 -0.603,-1.263 -0.859,-1.913c-0.252,-0.653 -0.475,-1.317 -0.666,-1.992c-0.192,-0.672 -0.349,-1.352 -0.471,-2.041c-0.125,-0.689 -0.215,-1.382 -0.271,-2.079c-0.058,-0.7 -0.082,-1.4 -0.071,-2.1c0.011,-0.7 0.057,-1.398 0.138,-2.092c0.18,-1.436 0.493,-2.842 0.937,-4.217c0.445,-1.378 1.014,-2.701 1.708,-3.971c0.695,-1.269 1.502,-2.462 2.421,-3.579c0.92,-1.116 1.935,-2.137 3.046,-3.062c20.175,-17.129 157.896,-8.55 190.158,-6.025c2.392,-25.921 1.205,-52.504 2.742,-78.575c0.881,-16.064 2.238,-32.088 4.071,-48.071c1.833,-15.983 4.139,-31.899 6.917,-47.746c2.775,-15.847 6.019,-31.599 9.733,-47.254c3.711,-15.656 7.883,-31.186 12.517,-46.592c-46.225,-1.546 -89.642,-8.625 -133.625,-23.183c-121.884,-40.333 -222.567,-132.221 -279.317,-246.908c-2.197,-4.475 -4.339,-8.978 -6.425,-13.509c-2.086,-4.528 -4.117,-9.082 -6.092,-13.662c-1.975,-4.578 -3.893,-9.179 -5.754,-13.804c-1.861,-4.625 -3.665,-9.274 -5.412,-13.946c-1.75,-4.67 -3.441,-9.36 -5.071,-14.071c-1.634,-4.711 -3.209,-9.442 -4.725,-14.192c-1.517,-4.75 -2.975,-9.518 -4.375,-14.304c-1.4,-4.786 -2.742,-9.589 -4.025,-14.408c-1.284,-4.817 -2.506,-9.65 -3.667,-14.5c-1.164,-4.847 -2.268,-9.71 -3.312,-14.588c-1.045,-4.875 -2.03,-9.762 -2.955,-14.662c-0.925,-4.9 -1.79,-9.81 -2.595,-14.729c-0.803,-4.923 -1.546,-9.853 -2.23,-14.792c-0.683,-4.939 -1.305,-9.886 -1.866,-14.842c-0.564,-4.955 -1.065,-9.916 -1.504,-14.883c-0.442,-4.967 -0.823,-9.938 -1.142,-14.913c-0.317,-4.975 -0.574,-9.954 -0.771,-14.937c-0.197,-4.983 -0.332,-9.968 -0.404,-14.954c-0.075,-4.986 -0.089,-9.972 -0.042,-14.959c0.05,-4.986 0.16,-9.97 0.329,-14.954c0.17,-4.983 0.4,-9.964 0.692,-14.941c0.295,-4.978 0.649,-9.952 1.063,-14.921c0.414,-4.967 0.889,-9.929 1.425,-14.888c0.536,-4.958 1.133,-9.908 1.791,-14.85c0.656,-4.944 1.374,-9.879 2.154,-14.804c0.778,-4.925 1.616,-9.839 2.513,-14.742c0.9,-4.905 1.86,-9.798 2.879,-14.679c1.02,-4.883 2.097,-9.751 3.233,-14.604c1.139,-4.855 2.338,-9.696 3.596,-14.521c1.256,-4.825 2.571,-9.634 3.946,-14.429c1.375,-4.792 2.808,-9.567 4.3,-14.325c1.492,-4.758 3.042,-9.497 4.65,-14.217c38.313,-112.404 117.1,-216.228 225.654,-268.507c2.592,-1.252 5.199,-2.472 7.821,-3.66c2.622,-1.188 5.26,-2.344 7.913,-3.467c2.65,-1.124 5.314,-2.214 7.991,-3.272c2.678,-1.058 5.368,-2.083 8.071,-3.075c2.703,-0.992 5.417,-1.951 8.142,-2.877c2.728,-0.925 5.465,-1.816 8.212,-2.675c2.748,-0.858 5.506,-1.682 8.275,-2.473c2.767,-0.79 5.545,-1.547 8.334,-2.269c2.786,-0.722 5.58,-1.41 8.383,-2.064c2.806,-0.654 5.618,-1.273 8.437,-1.858c2.817,-0.584 5.642,-1.134 8.475,-1.65c2.834,-0.515 5.673,-0.996 8.517,-1.441c2.845,-0.446 5.693,-0.857 8.546,-1.232c2.856,-0.376 5.714,-0.717 8.575,-1.023c2.864,-0.305 5.731,-0.576 8.6,-0.811c2.869,-0.235 5.742,-0.435 8.617,-0.6c2.872,-0.165 5.747,-0.294 8.625,-0.389c2.877,-0.094 5.755,-0.153 8.633,-0.176c2.881,-0.024 5.76,-0.012 8.637,0.035c2.878,0.047 5.756,0.13 8.634,0.247c2.878,0.118 5.753,0.271 8.625,0.459c2.872,0.188 5.741,0.412 8.608,0.67c2.867,0.259 5.731,0.553 8.592,0.882c2.861,0.329 5.716,0.693 8.566,1.092c2.853,0.399 5.699,0.833 8.538,1.302c2.842,0.469 5.676,0.973 8.504,1.511c2.828,0.538 5.649,1.112 8.463,1.719c2.814,0.608 5.62,1.25 8.42,1.927c2.798,0.676 5.587,1.387 8.367,2.132c2.781,0.745 5.553,1.524 8.317,2.337c2.761,0.813 5.512,1.66 8.254,2.541c2.739,0.881 5.468,1.795 8.187,2.742c128.209,45.161 205.188,145.923 261.8,264.657c40.838,-37.317 74.067,-85.429 110.663,-126.9c147.071,-166.667 278.642,-276.101 508.229,-301.147Zm-815.362,2872.88c6.533,5.925 12.895,11.913 20.091,17.038c4.309,-17.184 33.954,-151.213 33.409,-157.884c-8.155,13.467 -16.242,26.95 -26.371,39.059c-16.792,20.079 -50.425,40.512 -44.213,70.383c2.434,11.713 10.063,21.996 17.084,31.404Zm1224.33,-435.008c-4,16.4 -8.189,32.753 -12.567,49.058l18.571,-15.341c6.587,-6.446 13.337,-12.709 19.129,-19.9c-8.246,-4.992 -16.329,-9.842 -25.133,-13.817Z" style="fill:#333944;"/><path d="M1453.15,58.692c74.083,-4.821 157.55,11.116 226.729,36.87c53.916,20.072 104.896,50.504 150.025,86.017c11.922,9.239 23.503,18.888 34.741,28.947c11.239,10.059 22.109,20.503 32.609,31.333c10.497,10.828 20.6,22.016 30.308,33.563c9.706,11.545 18.99,23.418 27.854,35.621c77.363,104.904 131.771,226.9 237.842,307.8c74.492,56.813 148.004,84.329 238.892,101.746c33.65,6.45 70.216,10.871 101.508,25.542c16.308,7.646 35.325,20.021 41.246,37.958c12.796,38.746 5.6,72.771 -11.846,108.429c-39.975,81.709 -122.821,154.284 -203.933,194.079c-29.475,14.459 -60.83,24.538 -91.805,35.221c-142.504,-129.683 -446.325,-228.279 -634.145,-262.858c-108.538,-24.875 -223.688,-39.613 -334.78,-46.275c-178.929,-10.729 -365.929,2.933 -538.579,52.675c-30.962,8.925 -62.537,17.712 -91.8,31.379c-33.75,15.763 -62.016,35.304 -89.829,59.95c-18.35,-9.333 -34.796,-22.958 -50.037,-36.637c-57.059,-51.209 -98.525,-108.334 -126.896,-179.5c-9.204,-23.096 -17.65,-47.384 -18.559,-72.48c-0.662,-18.216 2.85,-37.008 15.809,-50.679c32.991,-34.804 124.55,-16.366 169.425,-18.208c215.537,-8.854 305.108,-177.333 434.658,-317.725c123.004,-133.298 266.842,-215.128 450.563,-222.768Z" style="fill:#333944;fill-rule:nonzero;"/><path d="M1417.82,156.547c27.596,-4.613 62.967,1.103 89.617,8.842c53.579,15.562 102.804,53.455 129.721,102.563c19.796,36.12 26.283,76.941 14.333,116.754c-9.521,31.721 -32.171,67.804 -60.041,86.525c-12.734,8.55 -28.467,14.241 -42.08,21.6c-7.695,16.796 -10.97,35.587 -14.825,53.562c37.771,-7.316 72.888,-18.962 108.93,-32.108c2.941,-13.475 6.25,-26.892 16.225,-36.979c7.891,-7.979 17.962,-12.271 29.237,-11.829c11.513,0.454 22.433,5.845 30.229,14.245c11.971,12.896 14.238,25.234 13.804,42.3c9.188,9.742 19.134,20.238 24.23,32.8c5.633,13.896 3.558,27.896 -2.33,41.342c-22.712,51.892 -70.058,9.725 -107.358,11.904c-34.483,2.013 -83.025,18.717 -115.754,30.888c17.262,7.758 35.079,14.179 52.792,20.825c18.608,-4.559 39.208,-13.754 58.641,-11.788c12.109,1.225 25.904,6 33.334,16.204c6.325,8.692 7.429,20.067 5.7,30.417c-3.409,20.383 -17.03,30.083 -32.955,40.738c5.721,12.237 9.205,20.9 4.65,34.22c-4.65,13.6 -14.295,24.234 -27.55,29.9c-1.283,0.564 -2.591,1.062 -3.925,1.492c-1.336,0.433 -2.688,0.799 -4.058,1.096c-1.369,0.3 -2.75,0.53 -4.142,0.692c-1.394,0.161 -2.793,0.252 -4.195,0.275c-1.4,0.019 -2.799,-0.03 -4.196,-0.146c-1.397,-0.117 -2.786,-0.303 -4.167,-0.559c-1.378,-0.255 -2.74,-0.577 -4.087,-0.966c-1.348,-0.392 -2.671,-0.849 -3.971,-1.371c-22.546,-9.221 -32.029,-38.096 -41.375,-58.671c-19.304,-14.042 -43.95,-22.358 -65.867,-31.546c-26.512,-7.254 -51.121,-23.208 -77.629,-30.737c-35.021,-9.946 -101.475,23.825 -138.754,31.504l-3.209,0.642c-5.762,17.804 -10.562,33.875 -25.258,46.654c-9.55,8.304 -22.829,12.908 -35.487,11.537c-10.375,-1.125 -19.313,-6.504 -25.417,-14.937c-11.238,-15.521 -10.075,-30.879 -7.342,-48.6c-14.254,-8.142 -24.721,-16.625 -30.629,-32.484c-3.892,-10.454 -3.887,-21.975 1.392,-31.962c22.533,-42.642 56.525,-16.183 89.387,-14.221c14.313,0.858 29.017,-5.179 42.534,-9.354c-25.175,-13.803 -50.443,-27.433 -75.805,-40.892c-18.075,5.342 -35.766,10.084 -54.833,7.238c-13.846,-2.067 -26.775,-8.963 -35.058,-20.413c-7.392,-10.212 -9.984,-22.504 -7.771,-34.883c4.083,-22.838 20.717,-35.85 38.617,-48.146c2.654,-8.271 5.475,-17.329 10.266,-24.625c6.767,-10.304 17.492,-18.612 29.8,-20.704c12.15,-2.063 24.367,1.775 33.921,9.375c19.213,15.283 23.458,36.2 26.125,59.112c22.458,8.913 44.575,20.98 66.438,31.405c-1.825,-18.813 -2.459,-40.275 -9.071,-58.05c-5.367,-3.359 -10.5,-6.917 -15.409,-10.925c-34.441,-28.125 -59.195,-66.067 -63.466,-111.009c-4.213,-44.321 13.021,-87.641 41.508,-121.121c39.821,-46.798 95.975,-72.573 156.583,-77.625Z" style="fill:#333944;fill-rule:nonzero;"/><path d="M1414.78,187.724c33.304,-4.217 70.166,1.23 101.237,13.67c43.529,17.429 82.821,49.988 101.363,93.841c13.245,31.333 14.533,67.112 1.504,98.775c-16.55,40.221 -47.796,60.237 -86.584,76.233c-11.458,21.929 -12.466,61.396 -28.179,77.125c-11.408,11.421 -26.696,9.704 -41.675,10.225c-2.662,-11.854 -3.329,-23.558 -7.941,-34.987c-2.359,-5.85 -4.621,-11.025 -10.73,-13.663l-3.429,1.492c-3.583,5.946 -5.283,10.612 -6.729,17.383c-1.062,10.704 -1.042,24.067 -9.158,31.975c-4.104,1.709 -7.204,3.2 -11.8,2.584c-20.459,-2.734 -29.304,-37.205 -41.784,-51.284l-6.758,1.179c-3.437,13.759 -2.871,29.392 -3.808,43.6c-6.946,-1.716 -14.404,-3.283 -20.167,-7.783c-18.737,-14.633 -13.621,-65.154 -15.775,-87.058c-9.237,-5.213 -18.283,-10.442 -26.733,-16.892c-27.975,-21.346 -44.6,-51.896 -48.538,-86.729c-4.146,-36.675 8.842,-71.279 31.646,-99.663c33.521,-41.719 81.513,-64.465 134.038,-70.023Z" style="fill:#fff;fill-rule:nonzero;"/><path d="M1338.43,295.385c10.883,-0.658 20.679,0.162 30.745,4.687c15.242,6.85 26.146,20.096 31.792,35.634c6.833,18.816 6.15,40.775 -2.408,58.941c-8.979,19.067 -21.084,27.559 -40.263,34.5c-11.779,1.355 -22.129,0.667 -33.046,-4.362c-15,-6.904 -25.629,-19.829 -31.07,-35.254c-6.996,-19.804 -5.842,-44.359 4.066,-63.017c9.329,-17.567 21.675,-25.333 40.184,-31.129Z" style="fill:#333944;fill-rule:nonzero;"/><path d="M1507.18,299.493c9.55,-0.458 19.387,0.984 28.095,5.05c15.425,7.204 26.405,20.917 32.163,36.729c0.461,1.253 0.889,2.516 1.283,3.788c0.395,1.275 0.757,2.558 1.088,3.85c0.33,1.294 0.626,2.594 0.887,3.9c0.264,1.308 0.493,2.622 0.688,3.942c0.194,1.319 0.355,2.643 0.483,3.97c0.128,1.328 0.221,2.659 0.279,3.992c0.059,1.333 0.082,2.667 0.071,4c-0.008,1.333 -0.051,2.667 -0.129,4c-0.078,1.331 -0.19,2.658 -0.338,3.983c-0.147,1.328 -0.327,2.65 -0.541,3.967c-0.214,1.317 -0.461,2.626 -0.742,3.929c-0.283,1.303 -0.598,2.599 -0.946,3.888c-0.347,1.286 -0.727,2.564 -1.141,3.833c-0.414,1.27 -0.861,2.526 -1.342,3.771c-0.478,1.244 -0.988,2.476 -1.529,3.696c-0.542,1.219 -1.114,2.423 -1.717,3.612c-8.929,17.609 -21.433,26.671 -39.692,32.996c-10.02,0.442 -21.287,-1.333 -30.5,-5.379c-15.45,-6.788 -26.279,-20.183 -31.683,-35.954c-6.933,-20.246 -5.687,-44.421 4.192,-63.5c9.308,-17.988 22.483,-25.959 41.071,-32.063Z" style="fill:#333944;fill-rule:nonzero;"/><path d="M1418.2,432.802c2.934,-0.05 5.805,-0.013 8.713,0.433c9.262,1.417 17.746,6.3 22.958,14.208c0.475,0.722 0.913,1.467 1.313,2.234c0.4,0.766 0.761,1.551 1.083,2.354c0.322,0.803 0.603,1.619 0.842,2.45c0.239,0.83 0.436,1.671 0.591,2.521c0.156,0.85 0.269,1.707 0.338,2.57c0.069,0.862 0.094,1.724 0.075,2.588c-0.017,0.864 -0.076,1.725 -0.179,2.583c-0.106,0.859 -0.253,1.71 -0.442,2.554c-2.325,10.613 -8.742,15.592 -17.367,21.388c-3.229,0.175 -6.341,0.3 -9.541,-0.308c-9.021,-1.705 -16.396,-6.888 -21.146,-14.759c-0.508,-0.841 -0.972,-1.708 -1.392,-2.6c-0.419,-0.889 -0.793,-1.798 -1.121,-2.729c-0.325,-0.928 -0.602,-1.869 -0.833,-2.825c-0.23,-0.955 -0.412,-1.921 -0.546,-2.896c-0.133,-0.978 -0.215,-1.958 -0.246,-2.941c-0.033,-0.984 -0.016,-1.966 0.05,-2.946c0.067,-0.984 0.185,-1.96 0.355,-2.929c0.166,-0.97 0.382,-1.928 0.645,-2.875c2.555,-9.346 7.825,-13.28 15.85,-18.075Z" style="fill:#333944;fill-rule:nonzero;"/><path d="M1188.15,459.102c3.221,0.779 5.63,1.754 8.571,3.387c15.9,8.825 15.5,39.308 20.675,55.413l0.888,2.683c35.341,19.317 74.916,34.204 111.641,51.067c84.287,38.766 168.81,77.002 253.571,114.708c15.984,-3.838 47.509,-21.196 62.971,-14.375c5.542,2.45 9.017,6.3 11.275,11.854c2.05,5.046 2.171,10.225 -0.796,15.004c-8.483,13.667 -30.216,17.488 -44.637,20.892c5.804,10.308 15.404,21.779 17.258,33.604c1.375,8.758 -2.671,13.679 -7.783,20.117c-6.771,3.491 -13.009,6.533 -20.738,3.379c-17.771,-7.25 -25.096,-41.213 -32.775,-57.738c-21.212,-10.545 -43.754,-19.308 -65.387,-29.104l-158.454,-71.596l-91.23,-41.279c-13.979,-6.312 -28.629,-14.279 -43.158,-19.071c-22.021,-7.27 -49.958,8.6 -69.742,-1.845c-6.02,-3.18 -13.125,-11.421 -14.554,-18.15c-1.175,-5.521 -0.466,-9.109 2.471,-13.909c8.292,-13.558 25.35,-16.187 39.521,-18.262c0.537,-6.725 0.917,-13.609 1.954,-20.275c2.021,-13.034 8.071,-18.954 18.458,-26.504Z" style="fill:#fff;fill-rule:nonzero;"/><path d="M1681.34,488.927c3.371,0.016 7.742,-0.255 10.971,0.67c4.721,1.355 8.667,4.542 11.333,8.634c7.659,11.75 2.85,28.029 -0.387,40.462c10.312,6.304 21.866,11.917 27.85,22.909c3.458,6.35 5.475,13.795 2.579,20.795c-2.467,5.971 -8.288,10.017 -14.292,11.863c-18.321,5.637 -37.116,-4.367 -53.129,-12.271c-45.375,1.4 -94.133,19.104 -137.962,30.933c-3.17,0.784 -6.353,1.513 -9.55,2.188c-25.359,5.271 -41.55,-7.446 -61.825,-20.617c45.583,-17.879 97.158,-26.866 144.604,-39.716c19.579,-5.305 40.558,-10.15 58.491,-19.805c6.625,-16.245 9.755,-32.191 21.317,-46.045Z" style="fill:#fff;fill-rule:nonzero;"/><path d="M1308.56,633.052c20.283,-2.621 38.504,11.058 55.012,21.32c-38.083,15.542 -79.137,22.93 -116.891,38.875c-4.059,14.605 -9.021,39.225 -24.338,46.388c-8.221,3.846 -13.571,2.962 -21.896,0.587c-2.12,-2.795 -4.458,-5.72 -5.916,-8.933c-5.859,-12.925 4.671,-29.437 10.054,-40.85c-11.454,-5.633 -34.221,-13.137 -38.738,-25.717c-2.5,-6.966 -1.104,-13.491 1.717,-19.991c19.633,-16.092 43.213,8.829 63.775,9.304c19.45,0.454 56.854,-15.663 77.221,-20.983Z" style="fill:#fde9ca;fill-rule:nonzero;"/><path d="M608.016,1030.06c61.079,32.7 130.913,56.075 196.488,78.112c75.044,25.611 150.909,48.506 227.595,68.684c76.684,20.175 153.992,37.582 231.925,52.22c-1.312,85.046 20.98,160.15 78.784,224.388c52.996,58.892 127.196,90.321 205.812,93.812c77.654,3.45 149.996,-18.679 207.596,-72.133c61.042,-56.646 99.375,-134.046 102.458,-217.596c115.867,8.417 235.975,-3.425 350.121,-23.425c19.713,101.467 30.646,203.379 13.284,306.259c-82.046,-18.855 -196.109,-25.484 -278.917,-14.271c-13.933,1.887 -42.342,6.691 -49.442,20.196c-2.354,4.483 -2.704,8.179 -0.125,12.708c4.846,8.504 16.313,12.417 25.413,13.379c30.871,3.267 64.962,-2.925 96.229,-3.65c65.55,-1.512 129.35,5.342 193.654,17.746c-21.896,58.671 -46.425,117.117 -87.342,165.412c-26.166,-13.683 -51.208,-29.787 -77.525,-43.366c-13.2,-6.809 -27.845,-10.988 -41.637,-16.471c-35.246,-14.017 -69.788,-29.317 -107.538,-35.763c-16.22,-2.766 -31.545,-2.904 -45.325,6.896c-1.404,3.346 -2.808,4.284 -1.325,7.904c3.942,9.609 14.013,16.155 22.867,20.767c23.208,12.096 51.767,18.8 76.567,27.671c21.846,7.808 42.821,18.25 63.721,28.275c25.745,11.417 50.037,25.987 74.4,40.042c-129.159,124.012 -287.355,195.008 -462.1,229.625c-30.575,6.058 -95.796,8.491 -118.875,24.125c-5.496,3.725 -7.084,6.595 -8.35,13.004c3.479,12.366 17.808,18.775 28.05,25.058l0.091,3.517c-4.954,8.816 -10.304,16.608 -17.383,23.871c-59.517,61.079 -160.467,84.575 -242.738,86.283c-9.562,23.729 -19.67,52.658 -41.37,68.067c-5.896,4.183 -12.838,6.908 -20.125,5.6c-21.946,-3.938 -11.175,-58.638 -25.013,-78.909c-14.25,-20.866 -86.021,-27.162 -118.554,-76.262c3.758,-15.842 8.471,-30.813 14.583,-45.9c42.721,8.683 131.7,18.396 172.167,6.633c8.254,-2.4 13.525,-5.221 17.704,-12.954c0.4,-3.775 0.829,-6.763 -0.933,-10.329c-2.175,-4.404 -6.413,-7.663 -10.784,-9.709c-23.25,-10.879 -65.145,-7.179 -90.941,-9.629c-22.828,-2.311 -45.564,-5.318 -68.209,-9.021c-78.87,-13.108 -158.145,-33.229 -232.55,-62.7c-140.983,-55.837 -254.837,-137.525 -316.645,-280.679c19.966,-7.929 57.516,-11.866 70.62,-29.179c3.205,-4.237 4.659,-7.858 3.317,-13.183c-1.371,-5.429 -4.517,-8.884 -9.275,-11.625c-18.4,-10.592 -60.412,5.866 -79.929,11.716c-8.492,-39.908 -14.354,-79.529 -19.258,-120.037c17.62,4.821 60.279,21.312 76.908,13.083c4.829,-2.387 8.075,-5.816 9.429,-11.146c1.375,-5.4 -0.029,-10.187 -3.033,-14.712c-12.334,-18.554 -63.379,-25.971 -84.929,-31.413c-8.334,-150.366 36.166,-306.533 100.387,-440.991Z" style="fill:#f2f2f4;fill-rule:nonzero;"/><path d="M1013.6,1462.74c32.209,-4.646 74.213,1.375 104.53,13.142c20.591,7.996 41.362,21.429 50.083,42.621c7.521,18.275 3.925,38.27 -4.254,55.675c-20.063,42.687 -62.346,68.662 -104.879,84.379c0.683,5.091 1.507,10.161 2.47,15.208c0.964,5.047 2.067,10.064 3.309,15.05c1.241,4.986 2.619,9.933 4.133,14.842c1.514,4.911 3.163,9.776 4.946,14.596c1.783,4.816 3.697,9.582 5.742,14.295c2.047,4.714 4.222,9.367 6.525,13.959c2.302,4.594 4.73,9.121 7.283,13.579c2.556,4.458 5.231,8.843 8.025,13.154c13.287,20.158 27.404,35.475 52.254,40.071c62.042,11.475 155.617,-18.371 206.525,-53.525c41.204,-28.454 69.271,-61.704 78.608,-111.521c-15.087,-0.196 -33.183,1.225 -45.766,-8.837c-3.929,-3.142 -4.792,-5.592 -5.134,-10.396c2.592,-5.334 5.046,-8.642 9.842,-12.234c25.463,-19.066 67.329,-18.966 97.438,-13.575c20.862,3.734 46.783,11.959 58.745,30.684c3.909,6.121 6.671,14.521 4.125,21.696c-1.862,5.25 -6.087,8.258 -10.991,10.404c-16.246,7.1 -37.55,-4.634 -52.15,-10.834c-11.646,35.742 -26.592,64.35 -50.234,93.655c-66.92,69.229 -138.737,102.52 -235.108,111.691c-99.475,9.463 -218.887,-10.066 -297.504,-76.141c-15.342,-12.892 -34.242,-32.205 -34.942,-53.38c-0.233,-7.025 1.963,-10.725 6.525,-15.779c4.509,-1.083 12.571,-2.716 17.021,-1.012c12.013,4.604 22.908,19.871 33.075,27.971c4.806,3.819 9.714,7.504 14.725,11.054c5.008,3.547 10.111,6.954 15.308,10.221c5.198,3.269 10.481,6.391 15.85,9.366c5.37,2.978 10.817,5.804 16.342,8.479c5.525,2.678 11.12,5.2 16.783,7.567c5.664,2.37 11.389,4.581 17.175,6.633c5.787,2.053 11.624,3.945 17.513,5.675c5.892,1.731 11.825,3.298 17.8,4.7c-28.792,-47.108 -50.404,-90.779 -56.15,-146.675c-22.45,-5.695 -43.029,-14.858 -61.742,-28.591c-23.991,-17.604 -45.166,-43.425 -48.983,-73.775c-2.475,-19.709 3.633,-38.767 16.342,-53.934c24.387,-29.104 63.116,-36.27 98.795,-40.158Z" style="fill:#333944;fill-rule:nonzero;"/><path d="M1009.64,1506.42c20.129,-1.104 40.021,-1.12 59.879,2.863c14.292,2.862 32.384,8.3 40.45,21.596c4.3,7.083 4.442,15.304 1.959,23.054c-7.596,23.683 -37.334,43.892 -58.613,54.6c-3.816,1.55 -7.696,3.133 -11.679,4.212c-17.654,4.784 -37.887,-3.02 -52.571,-12.575c-16.083,-10.462 -33.446,-27.283 -37.021,-46.983c-1.687,-9.287 -0.02,-18.392 5.842,-25.929c12.179,-15.663 33.404,-18.425 51.754,-20.838Z" style="fill:#fbcfb4;fill-rule:nonzero;"/><path d="M777.32,1151.93c22.875,-1.159 43.938,-0.488 64.867,10.387c29.483,15.317 50.196,44.588 59.367,76.038c14.029,48.12 8.625,109.358 -15.95,153.287c-17.121,30.6 -41.117,49.604 -74.896,59.217c-27.704,5.554 -53.096,1.525 -77.063,-13.992c-30.912,-20.008 -46.583,-52.829 -53.516,-87.871c-9.559,-48.321 -5.146,-106.504 23.145,-148.166c17.984,-26.488 42.596,-42.742 74.046,-48.9Z" style="fill:#333944;fill-rule:nonzero;"/><path d="M782.12,1201.6c3.263,0.009 6.838,-0.07 10.021,0.68c5.038,1.191 9.925,5.6 12.033,10.225c4.809,10.541 -0.054,25.35 -5.07,34.908c-8.759,16.683 -18.267,24.158 -36.013,29.871c-2.704,-0.384 -3.121,-0.35 -6.046,-1.275c-6.541,-2.075 -15.254,-7.921 -17.75,-14.609c-3.121,-8.354 -1.591,-15.962 1.938,-23.883c8.487,-19.062 22.537,-28.233 40.887,-35.917Z" style="fill:#fff;fill-rule:nonzero;"/><path d="M2468.5,189.8c13.046,-1.824 27.2,-1.504 40.35,-1.513c100.93,-0.073 193.33,40.598 264.213,112.298c86.992,87.992 129.967,215.367 128.567,337.683c-1.667,145.367 -57.346,288.738 -162.3,390.467c-93.488,90.617 -212.592,131.225 -341.263,128.842c-10.142,-6.68 -19.283,-13.605 -28.375,-21.659c31.745,-15.633 62.11,-33.598 91.096,-53.896c75.971,-53.433 155.329,-138.825 171.462,-233.016c6.18,-36.063 3.45,-70.35 -18.616,-100.988c-35.738,-49.625 -98.929,-62.633 -155.571,-72.112c-8.119,-1.05 -16.211,-2.286 -24.275,-3.709c-8.061,-1.422 -16.086,-3.027 -24.075,-4.816c-7.989,-1.792 -15.933,-3.766 -23.833,-5.921c-7.898,-2.156 -15.742,-4.492 -23.534,-7.008c-7.789,-2.517 -15.518,-5.212 -23.187,-8.084c-7.667,-2.872 -15.263,-5.918 -22.788,-9.137c-7.527,-3.222 -14.977,-6.616 -22.35,-10.179c-7.369,-3.564 -14.654,-7.295 -21.854,-11.192c13.379,-36.179 32.454,-71.438 53.992,-103.388c49.783,-73.858 128.283,-143.97 218.258,-160.808c56.038,-10.487 117.042,-1.421 164.592,31.083c18.525,12.663 34.575,28.459 53.125,41.234c-1.489,-4.653 -3.067,-9.277 -4.734,-13.871c-14.437,-39.413 -47.3,-70.033 -85.045,-87c-60.725,-27.292 -132.692,-22.163 -193.821,1.179c-118.7,45.325 -196.459,149.621 -246.888,261.642c-47.733,-33.2 -82.679,-75.542 -114.383,-123.746c16.433,-35.408 43.117,-72.163 67.317,-102.617c71.129,-89.508 168.529,-156.436 283.92,-169.768Z" style="fill:#f1c5b9;fill-rule:nonzero;"/><path d="M504.079,1140.44c-42.825,-3.471 -82.9,-7.154 -124.159,-20.408c-3.366,-1.092 -6.719,-2.227 -10.058,-3.404c-3.339,-1.175 -6.663,-2.392 -9.971,-3.65c-3.305,-1.259 -6.597,-2.557 -9.875,-3.896c-3.275,-1.342 -6.533,-2.722 -9.775,-4.142c-3.242,-1.422 -6.465,-2.883 -9.671,-4.383c-3.205,-1.503 -6.391,-3.045 -9.558,-4.625c-3.167,-1.581 -6.313,-3.2 -9.438,-4.859c-3.127,-1.658 -6.233,-3.355 -9.316,-5.091c-3.086,-1.736 -6.149,-3.51 -9.188,-5.321c-3.041,-1.814 -6.059,-3.664 -9.054,-5.55c-2.994,-1.886 -5.964,-3.81 -8.908,-5.771c-2.947,-1.961 -5.87,-3.958 -8.767,-5.992c-2.897,-2.033 -5.768,-4.102 -8.612,-6.208c-2.848,-2.105 -5.667,-4.246 -8.459,-6.421c-2.791,-2.175 -5.557,-4.384 -8.296,-6.629c-2.736,-2.242 -5.444,-4.518 -8.125,-6.829c-2.68,-2.311 -5.331,-4.656 -7.954,-7.033c-2.622,-2.378 -5.215,-4.788 -7.779,-7.23c-2.561,-2.441 -5.093,-4.913 -7.596,-7.416c-2.5,-2.506 -4.969,-5.041 -7.408,-7.604c-2.436,-2.567 -4.842,-5.163 -7.217,-7.788c-2.372,-2.625 -4.712,-5.279 -7.021,-7.962c-2.308,-2.687 -4.581,-5.399 -6.82,-8.138c-2.242,-2.742 -4.448,-5.51 -6.617,-8.304c-2.172,-2.795 -4.31,-5.615 -6.413,-8.463c-2.1,-2.85 -4.165,-5.725 -6.195,-8.625c-2.028,-2.897 -4.021,-5.82 -5.98,-8.77c-1.955,-2.95 -3.875,-5.924 -5.758,-8.921c-1.883,-2.995 -3.729,-6.014 -5.537,-9.059c-1.809,-3.041 -3.58,-6.105 -5.313,-9.191c-1.73,-3.086 -3.423,-6.195 -5.079,-9.325c-1.653,-3.128 -3.268,-6.277 -4.846,-9.446c-64.617,-127.058 -75.233,-284.833 -30.175,-420.083c33.763,-101.338 103.229,-196.296 200.617,-244.038c71.146,-34.878 149.3,-37.597 223.766,-11.562c116.905,40.87 182.105,141 233.463,247.212c-37.446,33.429 -86.004,54.467 -133.321,69.588c-2.217,-5.395 -4.476,-10.771 -6.779,-16.13c-36.333,-84.57 -88.133,-170.3 -177.883,-205.454c-45.742,-17.916 -95.684,-19.137 -140.83,1.3c-38.904,17.613 -67.337,48.904 -82.012,88.8c0.687,-0.171 1.396,-0.266 2.058,-0.508c11.984,-4.363 25.913,-20.646 37.029,-28.446c46.484,-32.629 109.921,-41.721 163.171,-20.979c69.354,27.021 116.567,97.479 145.192,162.917c3.619,8.258 6.764,16.694 9.433,25.308c-68.787,-1.538 -155.525,-25.638 -211.046,28.696c-24.008,23.496 -32.095,55.412 -31.562,88c1.704,104.087 76.546,206.971 148.912,276.033c24.705,23.575 51.305,41.988 80.2,60.017c-13.861,28.036 -26.372,56.661 -37.533,85.875l-17.937,49.908Z" style="fill:#f1c5b9;fill-rule:nonzero;"/><path d="M504.079,1140.44c-42.825,-3.471 -82.9,-7.154 -124.159,-20.408c-3.366,-1.092 -6.719,-2.227 -10.058,-3.404c-3.339,-1.175 -6.663,-2.392 -9.971,-3.65c-3.305,-1.259 -6.597,-2.557 -9.875,-3.896c-3.275,-1.342 -6.533,-2.722 -9.775,-4.142c-3.242,-1.422 -6.465,-2.883 -9.671,-4.383c-3.205,-1.503 -6.391,-3.045 -9.558,-4.625c-3.167,-1.581 -6.313,-3.2 -9.438,-4.859c-3.127,-1.658 -6.233,-3.355 -9.316,-5.091c-3.086,-1.736 -6.149,-3.51 -9.188,-5.321c-3.041,-1.814 -6.059,-3.664 -9.054,-5.55c-2.994,-1.886 -5.964,-3.81 -8.908,-5.771c-2.947,-1.961 -5.87,-3.958 -8.767,-5.992c-2.897,-2.033 -5.768,-4.102 -8.612,-6.208c-2.848,-2.105 -5.667,-4.246 -8.459,-6.421c-2.791,-2.175 -5.557,-4.384 -8.296,-6.629c-2.736,-2.242 -5.444,-4.518 -8.125,-6.829c-2.68,-2.311 -5.331,-4.656 -7.954,-7.033c-2.622,-2.378 -5.215,-4.788 -7.779,-7.23c-2.561,-2.441 -5.093,-4.913 -7.596,-7.416c-2.5,-2.506 -4.969,-5.041 -7.408,-7.604c-2.436,-2.567 -4.842,-5.163 -7.217,-7.788c-2.372,-2.625 -4.712,-5.279 -7.021,-7.962c-2.308,-2.687 -4.581,-5.399 -6.82,-8.138c-2.242,-2.742 -4.448,-5.51 -6.617,-8.304c-2.172,-2.795 -4.31,-5.615 -6.413,-8.463c-2.1,-2.85 -4.165,-5.725 -6.195,-8.625c-2.028,-2.897 -4.021,-5.82 -5.98,-8.77c-1.955,-2.95 -3.875,-5.924 -5.758,-8.921c-1.883,-2.995 -3.729,-6.014 -5.537,-9.059c-1.809,-3.041 -3.58,-6.105 -5.313,-9.191c-1.73,-3.086 -3.423,-6.195 -5.079,-9.325c-1.653,-3.128 -3.268,-6.277 -4.846,-9.446c-64.617,-127.058 -75.233,-284.833 -30.175,-420.083c33.763,-101.338 103.229,-196.296 200.617,-244.038c71.146,-34.878 149.3,-37.597 223.766,-11.562c116.905,40.87 182.105,141 233.463,247.212c-37.446,33.429 -86.004,54.467 -133.321,69.588c-2.217,-5.395 -4.476,-10.771 -6.779,-16.13c-36.333,-84.57 -88.133,-170.3 -177.883,-205.454c-45.742,-17.916 -95.684,-19.137 -140.83,1.3c-38.904,17.613 -67.337,48.904 -82.012,88.8c-45.992,37.438 -71.446,126.192 -77.213,182.829c-11.883,116.663 23.53,248.9 98.425,340.43c40.796,49.858 91.805,86.004 151.221,110.654c34.059,14.129 69.013,26.366 105.171,33.783c7.821,1.604 24.142,2.504 28.25,9.217l-17.937,49.908Z" style="fill:#f2f2f4;fill-rule:nonzero;"/><path d="M890.233,2027.81c43.221,11.996 86,23.725 129.871,33.237c-28.371,89.359 -46.038,183.255 -64.675,275.055c-29.798,148.908 -57.524,298.2 -83.18,447.875c-14.022,83.908 -29.906,167.462 -47.654,250.662c-6.733,32.629 -10.037,68.721 -21.608,99.896c-3.367,9.071 -7.038,15.783 -14.996,21.396c-25.55,5.691 -95.508,-22.575 -119.475,-34.6c-12.629,-6.338 -38.471,-18.559 -41.171,-33.604c-2.975,-16.592 46.659,-186.005 53.834,-219.23c23.375,-108.262 40.037,-218.458 60.95,-327.283c9.354,-48.658 17.675,-99.467 32.004,-146.858c8.6,-28.442 52.791,-135.45 42.383,-156.546c-2.471,-5.008 -4.787,-5.521 -9.633,-7.092c-11.225,1.288 -17.704,10.471 -24.542,18.513c-26.787,34.766 -48.342,108.833 -59.708,151.9c-25.6,-21.954 -83.725,-66.246 -118.267,-64.179c-7.3,0.437 -12.492,3.925 -17.029,9.416c-3.796,4.596 -4.375,8.438 -4.008,14.304c9.141,20.017 46.5,33.138 65.083,44.709c10.012,6.237 18.979,13.629 27.933,21.279c-80.725,46.692 -173.496,103.425 -210.766,193.667c-18.921,-19.075 -36.784,-40.08 -49.663,-63.784c-1.455,-2.694 -2.843,-5.423 -4.162,-8.187c-1.32,-2.767 -2.57,-5.563 -3.75,-8.388c-1.181,-2.825 -2.291,-5.679 -3.33,-8.562c-1.038,-2.881 -2.005,-5.785 -2.9,-8.713c-0.894,-2.93 -1.716,-5.88 -2.466,-8.85c-0.75,-2.969 -1.425,-5.955 -2.025,-8.958c-0.6,-3.006 -1.127,-6.022 -1.579,-9.05c-0.45,-3.031 -0.825,-6.07 -1.125,-9.117c-0.3,-3.05 -0.525,-6.104 -0.675,-9.162c-0.15,-3.059 -0.224,-6.12 -0.221,-9.184c0.003,-3.063 0.082,-6.125 0.237,-9.183c0.153,-3.058 0.384,-6.111 0.692,-9.158c0.306,-3.047 0.686,-6.086 1.142,-9.117c0.455,-3.028 0.987,-6.043 1.595,-9.046c0.606,-3.003 1.285,-5.987 2.038,-8.954c0.756,-2.969 1.583,-5.918 2.483,-8.846c37.504,-124.546 168.104,-219.662 276.8,-281.741c39.888,-22.78 81.425,-42.175 121.892,-63.842c-6.325,9.096 -12.663,18.175 -17.85,27.983c-6.567,12.417 -13.958,32.263 -8.7,46.346c6.879,18.425 122.958,125.304 138.871,130.538c5.55,1.829 8.487,1.087 13.637,-1.267c4.9,-4.896 7.684,-9.5 8.254,-16.592c2.746,-34.046 -90.066,-102.866 -113.183,-129.729c17.121,-36.662 44.488,-65.975 68.642,-97.954Z" style="fill:#7a7bb9;fill-rule:nonzero;"/><path d="M907.404,2867.08c24.766,3.787 49.362,11.237 73.604,17.483c5.683,7.804 11.325,15.921 17.6,23.25c26.804,31.317 86.716,39.558 125.35,42.925c37.925,3.304 94.446,8.858 128.933,-10.858c14.104,-8.063 25.033,-19.759 37.338,-30.163l67.241,-0.558c0.938,31.033 6.3,62.917 9.817,93.792c7.446,65.408 15.646,161.504 35.287,222.879c4.921,15.383 10.959,28.596 26.1,35.879c14.83,7.129 33.3,7.896 49.463,9.042c99.583,7.062 216.771,-14.18 311.646,-44.867c11.562,29.375 39.321,115.829 28.229,143.896c-2.646,6.696 -10.088,10.604 -16.246,13.621c-22.25,10.891 -49.342,18.083 -73.292,24.162c-6.827,1.781 -13.686,3.439 -20.575,4.975c-6.886,1.539 -13.798,2.954 -20.737,4.246c-6.936,1.294 -13.893,2.464 -20.871,3.508c-6.98,1.047 -13.976,1.97 -20.987,2.767c-7.011,0.797 -14.035,1.471 -21.071,2.021c-7.036,0.55 -14.079,0.975 -21.129,1.275c-7.05,0.3 -14.103,0.475 -21.159,0.525c-7.058,0.05 -14.114,-0.025 -21.166,-0.225c-7.053,-0.2 -14.102,-0.525 -21.146,-0.975c-7.042,-0.447 -14.074,-1.021 -21.096,-1.721c-7.022,-0.697 -14.029,-1.52 -21.021,-2.467c-6.994,-0.947 -13.969,-2.018 -20.925,-3.212c-6.953,-1.195 -13.883,-2.511 -20.792,-3.95c-6.911,-1.439 -13.793,-3 -20.645,-4.684c-6.853,-1.683 -13.674,-3.487 -20.463,-5.412c-6.789,-1.925 -13.542,-3.97 -20.258,-6.133c-4.892,-24.27 -10.084,-48.475 -15.575,-72.617c-10.517,-49.613 -21.363,-99.683 -34.234,-148.733c-2.862,-10.909 -5.833,-26.205 -16.695,-31.8c-17.838,-9.192 -90.688,-6.3 -115.421,-9.23c-44.163,-5.229 -87.375,-18.475 -130.642,-28.516c-19.325,-4.488 -55.992,-22.709 -74.304,-14.592c-3.158,1.4 -2.979,2.996 -4.213,5.942c0.584,3.433 1.117,6.608 2.842,9.687c15.471,27.646 113.1,56.946 145.396,67.009c0.337,64.975 0.167,134.633 -9.263,198.941c-31.487,13.334 -67.041,19.842 -100.958,22.534c-85.679,6.791 -171.008,-1.634 -252.508,-29.78c-14.613,-5.045 -32.217,-9.658 -44.063,-19.791c-13.55,-34.209 1.363,-109.829 5.55,-146.625c11.488,3.204 23.038,6.554 34.763,8.783c13.783,2.621 29.312,2.846 41.133,-5.85c8.767,-6.446 14.183,-20.562 17.613,-30.479c11.091,-32.063 16.929,-67.429 23.933,-100.692c14.192,-68.214 27.397,-136.618 39.617,-205.212Z" style="fill:#547390;fill-rule:nonzero;"/><path d="M1777.14,2032.81c4.167,0.171 6.946,-0.358 10.004,3.05c15.592,17.358 20.754,78.592 20.6,102.008c-24.125,8.837 -48.069,18.141 -71.833,27.913c-40.229,16.642 -169.129,72.454 -183.429,111.758c-1.579,4.342 -0.963,5.238 0.746,9.221c6.866,3.975 13.883,4.75 21.612,3.029c22.229,-4.946 44.863,-19.191 65.288,-29.233c29.2,-14.558 58.725,-28.424 88.575,-41.596c30.654,-13.287 64.875,-22.008 94.266,-37.25c9.642,-5 19.921,-11.246 25.738,-20.696c17.821,-28.933 11.229,-66.575 3.333,-97.546c4.075,1.839 8.111,3.76 12.108,5.763c126.859,63.604 277.792,172.004 323.942,311.833c23.875,72.346 6.867,136.188 -26.437,202.2c-41.28,-54.483 -89.684,-93.333 -151.088,-123.321c-30.154,-14.783 -66.154,-23.758 -99.583,-25.841c12.258,-17.4 37.496,-35.459 43.466,-55.342c1.692,-5.633 2.009,-12.346 -1.579,-17.379c-2.85,-3.992 -7.371,-6.638 -12.346,-6.613c-25.412,0.125 -58.162,35.805 -74.416,52.68c-29.138,-16.884 -157.75,-92.305 -184.121,-82.475c-5.204,1.937 -8.958,6.241 -10.829,11.391c-2.309,6.367 -1.504,13.534 1.404,19.559c11.058,22.92 82.05,51.895 106.404,60.137c-9.221,49.25 -16.892,99.888 -24.075,149.513c-44.304,4.091 -76.717,17.095 -114.65,39.883c-39.625,-38.625 -75.133,-80.767 -115.762,-118.396c1.861,-5.144 3.62,-10.322 5.279,-15.533c6.279,-20.05 7.05,-42.059 -3.434,-60.867c-12.516,-22.458 -35.675,-33.158 -59.183,-40.108c18.063,-60.192 41.833,-119.534 65.433,-177.742c15.871,-39.137 30.655,-80.467 53.725,-116.012c58.15,-0.709 134.95,-26.738 190.842,-43.988Z" style="fill:#7a7bb9;fill-rule:nonzero;"/><path d="M2809.02,2073.21c68.509,-4.588 140.221,18.941 194.205,60.721c55.8,43.183 90.108,105.512 98.737,175.454c5.217,42.316 2.896,84.121 -24.304,118.775c-20.588,-54.746 -13.679,-103.979 -45.129,-159.679c-30.859,-54.655 -82.029,-92.484 -142.392,-108.88c-4.125,-1.086 -8.275,-2.068 -12.45,-2.945c-4.172,-0.881 -8.364,-1.657 -12.575,-2.33c-4.214,-0.672 -8.44,-1.24 -12.679,-1.704c-4.239,-0.464 -8.488,-0.822 -12.746,-1.075c-4.258,-0.253 -8.519,-0.4 -12.783,-0.441c-4.267,-0.042 -8.531,0.022 -12.792,0.191c-4.261,0.17 -8.517,0.443 -12.767,0.821c-4.247,0.381 -8.483,0.865 -12.708,1.454c-4.225,0.589 -8.432,1.284 -12.621,2.084c-4.191,0.797 -8.359,1.697 -12.504,2.7c-4.144,1.002 -8.262,2.108 -12.354,3.316c-4.092,1.209 -8.15,2.517 -12.175,3.925c-4.025,1.409 -8.014,2.916 -11.967,4.521c-3.95,1.606 -7.859,3.308 -11.729,5.108c-3.867,1.798 -7.686,3.691 -11.458,5.68c-3.775,1.988 -7.497,4.069 -11.167,6.241c-47.437,27.65 -82.337,67.992 -105.787,117.454c-97.2,205.025 90.67,379.817 117.037,576.317c7.404,55.167 1.817,107.683 -12.2,161.275c-3.937,14.95 -9.7,29.842 -16.042,43.925c-37.358,82.967 -115.366,166.404 -201.816,199.05c-41.667,-10.321 -82.034,-34.967 -118.034,-57.867c69.342,-15.187 131.921,-49.775 178.784,-103.441c36.258,-41.529 58.421,-92.175 66.883,-146.488c32.629,-209.487 -123.017,-330.846 -135.246,-522.058c-6.104,-95.388 21.263,-186.992 84.888,-259.258c68.412,-77.705 155.45,-115.896 257.891,-122.846Z" style="fill:#f1c5b9;fill-rule:nonzero;"/><path d="M1402.97,1114.78c64.167,-7.004 184.075,2.404 248.159,13.837c51.341,9.163 111.654,22.1 142.5,68.671c20.82,31.433 18.133,71.113 10.229,106.308c-15.434,68.705 -60.484,129.209 -119.459,166.755c-23.75,12.845 -46.458,22.454 -73.22,27.02c-68.817,11.742 -139.784,-2.237 -196.75,-42.945c-56.571,-40.425 -91.692,-111.392 -102.242,-178.996c-5.946,-38.079 -9.029,-94.554 15.717,-126.959c17.862,-23.391 47.383,-30.508 75.066,-33.691Z" style="fill:#333944;fill-rule:nonzero;"/><path d="M1044.96,2169.8c31.221,18.12 62.537,36.287 97.471,46.287c1.254,14.296 3.512,27.821 6.587,41.833c3.075,19.892 11.046,41.946 21.913,58.846c14.483,4.975 27.654,5.988 42.875,5.784c22.946,-14.992 40.137,-32.405 57.958,-53.113c5.388,-9.954 11.85,-19.454 17.875,-29.042c72.383,-6.312 126.754,-24.795 191.692,-55.35c-8.621,24.721 -16.834,50.063 -28.117,73.709c-8.504,25.446 -18.142,50.537 -26.542,75.983c-3.895,14.371 -7.783,28.263 -13.687,41.958c-29.146,18.038 -50.917,27.684 -76.992,51.867c-19.021,30.471 -36.975,58.571 -36.383,95.929c0.696,17.742 6.662,32.8 19.562,45.242c16.596,16.008 36.967,17.637 43.646,23.137c0.934,0.771 1.059,2.18 1.592,3.267l-0.2,2.583c-7.438,24.271 -9.613,52.567 -10.771,77.834c-18.908,-1.171 -37.692,-2.359 -56.483,-4.867c-12.313,-9.167 -22.779,-18.85 -36.788,-25.721c-41.366,-20.287 -114.258,-24.329 -160.691,-24.429c-40.517,-0.087 -69.28,14.292 -97.296,42.404c-17.211,-6.064 -34.386,-12.23 -51.525,-18.5c4.591,-27.65 8.896,-55.412 14.421,-82.896c8.02,-28.966 11.158,-60.82 16.42,-90.529c1.671,-27.779 9.888,-57.062 15.396,-84.346c7.588,-27.575 12.263,-56.4 17.884,-84.462c2.775,-22.996 8.966,-46.175 15.487,-68.379c4.163,-21.913 9.254,-43.413 14.696,-65.029Z" style="fill:#333944;fill-rule:nonzero;"/><path d="M981.499,2472.02c83.784,25.275 170.6,34.854 257.746,38.479c17.575,0.734 38.85,3.409 56.167,0.471l-0.75,1.396l1.975,-1.296c1.654,4.584 2.412,8.592 2.975,13.425c0.696,17.742 6.662,32.8 19.562,45.242c16.596,16.008 36.967,17.637 43.646,23.137c0.934,0.771 1.059,2.18 1.592,3.267l-0.2,2.583c-7.438,24.271 -9.613,52.567 -10.771,77.834c-18.908,-1.171 -37.692,-2.359 -56.483,-4.867c-12.313,-9.167 -22.779,-18.85 -36.788,-25.721c-41.366,-20.287 -114.258,-24.329 -160.691,-24.429c-40.517,-0.087 -69.28,14.292 -97.296,42.404c-17.211,-6.064 -34.386,-12.23 -51.525,-18.5c4.591,-27.65 8.896,-55.412 14.421,-82.896c8.02,-28.966 11.158,-60.82 16.42,-90.529Z" style="fill:#333944;fill-rule:nonzero;"/><path d="M965.079,2562.55c20.879,22.43 254.12,38.28 293.97,39.692c30.034,1.067 77.113,4.679 105.163,-3.517c-7.438,24.271 -9.613,52.567 -10.771,77.834c-18.908,-1.171 -37.692,-2.359 -56.483,-4.867c-12.313,-9.167 -22.779,-18.85 -36.788,-25.721c-41.366,-20.287 -114.258,-24.329 -160.691,-24.429c-40.517,-0.087 -69.28,14.292 -97.296,42.404c-17.211,-6.064 -34.386,-12.23 -51.525,-18.5c4.591,-27.65 8.896,-55.412 14.421,-82.896Z" style="fill:#7a7bb9;fill-rule:nonzero;"/><path d="M1044.96,2169.8c31.221,18.12 62.537,36.287 97.471,46.287c1.254,14.296 3.512,27.821 6.587,41.833c3.075,19.892 11.046,41.946 21.913,58.846c14.483,4.975 27.654,5.988 42.875,5.784c22.946,-14.992 40.137,-32.405 57.958,-53.113c5.388,-9.954 11.85,-19.454 17.875,-29.042c72.383,-6.312 126.754,-24.795 191.692,-55.35c-8.621,24.721 -16.834,50.063 -28.117,73.709c-8.504,25.446 -18.142,50.537 -26.542,75.983c-28.85,0.929 -57.475,4.1 -86.412,4.383c-110.7,1.084 -217.5,-12.304 -325.483,-35.912c2.775,-22.996 8.966,-46.175 15.487,-68.379c4.163,-21.913 9.254,-43.413 14.696,-65.029Z" style="fill:#7a7bb9;fill-rule:nonzero;"/><path d="M1289.64,2240.4c72.383,-6.312 126.754,-24.795 191.692,-55.35c-8.621,24.721 -16.834,50.063 -28.117,73.709c-59.712,8.441 -121.133,13.071 -181.45,10.683c5.388,-9.954 11.85,-19.454 17.875,-29.042Z" style="fill:#333944;fill-rule:nonzero;"/><path d="M1044.96,2169.8c31.221,18.12 62.537,36.287 97.471,46.287c1.254,14.296 3.512,27.821 6.587,41.833c-40.379,-4.229 -79.591,-12.562 -118.754,-23.091c4.163,-21.913 9.254,-43.413 14.696,-65.029Z" style="fill:#333944;fill-rule:nonzero;"/><path d="M996.895,2387.67c94.742,31.117 240.046,45.942 339.1,40.892c-19.021,30.471 -36.975,58.571 -36.383,95.929c-0.563,-4.833 -1.321,-8.841 -2.975,-13.425l-1.975,1.296l0.75,-1.396c-17.317,2.938 -38.592,0.263 -56.167,-0.471c-87.146,-3.625 -173.962,-13.204 -257.746,-38.479c1.671,-27.779 9.888,-57.062 15.396,-84.346Z" style="fill:#7a7bb9;fill-rule:nonzero;"/><path d="M718.908,942.035c92.471,-0.004 184.091,11.529 275.571,23.871c99.669,13.725 199.182,28.509 298.537,44.354c222.796,34.625 445.313,67.021 664.417,121.342c70.229,17.412 141.625,34.133 209.216,60.212c-65.704,10.121 -133.154,14.754 -199.537,17.913l-115.533,0.729c-4.85,-17.25 -13.442,-33.95 -23.655,-48.613c-34.779,-49.921 -95.245,-66.041 -152.175,-75.891c-77.729,-13.446 -220.241,-29.621 -296.891,-15.88c-22.542,4.042 -45.409,12.038 -64.096,25.521c-29.779,21.488 -42.121,50.225 -47.783,85.271c-43.73,-11.379 -88.521,-19.133 -132.409,-30.212c-170.304,-42.988 -339.196,-91.963 -501.154,-160.605c3.25,-4.261 6.693,-8.361 10.329,-12.3c25.088,-27.362 37.992,-34.233 75.163,-35.712Z" style="fill:#f2f2f4;fill-rule:nonzero;"/><path d="M824.983,3429.21c81.087,20.304 158.979,22.771 242.037,17.987c-0.954,27.05 0.259,54.038 0.992,81.075c1.204,44.442 10.558,113.892 -23.283,148.267c-61.63,62.608 -219.163,82.85 -306.767,83.229c-12.467,-80.466 37.487,-95.583 38.979,-118.416c0.2,-3.109 -2.387,-4.217 -4.446,-6.163c-3.854,-1.233 -6.291,-1.867 -10.391,-1.171c-20.655,3.509 -39.717,29.192 -50.242,45.363c-12.254,25.554 -16.396,48.125 -16.296,76.387c-29.162,-5.454 -57.517,-10.854 -85.446,-21.221c-1.083,-63.633 16.009,-66.208 47.646,-111.766c3.021,-4.354 3.092,-6.754 1.817,-11.667l-4.984,-2.029c-19.454,1.904 -45.345,19.6 -58.941,33.496c-19.754,20.196 -19.204,55.241 -19.134,81.271c-8.225,-5.792 -17.204,-11.534 -23.904,-19.1c-8.941,-10.109 -13.712,-21.609 -12.833,-35.192c0.992,-15.35 9.2,-32.346 17.221,-45.367c59.483,-96.55 205.921,-64.229 252.4,-108.733c18.787,-17.996 15.441,-61.883 15.575,-86.25Z" style="fill:#f2f2f4;fill-rule:nonzero;"/><path d="M1090.35,860.697c24.809,-2.541 51.238,-1.145 76.23,-1.166c49.466,-0.234 98.879,1.283 148.237,4.55c49.358,3.266 98.539,8.275 147.542,15.025c224.558,33.187 446.025,90.308 647.512,197.083c35.334,18.725 80.517,38.975 104.675,71.571c-26.133,-5.017 -52.108,-13.671 -77.737,-20.904c-42.684,-12.184 -85.521,-23.796 -128.513,-34.838c-194.633,-51.937 -395.45,-84.775 -594.404,-115.104c-80.737,-12.304 -161.267,-25.683 -242.158,-37.033c-71.771,-10.071 -144.096,-19.721 -216.113,-27.85c-16.591,-1.871 -123.575,-10.738 -127.854,-12.534c21.158,-16.333 222.192,-36.216 262.583,-38.8Z" style="fill:#7a7bb9;fill-rule:nonzero;"/><path d="M1521.14,3478.08l3.55,-2.967c75.687,6.783 150.925,-3.1 223.904,-23.208c5.025,38.741 9.092,78.425 25.421,114.4c24.775,54.575 111.662,126.908 60.567,192.1c-25.5,32.529 -75.025,42.595 -113.15,51.391c-6.7,-15.35 -12.021,-29.329 -14.434,-46.037c-2.429,-16.817 2.704,-76.534 -5.171,-85.513c-6.116,-0.708 -9.712,0.521 -14.533,4.475c-14.967,12.267 -18.558,38.634 -19.679,57.021c-1.55,25.525 3.533,49.95 10.392,74.375c-29.517,-0.029 -59.863,1.396 -89.055,-3.6l-1.216,-2.754c-16.779,-38.821 -11.575,-76.75 -5.475,-117.388c0.887,-5.92 2.504,-11.762 -4.604,-13.945c-4.659,-1.434 -9.705,-0.967 -13.792,1.729c-15.138,9.983 -21.617,43.616 -23.471,60.721c-2.271,20.929 -0.721,41.475 1.75,62.283c-26.412,-10.554 -54.492,-22.725 -66.879,-50.471c-10.992,-24.621 -5.129,-52.258 4.829,-76.158c12.817,-30.759 29.95,-58.675 37.3,-91.621c-0.512,-0.654 -1.125,-1.242 -1.533,-1.967c-4.613,-8.133 -2.546,-92.746 -0.446,-105.279l2.746,-1.229l2.979,3.642Z" style="fill:#f2f2f4;fill-rule:nonzero;"/><path d="M1517.39,3582.91c-0.512,-0.654 -1.125,-1.242 -1.533,-1.967c-4.613,-8.133 -2.546,-92.746 -0.446,-105.279l2.746,-1.229l2.979,3.642c2.942,32.554 4.904,73.279 -3.746,104.833Z" style="fill:#172e43;fill-rule:nonzero;"/><path d="M1411.44,2621.06c0.287,0.267 100.292,169.375 106.162,180.796c-28.075,12.991 -59.65,30.808 -76.941,57.383c-9.221,14.167 -11.988,29.775 -7.784,46.179c6.7,26.154 30.121,49.534 53.096,62.65c50.654,28.929 112.388,29.096 167.3,14.396c33.125,61.883 71.179,115.867 114.696,170.983l18.742,22.13c-70.284,27.22 -152.292,39.495 -227.242,45.483c-21.8,1.742 -93.562,7.696 -109.454,-5.817c-28.488,-52.216 -52.408,-405.071 -51.629,-474.041c0.097,-20.195 1.236,-40.331 3.416,-60.409c2.181,-20.078 5.394,-39.989 9.638,-59.733Z" style="fill:#7a7bb9;fill-rule:nonzero;"/><path d="M1751.11,2610.64c29.25,-2.625 58.875,5.55 85.421,17.354c49.454,21.988 119.008,70.267 138.416,123.488c10.517,28.829 -3.191,64.129 -15.845,90.283c-30.25,62.517 -59.238,85.737 -123.867,108.321c4.137,-7.159 8.879,-14.613 11.875,-22.321c3.221,-8.279 5.296,-17.629 1.554,-25.775c-8.571,-0.425 -14.167,5.75 -20.258,11.225c-15.317,17.133 -29.017,35.433 -54.017,36.404c-13.808,0.538 -38.846,1 -49.462,-8.387c-4.55,-16.15 21.3,-34.63 24.595,-52.013c1.309,-6.883 -0.545,-11.042 -4.391,-16.567c-15.279,-1.683 -25.121,21.934 -39.329,26.563c-7.33,-0.404 -12.771,-0.888 -18.413,-6.338c-19.425,-18.758 -14.967,-63.412 -14.662,-88.658c11.829,-20.712 27.983,-38.037 37.966,-60.142c7.7,-17.054 18.896,-47.575 11.209,-65.57c-6.759,-15.813 -29.592,-17.034 -43.459,-23.396c-5.337,-2.45 -6.491,-4.142 -8.329,-9.571c0.7,-2 1.029,-3.342 2.371,-5.15c12.733,-17.208 58.2,-27.617 78.625,-29.75Z" style="fill:#f2f2f4;fill-rule:nonzero;"/><path d="M658.576,2733.87c-15.968,35.411 -67.008,71.142 -75.604,107.814c-6.733,28.726 43.315,71.38 45.354,61.771c12.414,-58.493 12.062,-59.94 19.408,-91.094c11.255,-47.729 16.263,-90.511 10.842,-78.491Z" style="fill:#f2f2f4;"/><path d="M2115.45,457.485c-4.737,8.662 19.621,34.419 46.488,69.054c27.9,35.966 66.694,67.79 71.556,57.344c77.781,-167.098 182.353,-226.226 267.242,-264.745c70.724,-32.091 197.135,-4.175 241.657,62.629c13.212,19.824 72.056,140.108 72.056,140.108c0,-0 70.401,135.797 -70.737,387.101c-82.855,147.526 -317.563,169.512 -383.217,219.902c-13.305,10.212 46.14,34.909 46.14,34.909c266.159,-10.819 364.268,-166.493 405.8,-223.6c50.587,-69.558 90.611,-205.686 90.606,-299.59c-0.005,-91.549 -14.186,-170.745 -59.544,-250.267c-76.094,-133.407 -186.99,-185.063 -276.791,-199.264c-20.021,-3.167 -43.859,-4.74 -63.613,-4.763c-74.302,-0.084 -142.365,25.865 -200.54,64.385c-75.235,49.814 -144.354,128.614 -187.103,206.797Z" style="fill:#f2f2f4;fill-opacity:0.82;"/><path d="M2490.14,1206.71c1.059,-0.104 2.117,-0.221 3.179,-0.313c32.98,-2.85 65.088,6.142 95.592,17.896c136.904,52.75 174.275,145.992 277.375,233.658c-95.029,22.409 -158.737,23.925 -254.583,0.425c-20.4,-6.258 -40.225,-13.095 -59.263,-22.85c-59.912,-30.687 -102.041,-80.466 -122.521,-144.675c26.263,14.734 105.7,76.209 132.23,72.592c4.4,-2.596 6.508,-3.946 8.85,-8.546c-0.205,-2.904 -0.6,-5.371 -2.067,-7.95c-17.413,-30.621 -104.313,-86.962 -140.058,-97.716c-0.234,-13.156 -0.659,-26.305 -1.275,-39.446l62.541,-3.075Z" style="fill:#7a7bb9;fill-rule:nonzero;"/><path d="M1715.99,2993.39c40.375,7.529 79.725,8.121 120.354,2.092c28.513,30.95 54.813,63.854 83.954,94.292c91.596,95.67 208.238,191.179 335.925,232.329c65.963,22.475 129.263,40.791 199.559,42.462c13.637,0.321 27.237,0.479 40.829,-0.804c9.55,-0.9 20.237,-3.867 29.704,-3.087l0.479,2.37c-106.017,22.713 -209.421,27.984 -315.962,5.484c-224.5,-47.413 -373.667,-189.175 -494.842,-375.138Z" style="fill:#979c9d;fill-rule:nonzero;"/><path d="M1083.76,2664.54c39.662,-2.6 127.996,0.904 161.625,22.275c11.858,7.533 17.883,17.571 20.917,31.154c7.154,32.059 4.754,131.15 -13.467,158.888c-10.858,16.537 -26.025,22.941 -44.804,26.533c-40.954,6.579 -131.175,4.413 -166.113,-19.175c-12.433,-8.396 -19.871,-19.6 -22.516,-34.342c-5.05,-28.17 0.4,-140.175 16.358,-162.137c11.167,-15.375 30.233,-20.325 48,-23.196Z" style="fill:#e1b274;fill-rule:nonzero;"/><path d="M1079.61,2710.65c35.904,-2.03 76.246,3.166 112.121,6.829c10.054,1.025 23.875,1.887 30.05,10.816c11.012,15.93 4.662,94.817 -1.346,114.521c-2.875,9.417 -6.7,13.771 -15.217,18.492c-31.846,2.221 -97.667,-0.967 -127.467,-9.892c-6.579,-1.971 -12.687,-4.583 -15.891,-10.987c-7.975,-15.942 -2.909,-100.75 4.671,-119.217c2.8,-6.821 6.458,-8.062 13.079,-10.562Z" style="fill:#243a49;fill-rule:nonzero;"/><path d="M1098.18,2748.89c31.158,2.404 62.187,5.963 93.441,6.959c-0.233,23.691 -1.433,47.254 -2.758,70.904c-31.383,-0.417 -63.096,-5.275 -94.187,-9.217c0.379,-22.971 1.845,-45.742 3.504,-68.646Z" style="fill:#815f4b;fill-rule:nonzero;"/><path d="M1880.06,2986.55c21.558,-9.787 41.691,-20.408 61.279,-33.72c122.95,133.395 285.133,266.704 446.237,351.241c23.867,12.525 49.521,20.717 73.934,31.946c18.75,8.629 54.471,13.388 69.396,25.063c-3.059,2.204 -1.571,1.887 -4.113,1.97l-0.479,-2.37c-9.467,-0.78 -20.154,2.187 -29.704,3.087c-13.592,1.283 -27.192,1.125 -40.829,0.804c-70.296,-1.671 -133.596,-19.987 -199.559,-42.462c4.604,-3.863 6.1,-5.709 7.688,-11.529c-1.313,-5.934 -4.296,-9.205 -9.259,-12.488c-39.27,-26 -81.516,-46.933 -120.354,-74.067c-101.821,-71.129 -169.771,-148.695 -254.237,-237.475Z" style="fill:#979c9d;fill-rule:nonzero;"/><path d="M1895.86,2475.94c82.896,10.659 167.271,61.588 218.525,127.05c14.204,18.142 31.729,42.546 27.854,66.821c-5.858,36.675 -59.667,83.008 -88.325,103.625l-12.513,11.267c-4.466,-16.429 -9.391,-32.384 -16.733,-47.796c-29.508,-61.967 -91.258,-117.075 -152.667,-146.325c-18.704,-8.913 -38.945,-15.258 -58.491,-22.108c31.741,-27.75 58.146,-58.163 82.35,-92.534Z" style="fill:#7a7bb9;fill-rule:nonzero;"/><path d="M2395.32,1324.23l1.996,0.604c6.875,7.725 9.559,24.312 13.65,34.183c26.617,64.283 95,110.4 156.688,136.371c11.704,66.017 10.404,126.575 3.875,192.871l-27.704,-11.071c-34.9,-17.8 -65.792,-39.35 -93.905,-66.738c-71.137,-69.304 -101.579,-161.458 -102.937,-259.004c14.771,-10.721 32.421,-18.158 48.337,-27.216Z" style="fill:#7a7bb9;fill-rule:nonzero;"/><path d="M703.491,2463.78c2.138,19.975 -27.087,173.096 -36.208,190.533c-7.717,14.754 -22.738,28.417 -32.7,42.2c-15.129,20.934 -27.959,43.717 -42.692,65.017c-19.958,-11.354 -39.417,-25.988 -57.604,-39.983c-12.229,-9.555 -26.521,-20.484 -34.454,-34.013c-5.592,-9.537 -5.271,-20.196 -2.296,-30.567c14.446,-50.325 86.079,-115.166 128.254,-145.608c24.738,-17.854 51.133,-32.687 77.7,-47.579Z" style="fill:#7a7bb9;fill-rule:nonzero;"/><path d="M1502.38,2524.67c8.9,8 17.337,16.659 25.916,25.017c7.038,7.6 14.117,15.15 20.8,23.071l41.984,46.896c4.779,6.004 9.979,11.925 14.241,18.3c15.529,17.541 30.771,35.487 46.679,52.679c4.734,3.637 9.917,8.462 15.05,11.383c4.646,5.004 9.288,7.921 9.371,15.263c0.246,22.35 -41.771,53.521 -57.958,65.55c-12.192,9.062 -24.942,18.416 -38.383,25.537l-20.313,-27.071c-4.887,-5.204 -8.454,-12.254 -12.179,-18.366c-12.081,-20.139 -24.481,-40.079 -37.2,-59.821c-4.454,-5.533 -7.508,-12.729 -10.792,-19.046c-10.411,-17.275 -20.021,-34.986 -28.829,-53.133c-4.354,-6.542 -7.692,-14.571 -11.35,-21.584c-6.946,-11.829 -12.746,-24.645 -18.937,-36.904c23.633,-11.904 43.083,-29.483 61.9,-47.771Z" style="fill:#977457;fill-rule:nonzero;"/><path d="M1502.38,2524.67c8.9,8 17.337,16.659 25.916,25.017c7.038,7.6 14.117,15.15 20.8,23.071l41.984,46.896c-8.917,7.696 -17.888,15.791 -27.805,22.162c-19.8,12.721 -48.187,24.35 -63.679,42.246c-10.411,-17.275 -20.021,-34.986 -28.829,-53.133c-4.354,-6.542 -7.692,-14.571 -11.35,-21.584c-6.946,-11.829 -12.746,-24.645 -18.937,-36.904c23.633,-11.904 43.083,-29.483 61.9,-47.771Z" style="fill:#977457;fill-rule:nonzero;"/><path d="M1502.38,2524.67c8.9,8 17.337,16.659 25.916,25.017c-18.946,31.021 -54.125,36.079 -68.879,59.658c-6.946,-11.829 -12.746,-24.645 -18.937,-36.904c23.633,-11.904 43.083,-29.483 61.9,-47.771Z" style="fill:#977457;fill-rule:nonzero;"/><path d="M1528.3,2549.69c7.038,7.6 14.117,15.15 20.8,23.071c-13.879,16.092 -59.083,47.662 -78.329,58.171c-4.354,-6.542 -7.692,-14.571 -11.35,-21.584c14.754,-23.579 49.933,-28.637 68.879,-59.658Z" style="fill:#815f4b;fill-rule:nonzero;"/><path d="M1652,2690.64c4.734,3.637 9.917,8.462 15.05,11.383c4.646,5.004 9.288,7.921 9.371,15.263c0.246,22.35 -41.771,53.521 -57.958,65.55c-12.192,9.062 -24.942,18.416 -38.383,25.537l-20.313,-27.071c-4.887,-5.204 -8.454,-12.254 -12.179,-18.366c6.692,-19.367 71.554,-47.075 89.792,-62.9c4.933,-4.284 8.608,-6.859 14.62,-9.396Z" style="fill:#815f4b;fill-rule:nonzero;"/><path d="M1667.05,2702.02c4.646,5.004 9.288,7.921 9.371,15.263c0.246,22.35 -41.771,53.521 -57.958,65.55c-12.192,9.062 -24.942,18.416 -38.383,25.537l-20.313,-27.071c7.738,-4.029 16.433,-6.337 24.233,-10.495c26.134,-13.934 70.259,-41.98 83.05,-68.784Z" style="fill:#977457;fill-rule:nonzero;"/><path d="M1591.08,2619.66c4.779,6.004 9.979,11.925 14.241,18.3c-23.379,25.166 -63.754,50.871 -94.933,65.154c-4.454,-5.533 -7.508,-12.729 -10.792,-19.046c15.492,-17.896 43.879,-29.525 63.679,-42.246c9.917,-6.371 18.888,-14.466 27.805,-22.162Z" style="fill:#815f4b;fill-rule:nonzero;"/><path d="M1643.32,2834.4c6.113,1.138 8,43.213 19.471,58.746c11.908,16.125 25.4,18.138 43.933,20.396c-60.979,25.138 -124.041,28.75 -187.879,13.338c-12.7,-5.605 -29.312,-10.942 -36.387,-23.838c-3.246,-5.917 -3.709,-12.117 -1.3,-18.462c8.237,-21.709 39.075,-37.784 59.246,-46.863c1.291,4.742 2.462,10.458 4.991,14.7c4,6.713 9.859,10.5 17.45,12.133c26.492,5.692 59.271,-16.791 80.475,-30.15Z" style="fill:#e1b274;fill-rule:nonzero;"/><path d="M1444.98,2414.42c11.737,-0.8 20.891,0.663 31.558,5.867c7.088,3.458 12.171,8.583 14.308,16.333c3.946,14.317 -2.004,31.571 -8.875,44.063c-19.283,35.058 -50.045,56.416 -88.008,67c-10.967,0.354 -21.662,0.429 -32.017,-3.734c-7.466,-3.004 -14.137,-7.941 -16.904,-15.808c-4.287,-12.212 0.859,-25.904 6.696,-36.675c20.213,-37.312 52.625,-65.046 93.242,-77.046Z" style="fill:#e1b274;fill-rule:nonzero;"/><path d="M2306.52,1161.73c3.85,0.054 7.259,0.57 10.9,1.829c23.884,8.254 45.021,23.991 55.271,47.646c7.471,17.237 7.046,36.787 -0.162,54.054c-8.179,19.583 -21.746,29.608 -40.975,37.066c-20.734,1.596 -33.963,-4.145 -50.938,-15.195c-13.804,-28.725 -20.241,-72.559 -22.179,-104.609c14.858,-9.696 31.433,-15.037 48.083,-20.791Z" style="fill:#7a7bb9;fill-rule:nonzero;"/><path d="M938.512,2686.13l47.842,14.383c-3.806,16.014 -6.788,32.181 -8.946,48.5c-2.156,16.317 -3.475,32.701 -3.959,49.154c-0.295,8.725 1.48,29.392 -3.387,35.867l-4.375,0.142c-16.846,-5.171 -34.188,-8.98 -51.304,-13.175c6.683,-45.134 15.633,-90.046 24.129,-134.871Z" style="fill:#815f4b;fill-rule:nonzero;"/><path d="M1309.82,2722.43c13.863,2.058 28.067,2.912 42.029,4.229c-0.316,45.529 4.95,92.292 2.921,137.517l-2.916,2.137l-48.238,2.075c7.529,-47.866 6.5,-97.646 6.204,-145.958Z" style="fill:#815f4b;fill-rule:nonzero;"/><path d="M661.764,2733.88l-77.048,106.605l43.379,63.793" style="fill:none;"/></svg>