<?xml version="1.0" encoding="UTF-8" standalone="no"?><!DOCTYPE svg PUBLIC "-//W3C//DTD SVG 1.1//EN" "http://www.w3.org/Graphics/SVG/1.1/DTD/svg11.dtd"><svg width="100%" height="100%" viewBox="0 0 5507 1592" version="1.1" xmlns="http://www.w3.org/2000/svg" xmlns:xlink="http://www.w3.org/1999/xlink" xml:space="preserve" xmlns:serif="http://www.serif.com/" style="fill-rule:evenodd;clip-rule:evenodd;stroke-linejoin:round;stroke-miterlimit:2;"><rect id="Artboard1" x="0" y="0" width="5506.47" height="1591.38" style="fill:none;"/><path d="M516.743,9.429c22.288,-1.258 44.088,0.417 65.396,7.475c59.004,19.546 91.183,67.659 117.346,120.625c81.329,-0.346 140.608,21.504 203.354,72.708c6.867,-15.522 15.075,-30.299 24.625,-44.333c34.625,-50.004 82.883,-87.171 143.575,-98.096c41.025,-7.383 85.188,-2.104 119.65,22.671c36.904,26.538 59.533,70.883 66.717,115.075c10.079,62.042 -9.309,130.779 -46.317,181.025c-37.937,51.509 -88.454,76.904 -150.762,86.2c12.87,53.896 -4.93,62.767 -5.209,109.025c4.929,4.034 9.096,8.009 13.379,12.721c-0.704,6.742 -2.362,7.533 -6.762,12.454c-7.046,1.704 -12.283,1.104 -19.446,0.075l-2.775,-0.416c-15.529,9.32 -28.996,29.216 -40.937,42.97c9.42,6.85 17.766,13.146 25.412,22.03c-1.058,10.454 -12.575,3.933 -17.567,12.35c6.521,1.116 12.355,-0.6 18.692,-1.988l-1.925,3.617l-6.225,-0.346l5.458,0.733c-22.137,8.004 -44.12,-8.646 -64.241,-2.775c2.746,21.209 47.591,37.667 50.612,81.371c2.409,34.796 -15.779,58.675 -36.996,83.683c34.967,8.796 106.85,22.363 142.242,26.271c14.7,1.621 21.854,-0.55 33.242,-10.029c65.233,-54.292 -6.363,-181.137 0.854,-253.825c4.129,-41.587 24.408,-87.071 57.65,-113.383c29.112,-23.038 66.929,-32.367 103.587,-28.05c35.546,4.187 69.888,21.825 91.83,50.516c22.245,29.092 30.287,71.23 24.55,107.005c-2.034,12.695 -6.805,24.279 -17.525,31.983c-9.267,6.662 -23.371,13.917 -34.975,11.529c-29.342,-6.025 -29.017,-67.925 -43.905,-90.187c-5.779,-8.646 -13.966,-14.892 -24.316,-16.775c-14.054,-2.563 -33.184,3.091 -44.721,11.362c-51.113,36.642 -3.717,133.483 4.075,181.633c3.683,22.759 2.5,43.825 -1.613,66.4c-5.637,30.984 -29.087,53.688 -35.27,82.146l3.925,1.375c41.887,-20.796 66.158,-139.291 125.77,-183.246c27.346,-20.166 59.871,-24.833 92.875,-19.129c31.438,5.438 60.28,24.917 78.234,51.259c39.046,57.279 44.804,142.008 31.637,208.054c92.754,4.125 187.184,0.221 280.138,0.858c121.625,-111.292 242.046,-224.767 366.441,-332.912c-0.841,-15.888 -4.704,-38.817 3.8,-52.709c3.125,-5.112 9.963,-10.1 15.98,-10.887c18.079,-2.363 19.458,18.996 31.508,25.825c6.087,3.45 112.825,-32.846 129.579,-37.571c47.85,-13.806 96.02,-26.383 144.508,-37.733c48.492,-11.35 97.239,-21.459 146.242,-30.325c49.006,-8.864 98.206,-16.475 147.6,-22.834c49.392,-6.361 98.914,-11.458 148.567,-15.291c226.358,-17.688 455.829,-3.696 680.379,27.591c266.042,37.063 526.708,91.659 796.125,102.171c29.222,1.128 58.444,1.801 87.667,2.021c29.25,0.217 58.486,-0.021 87.708,-0.713c29.222,-0.691 58.43,-1.839 87.625,-3.441c29.194,-1.6 58.361,-3.656 87.5,-6.167c29.139,-2.508 58.222,-5.469 87.25,-8.883c29.028,-3.417 58,-7.284 86.917,-11.6c28.916,-4.32 57.763,-9.086 86.541,-14.3c28.778,-5.217 57.459,-10.879 86.042,-16.988c71.958,-15.396 141.833,-39.216 213.542,-54.646c10.833,-2.333 27.875,-7.07 37.708,-0.762c4.875,9.646 3.5,20.521 1.667,30.846c-11.542,65.171 -142.292,358.137 -189.292,391.529c34.75,19.083 269.042,277.029 279.542,307.612c0.916,2.613 1.791,3.713 0.416,6.125c-12.416,22.117 -59.833,30.03 -82.875,36.563c-24.083,16.354 -176.541,51.358 -212.458,60.383c-363.292,91.288 -751.625,85.663 -1120.42,32.371c-174.375,-25.204 -347.375,-59.721 -522.196,-81.679c-78.513,-9.847 -157.293,-16.574 -236.337,-20.179c-79.047,-3.606 -158.113,-4.081 -237.196,-1.425c-47.325,1.394 -94.586,3.969 -141.783,7.725c-47.2,3.755 -94.275,8.686 -141.225,14.791c-46.953,6.106 -93.724,13.378 -140.313,21.817c-46.589,8.442 -92.937,18.039 -139.046,28.792c-58.008,13.244 -115.58,28.168 -172.716,44.771c-33.671,9.808 -85.063,36.733 -117.409,37.12c-6.308,0.075 -12.966,-2.358 -17.104,-7.141c-10.121,-11.713 -4.708,-37.346 -3.521,-52.2c-74.058,-64.095 -147.469,-128.923 -220.233,-194.484c-47.471,-42.533 -94.567,-88.012 -144.512,-127.466l-287.25,-0.071c-4.898,14.986 -9.63,30.023 -14.196,45.112c11.766,9.746 24.204,19.825 33.212,32.3c10.059,13.93 17.579,30.763 13.825,48.267c-2.966,13.821 -12.371,24.988 -23.916,32.675c-35.392,23.571 -86.58,18.221 -126.005,10.875c-79.541,52.675 -169.1,84.371 -260.795,109.046c0.669,1.603 1.315,3.215 1.937,4.837c10.75,27.992 13.613,63.338 0.696,91.121c-12.196,26.25 -36.638,44.134 -63.508,53.3c-104.763,35.742 -244.55,-19.662 -338.013,-65.525c-55.25,7.25 -113.712,3.317 -167.962,14.892l-2.43,3.754c23.438,25.463 61.209,9.625 86.338,59.658c12.492,24.871 15.658,54.842 6.2,81.263c-8.771,24.504 -30.696,46.679 -54.279,57.271c-1.475,0.658 -2.967,1.28 -4.475,1.866c-1.506,0.586 -3.025,1.135 -4.559,1.646c-1.536,0.511 -3.082,0.985 -4.637,1.421c-1.556,0.436 -3.122,0.833 -4.7,1.192c-1.575,0.358 -3.16,0.677 -4.754,0.958c-1.592,0.281 -3.189,0.522 -4.792,0.725c-1.603,0.203 -3.211,0.367 -4.825,0.492c-1.611,0.122 -3.225,0.207 -4.842,0.254c-1.616,0.044 -3.232,0.048 -4.845,0.012c-1.617,-0.033 -3.232,-0.107 -4.846,-0.22c-1.611,-0.114 -3.22,-0.269 -4.825,-0.463c-1.606,-0.192 -3.206,-0.424 -4.8,-0.696c-1.592,-0.269 -3.178,-0.579 -4.759,-0.929c-1.577,-0.35 -3.145,-0.737 -4.704,-1.162c-1.561,-0.425 -3.109,-0.889 -4.646,-1.392c-1.536,-0.5 -3.059,-1.039 -4.57,-1.617c-32.1,-12.2 -50.7,-35.933 -64.567,-66.246c-12.071,-1.57 -25.442,-3.241 -36.858,-7.554c-20.93,-7.912 -38.992,-24.196 -48.209,-44.625c-13.325,-29.533 -7.746,-60.562 3.146,-89.758c-79.729,-2.063 -158.137,-11.675 -230.942,-46.171c-6.945,51.929 -14.5,135.842 -53.908,174.392c-8.467,8.283 -20.433,16.066 -32.708,15.475c-8.913,-0.429 -16.238,-5.4 -22.15,-11.771c-57.817,-62.333 -64.854,-266.817 -59.392,-348.671c-7.083,-10.892 -12.996,-20.55 -15.85,-33.442c-5.554,-25.125 10.188,-49.595 12.263,-74.529c2.237,-26.812 0.45,-54.25 1.179,-81.171c2.071,-75.975 10.412,-170.795 52.696,-236.316c8.608,-13.334 21.466,-30.396 38.225,-32.871c7.783,-1.15 15.629,2.433 21.55,7.237c41.225,33.413 47.958,133.713 54.779,182.68c83.091,-49.413 174.021,-48.6 265.275,-27.825c47.875,-92.538 111.496,-47.688 175.208,-95.905c9.283,-7.025 17.596,-17.687 25.221,-26.508c-38.917,-3.579 -79.146,-10.183 -114.442,-27.729c-46.121,-22.925 -75.391,-61.929 -91.629,-109.979c-20.742,6.696 -43.046,17.733 -64.775,9.533l-1.104,-5.525c13.321,-20.996 38.387,-27.412 60.367,-36.042c0.375,-6.495 1.779,-15.337 -0.625,-21.375c-8.817,-22.162 -57.53,-16.662 -75.409,-26.129c-6.571,-3.479 -6.733,-6.437 -9.079,-13.029c1.638,-5.462 1.367,-8.104 6.754,-10.917c18,-9.4 60.163,6.113 79.309,11.409c6.416,-40.596 11.433,-80.675 25.308,-119.629c-40.567,-30.584 -66.025,-67.188 -79.579,-116.455c-16.871,-61.325 -11.029,-128.666 21.279,-184.087c24.204,-41.517 58.742,-65.796 104.833,-77.667Zm1361.38,970.696l159.195,141.921c55.8,50.087 111.017,102.512 169.167,149.804l0.071,-420.362c0.004,-42.242 5.55,-132.18 -1.625,-169.55c-109.7,98.345 -219.088,197.695 -326.808,298.187Zm-1745.43,200.767c-28.195,4.525 -53.895,4.533 -80.812,-6.088c-0.033,56.925 6.187,256.438 48.029,297.475c4.2,4.121 6.65,3.663 12.275,4.417c11.888,-4.158 16.246,-13.788 21.554,-24.521c0.9,-1.836 1.777,-3.682 2.629,-5.537c15.659,-41.859 35.996,-105.33 24.484,-149.405c-11.275,-43.179 -25.242,-69.762 -28.159,-116.341Zm-81.183,-150.125c14.958,-6.2 29.517,-12.479 45.367,-16.029c10.962,0.112 20.879,0.325 31.587,3.158c6.688,-39.992 15.404,-72.058 37.621,-106.638c-7.404,-31.954 -24.071,-164.304 -49.158,-177.516c-1.017,-0.538 -2.1,-0.942 -3.15,-1.413c-64.263,69.646 -61.267,209.263 -62.267,298.438Z" style="fill:#323945;fill-rule:nonzero;"/><path d="M3107.53,482.038c349.187,-12.171 669.775,61.008 1011.73,107.112c307.625,41.479 619.334,44.179 925.542,-10.458c78.792,-14.054 241.875,-45.55 313.417,-76.363c0.375,4.025 0.583,7.034 -0.084,11.046c-7.541,45.725 -151.25,350.121 -191.958,380.108c20.417,10.521 266.875,269.267 274.542,292.075c-22,14.563 -62.084,22.142 -87.417,29.809c-195.583,59.191 -406.75,104.612 -611.458,109.641c-44,5.405 -90.75,4.275 -135.167,4.884c-241.333,3.308 -480.208,-30.229 -717.75,-69.163c-128.875,-21.125 -257.542,-43.929 -387.467,-57.871c-21.025,-2.333 -42.072,-4.44 -63.141,-6.32c-21.07,-1.881 -42.156,-3.535 -63.259,-4.963c-21.105,-1.428 -42.223,-2.629 -63.354,-3.604c-21.13,-0.972 -42.269,-1.718 -63.417,-2.238c-21.147,-0.519 -42.297,-0.811 -63.45,-0.875c-21.152,-0.064 -42.304,0.1 -63.454,0.492c-21.15,0.389 -42.293,1.007 -63.429,1.854c-21.136,0.845 -42.261,1.917 -63.375,3.217c-21.114,1.3 -42.211,2.826 -63.292,4.579c-21.08,1.753 -42.138,3.732 -63.175,5.938c-21.038,2.205 -42.051,4.637 -63.037,7.295c-20.983,2.659 -41.938,5.542 -62.863,8.65c-20.925,3.109 -41.812,6.442 -62.662,10c-20.853,3.559 -41.664,7.341 -62.433,11.346c-20.773,4.003 -41.499,8.231 -62.18,12.683c-20.677,4.451 -41.307,9.123 -61.887,14.017c-81.229,18.954 -160.896,43.017 -241.117,65.721l0.013,-690.913c281.304,-91.733 559.321,-148.583 855.579,-157.7Z" style="fill:#fef4cf;fill-rule:nonzero;"/><path d="M915.081,275.671c1.879,-10.717 3.679,-21.717 6.958,-32.104c16.1,-50.955 60.733,-103.309 107.958,-128.03c34.255,-17.933 76.788,-24.354 113.988,-12.066c33.329,11.008 54.767,35.446 69.737,66.129c20.546,43.1 17.071,93.867 1.546,138.008c-17.279,49.13 -51.591,94.567 -99.15,117.434c-29.046,13.966 -60.516,18.7 -92.2,22.341c-0.491,10.08 3.325,21.746 5.163,31.78c6.066,33.108 4.533,57.899 -6.013,89.625c-42.121,-7.171 -118.541,-23.63 -155.379,2.458c8.092,7.479 128.258,11.358 148.046,13.662c-12.363,19.65 -28.354,34.921 -45.942,49.85c-28.258,-6.337 -74.075,-34.766 -99.066,-32.216l-0.5,4.446c21.029,26.199 50.491,37.374 81.433,47.233c-24.025,16.287 -48.567,30.033 -75.85,40.133c-78.175,28.934 -235.221,25.834 -311.913,-9.833c-47.183,-21.946 -70.6,-54.929 -87.566,-102.554c7.854,-5.579 14.683,-10.917 21.366,-17.929l-2.37,-4.559l-16.73,-0.804l-3.4,-3.921c3.388,-8.867 7.163,-8.679 15.513,-12.65l1.658,-4.996c-4.497,-3.694 -9.037,-7.336 -13.621,-10.925c-3.12,-6.291 -3.345,-10.55 -2.629,-17.45c10.071,-97.108 42.392,-204.062 121.963,-267.121c41.579,-32.945 82.8,-36.283 133.721,-30.091c-15.275,-12.175 -27.08,-21.7 -46.038,-27.617c-3.779,-1.179 -5.387,-1.842 -7.775,-5.267l4.358,-4.92c14.609,-4.73 30.292,-3.955 45.446,-3.121c83.996,4.625 133.425,45.087 187.288,105.075Z" style="fill:#f2f2f4;fill-rule:nonzero;"/><path d="M1001.06,342.133c5.754,-58.437 19.779,-125.633 66.421,-165.866c37.354,-32.221 61.512,-25.767 106.216,-22.354c11.471,6.962 25.9,18.295 40.029,15.687c20.546,43.1 17.071,93.867 1.546,138.008c-17.279,49.13 -51.591,94.567 -99.15,117.434c-29.046,13.966 -60.516,18.7 -92.2,22.341c5.684,-2.504 8.038,-4.65 12.029,-9.175c2.242,-7.062 2.625,-10.341 1.296,-17.629c3.75,-4.575 5.3,-8.725 7.179,-14.204l-2.754,-4.846c-7.2,-1.341 -12.721,-2.008 -18.45,-6.791c0.038,-12.555 15.675,-34.58 21.742,-46.734c-14.521,-2.4 -29.304,-3.937 -43.904,-5.871Z" style="fill:#fac3b7;fill-rule:nonzero;"/><path d="M1037.24,420.579c-11.433,-0.816 -34.391,-0.854 -42.546,-9.666c-7.529,-8.142 15.559,-30.971 15.396,-43.671c-9.046,-4.609 -17.529,2.033 -28.421,-3.105c-4.112,-7.462 -5.358,-13.17 -5.07,-21.741c2.029,-60.496 23.891,-135.979 68.741,-177.863c21.084,-19.687 51.071,-35.983 80.729,-34.25c20.221,1.188 34.163,8.904 47.621,23.63c-44.704,-3.413 -68.862,-9.867 -106.216,22.354c-46.642,40.233 -60.667,107.429 -66.421,165.866c14.6,1.934 29.383,3.471 43.904,5.871c-6.067,12.154 -21.704,34.179 -21.742,46.734c5.729,4.783 11.25,5.45 18.45,6.791l2.754,4.846c-1.879,5.479 -3.429,9.629 -7.179,14.204Z" style="fill:#323945;fill-rule:nonzero;"/><path d="M578.456,521.629c10.35,-1.158 20.766,-2.366 31.146,-0.908c20.037,2.821 46.191,9.412 58.875,26.142c0.625,3.412 2.291,7.945 1.079,11.191c-6.729,18.05 -29.696,24.396 -46.05,31.725c7.991,16.438 15.85,32.571 25.783,47.959c29.863,1.133 59.058,-0.438 87.063,-12.309c9.845,-4.175 15.533,-8.562 19.495,-18.462c-4.679,-2.775 -8.729,-5.2 -12.508,-9.213c6.467,-3.4 15.171,-3.183 22.271,-1.904c7.892,1.421 10.671,3.883 15.454,9.933c-0.787,9.484 -5.083,12.617 -10.896,19.629c-17.391,13.771 -36.662,23.863 -58.237,29.18c-34.209,8.429 -96.013,8.025 -126.867,-11.625c-10.754,-6.846 -19.658,-16.15 -22.417,-28.875l3.63,-4.475c18.629,9.687 37.079,18.729 56.545,26.675c-3.57,-10.042 -7.529,-20.546 -12.645,-29.904c-9.825,-17.971 -41.088,-49.588 -41.138,-69.513c-0.021,-7.654 4.492,-10.133 9.417,-15.246Z" style="fill:#323945;fill-rule:nonzero;"/><path d="M587.318,539.771c4.829,-0.167 9.713,-0.296 14.529,0.167c12.671,1.212 30.675,5.608 38.875,15.658l-2.15,5.121c-8.816,4.258 -15.212,7.616 -25.291,7.504c-11.971,-4.904 -18.754,-18.15 -25.963,-28.45Z" style="fill:#fac3b7;fill-rule:nonzero;"/><path d="M789.16,420.996c5.571,-0.358 11.062,-0.513 16.633,0.05c11.938,1.204 22.134,7.067 29.434,16.604c8.804,11.508 11.7,26.446 9.741,40.633c-2.808,20.379 -11.841,33.521 -27.716,46.096c-5.88,0.721 -12.025,1.063 -17.917,0.354c-10.392,-1.254 -19.825,-8.779 -25.921,-16.958c-10.267,-13.758 -13.229,-31.421 -10.337,-48.104c3.175,-18.325 11.283,-28.317 26.083,-38.675Z" style="fill:#323945;fill-rule:nonzero;"/><path d="M785.301,443.429c1.805,-0.102 3.584,-0.146 5.389,0.014c3.867,0.342 7.17,2.008 9.535,4.719c2.853,3.27 3.791,7.515 3.156,11.547c-0.91,5.791 -3.836,9.526 -8.979,13.099c-1.905,0.205 -3.896,0.302 -5.805,0.101c-3.366,-0.356 -6.422,-2.495 -8.397,-4.819c-3.326,-3.91 -4.286,-8.929 -3.349,-13.67c1.028,-5.208 3.655,-8.047 8.45,-10.991Z" style="fill:#fff;fill-rule:nonzero;"/><path d="M552.381,408.283c11.154,2.013 19.7,4.292 26.791,13.717c7.455,9.908 8.488,22.538 6.509,34.417c-3.567,21.416 -14.317,36.45 -31.484,48.991c-0.775,-0.179 -1.566,-0.304 -2.329,-0.533c-12.262,-3.679 -22.983,-12.192 -28.312,-23.983c-5.884,-13.017 -5.421,-28.163 -0.554,-41.384c6.012,-16.32 14.404,-23.9 29.379,-31.225Z" style="fill:#323945;fill-rule:nonzero;"/><path d="M542.772,429.56c1.645,-0.101 3.265,-0.145 4.91,0.014c3.523,0.339 6.532,1.992 8.686,4.68c2.599,3.243 3.453,7.453 2.875,11.452c-0.828,5.744 -3.494,9.448 -8.18,12.992c-1.735,0.203 -3.549,0.3 -5.288,0.1c-3.066,-0.353 -5.851,-2.474 -7.65,-4.78c-3.03,-3.877 -3.904,-8.856 -3.051,-13.558c0.937,-5.165 3.33,-7.981 7.698,-10.9Z" style="fill:#fff;fill-rule:nonzero;"/><path d="M814.356,308.825c5.725,-0.35 11.671,-0.821 17.4,-0.433c17.2,1.166 35.946,9.858 46.816,23.425c6.005,7.491 12.355,19.021 10.334,28.954c-1.121,5.512 -2.763,5.117 -7.134,8.071c-10.241,-2.292 -11.8,-6.063 -18.204,-13.571c-23.641,-38.613 -50.729,-0.846 -79.608,-11.196l-2.417,-5.704c5.692,-13.875 19.809,-23.358 32.813,-29.546Z" style="fill:#323945;fill-rule:nonzero;"/><path d="M574.877,305.813c9.12,-0.725 19.841,-1.205 28.237,2.891c9.854,4.813 14.879,12.967 18.158,23.042c-1.416,7.758 -1.2,7.267 -7.608,11.892c-11.192,0.22 -18.704,-6.43 -27.558,-12.5c-16.588,3.737 -26.134,17.937 -43.796,14.891l-1.833,-3.571c3.845,-15.087 22.233,-28.212 34.4,-36.645Z" style="fill:#323945;fill-rule:nonzero;"/><path d="M1236.87,942.837c78.521,-36.445 72.588,-146.85 144.934,-193.741c19.529,-12.659 41.516,-16.1 64.12,-10.942c25.205,5.75 44.455,21.113 57.792,43.017c44.4,72.887 27.379,166.842 8.438,244.696c-37.18,-20.479 -74.371,-28.759 -116.467,-30.763c-38.517,-1.833 -98.367,3.233 -127.538,32.108c-6.875,6.801 -10.95,15.455 -10.125,25.255c1.846,21.954 18.842,38.412 34.205,52.125c31.987,23.483 68.437,35.679 105.245,49.475c-77.67,39.316 -153.95,67.483 -237.629,91.012c-20.521,-32.808 -44.929,-61.854 -73.087,-88.416c-28.9,-18.921 -56.771,-35.984 -89.484,-47.688c-107.108,-38.325 -280.208,-38.067 -390.312,-15.192c-33.646,6.988 -74.758,19.113 -93.954,50.392c-8.113,13.225 -8.621,24.221 -8.779,39.133c-37.434,-8.779 -77.1,-12.987 -115.455,-15.433c0.925,-21.325 1.359,-42.212 0.296,-63.563c-0.771,-77.854 -7.712,-150.349 -35.021,-223.554c100.138,2.438 88.988,15.859 165.167,63.084c35.263,21.858 76.467,37.308 116.567,47.521c105.341,26.837 249.396,35.141 346.004,-23.546c29.812,-18.109 43.4,-40.592 51.854,-73.75c67.783,12.954 134.758,42.308 203.229,48.771Z" style="fill:#7195b1;fill-rule:nonzero;"/><path d="M1292.23,1104.59c31.987,23.483 68.437,35.679 105.245,49.475c-77.67,39.316 -153.95,67.483 -237.629,91.012c-20.521,-32.808 -44.929,-61.854 -73.087,-88.416c57.266,-24.892 154.962,-27.092 205.471,-52.071Z" style="fill:#55799a;fill-rule:nonzero;"/><path d="M706.868,1116.45c42.554,-4.783 90.171,-3.137 132.959,-0.612c98.054,5.787 194,26.787 261.633,104.195c26.017,29.78 55.546,74.859 52.021,116.492c-1.404,16.592 -8.367,31.133 -21.246,41.921c-35.279,29.546 -91.275,24.812 -134.025,20.829c-121.892,-17.687 -260.771,-90.571 -366.983,-151.313c-28.13,-16.087 -82.096,-44.816 -90.93,-77.099c1.155,-7.421 1.359,-10.48 6.509,-16.363c26.166,-29.879 121.929,-35.471 160.062,-38.05Z" style="fill:#7195b1;fill-rule:nonzero;"/><path d="M365.077,1332.82c6.9,-42.579 14.791,-85.421 18.537,-128.396c2.908,-33.317 2.346,-66.779 5.454,-100.113c1.063,21.351 0.629,42.238 -0.296,63.563c38.355,2.446 78.021,6.654 115.455,15.433c44.245,70.513 141.233,112.075 212.42,150.359c-117.95,0.733 -233.754,15.637 -351.57,-0.846Z" style="fill:#55799a;fill-rule:nonzero;"/><path d="M467.114,69.362c-0.108,0.626 -0.208,1.255 -0.333,1.88c-1.375,7.029 -3.509,10.658 -8.2,15.975c7.429,-1.842 14.816,-3.717 22.171,-5.825c0.466,2.312 2.787,3.645 4.479,5.241c15.883,0.829 33.25,3.563 48.012,9.625c21.559,8.859 38.738,40.725 46.134,61.392c5.737,16.042 10.254,37.542 3.145,53.783c-7.283,16.621 -33.875,31.455 -45.87,47.017c-23.35,30.288 -40.371,62.429 -56.925,96.796c-7.321,-6.013 -13.955,-12.584 -20.25,-19.663c-34.959,-39.3 -49.171,-93.85 -45.867,-145.62c2.842,-44.58 19.317,-90.605 53.504,-120.601Z" style="fill:#fac3b7;fill-rule:nonzero;"/><path d="M205.672,918.1c36.9,-19.792 70.017,-29.504 111.65,-33.983c36.488,81.104 47.613,190.262 35.713,278.421c-17.746,-0.813 -97.713,0.954 -108.313,-5.646c3.125,-80.888 5.188,-167.246 -39.05,-238.792Z" style="fill:#7195b1;fill-rule:nonzero;"/><path d="M862.093,784.263c7.509,-0.455 16.013,-1.426 23.438,-0.05c10.412,1.924 19.096,10.049 25.175,18.274c28.633,38.763 23.683,103.984 16.416,148.98c-93.025,28.487 -195.641,24.479 -290.058,4.316c73.329,-5.837 125.7,12.192 199.679,-14.233c1.979,-0.8 3.967,-1.579 5.888,-2.504c22.787,-10.95 44.446,-27.584 52.254,-52.6c2.679,-8.592 4.804,-17.45 0.346,-25.663l-6.417,-1.529c-19.321,10.188 -27.125,37.921 -47.633,51.309c-45.017,29.387 -112.3,23.12 -162.679,12.554c8.175,-23.905 8.579,-43.584 7.475,-68.638c104.166,7.879 95.183,-34.912 176.116,-70.217Z" style="fill:#7a7bbe;fill-rule:nonzero;"/><path d="M96.635,1241.04c4.383,1.446 7.296,2.6 10.429,6.146c14.517,16.433 28.979,45.766 26.633,67.833c-2.133,-1.733 -4.075,-3.379 -6.016,-5.329c-19.8,-19.825 -31.075,-40.259 -31.046,-68.65Z" style="fill:#323945;fill-rule:nonzero;"/><path d="M79.077,1301.26c2.72,1.5 4.666,3.058 6.633,5.491c14.412,17.825 26.337,46.484 23.929,69.546c-10.854,-7.762 -17.183,-16.479 -23.067,-28.342c-7.087,-14.287 -12.808,-31.054 -7.495,-46.695Z" style="fill:#323945;fill-rule:nonzero;"/><path d="M113.639,851.729l3.492,4.317c3.6,27.271 -18.742,56.287 -33.404,77.896c-2.209,-3.846 -4.871,-8.3 -5.421,-12.767c-2.609,-21.125 22.583,-54.125 35.333,-69.446Z" style="fill:#323945;fill-rule:nonzero;"/><path d="M122.189,914.212c1.596,3.03 3.938,5.696 3.621,9.176c-2.083,22.762 -16.963,47.491 -34.429,61.766c-3.3,-4.208 -5,-5.054 -4.834,-10.408c0.725,-22.921 20.317,-45.242 35.642,-60.534Z" style="fill:#323945;fill-rule:nonzero;"/><path d="M1275.96,499.908c26.871,-1.391 52.579,2.363 75.592,17.163c22.983,14.779 36.971,37.592 42.529,64.108c3.683,17.558 6.217,37.179 -4.829,52.721c-3.95,5.558 -4.596,6.733 -11.209,7.725c-6.387,-8.575 -5.316,-30.979 -8.062,-42.325c-5.75,-23.775 -18.142,-44.637 -39.667,-57.212c-18.371,-10.734 -41.791,-14.746 -62.416,-8.851c-19.517,5.575 -34.209,19.838 -43.884,37.226c-31.129,55.966 -8.662,121.82 8.204,178.399c7.955,59.371 -9.216,101 -36.037,152.25l-35.15,-8.654c9.892,-13.187 20.5,-26.491 28.717,-40.795c30.108,-52.413 12.45,-102.675 -1.946,-156.821c-12.375,-46.534 -16.709,-98.675 9.125,-141.863c17.425,-29.133 47.012,-45.029 79.033,-53.071Z" style="fill:#fac3b7;fill-rule:nonzero;"/><path d="M244.722,1156.89c10.6,6.6 90.567,4.833 108.313,5.646c-1.183,56.158 -11.017,111.829 -21.454,166.87c-41.992,-5.737 -81.517,-18.55 -120.459,-34.862c18.059,-45.8 25.021,-89.542 33.6,-137.654Z" style="fill:#55799a;fill-rule:nonzero;"/><path d="M1370.52,1028.82c36.296,-3.484 76.509,6.2 109.042,22.025c24.279,11.808 61.742,33.412 71.179,60.379c-0.512,5.962 0.033,9.108 -4.479,13.771c-14.263,14.741 -47.958,12.021 -67.133,11.958c-20.675,-3.029 -40.871,-7.037 -60.946,-12.858c-35.35,-10.246 -100.563,-28.992 -119,-62.434c-0.571,-6.521 -1.663,-8.7 2.808,-14.054c12.725,-15.25 49.446,-16.441 68.529,-18.787Z" style="fill:#7195b1;fill-rule:nonzero;"/><path d="M594.568,1424.96c13.354,-0.837 26.604,0.063 39.046,5.317c15.671,6.613 28.321,18.813 34.079,34.975c6.054,16.996 3.859,34.779 -4.408,50.596c-10.546,20.171 -27.021,27.888 -47.738,34.529c-13.904,0.092 -27.333,-0.683 -40.17,-6.554c-16.28,-7.442 -29.834,-20.779 -35.655,-37.946c-0.647,-1.872 -1.193,-3.772 -1.637,-5.7c-0.445,-1.928 -0.785,-3.875 -1.021,-5.841c-0.236,-1.967 -0.368,-3.939 -0.396,-5.917c-0.028,-1.981 0.05,-3.956 0.234,-5.925c0.183,-1.972 0.47,-3.929 0.862,-5.871c0.389,-1.939 0.882,-3.853 1.479,-5.742c0.595,-1.889 1.288,-3.74 2.079,-5.554c0.792,-1.814 1.678,-3.58 2.659,-5.3c11.416,-20.433 29.266,-28.821 50.587,-35.067Z" style="fill:#7195b1;fill-rule:nonzero;"/><path d="M602.247,1454.53c0.709,-0.127 1.42,-0.232 2.134,-0.312c0.714,-0.081 1.429,-0.138 2.146,-0.171c0.719,-0.033 1.438,-0.043 2.158,-0.029c0.719,0.014 1.436,0.051 2.15,0.112c0.717,0.061 1.43,0.146 2.142,0.254c0.711,0.112 1.418,0.244 2.12,0.396c0.7,0.156 1.396,0.335 2.088,0.538c0.689,0.203 1.371,0.426 2.046,0.671c0.675,0.247 1.341,0.516 2,0.808c0.658,0.289 1.305,0.601 1.941,0.937c0.637,0.334 1.262,0.688 1.875,1.063c0.614,0.375 1.214,0.769 1.8,1.183c0.589,0.414 1.163,0.848 1.721,1.3c0.559,0.453 1.102,0.924 1.629,1.413c0.528,0.489 1.039,0.994 1.534,1.516c0.494,0.523 0.971,1.06 1.429,1.613c0.458,0.553 0.899,1.121 1.321,1.704c0.419,0.583 0.821,1.179 1.204,1.788c0.38,0.611 0.742,1.233 1.083,1.866c0.339,0.634 0.657,1.277 0.954,1.93c0.3,0.655 0.577,1.319 0.83,1.991c0.255,0.672 0.487,1.353 0.695,2.042c0.209,0.686 0.395,1.379 0.559,2.079c0.164,0.7 0.304,1.406 0.421,2.117c0.116,0.708 0.209,1.421 0.279,2.137c0.069,0.717 0.115,1.434 0.137,2.15c0.022,0.72 0.021,1.439 -0.004,2.159c-0.025,0.716 -0.074,1.433 -0.146,2.149c-0.075,0.717 -0.172,1.43 -0.291,2.138c-0.12,0.708 -0.263,1.412 -0.43,2.113c-0.166,0.699 -0.355,1.393 -0.566,2.079c-0.211,0.686 -0.446,1.365 -0.704,2.037c-0.259,0.672 -0.538,1.335 -0.838,1.988c-0.3,0.652 -0.622,1.294 -0.967,1.925c-0.341,0.633 -0.705,1.252 -1.091,1.858c-0.384,0.608 -0.788,1.203 -1.213,1.783c-0.422,0.581 -0.864,1.148 -1.325,1.7c-0.461,0.553 -0.94,1.089 -1.437,1.609c-0.497,0.519 -1.01,1.022 -1.538,1.508c-0.53,0.486 -1.076,0.954 -1.637,1.404c-0.561,0.45 -1.136,0.881 -1.725,1.292c-0.589,0.414 -1.191,0.807 -1.804,1.179c-0.617,0.369 -1.245,0.721 -1.884,1.054c-0.636,0.331 -1.284,0.639 -1.946,0.925c-0.658,0.289 -1.325,0.556 -2,0.8c-0.677,0.242 -1.361,0.463 -2.05,0.663c-0.691,0.197 -1.388,0.372 -2.091,0.525c-0.703,0.152 -1.41,0.282 -2.121,0.387c-0.522,0.078 -1.046,0.143 -1.571,0.196c-0.528,0.053 -1.055,0.092 -1.583,0.117c-0.528,0.027 -1.056,0.041 -1.584,0.041c-0.527,0 -1.055,-0.012 -1.583,-0.037c-0.528,-0.025 -1.055,-0.063 -1.583,-0.113c-0.525,-0.05 -1.05,-0.112 -1.575,-0.187c-0.522,-0.078 -1.043,-0.167 -1.563,-0.267c-0.516,-0.1 -1.032,-0.214 -1.546,-0.341c-0.513,-0.125 -1.023,-0.264 -1.529,-0.417c-0.505,-0.15 -1.008,-0.314 -1.508,-0.492c-0.497,-0.175 -0.99,-0.362 -1.479,-0.562c-0.492,-0.198 -0.977,-0.409 -1.454,-0.634c-0.481,-0.222 -0.955,-0.457 -1.421,-0.704c-0.467,-0.244 -0.928,-0.501 -1.384,-0.771c-0.455,-0.269 -0.904,-0.548 -1.345,-0.837c-0.442,-0.292 -0.877,-0.593 -1.305,-0.904c-0.425,-0.311 -0.844,-0.632 -1.258,-0.963c-0.411,-0.333 -0.814,-0.675 -1.208,-1.025c-0.395,-0.353 -0.781,-0.714 -1.159,-1.083c-0.375,-0.372 -0.743,-0.752 -1.104,-1.138c-0.358,-0.389 -0.707,-0.786 -1.046,-1.191c-0.338,-0.406 -0.668,-0.818 -0.987,-1.238c-0.32,-0.422 -0.629,-0.851 -0.929,-1.287c-0.297,-0.436 -0.585,-0.879 -0.863,-1.329c-0.278,-0.45 -0.543,-0.907 -0.796,-1.371c-0.255,-0.464 -0.5,-0.934 -0.733,-1.409c-0.23,-0.475 -0.45,-0.954 -0.658,-1.437c-0.211,-0.486 -0.409,-0.978 -0.592,-1.475c-0.186,-0.495 -0.36,-0.993 -0.521,-1.496c-0.158,-0.503 -0.305,-1.01 -0.441,-1.521c-0.137,-0.511 -0.26,-1.025 -0.371,-1.542c-0.111,-0.516 -0.21,-1.036 -0.296,-1.558c-0.086,-0.522 -0.16,-1.046 -0.221,-1.571c-0.058,-0.525 -0.105,-1.051 -0.142,-1.579c-0.033,-0.528 -0.055,-1.055 -0.066,-1.583c-0.009,-0.528 -0.004,-1.056 0.012,-1.583c0.017,-0.528 0.046,-1.056 0.088,-1.584c0.044,-0.528 0.1,-1.054 0.166,-1.579c0.067,-0.522 0.148,-1.044 0.242,-1.567c0.092,-0.519 0.197,-1.036 0.317,-1.55c0.119,-0.516 0.25,-1.029 0.391,-1.537c0.145,-0.508 0.3,-1.014 0.467,-1.517c0.17,-0.5 0.35,-0.996 0.542,-1.487c0.191,-0.495 0.394,-0.982 0.608,-1.463c0.217,-0.483 0.445,-0.961 0.683,-1.433c0.239,-0.472 0.489,-0.938 0.75,-1.396c0.262,-0.458 0.534,-0.911 0.817,-1.358c0.283,-0.445 0.578,-0.884 0.883,-1.317c0.303,-0.431 0.618,-0.854 0.946,-1.271c0.325,-0.417 0.66,-0.825 1.004,-1.225c0.345,-0.4 0.699,-0.792 1.063,-1.175c0.364,-0.383 0.737,-0.757 1.121,-1.121c0.383,-0.366 0.775,-0.722 1.175,-1.066c0.397,-0.348 0.804,-0.684 1.221,-1.009c0.416,-0.327 0.84,-0.643 1.27,-0.946c0.431,-0.305 0.87,-0.601 1.317,-0.887c0.445,-0.283 0.897,-0.556 1.358,-0.817c0.459,-0.264 0.923,-0.515 1.392,-0.754c0.472,-0.239 0.95,-0.466 1.433,-0.683c0.481,-0.217 0.967,-0.421 1.459,-0.613c0.491,-0.194 0.989,-0.375 1.491,-0.541c0.5,-0.17 1.005,-0.327 1.513,-0.471c0.508,-0.142 1.019,-0.272 1.533,-0.392c0.517,-0.119 1.035,-0.226 1.554,-0.321Z" style="fill:#323945;fill-rule:nonzero;"/><path d="M905.793,714.504c13.067,-0.962 34.284,7.5 45.342,14.667c10.917,7.075 17.762,18.35 20.442,30.933c5.345,25.121 -4.996,41.342 -18.296,61.242c-6.413,-13.596 -11.963,-27.617 -21.504,-39.413c-12.155,-15.016 -28.692,-25.241 -48.28,-26.554c-42.687,-2.858 -84.716,34.554 -115.508,59.942c-20.25,8.692 -43.342,13.696 -65.279,9.858c-14.529,-2.537 -25.133,-8.008 -33.367,-20.591c-4.858,-7.425 -7.887,-15.934 -5.521,-24.738c7.213,-26.821 57.625,1.963 82.492,-0.767c9.892,-1.087 145.725,-57.15 159.479,-64.579Z" style="fill:#7a7bbe;fill-rule:nonzero;"/><path d="M467.114,69.362c20.333,-18.208 46.213,-29.754 73.858,-27.933c36.646,2.413 68.867,23.592 92.059,51.1c19.687,23.354 31.325,48.45 40.816,77.242c-20.888,9.15 -41.944,17.897 -63.166,26.242c-5.784,-40.459 -17.825,-83.646 -51.809,-109.855c-14.583,-11.25 -33.116,-16.946 -51.525,-14.641c-9.808,1.225 -18.016,5.316 -26.595,9.875c-7.355,2.108 -14.742,3.983 -22.171,5.825c4.691,-5.317 6.825,-8.946 8.2,-15.975c0.125,-0.625 0.225,-1.254 0.333,-1.88Z" style="fill:#f2f2f4;fill-rule:nonzero;"/><path d="M79.481,1056.3c14.8,-1.75 31.5,-3.204 45.783,1.888c14.821,5.283 29.017,16.991 35.458,31.529c4.405,9.954 5.317,20.696 1.038,30.841c-7.25,17.18 -21.35,24.909 -37.604,31.388c-10.096,0.429 -20.692,1.158 -30.721,-0.237c-17.142,-2.384 -35.513,-10.863 -45.417,-25.521c-5.646,-8.354 -7.971,-18.925 -5.612,-28.788c4.683,-19.558 20.946,-31.304 37.075,-41.1Z" style="fill:#7195b1;fill-rule:nonzero;"/><path d="M603.077,812.3c7.716,0.112 14.387,2.346 21.333,5.696c16.708,8.062 29.358,23.783 35.329,41.187c4.425,12.9 5.5,28.025 -1.521,40.238c-4.875,8.487 -10.737,12.196 -19.737,14.796c-14.696,-4.179 -22.863,-22.225 -36.454,-30.159c-9,0.767 -11.525,3.934 -18.634,9.263c-6.175,3.637 -8.471,5.8 -15.75,5.796l-1.121,-1.625c1.796,-13.592 6.513,-27.017 10.4,-40.154l-3.458,-4.321c-12.192,2.912 -18.004,16.962 -29.871,22.783l-4.325,-4.038c-2.079,-9.52 -2.266,-16.045 3.121,-24.525c13.396,-21.083 37.621,-29.866 60.688,-34.937Z" style="fill:#f2f2f4;fill-rule:nonzero;"/><path d="M185.422,945.104c30.513,71.521 31.15,144.417 25.03,220.55l-39.73,3.55c5.93,-7.7 11.084,-16.179 15.584,-24.796c20.771,-39.762 -2.096,-78.629 -13.234,-117.12c-9.02,-31.163 -2.57,-54.334 12.35,-82.184Z" style="fill:#7195b1;fill-rule:nonzero;"/><path d="M461.068,1373.55c16.984,-0.396 34.113,0.346 51.109,0.613c-12.442,20.391 -23.709,39.058 -31.405,61.875c5.017,12.591 12.255,24.85 18.463,36.929c-0.625,5.45 -0.467,5.479 -4.413,9.246c-4.591,0.07 -7.762,-0.101 -11.991,-2.109c-15.354,-7.304 -25.342,-20.958 -30.717,-36.725c-8.671,-25.454 -2.562,-46.525 8.954,-69.829Z" style="fill:#7195b1;fill-rule:nonzero;"/><path d="M170.722,1169.2l39.73,-3.55c-5.634,35.321 -11.255,70.663 -22.563,104.704c-7.583,-18.029 -27.375,-78.566 -18.958,-97.745c0.516,-1.175 1.05,-2.359 1.791,-3.409Z" style="fill:#55799a;fill-rule:nonzero;"/><path d="M962.389,878.75c7.2,1.604 15.854,2.871 22.579,5.813c7.892,3.458 9.525,6.562 12.742,14.158c-1.15,10.296 -5.338,15.808 -11.113,23.987c-5.354,4.346 -10.283,7.575 -16.454,10.675l-5.354,-2.516c-6.937,-13.829 -3.021,-36.7 -2.4,-52.117Z" style="fill:#7a7bbe;fill-rule:nonzero;"/><path d="M523.881,830.463l2.375,4.825c-4.579,14.15 -8.592,29.012 -15.296,42.312l-11.104,3.446l-5.167,-6.708c-0.967,-4.038 -1.908,-7.642 -1.012,-11.796c3.195,-14.809 18.5,-24.259 30.204,-32.079Z" style="fill:#f2f2f4;fill-rule:nonzero;"/><path d="M536.147,912.479c6.742,0.328 13.481,0.706 20.217,1.133c21.308,1.475 27.713,11.921 41.038,27.326c5.625,1.12 9.512,1.587 13.7,5.895c-0.763,0.246 -1.488,0.663 -2.288,0.734c-15.796,1.433 -61.692,-23.434 -72.667,-35.088Z" style="fill:#55799a;fill-rule:nonzero;"/><path d="M2510.95,931.048c3.254,14.437 0.429,26.914 -8.477,37.43c-8.905,10.516 -23.796,18.127 -44.672,22.833c-8.194,1.847 -15.789,2.944 -22.784,3.291c-6.995,0.346 -13.195,-0.101 -18.601,-1.343c-5.405,-1.242 -9.869,-3.31 -13.392,-6.207c-3.524,-2.896 -5.813,-6.685 -6.868,-11.368c-0.968,-4.292 -0.915,-8.148 0.16,-11.568c1.074,-3.42 2.757,-6.413 5.048,-8.98c6.406,2.041 13.504,3.516 21.295,4.426c7.79,0.909 16.466,0.286 26.026,-1.87c13.852,-3.122 19.899,-8.586 18.14,-16.39c-0.748,-3.317 -2.539,-5.578 -5.374,-6.784c-2.835,-1.206 -7.332,-1.833 -13.493,-1.879l-12.3,0.005c-16.747,0.29 -29.802,-2.149 -39.168,-7.316c-9.366,-5.167 -15.456,-13.994 -18.27,-26.48c-3.123,-13.853 0.012,-26.092 9.405,-36.717c9.394,-10.626 23.553,-18.072 42.478,-22.338c7.024,-1.584 13.778,-2.543 20.263,-2.877c6.486,-0.334 12.214,0.066 17.185,1.2c4.971,1.135 9.137,3.015 12.496,5.64c3.36,2.626 5.523,6.085 6.491,10.377c0.88,3.902 0.88,7.541 0.001,10.917c-0.879,3.376 -2.367,6.326 -4.464,8.848c-1.781,-0.623 -4.315,-1.18 -7.603,-1.669c-3.288,-0.488 -6.798,-0.825 -10.53,-1.009c-3.731,-0.184 -7.614,-0.128 -11.648,0.166c-4.034,0.294 -7.71,0.815 -11.026,1.563c-6.829,1.539 -11.937,3.665 -15.323,6.376c-3.387,2.711 -4.663,5.92 -3.827,9.627c0.616,2.731 2.173,4.636 4.671,5.713c2.498,1.077 6.729,1.66 12.695,1.751l11.715,0.127c18.634,-0.101 32.591,2.699 41.872,8.397c9.28,5.699 15.24,14.401 17.879,26.108Z" style="fill:#323945;fill-rule:nonzero;"/><path d="M2669.97,912.433c1.575,9.267 -1.261,17.052 -8.507,23.355c-5.639,5.016 -12.9,9.446 -21.781,13.288c-8.882,3.843 -18.942,6.719 -30.181,8.629c-10.647,1.81 -20.502,2.319 -29.563,1.526c-9.061,-0.793 -17.115,-3.126 -24.164,-7c-7.049,-3.874 -12.935,-9.264 -17.659,-16.17c-4.724,-6.906 -7.991,-15.682 -9.801,-26.33l-14.629,-86.065c2.069,-0.96 4.827,-2.038 8.276,-3.233c3.448,-1.194 7.342,-2.16 11.679,-2.898c8.873,-1.508 15.483,-1.11 19.831,1.194c4.347,2.304 7.225,7.597 8.632,15.878l11.412,67.137c1.508,8.873 4.856,14.846 10.045,17.921c5.188,3.074 11.923,3.907 20.204,2.499c5.127,-0.871 9.34,-2.044 12.639,-3.517c3.3,-1.474 5.753,-2.855 7.36,-4.142l-18.097,-106.473c1.871,-0.927 4.531,-1.988 7.98,-3.182c3.448,-1.195 7.342,-2.161 11.679,-2.898c8.873,-1.509 15.533,-1.119 19.979,1.168c4.446,2.288 7.373,7.572 8.78,15.853l15.886,93.46Z" style="fill:#323945;fill-rule:nonzero;"/><path d="M2776.77,932.695c-5.17,0.564 -9.99,0.637 -14.462,0.22c-4.472,-0.418 -8.573,-1.127 -12.303,-2.129l5.823,53.384c-1.923,0.813 -4.641,1.713 -8.155,2.7c-3.514,0.987 -7.458,1.719 -11.832,2.196c-8.947,0.976 -15.571,0.19 -19.873,-2.359c-4.301,-2.548 -6.908,-7.998 -7.819,-16.348l-16.104,-147.624c-0.564,-5.17 0.069,-9.514 1.898,-13.033c1.829,-3.519 4.591,-6.788 8.285,-9.806c5.553,-4.429 12.866,-8.395 21.939,-11.9c9.074,-3.504 19.277,-5.875 30.61,-7.111c11.531,-1.258 22.276,-0.972 32.233,0.859c9.957,1.831 18.751,5.449 26.382,10.853c7.632,5.405 13.906,12.667 18.824,21.787c4.918,9.121 8.093,20.242 9.525,33.364c1.366,12.526 0.736,23.811 -1.89,33.855c-2.626,10.044 -6.868,18.655 -12.724,25.832c-5.856,7.178 -13.079,12.895 -21.668,17.151c-8.589,4.257 -18.152,6.96 -28.689,8.109Zm-10.796,-35.337c10.736,-1.172 18.668,-5.457 23.796,-12.857c5.128,-7.4 6.943,-17.959 5.447,-31.677c-1.54,-14.117 -5.48,-23.947 -11.818,-29.493c-6.339,-5.545 -14.578,-7.765 -24.718,-6.658c-4.573,0.498 -8.49,1.479 -11.751,2.941c-3.26,1.462 -6.206,3.041 -8.838,4.737l7.645,70.084c2.957,1.287 6.075,2.204 9.354,2.752c3.279,0.547 6.906,0.604 10.883,0.171Z" style="fill:#323945;fill-rule:nonzero;"/><path d="M2941.58,918.235c-5.194,0.26 -10.01,0.049 -14.449,-0.63c-4.44,-0.68 -8.492,-1.629 -12.157,-2.848l2.676,53.634c-1.967,0.699 -4.734,1.437 -8.299,2.216c-3.566,0.779 -7.546,1.278 -11.941,1.497c-8.988,0.449 -15.555,-0.725 -19.7,-3.522c-4.144,-2.797 -6.426,-8.39 -6.845,-16.78l-7.402,-148.315c-0.259,-5.194 0.627,-9.493 2.66,-12.899c2.033,-3.405 4.982,-6.506 8.847,-9.302c5.803,-4.095 13.337,-7.625 22.601,-10.59c9.263,-2.966 19.588,-4.733 30.974,-5.301c11.585,-0.578 22.294,0.339 32.127,2.752c9.832,2.413 18.399,6.541 25.699,12.384c7.301,5.844 13.138,13.462 17.511,22.856c4.374,9.393 6.89,20.682 7.548,33.866c0.628,12.584 -0.664,23.812 -3.876,33.685c-3.212,9.872 -7.951,18.219 -14.219,25.04c-6.268,6.821 -13.814,12.103 -22.638,15.848c-8.825,3.744 -18.53,5.881 -29.117,6.409Zm-8.701,-35.911c10.787,-0.538 18.957,-4.35 24.51,-11.436c5.554,-7.085 7.987,-17.52 7.299,-31.302c-0.708,-14.183 -4.063,-24.228 -10.065,-30.136c-6.002,-5.908 -14.096,-8.608 -24.284,-8.1c-4.594,0.23 -8.562,0.978 -11.902,2.247c-3.341,1.268 -6.375,2.671 -9.102,4.208l3.514,70.413c2.877,1.458 5.935,2.557 9.176,3.296c3.241,0.74 6.859,1.01 10.854,0.81Z" style="fill:#323945;fill-rule:nonzero;"/><path d="M3181.8,838.249c-0.094,11.8 -1.978,22.435 -5.653,31.907c-3.674,9.471 -8.888,17.48 -15.64,24.027c-6.752,6.547 -14.842,11.583 -24.27,15.109c-9.428,3.525 -19.942,5.242 -31.542,5.151c-11.599,-0.092 -22.135,-1.925 -31.607,-5.5c-9.472,-3.575 -17.532,-8.689 -24.18,-15.342c-6.647,-6.653 -11.734,-14.743 -15.258,-24.271c-3.525,-9.528 -5.24,-20.292 -5.146,-32.292c0.092,-11.599 2.025,-22.134 5.8,-31.605c3.775,-9.47 9.039,-17.479 15.791,-24.026c6.752,-6.547 14.892,-11.583 24.42,-15.107c9.528,-3.525 19.992,-5.243 31.391,-5.153c11.4,0.09 21.786,1.973 31.157,5.647c9.371,3.674 17.38,8.887 24.027,15.64c6.647,6.753 11.783,14.844 15.409,24.272c3.625,9.429 5.392,19.944 5.301,31.543Zm-76.178,-41.103c-9.4,-0.074 -16.727,3.368 -21.982,10.327c-5.255,6.959 -7.934,16.938 -8.037,29.937c-0.106,13.4 2.364,23.57 7.409,30.51c5.046,6.94 12.368,10.448 21.968,10.524c9.599,0.076 16.977,-3.366 22.132,-10.326c5.155,-6.959 7.785,-17.039 7.889,-30.238c0.101,-12.8 -2.42,-22.77 -7.564,-29.911c-5.144,-7.141 -12.415,-10.749 -21.815,-10.823Z" style="fill:#323945;fill-rule:nonzero;"/><path d="M3249.81,914.902c-2.032,0.479 -4.86,0.86 -8.484,1.142c-3.623,0.283 -7.631,0.292 -12.023,0.027c-8.984,-0.541 -15.385,-2.379 -19.203,-5.515c-3.819,-3.135 -5.475,-8.895 -4.97,-17.28l5.503,-91.334c0.337,-5.59 2.023,-10.297 5.058,-14.122c3.036,-3.824 7.139,-7.083 12.311,-9.777c6.828,-3.596 14.953,-6.262 24.375,-7.999c9.421,-1.736 19.223,-2.298 29.404,-1.684c20.763,1.251 30.723,8.864 29.881,22.838c-0.205,3.394 -0.89,6.458 -2.057,9.193c-1.166,2.735 -2.409,5.064 -3.727,6.989c-4.531,-1.275 -10.091,-2.111 -16.679,-2.508c-5.79,-0.349 -11.621,0.001 -17.495,1.05c-5.874,1.048 -11.079,2.638 -15.615,4.769l-6.279,104.211Z" style="fill:#323945;fill-rule:nonzero;"/><path d="M3373.17,877.834c-0.559,5.572 0.828,9.782 4.16,12.628c3.333,2.847 8.183,4.59 14.551,5.228c2.986,0.3 6.204,0.271 9.657,-0.087c3.453,-0.357 6.424,-0.913 8.911,-1.669c1.592,2.17 2.855,4.608 3.789,7.315c0.935,2.706 1.233,5.751 0.893,9.134c-0.698,6.965 -4.008,12.412 -9.929,16.341c-5.922,3.929 -15.649,5.215 -29.181,3.858c-16.716,-1.676 -29.367,-6.814 -37.951,-15.414c-8.585,-8.599 -12.01,-21.555 -10.274,-38.869l13.44,-134.027c2.249,-0.378 5.199,-0.735 8.851,-1.073c3.652,-0.337 7.568,-0.296 11.747,0.123c8.756,0.878 14.919,3.054 18.491,6.527c3.571,3.474 4.947,9.29 4.129,17.449l-1.945,19.403l41.193,4.131c0.795,2.09 1.536,4.727 2.222,7.911c0.685,3.184 0.859,6.468 0.519,9.851c-0.638,6.368 -2.54,10.8 -5.705,13.297c-3.165,2.497 -7.036,3.516 -11.613,3.057l-30.148,-3.023l-5.807,57.909Z" style="fill:#323945;fill-rule:nonzero;"/><path d="M3674.93,891.892c-1.775,11.666 -5.156,21.924 -10.144,30.775c-4.988,8.85 -11.291,16.034 -18.907,21.551c-7.617,5.517 -16.343,9.348 -26.177,11.493c-9.835,2.145 -20.486,2.345 -31.954,0.6c-11.468,-1.745 -21.635,-5.062 -30.5,-9.951c-8.866,-4.89 -16.114,-11.101 -21.745,-18.633c-5.631,-7.533 -9.511,-16.266 -11.641,-26.2c-2.13,-9.933 -2.292,-20.832 -0.487,-32.695c1.745,-11.468 5.161,-21.62 10.248,-30.455c5.087,-8.835 11.438,-16.012 19.055,-21.529c7.617,-5.517 16.392,-9.34 26.325,-11.47c9.933,-2.13 20.535,-2.338 31.806,-0.623c11.27,1.715 21.281,5.059 30.032,10.032c8.752,4.973 15.935,11.276 21.551,18.907c5.616,7.632 9.546,16.372 11.79,26.222c2.244,9.85 2.493,20.508 0.748,31.976Zm-69.537,-51.546c-9.293,-1.414 -17.036,0.948 -23.23,7.086c-6.194,6.138 -10.269,15.633 -12.224,28.485c-2.016,13.248 -1.022,23.666 2.982,31.254c4.004,7.589 10.752,12.105 20.242,13.549c9.491,1.445 17.284,-0.91 23.379,-7.063c6.095,-6.153 10.135,-15.755 12.121,-28.805c1.925,-12.654 0.852,-22.882 -3.221,-30.683c-4.073,-7.802 -10.756,-12.409 -20.049,-13.823Z" style="fill:#323945;fill-rule:nonzero;"/><path d="M3751.17,984.776c-5.129,-0.85 -9.791,-2.08 -13.985,-3.688c-4.193,-1.608 -7.951,-3.397 -11.273,-5.367l-8.787,52.976c-2.071,0.265 -4.932,0.399 -8.582,0.402c-3.649,0.003 -7.644,-0.356 -11.985,-1.076c-8.879,-1.473 -15.046,-4.016 -18.501,-7.63c-3.455,-3.614 -4.495,-9.565 -3.121,-17.851l24.299,-146.499c0.851,-5.13 2.631,-9.142 5.342,-12.038c2.71,-2.896 6.251,-5.299 10.623,-7.209c6.54,-2.767 14.652,-4.615 24.334,-5.543c9.683,-0.928 20.147,-0.459 31.394,1.406c11.443,1.898 21.712,5.071 30.807,9.519c9.095,4.448 16.588,10.303 22.479,17.565c5.891,7.262 9.975,15.947 12.252,26.056c2.276,10.109 2.335,21.674 0.175,34.696c-2.062,12.431 -5.712,23.128 -10.949,32.091c-5.237,8.964 -11.643,16.112 -19.218,21.445c-7.575,5.332 -16.071,8.89 -25.49,10.673c-9.419,1.783 -19.356,1.807 -29.814,0.072Zm-0.867,-36.939c10.655,1.767 19.448,-0.221 26.382,-5.964c6.933,-5.743 11.528,-15.421 13.786,-29.035c2.324,-14.009 1.181,-24.538 -3.427,-31.587c-4.609,-7.049 -11.945,-11.408 -22.007,-13.077c-4.538,-0.753 -8.574,-0.865 -12.108,-0.336c-3.535,0.529 -6.797,1.255 -9.789,2.178l-11.535,69.549c2.5,2.037 5.255,3.761 8.265,5.173c3.009,1.411 6.487,2.444 10.433,3.099Z" style="fill:#323945;fill-rule:nonzero;"/><path d="M3896.32,949.944c1.503,8.726 5.451,15.346 11.844,19.86c6.393,4.514 14.137,7.464 23.232,8.849c8.305,1.265 16.288,1.318 23.95,0.159c7.662,-1.16 13.977,-2.777 18.946,-4.853c2.665,2.429 4.745,5.376 6.24,8.841c1.496,3.464 1.957,7.075 1.385,10.832c-0.693,4.547 -2.679,8.291 -5.959,11.23c-3.28,2.94 -7.515,5.178 -12.706,6.714c-5.19,1.536 -11.18,2.343 -17.969,2.421c-6.79,0.079 -14.139,-0.484 -22.047,-1.689c-11.666,-1.777 -22.193,-5.049 -31.582,-9.817c-9.389,-4.768 -17.153,-10.907 -23.292,-18.418c-6.14,-7.51 -10.498,-16.417 -13.076,-26.723c-2.577,-10.306 -2.872,-21.983 -0.884,-35.033c1.927,-12.654 5.625,-23.319 11.094,-31.994c5.469,-8.675 12.08,-15.558 19.835,-20.649c7.755,-5.09 16.25,-8.398 25.485,-9.925c9.236,-1.527 18.5,-1.583 27.792,-0.167c10.084,1.536 19.094,4.476 27.03,8.821c7.937,4.344 14.498,9.744 19.686,16.198c5.187,6.455 8.874,13.794 11.061,22.017c2.186,8.223 2.587,16.882 1.202,25.977c-0.964,6.327 -3.368,10.817 -7.211,13.468c-3.843,2.652 -8.904,4.005 -15.184,4.06l-78.872,-0.179Zm37.48,-56.804c-8.502,-1.295 -15.969,0.249 -22.402,4.63c-6.433,4.381 -10.897,11.439 -13.391,21.175l58.047,-0.566c0.387,-5.201 -1.149,-10.391 -4.608,-15.571c-3.46,-5.18 -9.341,-8.403 -17.646,-9.668Z" style="fill:#323945;fill-rule:nonzero;"/><path d="M4110.59,940.411c0.862,-6.947 -0.582,-12.366 -4.331,-16.257c-3.749,-3.892 -9.098,-6.268 -16.044,-7.13c-4.764,-0.591 -9.204,-0.537 -13.321,0.161c-4.118,0.699 -7.974,1.732 -11.57,3.099l-13.075,105.393c-2.059,0.349 -4.905,0.55 -8.539,0.603c-3.634,0.053 -7.635,-0.192 -12.001,-0.733c-8.932,-1.108 -15.204,-3.347 -18.816,-6.718c-3.613,-3.37 -4.902,-9.224 -3.868,-17.56l11.413,-91.994c0.64,-5.161 2.249,-9.193 4.826,-12.098c2.577,-2.905 6.023,-5.501 10.337,-7.787c6.918,-3.777 15.561,-6.433 25.929,-7.968c10.368,-1.536 21.605,-1.552 33.712,-0.05c21.634,2.684 37.765,9.522 48.393,20.514c10.627,10.992 14.845,25.32 12.654,42.985l-11.45,92.292c-2.257,0.325 -5.202,0.514 -8.837,0.567c-3.634,0.052 -7.634,-0.192 -12.001,-0.734c-8.931,-1.108 -15.154,-3.341 -18.667,-6.699c-3.513,-3.358 -4.753,-9.205 -3.719,-17.541l8.975,-72.345Z" style="fill:#323945;fill-rule:nonzero;"/><path d="M4350.39,1011.1c-0.967,14.768 -7.21,25.934 -18.729,33.497c-11.519,7.564 -27.956,10.646 -49.31,9.248c-8.382,-0.549 -15.976,-1.648 -22.783,-3.296c-6.807,-1.649 -12.627,-3.834 -17.459,-6.555c-4.833,-2.722 -8.528,-5.97 -11.087,-9.746c-2.559,-3.775 -3.681,-8.057 -3.368,-12.847c0.288,-4.391 1.431,-8.074 3.43,-11.05c1.999,-2.975 4.46,-5.37 7.385,-7.182c5.565,3.771 11.955,7.196 19.17,10.274c7.214,3.078 15.71,4.938 25.49,5.578c14.169,0.928 21.515,-2.6 22.038,-10.582c0.222,-3.393 -0.855,-6.069 -3.232,-8.029c-2.377,-1.959 -6.513,-3.834 -12.409,-5.623l-11.798,-3.478c-16.143,-4.465 -27.974,-10.501 -35.492,-18.108c-7.519,-7.608 -10.861,-17.798 -10.024,-30.571c0.928,-14.169 7.401,-25.02 19.419,-32.55c12.017,-7.531 27.706,-10.663 47.064,-9.395c7.185,0.471 13.934,1.464 20.249,2.98c6.314,1.516 11.695,3.522 16.141,6.018c4.446,2.496 7.909,5.478 10.387,8.948c2.479,3.469 3.574,7.399 3.287,11.79c-0.261,3.991 -1.292,7.481 -3.091,10.47c-1.799,2.989 -4.061,5.396 -6.786,7.222c-1.532,-1.103 -3.805,-2.354 -6.82,-3.754c-3.015,-1.4 -6.286,-2.716 -9.813,-3.949c-3.526,-1.234 -7.266,-2.28 -11.218,-3.14c-3.953,-0.86 -7.625,-1.402 -11.018,-1.624c-6.985,-0.457 -12.485,0.135 -16.501,1.776c-4.016,1.641 -6.148,4.357 -6.396,8.149c-0.183,2.794 0.771,5.061 2.861,6.802c2.091,1.74 5.984,3.498 11.681,5.274l11.199,3.439c17.899,5.181 30.493,11.818 37.779,19.912c7.287,8.093 10.538,18.127 9.754,30.102Z" style="fill:#323945;fill-rule:nonzero;"/><path d="M4514.81,983.372c-0.097,11.8 -1.985,22.434 -5.663,31.904c-3.679,9.47 -8.895,17.478 -15.649,24.022c-6.754,6.545 -14.846,11.578 -24.275,15.1c-9.43,3.523 -19.944,5.236 -31.544,5.14c-11.599,-0.095 -22.135,-1.932 -31.605,-5.51c-9.471,-3.579 -17.529,-8.695 -24.175,-15.35c-6.645,-6.655 -11.728,-14.748 -15.25,-24.277c-3.521,-9.529 -5.233,-20.294 -5.134,-32.293c0.096,-11.6 2.033,-22.134 5.811,-31.604c3.778,-9.469 9.045,-17.476 15.799,-24.02c6.754,-6.545 14.896,-11.578 24.425,-15.099c9.53,-3.522 19.994,-5.235 31.394,-5.141c11.399,0.094 21.784,1.979 31.154,5.657c9.37,3.677 17.377,8.893 24.022,15.649c6.644,6.755 11.778,14.847 15.4,24.277c3.622,9.431 5.386,19.945 5.29,31.545Zm-76.163,-41.13c-9.4,-0.077 -16.729,3.363 -21.986,10.319c-5.258,6.957 -7.94,16.936 -8.047,29.935c-0.111,13.4 2.355,23.57 7.398,30.512c5.043,6.942 12.364,10.452 21.964,10.532c9.6,0.079 16.978,-3.36 22.136,-10.318c5.158,-6.958 7.791,-17.036 7.9,-30.236c0.105,-12.8 -2.413,-22.771 -7.554,-29.913c-5.141,-7.143 -12.412,-10.753 -21.811,-10.831Z" style="fill:#323945;fill-rule:nonzero;"/><path d="M4671.23,1016.17c0.837,9.363 -2.605,16.899 -10.327,22.61c-6.019,4.554 -13.607,8.395 -22.764,11.523c-9.158,3.129 -19.414,5.201 -30.769,6.216c-10.757,0.962 -20.621,0.69 -29.591,-0.817c-8.969,-1.507 -16.815,-4.47 -23.535,-8.889c-6.72,-4.419 -12.162,-10.258 -16.325,-17.516c-4.163,-7.258 -6.726,-16.265 -7.688,-27.022l-7.776,-86.953c2.137,-0.794 4.973,-1.65 8.505,-2.568c3.532,-0.918 7.489,-1.573 11.872,-1.965c8.964,-0.802 15.522,0.117 19.674,2.758c4.152,2.641 6.602,8.144 7.35,16.511l6.066,67.829c0.802,8.964 3.667,15.184 8.596,18.659c4.929,3.474 11.577,4.838 19.944,4.089c5.179,-0.463 9.472,-1.299 12.878,-2.507c3.406,-1.208 5.96,-2.39 7.664,-3.547l-9.62,-107.57c1.938,-0.776 4.674,-1.623 8.206,-2.541c3.532,-0.919 7.49,-1.574 11.872,-1.966c8.964,-0.801 15.572,0.114 19.824,2.745c4.251,2.632 6.751,8.131 7.499,16.498l8.445,94.423Z" style="fill:#323945;fill-rule:nonzero;"/><path d="M4750.53,1041.95c-1.926,0.805 -4.654,1.644 -8.182,2.516c-3.528,0.873 -7.481,1.538 -11.857,1.996c-8.951,0.938 -15.566,0.173 -19.847,-2.294c-4.28,-2.468 -6.858,-7.879 -7.733,-16.233l-9.532,-91.002c-0.583,-5.57 0.309,-10.49 2.677,-14.759c2.368,-4.27 5.882,-8.158 10.542,-11.662c6.148,-4.666 13.726,-8.627 22.736,-11.883c9.01,-3.257 18.587,-5.416 28.732,-6.479c20.686,-2.167 31.759,3.712 33.218,17.636c0.354,3.381 0.179,6.516 -0.523,9.405c-0.703,2.889 -1.547,5.391 -2.532,7.505c-4.679,-0.515 -10.301,-0.429 -16.865,0.258c-5.769,0.604 -11.464,1.905 -17.087,3.902c-5.622,1.996 -10.497,4.417 -14.623,7.262l10.876,103.832Z" style="fill:#323945;fill-rule:nonzero;"/><path d="M4875.77,911.778c-10.655,1.764 -19.168,6.67 -25.539,14.718c-6.372,8.049 -8.463,18.683 -6.274,31.903c2.188,13.22 7.422,22.49 15.702,27.809c8.28,5.319 17.945,7.064 28.994,5.235c6.314,-1.045 11.75,-2.806 16.306,-5.284c4.557,-2.477 8.365,-4.881 11.426,-7.212c3.779,2.009 6.842,4.29 9.19,6.84c2.348,2.551 3.865,5.898 4.551,10.042c1.242,7.498 -1.709,14.169 -8.85,20.014c-7.141,5.845 -17.717,9.927 -31.726,12.246c-11.839,1.96 -22.903,2.169 -33.193,0.629c-10.289,-1.54 -19.41,-4.896 -27.361,-10.066c-7.951,-5.171 -14.577,-12.133 -19.878,-20.884c-5.3,-8.752 -8.979,-19.344 -11.037,-31.774c-2.123,-12.826 -1.897,-24.317 0.679,-34.474c2.576,-10.157 6.893,-18.981 12.951,-26.471c6.058,-7.49 13.561,-13.597 22.51,-18.322c8.948,-4.725 18.651,-7.953 29.109,-9.684c13.615,-2.254 24.727,-1.559 33.338,2.083c8.61,3.643 13.536,9.213 14.777,16.711c0.588,3.552 0.289,6.947 -0.899,10.184c-1.187,3.237 -2.785,6.137 -4.793,8.7c-3.879,-1.386 -8.365,-2.467 -13.461,-3.246c-5.095,-0.778 -10.603,-0.677 -16.522,0.303Z" style="fill:#323945;fill-rule:nonzero;"/><path d="M4973.35,952.999c4.606,7.562 10.711,12.268 18.316,14.116c7.605,1.848 15.891,1.744 24.859,-0.31c8.187,-1.877 15.631,-4.762 22.33,-8.657c6.7,-3.895 11.978,-7.72 15.837,-11.477c3.371,1.279 6.388,3.255 9.053,5.928c2.664,2.672 4.42,5.86 5.269,9.564c1.027,4.484 0.556,8.696 -1.414,12.635c-1.969,3.94 -5.086,7.578 -9.348,10.914c-4.263,3.336 -9.536,6.289 -15.821,8.858c-6.285,2.568 -13.327,4.746 -21.125,6.533c-11.502,2.636 -22.495,3.462 -32.979,2.479c-10.485,-0.983 -19.962,-3.839 -28.432,-8.566c-8.47,-4.728 -15.797,-11.41 -21.983,-20.047c-6.185,-8.636 -10.752,-19.388 -13.7,-32.254c-2.859,-12.477 -3.34,-23.755 -1.443,-33.833c1.897,-10.078 5.515,-18.909 10.856,-26.494c5.341,-7.585 12.025,-13.784 20.053,-18.599c8.027,-4.814 16.622,-8.271 25.785,-10.371c9.942,-2.278 19.402,-2.856 28.38,-1.733c8.977,1.124 17.064,3.733 24.261,7.829c7.197,4.096 13.323,9.566 18.38,16.41c5.056,6.843 8.612,14.749 10.666,23.716c1.43,6.239 0.845,11.297 -1.754,15.176c-2.6,3.878 -6.809,6.997 -12.629,9.357l-73.417,28.826Zm13.977,-66.604c-8.383,1.92 -14.76,6.101 -19.133,12.54c-4.372,6.439 -5.928,14.644 -4.67,24.615l53.776,-21.864c-1.552,-4.979 -4.888,-9.241 -10.009,-12.787c-5.122,-3.546 -11.776,-4.381 -19.964,-2.504Z" style="fill:#323945;fill-rule:nonzero;"/></svg>