<?xml version="1.0" encoding="UTF-8" standalone="no"?><!DOCTYPE svg PUBLIC "-//W3C//DTD SVG 1.1//EN" "http://www.w3.org/Graphics/SVG/1.1/DTD/svg11.dtd"><svg width="100%" height="100%" viewBox="0 0 4780 4255" version="1.1" xmlns="http://www.w3.org/2000/svg" xmlns:xlink="http://www.w3.org/1999/xlink" xml:space="preserve" xmlns:serif="http://www.serif.com/" style="fill-rule:evenodd;clip-rule:evenodd;stroke-linejoin:round;stroke-miterlimit:2;"><g><path d="M3188.97,2.461c64.796,-2.573 134.083,16.893 190.762,47.403c120.896,65.07 207.563,183.257 246.229,313.724c46.25,156.079 31.084,336.587 -47.333,480.1c-71.417,130.7 -191.671,213.254 -332.737,254.704c25.137,104.079 29.112,195.425 14.941,301.667c31.267,1.271 118.271,9.429 141.192,30.021c6.204,5.57 6.15,9.375 6.425,16.958c-3.688,7.412 -6.692,11.929 -13.454,16.862c-13.692,9.988 -122.65,-13.654 -143.921,-16.975c-17.858,69.292 -44.808,135.713 -86.221,194.33c29.521,14.062 74.5,32.008 96.204,56.337c7.004,7.85 10.121,14.033 9.779,24.608c-3.075,6.434 -4.212,10.663 -11.708,13.05c-27.325,8.696 -98.708,-40.683 -124.171,-55.175l-18,24.371c68.163,58.034 125.329,132.829 132.488,225.484c2.804,36.3 -2.625,68.658 -26.488,96.895c5.814,7.156 11.359,14.516 16.633,22.08c75.434,109.07 134.055,281.8 146.63,413.4c4.004,41.854 -6.225,86.304 2.133,127.145c13.958,68.205 56.867,140.505 42.683,212.467c-6.554,33.242 -25.991,51.55 -52.866,70.021c6.604,16.646 11.766,32.329 14.358,50.092c115.767,45.658 226.1,78.887 352.267,72.258c103.916,-5.458 209.25,-37.313 280.5,-117.204c218,-244.517 -95,-517.638 -108.792,-774.409c-6.167,-114.791 23,-227.275 101.042,-314.07c69.5,-77.334 169.083,-120.734 272.375,-125.675c113,-5.413 218.291,29.8 302.291,106.433c70.042,63.917 123.625,159.258 127.792,255.079c1.792,41.629 0.125,97.4 -30.125,129.621c-8.375,8.962 -20,18.962 -33.042,18.471c-40.333,-1.521 -65.25,-116.784 -80.833,-148.954c-3.833,-8.078 -8.014,-15.968 -12.542,-23.671c-4.527,-7.703 -9.389,-15.188 -14.583,-22.454c-5.222,-7.264 -10.75,-14.28 -16.583,-21.046c-5.834,-6.767 -11.959,-13.259 -18.375,-19.475c-48.417,-46.584 -107.5,-69.1 -174.542,-67.604c-50.125,1.12 -96.542,20.412 -130.958,57.429c-142.042,152.837 35.916,382.441 98,530.441c3.889,9.017 7.555,18.12 11,27.309c3.472,9.186 6.722,18.448 9.75,27.787c3.027,9.339 5.847,18.743 8.458,28.213c2.583,9.469 4.958,18.994 7.125,28.575c2.139,9.58 4.056,19.205 5.75,28.875c1.722,9.669 3.208,19.373 4.458,29.112c1.25,9.736 2.278,19.497 3.084,29.284c0.805,9.786 1.375,19.586 1.708,29.4c0.139,4.227 0.236,8.455 0.292,12.683c0.055,4.23 0.041,8.46 -0.042,12.687c-0.056,4.231 -0.167,8.459 -0.333,12.684c-0.167,4.228 -0.375,8.451 -0.625,12.671c-0.278,4.222 -0.598,8.44 -0.959,12.654c-0.389,4.211 -0.819,8.418 -1.291,12.621c-0.473,4.202 -1,8.4 -1.584,12.591c-0.555,4.189 -1.18,8.371 -1.875,12.546c-0.666,4.175 -1.402,8.34 -2.208,12.496c-0.778,4.155 -1.611,8.301 -2.5,12.437c-0.861,4.137 -1.792,8.262 -2.792,12.375c-0.972,4.112 -2.014,8.212 -3.125,12.3c-1.083,4.087 -2.208,8.16 -3.375,12.221c-1.194,4.059 -2.43,8.102 -3.708,12.129c-1.306,4.031 -2.653,8.043 -4.042,12.038c-1.389,3.997 -2.819,7.976 -4.291,11.937c-1.473,3.962 -3,7.903 -4.584,11.825c-1.583,3.925 -3.208,7.83 -4.875,11.713c-1.694,3.883 -3.416,7.744 -5.166,11.583c-1.778,3.842 -3.598,7.661 -5.459,11.459c-1.861,3.794 -3.777,7.566 -5.75,11.316c-1.944,3.75 -3.944,7.475 -6,11.175c-2.055,3.7 -4.152,7.374 -6.291,11.021c-2.139,3.647 -4.32,7.27 -6.542,10.867c-2.222,3.594 -4.5,7.161 -6.833,10.7c-2.306,3.539 -4.653,7.048 -7.042,10.529c-2.417,3.48 -4.861,6.93 -7.333,10.35c-2.5,3.422 -5.042,6.812 -7.625,10.171c-2.556,3.358 -5.167,6.684 -7.834,9.979c-2.639,3.294 -5.319,6.555 -8.041,9.783c-2.75,3.228 -5.528,6.422 -8.334,9.584c-2.805,3.161 -5.652,6.286 -8.541,9.375c-128.292,134.87 -315.042,181.225 -495.459,186.066c5.375,3.95 9.25,10.671 12.542,16.442c11.417,20.204 10.833,46.817 4.208,68.483c-10.375,33.842 -36.541,58.229 -67.25,74.2c-106.166,55.263 -264.733,39.642 -375.145,5.721c-20.73,15.217 -41.2,25.096 -65.696,33.092c-29.054,9.487 -60.45,9.491 -90.163,16.391c-54.454,12.638 -107.296,30.58 -162.25,42.28c-140.671,29.391 -284.412,45.625 -427.766,26.962c-120.771,-15.725 -232.296,-57.9 -308.588,-156.829c-75.742,19.287 -163.262,12.904 -238.646,-5.946c-83.687,-20.925 -136.771,-65.262 -180.458,-138.471c0.304,41.004 8.304,196.317 -4.763,224.829c-4.366,9.525 -19.983,18.363 -28.925,23.259c-35.895,19.662 -76.67,34.396 -114.295,50.683c-54.517,23.596 -108.905,48.942 -164.405,70.092c-42.237,-6.179 -84.608,-21.409 -125.583,-33.421c-63.042,-18.558 -126.179,-36.79 -189.412,-54.696l-388.813,-110.225c-62.537,-17.779 -126.021,-34.092 -187.967,-53.692c-13.512,-4.275 -27.958,-9.079 -39.204,-17.962c-3.491,-18.858 -4.746,-38.188 -5.216,-57.342c-3.788,-153.958 0.145,-308.741 -0.334,-462.8c-0.179,-58.833 -11.716,-277.137 1.988,-319.058c16.525,-19.092 49.916,-21.579 73.475,-26.629c-0.896,-14.479 -2.259,-30.129 6.421,-42.629c37.2,-53.588 119.258,-32.53 172.762,-43.4c-4.875,-19.013 -74.025,-55.546 -91.829,-100.884c-13.546,-34.491 -6.329,-72.262 8.346,-105.191c30.791,-69.092 99.575,-123.888 169.371,-149.771c127.708,-47.359 260.183,-19.159 379.937,36.625c20.342,-23.379 43.413,-35.067 73.558,-41.579c57.946,-12.509 116.738,2.991 175.234,-5.559c84.254,-12.316 166.441,-30.429 249.471,-49.062c35.729,-8.017 71.308,-19.004 107.45,-24.592c-13.106,-6.158 -26.064,-12.61 -38.875,-19.354c-131.717,-70.925 -247.959,-179.967 -291.855,-326.521c-31.666,1.3 -174.508,24.888 -180.1,23.771c-8.729,-1.746 -10.708,-5.154 -15.316,-11.958c-0.492,-9.117 -0.646,-14.771 6.329,-21.884c29.504,-30.075 139.025,-37.825 181.442,-40.066c-6.65,-34.13 -9.684,-68.342 -12.592,-102.959c-28.345,-5.705 -56.89,-10.091 -85.638,-13.158c-35.67,-3.517 -92.812,4.329 -124.554,-12.383c-7.862,-4.138 -9.358,-6.775 -12.171,-14.93c1.805,-7.983 4.471,-13.695 11.375,-18.541c33.905,-23.8 165.355,-0.217 206.125,7.646c-10.4,-119.671 -13.041,-245.738 24.867,-361.446c-18.717,-9.661 -36.661,-20.591 -53.833,-32.788c-111.9,-79.562 -180.063,-205.337 -202.834,-339.312c-25.491,-149.967 -1.245,-322.2 88.238,-448.016c56.879,-79.967 143.796,-142.467 241.729,-158.515c2.85,-0.455 5.706,-0.874 8.567,-1.258c2.861,-0.385 5.725,-0.733 8.591,-1.047c2.87,-0.313 5.743,-0.591 8.621,-0.833c2.875,-0.242 5.753,-0.449 8.634,-0.62c2.88,-0.171 5.763,-0.307 8.65,-0.406c2.883,-0.1 5.768,-0.164 8.654,-0.192c2.886,-0.029 5.772,-0.021 8.658,0.022c2.886,0.043 5.771,0.121 8.654,0.236c2.884,0.114 5.765,0.264 8.646,0.45c2.881,0.185 5.758,0.407 8.633,0.664c2.873,0.256 5.743,0.549 8.613,0.876c2.867,0.328 5.729,0.692 8.587,1.09c2.859,0.399 5.711,0.833 8.559,1.303c2.847,0.469 5.689,0.973 8.525,1.512c2.836,0.54 5.664,1.115 8.483,1.724c2.822,0.61 5.636,1.254 8.442,1.933c2.805,0.679 5.601,1.393 8.387,2.141c2.786,0.748 5.564,1.531 8.334,2.348c2.769,0.817 5.526,1.668 8.27,2.553c2.748,0.885 5.484,1.804 8.209,2.757c2.725,0.953 5.437,1.939 8.137,2.959c2.7,1.02 5.388,2.073 8.063,3.16c2.672,1.086 5.332,2.206 7.979,3.358c2.644,1.152 5.276,2.337 7.896,3.554c2.616,1.217 5.218,2.467 7.804,3.748c2.583,1.282 5.153,2.596 7.708,3.941c2.553,1.345 5.089,2.722 7.609,4.129c2.519,1.408 5.02,2.847 7.504,4.317c2.486,1.47 4.951,2.971 7.396,4.501c2.447,1.531 4.875,3.092 7.283,4.683c2.408,1.591 4.797,3.211 7.167,4.861c2.366,1.65 4.713,3.329 7.041,5.037c97.525,71.481 160.117,198.967 177.713,316.759c33.887,-11.8 64.766,-17.333 100.462,-19.833c-6.071,-20.588 -7.246,-39.521 3.084,-58.792c7.575,-14.129 20.933,-22.267 36.095,-26.163c78.917,-20.283 179.163,31 245.042,68.93l1.913,-0.142c86.32,-5.613 179.483,19.212 256.583,57.321c29.917,-107.454 70.579,-205.841 146.483,-289.38c83.696,-92.117 190.959,-144.936 315.313,-150.968Zm-1803.98,2714.56c41.012,-7.025 93.004,-10.495 129.075,14.855c4.872,3.463 9.588,7.129 14.15,10.995l3.962,5.3c16.667,1.413 34.438,-3.175 51.179,-4.375c32.692,-2.345 93.067,-0.529 116.096,27.109c13.875,16.654 11.604,32.104 10.579,51.987c26.521,7.125 89.813,14.65 104.225,37.671c15.038,24.021 6.063,86.958 5.871,116.279c62.021,-105.021 128.308,-163.004 237.167,-218.025c-4.988,-39.037 4.179,-79.358 6.05,-118.525c2.3,-48.191 -4.267,-96.454 -12.234,-143.875c-2.762,-16.446 -4.35,-39.108 -13.533,-52.962l-5.317,-1.184c-135.67,53.375 -344.354,92.675 -487.462,59.734c-23.563,-5.421 -46.9,-15.121 -70.688,-18.896c-22.491,-3.567 -43.354,2.962 -65.35,1.787c-26.712,-1.429 -82.666,-28.683 -104.962,-9.383c14.796,13.958 66.446,-2.558 77.475,30.496c3.275,9.821 2.312,24.625 2.608,35.108c1.659,58.596 -0.804,117.342 1.109,175.904Zm934.287,-632.912c8.258,12.258 16.321,24.737 25.163,36.575l17.975,20.858c68.066,-46.379 133.295,-96.696 201.47,-142.9l-0.395,-2.121c-23.33,6.188 -49.155,8.117 -71.509,16.742c-26.516,10.233 -51.391,26.125 -76.825,38.8c-30.333,15.121 -62.946,24.533 -95.879,32.046Z" style="fill:#313945;fill-rule:nonzero;"/><path d="M2723.12,510.121c-0.729,27.529 -6.884,72.638 12.812,95.342c4.834,5.571 6.371,5.308 13.671,6.067c11.721,-7.021 18.096,-18.888 21.325,-31.93c7.708,-31.154 8.829,-63.658 16.817,-95.1c35.171,-138.45 107.387,-280.35 232.025,-358.257c73.8,-46.129 156.812,-62.07 242.021,-42.029c100.7,23.685 185.395,93.664 238.837,180.939c75.928,124.056 93.458,283.593 59.083,423.81c-28.875,117.667 -98.525,223.958 -203.304,287.454c-43.358,26.275 -88.816,41.796 -137.583,54.708l-21.983,-50.754c-34.934,-69.416 -74.642,-132.041 -128.105,-188.733c12.338,-36.113 21.755,-76.846 24.713,-114.942c1.354,-17.429 1.683,-43.308 -11.25,-56.825c-0.531,-0.553 -1.088,-1.078 -1.671,-1.575c-0.586,-0.494 -1.194,-0.959 -1.825,-1.396c-0.631,-0.436 -1.281,-0.838 -1.95,-1.208c-0.672,-0.369 -1.361,-0.704 -2.067,-1.004c-0.702,-0.303 -1.421,-0.568 -2.154,-0.796c-0.73,-0.228 -1.471,-0.419 -2.221,-0.575c-0.75,-0.153 -1.507,-0.268 -2.271,-0.346c-0.761,-0.08 -1.524,-0.121 -2.291,-0.121c-32.333,0.067 -65.717,38.042 -86.629,59.625c-1.975,-112.12 25.095,-246.67 84.4,-343.087c31.408,-51.065 78.762,-99.286 138.904,-113.253c96.742,-22.467 154.221,17.449 229.387,65.284c-36.804,-54.504 -88.504,-97.887 -154.571,-110.316c-60.404,-11.365 -119.758,2.485 -169.862,37.692c-102.546,72.051 -148.488,206.914 -168.4,325.243c-7.258,43.129 -26.442,180.704 -3.563,217.121c4.8,7.641 8.292,8.921 16.334,11.637c28.854,-9.046 66.35,-62.075 93.929,-81.816c-9.942,43.191 -25.313,85.137 -34.525,128.383c25.137,31.542 50.95,62.4 73.058,96.208c95.209,145.579 132.025,311.446 113.046,483.571l-0.316,2.758c-116.538,-1.133 -229.113,7.746 -339.834,46.871c-24.441,8.638 -55.033,19.696 -73.687,38.275c-2.854,2.842 -4.125,5.388 -5.392,9.138c3.587,5.362 4.325,5.896 10.742,7.304c32.862,7.204 124.233,-26.625 162.712,-34.05c75.488,-14.563 157.433,-18.363 234.2,-17.258c-17.033,60.495 -41.442,120.795 -73.658,174.883c-70.909,-21.508 -248.388,-64.021 -314.688,-28.7c-3.166,1.687 -5.433,3.833 -8.004,6.292c0.454,2.966 -0.117,5.112 2.413,6.975c26.654,19.612 138.12,20.812 177.125,27.229c37.454,6.166 73.983,14.721 109.929,27.012c-127.979,131.809 -280.425,220.179 -457.746,269.646c-49.446,13.792 -102.654,18.429 -151.075,34.283c-20.642,6.759 -38.783,18.13 -57.271,29.238c-44.896,26.975 -88.371,39.546 -141.15,40.187c-63.629,0.771 -124.358,-14.445 -170.896,-59.954c-11.166,-10.921 -22.166,-23.875 -34.704,-33.183c-31.521,-23.392 -82.446,-34.075 -118.646,-50.383c-134.154,-60.446 -259.446,-155.792 -312.162,-297.675c26.316,1.137 50.787,4.583 75.433,-6.821l3.8,-5.263c-4.283,-11.196 -13.229,-15.804 -23.833,-20.45c-22.396,-9.812 -45.175,-11.754 -69.188,-14.562c-5.091,-30.363 -8.658,-59.621 -8.379,-90.513c20.634,7.617 40.629,17.138 63.1,12.654l5.138,-4.566c-1.979,-13.4 -12.704,-22.821 -23.175,-30.525c-13.938,-10.259 -32.746,-16.084 -48.759,-22.313c-4.066,-52.558 -8.887,-105.65 -7.354,-158.387c5.759,-197.775 74,-399.275 203.396,-550.334c61.458,-71.75 174.879,-165.758 267.904,-188.983c24.138,6.683 50.713,22.529 75.959,16.575c5.812,-4.971 8.816,-7.133 9.458,-15.387c0.679,-8.75 -5.021,-16.134 -10.75,-22.042c-4.079,-4.208 -8.763,-7.996 -13.25,-11.758c19.271,-4.13 37.496,-7.355 57.262,-7.05c24.604,0.375 84.263,13.687 102.542,8.25c2.1,-0.625 6.179,-4.546 8.142,-5.988c2.804,-7.567 4.162,-11.15 1.037,-19.221c-10.279,-26.541 -57.079,-37.775 -57.479,-60.925c7.667,-7.275 14.596,-7.779 25.013,-7.529c4.088,0.117 8.173,0.329 12.254,0.638c4.077,0.305 8.147,0.708 12.208,1.208c4.061,0.5 8.108,1.094 12.142,1.783c4.03,0.689 8.044,1.472 12.041,2.35c3.995,0.878 7.967,1.85 11.917,2.917c3.95,1.064 7.874,2.221 11.771,3.471c3.894,1.247 7.758,2.587 11.592,4.021c3.833,1.43 7.63,2.95 11.391,4.558c3.761,1.608 7.484,3.305 11.167,5.092c3.68,1.783 7.318,3.652 10.912,5.608c3.592,1.955 7.138,3.994 10.638,6.117c3.497,2.122 6.943,4.325 10.337,6.608c3.395,2.283 6.734,4.646 10.017,7.087c3.283,2.442 6.508,4.959 9.675,7.55c3.164,2.592 6.267,5.257 9.308,7.996c3.039,2.739 6.013,5.547 8.921,8.425c101.729,-5.237 181.175,13.704 275.663,51.8Z" style="fill:#f2f2f4;fill-rule:nonzero;"/><path d="M2979.12,672.475c-1.975,-112.12 25.095,-246.67 84.4,-343.087c31.408,-51.065 78.762,-99.286 138.904,-113.253c96.742,-22.467 154.221,17.449 229.387,65.284c9.075,7.523 15.059,19.927 21.109,29.944c36.958,61.233 58.333,131.95 64.916,203.062c10.542,114.392 -21.916,237.575 -95.979,326.563c-64.004,76.912 -132.425,106.779 -225.017,139.383c-34.933,-69.416 -74.641,-132.041 -128.104,-188.733c12.338,-36.113 21.754,-76.846 24.713,-114.942c1.354,-17.429 1.683,-43.308 -11.25,-56.825c-0.531,-0.553 -1.088,-1.078 -1.671,-1.575c-0.586,-0.494 -1.194,-0.959 -1.825,-1.396c-0.631,-0.436 -1.281,-0.838 -1.95,-1.208c-0.672,-0.369 -1.361,-0.704 -2.067,-1.004c-0.702,-0.303 -1.421,-0.568 -2.154,-0.796c-0.73,-0.228 -1.471,-0.419 -2.221,-0.575c-0.75,-0.153 -1.507,-0.268 -2.271,-0.346c-0.761,-0.08 -1.525,-0.121 -2.291,-0.121c-32.334,0.067 -65.717,38.042 -86.629,59.625Z" style="fill:#fac3b7;fill-rule:nonzero;"/><path d="M2046.75,1421.51c25.938,-3.634 60.534,0.537 86.079,6.337c25.892,5.879 55.888,17.1 69.788,41.442c8.862,15.516 8.937,32.966 3.816,49.621c-15.708,51.112 -64.529,76.1 -108.233,99.229c5.229,22.641 9.729,46.508 30.3,60.546c36.854,25.154 98.85,15.879 140.496,7.695c40.971,-8.05 133.879,-39.629 157.921,-75.55c-2.875,-13.1 -16.975,-20.241 -24.308,-31.912c3.554,-2.496 2.97,-2.971 7.625,-2.625c45.45,3.371 92.579,27.229 122.17,61.929l-2.583,9.321l4.458,-5.871l-8.141,6.279c-17.317,2.263 -35.721,-6.075 -51.771,-11.846c-21.554,102.855 -34.342,173.621 -104.858,256.73c-24.246,23.979 -48.659,45.5 -81.809,56.266c-2.341,0.759 -4.7,1.457 -7.075,2.096c-2.375,0.642 -4.765,1.225 -7.171,1.75c-2.402,0.522 -4.818,0.986 -7.245,1.392c-2.428,0.405 -4.864,0.75 -7.309,1.033c-2.444,0.286 -4.893,0.513 -7.346,0.679c-2.455,0.164 -4.914,0.268 -7.375,0.313c-2.461,0.044 -4.92,0.023 -7.379,-0.05c-2.458,-0.075 -4.914,-0.211 -7.366,-0.409c-2.453,-0.2 -4.9,-0.458 -7.342,-0.775c-2.439,-0.316 -4.87,-0.694 -7.292,-1.133c-2.422,-0.436 -4.832,-0.932 -7.229,-1.487c-2.397,-0.556 -4.779,-1.17 -7.146,-1.842c-2.366,-0.672 -4.715,-1.401 -7.046,-2.188c-2.33,-0.788 -4.641,-1.634 -6.933,-2.537c-2.289,-0.9 -4.554,-1.857 -6.796,-2.871c-2.244,-1.011 -4.461,-2.078 -6.65,-3.2c-74.008,-38.767 -106.921,-135.267 -130.337,-209.996c-29.596,-4.904 -59.613,-11.304 -86.125,-25.891c-23.938,-13.167 -43.021,-32.342 -50.546,-59.134c-3.167,-11.275 -6.296,-22.275 -0.363,-32.829c13.821,6.275 25.955,20.958 37.459,30.929c38.2,33.109 87.946,42.984 136.937,43.638c-10.804,-21.846 -17.525,-44.117 -22.471,-67.921c-29.891,-6.833 -57.662,-17.738 -81.658,-37.179c-22.175,-17.967 -42.337,-44.117 -45.108,-73.413c-1.717,-18.091 3.987,-35.491 15.808,-49.183c25.017,-28.983 64.279,-34.329 100.154,-37.383Z" style="fill:#313945;fill-rule:nonzero;"/><path d="M2418.66,1669.89c4.208,18.375 -6.309,50.583 -10.067,69.925c-37.2,4.442 -74.492,10.079 -110.571,20.437c-61.8,17.742 -111.008,53.771 -142.242,110.513c-8.67,-13.308 -16.783,-27.058 -25.133,-40.575c-18.458,-32.25 -30.221,-65.775 -41.737,-100.938c30.129,-0.966 60.937,4.2 91.05,6.096c85.483,5.392 169.537,-13.008 238.7,-65.458Z" style="fill:#e1a39e;fill-rule:nonzero;"/><path d="M2376.51,1781.04l4.758,0.25l0.592,6.092c-18.567,44.32 -53.225,95.033 -98.092,115.983c-30.413,14.196 -55.104,10.15 -85.629,-1.229c-9.759,-5.4 -19.05,-11.863 -28.434,-17.896c69.946,-73.558 107.334,-90.913 206.805,-103.2Z" style="fill:#fac3b7;fill-rule:nonzero;"/><path d="M2050.38,1465.23c23.613,-2.029 52.388,-0.55 75.125,6.467c12.275,3.788 26.767,10.792 32.429,22.963c3.667,7.883 2.813,16.612 -0.579,24.433c-10.933,25.242 -44.737,43.646 -68.495,54.096c-25.38,5.246 -48.346,-3.325 -69.492,-17.246c-16.342,-10.758 -35.709,-28.15 -38.913,-48.467c-1.341,-8.5 0.867,-15.991 6.509,-22.462c15.095,-17.317 42.295,-17.917 63.416,-19.784Z" style="fill:#fbc4a7;fill-rule:nonzero;"/><path d="M2531.37,1123.34c21.408,-1.258 38.925,-1.337 58.742,7.65c31.487,14.283 51.991,42.892 63.579,74.704c18.729,51.442 17.3,112.609 -6.625,162.142c-16.467,34.092 -39.68,54.704 -75.034,67.321c-23.341,2.571 -43.87,2.133 -65.233,-8.55c-32.383,-16.192 -52.563,-48.846 -63.079,-82.492c-15.675,-50.158 -14.154,-112.208 11.033,-159.092c17.713,-32.97 41.192,-51.079 76.617,-61.683Z" style="fill:#313945;fill-rule:nonzero;"/><path d="M2506.75,1207.05c13.029,0.738 22.338,1.646 31.921,11.634c8.454,8.812 11.754,20.587 10.662,32.595c-1.616,17.796 -9.962,28.605 -22.925,39.646c-9.945,1.092 -18.087,-0.146 -25.937,-6.916c-9.158,-7.9 -12.358,-19.571 -12.633,-31.271c-0.455,-19.384 5.808,-31.942 18.912,-45.688Z" style="fill:#fff;fill-rule:nonzero;"/><path d="M1836.78,1124.11c13.229,1.354 26.334,2.525 38.459,8.395c30.37,14.705 49.562,43.409 59.891,74.742c16.842,51.092 13.221,114.013 -11.862,161.892c-17.05,32.55 -39.275,50.5 -74.025,61.093c-22.759,0.09 -40.167,-2.035 -59.434,-14.952c-30.116,-20.187 -45.104,-54.795 -51.279,-89.42c-9.229,-51.742 -3.791,-114.138 27.646,-157.938c18.108,-25.233 40.163,-38.796 70.604,-43.812Z" style="fill:#313945;fill-rule:nonzero;"/><path d="M1832.27,1203.61c11.229,0.262 20.966,2.087 28.833,10.837c7.112,7.909 9.871,18.538 9.154,28.984c-1.237,17.933 -9.016,30.721 -21.9,42.425c-0.825,-0.004 -1.65,0.004 -2.475,-0.009c-11.621,-0.191 -19.846,-2.266 -27.896,-11.158c-6.983,-7.717 -9.333,-17.758 -8.741,-27.967c1.112,-19.229 9.52,-30.725 23.025,-43.112Z" style="fill:#fff;fill-rule:nonzero;"/><path d="M2537.22,802.338c43.358,-3.9 89.108,7.012 123.745,33.867c20.142,15.616 45.001,43.637 47.467,70.312c0.5,5.413 -0.546,5.633 -3.9,9.875c-21.862,0.446 -47.291,-30.8 -63.975,-44.358c-32.358,-20.034 -85.008,-32.188 -122.025,-19.392c-19.304,6.671 -39.9,21.967 -61.033,19.738c-7.925,-5.134 -8.321,-6.759 -12.1,-15.555c0.046,-7.354 1.212,-12.429 6.021,-18.208c19.362,-23.279 57.158,-32.967 85.8,-36.279Zm-692.592,11.908c9.25,-0.621 18.904,-1.487 28.137,-0.508c20.492,2.167 50.463,14.296 63.067,31.233c6.121,8.225 4.567,14.196 2.729,23.392c-20.371,16.525 -69.529,-27.196 -136.683,14.117c-13.196,12.366 -23.333,27.645 -36.288,40.229c-6.966,6.766 -13.016,9.441 -22.604,9.409l-4.916,-5.413c-3.221,-16.171 4.395,-33.721 12.662,-47.342c21.538,-35.479 54.546,-55.088 93.896,-65.117Z" style="fill:#313945;fill-rule:nonzero;"/><path d="M3073.5,1750.62c16.367,2.98 34.792,22.688 45.442,34.75c49.458,56.021 66.783,120.021 61.75,193.013c-31.2,-32.454 -67.154,-62.933 -110.433,-77.596c-48.292,-16.358 -97.213,-6.521 -141.759,15.971c-60.058,30.321 -114.096,73.804 -170.829,109.917c-75,47.737 -155.337,91.308 -227.492,142.916c-7.662,5.479 -15.475,10.892 -18.47,19.971c69.97,25.588 375.02,-217.404 472.325,-241.246c35.07,-8.591 65.216,-4.266 95.975,14.871c112.62,70.071 192.762,276.808 221.166,400.025c29.796,129.246 30.525,266.679 -43.446,382.471c-57.408,89.862 -221.95,182.629 -325.241,205.542c9.25,-59.155 3.858,-114.134 -27.763,-166.121c-44.716,-73.521 -124.491,-109.384 -204.687,-129.234c6.821,-7.75 14.225,-15.525 22.504,-21.725c14.112,-10.566 205.033,-140.82 205.446,-140.962c32.796,-10.983 73.537,3.587 105.996,-8.846c6.125,-2.346 6.5,-3.354 9.1,-8.967c-2.134,-8.179 -2.788,-12.129 -10.434,-17.016c-30.104,-19.25 -109.096,-12.746 -143.3,-6.204c-7.575,-39.321 -14.562,-78.955 -23.583,-117.967c-7.2,-31.142 -18.175,-85.683 -46.45,-103.267c-7.958,-1.287 -8.467,-1.454 -16.154,2.346c-19.804,30.704 33.75,190.829 38.316,237.046c1.425,14.396 -0.308,19.604 -9.412,30.65c-66.188,49.029 -151.9,80.787 -196.679,152.979c-137.6,1.917 -228.554,19.688 -333.842,116.55c-67.996,-28.246 -133.383,-53.971 -179.546,-114.479c-2.296,-44.496 -1.333,-88.833 -6.666,-133.154c-7.459,-61.992 -23.821,-123.234 -35.284,-184.621c-9.487,-50.817 -14.187,-102.083 -21.275,-153.217c-3.062,-22.066 -7.462,-58.704 -26.491,-73.129c-2.746,0.575 -5.309,0.25 -7.005,2.625c-34.133,47.846 -5.57,204.138 4.655,261.338c-130.946,64.016 -354.984,86.608 -497.53,59.716c39.705,-41.529 58.63,-103.421 62.017,-159.721c4.504,-74.862 -20.033,-153.191 -69.612,-209.754c158.529,-17.733 285.658,-45.337 434.82,-103.983c12.775,2.492 25.984,4.767 37.78,10.492c36.933,17.933 96.908,67.791 125.087,98.7c27.575,30.245 54.125,68.008 89.883,88.716c12.655,7.329 31.384,17.2 45.955,13.429c1.216,-17.791 -37.688,-46.47 -49.33,-60.845c-7.37,-9.105 -13.308,-19.796 -19.27,-29.867c25.65,6.642 50.754,8.967 77.12,9.258c19.092,44.117 49.634,87.838 94.25,108.159c85.8,-34.784 164.584,-107.321 235.45,-166.405c22.8,-19.008 45.659,-40.741 70.605,-56.829c33.954,-21.896 120.12,-45.537 164.533,-65.1c91.837,-40.446 163.008,-101.1 241.808,-161.196Z" style="fill:#7a7bbe;fill-rule:nonzero;"/><path d="M3320.28,2898.74c3.75,2.617 5.725,6.233 6.934,10.567c11.341,40.683 0.995,95.087 -18.459,131.833c-19.6,37.029 -52,69.883 -87.387,92.029c-35.85,22.438 -78.959,35.854 -118.792,49.579c-99.258,34.209 -197.238,58.729 -296.833,89.246c-12.38,3.792 -35.388,8.983 -41.821,21.192c2.312,7.35 4.133,9.404 11.279,12.912c56.9,27.942 278.371,-46.466 340.037,-68.162c17.892,25.341 29.763,52.9 30.859,84.266c0.846,24.271 -5.108,49.846 -22.934,67.371c-43.399,42.663 -281.812,76.25 -344.341,81.617c-40.275,3.458 -80.358,3.442 -120.746,2.996l-10.117,-0.109c-102.008,-1.529 -259.658,-32.07 -332.629,-108.954c-37.662,-39.687 -58.875,-99.071 -56.746,-153.546c1.605,-41.079 17.355,-102.512 48.863,-131.187c5.262,-4.788 15.104,-11.779 22.446,-12.1c13.071,-0.575 29.591,16.504 43.096,20.971c26.2,8.666 55.35,7.55 82.645,8.841c20.875,16.43 44.892,30.325 71.5,34.217c59.042,8.642 111.763,-37.512 156.225,-70.079c26.005,4.237 52.075,8.583 78.496,8.754c59.434,0.379 97.834,-26.25 138.842,-66.15c90.646,3.346 142.1,-46.525 223.554,-66.525c26.529,-6.512 55.738,-6.637 82.954,-9.825c39.384,-4.604 76.092,-15.933 113.075,-29.754Z" style="fill:#487599;fill-rule:nonzero;"/><path d="M4295.88,1721.81c4.389,-0.2 8.764,-0.32 13.125,-0.359c4.389,-0.041 8.778,-0.018 13.167,0.117c4.361,0.119 8.722,0.318 13.083,0.596c4.389,0.278 8.764,0.634 13.125,1.071c4.361,0.436 8.708,0.951 13.042,1.545c4.333,0.595 8.652,1.267 12.958,2.017c4.333,0.753 8.639,1.582 12.917,2.488c4.277,0.908 8.541,1.894 12.791,2.958c4.25,1.064 8.486,2.203 12.709,3.417c4.194,1.216 8.375,2.509 12.541,3.879c4.167,1.369 8.306,2.812 12.417,4.329c4.111,1.519 8.181,3.112 12.208,4.779c4.056,1.667 8.084,3.407 12.084,5.221c3.972,1.814 7.916,3.699 11.833,5.654c3.944,1.958 7.833,3.986 11.667,6.083c3.833,2.098 7.639,4.264 11.416,6.5c75.125,44.08 138.5,123.725 159.5,208.55c8.959,36.238 17.792,86.175 -2.375,119.588c1.584,-6.204 2.042,-10.642 0.959,-17c-13.084,-75.179 -78.084,-176.175 -140.084,-218.208c-67,-45.421 -145.083,-60.059 -224.458,-44.655c-63.25,12.284 -117,50.55 -152.25,104.309c-108.667,165.529 14.208,342.821 85.667,492.146c28.083,58.654 52.041,120.42 64.666,184.387c24.459,123.875 2.917,251.483 -68.125,356.742c-62.958,93.316 -176.291,173.162 -287.583,194.466c-22.167,14.13 -89.25,20.475 -116.208,23.775c-74.959,9.159 -173.375,15.43 -242.084,-19.8c-31,-15.908 -57.291,-38.395 -84.583,-59.716c-35.496,-27.692 -70.296,-48.184 -114.879,-57.104c6.591,-18.534 11.841,-37.055 16.741,-56.075c115.055,55.916 254.18,80.983 381.555,68.533c121.75,-11.9 236.666,-58.542 315,-155.446c41.333,-51.142 64.541,-111.642 70.791,-176.925c23.25,-243.917 -159.25,-386.908 -181.083,-597.167c-10.333,-99.541 7.292,-198.7 72.375,-277.683c64.458,-78.25 146.833,-113.783 245.375,-123.012Zm-2706.39,-768.921c-4.912,-2.354 -9.646,-4.975 -14.337,-7.746c-92.667,-54.683 -154.342,-163.021 -180.65,-264.625c-35.079,-135.467 -21.509,-290.883 50.621,-412.346c42.562,-71.684 108.033,-132.324 190.637,-152.658c67.558,-16.629 141.558,-2.795 200.563,33.286c111.87,68.401 153.42,184.735 182.687,305.155c-54.787,26.005 -102.275,57.309 -151.337,92.655c-2.467,-25.578 -6.374,-50.932 -11.721,-76.063c-5.345,-25.133 -12.095,-49.883 -20.25,-74.25c-23.546,-69.375 -64.413,-144.356 -133,-177.229c-39.592,-18.975 -87.171,-19.934 -128.154,-4.67c-53.1,19.775 -83.317,64.241 -106.242,113.762c1.037,-0.588 2.087,-1.159 3.112,-1.767c10.775,-6.396 19.721,-19.017 29.238,-27.588c40.471,-36.437 90.258,-61.125 146.162,-48.5c45.992,10.386 80.646,47.575 104.471,86.38c46.617,75.92 53.675,165.908 65.954,251.866c-94.091,91.959 -161.566,191.934 -210.479,314.104l-17.275,50.234Z" style="fill:#fac3b7;fill-rule:nonzero;"/><path d="M1589.48,952.884c-4.912,-2.354 -9.645,-4.975 -14.337,-7.746c-92.667,-54.683 -154.342,-163.021 -180.65,-264.625c-35.079,-135.467 -21.508,-290.883 50.621,-412.346c42.562,-71.684 108.033,-132.324 190.637,-152.658c67.559,-16.629 141.559,-2.795 200.563,33.286c111.871,68.401 153.42,184.735 182.687,305.155c-54.787,26.005 -102.275,57.309 -151.337,92.655c-2.467,-25.578 -6.374,-50.932 -11.721,-76.063c-5.345,-25.133 -12.095,-49.883 -20.25,-74.25c-23.546,-69.375 -64.413,-144.356 -133,-177.229c-39.592,-18.975 -87.171,-19.934 -128.154,-4.67c-53.1,19.775 -83.317,64.241 -106.242,113.762c-56.525,116.845 -57.246,254.987 -15.217,376.495c28.042,81.071 75.9,157.084 153.675,198l-17.275,50.234Z" style="fill:#f2f2f4;fill-rule:nonzero;"/><path d="M2087.28,2810.9c10.408,7.179 19.396,17.354 29.754,24.963c37.696,27.683 81.775,50.066 126.167,64.562c-0.3,8.213 -0.367,16.367 0.525,24.55c4.362,39.959 29.417,64.65 59.171,88.734c-34.138,24.445 -59.917,52.591 -78.096,90.725c-34.833,73.058 -29.992,144.216 -3.692,218.47c-40.408,2.846 -80.779,1.955 -121.225,0.667c-24.916,-3.542 -49.396,-7.712 -73.725,-14.25c-56.875,-15.283 -109.983,-40.325 -140.066,-93.721c-30.43,-54.016 -33.542,-122.696 -16.884,-181.587c32.642,-115.4 120.567,-169.104 218.071,-223.113Z" style="fill:#487599;fill-rule:nonzero;"/><path d="M892.871,2847.87c49.933,14.4 102.3,23.771 152.812,36.521c145.245,37.986 291.052,73.674 437.421,107.062l-0.191,237.917c-69.959,-21.037 -143.205,-35.625 -214.284,-52.704c-125.416,-29.9 -250.607,-60.721 -375.571,-92.463l-0.187,-236.333Z" style="fill:#4168c0;fill-rule:nonzero;"/><path d="M625.471,3053.49c82.604,19.133 164.75,43.567 246.842,65.021c102.375,26.754 205.458,51.046 308.049,77.037c-0.854,83.454 1.838,167.038 -0.658,250.459c-65.567,-22.563 -134.475,-37.73 -201.325,-56.196l-353.283,-99.267c-0.645,-79.019 -0.52,-158.037 0.375,-237.054Z" style="fill:#f6df6a;fill-rule:nonzero;"/><path d="M2559.96,2712.28c65.12,-8.609 148.641,1.091 207.804,30.012c46.804,22.875 87.233,61.892 103.921,112.121c10.908,32.825 10.345,69.592 -5.605,100.717c-0.833,1.628 -1.705,3.234 -2.616,4.821c-0.911,1.586 -1.861,3.148 -2.85,4.687c-0.989,1.539 -2.016,3.053 -3.08,4.542c-1.063,1.489 -2.163,2.95 -3.299,4.383c-1.137,1.433 -2.307,2.838 -3.513,4.213c-1.206,1.375 -2.444,2.719 -3.717,4.033c-1.272,1.314 -2.576,2.596 -3.912,3.846c-1.336,1.25 -2.703,2.465 -4.1,3.646c-1.395,1.183 -2.818,2.33 -4.271,3.441c-1.453,1.111 -2.932,2.186 -4.438,3.225c-1.505,1.036 -3.036,2.036 -4.591,3c-1.556,0.961 -3.135,1.884 -4.738,2.767c-1.6,0.886 -3.222,1.73 -4.866,2.533c-1.642,0.803 -3.303,1.566 -4.984,2.288c-1.68,0.719 -3.377,1.398 -5.091,2.037c-1.714,0.636 -3.443,1.231 -5.188,1.784c-41.996,13.437 -80.496,4.7 -118.454,-15.142c-39.163,22.033 -71.113,57.437 -113.412,74.096c-16.738,6.596 -34.676,8.941 -51.476,0.937c-10.887,-5.187 -21.037,-13.854 -24.958,-25.583c-10.783,-32.263 36.854,-88.983 58.75,-109.063c15.246,-13.979 51.742,-33.654 59.454,-51.9c2.363,-5.591 1.392,-6.912 -0.933,-11.983c-4.104,-2.729 -8.046,-4.967 -12.983,-5.783c-26.021,-4.304 -53.346,17.675 -73.5,31.808c-33.009,29.092 -55.425,62.654 -69.513,104.354c-3.379,10.004 -6.35,25.867 -12.287,34.296c-2.725,3.871 -11.355,6.188 -15.817,6.504c-17.242,1.229 -36.538,-8.333 -48.471,-20.537c-10.85,-11.096 -14.212,-25.442 -13.696,-40.596c1.488,-43.604 42.646,-92.638 74.292,-119.275c16.829,-14.167 36.358,-25.225 52.454,-40.254c6.921,-6.463 11.821,-12.638 12.042,-22.321c-1.734,-2.5 -2.909,-5.458 -5.763,-6.679c-11.116,-4.767 -25.633,-3.75 -36.65,1.021c-68.479,29.658 -110.829,92.904 -138.666,158.733l-5.725,0.212c-9.096,-6.912 -11.58,-11.12 -13.192,-22.829c-5.388,-39.066 7.092,-75.746 30.671,-106.471c53.983,-70.35 142.15,-100.445 226.966,-111.641Zm-1514.17,-656.279c66.425,-4.896 135.083,10.62 196.546,34.77c57.175,22.467 112.2,52.392 137.441,111.863c15.417,36.325 17.396,82.65 1.817,119.267c-18.858,44.337 -57.688,65.345 -100.075,82.408c-1.479,-2.621 -3.013,-5.175 -4.538,-7.767c-12.154,-20.587 -22.858,-27.412 -44.575,-36.758c4.85,-5.233 9.413,-10.917 13.28,-16.929c5.241,-8.15 10.008,-19.988 7.791,-29.609l-4.829,-2.366c-31.587,3.612 -69.796,44.404 -102.033,58.129c-25.717,10.946 -57.3,15.792 -83.642,3.971c-12.429,-5.575 -23.862,-14.371 -28.637,-27.592c-4.35,-12.05 -1.255,-24.596 4.654,-35.521c19.216,-35.516 66.033,-63.191 104.029,-73.125c16.5,-4.312 35.542,-5.971 51.279,-11.825c9.158,-3.408 9.754,-8.854 12.692,-17.141c-6.079,-5.417 -11.85,-10.196 -19.454,-13.367c-29.425,-12.267 -63.359,-6.404 -91.9,5.3c-57.167,23.45 -91.046,64.917 -114.225,120.267c-0.659,0.433 -1.309,0.883 -1.98,1.3c-20.408,12.795 -48.458,27.608 -73.412,21.295c-12.121,-3.066 -21.825,-11.129 -27.308,-22.329c-19.475,-39.796 16.395,-88.262 45.658,-112.687c17.354,-14.484 50.775,-25.138 57.371,-49.271c1.812,-6.642 1.029,-7.471 -2.459,-13.3c-4.083,-1.575 -7.329,-2.6 -11.77,-2.488c-49.421,1.288 -98.25,48.875 -122.18,88.375c-7.983,13.18 -11.929,29.975 -21.983,41.43c-7.754,0.82 -11.487,-0.696 -18.404,-4.121c-6.792,-7.213 -9.496,-13.659 -10.396,-23.584c-3.087,-33.929 14.625,-69.32 36.046,-94.366c55.05,-64.363 133.617,-88.313 215.196,-94.229Z" style="fill:#f2f2f4;fill-rule:nonzero;"/><path d="M621.85,2515.44c80.554,12.892 160.188,33.842 239.842,51.408c60.437,13.33 125.425,23.059 184.033,42.655c0.4,77.752 0.346,155.505 -0.162,233.258c-141.009,-33.242 -284.063,-60.325 -423.792,-98.483c0.889,-76.278 0.915,-152.557 0.079,-228.838Z" style="fill:#ca504d;fill-rule:nonzero;"/><path d="M1220.48,3203.09c87.656,21.972 175.003,45.108 262.042,69.408l0.088,260.179c-87.289,-24.883 -174.705,-49.315 -262.246,-73.295l0.116,-256.292Zm545.525,-13.35l5.721,-0.713c9.171,13.35 4.575,204.205 4.592,237.196c-82.771,35.863 -166.754,69.667 -248.546,107.679l-4.783,-1.633c-8.859,-22.629 -3.238,-216.983 -3.192,-255.712c28.75,-7.509 57.442,-19.909 85.446,-30.034c53.344,-19.614 106.932,-38.541 160.762,-56.783Z" style="fill:#52b175;fill-rule:nonzero;"/><path d="M1770.48,2908.08l4.213,1.996c4.233,22.95 1.279,50.87 1.279,74.329l-0.134,161.3l-250.583,87.346l-0.771,0.479c-10.187,-14.188 -4.912,-208.746 -4.908,-241.854c84.271,-25.505 167.641,-54.967 250.904,-83.596Z" style="fill:#4168c0;fill-rule:nonzero;"/><path d="M3352.57,3099.1c11.175,-0.32 22.171,-0.679 33.021,2.484c1.447,0.425 2.881,0.891 4.304,1.4c51.358,18.191 94.775,73.229 144.275,101.45c37,21.087 120.833,44.175 143.541,63.662c2.459,2.121 4.417,4.429 5.75,7.404c2.25,5.009 0.625,6.084 -1,10.98c-34.916,31.854 -106.833,25.733 -150.25,17.325c-26.958,-5.23 -55.746,-15.196 -83.216,-13.975l-5.642,8.583l0.575,0.921l2.637,-9.025l-4.104,6.146c7.267,17.008 38.659,31.65 54.417,38.7c45.5,17.204 86.25,19.704 134.25,20.375c-1.333,1.062 -2.25,1.891 -3.667,2.754c-67.791,41.504 -235.496,12.296 -308.937,-4.067c12.087,-71.896 -1.175,-124.121 -41.459,-183.858c24.421,-22.434 47.63,-53.779 75.505,-71.259Z" style="fill:#f2f2f4;fill-rule:nonzero;"/><path d="M623.679,2787.97c24.684,2.454 50.534,10.388 74.754,15.996l150.721,35.846c0.636,77.466 0.75,154.933 0.342,232.4c-27.725,-0.763 -184.371,-48.75 -225.392,-59.788c0.634,-74.804 -0.158,-149.65 -0.425,-224.454Z" style="fill:#52b175;fill-rule:nonzero;"/><path d="M1332.89,2539.49l1.883,0.392c1.225,1.254 3.108,2.104 3.671,3.766c3.904,11.492 0.167,170.767 0.141,197.905c-34.637,-11.5 -71.629,-13.305 -107.6,-7.513c-21.741,3.5 -42.916,10.438 -55.675,29.833c-9.775,14.863 -5.062,33.638 -2,49.863c-23.897,7.292 -47.75,14.722 -71.558,22.292c-3.712,1.479 -7.667,2.145 -11.567,3.016c-8.662,-11.108 -4.004,-201.083 -3.962,-230.629c81.45,-26.275 165.067,-43.629 246.667,-68.925Z" style="fill:#ca504d;fill-rule:nonzero;"/><path d="M1397.4,2065.02c31.183,-3.429 55.946,-0.383 80.729,19.709c41.867,33.933 63.858,99.35 68.479,151.287c4.579,51.533 -7.212,118.233 -41.616,158.717c-19.709,23.187 -39.242,29.996 -68.788,32.041c-21.6,0.88 -43.212,-0.125 -64.804,-0.812c9.575,-15.504 24.671,-28.721 36.667,-42.5c29.975,-34.421 43.329,-96.058 39.987,-140.825c-5.438,-72.754 -49.221,-118.883 -101.283,-164.421c16.858,-5.729 33.083,-10.142 50.629,-13.196Z" style="fill:#7a7bbe;fill-rule:nonzero;"/><path d="M3218.05,3201.56c4.592,-0.047 8.417,0.982 12.85,2.007c15.717,13.104 25.137,30.213 30.525,49.825c8.754,31.888 10.008,70.363 -7.304,99.721c-12.783,21.679 -28.379,27.017 -51.379,33.096c-3.646,0.346 -6.275,0.491 -9.905,-0.346c-5.866,-1.35 3.863,-54.338 4.526,-63.888c2.575,-37.12 -15.371,-70.437 -35.063,-100.425c18.775,-6.13 37.358,-12.793 55.75,-19.99Z" style="fill:#46759a;fill-rule:nonzero;"/><path d="M3356.09,2672.62c4.745,4.625 7.083,10.9 9.304,17.063c11.22,31.104 22.891,78.737 6.754,109.692c-24.317,46.633 -104.483,61.245 -151.333,75.57c-6.25,1.238 -12.392,2.121 -18.726,2.813c2.667,-8.538 33.721,-26.075 42.196,-33.383c18.667,-16.096 37.213,-34.513 52.788,-53.6c28.183,-34.534 44.425,-76.555 59.017,-118.155Zm-1237.86,59.48c53.746,26.45 104.092,49.708 160.729,69.566l-16.829,34.404c-2.325,5 -3.533,7.038 -8.308,9.884c-32.058,-4.6 -80.004,-36.971 -104.804,-58.417c-19.204,-16.608 -28.784,-29.525 -30.788,-55.437Z" style="fill:#7a7bbe;fill-rule:nonzero;"/><path d="M951.783,2494.45c22.134,1.341 120.396,-0.005 132.846,2.795c6.913,1.559 7.225,5.005 9.963,10.65c0.258,9.905 -2.892,15.688 -7.725,24.146c-7.696,5.392 -16.113,9.596 -25.35,11.538c-27.959,5.879 -62.871,6.029 -87.475,-10.542c-15.546,-10.471 -19.109,-21.229 -22.259,-38.587Zm-103.12,-35.109c2.704,0.054 3.616,1.45 5.733,3.025c0.246,5.025 0.712,10.688 -0.775,15.55c-2.404,7.875 -9.563,13.996 -16.713,17.496c-30.825,15.092 -77.275,8.083 -108.316,-2.712c-2.971,-2.505 -6.404,-5.159 -8.796,-8.23c-4.188,-5.375 -4.525,-8.695 -3.217,-15.079c9.096,-8.412 110.1,-7.204 132.084,-10.05Z" style="fill:#ca504d;fill-rule:nonzero;"/><path d="M1206.82,2812.63c22.496,4.395 43.291,7.979 66.379,7.691c10.454,-0.129 50.092,-4.187 57.292,-1.425c1.7,0.654 2.858,2.263 4.287,3.392c0.708,9.979 -4,17.675 -8.162,26.442c-10.588,4.916 -20.184,8.07 -31.821,9.55c-24.554,3.116 -55.496,3.658 -75.659,-13.255c-11.225,-9.412 -11.616,-18.829 -12.316,-32.395Z" style="fill:#4168c0;fill-rule:nonzero;"/><path d="M1113.16,2453.72c21.579,-0.721 43.466,1.946 65.074,2.233c19.459,0.259 38.967,-1.608 58.4,-0.579l2.825,5.5c-0.608,10.259 -4.108,16.559 -9.016,25.321c-12.454,5.854 -26.15,8.117 -39.784,9.1c-21.12,1.529 -51.062,1.933 -67.737,-13.787c-8.362,-7.884 -9.158,-16.871 -9.762,-27.788Z" style="fill:#ca504d;fill-rule:nonzero;"/><path d="M1396.76,2878.05c25.52,1.93 51.387,4.325 76.995,4.209c16.592,-0.071 32.763,-2.779 49.425,-1.792l3.371,3.9c0.354,8.942 -3.612,15.9 -7.233,23.838c-6.104,3.7 -12.408,7.554 -19.254,9.704c-25.292,7.937 -58.429,6.287 -81.496,-7.354c-14.613,-8.638 -17.988,-16.684 -21.808,-32.505Zm308.308,-12.066c10.212,7.2 21.008,13.558 31.642,20.112c-66.288,24.642 -140.513,48.588 -209.642,63.363c-6.05,-0.017 -11.671,-0.7 -17.646,-1.634c27.033,-12.745 41.492,-20.162 56.75,-46.937c29.288,3.975 63.117,6.775 92.038,-0.571c22.125,-5.621 35.025,-14.792 46.858,-34.333Zm-342.838,-0.817c2.267,25.763 10.142,39.996 24.588,61.183c-67.071,-10.375 -134.608,-27.1 -200.471,-43.537l-3.479,-13.717c39.412,23.017 100.496,25.129 143.846,13.167c12.546,-3.463 24.396,-10.488 35.516,-17.096Zm194.867,-31.654c31.933,4.833 63.038,-0.863 94.625,2.533c8.808,0.946 12.138,1.942 17.683,8.759c0.205,9.454 -2.045,13.283 -7.337,20.979c-18.633,6.929 -39.183,9.737 -59.042,10.275c-13.358,0.362 -29.908,-3.179 -39.621,-12.896c-7.52,-7.521 -6.216,-19.763 -6.308,-29.65Z" style="fill:#4168c0;fill-rule:nonzero;"/><path d="M932.758,2405.41c35.4,-2.717 88.105,-5.571 118.363,15.192l-1.104,3.304c-13.325,5.879 -28.029,4.125 -42.25,3.733c-30.404,2.342 -70.304,11.871 -99.75,3.908c-7.925,-2.145 -10.109,-3.079 -14.13,-10.054l2.671,-4.366c12.059,-6.217 22.954,-9.067 36.2,-11.717Zm335.738,102.729c5.412,-0.1 11.187,2.35 16.391,3.867l1.005,3.341c-21.521,14.9 -156.455,42.905 -189.242,51.434c-4.504,1.554 -7.263,1.658 -11.967,1.946c11.942,-8.359 26.492,-13.68 39.825,-19.534c5.65,-9.208 10.254,-19.183 15.146,-28.816c47.775,5.954 83.05,0.741 128.842,-12.238Zm-369,-32.175c2.783,0.596 9.7,1.171 11.833,2.538c5.421,3.466 5.558,49.2 21.863,70.775c-21.688,-6.134 -43.788,-10.742 -65.78,-15.642c-18.633,-3.846 -38.25,-4.692 -57.191,-6.463c16.175,-2.987 33.666,-5.25 49.154,-10.804c21.462,-7.691 30.904,-20.779 40.121,-40.404Z" style="fill:#ca504d;fill-rule:nonzero;"/><path d="M1262.49,2765.45c13.15,-1.771 29.583,-1.937 42.45,1.45c10.183,2.679 19.071,6.759 24.387,15.917l-3.696,5.662c-10.566,5.725 -22.829,5.367 -34.55,6c-23.362,-0.766 -56.745,1.213 -77.575,-9.783l-1,-4.55c13.613,-12.442 32.521,-12.758 49.984,-14.696Z" style="fill:#4168c0;fill-rule:nonzero;"/><path d="M771.254,2414.91c19.65,-1.442 55.479,-2.767 71.209,10.245l-2.48,6.875c-10.583,8.542 -26.941,7.625 -39.933,8.421c-18.754,-0.162 -60.837,2.509 -75.304,-8.837c0.475,-0.688 0.858,-1.45 1.425,-2.067c8.658,-9.379 32.929,-12.458 45.083,-14.637Z" style="fill:#ca504d;fill-rule:nonzero;"/><path d="M1599.82,2784.26c4.333,-0.321 8.471,-0.425 12.817,-0.142c14.87,0.967 32.979,3.567 43.379,15.317l-1.471,4.933c-11.546,5.817 -24.517,4.425 -37.1,4.279c-14.379,0.208 -30.688,1.679 -44.838,-0.558c-8.058,-1.275 -17.546,-3.596 -22.212,-10.275c9.421,-11.646 35.6,-11.996 49.425,-13.554Z" style="fill:#4168c0;fill-rule:nonzero;"/><path d="M1165.8,2408.37c22.946,-0.85 43.867,-1.671 65.042,8.95l1.258,5.017c-9.441,5.575 -18.429,6.425 -29.062,7.9c-22.063,0.071 -52.596,2.891 -72.471,-6.429l2.741,-4.867l0.705,6.567l2.4,-8.196c9.325,-3.896 19.654,-6.163 29.387,-8.942Z" style="fill:#ca504d;fill-rule:nonzero;"/><path d="M1405.92,2752.14c25.8,-2.308 59.521,-1.104 82.55,11.475l0.454,5.363l-12.096,1.529c-23.987,0.296 -48.992,1.704 -72.862,-0.409c-7.705,-0.683 -15.305,-0.683 -20.317,-6.833c6.912,-7.3 13.025,-8.167 22.271,-11.125Zm53.275,44.842l8.2,-0.488l2.233,2.888c-14.329,11.512 -64.287,20.729 -84.804,27.146c-2.55,0.05 -5.95,-1.046 -8.475,-1.58c-3.883,-6.745 -4.6,-12.345 -5.483,-20.012c14.45,-12.329 68.091,-7.763 88.329,-7.954Z" style="fill:#4168c0;fill-rule:nonzero;"/><path d="M982.308,2455.95c24.859,-2.57 54.592,-4.4 79.288,-0.887c7.296,1.037 10.983,1.975 15.387,7.846l-5.325,7.562c-26.212,1.659 -72.854,6.484 -96.445,-4.2l-0.655,-4.941l7.75,-5.38Z" style="fill:#ca504d;fill-rule:nonzero;"/><path d="M1487.67,2834.4c6.662,-0.062 16.666,0.067 22.683,3.125c5.537,2.817 5.837,4.392 7.412,9.875c-12.987,11.534 -49.983,7.567 -67.183,7.546c-8.475,-0.187 -22.737,-1.066 -29.342,-6.546c17.617,-11.57 45.796,-12.7 66.43,-14Zm-361.721,30.825c12.104,-5.925 25.516,-14.158 39.05,-15.179c10.229,4.079 12.2,10.159 17.875,19.05l3.479,13.717c-20.367,-3.604 -41.475,-9.271 -60.404,-17.588Z" style="fill:#4168c0;fill-rule:nonzero;"/><path d="M4330.88,3250.31c30.667,-0.934 63.292,0.05 91.792,12.787c17.708,7.908 29.708,19.696 36.666,38.021c38.875,-8.117 78.625,-13.208 118,-5.192c17.209,3.509 38.209,9.542 47.75,25.629c6.125,10.292 5.459,24.109 2.792,35.35c38.708,10.134 92.75,13.713 127,33.188c9.333,5.308 11.208,9.529 14.083,19.733c9.542,34.125 12.875,216.767 -5.916,242.521c-9.25,12.7 -319.25,115.125 -358.292,124.788c-9,6.741 -26.583,11.97 -37.667,14.812c-13.125,3.367 -29.583,5.271 -42.875,1.979c-35.958,-8.912 -314.416,-116.058 -337.5,-131.829c-7.875,-5.379 -10.166,-19.721 -11.208,-28.546c-3.292,-28.691 0.833,-58.825 0.583,-87.708c-0.333,-35.588 -7.333,-77.408 -1.75,-112.017c2.084,-12.758 7.459,-23.966 17.5,-32.316c19.667,-16.346 62.292,-17.588 68.209,-22.463c10.166,-8.308 -3.459,-31.762 8.666,-44.754c29.875,-31.921 116.667,-32.725 157.709,-36.025c7.875,-4.775 13.416,-14.679 20.791,-20.733c24.709,-20.309 53.292,-23.196 83.667,-27.225Z" style="fill:#313945;fill-rule:nonzero;"/><path d="M4706.08,3444.09c5.084,-0.5 10,-0.387 15.084,-0.333c4.541,20.796 6.125,157.333 -3.042,173.191c-11.25,8.792 -320.458,112.184 -354.417,120.988c-3.708,1.512 -4.041,0.954 -7.791,0.262c-13.542,-48.6 11,-135.441 -5.792,-181.966c61.458,-9.467 143.333,-44.029 204.167,-63.296c37.541,-11.896 121.291,-30.742 151.791,-48.846Zm-685.25,18.733c20.209,-2.35 269.417,76.755 294.084,88.263c1.958,3.308 3.333,6.529 4.125,10.325c4.375,21.175 4.166,164.654 -5.209,177.408c-26.875,-4.854 -58.083,-21.729 -83.708,-32.166c-69,-28.084 -138.958,-59.93 -210.042,-82.063c8.459,-16.896 6.542,-142.675 0.75,-161.767Zm92.75,-65.625c10.459,-0.729 134.292,0.45 134.334,0.471c2.125,0.738 3.666,2.571 5.458,3.854c-1.167,9.838 -5.458,13.688 -11.25,21.271l-1.417,4.071c-7.375,5.479 -15.291,7.55 -24.166,9.021c-27.959,4.612 -68.959,4.929 -92.792,-13.004c-8.458,-6.363 -8.792,-15.934 -10.167,-25.684Zm177.75,53.142c27.042,-1.037 88.459,-2.283 114.625,2.808c6.375,4.65 6.5,4.259 8.125,11.917c-3.5,7.771 -6.625,11.588 -13.541,16.55c-0.375,0.654 -0.625,1.396 -1.125,1.967c-5.209,6.083 -14.375,7.987 -21.917,9.308c-24.083,4.2 -54.458,2.854 -74.708,-12.571c-10.792,-8.237 -10.042,-17.746 -11.459,-29.979Zm273.667,-68.754c3.333,-0.483 6.917,-1.167 10.25,-1.046c6.792,0.242 8.625,2.846 12.875,7.725l-0.625,8.117c-2.708,4.366 -5.542,8.1 -9.917,10.937c-32.083,20.684 -76.5,12.279 -111.5,5.521l-15.958,-9.25c-4.083,-6.758 -5.167,-6.667 -3.292,-14.721c21.334,-13.104 85.209,-1.108 114.334,-6.546l3.833,-0.737Zm-175.083,-46.888l14.166,-0.537c6.292,3.817 6.292,4.096 8.959,10.971c-1.667,8.379 -4.667,13.004 -12.084,17.625c-30.25,18.929 -73.083,13.466 -105.625,4.808c-4.75,-3.283 -10.291,-6.617 -13.375,-11.612c-3.541,-5.742 -3.166,-7.234 -1.916,-13.738c14.416,-10.529 87.291,-4.367 109.875,-7.517Zm53.125,109.388c27.458,-6.008 76.375,6.975 106.625,9.592c-12.5,7.862 -24.542,11.158 -38.709,14.558c-11.458,8.487 -35.125,15.15 -49.083,18.067c-6.917,1.441 -16.5,3.441 -22.333,-0.625c5.041,-13.517 8.916,-25.288 4.166,-39.705c-0.208,-0.633 -0.416,-1.258 -0.666,-1.887Zm-281.584,-93.763l5.375,-0.312c20.875,-1.133 56.334,-3.704 73.125,11.396l-3.166,5.441c-13.042,6.555 -28.5,6.721 -42.792,7.025c-20.042,0.155 -46.25,2.063 -64.792,-6.4l-0.375,-5.004c10.042,-7.846 20.417,-9.591 32.625,-12.146Zm162.334,-56.262c21.125,-1.925 56.833,-2.083 75.25,8.692l-1.375,4.637c-10.209,5.629 -21.959,5.046 -33.375,5.658c-19.667,0.95 -46.417,1.78 -65.084,-4.633l-1.75,-4.037c8.5,-6.059 16.417,-7.988 26.334,-10.317Zm162.041,46.887c25.5,-2.029 68.584,-10.129 90.334,4.513l0.291,4.042c-5.916,4.345 -12.166,4.512 -19.208,5.362c-22.083,1.742 -62.875,4.892 -82.125,-5.679l1.458,-4.571l9.25,-3.667Zm-162.125,65.642c23.5,-0.296 46.209,0.6 68.709,7.6l0.416,5.463l3.417,-1.98c-10.375,5.017 -19.125,5.9 -30.375,6.696c-13.083,0.384 -26.167,0.584 -39.208,-1.221c-8,-1.112 -16.334,-2.166 -21.25,-8.775c6.041,-5.62 10.416,-5.82 18.291,-7.783Zm301.209,-0.012c17.083,-2 28.833,5.154 43.083,13.275c-15.375,11.112 -38.708,15.679 -56.958,19.67c-7,4.33 -15.667,5.517 -23.667,5.063c9.667,-5.208 23.333,-10.992 31.167,-18.633c5.708,-5.538 6.583,-11.825 6.375,-19.375Zm-417.125,59.4c14,-1.959 24.541,-4.475 37.291,3.587c7.875,4.963 12.209,9.633 14.042,18.754l-3.083,3.834l-10.667,-1.155c-11.167,-5.566 -24.292,-7.745 -35.958,-12.429c-5.917,-2.375 -9.334,-2.575 -11.875,-8.646l10.25,-3.945Z" style="fill:#4168c0;fill-rule:nonzero;"/><path d="M2104.46,3465.76c33.062,-2.163 77.679,0.3 106.595,17.271c16.671,9.791 25.229,22.775 29.634,41.2l0.729,3.141c23.35,4.792 54.867,-9.041 78.704,-12.325c33.85,-4.666 86.113,-6.208 114.633,16.217c14.996,11.796 17.788,22.967 20.05,40.867c23.346,5.904 110.45,19.491 121.792,35.521c14.267,20.166 12.646,225.125 4.817,254.816c-3.138,11.888 -15.429,17.829 -25.521,23.621c-40.804,23.396 -174.379,93.713 -213.025,102.879c-8.617,2.042 -15.404,1.246 -23.871,-1.025c-111.35,-32.412 -223.775,-61.6 -335.608,-92.362c-49.075,-13.5 -106.634,-23.167 -151.909,-45.521c-7.004,-3.458 -15.591,-7.792 -18.108,-15.721c-7.004,-22.083 -8.246,-227.825 0.638,-243.258c20.62,-35.846 143.925,-57.613 187.175,-68.663c0.041,-0.158 0.087,-0.312 0.116,-0.471c1.771,-9.754 2.884,-19.22 9.813,-26.904c22.166,-24.575 62.533,-26.508 93.346,-29.283Z" style="fill:#313945;fill-rule:nonzero;"/><path d="M1858.45,3632.61c151.513,41.383 305.929,72.221 458.1,111.071l-0.454,189.787c-152.239,-43.111 -304.914,-84.618 -458.025,-124.521l0.379,-176.337Zm673.179,31.75l4.663,4.312c7.166,52.296 1.412,116.163 1.279,169.717c-59.159,30.445 -118.522,60.481 -178.092,90.108l-1.737,-0.133c-8.271,-10.379 -3.496,-159.642 -3.509,-185.312c56.034,-29.888 119.313,-52.342 177.396,-78.692Zm-527.954,-93.163c12.875,9.425 5.854,34.138 26.592,47.138c39.025,24.471 98.754,27.458 142.671,17.567c26.333,-5.93 46.27,-15.838 60.916,-38.938c1.717,12.954 2.334,29.017 7.104,41.163c5.546,14.12 23.317,24.416 36.859,29.812c39.496,15.738 95.65,16.883 134.966,-0.058c25.338,-10.917 34.517,-23.334 44.342,-48.717c20.721,4.863 41.171,9.888 61.513,16.2c-20.825,9.938 -42.45,18.463 -63.7,27.463c-40.12,15.513 -79.752,32.186 -118.896,50.016c-150.096,-34.796 -302.142,-66.675 -450.479,-108.225c39.494,-10.703 78.865,-21.843 118.112,-33.421Z" style="fill:#f6df6a;fill-rule:nonzero;"/><path d="M2178.36,3562.86c7.25,-0.729 6.821,-1.05 12.492,3.466c0.95,4 1.875,8.159 1.071,12.263c-1.796,9.204 -8.759,15.85 -16.421,20.587c-29.867,18.463 -67.992,11.913 -100.138,4.1c-3.754,-1.995 -7.516,-4.004 -11.15,-6.212c-9.02,-5.479 -13.033,-10.667 -15.475,-20.683l4.275,-6.234c29.413,-12.625 89.78,-3.95 125.346,-7.287Zm98.342,39.225c17.517,2.829 34.829,4.966 52.596,5.2c19.012,0.254 65.4,-7.125 80.658,-2.067c5.033,1.671 5.133,4.967 6.967,9.45c-0.896,9.575 -3.854,14.717 -9.396,22.458c-20.008,10.667 -44.154,13.117 -66.508,13.164c-19.571,0.036 -42.605,-2.493 -56.721,-17.609c-8.988,-9.621 -8.296,-18.4 -7.596,-30.596Zm-161.196,-89.588c1.72,-0.13 3.442,-0.221 5.167,-0.271c16.946,-0.466 56.787,0.809 68.587,11.955c-1.108,1.65 -1.541,2.55 -2.929,3.829c-11.312,10.433 -32.308,9.187 -46.517,9.441c-20.795,-0.066 -47.175,1.905 -66.966,-4.204c-5.013,-1.55 -4.7,-1.658 -6.992,-6.266c12.817,-14.142 31.908,-12.971 49.65,-14.484Zm228.017,43.846c11.346,-1.325 29.025,-2.079 39.891,1.521c8.009,2.654 11.517,4.592 15.034,12.021l-4.8,5.321c-13.559,6.345 -28.309,4.675 -42.896,4.304c-26.308,0.625 -51.05,-2.104 -76.738,-7.813c23.005,-9.35 44.825,-13.079 69.509,-15.354Z" style="fill:#f6df6a;fill-rule:nonzero;"/><path d="M296.729,3517.33c33.062,-2.162 77.679,0.3 106.596,17.271c16.67,9.792 25.229,22.775 29.633,41.2l0.729,3.142c23.35,4.791 54.867,-9.042 78.704,-12.325c33.85,-4.667 86.113,-6.209 114.634,16.216c14.995,11.796 17.787,22.967 20.05,40.867c23.345,5.904 110.45,19.492 121.791,35.521c14.267,20.167 12.646,225.125 4.817,254.817c-3.138,11.887 -15.429,17.829 -25.521,23.62c-40.804,23.396 -174.379,93.713 -213.025,102.88c-8.617,2.041 -15.404,1.245 -23.871,-1.025c-111.35,-32.413 -223.775,-61.6 -335.608,-92.363c-49.075,-13.5 -106.633,-23.167 -151.908,-45.521c-7.005,-3.458 -15.592,-7.791 -18.109,-15.721c-7.004,-22.083 -8.246,-227.825 0.638,-243.258c20.621,-35.846 143.925,-57.612 187.175,-68.662c0.041,-0.159 0.087,-0.313 0.116,-0.471c1.771,-9.754 2.884,-19.221 9.813,-26.904c22.167,-24.575 62.533,-26.509 93.346,-29.284Z" style="fill:#313945;fill-rule:nonzero;"/><path d="M50.716,3684.18c151.513,41.384 305.929,72.221 458.1,111.071l-0.454,189.788c-152.239,-43.111 -304.914,-84.618 -458.025,-124.521l0.379,-176.338Zm673.179,31.75l4.663,4.313c7.167,52.296 1.412,116.162 1.279,169.716c-59.158,30.445 -118.522,60.481 -178.092,90.109l-1.737,-0.134c-8.271,-10.379 -3.496,-159.641 -3.508,-185.312c56.033,-29.888 119.312,-52.342 177.395,-78.692Zm-527.954,-93.162c12.875,9.425 5.854,34.137 26.592,47.137c39.025,24.471 98.754,27.459 142.671,17.567c26.333,-5.929 46.271,-15.838 60.916,-38.938c1.717,12.955 2.334,29.017 7.105,41.163c5.545,14.121 23.316,24.417 36.858,29.812c39.496,15.738 95.65,16.884 134.967,-0.058c25.337,-10.917 34.516,-23.333 44.341,-48.717c20.721,4.863 41.171,9.888 61.513,16.2c-20.825,9.938 -42.45,18.463 -63.7,27.463c-40.12,15.514 -79.752,32.186 -118.896,50.017c-150.096,-34.796 -302.142,-66.675 -450.479,-108.225c39.494,-10.703 78.865,-21.843 118.112,-33.421Z" style="fill:#52b175;fill-rule:nonzero;"/><path d="M370.625,3614.43c7.25,-0.729 6.82,-1.05 12.491,3.467c0.95,4 1.875,8.158 1.071,12.262c-1.796,9.204 -8.758,15.85 -16.421,20.588c-29.866,18.462 -67.991,11.912 -100.137,4.1c-3.754,-1.996 -7.517,-4.004 -11.15,-6.213c-9.021,-5.479 -13.034,-10.666 -15.475,-20.683l4.275,-6.233c29.412,-12.625 89.779,-3.95 125.346,-7.288Zm98.341,39.225c17.517,2.829 34.829,4.967 52.596,5.2c19.013,0.254 65.4,-7.125 80.658,-2.067c5.034,1.671 5.134,4.967 6.967,9.45c-0.896,9.575 -3.854,14.717 -9.396,22.459c-20.008,10.666 -44.154,13.116 -66.508,13.163c-19.571,0.037 -42.604,-2.492 -56.721,-17.609c-8.987,-9.621 -8.296,-18.4 -7.596,-30.596Zm-161.196,-89.587c1.72,-0.131 3.442,-0.221 5.167,-0.271c16.946,-0.467 56.788,0.808 68.588,11.954c-1.109,1.65 -1.542,2.55 -2.93,3.829c-11.312,10.433 -32.308,9.188 -46.516,9.442c-20.796,-0.067 -47.175,1.904 -66.967,-4.204c-5.012,-1.55 -4.7,-1.659 -6.992,-6.267c12.817,-14.142 31.909,-12.971 49.65,-14.483Zm228.017,43.845c11.346,-1.325 29.025,-2.079 39.892,1.521c8.008,2.654 11.516,4.592 15.033,12.021l-4.8,5.321c-13.558,6.346 -28.308,4.675 -42.896,4.304c-26.308,0.625 -51.05,-2.104 -76.737,-7.812c23.004,-9.35 44.825,-13.08 69.508,-15.355Z" style="fill:#52b175;fill-rule:nonzero;"/><path d="M3452.44,3732.78c-32.691,-2.138 -76.805,0.297 -105.397,17.077c-16.483,9.681 -24.945,22.519 -29.3,40.736l-0.721,3.107c-23.087,4.737 -54.249,-8.94 -77.818,-12.187c-33.469,-4.614 -85.144,-6.138 -113.344,16.035c-14.827,11.663 -17.587,22.708 -19.824,40.406c-23.083,5.838 -109.208,19.273 -120.422,35.122c-14.106,19.939 -12.503,222.592 -4.762,251.95c3.102,11.753 15.255,17.628 25.234,23.355c40.345,23.132 172.417,92.658 210.628,101.721c8.52,2.019 15.231,1.232 23.602,-1.013c110.097,-32.048 221.258,-60.907 331.833,-91.323c48.523,-13.349 105.433,-22.907 150.199,-45.009c6.925,-3.42 15.416,-7.704 17.905,-15.544c6.925,-21.835 8.153,-225.262 -0.631,-240.522c-20.389,-35.442 -142.306,-56.964 -185.069,-67.89c-0.041,-0.156 -0.086,-0.309 -0.115,-0.465c-1.751,-9.645 -2.851,-19.005 -9.702,-26.602c-21.918,-24.298 -61.83,-26.21 -92.296,-28.954Z" style="fill:#313945;fill-rule:nonzero;"/><path d="M3695.69,3897.75c-149.808,40.918 -302.488,71.409 -452.946,109.821l0.449,187.653c150.526,-42.626 301.483,-83.666 452.872,-123.12l-0.375,-174.354Z" style="fill:#ca504d;fill-rule:nonzero;"/><path d="M3030.08,3929.14l-4.61,4.264c-7.086,51.707 -1.396,114.856 -1.265,167.807c58.493,30.102 117.189,59.8 176.088,89.095l1.718,-0.132c8.178,-10.262 3.457,-157.846 3.469,-183.228c-55.403,-29.551 -117.97,-51.752 -175.4,-77.806Z" style="fill:#ca504d;fill-rule:nonzero;"/><path d="M3552.1,3837.03c-12.731,9.319 -5.789,33.753 -26.293,46.607c-38.586,24.195 -97.643,27.149 -141.066,17.369c-26.037,-5.863 -45.75,-15.659 -60.231,-38.5c-1.697,12.809 -2.307,28.691 -7.024,40.7c-5.484,13.962 -23.055,24.142 -36.444,29.477c-39.051,15.56 -94.574,16.693 -133.448,-0.058c-25.053,-10.794 -34.128,-23.071 -43.843,-48.168c-20.488,4.807 -40.708,9.776 -60.82,16.017c20.59,9.826 41.972,18.255 62.983,27.154c39.668,15.339 78.854,31.824 117.558,49.454c148.407,-34.404 298.743,-65.925 445.411,-107.008c-39.05,-10.582 -77.978,-21.597 -116.783,-33.044Z" style="fill:#ca504d;fill-rule:nonzero;"/><path d="M3379.38,3828.78c-7.169,-0.721 -6.745,-1.038 -12.352,3.427c-0.939,3.955 -1.854,8.067 -1.058,12.125c1.775,9.101 8.659,15.672 16.236,20.356c29.53,18.255 67.226,11.778 99.011,4.054c3.712,-1.974 7.432,-3.959 11.024,-6.143c8.919,-5.417 12.887,-10.546 15.301,-20.45l-4.227,-6.164c-29.081,-12.483 -88.769,-3.905 -123.935,-7.205Z" style="fill:#ca504d;fill-rule:nonzero;"/><path d="M3282.14,3867.57c-17.319,2.797 -34.437,4.91 -52.004,5.141c-18.798,0.251 -64.664,-7.045 -79.751,-2.043c-4.976,1.652 -5.075,4.91 -6.888,9.343c0.886,9.468 3.811,14.551 9.29,22.206c19.783,10.547 43.657,12.969 65.76,13.015c19.351,0.036 42.125,-2.464 56.083,-17.411c8.886,-9.512 8.202,-18.193 7.51,-30.251Z" style="fill:#ca504d;fill-rule:nonzero;"/><path d="M3441.53,3778.99c-1.701,-0.129 -3.403,-0.218 -5.109,-0.268c-16.755,-0.461 -56.149,0.799 -67.816,11.82c1.096,1.631 1.524,2.521 2.896,3.786c11.186,10.316 31.945,9.084 45.994,9.335c20.562,-0.066 46.644,1.883 66.213,-4.157c4.956,-1.532 4.647,-1.639 6.913,-6.196c-12.673,-13.982 -31.549,-12.825 -49.091,-14.32Z" style="fill:#ca504d;fill-rule:nonzero;"/><path d="M3216.07,3822.34c-11.218,-1.31 -28.698,-2.055 -39.443,1.504c-7.918,2.625 -11.387,4.54 -14.864,11.886l4.746,5.261c13.406,6.274 27.99,4.622 42.413,4.256c26.013,0.617 50.476,-2.081 75.874,-7.725c-22.745,-9.245 -44.32,-12.932 -68.726,-15.182Z" style="fill:#ca504d;fill-rule:nonzero;"/><path d="M2319.28,2076.83c-12.163,3.425 37.17,71.595 49.263,64.719c25.069,-14.252 54.662,-38.613 81.047,-56.129c62.755,-41.66 153.507,-107.288 122.03,-90.588c-0,-0 -39.938,-6.258 -105.404,24.638c-68.874,40.107 -114.419,50.888 -146.936,57.36Z" style="fill:#f2f2f4;fill-rule:nonzero;"/></g></svg>