<?xml version="1.0" encoding="UTF-8" standalone="no"?><!DOCTYPE svg PUBLIC "-//W3C//DTD SVG 1.1//EN" "http://www.w3.org/Graphics/SVG/1.1/DTD/svg11.dtd"><svg width="100%" height="100%" viewBox="0 0 4267 4267" version="1.1" xmlns="http://www.w3.org/2000/svg" xmlns:xlink="http://www.w3.org/1999/xlink" xml:space="preserve" xmlns:serif="http://www.serif.com/" style="fill-rule:evenodd;clip-rule:evenodd;stroke-linejoin:round;stroke-miterlimit:2;"><path d="M3104.6,209.188c3.897,-0.259 7.799,-0.393 11.704,-0.401c117.813,-0.104 236.963,58.834 319.488,140.869c106.771,106.132 158.541,257.823 157.737,406.973c-0.962,178.571 -63.566,357.588 -191.666,484.8c-111.542,110.767 -260.534,163.421 -415.913,162.942c17.979,120.2 6.471,239.879 -23.563,357.062c33.151,1.238 121.401,10.405 144.671,31.971c8.146,7.55 13.371,19.542 13.296,30.696c-0.037,5.529 -2.304,10.608 -6.283,14.417c-8.421,8.062 -21.667,10.358 -32.892,10.3c-14.979,-0.079 -30.537,-4.513 -45.179,-7.471c-29.408,-5.942 -58.483,-11.933 -88.604,-12.546c-20.338,47.388 -32.358,96.417 -61.213,140.154c38.355,15.325 136.121,50.659 157.984,82.95c5.146,7.6 7.687,16.471 5.3,25.517c-2.5,9.467 -6.704,18.579 -15.704,23.258c-9.88,5.134 -20.5,4.109 -30.709,0.529c-17.137,-6.012 -33.85,-19.7 -49.9,-28.508c-33.083,-18.158 -69.816,-32.217 -106.196,-42.271c-7.479,10.804 -13.562,21.634 -19.4,33.4c17.65,18.884 37.88,35.204 55.205,54.571c3.813,4.311 7.552,8.686 11.216,13.125c3.664,4.442 7.25,8.943 10.759,13.504c3.508,4.564 6.937,9.186 10.287,13.867c3.35,4.68 6.619,9.418 9.808,14.212c3.186,4.792 6.291,9.638 9.313,14.538c3.019,4.9 5.954,9.851 8.804,14.854c2.853,5 5.618,10.047 8.296,15.142c2.675,5.097 5.264,10.237 7.767,15.421c2.5,5.186 4.909,10.412 7.229,15.679c2.322,5.266 4.552,10.572 6.691,15.916c2.139,5.345 4.185,10.724 6.138,16.138c1.955,5.414 3.817,10.861 5.583,16.342c1.767,5.477 3.439,10.984 5.017,16.52c1.578,5.536 3.06,11.098 4.446,16.684c1.386,5.586 2.675,11.194 3.866,16.825c1.195,5.63 2.292,11.28 3.292,16.95c16.746,99.058 -3.029,199.929 -62.162,281.891c-79.184,109.75 -189.834,138.438 -316.275,159.321c7.608,24.764 14.744,49.664 21.408,74.7c11.162,-1.337 22.442,-2.816 33.692,-2.925c49.895,-0.487 112.7,17.775 148.983,53.438c11.408,-19.238 23.758,-37.584 38.462,-54.484c45.796,-52.654 114.392,-88.337 184.296,-92.641c65.817,-4.05 115.221,18.937 163.663,61.712c-29.079,-75.479 -64.6,-147.391 -84.317,-226.371c-27.562,-110.42 -8.833,-220.2 50.238,-317.108c1.73,-2.85 3.495,-5.679 5.295,-8.487c1.8,-2.806 3.635,-5.589 5.505,-8.35c1.869,-2.762 3.772,-5.499 5.708,-8.213c1.939,-2.714 3.91,-5.403 5.912,-8.067c2.006,-2.664 4.043,-5.302 6.113,-7.916c2.069,-2.614 4.172,-5.202 6.308,-7.763c2.134,-2.561 4.299,-5.096 6.496,-7.604c2.2,-2.506 4.429,-4.985 6.688,-7.437c2.261,-2.453 4.551,-4.877 6.87,-7.271c2.32,-2.395 4.668,-4.76 7.046,-7.096c2.381,-2.336 4.789,-4.642 7.225,-6.917c2.436,-2.278 4.9,-4.523 7.392,-6.737c2.492,-2.217 5.011,-4.4 7.558,-6.55c2.547,-2.153 5.121,-4.274 7.721,-6.363c2.6,-2.089 5.225,-4.144 7.875,-6.166c2.65,-2.023 5.325,-4.012 8.025,-5.967c2.7,-1.956 5.424,-3.878 8.171,-5.767c2.75,-1.889 5.522,-3.743 8.317,-5.562c2.794,-1.82 5.611,-3.603 8.45,-5.35c2.838,-1.75 5.698,-3.464 8.579,-5.142c2.88,-1.678 5.782,-3.319 8.704,-4.925c2.922,-1.606 5.864,-3.174 8.825,-4.704c2.961,-1.533 5.942,-3.029 8.942,-4.488c2.997,-1.458 6.013,-2.877 9.05,-4.258c3.033,-1.383 6.083,-2.729 9.15,-4.037c3.066,-1.306 6.15,-2.574 9.25,-3.805c3.1,-1.23 6.213,-2.422 9.341,-3.575c3.128,-1.152 6.271,-2.265 9.429,-3.337c3.156,-1.075 6.325,-2.11 9.509,-3.104c3.18,-0.995 6.375,-1.95 9.583,-2.867c3.206,-0.917 6.422,-1.792 9.65,-2.625c3.228,-0.836 6.465,-1.632 9.713,-2.387c3.119,-0.756 6.248,-1.473 9.387,-2.15c3.139,-0.675 6.286,-1.313 9.442,-1.913c3.152,-0.597 6.314,-1.156 9.483,-1.675c3.169,-0.519 6.344,-1 9.525,-1.442c3.178,-0.439 6.363,-0.839 9.554,-1.2c3.192,-0.361 6.386,-0.682 9.584,-0.962c3.197,-0.283 6.398,-0.525 9.604,-0.725c3.205,-0.203 6.412,-0.364 9.621,-0.483c3.208,-0.123 6.416,-0.205 9.625,-0.246c3.211,-0.042 6.422,-0.043 9.633,-0.004c3.211,0.038 6.421,0.118 9.629,0.237c3.208,0.119 6.415,0.278 9.621,0.475c3.203,0.2 6.404,0.439 9.604,0.717c3.197,0.28 6.392,0.6 9.583,0.958c3.189,0.358 6.374,0.757 9.555,1.196c3.18,0.436 6.355,0.912 9.525,1.429c3.169,0.519 6.331,1.076 9.487,1.671c3.156,0.597 6.303,1.233 9.442,1.908c3.139,0.672 6.268,1.385 9.387,2.138c3.122,0.752 6.235,1.544 9.338,2.375c3.1,0.83 6.19,1.7 9.271,2.608c3.08,0.906 6.148,1.851 9.204,2.838c3.055,0.983 6.098,2.004 9.129,3.062c3.03,1.061 6.047,2.16 9.05,3.296c3.005,1.133 5.994,2.305 8.967,3.517c2.975,1.208 5.934,2.454 8.879,3.737c2.941,1.283 5.868,2.604 8.779,3.963c2.908,1.355 5.8,2.748 8.675,4.179c2.875,1.427 5.732,2.891 8.571,4.391c2.839,1.5 5.659,3.035 8.462,4.605c2.8,1.572 5.579,3.177 8.338,4.816c2.761,1.639 5.501,3.313 8.221,5.021c93.783,58.325 166.591,156.513 190.85,264.708c10.475,46.709 18.795,116.734 -9.196,159.13c-11.167,16.916 -28.15,29.258 -48.225,32.962c-15.938,2.946 -33.559,1.35 -48.613,-4.712c-58.312,-23.484 -53.316,-104.45 -74.441,-154.596c-17.73,-42.092 -45.755,-75.629 -84.013,-100.621c-42.083,-27.492 -88.487,-39.013 -138.125,-28.542c-3.117,0.664 -6.215,1.404 -9.296,2.221c-3.08,0.819 -6.139,1.713 -9.175,2.679c-3.039,0.967 -6.051,2.009 -9.037,3.125c-2.984,1.114 -5.939,2.302 -8.867,3.563c-2.928,1.261 -5.822,2.593 -8.683,3.996c-2.864,1.402 -5.691,2.873 -8.479,4.412c-2.789,1.542 -5.539,3.151 -8.25,4.829c-2.712,1.675 -5.38,3.417 -8.005,5.225c-2.625,1.809 -5.204,3.679 -7.737,5.613c-2.533,1.933 -5.018,3.929 -7.454,5.987c-2.434,2.056 -4.817,4.17 -7.15,6.342c-2.331,2.175 -4.607,4.404 -6.829,6.687c-2.223,2.286 -4.387,4.625 -6.492,7.017c-2.106,2.392 -4.153,4.833 -6.142,7.325c-1.986,2.492 -3.911,5.031 -5.775,7.617c-1.861,2.586 -3.658,5.216 -5.391,7.891c-76.667,119.517 9.862,235.813 54.241,348.359c20.588,52.208 32.996,106.204 45.159,160.812c27.229,14.7 51.195,30.175 71.95,53.525c41.304,46.454 49.937,95.579 46.658,155.871c7.804,-2.125 15.637,-4.283 23.558,-5.937c3.189,-0.684 6.393,-1.288 9.613,-1.813c3.219,-0.522 6.448,-0.964 9.687,-1.325c3.242,-0.358 6.49,-0.636 9.746,-0.833c3.256,-0.198 6.514,-0.313 9.775,-0.346c3.261,-0.036 6.521,0.011 9.779,0.142c3.259,0.13 6.513,0.343 9.763,0.637c3.247,0.294 6.484,0.669 9.712,1.125c3.231,0.458 6.447,0.996 9.65,1.613c3.2,0.619 6.384,1.318 9.55,2.095c3.17,0.778 6.315,1.635 9.438,2.571c3.125,0.939 6.223,1.954 9.296,3.046c3.072,1.092 6.115,2.26 9.129,3.504c3.014,1.245 5.996,2.565 8.946,3.963c2.947,1.394 5.858,2.862 8.733,4.404c2.872,1.542 5.705,3.154 8.5,4.837c2.792,1.684 5.54,3.436 8.246,5.259c45.304,29.966 76.475,79.362 86.925,132.35c10.921,55.362 -1.2,106.704 -32.496,153.183c43.721,2.408 82.117,11.467 117.471,38.692c36.196,27.875 57.346,68.804 63.171,113.791c6.82,52.688 -12.325,94.655 -43.617,135.734c21.292,8.733 40.417,18.675 57.45,34.408c34.271,31.663 53.4,78.142 54.733,124.492c1.004,35.029 -6.687,68.933 -32.2,94.687c-14.291,14.429 -37.637,27.788 -57.958,30.967c-32.379,5.067 -69.946,1.887 -102.75,1.808l-184.421,0.004l-599.096,-0.116c-54.05,2.212 -109.187,0.133 -163.325,0.091l-322.558,-0.116l-1022.97,0.041l-858.446,-0.212l-305.929,0.212c-53.083,0.017 -107.65,2.525 -160.589,-0.554c-24.571,-1.429 -46.047,-6.808 -65.258,-23.337c-1.064,-0.914 -2.104,-1.854 -3.12,-2.821c-1.015,-0.967 -2.006,-1.96 -2.972,-2.979c-0.965,-1.017 -1.904,-2.059 -2.816,-3.125c-0.912,-1.067 -1.797,-2.154 -2.654,-3.263c-0.857,-1.111 -1.685,-2.243 -2.484,-3.396c-0.799,-1.152 -1.568,-2.325 -2.308,-3.516c-0.739,-1.195 -1.448,-2.406 -2.126,-3.634c-0.677,-1.227 -1.323,-2.472 -1.938,-3.733c-0.614,-1.261 -1.196,-2.536 -1.745,-3.825c-0.549,-1.292 -1.066,-2.596 -1.548,-3.912c-0.483,-1.32 -0.932,-2.649 -1.347,-3.988c-0.415,-1.339 -0.796,-2.689 -1.142,-4.05c-0.347,-1.358 -0.658,-2.725 -0.935,-4.1c-0.277,-1.375 -0.518,-2.757 -0.724,-4.146c-0.207,-1.386 -0.377,-2.778 -0.513,-4.175c-0.135,-1.397 -0.235,-2.796 -0.299,-4.196c-1.787,-34.85 15.24,-65.416 37.563,-90.625c-4.008,-2.714 -7.988,-5.469 -11.94,-8.266c-39.109,-27.5 -64.279,-65.829 -72.221,-113.188c-8.154,-48.625 6.012,-98.896 34.757,-138.437c24.702,-33.979 64.442,-65.842 106.888,-72.588c-23.838,-28.354 -43.802,-57.821 -52.172,-94.375c-12.019,-52.487 -3.646,-106.796 25.487,-152.358c20.191,-31.579 56.482,-66.383 94.086,-74.6c-13.05,-15.567 -25.981,-30.767 -35.825,-48.654c-1.467,-2.681 -2.868,-5.395 -4.202,-8.142c-1.334,-2.75 -2.599,-5.529 -3.796,-8.337c-1.197,-2.812 -2.324,-5.65 -3.382,-8.517c-1.057,-2.867 -2.043,-5.757 -2.958,-8.671c-0.916,-2.914 -1.759,-5.85 -2.529,-8.808c-0.771,-2.956 -1.468,-5.928 -2.093,-8.917c-0.624,-2.992 -1.174,-5.996 -1.65,-9.012c-0.477,-3.02 -0.879,-6.048 -1.206,-9.084c-0.328,-3.039 -0.58,-6.083 -0.758,-9.133c-0.178,-3.047 -0.28,-6.099 -0.307,-9.154c-0.028,-3.056 0.02,-6.11 0.143,-9.163c0.123,-3.053 0.321,-6.1 0.593,-9.141c0.273,-3.045 0.621,-6.08 1.043,-9.105c0.423,-3.025 0.919,-6.039 1.49,-9.041c0.57,-3 1.214,-5.985 1.932,-8.954c0.717,-2.97 1.507,-5.92 2.37,-8.85c13.859,-47.342 48.298,-88.875 91.866,-111.905c48.035,-25.391 99.889,-25.812 150.756,-10.066c-2.042,-46.554 3.233,-84.879 29.962,-124.259c1.82,-2.661 3.702,-5.276 5.646,-7.845c1.944,-2.57 3.951,-5.091 6.021,-7.563c2.069,-2.472 4.197,-4.892 6.383,-7.258c2.186,-2.37 4.429,-4.684 6.729,-6.942c2.3,-2.258 4.653,-4.46 7.059,-6.604c2.405,-2.145 4.862,-4.229 7.371,-6.254c2.508,-2.025 5.063,-3.988 7.666,-5.888c2.606,-1.9 5.254,-3.735 7.946,-5.504c2.694,-1.772 5.429,-3.476 8.204,-5.112c2.775,-1.639 5.589,-3.209 8.442,-4.709c2.853,-1.5 5.74,-2.93 8.662,-4.291c2.923,-1.359 5.877,-2.646 8.863,-3.863c2.986,-1.217 5.998,-2.36 9.037,-3.429c3.042,-1.067 6.107,-2.06 9.196,-2.979c3.089,-0.923 6.199,-1.767 9.329,-2.534c3.131,-0.769 6.278,-1.461 9.442,-2.075c54.229,-10.208 112.996,3.396 158.408,34.455c6.275,-17.417 14.217,-32.663 23.788,-48.463c-75.821,-73.187 -123.721,-158.129 -137.154,-263.971c-4.746,-37.375 -7.267,-85.204 2.362,-122.237c4.925,-18.938 13.167,-38.313 15.442,-57.792c2.087,-17.879 -2.946,-36.904 -3.275,-54.892c-1.125,-61.937 24.125,-120.325 61.458,-168.55c-59.837,-50.537 -94.241,-66.329 -139.691,-138.037c-1.895,-2.978 -3.75,-5.979 -5.567,-9.004c-1.82,-3.025 -3.602,-6.073 -5.346,-9.142c-1.744,-3.069 -3.45,-6.16 -5.117,-9.271c-1.669,-3.111 -3.298,-6.241 -4.887,-9.391c-1.592,-3.153 -3.143,-6.324 -4.654,-9.513c-1.514,-3.189 -2.988,-6.396 -4.421,-9.621c-1.433,-3.228 -2.827,-6.471 -4.179,-9.729c-1.353,-3.261 -2.666,-6.537 -3.938,-9.829c-1.272,-3.292 -2.504,-6.6 -3.696,-9.925c-1.189,-3.322 -2.337,-6.658 -3.445,-10.008c-1.109,-3.353 -2.177,-6.719 -3.205,-10.096c-1.025,-3.378 -2.008,-6.767 -2.95,-10.167c-0.941,-3.403 -1.841,-6.817 -2.7,-10.242c-0.855,-3.422 -1.67,-6.855 -2.445,-10.3c-0.773,-3.444 -1.503,-6.897 -2.192,-10.358c-0.686,-3.464 -1.331,-6.935 -1.933,-10.412c-0.603,-3.478 -1.163,-6.963 -1.68,-10.455c-0.514,-3.491 -0.986,-6.989 -1.416,-10.491c-0.431,-3.506 -0.818,-7.014 -1.163,-10.525c-0.341,-3.514 -0.641,-7.031 -0.9,-10.55c-0.255,-3.523 -0.468,-7.046 -0.637,-10.571c-0.17,-3.525 -0.296,-7.053 -0.379,-10.583c-0.084,-3.528 -0.123,-7.057 -0.117,-10.588c0.003,-3.528 0.05,-7.057 0.142,-10.587c0.091,-3.528 0.226,-7.055 0.404,-10.58c0.18,-3.525 0.402,-7.047 0.666,-10.566c0.267,-3.52 0.575,-7.036 0.925,-10.55c0.353,-3.511 0.749,-7.018 1.188,-10.521c0.439,-3.503 0.921,-7 1.446,-10.492c0.525,-3.489 1.093,-6.972 1.704,-10.45c0.608,-3.475 1.261,-6.943 1.958,-10.404c0.697,-3.461 1.436,-6.912 2.217,-10.354c27.046,-117.617 95.875,-202.375 196.804,-265.1c-102.5,-59.954 -184.037,-173 -220.85,-284.275c-50.646,-153.071 -32.092,-334.004 40.721,-477.313c56.746,-111.681 147.508,-207.253 269.096,-246.223c111.908,-35.869 226.65,-18.627 329.616,35.035c157.046,81.849 248.938,236.48 300.238,399.988c52.629,-32.104 119.879,-53.812 179.654,-67.77c23.008,-5.371 46.867,-8.192 69.483,-15.025l2.2,-0.688c-7.82,-11.404 -12.408,-21.425 -16.145,-34.633c2.75,-12.188 6.016,-23.942 13.679,-34.063c11.721,-15.479 28.387,-22.504 47.216,-25.066c76.284,-10.396 179.942,21.95 251.584,50.241c23.291,9.196 45.825,21.884 69.554,29.558c31.383,10.146 66.521,13.038 98.754,21.096c91.263,22.817 239.088,76.663 313.013,132.759c47.687,-131.963 101.979,-255.034 195.645,-361.314c89.73,-101.812 208.905,-169.243 345.517,-177.84Zm-1860.62,2024.89c6.421,20.113 14.217,40.5 25.821,58.259c26.479,-0.621 51.921,-6.663 78.15,-8.534c9.175,-1.358 18.379,-2.937 27.613,-3.8c-23.8,-15.92 -47.359,-31.812 -69.342,-50.233c-16.575,-13.883 -31.767,-29.946 -48.671,-43.283c-3.133,16.487 -9.462,31.475 -13.571,47.591Z" style="fill:#333944;fill-rule:nonzero;"/><path d="M1028.25,2650.81c13.721,-0.6 28.483,1.354 41.838,4.454c34.941,8.112 67.066,29.162 82.225,62.729c6.066,13.437 10.075,28.612 18.316,40.925c5.629,8.408 16.004,17.716 26.392,19.208c22.533,3.233 49.687,-30.321 65.712,-43.125c26.884,-21.479 56.642,-33.029 91.405,-28.737c37.587,4.641 82.466,30.695 104.891,61.262c37.367,50.942 5.338,100.934 -3.312,154.1l-0.596,3.817c4.712,13.141 11.75,25.55 25.091,31.454c36.255,16.046 97.913,-41.55 133.746,-55.646c32.167,-12.654 66.734,-14.433 98.634,0.417c29.308,13.65 55.95,42.041 66.408,72.779c12.504,36.75 7.758,78.796 -16.287,109.858c-12.1,15.63 -28.23,30.755 -36.484,48.942c-4.35,9.583 -5.216,18.442 -1.196,28.3c4.554,11.162 13.292,20.458 24.713,24.65c12.862,4.721 22.362,1.117 34.108,-4.308c44.417,-20.517 94.275,-31.3 141.675,-13.067c4.222,1.611 8.331,3.476 12.325,5.596c3.992,2.116 7.839,4.471 11.542,7.062c3.703,2.592 7.233,5.402 10.592,8.429c3.355,3.025 6.513,6.246 9.475,9.663c33.645,38.887 16.795,71.537 35.337,109.992c4.1,8.508 10.408,17.483 19.879,20.37c16.546,5.042 33.7,-7.658 47.567,-14.983c23.758,-12.542 43.867,-13.283 69.342,-5.254c19.17,6.042 36.587,15.983 52.145,28.625c79.138,64.292 3.738,134.204 26.084,172.3c3.462,5.904 9.579,9.637 16.221,10.933c7.887,1.542 16.841,-0.141 23.316,-5.004c22.263,-16.712 32.329,-56.171 35.242,-82.633c4.996,-45.367 -5.338,-90.35 -37.175,-124.175c-10.421,-11.075 -23.838,-20.129 -33.042,-32.238c-7.771,-10.221 -9.579,-21.871 -7.133,-34.337c5.817,-29.675 29.275,-57.067 54.454,-72.884c43.488,-27.316 102.8,-26.362 145.033,3.363c14.655,10.312 29.75,32.083 47.492,35.171c8.833,1.533 17.204,-1.992 24.325,-7.017c26.125,-18.421 9.15,-56.412 5.804,-81.696c-1.408,-10.633 -0.904,-21.141 0.584,-31.729c6.033,-42.908 32.845,-80.729 67.391,-106.046c1.914,-1.4 3.854,-2.762 5.821,-4.087c1.967,-1.325 3.957,-2.611 5.971,-3.859c2.017,-1.25 4.055,-2.459 6.117,-3.629c2.061,-1.172 4.144,-2.304 6.25,-3.396c2.105,-1.091 4.23,-2.141 6.375,-3.15c2.147,-1.011 4.311,-1.979 6.491,-2.904c2.184,-0.927 4.383,-1.812 6.6,-2.654c2.214,-0.844 4.445,-1.644 6.692,-2.4c2.247,-0.758 4.508,-1.472 6.783,-2.142c2.275,-0.672 4.561,-1.3 6.859,-1.883c2.297,-0.583 4.605,-1.122 6.925,-1.617c2.319,-0.494 4.647,-0.944 6.983,-1.35c2.336,-0.405 4.679,-0.766 7.029,-1.083c2.35,-0.317 4.704,-0.587 7.063,-0.812c2.361,-0.225 4.725,-0.406 7.091,-0.542c2.367,-0.136 4.736,-0.226 7.109,-0.271c2.369,-0.044 4.74,-0.043 7.112,0.004c2.369,0.045 4.738,0.136 7.104,0.275c2.367,0.136 4.731,0.318 7.092,0.546c2.361,0.225 4.715,0.497 7.062,0.817c2.35,0.316 4.693,0.679 7.03,1.087c2.336,0.406 4.663,0.857 6.983,1.354c2.316,0.495 4.625,1.035 6.925,1.621c2.297,0.584 4.582,1.211 6.854,1.884c2.275,0.672 4.536,1.387 6.783,2.145c2.245,0.759 4.475,1.56 6.692,2.405c2.217,0.844 4.415,1.73 6.596,2.658c2.183,0.928 4.347,1.897 6.492,2.908c2.144,1.011 4.268,2.063 6.37,3.154c2.106,1.095 4.189,2.228 6.25,3.4c2.061,1.173 4.099,2.384 6.113,3.634c2.014,1.25 4.004,2.537 5.971,3.862c20.129,13.85 40.612,43.188 65.746,46.104c27.916,3.238 47.587,-58.254 60.662,-77.57c6.161,-8.998 12.94,-17.503 20.338,-25.517c7.394,-8.014 15.329,-15.451 23.804,-22.313c37.104,-30.304 86.566,-47.025 134.541,-41.562c64.463,7.346 112.1,50.867 124.846,114.617c4.608,23.041 1.525,61.275 17.334,79.445c22.554,25.934 86.904,-33.333 112.283,-45.4c27.529,-13.083 61.133,-20.837 91.675,-17.854c34.725,3.396 70.525,20.996 92.175,48.671c1.397,1.8 2.741,3.638 4.033,5.513c1.295,1.872 2.536,3.78 3.725,5.725c1.189,1.941 2.322,3.915 3.4,5.92c1.081,2.006 2.104,4.041 3.071,6.105c0.967,2.061 1.875,4.148 2.725,6.262c0.853,2.111 1.644,4.246 2.375,6.404c0.733,2.156 1.407,4.331 2.021,6.525c0.611,2.195 1.162,4.403 1.654,6.625c0.489,2.225 0.917,4.461 1.283,6.709c0.367,2.25 0.671,4.507 0.913,6.77c0.239,2.264 0.416,4.534 0.533,6.809c0.114,2.275 0.167,4.551 0.159,6.829c-0.012,2.278 -0.085,4.553 -0.221,6.825c-0.136,2.275 -0.336,4.543 -0.6,6.804c-0.261,2.264 -0.585,4.518 -0.971,6.763c-0.386,2.244 -0.835,4.476 -1.346,6.695c-3.667,15.996 -9.729,32.288 -11.104,48.63c-0.85,10.091 -0.388,22.683 7.112,30.387c23.017,23.667 61.563,-3.212 85.667,-11.833c11.254,-4.025 23.7,-5.804 35.6,-6.717c38.712,-2.975 74.475,5.904 103.975,31.875c25.721,22.65 41.863,57.304 43.517,91.558c2.708,56.163 -26.879,89.096 -61.975,128.205c-9.121,10.166 -19.917,23.454 -18.371,38.075c2.112,20.029 25.729,28.041 42.846,28.608c52.554,1.746 98.683,-19.825 146.137,19.546c21.167,17.562 34.629,45.183 36.684,72.516c3.591,47.771 -25.988,81.663 -63.105,106.234c-12.271,8.125 -26.191,15.337 -35.591,26.933c-5.817,7.175 -9.217,15.463 -7.609,24.796c1.913,11.092 10.579,19.037 19.225,25.246c0.704,0.508 1.421,0.996 2.129,1.496c13.996,0.429 27.651,0.275 41.625,-0.609c10.584,-1.362 21.925,-2.341 32.455,-0.187c26.183,5.362 49.208,24.025 63.341,46.237c12.725,20.004 20.246,46.188 14.275,69.704c-4.662,18.35 -14.812,29.059 -30.475,38.784c-34.075,1.887 -68.816,0.566 -102.971,0.558l-183.616,-0.058l-565.446,-0.079l-1746.56,-0.005l-805.291,-0.045l-203.929,0.17c-29.768,0.055 -69.5,4.13 -97.802,-1.654c-7.858,-1.604 -15.624,-6.296 -20.004,-13.1c-24.414,-37.925 51.967,-63.058 58.657,-95.012c6.143,-29.346 -48.892,-40.609 -67.941,-51.454c-3.603,-2.009 -7.077,-4.218 -10.423,-6.63c-3.345,-2.413 -6.539,-5.012 -9.582,-7.795c-3.042,-2.786 -5.912,-5.739 -8.61,-8.859c-2.698,-3.119 -5.205,-6.386 -7.522,-9.8c-15.243,-22.904 -17.982,-49.512 -12.14,-75.966c0.359,-1.603 0.746,-3.199 1.161,-4.788c0.416,-1.589 0.859,-3.171 1.331,-4.746c0.471,-1.572 0.97,-3.136 1.497,-4.691c0.527,-1.556 1.081,-3.103 1.663,-4.642c0.581,-1.536 1.19,-3.061 1.825,-4.575c0.636,-1.514 1.298,-3.017 1.986,-4.508c0.689,-1.492 1.404,-2.971 2.145,-4.438c0.741,-1.467 1.507,-2.919 2.3,-4.358c0.792,-1.439 1.61,-2.863 2.452,-4.271c0.843,-1.411 1.711,-2.806 2.603,-4.183c0.892,-1.381 1.808,-2.745 2.748,-4.092c0.941,-1.347 1.904,-2.676 2.892,-3.988c0.987,-1.313 1.997,-2.609 3.031,-3.887c1.033,-1.275 2.088,-2.533 3.166,-3.775c1.078,-1.239 2.177,-2.458 3.298,-3.658c1.121,-1.203 2.262,-2.384 3.425,-3.542c1.163,-1.161 2.345,-2.301 3.548,-3.421c1.203,-1.117 2.426,-2.214 3.667,-3.292c1.242,-1.075 2.503,-2.127 3.782,-3.158c1.278,-1.03 2.575,-2.037 3.89,-3.021c1.315,-0.986 2.646,-1.947 3.995,-2.883c1.349,-0.939 2.713,-1.853 4.095,-2.742c1.381,-0.891 2.777,-1.757 4.188,-2.596c1.412,-0.838 2.838,-1.654 4.278,-2.445c1.441,-0.789 2.895,-1.553 4.362,-2.292c1.468,-0.736 2.948,-1.447 4.44,-2.133c1.493,-0.686 2.997,-1.346 4.513,-1.98c1.516,-0.633 3.043,-1.238 4.58,-1.816c1.537,-0.578 3.085,-1.129 4.641,-1.654c1.557,-0.523 3.123,-1.018 4.698,-1.488c1.574,-0.469 3.156,-0.91 4.746,-1.321c1.59,-0.414 3.187,-0.798 4.791,-1.154c20.401,-4.562 45.418,-3.958 63.093,-16.225c8.685,-6.029 14.734,-15.321 15.983,-25.9c3.032,-25.692 -35.746,-43.475 -52.882,-56.45c-9.204,-6.971 -17.395,-15.646 -24.186,-24.975c-20.247,-27.817 -27.735,-61.212 -22.428,-95.154c8.635,-55.242 49,-96.804 103.998,-106.729c21.702,-3.917 51.627,-0.792 69.764,-15.117c5.346,-4.221 8.954,-10.621 9.038,-17.546c0.358,-30.866 -63.969,-53.604 -86.808,-76.079c-21.107,-20.771 -34.366,-51 -33.952,-80.762c0.446,-32.055 16.903,-63.65 39.42,-85.975c38.185,-37.867 96.248,-43.938 143.702,-20.755c19.988,9.763 43.088,29.917 66.213,29.209c6.195,-0.192 10.67,-2.692 14.795,-7.204c22.284,-24.384 3.755,-48.113 -4.425,-73.659c-2.995,-9.346 -3.912,-19.716 -4.387,-29.508c-0.117,-2.025 -0.181,-4.051 -0.192,-6.079c-0.014,-2.028 0.024,-4.054 0.113,-6.079c0.091,-2.025 0.233,-4.048 0.425,-6.067c0.191,-2.019 0.433,-4.032 0.725,-6.038c0.294,-2.005 0.639,-4.004 1.033,-5.995c0.392,-1.989 0.835,-3.967 1.329,-5.934c0.495,-1.966 1.039,-3.919 1.634,-5.858c0.591,-1.939 1.232,-3.861 1.92,-5.767c0.692,-1.908 1.43,-3.797 2.213,-5.666c0.786,-1.87 1.618,-3.718 2.496,-5.546c0.88,-1.828 1.805,-3.632 2.775,-5.413c0.969,-1.78 1.983,-3.534 3.041,-5.262c1.059,-1.731 2.16,-3.434 3.305,-5.109c1.144,-1.672 2.33,-3.315 3.558,-4.929c1.228,-1.614 2.494,-3.196 3.8,-4.746c1.308,-1.55 2.654,-3.066 4.037,-4.55c42.434,-45.437 110.313,-51.491 164.096,-23.858c24.4,12.538 55.779,51.367 82.959,49.271c35.583,-2.746 29.195,-53.396 35.375,-77.583c1.014,-3.859 2.243,-7.649 3.687,-11.371c1.445,-3.72 3.096,-7.345 4.954,-10.875c1.859,-3.531 3.911,-6.945 6.159,-10.242c2.244,-3.297 4.67,-6.457 7.279,-9.479c22.104,-25.738 51.162,-34.792 83.604,-37.613Z" style="fill:#719f75;fill-rule:nonzero;"/><path d="M3097.56,3396.6c4.6,-0.571 9.091,-0.854 13.724,-0.925c41.896,-0.666 81.517,12.471 111.771,42.363c37.255,36.812 49.425,83.866 49.717,134.85c41.767,-17.559 74.796,-29.579 120.375,-18.15c2.486,0.627 4.954,1.315 7.404,2.062c2.453,0.747 4.885,1.554 7.296,2.421c2.411,0.867 4.8,1.793 7.167,2.779c2.364,0.984 4.704,2.025 7.021,3.125c2.313,1.1 4.599,2.256 6.858,3.467c2.258,1.214 4.485,2.48 6.679,3.8c2.197,1.322 4.36,2.697 6.487,4.125c2.128,1.428 4.22,2.907 6.275,4.437c2.056,1.531 4.073,3.11 6.05,4.738c1.978,1.63 3.914,3.308 5.809,5.033c1.897,1.725 3.75,3.495 5.558,5.309c1.808,1.816 3.571,3.676 5.288,5.579c1.716,1.902 3.386,3.846 5.008,5.829c1.622,1.986 3.194,4.01 4.717,6.071c1.522,2.061 2.993,4.158 4.412,6.291c1.417,2.136 2.782,4.305 4.096,6.505c17.679,30.183 23.021,68.266 13.467,102.025c-4.955,17.495 -20.984,49.033 -38.946,56.312c-9.867,4 -24.771,3.413 -34.3,-1.283c-32.117,-15.834 25.312,-71.596 7.562,-115.1c-8.516,-20.884 -28.446,-37.404 -48.816,-46.109c-34.425,-14.708 -75.838,-5.408 -106.592,13.859c-17.025,10.658 -33.867,25.146 -52.925,32.033c-6.638,2.4 -13.233,2.017 -19.517,-1.258c-10.575,-5.513 -16.925,-16.596 -18.137,-28.259c-0.742,-7.104 3.175,-16.841 4.825,-23.883c7.346,-31.354 12.133,-64.963 1.904,-96.204l-0.863,-2.554c-9.27,-19.542 -22.5,-36.305 -42.637,-45.359c-14.504,-6.525 -31,-8.054 -46.758,-7.208c-90.5,4.842 -86.746,106.012 -131.009,118.196c-25.525,7.025 -44.612,-39.454 -64.929,-51.288c-14.904,-8.683 -32.217,-10.42 -48.796,-6.066c-21.05,5.533 -41.425,17.529 -52.441,36.82c-16.284,28.505 -9.584,50.988 -2.205,80.18c2.825,11.166 4.892,23.65 -1.95,33.858c-0.472,0.706 -0.979,1.386 -1.52,2.042c-0.545,0.655 -1.12,1.28 -1.725,1.875c-0.609,0.594 -1.245,1.157 -1.909,1.687c-0.664,0.531 -1.354,1.025 -2.071,1.483c-0.716,0.459 -1.454,0.878 -2.212,1.259c-0.758,0.383 -1.535,0.726 -2.329,1.029c-0.795,0.303 -1.603,0.564 -2.425,0.783c-0.822,0.22 -1.653,0.396 -2.492,0.53c-9.504,1.487 -22.683,-1.667 -30.158,-7.78c-17.029,-13.925 -23.321,-41.083 -25.892,-62.025c-0.292,-2.272 -0.525,-4.55 -0.7,-6.833c-0.175,-2.283 -0.293,-4.569 -0.354,-6.858c-0.061,-2.289 -0.064,-4.578 -0.008,-6.867c0.055,-2.292 0.169,-4.579 0.341,-6.862c0.173,-2.284 0.402,-4.562 0.688,-6.834c0.286,-2.272 0.63,-4.536 1.033,-6.791c0.4,-2.253 0.857,-4.496 1.371,-6.73c0.517,-2.23 1.089,-4.447 1.717,-6.65c0.625,-2.202 1.307,-4.387 2.045,-6.554c0.737,-2.169 1.528,-4.318 2.375,-6.446c0.848,-2.127 1.748,-4.233 2.7,-6.316c0.953,-2.084 1.957,-4.141 3.013,-6.171c1.058,-2.031 2.167,-4.035 3.325,-6.013c1.158,-1.975 2.365,-3.919 3.621,-5.833c1.258,-1.914 2.562,-3.796 3.912,-5.646c1.353,-1.847 2.752,-3.66 4.196,-5.437c1.55,-1.911 3.146,-3.782 4.788,-5.613c1.639,-1.83 3.323,-3.621 5.054,-5.371c1.728,-1.75 3.497,-3.455 5.308,-5.116c1.814,-1.664 3.667,-3.282 5.558,-4.854c1.892,-1.57 3.821,-3.094 5.788,-4.571c1.964,-1.478 3.964,-2.907 6,-4.288c2.036,-1.378 4.106,-2.705 6.208,-3.983c2.1,-1.278 4.231,-2.504 6.392,-3.679c2.161,-1.173 4.35,-2.292 6.567,-3.359c2.216,-1.066 4.458,-2.077 6.725,-3.033c2.264,-0.956 4.551,-1.856 6.862,-2.7c2.311,-0.844 4.64,-1.632 6.988,-2.363c2.347,-0.73 4.712,-1.402 7.095,-2.016c2.381,-0.614 4.775,-1.17 7.184,-1.667c2.408,-0.497 4.828,-0.935 7.258,-1.312c2.431,-0.381 4.868,-0.7 7.313,-0.959c40.45,-4.404 67.445,10.338 97.712,34.946c5.986,-9.892 12.442,-19.468 19.367,-28.729c29.171,-38.775 68.787,-61.217 116.641,-67.796Z" style="fill:#333944;fill-rule:nonzero;"/><path d="M1007.8,3177.72c30.071,-3.742 62.175,2.475 89.671,14.704c56.162,24.987 82.008,66.041 103.333,121.366c19.721,-10.004 39.258,-16.854 61.417,-18.529c39.337,-2.97 76.958,7.65 106.845,33.85c28.759,25.213 48.871,63.784 51.226,102.125c1.02,16.642 -0.296,36.959 -12.58,49.617c-6.396,6.596 -18.087,11.65 -27.312,11.696c-31.029,0.158 -25.363,-51.546 -30.129,-71.592c-3.317,-13.937 -9.938,-27.412 -20.017,-37.704c-24.692,-25.208 -71.125,-25.592 -101.5,-10.258c-16.533,8.345 -32.754,26.521 -52.496,25.337c-35.125,-2.104 -33.287,-48.05 -41.008,-73.229c-5.338,-17.412 -14.313,-33.862 -26.954,-47.054c-21.417,-22.346 -49.913,-32.413 -80.459,-32.346c-33.529,0.075 -57.071,11.583 -80.325,34.917c-34.558,37.283 -32.629,78.483 -25.875,125.075c1.984,13.671 4.796,30.483 0.696,43.858c-1.954,6.383 -5.979,11.367 -12.083,14.117c-27.975,12.608 -43.363,-20.625 -58.588,-36c-2.927,-2.9 -6.008,-5.627 -9.241,-8.18c-3.236,-2.555 -6.603,-4.92 -10.1,-7.095c-3.5,-2.178 -7.111,-4.152 -10.834,-5.921c-3.722,-1.77 -7.53,-3.327 -11.425,-4.671c-21.433,-7.396 -44.791,-6.963 -65.258,3.312c-1.589,0.803 -3.131,1.688 -4.625,2.655c-1.494,0.964 -2.935,2.005 -4.321,3.125c-1.383,1.119 -2.704,2.308 -3.962,3.566c-1.259,1.259 -2.448,2.579 -3.567,3.963c-1.119,1.383 -2.161,2.822 -3.125,4.316c-0.967,1.495 -1.851,3.037 -2.654,4.625c-0.803,1.589 -1.52,3.216 -2.15,4.88c-0.631,1.664 -1.172,3.357 -1.625,5.079c-9.771,36.587 24.904,54.633 39.708,81.241c3.217,5.78 4.125,11.388 1.792,17.75c-3.567,9.73 -12.925,18.063 -22.517,21.617c-9.496,3.517 -21.071,1.304 -29.783,-3.379c-24.05,-12.929 -40.288,-47.004 -47.434,-72.4c-7.841,-27.875 -7.55,-62.717 7.221,-88.338c17.179,-29.8 43.279,-50.462 76.688,-59.137c39.262,-10.2 71.683,-5.942 106.966,14.537c6,-40.07 12.955,-70.433 37.584,-103.504c28.871,-38.766 71.467,-61.191 118.8,-67.991Z" style="fill:#333944;fill-rule:nonzero;"/><path d="M1704.22,3575.45c23.133,-2.729 47.97,-1.308 70.1,6.279c44.966,15.413 70.083,49.163 90.037,90.396c21.354,-15.687 43.192,-31.925 69.133,-39.083c28.655,-7.904 60.809,-6.138 86.842,9.071c29.409,17.183 45.604,47.508 54.163,79.354c22.741,-0.842 45.55,-0.529 66.804,8.854c22.362,9.871 40.954,32.554 49.671,55c5.075,13.071 8.245,29.392 1.791,42.579c-4.05,8.263 -14.562,19.05 -23.833,21.075c-30.883,6.754 -37.721,-50.116 -58.033,-64.629c-22.35,-15.967 -58.305,14.117 -84.121,-3.342c-8.538,-5.775 -10.058,-15.145 -11.654,-24.566c-1.105,-8.65 -2.263,-17.334 -4.559,-25.763c-3.387,-12.425 -9.783,-25.071 -21.666,-31.221c-49.93,-25.85 -99.534,52.729 -137.617,63.642c-7.483,2.146 -15.767,1.688 -22.546,-2.329c-25.587,-15.167 -12.817,-34.446 -19.104,-57.15c-6.167,-22.267 -23.354,-43.371 -43.496,-54.467c-17.008,-9.371 -37.804,-12.841 -56.508,-6.691c-11.6,3.816 -22.009,11.241 -30.004,20.387c-35.175,40.238 0.691,76.588 -17.121,109.275c-3.713,6.813 -10.171,11.013 -17.667,12.625c-7.758,1.667 -14.437,0.371 -21.058,-4.192c-12.146,-8.366 -19.988,-28.72 -22.746,-42.562c-6.963,-34.896 -0.579,-75.638 19.063,-105.525c1.188,-1.822 2.42,-3.614 3.695,-5.375c1.278,-1.758 2.598,-3.485 3.959,-5.179c1.364,-1.695 2.768,-3.354 4.212,-4.979c1.445,-1.625 2.929,-3.214 4.454,-4.767c1.523,-1.55 3.084,-3.063 4.684,-4.538c1.597,-1.472 3.232,-2.905 4.904,-4.3c1.669,-1.391 3.372,-2.741 5.108,-4.05c1.739,-1.308 3.509,-2.572 5.309,-3.791c1.8,-1.22 3.629,-2.395 5.487,-3.525c1.858,-1.128 3.743,-2.21 5.654,-3.246c1.914,-1.033 3.852,-2.021 5.813,-2.963c1.961,-0.939 3.944,-1.827 5.95,-2.666c2.005,-0.842 4.03,-1.632 6.075,-2.371c2.044,-0.742 4.105,-1.431 6.183,-2.067c2.081,-0.639 4.175,-1.225 6.283,-1.758c2.109,-0.533 4.228,-1.014 6.359,-1.442Z" style="fill:#333944;fill-rule:nonzero;"/><path d="M3100.43,288.342c51.396,-4.23 103.913,10.111 150.475,30.868c107.534,47.938 188.767,137.357 230.75,246.844c-18.991,-25.783 -37.121,-51.966 -59.871,-74.687c-58.804,-58.738 -137.191,-97.001 -221.012,-96.176c-84.979,0.836 -155.504,46.447 -213.013,105.851c-8.611,8.916 -16.93,18.097 -24.958,27.541c-8.031,9.445 -15.754,19.134 -23.171,29.067c-7.416,9.933 -14.512,20.092 -21.287,30.475c-6.773,10.381 -13.211,20.965 -19.317,31.754c-71.037,124.763 -126.262,318.171 -123.954,461.934c18.587,29.624 41.571,55.475 59.15,86.32c98.387,172.625 102.812,405.729 51.196,593.784c-47.746,2.45 -96.654,0.433 -144.509,0.079c-19.033,-94.338 -54.779,-177.367 -122.17,-247.713c-38.534,-40.22 -81.546,-67.308 -138.263,-68.712c-21.346,-54.521 -55.817,-97.571 -102.354,-133.121c-116.334,-88.879 -234.563,-64.921 -369.342,-55.471c-47.887,3.359 -97.925,1.775 -145.329,8.342c-97.304,9.558 -176.267,59.187 -238.379,132.158c-50.479,-82.041 -118.733,-143.341 -218.554,-150.404c-29.509,-2.092 -60.679,1.488 -90.325,2.388c-25.604,0.779 -54.321,6.583 -79.509,3.733c-26.754,-3.029 -56.387,-19.208 -82.812,-26.796c39.467,-141.387 126.725,-261.171 237.358,-355.617c105.029,-89.658 321.059,-199.933 459.959,-189c12.275,7.238 24.466,20.567 39.141,22.05c7.596,0.771 14.959,-1.187 20.534,-6.575c7.02,-6.779 10,-16.891 10.145,-26.437c0.555,-36.321 -47.083,-57.788 -69.679,-80.971c-0.65,-0.662 -1.283,-1.35 -1.925,-2.025c71.2,1.383 144.771,20.063 209.609,49.6c20.679,9.417 39.729,23.996 61.508,30.688c27.8,8.541 59.917,8.533 88.683,14.162c64.363,12.588 127.696,34.579 187.188,61.983c44.039,20.336 86.587,43.417 127.646,69.242c16.3,10.183 30.97,23.342 47.941,32.292c6.154,3.25 13.992,6.371 21.121,5.604c4.396,-0.475 7.046,-1.579 10.613,-4.2c17.954,-13.196 34.891,-87.6 44.429,-112.129c37.996,-97.688 84.829,-193.488 152.079,-274.634c77.171,-93.118 177.925,-160.463 300.208,-172.091Z" style="fill:#f2f2f4;fill-rule:nonzero;"/><path d="M2261.52,988.296c46.796,-5.092 96.216,7.275 136.862,30.371c22.679,12.887 51.713,33.921 58.063,60.533c1.725,7.221 1.991,16.721 -2.7,22.971c-2.704,3.604 -6.729,5.412 -11.03,6.275c-23.379,4.696 -46.42,-15.034 -64.3,-27.392c-64.462,-33.525 -99.045,-32.487 -167.008,-13.254c-8.741,2.471 -19.121,5.313 -27.446,0.237c-7.966,-4.854 -17.491,-17.491 -18.458,-26.929c-0.771,-7.571 1.642,-13.591 6.554,-19.254c19.854,-22.879 60.829,-30.633 89.463,-33.558Z" style="fill:#333944;fill-rule:nonzero;"/><path d="M1431.58,998.563c12.942,-2.067 27.704,-0.95 40.596,1.116c25.021,4.009 55.608,12.6 70.517,34.584c5.483,8.083 9.62,20.866 6.579,30.579c-1.996,6.358 -5.329,10.812 -11.496,13.604c-19.192,8.696 -37.888,-3.308 -55.483,-10.042c-31.059,-11.887 -62.534,-4.216 -91.792,8.488c-16.9,9.72 -50.054,39.712 -64.404,43.529c-8.213,2.187 -16.775,-2.054 -23.442,-6.633c-5.6,-3.851 -10.367,-9.188 -10.987,-16.284c-0.763,-8.791 4.991,-17.291 10.112,-23.871c30.283,-38.887 80.958,-68.658 129.8,-75.07Z" style="fill:#333944;fill-rule:nonzero;"/><path d="M2809.2,2136.39c9.392,7.612 17.4,17.058 24.996,26.421c66.921,82.47 107.175,197.695 96.271,304.254c-18.084,176.746 -165.571,254.471 -328.605,267.729c-25.962,2.112 -51.766,1.846 -77.75,0.692c-17.57,-0.784 -36.962,-3.338 -54.416,-0.992c-7.154,0.962 -13.954,3.079 -19.438,7.962c-5.437,4.842 -8.462,11.675 -8.8,18.917c-0.05,1.175 -0.041,2.351 0.025,3.529c0.07,1.175 0.199,2.343 0.388,3.504c0.186,1.164 0.432,2.314 0.737,3.45c0.306,1.136 0.668,2.255 1.088,3.355c0.419,1.1 0.893,2.176 1.421,3.229c0.527,1.052 1.108,2.075 1.741,3.066c0.634,0.992 1.316,1.95 2.046,2.875c0.731,0.923 1.507,1.806 2.329,2.65c19.15,19.992 72.509,16.692 98.838,17.405l34.641,90.1c-32.25,13.283 -62.941,29.916 -88.266,54.233c-45.121,43.329 -66.234,93.592 -67.254,155.571c-11.088,-5.263 -22.355,-9.996 -34.113,-13.55c-3.108,-0.923 -6.239,-1.767 -9.392,-2.534c-3.15,-0.769 -6.316,-1.459 -9.5,-2.07c-3.186,-0.614 -6.383,-1.149 -9.591,-1.605c-3.211,-0.455 -6.432,-0.832 -9.663,-1.129c-3.227,-0.297 -6.461,-0.515 -9.7,-0.654c-3.241,-0.139 -6.483,-0.197 -9.725,-0.175c-3.241,0.019 -6.482,0.119 -9.721,0.3c-3.238,0.181 -6.47,0.439 -9.695,0.775c-3.225,0.339 -6.439,0.757 -9.642,1.254c-3.206,0.495 -6.397,1.068 -9.575,1.721c-3.175,0.653 -6.333,1.383 -9.475,2.192c-3.139,0.808 -6.257,1.693 -9.354,2.654c-3.097,0.961 -6.17,1.997 -9.217,3.108c-3.044,1.111 -6.061,2.297 -9.05,3.559c-2.989,1.258 -5.944,2.59 -8.867,3.995c-2.922,1.406 -5.808,2.882 -8.658,4.43c-50.237,27.737 -79.892,70.666 -95.525,124.879c-31.467,-2.954 -61.337,-2.65 -92.558,2.566c-11.038,-41.033 -27.925,-79.095 -61.95,-106.1c-43.846,-34.795 -98.663,-40.85 -152.696,-34.25l1.121,-3.429c17.7,-56 16.016,-116.05 -11.588,-168.491c-1.43,-2.706 -2.927,-5.373 -4.491,-8c-1.567,-2.631 -3.198,-5.22 -4.892,-7.767c-1.694,-2.547 -3.451,-5.05 -5.271,-7.508c-1.819,-2.462 -3.7,-4.874 -5.642,-7.238c-1.941,-2.367 -3.94,-4.682 -5.995,-6.946c-2.059,-2.264 -4.173,-4.475 -6.342,-6.633c-2.167,-2.158 -4.388,-4.261 -6.663,-6.308c-2.272,-2.048 -4.595,-4.037 -6.97,-5.967c-2.373,-1.931 -4.793,-3.8 -7.263,-5.608c-2.467,-1.812 -4.978,-3.557 -7.533,-5.238c-2.556,-1.683 -5.152,-3.301 -7.788,-4.854c-2.636,-1.553 -5.309,-3.039 -8.021,-4.458c-2.711,-1.417 -5.455,-2.767 -8.233,-4.05c-2.778,-1.281 -5.587,-2.491 -8.429,-3.63c-2.839,-1.139 -5.704,-2.207 -8.596,-3.204c-2.894,-0.994 -5.811,-1.916 -8.75,-2.766c-64.35,-19.184 -120.692,-0.017 -177.271,30.654c3.721,-24.504 5.234,-51.129 1.404,-75.704c-7.375,-47.338 -31.379,-78.08 -69.287,-105.717c1.242,-29.146 19.633,-133.379 9.937,-152.321c-4.529,-8.854 -13.666,-12.717 -22.691,-15.717c-5.813,-1.929 -11.663,-1.52 -16.9,1.83c-23.654,15.12 -31.15,99.829 -40.334,129.345c-11.695,-2.529 -23.416,-5.058 -35.254,-6.841c-59.962,-9.034 -106.421,6.912 -154.729,42.437c-35.621,-48.333 -72.283,-83.454 -132.325,-97.533c-57.092,-13.388 -103.962,1.333 -152.671,31.2c-17.725,-14.633 -32.787,-29.108 -46.862,-47.404c-68.4,-88.896 -87.942,-189.284 -73.854,-298.896c77.062,58.396 168.291,78.004 264.054,65.925c45.291,-6.992 82.125,-19.5 121.746,-42.525c8.95,20.658 15.404,42.083 20.691,63.958c6.2,25.659 7.584,82.217 29.129,98.779c6.196,4.763 12.18,4.821 19.55,3.525c7.838,-1.375 14.313,-4.816 18.546,-11.787c14.55,-23.958 -0.396,-70.671 -7.375,-95.333c25.646,-1.834 51.384,-1.342 77.046,-3.542c40.463,-3.475 79.675,-11.804 119.1,-21.192c38.038,13.242 61.863,56.663 88.104,85.325c34.338,37.5 142.071,150.934 188.292,157.575c8.342,1.196 15.267,-0.408 21.871,-5.712c5.454,-4.379 11.458,-14.409 11.766,-21.525c0.363,-8.413 -4.312,-13.292 -9.991,-18.704c-18.117,-17.255 -41.679,-30.438 -61.146,-46.45c-37.054,-30.488 -68.879,-66.225 -99.521,-102.963c38.438,10.488 77.983,18.554 115.846,30.888c26.587,28.575 52.667,59.67 76.317,90.72c12.383,16.259 52.383,84.234 66.579,89.938c10.529,4.233 23.921,-0.067 32.858,-5.858c23.758,-15.4 46.063,-43.459 66.604,-63.621c34.592,-33.946 71.063,-68.567 108.5,-99.296c8.963,-7.358 17.813,-11.979 28.792,-15.667c45.425,-15.258 94.929,-22.646 141.317,-35.358c51.608,-14.146 101.225,-34.9 151.616,-52.721c10.125,21.063 19.142,43.067 27.363,64.933c-38.367,13.192 -78.75,21.3 -117.479,33.696c-65.088,20.838 -279.621,102.038 -321.371,147.838c-5.838,6.408 -11.421,15.083 -10.125,24.191c1.279,8.963 9.608,15.375 17.021,19.455c10.079,5.545 17.604,5.383 27.954,1c42.958,-18.213 82.125,-46.113 124.296,-66.28c96.225,-46.012 196.708,-78.67 299.054,-107.937c24.504,47.692 54.225,111.512 100.396,141.65c7.004,4.571 15.545,8.254 24.037,6.192c7.725,-1.871 14.721,-8.721 18.179,-15.705c4.225,-8.529 3.621,-18.704 -0.779,-26.941c-10.15,-18.992 -28.629,-33.909 -40.808,-51.788c-36.729,-53.916 -61.217,-113.516 -80.225,-175.587c46.387,7.491 97.971,2.971 143.029,-9.863c87.458,-24.908 155.25,-80.483 199.025,-159.787Z" style="fill:#7a7bb9;fill-rule:nonzero;"/><path d="M3196.93,463.254c4.021,-0.433 8.271,-0.433 12.321,-0.546c64.35,-1.82 127.633,40.013 172.396,82.696c75.404,71.909 116.746,168.279 119.021,272.304c2.908,132.663 -49.984,258.346 -141.613,353.559c-97.433,101.25 -221.35,150.312 -360.562,153.233l-30.742,-1.267c-21.288,-81.641 -42.733,-142.562 -84.971,-216.891c17.525,-17.388 82.688,-71.467 85.846,-90.196c1.312,-7.8 -0.854,-16.263 -5.55,-22.6c-4.583,-6.188 -10.65,-9.658 -18.354,-10.454c-21.471,-2.217 -84.763,54.275 -101.575,70.371c13.587,-160.192 53.254,-329.505 153.325,-458.946c51.6,-66.746 114.733,-120.367 200.458,-131.263Z" style="fill:#f1c5b9;fill-rule:nonzero;"/><path d="M991.679,1270.55c5.811,-0.511 11.632,-0.88 17.463,-1.108c5.827,-0.225 11.658,-0.308 17.491,-0.25c5.834,0.058 11.663,0.261 17.488,0.608c5.825,0.345 11.636,0.832 17.433,1.463c5.8,0.63 11.582,1.401 17.346,2.312c5.761,0.914 11.497,1.968 17.208,3.163c5.709,1.194 11.385,2.529 17.03,4.004c5.647,1.472 11.252,3.082 16.816,4.829c5.567,1.75 11.086,3.633 16.558,5.65c5.476,2.019 10.896,4.171 16.263,6.454c5.369,2.286 10.679,4.702 15.929,7.246c5.25,2.544 10.433,5.215 15.55,8.013c5.12,2.8 10.167,5.722 15.142,8.766c4.978,3.047 9.876,6.214 14.696,9.5c4.819,3.286 9.555,6.689 14.208,10.209c4.653,3.516 9.218,7.147 13.696,10.891c4.475,3.742 8.855,7.59 13.141,11.546c4.287,3.958 8.474,8.018 12.563,12.179c4.086,4.164 8.069,8.425 11.95,12.783c3.878,4.356 7.647,8.806 11.308,13.351c3.661,4.541 7.209,9.17 10.642,13.887c3.433,4.717 6.749,9.514 9.946,14.392c3.2,4.88 6.278,9.834 9.233,14.862c2.956,5.031 5.785,10.131 8.488,15.3c2.705,5.17 5.283,10.402 7.733,15.696c2.45,5.294 4.768,10.646 6.954,16.054c2.186,5.409 4.239,10.867 6.159,16.375c1.919,5.511 3.702,11.065 5.349,16.663c1.645,5.594 3.153,11.227 4.525,16.9c1.37,5.669 2.6,11.369 3.692,17.1c1.092,5.733 2.042,11.487 2.85,17.262c0.809,5.778 1.475,11.572 2,17.383c0.525,5.812 0.907,11.631 1.146,17.459c0.239,5.83 0.336,11.662 0.292,17.496c-0.048,5.833 -0.238,11.662 -0.571,17.487c-0.331,5.822 -0.804,11.635 -1.421,17.438c-0.619,5.8 -1.379,11.582 -2.279,17.345c-0.9,5.764 -1.942,11.503 -3.125,17.217c-1.181,5.714 -2.502,11.395 -3.963,17.042c-1.461,5.647 -3.058,11.255 -4.791,16.825c-1.736,5.572 -3.607,11.097 -5.613,16.575c-2.008,5.478 -4.148,10.903 -6.421,16.275c-2.272,5.372 -4.675,10.686 -7.208,15.941c-2.533,5.256 -5.193,10.446 -7.979,15.571c-2.786,5.125 -5.697,10.179 -8.733,15.163c-3.037,4.983 -6.192,9.887 -9.467,14.712c-3.275,4.828 -6.667,9.573 -10.175,14.234c-3.509,4.661 -7.129,9.234 -10.863,13.72c-3.73,4.484 -7.569,8.873 -11.516,13.167c-3.95,4.297 -8.002,8.493 -12.154,12.588c-4.153,4.097 -8.405,8.09 -12.755,11.979c-4.347,3.889 -8.789,7.668 -13.325,11.337c-4.533,3.673 -9.154,7.231 -13.862,10.675c-4.708,3.445 -9.499,6.771 -14.371,9.979c-4.872,3.209 -9.821,6.296 -14.846,9.263c-5.022,2.967 -10.115,5.808 -15.279,8.525c-5.161,2.717 -10.386,5.306 -15.675,7.767c-5.292,2.461 -10.639,4.791 -16.042,6.991c-5.402,2.198 -10.857,4.261 -16.362,6.192c-5.506,1.933 -11.054,3.729 -16.646,5.387c-5.594,1.659 -11.225,3.18 -16.892,4.563c-5.669,1.383 -11.368,2.626 -17.095,3.729c-5.728,1.106 -11.48,2.07 -17.255,2.892c-5.777,0.819 -11.57,1.498 -17.379,2.037c-5.825,0.539 -11.66,0.935 -17.504,1.188c-5.847,0.253 -11.696,0.361 -17.546,0.325c-5.85,-0.034 -11.696,-0.211 -17.537,-0.534c-5.842,-0.325 -11.673,-0.791 -17.492,-1.4c-5.817,-0.608 -11.617,-1.359 -17.4,-2.254c-5.781,-0.894 -11.536,-1.93 -17.267,-3.108c-5.73,-1.178 -11.429,-2.496 -17.095,-3.954c-5.667,-1.456 -11.294,-3.052 -16.88,-4.788c-5.589,-1.733 -11.13,-3.602 -16.625,-5.608c-5.497,-2.008 -10.94,-4.15 -16.329,-6.425c-5.391,-2.272 -10.723,-4.676 -15.996,-7.213c-5.272,-2.538 -10.477,-5.204 -15.616,-7.995c-5.142,-2.792 -10.211,-5.709 -15.209,-8.75c-5,-3.042 -9.92,-6.205 -14.762,-9.488c-4.842,-3.283 -9.6,-6.685 -14.275,-10.204c-4.675,-3.517 -9.261,-7.147 -13.758,-10.892c-4.495,-3.741 -8.896,-7.591 -13.205,-11.55c-4.305,-3.961 -8.512,-8.025 -12.62,-12.191c-4.109,-4.167 -8.112,-8.431 -12.009,-12.792c-3.897,-4.364 -7.685,-8.821 -11.362,-13.371c-3.681,-4.547 -7.246,-9.183 -10.696,-13.908c-3.45,-4.725 -6.782,-9.532 -9.996,-14.421c-3.214,-4.889 -6.307,-9.853 -9.279,-14.892c-2.97,-5.041 -5.814,-10.152 -8.533,-15.333c-2.717,-5.181 -5.306,-10.425 -7.767,-15.733c-2.461,-5.306 -4.79,-10.67 -6.988,-16.092c-2.197,-5.422 -4.261,-10.896 -6.191,-16.421c-1.928,-5.522 -3.718,-11.09 -5.371,-16.704c-1.656,-5.611 -3.172,-11.26 -4.55,-16.946c-1.375,-5.686 -2.611,-11.403 -3.708,-17.15c-1.095,-5.747 -2.048,-11.518 -2.859,-17.312c-0.814,-5.792 -1.483,-11.602 -2.008,-17.43c-0.525,-5.827 -0.908,-11.663 -1.15,-17.508c-0.239,-5.844 -0.333,-11.693 -0.283,-17.546c0.047,-5.85 0.238,-11.694 0.575,-17.533c0.336,-5.842 0.815,-11.671 1.437,-17.488c0.622,-5.816 1.386,-11.615 2.292,-17.395c0.908,-5.781 1.957,-11.535 3.146,-17.263c1.191,-5.728 2.522,-11.422 3.991,-17.083c1.47,-5.664 3.078,-11.288 4.825,-16.871c1.747,-5.583 3.631,-11.121 5.65,-16.613c2.02,-5.491 4.172,-10.929 6.459,-16.312c2.286,-5.386 4.702,-10.713 7.25,-15.979c2.55,-5.267 5.226,-10.467 8.029,-15.6c2.802,-5.136 5.73,-10.2 8.783,-15.192c3.053,-4.989 6.226,-9.901 9.521,-14.737c3.294,-4.834 6.705,-9.584 10.233,-14.25c3.528,-4.67 7.168,-9.248 10.921,-13.734c3.756,-4.489 7.617,-8.882 11.583,-13.179c3.97,-4.3 8.042,-8.498 12.217,-12.596c4.175,-4.097 8.449,-8.09 12.821,-11.979c4.372,-3.889 8.837,-7.667 13.396,-11.333c4.555,-3.67 9.2,-7.224 13.933,-10.663c4.733,-3.441 9.547,-6.764 14.442,-9.966c4.894,-3.203 9.865,-6.284 14.912,-9.242c5.047,-2.958 10.164,-5.792 15.35,-8.5c5.186,-2.708 10.436,-5.286 15.75,-7.733c5.314,-2.45 10.685,-4.768 16.113,-6.955c5.425,-2.183 10.901,-4.233 16.429,-6.15c5.528,-1.916 11.1,-3.695 16.717,-5.337c5.613,-1.642 11.265,-3.144 16.954,-4.508c5.691,-1.364 11.411,-2.588 17.158,-3.671c5.75,-1.084 11.524,-2.025 17.321,-2.825c5.794,-0.797 11.605,-1.453 17.433,-1.967Z" style="fill:#5a778f;fill-rule:nonzero;"/><path d="M991.842,1321.06c4.969,-0.489 9.947,-0.855 14.933,-1.1c4.986,-0.247 9.976,-0.37 14.971,-0.37c4.992,-0.001 9.98,0.12 14.967,0.362c4.988,0.242 9.968,0.607 14.937,1.096c4.967,0.486 9.921,1.093 14.863,1.821c4.938,0.73 9.856,1.58 14.754,2.55c4.897,0.969 9.768,2.058 14.612,3.266c4.845,1.206 9.657,2.531 14.438,3.975c4.78,1.445 9.522,3.005 14.225,4.679c4.702,1.675 9.362,3.464 13.979,5.367c4.614,1.903 9.18,3.918 13.7,6.046c4.517,2.128 8.978,4.364 13.383,6.708c4.409,2.345 8.757,4.796 13.046,7.354c4.289,2.559 8.511,5.22 12.667,7.984c4.158,2.764 8.245,5.628 12.262,8.591c4.02,2.964 7.963,6.025 11.829,9.184c3.867,3.158 7.656,6.408 11.367,9.75c3.708,3.341 7.332,6.773 10.871,10.296c3.542,3.519 6.994,7.123 10.358,10.812c3.367,3.689 6.639,7.458 9.817,11.309c3.18,3.847 6.265,7.77 9.254,11.77c2.989,4 5.878,8.071 8.667,12.213c2.789,4.142 5.475,8.348 8.058,12.621c2.581,4.272 5.057,8.605 7.429,13c2.372,4.394 4.635,8.844 6.788,13.35c2.152,4.502 4.194,9.057 6.125,13.662c1.93,4.606 3.747,9.254 5.45,13.946c1.702,4.694 3.29,9.426 4.762,14.196c1.472,4.772 2.827,9.576 4.063,14.412c1.236,4.839 2.352,9.705 3.35,14.596c1,4.892 1.877,9.806 2.633,14.742c0.758,4.933 1.396,9.883 1.913,14.85c0.516,4.967 0.911,9.943 1.183,14.929c0.272,4.983 0.422,9.972 0.45,14.967c0.028,4.991 -0.067,9.982 -0.283,14.971c-0.214,4.988 -0.552,9.968 -1.013,14.937c-0.458,4.972 -1.039,9.931 -1.742,14.875c-0.702,4.942 -1.525,9.864 -2.466,14.767c-0.945,4.905 -2.007,9.783 -3.188,14.633c-1.183,4.85 -2.483,9.669 -3.9,14.458c-1.416,4.786 -2.95,9.536 -4.6,14.25c-1.65,4.711 -3.414,9.381 -5.292,14.009c-1.88,4.625 -3.87,9.201 -5.97,13.729c-2.103,4.53 -4.316,9.005 -6.638,13.425c-2.319,4.419 -4.747,8.78 -7.283,13.083c-2.534,4.303 -5.171,8.54 -7.913,12.713c-2.744,4.172 -5.587,8.275 -8.529,12.308c-2.942,4.033 -5.98,7.992 -9.117,11.875c-3.138,3.886 -6.369,7.693 -9.691,11.421c-3.322,3.725 -6.734,7.368 -10.234,10.929c-3.5,3.558 -7.086,7.031 -10.758,10.417c-3.669,3.383 -7.421,6.675 -11.254,9.875c-3.831,3.202 -7.738,6.308 -11.721,9.316c-3.986,3.011 -8.042,5.923 -12.167,8.734c-4.125,2.811 -8.318,5.519 -12.579,8.125c-4.258,2.605 -8.577,5.105 -12.958,7.5c-4.381,2.394 -8.818,4.68 -13.313,6.858c-4.491,2.178 -9.034,4.244 -13.629,6.2c-4.594,1.956 -9.233,3.799 -13.916,5.529c-4.684,1.728 -9.407,3.34 -14.171,4.838c-4.764,1.497 -9.561,2.876 -14.392,4.137c-4.83,1.264 -9.689,2.409 -14.575,3.434c-4.886,1.025 -9.794,1.929 -14.725,2.712c-4.93,0.786 -9.878,1.45 -14.842,1.992c-4.997,0.547 -10.005,0.971 -15.025,1.271c-5.016,0.297 -10.038,0.472 -15.066,0.525c-5.028,0.052 -10.053,-0.019 -15.075,-0.213c-5.025,-0.197 -10.042,-0.517 -15.05,-0.958c-5.009,-0.442 -10.002,-1.007 -14.979,-1.696c-4.981,-0.689 -9.942,-1.5 -14.884,-2.433c-4.939,-0.934 -9.852,-1.988 -14.741,-3.163c-4.889,-1.175 -9.745,-2.469 -14.567,-3.883c-4.825,-1.414 -9.613,-2.946 -14.363,-4.596c-4.747,-1.65 -9.452,-3.417 -14.116,-5.3c-4.661,-1.881 -9.274,-3.875 -13.838,-5.983c-4.564,-2.112 -9.072,-4.332 -13.525,-6.663c-4.455,-2.331 -8.85,-4.769 -13.183,-7.317c-4.333,-2.55 -8.601,-5.202 -12.804,-7.958c-4.206,-2.758 -8.339,-5.619 -12.4,-8.583c-4.064,-2.961 -8.052,-6.021 -11.963,-9.179c-3.911,-3.159 -7.741,-6.412 -11.491,-9.759c-3.753,-3.344 -7.42,-6.78 -11,-10.308c-3.584,-3.528 -7.077,-7.142 -10.48,-10.842c-3.405,-3.7 -6.716,-7.48 -9.933,-11.341c-3.219,-3.864 -6.34,-7.805 -9.362,-11.821c-3.025,-4.017 -5.949,-8.106 -8.771,-12.267c-2.822,-4.161 -5.54,-8.389 -8.154,-12.683c-2.614,-4.295 -5.121,-8.65 -7.521,-13.067c-2.397,-4.417 -4.686,-8.89 -6.867,-13.421c-2.178,-4.533 -4.243,-9.115 -6.196,-13.746c-1.952,-4.633 -3.791,-9.311 -5.516,-14.033c-1.723,-4.722 -3.328,-9.485 -4.817,-14.287c-1.486,-4.803 -2.854,-9.639 -4.104,-14.509c-1.25,-4.869 -2.379,-9.766 -3.388,-14.691c-1.008,-4.925 -1.896,-9.873 -2.662,-14.842c-0.764,-4.97 -1.406,-9.954 -1.925,-14.954c-0.52,-5 -0.915,-10.01 -1.188,-15.029c-0.272,-5.023 -0.421,-10.046 -0.446,-15.071c-0.025,-5.028 0.074,-10.053 0.296,-15.075c0.223,-5.023 0.568,-10.036 1.038,-15.042c0.469,-5.006 1.062,-9.997 1.779,-14.975c0.717,-4.975 1.554,-9.931 2.512,-14.867c0.959,-4.933 2.039,-9.841 3.242,-14.725c1.2,-4.88 2.521,-9.729 3.963,-14.545c1.441,-4.817 3,-9.595 4.675,-14.334c1.675,-4.741 3.466,-9.437 5.375,-14.087c1.905,-4.653 3.925,-9.256 6.058,-13.809c2.136,-4.55 4.381,-9.045 6.733,-13.487c2.356,-4.442 4.82,-8.822 7.392,-13.142c2.572,-4.322 5.249,-8.576 8.029,-12.762c2.781,-4.189 5.663,-8.307 8.646,-12.354c2.983,-4.045 6.064,-8.014 9.242,-11.909c3.18,-3.894 6.454,-7.708 9.82,-11.441c3.367,-3.734 6.824,-7.382 10.371,-10.946c3.548,-3.564 7.179,-7.038 10.896,-10.421c3.72,-3.383 7.52,-6.674 11.4,-9.871c3.881,-3.197 7.836,-6.296 11.867,-9.296c4.033,-3.003 8.137,-5.904 12.312,-8.704c4.178,-2.8 8.421,-5.494 12.729,-8.083c4.309,-2.592 8.678,-5.075 13.109,-7.45c4.43,-2.375 8.916,-4.641 13.458,-6.796c4.542,-2.156 9.135,-4.197 13.779,-6.125c4.642,-1.928 9.329,-3.74 14.063,-5.438c4.73,-1.697 9.501,-3.276 14.312,-4.737c4.811,-1.461 9.654,-2.804 14.529,-4.029c4.875,-1.223 9.778,-2.325 14.709,-3.309c4.93,-0.98 9.883,-1.84 14.858,-2.579c4.972,-0.739 9.96,-1.354 14.963,-1.846Z" style="fill:#333944;fill-rule:nonzero;"/><path d="M998.688,1380c4.011,-0.367 8.027,-0.635 12.05,-0.804c4.022,-0.17 8.047,-0.241 12.075,-0.213c4.027,0.028 8.051,0.153 12.07,0.375c4.023,0.225 8.035,0.547 12.038,0.967c4.005,0.419 7.998,0.937 11.979,1.554c3.981,0.614 7.943,1.325 11.887,2.133c3.945,0.811 7.867,1.717 11.767,2.717c3.9,1 7.774,2.096 11.621,3.287c3.847,1.189 7.663,2.473 11.446,3.85c3.786,1.378 7.535,2.846 11.246,4.405c3.714,1.561 7.386,3.211 11.016,4.95c3.631,1.739 7.218,3.566 10.763,5.483c3.541,1.914 7.035,3.914 10.479,6c3.444,2.086 6.836,4.256 10.175,6.508c3.339,2.25 6.621,4.582 9.846,6.996c3.222,2.411 6.385,4.9 9.487,7.467c3.103,2.566 6.142,5.208 9.117,7.925c2.972,2.714 5.878,5.5 8.717,8.358c2.836,2.858 5.601,5.783 8.295,8.775c2.695,2.995 5.314,6.052 7.859,9.171c2.547,3.122 5.015,6.303 7.404,9.542c2.389,3.241 4.697,6.54 6.925,9.895c2.228,3.353 4.372,6.76 6.433,10.221c2.061,3.459 4.038,6.966 5.929,10.521c1.889,3.556 3.691,7.156 5.405,10.8c1.714,3.645 3.337,7.328 4.87,11.05c1.537,3.725 2.98,7.485 4.33,11.279c1.35,3.792 2.605,7.616 3.766,11.471c1.164,3.856 2.232,7.738 3.204,11.646c0.975,3.908 1.853,7.837 2.634,11.787c0.78,3.95 1.465,7.917 2.054,11.9c0.586,3.984 1.075,7.98 1.467,11.988c0.391,4.008 0.684,8.024 0.879,12.046c0.197,4.022 0.294,8.046 0.291,12.071c0,4.027 -0.1,8.052 -0.3,12.075c-0.197,4.022 -0.493,8.037 -0.887,12.045c-0.394,4.006 -0.886,8.002 -1.475,11.988c-0.592,3.983 -1.279,7.95 -2.063,11.9c-0.783,3.95 -1.662,7.878 -2.637,11.783c-0.975,3.909 -2.046,7.789 -3.213,11.642c-1.166,3.856 -2.426,7.679 -3.779,11.471c-1.352,3.794 -2.797,7.553 -4.333,11.275c-1.536,3.722 -3.163,7.404 -4.879,11.046c-1.714,3.644 -3.518,7.243 -5.413,10.795c-1.891,3.556 -3.869,7.063 -5.933,10.521c-2.064,3.459 -4.211,6.864 -6.442,10.217c-2.23,3.353 -4.541,6.649 -6.933,9.887c-2.392,3.239 -4.86,6.419 -7.404,9.538c-2.547,3.119 -5.17,6.175 -7.867,9.167c-2.697,2.991 -5.465,5.915 -8.304,8.77c-2.839,2.856 -5.746,5.641 -8.721,8.355c-2.975,2.711 -6.015,5.35 -9.121,7.916c-3.105,2.564 -6.271,5.052 -9.496,7.463c-3.225,2.408 -6.508,4.737 -9.85,6.987c-3.338,2.25 -6.731,4.417 -10.179,6.5c-3.444,2.084 -6.939,4.082 -10.483,5.996c-3.544,1.911 -7.133,3.736 -10.767,5.475c-3.633,1.736 -7.305,3.383 -11.016,4.942c-3.714,1.558 -7.464,3.023 -11.25,4.396c-3.786,1.375 -7.603,2.657 -11.45,3.845c-3.848,1.187 -7.721,2.28 -11.621,3.28c-3.903,0.997 -7.827,1.898 -11.771,2.704c-3.944,0.808 -7.907,1.518 -11.887,2.129c-3.981,0.614 -7.974,1.129 -11.98,1.546c-4.039,0.422 -8.084,0.743 -12.137,0.962c-4.053,0.223 -8.11,0.345 -12.171,0.367c-4.061,0.019 -8.119,-0.06 -12.175,-0.238c-4.056,-0.177 -8.104,-0.455 -12.146,-0.833c-4.042,-0.38 -8.072,-0.858 -12.092,-1.433c-4.019,-0.578 -8.02,-1.254 -12.004,-2.029c-3.986,-0.773 -7.95,-1.643 -11.891,-2.613c-3.945,-0.972 -7.861,-2.039 -11.75,-3.2c-3.889,-1.164 -7.748,-2.422 -11.575,-3.775c-3.828,-1.353 -7.621,-2.798 -11.38,-4.337c-3.755,-1.539 -7.47,-3.171 -11.145,-4.896c-3.678,-1.722 -7.31,-3.535 -10.896,-5.438c-3.586,-1.902 -7.124,-3.891 -10.613,-5.966c-3.489,-2.078 -6.925,-4.239 -10.308,-6.484c-3.381,-2.247 -6.706,-4.575 -9.975,-6.983c-3.267,-2.411 -6.472,-4.9 -9.617,-7.467c-3.144,-2.569 -6.223,-5.214 -9.237,-7.933c-3.014,-2.719 -5.96,-5.511 -8.838,-8.375c-2.877,-2.864 -5.682,-5.797 -8.412,-8.8c-2.734,-3.003 -5.39,-6.072 -7.971,-9.208c-2.581,-3.134 -5.082,-6.33 -7.504,-9.588c-2.425,-3.255 -4.767,-6.569 -7.025,-9.942c-2.261,-3.375 -4.436,-6.801 -6.525,-10.279c-2.092,-3.48 -4.096,-7.011 -6.013,-10.591c-1.916,-3.578 -3.744,-7.202 -5.483,-10.871c-1.739,-3.67 -3.386,-7.379 -4.942,-11.129c-1.555,-3.75 -3.018,-7.536 -4.387,-11.359c-1.367,-3.822 -2.64,-7.675 -3.821,-11.558c-1.178,-3.886 -2.26,-7.799 -3.246,-11.738c-0.986,-3.938 -1.875,-7.898 -2.667,-11.879c-0.788,-3.983 -1.48,-7.982 -2.075,-11.996c-0.594,-4.016 -1.088,-8.045 -1.483,-12.087c-0.394,-4.042 -0.69,-8.089 -0.887,-12.142c-0.195,-4.055 -0.289,-8.114 -0.284,-12.175c0.003,-4.058 0.107,-8.115 0.313,-12.171c0.205,-4.055 0.51,-8.102 0.912,-12.141c0.406,-4.042 0.91,-8.07 1.513,-12.084c0.603,-4.013 1.304,-8.011 2.104,-11.991c0.797,-3.981 1.694,-7.939 2.692,-11.875c0.994,-3.936 2.084,-7.846 3.27,-11.729c1.189,-3.881 2.473,-7.731 3.85,-11.55c1.378,-3.82 2.849,-7.603 4.413,-11.35c1.564,-3.748 3.218,-7.453 4.962,-11.117c1.748,-3.667 3.584,-7.286 5.509,-10.858c1.925,-3.575 3.937,-7.1 6.037,-10.575c2.098,-3.475 4.281,-6.898 6.55,-10.267c2.267,-3.367 4.616,-6.676 7.046,-9.929c2.431,-3.253 4.94,-6.443 7.529,-9.571c2.586,-3.128 5.249,-6.19 7.988,-9.188c2.739,-2.997 5.55,-5.925 8.433,-8.783c2.883,-2.858 5.836,-5.643 8.858,-8.354c3.02,-2.714 6.105,-5.351 9.255,-7.913c3.15,-2.561 6.362,-5.041 9.637,-7.441c3.272,-2.403 6.602,-4.724 9.988,-6.963c3.389,-2.239 6.829,-4.391 10.32,-6.458c3.495,-2.069 7.038,-4.051 10.63,-5.946c3.589,-1.894 7.223,-3.698 10.904,-5.412c3.68,-1.714 7.401,-3.338 11.162,-4.871c3.759,-1.531 7.553,-2.968 11.384,-4.313c3.833,-1.344 7.695,-2.593 11.587,-3.745c3.892,-1.156 7.81,-2.213 11.754,-3.171c3.945,-0.961 7.911,-1.825 11.9,-2.592c3.986,-0.764 7.989,-1.431 12.009,-2c4.022,-0.567 8.054,-1.035 12.095,-1.404Z" style="fill:#afcbd3;fill-rule:nonzero;"/><path d="M1004.49,1440.03c11.883,-1.404 23.691,-0.554 35.604,0.017c3.912,2.745 8.287,5.762 11.525,9.287c5.941,6.458 8.725,16.471 7.529,25.079c-5.004,36.042 -65.404,62.746 -86.763,91.634c-18.087,24.466 -24.137,53.591 -49.925,71.92c-10.966,3.213 -21.441,3.805 -32.362,-0.195c-6.754,-2.475 -11.209,-7.259 -13.779,-13.884c-7.055,-18.171 -2.438,-41.354 4.9,-58.683c22.845,-53.95 68.495,-103.379 123.27,-125.175Z" style="fill:#d7ebef;fill-rule:nonzero;"/><path d="M1903.01,1316.16c5.778,-0.514 11.564,-0.885 17.359,-1.113c5.797,-0.231 11.596,-0.318 17.396,-0.263c5.8,0.056 11.595,0.253 17.387,0.592c5.789,0.342 11.567,0.824 17.333,1.446c5.767,0.625 11.516,1.39 17.246,2.296c5.731,0.905 11.435,1.951 17.113,3.137c5.677,1.186 11.322,2.51 16.933,3.971c5.614,1.464 11.188,3.064 16.721,4.8c5.536,1.739 11.025,3.611 16.466,5.617c5.442,2.005 10.832,4.144 16.171,6.417c5.336,2.269 10.614,4.669 15.834,7.2c5.219,2.53 10.375,5.187 15.466,7.97c5.089,2.781 10.106,5.686 15.05,8.717c4.948,3.031 9.817,6.179 14.609,9.446c4.791,3.269 9.501,6.654 14.129,10.154c4.625,3.5 9.161,7.111 13.608,10.833c4.45,3.723 8.804,7.552 13.063,11.488c4.261,3.936 8.423,7.975 12.487,12.116c4.061,4.139 8.018,8.377 11.871,12.713c3.856,4.333 7.601,8.76 11.238,13.279c3.636,4.52 7.159,9.125 10.57,13.817c3.411,4.691 6.706,9.464 9.884,14.316c3.175,4.853 6.229,9.782 9.162,14.788c2.936,5.003 5.747,10.075 8.434,15.217c2.683,5.141 5.24,10.345 7.67,15.612c2.431,5.267 4.729,10.59 6.896,15.971c2.17,5.381 4.206,10.81 6.108,16.287c1.9,5.481 3.666,11.005 5.296,16.571c1.631,5.567 3.124,11.17 4.479,16.809c1.356,5.641 2.573,11.311 3.65,17.008c1.078,5.7 2.016,11.424 2.813,17.171c0.794,5.744 1.449,11.505 1.963,17.283c0.513,5.778 0.884,11.564 1.112,17.359c0.231,5.797 0.318,11.595 0.262,17.395c-0.055,5.8 -0.252,11.596 -0.591,17.388c-0.342,5.789 -0.824,11.567 -1.446,17.333c-0.625,5.767 -1.39,11.515 -2.296,17.246c-0.905,5.728 -1.951,11.431 -3.137,17.108c-1.186,5.678 -2.511,11.324 -3.975,16.938c-1.461,5.611 -3.061,11.185 -4.8,16.721c-1.736,5.533 -3.607,11.02 -5.613,16.462c-2.005,5.445 -4.144,10.835 -6.417,16.171c-2.269,5.339 -4.669,10.618 -7.2,15.837c-2.53,5.22 -5.187,10.374 -7.97,15.463c-2.784,5.089 -5.689,10.107 -8.717,15.054c-3.031,4.945 -6.179,9.813 -9.446,14.604c-3.269,4.792 -6.654,9.502 -10.154,14.129c-3.5,4.625 -7.111,9.162 -10.833,13.609c-3.723,4.45 -7.552,8.804 -11.488,13.062c-3.936,4.261 -7.973,8.424 -12.112,12.488c-4.142,4.061 -8.381,8.018 -12.717,11.871c-4.333,3.855 -8.76,7.601 -13.279,11.237c-4.52,3.636 -9.125,7.16 -13.817,10.571c-4.692,3.411 -9.464,6.704 -14.317,9.879c-4.852,3.178 -9.78,6.234 -14.783,9.167c-5.003,2.936 -10.075,5.746 -15.217,8.429c-5.141,2.686 -10.345,5.244 -15.612,7.675c-5.267,2.431 -10.59,4.729 -15.971,6.896c-5.38,2.169 -10.811,4.204 -16.292,6.104c-5.477,1.903 -11,3.669 -16.566,5.3c-5.567,1.631 -11.17,3.124 -16.809,4.479c-5.641,1.356 -11.312,2.572 -17.012,3.65c-5.697,1.078 -11.419,2.014 -17.167,2.808c-5.744,0.798 -11.505,1.453 -17.283,1.967c-5.778,0.514 -11.564,0.885 -17.358,1.113c-5.798,0.23 -11.596,0.318 -17.396,0.262c-5.8,-0.055 -11.596,-0.253 -17.388,-0.591c-5.789,-0.342 -11.566,-0.824 -17.333,-1.446c-5.767,-0.625 -11.515,-1.391 -17.246,-2.296c-5.728,-0.906 -11.43,-1.952 -17.108,-3.138c-5.678,-1.186 -11.324,-2.509 -16.938,-3.971c-5.614,-1.463 -11.187,-3.063 -16.721,-4.8c-5.533,-1.736 -11.022,-3.608 -16.466,-5.616c-5.442,-2.006 -10.831,-4.143 -16.167,-6.413c-5.339,-2.272 -10.618,-4.673 -15.837,-7.204c-5.22,-2.528 -10.374,-5.183 -15.463,-7.967c-5.089,-2.783 -10.107,-5.69 -15.054,-8.72c-4.947,-3.028 -9.817,-6.177 -14.608,-9.446c-4.792,-3.27 -9.5,-6.653 -14.125,-10.15c-4.625,-3.5 -9.163,-7.111 -13.613,-10.834c-4.447,-3.722 -8.801,-7.551 -13.062,-11.487c-4.261,-3.936 -8.423,-7.975 -12.484,-12.117c-4.064,-4.141 -8.022,-8.379 -11.875,-12.712c-3.855,-4.336 -7.601,-8.763 -11.237,-13.279c-3.636,-4.52 -7.16,-9.125 -10.571,-13.817c-3.411,-4.692 -6.704,-9.464 -9.879,-14.317c-3.178,-4.855 -6.234,-9.784 -9.167,-14.787c-2.936,-5.003 -5.746,-10.075 -8.429,-15.217c-2.686,-5.141 -5.244,-10.346 -7.675,-15.612c-2.428,-5.267 -4.726,-10.591 -6.896,-15.971c-2.169,-5.381 -4.204,-10.81 -6.104,-16.288c-1.903,-5.48 -3.669,-11.004 -5.3,-16.571c-1.631,-5.566 -3.124,-11.169 -4.479,-16.808c-1.356,-5.641 -2.572,-11.311 -3.65,-17.008c-1.078,-5.7 -2.014,-11.424 -2.809,-17.171c-0.797,-5.744 -1.452,-11.506 -1.966,-17.283c-0.514,-5.778 -0.885,-11.564 -1.113,-17.359c-0.23,-5.797 -0.318,-11.596 -0.262,-17.396c0.055,-5.8 0.253,-11.595 0.591,-17.387c0.342,-5.789 0.824,-11.567 1.446,-17.333c0.625,-5.767 1.391,-11.516 2.296,-17.246c0.906,-5.728 1.952,-11.431 3.138,-17.109c1.186,-5.677 2.509,-11.323 3.97,-16.937c1.464,-5.614 3.064,-11.188 4.8,-16.721c1.739,-5.533 3.612,-11.022 5.617,-16.467c2.006,-5.441 4.143,-10.83 6.413,-16.166c2.272,-5.339 4.673,-10.618 7.204,-15.838c2.528,-5.219 5.183,-10.373 7.966,-15.462c2.784,-5.089 5.691,-10.107 8.721,-15.054c3.028,-4.948 6.177,-9.817 9.446,-14.609c3.27,-4.791 6.654,-9.5 10.154,-14.125c3.498,-4.627 7.107,-9.165 10.829,-13.612c3.723,-4.447 7.553,-8.802 11.492,-13.063c3.936,-4.261 7.974,-8.422 12.113,-12.483c4.141,-4.064 8.379,-8.022 12.712,-11.875c4.336,-3.856 8.764,-7.601 13.283,-11.238c4.517,-3.636 9.121,-7.159 13.813,-10.57c4.692,-3.411 9.465,-6.705 14.321,-9.88c4.853,-3.177 9.78,-6.233 14.783,-9.166c5.003,-2.934 10.075,-5.743 15.217,-8.429c5.141,-2.686 10.346,-5.245 15.612,-7.675c5.267,-2.428 10.591,-4.727 15.971,-6.896c5.381,-2.17 10.81,-4.204 16.288,-6.104c5.48,-1.903 11.004,-3.67 16.57,-5.3c5.567,-1.631 11.17,-3.124 16.809,-4.48c5.641,-1.355 11.311,-2.572 17.008,-3.65c5.7,-1.077 11.424,-2.015 17.171,-2.812c5.744,-0.794 11.506,-1.449 17.283,-1.963Z" style="fill:#5a778f;fill-rule:nonzero;"/><path d="M1917.88,1364.9c4.972,-0.272 9.949,-0.422 14.929,-0.45c4.981,-0.028 9.958,0.067 14.934,0.284c4.975,0.216 9.941,0.555 14.9,1.016c4.958,0.458 9.902,1.039 14.833,1.742c4.93,0.703 9.84,1.526 14.729,2.471c4.889,0.944 9.753,2.007 14.592,3.187c4.839,1.184 9.644,2.484 14.416,3.9c4.775,1.417 9.511,2.95 14.209,4.6c4.7,1.65 9.355,3.414 13.966,5.292c4.614,1.878 9.178,3.868 13.692,5.971c4.514,2.102 8.974,4.314 13.379,6.633c4.406,2.322 8.753,4.75 13.042,7.283c4.286,2.534 8.508,5.171 12.667,7.913c4.158,2.742 8.245,5.583 12.262,8.525c4.019,2.942 7.964,5.979 11.833,9.112c3.87,3.136 7.66,6.366 11.371,9.688c3.711,3.319 7.339,6.729 10.883,10.229c3.542,3.497 6.998,7.081 10.367,10.75c3.367,3.667 6.643,7.415 9.829,11.246c3.184,3.828 6.271,7.732 9.263,11.712c2.994,3.981 5.887,8.032 8.679,12.154c2.794,4.123 5.486,8.312 8.075,12.567c2.589,4.253 5.072,8.568 7.45,12.946c2.375,4.375 4.643,8.807 6.804,13.296c2.159,4.486 4.207,9.023 6.146,13.612c1.936,4.586 3.76,9.218 5.471,13.896c1.708,4.678 3.301,9.395 4.779,14.15c1.481,4.756 2.842,9.545 4.083,14.367c1.245,4.822 2.37,9.672 3.375,14.55c1.006,4.875 1.892,9.773 2.659,14.696c0.764,4.919 1.408,9.855 1.933,14.808c0.522,4.953 0.924,9.915 1.204,14.887c0.281,4.973 0.439,9.949 0.475,14.93c0.036,4.977 -0.05,9.955 -0.258,14.933c-0.209,4.975 -0.539,9.942 -0.992,14.9c-0.453,4.961 -1.026,9.907 -1.721,14.837c-0.691,4.931 -1.505,9.842 -2.441,14.734c-0.936,4.891 -1.991,9.757 -3.163,14.596c-1.175,4.841 -2.468,9.65 -3.879,14.425c-1.408,4.777 -2.933,9.516 -4.575,14.216c-1.642,4.703 -3.399,9.361 -5.271,13.975c-1.869,4.617 -3.851,9.184 -5.946,13.7c-2.094,4.52 -4.298,8.985 -6.612,13.396c-2.314,4.409 -4.735,8.758 -7.263,13.05c-2.525,4.292 -5.155,8.518 -7.891,12.679c-2.734,4.164 -5.568,8.257 -8.505,12.28c-2.933,4.022 -5.963,7.97 -9.091,11.845c-3.131,3.875 -6.353,7.671 -9.667,11.388c-3.314,3.717 -6.718,7.35 -10.212,10.9c-3.492,3.55 -7.07,7.012 -10.734,10.387c-3.661,3.373 -7.404,6.655 -11.229,9.846c-3.825,3.189 -7.725,6.284 -11.7,9.284c-3.975,2.999 -8.021,5.9 -12.137,8.699c-4.12,2.803 -8.305,5.502 -12.555,8.096c-4.25,2.595 -8.561,5.085 -12.933,7.471c-4.372,2.384 -8.8,4.659 -13.283,6.825c-4.484,2.167 -9.018,4.222 -13.604,6.167c-4.584,1.944 -9.213,3.776 -13.888,5.496c-4.675,1.716 -9.389,3.318 -14.142,4.804c-4.752,1.486 -9.538,2.855 -14.358,4.108c-4.819,1.25 -9.668,2.382 -14.546,3.396c-4.875,1.014 -9.772,1.908 -14.691,2.683c-4.92,0.773 -9.856,1.425 -14.809,1.959c-4.95,0.53 -9.911,0.94 -14.883,1.229c-4.983,0.289 -9.969,0.455 -14.958,0.5c-4.992,0.044 -9.981,-0.035 -14.967,-0.238c-4.986,-0.2 -9.964,-0.523 -14.933,-0.97c-4.973,-0.448 -9.93,-1.016 -14.871,-1.705c-4.942,-0.689 -9.864,-1.5 -14.767,-2.433c-4.903,-0.931 -9.78,-1.982 -14.633,-3.154c-4.85,-1.17 -9.67,-2.458 -14.459,-3.867c-4.788,-1.408 -9.538,-2.933 -14.25,-4.575c-4.713,-1.642 -9.383,-3.398 -14.008,-5.271c-4.628,-1.872 -9.205,-3.855 -13.733,-5.95c-4.531,-2.097 -9.006,-4.304 -13.425,-6.62c-4.42,-2.314 -8.781,-4.737 -13.084,-7.267c-4.3,-2.531 -8.536,-5.165 -12.708,-7.904c-4.172,-2.739 -8.275,-5.58 -12.308,-8.521c-4.034,-2.939 -7.992,-5.977 -11.875,-9.113c-3.881,-3.133 -7.684,-6.361 -11.409,-9.683c-3.725,-3.322 -7.365,-6.733 -10.92,-10.233c-3.559,-3.5 -7.028,-7.086 -10.409,-10.759c-3.38,-3.672 -6.669,-7.423 -9.866,-11.254c-3.195,-3.833 -6.295,-7.743 -9.3,-11.729c-3.003,-3.986 -5.907,-8.043 -8.713,-12.171c-2.803,-4.128 -5.504,-8.322 -8.104,-12.583c-2.597,-4.259 -5.089,-8.579 -7.475,-12.963c-2.386,-4.383 -4.664,-8.823 -6.833,-13.321c-2.167,-4.494 -4.223,-9.038 -6.167,-13.633c-1.944,-4.597 -3.775,-9.239 -5.492,-13.925c-1.716,-4.686 -3.316,-9.411 -4.8,-14.175c-1.483,-4.767 -2.85,-9.565 -4.1,-14.396c-1.247,-4.833 -2.376,-9.693 -3.387,-14.579c-1.009,-4.889 -1.896,-9.798 -2.663,-14.729c-0.769,-4.931 -1.416,-9.878 -1.941,-14.842c-0.525,-4.961 -0.928,-9.933 -1.209,-14.916c-0.28,-4.984 -0.439,-9.97 -0.475,-14.959c-0.036,-4.991 0.052,-9.98 0.263,-14.966c0.208,-4.986 0.54,-9.964 0.996,-14.934c0.455,-4.969 1.032,-9.925 1.729,-14.866c0.697,-4.942 1.515,-9.864 2.454,-14.767c0.942,-4.9 2.001,-9.775 3.179,-14.625c1.181,-4.847 2.479,-9.664 3.896,-14.45c1.417,-4.786 2.949,-9.535 4.596,-14.246c1.65,-4.708 3.415,-9.375 5.296,-14c1.877,-4.622 3.868,-9.196 5.97,-13.721c2.106,-4.525 4.32,-8.996 6.642,-13.412c2.325,-4.417 4.756,-8.774 7.292,-13.071c2.539,-4.297 5.18,-8.531 7.925,-12.7c2.747,-4.167 5.594,-8.264 8.541,-12.292c2.948,-4.027 5.991,-7.98 9.13,-11.858c3.141,-3.878 6.376,-7.676 9.704,-11.396c3.328,-3.717 6.746,-7.351 10.254,-10.904c3.506,-3.55 7.097,-7.013 10.775,-10.388c3.678,-3.375 7.435,-6.656 11.271,-9.845c3.839,-3.189 7.754,-6.282 11.746,-9.28c3.989,-2.997 8.05,-5.895 12.183,-8.695c4.131,-2.798 8.329,-5.492 12.596,-8.084c4.264,-2.589 8.59,-5.073 12.979,-7.454c4.386,-2.378 8.829,-4.647 13.329,-6.808c4.497,-2.161 9.046,-4.21 13.646,-6.146c4.6,-1.936 9.244,-3.758 13.933,-5.467c4.689,-1.708 9.417,-3.301 14.184,-4.779c4.766,-1.475 9.568,-2.833 14.404,-4.075c4.833,-1.239 9.694,-2.358 14.583,-3.358c4.889,-1.003 9.8,-1.884 14.733,-2.642c4.931,-0.761 9.878,-1.4 14.842,-1.917c4.964,-0.516 9.938,-0.911 14.921,-1.183Z" style="fill:#333944;fill-rule:nonzero;"/><path d="M1905.47,1426.63c4.008,-0.475 8.025,-0.85 12.05,-1.125c4.027,-0.278 8.059,-0.455 12.096,-0.533c4.033,-0.078 8.068,-0.057 12.104,0.062c4.033,0.12 8.061,0.339 12.083,0.659c4.025,0.319 8.039,0.736 12.042,1.25c4.002,0.516 7.99,1.13 11.962,1.841c3.972,0.714 7.925,1.524 11.859,2.429c3.933,0.909 7.841,1.912 11.725,3.009c3.883,1.1 7.737,2.294 11.562,3.583c3.822,1.289 7.613,2.671 11.371,4.146c3.755,1.475 7.473,3.042 11.154,4.7c3.681,1.658 7.317,3.406 10.908,5.242c3.595,1.839 7.142,3.764 10.642,5.775c3.497,2.011 6.944,4.107 10.342,6.287c3.394,2.183 6.733,4.447 10.016,6.792c3.286,2.347 6.511,4.772 9.675,7.275c3.167,2.505 6.268,5.086 9.305,7.741c3.038,2.659 6.009,5.389 8.912,8.192c2.903,2.803 5.736,5.675 8.5,8.617c2.761,2.944 5.449,5.954 8.063,9.029c2.613,3.075 5.151,6.212 7.612,9.412c2.461,3.2 4.84,6.459 7.138,9.775c2.3,3.317 4.516,6.688 6.65,10.113c2.133,3.425 4.181,6.901 6.145,10.429c1.961,3.528 3.835,7.1 5.621,10.717c1.789,3.619 3.486,7.28 5.092,10.983c1.605,3.703 3.119,7.443 4.542,11.221c1.425,3.775 2.754,7.585 3.987,11.429c1.236,3.842 2.376,7.711 3.421,11.608c1.044,3.9 1.992,7.823 2.841,11.767c0.853,3.945 1.607,7.908 2.263,11.892c0.658,3.983 1.217,7.979 1.675,11.987c0.461,4.009 0.822,8.027 1.083,12.054c0.261,4.028 0.424,8.06 0.488,12.096c0.064,4.036 0.028,8.071 -0.108,12.104c-0.134,4.034 -0.367,8.062 -0.7,12.084c-0.334,4.022 -0.766,8.033 -1.296,12.033c-0.531,4.003 -1.159,7.989 -1.884,11.958c-0.727,3.97 -1.552,7.92 -2.475,11.85c-0.919,3.928 -1.936,7.832 -3.05,11.713c-1.114,3.878 -2.322,7.728 -3.625,11.55c-1.302,3.819 -2.698,7.604 -4.187,11.354c-1.486,3.753 -3.065,7.465 -4.738,11.138c-1.672,3.675 -3.433,7.305 -5.283,10.891c-1.85,3.586 -3.787,7.125 -5.813,10.617c-2.024,3.492 -4.134,6.932 -6.329,10.321c-2.191,3.386 -4.466,6.718 -6.825,9.996c-2.358,3.275 -4.794,6.49 -7.308,9.645c-2.517,3.156 -5.11,6.248 -7.779,9.275c-2.667,3.028 -5.407,5.989 -8.221,8.884c-2.814,2.894 -5.697,5.716 -8.65,8.466c-2.953,2.753 -5.971,5.431 -9.054,8.034c-3.086,2.603 -6.233,5.128 -9.442,7.575c-3.208,2.45 -6.475,4.818 -9.8,7.104c-3.325,2.289 -6.704,4.493 -10.137,6.612c-3.434,2.123 -6.917,4.159 -10.45,6.109c-3.536,1.95 -7.117,3.811 -10.742,5.583c-3.625,1.772 -7.292,3.456 -11,5.05c-3.708,1.592 -7.453,3.093 -11.233,4.504c-3.784,1.409 -7.599,2.723 -11.446,3.942c-3.847,1.222 -7.722,2.349 -11.625,3.379c-3.9,1.031 -7.825,1.964 -11.775,2.8c-3.947,0.836 -7.913,1.577 -11.896,2.221c-3.986,0.642 -7.985,1.185 -11.996,1.629c-3.991,0.445 -7.993,0.79 -12.004,1.038c-4.008,0.247 -8.022,0.395 -12.042,0.445c-4.016,0.05 -8.032,0.002 -12.045,-0.145c-4.014,-0.145 -8.023,-0.389 -12.025,-0.734c-4.003,-0.341 -7.995,-0.782 -11.975,-1.321c-3.984,-0.536 -7.95,-1.17 -11.9,-1.904c-3.95,-0.73 -7.88,-1.558 -11.788,-2.483c-3.908,-0.925 -7.793,-1.946 -11.654,-3.063c-3.858,-1.113 -7.688,-2.322 -11.488,-3.625c-3.802,-1.302 -7.569,-2.697 -11.3,-4.183c-3.73,-1.489 -7.423,-3.067 -11.079,-4.733c-3.655,-1.67 -7.268,-3.427 -10.837,-5.271c-3.567,-1.844 -7.088,-3.775 -10.563,-5.792c-3.475,-2.016 -6.897,-4.118 -10.266,-6.304c-3.373,-2.186 -6.689,-4.453 -9.95,-6.8c-3.259,-2.347 -6.459,-4.773 -9.6,-7.279c-3.142,-2.503 -6.22,-5.082 -9.234,-7.738c-3.016,-2.655 -5.965,-5.381 -8.846,-8.179c-2.88,-2.8 -5.691,-5.669 -8.433,-8.608c-2.742,-2.936 -5.408,-5.938 -8,-9.004c-2.594,-3.07 -5.112,-6.2 -7.554,-9.392c-2.439,-3.189 -4.8,-6.437 -7.083,-9.746c-2.281,-3.305 -4.48,-6.665 -6.596,-10.079c-2.117,-3.417 -4.149,-6.882 -6.096,-10.396c-1.947,-3.514 -3.807,-7.073 -5.579,-10.679c-1.773,-3.603 -3.456,-7.248 -5.05,-10.937c-1.595,-3.686 -3.098,-7.41 -4.509,-11.171c-1.411,-3.761 -2.729,-7.556 -3.954,-11.384c-1.228,-3.825 -2.36,-7.677 -3.396,-11.558c-1.036,-3.88 -1.977,-7.785 -2.825,-11.712c-0.844,-3.928 -1.593,-7.874 -2.245,-11.838c-0.653,-3.964 -1.209,-7.942 -1.667,-11.933c-0.458,-3.992 -0.818,-7.992 -1.079,-12c-0.261,-4.009 -0.425,-8.021 -0.492,-12.038c-0.064,-4.016 -0.031,-8.033 0.1,-12.05c0.133,-4.014 0.364,-8.023 0.692,-12.029c0.327,-4.003 0.752,-7.996 1.275,-11.979c0.525,-3.983 1.146,-7.951 1.862,-11.904c0.72,-3.953 1.533,-7.885 2.442,-11.796c0.911,-3.914 1.918,-7.803 3.021,-11.667c1.1,-3.864 2.294,-7.697 3.583,-11.5c1.289,-3.805 2.669,-7.577 4.142,-11.316c1.475,-3.736 3.04,-7.435 4.695,-11.096c1.653,-3.661 3.396,-7.279 5.23,-10.854c1.83,-3.575 3.748,-7.103 5.754,-10.584c2.005,-3.483 4.094,-6.914 6.266,-10.291c2.173,-3.378 4.427,-6.702 6.763,-9.971c2.336,-3.27 4.75,-6.479 7.242,-9.629c2.494,-3.15 5.064,-6.238 7.708,-9.263c2.642,-3.025 5.357,-5.983 8.146,-8.875c2.789,-2.892 5.647,-5.712 8.575,-8.462c2.928,-2.753 5.921,-5.431 8.979,-8.034c3.058,-2.605 6.179,-5.134 9.362,-7.587c3.181,-2.453 6.421,-4.825 9.721,-7.117c3.298,-2.294 6.65,-4.505 10.059,-6.633c3.405,-2.131 6.861,-4.175 10.366,-6.134c3.509,-1.961 7.061,-3.834 10.659,-5.62c3.6,-1.786 7.24,-3.482 10.92,-5.088c3.684,-1.608 7.403,-3.125 11.159,-4.55c3.755,-1.425 7.544,-2.757 11.366,-3.996c3.82,-1.241 7.669,-2.387 11.546,-3.437c3.878,-1.053 7.779,-2.009 11.704,-2.867c3.923,-0.861 7.866,-1.625 11.83,-2.292c3.961,-0.666 7.936,-1.236 11.925,-1.708Z" style="fill:#afcbd3;fill-rule:nonzero;"/><path d="M1910.1,1490.03c7.683,-0.479 15.612,-0.841 23.267,0.146c9.525,1.229 17.741,6.779 23.091,14.667c4.146,6.112 5.404,12.641 3.725,19.854c-7.462,32.008 -60.916,52.35 -80.791,78.237c-21.042,27.405 -19.671,59.605 -51.317,80.196c-11.446,3.029 -26.517,3.325 -36.825,-3.5c-7.017,-4.637 -10.475,-11.212 -12.292,-19.237c-5.696,-25.138 3.934,-50.296 17.092,-71.371c24.325,-38.967 67.504,-87.946 114.05,-98.992Z" style="fill:#d7ebef;fill-rule:nonzero;"/><path d="M930.517,463.092c1.283,-0.15 2.566,-0.334 3.854,-0.446c61.254,-5.458 116.433,14.087 163.608,52.808c108.396,88.975 146.9,248.142 159.713,382.217c-16.542,21.65 -35.579,41.192 -51.788,63.262c-56.242,76.596 -92.379,159.554 -122.754,248.992c-38.133,-3.846 -78.367,-2.458 -116.25,2.725c-19.667,0.763 -40.642,7.379 -59.704,12.3c-25.359,-10.804 -50.404,-24.925 -73.025,-40.65c-92.409,-64.237 -157.542,-168.396 -177.409,-278.996c-18.254,-101.621 0.746,-208.787 60.85,-293.758c51.113,-72.263 123.892,-132.979 212.905,-148.454Z" style="fill:#f1c5b9;fill-rule:nonzero;"/><path d="M1548.08,1820.72c6.8,5.508 11.838,26.5 14.909,35.133c-20.988,11.284 -42.23,22.409 -59.384,39.254c-22.329,21.93 -38.346,50.75 -37.795,82.763c0.508,29.454 14.691,56.071 35.533,76.225c41.483,40.121 98.325,50.867 153.95,50.379c0.214,3.622 0.512,7.239 0.896,10.85c4.162,40.358 29.846,77.813 60.937,102.604c59.292,47.284 137.329,57.1 210.667,48.309c46.525,-5.58 147.133,-31.805 175.65,-70.838c4.821,-6.596 7.5,-14.504 5.933,-22.679c-1.746,-9.096 -8.729,-17.6 -16.591,-22.229c-6.355,-3.742 -12.809,-4.796 -20.03,-3.271c-16.22,3.421 -32.195,15.717 -46.708,23.737c-19.779,10.93 -38.583,19.855 -60.55,25.363c-60.483,15.171 -137.437,20.925 -193.175,-12.879c-32.812,-19.9 -48.458,-48.417 -57.387,-85.021c18.9,-16.204 41.458,-25.004 58.266,-44.379c94.104,41.079 204.379,37.962 299.621,2.312c25.817,-9.662 49.238,-23.716 74.3,-34.946c21.221,-9.512 44.046,-16.437 65.888,-24.508c38.229,-15.046 74.966,-34.179 111.6,-52.696c-0.03,49.067 -0.817,87.517 19.57,133.009c-3.125,7.779 -6.133,15.666 -8.312,23.77c-13.617,50.667 6.987,104.255 32.55,147.3c-205.913,86.346 -425.746,124.73 -646.917,85.084c-165.846,-29.729 -365.646,-104.854 -465.304,-248.075c44.696,-51.154 70.9,-106.238 88.646,-171.642c78.754,-12.062 140.566,-46.012 203.237,-92.929Z" style="fill:#f2f2f4;fill-rule:nonzero;"/><path d="M3505.47,2173.79c57.604,-4.113 123.854,10.133 174.446,38.279c2.641,1.475 5.264,2.983 7.866,4.525c2.603,1.539 5.186,3.111 7.75,4.716c2.567,1.603 5.111,3.238 7.634,4.905c2.525,1.666 5.029,3.365 7.512,5.095c2.481,1.728 4.94,3.487 7.379,5.276c2.439,1.788 4.856,3.608 7.25,5.458c2.395,1.85 4.766,3.729 7.113,5.637c2.347,1.906 4.671,3.842 6.971,5.809c2.3,1.964 4.575,3.957 6.825,5.979c2.252,2.019 4.479,4.068 6.679,6.146c2.2,2.075 4.373,4.177 6.521,6.308c2.147,2.131 4.268,4.286 6.362,6.467c2.097,2.183 4.165,4.391 6.204,6.625c2.039,2.233 4.052,4.491 6.038,6.775c1.983,2.283 3.939,4.59 5.867,6.92c1.927,2.331 3.826,4.685 5.695,7.063c1.87,2.378 3.71,4.779 5.521,7.204c1.811,2.422 3.592,4.868 5.342,7.338c1.747,2.466 3.465,4.955 5.154,7.466c1.689,2.509 3.346,5.039 4.971,7.592c1.628,2.55 3.222,5.119 4.783,7.708c1.564,2.592 3.095,5.202 4.592,7.829c1.497,2.628 2.962,5.274 4.396,7.938c1.433,2.664 2.833,5.346 4.2,8.046c1.366,2.697 2.698,5.412 3.995,8.146c1.3,2.73 2.567,5.477 3.8,8.241c1.231,2.764 2.428,5.542 3.592,8.334c1.161,2.791 2.289,5.598 3.383,8.42c1.095,2.82 2.153,5.653 3.175,8.5c1.025,2.845 2.014,5.703 2.967,8.575c0.953,2.87 1.871,5.752 2.754,8.646c0.881,2.895 1.727,5.799 2.538,8.713c9.154,32.946 19.533,87.475 0.454,117.916c-3.383,5.396 -6.754,7.996 -12.888,9.363c-8.883,-2.479 -13.987,-10.892 -17.183,-19.054c-6.812,-17.396 -8.604,-38.221 -12.9,-56.504c-11.754,-49.996 -38.754,-98.667 -74.233,-135.73c-48.125,-50.27 -111.817,-83.758 -182.304,-84.591c-69.088,-0.813 -132.538,25.3 -181.675,73.829c-53.638,52.971 -78.171,120.787 -78.234,195.392c6.017,83.45 46.154,151.445 78.538,226.27c22.237,51.384 40.833,105.696 51.575,160.684c-44.9,-3.488 -82.45,5.296 -122.863,24.441c-9.404,-54.12 -23.887,-105.45 -43.171,-156.804c-29.162,-77.646 -66.812,-151.496 -74.533,-235.491c-8.517,-92.617 18.238,-183.421 78.138,-254.913c63.279,-75.533 144.145,-117.229 242.004,-125.487Z" style="fill:#f1c5b9;fill-rule:nonzero;"/><path d="M2495.12,1510.83c0.946,-0.075 1.888,-0.196 2.838,-0.233c22.091,-0.808 43.395,15.425 59.216,29.429c71.35,63.175 118.813,167.371 124.358,262.021c3.942,67.296 -8.279,139.171 -54.862,190.546c-45.054,49.683 -111.083,71.479 -176.8,74.021c-16.35,0.633 -34.929,-1.076 -47.137,-13.238c-19.021,-18.95 -17.638,-60.558 -16.913,-85.604c1.121,-38.821 8.946,-77.15 1.713,-115.8c-10.188,-54.434 -44.875,-101.642 -46.063,-157.867c0.075,-8.329 -0.279,-15.425 4.679,-22.312c2.742,-0.684 4.904,-1.017 7.675,-0.134c49.196,15.696 72.113,74.263 96.075,114.279c4.075,6.8 10.096,17.913 18.792,18.805c6.904,0.704 15.987,-3.488 21.567,-7.209c6.516,-4.354 11.879,-11.254 12.816,-19.208c4.209,-35.671 -59.95,-115.875 -87.171,-139.025c-10.562,-8.983 -33.533,-19.733 -40.35,-29.092c-0.82,-4.837 -1.571,-9.125 -0.57,-13.996c3.024,-14.8 13.266,-25.091 25.3,-33.204c5.358,1.35 10.904,2.642 16.095,4.542c45.717,16.737 94.43,87.771 115.825,129.775c4.605,9.046 7.563,18.808 12.15,27.8c3.95,7.737 11.755,16.521 20.721,18.337c6.521,1.321 11.638,0.055 16.809,-4.133c8.437,-6.833 13.116,-18.125 14.075,-28.737c3.65,-40.534 -58.355,-119.3 -85.221,-148.175c-12.384,-13.309 -27.179,-24.209 -38.913,-38.009l2.117,-4.475c7,-4.683 13.1,-6.833 21.179,-9.104Z" style="fill:#f2f2f4;fill-rule:nonzero;"/><path d="M1005.38,315.441c65.117,-6.346 134.671,14.645 191.721,44.728c145.142,76.535 219.304,219.448 266.342,369.389c-52.176,32.338 -101.038,65.563 -145.759,107.93c-5.458,-70.576 -29.946,-148.342 -57.954,-213.009c-21.308,-55.275 -59.396,-109.179 -102.842,-149.241c-57.179,-52.726 -130.929,-84.659 -209.379,-81.011c-98.366,4.574 -177.154,62.456 -241.591,132.481c14.362,-27.362 34.375,-53.666 54.125,-77.421c63.12,-75.912 146.362,-124.746 245.337,-133.846Z" style="fill:#f2f2f4;fill-rule:nonzero;"/><path d="M2713.79,1982.52c20.866,13.029 35.287,41.929 45.025,63.821c8.27,18.604 5.458,38.5 -1.555,57.116c-20.237,53.692 -71.883,98.25 -123.029,121.546c-54.462,24.809 -124.041,36.438 -181.342,15.029c-5.95,-2.812 -10.904,-5.829 -15.866,-10.2c-28.934,-25.491 -40.875,-63.404 -43.713,-100.62c56.988,2.608 110.555,2.879 165.288,-15.842c66.812,-22.85 123.571,-66.954 155.191,-130.85Z" style="fill:#7a7bb9;fill-rule:nonzero;"/><path d="M843.808,2078.63l1.875,2.15c40.759,46.171 99.721,79.313 161.955,83.371c23.345,5.125 57.037,5.129 80.45,0.063c33.899,-0.667 74.112,-17.088 103.608,-33.192c-0.021,26.479 2.746,56.65 -5.592,82.167c-6.987,21.396 -22.696,34.691 -42.587,44.125c-63.059,29.891 -158.317,27.787 -222.85,3.72c-35.859,-13.37 -77.35,-38.141 -93.121,-74.812c-15.025,-34.942 3.137,-74.788 16.262,-107.592Z" style="fill:#7a7bb9;fill-rule:nonzero;"/><path d="M2140.82,1313.31c56.871,-4.079 113.487,2.471 164.104,29.913c56.238,30.492 101.817,79.542 119.842,141.412c-11.609,6.621 -22.867,13.892 -34.204,20.971c-18.625,12.75 -39.413,24.284 -59.267,35.071c-46.017,-115.787 -81.217,-164.392 -190.475,-227.367Z" style="fill:#5a778f;fill-rule:nonzero;"/><path d="M1534.37,1475.9c12.975,-0.612 25.925,0.546 38.871,1.4c-37.834,78.404 -52.542,134.258 -52.513,221.071c-16.946,-1.254 -33.608,-2.775 -50.392,-5.475l-29.45,-4.162c2.975,-69.463 -1.395,-131.863 -22.937,-198.313c38.896,-6.892 76.888,-12.725 116.421,-14.521Z" style="fill:#5a778f;fill-rule:nonzero;"/><path d="M1335.1,1306.7c29.921,-3.575 62.546,0.979 91.65,8.063c54.908,13.366 95.762,45.279 124.758,93.195c-12.386,1.345 -24.793,2.443 -37.221,3.296c-38.104,4.254 -77.946,9.679 -115.05,19.438c-24.495,-43.98 -55.166,-78.446 -86.408,-117.213c7.492,-1.904 14.887,-4.483 22.271,-6.779Z" style="fill:#5a778f;fill-rule:nonzero;"/><path d="M1246.55,1983.23l1.833,0.646c0.167,9.142 -17.037,33.433 -23.008,41.317c-31.383,41.433 -85.729,66.866 -136.467,73.4c-62.087,7.991 -125.537,-3.913 -175.437,-42.796c-14.221,-10.738 -23.546,-21.759 -33.104,-36.496c21.267,6.9 42.575,14.279 64.512,18.737c100.35,20.38 215.804,2.226 301.671,-54.808Z" style="fill:#f2f2f4;fill-rule:nonzero;"/><path d="M1590.03,1916.11c10.192,2.13 32.813,36.442 42.229,46.117c25.6,26.313 54.4,47.021 84.85,67.192c-19.237,8.229 -36.362,11.625 -57.141,14.033c-23.721,0.546 -47.025,-1.612 -69.796,-8.596c-22.271,-6.825 -45.913,-19.058 -56.513,-40.929c-4.691,-9.675 -5.366,-20.358 -1.362,-30.371c9.442,-23.629 35.762,-37.637 57.733,-47.446Z" style="fill:#f1c5b9;fill-rule:nonzero;"/><path d="M2742.91,1822.45c40.783,1.284 81.604,0.267 122.395,1.967c-11.512,33.896 -22.933,67.354 -38.354,99.729c-3.141,5.8 -6.316,11.883 -10.879,16.721c-5.875,6.233 -14.296,8.971 -22.704,9.162c-23.888,0.546 -47.388,-18.016 -63.475,-34.108c7.129,-31.342 11.325,-61.388 13.016,-93.471Z" style="fill:#f2f2f4;fill-rule:nonzero;"/><path d="M1820.93,2413.88c53.205,2.363 105.388,2.163 158.58,0.604c-14.459,13.087 -28.769,26.334 -42.93,39.742c-16.075,15.017 -32.879,29.258 -48.979,44.271c-22.925,-27.653 -45.148,-55.858 -66.671,-84.617Z" style="fill:#f2f2f4;fill-rule:nonzero;"/><path d="M1420.23,1773.23c0.325,-0.025 0.654,-0.041 0.979,-0.07c22.08,-1.78 44.15,-0.6 66.255,0.141c-15.571,17.325 -32.48,31.471 -52.671,43.071c-14.525,6.838 -29.309,13.192 -43.971,19.725c8.421,-21.917 16.337,-43.192 29.408,-62.867Z" style="fill:#5a778f;fill-rule:nonzero;"/><path d="M2328.06,1818.28c8.163,8.784 8.521,32.984 9.434,44.655c-12.971,13.766 -26.005,24.104 -43.092,32.241l-2.846,1.434l-1.108,-1.725c13.087,-25.221 23.917,-51.83 37.612,-76.605Z" style="fill:#5a778f;fill-rule:nonzero;"/></svg>