<svg xmlns="http://www.w3.org/2000/svg" width="840" height="885" viewBox="0 0 840 885"><g fill="none" transform="translate(.985 .508)"><path fill="#313945" d="M157.447912,0.203411558 C175.213912,-1.31648844 193.525912,5.85541156 207.840912,15.8910116 C238.537912,37.4114116 253.993912,72.2667116 260.313912,108.122712 C262.864912,107.151712 284.809912,99.6737116 285.129912,98.7357116 C286.320912,95.2467116 284.391912,90.9557116 287.722912,87.8857116 C292.659912,83.3347116 305.351912,85.3637116 311.752912,85.6347116 C310.326912,83.2397116 308.597912,80.6197116 307.790912,77.9327116 C306.969912,75.1967116 307.100912,72.5627116 308.474912,70.0327116 C310.155912,66.9377116 312.735912,64.9457116 316.133912,64.0637116 C329.994912,60.4627116 357.747912,71.5727116 369.736912,78.5587116 C374.153912,81.1327116 378.380912,85.3357116 383.162912,87.0427116 C389.079912,89.1547116 398.121912,88.8477116 404.694912,90.3517116 C428.899912,95.8897116 450.280912,105.206712 471.524912,117.979712 C480.513912,89.8767116 493.664912,63.8077116 513.544912,41.7747116 C532.708912,20.5338116 557.590912,3.96671156 586.930912,2.59791156 C587.664912,2.57097822 588.398912,2.55294489 589.132912,2.54381156 C589.867579,2.53467822 590.601912,2.53447822 591.335912,2.54321156 C592.070579,2.55187822 592.804912,2.56951156 593.538912,2.59611156 C594.272246,2.62264489 595.005579,2.65811156 595.738912,2.70251156 C596.471579,2.74691156 597.203912,2.80021156 597.935912,2.86241156 C598.667912,2.92461156 599.398912,2.99567822 600.128912,3.07561156 C600.858912,3.15554489 601.587579,3.24434489 602.314912,3.34201156 C603.042912,3.43967822 603.769579,3.54617822 604.494912,3.66151156 C605.220246,3.77684489 605.943912,3.90097822 606.665912,4.03391156 C607.388579,4.16684489 608.109246,4.30851156 608.827912,4.45891156 C609.546579,4.60937822 610.263246,4.76851156 610.977912,4.93631156 C611.693246,5.10417822 612.406246,5.28071156 613.116912,5.46591156 C613.827579,5.65104489 614.535912,5.84481156 615.241912,6.04721156 C615.947912,6.24961156 616.651246,6.46054489 617.351912,6.68001156 C618.052579,6.89954489 618.750579,7.12754489 619.445912,7.36401156 C620.141246,7.60041156 620.833579,7.84524489 621.522912,8.09851156 C622.212246,8.35184489 622.898246,8.61347822 623.580912,8.88341156 C624.263579,9.15334489 624.943246,9.43154489 625.619912,9.71801156 C626.295912,10.0044782 626.968246,10.2991449 627.636912,10.6020116 C628.306246,10.9048116 628.971579,11.2157116 629.632912,11.5347116 C630.294246,11.8537116 630.951912,12.1806782 631.605912,12.5156116 C632.259246,12.8506116 632.908579,13.1934782 633.553912,13.5442116 C634.199246,13.8949449 634.839912,14.2534782 635.475912,14.6198116 C636.112579,14.9861449 636.744579,15.3601449 637.371912,15.7418116 C637.999246,16.1234782 638.621912,16.5127116 639.239912,16.9095116 C639.857912,17.3063782 640.470912,17.7106449 641.078912,18.1223116 C641.686912,18.5340449 642.289912,18.9531116 642.887912,19.3795116 C643.485912,19.8058449 644.078579,20.2394116 644.665912,20.6802116 C645.253246,21.1209449 645.835246,21.5687782 646.411912,22.0237116 C646.987912,22.4786449 647.558579,22.9405116 648.123912,23.4093116 C648.689246,23.8781116 649.248912,24.3537116 649.802912,24.8361116 C650.356246,25.3184449 650.903912,25.8074782 651.445912,26.3032116 C674.188912,47.0567116 685.236912,78.0647116 686.334912,108.323712 C687.532912,141.326712 674.331912,176.076712 651.850912,200.076712 C627.987912,225.550712 595.730912,238.811712 561.122912,240.028712 C562.073579,243.230045 562.939246,246.454045 563.719912,249.700712 C564.499912,252.947378 565.193912,256.212378 565.801912,259.495712 C566.409246,262.779712 566.929579,266.077045 567.362912,269.387712 C567.796912,272.699045 568.142579,276.019378 568.399912,279.348712 C568.657912,282.678045 568.827912,286.011712 568.909912,289.349712 C568.991912,292.687712 568.985246,296.025712 568.889912,299.363712 C568.795246,302.701712 568.612579,306.035045 568.341912,309.363712 C568.071246,312.691712 567.712579,316.010378 567.265912,319.319712 C572.471912,319.598712 586.460912,320.788712 591.034912,322.133712 C592.842912,322.664712 594.526912,323.515712 595.912912,324.805712 C597.274912,326.072712 598.580912,328.172712 598.480912,330.113712 C598.416912,331.355712 598.081912,332.375712 597.064912,333.149712 C593.004912,336.239712 570.755912,331.969712 565.332912,331.279712 C560.920912,347.938712 555.165912,363.433712 546.013912,378.112712 C548.234912,379.148712 550.411912,380.310712 552.575912,381.463712 C555.871912,383.218712 563.203912,386.878712 564.159912,390.487712 C564.672912,392.422712 564.528912,395.105712 563.332912,396.786712 C562.554912,397.881712 561.592912,398.697712 560.216912,398.888712 C555.608912,399.531712 542.979912,390.836712 538.438912,388.181712 C528.279912,401.582712 516.068912,411.248712 503.124912,421.703712 C520.988912,428.962712 532.736912,442.819712 544.074912,457.863712 C548.614912,454.734712 553.645912,452.463712 558.214912,449.414712 C571.542912,440.520712 568.781912,438.946712 585.359912,435.233712 C586.780579,433.884378 588.218912,432.553712 589.674912,431.241712 C593.804912,427.512712 597.946912,424.413712 603.036912,422.119712 C611.848912,418.147712 621.453912,417.154712 630.596912,414.237712 C643.030912,410.270712 656.178912,400.757712 669.568912,401.687712 C674.759912,402.048712 679.959912,404.262712 683.275912,408.377712 C686.928912,412.910712 688.157912,418.814712 687.319912,424.507712 C685.954912,433.779712 679.733912,439.777712 672.515912,444.929712 C690.653912,452.496712 714.275912,462.114712 724.576912,479.785712 C727.931912,485.541712 730.792912,494.722712 728.392912,501.180712 C727.590912,503.337712 725.847912,505.236712 724.701912,507.234712 C723.463912,509.391712 723.092912,512.126712 722.426912,514.505712 C719.501912,524.957712 710.028912,526.252712 701.481912,530.027712 C698.512912,531.338712 695.757912,533.483712 692.908912,535.055712 C689.953912,536.685712 686.027912,537.425712 682.732912,538.070712 C659.988912,542.519712 635.439912,537.783712 613.469912,531.665712 C610.387912,534.110712 607.310912,536.616712 603.869912,538.546712 C600.501912,540.435712 596.856912,541.869712 593.584912,543.920712 C589.429912,546.525712 585.655912,549.894712 581.695912,552.795712 C579.939912,554.057045 578.141579,555.254378 576.300912,556.387712 C574.459579,557.521045 572.580579,558.588045 570.663912,559.588712 C568.747246,560.588712 566.797579,561.519712 564.814912,562.381712 C562.832246,563.243712 560.821579,564.034378 558.782912,564.753712 C535.648912,573.014712 516.985912,569.933712 495.310912,559.665712 C497.280912,572.599712 499.655912,599.698712 498.450912,612.111712 C498.104912,615.680712 495.677912,618.470712 495.218912,621.926712 C494.602912,626.570712 495.299912,631.366712 494.518912,636.011712 C493.457912,642.318712 489.366912,645.971712 484.475912,649.550712 C485.147912,656.787712 485.086912,664.154712 485.250912,671.422712 C489.561579,674.126712 493.744579,677.015045 497.799912,680.087712 C501.855912,683.160378 505.768579,686.405712 509.537912,689.823712 C539.325912,717.013712 562.385912,752.631712 602.555912,765.805712 C621.426912,771.994712 643.335912,771.194712 661.136912,762.051712 C689.243912,747.613712 697.201912,716.679712 689.456912,687.632712 C685.220912,671.744712 677.469912,657.189712 674.288912,640.968712 C673.878246,638.966045 673.532579,636.952378 673.251912,634.927712 C672.971246,632.902378 672.755912,630.870378 672.605912,628.831712 C672.455912,626.793045 672.371579,624.751712 672.352912,622.707712 C672.334246,620.663045 672.381246,618.620378 672.493912,616.579712 C672.606579,614.538378 672.784579,612.502712 673.027912,610.472712 C673.271246,608.443378 673.579912,606.423712 673.953912,604.413712 C674.327246,602.403712 674.764912,600.408045 675.266912,598.426712 C675.768912,596.444712 676.333912,594.481045 676.961912,592.535712 C677.192579,591.842378 677.431912,591.152045 677.679912,590.464712 C677.927912,589.776712 678.184246,589.092045 678.448912,588.410712 C678.712912,587.729378 678.985579,587.051378 679.266912,586.376712 C679.547579,585.702045 679.836579,585.031045 680.133912,584.363712 C680.431246,583.696378 680.736912,583.032378 681.050912,582.371712 C681.364246,581.711712 681.685912,581.055712 682.015912,580.403712 C682.345246,579.751045 682.682579,579.102712 683.027912,578.458712 C683.373246,577.814712 683.726579,577.175045 684.087912,576.539712 C684.448579,575.904378 684.817246,575.273378 685.193912,574.646712 C685.570579,574.020712 685.954579,573.399045 686.345912,572.781712 C686.737246,572.165045 687.136246,571.552712 687.542912,570.944712 C687.949579,570.337378 688.363579,569.735378 688.784912,569.138712 C689.206246,568.541378 689.634579,567.949378 690.069912,567.362712 C690.505912,566.775378 690.948579,566.193712 691.397912,565.617712 C691.847912,565.041712 692.304912,564.471378 692.768912,563.906712 C693.232246,563.342045 693.702912,562.783045 694.180912,562.229712 C694.658246,561.676378 695.142246,561.129045 695.632912,560.587712 C696.123579,560.045712 696.620912,559.510045 697.124912,558.980712 C697.628246,558.451378 698.138246,557.928378 698.654912,557.411712 C699.171579,556.894378 699.694579,556.383712 700.223912,555.879712 C700.752579,555.375712 701.287579,554.878045 701.828912,554.386712 C702.370246,553.895378 702.917579,553.411045 703.470912,552.933712 C704.023579,552.455712 704.582246,551.984712 705.146912,551.520712 C705.711579,551.056045 706.281579,550.598712 706.856912,550.148712 C707.432912,549.698712 708.013912,549.255378 708.599912,548.818712 C709.186579,548.382712 709.778246,547.954045 710.374912,547.532712 C710.972246,547.110712 711.574246,546.696378 712.180912,546.289712 C712.788246,545.883045 713.400246,545.483712 714.016912,545.091712 C714.633579,544.699712 715.255246,544.315045 715.881912,543.937712 C716.507912,543.561045 717.138579,543.192045 717.773912,542.830712 C718.408579,542.469378 719.047912,542.115712 719.691912,541.769712 C720.335912,541.423712 720.983912,541.085712 721.635912,540.755712 C742.143912,530.505712 765.672912,529.574712 787.275912,536.939712 C788.443912,537.334378 789.601579,537.757378 790.748912,538.208712 C791.896246,538.660045 793.031912,539.139378 794.155912,539.646712 C795.279912,540.154045 796.390579,540.688378 797.487912,541.249712 C798.585246,541.811712 799.668246,542.400378 800.736912,543.015712 C801.805579,543.631045 802.858246,544.272045 803.894912,544.938712 C804.932246,545.606045 805.952246,546.298378 806.954912,547.015712 C807.957579,547.732378 808.942246,548.473712 809.908912,549.239712 C810.875579,550.005045 811.822579,550.794045 812.749912,551.606712 C813.677912,552.418712 814.584912,553.253045 815.470912,554.109712 C816.357579,554.967045 817.222579,555.845378 818.065912,556.744712 C818.909246,557.644045 819.729912,558.563712 820.527912,559.503712 C821.325912,560.443712 822.100579,561.402378 822.851912,562.379712 C823.602579,563.357712 824.328912,564.353712 825.030912,565.367712 C825.732912,566.381045 826.409579,567.411378 827.060912,568.458712 C827.711579,569.505378 828.336579,570.567712 828.935912,571.645712 C829.534579,572.723045 830.106579,573.814712 830.651912,574.920712 C838.054912,590.275712 841.116912,610.898712 835.160912,627.254712 C833.873912,630.788712 831.735912,634.163712 828.136912,635.669712 C825.425912,636.803712 822.448912,636.690712 819.803912,635.441712 C811.823912,631.673712 811.951912,616.484712 808.664912,608.191712 C803.659912,595.562712 794.592912,584.729712 781.939912,579.322712 C770.743912,574.538712 758.648912,575.599712 747.549912,579.982712 C746.811912,580.320712 746.084912,580.681045 745.368912,581.063712 C744.653579,581.446378 743.950579,581.850712 743.259912,582.276712 C742.569246,582.702712 741.892579,583.149712 741.229912,583.617712 C740.566579,584.086378 739.918579,584.574712 739.285912,585.082712 C738.653246,585.590712 738.036912,586.118045 737.436912,586.664712 C736.836246,587.210712 736.253579,587.775045 735.688912,588.357712 C735.123579,588.940378 734.576912,589.539712 734.048912,590.155712 C733.520246,590.771712 733.011579,591.403712 732.522912,592.051712 C731.450246,593.467045 730.452579,594.933378 729.529912,596.450712 C728.606579,597.968045 727.763246,599.528378 726.999912,601.131712 C726.235912,602.735045 725.555246,604.373045 724.957912,606.045712 C724.361246,607.718378 723.850912,609.417045 723.426912,611.141712 C717.586912,633.939712 727.705912,652.971712 735.147912,673.784712 C738.130912,682.127712 740.315912,690.515712 741.471912,699.306712 C745.178912,727.480712 738.146912,755.641712 720.688912,778.212712 C702.476912,801.756712 674.526912,815.848712 645.262912,819.480712 C595.434912,825.665712 553.555912,803.835712 518.386912,770.456712 C512.160246,764.472045 506.040912,758.379712 500.028912,752.179712 C496.299912,748.352712 492.600912,743.951712 488.366912,740.706712 C488.215912,740.590712 488.060912,740.479712 487.907912,740.365712 L489.408912,767.933712 C489.903912,776.492712 491.109912,785.967712 489.691912,794.461712 C489.158912,797.651712 488.044912,800.108712 486.529912,802.911712 C490.605912,808.371712 493.147912,814.393712 494.997912,820.931712 C498.471912,833.211712 500.402912,848.619712 493.800912,860.214712 C487.640912,871.033712 475.133912,876.816712 463.597912,880.015712 C442.829912,885.774712 415.003912,886.056712 395.774912,875.059712 C388.055912,870.645712 382.116912,863.674712 379.783912,855.009712 C375.499912,839.096712 380.630912,823.281712 388.523912,809.511712 C384.761912,806.607712 381.342912,803.251712 379.792912,798.639712 C377.766912,792.610712 377.770912,785.795712 377.205912,779.505712 C376.437912,770.953045 375.590246,762.408378 374.662912,753.871712 C372.946912,739.311712 370.205912,724.926712 367.802912,710.474712 C361.284912,709.528712 354.659912,708.987712 348.107912,708.298712 C345.457912,725.378712 344.054912,742.844712 343.122912,760.104712 C342.582912,770.103712 342.833912,780.614712 341.278912,790.488712 C340.737912,793.924712 339.860912,796.621712 338.105912,799.667712 C339.145912,801.981712 339.850912,804.385712 340.315912,806.874712 C342.561912,818.893712 341.008912,831.316712 333.930912,841.480712 C321.911912,858.738712 297.414912,866.253712 277.730912,869.785712 C253.670912,874.103712 222.338912,875.585712 201.472912,860.870712 C194.110912,855.678712 189.510912,848.949712 188.003912,839.990712 C186.469912,830.870712 188.267912,821.986712 193.680912,814.431712 C203.685912,800.463712 222.874912,792.995712 239.251912,790.241712 C236.233912,782.530712 235.935912,773.502712 235.214912,765.312712 C231.726912,725.698712 232.397912,685.247712 235.608912,645.649712 C233.755912,644.080712 231.954912,642.514712 230.376912,640.660712 C225.019912,634.370712 226.523912,626.694712 225.922912,619.120712 C225.615912,615.258712 224.244912,611.563712 224.016912,607.669712 C223.122912,592.437712 225.154912,577.076712 226.416912,561.927712 C219.502912,564.175712 212.255912,565.934712 204.958912,566.170712 C186.588912,566.764712 167.092912,559.100712 152.748912,547.887712 C148.540912,544.597712 145.208912,540.006712 140.720912,537.116712 C132.175912,531.613712 128.611912,534.279712 118.793912,525.041712 C96.0009124,533.133712 69.5119124,534.890712 46.0139124,529.094712 C38.5629124,527.256712 32.3569124,524.912712 28.2239124,518.045712 C24.7639124,516.867712 20.9249124,515.560712 17.7129124,513.831712 C4.34441241,506.636712 6.37211241,500.473712 3.22821241,488.747712 C2.52641241,486.129712 1.10861241,483.718712 0.419012407,481.069712 C-0.877087593,476.093712 1.01161241,470.133712 3.64591241,465.901712 C15.6679124,446.590712 46.4619124,440.719712 67.1509124,436.151712 C66.0009124,434.961712 64.8419124,433.769712 63.7609124,432.515712 C59.0859124,427.099712 55.5909124,419.216712 56.3569124,411.993712 C56.8919124,406.950712 59.5389124,401.345712 63.6139124,398.218712 C67.6449124,395.126712 73.1509124,394.605712 78.0379124,395.308712 C81.2449124,395.769712 84.3639124,396.818712 87.3119124,398.143712 C94.6469124,401.441712 101.257912,406.254712 108.492912,409.768712 C116.742912,413.776712 125.978912,416.186712 133.628912,421.308712 C138.987912,424.896712 142.913912,429.382712 146.829912,434.451712 C150.584912,434.542712 153.960912,435.011712 157.455912,436.421712 C162.748912,438.557712 167.072912,442.294712 171.924912,445.210712 C176.304912,447.842712 181.016912,449.973712 185.494912,452.444712 C190.499912,455.205712 195.273912,458.300712 200.356912,460.935712 C206.519912,449.372712 216.659912,440.742712 227.652912,434.007712 C197.677912,416.324712 177.554912,398.869712 161.875912,367.105712 C156.247912,368.423712 150.562912,369.664712 145.012912,371.284712 C140.307912,372.656712 135.473912,374.542712 130.681912,375.458712 C129.358912,375.711712 127.795912,376.012712 126.523912,375.398712 C125.049912,374.686712 123.667912,372.880712 123.426912,371.244712 C123.182912,369.585712 123.627912,368.280712 124.701912,367.032712 C129.631912,361.307712 149.811912,357.053712 157.704912,356.241712 C154.298912,345.473712 151.900912,334.783712 149.893912,323.682712 C138.343912,322.244712 126.721912,320.685712 115.068912,320.416712 C111.095912,320.324712 107.125912,321.307712 103.181912,321.192712 C101.089912,321.131712 98.8419124,320.696712 97.4499124,318.995712 C96.4379124,317.757712 95.8879124,315.417712 96.2699124,313.873712 C96.6029124,312.521712 97.5779124,311.520712 98.7299124,310.812712 C107.431912,305.467712 138.938912,309.805712 149.275912,311.984712 C148.703912,283.159712 151.216912,254.321712 160.383912,226.838712 C158.325912,226.384045 156.284246,225.865378 154.258912,225.282712 C152.234246,224.699378 150.229579,224.053378 148.244912,223.344712 C146.260246,222.636045 144.299579,221.865378 142.362912,221.032712 C140.426912,220.200712 138.518912,219.308712 136.638912,218.356712 C134.758912,217.404712 132.910579,216.394712 131.093912,215.326712 C129.277246,214.258045 127.495912,213.133712 125.749912,211.953712 C124.003912,210.773712 122.296579,209.540045 120.627912,208.252712 C118.959246,206.965378 117.332912,205.626712 115.748912,204.236712 C89.9979124,181.858712 76.1269124,151.548712 73.7659124,117.712712 C71.5529124,86.0047116 80.2929124,53.0447116 101.523912,28.8855116 C116.133912,12.2611116 135.265912,1.70951156 157.447912,0.203411558 Z"/><path fill="#F2F2F4" d="M470.075912,132.798712 C469.548912,135.809712 469.039912,138.145712 470.997912,140.793712 C471.751912,141.813712 472.833912,142.849712 474.126912,143.074712 C475.429912,143.300712 476.597912,142.784712 477.534912,141.910712 C478.722912,140.803712 479.469912,139.262712 480.045912,137.771712 C481.442912,134.154712 481.987912,130.091712 483.095912,126.358712 C485.100912,119.607712 487.530912,112.890712 490.034912,106.309712 C505.578912,65.4567116 542.986912,17.0854116 590.457912,16.7249651 C610.711912,16.5740116 629.833912,25.0087116 644.172912,39.1633116 C663.583912,58.3237116 672.030912,85.0977116 672.019923,111.942712 C672.006912,142.381712 660.602912,171.869712 638.974912,193.470712 C617.212912,215.206712 589.382912,226.524712 558.675912,226.460712 C557.843912,226.460045 557.012246,226.447045 556.180912,226.421712 L554.063912,220.513712 C549.454912,209.967712 544.556912,199.738712 538.795912,189.769712 C539.646912,186.654712 540.628912,183.567712 541.533912,180.466712 C543.241912,174.610712 548.494912,157.623712 544.936912,152.427712 C544.109912,151.220712 543.275912,150.675712 541.832912,150.432712 C536.401912,149.519712 527.290912,157.430712 523.280912,160.631712 C526.090912,136.314712 529.381912,113.206712 540.902912,91.1737116 C551.173912,71.5317116 567.515912,53.4397116 589.241912,46.7617116 C589.998579,46.5243782 590.760912,46.3057116 591.528912,46.1057116 C592.296246,45.9057116 593.068246,45.7243782 593.844912,45.5617116 C594.620912,45.3983782 595.400579,45.2543782 596.183912,45.1297116 C596.967246,45.0043782 597.753246,44.8983782 598.541912,44.8117116 C599.330579,44.7250449 600.120912,44.6573782 600.912912,44.6087116 C601.704246,44.5600449 602.496579,44.5303782 603.289912,44.5197116 C604.083246,44.5097116 604.876246,44.5187116 605.668912,44.5467116 C606.461579,44.5747116 607.253246,44.6220449 608.043912,44.6887116 C608.833912,44.7553782 609.622246,44.8410449 610.408912,44.9457116 C611.194912,45.0503782 611.978246,45.1740449 612.758912,45.3167116 C613.538912,45.4593782 614.315246,45.6207116 615.087912,45.8007116 C615.860579,45.9807116 616.628246,46.1797116 617.390912,46.3977116 C618.154246,46.6150449 618.911579,46.8507116 619.662912,47.1047116 C620.414246,47.3587116 621.158912,47.6307116 621.896912,47.9207116 C622.635579,48.2113782 623.366579,48.5193782 624.089912,48.8447116 C624.813246,49.1707116 625.528246,49.5137116 626.234912,49.8737116 C629.812912,51.6807116 633.189912,54.3007116 636.807912,55.9077116 C638.308912,56.5737116 638.905912,56.1677116 640.363912,55.5547116 C639.340912,50.2347116 635.395912,46.7657116 631.068912,43.8617116 C619.173912,35.8791116 605.408912,33.3869116 591.402912,36.1667116 C568.908912,40.6307116 550.331912,57.3277116 538.082912,76.0357116 C522.547912,99.7637116 516.974912,127.977712 514.270912,155.735712 C513.707912,161.511712 512.282912,168.914712 513.393912,174.647712 C513.664912,176.041712 513.956912,176.956712 515.045912,177.931712 C517.306912,178.367712 518.564912,177.537712 520.426912,176.302712 C524.664912,173.491712 528.185912,169.938712 532.722912,167.527712 C532.805912,167.484712 532.884912,167.435712 532.965912,167.390712 C531.160912,176.476712 527.929912,185.499712 526.721912,194.627712 C550.046912,237.251712 558.113912,270.711712 553.823912,319.397712 C539.637912,319.700712 484.354912,323.906712 475.893912,332.663712 C474.916912,333.674712 474.464912,334.271712 474.450912,335.672712 C475.705912,337.236712 477.401912,337.768712 479.340912,338.028712 C487.854912,339.172712 500.227912,335.370712 508.998912,334.101712 C522.854912,332.097712 537.123912,330.346712 551.137912,330.492712 C546.742912,345.859712 541.660912,359.238712 533.231912,372.920712 C516.812912,367.163712 500.007912,362.511712 482.552912,361.417712 C479.752912,361.241712 475.216912,360.701712 472.724912,362.192712 C471.669912,362.824712 471.013912,363.951712 470.898912,365.165712 C470.778912,366.423712 471.175912,367.647712 472.080912,368.525712 C473.676912,370.075712 486.880912,371.671712 489.622912,372.135712 C501.821912,374.199712 514.487912,377.432712 525.880912,382.284712 C522.115912,387.544712 516.786912,392.519712 512.022912,396.872712 C482.804912,423.570712 443.118912,439.378712 404.463912,445.840712 C399.532912,446.664712 384.710912,447.273712 381.871912,451.137712 C380.589912,452.880712 380.171912,455.447712 378.512912,456.886712 C374.782912,460.126712 369.698912,462.731712 365.515912,465.411712 L336.232912,484.115712 C326.303912,480.237712 306.930912,463.724712 302.725912,454.029712 C300.764912,449.507712 301.087912,446.584712 296.177912,444.646712 C287.284912,441.136712 277.139912,439.896712 267.989912,436.782712 C229.695912,423.751712 194.347912,401.408712 175.590912,364.335712 C180.377912,363.920712 191.823912,364.257712 195.047912,360.684712 C195.967912,359.663712 196.370912,358.705712 196.252912,357.325712 C196.183912,356.509712 195.824912,355.916712 195.186912,355.380712 C191.258912,352.080712 176.161912,353.969712 171.143912,354.591712 C168.214912,345.375712 165.936912,336.271712 163.987912,326.801712 C169.353912,328.372712 189.052912,335.395712 192.854912,333.338712 C194.053912,332.689712 194.695912,332.090712 195.399912,330.895712 C195.451912,329.488712 195.306912,328.762712 194.250912,327.680712 C188.990912,322.296712 170.681912,317.691712 163.108912,315.408712 C159.791912,260.394712 174.664912,202.560712 211.699912,160.673712 C230.211912,139.736712 252.631912,124.636712 278.908912,115.199712 C283.246912,113.641712 289.510912,110.875712 294.016912,110.835712 C297.432912,110.805712 302.851912,113.624712 305.828912,111.257712 C306.803912,110.480712 307.387912,109.311712 307.357912,108.063712 C307.265912,104.260712 303.109912,100.984712 301.158912,97.9477116 C308.634912,97.0647116 316.777912,97.3677116 324.077912,99.2937116 C326.969912,100.056712 330.525912,101.621712 333.476912,101.837712 C334.853912,101.937712 335.890912,101.332712 336.921912,100.489712 C337.629912,99.1787116 337.794912,98.2307116 337.415912,96.7887116 C335.517912,89.5597116 326.547912,83.8627116 322.365912,77.6967116 C345.457912,80.0457116 361.264912,87.5637116 378.793912,102.268712 C405.238912,98.7737116 448.336912,117.605712 470.075912,132.798712 Z"/><path fill="#FAC3B7" d="M523.280912,160.631712 C526.090912,136.314712 529.381912,113.206712 540.902912,91.1737116 C551.173912,71.5317116 567.515912,53.4397116 589.241912,46.7617116 C589.998579,46.5243782 590.760912,46.3057116 591.528912,46.1057116 C592.296246,45.9057116 593.068246,45.7243782 593.844912,45.5617116 C594.620912,45.3983782 595.400579,45.2543782 596.183912,45.1297116 C596.967246,45.0043782 597.753246,44.8983782 598.541912,44.8117116 C599.330579,44.7250449 600.120912,44.6573782 600.912912,44.6087116 C601.704246,44.5600449 602.496579,44.5303782 603.289912,44.5197116 C604.083246,44.5097116 604.876246,44.5187116 605.668912,44.5467116 C606.461579,44.5747116 607.253246,44.6220449 608.043912,44.6887116 C608.833912,44.7553782 609.622246,44.8410449 610.408912,44.9457116 C611.194912,45.0503782 611.978246,45.1740449 612.758912,45.3167116 C613.538912,45.4593782 614.315246,45.6207116 615.087912,45.8007116 C615.860579,45.9807116 616.628246,46.1797116 617.390912,46.3977116 C618.154246,46.6150449 618.911579,46.8507116 619.662912,47.1047116 C620.414246,47.3587116 621.158912,47.6307116 621.896912,47.9207116 C622.635579,48.2113782 623.366579,48.5193782 624.089912,48.8447116 C624.813246,49.1707116 625.528246,49.5137116 626.234912,49.8737116 C629.812912,51.6807116 633.189912,54.3007116 636.807912,55.9077116 C638.308912,56.5737116 638.905912,56.1677116 640.363912,55.5547116 C652.086912,64.4097116 659.652912,87.3187116 661.641912,101.279712 C665.716912,129.885712 658.179912,156.524712 640.687912,179.454712 C622.916912,202.751712 598.728912,214.821712 570.114912,218.484712 C566.702912,218.921712 556.343912,218.996712 554.063912,220.513712 C549.454912,209.967712 544.556912,199.738712 538.795912,189.769712 C539.646912,186.654712 540.628912,183.567712 541.533912,180.466712 C543.241912,174.610712 548.494912,157.623712 544.936912,152.427712 C544.109912,151.220712 543.275912,150.675712 541.832912,150.432712 C536.401912,149.519712 527.290912,157.430712 523.280912,160.631712 Z"/><path fill="#313945" d="M312.180912,316.682712 C318.962912,315.813712 327.548912,316.812712 333.790912,319.704712 C339.073912,322.151712 343.664912,326.230712 345.604912,331.848712 C347.484912,337.293712 346.332912,343.269712 343.710912,348.268712 C339.127912,357.005712 331.274912,361.048712 322.317912,364.004712 C323.300912,370.470712 323.913912,376.941712 324.502912,383.452712 C329.782912,383.391712 335.775912,383.217712 340.869912,384.753712 C352.553912,388.276712 363.987912,396.042712 369.424912,407.287712 C370.449912,409.407712 371.335912,412.148712 370.241912,414.422712 C369.556912,415.848712 368.200912,416.893712 366.685912,417.298712 C365.103912,417.722712 363.604912,417.606712 362.219912,416.667712 C360.247912,415.331712 358.382912,412.294712 356.811912,410.456712 C353.536912,406.625712 350.158912,403.718712 345.905912,401.028712 C344.889246,400.443378 343.844912,399.912378 342.772912,399.435712 C341.700912,398.959045 340.607246,398.539378 339.491912,398.176712 C338.376579,397.813378 337.245246,397.509045 336.097912,397.263712 C334.951246,397.017712 333.794579,396.832045 332.627912,396.706712 C324.021912,395.744712 314.078912,398.047712 307.688912,404.178712 C305.417912,406.357712 303.534912,409.164712 301.011912,411.052712 C299.527912,412.162712 296.888912,413.056712 295.072912,412.534712 C293.733912,412.149712 292.959912,411.260712 292.381912,410.040712 C291.301912,407.759712 291.847912,404.400712 292.718912,402.147712 C296.048912,393.535712 306.444912,389.087712 314.342912,385.874712 C314.230912,378.546712 313.483912,371.413712 312.239912,364.191712 C305.817912,363.422712 299.837912,361.956712 294.518912,358.093712 C289.027912,354.106712 284.983912,347.958712 284.048912,341.185712 C283.362912,336.220712 284.504912,331.529712 287.541912,327.530712 C293.438912,319.763712 303.079912,317.742712 312.180912,316.682712 Z"/><path fill="#FAC3B7" d="M312.285912,325.666712 C318.192912,325.338712 324.460912,325.188712 329.847912,328.046712 C332.516912,329.463712 334.720912,331.661712 335.570912,334.617712 C336.532912,337.967712 335.671912,341.576712 333.903912,344.506712 C330.534912,350.088712 324.556912,352.960712 318.453912,354.468712 C312.094912,354.729712 306.164912,354.226712 300.819912,350.332712 C297.392912,347.835712 294.706912,344.071712 294.136912,339.803712 C293.773912,337.080712 294.354912,334.326712 296.054912,332.135712 C299.750912,327.373712 306.697912,326.406712 312.285912,325.666712 Z"/><path fill="#313945" d="M419.698912,249.571712 C425.534912,249.233712 431.088912,250.002712 436.188912,253.064712 C443.844912,257.659712 448.648912,266.100712 450.762912,274.578712 C453.801912,286.764712 452.449912,300.552712 445.861912,311.376712 C441.157912,319.105712 434.776912,323.725712 425.944912,325.861712 C425.534912,325.936378 425.123246,326.001045 424.709912,326.055712 C424.296579,326.111045 423.882246,326.156378 423.466912,326.191712 C423.052246,326.227045 422.636579,326.252378 422.219912,326.267712 C421.803246,326.283045 421.386579,326.288378 420.969912,326.283712 C420.553246,326.279712 420.136912,326.265378 419.720912,326.240712 C419.304246,326.216712 418.888912,326.182712 418.474912,326.138712 C418.060246,326.094712 417.646912,326.040712 417.234912,325.976712 C416.822912,325.912712 416.412912,325.839045 416.004912,325.755712 C415.596246,325.673045 415.189912,325.580378 414.785912,325.477712 C414.381912,325.375045 413.980579,325.262712 413.581912,325.140712 C413.183246,325.018712 412.787912,324.887378 412.395912,324.746712 C412.003246,324.606045 411.614246,324.456378 411.228912,324.297712 C410.844246,324.138378 410.463246,323.970045 410.085912,323.792712 C409.708579,323.615378 409.335912,323.429378 408.967912,323.234712 C408.599246,323.039378 408.235579,322.835378 407.876912,322.622712 C407.518246,322.410712 407.164912,322.190045 406.816912,321.960712 C399.265912,316.979712 394.995912,307.982712 393.361912,299.313712 C391.054912,287.073712 393.002912,272.252712 400.203912,261.864712 C405.040912,254.885712 411.373912,251.112712 419.698912,249.571712 Z"/><path fill="#FFF" d="M428.358912,266.507712 C429.618912,266.434712 431.025912,266.362712 432.273912,266.589712 C434.408912,266.977712 436.501912,268.872712 437.616912,270.654712 C438.987912,272.844712 439.409912,275.618712 438.817912,278.127712 C438.040912,281.422712 436.256912,283.111712 433.419912,284.749712 C432.307912,284.860712 431.124912,284.980712 430.009912,284.841712 C427.876912,284.575712 425.859912,282.874712 424.724912,281.129712 C423.208912,278.800712 422.786912,275.854712 423.350912,273.156712 C423.997912,270.061712 425.786912,268.191712 428.358912,266.507712 Z"/><path fill="#313945" d="M241.591912,247.080712 C246.249912,246.666712 250.717912,247.491712 254.840912,249.774712 C262.278912,253.893712 266.681912,261.923712 268.912912,269.867712 C272.354912,282.123712 271.298912,296.318712 264.916912,307.465712 C260.551912,315.089712 254.356912,320.279712 245.779912,322.552712 C239.503912,322.930712 234.173912,322.203712 228.880912,318.465712 C221.520912,313.267712 217.552912,304.752712 215.975912,296.093712 C213.711912,283.659712 215.734912,269.365712 223.036912,258.844712 C227.608912,252.258712 233.713912,248.527712 241.591912,247.080712 Z"/><path fill="#FFF" d="M250.220912,262.474712 C251.234912,262.562712 252.297912,262.711712 253.267912,263.027712 C255.400912,263.722712 257.305912,265.670712 258.268912,267.655712 C258.426912,267.988378 258.567246,268.328712 258.689912,268.676712 C258.812579,269.024045 258.916912,269.377045 259.002912,269.735712 C259.088912,270.094378 259.155912,270.456378 259.203912,270.821712 C259.251246,271.187045 259.279912,271.554045 259.289912,271.922712 C259.299246,272.291378 259.289579,272.659378 259.260912,273.026712 C259.231579,273.394045 259.183579,273.759045 259.116912,274.121712 C259.049579,274.484378 258.963579,274.842378 258.858912,275.195712 C258.754246,275.549045 258.631579,275.896045 258.490912,276.236712 C257.360912,278.996712 255.578912,280.155712 252.928912,281.293712 C252.837912,281.282712 252.746912,281.270712 252.655912,281.260712 C251.703912,281.156712 250.712912,281.076712 249.785912,280.824712 C247.710912,280.258712 245.684912,278.206712 244.716912,276.347712 C244.570912,276.060378 244.439246,275.766378 244.321912,275.465712 C244.205246,275.165712 244.103246,274.860378 244.015912,274.549712 C243.929246,274.239712 243.857912,273.926045 243.801912,273.608712 C243.745912,273.291378 243.705246,272.971712 243.679912,272.649712 C243.655246,272.328378 243.646579,272.006712 243.653912,271.684712 C243.660579,271.362712 243.683246,271.041712 243.721912,270.721712 C243.760579,270.401712 243.814912,270.084378 243.884912,269.769712 C243.954246,269.455045 244.039246,269.144378 244.139912,268.837712 C245.185912,265.541712 247.234912,263.966712 250.220912,262.474712 Z"/><path fill="#313945" d="M405.519912 170.428712C406.325912 170.419712 407.230912 170.370712 408.023912 170.513712 412.926912 171.400712 415.882912 177.647712 420.063912 180.146712 423.215912 182.030712 427.152912 183.066712 430.643912 184.143712 443.058912 187.973712 453.806912 191.467712 461.504912 202.630712 462.707912 204.373712 464.146912 206.534712 463.485912 208.757712 462.853912 210.878712 461.033912 211.626712 459.208912 212.497712 453.935912 209.643712 451.111912 203.309712 445.350912 200.411712 431.889912 193.639712 412.893912 194.730712 402.812912 181.988712 401.561912 180.406712 400.670912 178.645712 401.015912 176.582712 401.504912 173.661712 403.232912 172.098712 405.519912 170.428712ZM259.430912 171.961712C261.212912 172.321712 262.758912 172.560712 264.108912 173.872712 265.266912 175.000712 265.835912 177.171712 265.832924 178.738712 265.812912 191.373712 233.924912 195.066712 225.339912 199.388712 221.206912 201.469712 217.835912 205.728712 214.732912 209.090712 213.802912 209.384712 213.165912 209.612712 212.171912 209.492712 211.160912 209.370712 209.995912 208.387712 209.504912 207.496712 208.679912 206.000712 209.131912 204.266712 209.653912 202.757712 214.853912 187.734712 233.667912 186.571712 245.931912 180.862712 250.925912 178.537712 254.607912 174.434712 259.430912 171.961712Z"/><path fill="#7A7BBE" d="M421.130912,461.764712 C412.413912,469.162712 370.256912,483.781712 367.616912,488.613712 C367.065912,489.621712 367.288912,490.073712 367.640912,491.044712 C371.451912,494.410712 379.468912,490.942712 383.637912,489.477712 C405.487912,481.799712 426.501912,469.763712 445.543912,456.706712 C456.623912,449.109712 468.542912,439.427712 480.721912,433.875712 C484.604912,432.105712 488.244912,431.485712 492.478912,432.111712 C509.774912,434.669712 525.058912,451.299712 534.777912,464.785712 C528.250912,470.186712 520.023912,475.023712 515.728912,482.586712 C515.162912,483.583712 514.870912,484.636712 515.244912,485.754712 C515.719912,487.173712 516.475912,487.979712 517.855912,488.555712 C518.875912,488.981712 519.723912,488.919712 520.688912,488.343712 C523.844912,486.462712 526.744912,483.508712 529.552912,481.137712 C536.733912,475.075712 544.461912,469.563712 553.314912,466.247712 C551.286912,476.311712 550.769912,485.619712 553.119912,495.687712 C557.263912,513.437712 567.271912,526.048712 582.533912,535.580712 C581.515912,536.583712 580.364912,537.517712 579.273912,538.442712 C565.440912,550.166712 545.287912,558.213712 526.983912,556.540712 C508.440912,554.845712 490.979912,545.168712 479.007912,530.976712 C475.524912,526.848712 472.827912,521.999712 469.268912,517.971712 C467.708912,516.205712 466.156912,515.084712 463.785912,514.885712 C462.914912,515.128712 462.427912,515.303712 461.805912,516.017712 C461.047912,516.885712 460.741912,517.750712 460.827912,518.897712 C461.482912,527.633712 475.814912,543.261712 482.364912,548.863712 C484.151912,558.883712 488.784912,602.740712 484.962912,610.673712 C481.994912,616.832712 472.458912,620.076712 466.420912,622.102712 C417.376912,638.553712 291.666912,639.489712 245.740912,616.043712 C242.041912,614.155712 237.652912,611.497712 236.304912,607.320712 C234.229912,600.887712 236.031912,588.904712 236.565912,582.055712 C238.136579,561.459045 240.274246,540.921712 242.978912,520.443712 C244.433912,509.338712 246.670912,498.057712 247.639912,486.918712 C247.818912,484.859712 248.030912,482.076712 247.187912,480.157712 C246.690912,479.026712 246.573912,478.885712 245.474912,478.361712 C244.421912,478.455712 243.720912,478.761712 242.891912,479.435712 C234.782912,486.034712 230.134912,535.230712 228.885912,546.778712 C219.960912,551.192712 210.908912,553.468712 200.915912,553.263712 C181.649912,552.866712 163.239912,542.584712 150.178912,528.894712 C157.203912,524.003712 162.959912,518.278712 167.465912,510.947712 C176.772912,495.803712 178.511912,476.666712 174.412912,459.611712 C183.569912,464.093712 192.852912,469.613712 201.000912,475.727712 C204.005912,477.981712 211.434912,484.682712 214.709912,485.475712 C215.713912,485.717712 216.950912,485.313712 217.686912,484.637712 C218.671912,483.731712 219.164912,482.677712 219.014912,481.309712 C218.592912,477.485712 211.610912,471.733712 208.851912,469.117712 C210.075246,467.419712 211.347579,465.759045 212.668912,464.135712 C219.953912,455.298712 232.888912,443.206712 244.978912,442.306712 C246.452912,442.196712 248.478912,442.280712 249.837912,442.935712 C253.591912,444.746712 265.002912,458.914712 268.662912,462.728712 C271.669579,465.872712 274.848912,468.831378 278.200912,471.604712 C285.131912,477.340712 300.998912,489.322712 310.532912,488.393712 C311.364912,487.852712 311.927912,487.713712 312.008912,486.614712 C312.239912,483.458712 308.538912,481.613712 306.216912,480.410712 C291.446912,472.757712 279.632912,461.762712 268.764912,449.329712 C275.966912,451.369712 283.118912,453.083712 290.531912,454.214712 C302.707912,471.524712 315.787912,485.936712 336.457912,492.656712 C336.614912,492.614712 336.771912,492.574712 336.927912,492.530712 L337.706912,492.302712 C351.308912,488.400712 382.779912,467.873712 394.776912,458.785712 C401.045912,458.297712 407.247912,457.021712 413.523912,456.642712 C421.914912,455.222712 430.535912,453.532712 438.565912,450.676712 C432.951912,454.415712 427.169912,458.757712 421.130912,461.764712 Z"/><path fill="#46759A" d="M247.054912,651.144712 C278.350912,663.577712 304.817912,666.542712 338.331912,668.476712 C384.148912,671.119712 428.421912,668.860712 472.434912,654.999712 C473.554912,679.470378 474.552246,703.946378 475.426912,728.427712 C476.053912,743.691712 477.298912,759.066712 477.388912,774.335712 C460.921912,785.321712 426.724912,786.017712 407.338912,783.021712 C402.951912,782.343712 392.148912,780.734712 389.318912,776.876712 C388.361912,765.637712 382.336912,706.602712 377.262912,701.595712 C375.836912,700.188712 372.825912,699.435712 370.937912,699.024712 C363.369912,697.375712 355.030912,697.235712 347.315912,696.111712 C343.792912,695.598712 316.058912,690.524712 314.852912,690.785712 C313.120912,691.159712 312.575912,692.024712 311.726912,693.482712 C311.714912,694.418712 311.574912,694.780712 312.065912,695.618712 C315.001912,700.629712 330.848912,702.758712 336.114912,703.946712 C333.166912,726.395712 332.095912,748.920712 330.266912,771.465712 C329.166912,771.893712 328.068912,772.266712 326.930912,772.582712 C308.601912,777.654712 280.590912,777.538712 262.334912,772.266712 C257.207912,770.786712 252.571912,768.596712 247.938912,765.978712 C246.186912,752.973712 246.101912,739.352712 245.833912,726.227712 C245.374579,701.185712 245.781579,676.158045 247.054912,651.144712 Z"/><path fill="#FAC3B7" d="M165.272912,214.191712 C162.891579,213.793045 160.534912,213.279045 158.202912,212.649712 C155.871579,212.020378 153.576579,211.279045 151.317912,210.425712 C149.059246,209.572378 146.847246,208.610712 144.681912,207.540712 C142.517246,206.470712 140.409912,205.297712 138.359912,204.021712 C114.385912,189.295712 97.0239124,164.309712 90.5579124,136.994712 C83.7869124,108.389712 87.5539124,75.6207116 103.168912,50.4327116 C113.608912,33.5911116 129.498912,19.7925116 149.143912,15.3282116 C165.541912,11.6015116 181.893912,16.1990116 195.865912,25.0095116 C227.855912,45.1827116 240.353912,78.9937116 248.110912,113.991712 C237.596912,120.235712 227.463912,126.608712 218.488912,135.016712 C218.603579,130.572712 218.445246,126.138378 218.013912,121.713712 C215.514912,93.4647116 206.116912,62.7297116 183.560912,44.0607116 C172.597912,34.9875116 159.649912,29.8318116 145.260912,31.2819116 C139.000912,31.9127116 126.705912,35.3716116 123.028912,40.8277116 C121.637912,42.8927116 121.868912,44.4737116 122.130912,46.8297116 C136.491912,40.9037116 149.330912,37.8930116 164.244912,44.1447116 C181.141912,51.2277116 192.895912,68.0977116 199.568912,84.5377116 C207.161912,103.242712 209.632912,124.306712 208.932912,144.415712 C191.127912,164.471712 178.178912,183.641712 167.404912,208.310712 L165.272912,214.191712 Z"/><path fill="#F2F2F4" d="M165.272912,214.191712 C162.891579,213.793045 160.534912,213.279045 158.202912,212.649712 C155.871579,212.020378 153.576579,211.279045 151.317912,210.425712 C149.059246,209.572378 146.847246,208.610712 144.681912,207.540712 C142.517246,206.470712 140.409912,205.297712 138.359912,204.021712 C114.385912,189.295712 97.0239124,164.309712 90.5579124,136.994712 C83.7869124,108.389712 87.5539124,75.6207116 103.168912,50.4327116 C113.608912,33.5911116 129.498912,19.7925116 149.143912,15.3282116 C165.541912,11.6015116 181.893912,16.1990116 195.865912,25.0095116 C227.855912,45.1827116 240.353912,78.9937116 248.110912,113.991712 C237.596912,120.235712 227.463912,126.608712 218.488912,135.016712 C218.603579,130.572712 218.445246,126.138378 218.013912,121.713712 C215.514912,93.4647116 206.116912,62.7297116 183.560912,44.0607116 C172.597912,34.9875116 159.649912,29.8318116 145.260912,31.2819116 C139.000912,31.9127116 126.705912,35.3716116 123.028912,40.8277116 C121.637912,42.8927116 121.868912,44.4737116 122.130912,46.8297116 C118.977912,49.0247116 116.512912,51.9267116 114.040912,54.8387116 C104.353912,66.2537116 99.2039124,79.0087116 96.5289124,93.6647116 C91.7529124,119.836712 98.1299124,149.278712 113.444912,171.079712 C127.051912,190.449712 144.864912,201.762712 167.404912,208.310712 L165.272912,214.191712 Z"/><path fill="#FEC8A7" d="M751.277912,544.674712 C767.132912,542.469712 785.117912,547.096712 798.209912,556.129712 C812.379912,565.905712 822.739912,581.256712 825.777912,598.290712 C826.652912,603.195712 827.753912,616.753712 824.956912,620.751712 C823.669912,620.210712 821.191912,608.649712 820.430912,606.511712 C815.710912,593.250712 807.032912,581.020712 795.242912,573.192712 C794.500246,572.697378 793.745912,572.221045 792.979912,571.763712 C792.213246,571.306378 791.435912,570.868378 790.647912,570.449712 C789.859912,570.031045 789.061579,569.632378 788.252912,569.253712 C787.444912,568.874378 786.627912,568.516045 785.801912,568.178712 C784.975912,567.840712 784.141912,567.523378 783.299912,567.226712 C782.457912,566.930712 781.609246,566.655712 780.753912,566.401712 C779.897912,566.147712 779.036246,565.915378 778.168912,565.704712 C777.301579,565.494045 776.429579,565.305045 775.552912,565.137712 C774.676246,564.971045 773.795912,564.826045 772.911912,564.702712 C772.027912,564.579378 771.141579,564.478378 770.252912,564.399712 C769.363579,564.320378 768.472912,564.263712 767.580912,564.229712 C766.689579,564.195045 765.797579,564.183045 764.904912,564.193712 C764.012246,564.203712 763.120579,564.236045 762.229912,564.290712 C761.339246,564.345378 760.450246,564.422378 759.562912,564.521712 C758.676246,564.621045 757.792246,564.742378 756.910912,564.885712 C756.030246,565.029045 755.153579,565.194378 754.280912,565.381712 C739.629912,568.444712 727.136912,577.999712 719.060912,590.460712 C705.417912,611.513712 707.350912,636.064712 715.572912,658.699712 C719.897912,670.608712 725.351912,681.969712 727.908912,694.462712 C732.910912,718.895712 728.671912,743.764712 714.856912,764.656712 C699.996912,787.129712 676.320912,801.306712 650.137912,806.432712 C614.600912,813.390712 580.650912,801.983712 551.274912,782.363712 C536.264912,771.834712 522.976912,759.060712 510.083912,746.093712 C502.404912,738.370712 494.919912,730.349712 486.569912,723.342712 C486.424912,711.309712 486.210912,699.200712 485.471912,687.189712 C502.605912,697.362712 515.879912,713.233712 529.496912,727.508712 C539.791912,738.299712 550.597912,748.861712 562.437912,757.960712 C584.325912,774.781712 611.645912,785.397712 639.524912,781.645712 C659.687912,778.932712 678.364912,769.400712 690.810912,753.044712 C709.220912,728.852712 707.121912,698.931712 697.482912,671.656712 C692.965912,658.873712 687.313912,647.109712 685.539912,633.483712 C685.447912,632.819045 685.364246,632.153378 685.288912,631.486712 C685.214246,630.819378 685.147579,630.151712 685.088912,629.483712 C685.030246,628.815045 684.980246,628.145712 684.938912,627.475712 C684.896912,626.806378 684.863579,626.136378 684.838912,625.465712 C684.814246,624.795045 684.797912,624.124045 684.789912,623.452712 C684.781912,622.782045 684.782579,622.111378 684.791912,621.440712 C684.800579,620.769378 684.817579,620.098378 684.842912,619.427712 C684.868912,618.757045 684.903246,618.087045 684.945912,617.417712 C684.988579,616.747712 685.039579,616.078712 685.098912,615.410712 C685.158246,614.742045 685.225912,614.074378 685.301912,613.407712 C685.377912,612.741045 685.462246,612.075378 685.554912,611.410712 C685.648246,610.746045 685.749579,610.082712 685.858912,609.420712 C685.968246,608.758712 686.085912,608.098045 686.211912,607.438712 C686.337912,606.780045 686.472246,606.122712 686.614912,605.466712 C686.757579,604.811378 686.908579,604.157712 687.067912,603.505712 C687.226579,602.853712 687.393579,602.203712 687.568912,601.555712 C687.744246,600.908378 687.927912,600.263045 688.119912,599.619712 C688.311246,598.976378 688.510912,598.335712 688.718912,597.697712 C688.926246,597.059712 689.141579,596.424378 689.364912,595.791712 C689.588912,595.159045 689.820579,594.529378 690.059912,593.902712 C690.299246,593.275378 690.546579,592.651378 690.801912,592.030712 C691.056579,591.410045 691.319246,590.792712 691.589912,590.178712 C691.860579,589.564712 692.138912,588.954378 692.424912,588.347712 C692.710912,587.740378 693.004246,587.136712 693.304912,586.536712 C693.606246,585.937378 693.914912,585.341712 694.230912,584.749712 C694.546912,584.157712 694.870246,583.569712 695.200912,582.985712 C695.531579,582.401712 695.869912,581.822045 696.215912,581.246712 C696.561246,580.671378 696.913579,580.100712 697.272912,579.534712 C697.632912,578.968045 697.999579,578.406045 698.372912,577.848712 C698.746912,577.291378 699.127912,576.738712 699.515912,576.190712 C699.903246,575.643378 700.297579,575.100712 700.698912,574.562712 C701.100246,574.024712 701.508246,573.492045 701.922912,572.964712 C714.221912,557.152712 731.435912,547.215712 751.277912,544.674712 Z"/><path fill="#F2F2F4" d="M664.465912,415.102712 C665.922912,415.017712 667.393912,414.909712 668.828912,415.245712 C670.440912,415.622712 671.924912,416.417712 672.755912,417.912712 C673.866912,419.912712 674.043912,422.580712 673.419912,424.758712 C670.947912,433.396712 661.815912,436.785712 654.814912,440.765712 C652.631912,442.006712 650.679912,443.268712 650.008912,445.802712 C651.580912,451.395712 678.207912,461.042712 684.515912,464.074712 C689.810912,466.620712 695.023912,469.455712 699.823912,472.854712 C707.439912,478.245712 715.646912,485.795712 717.316912,495.437712 L716.811912,496.011712 C713.942912,494.873712 711.347912,491.539712 708.823912,489.628712 C706.622912,487.962712 704.233912,486.517712 701.903912,485.039712 C696.587912,481.668712 674.053912,471.447712 668.497912,473.231712 C667.361912,473.596712 666.388912,474.290712 665.954912,475.458712 C665.480912,476.733712 665.761912,477.422712 666.181912,478.609712 C669.915912,482.327712 677.020912,483.912712 681.928912,485.801712 C690.106912,488.947712 705.730912,495.888712 709.217912,504.409712 C710.083912,506.525712 710.140912,508.818712 709.158912,510.908712 C707.282912,514.901712 702.978912,516.419712 699.147912,517.869712 C699.020912,517.565712 698.897912,517.260712 698.766912,516.958712 C694.625912,507.351712 684.831912,502.941712 675.723912,499.283712 C670.901912,497.581712 660.265912,493.296712 655.538912,494.341712 C653.842912,494.716712 653.194912,495.393712 652.349912,496.850712 C652.422912,498.627712 652.792912,499.481712 654.191912,500.611712 C659.734912,505.087712 675.965912,508.620712 684.913912,514.799712 C686.231912,515.709712 688.251912,516.986712 689.024912,518.396712 C689.754912,519.730712 689.626912,520.060712 689.299912,521.455712 C687.647912,523.525712 685.513912,524.445712 683.009912,525.196712 C664.438912,530.767712 621.832912,523.842712 604.673912,514.331712 C604.038579,513.977045 603.412246,513.607045 602.794912,513.221712 C602.177579,512.836378 601.569912,512.435712 600.971912,512.019712 C600.374579,511.604378 599.787912,511.174045 599.211912,510.728712 C598.635912,510.284045 598.071246,509.825378 597.517912,509.352712 C596.964579,508.880045 596.423246,508.394045 595.893912,507.894712 C595.364579,507.394712 594.847912,506.882045 594.343912,506.356712 C593.840579,505.831378 593.350246,505.294045 592.872912,504.744712 C592.395579,504.195378 591.932246,503.634378 591.482912,503.061712 C591.033579,502.489045 590.598579,501.905712 590.177912,501.311712 C589.757912,500.717712 589.352579,500.113712 588.961912,499.499712 C588.571246,498.885045 588.196246,498.261378 587.836912,497.628712 C587.477579,496.996045 587.133912,496.354712 586.805912,495.704712 C586.477912,495.054712 586.166579,494.397045 585.871912,493.731712 C585.576579,493.066378 585.297912,492.394378 585.035912,491.715712 C584.774579,491.036378 584.529912,490.351045 584.301912,489.659712 C584.073912,488.968378 583.863246,488.272045 583.669912,487.570712 C583.477912,486.852712 583.303246,486.130378 583.145912,485.403712 C582.989246,484.676378 582.850246,483.946045 582.728912,483.212712 C582.607579,482.479378 582.504246,481.743378 582.418912,481.004712 C582.333579,480.266045 582.266579,479.525712 582.217912,478.783712 C582.168579,478.042378 582.137579,477.299712 582.124912,476.555712 C582.112246,475.812378 582.118349,475.069378 582.141912,474.326712 C582.165246,473.583378 582.206912,472.841045 582.266912,472.099712 C582.326912,471.359045 582.404912,470.620045 582.500912,469.882712 C582.596912,469.145378 582.710912,468.411045 582.842912,467.679712 C582.974912,466.947712 583.124912,466.219712 583.292912,465.495712 C583.460246,464.771045 583.645579,464.051045 583.848912,463.335712 C584.051579,462.620378 584.271579,461.910712 584.508912,461.206712 C584.746912,460.502045 585.001579,459.803712 585.272912,459.111712 C585.544912,458.419712 585.833579,457.734712 586.138912,457.056712 C586.444246,456.378712 586.765912,455.708712 587.103912,455.046712 C587.441912,454.384045 587.795912,453.730378 588.165912,453.085712 C600.283912,431.646712 620.131912,431.692712 641.010912,424.545712 C649.024912,421.802712 656.245912,417.351712 664.465912,415.102712 Z"/><path fill="#34475D" d="M612.217912,472.456712 C616.288912,472.640712 619.812912,473.815712 623.346912,475.769712 C626.770912,477.663712 633.318912,482.048712 633.918912,486.097712 C634.129912,487.523712 633.523912,488.007712 632.706912,489.035712 C628.918912,486.984712 625.612912,483.868712 621.795912,481.705712 C618.443912,479.806712 613.378912,478.175712 610.638912,475.601712 C610.786912,474.123712 611.350912,473.636712 612.217912,472.456712 Z"/><path fill="#F2F2F4" d="M74.4909124,408.025712 C75.4999124,408.141712 76.4909124,408.274712 77.4819124,408.502712 C85.4969124,410.343712 93.4279124,416.694712 100.823912,420.418712 C110.129912,425.105712 120.585912,428.110712 128.934912,434.530712 C132.786912,437.492712 135.809912,441.534712 138.344912,445.640712 C145.167912,456.694712 147.997912,469.721712 144.883912,482.496712 C142.157912,493.680712 134.849912,502.700712 125.034912,508.535712 C105.335912,520.245712 69.8389124,522.216712 48.0169124,516.636712 C44.8179124,515.818712 39.8709124,514.391712 38.3469124,511.188712 C37.7889124,510.016712 37.6459124,508.806712 38.2279124,507.617712 C42.2939124,499.308712 65.2079124,498.239712 72.0289124,494.959712 C73.4809124,494.261712 74.0929124,493.639712 74.6169124,492.132712 C74.2249124,490.930712 73.7609124,490.282712 72.7529124,489.545712 C69.1479124,486.911712 59.0959124,489.401712 55.0639124,490.098712 C43.8689124,492.301712 35.6399124,495.614712 28.3459124,504.619712 C26.3199124,504.040712 24.2869124,503.329712 22.5309124,502.137712 C20.1039124,500.490712 17.7689124,497.979712 17.3879124,494.951712 C16.1999124,485.510712 34.6099124,478.417712 41.5779124,476.259712 C47.0939124,474.550712 59.3289124,473.870712 62.8919124,469.413712 C63.0799124,468.393712 63.2659124,467.870712 62.5809124,466.952712 C61.4199124,465.396712 59.1889124,464.749712 57.3599124,464.531712 C43.5679124,462.889712 21.6549124,473.794712 10.8541124,481.969712 C11.6008124,479.554712 12.3387124,476.929712 13.5239124,474.684712 C23.3139124,456.131712 57.9729124,451.155712 76.3059124,445.777712 C79.2929124,444.901712 86.5349124,443.194712 87.9009124,440.198712 C88.2969124,439.328712 88.0799124,438.450712 87.5459124,437.676712 C86.3159124,435.893712 84.3109124,434.431712 82.6859124,433.016712 C77.3859124,428.398712 72.0099124,423.491712 69.5199124,416.708712 C68.8839124,414.978712 68.9059124,413.308712 69.7679124,411.656712 C70.7439124,409.787712 72.5919124,408.715712 74.4909124,408.025712 Z"/><path fill="#34475D" d="M114.093912,470.167712 C115.430912,470.132712 117.025912,469.934712 118.273912,470.493712 C119.148912,470.885712 118.826912,470.656712 119.263912,471.668712 C117.800912,475.329712 108.303912,477.846712 104.826912,479.779712 C102.408912,481.123712 100.184912,482.891712 97.9819124,484.557712 C97.0729124,485.090712 96.5009124,485.541712 95.4119124,485.533816 C94.6019124,485.527712 94.5269124,485.172712 94.0089124,484.637712 C93.6819124,482.362712 94.7559124,480.713712 96.1219124,478.972712 C100.458912,473.450712 107.362912,470.988712 114.093912,470.167712 Z"/><path fill="#F2F2F4" d="M248.532912 801.136712C249.460912 800.986712 250.303912 800.896712 251.232912 801.078712 254.385912 801.698712 257.666912 803.053712 260.755912 803.996712 265.575246 805.426712 270.473579 806.492378 275.450912 807.193712 292.937912 809.595712 309.805912 808.335712 327.082912 805.222712 328.116912 809.035712 328.795912 812.919712 328.759912 816.881712 328.683912 825.368712 325.347912 832.816712 319.242912 838.675712 300.308912 856.847712 267.069912 860.110712 242.084912 859.504712 242.574912 852.767712 243.999912 846.311712 247.697912 840.544712 250.374912 836.371712 257.034912 832.484712 257.486912 827.769712 256.927912 827.499712 256.382912 827.208712 255.751912 827.149712 253.034912 826.896712 249.640912 828.440712 247.567912 830.094712 238.954912 836.965712 234.797912 847.906712 233.789912 858.560712 228.506912 858.242712 221.280912 857.824712 216.718912 854.910712 215.029912 853.831712 214.197912 852.302712 213.880912 850.359712 212.777912 843.603712 216.553912 834.369712 220.506912 828.995712 222.115912 826.806712 224.224912 825.082712 225.730912 822.798712 226.578912 821.512712 226.946912 820.525712 226.654912 819.012712L225.560912 818.599712C223.161912 818.942712 221.005912 819.797712 219.034912 821.230712 210.253912 827.614712 207.060912 837.951712 205.483912 848.149712 202.771912 844.804712 200.523912 841.589712 199.665912 837.253712 198.658912 832.159712 200.156912 826.921712 203.087912 822.717712 212.525912 809.178712 233.333912 804.134712 248.532912 801.136712ZM476.227912 808.549712C478.053912 811.089712 479.494912 814.451712 480.750912 817.324712 485.025912 827.107712 488.198912 840.743712 483.948912 851.041712 480.384912 859.677712 471.894912 862.906712 463.982912 866.375712 464.723912 855.868712 464.210912 846.360712 460.832912 836.345712 460.299912 834.766712 459.313912 832.407712 457.558912 831.837712 456.197912 831.396712 455.760912 831.633712 454.614912 832.265712 453.057912 835.477712 456.299912 850.135712 456.466912 855.007712 456.624912 859.610712 456.269912 864.043712 455.669912 868.603712 444.877912 871.584712 433.932912 871.944712 422.933912 870.143712 421.185912 862.473712 421.555912 855.325712 422.247912 847.565712 422.873912 843.410712 425.389912 836.331712 423.289912 832.415712L422.291912 832.117712C421.543912 832.500712 420.937912 832.850712 420.344912 833.458712 412.313912 841.695712 413.831912 858.417712 414.232912 869.045712 409.910912 867.668712 405.679912 866.288712 401.802912 863.882712 396.515912 860.600712 392.882912 855.848712 391.529912 849.732712 388.778912 837.296712 393.678912 823.862712 400.184912 813.424712 423.622912 820.345712 453.796912 817.693712 476.227912 808.549712Z"/><path fill="#7A7BBE" d="M237.597912,622.246712 C242.049912,624.342712 246.583246,626.245712 251.197912,627.955712 C301.307912,646.044712 388.374912,645.064712 440.393912,636.668712 C453.235912,634.595712 467.316912,632.159712 479.155912,626.638712 C480.479912,626.021712 481.879912,625.126712 483.292912,625.637712 C483.713912,626.374712 483.900912,626.819712 483.895052,627.691712 C483.869912,631.129712 481.460912,635.297712 479.231912,637.691712 C477.987912,638.838712 476.670912,639.774712 475.216912,640.639712 C442.190912,660.289712 353.916912,659.505712 315.699912,655.808712 C301.951912,654.478712 288.382912,652.383712 275.001912,648.934712 C262.928912,645.823712 244.399912,641.903712 237.649912,630.466712 C237.469912,627.747712 237.588912,624.972712 237.597912,622.246712 Z"/><path fill="#46759A" d="M477.348912 782.994712C477.926912 783.546712 477.984912 784.192712 478.071912 784.966712 478.499912 788.799712 478.432912 792.550712 475.717912 795.560712 468.950912 803.063712 445.197912 804.929712 434.857912 805.351712 424.654912 805.767712 401.298912 805.399712 393.377912 798.137712 391.006912 794.139712 390.701912 790.692712 390.296912 786.178712L390.839912 786.373712C416.202912 795.374712 453.027912 794.522712 477.348912 782.994712ZM248.452912 774.175712C272.560912 786.151712 304.498912 786.296712 330.076912 779.077712 330.075912 783.455712 329.680912 787.924712 328.719912 792.195712 328.378912 792.531712 328.359912 792.572712 327.904912 792.894712 320.249912 798.313712 287.338912 797.576712 278.452912 796.472712 269.249912 795.329712 255.244912 793.448712 249.193912 785.649712 248.771912 781.807712 248.515912 778.039712 248.452912 774.175712Z"/><path fill="#7A7BBE" d="M576.349912 452.024712C575.836912 455.028712 574.713912 457.943712 573.978912 460.905712 572.059912 468.635712 571.915912 476.684712 573.133912 484.555712 575.850912 502.112712 585.845912 513.893712 599.799912 524.029712 597.783912 525.579712 595.752912 527.245712 593.556912 528.529712 591.969912 529.457712 591.144912 529.510712 589.377912 529.084712 580.591912 523.942712 572.784912 517.400712 567.551912 508.523712 560.802912 497.075712 558.504912 482.189712 561.906912 469.298712 564.467912 459.595712 568.105912 456.884712 576.349912 452.024712ZM151.181912 448.172712C151.430912 448.215712 151.680912 448.254712 151.928912 448.302712 156.252912 449.144712 160.169912 452.490712 162.463912 456.135712 168.816912 466.231712 168.636912 479.797712 165.906912 490.985712 162.178912 506.258712 154.386912 515.136712 141.205912 523.241712 140.326912 523.591712 139.739912 523.852712 138.775912 523.794712 135.629912 523.606712 132.407912 519.750712 130.320912 517.690712 139.549912 511.616712 146.750912 504.279712 151.199912 494.050712 157.780912 478.921712 157.126912 463.365712 151.181912 448.172712Z"/></g></svg>