<svg xmlns="http://www.w3.org/2000/svg" width="679" height="895" viewBox="0 0 679 895"><g fill="none" transform="translate(.633 .506)"><path fill="#313945" d="M76.6653997,0.207796242 C90.0313997,-1.01790376 104.6324,3.29489624 116.0554,10.0812962 C148.7574,29.5090962 168.2874,67.9366962 177.5364,103.735696 C179.9324,103.128696 182.2664,102.309696 184.6114,101.533696 C184.6904,100.569696 184.7614,99.6006962 184.9684,98.6526962 C185.4944,96.2486962 186.9874,94.6816962 189.0624,93.4536962 C195.4984,89.6456962 208.0784,89.9606962 215.1804,91.7336962 C214.0824,89.2536962 212.9614,86.6136962 212.2574,83.9906962 C211.4364,80.9336962 211.4014,77.7036962 213.1164,74.9356962 C214.7924,72.2286962 217.6114,70.4916962 220.6924,69.8496962 C232.3354,67.4226962 252.5374,75.7216962 262.4944,81.3956962 C267.2924,84.1306962 272.7894,88.6416962 278.0784,90.1236962 C282.8204,91.4526962 289.0974,90.6446962 294.1404,91.3606962 C317.0684,94.6156962 338.5134,100.514696 357.8274,113.859696 C364.1964,93.4426962 380.3204,69.0466962 394.7414,53.4256962 C417.8104,28.4365962 447.1334,9.34949624 482.0174,8.11109624 C482.7474,8.08716291 483.4774,8.07229624 484.2074,8.06649624 C484.9374,8.06069624 485.6674,8.06399624 486.3974,8.07639624 C487.1274,8.08879624 487.8574,8.11022958 488.5874,8.14069624 C489.316733,8.17122958 490.045733,8.21082958 490.7744,8.25949624 C491.503066,8.30816291 492.230733,8.36589624 492.9574,8.43269624 C493.684733,8.49942958 494.411066,8.57522958 495.1364,8.66009624 C495.861733,8.74489624 496.585733,8.83869624 497.3084,8.94149624 C498.031066,9.04436291 498.752733,9.15619624 499.4734,9.27699624 C500.1934,9.39772958 500.911733,9.52742958 501.6284,9.66609624 C502.345066,9.80476291 503.060066,9.95229624 503.7734,10.1086962 C504.486733,10.2651629 505.198066,10.4304629 505.9074,10.6045962 C506.616066,10.7786629 507.322733,10.9615629 508.0274,11.1532962 C508.732066,11.3450296 509.434066,11.5454629 510.1334,11.7545962 C510.8334,11.9637296 511.5304,12.1815629 512.2244,12.4080962 C512.9184,12.6345629 513.609733,12.8696629 514.2984,13.1133962 C514.9864,13.3570629 515.6714,13.6092629 516.3534,13.8699962 C517.0354,14.1307296 517.714066,14.3998962 518.3894,14.6774962 C519.064733,14.9551629 519.736733,15.2411296 520.4054,15.5353962 C521.0734,15.8297296 521.737733,16.1323296 522.3984,16.4431962 C523.059066,16.7539962 523.715733,17.0729962 524.3684,17.4001962 C525.021066,17.7273962 525.669733,18.0626629 526.3144,18.4059962 C526.959066,18.7492629 527.599066,19.1005296 528.2344,19.4597962 C528.8704,19.8189962 529.501733,20.1860629 530.1284,20.5609962 C530.755066,20.9359296 531.376733,21.3185962 531.9934,21.7089962 C532.610733,22.0993962 533.222733,22.4973962 533.8294,22.9029962 C534.436733,23.3086629 535.038733,23.7217962 535.6354,24.1423962 C536.232733,24.5629962 536.8244,24.9909296 537.4104,25.4261962 C537.9964,25.8615296 538.577066,26.3040629 539.1524,26.7537962 C539.727733,27.2035296 540.2974,27.6603629 540.8614,28.1242962 C541.4254,28.5882296 541.9834,29.0590962 542.5354,29.5368962 C543.0874,30.0146962 543.6334,30.4992629 544.1734,30.9905962 C544.7134,31.4819962 545.2474,31.9800296 545.7754,32.4846962 C569.3474,54.6676962 580.4924,87.7346962 581.2234,119.547696 C582.0254,154.403696 571.0634,188.587696 546.5884,214.031696 C521.4584,240.157696 489.6784,252.815696 453.5594,253.534696 C458.1954,268.194696 461.3574,283.012696 462.5364,298.360696 C465.3014,334.332696 457.6244,368.895696 433.6944,396.791696 C439.3144,401.158696 444.5134,406.319696 447.9114,412.632696 C454.0164,423.974696 454.0484,434.769696 450.4004,446.856696 C455.3034,458.373696 457.1074,468.456696 452.9894,480.550696 C463.5504,490.109696 472.9524,500.636696 479.9254,513.145696 C488.8104,529.083696 491.7914,546.629696 486.6104,564.301696 C478.4114,592.267696 445.7604,624.338696 420.0694,638.224696 C420.3384,638.942696 420.5724,639.665696 420.7624,640.408696 C422.2064,646.036696 420.5194,652.214696 417.4664,657.025696 C410.9414,667.308696 399.2104,671.334696 387.9244,673.692696 C393.6164,679.019696 398.8194,685.095696 404.2544,690.702696 C423.8174,710.884696 447.3154,733.840696 475.6184,740.077696 C491.8864,743.662696 509.6874,741.336696 523.8144,732.239696 C533.6274,725.919696 541.8504,715.971696 545.5024,704.837696 C558.0584,666.552696 527.2134,632.694696 515.8724,598.253696 C509.8284,579.897696 507.8654,560.409696 511.9884,541.410696 C517.0334,518.159696 529.6064,497.983696 549.8744,485.139696 C568.5004,473.336696 589.9174,469.835696 611.3764,474.838696 C612.069733,474.99603 612.7614,475.161696 613.4514,475.335696 C614.140733,475.510363 614.828066,475.693363 615.5134,475.884696 C616.198066,476.076696 616.8804,476.276696 617.5604,476.484696 C618.2404,476.693363 618.917733,476.910363 619.5924,477.135696 C620.267066,477.36103 620.938733,477.594696 621.6074,477.836696 C622.276733,478.078696 622.942733,478.32903 623.6054,478.587696 C624.268066,478.846363 624.9274,479.113363 625.5834,479.388696 C626.238733,479.663363 626.891066,479.946363 627.5404,480.237696 C628.189066,480.52903 628.8344,480.828363 629.4764,481.135696 C630.117733,481.44303 630.755066,481.75803 631.3884,482.080696 C632.0224,482.40403 632.652066,482.73503 633.2774,483.073696 C633.902733,483.412363 634.523733,483.75903 635.1404,484.113696 C635.757066,484.467696 636.3694,484.829363 636.9774,485.198696 C637.5854,485.568696 638.1884,485.945696 638.7864,486.329696 C639.385066,486.714363 639.978733,487.106363 640.5674,487.505696 C641.156066,487.90503 641.739733,488.311363 642.3184,488.724696 C642.897066,489.138696 643.4704,489.559696 644.0384,489.987696 C644.6064,490.415696 645.169066,490.850696 645.7264,491.292696 C646.283733,491.734696 646.8354,492.183696 647.3814,492.639696 C647.9274,493.09503 648.467733,493.557363 649.0024,494.026696 C649.537066,494.49603 650.065733,494.971696 650.5884,495.453696 C651.111066,495.936363 651.627733,496.42503 652.1384,496.919696 C652.649066,497.41503 653.1534,497.916696 653.6514,498.424696 C654.1494,498.93203 654.6414,499.445696 655.1274,499.965696 C655.612733,500.485696 656.0914,501.011696 656.5634,501.543696 C657.0354,502.075696 657.501066,502.613363 657.9604,503.156696 C658.419066,503.70003 658.871066,504.24903 659.3164,504.803696 C659.761733,505.358363 660.200066,505.918363 660.6314,506.483696 C661.062733,507.049696 661.487066,507.620696 661.9044,508.196696 C662.321066,508.772696 662.730733,509.35403 663.1334,509.940696 C663.536066,510.526696 663.9314,511.117696 664.3194,511.713696 C664.7074,512.310363 665.088066,512.911363 665.4614,513.516696 C675.8304,530.357696 681.0134,549.957696 676.1814,569.463696 C674.8994,574.638696 671.8704,582.744696 667.0114,585.465696 C665.5234,586.298696 663.4974,586.562696 661.8794,585.929696 C656.4444,583.803696 655.8664,568.202696 654.5254,562.992696 C653.7984,560.168696 652.4764,557.425696 651.2524,554.787696 C650.789733,553.79103 650.3024,552.806363 649.7904,551.833696 C649.279066,550.86103 648.744066,549.901696 648.1854,548.955696 C647.626066,548.009696 647.044066,547.077696 646.4394,546.159696 C645.834733,545.242363 645.207733,544.340696 644.5584,543.454696 C643.9084,542.56803 643.2374,541.69803 642.5454,540.844696 C641.852733,539.991363 641.139733,539.155696 640.4064,538.337696 C639.6724,537.519696 638.918733,536.72003 638.1454,535.938696 C637.372733,535.15803 636.580733,534.396696 635.7694,533.654696 C634.958733,532.913363 634.130066,532.19203 633.2834,531.490696 C632.4374,530.79003 631.5744,530.110696 630.6944,529.452696 C629.8144,528.79403 628.918733,528.157696 628.0074,527.543696 C627.096066,526.930363 626.170066,526.339363 625.2294,525.770696 C624.288733,525.202696 623.334733,524.65803 622.3674,524.136696 C621.3994,523.61603 620.4194,523.11903 619.4274,522.645696 C618.4354,522.17303 617.4324,521.725363 616.4184,521.302696 C615.4044,520.879363 614.3804,520.481363 613.3464,520.108696 C602.6744,516.250696 590.8844,516.243696 580.5374,521.133696 C570.1164,526.058696 562.6404,536.110696 558.8214,546.839696 C552.5534,564.451696 559.2984,584.025696 566.9064,599.994696 C579.6024,624.077696 593.9664,649.763696 596.1114,677.439696 C598.2944,705.605696 590.3234,732.507696 571.8534,754.052696 C553.1434,775.877696 527.1984,788.127696 498.6474,790.186696 C468.2754,792.375696 437.6364,782.988696 412.7884,765.604696 C404.7344,759.969696 397.5464,753.411696 390.1204,747.009696 C391.9514,755.950696 392.1934,765.140696 392.8244,774.220696 C393.8234,788.574696 395.0974,803.079696 394.1904,817.467696 C400.4534,828.157696 405.8504,841.238696 405.9744,853.811696 C406.0584,862.337696 403.2274,870.864696 397.1334,876.954696 C383.7254,890.353696 358.0084,893.547696 340.0664,893.509048 C324.5084,893.474696 302.9734,890.653696 291.5124,878.858696 C286.1644,873.354696 284.2054,866.479696 284.4324,858.961696 C284.8234,845.980696 291.6114,837.019696 300.7644,828.447696 C297.8054,825.591696 296.2114,823.079696 294.6864,819.270696 C290.5074,808.831696 287.7274,794.497696 284.6724,783.382696 C278.4084,760.98803 271.884066,738.66903 265.0994,716.425696 C263.470066,716.03903 261.837066,715.669696 260.2004,715.317696 C259.3654,715.606696 259.2234,715.492696 258.7174,716.295696 C257.9004,717.587696 257.5454,719.231696 257.2964,720.722696 C254.1264,739.681696 251.9034,758.939696 249.2174,777.987696 C247.3344,791.340696 244.7454,804.940696 243.4514,818.334696 C242.1674,831.631696 248.1454,845.038696 240.0924,857.370696 C231.0974,871.144696 205.8174,877.267696 190.4064,880.181696 C164.2934,885.118696 120.5824,888.081696 98.1013997,872.564696 C92.3483997,868.593696 89.0383997,863.573696 87.8193997,856.653696 C86.1503997,847.174696 87.9903997,836.918696 93.7053997,829.104696 C105.0774,813.558696 126.6644,809.032696 144.5434,806.318696 C142.366066,781.345363 140.792733,756.33403 139.8234,731.284696 C138.638733,709.425363 137.848733,687.55203 137.4534,665.664696 C134.5454,663.141696 132.2294,660.238696 129.9314,657.169696 C125.9614,658.487696 121.7984,658.777696 117.6394,658.514696 C108.9224,657.963696 100.3264,654.660696 94.5393997,647.911696 C88.8363997,641.259696 88.0193997,634.019696 88.6843997,625.677696 C73.7323997,617.491696 60.6603997,603.340696 51.7053997,589.003696 C41.1523997,572.107696 36.4123997,552.225696 41.1463997,532.597696 C49.1113997,499.568696 82.5863997,473.019696 111.5114,457.711696 C120.0664,453.184696 129.8444,450.135696 137.9644,445.093696 C138.1424,444.983696 138.3164,444.868696 138.4924,444.755696 C131.8264,440.717696 124.4564,437.778696 117.6824,433.868696 C94.3253997,420.389696 75.7983997,402.607696 61.0113997,380.129696 C52.4723997,381.748696 44.0313997,383.877696 35.5693997,385.854696 C31.5443997,386.794696 27.2823997,388.082696 23.1593997,388.447696 C21.7023997,388.576696 21.2343997,388.464696 20.1233997,387.539696 C20.0973997,386.270696 20.0873997,386.068696 20.9853997,385.055696 C26.2343997,379.136696 49.7123997,373.113696 57.8813997,372.970696 C52.5913997,362.929696 49.6023997,351.795696 47.2353997,340.757696 C39.6883997,338.158696 30.8193997,336.341696 22.8863997,335.533696 C17.9593997,335.032696 12.3953997,335.292696 7.62239966,334.040696 C6.25139966,333.681696 4.89339966,333.241696 4.16239966,331.942696 C4.68339966,331.054696 4.59439966,331.038696 5.59239966,330.459696 C15.0983997,324.937696 36.3683997,329.043696 46.4683997,331.898696 C43.2953997,305.544696 49.9663997,254.596696 61.3573997,230.493696 C55.1863997,227.507696 49.5673997,223.748696 44.2633997,219.409696 C17.9433997,197.876696 3.95239966,167.683696 0.814399665,134.188696 C-2.66360034,97.0776962 4.66839966,55.5056962 29.1973997,26.3791962 C41.2973997,12.0107962 57.6853997,1.75239624 76.6653997,0.207796242 Z"/><path fill="#F2F2F4" d="M200.6524,104.773696 C209.0494,102.585696 219.0134,103.179696 227.4604,104.819696 C231.1344,105.533696 235.0214,106.674696 238.7354,106.995696 C239.8434,107.091696 240.1774,107.044696 241.1074,106.520696 C240.3984,102.406696 228.2174,91.6746962 225.1894,86.4646962 C224.4164,85.1346962 224.0284,84.2066962 224.3904,82.6996962 C231.0424,80.8086962 253.8184,91.2706962 259.9064,94.8186962 C263.9994,97.2036962 267.7514,100.722696 272.1484,102.529696 C277.0314,104.535696 283.3744,103.384696 288.5904,104.009696 C304.9294,105.964696 322.3604,109.926696 337.2744,116.979696 C343.2974,119.827696 354.7744,124.738696 357.0514,131.212696 C357.9004,133.627696 358.5744,134.325696 360.7894,135.482696 C361.9704,135.272696 362.0094,134.514696 362.5324,133.532696 C366.2144,126.613696 368.9194,119.089696 372.2694,111.988696 C381.1054,93.2616962 392.2114,76.0766962 406.5084,61.0316962 C426.2954,40.2086962 454.4404,23.0223962 483.8144,22.5059962 C503.8044,22.1544962 521.9234,29.3312962 536.2614,43.2866962 C557.5774,64.0366962 567.0934,93.9496962 567.345142,123.197696 C567.6064,154.617696 556.6814,184.557696 534.5084,207.048696 C511.2934,230.595696 480.8064,240.190696 448.3334,240.465696 L444.9804,231.456696 C441.1954,223.284696 437.2634,215.100696 432.5404,207.424696 C438.0734,198.071696 448.8414,178.109696 447.0014,167.485696 C446.4724,164.432696 444.8674,163.073696 442.4734,161.308696 C433.5174,159.678696 427.2974,164.581696 420.2884,169.233696 C423.1624,152.136696 428.1164,135.091696 435.5224,119.391696 C446.4394,96.2486962 465.0714,70.1476962 490.1934,61.1676962 C498.9554,56.9706962 507.9064,57.5076962 517.2064,56.1826962 L517.6574,56.1146962 C505.2654,50.7886962 492.1644,50.2516962 479.6324,55.3336962 C452.0374,66.5236962 433.6904,94.5546962 422.6744,121.027696 C414.0554,141.738696 407.2494,167.004696 407.8674,189.571696 C416.2884,181.331696 424.2354,174.065696 435.6924,170.366696 C433.5264,184.636696 427.8154,197.637696 421.9034,210.675696 C444.0694,251.638696 457.8564,304.432696 444.1684,350.295696 C435.2884,380.049696 414.9814,399.928696 388.1794,414.293696 C365.3084,426.550696 340.7374,435.065696 315.7704,441.911696 C311.7574,443.012696 284.8264,448.813696 283.7254,450.218696 L283.9454,452.245696 C281.8404,454.815696 267.8564,462.661696 264.0024,465.225696 L228.1684,489.551696 C217.8114,483.011696 211.7504,471.909696 207.8484,460.621696 C213.9764,460.550696 235.2644,460.514696 238.9624,456.398696 C239.2444,456.084696 239.2214,456.028696 239.3094,455.676696 C228.1614,453.164696 215.6404,452.966696 204.1514,450.978696 C154.5344,442.396696 104.1554,419.809696 74.4203997,377.728696 C79.8543997,376.907696 89.9183997,377.158696 94.3323997,373.927696 C95.2783997,373.234696 95.3713997,373.058696 95.5673997,371.970696 C95.4683997,371.850696 95.3853997,371.716696 95.2703997,371.610696 C91.9513997,368.540696 74.3983997,369.475696 69.6043997,369.531696 C66.1243997,360.604696 63.1943997,351.734696 61.1243997,342.378696 C66.7893997,344.476696 90.9273997,355.606696 94.9653997,353.971696 L95.2493997,353.024696 C91.9893997,345.832696 66.8533997,336.489696 59.5273997,333.491696 C59.0343997,323.978696 58.6033997,314.578696 59.1213997,305.056696 C61.4743997,261.810696 75.7493997,215.944696 100.1174,179.981696 C106.3684,170.756696 113.5914,162.513696 121.4314,154.615696 C142.3284,133.561696 165.6534,119.006696 195.0384,113.331696 C200.0084,115.521696 204.5144,118.448696 209.9774,119.355696 C211.4054,119.591696 212.5754,119.745696 213.7874,118.881696 C213.6674,116.194696 203.0794,107.592696 200.6524,104.773696 Z"/><path fill="#FAC3B7" d="M517.6574,56.1146962 C529.8594,59.9216962 540.6274,74.4966962 546.2434,85.3056962 C558.3274,108.562696 559.2944,137.256696 551.2794,161.948696 C551.0294,162.70003 550.7704,163.448363 550.5024,164.193696 C550.2344,164.93903 549.9574,165.680696 549.6714,166.418696 C549.3854,167.157363 549.0904,167.892363 548.7864,168.623696 C548.4824,169.35503 548.169733,170.082363 547.8484,170.805696 C547.5264,171.529696 547.196066,172.249363 546.8574,172.964696 C546.518066,173.68003 546.170066,174.391363 545.8134,175.098696 C545.456733,175.80603 545.091733,176.508696 544.7184,177.206696 C544.345066,177.905363 543.963066,178.59903 543.5724,179.287696 C543.1824,179.97703 542.783733,180.66103 542.3764,181.339696 C541.969066,182.01903 541.553733,182.693363 541.1304,183.362696 C540.707066,184.03203 540.275733,184.69603 539.8364,185.354696 C539.3964,186.013363 538.948733,186.666696 538.4934,187.314696 C538.038066,187.96203 537.574733,188.60403 537.1034,189.240696 C536.632066,189.877363 536.153066,190.50803 535.6664,191.132696 C535.1804,191.757363 534.6864,192.37603 534.1844,192.988696 C533.683066,193.60203 533.1744,194.208696 532.6584,194.808696 C532.141733,195.409363 531.618066,196.003696 531.0874,196.591696 C530.556733,197.17903 530.019066,197.76003 529.4744,198.334696 C528.929066,198.909363 528.377066,199.477363 527.8184,200.038696 C527.259733,200.60003 526.6944,201.154363 526.1224,201.701696 C525.5504,202.24903 524.971733,202.789363 524.3864,203.322696 C523.801066,203.85603 523.209066,204.382363 522.6104,204.901696 C522.0124,205.420363 521.408066,205.93203 520.7974,206.436696 C520.186733,206.940696 519.570066,207.437363 518.9474,207.926696 C518.324733,208.41603 517.6964,208.897696 517.0624,209.371696 C516.427733,209.845696 515.787733,210.311696 515.1424,210.769696 C514.4964,211.228363 513.845066,211.67903 513.1884,212.121696 C512.531733,212.564363 511.869733,212.998696 511.2024,213.424696 C510.535066,213.851363 509.862733,214.269696 509.1854,214.679696 C508.508066,215.089696 507.825733,215.491363 507.1384,215.884696 C506.451066,216.278696 505.759066,216.66403 505.0624,217.040696 C504.365733,217.417363 503.664733,217.785363 502.9594,218.144696 C488.6184,225.389696 473.6844,229.861696 457.6274,230.652696 C454.5214,230.805696 447.1804,229.997696 444.9804,231.456696 C441.1954,223.284696 437.2634,215.100696 432.5404,207.424696 C438.0734,198.071696 448.8414,178.109696 447.0014,167.485696 C446.4724,164.432696 444.8674,163.073696 442.4734,161.308696 C433.5174,159.678696 427.2974,164.581696 420.2884,169.233696 C423.1624,152.136696 428.1164,135.091696 435.5224,119.391696 C446.4394,96.2486962 465.0714,70.1476962 490.1934,61.1676962 C498.9554,56.9706962 507.9064,57.5076962 517.2064,56.1826962 L517.6574,56.1146962 Z"/><path fill="#E1A39E" d="M420.2884,169.233696 C423.1624,152.136696 428.1164,135.091696 435.5224,119.391696 C446.4394,96.2486962 465.0714,70.1476962 490.1934,61.1676962 C490.3904,61.2596962 490.5804,61.3646962 490.7834,61.4436962 C491.8404,61.8566962 492.8244,61.8626962 493.9384,61.9006962 L494.0884,62.4746962 C491.1364,66.6896962 486.1434,70.0916962 482.3844,73.6456962 C472.1804,83.2936962 462.8014,96.5626962 457.4634,109.517696 C453.2824,119.663696 449.3454,130.511696 446.9194,141.224696 C446.2134,144.341696 444.4914,159.315696 443.6054,160.345696 C443.0134,161.033696 443.2674,160.786696 442.4734,161.308696 C433.5174,159.678696 427.2974,164.581696 420.2884,169.233696 Z"/><path fill="#313945" d="M181.6734,339.707696 C188.0954,339.044696 196.4664,340.623696 202.1624,343.708696 C206.4814,346.048696 210.2334,349.770696 211.5754,354.604696 C212.7824,358.953696 211.7054,363.377696 209.5214,367.227696 C204.3394,376.364696 195.2654,379.867696 185.6514,382.372696 C185.6134,385.232696 185.6604,388.054696 186.1264,390.882696 C187.4704,399.041696 191.4654,406.285696 198.3074,411.099696 C206.8684,417.123696 218.1174,418.510696 228.2494,416.665696 C243.9614,413.805696 260.7834,403.094696 269.8824,389.972696 C268.6634,388.515696 266.8614,386.778696 266.6314,384.820696 C266.4874,383.598696 266.7494,382.482696 267.6474,381.600696 C269.2104,380.067696 271.9164,379.912696 273.9694,380.108696 C278.7434,380.566696 284.6004,383.279696 287.6014,387.102696 C288.9744,388.851696 289.8224,391.216696 289.3344,393.451696 C289.0754,394.637696 288.6224,395.747696 287.4904,396.344696 C284.7054,397.812696 281.4344,396.199696 278.8264,395.107696 C270.1974,406.435696 260.0434,414.493696 247.0084,420.355696 C244.719066,421.415696 242.3744,422.33403 239.9744,423.110696 C237.573733,423.887363 235.1354,424.516363 232.6594,424.997696 C218.8414,427.640696 211.2544,424.579696 198.2394,422.900696 C194.4334,422.408696 190.5834,423.205696 186.7644,422.996696 C175.9554,422.405696 163.6304,418.619696 154.6724,412.479696 C148.7794,408.440696 141.2834,401.410696 140.2394,394.001696 C140.0044,392.337696 140.3324,391.425696 141.2994,390.097696 C141.9684,389.783696 142.4954,389.548696 143.2504,389.562696 C143.9414,389.575696 144.6154,389.520696 145.1964,389.943696 C148.2864,392.196696 151.9904,399.246696 155.0834,402.607696 C155.2794,402.820696 155.4664,403.040696 155.6654,403.250696 C157.6084,405.296696 160.3574,406.583696 162.8184,407.893696 C171.8924,412.723696 180.4964,415.261696 190.7964,415.644696 C190.341066,415.23003 189.896733,414.80403 189.4634,414.366696 C180.7564,405.559696 177.8214,394.497696 177.9504,382.407696 C171.3294,380.946696 165.1254,379.232696 159.8234,374.787696 C155.7924,371.408696 152.7964,366.874696 152.3904,361.531696 C152.0554,357.117696 153.6094,352.894696 156.4794,349.557696 C162.7264,342.296696 172.6214,340.393696 181.6734,339.707696 Z"/><path fill="#F2A89F" d="M179.4804,348.170696 C185.3554,347.562696 193.2644,348.067696 198.4244,351.189696 C200.7264,352.581696 202.5734,354.553696 203.0704,357.270696 C203.5424,359.854696 202.6204,362.520696 201.1674,364.640696 C197.3844,370.157696 191.1094,372.600696 184.8284,373.912696 C184.079733,374.023363 183.328066,374.101363 182.5734,374.146696 C181.818066,374.191363 181.062066,374.20303 180.3054,374.181696 C179.5494,374.160363 178.795733,374.10603 178.0444,374.018696 C177.2924,373.931363 176.546066,373.811363 175.8054,373.658696 C175.064733,373.505363 174.332066,373.32003 173.6074,373.102696 C172.882733,372.885363 172.168733,372.636696 171.4654,372.356696 C170.762733,372.077363 170.0734,371.767363 169.3974,371.426696 C168.722066,371.08603 168.062733,370.716696 167.4194,370.318696 C164.3284,368.363696 161.3334,365.382696 160.6884,361.635696 C160.2844,359.289696 160.9704,357.047696 162.4504,355.207696 C166.2694,350.461696 173.7444,348.940696 179.4804,348.170696 Z"/><path fill="#313945" d="M277.3844 294.549696C278.3434 294.648696 279.3354 294.816696 280.2614 295.088696 284.2524 296.261696 285.7984 304.485696 287.8264 307.873696 290.5424 312.409696 295.0294 315.506696 300.1304 316.762696 321.6234 322.057696 322.4174 302.204696 330.2304 298.092696 331.6514 297.344696 333.2424 297.311696 334.7174 297.913696 336.5634 298.665696 338.2964 300.451696 338.8974 302.368696 340.0544 306.055696 337.4064 310.937696 335.8954 314.232696 332.0144 320.749696 325.6974 326.400696 318.6844 329.315696 309.8514 332.986696 299.8064 332.541696 291.0384 328.891696 282.7444 325.437696 275.8454 318.761696 272.5334 310.347696 271.1674 306.878696 270.0754 302.467696 271.7684 298.923696 272.9514 296.446696 274.8684 295.366696 277.3844 294.549696ZM98.9713997 286.845696C99.9733997 286.862696 100.9244 286.965696 101.8794 287.297696 105.9434 288.712696 107.3444 295.214696 109.1414 298.729696 111.4434 303.233696 115.1884 306.528696 120.0294 308.058696 137.0224 313.425696 138.4474 298.572696 148.9074 293.484696 150.3024 292.805696 151.4114 292.569696 152.9324 293.048696 154.4424 294.204696 155.1124 295.557696 155.6524 297.350696 156.9664 301.720696 155.7594 304.459696 153.6784 308.295696 151.4934 311.265696 148.8414 314.045696 145.9034 316.282696 138.7704 321.713696 130.1864 323.682696 121.3574 322.450696 112.4134 321.203696 104.1224 316.828696 98.7423997 309.469696 95.6533997 305.244696 93.1563997 299.585696 94.1613997 294.259696 94.8153997 290.794696 96.1133997 288.833696 98.9713997 286.845696ZM390.6704 342.702696C397.4134 341.712696 407.4074 341.966696 414.0594 343.079696 416.2354 343.443696 419.6374 343.882696 420.9914 345.757696L420.5644 346.568696C419.2364 347.315696 417.9964 347.883696 416.4904 348.180696 409.8854 349.483696 400.9824 349.910696 394.0414 350.816696 383.0414 352.251696 372.0834 354.492696 361.2574 356.889696 356.6154 358.036696 341.0264 362.952696 337.2514 362.537696 336.1414 362.414696 336.0064 362.266696 335.3374 361.460696 335.3974 360.527696 335.5894 359.981696 336.1734 359.263696 338.2144 356.756696 341.7344 355.536696 344.6244 354.240696 346.439733 353.429363 348.271733 352.65803 350.1204 351.926696 351.969733 351.195363 353.833733 350.504696 355.7124 349.854696 357.591733 349.204696 359.4844 348.59603 361.3904 348.028696 363.295733 347.46203 365.212733 346.93703 367.1414 346.453696 369.070066 345.970363 371.0084 345.529363 372.9564 345.130696 374.9044 344.73203 376.8604 344.376363 378.8244 344.063696 380.787733 343.750363 382.757066 343.480363 384.7324 343.253696 386.707733 343.026363 388.687066 342.842696 390.6704 342.702696ZM307.1254 212.648696C309.8444 212.327696 312.6144 212.689696 315.2914 213.187696 324.5134 214.901696 333.1154 220.681696 338.3474 228.450696 339.8604 230.697696 342.2744 234.793696 341.4684 237.621696 341.2384 238.428696 341.1904 238.205696 340.3254 238.640696 336.6144 238.139696 334.3034 234.938696 331.8174 232.401696 323.6954 225.111696 313.3954 220.045696 302.2184 222.582696 299.0874 223.293696 296.0324 224.655696 292.8184 223.773696 291.7344 222.859696 291.6444 222.831696 291.3214 221.464696 291.5554 220.429696 291.7574 219.543696 292.4064 218.681696 295.6434 214.380696 302.1234 213.287696 307.1254 212.648696ZM343.2374 375.065696C354.1864 374.513696 365.7544 376.511696 376.2374 379.569696 383.4774 381.681696 397.2954 384.649696 401.1884 391.735696L400.9284 392.624696C399.4404 393.339696 398.3224 393.119696 396.7524 392.928696 389.8294 391.479696 341.5794 380.389696 338.7164 378.787696 338.4104 378.615696 338.2464 378.265696 338.0114 378.004696L338.3834 377.012696C339.9534 375.895696 341.3804 375.526696 343.2374 375.065696ZM120.3714 209.596696C123.6614 209.263696 128.0084 208.847696 131.1844 209.792696 134.8214 210.876696 140.1924 212.986696 141.7734 216.706696 142.2144 217.743696 142.0854 218.764696 141.5254 219.722696 140.9724 220.668696 140.3274 221.208696 139.2844 221.498696 131.1584 218.010696 125.6874 217.035696 116.9444 219.279696 112.3664 221.303696 109.0104 224.243696 104.7954 226.792696 103.4964 227.577696 102.4224 228.062696 100.8844 227.677696L100.3684 226.750696C100.5054 224.380696 101.0534 222.665696 102.3954 220.682696 106.4124 214.748696 113.4624 210.874696 120.3714 209.596696Z"/><path fill="#7A7BBE" d="M196.2004,459.947696 C197.523066,464.416363 199.269733,468.712363 201.4404,472.835696 C205.9574,481.610696 215.0144,494.855696 224.9944,497.771696 C227.5384,498.515696 229.9224,498.417696 232.4434,497.634696 C242.4714,494.519696 261.0224,480.202696 270.2344,473.784696 C277.5824,468.663696 285.4534,462.841696 293.7004,459.305696 C302.3284,455.605696 312.1994,454.276696 321.2664,451.848696 C337.137733,447.667363 352.7164,442.58803 368.0024,436.610696 C374.573066,434.044696 381.034733,431.22903 387.3874,428.163696 C393.740066,425.098363 399.964733,421.792363 406.0614,418.245696 C412.1304,414.639696 417.6184,409.872696 423.8454,406.594696 C423.9924,406.517696 424.1414,406.443696 424.2894,406.367696 C429.7924,408.746696 434.2824,412.396696 437.5234,417.448696 C441.9814,424.394696 442.2884,431.215696 440.5104,439.019696 C436.8864,437.270696 433.6974,435.067696 429.5624,435.727696 C428.6714,436.668696 428.6714,437.091696 429.3004,438.291696 C430.3954,440.381696 432.4044,442.177696 433.9964,443.900696 C439.1734,449.502696 443.2124,455.608696 443.0994,463.566696 C443.0644,466.013696 443.2544,469.410696 441.3934,471.230696 C439.9484,471.410696 439.2864,471.217696 438.0414,470.428696 C434.5524,468.219696 431.3564,465.227696 427.9104,462.864696 C420.4444,457.747696 409.7574,453.130696 400.7654,451.673696 C394.5314,450.663696 388.3094,451.583696 382.1284,452.527696 C373.1754,453.895696 364.3004,455.701696 355.6704,458.495696 C343.7384,462.359696 332.5724,467.858696 321.2434,473.153696 C308.3414,479.295696 295.3124,485.15603 282.1564,490.734696 C276.5554,493.097696 252.1794,501.782696 249.1994,504.216696 C248.2234,505.014696 247.9704,505.509696 247.7864,506.728696 C249.3434,508.820696 254.4504,507.781696 256.8364,507.435696 C272.2374,505.200696 287.7354,498.960696 301.9894,492.805696 C325.0374,482.851696 372.4544,456.591696 396.9404,460.850696 C416.6464,464.277696 442.0044,484.290696 455.2314,498.890696 C460.5514,504.764696 464.9264,511.239696 469.5194,517.665696 C471.5204,518.374696 472.8054,521.391696 473.6854,523.259696 C478.5744,533.633696 480.8344,549.280696 476.9424,560.343696 C475.9884,563.053696 473.5634,570.453696 471.3884,571.971696 L471.0334,571.604696 C468.5674,575.031696 466.5664,578.870696 464.1444,582.355696 C456.5684,593.256696 446.0664,605.483696 434.9854,612.748696 C425.7374,611.335696 415.9604,607.225696 408.1144,602.187696 C394.7624,593.614696 382.2174,580.845696 378.7894,564.966696 C384.6724,557.185696 396.4384,544.705696 396.2434,534.268696 C396.2134,532.665696 395.7404,530.965696 394.4514,529.905696 C393.4714,529.099696 392.7904,528.709696 391.5004,528.814696 C389.9184,530.659696 389.6994,533.199696 388.7744,535.387696 C388.4914,536.057696 388.0104,537.231696 387.2584,537.424696 C383.2094,538.462696 355.4684,523.623696 350.6654,521.106696 C348.3374,519.886696 344.7874,517.868696 342.1454,518.700696 L341.8914,519.653696 C347.7004,532.212696 369.0704,540.810696 380.8274,546.636696 C373.3414,555.006696 364.7694,561.704696 357.7364,570.661696 C355.0984,574.022696 354.6564,578.528696 352.0264,581.803696 C350.0434,584.271696 347.2244,586.355696 344.9364,588.575696 C341.0024,592.393696 337.3524,597.625696 334.9644,602.559696 C329.1714,614.521696 329.3894,627.631696 333.6774,639.966696 C280.3424,651.468696 189.4904,651.780696 138.4244,632.454696 C137.977733,627.847363 137.608733,623.233696 137.3174,618.613696 C137.026066,613.99303 136.812066,609.369363 136.6754,604.742696 C136.5394,600.115363 136.480733,595.48703 136.4994,590.857696 C136.518733,586.228363 136.6154,581.600696 136.7894,576.974696 C136.964066,572.348696 137.216066,567.72703 137.5454,563.109696 C137.874733,558.492363 138.281733,553.881696 138.7664,549.277696 C139.2504,544.673696 139.811733,540.079363 140.4504,535.494696 C141.0884,530.909363 141.8034,526.336363 142.5954,521.775696 C144.4124,511.894696 147.5924,502.365696 149.5764,492.530696 C149.4734,492.623696 149.3694,492.716696 149.2674,492.811696 L148.7624,493.289696 C136.8044,504.425696 131.2684,528.562696 129.6314,544.132696 C123.3704,540.470696 105.5244,523.999696 99.4953997,525.091696 C98.6803997,525.238696 98.6933997,525.525696 98.2563997,526.140696 C98.9853997,532.631696 115.1624,544.726696 120.3214,549.644696 C122.9814,552.180696 125.3274,554.950696 127.6324,557.808696 C118.3604,558.722696 109.9144,561.045696 101.7884,565.684696 C88.9333997,573.023696 78.7393997,584.738696 74.7353997,599.082696 C66.0403997,590.605696 58.1043997,578.823696 53.9713997,567.373696 C48.6573997,552.651696 50.0613997,537.769696 56.7223997,523.755696 C72.0223997,491.566696 109.7754,468.513696 142.4504,456.979696 C144.1384,459.385696 145.8374,461.791696 147.6704,464.089696 C160.0824,479.653696 177.4164,494.289696 195.7934,502.218696 C198.8194,503.524696 202.5334,505.235696 205.8434,505.461696 C207.4064,505.567696 208.1974,505.219696 209.3644,504.225696 C209.2224,503.140696 209.1494,503.035696 208.4034,502.286696 C204.6314,498.498696 198.5514,496.530696 194.1364,493.512696 C176.8314,481.681696 157.6004,467.251696 148.3834,447.961696 C164.7994,452.894696 179.4704,456.322696 196.2004,459.947696 Z"/><path fill="#242C3A" d="M469.5194,517.665696 C471.5204,518.374696 472.8054,521.391696 473.6854,523.259696 C478.5744,533.633696 480.8344,549.280696 476.9424,560.343696 C475.9884,563.053696 473.5634,570.453696 471.3884,571.971696 L471.0334,571.604696 C471.9794,568.609696 473.5064,565.722696 474.5304,562.718696 C480.0734,546.461696 476.9204,532.674696 469.5194,517.665696 Z"/><path fill="#47759A" d="M362.5164,669.104696 C364.7454,668.749696 367.3044,668.755696 369.3704,669.731696 C373.6284,673.902696 381.7274,770.801696 381.8684,783.990696 C359.7094,798.736696 325.2174,799.049696 299.6874,794.188696 C295.0894,782.442696 278.6964,714.816696 274.0354,709.678696 C268.2554,706.666696 233.0604,703.239696 223.1674,701.299696 C219.3984,700.560696 204.3804,696.147696 202.3924,696.660696 C201.5334,696.882696 201.6464,697.101696 201.2904,697.810696 C201.4934,698.502696 201.4974,698.643696 201.9004,699.339696 C205.7214,705.922696 238.5364,711.611696 246.4754,713.345696 C245.6514,718.92503 244.8904,724.512696 244.1924,730.108696 C242.9054,737.574696 242.0974,745.186696 241.0304,752.692696 C239.4754,763.630696 237.7424,774.628696 236.6714,785.624696 C212.0034,793.124696 177.3394,789.597696 153.8354,779.501696 C152.0404,767.940696 152.1704,755.354696 151.4974,743.654696 C150.0974,719.328696 148.6254,694.864696 148.3964,670.493696 C211.0394,687.182696 300.5134,687.969696 362.5164,669.104696 Z"/><path fill="#FAC3B7" d="M65.9723997,217.966696 C44.3053997,206.227696 27.6453997,183.821696 20.0303997,160.670696 C9.07139966,127.354696 11.6493997,85.3086962 27.7333997,54.0316962 C35.8653997,38.2166962 49.2763997,22.3243962 66.7453997,16.7752962 C80.1293997,12.5237962 93.4513997,14.6818962 105.7264,21.1114962 C138.4884,38.2716962 154.8744,75.2696962 165.3774,108.891696 C148.7054,115.970696 131.5304,126.706696 118.6054,139.512696 C117.6094,116.567696 108.4354,87.3486962 95.3833997,68.7416962 C88.4773997,58.8956962 78.8643997,49.9626962 66.6083997,47.8606962 C61.3113997,46.9516962 53.9343997,46.8956962 49.4263997,50.0366962 C64.5623997,52.2096962 76.0913997,59.6546962 85.2033997,71.9026962 C100.0474,91.8536962 108.1734,124.626696 109.4884,149.490696 C92.4863997,167.419696 80.7303997,185.997696 70.2693997,208.263696 L65.9723997,217.966696 Z"/><path fill="#F2F2F4" d="M65.9723997,217.966696 C44.3053997,206.227696 27.6453997,183.821696 20.0303997,160.670696 C9.07139966,127.354696 11.6493997,85.3086962 27.7333997,54.0316962 C35.8653997,38.2166962 49.2763997,22.3243962 66.7453997,16.7752962 C80.1293997,12.5237962 93.4513997,14.6818962 105.7264,21.1114962 C138.4884,38.2716962 154.8744,75.2696962 165.3774,108.891696 C148.7054,115.970696 131.5304,126.706696 118.6054,139.512696 C117.6094,116.567696 108.4354,87.3486962 95.3833997,68.7416962 C88.4773997,58.8956962 78.8643997,49.9626962 66.6083997,47.8606962 C61.3113997,46.9516962 53.9343997,46.8956962 49.4263997,50.0366962 C30.8873997,66.4656962 23.9203997,88.5226962 22.4913997,112.726696 C20.8033997,141.315696 28.0463997,170.459696 47.4853997,192.091696 C54.1103997,199.463696 61.2653997,204.257696 70.2693997,208.263696 L65.9723997,217.966696 Z"/><path fill="#FAC3B7" d="M592.1554,484.230696 C595.5214,484.253696 598.8584,484.345696 602.2054,484.735696 C621.8064,487.023696 639.1804,498.299696 651.2474,513.608696 C663.5574,529.224696 667.9894,546.922696 665.7434,566.549696 C664.3424,557.953696 661.5524,549.963696 657.1484,542.419696 C647.3814,525.691696 629.5964,511.901696 610.7544,507.175696 C597.3954,503.825696 583.3764,505.486696 571.5344,512.668696 C561.5974,518.696696 553.7244,528.205696 549.2694,538.906696 C525.1164,596.931696 599.7434,638.203696 581.4994,710.259696 C575.6574,733.332696 559.4934,753.667696 539.0984,765.727696 C513.6364,780.783696 485.3564,781.173696 457.3404,774.095696 C429.8024,765.128696 409.1894,750.223696 389.5654,729.139696 C387.3824,714.918696 386.7634,700.476696 384.6524,686.259696 C394.8934,697.082696 404.4754,708.082696 415.5524,718.138696 C438.4574,738.930696 464.3704,754.434696 496.3024,752.824696 C514.5664,751.902696 532.4194,743.943696 544.6194,730.199696 C545.612066,729.077696 546.5624,727.92103 547.4704,726.729696 C548.3784,725.537696 549.2414,724.31403 550.0594,723.058696 C550.8774,721.80403 551.648066,720.520696 552.3714,719.208696 C553.0954,717.896696 553.769733,716.56003 554.3944,715.198696 C555.019733,713.837363 555.5944,712.454696 556.1184,711.050696 C556.641733,709.647363 557.113066,708.226363 557.5324,706.787696 C557.951733,705.349696 558.3174,703.89803 558.6294,702.432696 C558.942066,700.967363 559.2004,699.492696 559.4044,698.008696 C564.8714,660.852696 542.5964,634.593696 529.9574,602.297696 C525.4294,590.728696 522.6044,578.744696 521.9384,566.321696 C520.8184,545.430696 527.6014,523.333696 541.7404,507.681696 C555.4424,492.513696 571.9764,485.240696 592.1554,484.230696 Z"/><path fill="#F2F2F4" d="M150.8234 817.715696C156.5464 817.487696 164.3764 821.245696 170.1234 822.671696 172.6234 823.302363 175.139066 823.863696 177.6704 824.355696 180.201733 824.84703 182.745066 825.267696 185.3004 825.617696 187.855066 825.968363 190.4174 826.247696 192.9874 826.455696 195.5574 826.663696 198.1314 826.800363 200.7094 826.865696 203.2874 826.93103 205.865066 826.924696 208.4424 826.846696 211.019733 826.768696 213.593066 826.619696 216.1624 826.399696 218.731733 826.17903 221.292733 825.887363 223.8454 825.524696 226.398733 825.16203 228.939733 824.728696 231.4684 824.224696 232.2754 828.755696 232.9244 833.454696 232.9784 838.058696 233.0414 843.350696 232.3404 847.791696 228.4184 851.642696 212.5634 867.210696 165.7134 872.723696 143.4544 872.311696 143.0474 871.056696 142.6024 869.771696 142.3264 868.480696 140.8234 861.462696 144.1104 855.311696 147.5974 849.521696 148.6524 847.676696 149.6134 846.229696 149.3964 844.072696 148.8554 843.636696 148.7584 843.345696 148.0014 843.410696 145.7704 843.602696 143.6644 845.590696 142.1584 847.089696 135.2724 853.944696 132.7364 861.686696 132.8024 871.259696 127.7834 870.549696 122.2254 870.116696 117.4494 868.409696 114.8974 867.497696 112.4624 866.053696 111.3224 863.487696 107.9284 855.847696 118.0834 842.247696 120.7724 835.150696L121.0204 834.484696C117.7684 836.174696 114.6484 837.812696 111.8734 840.244696 105.0574 846.221696 103.6434 853.726696 103.0284 862.263696 101.0324 858.605696 99.3913997 855.423696 98.9533997 851.189696 98.3523997 845.384696 100.4724 839.879696 104.1244 835.426696 114.9704 822.202696 134.8634 819.271696 150.8234 817.715696ZM383.4544 823.451696C383.4834 823.466696 383.5154 823.477696 383.5424 823.496696 387.5924 826.384696 392.4344 842.053696 393.3504 847.135696 394.5324 853.692696 393.8484 860.628696 389.8514 866.162696 385.2924 872.470696 373.3354 878.029696 365.7074 878.889696 364.5214 879.022696 363.5024 878.858696 362.6074 877.994696 356.8344 872.423696 362.2134 857.340696 362.1154 850.389696 361.1944 849.988696 360.6894 849.879696 359.6924 850.241696 358.1874 850.787696 357.1244 852.336696 356.3504 853.645696 351.3834 862.038696 350.4314 871.010696 352.9334 880.321696 345.3784 880.966696 329.4864 883.283696 323.3634 878.933696 319.9634 876.517696 319.6154 873.220696 318.8924 869.412696 318.7034 862.878696 320.8734 857.867696 321.7444 851.603696 321.9234 850.315696 321.9464 849.591696 321.1904 848.500696 321.0314 848.521696 320.8664 848.519696 320.7124 848.564696 318.3294 849.247696 315.4554 853.786696 314.2284 855.968696 310.3344 862.894696 310.1604 869.763696 312.3204 877.215696 306.9544 875.469696 302.0394 873.608696 298.8494 868.584696 296.2554 864.498696 295.8674 859.576696 296.9514 854.938696 299.1124 845.689696 306.2344 837.336696 314.2464 832.525696 320.6054 832.344696 327.0624 833.226696 333.4364 833.373696 350.2164 833.760696 368.3584 830.814696 383.4544 823.451696Z"/><path fill="#7A7BBE" d="M139.3014,639.165696 C189.5334,656.314696 285.6544,659.003696 336.9674,645.367696 C339.8354,649.968696 343.4714,654.777696 347.9404,657.945696 C349.6114,659.129696 351.6904,659.744696 353.1264,661.213696 L352.2564,661.842696 C346.269066,663.221363 340.2554,664.47303 334.2154,665.597696 C328.1754,666.722363 322.1144,667.719696 316.0324,668.589696 C309.9504,669.45903 303.852733,670.20003 297.7394,670.812696 C291.626066,671.42603 285.5024,671.91003 279.3684,672.264696 C273.235066,672.619363 267.096733,672.844696 260.9534,672.940696 C254.810066,673.037363 248.667733,673.004363 242.5264,672.841696 C236.3844,672.67903 230.248733,672.387363 224.1194,671.966696 C217.9894,671.545363 211.8714,670.995363 205.7654,670.316696 C190.8054,668.790696 175.7054,666.791696 161.1674,662.835696 C154.3504,660.980696 147.8084,658.365696 141.2304,655.817696 C140.0394,650.289696 139.4544,644.815696 139.3014,639.165696 Z"/><path fill="#F2F2F4" d="M357.6904,591.916696 C360.0254,594.997696 361.6634,601.436696 363.8884,605.225696 C372.1174,619.246696 386.8574,628.178696 401.2754,634.660696 C400.5134,636.574696 399.7544,638.491696 398.5364,640.168696 C396.5294,642.932696 391.5484,646.311696 391.0344,649.675696 C392.1944,650.103696 393.2114,649.727696 394.3544,649.391696 C401.8834,647.180696 406.2874,642.779696 409.9884,636.135696 C410.1544,638.248696 410.3294,640.369696 410.2414,642.490696 C409.9964,648.431696 407.7434,652.052696 403.5184,655.966696 C396.8884,660.455696 388.9494,661.989696 381.0514,661.108696 C373.6474,660.284696 364.2024,657.106696 359.5664,650.986696 C354.9004,644.825696 356.4324,637.360696 357.4384,630.314696 L356.7814,630.728696 C352.3204,633.477696 349.6834,636.752696 346.3204,640.642696 C342.3834,634.392696 340.9254,627.811696 341.3884,620.470696 C342.1924,607.722696 348.4344,600.042696 357.6904,591.916696 Z"/><path fill="#47759A" d="M154.2574 786.192696C183.2444 795.547696 205.2044 799.099696 235.5144 792.578696 234.6004 798.841696 234.0524 805.144696 232.6324 811.323696 232.5224 811.546696 232.4314 811.779696 232.3044 811.993696 230.9414 814.271696 227.4374 815.237696 224.9964 815.731696 206.5114 819.471696 171.6284 816.280696 155.8014 805.880696 154.6984 799.518696 154.5394 792.646696 154.2574 786.192696ZM381.7564 791.441696C383.7054 793.234696 383.4534 808.830696 383.5924 811.936696 383.0544 812.386696 382.505733 812.822696 381.9464 813.244696 368.2514 823.519696 332.7454 824.997696 315.6974 822.539696 312.3604 822.058696 308.2704 821.542696 306.1364 818.689696 303.9434 812.700696 302.6104 806.357696 301.0874 800.172696 325.8374 807.116696 359.1224 803.544696 381.7564 791.441696Z"/><path fill="#7A7BBE" d="M372.6584,569.764696 C374.5254,571.290696 375.4924,576.185696 376.7894,578.472696 C380.3274,584.716696 384.6804,590.745696 389.8684,595.720696 C396.9104,602.474696 419.5924,618.014696 429.2884,617.333696 C429.5914,617.312696 429.8924,617.271696 430.1944,617.239696 C428.0004,620.595696 422.0114,623.604696 418.5804,625.810696 C416.6814,626.988696 414.6894,627.916696 412.6744,628.875696 C403.9684,627.735696 396.3104,624.372696 389.1374,619.403696 C375.3964,609.885696 366.1134,597.916696 363.1374,581.327696 C365.9024,577.275696 369.6384,573.676696 372.6584,569.764696 Z"/><path fill="#F2F2F4" d="M125.8144,584.482696 C125.8894,584.655696 125.9984,584.816696 126.0384,585.000696 C126.9004,589.000696 126.2454,594.799696 126.3034,598.972696 C126.382066,608.34603 126.677066,617.712696 127.1884,627.072696 C127.4334,631.330696 129.6804,642.257696 127.6194,645.652696 C124.6654,647.510696 120.2704,648.043696 116.8664,647.330696 C110.1134,645.917696 104.6724,642.820696 100.8024,637.005696 C99.6353997,634.056696 98.9273997,631.189696 98.2753997,628.091696 C101.3874,629.978696 104.2734,630.912696 107.8314,631.538696 C109.4664,631.826696 110.7664,632.005696 112.1744,631.035696 C112.4214,627.584696 107.5214,624.421696 105.9114,621.432696 C103.3634,616.704696 103.2774,609.429696 104.7954,604.456696 C107.9454,594.145696 116.9014,589.081696 125.8144,584.482696 Z"/><path fill="#7A7BBE" d="M121.6074,564.562696 C122.5084,564.489696 123.5634,564.317696 124.4574,564.406696 C125.1154,564.472696 125.7314,564.589696 126.1404,565.136696 C127.1704,566.510696 127.0184,568.126696 126.8074,569.718696 C126.4934,572.081696 126.4244,574.409696 126.3564,576.789696 C117.0624,579.661696 107.6744,585.024696 101.6914,592.853696 C96.2043997,600.033696 95.1163997,607.378696 96.2373997,616.169696 L92.2773997,614.383696 C88.2993997,611.838696 84.4173997,608.832696 83.1443997,604.052696 C81.6533997,598.449696 84.1333997,592.288696 87.0393997,587.528696 C94.3773997,575.507696 108.2464,567.733696 121.6074,564.562696 Z"/></g></svg>