<?xml version="1.0" encoding="UTF-8" standalone="no"?><!DOCTYPE svg PUBLIC "-//W3C//DTD SVG 1.1//EN" "http://www.w3.org/Graphics/SVG/1.1/DTD/svg11.dtd"><svg width="100%" height="100%" viewBox="0 0 2788 3771" version="1.1" xmlns="http://www.w3.org/2000/svg" xmlns:xlink="http://www.w3.org/1999/xlink" xml:space="preserve" xmlns:serif="http://www.serif.com/" style="fill-rule:evenodd;clip-rule:evenodd;stroke-linejoin:round;stroke-miterlimit:2;"><g><path d="M1540.14,454.35c6.829,-27.733 21.308,-55.945 33.821,-81.6c59.625,-122.22 147.933,-242.241 265.921,-313.241c86.291,-51.926 185.712,-72.999 284.35,-48.435c104.021,25.906 190.741,101.05 244.575,192.089c77.325,130.775 89.946,299.817 51.679,445.258c-34.038,129.384 -115.692,246.684 -232.204,314.546c-79.25,46.158 -168.888,67.629 -260.254,66.267c51.441,197.646 71.65,412.191 -36.905,596.021c-26.058,44.125 -57.25,84.004 -96.033,117.65c50.796,74.879 82.138,171.258 64.354,261.866c-4.129,21.038 -10.954,40.209 -19.846,59.654c112.034,156.046 142.371,299.171 153.134,487.467c2.383,41.729 1.725,83.108 0.087,124.867c-0.55,14.012 0.067,29.491 -2.187,43.312c-1.863,11.4 -11.809,20.359 -13.734,31.484c-3.758,21.7 -2.225,45.512 -4.512,67.62c-8.971,86.705 -35.075,163.409 -110.929,212.746c-9.639,6.259 -19.427,12.275 -29.363,18.05c81.879,47.742 163.338,81.125 259.571,55.846c65.292,-17.15 124.6,-59.05 158.675,-117.829c38.413,-66.267 41.342,-151.108 21.35,-223.779c-17.896,-65.046 -51.871,-124.95 -78.896,-186.463c-62.841,-143.029 -75.254,-299.425 3.459,-439.133c37.408,-66.396 109.929,-119.329 182.929,-139.333c4.977,-1.398 9.986,-2.671 15.025,-3.821c5.041,-1.15 10.107,-2.174 15.196,-3.071c5.091,-0.9 10.202,-1.672 15.333,-2.317c5.128,-0.644 10.269,-1.161 15.425,-1.55c5.155,-0.389 10.317,-0.65 15.483,-0.783c5.17,-0.133 10.338,-0.138 15.504,-0.013c5.17,0.123 10.332,0.374 15.488,0.755c5.155,0.38 10.298,0.888 15.429,1.525c5.131,0.633 10.242,1.394 15.333,2.283c5.095,0.889 10.163,1.904 15.205,3.046c5.041,1.139 10.052,2.403 15.033,3.791c4.978,1.389 9.919,2.902 14.825,4.538c4.905,1.633 9.767,3.387 14.583,5.262c4.817,1.878 9.585,3.873 14.304,5.984c4.717,2.111 9.38,4.339 13.988,6.683c4.608,2.345 9.155,4.801 13.642,7.371c81.337,47.392 132.779,127.2 155.92,217.237c12.621,49.096 19.142,133.046 -8.42,177.817c-3.592,5.833 -8.5,10.867 -15.5,12.288c-7.163,1.45 -14.892,-1.1 -20.238,-5.95c-18.258,-16.555 -17.454,-55.584 -24.55,-78.696c-30.708,-100.029 -100.962,-200.492 -216.171,-200.1c-42.95,0.15 -82.596,16.216 -112.787,46.933c-43.192,43.95 -58.625,106.783 -57.679,166.846c0.937,59.625 21.604,113.496 45.804,167.046c69.991,154.887 134.496,266.804 94.212,445.496c-1.136,5.019 -2.355,10.018 -3.658,14.995c-1.303,4.981 -2.69,9.937 -4.163,14.867c-1.469,4.933 -3.022,9.839 -4.658,14.717c-1.636,4.88 -3.354,9.732 -5.154,14.554c-1.8,4.822 -3.681,9.611 -5.642,14.367c-1.961,4.758 -4.001,9.483 -6.121,14.175c-2.119,4.688 -4.318,9.34 -6.595,13.954c-2.278,4.616 -4.632,9.193 -7.063,13.729c-2.433,4.536 -4.942,9.029 -7.525,13.479c-2.581,4.45 -5.237,8.857 -7.971,13.221c-2.73,4.361 -5.535,8.675 -8.412,12.942c-2.878,4.266 -5.827,8.484 -8.846,12.654c-3.02,4.166 -6.107,8.282 -9.263,12.346c-3.158,4.063 -6.384,8.073 -9.679,12.029c-3.291,3.953 -6.65,7.85 -10.075,11.691c-3.425,3.842 -6.914,7.625 -10.466,11.35c-77.796,80.513 -190.684,126.238 -302.271,127.963c-140.117,2.167 -263.454,-49.525 -377.704,-126.563c7.608,46.838 23.708,185.084 18.129,226.163c-1.042,7.696 -3.942,14.304 -8.671,20.462c-2.442,3.18 -5.175,6.146 -7.892,9.088c30.571,45.796 45.417,105.6 34.492,160.137c-9.629,48.067 -38.838,84.35 -79.475,110.684c-81.475,52.791 -202.817,59.283 -295.813,38.621c-49.212,-10.938 -104.92,-33.467 -133.312,-77.684c-18.354,-28.587 -21.325,-63.458 -13.804,-96.025c8.783,-38.033 31.375,-70.016 58.491,-97.316l-2.3,-1.171c-17.4,-9.05 -24.191,-17.721 -30.02,-36.3c-19.784,-63.092 -63.542,-375.454 -100.23,-404.217c-5.395,-0.762 -5.737,-0.458 -10.62,2.071c-21.48,30.5 -26.396,244.254 -28.842,290.625c-1.479,27.992 0.225,58.854 -7.779,85.858c-3.084,10.409 -8.246,17.117 -15.721,24.784c15.642,41.841 14.721,96.766 -3.846,137.604c-27.962,61.491 -91.342,99.583 -152.367,122.162c-121.391,44.917 -315.941,59.446 -434.754,3.575c-35.15,-16.529 -68.862,-41.658 -81.775,-79.887c-10.629,-31.467 -5.004,-66.242 10.225,-95.188c31.613,-60.083 105.659,-96.146 167.809,-114.808c26.483,-7.95 53.716,-13.613 80.754,-19.317c-13.161,-90.7 -23.354,-181.732 -30.579,-273.096c-4.113,-47.679 -9.805,-96.366 -8.9,-144.241c-66.221,7.304 -133.775,6.933 -188.571,-36.917c-39.096,-31.283 -54.479,-75.929 -59.396,-124.321c-4.775,-46.925 1.858,-90.854 12.058,-136.504c-29.491,-31.267 -23.558,-81.004 -22.404,-120.946c6.088,-211.229 71.167,-426.183 228.258,-574.416c15.095,-14.056 30.761,-27.441 47,-40.155c-10.508,-30.2 -18.833,-62.341 -10.195,-94.208c-18.7,-16.812 -46.634,-25.704 -68.234,-39.221c-86.166,-53.921 -158.654,-120.129 -207.35,-210.712c-26.85,3.608 -53.95,7.454 -80.412,13.287c-16.088,3.546 -31.809,9.809 -48.338,11.096c-7.616,0.596 -17.221,0.292 -23.221,-5.192c-3.57,-3.258 -2.795,-6.012 -2.775,-10.416c8.438,-16.304 28.559,-23.913 45.238,-29.192c28.017,-8.867 59.096,-14.992 88.171,-19.237c-15.517,-35.259 -33.167,-80.192 -36.629,-118.746c-1.08,-5.929 -2.35,-11.596 -4.038,-17.384c-11.854,-12.383 -70.825,-9.183 -88.479,-9.575c-15.829,0.196 -71.45,10.946 -81.067,6.334c-2.975,-4.4 -4.137,-6.063 -3.262,-11.729c1.379,-8.913 9.4,-16.034 16.625,-20.55c35.271,-22.071 111.633,-23.58 151.254,-13.967c-2.638,-37.679 -2.308,-75.854 -1.138,-113.6c-0.245,-26.808 5.617,-57.246 9.755,-83.8c6.987,-67.667 26.095,-138.25 49.187,-202.163c-18.129,-5.016 -34.95,-15.095 -51.175,-24.437c-4.631,-2.636 -9.215,-5.351 -13.754,-8.146c-4.536,-2.792 -9.025,-5.66 -13.467,-8.604c-4.441,-2.945 -8.832,-5.964 -13.171,-9.058c-4.339,-3.092 -8.623,-6.257 -12.854,-9.496c-4.23,-3.239 -8.405,-6.549 -12.525,-9.929c-4.119,-3.381 -8.18,-6.831 -12.183,-10.35c-4.003,-3.517 -7.945,-7.102 -11.825,-10.755c-3.881,-3.65 -7.697,-7.366 -11.45,-11.15c-3.756,-3.78 -7.446,-7.623 -11.071,-11.529c-3.625,-3.905 -7.182,-7.872 -10.671,-11.9c-3.489,-4.025 -6.91,-8.109 -10.262,-12.254c-3.35,-4.142 -6.629,-8.34 -9.838,-12.596c-3.211,-4.253 -6.347,-8.559 -9.408,-12.921c-3.064,-4.358 -6.053,-8.769 -8.967,-13.233c-2.914,-4.461 -5.751,-8.971 -8.512,-13.529c-2.759,-4.556 -5.441,-9.158 -8.046,-13.808c-79.817,-141.205 -96.975,-323.93 -53.45,-479.525c29.892,-106.85 94.162,-206.708 192.608,-261.403c72.171,-40.097 153.85,-50.329 233.313,-27.125c111.033,32.423 201.275,126.2 255.025,225.673c20.454,37.855 34.625,78.755 47.283,119.771c5.508,17.842 9.992,36.579 16.867,53.921c36.725,-34.517 82.237,-51.508 130.15,-64.479c16.012,-32.829 34.95,-56.946 70.783,-69.183c63.379,-21.646 136.046,5.52 192.596,33.966c26.196,13.179 50.812,36.071 77.675,46.267c21.492,8.158 50.417,4.775 73.379,8.621c82.563,13.829 152.246,43.9 223.55,86.841Z" style="fill:#313945;fill-rule:nonzero;"/><path d="M250.598,1270.66c-0.245,-26.808 5.617,-57.246 9.755,-83.8c3.466,37.675 0.1,75.946 -6.717,113.092c-0.829,-9.592 -0.95,-19.909 -3.038,-29.292Z" style="fill:#161c24;fill-rule:nonzero;"/><path d="M1563.69,541.442c46.067,-134.992 112.908,-266.392 217.212,-366.025c71.355,-68.158 166.434,-124.035 268.075,-121.048c81.005,2.38 161.467,46.596 216.105,104.826c91.187,97.189 123.195,228.539 118.958,358.643c-4.271,131.15 -55.979,258.929 -152.713,348.971c-93.937,87.437 -194.708,120.979 -321.4,116.137l-7.35,-20.541c-16.27,-41.763 -33.612,-81.588 -54.295,-121.375c10.308,-23.905 19.925,-48.059 26.579,-73.271c7.587,-28.759 16.054,-71.038 -0.704,-97.867c-5.934,-9.504 -15.584,-17.754 -26.717,-20.171c-18.175,-3.937 -34.083,6.634 -48.7,15.804c26.683,-127.312 61.492,-260.766 148.95,-361.466c41.554,-47.85 99.887,-87.313 164.125,-94.188c22.2,-2.375 44.725,-0.616 67.004,-2.346l2.479,-0.208c-7.058,-13.158 -18.779,-19.629 -32.95,-23.592c-49.054,-13.712 -109.316,8.417 -151.341,33.084c-127.121,74.608 -195.775,224.358 -230.825,362.221c-7.984,31.395 -32.584,129.233 -21.83,158.52c2.192,1.95 3.384,4.055 6.521,4.084c27.871,0.254 62.596,-62.484 90.396,-58.679c6.421,6.029 6.442,10.766 6.713,19.391c1.558,49.638 -26.571,100.538 -47.221,144.209c96.004,194.512 152.896,454.82 81.316,665.433c-45.37,133.504 -144.358,227.525 -269.212,288.496c-80.629,39.371 -167.929,63.866 -255.067,83.871c-37.337,8.575 -75.904,14.687 -112.55,25.775c-16.025,1.195 -136.712,22.32 -142.558,27.517c-19.488,0.141 -40.029,-3.376 -59.533,-5.001c-10.946,-5.246 -100.546,-15.354 -120.092,-18.908c-35.733,-6.504 -71.429,-15.142 -106.458,-24.692c-172.792,-47.108 -351.08,-130.896 -443.434,-292.175c30.963,-3.525 65.004,-1.587 95.184,-7.65c5.158,-1.037 8.075,-1.604 11.116,-6.096c-0.383,-0.575 -0.696,-1.208 -1.154,-1.729c-14.817,-16.971 -103.325,-26.429 -128.221,-28.137c-17.029,-35.254 -26.775,-73.329 -35.483,-111.329c28.829,6.554 58.487,13.22 86.812,21.65c14.284,4.254 27.984,11.254 42.5,14.629c4.567,1.058 8.188,1.508 12.63,-0.309l-0.513,-3.354c-34.712,-43.187 -96.567,-64.429 -147.504,-80.683c0.283,-38.521 -3.371,-76.425 -1.113,-115.05c9.821,-167.921 63.063,-342.738 146.413,-488.646c74.137,-129.787 218.662,-276.504 365.929,-315.875c55.408,-14.817 93.567,1.792 140.913,29.246c-1.975,-6.188 -4.059,-12.342 -6.809,-18.238c-17.808,-38.204 -53.975,-58.308 -92.012,-71.579c61.379,-18.754 119.6,-17.112 181.075,1.496c11.046,3.346 28.441,13.125 39.329,12.646l1.079,-4.729c-2.25,-8.963 -5.817,-15.346 -11.392,-22.721c-27.466,-36.333 -69.995,-54.288 -114.075,-60.304c24.005,-8.429 47.567,-12.325 73.067,-11.475c56.046,1.875 102.342,29.008 149.271,56.875c15.542,9.229 31.3,19.6 48.329,25.866c25.429,9.363 56.108,6.75 82.917,11.255c87.35,14.675 190.65,52.866 252.229,118.812Z" style="fill:#f2f2f4;fill-rule:nonzero;"/><path d="M1798.74,665.525c26.683,-127.312 61.492,-260.766 148.95,-361.466c41.554,-47.85 99.887,-87.313 164.125,-94.188c22.2,-2.375 44.725,-0.616 67.004,-2.346l2.479,-0.208l1.867,2.688c1.096,0.32 2.196,0.625 3.287,0.966c50.33,15.684 93.105,71.867 115.559,117.209c53.433,107.908 49.441,240.183 10.521,352.012c-37.617,108.083 -121.95,195.1 -224.796,243.938c-42.442,20.158 -85.071,28.104 -131.642,32.325c-16.15,1.462 -38.671,0.479 -53.517,5.95c-16.27,-41.763 -33.612,-81.588 -54.295,-121.375c10.308,-23.905 19.925,-48.059 26.579,-73.271c7.587,-28.759 16.054,-71.038 -0.704,-97.867c-5.934,-9.504 -15.584,-17.754 -26.717,-20.171c-18.175,-3.937 -34.083,6.634 -48.7,15.804Z" style="fill:#fac3b7;fill-rule:nonzero;"/><path d="M883.869,1411.28c30.838,-3.521 70.275,3.308 97.334,18.779c19.491,11.141 34.912,28.429 40.641,50.45c6.138,23.566 -0.033,49.229 -12.287,69.791c-19.729,33.117 -53.013,48.763 -88.725,58.192c-0.938,30.425 0.616,61.583 12.537,90.025c8.917,21.275 22.946,38.408 44.975,46.663c48.8,18.291 121.509,-0.105 166.967,-21.009c32.937,-15.146 70.854,-35.241 81.929,-72.137c3.992,-13.3 4.842,-28.554 10.408,-41.25c2.284,-5.196 4.605,-9.45 10.28,-11.225c9.62,-3.017 70.395,12.158 79.712,18.496c6.033,4.104 10.663,12.02 11.638,19.22c1.437,10.609 -3.409,21.284 -10.038,29.305c-11.262,13.625 -20.05,14.429 -36.508,15.804c-15.309,12.054 -28.659,26.687 -43.759,39.116c-41.337,34.021 -89.729,52.205 -141.17,64.667c-7.984,1.664 -15.998,3.158 -24.042,4.483c-92.242,14.625 -227.508,-0.116 -304.667,-56.954c-26.5,-19.525 -57.496,-53.083 -61.825,-87.166c-1.816,-14.275 -3.508,-41.905 6.238,-53.096c2.287,-2.625 4.104,-1.784 7.291,-1.896c10.663,28.496 14.455,56.571 32.688,82.212c35.533,49.955 96.187,71.625 153.808,82.546c-24.029,-49.221 -30.312,-90.854 -29.454,-145.341c-30.821,-2.83 -60.071,-10.734 -84.558,-30.392c-20.671,-16.6 -36.588,-40.138 -38.804,-67.071c-0.214,-2.755 -0.294,-5.515 -0.238,-8.279c0.056,-2.764 0.246,-5.518 0.571,-8.263c0.325,-2.747 0.783,-5.47 1.375,-8.17c0.589,-2.7 1.31,-5.366 2.162,-7.996c0.85,-2.631 1.827,-5.213 2.93,-7.746c1.102,-2.536 2.326,-5.011 3.67,-7.425c1.348,-2.417 2.807,-4.761 4.38,-7.033c1.572,-2.273 3.252,-4.463 5.041,-6.571c25.2,-29.717 62.725,-37.546 99.5,-40.729Z" style="fill:#313945;fill-rule:nonzero;"/><path d="M887.028,1446.62c24.637,0.363 52.216,3.838 73.87,16.425c10.959,6.371 20.38,15.859 23.496,28.479c3.729,15.13 -1.271,31.021 -9.433,43.817c-16.588,25.996 -43.4,39.504 -72.379,46.521c-26.625,0.05 -49.667,-3.821 -71.338,-20.829c-15.741,-12.359 -28.641,-30.888 -30.771,-51.184c-1.308,-12.491 2.25,-24.679 10.542,-34.183c18.158,-20.821 49.85,-26.654 76.013,-29.046Z" style="fill:#fac3b7;fill-rule:nonzero;"/><path d="M1380.89,1188.38c19.1,0.688 36.659,2.896 54.229,11.267c38.284,18.242 59.334,57.879 72.005,96.467c6.045,18.408 15.133,47.054 4.929,65.116c-3.875,6.863 -9.896,10.884 -17.546,12.463c-8.421,1.742 -24.133,-2.538 -29.638,-9.304c-4.279,-5.259 -6.691,-14.259 -9.35,-20.6c-11.504,-27.429 -24.141,-55.304 -50.808,-71.104c-0.75,-0.446 -1.508,-0.871 -2.262,-1.309c-8.513,-2.816 -18.396,-4.041 -27.263,-2.471c-41.9,7.43 -47.087,57.759 -68.079,85.963c-4.904,6.587 -11.713,13.512 -20.446,13.904c-6.992,0.317 -13.254,-3.446 -18.329,-7.875c-7.417,-6.471 -10.9,-15.45 -11.413,-25.162c-1.833,-34.675 21.234,-82.784 43.65,-108.509c22.117,-25.379 47.092,-36.346 80.321,-38.846Zm-784.691,-0.554c9.479,-0.612 19.387,-1.15 28.854,-0.116c28.712,3.141 54.271,18.512 72.15,40.929c20.612,25.85 35.866,69.358 30.804,102.562c-1.188,7.813 -4.904,15.592 -11.654,20.046c-4.934,3.258 -10.654,4.038 -16.354,2.858c-25.863,-5.345 -33.846,-45.229 -46.838,-64.362c-10.725,-15.8 -25.008,-23.171 -43.267,-26.788l-2.92,-0.554c-66.621,6.55 -59.742,85.825 -95.717,97.929c-5.246,1.763 -9.733,0.65 -14.413,-1.983c-7.495,-4.217 -15.4,-15.175 -17.262,-23.504c-5.933,-26.538 18.942,-68.663 33.283,-89.946c20.209,-29.983 47.709,-49.883 83.334,-57.071Z" style="fill:#313945;fill-rule:nonzero;"/><path d="M1726.52,1438.4c27.875,-3.916 105.18,-1.804 128.175,13.596c3.484,2.329 2.388,1.1 3.121,5.542c-5.175,6.237 -12.821,7.621 -20.529,8.612c-25.275,3.25 -52.037,1.392 -77.571,2.692c-40.746,2.075 -80.846,7.054 -121.179,12.992c-39.396,7.675 -76.467,20.291 -115.187,30.096c47.408,-53.646 135.458,-68.625 203.17,-73.53Z" style="fill:#313c4c;fill-rule:nonzero;"/><path d="M1383.18,858.559c9.239,-0.589 18.471,-0.493 27.696,0.287c9.227,0.781 18.345,2.238 27.354,4.371c32.079,7.696 68.108,38.471 85.021,66.221c6.137,10.075 17.887,32.271 14.079,43.696c-0.896,2.683 -2.871,2.787 -5.209,3.896c-9.658,-4.48 -18.2,-15.971 -25.554,-23.671c-30.433,-32.613 -74.979,-64.821 -122.279,-56.129c-11.842,2.179 -29.358,9.475 -40.746,5.612c-5.375,-1.825 -7.141,-3.483 -9.554,-8.462c0.592,-2.471 0.846,-4.1 2.154,-6.455c8.288,-14.929 31.5,-25.687 47.038,-29.366Z" style="fill:#313945;fill-rule:nonzero;"/><path d="M1532.77,1575.68c57.984,-5.642 127.392,13.216 179.204,38.275c21.488,10.391 55.13,29.858 62.375,54.312c1.375,4.634 1.017,5.196 -1.241,9.121c-5.746,0.825 -8.917,-1.617 -13.667,-4.4l-2.033,-1.217c-66.784,-40.587 -137.588,-61.629 -213.921,-75.437c-11.013,-1.992 -25.4,-7.133 -36.108,-7.075c-1.134,0.004 -2.259,0.254 -3.388,0.383l-0.712,-2.987l0.729,1.704c-3.313,-1.038 -2.279,-0.05 -3.659,-2.242c6.792,-8.258 22.35,-9.033 32.421,-10.437Z" style="fill:#313c4c;fill-rule:nonzero;"/><path d="M612.811,858.692c20.208,-0.921 35.567,-0.737 53.987,9.346c8.5,4.65 19.396,12.533 21.109,22.808c1.337,8.013 -3.213,13.617 -7.642,19.617c-11.604,-4.142 -23.2,-8.525 -34.95,-12.238c-27.104,-8.566 -55.842,5.646 -79.575,17.667c-18.175,10.408 -36.004,29.171 -54.846,36.604l-2.121,-2.141c0.113,-11.738 4.196,-20.063 10.455,-29.884c21.345,-33.487 55.45,-53.487 93.583,-61.779Z" style="fill:#313945;fill-rule:nonzero;"/><path d="M1748.98,1777.85c43.591,62.405 80.487,140.08 66.791,218.28c-2.5,14.295 -7.041,27.92 -12.779,41.237c-72.854,-56.454 -151.504,-93.292 -245.337,-81.875c-28.713,3.496 -57.917,11.667 -84.492,23.05c-65.95,28.258 -126.896,72.646 -191.596,104.775c-31.742,15.647 -63.981,30.192 -96.717,43.633c-22.137,9.075 -47.629,16.013 -67.77,28.905c106.954,2.729 203.283,-47.7 294.195,-98.134c44.917,-24.912 91.721,-50.841 142.875,-60.021c40.088,-7.187 82.067,-1.595 120.163,11.955c45.325,16.116 81.746,41.304 114.975,75.975c125.225,130.654 154.7,354.129 161.883,526.795c-90.816,30.667 -233.954,31.384 -328.671,7.7c-2.308,-27.141 -2.304,-54.387 -4.383,-81.545c-6.8,-88.705 -21.421,-176.88 -52.217,-260.667c-6.712,-18.258 -13.57,-41.375 -27.42,-55.433l-4.284,-1.571c-4.916,2.325 -6.366,2.837 -8.65,8.154c-6.537,15.225 14.288,78.271 18.254,97.492c20.38,98.758 38.53,207.05 33.621,308.245c0.321,13.363 0.238,26.438 -0.65,39.78c0.275,12.654 -0.3,25.42 -0.554,38.083c-79.742,22.65 -158.512,34.396 -240.796,43.567c-194.154,21.637 -389.908,21.316 -582.691,-12.459c-52.496,-9.196 -110.58,-19.954 -159.625,-40.983c-5.43,-39.942 -6.15,-81.292 -7.246,-121.567c-2.992,-117.891 9.921,-236.296 27.4,-352.721c2.45,-16.15 12.241,-56.975 3.479,-70.45c-0.404,-0.625 -0.971,-1.129 -1.454,-1.695c-4.296,0.354 -2.917,-0.546 -5.667,2.7c-12.992,15.308 -20.508,48.562 -25.725,68.12c-24.875,93.259 -37.312,190.392 -41.233,286.734c-1.634,40.058 -0.275,80.275 -2.084,120.296c-58.891,-6.03 -112.687,-22.684 -166.591,-46.575c-1.038,-37.459 3.812,-75.496 9,-112.546c20.758,-148.246 73.837,-308.771 178.929,-419.479c24.579,-25.896 50.783,-47.413 81.904,-64.95c66.108,75.145 175.6,157.404 277.988,165.516c5.116,0.409 9.387,0.329 14.237,-1.55l0.871,-3.154c-12.883,-12.446 -84.688,-42.108 -106.963,-53.4c-72.57,-36.787 -189.287,-131.471 -196.266,-218.704c74.025,27.754 147.283,55.9 225.358,70.196c18.713,56.546 75.867,134.804 130.279,161.537c19.242,9.454 36.146,10.021 56.175,2.892c64.817,-23.063 165.242,-91.271 225.604,-130.242c21.33,-13.766 42.546,-30.358 65.225,-41.546c32.896,-16.229 80.096,-21.12 116.009,-31.229c106.833,-30.079 204.433,-71.096 296.646,-133.121Z" style="fill:#7a7bbe;fill-rule:nonzero;"/><path d="M1519.44,2723.14c10.075,-17.487 44.267,-65.879 47.6,-82.142c0.113,-0.537 0.113,-1.091 0.171,-1.637l1.342,0.992l1.537,-3.684l2.75,0.8l1.096,7.429l3.479,-10.1c0.321,13.363 0.238,26.438 -0.65,39.78c-4.758,9.708 -4.262,23.129 -5.187,33.841c-17.154,6.109 -34.471,10.454 -52.138,14.721Z" style="fill:#6969a3;fill-rule:nonzero;"/><path d="M624.219,2850.46c19.689,6.242 39.497,12.076 59.425,17.504c19.928,5.428 39.959,10.445 60.092,15.05c20.133,4.608 40.353,8.8 60.658,12.575c20.306,3.778 40.681,7.138 61.125,10.079c20.442,2.942 40.936,5.464 61.484,7.567c20.547,2.1 41.129,3.779 61.745,5.037c20.614,1.256 41.246,2.089 61.896,2.5c20.65,0.412 41.3,0.399 61.95,-0.037c36.906,-1.058 73.767,-2.957 110.584,-5.696c18.9,-1.362 38.508,-4.225 57.379,-3.875l47.579,-5.837c75.183,-8.921 148.904,-22.259 222.912,-37.971c2.392,58.258 20.571,109.525 63.45,150.287c-11.591,74.9 7.792,210.813 17.742,288.817c-105.237,50.871 -297.008,47.521 -407.875,11.637c-0.258,-0.745 -0.529,-1.483 -0.779,-2.229c-8.508,-25.246 -12.288,-52.946 -17.971,-79.05c-10.678,-51.03 -22.435,-101.811 -35.271,-152.341c-4.862,-18.58 -8.754,-40.771 -17.775,-57.788c-2.925,-5.521 -6.979,-8.85 -12.541,-11.554c-40.209,-19.563 -158.759,-18.125 -198.096,-2.4c-2.575,1.029 -4.663,2.333 -6.967,3.854l-1.367,3.85c12.788,17.367 80.692,20.883 103.359,26.667c-14.446,61.783 -13.092,130.179 -14.646,193.458c-0.65,26.613 -0.283,54.283 -4.896,80.554c-90.154,14.138 -287.096,-6.833 -362.658,-57.854c-9.879,-44.079 -10.834,-93.075 -14.517,-138.125c-7.433,-90.858 -15.458,-183.508 -16.021,-274.679Z" style="fill:#477599;fill-rule:nonzero;"/><path d="M333.061,933.88c-19.181,-6.678 -37.532,-15.153 -55.054,-25.425c-102.75,-60.025 -169.709,-164.655 -198.817,-278.238c-34.092,-133.029 -22.621,-301.246 48.796,-420.304c42.962,-71.624 106.779,-129.584 189.408,-149.673c66.567,-16.184 132.246,2.062 189.617,37c128.429,78.21 183.65,218.473 217.667,357.319c-59.659,31.1 -116.571,67.841 -164.746,115.116c-7.479,-19.929 -12.467,-41.45 -18.617,-61.87c-12.158,-40.38 -25.608,-80.1 -43.371,-118.405c-33.146,-71.47 -81.904,-142.216 -159.087,-169.929c-34.475,-12.379 -70.179,-13.583 -103.784,2.342c1.213,0.65 2.409,1.333 3.638,1.95c22.004,11.029 51.3,11.087 74.967,19.979c81.725,30.7 127.062,119.163 155.866,196.108c19.346,51.671 38.35,118.375 43.742,173.296c-17.917,24.409 -37.858,47.25 -55.238,72.054c-11.805,17.053 -23.077,34.452 -33.816,52.196c-10.736,17.745 -20.918,35.803 -30.546,54.175c-9.628,18.37 -18.682,37.018 -27.163,55.946c-8.483,18.928 -16.376,38.097 -23.679,57.508c-3.8,9.321 -6.596,19.292 -9.783,28.855Z" style="fill:#fac3b7;fill-rule:nonzero;"/><path d="M333.061,933.88c-19.181,-6.678 -37.532,-15.153 -55.054,-25.425c-102.75,-60.025 -169.709,-164.655 -198.817,-278.238c-34.092,-133.029 -22.621,-301.246 48.796,-420.304c42.962,-71.624 106.779,-129.584 189.408,-149.673c66.567,-16.184 132.246,2.062 189.617,37c128.429,78.21 183.65,218.473 217.667,357.319c-59.659,31.1 -116.571,67.841 -164.746,115.116c-7.479,-19.929 -12.467,-41.45 -18.617,-61.87c-12.158,-40.38 -25.608,-80.1 -43.371,-118.405c-33.146,-71.47 -81.904,-142.216 -159.087,-169.929c-34.475,-12.379 -70.179,-13.583 -103.784,2.342c-14.825,10.179 -30.633,20.125 -43.825,32.379c-47.2,43.858 -72.504,110.208 -84.087,172.225c-0.725,3.789 -1.403,7.585 -2.033,11.388c-0.631,3.805 -1.214,7.618 -1.75,11.437c-0.537,3.82 -1.025,7.645 -1.467,11.475c-0.442,3.831 -0.836,7.667 -1.183,11.508c-0.348,3.842 -0.648,7.687 -0.9,11.534c-0.253,3.85 -0.459,7.701 -0.617,11.554c-0.158,3.853 -0.27,7.707 -0.333,11.562c-0.062,3.856 -0.077,7.713 -0.046,11.571c0.033,3.856 0.114,7.711 0.241,11.567c0.128,3.853 0.303,7.704 0.525,11.554c0.223,3.85 0.492,7.697 0.809,11.542c0.316,3.844 0.682,7.683 1.096,11.516c0.411,3.837 0.869,7.666 1.375,11.488c0.505,3.822 1.058,7.639 1.658,11.45c0.603,3.808 1.25,7.61 1.942,11.404c0.694,3.795 1.436,7.579 2.225,11.354c0.786,3.775 1.619,7.541 2.5,11.296c0.88,3.753 1.806,7.496 2.779,11.229c0.972,3.731 1.99,7.45 3.054,11.159c1.064,3.705 2.173,7.398 3.329,11.079c1.156,3.68 2.356,7.346 3.6,10.996c1.247,3.65 2.539,7.283 3.875,10.9c1.333,3.619 2.713,7.22 4.138,10.804c1.422,3.583 2.89,7.148 4.404,10.696c1.511,3.55 3.066,7.079 4.666,10.587c1.598,3.508 3.239,6.997 4.925,10.467c1.684,3.469 3.41,6.918 5.18,10.346c1.772,3.425 3.584,6.829 5.437,10.212c1.853,3.381 3.749,6.739 5.688,10.075c1.936,3.333 3.912,6.643 5.929,9.929c2.019,3.289 4.077,6.55 6.175,9.784c2.1,3.236 4.239,6.445 6.416,9.629c35.396,51.408 96.934,111.604 160.313,125.221c0.575,0.12 1.154,0.195 1.733,0.295c-3.8,9.321 -6.596,19.292 -9.783,28.855Z" style="fill:#f2f2f4;fill-rule:nonzero;"/><path d="M2438.92,2036.23c10.413,-1.709 22.375,-1.341 32.934,-1.213c70.666,0.908 135.962,30.729 184.537,81.65c58.825,61.663 88.308,148.063 86.729,232.433c-4.55,-13.991 -7.458,-28.47 -12.162,-42.458c-20.079,-59.679 -50.663,-113.633 -100.842,-153.021c-48.308,-37.921 -109.654,-53.071 -170.287,-45.291c-53.584,6.879 -100.463,34.887 -132.959,78c-27.487,36.462 -43.141,79.916 -48.933,124.983c-24.238,188.725 119.817,320.612 144.046,499.633c0.472,3.425 0.902,6.856 1.291,10.292c0.389,3.433 0.736,6.872 1.042,10.317c0.303,3.444 0.565,6.891 0.788,10.341c0.219,3.45 0.397,6.902 0.533,10.354c0.136,3.456 0.23,6.913 0.283,10.371c0.05,3.456 0.059,6.913 0.025,10.371c-0.03,3.456 -0.105,6.911 -0.225,10.367c-0.116,3.455 -0.276,6.908 -0.479,10.358c-0.2,3.453 -0.443,6.901 -0.729,10.346c-0.286,3.444 -0.615,6.886 -0.988,10.325c-0.369,3.436 -0.78,6.868 -1.233,10.296c-0.456,3.428 -0.951,6.848 -1.487,10.262c-0.539,3.417 -1.119,6.825 -1.738,10.225c-0.622,3.403 -1.285,6.796 -1.987,10.179c-0.706,3.387 -1.452,6.763 -2.238,10.13c-0.786,3.366 -1.614,6.722 -2.483,10.066c-0.867,3.347 -1.775,6.684 -2.725,10.009c-0.95,3.322 -1.941,6.633 -2.971,9.933c-1.031,3.3 -2.102,6.587 -3.213,9.862c-1.114,3.273 -2.265,6.532 -3.454,9.78c-1.191,3.244 -2.422,6.475 -3.691,9.691c-1.27,3.214 -2.58,6.413 -3.93,9.596c-1.347,3.183 -2.733,6.35 -4.158,9.5c-1.425,3.15 -2.889,6.282 -4.392,9.396c-1.502,3.114 -3.043,6.21 -4.62,9.287c-1.578,3.075 -3.194,6.131 -4.846,9.167c-1.65,3.039 -3.339,6.056 -5.067,9.05c-1.725,2.995 -3.487,5.968 -5.287,8.921c-1.798,2.953 -3.632,5.883 -5.505,8.792c-1.869,2.905 -3.775,5.788 -5.716,8.65c-1.939,2.861 -3.914,5.698 -5.925,8.512c-2.011,2.811 -4.056,5.599 -6.134,8.363c-1.861,2.455 -3.754,4.888 -5.679,7.3c-1.922,2.408 -3.875,4.793 -5.858,7.154c-1.981,2.361 -3.992,4.697 -6.033,7.008c-2.042,2.308 -4.112,4.593 -6.209,6.854c-2.097,2.259 -4.222,4.491 -6.375,6.696c-2.153,2.206 -4.333,4.385 -6.541,6.538c-2.209,2.15 -4.444,4.272 -6.705,6.366c-2.261,2.097 -4.547,4.166 -6.858,6.204c-2.311,2.039 -4.649,4.049 -7.012,6.03c-2.362,1.98 -4.748,3.93 -7.159,5.85c-2.411,1.922 -4.846,3.813 -7.304,5.675c-2.458,1.858 -4.939,3.687 -7.442,5.487c-2.505,1.797 -5.032,3.564 -7.579,5.3c-2.547,1.736 -5.115,3.439 -7.704,5.108c-2.592,1.673 -5.203,3.312 -7.833,4.917c-2.634,1.606 -5.285,3.179 -7.954,4.721c-2.67,1.539 -5.359,3.044 -8.067,4.517c-2.708,1.475 -5.435,2.913 -8.179,4.316c-2.745,1.406 -5.506,2.777 -8.284,4.113c-2.777,1.336 -5.57,2.637 -8.379,3.904c-2.811,1.267 -5.637,2.499 -8.479,3.696c-2.842,1.194 -5.697,2.354 -8.567,3.479c-2.869,1.125 -5.752,2.214 -8.65,3.267c-2.897,1.052 -5.808,2.069 -8.733,3.05c-2.922,0.98 -5.856,1.923 -8.8,2.829c-2.947,0.908 -5.904,1.779 -8.871,2.612c-2.969,0.834 -5.948,1.629 -8.937,2.388c-2.986,0.758 -5.982,1.48 -8.988,2.166c-3.005,0.684 -6.019,1.331 -9.041,1.942c-3.023,0.608 -6.052,1.179 -9.088,1.713c-3.036,0.533 -6.078,1.029 -9.125,1.487c-3.05,0.458 -6.104,0.878 -9.162,1.258c-12.213,1.43 -24.409,2.634 -36.696,3.088c-4.531,0.128 -9.061,0.201 -13.592,0.226c-4.533,0.014 -9.065,-0.021 -13.596,-0.109c-4.53,-0.089 -9.06,-0.232 -13.587,-0.43c-4.528,-0.2 -9.052,-0.452 -13.571,-0.758c-4.522,-0.308 -9.04,-0.669 -13.554,-1.083c-4.511,-0.417 -9.018,-0.886 -13.521,-1.409c-4.5,-0.525 -8.995,-1.104 -13.483,-1.737c-4.487,-0.631 -8.966,-1.315 -13.438,-2.054c-4.469,-0.739 -8.931,-1.532 -13.383,-2.379c-4.453,-0.848 -8.895,-1.748 -13.325,-2.7c-4.431,-0.953 -8.849,-1.96 -13.254,-3.021c-4.406,-1.059 -8.799,-2.17 -13.18,-3.334c-4.377,-1.166 -8.741,-2.384 -13.091,-3.654c-4.35,-1.269 -8.685,-2.591 -13.004,-3.966c-4.32,-1.373 -8.621,-2.798 -12.905,-4.275c-4.283,-1.478 -8.548,-3.007 -12.795,-4.588c-4.248,-1.58 -8.475,-3.211 -12.684,-4.892c-4.208,-1.68 -8.396,-3.412 -12.562,-5.195c-4.167,-1.781 -8.313,-3.613 -12.438,-5.496c-4.122,-1.881 -8.221,-3.811 -12.296,-5.792c-4.077,-1.98 -8.13,-4.01 -12.158,-6.087c-4.025,-2.078 -8.026,-4.203 -12.004,-6.375c-3.975,-2.175 -7.925,-4.398 -11.85,-6.667c-3.922,-2.267 -7.817,-4.582 -11.683,-6.946c-3.87,-2.361 -7.709,-4.769 -11.517,-7.225c-3.808,-2.453 -7.588,-4.953 -11.338,-7.5c-3.75,-2.544 -7.468,-5.133 -11.154,-7.767c-3.689,-2.636 -7.344,-5.315 -10.966,-8.037c-3.623,-2.722 -7.213,-5.488 -10.771,-8.296c-3.556,-2.808 -7.078,-5.66 -10.567,-8.554c-3.486,-2.892 -6.939,-5.826 -10.358,-8.804c-3.417,-2.975 -6.798,-5.992 -10.142,-9.05c-1.142,-25.538 -0.337,-51.259 -0.15,-76.817c38.621,19.158 73.883,17.675 115.929,13.663c88.054,68.579 185.4,108.145 298.542,94.02c4.919,-0.611 9.822,-1.343 14.708,-2.195c4.886,-0.856 9.747,-1.83 14.584,-2.921c4.836,-1.092 9.643,-2.302 14.42,-3.629c4.778,-1.328 9.521,-2.773 14.23,-4.334c4.705,-1.561 9.37,-3.236 13.995,-5.025c4.625,-1.791 9.203,-3.694 13.734,-5.708c4.53,-2.017 9.008,-4.143 13.433,-6.379c4.428,-2.234 8.797,-4.575 13.108,-7.025c4.311,-2.45 8.56,-5.004 12.746,-7.663c4.186,-2.658 8.304,-5.418 12.354,-8.279c4.05,-2.861 8.028,-5.821 11.934,-8.879c3.902,-3.056 7.729,-6.206 11.479,-9.45c3.75,-3.245 7.418,-6.579 11.004,-10.004c3.586,-3.425 7.086,-6.936 10.5,-10.534c3.414,-3.597 6.738,-7.275 9.971,-11.033c3.233,-3.761 6.372,-7.599 9.417,-11.512c35.62,-46.042 54.429,-101.225 56.812,-159.234c7.867,-191.466 -118.471,-296.258 -140.062,-477.546c-11.23,-94.295 7.762,-193.204 67.633,-268.808c45.712,-57.725 109.654,-88.829 181.933,-97.612Z" style="fill:#fac3b7;fill-rule:nonzero;"/><path d="M562.657,3469.69c37.029,-7.954 77.996,-20.254 115.933,-12.85c19.321,3.771 37.892,10.8 57.55,12.85c69.483,19.687 187.108,7.929 258.946,-0.213c1.45,3.612 2.725,7.282 3.825,11.013c1.097,3.73 2.015,7.505 2.754,11.325c0.739,3.819 1.293,7.667 1.663,11.542c0.369,3.872 0.557,7.752 0.557,11.641c0.251,33.704 -13.095,63.2 -36.612,87.038c-77.154,78.212 -233.079,95.55 -338.466,95.754c-5.3,-44.483 14.062,-87.904 25.05,-130.242l-2.429,-0.375l2.587,-3.866l-2.15,-0.842c-8.775,2.379 -15.983,8.429 -22.725,14.346c-35.912,31.516 -47.217,72.062 -50.287,118.2c-30.563,-5.167 -61.767,-9.154 -90.8,-20.454c-3.58,-37.38 5.92,-71.055 23.233,-104.009c4.717,-8.975 12.767,-18.379 15.775,-27.85l-2.204,-1.691c-14.209,0.641 -25.909,8.754 -36.488,17.541c-30.216,25.096 -41.121,55.454 -44.487,93.617c-20.371,-15.338 -29.979,-29.063 -36.079,-53.65c1.666,-8.758 3.97,-17.329 7.541,-25.525c25.3,-58.025 92.434,-82.979 147.313,-103.3Zm1054.96,0.779c2.925,-0.246 4.413,-0.183 6.954,1.629c14.896,10.65 23.03,40.213 27.259,57.613c8.975,36.916 7.146,76.329 -13.471,109.204c-28.796,45.921 -85.396,60.637 -134.625,72.833c-2.45,-17.712 -3.388,-36.125 -3.338,-54c0.05,-18.462 7.796,-66.012 1.855,-80.191l-4.496,-0.25c-7.409,3.866 -13.4,10.079 -18.029,17.004c-25.034,37.429 -30.521,79.812 -22.367,123.254c-41.763,1.596 -81.838,-0.963 -122.971,-7.983c-3.846,-21.575 -5.746,-39.934 -3.058,-61.746c0.854,-24.392 12.071,-53.559 17.3,-77.721c-8.588,4.425 -16.817,8.658 -23.85,15.446c-32.554,31.425 -37.884,68.675 -38.175,111.921c-23.725,-13.025 -49.921,-26.188 -61.167,-52.53c-8.412,-19.704 -5.292,-41.8 2.571,-61.137c13.737,-33.779 48.617,-70.383 82.258,-84.413c101.929,18.496 211.038,9.925 307.35,-28.933Z" style="fill:#f2f2f4;fill-rule:nonzero;"/><path d="M599.273,2734.41c83.721,29.908 173.93,44.475 262.03,53.821c29.736,3.166 59.526,5.703 89.37,7.608c29.845,1.903 59.716,3.171 89.613,3.804c29.9,0.636 59.798,0.638 89.696,0.004c29.9,-0.633 59.772,-1.901 89.616,-3.804c29.845,-1.9 59.635,-4.433 89.371,-7.6c29.736,-3.166 59.392,-6.962 88.967,-11.387c29.578,-4.425 59.047,-9.475 88.408,-15.15c29.361,-5.675 58.589,-11.971 87.684,-18.888c-2.75,21.121 -6.513,41.884 -10.555,62.779c-0.329,0.53 -0.55,1.15 -0.995,1.588c-13.667,13.337 -168.442,37.192 -195.317,40.817c-215.429,29.045 -460.504,37.995 -670.133,-27.78c-26.1,-8.191 -60.03,-15.675 -81.405,-33.104c-13.67,-11.146 -14.245,-36.362 -16.35,-52.708Z" style="fill:#7a7bbe;fill-rule:nonzero;"/><path d="M1635.05,2749.54c110.409,14.233 187.33,14.096 297.5,6.404c3.521,54.525 -5.475,116.842 -29.445,166.317c-21.175,43.704 -53.188,72.183 -98.892,88.054c24.521,-35.758 43.508,-71.113 41.987,-115.671c-0.333,-9.783 -0.641,-21.979 -8.037,-29.017l-4.354,0.775c-6.634,6.417 -7.884,15.055 -10.217,23.692c-10.487,33.483 -38.721,95.65 -67.117,116.783c-18.304,13.625 -50.112,7.459 -70.991,3.921c6.9,-52.175 28.846,-98.441 35.446,-146.529c-42.721,29.933 -61.725,68.629 -82.417,115c-17.204,-17.217 -29.988,-35.787 -36.358,-59.483c-13.538,-50.334 7.866,-126.588 32.895,-170.246Z" style="fill:#f2f2f4;fill-rule:nonzero;"/><path d="M1628.19,3330.88c2.504,0.02 0.942,-0.205 4.4,1.737c0.356,1.492 0.679,2.99 0.971,4.496c3.642,18.621 11.517,68.292 -0.112,83.854c-23.971,32.067 -90.088,42.854 -127.109,48.442c-57.066,8.612 -210.1,15.383 -255.825,-18.267c-13.379,-21.192 -18.154,-77.179 -22.712,-103.837c32.204,6.333 64.446,12.883 97.141,16.1c92.284,9.075 218.309,4.608 303.246,-32.525Zm-972.358,-32.088l8.437,3.958c93.342,43.775 249.596,51.513 352.663,44.638c0.133,27.204 4.542,62.229 -11.5,85.517c-29.388,22.17 -153.679,14.508 -192.792,11.008c-42.741,-3.821 -114.687,-8.621 -143.862,-43.583c-5.996,-33.142 -10.325,-67.963 -12.946,-101.538Z" style="fill:#477599;fill-rule:nonzero;"/><path d="M395.194,2703.74c48.292,10.704 95.642,14.667 144.284,22.042c11.679,43.254 9.608,72.375 38.4,110.366c0.945,7.134 1.045,14.417 1.404,21.604c1.058,17.721 1.316,35.909 3.512,53.505c0.534,9.629 1.75,19.266 2.717,28.862c-15.563,3.946 -43.925,10.071 -59.483,5.488c-38.534,-11.359 -25.3,-113.938 -35.492,-134.959l-3.854,-1.179c-6.171,3.571 -9.825,9.046 -13.459,15.029c-19.066,31.367 -20.45,70.788 -11.483,105.288c-26.279,-13.229 -47.542,-27.492 -61.467,-54.788c-24.57,-48.166 -21.537,-121.15 -5.079,-171.258Z" style="fill:#f2f2f4;fill-rule:nonzero;"/><path d="M579.282,2857.75c1.058,17.721 1.316,35.909 3.512,53.505c-11.566,-2.592 -28.566,3.466 -38.508,-3.538c-1.404,-4.183 -1.871,-5.467 -0.383,-9.867c3.625,-10.758 25.316,-34.895 35.379,-40.1Z" style="fill:#e7e7e0;fill-rule:nonzero;"/><path d="M1102.69,1937.64c5.846,-5.192 126.533,-26.317 142.558,-27.512c10.525,5.904 21.371,9.808 32.7,13.837c-49.091,36.996 -103.487,67.325 -156.337,98.529c-34.334,20.271 -69.463,43.279 -105.613,60.054c-31.916,-23.233 -92.112,-85.708 -99.862,-123.754l1.608,-3.975l6.746,-1.104c18.375,-8.558 88.054,-2.879 113.408,-3.967c14.8,-0.637 28.717,-2.925 43.179,-6.054c-9.879,-1.796 -32.683,-3.308 -39.95,-9.221l2.03,-1.829c19.504,1.625 40.045,5.142 59.533,4.996Z" style="fill:#f2f2f4;fill-rule:nonzero;"/><path d="M1043.15,1932.65c19.504,1.625 40.045,5.142 59.533,4.996c-7.983,10.758 -27.45,13.596 -40.467,15.583c-44.116,6.742 -93.287,3.584 -137.733,0.492c18.375,-8.558 88.054,-2.879 113.408,-3.967c14.8,-0.637 28.717,-2.925 43.179,-6.054c-9.879,-1.796 -32.683,-3.308 -39.95,-9.221l2.03,-1.829Z" style="fill:#161c24;fill-rule:nonzero;"/><path d="M1622.02,2642.01c113.25,23.408 216.48,21.641 329.68,-0.617c0.75,22.129 1,43.717 -2.596,65.633c-1.925,2.942 -3.763,6.013 -6.8,7.971c-37.179,24 -270.571,8.529 -321.638,-1.4c-1.171,-23.691 0.129,-47.916 1.354,-71.587Zm-1249.39,-30.454c54.875,24.762 110.629,36.137 170.037,43.379c-0.708,12.216 -2.008,23.504 -4.646,35.471c-18.775,3.216 -39.333,1.316 -58.158,-0.805c-26.463,-2.983 -86.638,-10.354 -103.492,-33.887c-8.254,-11.525 -5.633,-31.088 -3.741,-44.158Z" style="fill:#7a7bbe;fill-rule:nonzero;"/></g></svg>