<svg xmlns="http://www.w3.org/2000/svg" width="718" height="915" viewBox="0 0 718 915"><g fill="none" transform="translate(.215 .883)"><path fill="#313945" d="M80.3767867,233.281596 C73.4857867,230.963596 67.0287867,228.401596 60.7097867,224.745596 C59.8571201,224.246263 59.0107867,223.736263 58.1707867,223.215596 C57.3307867,222.695596 56.4971201,222.165263 55.6697867,221.624596 C54.8424534,221.083263 54.0221201,220.532263 53.2087867,219.971596 C52.3954534,219.410263 51.5891201,218.839263 50.7897867,218.258596 C49.9904534,217.677929 49.1984534,217.087263 48.4137867,216.486596 C47.6284534,215.886596 46.8507867,215.276596 46.0807867,214.656596 C45.3114534,214.037263 44.5494534,213.408596 43.7947867,212.770596 C43.0407867,212.131929 42.2944534,211.484263 41.5557867,210.827596 C40.8171201,210.170929 40.0867867,209.505263 39.3647867,208.830596 C38.6427867,208.155929 37.9294534,207.472596 37.2247867,206.780596 C36.5194534,206.087929 35.8227867,205.386929 35.1347867,204.677596 C34.4467867,203.968263 33.7677867,203.250596 33.0977867,202.524596 C32.4271201,201.798596 31.7657867,201.064263 31.1137867,200.321596 C30.4617867,199.578929 29.8187867,198.828596 29.1847867,198.070596 C28.5514534,197.311929 27.9274534,196.545929 27.3127867,195.772596 C26.6981201,194.999263 26.0927867,194.218263 25.4967867,193.429596 C24.9014534,192.640929 24.3157867,191.844929 23.7397867,191.041596 C23.1637867,190.238929 22.5977867,189.429263 22.0417867,188.612596 C21.4857867,187.795263 20.9397867,186.971596 20.4037867,186.141596 C19.8684534,185.310929 19.3431201,184.473929 18.8277867,183.630596 C18.3124534,182.787263 17.8077867,181.937929 17.3137867,181.082596 C16.8197867,180.226596 16.3361201,179.364929 15.8627867,178.497596 C15.3901201,177.629596 14.9281201,176.756263 14.4767867,175.877596 C14.0254534,174.998263 13.5847867,174.113596 13.1547867,173.223596 C12.7254534,172.334263 12.3067867,171.439263 11.8987867,170.538596 C11.4914534,169.638596 11.0951201,168.733596 10.7097867,167.823596 C10.3244534,166.913596 9.95012005,165.999263 9.58678672,165.080596 C9.22412005,164.161263 8.87278672,163.237596 8.53278672,162.309596 C8.19278672,161.381596 7.86412005,160.449596 7.54678672,159.513596 C7.23012005,158.578263 6.92478672,157.638596 6.63078672,156.694596 C6.33678672,155.751263 6.05445338,154.804596 5.78378672,153.854596 C5.51312005,152.903929 5.25412005,151.950263 5.00678672,150.993596 C-3.95621328,116.961596 -1.38221328,78.2815961 16.7727867,47.5662961 C29.5127867,26.0120961 49.9647867,8.61749615 74.5447867,2.47189615 C97.9627867,-3.38320385 124.034787,1.44529615 144.502787,13.9720961 C169.017787,28.9751961 187.008787,54.1053961 196.630787,80.9425961 C199.128787,87.9085961 200.849787,95.0865961 202.551787,102.278596 L210.451787,99.9135961 C211.196787,96.9445961 211.819787,94.1445961 213.905787,91.7765961 C219.105787,85.8705961 229.359787,85.3995961 236.670787,84.8995961 C236.329787,80.4075961 236.848787,75.8125961 239.719787,72.1435961 C243.144787,67.7635961 248.770787,66.3995961 254.046787,65.8845961 C273.621787,63.9765961 293.406787,72.5715961 308.311787,84.6755961 C343.420787,89.3675961 377.292787,99.6425961 407.703787,118.157596 C415.687787,98.7935961 424.924787,80.7435961 438.321787,64.5095961 C459.144787,39.2762961 488.012787,18.7761961 521.394787,15.7050961 C544.379787,13.5904961 568.039787,20.0924961 585.828787,35.0561961 C606.358787,52.3251961 617.208787,78.3715961 619.431787,104.707596 C622.606787,142.338596 610.987787,181.924596 586.433787,210.824596 C562.412787,239.096596 530.568787,253.597596 493.901787,256.630596 C494.982787,262.576596 496.459787,268.428596 497.420787,274.403596 C500.841787,295.688596 500.921787,317.219596 496.792787,338.406596 C503.177787,340.054596 518.084787,343.248596 521.819787,348.462596 C522.801787,349.833596 523.085787,351.414596 522.743787,353.056596 C522.471787,354.362596 521.889787,355.326596 520.696787,355.998596 C516.552787,358.333596 499.979787,351.818596 494.294787,350.722596 C488.993787,367.990596 481.303787,383.855596 469.260787,397.455596 C473.942787,400.556596 488.191787,410.251596 489.071787,415.635596 C489.282787,416.923596 489.167787,418.012596 488.343787,419.072596 C487.645787,419.971596 486.297787,420.793596 485.145787,420.881596 C480.787787,421.215596 466.083787,408.977596 462.174787,405.945596 C454.282787,413.404596 446.030787,421.400596 436.551787,426.808596 C440.060453,429.519929 443.406453,432.419263 446.589787,435.506596 C457.292787,445.936596 465.263787,459.805596 465.305787,475.074596 C465.334787,485.645596 462.247787,496.940596 454.717787,504.610596 C454.879787,505.165929 455.036453,505.722929 455.187787,506.281596 C465.209787,543.185596 454.488787,581.511596 435.963787,613.751596 C438.373787,623.677596 438.431787,644.198596 437.451787,654.558596 C436.455787,665.092596 432.443787,668.158596 424.859787,674.467596 C424.784787,678.124596 424.867787,681.800596 424.874787,685.459596 C429.364787,691.806596 434.684787,697.656596 439.788787,703.511596 C453.168787,718.860596 467.405787,735.399596 484.799787,746.281596 C501.260787,756.579596 520.040787,761.206596 539.170787,756.793596 C552.696787,753.673596 563.878787,746.372596 571.283787,734.450596 C592.388787,700.473596 568.150787,662.717596 554.736787,631.044596 C552.67812,626.160596 550.830453,621.197929 549.193787,616.156596 C547.55712,611.114596 546.137787,606.012596 544.935787,600.850596 C538.636787,572.911596 539.582787,543.853596 555.393787,519.122596 C567.537787,500.127596 587.269787,487.393596 609.140787,482.635596 C632.709787,477.508596 658.660787,482.747596 678.766787,495.925596 C697.346787,508.103596 711.764787,527.417596 716.214787,549.372596 C718.827787,562.265596 718.351787,580.241596 710.539787,591.456596 C708.689787,594.111596 706.117787,596.930596 702.715787,597.340596 C700.412787,597.617596 696.255787,596.513596 694.910787,594.569596 C692.200787,590.654596 691.896787,584.861596 691.139787,580.297596 C688.537787,564.598596 681.864787,550.741596 669.105787,540.861596 C657.126787,531.586596 643.475787,527.401596 628.351787,529.436596 C617.974787,530.832596 607.755787,536.081596 601.420787,544.549596 C579.065787,574.429596 605.862787,619.465596 617.915787,648.527596 C623.223787,661.324596 627.965787,674.686596 629.898787,688.451596 C633.813787,716.316596 628.678787,745.688596 611.295787,768.442596 C594.525787,790.393596 568.455787,804.903596 541.181787,808.585596 C506.382787,813.282596 473.597787,803.605596 446.042787,782.165596 C438.623787,776.393596 432.305787,769.222596 424.857787,763.631596 C424.700787,763.513596 424.541787,763.399596 424.383787,763.283596 C424.896787,771.896596 424.450787,780.674596 424.264787,789.298596 C424.250787,799.879596 426.272787,823.130596 418.981787,830.783596 C417.547787,832.289596 415.823787,833.601596 414.174787,834.866596 C419.818787,850.385596 427.138787,869.761596 419.709787,885.947596 C414.895787,896.434596 404.836787,902.999596 394.312787,906.832596 C370.676787,915.442596 341.262787,917.522596 318.043787,906.584596 C309.940787,902.767596 303.250787,897.205596 300.224787,888.471596 C295.491787,874.806596 300.040787,857.322596 306.279787,844.862596 C307.45912,842.557263 308.68112,840.274929 309.945787,838.015596 C304.281787,834.324596 300.220787,829.699596 298.805787,822.922596 L287.027787,766.368596 C284.462787,754.521596 281.309787,742.632596 279.347787,730.676596 C274.856787,730.134596 270.401787,729.678596 265.883787,729.419596 C264.519787,748.090263 263.45012,766.777596 262.674787,785.481596 C262.284787,795.217596 263.185787,811.876596 260.769787,820.857596 C260.051787,823.527596 258.039787,825.772596 255.994787,827.533596 C255.146787,828.263596 254.247787,828.935596 253.349787,829.602596 C258.168787,841.397596 262.126787,855.105596 256.869787,867.406596 C251.049787,881.025596 237.423787,888.288596 224.270787,893.419596 C199.479787,903.091596 169.545787,907.401596 143.040787,904.500596 C135.474787,903.542596 127.875787,902.110596 120.770787,899.258596 C111.450787,895.517596 102.311787,889.433596 98.4387867,879.760596 C95.5627867,872.577596 96.6547867,864.196596 99.5107867,857.182596 C100.566787,854.056596 102.541787,850.837596 104.504787,848.187596 C115.503787,833.341596 134.503787,826.033596 152.176787,823.343596 C148.198787,811.576596 146.589787,798.346596 144.898787,786.090596 C142.946787,772.691263 141.461787,759.240263 140.443787,745.737596 C139.42512,732.234929 138.875453,718.713263 138.794787,705.172596 C138.806787,693.899596 139.609787,682.770596 139.995787,671.522596 C138.455787,670.045596 136.811787,668.563596 135.450787,666.919596 C127.595787,657.430596 129.446787,644.546596 130.313787,633.152596 C119.169787,633.363596 108.537787,632.920596 98.0957867,628.585596 C85.2207867,623.240596 75.3347867,612.417596 70.1037867,599.588596 C65.9037867,589.289596 64.7517867,577.720596 65.6977867,566.705596 C68.5687867,533.282596 88.8047867,504.323596 113.081787,482.284596 C118.122453,477.756596 123.31512,473.409929 128.659787,469.244596 C133.687787,465.379596 142.111787,461.126596 145.709787,456.388596 C147.845787,453.575596 149.137787,449.328596 150.503787,446.045596 C144.261787,442.973596 137.879787,440.401596 131.811787,436.943596 C106.053787,422.261596 87.9097867,400.620596 76.0447867,373.695596 C67.8727867,375.073596 59.5827867,377.357596 51.6287867,379.708596 C45.3557867,381.563596 38.0277867,385.863596 31.3917867,385.601596 C29.5297867,385.527596 28.1687867,384.906596 26.9327867,383.515596 C26.5017867,381.825596 26.3827867,380.571596 27.2657867,378.990596 C31.4167867,371.550596 63.6867867,364.110596 72.4667867,361.886596 C69.4317867,351.715596 68.4587867,341.688596 67.2097867,331.229596 C59.0577867,330.450596 50.9587867,329.671596 42.7677867,329.405596 C37.1367867,329.222596 31.0207867,329.711596 25.4687867,328.839596 C24.0797867,328.620596 22.9757867,328.177596 21.9457867,327.188596 C20.8187867,326.105596 20.2147867,324.644596 20.2707867,323.074596 C20.2754534,322.886596 20.2901201,322.699596 20.3147867,322.513596 C20.3387867,322.326929 20.3724534,322.142263 20.4157867,321.959596 C20.4591201,321.776263 20.5117867,321.595929 20.5737867,321.418596 C20.6357867,321.241263 20.7064534,321.067263 20.7857867,320.896596 C20.8657867,320.726596 20.9541201,320.560929 21.0507867,320.399596 C21.1474534,320.238263 21.2521201,320.082596 21.3647867,319.932596 C21.4774534,319.781929 21.5977867,319.637596 21.7257867,319.499596 C21.8531201,319.361596 21.9874534,319.230596 22.1287867,319.106596 C27.7497867,314.243596 58.8367867,317.037596 66.7827867,318.231596 C66.7567867,288.992596 70.2907867,260.814596 80.3767867,233.281596 Z"/><path fill="#203240" d="M99.5107867 857.182596C99.6057867 857.359596 99.7277867 857.524596 99.7957867 857.713596 100.397787 859.390596 99.4897867 862.071596 99.3237867 863.848596 98.0777867 877.199596 101.318787 886.922596 113.301787 893.934596 119.463787 897.540596 126.016787 899.791596 132.963787 901.310596 135.355787 901.833596 139.845787 902.147596 141.928787 903.243596 142.201787 903.387596 142.844787 904.217596 143.040787 904.500596 135.474787 903.542596 127.875787 902.110596 120.770787 899.258596 111.450787 895.517596 102.311787 889.433596 98.4387867 879.760596 95.5627867 872.577596 96.6547867 864.196596 99.5107867 857.182596ZM424.264787 789.298596C423.966787 790.173596 424.084787 789.730596 423.890787 790.862596 423.703787 791.952596 423.982787 791.563596 423.307787 792.118596L423.243787 790.770596 422.734787 790.390596C424.058787 789.269596 421.489787 767.033596 424.383787 763.283596 424.896787 771.896596 424.450787 780.674596 424.264787 789.298596Z"/><path fill="#F2F2F4" d="M405.808787,133.552596 C405.424787,137.400596 404.509787,142.939596 407.188787,146.194596 C407.694787,146.810596 408.117787,146.862596 408.825787,147.141596 C410.686787,146.964596 412.167787,146.235596 413.342787,144.754596 C416.098787,141.282596 420.978787,123.573596 423.546787,117.516596 C439.732787,79.3405961 470.706787,41.1513961 512.856787,31.5275961 C532.125787,27.1280961 551.630787,29.8354961 568.433787,40.4508961 C586.855787,52.0886961 598.060787,72.2545961 602.671787,93.1125961 C609.839787,125.540596 601.944787,162.362596 584.023787,190.071596 C583.519787,190.865596 583.00612,191.652929 582.482787,192.433596 C581.959453,193.214929 581.426453,193.989596 580.883787,194.757596 C580.34112,195.524929 579.78912,196.285929 579.227787,197.040596 C578.665787,197.794596 578.094787,198.541596 577.514787,199.281596 C576.934787,200.021596 576.345787,200.754263 575.747787,201.479596 C575.149787,202.204929 574.542787,202.922596 573.926787,203.632596 C573.310787,204.343263 572.685787,205.045929 572.051787,205.740596 C571.418453,206.435263 570.776453,207.122263 570.125787,207.801596 C569.475787,208.480263 568.81712,209.150929 568.149787,209.813596 C567.482453,210.476263 566.80712,211.130263 566.123787,211.775596 C565.440453,212.421596 564.749453,213.058929 564.050787,213.687596 C563.351453,214.316263 562.644453,214.936263 561.929787,215.547596 C561.21512,216.158263 560.49312,216.760263 559.763787,217.353596 C559.034453,217.946929 558.297787,218.531263 557.553787,219.106596 C556.809787,219.681263 556.058787,220.246596 555.300787,220.802596 C554.542787,221.359263 553.77812,221.906263 553.006787,222.443596 C552.235453,222.980929 551.457453,223.508596 550.672787,224.026596 C549.88812,224.544596 549.09712,225.052929 548.299787,225.551596 C547.502453,226.050263 546.69912,226.538596 545.889787,227.016596 C545.080453,227.495263 544.265453,227.963929 543.444787,228.422596 C542.623453,228.880596 541.796787,229.328596 540.964787,229.766596 C540.132787,230.203929 539.295453,230.631263 538.452787,231.048596 C537.61012,231.465929 536.762453,231.872596 535.909787,232.268596 C535.05712,232.664596 534.199453,233.049929 533.336787,233.424596 C532.474787,233.799263 531.60812,234.163263 530.736787,234.516596 C529.865453,234.869929 528.989787,235.212263 528.109787,235.543596 C527.229787,235.874929 526.345787,236.195596 525.457787,236.505596 C524.570453,236.814929 523.67912,237.113263 522.783787,237.400596 C521.888453,237.687929 520.989787,237.964263 520.087787,238.229596 C519.185787,238.494929 518.280787,238.748929 517.372787,238.991596 C516.46412,239.234263 515.552787,239.465929 514.638787,239.686596 C513.724787,239.906596 512.80812,240.115263 511.888787,240.312596 C504.301787,241.895596 496.148787,243.129596 488.383787,243.065596 L485.360787,235.256596 C481.177787,225.642596 476.298787,216.475596 471.140787,207.356596 C474.589787,198.377596 486.887787,168.959596 484.389787,160.716596 C483.897787,160.311596 483.649787,159.864596 482.964787,159.935596 C478.438787,160.401596 467.183787,172.096596 463.728787,175.590596 C466.742787,151.819596 468.674787,135.314596 478.927787,112.889596 C488.896787,91.0855961 505.275787,67.8935961 528.679787,59.3385961 C545.562787,53.1670961 559.925787,57.0175961 575.600787,64.2635961 C571.383787,57.0025961 560.989787,51.3759961 553.085787,49.2982961 C539.110787,45.6245961 524.379787,49.1986961 512.163787,56.3895961 C483.855787,73.0515961 466.911787,105.257596 459.045787,136.224596 C456.790787,145.101596 449.762787,188.138596 453.441787,193.627596 C453.805787,194.170596 454.593787,194.300596 455.206787,194.271596 C459.441787,194.072596 464.622787,188.072596 468.094787,185.796596 C465.172787,194.026596 461.967787,202.250596 459.393787,210.591596 C482.805787,253.084596 490.088787,289.109596 482.441787,337.213596 C463.829787,333.708596 405.471787,331.030596 390.092787,342.103596 C389.261787,342.701596 388.779787,343.318596 388.293787,344.224596 C388.239787,345.635596 388.351787,345.809596 389.064787,347.044596 C391.176787,348.813596 395.347787,348.105596 397.979787,347.868596 C425.021787,345.439596 452.257787,343.333596 479.254787,347.942596 C473.445787,363.592596 466.926787,377.097596 456.929787,390.603596 C451.551787,388.130596 446.108787,385.618596 440.538787,383.606596 C429.909787,379.767596 392.343787,368.128596 382.780787,372.298596 C381.637787,372.797596 380.729787,373.444596 380.358787,374.666596 C380.058787,375.653596 380.118787,376.079596 380.335787,377.051596 C381.639787,378.655596 383.087787,379.161596 385.022787,379.801596 C391.333787,381.889596 398.145787,382.799596 404.606787,384.381596 C419.463787,388.018596 435.243787,392.775596 449.034787,399.433596 C437.160787,410.022596 425.306787,419.450596 411.596787,427.558596 C372.639787,450.595596 303.915787,472.179596 258.623787,469.421596 C254.582453,469.134929 250.568453,468.632596 246.581787,467.914596 C242.59512,467.196596 238.65812,466.266929 234.770787,465.125596 C238.038787,458.402596 239.161787,452.236596 236.589787,444.953596 C232.740787,434.057596 220.476787,424.449596 210.291787,419.792596 C200.719787,415.417596 189.238787,414.338596 179.286787,418.153596 C170.652787,421.463596 164.743787,428.257596 159.069787,435.257596 C128.930787,423.909596 104.259787,402.426596 91.0247867,372.791596 C90.8154534,372.318263 90.6124534,371.841929 90.4157867,371.362596 C94.5797867,370.435596 107.662787,369.868596 109.878787,366.609596 C110.392787,365.852596 110.229787,364.996596 110.263787,364.116596 C109.586787,362.487596 108.780787,361.689596 107.189787,360.995596 C101.608787,358.562596 92.2117867,358.895596 86.2417867,359.605596 C83.4527867,350.737596 82.0627867,341.931596 80.6297867,332.790596 C86.2397867,333.698596 103.586787,338.862596 107.845787,336.436596 C108.410787,335.327596 108.409787,335.145596 108.037787,333.935596 C106.713787,329.621596 101.857787,327.969596 98.1197867,326.526596 C92.2777867,324.272596 86.0677867,322.410596 79.9227867,321.183596 C80.1907867,311.638596 80.3997867,302.122596 81.4147867,292.621596 C85.4097867,255.226596 98.6217867,220.117596 118.279787,188.185596 C126.586787,174.691596 136.206787,161.057596 147.754787,150.139596 C163.837787,134.934596 198.627787,111.457596 221.333787,112.224596 C227.849787,112.444596 238.038787,119.035596 241.761787,118.157596 C242.546787,117.075596 243.145787,116.245596 243.016787,114.810596 C242.707787,111.355596 238.626787,108.384596 235.969787,106.607596 C232.180787,104.072596 228.138787,102.400596 223.868787,100.864596 C234.919787,96.2715961 246.802787,95.8985961 257.909787,100.408596 C261.870787,102.016596 269.254787,107.369596 273.268787,106.876596 C273.983787,106.111596 274.015787,106.044596 273.989787,105.023596 C273.875787,100.595596 269.818787,96.1505961 266.642787,93.3785961 C263.346787,90.5015961 251.253787,84.4325961 251.200787,84.3705961 C250.966787,84.1005961 250.988787,83.6885961 250.881787,83.3475961 C251.189787,82.0875961 251.255787,81.4515961 252.455787,80.7035961 C257.933787,77.2855961 274.752787,81.1945961 280.661787,83.4405961 C290.751787,87.2745961 298.628787,92.7955961 306.441787,100.081596 C336.384787,99.0405961 380.842787,117.089596 405.808787,133.552596 Z"/><path fill="#FAC3B7" d="M463.728787,175.590596 C466.742787,151.819596 468.674787,135.314596 478.927787,112.889596 C488.896787,91.0855961 505.275787,67.8935961 528.679787,59.3385961 C545.562787,53.1670961 559.925787,57.0175961 575.600787,64.2635961 L575.749787,64.4605961 L575.056787,64.8595961 C575.933787,66.4035961 577.515787,67.5475961 578.660787,68.9235961 C581.442787,72.2665961 584.153787,75.9795961 586.147787,79.8555961 C597.507787,101.936596 597.297787,132.116596 590.839787,155.671596 C583.193787,183.558596 564.080787,206.556596 539.067787,220.606596 C523.711787,229.232596 503.076787,234.909596 485.360787,235.256596 C481.177787,225.642596 476.298787,216.475596 471.140787,207.356596 C474.589787,198.377596 486.887787,168.959596 484.389787,160.716596 C483.897787,160.311596 483.649787,159.864596 482.964787,159.935596 C478.438787,160.401596 467.183787,172.096596 463.728787,175.590596 Z"/><path fill="#313945" d="M329.180787,259.194596 C334.852787,258.931596 339.668787,259.196596 344.697787,262.239596 C352.437787,266.922596 357.417787,275.594596 359.556787,284.200596 C362.313787,295.288596 361.088787,308.100596 355.007787,317.913596 C350.310787,325.491596 343.984787,329.826596 335.343787,331.871596 C329.185787,332.704596 323.083787,332.052596 317.594787,328.946596 C311.083787,325.261596 306.737787,318.874596 304.716787,311.777596 C301.303787,299.789596 303.000787,285.874596 309.178787,275.067596 C313.859787,266.881596 320.005787,261.655596 329.180787,259.194596 Z"/><path fill="#FEF9E4" d="M339.227787,280.188596 C340.349787,280.15758 341.547787,280.092596 342.648787,280.345596 C344.593787,280.793596 346.360787,282.163596 347.420787,283.834596 C348.807787,286.020596 349.088787,288.763596 348.396787,291.235596 C347.508787,294.409596 345.621787,296.140596 342.815787,297.682596 C342.115787,297.790596 341.244787,297.973596 340.542787,297.889596 C338.437787,297.637596 336.526787,295.968596 335.432787,294.230596 C333.866787,291.742596 333.575787,288.448596 334.320787,285.640596 C335.071787,282.814596 336.769787,281.537596 339.227787,280.188596 Z"/><path fill="#313945" d="M216.60309,336.887428 C224.53109,336.995428 234.500787,336.562596 241.523787,340.488596 C245.476787,342.697596 248.880787,346.030596 250.060787,350.517596 C251.272787,355.130596 250.040787,360.245596 247.529787,364.210596 C242.347787,372.392596 232.210787,377.382596 223.067787,379.525596 C223.441787,386.413596 224.642384,394.634202 225.447384,401.487202 C240.629384,400.593202 261.150509,398.643696 273.483273,392.862202 C276.463254,390.210102 276.397824,390.17519 276.812619,389.623432 C282.033228,383.117278 284.965425,377.068849 290.518673,381.968159 C290.722885,382.148323 291.365719,382.755756 291.667294,383.995502 C292.104123,386.423603 291.790341,391.015095 279.037716,402.345112 C278.333493,402.904377 278.328427,402.892109 276.17236,404.019123 C271.486203,405.434894 271.504452,405.450947 263.394162,407.745502 C254.358029,410.318745 249.992795,411.068256 238.117795,412.635639 C229.732541,413.451557 229.759884,413.421284 222.747189,413.592182 C216.852658,412.976948 216.699337,413.065815 212.751584,411.616596 C208.343869,409.770893 208.472287,409.994526 205.250119,406.728657 C203.281125,404.700092 202.986935,401.635639 203.916552,400.629073 C206.67316,397.644287 215.012787,403.723596 217.967787,402.029596 C216.356787,394.741596 215.775787,387.174596 215.705787,379.726596 C210.431787,378.108596 205.243787,375.632596 200.955787,372.128596 C195.900787,367.996596 191.558787,361.641596 191.026787,355.019596 C190.680787,350.718596 192.159787,346.684596 195.060787,343.507596 C200.926787,337.083596 208.38509,337.253428 216.60309,336.887428 Z"/><path fill="#FAC3B7" d="M216.819787,344.812596 C221.513787,344.280596 226.810787,344.915596 231.361787,346.131596 C234.528787,346.977596 238.512787,348.432596 240.127787,351.545596 C241.018787,353.262596 240.885787,355.245596 240.185787,357.003596 C237.942787,362.638596 231.023787,366.571596 225.677787,368.869596 C225.12912,369.042929 224.57512,369.196929 224.015787,369.331596 C219.169787,370.464596 214.235787,369.280596 210.091787,366.621596 C206.286787,364.180596 201.902787,359.784596 201.065787,355.153596 C200.729787,353.300596 201.066787,351.384596 202.264787,349.895596 C205.498787,345.878596 212.046787,345.348596 216.819787,344.812596 Z"/><path fill="#313945" d="M157.705787,257.173596 C162.322787,256.974596 166.362787,257.228596 170.567787,259.439596 C177.485787,263.078596 181.659787,270.264596 183.707787,277.574596 C186.850787,288.790596 185.845787,302.130596 179.948787,312.308596 C175.756787,319.541596 169.723787,323.801596 161.657787,325.929596 C156.560787,326.434596 151.765787,325.857596 147.255787,323.233596 C140.760787,319.454596 137.104787,312.568596 135.260787,305.513596 C132.283787,294.128596 133.844787,280.801596 139.847787,270.613596 C143.955787,263.640596 149.861787,259.219596 157.705787,257.173596 Z"/><path fill="#FEF9E4" d="M167.727787,276.627596 C168.703787,276.664596 169.724787,276.667596 170.682787,276.870596 C172.321787,277.216596 173.904787,278.593596 174.798787,279.963596 C176.138787,282.018596 176.345787,284.515596 175.787787,286.865596 C175.075787,289.868596 173.480787,291.403596 170.968787,293.031596 C170.278787,293.021596 169.693787,292.992596 169.016787,292.877596 C167.026787,292.538596 165.425787,291.567596 164.289787,289.878596 C162.776787,287.628596 162.486787,284.929596 163.125787,282.328596 C163.813787,279.527596 165.327787,278.067596 167.727787,276.627596 Z"/><path fill="#313945" d="M325.041787 192.785596C330.712787 192.241596 336.880787 193.174596 342.391787 194.515596 355.256787 197.645596 368.861787 204.904596 375.768787 216.685596 376.851787 218.532596 377.942787 220.890596 377.116787 223.044596 376.728787 224.055596 375.964787 224.558596 375.033787 224.960596 372.160787 223.559596 369.619787 220.641596 367.291787 218.445596 356.121787 209.347596 340.843787 203.446596 326.273787 204.673596 322.638787 204.979596 319.167787 206.408596 315.529787 206.663596 314.284787 206.750596 313.304787 206.561596 312.285787 205.799596 311.130787 204.936596 310.644787 203.776596 310.461787 202.383596 310.223787 200.571596 311.103787 198.468596 312.274787 197.126596 315.100787 193.886596 320.995787 193.227596 325.041787 192.785596ZM161.546787 192.684596C164.695787 192.443596 168.015787 192.361596 171.155787 192.715596 175.916787 193.254596 183.823787 195.177596 186.631787 199.374596 187.521787 200.706596 187.830787 202.070596 187.416787 203.641596 186.866787 205.729596 185.837787 206.817596 183.998787 207.831596 181.548787 208.046596 178.565787 206.232596 176.251787 205.421596 167.223787 202.259596 157.717787 204.938596 149.488787 208.927596 144.348787 211.949596 140.513787 216.071596 135.665787 219.313596 134.437787 220.134596 133.928787 220.415596 132.484787 220.097596 131.471787 219.242596 130.789787 218.492596 130.507787 217.142596 130.040787 214.911596 131.342787 212.712596 132.577787 210.975596 139.287787 201.533596 150.127787 194.598596 161.546787 192.684596Z"/><path fill="#7A7BBE" d="M424.414787,434.970467 C424.589787,434.976596 424.768787,434.958596 424.941787,434.987596 C429.803787,435.792596 440.242787,447.265596 443.264787,451.447596 C451.350787,462.634596 452.160787,474.341596 450.083787,487.614596 C446.548787,482.055596 442.779787,476.432596 437.636787,472.216596 C430.330787,466.226596 422.718787,465.485596 413.598787,466.409596 C405.501787,467.229596 397.705787,469.485596 390.055787,472.188596 C369.208787,479.554596 349.116787,489.422596 328.786787,498.096596 C316.522787,503.329596 303.583787,507.442596 291.536787,513.046596 C289.524787,513.982596 287.378787,515.035596 285.959787,516.777596 C286.041787,517.992596 286.121787,518.009596 286.936787,518.931596 C298.275787,522.345596 376.719787,487.661596 393.516787,482.018596 C401.895787,479.202596 416.967787,473.695596 425.366787,478.148596 C432.487787,481.923596 438.007787,492.256596 440.321787,499.716596 C450.624787,532.928596 445.485787,568.561596 429.209787,599.025596 C417.921787,620.154596 399.910787,638.695596 376.472787,645.604596 C371.344787,647.068596 366.158453,648.281596 360.913787,649.243596 C355.668453,650.206263 350.38912,650.913596 345.075787,651.365596 C326.207787,653.106596 282.625787,652.920596 266.447787,643.705596 C260.577787,640.362596 258.724787,633.544596 256.940787,627.493596 C254.531787,619.537596 253.981787,610.793596 255.033787,602.564596 C256.879787,588.123596 263.340787,576.113596 274.839787,567.173596 C280.846787,566.727596 286.955787,566.784596 292.981787,566.563596 C311.244787,565.891596 331.047787,564.747596 349.101787,567.883596 C354.555787,568.830596 359.910787,570.233596 364.976787,572.495596 C367.192787,573.485596 370.400787,575.920596 372.813787,575.983596 C374.139787,576.017596 374.448787,575.554596 375.255787,574.671596 C375.491787,573.063596 374.804787,571.853596 373.896787,570.587596 C366.871787,560.792596 354.855787,559.219596 343.817787,557.558596 C348.722787,548.113596 354.973787,539.525596 360.429787,530.420596 C362.663787,526.693596 368.557787,517.715596 367.532787,513.598596 L366.450787,513.694596 C351.725787,523.610596 341.713787,540.779596 333.156787,555.992596 C312.204787,555.195596 291.317787,556.326596 270.362787,556.217596 C263.522787,556.181596 256.510787,554.090596 249.705787,554.838596 C245.919787,555.255596 242.650787,557.163596 239.409787,559.009596 C231.328787,554.079596 222.402787,550.600596 214.220787,545.785596 C217.558787,543.850596 220.640787,541.927596 223.385787,539.169596 C231.062787,531.455596 232.841787,522.072596 232.817787,511.585596 C235.307787,513.984596 238.286787,516.402596 241.886787,516.583596 C242.427787,516.108596 242.519787,516.255596 242.527787,515.651596 C242.582787,511.343596 236.346787,506.452596 233.464787,503.618596 C236.188787,498.712596 237.616787,494.546596 238.051787,488.954596 C245.790787,497.531596 255.264787,505.898596 265.869787,510.678596 C276.713787,506.367596 294.065787,492.826596 304.304787,485.743596 C308.175787,483.065596 311.982787,480.062596 316.244787,478.034596 C326.489787,473.160596 341.269787,470.882596 352.457787,467.523596 C378.202787,459.795596 401.489787,448.947596 424.414787,434.970467 Z"/><path fill="#477599" d="M152.200787,677.051596 C216.277787,700.260596 324.220787,702.411596 390.502787,686.664596 C398.017787,684.878596 405.253787,682.402596 412.546787,679.891596 C413.196787,691.999596 412.837787,704.297596 412.819787,716.425596 C412.777787,745.854596 411.977787,775.235596 411.617787,804.655596 C382.221787,817.883596 342.228787,817.554596 311.827787,808.371596 C311.038787,808.095596 310.104787,807.844596 309.377787,807.438596 C309.243787,807.363596 308.300787,806.758596 308.132787,806.525596 C306.612787,804.427596 305.291787,795.401596 304.641787,792.511596 L294.540787,747.643596 C292.684787,739.415596 291.310787,730.319596 288.311787,722.435596 C276.859787,719.944596 264.209787,719.628596 252.394787,717.362596 C246.541787,716.239596 235.799787,712.274596 230.480787,712.359596 C229.208787,712.380596 228.823787,712.663596 227.944787,713.532596 C227.974787,714.507596 227.885787,714.749596 228.400787,715.641596 C231.750787,721.438596 247.680787,725.808596 253.801787,727.519596 C253.600787,738.453596 252.253787,749.521596 251.706787,760.459596 C251.020787,774.152596 251.117787,788.023596 249.891787,801.669596 C247.402787,802.795596 244.745787,803.625596 242.128787,804.402596 C216.280787,812.081596 182.516787,811.420596 158.481787,798.460596 C156.688787,790.067596 155.917787,781.189596 154.940787,772.654596 C151.646787,743.897596 148.584787,705.449596 152.200787,677.051596 Z"/><path fill="#FAC3B7" d="M86.4437867,220.109596 L85.8987867,219.980596 C79.9317867,218.618596 74.3087867,216.280596 68.9207867,213.391596 C44.2867867,200.186596 27.4827867,175.235596 19.6117867,148.918596 C10.7127867,119.166596 13.0277867,85.6245961 27.9387867,58.1455961 C38.7617867,38.1997961 55.2587867,23.0615961 77.2317867,16.6346961 C95.8237867,11.1965961 115.651787,14.3160961 132.484787,23.5643961 C154.879787,35.8690961 171.350787,57.7095961 180.959787,81.0315961 C184.559787,89.7695961 187.140787,98.8305961 189.813787,107.880596 C175.306787,113.461596 160.667787,123.387596 148.884787,133.506596 C148.516787,109.972596 142.940787,83.5625961 130.827787,63.3685961 C122.176787,48.9468961 109.694787,36.2998961 92.8567867,32.2552961 C81.3707867,29.4962961 70.0557867,32.3438961 60.1157867,38.3581961 L61.0457867,38.3783961 C65.4007867,38.4373961 69.7537867,37.4904961 74.1487867,37.5455961 C87.5147867,37.7129961 100.276787,44.3582961 109.583787,53.7009961 C132.193787,76.3995961 137.156787,112.180596 138.406787,142.824596 C117.029787,164.448596 103.438787,185.821596 89.7557867,212.809596 C88.7097867,215.279596 87.6527867,217.713596 86.4437867,220.109596 Z"/><path fill="#F2F2F4" d="M86.4437867,220.109596 L85.8987867,219.980596 C79.9317867,218.618596 74.3087867,216.280596 68.9207867,213.391596 C44.2867867,200.186596 27.4827867,175.235596 19.6117867,148.918596 C10.7127867,119.166596 13.0277867,85.6245961 27.9387867,58.1455961 C38.7617867,38.1997961 55.2587867,23.0615961 77.2317867,16.6346961 C95.8237867,11.1965961 115.651787,14.3160961 132.484787,23.5643961 C154.879787,35.8690961 171.350787,57.7095961 180.959787,81.0315961 C184.559787,89.7695961 187.140787,98.8305961 189.813787,107.880596 C175.306787,113.461596 160.667787,123.387596 148.884787,133.506596 C148.516787,109.972596 142.940787,83.5625961 130.827787,63.3685961 C122.176787,48.9468961 109.694787,36.2998961 92.8567867,32.2552961 C81.3707867,29.4962961 70.0557867,32.3438961 60.1157867,38.3581961 C43.2277867,47.7830961 33.2677867,64.4815961 28.1567867,82.7175961 C20.0647867,111.594596 22.7857867,144.731596 37.6297867,171.029596 C48.1397867,189.649596 65.2717867,206.101596 86.2907867,211.897596 C87.4427867,212.213596 88.5977867,212.517596 89.7557867,212.809596 C88.7097867,215.279596 87.6527867,217.713596 86.4437867,220.109596 Z"/><path fill="#FAC3B7" d="M627.998787,493.322596 C636.608787,493.149596 645.705787,494.775596 653.834787,497.574596 C654.457453,497.791263 655.07712,498.015596 655.693787,498.247596 C656.31112,498.479596 656.92512,498.719263 657.535787,498.966596 C658.14712,499.213263 658.75512,499.467596 659.359787,499.729596 C659.96512,499.991596 660.566787,500.261263 661.164787,500.538596 C661.762787,500.815263 662.357453,501.099263 662.948787,501.390596 C663.54012,501.681929 664.127787,501.980596 664.711787,502.286596 C665.295787,502.592596 665.875787,502.905596 666.451787,503.225596 C667.027787,503.545596 667.60012,503.872596 668.168787,504.206596 C668.736787,504.540596 669.300787,504.881596 669.860787,505.229596 C670.42012,505.577596 670.975453,505.932263 671.526787,506.293596 C672.07812,506.655596 672.624787,507.023929 673.166787,507.398596 C673.708787,507.773929 674.24612,508.155596 674.778787,508.543596 C675.311453,508.932263 675.83912,509.327263 676.361787,509.728596 C676.88512,510.129263 677.40312,510.536596 677.915787,510.950596 C678.42912,511.364596 678.93712,511.784929 679.439787,512.211596 C679.942453,512.637596 680.439787,513.069929 680.931787,513.508596 C681.423787,513.947263 681.910453,514.391929 682.391787,514.842596 C682.872453,515.293263 683.347787,515.749596 683.817787,516.211596 C684.287787,516.674263 684.75212,517.142263 685.210787,517.615596 C685.668787,518.089596 686.12112,518.568929 686.567787,519.053596 C687.014453,519.538263 687.45512,520.028263 687.889787,520.523596 C688.324453,521.019596 688.75312,521.520596 689.175787,522.026596 C689.597787,522.532596 690.013787,523.043596 690.423787,523.559596 C690.83312,524.076263 691.236453,524.597596 691.633787,525.123596 C692.030453,525.650263 692.420787,526.181263 692.804787,526.716596 C693.188787,527.252596 693.56612,527.793263 693.936787,528.338596 C694.307453,528.883263 694.671453,529.432596 695.028787,529.986596 C695.385453,530.540596 695.735453,531.098929 696.078787,531.661596 C696.42212,532.224263 696.758787,532.791263 697.088787,533.362596 C697.41812,533.933263 697.740453,534.507929 698.055787,535.086596 C698.37112,535.665263 698.679453,536.247929 698.980787,536.834596 C699.281453,537.421263 699.57512,538.011263 699.861787,538.604596 C705.522787,550.551596 708.852787,568.004596 703.932787,580.797596 C703.526787,581.853596 703.536787,582.129596 702.458787,582.577596 C701.269787,579.465596 701.789787,575.966596 701.183787,572.706596 C699.295787,562.554596 694.800787,552.526596 688.603787,544.284596 C677.765787,529.867596 661.679787,519.841596 643.686787,517.497596 C628.586787,515.530596 612.990787,518.482596 600.804787,527.900596 C599.964787,528.551263 599.145453,529.227263 598.346787,529.928596 C597.548787,530.630596 596.77312,531.356263 596.019787,532.105596 C595.266453,532.855596 594.53712,533.627929 593.831787,534.422596 C593.12712,535.217929 592.44712,536.033929 591.791787,536.870596 C591.13712,537.707929 590.50912,538.564596 589.907787,539.440596 C589.305787,540.316596 588.731787,541.210263 588.185787,542.121596 C587.639787,543.033596 587.122453,543.961263 586.633787,544.904596 C586.14512,545.848596 585.68612,546.806596 585.256787,547.778596 C567.515787,587.215596 601.927787,634.798596 613.408787,671.890596 C618.136787,687.164596 620.208787,703.341596 618.164787,719.265596 C618.079453,719.980263 617.98512,720.693929 617.881787,721.406596 C617.77912,722.119263 617.66712,722.830263 617.545787,723.539596 C617.42512,724.249596 617.295453,724.957929 617.156787,725.664596 C617.018787,726.370596 616.871453,727.074929 616.714787,727.777596 C616.558787,728.480929 616.39412,729.181929 616.220787,729.880596 C616.046787,730.579263 615.864453,731.275596 615.673787,731.969596 C615.482453,732.663596 615.282787,733.355263 615.074787,734.044596 C614.866787,734.733263 614.649787,735.419596 614.423787,736.103596 C614.198453,736.787596 613.964787,737.468263 613.722787,738.145596 C613.48012,738.823596 613.22912,739.498263 612.969787,740.169596 C612.710453,740.841596 612.442787,741.509929 612.166787,742.174596 C611.890787,742.839929 611.606787,743.501263 611.314787,744.158596 C611.02212,744.816596 610.721453,745.470929 610.412787,746.121596 C610.10412,746.771596 609.78712,747.417929 609.461787,748.060596 C609.13712,748.702596 608.80412,749.340929 608.462787,749.975596 C608.12212,750.609596 607.773453,751.239263 607.416787,751.864596 C607.06012,752.489929 606.695787,753.110596 606.323787,753.726596 C605.951787,754.343263 605.57212,754.954929 605.184787,755.561596 C604.797453,756.168263 604.402453,756.770263 603.999787,757.367596 C603.597787,757.964263 603.18812,758.555929 602.770787,759.142596 C602.353453,759.729263 601.92912,760.310596 601.497787,760.886596 C601.065787,761.462596 600.626787,762.033263 600.180787,762.598596 C599.734787,763.163929 599.281787,763.723596 598.821787,764.277596 C598.361787,764.831596 597.89512,765.379596 597.421787,765.921596 C596.948453,766.463596 596.46812,766.999596 595.980787,767.529596 C595.493453,768.060263 594.999787,768.584596 594.499787,769.102596 C593.999787,769.619929 593.493453,770.131263 592.980787,770.636596 C592.46812,771.141929 591.94912,771.640596 591.423787,772.132596 C590.898453,772.625263 590.36712,773.110929 589.829787,773.589596 C589.291787,774.068929 588.74812,774.541263 588.198787,775.006596 C587.65012,775.471929 587.095453,775.930596 586.534787,776.382596 C585.97412,776.833929 585.407787,777.278263 584.835787,777.715596 C561.737787,795.477596 533.987787,799.918596 505.668787,796.143596 C472.756787,789.520596 444.312787,770.001596 424.065787,743.419596 C424.874787,730.283596 424.820787,716.860596 424.660787,703.697596 C434.811787,717.543596 447.382787,731.157596 460.197787,742.533596 C480.165787,760.259596 502.935787,772.157596 530.324787,770.376596 C548.378787,769.202596 564.975787,762.295596 576.940787,748.464596 C594.471787,728.200596 594.227787,698.014596 586.464787,673.716596 C583.016787,662.923596 577.999787,652.593596 573.301787,642.303596 C564.067787,622.078596 555.448787,600.879596 553.957787,578.430596 C552.479787,556.172596 557.864787,534.655596 572.908787,517.722596 C587.746787,501.023596 606.276787,494.667596 627.998787,493.322596 Z"/><path fill="#7A7BBE" d="M156.200787,624.537596 C159.556787,624.761596 164.105787,628.742596 167.346787,630.168596 C181.499787,636.390596 205.921787,640.628596 221.249787,637.002596 C222.883787,639.181596 224.612787,641.315596 226.643787,643.139596 C237.760787,653.114596 245.245787,649.827596 258.093787,652.560596 C263.828787,653.780596 269.108787,657.246596 274.881787,658.722596 C294.192787,663.657596 316.258787,664.362596 336.091787,663.409596 C372.220787,661.675596 399.489787,654.641596 424.759787,626.787596 C424.830787,635.141596 426.458787,652.274596 422.606787,659.541596 C420.788787,661.411596 418.861787,663.051596 416.685787,664.484596 C406.107787,671.448596 392.384787,674.195596 380.116787,676.694596 C322.525787,688.425596 245.956787,687.512596 188.289787,675.927596 C176.460787,673.550596 151.630787,668.641596 144.929787,657.878596 C140.245787,650.356596 141.964787,638.584596 143.983787,630.435596 C148.133787,628.630596 152.347787,626.932596 156.200787,624.537596 Z"/><path fill="#F2F2F4" d="M205.771787,537.088596 C206.391787,534.180596 207.271787,530.815596 206.519787,527.878596 C205.834787,525.202596 204.982787,523.473596 202.573787,522.050596 C201.477787,521.963596 200.751787,521.747596 199.798787,522.444596 C194.819787,526.085596 196.826787,537.918596 195.107787,543.663596 C193.898787,547.705596 191.599787,550.732596 187.820787,552.670596 C182.684787,555.304596 176.467787,555.937596 170.982787,554.033596 C163.447787,551.418596 157.560787,545.114596 154.045787,538.136596 C143.813787,517.829596 147.093787,489.310596 154.141787,468.543596 C158.562787,455.517596 168.542787,435.848596 181.785787,429.766596 C188.341787,426.755596 195.612787,427.322596 202.260787,429.636596 C210.714787,432.578596 222.434787,439.695596 226.263787,448.110596 C227.840787,451.575596 227.710787,453.954596 226.439787,457.468596 L226.210787,458.086596 C225.517787,459.415596 225.396787,460.180596 224.021787,460.844596 C222.377787,460.458596 221.136787,459.539596 219.747787,458.627596 C214.393787,455.246596 202.166787,454.126596 195.885787,454.270596 C189.401787,454.418596 183.234787,455.680596 178.680787,460.720596 C177.611787,461.903596 177.170787,462.825596 177.235787,464.408596 C180.273787,468.228596 193.101787,464.973596 197.874787,465.084596 C201.440787,465.168596 205.194787,465.788596 208.615787,466.807596 C215.930787,468.985596 223.194787,473.698596 226.716787,480.658596 C229.624787,486.405596 229.216787,491.985596 227.272787,497.909596 C225.550787,496.252596 223.797787,494.637596 221.840787,493.255596 C213.927787,487.663596 203.945787,486.093596 194.537787,487.948596 C191.475787,488.552596 187.982787,489.818596 186.303787,492.682596 C185.837787,493.476596 186.019787,493.484596 186.209787,494.312596 C188.760787,496.140596 204.102787,495.908596 210.815787,498.669596 C215.497787,500.595596 219.472787,503.799596 221.366787,508.602596 C223.427787,513.829596 223.125787,521.032596 220.654787,526.077596 C217.723787,532.059596 211.815787,535.133596 205.771787,537.088596 Z"/><path fill="#7A7BBE" d="M142.097787,474.970596 C140.433787,484.047596 139.139787,492.920596 138.461787,502.126596 C128.441787,507.519596 126.335787,512.081596 118.305787,518.336596 C113.931787,521.742596 108.761787,523.869596 104.453787,527.486596 C99.7377867,531.446596 94.3427867,537.826596 94.0637867,544.225596 C94.0137867,545.371596 94.2437867,545.450596 94.9947867,546.229596 C95.4847867,546.267596 96.7957867,546.531596 97.2017867,546.401596 C99.9247867,545.526596 105.974787,537.975596 108.942787,535.704596 C112.237787,533.182596 115.524787,531.632596 119.382787,530.144596 C118.870787,537.442596 118.901787,543.962596 120.890787,551.060596 C123.996787,562.144596 131.438787,573.215596 141.619787,578.942596 C151.506787,585.637596 166.387787,586.877596 177.854787,584.707596 C178.222787,584.637596 178.587787,584.549596 178.951787,584.457596 C176.841787,591.160596 161.275787,606.326596 155.559787,610.397596 C144.123787,618.542596 129.943787,622.859596 115.943787,620.386596 C104.143787,618.302596 92.4927867,612.704596 85.5957867,602.621596 C77.4337867,590.688596 75.3867867,574.220596 78.0527867,560.233596 C84.5437867,526.178596 114.008787,493.938596 142.097787,474.970596 Z"/><path fill="#F2F2F4" d="M164.040787 833.320596C169.771787 832.583596 175.908787 836.118596 181.360787 837.500596 201.504787 842.606596 223.786787 840.953596 243.310787 834.325596 245.022787 840.656596 247.093787 847.293596 247.04371 853.917596 246.994787 860.006596 244.668787 864.724596 240.294787 868.926596 221.416787 887.065596 180.365787 893.650596 155.045787 892.976596 154.90512 892.289929 154.78412 891.599596 154.682787 890.905596 152.578787 876.054596 161.025787 872.259596 168.123787 861.739596 168.834787 860.685596 169.246787 860.203596 168.995787 858.900596 167.734787 858.236596 167.610787 858.278596 166.182787 858.458596 161.424787 860.212596 157.269787 862.747596 153.852787 866.522596 146.878787 874.226596 145.484787 882.755596 145.979787 892.867596 139.158787 891.916596 132.594787 890.646596 125.991787 888.669596 124.297787 876.208596 126.084787 869.849596 133.872787 859.720596 135.675787 857.375596 138.021787 854.857596 139.211787 852.152596 139.699787 851.043596 139.869787 850.451596 139.471787 849.275596 139.011787 849.148596 138.791787 849.053596 138.269787 849.096596 134.425787 849.407596 128.075787 854.969596 125.422787 857.784596 118.304787 865.337596 116.743787 873.686596 117.001787 883.759596 113.032787 880.680596 109.781787 877.197596 109.199787 871.997596 108.491787 865.664596 110.895787 859.635596 114.826787 854.773596 126.792787 839.977596 145.984787 835.164596 164.040787 833.320596ZM403.253787 839.143596C406.686787 842.709596 408.771787 854.936596 409.581787 859.859596 410.978787 868.357596 411.142787 877.511596 405.711787 884.740596 398.792787 893.949596 385.039787 897.955596 374.148787 899.331596 371.259787 889.460596 371.523787 882.246596 373.863787 872.329596 374.601787 869.205596 375.573787 866.056596 375.775787 862.845596 375.002787 862.239596 374.887787 862.235596 373.959787 862.120596 371.019787 863.193596 369.097787 866.329596 367.646787 868.976596 361.927787 879.406596 362.436787 889.760596 365.726787 900.838596 355.618787 901.541596 346.182787 901.312596 336.160787 899.744596 333.525787 893.567596 333.604787 888.081596 333.878787 881.500596L334.091787 880.155596C334.685787 876.242596 335.851787 872.765596 336.951787 868.981596 337.641787 866.606596 338.919787 863.306596 337.647787 860.998596L336.634787 860.788596C334.528787 861.908596 332.804787 863.795596 331.336787 865.658596 324.148787 874.783596 324.390787 886.768596 325.791787 897.663596 324.877787 897.280263 323.976453 896.869929 323.087787 896.432596 317.758787 893.776596 313.517787 890.129596 311.651787 884.282596 307.444787 871.097596 314.641787 853.206596 320.851787 841.773596 346.934787 851.239596 377.763787 849.568596 403.253787 839.143596ZM206.383787 553.431596C213.984787 558.281596 222.659787 561.531596 231.044787 564.767596 219.170787 585.195596 215.969787 602.241596 218.714787 625.748596 210.912787 626.759596 202.440787 626.309596 194.663787 625.418596 185.037787 624.236596 175.388787 621.269596 166.970787 616.429596 183.185787 600.905596 200.922787 575.453596 206.383787 553.431596Z"/><path fill="#7A7BBE" d="M251.675787 563.095596C255.688787 563.169596 260.480787 565.000596 264.306787 566.217596 259.464787 571.531596 255.300787 577.344596 252.382787 583.937596 244.265787 602.275596 245.637787 622.411596 252.757787 640.788596 250.494787 640.649596 248.233787 640.314596 245.982787 640.040596 243.570787 639.573596 241.070787 638.895596 238.783787 637.985596 233.940787 636.058596 230.790787 632.895596 228.821787 628.071596 223.462787 614.944596 225.798787 596.641596 231.109787 583.865596 235.377787 573.595596 241.333787 567.305596 251.675787 563.095596ZM137.217787 516.549596C138.985787 518.178596 138.939787 527.634596 139.850787 530.536596 143.763787 543.009596 150.364787 555.352596 162.386787 561.612596 172.577787 566.918596 182.733787 565.437596 193.275787 562.165596 190.592787 567.252596 188.245787 571.675596 183.585787 575.255596 176.840787 578.186596 168.602787 578.366596 161.404787 577.381596 150.958787 575.951596 141.054787 570.626596 134.695787 562.137596 128.332787 553.642596 125.298787 542.570596 126.972787 532.028596 128.091787 524.989596 131.632787 520.626596 137.217787 516.549596Z"/><path fill="#477599" d="M410.380787 813.536596 410.899787 813.668596C411.012787 813.970596 411.180787 814.257596 411.237787 814.574596 411.686787 817.056596 410.163787 821.298596 408.937787 823.415596 406.896787 826.941596 397.127787 830.220596 393.170787 831.215596 390.940787 831.776596 388.809787 832.568596 386.601787 833.195596 366.086787 839.028596 332.727787 837.275596 314.049787 827.025596 310.703787 824.030596 310.818787 819.712596 310.578787 815.563596 338.365787 825.127596 383.208787 826.118596 410.380787 813.536596ZM160.305787 807.941596C189.546787 820.044596 220.333787 819.871596 249.957787 809.595596 249.549787 813.098596 249.304787 816.797596 248.168787 820.149596 243.826787 823.267596 238.381787 824.963596 233.241787 826.240596 232.04712 826.539263 230.847787 826.816596 229.643787 827.072596 228.43912 827.328596 227.230453 827.563263 226.017787 827.776596 224.80512 827.989263 223.58912 828.180596 222.369787 828.350596 221.150453 828.519929 219.928453 828.667596 218.703787 828.793596 217.47912 828.920263 216.252453 829.024596 215.023787 829.106596 213.79512 829.189263 212.565453 829.249929 211.334787 829.288596 210.10412 829.327263 208.873453 829.343929 207.642787 829.338596 206.411453 829.333263 205.180453 829.306263 203.949787 829.257596 202.719787 829.208263 201.490787 829.137263 200.262787 829.044596 199.035453 828.951929 197.809787 828.837263 196.585787 828.700596 195.362453 828.563929 194.141787 828.405596 192.923787 828.225596 191.705787 828.045596 190.491453 827.844263 189.280787 827.621596 188.07012 827.398263 186.863453 827.153263 185.660787 826.886596 184.458787 826.620596 183.261787 826.333263 182.069787 826.024596 180.878453 825.715929 179.692453 825.385929 178.511787 825.034596 177.331787 824.683263 176.158453 824.311263 174.991787 823.918596 171.386787 822.679596 167.633787 821.469596 164.356787 819.503596 162.439787 815.917596 161.409787 811.828596 160.305787 807.941596Z"/><path fill="#F2F2F4" d="M296.903787,477.324596 L298.240787,477.329596 C297.036787,478.778596 269.391787,497.154596 265.654787,499.239596 C261.187787,496.320596 257.297787,492.895596 253.483787,489.179596 C249.641787,485.415596 245.878787,481.631596 242.247787,477.661596 C260.286787,481.790596 278.807787,479.929596 296.903787,477.324596 Z"/></g></svg>