<svg xmlns="http://www.w3.org/2000/svg" width="783" height="644" viewBox="0 0 783 644">
  <g fill="none" fill-rule="evenodd">
    <path fill="#ffffff" fill-opacity=".04" d="M385 644C172.37 644 0 628.105 0 608.5S172.37 573 385 573s385 15.895 385 35.5S597.63 644 385 644Z"/>
    <path fill="#ececee" d="M164 328c-28.625 18.962-25.124 9.018-59.006-2.753-9.01-3.13-12.85 11.077-3.924 14.18C139.54 352.789 146.5 354 176 334.5c10.341-6.836 1.49-15.44-12-6.5Z"/>
    <path fill="#ececee" d="M90.367 297.611c-.74-.565-.326-.722.927-.538 1.244.172 3.365.74 5.643 2.113 2.29 1.325 4.736 3.441 6.56 5.995 1.828 2.547 3.042 5.409 3.676 7.826 1.25 4.874.924 9.36.074 12.405-.88 3.175-2.168 4.645-3.264 4.586-2.337-.334-2.743-7.465-4.692-14.946-.965-3.743-1.75-6.652-2.929-9.572-1.197-2.865-2.97-5.69-5.995-7.869m-32.684 17.057c-1.108.024-.826-.364.543-1.025.686-.352 1.65-.737 2.823-.965 1.19-.328 2.556-.475 4.069-.605 3.002-.192 6.473.006 9.763.445 3.318.442 6.203.912 9.22 1.859.712.22 1.416.436 2.108.652.674.247 1.269.604 1.888.905a79.833 79.833 0 0 1 3.456 1.897 44.425 44.425 0 0 1 5.08 4.032c2.542 2.547 3.818 4.604 3.222 5.569-.592.968-2.943.658-6.262-.622-1.644-.548-3.491-1.344-5.482-2.228a55.147 55.147 0 0 1-3.093-1.188c-.527-.202-1.052-.487-1.6-.656-.549-.147-1.106-.3-1.669-.454-2.09-.67-4.576-1.488-6.637-2.237-2.11-.796-3.966-1.647-5.802-2.423-3.65-1.528-7.182-3.13-11.627-2.956"/>
    <path fill="#ececee" d="M53.743 327.892c-1.164.268-.906-.19.398-1.137 1.284-.97 3.732-2.294 6.896-3.214 3.151-.928 6.965-1.465 10.671-1.531 3.712-.073 7.282.268 10.179.7 5.79.91 10.724 2.236 14.28 3.312 3.404 1.08 5.905 2.057 5.831 3.23-.073 1.106-2.251 2.233-6.37 2.607-3.97.392-9.329-.07-14.931-.952-5.609-.875-9.85-2.035-14.023-2.868-4.133-.805-8.288-1.326-12.931-.147"/>
    <path fill="#ececee" d="M68.561 338.97c-1.672.301.558-1.671 4.493-4.231 1.975-1.291 4.226-2.211 6.518-3.272l.855-.368.215-.09.052-.025.294-.078.133-.037.528-.135c.715-.163 1.417-.326 2.104-.486 1.34-.148 2.686-.307 3.797-.226 4.56.208 8.078 1.42 10.45 2.4 1.128.525 2.177 1.044 2.915 1.557.72.53 1.107 1.094 1.084 1.664-.024.573-.455 1.1-1.22 1.562-.746.477-1.836.86-3.34 1.053-2.904.455-6.607.196-10.139.054-1.683-.051-3.2-.1-4.637-.142l-.067-.006-.033-.003H82.536c-.046.012.412-.111.215-.06l-.005.003-.16.018-.32.03-.631.058-1.246.078a50.69 50.69 0 0 1-2.427.045c-1.62-.03-3.148-.084-4.632.076-1.516.108-3.097.262-4.769.56M550.07 457.706c-.609-.145-.677-.284-.203-.423.468-.086 1.506-.388 3.038-.246 1.52.128 3.627.56 5.744 1.799 4.453 2.32 8.521 7.33 12.289 13.317 1.88 3.006 3.715 6.313 5.647 9.64 1.815 3.13 4.188 6.665 6.52 10.369 4.716 7.36 9.522 15.603 14.248 24.625 1.047 2.201 2.106 4.42 3.17 6.653l1.589 3.358.397.843.265.606.18.447.72 1.801c1.876 4.783 3.973 9.73 5.473 14.409.812 2.366 1.621 4.73 2.424 7.084a115.489 115.489 0 0 1 2.247 7.68c.65 2.564 1.224 5.161 1.638 7.898.394 2.76.73 5.552.427 9.075-.212 1.775-.441 3.783-1.886 6.47-.758 1.313-1.861 2.815-3.611 3.966-.815.6-1.76.985-2.703 1.34-.912.302-1.792.444-2.689.553-3.38.198-5.326-.633-7.026-1.278-1.638-.645-3.412-1.739-4.115-2.18-4.462-3.203-8.206-6.2-11.241-9.537l-2.365-2.41c-.747-.84-1.444-1.728-2.159-2.586-1.391-1.718-2.894-3.484-4.135-5.15l-3.421-4.863-.844-1.207-.194-.29-.05-.082-.1-.17-.197-.333-.394-.669-1.568-2.66c-4.353-6.954-7.615-14.171-10.439-21.084-1.229-3.517-2.429-6.949-3.597-10.28-.894-3.384-1.758-6.667-2.597-9.844-.9-3.162-1.312-6.268-1.926-9.226-.562-2.964-1.106-5.804-1.427-8.52-2.9-21.715-2.738-35.073-.644-35.481 2.291-.444 6.188 12.583 11.833 33.068 3.05 10.131 6.37 22.212 12.091 34.452 2.918 6.082 6.08 12.383 10.127 18.441l1.444 2.328.362.586.182.293.091.144.044.074.024.039c.135.198-.162-.23-.12-.172l.87 1.187 3.503 4.8c1.167 1.515 2.32 2.775 3.48 4.2.582.69 1.14 1.406 1.746 2.086l1.939 1.95c1.314 1.236 2.506 2.768 3.85 3.745 1.312 1.067 2.447 2.345 2.285.798-.33-3.12-.93-6.371-1.62-9.545l-.542-2.373c-.109-.541-.403-1.573-.59-2.33-.424-1.648-.845-3.281-1.26-4.9-.812-3.262-1.615-6.445-2.532-9.388-.88-2.943-1.724-6.123-2.58-8.81-1.04-2.993-2.07-5.957-3.094-8.894-4.215-11.312-9.044-22.269-14.347-33.29-2.715-5.635-4.694-11.486-7.433-17.098-1.37-2.807-2.9-5.59-4.888-8.138-1.976-2.514-4.538-4.872-7.9-5.928-1.662-.597-2.844-.547-3.45-.74Z"/>
    <path fill="#ececee" d="M406.745 417.5c9.037 26.5 14.723 73.29 48.426 80.808 13.123 2.925 29.772-4.157 42.142-7.618 16.404-4.59 32.678-10.402 49.366-13.884 9.321-1.945 5.366-16.217-3.926-14.277-26.916 5.62-52.688 17.777-80.038 21.342C435.669 487.394 429.047 430.608 422 413c-3.497-8.746-23-1-13.856 6.786m374.684-117.45c-.711 1.055-4.158 3.201-8.968 7.364-2.485 2.018-5.412 4.35-9.907 6.149-.478.164-.962.335-1.455.505l-.743.256-.186.064-.095.033-.3.076-.434.097c-1.166.252-2.338.57-3.65.676-2.548.314-5.537.3-8.55-.755-3.016-1.026-5.669-3.03-7.764-5.133-2.122-2.118-3.863-4.336-5.637-6.372a66.12 66.12 0 0 0-2.738-2.97c-.968-.814-1.954-1.639-2.948-2.473l-1.559-1.316-1.732-1.129c-1.18-.728-2.275-1.598-3.535-2.241-9.869-5.45-22.437-7.944-35.21-6.34-12.75 1.46-25.597 6.22-36.046 14.125-10.88 7.905-20.622 18.188-32.217 26.924-5.793 4.345-12.164 8.238-18.999 10.879-3.408 1.298-6.887 2.377-10.373 3.02-.876.173-1.711.382-2.608.514l-2.748.309c-1.803.185-3.75.417-5.084.37l-4.575.032c-1.676-.123-3.346-.244-5.013-.364-3.356-.094-6.564-.973-9.774-1.642-1.635-.285-3.117-.9-4.64-1.402-1.51-.529-3.039-1.028-4.506-1.598-2.768-1.319-5.713-2.488-8.248-3.945-2.59-1.416-5.17-2.82-7.51-4.295a359.366 359.366 0 0 1-6.894-4.257c-2.257-1.387-4.491-2.756-6.699-4.113-1.995-1.307-4.096-2.145-6.097-3.25-8.168-3.898-16.685-5.654-24.841-5.546-8.157.07-7.63 1.431-14.545 3.684-13.864 4.548-20.953-4.712-6-11.272 7.463-3.229 10.018-5.067 20.002-5.802 9.953-.79 21.058.858 31.478 5.338 2.526 1.225 5.256 2.28 7.69 3.743 2.279 1.284 4.563 2.54 6.918 3.945 2.299 1.334 4.621 2.685 6.967 4.048 2.302 1.372 4.58 2.533 6.873 3.734 2.3 1.272 4.613 2.086 6.933 3.185l3.52 1.18c1.178.37 2.343.876 3.553 1.038 2.405.437 4.787 1.154 7.274 1.154l3.71.285 4.226-.038c1.611.044 2.6-.173 3.754-.288 1.127-.117 2.248-.2 3.473-.505 1.186-.28 2.402-.408 3.556-.779l3.459-1.034c4.53-1.624 8.82-3.869 12.949-6.49 8.269-5.27 15.82-12.009 23.741-18.243a185.423 185.423 0 0 1 12.244-9.016l3.01-1.927 1.502-.955 1.753-.957c2.34-1.284 4.66-2.53 6.95-3.446 9.163-4.001 18.656-6.278 28.082-6.96 9.417-.696 18.825.33 27.58 3.194 8.747 2.846 16.795 7.647 23.166 14.074 3.403 2.994 5.802 7.048 8.343 10.494 2.487 3.496 5.568 6.73 9.936 7.58 2.128.458 4.4.47 6.637.135 2.246-.265 4.459-.914 6.598-1.801 4.28-1.807 8.145-4.592 11.799-7.638 3.63-3.088 5.807-3.013 5.152-1.912Zm-531.29 279.721c.253-.578.4-.62.45-.124 0 .477.106 1.563-.31 3.058-.4 1.486-1.204 3.495-2.8 5.373-3.078 3.993-8.727 7.116-15.271 9.769-3.284 1.32-6.854 2.539-10.465 3.85-3.39 1.231-7.284 2.946-11.333 4.587-8.062 3.34-17.006 6.61-26.7 9.659-2.344.64-4.709 1.29-7.085 1.94l-3.579.964-.895.24-.642.155-.472.098-1.893.385c-5.025.991-10.247 2.178-15.1 2.816-2.466.373-4.928.744-7.379 1.118-2.795.392-5.257.638-7.925.83-2.63.182-5.278.28-8.035.193-2.771-.11-5.566-.284-8.96-1.225-1.699-.53-3.625-1.124-5.993-3.047-1.152-.99-2.421-2.358-3.231-4.301-.439-.92-.645-1.925-.822-2.922-.13-.961-.112-1.86-.056-2.768.419-3.388 1.588-5.17 2.527-6.74.931-1.507 2.321-3.07 2.88-3.688 3.948-3.841 7.561-7.013 11.378-9.419l2.79-1.907c.957-.587 1.952-1.118 2.924-1.673 1.935-1.065 3.935-2.237 5.794-3.166 1.805-.842 3.602-1.679 5.38-2.51l1.335-.616.318-.143.091-.032.183-.069.362-.136.725-.27 2.889-1.071c7.599-3.056 15.26-4.98 22.543-6.526l10.715-1.7c3.475-.273 6.847-.534 10.11-.79 3.261-.32 6.377-.163 9.384-.237 3.004-.018 5.885-.041 8.6.134 21.79 1.065 34.843 3.652 34.86 5.802.021 2.356-13.442 3.854-34.524 5.732-10.473 1.186-22.905 2.29-35.929 5.74-6.482 1.792-13.227 3.786-19.892 6.699l-2.542 1.008-.64.253-.317.127-.162.062-.08.033-.041.015c-.218.1.253-.116.191-.086l-1.319.647c-1.767.86-3.546 1.73-5.34 2.601-1.693.884-3.136 1.798-4.742 2.691-.78.454-1.581.875-2.359 1.353l-2.259 1.57c-1.449 1.079-3.166 1.98-4.368 3.14-1.28 1.104-2.739 2-1.195 2.122 3.116.237 6.409.234 9.642.124l2.418-.106c.551-.01 1.617-.113 2.395-.164l5.022-.359c3.342-.213 6.606-.43 9.654-.806 3.04-.339 6.306-.597 9.092-.959l9.272-1.453c11.843-2.13 23.447-4.93 35.199-8.188 6.01-1.67 12.099-2.572 18.09-4.266 2.998-.854 5.999-1.863 8.853-3.373 2.824-1.504 5.596-3.62 7.24-6.76.886-1.54 1.05-2.724 1.348-3.288Z"/>
    <path fill="#ececee" d="M243.5 431c-21.416 16.223-60.704 30.351-55.061 64.698 2.315 14.104 12.682 27.713 19.883 39.678 8.164 13.565 17.292 26.776 24.494 40.898 4.315 8.464 17.006 1.005 12.7-7.438-12.218-23.959-28.91-45.428-40.686-69.666-12.776-26.302 30.366-46.085 46.638-54.17 8.05-4-1.945-17.14-9.517-11.404L243.5 431ZM100.997 163.458c-.253 20.433-17.022 36.793-37.455 36.54-20.433-.251-36.793-17.02-36.54-37.453.254-20.433 17.023-36.793 37.456-36.542 20.433.253 36.793 17.022 36.54 37.455"/>
    <path fill="#ececee" d="M73.488 147.027c-4.377-.197-2.712-.515 2.907-.877 5.618-.332 15.196-.833 26.592-1.828 11.381-1.054 24.623-2.758 37.378-5.395 3.187-.724 6.306-1.228 9.49-2.117 3.094-.824 6.434-1.568 9.187-2.404 2.807-1.016 5.699-1.643 8.201-2.909 1.283-.556 2.541-1.103 3.773-1.64 1.224-.553 2.32-1.28 3.45-1.877 18.087-10.014 27.953-27.266 36.001-39.12 4.133-5.992 8.227-10.47 11.7-12.977 3.33-2.379 5.433-3.17 5.769-2.794.406.46-1.15 2.185-3.697 5.172-2.423 2.882-5.554 7.497-8.905 13.626-1.722 3.123-3.605 6.546-5.63 10.22-1.138 1.84-2.17 3.755-3.523 5.701-1.282 1.857-2.432 3.762-3.933 5.72-5.86 7.982-13.657 15.853-23.812 21.508-10.058 5.748-20.573 7.74-29.313 9.486-9.262 1.555-17.802 2.564-26.094 2.997-16.593.939-32.051.356-49.54-.492"/>
    <path fill="#ececee" d="M219.395 73.939c-.445.19-.504-.072-.228-.683.296-.55.847-1.71 1.896-2.524 2.02-1.936 5.21-3.263 6.96-3.93.978-.319 1.716-.638 2.519-.81.571-.257 1.185-.233 1.88-.46 1.402-.634 2.566-.73 3.167-.134.599.596.522 1.77-.091 3.189-.38.71-1.28 1.561-2.267 2.38-.92.6-2.04 1.258-3.143 1.619-2.29.81-3.975.664-5.643.608-1.655-.09-3.305-.104-5.05.745"/>
    <path fill="#ececee" d="M227.383 63.572c-.49.155-.507-.13-.066-.778.392-.657 1.478-1.625 3.066-2.062 1.504-.412 3.294-.35 4.219-.53.198-.012.599-.09.94-.143l.258-.037.13-.018.066-.01.032-.006.014-.003c.32-.028-.429.043-.351.034h.003l.006-.003.331-.149c.435-.142.85-.344 1.24-.527 1.524-.673 3.584-1.938 5.489-2.23.495-.083.945-.12 1.323-.108.337.065.636.155.893.27.513.226.853.552.974.974.124.424.014.902-.288 1.401-.15.251-.349.509-.591.769-.176.276-.354.549-.553.803-.902 1.023-2.167 2.666-4.92 4.006-.688.307-1.363.546-2.074.626l-.513.071-.845.078-.752-.14c-.43-.083-1.158-.3-1.688-.496-.516-.207-.917-.446-1.34-.676-1.499-.914-2.971-1.882-5.003-1.116"/>
    <path fill="#ececee" d="M235.339 55.55c-1.016.063.337-1.235 2.93-2.04 2.546-.79 5.797-1.164 7.777-1.285l4.547-.154c.834.219 2.307-.408 2.878.21.325.255.49.663.507 1.181.129.445-.328 1.3-1.075 2.068-1.401 1.477-4.054 2.358-6.504 2.456-4.936.227-7.105-2.364-11.06-2.437m8.932-6.974c-.825-.076.301-1.102 2.481-1.828 2.174-.737 5.138-.894 6.967-.622a13.99 13.99 0 0 1 2.543.586c.708.227 1.32.507 1.867.832 1.193.586 1.91 1.346 1.87 2.145-.045.796-.838 1.48-2.087 1.94-.664.194-1.501.32-2.4.362a15.205 15.205 0 0 1-2.662-.143c-3.587-.463-5.24-2.823-8.58-3.272"/>
    <path fill="#ececee" d="M254.08 41.454c-.448-.616 1.037-.539 2.859-.163.897.246 1.96.339 2.93.533.485.095.952.21 1.386.342.424.074.789.098 1.123.194.66.172 1.253.456 1.843.794a8.753 8.753 0 0 1 2.009.792c1.135.637 1.813 1.472 1.768 2.347-.045.878-.807 1.629-2.003 2.14a8.834 8.834 0 0 1-2.078.567c-.907-.03-1.955-.194-3.015-.468-4.21-1.244-5.044-4.617-6.821-7.078m20.217-6.605c-1.052-.265.816-.935 3.526-1.606 2.661-.682 6.482-1.551 9.579-1.134 1.505.115 2.926.645 4.154 1.131 1.187.636 2.349 1.264 2.933 1.911 1.234 1.29 1.788 2.447 1.374 3.161-.417.717-1.723.855-3.499.5-.909-.2-1.735-.155-2.644-.396-.962-.078-1.958-.346-3.087-.418-4.411-.426-8.193-1.954-12.336-3.149"/>
    <path fill="#ececee" d="M268.133 39.12c-.63-.601 1.08-.387 3.016-.533 1.956-.11 4.402-.97 6.58-1.34a20.652 20.652 0 0 1 3.137-.247c1.128.047 2.155.165 2.918.393 1.398.557 2.244 1.293 2.215 2.076-.031.78-.938 1.46-2.374 1.925-.65.29-1.303.59-2.046.78-.889.282-1.77.483-2.889.661-4.373.764-8.255-1.238-10.557-3.715"/>
    <path fill="#ececee" d="M259.155 38.516c-.668-.58.9-.653 3.262-.31 1.215.151 2.484.492 3.706.882 1.257.413 2.407.834 3.194 1.201.834.399 1.564.872 2.264 1.354.79.436 1.471.907 2.014 1.384 1.084.95 1.614 1.926 1.328 2.7-.286.777-1.331 1.201-2.788 1.265-.73.031-1.564-.026-2.458-.18-.923-.24-1.942-.643-2.961-1.126-2.145-1.005-3.09-2.166-4.213-3.485-1.04-1.26-2.01-2.507-3.348-3.685m35.82-9.213c-.05-.546.973-.337 2.203.488 1.202.753 2.737 2.521 2.801 4.678.113.959-.25 2.045-.656 2.849-.531.804-1.309 1.638-1.733 1.635-.911.152-1.77-.06-2.356-.668-.59-.606-.796-1.495-.654-2.439.134-.53-.365-.615-.377-.68-.186-.163-.133-.202-.203-.42.023-.671 1.178-3.238.975-5.443m15.653-7.253c.822-.341.2 1.105-1.065 3.002-.613.916-1.425 1.963-2.032 2.836-.64.882-.867 1.541-1.12 2.053-.843 2.366-2.041 6.278-3.832 6.05-.86-.032-1.61-.877-2.122-2.213-.492-1.263-.785-3.516.184-6.08.326-.643.68-1.253 1.072-1.759.44-.445.89-.838 1.34-1.182.885-.584 1.766-.937 2.603-1.206 1.685-.5 3.327-.816 4.972-1.5m14.074 2.343c.995.164-.644.962-2.801 2.322-2.202 1.352-4.898 3.304-6.691 4.575a102.959 102.959 0 0 0-4.269 3.11c-.937.394-1.779 1.77-2.6 1.582-.719-.152-1.767-.995-1.158-3.602.503-2.215 2.317-4.567 4.652-6.168 2.359-1.601 4.61-2.063 6.711-2.188 2.108-.101 4.117.12 6.156.37m10.947 4.289c.967-.227-.108 1.429-2.678 2.687-2.576 1.242-5.998 1.671-7.469 2.135-1.562.327-2.567.912-3.724 1.495-.536.196-1.149.669-1.659.856-.518.193-.975.196-1.339-.022-.363-.221-.595-.645-.703-1.217-.103-.583-.167-1.252.24-2.282.17-.51.41-1.034.748-1.52.301-.523.709-1.03 1.23-1.5.99-.98 2.412-1.734 3.812-2.058 2.866-.657 4.621.087 6.297.6 1.644.558 3.294 1.159 5.245.826"/>
    <path fill="#ececee" d="M350.64 32.457c1.168.025-.616 1.351-3.735 1.94-3.074.561-6.879.54-8.583 1.073-.906.23-1.654.43-2.35.843-.713.34-1.432.852-2.012 1.246-.627.322-1.275.951-1.82 1.196-.553.273-1.035.326-1.405.118-.373-.21-.597-.66-.686-1.296-.068-.654-.136-1.397.325-2.532a8.678 8.678 0 0 1 2.202-3.428c1.094-1.16 2.775-2.012 4.467-2.4 3.474-.678 5.684.373 7.617 1.194 1.932.868 3.69 1.879 5.98 2.046m21.997 4.836c1.282.327-.986 1.015-4.424 1.351-3.45.321-7.762.294-10.41.667-.709-.01-1.332.147-1.95.241-.602.114-1.266.114-1.781.236-1.007.345-1.963.287-2.976.624-2.01.724-3.485.81-3.947.085-.462-.727.176-2.122 1.577-3.794.714-.826 2.142-1.618 3.61-2.435.753-.37 1.531-.529 2.365-.776.828-.227 1.7-.459 2.57-.462 7.133-.385 10.29 3.052 15.366 4.263m12.918 8.743c.6-.194.6.083-.041.77-.292.38-.855.723-1.689 1.018-.825.232-1.877.235-2.857.009-.945-.223-1.851-.567-2.644-.881l-1.097-.4c-.364-.098-.968-.401-1.128-.341-1.6-.272-3.018-.87-4.315-.996-4.899-1.001-9.882-2.008-9.783-3.736.024-.815 1.22-1.527 3.132-2.022.927-.275 2.152-.384 3.513-.43 1.353-.105 2.878.104 4.461.433 1.61.22 2.904 1 4.097 1.613l.86.5.504.304.336.289c.425.366.89.81 1.33 1.264.807.835 1.396 1.68 2.186 2.243.74.56 1.962.901 3.135.363m12.01 6.954c1.195-.51-.116 1.507-3.409 3.4-1.653.892-3.905 1.663-6.356 1.607a22.32 22.32 0 0 1-1.998-.26c-.68-.118-.973-.259-1.46-.388-.898-.26-2.095-.832-2.863-1.301-1.654-1.05-2.72-2.12-3.64-2.985a46.103 46.103 0 0 0-2.177-1.937 8.883 8.883 0 0 1-.806-.716 6.65 6.65 0 0 1-1.022-.569c-.558-.392-.856-.806-.833-1.222.024-.416.368-.797.967-1.129.298-.164.66-.32 1.084-.454a10.795 10.795 0 0 1 1.893.012c1.393.164 2.819.73 4.183 1.53 1.282.768 2.495 1.691 3.523 2.33l1.46.854c.614.281 1.382.738 1.645.809.345.187.757.404 1.28.536.485.203.996.305 1.522.414 2.109.428 4.533.366 7.007-.531m43.965 26.22c.556-.462.6-.14.228.756-.35.905-1.234 2.354-2.725 3.761-1.482 1.407-3.547 2.74-5.755 3.635-2.204.922-4.509 1.379-6.417 1.556-7.775.636-13.38-2.574-12.823-4.041.512-1.6 5.997-1.264 12.287-1.823 3.146-.257 5.628-.417 8.101-.8 2.432-.405 4.92-1.138 7.104-3.044m8 10.967c.607-.396.607-.066.11.798-.45.87-1.624 2.257-3.602 3.283-1.943 1.04-4.584 1.396-6.632 1.555-2.109.147-4.195.223-5.923.17-6.914-.205-12.503-1.705-12.483-3.352.023-1.647 5.642-2.815 12.558-2.607 3.44.07 6.301.815 8.686 1.347 1.185.231 2.356.41 3.594.272 1.208-.18 2.524-.619 3.692-1.466"/>
    <path fill="#ececee" d="M369.487 19.165c.613-.715.708.972.113 3.556-.226.67-.308 1.388-.805 2.159-.41.73-.98 1.678-1.391 2.13-.51.603-.763.98-1.501 1.698-.525.498-1.056.973-1.526 1.318-1.995 1.456-3.27 2.133-4.326 2.798l-.802.436c-.275.211-.54.381-.796.504-.513.246-.989.308-1.388.147-.403-.161-.693-.528-.873-1.052a4.051 4.051 0 0 1-.192-.9c.003-.365.098-.825.226-1.317.473-1.969 2.453-4.075 4.243-5.35.467-.345.873-.632 1.3-.89l.317-.187c-.131.143.153-.085.208-.106l.662-.395c.445-.249.89-.472 1.336-.674l1-.483c1.443-.683 2.92-1.951 4.195-3.392"/>
    <path fill="#ececee" d="M378.544 17.089c.65-.465.576.95-.037 3.035a21.467 21.467 0 0 1-.555 1.646c-.302.53-.637 1.078-.997 1.613a21.905 21.905 0 0 1-1.125 1.542c-.4.45-.845.776-1.248 1.09-.808.585-1.668 1.142-2.421 1.434a8.85 8.85 0 0 1-2.113.517c-1.3.139-2.336-.147-2.797-.892-.463-.742-.265-1.798.43-2.91.35-.553.824-1.12 1.397-1.667.558-.551 1.04-1.068 1.69-1.53.317-.231.64-.422.972-.582.28-.197.564-.37.866-.517.601-.295 1.263-.51 1.967-.717 1.284-.57 2.66-1.139 3.97-2.062m9.216-5.06c.75.052-.464 1.066-.763 2.365-.342 1.26-.263 3.55-.977 5.714-.6 2.07-2.353 4.194-4.107 4.672-.447.138-.87.226-1.192.22a3.277 3.277 0 0 1-.732-.259c-.43-.217-.74-.524-.89-.924-.15-.397-.124-.845.046-1.317.084-.238.206-.479.361-.723.077-.243.09-.469.136-.655.206-.858.41-1.607.898-3.123.494-1.463 1.384-3.07 2.717-4.303 1.32-1.281 3.093-1.835 4.503-1.667m22.883-7.69c.637.108.372.359-.388.676-.775.27-1.99.78-3.09 1.597-1.104.826-2.136 2.112-3.381 3.61-1.464 1.7-3.072 2.983-4.343 3.926-2.593 1.859-4.846 3.264-6.337 4.21-.333.212-.684.401-1.037.576-.345.23-.652.524-.95.69-.587.36-1.087.474-1.461.288-.372-.184-.582-.65-.637-1.333-.015-.346-.05-.724.055-1.19.155-.489.383-1.05.69-1.667 1.186-2.296 3.501-4.53 6.105-6.407a36.61 36.61 0 0 1 3.528-2.258c.938-.535 2.198-1.402 3.44-1.94 2.52-1.275 5.348-1.345 7.806-.777m18.052-3.013c.583.147.27.382-.403.655-.73.17-1.534.77-2.279 1.758l-1.34 1.998c-.33.438-.466.761-.982 1.305-.423.461-1.032 1.102-1.34 1.313-1.953 1.537-4.038 2.151-5.707 2.542-3.326.57-5.23.717-6.657 1.208-.736.053-1.614.687-2.235.793-.646.17-1.145.13-1.444-.158-.301-.288-.374-.794-.249-1.46.191-.683.252-1.458 1.253-2.493.878-1.078 2.188-1.99 3.676-2.606 1.536-.659 3.067-.923 4.45-1.223.704-.14 1.255-.288 1.87-.367a14.592 14.592 0 0 1 1.62-.365c.017.083 1.247-.429 1.357-.487l.565-.218.742-.438c.997-.584 2.125-1.328 3.378-1.757 1.255-.482 2.597-.388 3.725 0m24.948 3.796c1.31.436-1.145.93-4.66.693l-2.588-.153-1.25-.095-1.463.024c-.488 0-.975 0-1.454-.003H442.17c.17.006-.393-.009.385.012h-.006l-.018.003-.073.017-.15.033-.294.062-.575.109c-.77.088-1.436.378-2.082.487-2.48.708-5.031 1.891-7.26 2.399-2.226.549-3.642.271-4.012-.455-.394-.77.61-1.983 2.082-3.387 1.507-1.34 3.889-3.326 7.557-4.418.919-.188 1.797-.43 2.649-.436.423-.006.84-.012 1.248-.015l.599.012.073.003h.021l.382.012h.003l.009.003.029.008.126.033.247.068c1.313.371 2.496.734 3.78 1.428 2.514 1.233 4.167 2.653 6.751 3.556m29.205 5.98c.68.609-1.028.441-2.834 1.27-1.903.82-4.45 2.553-6.692 3.467-2.2.903-4.647 1.39-6.574 1.052-2.257-.344-2.75-1.415-2.747-2.229 0-.887 1.389-1.454 2.178-2.183a30.85 30.85 0 0 1 4.813-2.476c2.1-.856 4.23-1.137 6.296-.948 2.048.183 4.114.857 5.56 2.046"/>
    <path fill="#ececee" d="M489.95 20.64c.184.446-.167.417-.7.237-.496-.206-1.359-.383-2.381-.478-2.087-.193-5.15.177-7.394.13-4.425-.007-8.692-1.435-8.466-3.328.222-1.706 3.599-3.217 8.605-3.2 2.468.056 4.543.835 6.32 2 1.747 1.156 3.35 2.786 4.017 4.638m6.908 6.75c.605.479-.82.721-2.645 1.047-1.81.302-4.415.867-6.645.362-1.057-.188-2.108-.685-2.993-1.199-.9-.67-1.78-1.405-2.073-2.021-.586-1.241-.686-2.335-.163-2.99.52-.655 1.565-.745 2.83-.359.64.18 1.122.012 1.6.173.605.036 1.21.225 1.967.353 2.95.556 5.717 2.658 8.122 4.635m7.031 8.441c.52.546-.886.605-2.53 1.08-1.67.434-4.118 1.315-6.535 1.035-1.142-.105-2.393-.558-3.371-1.2-1.005-.69-1.664-1.497-2.071-2.354-.189-.429-.347-.845-.383-1.165.006-.296.04-.574.1-.82.125-.497.365-.888.723-1.132.358-.246.805-.32 1.303-.25.249.038.513.112.783.22.262.058.492.033.702.064.853.096 1.85.204 2.952.324 2.697.259 6.171 2.007 8.327 4.198"/>
    <path fill="#ececee" d="M507.942 44.6c.367.701-1.068.39-2.814-.242-.43-.16-.904-.354-1.234-.39-.402-.084-.563-.182-1.174-.311l-.766-.2-.187-.055-.091-.028-.048-.015-.022-.006-.012-.004-.006-.003h-.003c.363.157.1.043.182.08h-.215c-.294-.03-.566-.055-.817-.08-1.035-.104-3.65-.488-4.923-1.914-.76-.698-.753-1.208-.808-1.71-.027-.494.079-.934.339-1.287.257-.35.642-.578 1.114-.692.45-.123 1.137-.012 1.422-.273.72-.262 1.286-.609 3.634-.412.578.077 1.122.203 1.664.455l.92.442.43.384c.278.262.532.541.77.83.304.375.579.769.815 1.15.929 1.53 1.086 2.917 1.83 4.281m1.899 10.916c.332.3.14.478-.539.48-.658.041-1.906-.29-2.99-1.159-1.071-.812-2.008-1.98-2.666-2.59-.377-.337-.746-.666-1.096-.981l-.018-.017-.003-.003c-.033-.035.27.288.14.151l-.005-.003-.009-.006-.036-.02-.072-.044-.137-.087-.264-.175a5.552 5.552 0 0 1-.47-.358c-.517-.548-1.212-.825-1.69-1.352-.63-.413-1.147-.874-1.632-1.349-1.053-.935-1.562-1.905-1.275-2.685.288-.781 1.314-1.227 2.745-1.317.739-.015 1.66.128 2.64.367.957.417 2.133.778 3.046 1.625.479.394.907.799 1.287 1.206l.281.306.087.143.165.288.314.612c.566 1.15.658 2.004.718 2.765.105 1.488.036 3.009 1.479 4.203m-.992 14.218c-.192.904-.965-.629-1.9-2.62-.91-2.08-2.317-4.035-3.4-5.346-1.066-1.401-2.046-2.721-2.765-4.027-.78-1.302-1.02-2.448-.53-3.131.487-.686 1.61-.772 3.034-.365 1.43.464 3.395 1.694 4.925 3.733 1.616 2.063 1.868 4.443 1.768 6.338-.178 1.954-.75 3.634-1.132 5.418m-3.654 15.963c-.283 1.052-1.073-.758-1.61-3.567-.504-2.838-.708-6.341-1.08-8.351a6.373 6.373 0 0 0-.232-1.484c-.107-.454-.138-.945-.217-1.357-.305-.726-.217-1.447-.519-2.272-.673-1.638-.742-2.91-.044-3.424.701-.517 2.038-.18 3.633.781.786.503 1.65 1.673 2.488 2.882.342.615.562 1.269.824 1.97.28.7.462 1.425.503 2.157.538 5.999-2.737 8.456-3.746 12.665M502.39 98.9c-.338.282-.417-.076-.48-.538-.055-.466-.227-1.169-.644-2.13-.76-1.877-2.318-4.516-3.09-6.56-.773-2.044-1.22-4.086-1.174-5.723.003-1.748.632-2.735 1.486-2.937 1.693-.205 4.024 2.296 5.772 6.648.814 2.156.883 4.185.557 6.121-.363 1.857-.948 3.974-2.427 5.12m-10.968 9.004c-1.674 1.017 2.147-6.42 2.352-9.126.153-.362.147-.715.206-1.06.033-.33.206-.7.203-.987-.017-.62.326-1.103.308-1.878.039-1.465.46-2.507 1.26-2.783.803-.276 1.826.267 2.838 1.37.514.497.899 1.677 1.245 2.82.188.603.134 1.189.164 1.835.003.637.006 1.31-.206 1.94-.173.644-.37 1.253-.615 1.799-.295.502-.612.964-.937 1.387-.62.893-1.454 1.404-2.182 1.978-1.543 1.025-3.128 1.706-4.636 2.705m-8.995 6.944c-.66.69-.524-1.073.188-3.44.703-2.369 1.864-5.247 2.72-7.073.505-.92.868-1.74 1.342-2.478.443-.727.707-1.162 1.178-1.699.706-1.303 1.452-2.235 2.272-2.154.789.075 1.515.96 1.85 2.538.054.857.023 2.149-.241 3.213-.264 1.038-.61 2.221-1.17 3.25-2.18 4.287-5.517 5.187-8.139 7.843m-10.965 4.998c-.602.679-.694-.985.19-3.327.893-2.363 2.805-4.857 4.055-6.232.714-.71 1.224-1.304 1.872-1.818.492-.47.959-.796 1.52-1.147 1.006-1.041 2.008-1.538 2.768-1.235.763.305 1.138 1.346 1.132 2.787-.15.785-.51 1.838-1.025 2.825-.507.836-1.15 1.832-1.895 2.571-2.952 3.153-6.089 2.905-8.617 5.576m-10.07 1.092c-.722.375-.407-1.03.599-2.823 1.002-1.792 2.568-3.813 3.752-4.966 1.283-1.173 2.331-1.968 3.288-2.3 1.048-.64 2.068-1.091 2.852-.71.751.36 1.242 1.243 1.088 2.58-.373 1.574-1.4 3.275-2.774 4.536-2.801 2.635-5.941 2.24-8.806 3.683m-13.987 1.96c-.854.546-.331-1.203 1.33-3.443 1.687-2.26 4.515-4.386 6.161-5.58.94-.585 1.59-1.154 2.39-1.574.568-.473 1.221-.702 1.871-1.14 1.274-1.015 2.418-1.426 3.136-.988.718.437.872 1.638.54 3.229-.227.807-.898 1.86-1.654 2.918-.78.84-1.73 1.852-2.781 2.51-4.214 2.83-7.497 1.846-10.993 4.068"/>
    <path fill="#ececee" d="M457.779 136.522c.988 1.251-1.428-.134-5.414-2.085-1.974-1.029-4.328-2.353-6.483-4.322-1.045-1.03-2.08-2.173-2.781-3.615-.371-.7-.62-1.432-.837-2.229-.166-.832-.306-1.895-.252-2.265l.017-.761v-.05l.039-.437.009-.035.038-.137.078-.276.166-.545c.24-.714.454-1.467.87-1.986.73-1.224 1.564-2 2.353-2.724 1.529-1.266 2.903-2.072 3.844-2.74 1.778-.934 3.063-2.665 3.856-2.252.644.313 1.312 2.077-.653 5.126-.849 1.368-2.018 2.573-3.054 3.8-1.027 1.23-1.422 2.144-1.443 3.123-.092 2.206 1.62 4.837 3.482 7.198 1.852 2.414 4.034 4.66 6.165 7.212m46.53-77.287c.235-2.16.441-1.37.597 1.468.032.707.082 1.548.094 2.496l-.265 3.139c-.079 1.156-.214 2.398-.529 3.682-.29 1.29-.502 2.693-.922 4.095-1.579 5.713-4.483 11.915-9.233 17.398l-.86 1.04-.882.833-1.752 1.646-.873.811-.053.054-.282.232-.124.089-.25.178-.493.357c-.656.472-1.308.942-1.955 1.405-2.651 1.763-5.255 3.374-7.795 4.55a42.789 42.789 0 0 1-7.671 2.928c-2.584.74-5.42 1.174-7.565 1.278l-.853.065-.306.018h-.312l-.416.003h-1.655c-1.097 0-2.178-.018-3.23-.06-2.11-.086-4.11-.273-5.938-.63-3.662-.674-6.586-2.16-8.141-3.714-1.658-1.65-1.787-2.744-1.558-3.026.297-.356 1.355.449 2.886 1.05 1.626.695 4.068 1.298 7.307 1.384 1.614.054 3.416-.012 5.382-.145l3.077-.244 1.646-.137.423-.033.215-.017.106-.01.053-.002h.014c.183-.015-.235.018-.188.012l.027-.003.843-.125c2.42-.3 4.336-.74 6.531-1.433 2.205-.695 4.468-1.563 6.71-2.69 2.264-1.06 4.356-2.267 6.352-3.456 1.011-.564 1.952-1.224 2.91-1.81l.355-.222.177-.113.088-.054.044-.027.024-.014.011-.006c.203-.164-.264.21-.211.169l.664-.54 1.32-1.065c1.904-1.37 3.077-2.782 4.461-4.128 1.34-1.379 2.475-3.034 3.704-4.523 4.365-6.39 7.465-13.508 8.291-22.153M359.095 9.41c-.245-.348-.013-.487.649-.369.68.077 1.71.607 2.676 1.545 1.868 1.927 2.842 4.818 3.203 6.425.354 1.7.404 2.95.366 3.955-.075.377-.16.914-.134 1.435-.044.492-.226.9-.555 1.182-.329.283-.777.416-1.304.41-.501.056-1.165-.215-1.943-.846-1.382-1.061-2.385-3.033-2.767-4.94-.401-1.927-.028-3.292.27-4.624.294-1.294.58-2.767-.461-4.173"/>
    <path fill="#ececee" d="M347.178 2.65c-.723-.507.832-.843 3.237-.528.599.112 1.257.206 1.929.424.67.255 1.367.551 2.056.879.67.411 1.32.93 1.926 1.426.599.515 1.041 1.257 1.456 1.85.445.591.646 1.32.845 2.011.159.71.42 1.32.366 2.033-.054 1.32-.142 2.75-.556 3.307-.746 1.32-1.606 2.068-2.403 1.932-.797-.14-1.381-1.136-1.682-2.635-.031-.427-.198-.711-.354-.945a3.77 3.77 0 0 1-.33-.754c-.025-.251-.317-.52-.41-.796-.137-.273-.19-.594-.438-.84-1.282-2.086-2.757-5.257-5.642-7.365m-13.952-.372c-.8-.29.602-1.063 2.961-1.24 2.34-.2 5.446.431 7.304 1.542 1.873 1.012 3.3 2.552 4.065 3.908.563 1.282.607 2.384.038 3.007-.572.629-1.667.644-2.962.198-1.203-.243-2.548-.875-4.076-1.701-2.941-1.552-4.16-4.355-7.33-5.714M318.284 4.25c-.93-.158.514-1.031 3.024-1.717 2.462-.747 6.295-.747 8.742.242 1.254.388 2.253 1.09 3.171 1.682.852.711 1.613 1.422 2.037 2.057.774 1.272.981 2.368.437 2.986-.545.62-1.734.643-3.217.182-.737-.194-1.462-.337-2.203-.649-.812-.194-1.607-.612-2.482-.862-3.286-1.143-5.697-3.239-9.51-3.921M306.33 9.59c-1.002.028.366-1.184 2.913-2.19 2.532-1.025 6.114-1.55 8.529-1.363 4.894.33 8.397 2.2 8.222 3.788-.182 1.657-4.17 2.405-8.597 2.113-4.391-.21-7.017-2.302-11.067-2.348"/>
    <path fill="#ececee" d="M299.374 16.957c-.967.33.018-1.303 2.045-3.313 1.95-2.049 5.578-4.087 8.306-4.436 2.67-.44 5.08-.129 6.694.43 1.593.588 2.578 1.398 2.581 2.29.024 1.866-4.105 3.01-8.275 3.672-2.105.327-3.788.409-5.659.447-1.838.103-3.74.254-5.692.91"/>
    <path fill="#ececee" d="M292.355 23.964c-.888.287-.03-1.168 1.673-2.992 1.627-1.832 4.6-3.983 7.188-4.565 2.464-.647 4.955-.45 6.455.081 1.452.565 2.344 1.328 2.329 2.154-.012.826-.927 1.56-2.394 2.072-1.414.566-2.982 1.003-4.835 1.473-3.45.96-6.784.646-10.416 1.777"/>
    <path fill="#ececee" d="M294.465 28.95c-.52.312-.71-.878-.006-2.58.69-1.732 2.57-3.4 3.894-3.895 1.385-.57 2.555-.57 3.491-.3.978.248 1.73.808 2.026 1.628.295.817.075 1.738-.518 2.564-.638.833-1.67 1.54-2.648 1.95-1.038.41-1.863.263-2.934.144-1.027-.108-2.224-.104-3.305.49M465.75 3.09c.836.167-.607.877-1.643 2.364-1.153 1.512-2.41 4.175-4.743 5.937-1.072.848-2.658 1.53-4.173 1.593-.773.05-1.47-.023-2.075-.229a4.665 4.665 0 0 1-1.593-.713c-.99-.582-1.18-1.13-1.389-1.628-.18-.501-.183-.95.015-1.313.2-.365.587-.61 1.114-.744.503-.14 1.302-.07 1.71-.302.227-.052.451-.115.688-.228.236-.047.434-.168.605-.276.356-.211.724-.423 1.35-.91 2.401-1.868 6.545-4.123 10.134-3.552m1.075 147.449c.433.63.027.565-.84.102-.857-.474-2.208-1.292-3.989-1.913-3.445-1.38-8.725-1.963-12.74-3.873-1.958-.884-3.793-2.182-5.12-3.665-.669-.74-1.254-1.47-1.652-2.252-.445-.742-.8-1.465-1.004-2.21-.535-1.473-.532-2.487-.421-3.263.102-.776.344-1.274.741-1.42.4-.147.917.075 1.509.6.574.536 1.264 1.415 2.023 2.089 1.536 1.552 3.502 3.342 6.6 4.678 3.033 1.415 6.054 2.736 8.594 4.559 2.57 1.795 4.686 3.984 6.3 6.568m5.1 21.956c.472 1.579-1.355-.784-4.116-3.781-2.73-3.069-7.09-6.23-10.215-8.71-1.503-1.248-3.028-2.508-4.296-3.715-1.314-1.26-2.46-2.47-3.322-3.54-1.626-2.18-2.35-3.843-1.789-4.477.562-.638 2.303-.122 4.662 1.224a42.672 42.672 0 0 1 3.94 2.34c1.486.982 3.046 2.052 4.668 3.399 6.513 5.288 8.682 11.05 10.468 17.26m10.69 16.047c1.486.848-1.5.452-6.219-.646-5.157-1.239-10.339-4.974-13.877-8.275-1.836-2.015-2.672-3.344-3.894-5.342-.996-1.827-1.548-3.326-2.067-4.528-.243-.588-.466-1.123-.664-1.607-.184-.411-.297-.773-.44-1.158-.447-.75-.577-1.323-.334-1.66.246-.338.842-.405 1.711-.24.442.151 1.04.464 1.643.863.516.385 1.142.869 1.67 1.436 1.124 1.12 2.177 2.598 3.223 3.918.926 1.083 2.53 3.104 3.657 4.276l.448.524.053.064.003.006c.03.026-.258-.237-.133-.122l.009.006.02.017.04.032.147.13.294.258c.386.35.76.692 1.127 1.028.652.643 1.278 1.26 1.886 1.856.65.66 1.264 1.315 1.848 1.969l.22.243.053.064.006.006.006.003c.15.101-.205-.134-.166-.108l.014.015.03.026.122.107.486.423.943.851c.629.614 1.216 1.08 1.824 1.517.62.452 1.207.962 1.928 1.39a94.846 94.846 0 0 0 4.383 2.658m-5.63 21.04c.087.68-.24.481-.799-.248-.636-.71-1.174-2.029-2.354-3.377-1.982-2.827-5.316-6.094-7.526-8.8a43.783 43.783 0 0 1-2.892-4.025 28.01 28.01 0 0 1-1.934-3.846c-.643-2.217-.667-3.788.081-4.187.748-.402 2.126.445 3.751 2.141.87.727 1.745 1.598 2.7 2.633 1.048 1.068 2.069 2.255 3.19 3.623 4.396 5.426 5.405 10.632 5.783 16.087m1.918 12.983c1.113 2.374-7.776-5.533-11.957-10.422-4.351-4.892-6.872-9.775-5.63-10.907 1.24-1.135 5.773 1.913 10.127 6.805 4.301 5.026 5.05 9.798 7.46 14.524m-.91 16.046c.106 1.228-1.169-.635-3.049-3.094-1.861-2.483-4.656-5.58-6.37-8.178-.85-1.255-1.573-2.625-2.167-3.839-.575-1.314-1.014-2.566-1.262-3.604-.318-2.038-.124-3.47.66-3.817.787-.347 2.016.46 3.37 2.04.714.71 1.443 1.531 2.179 2.504.838 1.009 1.61 2.13 2.47 3.405 3.34 5.052 3.72 9.706 4.169 14.583m-1.6 24.885c-.189 1.757-.978-1.324-2.302-5.575-.392-1.052-.696-2.206-1.173-3.351-.476-1.137-.965-2.311-1.451-3.474a103.379 103.379 0 0 1-1.655-3.325c-.523-1.072-1.14-2.057-1.592-2.985-1.928-3.697-3.814-7.04-4.959-9.676-1.22-2.645-1.622-4.517-.911-4.994.71-.478 2.396.536 4.55 2.557 2.131 2.092 4.78 5.308 6.902 9.374 2.22 4.028 2.882 7.839 3.143 11.272.143 1.723-.042 3.427-.063 5.082-.1 1.67-.392 3.355-.49 5.095m-2.267 11.207c-.112.54-.371.296-.7-.368-.365-.672-.594-1.715-1.322-2.921-1.17-2.407-3.273-5.404-4.577-7.843a31.79 31.79 0 0 1-1.599-3.594 19.376 19.376 0 0 1-.89-3.383c-.16-1.906.184-3.22.98-3.528.81-.31 1.932.482 3.127 1.945.64.663 1.237 1.417 1.888 2.36a28.59 28.59 0 0 1 2.016 3.332c2.57 4.988 2.236 9.707 1.077 14m1.582 15.98c-.117 1.06-1.03-.709-2.42-2.888-1.36-2.214-3.635-4.816-5.097-6.975-.693-1.053-1.356-2.18-1.86-3.21-.524-1.087-.925-2.158-1.163-3.05-.34-1.766-.172-3.05.585-3.44.76-.391 1.962.187 3.294 1.435.693.56 1.38 1.234 2.1 2.057a25.446 25.446 0 0 1 2.276 2.961c3.008 4.53 2.77 8.947 2.285 13.11m-315.23-64.229c-.336.99-.566.589-.445-.854.138-1.425.85-3.636 1.902-6.097 2.116-4.931 5.317-11.049 7.186-15.291 1.95-4.237 3.092-7.955 2.765-10.249-.11-1.18-.548-2.155-.816-2.897-.45-.818-.671-1.44-.412-1.778.253-.324.877-.4 1.846-.103 1.069.454 2.482 1.47 3.439 3.371.96 1.879 1.266 4.41.919 6.84-.321 2.455-1.125 4.933-2.209 7.315-2.202 4.755-4.813 7.896-7.292 10.767-2.438 2.908-5.144 5.26-6.884 8.976m1.032 9.264c-.326.535-.494.283-.509-.562.053-.797-.038-2.395.624-3.974.996-3.427 3.696-7.104 5.524-9.219 1.002-1.097 1.788-2.04 2.683-2.88.73-.8 1.396-1.43 2.123-2.013 1.278-1.547 2.453-2.332 3.222-1.993.768.342.983 1.746.712 3.736a19.679 19.679 0 0 1-1.581 3.665c-.725 1.127-1.602 2.448-2.586 3.522-2.005 2.284-3.828 3.519-5.603 4.837-.945.621-1.634 1.347-2.518 2.09-.842.756-1.393 1.732-2.09 2.791m-2.958 17.947c-.326.622-.506.346-.545-.588-.022-.916-.022-2.589.505-4.382.857-3.715 3.03-8.196 4.88-10.974 1.883-2.84 3.742-5.072 5.314-6.559 1.56-1.637 2.902-2.469 3.667-2.06.761.405.813 1.955.243 4.141-.7 2.259-2.133 5.106-3.943 7.839-3.544 5.544-7.595 7.523-10.12 12.583m2.008 15.99c-.311.632-.494.363-.545-.563-.027-.465-.02-1.096.024-1.862l.093-1.244c.093-.421.227-.856.359-1.318.897-3.875 3.845-8.112 5.673-10.61 1.029-1.295 1.747-2.452 2.645-3.486.592-1.005 1.34-1.774 1.96-2.665 1.088-1.972 2.174-3.089 3-2.884.829.205 1.236 1.695 1.23 3.933-.108 1.157-.62 2.685-1.215 4.307-.72 1.365-1.559 2.995-2.618 4.322-2.127 2.823-4.108 4.383-5.978 6.072-.981.812-1.69 1.712-2.603 2.644-.826.953-1.358 2.104-2.025 3.355m-.04 20.98c-.331.711-.481.325-.508-.706-.075-1.064.204-2.61.05-4.69-.017-1.878-.13-4.701.103-7.15.185-2.19.775-5.308 1.9-7.189 2.042-4.047 4.96-6.612 7.16-8.19 2.272-1.566 3.933-2.053 4.538-1.48.629.595-.057 2.285-1.362 4.455-1.281 2.199-3.322 4.936-4.816 7.958-2.733 5.771-3.984 11.436-7.064 16.993m4.387 18.923c-.391 1.57-.868-1.257-1.485-5.529-.681-4.461-.705-10.519 1.164-14.896 1.76-4.144 4.132-7.128 5.846-9.16 1.75-1.955 3.146-3.305 3.949-2.906.739.366.898 2.103.012 4.842-.81 2.705-2.51 6.009-3.94 9.402-.663 1.725-1.228 3.159-1.704 4.683-.504 1.663-1.103 3.184-1.439 4.542-.882 2.778-1.61 5.87-2.403 9.022m5.37 18.034c-.234.762-.427.387-.588-.605-.081-.986-.45-2.586-1.042-4.468-.643-1.943-1.59-4.087-2.209-6.914-.58-2.493-.607-5.611.044-7.799 1.11-4.566 3.736-7.751 5.801-9.665 2.191-1.967 3.812-2.455 4.443-1.97 1.353 1.205-2.696 6.513-4.396 13.078-.199.818-.397 1.585-.476 2.33l-.187.98c-.03.44-.058.87-.085 1.295-.079.864-.043 1.408-.117 2.138l-.008 2.286c-.006 3.074-.097 6.303-1.18 9.314m5.447 24.834c-.166.98-.412.664-.676-.677-.317-1.336-.15-3.693.381-6.23.246-1.276.553-2.594.762-3.897.154-.69.13-1.206.219-1.796.083-.538.021-1.406.046-2.092-.175-2.013-1.054-4.909-1.568-7.21-.532-2.364-.94-4.786-.885-7.156.043-2.346.618-4.706 1.841-6.386 1.116-1.628 2.813-2.677 3.775-2.878.977-.19 1.632-.132 1.878.213.245.345.055.944-.495 1.73-.504.82-.775 1.586-1.113 2.77-.62 2.205.108 5.854 1.199 10.447.51 2.302.925 4.523.91 6.84-.04.663-.047 1.048-.145 1.899l-.344 1.41c-.243.921-.695 2.104-1.094 2.969-1.67 3.518-4.076 6.065-4.69 10.044m294.23-44.84c.16.568-.138.524-.749.014-.54-.533-1.696-1.448-2.442-2.87-1.85-2.762-2.93-6.942-3.301-9.57-.183-1.39-.343-2.558-.375-3.732-.115-1.023-.08-1.967-.06-2.873-.135-1.887.175-3.201.96-3.496.784-.297 1.897.484 3.062 1.981.54.83 1.053 1.996 1.537 3.293.35 1.191.72 2.607.897 3.962.386 2.808.153 4.856-.021 6.945-.139 1.058-.077 2.016-.103 3.106.017 1.066.306 2.089.596 3.24m-4.185 25.257c-.538.398-.492-.02-.236-.742.35-.678.423-1.859.13-3.27-.573-2.88-3.025-6.914-4.33-10.015-1.34-3.1-2.297-6.242-2.33-8.781-.1-2.868.969-4.026 1.769-4.038.878-.026 1.504 1.603 2.515 3.06 1.002 1.78 2.443 4.332 3.801 7.464 1.344 3.13 1.95 6.048 1.906 8.907-.028 1.431-.251 2.854-.707 4.189-.558 1.318-1.298 2.554-2.518 3.226m-5.935 18.016c-.607.368-.53-.032-.107-.806.193-.394.58-.82.732-1.453.098-.3.244-.591.337-.915.041-.335.086-.685.133-1.053.248-2.891-1.929-6.997-3.328-10.207-1.384-3.197-2.494-6.477-2.59-9.165-.157-3.03.92-4.227 1.7-4.262.873-.047 1.48 1.7 2.513 3.218 1.024 1.862 2.578 4.497 4.033 7.848 1.435 3.323 2.057 6.627 1.581 9.77-.426 3.195-2.44 5.828-5.004 7.025m-8.53 18.016c-.659.346-.505-.077.011-.842.13-.176.28-.384.452-.613.109-.271.232-.569.364-.893.157-.286.277-.623.322-1.036.05-.405.21-.741.208-1.209.345-3.524-1.178-8.698-2.041-12.445-.88-3.766-1.564-7.368-1.617-10.172-.037-1.321.078-2.768.364-3.461.303-.754.656-1.182 1.054-1.206.398-.024.805.36 1.194 1.072.43.759.841 1.42 1.38 2.646a55.813 55.813 0 0 1 3.24 9.66c.925 3.99.987 7.572.294 10.873-.65 3.248-2.425 6.477-5.225 7.626m-269.724-5.267c.054.58-.222.493-.726-.142-.51-.615-1.205-1.862-1.55-3.522-.794-3.38.098-7.754.957-10.26a49.786 49.786 0 0 1 2.555-6.095c.737-1.296 1.4-2.683 2.235-2.587.772.09 1.635.94 1.874 3.202.262 2.077-.22 4.824-1.102 7.406-.886 2.605-1.957 4.279-2.865 6.031-.897 1.715-1.663 3.63-1.378 5.967m6.581 17.008c-.226 1.325-1-.97-1.834-4.385-.854-3.368-1.807-8.266-1.063-12.06.086-.925.348-1.823.682-2.677.327-.85.59-1.661.997-2.413.962-1.45 1.897-2.852 2.781-3.54 1.801-1.325 3.245-1.877 3.903-1.34.658.534.408 2.055-.533 4.084-.428 1.023-.503 2.034-.961 3.06-.158.558-.241 1.226-.411 1.847-.185.623-.351 1.28-.405 2.01-.792 5.603-2.135 10.12-3.156 15.414m9.922 17.011c-.397 1.342-.67-1.175-1.866-4.251-1.085-3.097-3.8-6.82-4.795-10.844-.507-1.928-.569-4.08-.146-5.87a9.026 9.026 0 0 1 .814-2.434 8.233 8.233 0 0 1 1.108-1.898c.79-1.16 1.534-1.657 2.167-2.009.63-.339 1.143-.422 1.499-.202.353.223.51.73.493 1.455-.012.714-.274 1.72-.324 2.636-.242 1.967-.534 4.183.23 6.852.665 2.71 1.52 5.587 1.674 8.393.208 2.823-.148 5.519-.854 8.172m8.992 17.865c.181 1.633-1.324-.864-2.691-5.04-1.402-4.168-2.275-9.941-2.362-13.955-.118-4.05.176-7.609.649-10.194.435-2.626 1.116-4.27 1.935-4.306.822-.032 1.63 1.547 2.267 4.13.605 2.629.98 6.276 1.093 10.181.28 7.803-1.491 12.608-.891 19.184m10.919 9.144c.03.609-.294.387-.778-.21-.235-.297-.48-.678-.93-1.143a32.51 32.51 0 0 1-1.5-1.833c-2.131-2.94-3.533-7.705-3.745-10.98-.349-6.593 1.381-11.458 3.065-11.473 1.797-.018 2.914 5.213 3.236 11.035.171 1.424.061 2.771.073 3.983.065 1.19.019 2.348-.064 3.524-.29 2.25.625 4.562.643 7.097m16.974 11.983c-.23.712-.435.36-.617-.57-.169-.926-.365-2.433-1.13-4.013-1.313-3.196-4.89-6.656-7.237-9.854-2.345-3.117-4-6.855-3.988-9.808.012-.774.067-1.454.154-2.029.106-.55.326-.923.499-1.28.371-.687.779-1.065 1.208-1.068.432 0 .843.378 1.217 1.061.2.326.336.795.56 1.208.24.387.473.8.676 1.238.948 1.9 2.589 4.266 4.764 7.192 2.145 2.911 3.785 5.89 4.5 8.977a14.868 14.868 0 0 1-.606 8.946m10.318 10.765a13.258 13.258 0 0 1-.798-1.529c-.263-.644-.413-1.354-.628-2.17-.41-1.63-.598-2.952-1.113-4.793l-.152-.648-.177-.46c-.11-.309-.215-.615-.32-.912-.335-.638-.505-1.2-.825-1.817-1.095-2.355-2.243-5.09-2.276-7.53-.003-.615 0-1.188.104-1.607.132-.386.281-.725.443-1.004.323-.558.706-.882 1.128-.914.427-.033.855.225 1.265.724.206.25.41.562.604.924.218.32.487.573.703.882.876 1.259 2.294 3.153 3.663 6.034a11.848 11.848 0 0 1 1.089 4.585c-.039 1.425-.191 2.39-.505 3.664-.59 2.5-1.589 4.231-1.469 6.776-.003.624-.275.514-.736-.205Zm18.642 9.235c.227.526-.139.45-.77.096-.608-.39-1.633-.862-2.987-1.353-.669-.256-1.464-.502-2.331-.857-.793-.284-2.053-.943-2.703-1.341-1.134-.76-1.736-1.411-2.534-2.175-.632-.87-1.34-1.66-1.653-2.564-1.554-3.597-.865-6.637-.327-8.431.61-1.882 1.418-3.011 2.28-2.997.861.012 1.614 1.2 2.131 3.066.526 1.902.81 4.24 1.626 5.961.787 1.728 1.914 3.452 3.226 4.942 1.467 1.638 3.253 3.487 4.042 5.653m10.58 5.932c.274.434.132.552-.398.351-.262-.1-.626-.286-1.07-.564-.414-.298-.793-.818-1.246-1.405-.685-1.249-.99-2.95-1.064-4.366-.093-1.408-.26-2.628-.528-3.448l.09.342a14.103 14.103 0 0 1-.645-1.148c-.265-.372-.5-.733-.7-1.08-1.332-1.973-2.976-4.25-3.615-6.407a9.63 9.63 0 0 1-.336-1.512c.003-.404.056-.755.126-1.065.152-.612.43-1.025.836-1.181.407-.16.907-.045 1.462.295.278.168.568.401.87.67.32.195.638.41.944.65 1.27 1.048 3.21 2.574 5.095 5.305.37.628.718 1.222.984 1.848.237.658.428 1.299.583 1.91l.09.336c.129 2.696-.923 4.32-1.555 5.775-.676 1.384-1.175 3.055.077 4.694m20.302 4.013c.814.748-1.142.43-3.94-.218-1.405-.339-3.054-.75-4.773-1.516-1.696-.728-3.534-2.04-4.56-3.666-1.025-1.587-1.489-3.341-1.53-4.768-.063-1.439.14-2.648.453-3.649.615-1.92 1.535-2.784 2.331-2.749 1.777.058 1.956 5.23 3.7 7.86.811 1.305 2.274 2.685 3.733 4.187 1.485 1.485 2.948 3.022 4.586 4.519m7.962 1.942c.395.29.313.554-.613.478-.762-.131-1.817-.745-2.708-1.558-1.843-1.64-3.61-4.164-4.416-6.153-.812-1.986-1.137-3.96-1.014-5.512.064-.73.213-1.545.497-1.974.295-.432.651-.702 1.063-.772.409-.07.835.07 1.25.377.438.304.827.547 1.27 1.098.865 1.019 1.747 2.543 2.478 4.325.73 1.78.888 3.398.984 5.01.05.806.079 1.615.207 2.403.147.794.26 1.624 1.002 2.278m10.203 2.284c-.288.77-.828-.752-1.751-2.242-.893-1.531-2.534-3.144-3.667-4.637-.502-.725-1.056-1.534-1.44-2.29-.427-.809-.78-1.642-.975-2.35-.299-1.399-.144-2.51.509-3.006.658-.5 1.697-.276 2.85.46.582.32 1.152.71 1.757 1.259.647.598 1.28 1.236 1.906 2.127 2.542 3.442 2.065 7.733.811 10.68m10.22.01c-.278.702-.98-.587-1.802-2.131-.802-1.586-2.085-3.174-2.871-4.556-.744-1.357-1.35-2.892-1.494-4.172-.135-1.269.156-2.273.9-2.715.744-.439 1.803-.231 2.91.462 1.102.682 2.293 1.814 3.257 3.56.989 1.7 1.04 3.597.738 5.174-.35 1.624-1.08 2.99-1.638 4.377m8.422-3.01c-.475.802-.9-.81-.39-3.485.51-2.82 3.254-5.645 4.87-6.855.92-.684 1.57-1.158 2.364-1.595.557-.402 1.178-.603 1.813-.945 1.25-.857 2.37-1.159 3.06-.699.692.457.824 1.587.478 3.047-.249.744-.876 1.684-1.602 2.632-.662.733-1.558 1.615-2.372 2.216-1.787 1.316-3.04 1.77-4.52 2.431-.658.357-1.3.776-2.026 1.262a13.167 13.167 0 0 0-1.675 1.992m13.769-1.856c-.925.402-.104-1.202 1.413-3.169 1.516-1.952 3.392-4.324 4.317-5.722.965-1.409 1.498-2.316 1.884-3.335.083-.213.2-.443.325-.691.065-.303.101-.622.193-.875.175-.517.46-.882.861-1.048.399-.166.877-.117 1.398.114.257.123.53.257.805.496.27.318.549.73.812 1.228.47.963.714 2.197.552 3.58-.19 1.351-.76 2.728-1.578 3.88-1.67 2.294-3.656 3.181-5.488 3.835-1.857.639-3.68.936-5.494 1.707m17.222-6.127c-.435.762-.91-.876-.372-3.245.538-2.327 1.76-4.884 2.474-6.264.733-1.415 1.276-2.224 1.723-3.042l.366-.527c.129-.215.169-.532.292-.741.217-.456.518-.774.901-.912.386-.142.815-.092 1.265.123.223.127.457.203.68.483.224.3.447.688.647 1.159.787 1.73.39 4.43-.707 6.387-2.177 3.884-5.298 3.72-7.27 6.58m13.828-5.008c-1.026.894-.08-1.39 1.055-4.367.348-.748.436-1.486.624-2.19.228-.574.26-1.78.419-2.678.249-1.806.82-4.075 1.368-5.673 1.509-3.381 3.434-5.532 4.978-7.024 1.556-1.483 2.875-2.18 3.587-1.742.712.438.682 1.927.058 3.984-.627 2.054-1.954 4.652-3.032 7.092-.452 1.336-.926 2.528-1.518 3.625-.639 1.351-1.032 2.32-1.916 3.546a31.749 31.749 0 0 1-1.31 1.66c-.454.48-.958.871-1.424 1.298-.923.856-1.937 1.574-2.89 2.469m15.156-11.013c-.516.838-.746-.947-.487-3.57.269-2.641 1.086-5.843 1.622-7.805.304-1.004.588-1.942.898-2.76.23-.82.616-1.469.897-2.236.565-1.514 1.322-2.437 2.14-2.42.816.02 1.536.98 2.04 2.514.259.756.287 1.898.296 3.078a15.449 15.449 0 0 1-.616 3.606c-1.56 4.869-4.754 6.209-6.79 9.593m8.837-2.888c-.63.288-.521-.09.014-.83.538-.719 1.486-1.848 2.164-3.343.717-1.471 1.184-3.25 1.363-5.135.177-1.894.126-3.883.157-5.588.023-3.415.17-6.803.806-9.275.637-2.627 1.625-3.787 2.408-3.73.832.063 1.278 1.786 1.74 3.886.435 2.256.936 5.398.916 9.197-.011 3.778-1.024 7.185-2.804 9.731-1.785 2.583-4.208 4.087-6.764 5.087m25.1-23.147c-.364.937-.81-.955-1.115-3.498-.077-1.268-.432-2.742-.629-4.163a34.875 34.875 0 0 1-.24-2.081c-.084-.655-.233-1.22-.286-1.766a19.218 19.218 0 0 1-.122-3.111c-.075-1.051-.177-2.072-.125-2.928.07-1.727.49-2.916 1.247-3.163.757-.246 1.704.502 2.624 1.907.452.718.934 1.544 1.31 2.592.303 1.147.558 2.46.727 3.853.545 5.565-1.882 8.625-3.392 12.358m4.95-10.108c-.148.592-.391.424-.674-.4-.343-.81-.418-2.376-.045-4.1.364-1.602 1.097-3.53 1.118-4.38.054-.247.072-.812.117-1.194.037-.301-.054-.572-.048-.836.04-.52-.162-1.038-.195-1.504-.39-1.921-1.45-4.381-1.68-6.568a10.544 10.544 0 0 1-.067-1.545 4.61 4.61 0 0 1 .289-1.044c.243-.586.574-.956.992-1.052.418-.096.88.09 1.359.508.243.208.48.49.733.79.274.244.545.512.8.8 1.02 1.288 2.781 3.233 3.647 6.851.71 3.843-.872 6.691-2.558 8.441-1.582 1.615-3.266 2.764-3.789 5.233m9.05-13.067c.105.505-.076.543-.481.172-.433-.358-1.064-1.154-1.575-2.427-.441-1.257-.7-2.909-.73-4.44-.042-1.518-.064-2.928-.147-4.111l.005.236a20.803 20.803 0 0 1-.513-2.408c-.264-1.253-.561-2.471-.74-3.707-.219-1.303-.377-2.51-.344-3.486.114-1.932.573-3.214 1.347-3.39.772-.177 1.714.788 2.61 2.49.47.828.99 1.728 1.44 2.783.452 1.137.963 2.5 1.28 4.022.191 1.175.288 2.285.313 3.296l.006.234c-.314 2.413-1.2 4.042-1.847 5.584-.658 1.512-1.147 3.206-.625 5.152m4.849-10.863c-.309 1-.967-.772-1.43-3.465-.423-2.73-.693-6.004-1.162-7.77-.024-.504-.22-.904-.314-1.337-.134-.404-.119-.917-.294-1.228-.332-.718-.234-1.424-.649-2.243-.646-1.572-.726-2.821-.089-3.376.635-.557 1.871-.311 3.35.534.733.33 1.575 1.442 2.4 2.504.47.555.637 1.195.948 1.86.264.667.578 1.367.647 2.103.118.733.19 1.439.216 2.106a17.754 17.754 0 0 1-.228 1.822c-.172 1.183-.617 2.097-.994 3.052-.827 1.827-1.788 3.456-2.401 5.438"/>
    <path fill="#ececee" d="M247.525 240.97c.195.713.475 1.316.475 1.782l-.012 1.037c-.02.463-.088.484-.194.151-.19-.487-.348-3.335-3.173-5.007-.702-.368-1.498-.71-2.415-.772-.472-.08-.884-.021-1.303-.003-.378.05-1.365.246-1.542.38-1.934.612-3.317 2.69-5.299 5.29-2.1 2.583-4.588 5.06-7.837 7.196-1.607 1.09-3.403 1.97-5.835 2.617-.566.151-.958.148-1.45.231l-.708.095-.089.012-.044.006-.295.015-.2-.009-.404-.018c-1.091-.098-2.147.024-3.318-.306-2.252-.285-4.815-1.553-6.643-3.632-1.901-2.153-2.417-4.847-2.748-7.458-.31-4.434.637-9.635 2.766-14.045l.366-.743.185-.374.092-.184.253-.422.861-1.36c.51-.764.65-1.494.578-1.33.039-.096-.02.317.165.552.021.07.33.338.183.169l-.265-.324-.265-.327-.036-.041c-.1-.113.723.787.38.419l.018.038.053.066c.092.077.221.062.263.133.36.033-.36.057-1.256.475l-.764.321-1.126.425-.404.122-.2.062-.101.03-.345.08-1.12.184c-1.457.166-2.881.146-4.435-.145-.787-.146-1.545-.375-2.492-.811a10.517 10.517 0 0 1-1.55-1.01l-.313-.285-.156-.143-.08-.074-.038-.036c.056.069-.62-.67-.363-.398-1.392-1.743-1.772-3.801-1.787-5.414.033-3.285 1.014-5.768 2.108-8.162 1.112-2.299 2.725-4.817 5.069-6.608 2.211-1.729 4.337-2.736 6.02-3.775.44-.259.853-.514 1.1-.701.287-.19.59-.371 1.044-.787l.62-.529c-.121.122.006-.08.006-.08.115-.06.1-.214.18-.309.05-.273.159-.65.032-1.164-.009-.244-.124-.5-.204-.76-.097-.28-.118-.235-.2-.502l-.451-.642-.112-.16-.056-.08-.027-.04c-.053-.073.34.455.165.227l-.112-.08c-.115-.113-.239-.262-.513-.399-.407-.303-1.1-.59-1.81-.831-.72-.247-1.53-.44-2.36-.597a31.565 31.565 0 0 0-2.611-.363l-5.417-.14-10.91-.37c-3.44-.19-7.064-.11-10.54-.137-7.121.053-13.747-.404-20.19-.606-12.828-.573-24.307-1.01-34.031-1.568-19.39-1.084-31.373-2.32-31.358-3.448.018-1.129 12.03-1.937 31.443-2.329 9.677-.181 21.303-.341 34.13-.181 6.383-.003 13.218.297 20.061.128 3.506-.021 6.991-.149 10.754.02l11.016.333 5.678.178 1.416.158 1.557.24c1.01.193 2.013.41 3.037.719 2.022.645 4.219 1.473 6.274 3.505l.372.386.182.193.092.098.236.318.362.534c.192.238.593.954.914 1.63.628 1.35.9 2.433 1.062 3.782.324 2.53-.425 5.726-2.568 7.82l-.183.202-.25.226-.06.05-.242.196-.48.39-.487.391-.675.464c-.955.67-1.734 1.099-2.497 1.523-1.49.823-2.928 1.515-4.013 2.204-.558.353-1.05.692-1.457 1.048l-.578.523a9.55 9.55 0 0 0-.58.698c-1.43 1.856-2.728 4.604-3.026 6.614-.047.476-.082.942-.02 1.215 0 .175.059.25.07.357 0 .062.042.06.047.1l.015.057v.015c.086.041-.778-.303-.386-.16h.05c.062 0 .136-.01.192-.003l.395.395c.17.187.05-.027.068.003.003-.021-.095-.033-.033-.003l.26.107c.345.157.855.267 1.37.338.529.068 1.08.074 1.617.054.194-.03.634-.072.634-.072l.524-.13.328-.113 2.126-.71c.905-.223 1.957-.511 3.396-.247.36.075.717.17 1.059.283.333.172.666.37.982.588l.46.338.056.042c.159.17-.275-.315.365.389l.042.053.076.11.316.434.156.22c.11.196.21.404.3.62.184.431.325.894.416 1.34a6.84 6.84 0 0 1-.097 1.999c-.592 2.227-1.73 3.46-2.477 4.547-.436.775-1.545 2.4-1.792 3.353l-.667 1.663-.522 1.866c-.374 1.2-.51 2.598-.678 3.68l-.082 2.076c.006.65.124 1.146.162 1.737.333 2.31 1.548 4.298 3.75 5.257 1.091.454 2.3.835 3.595.924l.964.116.242.03.062.008c.106-.003-.115.01-.08.006l.032-.003.13-.006.513-.032c.675-.054 1.418-.036 1.958-.238 2.37-.517 4.895-1.85 7.082-3.44 2.218-1.618 4.252-3.525 6.098-5.69.935-1.063 1.902-2.165 3.099-2.988 1.191-.835 2.603-1.286 4.045-1.357 2.887-.208 5.706 1.672 6.817 4.205M482.872 27.204c2.124 1.69 1.1 1.263-1.828-.487-2.975-1.672-8.337-3.972-15.243-5.14-3.415-.683-7.234-1.032-11.158-1.417-4.031-.32-8.047-.69-12.058-.675-8.006-.102-15.834.961-21.906 2.908-1.473.544-2.89.929-4.377 1.54-1.458.652-2.895 1.297-4.306 1.93a90.976 90.976 0 0 0-7.728 4.377c-4.74 3.05-8.597 6.325-11.238 9.52-2.63 3.186-4.002 6.316-4.661 8.501-.394 1.055-.56 2.076-.749 2.73-.195.66-.402 1.006-.612 1.009-.21 0-.417-.346-.618-1.006-.204-.663-.438-1.592-.382-3.007-.011-2.753.941-6.698 3.532-10.786 2.582-4.061 6.619-8.09 11.587-11.667a76.542 76.542 0 0 1 8.127-5.034c1.71-.857 2.993-1.418 4.552-2.15 1.553-.669 3.357-1.23 5.066-1.84 6.876-2.099 13.291-2.606 19.165-2.496 5.847.12 11.324.938 16.298 1.917 5.081.968 10.005 2.12 14.83 3.796 4.82 1.636 9.546 3.998 13.707 7.477m-73.975 36.06c.536.826-1.083.049-3.4.122-2.381.017-5.75.605-8.328.613-2.554.018-5.066-.366-6.847-1.213-2.016-.899-2.491-2.028-2.274-2.79.232-.812 1.651-1.027 2.937-1.4a33.316 33.316 0 0 1 6.167-.596c2.526-.011 4.736.53 6.72 1.44 1.96.911 3.806 2.185 5.025 3.823"/>
    <path fill="#ececee" d="M418.504 73.887c.67-.346.652-.02 0 .846-.64.79-2.348 2.137-4.804 2.24-2.437.195-5.013-.701-7.172-1.867a22.762 22.762 0 0 1-2.983-1.985 771.62 771.62 0 0 1-2.09-1.675c-1.17-.89-2.145-1.42-3.219-1.858-1.134-.376-2.384-.692-3.518-.985-2.252-.607-3.747-1.361-3.718-2.21.027-.835 1.424-1.61 3.85-2.104a14.5 14.5 0 0 1 4.648-.183c1.936.284 4.08 1.222 5.731 2.515 1.652 1.343 2.609 2.488 3.485 3.408.918.976 1.783 1.87 2.707 2.64.921.76 1.911 1.42 3.114 1.733 1.184.323 2.632.21 3.97-.515m18.03-4.719c.648-.42.572-.02.059.85-.525.847-1.45 2.152-2.514 3.927-1.088 1.703-2.81 4.126-4.432 5.645l-.308.318-.156.158-.076.082-.038.038-.279.21-.853.578c-.575.37-1.141.762-1.722 1.08-1.2.503-2.359 1.101-3.447 1.297-4.376 1.095-8.146.59-10.68.044-2.552-.599-4.1-1.384-4.089-2.214.012-.832 1.613-1.553 4.15-2.047 2.53-.52 5.894-.785 9.073-1.606 1.605-.397 2.922-.884 4.2-1.407l.247-.088.123-.044.015-.002c.047-.038-.402.306-.211.16l.006-.003.006-.006.032-.02.064-.041.514-.318 1.018-.602c.665-.391 1.384-.742 1.894-1.127 2.256-1.39 4.746-3.323 7.404-4.862m-25.59 65.033c1.976 1.053 1.052 1.003-1.732.214-2.793-.778-7.379-2.417-13.033-3.967-11.217-3.311-26.283-7.035-37.056-9.174-2.671-.655-5.296-1.187-7.837-1.658-2.533-.532-4.977-1.043-7.309-1.531-4.633-.842-8.799-1.593-12.326-2.409-7.252-1.151-11.713-2.397-11.652-3.507.063-1.108 4.631-1.868 11.975-2.169 3.722.1 8.213.29 13.154.766l7.622 1.11c2.651.383 5.373.874 8.122 1.547 2.76.625 5.373 1.265 7.867 1.917 2.483.693 4.814 1.508 7.069 2.265 4.52 1.47 8.59 3.2 12.483 4.963 7.805 3.452 14.797 7.351 22.652 11.633m-203.947-5.447c-1.592.616-1.189.037.582-1.322 1.777-1.335 4.87-3.605 8.886-5.704 7.92-4.438 19.217-9.01 27.658-10.698l3.101-.706c1.036-.151 2.057-.302 3.063-.447 2.01-.281 3.949-.523 5.797-.722 3.778-.232 7.232-.163 10.06-.054 5.478.728 8.856 1.781 8.856 2.923 0 1.15-3.393 2.177-8.86 2.95-2.621.643-5.675 1.162-9.082 1.766-1.725.396-3.534.782-5.411 1.15-.942.176-1.898.357-2.87.54l-2.93.713c-1.98.469-3.875.864-5.705 1.208l-5.234 1.178c-3.408.625-6.535 1.347-9.616 1.99-6.167 1.262-11.97 2.69-18.295 5.235m352.435-3.4c1.669.422 1.93.555 1.14.486-.779-.1-2.632-.408-5.235.395-2.591.701-5.944 2.496-10.433 3.003-2.262.209-4.773-.247-7.036-1.072-2.273-.8-4.41-1.55-6.657-1.52l.159-.006c-1.73.212-3.46 1.499-5.488 2.822-1.971 1.33-4.712 2.622-7.624 2.332l.16.01c-2.965-.031-5.61-1.285-7.786-2.508-2.186-1.242-4.225-2.432-5.84-2.8-3.823-.641-7.513 1.957-11.388 3.742l-1.466.653-1.598.492c-.996.396-2.27.475-3.472.565-1.322.178-2.048-.154-3.056-.23l-.705-.1-.429-.078-.208-.072-.409-.154c-.54-.212-1.116-.393-1.562-.683-1.942-1.045-3.35-2.33-4.707-3.205-1.348-.904-2.656-1.417-4.004-1.668l.182.012c-1.804-.063-3.799.616-5.658 1.32-1.924.792-3.752 1.547-5.48 2.257-3.475 1.447-7.212 2.38-10.27 1.347-3.09-1.027-4.254-3.55-4.944-4.83-.532-1.414-.732-2.22-.555-2.32.179-.1.722.513 1.577 1.743.946 1.015 2.195 2.794 4.521 3.23 2.257.47 5.2-.418 8.485-2.058 1.654-.78 3.417-1.725 5.403-2.601 1.986-.843 4.18-1.81 6.965-1.855l.08-.003.105.015c1.983.248 3.957 1.015 5.623 2.076 1.669 1.048 3.064 2.229 4.46 2.924.346.226.687.29 1.025.429l.256.097.126.05c.23.046-.305-.06-.247-.047h.015l.023.003.045.006.088.012.705.09c.881.055 2.053.405 2.667.166.723-.123 1.422-.084 2.28-.435l1.243-.377 1.272-.574c2.247-.988 4.483-2.402 7.103-3.239 1.243-.528 2.662-.652 3.999-.858l.253-.036.061-.006.015-.003.367.012.027.003.108.018.438.064.87.133c.517.02 1.33.36 1.991.577 2.612 1.039 4.38 2.386 6.205 3.447 1.78 1.045 3.5 1.685 5.241 1.87l.141.006c1.945.296 3.86-.405 5.814-1.541 1.94-1.066 4.051-2.583 6.716-2.776l.088-.006h.024c5.311.326 9.028 3.975 13.781 3.595 2.333-.046 4.71-.686 7.05-1.363 2.348-.655 4.845-1.432 7.36-.979m4.334 88.548c1.347 1.084 1.532 1.314.841.918-.67-.42-2.231-1.478-4.925-1.859-2.643-.461-6.418-.268-10.708-1.71-2.143-.77-4.246-2.236-5.969-3.93-1.746-1.677-3.384-3.25-5.442-4.173l.15.063c-1.661-.542-3.76-.12-6.14.211-2.33.36-5.35.36-7.882-1.128l.141.074c-2.684-1.277-4.58-3.517-6.068-5.53-1.485-2.037-2.858-3.964-4.178-4.977-3.217-2.189-7.627-1.417-11.879-1.453l-1.596-.033-1.656-.232c-1.064-.068-2.258-.536-3.39-.962-1.273-.399-1.8-1-2.684-1.495l-.603-.39-.359-.25-.159-.152-.311-.31c-.403-.417-.856-.825-1.144-1.271-1.344-1.758-2.105-3.503-2.981-4.86-.865-1.38-1.847-2.392-2.97-3.184l.162.086c-1.614-.819-3.705-1.051-5.687-1.206l-5.898-.289c-3.749-.17-7.527-.911-9.89-3.13-2.397-2.225-2.432-4.976-2.541-6.415.088-1.492.232-2.299.435-2.314.203-.015.45.766.73 2.228.446 1.307.86 3.43 2.801 4.804 1.864 1.372 4.902 1.82 8.556 1.739 1.82-.003 3.808-.105 5.97-.054 2.148.084 4.539.146 7.09 1.278l.074.032.089.057c1.705 1.06 3.19 2.582 4.275 4.235 1.093 1.644 1.884 3.29 2.872 4.503.224.348.509.55.762.819l.19.193.098.099a5.562 5.562 0 0 1-.209-.15l.006.004.009.006.02.012.039.023.073.048.609.378c.776.423 1.702 1.233 2.355 1.278.709.19 1.329.524 2.252.572l1.285.184 1.39.024c2.444.063 5.052-.259 7.775.095 1.343.051 2.687.54 3.987.92l.244.075.059.018.017.006.327.164.023.015.091.062.374.244.738.483c.461.238 1.064.884 1.576 1.36 1.955 2.035 3.02 3.989 4.248 5.71 1.2 1.688 2.502 2.987 4.01 3.886l.127.066c1.652 1.084 3.678 1.266 5.916 1.072 2.196-.137 4.734-.602 7.236.345l.082.033.02.012c4.702 2.531 6.607 7.374 11.085 9.039 2.138.944 4.563 1.373 6.969 1.754 2.399.405 4.986.762 7.091 2.23m3.801-43.701c1.544.756 1.77.94 1.012.703-.741-.262-2.488-.948-5.2-.75-2.683.111-6.336 1.086-10.83.601-2.257-.289-4.616-1.255-6.657-2.516-2.053-1.244-3.982-2.409-6.188-2.861l.158.029c-1.735-.172-3.7.674-5.959 1.489-2.206.832-5.156 1.463-7.942.566l.153.044c-2.891-.663-5.212-2.411-7.085-4.032-1.877-1.64-3.621-3.202-5.124-3.894-3.6-1.425-7.754.239-11.919 1.092l-1.567.303-1.665.123c-1.056.157-2.321-.041-3.515-.21-1.33-.117-1.971-.584-2.939-.873l-.67-.246-.403-.163-.186-.114-.37-.234c-.483-.315-1.006-.61-1.383-.978-1.68-1.4-2.788-2.913-3.93-4.031-1.129-1.142-2.3-1.907-3.564-2.432l.173.05c-1.747-.447-3.838-.234-5.809.034l-5.827.955c-3.703.622-7.55.704-10.324-.925-2.81-1.632-3.415-4.263-3.82-5.62-.224-1.446-.25-2.249-.057-2.307.194-.055.597.64 1.177 1.982.709 1.162 1.559 3.107 3.741 4.018 2.106.925 5.171.718 8.727-.126 1.78-.382 3.7-.896 5.827-1.3 2.12-.37 4.468-.81 7.2-.256l.08.015.097.035c1.888.66 3.66 1.807 5.062 3.164 1.412 1.346 2.53 2.76 3.748 3.711.29.29.611.423.914.628l.23.146.111.073-.232-.1.006.003.009.003.023.01.042.014.082.029.673.236c.85.243 1.921.824 2.571.727.733.038 1.41.225 2.321.08l1.294-.091 1.365-.269c2.403-.45 4.886-1.305 7.624-1.536 1.324-.233 2.738-.046 4.089.047l.252.02.065.006h.015l.356.09.026.01.103.04.415.155.824.31c.5.131 1.22.624 1.82.972 2.339 1.541 3.786 3.19 5.348 4.584 1.52 1.366 3.065 2.338 4.73 2.884l.135.038c1.841.695 3.862.44 6.009-.21 2.12-.593 4.503-1.571 7.147-1.183l.089.012.023.006c5.124 1.445 7.995 5.684 12.719 6.344 2.288.458 4.747.359 7.18.225 2.432-.117 5.035-.316 7.4.65M140.437 52.1c.8.199 2.854.964 4.851 3.127 2.027 2.084 3.971 5.221 7.092 7.651 1.56 1.155 3.417 1.935 5.652 2.457 2.205.533 4.877 1.14 7.244 2.703l.053.035.076.064c2.141 1.835 2.968 4.345 3.913 6.312.915 2.04 2.02 3.632 3.666 4.514l.015.009.12.076c1.704 1.082 3.824 1.475 6.174 1.68 2.337.252 4.91.229 7.757 1.41l.78.401.39.203.194.1.097.05.047.023.32.208.023.02 1.437 1.372c1.03.87 1.587 1.97 2.355 2.938 1.247 2.002 2.2 3.978 3.168 5.56l.712 1.188.801 1.017c.505.774 1.094 1.143 1.613 1.66.367.542 1.517.94 2.267 1.406l.616.329.062.017.264.07c.352.086.666.232 1.076.253 1.106.184 2.385.184 3.728.21a15.123 15.123 0 0 0-1.707 3.838c-.815-.006-1.675-.032-2.599-.158-.525-.03-1.096-.217-1.654-.358l-.42-.117-.21-.059-.393-.187-.63-.329c-.866-.522-1.643-.677-2.62-1.58-.927-.765-1.921-1.565-2.514-2.45l-1.023-1.31-.827-1.364c-1.44-2.383-2.408-4.67-3.713-6.396-.572-.968-1.367-1.592-2.056-2.337l-.115-.12-.284-.155-.772-.422c-.557-.364-.888-.311-1.308-.478-1.727-.513-4.035-.675-6.258-.988-2.247-.331-4.57-1.055-6.553-2.386-2.501-1.492-3.892-4.055-4.698-6.218-.85-2.184-1.478-4.236-2.842-5.56-1.751-1.3-3.86-2.035-6.104-2.736-2.27-.698-4.598-1.744-6.402-3.406-1.848-1.63-3.223-3.609-4.628-5.632-1.396-1.978-2.828-4.148-5.145-5.44-1.604-.754-1.9-.962-1.088-.716M84.44 122.106c.817-.152 3.028-.31 5.771.82 2.741 1.047 5.843 3.08 9.733 3.985 1.92.397 3.953.339 6.226-.116 2.248-.432 4.96-.99 7.792-.555l.062.009.098.026c2.74.773 4.554 2.702 6.252 4.09 1.697 1.468 3.383 2.448 5.265 2.565l.017.003.143.018c2.02.274 4.133-.248 6.379-1.036 2.252-.738 4.604-1.827 7.715-1.937l.89.04.44.02.22.01.11.005.056.003.379.056.03.009 1.896.644c1.312.362 2.287 1.126 3.401 1.684 1.988 1.295 3.695 2.687 5.248 3.72l1.155.779 1.165.589c.764.475 1.445.578 2.118.814a12.86 12.86 0 0 0-4.172 2.649l-1.235-.63-1.334-.89c-2.325-1.56-4.174-3.227-6.1-4.25-.934-.64-1.926-.876-2.874-1.264l-.154-.059-.326-.023-.886-.064c-.664-.1-.948.085-1.402.108-1.804.254-3.99 1.065-6.165 1.7-2.202.631-4.64.937-7.025.555-2.925-.315-5.28-2.057-6.928-3.679-1.703-1.625-3.143-3.22-4.954-3.854-2.154-.45-4.4-.242-6.758.053-2.38.309-4.954.326-7.312-.43-2.383-.708-4.48-1.93-6.62-3.18-2.118-1.213-4.343-2.581-7.016-2.789-1.79-.017-2.15-.084-1.3-.198m23.008-38.091c.824.023 2.996.324 5.413 1.997 2.43 1.591 5.006 4.22 8.58 5.911 1.773.787 3.753 1.149 6.05 1.175 2.27.047 5.01.064 7.662 1.076l.06.023.084.044c2.491 1.323 3.838 3.582 5.185 5.293 1.335 1.784 2.758 3.09 4.557 3.597l.018.003.132.05c1.898.685 4.055.615 6.394.312 2.338-.257 4.844-.834 7.881-.295l.851.222.423.113.317.082.052.015.358.134.027.014 1.699 1.023c1.194.627 1.975 1.574 2.937 2.35 1.646 1.676 3.005 3.39 4.29 4.722l.954 1 1 .816c.66.641 1.318.875 1.937 1.265.472.45 1.684.589 2.515.88l.674.19h.065l.27.012c.364.008.704.081 1.11.014 1.546-.078 3.274-.592 5.205-.88 1.933-.3 4.04-.222 5.96.323l.102.03.07.029c1.509.661 2.682 1.533 3.721 2.443-1.438.326-2.732.839-3.88 1.518a8.348 8.348 0 0 0-1.114-.542c-1.315-.283-2.694-.33-4.25-.052-1.578.256-3.359.854-5.542 1.034-.52.085-1.118.024-1.693.006l-.437-.023-.217-.015-.423-.096-.69-.184c-.956-.32-1.748-.306-2.896-.973-1.07-.545-2.218-1.108-2.984-1.84l-1.285-1.055-1.103-1.145c-1.922-2.006-3.36-4.017-5.006-5.416-.77-.82-1.679-1.254-2.515-1.83l-.135-.091-.311-.09-.845-.245c-.622-.234-.933-.111-1.38-.184-1.8-.128-4.09.21-6.329.382-2.265.157-4.692-.047-6.919-.916-2.764-.912-4.674-3.104-5.927-5.03-1.303-1.94-2.36-3.796-3.979-4.79-1.99-.886-4.205-1.148-6.552-1.35-2.368-.192-4.865-.708-6.99-1.935-2.154-1.187-3.926-2.813-5.733-4.478-1.793-1.623-3.657-3.422-6.2-4.18-1.732-.387-2.066-.527-1.218-.463M458 236c29 9 45.302 12.063 72.772 21.555 4.777 1.65 9.688 3.28 14.062 5.85 13.11 7.704 8.072 31.2 5.621 42.694-6.167 28.919-17.421 56.545-25.921 84.8-2.749 9.137 11.487 13.013 14.218 3.925 9.42-31.315 21.359-61.77 27.82-93.92 3.531-17.576 1.393-42.183-16.524-51.465-29.897-15.49-58.034-14.822-88.391-28.939-8.568-3.985-12.275 11.492-3.657 15.5Z"/>
    <path fill="#ececee" d="M506.304 417.484c-.232.9-.543.582-.865-.637-.33-1.21-.644-3.377-.268-6 .325-2.619 1.324-5.688 2.97-8.36 1.643-2.67 3.814-4.902 5.805-6.431 4.029-3.049 8.313-4.504 11.471-4.914 3.292-.434 5.164.174 5.543 1.198.608 2.276-5.841 5.434-12.007 10.147-3.092 2.347-5.478 4.203-7.72 6.426-2.183 2.216-4.103 4.95-4.929 8.571"/>
    <path fill="#ececee" d="M534.826 439.285c.455 1.025-.003.912-1.128-.11a10.981 10.981 0 0 1-1.965-2.259c-.76-.98-1.425-2.199-2.129-3.56-1.34-2.725-2.523-6.038-3.41-9.278-.903-3.266-1.61-6.14-1.943-9.32-.079-.748-.16-1.485-.24-2.216-.043-.722.048-1.418.074-2.11.087-1.382.204-2.707.344-3.958a45.796 45.796 0 0 1 1.621-6.3c1.282-3.356 2.623-5.344 3.718-5.163 1.095.179 1.737 2.49 1.89 6.08.154 1.748.163 3.778.148 5.977.079 1.073.129 2.19.146 3.343.026.574-.023 1.171.041 1.748.079.57.16 1.147.245 1.732.216 2.208.456 4.844.59 7.058.111 2.273.076 4.336.1 6.348.058 3.997.005 7.91 1.898 11.988"/>
    <path fill="#ececee" d="M548.688 436.284c.7.975.186.913-1.18.065-1.386-.815-3.541-2.574-5.62-5.152-2.078-2.566-4.068-5.894-5.589-9.304-1.53-3.41-2.633-6.847-3.39-9.7-1.464-5.713-2.214-10.792-2.65-14.5-.37-3.57-.479-6.263.608-6.644 1.027-.357 2.902 1.228 4.865 4.902 1.92 3.528 3.617 8.669 5.034 14.2 1.427 5.532 2.055 9.908 2.95 14.092.91 4.14 2.079 8.191 4.972 12.041"/>
    <path fill="#ececee" d="M552.81 419.417c.947 1.416-1.756.126-5.68-2.505-1.979-1.316-3.726-3.03-5.617-4.725l-.683-.643-.168-.161-.042-.038-.19-.237-.084-.108-.336-.433c-.44-.59-.872-1.172-1.293-1.742-.674-1.17-1.36-2.342-1.73-3.392-1.638-4.251-1.936-7.932-1.987-10.473.027-1.237.084-2.391.259-3.263.195-.86.559-1.43 1.091-1.622.535-.196 1.19 0 1.922.52.736.5 1.524 1.357 2.306 2.658 1.581 2.488 2.83 5.973 4.113 9.262l1.73 4.298.023.062.012.032.003.017.003.006c.033.041-.264-.333-.138-.172l.003.005.081.14.157.279.306.558.569 1.111c.363.737.7 1.47 1.016 2.202.622 1.494 1.185 2.915 1.924 4.213.71 1.348 1.486 2.733 2.43 4.151m-185.453-155.43c2.87.176 1.823.512-1.928.88-3.742.309-10.197.153-17.784-1.248-7.581-1.39-16.255-4.092-24.323-8.042-8.063-3.938-15.512-9.136-20.784-14.563-5.345-5.328-9.43-11.577-11.831-17.831-2.457-6.252-2.983-12.448-2.59-17.407.338-4.98 1.753-8.851 2.836-11.356 1.227-2.349 2.157-3.57 2.692-3.405.534.165.616 1.698.31 4.332-.087 2.55-.519 6.087-.128 10.467.349 4.324 1.33 9.378 3.742 14.487 2.371 5.113 5.976 10.302 10.701 15.014 4.658 4.769 9.595 8.439 14.338 11.668 4.776 3.2 9.478 5.866 14.203 8.17 9.47 4.513 19.052 8.012 30.546 8.834M163.501 231.95c-1.685.314 1.115-.893 4.933-2.96 3.892-1.996 8.345-5.593 11.027-8.48 1.481-1.338 2.535-2.891 3.68-4.185 1.018-1.344 1.776-2.615 2.614-3.653 1.322-2.425 2.384-3.85 2.912-3.655.523.192.416 1.951-.224 4.644-.552 1.329-1.195 3.033-2.192 4.705-1.09 1.576-2.22 3.408-3.869 4.918-3.077 3.245-6.385 4.88-9.415 6.165-1.535.625-3.122.98-4.642 1.462-1.55.416-3.178.637-4.824 1.039"/>
  </g>
</svg>
