<svg xmlns="http://www.w3.org/2000/svg" width="826" height="930" viewBox="0 0 826 930"><g fill="none" transform="translate(.147 .708)"><path fill="#313945" d="M578.876098,0.500805363 C585.758098,-0.366694637 593.286098,0.0413053629 600.184098,0.608505363 C601.209431,0.69277203 602.233764,0.789738696 603.257098,0.899405363 C604.279764,1.0091387 605.301431,1.13160536 606.322098,1.26680536 C607.342098,1.4019387 608.360098,1.5497387 609.376098,1.71020536 C610.392764,1.87067203 611.407098,2.04377203 612.419098,2.22950536 C613.431098,2.4152387 614.440764,2.61350536 615.448098,2.82430536 C616.454764,3.03517203 617.459098,3.25850536 618.461098,3.49430536 C619.462431,3.73017203 620.460764,3.9784387 621.456098,4.23910536 C622.451431,4.49977203 623.443431,4.77277203 624.432098,5.05810536 C625.420764,5.34350536 626.405764,5.64110536 627.387098,5.95090536 C628.368431,6.26077203 629.345431,6.58280536 630.318098,6.91700536 C631.291431,7.25120536 632.260431,7.5974387 633.225098,7.95570536 C634.189764,8.31397203 635.149764,8.68420536 636.105098,9.06640536 C637.060431,9.44860536 638.010764,9.84260536 638.956098,10.2484054 C639.902098,10.6542054 640.842431,11.0717387 641.777098,11.5010054 C642.712431,11.9302054 643.642431,12.370972 644.567098,12.8233054 C645.491098,13.2756387 646.409431,13.7394387 647.322098,14.2147054 C648.234764,14.6899054 649.141431,15.176372 650.042098,15.6741054 C650.942098,16.1719054 651.836098,16.6808054 652.724098,17.2008054 C653.612098,17.7208054 654.493431,18.251772 655.368098,18.7937054 C656.242764,19.3356387 657.110764,19.888372 657.972098,20.4519054 C658.832764,21.0154387 659.686431,21.5896054 660.533098,22.1744054 C661.379764,22.7592054 662.219098,23.3544387 663.051098,23.9601054 C663.882431,24.565772 664.706431,25.181672 665.523098,25.8078054 C666.339764,26.4340054 667.148431,27.0702387 667.949098,27.7165054 C668.749764,28.362772 669.542431,29.0189054 670.327098,29.6849054 C671.111098,30.350972 671.886764,31.0266387 672.654098,31.7119054 C673.422098,32.3972387 674.181098,33.0920054 674.931098,33.7962054 C675.681098,34.5004054 676.422431,35.2138387 677.155098,35.9365054 C677.887764,36.6591054 678.611098,37.3907387 679.325098,38.1314054 C680.039764,38.872072 680.744764,39.6215054 681.440098,40.3797054 C682.136098,41.1378387 682.822098,41.9045387 683.498098,42.6798054 C684.174764,43.455072 684.841764,44.2386387 685.499098,45.0305054 C710.213098,74.5926054 719.111098,112.937605 715.542098,150.754605 C711.682098,191.657605 694.099098,228.918605 662.084098,255.213605 C636.943098,275.861605 604.143098,286.827605 571.726098,287.266605 C563.572098,287.376605 555.522098,286.540605 547.419098,285.752605 C548.983098,293.357605 550.166098,300.897605 550.370098,308.677605 C551.247098,342.181605 538.472098,373.008605 515.441098,397.160605 C517.439098,397.218605 519.393098,397.364605 521.370098,397.662605 C534.609098,399.658605 551.311098,404.994605 559.561098,416.309605 C566.619098,425.988605 566.956098,439.100605 565.171098,450.500605 C561.658098,472.934605 548.776098,495.197605 534.224098,512.340605 C531.076098,516.047605 527.781098,520.090605 523.852098,522.969605 C528.080098,533.933605 530.339098,546.224605 531.279098,557.904605 C534.013098,591.867605 524.476098,626.517605 502.213098,652.553605 C503.049098,666.631605 501.033098,680.720605 498.507098,694.535605 C503.832098,705.839605 513.429098,717.454605 522.960098,725.543605 C523.584764,726.080939 524.215764,726.610272 524.853098,727.131605 C525.491098,727.652939 526.135098,728.166272 526.785098,728.671605 C527.435764,729.177605 528.092431,729.675272 528.755098,730.164605 C529.417764,730.653939 530.086098,731.134939 530.760098,731.607605 C531.434764,732.080272 532.115098,732.544605 532.801098,733.000605 C533.487098,733.456605 534.178764,733.904272 534.876098,734.343605 C535.572764,734.782272 536.275098,735.212272 536.983098,735.633605 C537.690431,736.054939 538.403098,736.467605 539.121098,736.871605 C539.839098,737.275605 540.561764,737.670605 541.289098,738.056605 C542.017098,738.443272 542.749431,738.820272 543.486098,739.187605 C544.223431,739.555605 544.965098,739.914605 545.711098,740.264605 C546.456431,740.613939 547.206431,740.954272 547.961098,741.285605 C548.715098,741.616939 549.473098,741.938605 550.235098,742.250605 C550.997764,742.563272 551.763764,742.866272 552.533098,743.159605 C553.303098,743.452939 554.076431,743.736939 554.853098,744.011605 C555.629764,744.285605 556.409764,744.550272 557.193098,744.805605 C557.975764,745.060939 558.761764,745.306272 559.551098,745.541605 C560.340431,745.777605 561.132764,746.003605 561.928098,746.219605 C562.722764,746.435605 563.520098,746.641605 564.320098,746.837605 C565.120098,747.034272 565.922431,747.220939 566.727098,747.397605 C567.531764,747.573605 568.338431,747.739939 569.147098,747.896605 C569.955764,748.053272 570.766098,748.199939 571.578098,748.336605 C572.390764,748.473272 573.204764,748.599939 574.020098,748.716605 C574.835431,748.832605 575.652098,748.938939 576.470098,749.035605 C577.288098,749.131605 578.107431,749.217605 578.928098,749.293605 C579.748098,749.369605 580.569098,749.435605 581.391098,749.491605 C582.212431,749.547605 583.034764,749.593272 583.858098,749.628605 C584.680764,749.663939 585.504098,749.688939 586.328098,749.703605 C587.151431,749.718939 587.975098,749.723939 588.799098,749.718605 C589.622431,749.713272 590.445764,749.697939 591.269098,749.672605 C592.092431,749.646605 592.915431,749.610605 593.738098,749.564605 C594.560098,749.518605 595.381764,749.462605 596.203098,749.396605 C619.351098,747.409605 641.393098,738.346605 656.512098,720.195605 C657.400098,719.108272 658.256098,717.995939 659.080098,716.858605 C659.904098,715.721939 660.694764,714.562272 661.452098,713.379605 C662.208764,712.196939 662.931098,710.993605 663.619098,709.769605 C664.306431,708.544939 664.957764,707.301605 665.573098,706.039605 C666.189098,704.777605 666.767764,703.498939 667.309098,702.203605 C667.851098,700.908272 668.355098,699.598272 668.821098,698.273605 C669.287098,696.949605 669.714764,695.612939 670.104098,694.263605 C670.492764,692.914272 670.842431,691.554939 671.153098,690.185605 C679.500098,654.467605 662.146098,626.892605 650.322098,594.982605 C645.781098,582.727605 642.433098,570.210605 641.261098,557.154605 C638.881098,530.629605 645.320098,504.284605 662.636098,483.625605 C678.629098,464.544605 701.143098,453.221605 725.862098,451.123605 C726.641431,451.052939 727.421764,450.991605 728.203098,450.939605 C728.984431,450.887605 729.766098,450.845605 730.548098,450.813605 C731.330098,450.781605 732.112431,450.758939 732.895098,450.745605 C733.678431,450.732939 734.461431,450.729605 735.244098,450.735605 C736.026764,450.742272 736.809431,450.758605 737.592098,450.784605 C738.374098,450.810605 739.155764,450.846272 739.937098,450.891605 C740.719098,450.936272 741.500098,450.990939 742.280098,451.055605 C743.060098,451.120272 743.839431,451.194605 744.618098,451.278605 C745.396098,451.362605 746.173098,451.456272 746.949098,451.559605 C747.725098,451.662272 748.499764,451.774939 749.273098,451.897605 C750.046431,452.019605 750.818098,452.151605 751.588098,452.293605 C752.358098,452.434939 753.126098,452.585939 753.892098,452.746605 C754.658098,452.906605 755.422098,453.076272 756.184098,453.255605 C756.946098,453.435605 757.705764,453.624605 758.463098,453.822605 C759.220431,454.020605 759.975098,454.228272 760.727098,454.445605 C761.479764,454.662272 762.229098,454.888272 762.975098,455.123605 C763.721764,455.359605 764.465431,455.604605 765.206098,455.858605 C765.946764,456.112605 766.684098,456.375605 767.418098,456.647605 C768.152098,456.919605 768.882431,457.200939 769.609098,457.491605 C770.336431,457.781605 771.059764,458.080605 771.779098,458.388605 C772.499098,458.697272 773.214764,459.014605 773.926098,459.340605 C774.638098,459.666605 775.345764,460.001272 776.049098,460.344605 C776.752431,460.687939 777.451431,461.039939 778.146098,461.400605 C778.840764,461.761939 779.531098,462.131272 780.217098,462.508605 C780.902431,462.886605 781.583098,463.273272 782.259098,463.668605 C782.935098,464.063272 783.606098,464.466272 784.272098,464.877605 C784.938098,465.288939 785.598764,465.708605 786.254098,466.136605 C786.910098,466.563939 787.560431,466.999605 788.205098,467.443605 C788.849764,467.887605 789.489098,468.339605 790.123098,468.799605 C790.756431,469.258939 791.384098,469.726272 792.006098,470.201605 C792.628098,470.676939 793.244098,471.159939 793.854098,471.650605 C794.464764,472.141272 795.068764,472.639272 795.666098,473.144605 C796.188764,473.579272 796.705764,474.020272 797.217098,474.467605 C797.728431,474.915605 798.234431,475.369605 798.735098,475.829605 C799.235764,476.289605 799.730431,476.755605 800.219098,477.227605 C800.708431,477.699605 801.191431,478.177605 801.668098,478.661605 C802.145431,479.145605 802.616764,479.635605 803.082098,480.131605 C803.547431,480.626939 804.006431,481.128272 804.459098,481.635605 C804.911764,482.142272 805.358098,482.654605 805.798098,483.172605 C806.238098,483.690605 806.671764,484.213939 807.099098,484.742605 C807.526431,485.271272 807.947098,485.804939 808.361098,486.343605 C808.775764,486.882939 809.183431,487.426939 809.584098,487.975605 C809.984764,488.524939 810.378431,489.078939 810.765098,489.637605 C811.152431,490.196272 811.532764,490.759605 811.906098,491.327605 C812.279431,491.895605 812.645431,492.468272 813.004098,493.045605 C813.363431,493.622939 813.715431,494.204272 814.060098,494.789605 C814.404764,495.375605 814.742431,495.965605 815.073098,496.559605 C815.403098,497.153605 815.726098,497.751605 816.042098,498.353605 C816.357431,498.955605 816.665431,499.561605 816.966098,500.171605 C817.266764,500.780939 817.559764,501.393939 817.845098,502.010605 C818.131098,502.627272 818.409098,503.247605 818.679098,503.871605 C818.949764,504.494939 819.212431,505.121939 819.467098,505.752605 C819.721764,506.382605 819.968764,507.015605 820.208098,507.651605 C820.447431,508.287605 820.678764,508.926605 820.902098,509.568605 C821.125431,510.210605 821.341098,510.855272 821.549098,511.502605 C821.756431,512.149939 821.956098,512.799605 822.148098,513.451605 C822.339431,514.103605 822.523098,514.757939 822.699098,515.414605 C822.874431,516.071272 823.041764,516.729939 823.201098,517.390605 C823.360431,518.051939 823.511431,518.714605 823.654098,519.378605 C823.797431,520.043272 823.932431,520.709605 824.059098,521.377605 C824.185098,522.045605 824.303431,522.714939 824.414098,523.385605 C824.524098,524.056272 824.625764,524.728272 824.719098,525.401605 C824.813098,526.074272 824.898431,526.748272 824.975098,527.423605 C825.051764,528.098939 825.120431,528.775272 825.181098,529.452605 C826.081098,540.518605 824.385098,557.919605 816.678098,566.611605 C814.683098,568.862605 812.470098,570.227605 809.431098,570.382605 C809.189764,570.393272 808.948431,570.395605 808.707098,570.389605 C808.466431,570.383605 808.225764,570.369272 807.985098,570.346605 C807.745098,570.323939 807.505764,570.293272 807.267098,570.254605 C807.029098,570.215939 806.792764,570.168939 806.558098,570.113605 C806.322764,570.058939 806.089764,569.995939 805.859098,569.924605 C805.628431,569.853939 805.400431,569.775272 805.175098,569.688605 C804.949764,569.601939 804.727764,569.507939 804.509098,569.406605 C804.290431,569.304605 804.075431,569.195272 803.864098,569.078605 C803.652764,568.962605 803.445764,568.839272 803.243098,568.708605 C803.039764,568.577939 802.841431,568.440605 802.648098,568.296605 C802.454764,568.151939 802.266431,568.001272 802.083098,567.844605 C801.899764,567.687272 801.722098,567.523939 801.550098,567.354605 C801.378098,567.185272 801.212098,567.010272 801.052098,566.829605 C800.892098,566.649605 800.738431,566.463939 800.591098,566.272605 C800.443764,566.081272 800.303098,565.885272 800.169098,565.684605 C800.035098,565.483939 799.908098,565.278939 799.788098,565.069605 C797.733098,561.510605 797.155098,556.618605 796.303098,552.630605 C793.382098,538.972605 788.468098,526.167605 777.791098,516.634605 C767.370098,507.329605 753.862098,502.346605 739.907098,503.217605 C727.592098,503.985605 716.260098,509.184605 708.123098,518.540605 C703.782098,523.532605 700.824098,529.589605 698.998098,535.923605 C690.742098,564.562605 709.546098,590.894605 719.466098,616.510605 C725.635098,632.439605 729.967098,649.027605 731.165098,666.110605 C733.676098,701.905605 721.443098,734.684605 698.255098,761.565605 C669.279098,791.831605 633.581098,806.008605 592.066098,807.020605 C550.244098,808.041605 508.129098,792.680605 477.887098,763.741605 C477.045098,787.142605 478.991098,810.484605 478.835098,833.855605 C478.791098,840.441605 477.415098,843.487605 472.752098,848.114605 C473.545098,850.295605 474.344098,852.483605 475.034098,854.699605 C478.754098,866.662605 479.007098,880.996605 473.099098,892.289605 C465.839098,906.166605 448.211098,913.834605 434.092098,918.312605 C404.643098,927.651605 370.802098,932.282605 340.493098,924.543605 C335.172098,923.184605 329.577098,921.606605 324.701098,919.018605 C315.080098,913.911605 309.772098,906.291605 306.672098,896.052605 C306.190098,896.192605 305.706098,896.325605 305.217098,896.439605 C278.648098,902.626605 231.408098,905.568605 207.350098,890.738605 C200.300098,886.391605 194.923098,880.274605 193.044098,872.003605 C192.912764,871.433605 192.795764,870.860605 192.693098,870.284605 C192.589764,869.709272 192.501098,869.131272 192.427098,868.550605 C192.352431,867.970605 192.292431,867.388939 192.247098,866.805605 C192.201764,866.222939 192.170764,865.639272 192.154098,865.054605 C192.137431,864.469939 192.135098,863.884939 192.147098,863.299605 C192.159764,862.714939 192.186764,862.130939 192.228098,861.547605 C192.268764,860.964272 192.324098,860.382272 192.394098,859.801605 C192.464098,859.220939 192.548431,858.642272 192.647098,858.065605 C192.745764,857.488939 192.858764,856.914939 192.986098,856.343605 C193.112764,855.772939 193.253764,855.205605 193.409098,854.641605 C193.564431,854.077605 193.733431,853.517939 193.916098,852.962605 C194.098764,852.406605 194.295098,851.855605 194.505098,851.309605 C194.715098,850.764272 194.938764,850.223939 195.176098,849.688605 C195.412764,849.153939 195.662431,848.625272 195.925098,848.102605 C196.188431,847.579939 196.464098,847.064272 196.752098,846.555605 C197.040764,846.046939 197.341764,845.545605 197.655098,845.051605 C208.375098,828.468605 228.457098,822.029605 246.742098,817.996605 C241.840098,804.511605 239.907098,789.864605 237.402098,775.774605 C230.755098,738.385605 224.727098,699.800605 223.835098,661.788605 C218.614098,658.284605 213.519098,654.964605 210.592098,649.154605 C206.143098,640.324605 208.453098,628.291605 209.332098,618.808605 C210.113431,610.530605 211.120431,602.279939 212.353098,594.056605 C213.586431,585.833272 215.043098,577.649939 216.723098,569.506605 C218.403764,561.362605 220.305764,553.270939 222.429098,545.231605 C224.552431,537.192272 226.893764,529.216939 229.453098,521.305605 C232.004098,513.365605 234.590098,505.251605 237.713098,497.512605 C240.305098,491.088605 243.549098,484.658605 245.598098,478.055605 L245.755098,477.530605 C243.542098,473.105605 241.389098,468.711605 240.655098,463.764605 C239.206098,454.005605 242.940098,447.044605 248.576098,439.554605 C242.090098,438.445605 235.887098,436.091605 229.770098,433.724605 C202.153098,423.041605 182.030098,406.918605 162.718098,384.865605 C156.736098,384.481605 150.599098,383.628605 145.111098,381.090605 C138.932098,378.233605 134.245098,373.240605 131.982098,366.795605 C129.291098,359.130605 130.871098,352.946605 134.147098,345.916605 C128.438098,341.829605 123.537098,336.871605 120.439098,330.501605 C115.144098,319.617605 116.027098,306.350605 119.804098,295.171605 C115.113098,289.737605 111.882098,284.060605 111.049098,276.832605 C110.978431,276.207272 110.920431,275.580939 110.875098,274.953605 C110.738052,273.127605 110.702764,271.299939 110.774098,269.470605 C111.517098,252.888605 125.187098,242.873605 139.767098,238.174605 C149.348098,235.086605 166.244098,234.311605 172.495098,225.609605 C177.482098,218.666605 180.261098,200.752605 183.046098,191.737605 C189.815098,169.832605 200.362098,148.257605 214.690098,130.272605 C240.701098,97.6216054 280.606098,72.6406054 322.543098,67.9706054 C321.338098,66.2886054 320.033098,64.5426054 319.043098,62.7236054 C317.435098,59.7686054 316.338098,56.0386054 317.426098,52.7256054 C318.407098,49.7372054 320.930098,47.7386054 323.684098,46.4364054 C337.330098,39.9836054 357.337098,45.2287054 370.823098,49.8009054 C374.527098,47.8150054 378.235098,46.8298054 382.406098,46.5549054 C389.100098,46.1135054 395.961098,47.4796054 402.459098,48.9458054 C403.974431,49.2807387 405.484431,49.639272 406.989098,50.0214054 C408.493764,50.4035387 409.992098,50.8089387 411.484098,51.2376054 C412.975431,51.666272 414.460098,52.118272 415.938098,52.5936054 C417.416098,53.0689387 418.886098,53.5669387 420.348098,54.0876054 C421.810098,54.608272 423.263764,55.1519387 424.709098,55.7186054 C426.154431,56.2846054 427.590431,56.873272 429.017098,57.4846054 C430.444431,58.095272 431.861764,58.728272 433.269098,59.3836054 C434.675764,60.0389387 436.072098,60.7159387 437.458098,61.4146054 C438.844098,62.113272 440.219098,62.8336054 441.583098,63.5756054 C442.946431,64.3169387 444.298098,65.0796054 445.638098,65.8636054 C446.978098,66.6476054 448.305431,67.452272 449.620098,68.2776054 C450.934764,69.1029387 452.236098,69.948272 453.524098,70.8136054 C454.812764,71.6796054 456.087431,72.565272 457.348098,73.4706054 C458.608764,74.3766054 459.855098,75.3016054 461.087098,76.2456054 C462.318431,77.190272 463.535098,78.1536054 464.737098,79.1356054 C465.939098,80.118272 467.125431,81.119272 468.296098,82.1386054 C472.865098,69.8156054 480.541098,58.5026054 488.964098,48.4966054 C511.944098,21.1957054 543.098098,3.55300536 578.876098,0.500805363 Z"/><path fill="#F2F2F4" d="M460.795098,101.031605 C459.638098,108.531605 455.003098,133.506605 459.444098,139.461605 C460.205098,140.482605 461.205098,141.066605 462.500098,141.129605 C463.967098,141.199605 465.402098,140.266605 466.270098,139.143605 C468.062098,136.824605 473.121098,117.201605 474.836098,112.395605 C490.761098,67.7696054 523.040098,29.0080054 571.870098,20.5365054 C598.903098,15.8465054 628.502098,22.3466054 650.852098,38.2623054 C651.602098,38.806172 652.345098,39.3592054 653.081098,39.9214054 C653.817098,40.4836054 654.546098,41.054772 655.268098,41.6349054 C655.990098,42.2151054 656.704764,42.8041054 657.412098,43.4019054 C658.119431,43.9997054 658.819431,44.6061387 659.512098,45.2212054 C660.204764,45.836272 660.889431,46.4598054 661.566098,47.0918054 C662.243431,47.7237387 662.912764,48.363972 663.574098,49.0125054 C664.235431,49.660972 664.888764,50.3173387 665.534098,50.9816054 C666.178764,51.646272 666.815431,52.3189387 667.444098,52.9996054 C668.072764,53.6796054 668.692764,54.3676054 669.304098,55.0636054 C669.915431,55.7589387 670.518431,56.4619387 671.113098,57.1726054 C671.707098,57.883272 672.292431,58.6009387 672.869098,59.3256054 C673.445098,60.050272 674.012431,60.782272 674.571098,61.5216054 C675.129098,62.260272 675.678098,63.0059387 676.218098,63.7586054 C676.758764,64.511272 677.289431,65.270272 677.810098,66.0356054 C678.331431,66.8009387 678.843431,67.5729387 679.346098,68.3516054 C679.848098,69.1296054 680.340431,69.9139387 680.823098,70.7046054 C681.306431,71.4946054 681.779764,72.2906054 682.243098,73.0926054 C682.706431,73.8946054 683.159764,74.702272 683.603098,75.5156054 C684.046431,76.3289387 684.479431,77.1476054 684.902098,77.9716054 C685.325431,78.7956054 685.738431,79.6246054 686.141098,80.4586054 C686.543764,81.2926054 686.936098,82.1316054 687.318098,82.9756054 C687.700098,83.8189387 688.071431,84.667272 688.432098,85.5206054 C688.793431,86.373272 689.144098,87.230272 689.484098,88.0916054 C689.824098,88.9536054 690.153098,89.819272 690.471098,90.6886054 C690.789764,91.5586054 691.097764,92.432272 691.395098,93.3096054 C691.691764,94.1869387 691.977764,95.0676054 692.253098,95.9516054 C692.528431,96.836272 692.792764,97.7239387 693.046098,98.6146054 C693.299431,99.5059387 693.541764,100.399939 693.773098,101.296605 C694.004431,102.193272 694.224431,103.092939 694.433098,103.995605 C694.642431,104.897605 694.840431,105.802272 695.027098,106.709605 C695.213764,107.616939 695.389431,108.526272 695.554098,109.437605 C695.718098,110.348939 695.871098,111.262272 696.013098,112.177605 C701.778098,147.893605 693.560098,187.927605 672.093098,217.284605 C671.471098,218.132605 670.838764,218.972939 670.196098,219.805605 C669.552764,220.638272 668.899431,221.462605 668.236098,222.278605 C667.572764,223.094605 666.899098,223.902272 666.215098,224.701605 C665.531098,225.500939 664.837431,226.291605 664.134098,227.073605 C663.430764,227.854939 662.717764,228.627939 661.995098,229.392605 C661.271764,230.156605 660.539431,230.911605 659.798098,231.657605 C659.056098,232.402939 658.305098,233.139272 657.545098,233.866605 C656.785098,234.593272 656.016098,235.310605 655.238098,236.018605 C654.460098,236.726605 653.673431,237.424605 652.878098,238.112605 C652.082764,238.800605 651.278764,239.478605 650.466098,240.146605 C649.654098,240.815272 648.833431,241.473272 648.004098,242.120605 C647.175431,242.767939 646.338764,243.404939 645.494098,244.031605 C644.649431,244.658272 643.796764,245.274272 642.936098,245.879605 C642.076098,246.484939 641.208764,247.079605 640.334098,247.663605 C639.458764,248.246939 638.576431,248.819605 637.687098,249.381605 C636.797764,249.942939 635.901764,250.493272 634.999098,251.032605 C634.095764,251.571939 633.186098,252.099605 632.270098,252.615605 C631.353431,253.132272 630.430764,253.637272 629.502098,254.130605 C628.572764,254.623939 627.637764,255.105939 626.697098,255.576605 C625.756431,256.046605 624.809764,256.504605 623.857098,256.950605 C622.904431,257.397272 621.946764,257.831939 620.984098,258.254605 C620.020764,258.676605 619.052431,259.086939 618.079098,259.485605 C617.105098,259.883605 616.126764,260.269605 615.144098,260.643605 C614.160764,261.016939 613.173098,261.378272 612.181098,261.727605 C611.188431,262.076939 610.191764,262.413605 609.191098,262.737605 C608.191098,263.062272 607.186764,263.373939 606.178098,263.672605 C605.169431,263.971939 604.157431,264.258605 603.142098,264.532605 C602.126764,264.805939 601.108098,265.066939 600.086098,265.315605 C599.064098,265.564272 598.039098,265.799939 597.011098,266.022605 C595.983098,266.245272 594.952431,266.454939 593.919098,266.651605 C592.885764,266.848939 591.850098,267.033272 590.812098,267.204605 C589.774764,267.375272 588.735098,267.533272 587.693098,267.678605 C571.688098,270.067605 555.921098,269.323605 540.048098,266.500605 C535.063098,257.140605 529.657098,248.447605 523.488098,239.829605 C519.782098,235.679605 516.361098,231.322605 512.582098,227.214605 C522.852098,217.184605 532.462098,206.394605 538.148098,193.029605 C540.439098,187.644605 543.204098,179.699605 540.620098,174.042605 C540.158098,173.031605 539.534098,172.324605 538.465098,171.976605 C531.863098,169.822605 510.912098,180.834605 503.996098,184.015605 C505.417098,178.503605 506.257098,172.844605 507.697098,167.324605 C508.284431,165.023939 508.923098,162.737272 509.613098,160.464605 C510.303098,158.192605 511.043764,155.936939 511.835098,153.697605 C512.626431,151.458939 513.467764,149.238939 514.359098,147.037605 C515.250431,144.836272 516.190764,142.656272 517.180098,140.497605 C518.169431,138.338272 519.206431,136.202605 520.291098,134.090605 C521.376431,131.977939 522.508764,129.890939 523.688098,127.829605 C524.866764,125.768272 526.091431,123.734605 527.362098,121.728605 C528.632098,119.721939 529.946764,117.744939 531.306098,115.797605 C547.208098,93.3806054 569.889098,74.7676054 597.625098,70.1576054 C598.641764,69.9829387 599.662098,69.8336054 600.686098,69.7096054 C601.710098,69.586272 602.736431,69.4879387 603.765098,69.4146054 C604.794431,69.3419387 605.824431,69.2949387 606.855098,69.2736054 C607.886431,69.2516054 608.917764,69.2556054 609.949098,69.2856054 C610.979764,69.3149387 612.009431,69.370272 613.038098,69.4516054 C614.066098,69.532272 615.091764,69.6386054 616.115098,69.7706054 C617.137764,69.9019387 618.156764,70.0589387 619.172098,70.2416054 C620.187431,70.424272 621.197431,70.6319387 622.202098,70.8646054 C623.207431,71.097272 624.206098,71.3546054 625.198098,71.6366054 C626.190098,71.919272 627.174431,72.226272 628.151098,72.5576054 C629.127764,72.8889387 630.095764,73.244272 631.055098,73.6236054 C632.014431,74.0029387 632.963764,74.4059387 633.903098,74.8326054 C634.841764,75.259272 635.769764,75.7089387 636.687098,76.1816054 C637.603764,76.654272 638.508098,77.149272 639.400098,77.6666054 C640.292098,78.1846054 641.170764,78.724272 642.036098,79.2856054 C642.901431,79.8469387 643.752431,80.429272 644.589098,81.0326054 C659.681098,92.0516054 668.839098,109.960605 672.466098,127.999605 C673.794098,134.603605 674.246098,141.302605 675.269098,147.948605 C675.573098,149.924605 676.234098,150.522605 677.807098,151.654605 C677.941098,151.750605 678.078098,151.844605 678.213098,151.940605 C684.092098,133.416605 679.746098,109.926605 671.016098,92.9596054 C661.975098,75.3896054 647.222098,62.1736054 628.267098,56.2536054 C606.684098,49.5127054 583.812098,53.1976054 564.092098,63.7446054 C528.661098,82.6956054 505.545098,117.859605 494.261098,155.636605 C491.612098,164.505605 484.139098,191.535605 488.387098,199.126605 C489.203098,200.586605 490.499098,201.529605 492.102098,201.954605 C499.604098,203.945605 516.256098,194.359605 523.496098,190.888605 C520.020098,197.958605 515.977431,204.688272 511.368098,211.077605 C507.616098,216.330605 503.140098,221.513605 500.255098,227.283605 C504.347098,235.302605 509.529098,242.744605 513.807098,250.683605 C529.582098,279.960605 537.509098,311.020605 526.923098,343.721605 C519.533098,366.553605 502.977098,385.308605 484.191098,399.663605 C480.387098,402.570605 476.371098,405.961605 472.061098,408.043605 C465.273098,411.323605 456.205098,411.911605 448.844098,413.281605 C440.944098,414.736939 433.084098,416.383605 425.264098,418.221605 C381.706098,428.467605 330.920098,447.348605 293.916098,472.924605 C288.780098,465.033605 286.339098,456.127605 285.944098,446.750605 C290.586098,445.603605 299.973098,444.484605 302.489098,440.030605 C303.096098,438.954605 303.118098,437.717605 302.696098,436.564605 C302.051098,434.804605 299.704098,433.936605 298.064098,433.458605 C294.139098,432.313605 289.807098,432.040605 285.769098,431.408605 C279.658431,430.430605 273.586764,429.251605 267.554098,427.871605 C240.063098,421.481605 212.752098,409.631605 191.599098,390.613605 C183.935098,383.722605 177.284098,375.996605 170.801098,368.011605 C163.735098,368.552605 154.481098,369.290605 148.631098,364.341605 C146.640098,362.656605 145.730098,360.528605 145.540098,357.952605 C145.026098,350.955605 153.354098,341.817605 153.079098,340.684605 C152.929098,340.065605 151.792098,338.803605 151.305098,338.355605 C148.952098,336.190605 145.927098,334.656605 143.320098,332.810605 C137.521098,328.704605 133.399098,322.317605 132.883098,315.161605 C132.495098,309.778605 133.911098,303.717605 136.344098,298.908605 C148.012098,295.501605 158.498098,291.524605 164.746098,280.320605 C169.078098,272.550605 170.030098,262.809605 167.447098,254.302605 C166.833098,252.278605 166.093098,250.284605 165.368098,248.298605 C177.616098,243.590605 185.629098,237.316605 191.008098,225.082605 C195.882098,213.998605 197.807098,201.549605 202.133098,190.135605 C218.317098,147.431605 248.154098,112.179605 291.293098,95.0836054 C301.874098,90.8906054 313.732098,87.3516054 325.075098,85.8876054 C330.819098,85.1466054 338.126098,85.4256054 343.526098,83.7556054 C345.581098,83.1206054 347.526098,82.0176054 348.357098,79.9226054 C349.279098,77.5956054 348.466098,74.7796054 347.447098,72.6136054 C346.053098,69.6476054 339.535098,63.6426054 340.017098,60.7146054 C342.951098,60.0846054 345.843098,60.5856054 348.783098,60.9476054 C359.405098,62.2536054 369.009098,64.9786054 378.089098,70.8576054 C382.708098,73.8476054 395.168098,87.0226054 399.637098,86.1656054 C401.117098,85.8816054 402.254098,84.8216054 402.957098,83.5336054 C404.271098,81.1316054 403.832098,78.2456054 403.036098,75.7526054 C401.674098,71.4886054 399.116098,67.5656054 396.715098,63.8286054 C421.230098,70.6706054 443.635098,81.7326054 460.795098,101.031605 Z"/><path fill="#FAC3B7" d="M503.996098,184.015605 C505.417098,178.503605 506.257098,172.844605 507.697098,167.324605 C508.284431,165.023939 508.923098,162.737272 509.613098,160.464605 C510.303098,158.192605 511.043764,155.936939 511.835098,153.697605 C512.626431,151.458939 513.467764,149.238939 514.359098,147.037605 C515.250431,144.836272 516.190764,142.656272 517.180098,140.497605 C518.169431,138.338272 519.206431,136.202605 520.291098,134.090605 C521.376431,131.977939 522.508764,129.890939 523.688098,127.829605 C524.866764,125.768272 526.091431,123.734605 527.362098,121.728605 C528.632098,119.721939 529.946764,117.744939 531.306098,115.797605 C547.208098,93.3806054 569.889098,74.7676054 597.625098,70.1576054 C598.641764,69.9829387 599.662098,69.8336054 600.686098,69.7096054 C601.710098,69.586272 602.736431,69.4879387 603.765098,69.4146054 C604.794431,69.3419387 605.824431,69.2949387 606.855098,69.2736054 C607.886431,69.2516054 608.917764,69.2556054 609.949098,69.2856054 C610.979764,69.3149387 612.009431,69.370272 613.038098,69.4516054 C614.066098,69.532272 615.091764,69.6386054 616.115098,69.7706054 C617.137764,69.9019387 618.156764,70.0589387 619.172098,70.2416054 C620.187431,70.424272 621.197431,70.6319387 622.202098,70.8646054 C623.207431,71.097272 624.206098,71.3546054 625.198098,71.6366054 C626.190098,71.919272 627.174431,72.226272 628.151098,72.5576054 C629.127764,72.8889387 630.095764,73.244272 631.055098,73.6236054 C632.014431,74.0029387 632.963764,74.4059387 633.903098,74.8326054 C634.841764,75.259272 635.769764,75.7089387 636.687098,76.1816054 C637.603764,76.654272 638.508098,77.149272 639.400098,77.6666054 C640.292098,78.1846054 641.170764,78.724272 642.036098,79.2856054 C642.901431,79.8469387 643.752431,80.429272 644.589098,81.0326054 C659.681098,92.0516054 668.839098,109.960605 672.466098,127.999605 C673.794098,134.603605 674.246098,141.302605 675.269098,147.948605 C675.573098,149.924605 676.234098,150.522605 677.807098,151.654605 C677.941098,151.750605 678.078098,151.844605 678.213098,151.940605 C677.087098,177.483605 661.698098,206.889605 642.965098,223.979605 C642.362431,224.536272 641.752764,225.085272 641.136098,225.626605 C640.519431,226.167939 639.896098,226.701605 639.266098,227.227605 C638.636098,227.752939 637.999764,228.270605 637.357098,228.780605 C636.714431,229.290605 636.065431,229.792605 635.410098,230.286605 C634.754764,230.780605 634.093431,231.266605 633.426098,231.744605 C632.759431,232.221939 632.086431,232.690939 631.407098,233.151605 C630.728431,233.612272 630.044098,234.064605 629.354098,234.508605 C628.663431,234.952605 627.967764,235.387939 627.267098,235.814605 C626.565764,236.240605 625.859764,236.658272 625.149098,237.067605 C624.437764,237.476272 623.721431,237.876272 623.000098,238.267605 C622.278764,238.658939 621.552764,239.041272 620.822098,239.414605 C620.091431,239.787272 619.356098,240.151272 618.616098,240.506605 C617.876098,240.861272 617.132098,241.206939 616.384098,241.543605 C615.635431,241.880272 614.882764,242.207272 614.126098,242.524605 C613.370098,242.842605 612.609764,243.150939 611.845098,243.449605 C611.081098,243.748272 610.313431,244.037605 609.542098,244.317605 C608.770764,244.597605 607.996098,244.867939 607.218098,245.128605 C606.440098,245.389272 605.659098,245.639939 604.875098,245.880605 C604.090431,246.121939 603.303098,246.353605 602.513098,246.575605 C601.723098,246.796939 600.930431,247.008605 600.135098,247.210605 C599.339764,247.412605 598.542098,247.604605 597.742098,247.786605 C596.942098,247.968605 596.140098,248.140605 595.336098,248.302605 C594.531431,248.465272 593.725098,248.617605 592.917098,248.759605 C592.109098,248.901605 591.299431,249.033605 590.488098,249.155605 C589.676098,249.278272 588.863098,249.390272 588.049098,249.491605 C587.235098,249.593605 586.419764,249.685605 585.603098,249.767605 C584.787098,249.848939 583.969764,249.920272 583.151098,249.981605 C582.333098,250.042939 581.514431,250.094272 580.695098,250.135605 C579.875764,250.176272 579.055764,250.206939 578.235098,250.227605 C577.415098,250.248272 576.594764,250.259605 575.774098,250.259605 C574.953431,250.259605 574.133098,250.249605 573.313098,250.229605 C572.492431,250.209605 571.672431,250.179272 570.853098,250.138605 C557.380098,249.451605 544.586098,246.118605 532.093098,241.153605 C529.708098,240.205605 526.633098,238.540605 524.043098,239.126605 L523.488098,239.829605 C519.782098,235.679605 516.361098,231.322605 512.582098,227.214605 C522.852098,217.184605 532.462098,206.394605 538.148098,193.029605 C540.439098,187.644605 543.204098,179.699605 540.620098,174.042605 C540.158098,173.031605 539.534098,172.324605 538.465098,171.976605 C531.863098,169.822605 510.912098,180.834605 503.996098,184.015605 Z"/><path fill="#313945" d="M260.283098,217.818605 C263.609098,217.590605 266.557098,217.892605 269.529098,219.526605 C274.478098,222.246605 277.522098,227.359605 279.141098,232.626605 C282.542098,243.688605 281.217098,257.699605 275.708098,267.885605 C271.728098,275.243605 266.126098,279.606605 258.113098,281.931605 C254.211098,282.474605 251.033098,282.385605 247.487098,280.476605 C242.517098,277.800605 239.630098,272.499605 238.166098,267.223605 C234.905098,255.463605 237.764098,240.934605 243.824098,230.518605 C247.733098,223.798605 252.741098,219.831605 260.283098,217.818605 Z M355.856098,292.003605 C371.035098,290.023605 418.598098,294.079605 430.398098,303.260605 C431.731098,304.298605 432.044098,305.110605 432.208098,306.751605 C431.777098,307.719605 431.357098,308.407605 430.552098,309.095605 C429.253098,310.208605 427.993098,310.462605 426.329098,310.439605 C420.787098,310.362605 414.660098,308.441605 409.124098,307.573605 C399.198764,305.998272 389.219764,304.923939 379.187098,304.350605 C368.326098,304.251605 357.585098,304.148605 346.760098,305.142605 C339.593098,305.800605 332.391098,306.443605 325.249098,307.323605 C318.980098,308.096605 311.227098,310.294605 304.984098,309.466605 C303.130098,309.221605 301.911098,308.394605 300.747098,306.961605 C300.624098,305.568605 300.612098,305.335605 301.552098,304.181605 C307.968098,296.295605 344.945098,292.728605 355.856098,292.003605 Z M308.349098,329.411605 C326.086098,329.678605 345.034098,333.541605 361.783098,339.196605 C372.667098,342.870605 412.973098,359.244605 417.234098,369.190605 C417.653098,370.169605 417.666098,371.139605 417.265098,372.105605 C416.364098,374.278605 414.273098,374.906605 412.241098,375.643605 C404.805098,372.360605 397.631098,368.445605 390.286098,364.957605 C380.275431,360.223605 370.037098,356.048939 359.571098,352.433605 C350.030098,349.159605 340.144098,346.545605 330.341098,344.177605 C323.688098,342.570605 310.146098,340.816605 304.536098,337.558605 C303.367098,336.880605 302.966098,336.083605 302.583098,334.809605 C302.674098,334.072605 302.760098,333.424605 303.168098,332.781605 C304.446098,330.770605 306.103098,329.953605 308.349098,329.411605 Z M284.283098,141.868605 C294.561098,140.675605 304.643098,143.396605 313.155098,149.228605 C318.900098,153.164605 328.438098,161.945605 329.540098,169.114605 C329.797098,170.789605 329.457098,172.395605 328.355098,173.707605 C327.468098,174.763605 326.095098,175.760605 324.664098,175.750753 C322.686098,175.736605 321.206098,174.253605 319.875098,172.995605 L319.408098,172.547605 C307.788098,160.424605 298.385098,153.989605 281.015098,155.566605 C278.696098,155.776605 275.380098,156.894605 273.209098,156.011605 C271.788098,155.433605 270.318098,154.328605 269.842098,152.834605 C269.537098,151.875605 269.848098,150.882605 270.354098,150.042605 C273.206098,145.300605 279.144098,142.987605 284.283098,141.868605 Z"/><path fill="#7A7BBE" d="M501.940098,411.506605 L502.511098,411.452605 C513.357098,410.511605 531.667098,413.540605 540.067098,420.872605 C544.972098,425.154605 547.050098,431.161605 547.335098,437.524605 C548.421098,461.742605 532.175098,487.144605 516.449098,504.379605 C507.506098,488.172605 498.478098,472.715605 482.969098,461.806605 C464.770098,449.005605 443.264098,446.098605 421.651098,449.963605 C413.907764,451.413605 406.312431,453.422939 398.865098,455.991605 C384.368098,460.865605 326.582098,483.446605 318.766098,494.644605 C318.528098,496.003605 318.450098,495.917605 319.236098,497.037605 C327.346098,499.073605 380.692098,478.173605 391.780098,474.397605 C400.158098,471.543605 408.782098,468.746605 417.434098,466.846605 C427.359098,464.667605 438.052098,463.415605 448.178098,464.801605 C464.310098,467.009605 477.145098,475.635605 486.794098,488.505605 C506.464098,514.743605 516.763098,554.157605 512.096098,586.388605 C509.325098,605.525605 501.960098,623.308605 491.193098,639.303605 C488.303098,643.596605 485.052098,648.304605 480.787098,651.352605 C474.934098,655.536605 465.887098,654.310605 459.203098,653.141605 C445.517098,650.748605 429.982098,642.631605 420.203098,632.768605 C416.385098,628.918605 413.350098,624.537605 410.260098,620.109605 C418.778098,603.130605 424.140098,585.145605 422.203098,566.048605 C421.864098,563.676605 421.274098,561.302605 420.598098,559.005605 C417.402098,548.146605 406.308098,531.934605 396.062098,526.946605 C394.585098,526.227605 393.628098,526.192605 392.100098,526.712605 C391.290098,527.662605 390.483098,528.616605 390.594098,529.986605 C391.157098,536.879605 406.135098,549.987605 407.302098,567.057605 C408.208098,580.320605 403.742098,594.144605 398.610098,606.225605 C394.366098,616.213605 390.155098,624.589605 389.713098,635.630605 C383.363098,641.066605 376.670098,646.191605 369.192098,649.987605 C355.653098,656.860605 333.485098,660.255605 318.505098,660.730605 C292.712098,661.549605 265.424098,658.905605 241.083098,649.929605 C235.761098,647.966605 229.774098,645.685605 225.574098,641.746605 C223.258098,600.856605 243.105098,526.030605 258.543098,487.770605 C260.980098,489.417605 263.662098,492.205605 266.506098,493.000605 C267.778098,493.356605 268.233098,493.202605 269.315098,492.522605 C272.617098,485.415605 254.468098,472.136605 256.460098,457.176605 C256.991098,453.183605 258.932098,449.574605 262.242098,447.225605 C263.939098,446.022605 266.456098,444.532605 268.616098,445.116605 C270.042098,445.502605 270.946098,446.781605 271.474098,448.083605 C272.699098,451.100605 272.804098,454.807605 273.388098,458.026605 C275.026098,467.067605 278.474098,475.959605 283.985098,483.396605 C285.407098,485.315605 287.434098,487.813605 290.022098,488.000605 C296.034098,488.435605 315.524098,475.930605 322.064098,472.589605 C329.002098,469.088272 336.021764,465.758605 343.123098,462.600605 C350.223764,459.441939 357.397431,456.458939 364.644098,453.651605 C371.890764,450.843605 379.201431,448.214272 386.576098,445.763605 C393.951431,443.312939 401.382098,441.043939 408.868098,438.956605 C433.331098,432.059605 457.994098,427.499605 483.365098,425.981605 C489.684098,425.603605 518.809098,425.664605 522.453098,422.657605 C522.624098,421.975605 522.861098,421.651605 522.553098,420.965605 C520.310098,415.975605 507.392098,414.045605 502.783098,411.907605 L501.940098,411.506605 Z"/><path fill="#47759A" d="M240.823098,665.576605 C244.229098,665.988605 247.892098,667.403605 251.202098,668.365605 C257.194098,670.108605 263.162098,671.769605 269.289098,672.976605 C304.070098,679.826605 341.597098,679.467605 375.391098,668.247605 C379.237098,676.557605 383.537098,684.498605 389.480098,691.522605 C400.089098,704.061605 417.792098,714.558605 434.355098,715.894605 C441.626098,716.480605 448.977098,715.075605 454.588098,710.105605 C461.153098,704.290605 464.058098,695.672605 464.574098,687.158605 C473.625098,681.183605 479.350098,674.157605 485.066098,665.022605 C484.550098,684.821605 478.571098,700.327605 471.428098,718.355605 C468.790098,725.013605 466.043098,731.633605 464.252098,738.584605 C459.007098,758.944605 460.219098,796.807605 461.409098,818.324605 C434.587098,829.489605 398.963098,829.086605 370.748098,824.642605 C364.564098,823.571605 358.645098,821.767605 352.713098,819.766605 C349.820098,802.919605 345.084098,786.215605 341.405098,769.510605 C338.927764,758.050605 336.376431,746.607272 333.751098,735.180605 C332.243098,728.603605 331.094098,721.352605 328.436098,715.145605 C323.464098,712.761605 317.479098,711.964605 312.133098,710.650605 C306.384431,709.206605 300.692431,707.565605 295.057098,705.727605 C288.189098,703.432605 281.796098,699.391605 274.911098,697.282605 C272.728098,696.613605 270.576098,696.128605 268.469098,697.237605 C267.923098,698.414605 267.815098,698.945605 268.270098,700.202605 C272.998098,713.288605 301.970098,721.562605 314.057098,726.808605 C317.268098,735.996605 319.012098,745.766605 321.081098,755.264605 C324.870098,772.669605 328.350098,790.293605 332.840098,807.526605 C308.640098,811.561605 282.448098,808.862605 259.183098,801.407605 C252.122098,772.971605 248.410098,742.869605 245.024098,713.809605 C243.172098,697.918605 240.857098,681.577605 240.823098,665.576605 Z"/><path fill="#FAC3B7" d="M728.593098,467.493605 C732.486098,467.093605 736.795098,467.200605 740.700098,467.387605 C741.329431,467.412939 741.958098,467.446272 742.586098,467.487605 C743.214098,467.528939 743.841764,467.578272 744.469098,467.635605 C745.096431,467.692272 745.722764,467.756939 746.348098,467.829605 C746.973431,467.902939 747.597764,467.983939 748.221098,468.072605 C748.844431,468.160605 749.466431,468.256939 750.087098,468.361605 C750.708431,468.465605 751.328098,468.577605 751.946098,468.697605 C752.564098,468.817605 753.180764,468.945272 753.796098,469.080605 C754.410764,469.215939 755.023764,469.359272 755.635098,469.510605 C756.246431,469.661272 756.855764,469.819605 757.463098,469.985605 C758.070431,470.151605 758.675431,470.325605 759.278098,470.507605 C759.881431,470.688939 760.482098,470.877939 761.080098,471.074605 C761.678098,471.271272 762.273764,471.475272 762.867098,471.686605 C763.459764,471.897939 764.049764,472.116939 764.637098,472.343605 C765.225098,472.570272 765.809764,472.803939 766.391098,473.044605 C766.973098,473.285939 767.551764,473.534605 768.127098,473.790605 C768.702431,474.046605 769.274431,474.309605 769.843098,474.579605 C770.411764,474.849605 770.976764,475.126939 771.538098,475.411605 C772.100098,475.695605 772.658431,475.986939 773.213098,476.285605 C773.767098,476.584272 774.317431,476.889605 774.864098,477.201605 C775.410764,477.514272 775.953764,477.833605 776.493098,478.159605 C777.031764,478.485605 777.566098,478.818272 778.096098,479.157605 C778.626098,479.496939 779.152098,479.842939 779.674098,480.195605 C780.195431,480.548939 780.712431,480.908272 781.225098,481.273605 C781.737764,481.639605 782.245431,482.011939 782.748098,482.390605 C783.251431,482.769272 783.749764,483.153939 784.243098,483.544605 C784.736431,483.935939 785.225098,484.333272 785.709098,484.736605 C786.192431,485.139939 786.670431,485.549272 787.143098,485.964605 C787.616431,486.380605 788.084431,486.802272 788.547098,487.229605 C789.009098,487.656272 789.466098,488.088939 789.918098,488.527605 C790.369431,488.966939 790.815431,489.411605 791.256098,489.861605 C791.696098,490.311605 792.130764,490.766939 792.560098,491.227605 C792.988764,491.688939 793.411764,492.155272 793.829098,492.626605 C807.120098,507.468605 811.515098,524.966605 810.472098,544.516605 C806.713098,532.224605 801.458098,521.195605 793.071098,511.334605 C792.349764,510.490605 791.608098,509.664605 790.846098,508.856605 C790.084764,508.049272 789.303764,507.260605 788.503098,506.490605 C787.703098,505.721272 786.884431,504.971939 786.047098,504.242605 C785.210431,503.512605 784.356098,502.803939 783.484098,502.116605 C782.612764,501.428605 781.724764,500.762605 780.820098,500.118605 C779.916098,499.473939 778.996764,498.851939 778.062098,498.252605 C777.127431,497.653939 776.178764,497.077939 775.216098,496.524605 C774.253431,495.971939 773.277431,495.442939 772.288098,494.937605 C771.299431,494.432939 770.299098,493.952272 769.287098,493.495605 C768.275098,493.039605 767.252098,492.608605 766.218098,492.202605 C765.184764,491.796605 764.142098,491.415939 763.090098,491.060605 C762.038764,490.705272 760.978764,490.375939 759.910098,490.072605 C758.842098,489.769939 757.767431,489.493272 756.686098,489.242605 C755.604098,488.991939 754.517098,488.767605 753.425098,488.569605 C752.332431,488.372272 751.235431,488.201605 750.134098,488.057605 C749.033431,487.914272 747.929764,487.797605 746.823098,487.707605 C745.791098,487.622272 744.757431,487.562605 743.722098,487.528605 C742.686764,487.494605 741.651098,487.486272 740.615098,487.503605 C739.579764,487.521605 738.545098,487.564939 737.511098,487.633605 C736.477764,487.702272 735.446764,487.796605 734.418098,487.916605 C733.388764,488.036605 732.363431,488.181939 731.342098,488.352605 C730.320098,488.523939 729.303431,488.720272 728.292098,488.941605 C727.280098,489.162939 726.274098,489.409272 725.274098,489.680605 C724.274764,489.951272 723.282431,490.246939 722.297098,490.567605 C721.312431,490.888272 720.336098,491.233272 719.368098,491.602605 C718.400098,491.971272 717.442098,492.363939 716.494098,492.780605 C715.545431,493.197272 714.607764,493.636939 713.681098,494.099605 C712.754431,494.562939 711.840098,495.048939 710.938098,495.557605 C710.035431,496.065605 709.146098,496.595939 708.270098,497.148605 C707.394098,497.701272 706.532098,498.275272 705.684098,498.870605 C704.836764,499.465939 704.004431,500.081939 703.187098,500.718605 C702.370431,501.355272 701.569764,502.011939 700.785098,502.688605 C699.727098,503.611272 698.703431,504.570939 697.714098,505.567605 C696.725431,506.564272 695.774431,507.595605 694.861098,508.661605 C693.947098,509.727605 693.073098,510.824939 692.239098,511.953605 C691.405098,513.082939 690.612764,514.240939 689.862098,515.427605 C689.112098,516.614939 688.406098,517.827605 687.744098,519.065605 C687.082098,520.303605 686.465764,521.563939 685.895098,522.846605 C685.324431,524.129272 684.801098,525.430939 684.325098,526.751605 C683.849098,528.072272 683.421431,529.408605 683.042098,530.760605 C672.481098,567.731605 696.372098,598.391605 707.291098,631.781605 C712.829098,648.714605 715.423098,666.246605 714.065098,684.059605 C711.753098,714.401605 698.520098,741.209605 675.202098,760.905605 C645.260098,786.195605 610.026098,793.363605 571.746098,790.214605 C537.019098,785.863605 503.438098,771.111605 480.940098,743.573605 C483.794098,733.462605 487.335098,723.518605 490.872098,713.629605 C497.742098,723.718605 505.770098,732.395605 515.250098,740.110605 C540.046098,760.288605 572.005098,768.368605 603.552098,765.024605 C629.786098,762.243605 653.110098,750.266605 669.719098,729.621605 C670.347098,728.846272 670.961764,728.060605 671.563098,727.264605 C672.163764,726.467939 672.750431,725.660939 673.323098,724.843605 C673.895764,724.026272 674.454098,723.199605 674.998098,722.363605 C675.541431,721.526939 676.070431,720.680939 676.585098,719.825605 C677.099098,718.970939 677.598098,718.107272 678.082098,717.234605 C678.566098,716.361939 679.034764,715.481272 679.488098,714.592605 C679.941431,713.703272 680.379098,712.806605 680.801098,711.902605 C681.223098,710.998605 681.629098,710.087605 682.019098,709.169605 C682.409098,708.250939 682.783098,707.325939 683.141098,706.394605 C683.499098,705.463272 683.840764,704.525939 684.166098,703.582605 C684.490764,702.639272 684.799098,701.690605 685.091098,700.736605 C685.383098,699.782605 685.658431,698.823605 685.917098,697.859605 C686.175764,696.896272 686.417431,695.928272 686.642098,694.955605 C686.866764,693.983605 687.074431,693.007939 687.265098,692.028605 C687.455764,691.049272 687.629098,690.066939 687.785098,689.081605 C687.941098,688.096272 688.080098,687.108272 688.202098,686.117605 C695.151098,633.295605 662.826098,605.062605 657.791098,558.018605 C655.410098,535.769605 660.404098,513.161605 674.652098,495.576605 C688.386098,478.626605 707.117098,469.660605 728.593098,467.493605 Z"/><path fill="#F2F2F4" d="M356.393098,855.278605 C361.427098,855.060605 372.142098,859.450605 377.930098,860.446605 C381.256764,861.043272 384.597764,861.544272 387.953098,861.949605 C391.309098,862.354939 394.673431,862.663939 398.046098,862.876605 C401.419431,863.089939 404.796098,863.206605 408.176098,863.226605 C411.556098,863.245939 414.933764,863.168939 418.309098,862.995605 C421.684431,862.822272 425.052098,862.552605 428.412098,862.186605 C431.772098,861.820605 435.118764,861.358939 438.452098,860.801605 C441.786098,860.244272 445.101098,859.591939 448.397098,858.844605 C451.693764,858.097272 454.966098,857.256605 458.214098,856.322605 C459.978098,862.531605 461.023098,869.015605 460.490098,875.483605 C459.934098,882.224605 457.504098,887.735605 452.241098,892.120605 C437.339098,904.535605 406.182098,910.104605 386.702098,911.883605 C382.661098,912.253605 378.369098,912.868605 374.321098,912.532605 C373.556098,912.018605 373.176098,911.675605 372.734098,910.837605 C371.053098,907.654605 372.650098,902.569605 373.644098,899.324605 C375.101098,895.487605 377.263098,892.138605 379.303098,888.604605 C380.657098,886.258605 382.231098,883.896605 381.507098,881.137605 L380.285098,880.553605 C376.949098,880.566605 374.079098,882.061605 371.576098,884.166605 C362.907098,891.454605 359.597098,901.374605 358.609098,912.313605 C353.371098,911.580605 345.473098,911.418605 341.080098,908.352605 C334.600098,897.865605 349.664098,883.242605 350.229098,876.860605 C350.294098,876.123605 350.233098,876.295605 349.723098,875.710605 C347.417098,875.317605 344.850098,876.914605 342.900098,878.023605 C333.747098,883.230605 329.851098,891.452605 327.113098,901.213605 C325.766098,899.828605 324.466098,898.509605 323.668098,896.722605 C321.512098,891.896605 321.895098,886.878605 323.879098,882.062605 C329.641098,868.081605 343.265098,860.853605 356.393098,855.278605 Z M250.202098,833.485605 C256.053098,832.798605 266.005098,838.600605 272.550098,839.999605 C294.668098,844.727605 315.970098,844.511605 338.146098,840.654605 C339.363098,841.869605 339.483098,843.755605 339.799098,845.382605 C336.603098,847.845605 332.850098,849.739605 329.539098,852.088605 C318.380098,860.004605 312.654098,868.712605 307.053098,880.895605 C295.456098,884.568605 262.278098,888.878605 250.790098,886.448605 C249.852098,886.249605 248.510098,885.835605 248.050098,884.937605 C246.472098,881.856605 248.631098,876.990605 249.786098,873.980605 C251.372098,870.374605 253.588098,867.214605 255.493098,863.791605 C256.254098,862.424605 257.095098,860.911605 256.647098,859.318605 L255.639098,858.903605 C254.022098,859.169605 252.698098,859.812605 251.265098,860.591605 C241.280098,866.015605 237.483098,874.139605 234.402098,884.569605 C230.909098,883.774605 226.421098,883.303605 224.067098,880.287605 C217.971098,872.475605 232.977098,857.661605 233.895098,852.150605 C233.526098,851.366605 233.731098,851.297605 232.975098,851.133605 C231.071098,850.720605 228.639098,851.975605 227.007098,852.838605 C214.722098,859.336605 213.562098,872.398605 211.533098,873.744605 L210.434098,873.446605 C208.839098,871.503605 208.361098,869.166605 208.012098,866.727605 C207.132098,860.567605 208.936098,856.140605 212.636098,851.311605 C221.347098,839.940605 236.584098,835.254605 250.202098,833.485605 Z"/><path fill="#47759A" d="M461.311098,829.846605 L461.624098,830.099605 C462.501098,832.261605 461.286098,835.554605 460.360098,837.597605 C458.981098,840.641605 454.980098,842.357605 452.013098,843.299605 C432.017098,849.648605 398.581098,850.100605 378.165098,845.621605 C371.375098,844.131605 365.219098,841.734605 359.084098,838.491605 C358.518098,838.110272 357.961431,837.715605 357.414098,837.307605 C356.200098,836.387605 355.402098,835.564605 355.202098,833.986605 C357.123098,831.275605 364.544098,833.868605 367.358098,834.528605 C369.294098,834.962605 371.236764,835.363939 373.186098,835.732605 C375.136098,836.101272 377.091431,836.436939 379.052098,836.739605 C381.012764,837.042272 382.978098,837.311605 384.948098,837.547605 C386.918098,837.783605 388.891431,837.986272 390.868098,838.155605 C392.845431,838.324939 394.824764,838.460939 396.806098,838.563605 C398.787431,838.665605 400.770098,838.734272 402.754098,838.769605 C404.737431,838.804939 406.721098,838.806939 408.705098,838.775605 C410.689098,838.743605 412.671764,838.678272 414.653098,838.579605 C416.634431,838.480939 418.613764,838.348939 420.591098,838.183605 C422.568431,838.017605 424.542431,837.818272 426.513098,837.585605 C428.483098,837.353605 430.448764,837.087939 432.410098,836.788605 C434.371431,836.489939 436.327431,836.158272 438.278098,835.793605 C440.228098,835.428272 442.171431,835.030272 444.108098,834.599605 C446.044764,834.168939 447.973764,833.705605 449.895098,833.209605 C451.816431,832.713605 453.728431,832.185272 455.631098,831.624605 C457.534431,831.063939 459.427764,830.471272 461.311098,829.846605 Z"/><path fill="#F2F2F4" d="M393.042098,655.370605 C400.417098,666.557605 409.814098,674.926605 422.018098,680.619605 C425.026764,682.011605 428.115098,683.194939 431.283098,684.169605 C434.953098,685.305605 444.984098,686.486605 447.273098,689.456605 C448.003098,690.404605 448.154098,691.522605 447.937098,692.691605 C447.349098,695.854605 444.231098,698.507605 441.639098,700.031605 C433.735098,702.253605 424.972098,700.118605 417.745098,696.645605 C402.221098,689.185605 392.841098,676.459605 387.250098,660.538605 C389.111098,658.728605 391.065098,657.051605 393.042098,655.370605 Z"/><path fill="#7A7BBE" d="M406.699098,636.469605 C410.313098,637.984605 414.176098,642.902605 417.312098,645.460605 C418.198098,646.197939 419.099431,646.915939 420.016098,647.614605 C420.932764,648.313939 421.863764,648.993272 422.809098,649.652605 C423.754431,650.312605 424.713098,650.951939 425.685098,651.570605 C426.657764,652.189939 427.642764,652.788272 428.640098,653.365605 C429.637431,653.943605 430.646764,654.499939 431.668098,655.034605 C432.689431,655.569272 433.721431,656.082272 434.764098,656.573605 C435.806764,657.064939 436.859431,657.533939 437.922098,657.980605 C438.984764,658.427939 440.056431,658.852272 441.137098,659.253605 C442.217098,659.654939 443.305431,660.033272 444.402098,660.388605 C445.498764,660.744605 446.602431,661.076939 447.713098,661.385605 C448.823764,661.694272 449.940098,661.979605 451.062098,662.241605 C452.184764,662.502939 453.312431,662.740605 454.445098,662.954605 C455.577764,663.168605 456.714431,663.358605 457.855098,663.524605 C458.995764,663.690605 460.139431,663.832605 461.286098,663.950605 C462.432764,664.067939 463.581431,664.161272 464.732098,664.230605 C465.882764,664.299272 467.034431,664.343939 468.187098,664.364605 C466.359098,667.512605 464.284098,669.727605 461.413098,671.906605 C460.791098,672.308605 460.829098,672.302605 460.054098,672.694605 C453.420098,676.050605 443.634098,673.514605 436.994098,671.222605 C422.726098,666.296605 409.373098,655.807605 402.732098,642.086605 C404.183098,640.309605 405.419098,638.371605 406.699098,636.469605 Z"/><path fill="#47759A" d="M260.779098,812.642605 C285.130098,820.274605 310.229098,820.478605 335.397098,818.412605 C335.995098,820.799605 337.271098,824.111605 336.111098,826.351605 C334.661098,827.010605 333.198098,827.477605 331.655098,827.861605 C314.414098,832.152605 278.540098,830.000605 263.314098,820.745605 C261.999098,818.043605 261.365098,815.562605 260.779098,812.642605 Z"/><path fill="#FAC3B7" d="M148.672098,253.405605 C149.863098,253.330605 150.765098,253.311605 151.829098,253.951605 C153.896098,255.197605 155.084098,256.790605 155.623098,259.148605 C156.749098,264.074605 155.180098,270.040605 152.494098,274.211605 C148.243098,280.810605 141.734098,284.109605 134.284098,285.572605 C133.629098,285.324605 132.976098,285.090605 132.370098,284.733605 C129.677098,283.149605 127.286098,279.586605 126.573098,276.567605 C125.555098,272.259605 126.681098,267.632605 129.082098,263.979605 C133.674098,256.991605 140.955098,254.860605 148.672098,253.405605 Z"/><path fill="#313945" d="M71.3730977,104.811605 C72.6660977,104.708605 74.3490977,104.546605 75.5520977,105.088605 C76.5680977,105.545605 77.3300977,106.507605 77.7910977,107.495605 C78.6330977,109.300605 88.8880977,178.338605 89.2010977,183.172605 C89.4440977,186.930605 89.2780977,191.515605 87.8000977,194.990605 C85.6300977,200.090605 80.2770977,204.509605 75.1460977,206.390605 C70.6530977,208.036605 65.7060977,208.148605 61.3320977,206.062605 C60.885431,205.851939 60.450431,205.619605 60.0270977,205.365605 C59.6037643,205.111605 59.194431,204.836939 58.7990977,204.541605 C58.4030977,204.246272 58.0230977,203.931939 57.6590977,203.598605 C57.294431,203.265272 56.9477643,202.914605 56.6190977,202.546605 C56.2897643,202.178605 55.9797643,201.795272 55.6890977,201.396605 C55.398431,200.997272 55.128431,200.584605 54.8790977,200.158605 C54.6297643,199.732605 54.402431,199.294939 54.1970977,198.845605 C53.9917643,198.396939 53.809431,197.938939 53.6500977,197.471605 C51.9750977,192.619605 52.6270977,187.108605 54.9700977,182.592605 C59.3660977,174.120605 67.2420977,171.653605 75.6340977,168.953605 C73.913431,157.176272 71.9977643,145.430605 69.8870977,133.716605 C65.1480977,134.945605 32.7950977,145.915605 31.1960977,148.436605 C30.0110977,150.305605 31.1290977,154.707605 31.4590977,156.808605 C33.1790977,169.698605 40.5090977,196.974605 36.8310977,208.253605 C34.8260977,214.405605 30.2870977,219.134605 24.4770977,221.876605 C19.7070977,224.127605 14.1530977,225.143605 9.11409766,223.148605 C5.43609766,221.692605 2.77609766,218.768605 1.36609766,215.103605 C-0.652902339,209.854605 -0.438902339,203.224605 2.04109766,198.164605 C6.47509766,189.116605 16.1600977,186.776605 24.8730977,183.910605 C23.0640977,173.141605 14.7220977,134.079605 16.3100977,126.132605 C19.1960977,122.017605 63.4960977,107.557605 71.3730977,104.811605 Z M73.8300977,280.336605 C74.7520977,280.257605 75.6900977,280.196605 76.6140977,280.270605 C83.8140977,280.847605 96.6710977,286.660605 101.230098,292.383605 C102.469098,293.939605 103.116098,295.529605 102.758098,297.543605 C102.375098,299.692605 100.661098,301.053605 98.9740977,302.202605 C98.1730977,302.230605 97.3950977,302.256605 96.5940977,302.193605 C90.3120977,301.694605 75.2190977,294.847605 71.3530977,289.808605 C70.1800977,288.279605 69.6630977,286.723605 70.0590977,284.791605 C70.5010977,282.627605 72.1060977,281.487605 73.8300977,280.336605 Z M93.1950977,318.487605 C94.9460977,318.531605 97.0150977,318.505605 98.6610977,319.161605 C100.406098,319.857605 102.153098,321.580605 102.692098,323.403605 C103.087098,324.736605 102.855098,326.095605 102.120098,327.257605 C99.1510977,331.946605 86.1840977,335.075605 80.7540977,336.175605 C80.5180977,336.203605 80.2830977,336.234605 80.0470977,336.259605 L79.0360977,336.355605 C76.4810977,336.612605 73.7030977,336.181605 71.5120977,334.726605 C70.4950977,334.050605 69.6970977,333.029605 69.5530977,331.791605 C69.3260977,329.847605 70.2580977,327.874605 71.4580977,326.401605 C76.1310977,320.665605 86.2680977,319.158605 93.1950977,318.487605 Z"/><path fill="#FFF" d="M256.185419,232.326605 C257.463885,232.542377 258.727804,232.771078 259.876968,233.40627 C260.116175,233.54042 260.348109,233.685615 260.57277,233.841854 C260.797431,233.998631 261.01428,234.165915 261.223317,234.343704 C261.431815,234.520954 261.631154,234.708171 261.821334,234.905356 C262.011515,235.10254 262.191728,235.308614 262.361975,235.523577 C262.532222,235.738001 262.691693,235.960238 262.840389,236.190286 C262.989086,236.420873 263.126199,236.657925 263.251729,236.901443 C263.37672,237.14496 263.489858,237.394134 263.591144,237.648965 C263.69243,237.903257 263.781055,238.162129 263.85702,238.42558 C263.95669,238.789779 264.037233,239.158287 264.098651,239.531105 C264.16007,239.903924 264.202092,240.278897 264.22472,240.656026 C264.247348,241.033154 264.250311,241.410552 264.23361,241.788219 C264.217447,242.165348 264.18162,242.54086 264.126128,242.914756 C264.070636,243.288113 263.996019,243.657968 263.902275,244.024321 C263.808532,244.390136 263.696202,244.750294 263.565284,245.104794 C263.433828,245.458756 263.284593,245.805176 263.117579,246.144053 C262.950565,246.482929 262.76658,246.812378 262.565624,247.132398 C260.981685,249.668318 259.17955,250.59767 256.359976,251.326605 C255.297282,251.253065 254.253983,251.173868 253.247858,250.794046 C251.279248,250.051372 249.563583,248.298533 248.82899,246.333155 C247.86004,243.743899 248.088741,240.714211 249.247603,238.225972 C250.764467,234.970814 252.923797,233.55335 256.185419,232.326605 Z"/></g></svg>