<svg xmlns="http://www.w3.org/2000/svg" width="632" height="644" viewBox="0 0 632 644">
  <g fill="none" fill-rule="evenodd">
    <path fill="#ffffff" fill-opacity=".05" d="M220.035 577.901c-16.286 9.584-35.458 13.041-51.146 23.89-3.818 2.638.733 3.07 3.128 3.145 6.845.212 13.894-1.025 20.648-1.975 8.753-1.235 17.47-2.7 26.173-4.246 9.029-1.602 16.76-6.4 26.045-7.648 4.272-.576 8.107-1.596 11.574-3.841 4.05-2.622 7.723-3.75 11.934-5.678 3.005-1.379 6.648-4.407 10.107-4.41 9.396 0 27.63.237 36.784.348 1.284 2.017 12.702 9.224 13.858 8.929 1.105 1.722 2.604 3.182 4.525 4.143.93.465 1.858.927 2.785 1.393 3.434 1.716 6.94 2.446 10.73 1.404.243-.067.463-.19.703-.27 2.205 3.19 5.843 5.41 10.914 5.41 1.13 0 2.158-.148 3.139-.36 2.222 2.19 5.35 3.61 9.393 3.61.12 0 .229-.013.348-.016 2.137 1.722 4.952 2.803 8.472 2.803.098 0 .187-.011.282-.014.064 0 .12.014.18.014a15 15 0 0 0 3.824-.49c1.204 1.841 2.769 3.435 4.699 4.566 1.67.98 2.949 1.365 4.406 1.604.771.17 1.595.268 2.456.312.14.017.25.028.398.045.816.08 1.66.017 2.501-.142.788-.1 1.535-.256 2.24-.468 1.97 1.24 4.4 2.003 7.326 2.003 17.96 0-2.952-27.628-4.236-27.25a12.543 12.543 0 0 0-3.23-1.431c-2.724-1.09-5.787-1.36-8.767-.538-.081.022-.15.064-.229.09a12.661 12.661 0 0 0-2.383-2.918c98.49 5.154 167.38 16.933 167.38 30.654 0 18.462-124.69 33.431-278.498 33.431C124.686 644 0 629.031 0 610.569c0-16.055 94.324-29.442 220.035-32.668"/>
    <path fill="#a4a6b0" d="M171.197 426.975c-.156.828.262.619.986-.192.713-.813 1.777-2.223 3.27-3.558a23.05 23.05 0 0 1 5.224-3.646c1.955-.978 4.008-1.663 5.734-2.237 6.915-2.263 13.591-3.057 13.772-5.269-.008-1.033-1.465-2.159-4.5-2.8-2.908-.623-7.141-.668-11.647.786-4.506 1.443-7.628 4.29-9.561 7.302-1.95 3.067-2.763 6.294-3.278 9.614"/>
    <path fill="#a4a6b0" d="M189.397 453.919c.41.916.596.417.652-.847.005-.627.003-1.446.13-2.45.04-.974.235-2.13.416-3.367.431-2.491 1.1-5.377 1.832-8.297.69-2.892 1.373-5.736 1.938-8.099l.324-1.61c.122-.53.353-1.042.512-1.554.343-1.026.649-2.028.916-3.004.702-1.936 1.329-3.733 1.738-5.326.992-3.22 1.14-5.466.212-5.973-.928-.507-2.757.819-4.963 3.373a42.482 42.482 0 0 0-3.431 5.049 77.641 77.641 0 0 0-1.551 3.387c-.24.602-.538 1.187-.727 1.842-.156.668-.318 1.348-.48 2.036-.676 2.88-.854 4.954-.893 7.152-.056 2.137.016 4.215.259 6.22.484 3.987 1.375 7.832 3.116 11.468"/>
    <path fill="#a4a6b0" d="M202.023 456.36c.616.912.7.374.454-1.01-.276-1.368-.744-3.636-.925-6.355-.476-5.43.538-12.673 1.053-18.058.485-5.363.596-10.473.006-14.217-.588-3.884-1.752-5.887-2.777-5.892-1.086-.006-1.84 2.424-2.637 5.714-.786 3.435-1.719 8.19-2.22 13.732-.944 11.085 2.033 18.966 7.046 26.087"/>
    <path fill="#a4a6b0" d="M211.501 442.333c.972 1.215.554-1.668-.398-5.393-.487-1.847-.833-4.335-1.412-6.58-.437-1.859-.448-3.7-.504-5.391-.073-3.352-.05-6.868-.638-9.592-.267-1.413-.682-2.424-1.167-3.101-.468-.694-.977-1.073-1.506-1.064-.53.01-1.028.41-1.474 1.12-.431.727-.846 1.75-1.267 2.847-.763 2.298-1.676 5.697-1.601 10.024.039 2.159.551 4.215 1.306 6.003l.134.368.075.134.156.259.314.515.647.992c.434.646.88 1.268 1.334 1.875 1.673 2.457 4.138 4.574 6.001 6.984"/>
    <path fill="#a4a6b0" d="M207.316 397.024c2.328 5.33 1.384 12.263-.276 17.618-3.433 11.093-13.615 9.606-14.183-1.878-.32-6.452-1.009-13.54.495-19.889 1.93-8.162 11.797-.808 13.964 4.149m178.855 1.041c-.473-1.206-1.462-2.148-.504-3.34.621-.775 1.668-1.234 2.554-1.622 1.98-.86 3.969-1.061 6.071-.381 1.223.392 1.671 1.42 2.401 2.434 1.139 1.58 2.256 3.176 3.342 4.792.401.594.841 1.145 1.303 1.672 3.044 8.525 5.141 17.699 6.59 27.185 1.985 12.798 2.746 26.21 3.044 40 .022 1.722.047 3.452.072 5.187l.022 2.717-.025 2.59c-.008 3.36-.18 7.25-.334 10.72-.32 7.105-.785 14.187-1.03 21.246-.243 7.054-.349 14.4.194 21.758.552 7.325 1.791 14.757 4.607 21.05.29.842.727 1.55 1.158 2.26l1.242 2.182 1.524 1.88.749.964.092.123c.086.083.061.064.014.02l.153.144.574.552c1.529 1.437 3.105 3.042 4.609 4.36l4.325 3.418c6.33 4.544 13.577 7.965 21.355 10.14 15.616 4.402 32.919 3.91 49.408 1.834 16.563-2.092 32.568-5.837 47.398-9.238 14.836-3.441 28.535-6.698 40.532-8.793 11.984-2.142 22.236-3.162 29.853-3.195 3.798-.078 6.948.164 9.31.35 2.373.29 3.971.533 4.726.714 1.51.387-.354.465-6.2.412-11.7.298-22.828 2.324-33.536 4.92-10.717 2.591-21.063 5.69-31.323 8.818-20.522 6.226-40.68 12.87-62.628 16.746-10.968 1.878-22.417 3.023-34.406 2.354-11.947-.627-24.538-3.605-36.31-9.818-2.838-1.78-5.768-3.223-8.575-5.488-1.396-1.05-2.88-2.134-4.208-3.206-1.159-1.048-2.323-2.098-3.493-3.157l-.877-.794-.44-.398-.22-.2-.109-.098-.3-.296-.059-.07-1.913-2.222-1.891-2.271c-.54-.8-1.03-1.627-1.543-2.449l-1.51-2.49c-.484-.839-.807-1.714-1.217-2.575-.768-1.732-1.607-3.48-2.1-5.254-2.406-7.098-3.553-14.378-4.046-21.621-.513-7.26-.485-14.557-.228-21.92.259-7.363.757-14.512 1.12-21.446.177-3.547.361-6.625.414-10.185l.056-2.589.008-2.443v-5.059c-.086-13.411-.537-26.28-2.019-38.254-1.445-11.973-3.868-23.092-7.776-32.67m-110.764 166.42c1.334 0 2.554.157 3.69.421-1.264-42.452-5.391-85.015-8.494-127.305-.604-8.255-14.534-8.31-13.924 0 3.191 43.5 7.477 87.286 8.602 130.944 2.248-2.432 5.62-4.06 10.126-4.06m57.377-132.772c4.125-1.123 9.163.816 8.79 5.89-3.27 44.585-7.667 89.475-8.656 134.217-2.245-2.46-5.631-4.107-10.165-4.107-1.337 0-2.562.156-3.701.424 1.11-42.316 5.174-84.75 8.324-126.924 3.125-2.226 4.927-5.756 5.408-9.5M91.344 158.94c0 19.314-15.651 34.968-34.96 34.968-19.305 0-34.957-15.654-34.957-34.968 0-19.315 15.652-34.972 34.957-34.972 19.309 0 34.96 15.657 34.96 34.972"/>
    <path fill="#a4a6b0" d="M65.04 144.46c-4.142.211-2.58.501 2.754.813 5.33.334 14.442.58 25.393.276 10.956-.362 23.711-1.402 36.288-3.602 3.122-.608 6.364-1.067 9.319-1.822 3.052-.741 5.865-1.296 8.967-2.176 2.955-1.006 5.95-1.663 8.623-2.981a1862.4 1862.4 0 0 0 3.993-1.752c1.295-.594 2.47-1.368 3.663-2.029 9.524-5.471 16.801-13.007 22.243-20.632 1.395-1.872 2.46-3.686 3.646-5.458 1.259-1.858 2.211-3.683 3.264-5.438l5.2-9.74c3.093-5.836 5.995-10.24 8.254-12.996 2.37-2.858 3.821-4.507 3.431-4.936-.323-.354-2.3.42-5.417 2.71-3.25 2.413-7.068 6.698-10.903 12.42-7.464 11.31-16.582 27.75-33.55 37.44-8.392 4.928-16.903 7.012-25.391 9.408-8.19 2.028-15.936 3.839-23.544 5.193-15.192 2.78-29.683 4.51-46.234 5.301"/>
    <path fill="#a4a6b0" d="M202.254 72.962c-.376.74 1.08.092 2.927-.332 1.844-.468 4.548-.599 6.734-1.424 1.034-.348 2.08-.977 2.938-1.548.917-.775 1.755-1.586 2.106-2.252.557-1.331.618-2.429.047-2.98-.57-.552-1.665-.449-2.974.161-.652.22-1.231.204-1.766.451-.752.17-1.44.477-2.356.786-3.517 1.226-6.227 4.115-7.656 7.138"/>
    <path fill="#a4a6b0" d="M209.501 63.241c-.557.758 1.156.053 2.81.504.936.226 1.958.73 3.802 1.031.493.086.79.103 1.136.137l.254.019.125.011.064.003.03.003.017.003.362-.04.64-.1a8.345 8.345 0 0 0 2.282-.657c2.643-1.237 3.849-2.728 4.706-3.658.193-.231.36-.48.527-.727.23-.237.42-.471.565-.697.284-.457.384-.886.262-1.262-.12-.379-.454-.668-.953-.866-.25-.1-.54-.179-.866-.231-.365-.009-.799.03-1.275.111-1.838.287-3.816 1.446-5.283 2.07-.376.159-.716.343-1.042.454l-.245.111-.12.062-.058.033-.03.017-.01.003-.002.002h-.003c.15-.013-.337.037.337-.033l-.025.006-.716.167c-.532.147-.735.198-1.108.331l-1.287.332c-1.868.401-3.885 1.373-4.896 2.861"/>
    <path fill="#a4a6b0" d="M217.32 55.466c-.652.515.858.551 2.88.95 2.055.381 4.949 1.017 7.288.855 2.284-.128 4.746-1.034 6.035-2.521.685-.772 1.1-1.63.978-2.07-.023-.516-.181-.92-.488-1.17-.54-.61-1.905.03-2.687-.179-1.178.059-2.63.129-4.236.207-3.743.23-6.946 1.953-9.77 3.928"/>
    <path fill="#a4a6b0" d="M225.142 48.574c-.607.418.766.697 2.44 1.168 1.695.448 3.873 1.225 5.639 1.476a13.8 13.8 0 0 0 2.537.109c.852-.05 1.646-.187 2.278-.388 1.184-.47 1.93-1.158 1.96-1.95.031-.794-.662-1.54-1.804-2.109a8.527 8.527 0 0 0-1.788-.808c-.74-.245-1.51-.426-2.426-.548-3.598-.482-6.422 1.4-8.836 3.05"/>
    <path fill="#a4a6b0" d="M234.66 42.686c-.718-.122-.088 1.011 1.215 2.463.618.769 1.532 1.43 2.476 2.056.473.312.955.604 1.429.866.51.229 1.066.376 1.554.502.985.237 1.955.37 2.793.387a8.105 8.105 0 0 0 1.916-.535c1.097-.473 1.793-1.164 1.827-1.956.033-.794-.604-1.54-1.66-2.103a7.944 7.944 0 0 0-1.866-.694c-.549-.298-1.103-.548-1.715-.696-2.446-.655-5.125.226-7.968-.29m18.846-6.99c-1 .276.749.914 3.436 1.404 2.721.457 6.119.688 8.124.978 1.058.058 1.991.303 2.891.37.852.22 1.624.17 2.476.354 1.662.32 2.882.173 3.261-.524.379-.699-.153-1.81-1.32-3.045-.554-.618-1.646-1.214-2.763-1.816-1.153-.457-2.49-.953-3.893-1.048-2.874-.326-4.888.44-6.729 1.156-1.81.77-3.495 1.622-5.483 2.17"/>
    <path fill="#a4a6b0" d="M247.655 39.86c-.46-.05-.437.203-.01.674.214.237.528.524.938.85.4.362.913.674 1.531.891 2.468 1.212 6.069 1.156 8.046.766 1.083-.195 1.933-.41 2.788-.705.716-.203 1.345-.515 1.972-.816 1.384-.49 2.25-1.19 2.272-1.984.02-.794-.81-1.53-2.17-2.08-.74-.22-1.737-.33-2.826-.363-.933.011-2.055.112-3.036.29-2.066.39-3.347 1.064-4.765 1.69-.721.383-1.392.497-2.208.75-.794.198-1.602.103-2.532.037"/>
    <path fill="#a4a6b0" d="M238.851 39.554c-.796-.059.248 1.1 1.791 2.396.769.607 1.685 1.401 2.626 2.12.908.702 1.902 1.351 2.913 1.822.958.454 1.916.833 2.783 1.053.835.137 1.615.184 2.297.145 1.365-.078 2.334-.502 2.593-1.251.256-.752-.248-1.688-1.276-2.594a10.861 10.861 0 0 0-1.899-1.31c-.66-.456-1.345-.905-2.13-1.278-1.482-.688-3.306-1.084-4.852-1.125-1.637-.07-3.267.145-4.846.022m34.077-9.527c-.947-.454-.067 4.28-.454 4.697.067.198.02.237.198.388.014.055.493.13.37.615-.128.87.081 1.683.652 2.235.57.551 1.398.735 2.272.585.404-.003 1.142-.78 1.644-1.524.381-.741.715-1.744.598-2.625-.125-1.916-1.253-2.727-2.228-3.276-1.033-.513-2.119-.708-3.052-1.095"/>
    <path fill="#a4a6b0" d="M287.21 22.169c.393-.714-1.064-.265-2.938.654-.966.474-2.027 1.023-3.139 1.853-1.114.797-2.191 2.128-2.71 3.427-.863 2.482-.565 4.647-.1 5.861.493 1.282 1.192 2.084 1.983 2.106 1.657.198 2.718-3.582 3.468-5.872.144-.24.203-.49.275-.764.148-.262.26-.537.351-.838.29-.627.585-1.31.886-2.034.638-1.44 1.144-2.964 1.924-4.393m14.206 1.717c.972-.381-.9-.922-3.685-.624-2.751.268-6.3 1.421-8.525 2.995-2.214 1.524-3.92 3.747-4.38 5.826-.552 2.448.46 3.226 1.15 3.357.788.167 1.576-1.129 2.47-1.51.958-.741 2.317-1.755 4.047-2.962 1.735-1.18 3.077-2.432 4.408-3.7 1.34-1.25 2.652-2.543 4.515-3.382m10.361 4.492c.621-.63-.986-.384-3.024-.546-2.02-.095-4.933-.808-7.729-.125-1.328.306-2.67.994-3.6 1.883-.49.426-.87.886-1.154 1.36-.314.44-.537.91-.69 1.368-.38.927-.31 1.523-.206 2.044.108.513.334.886.682 1.079.345.192.782.183 1.273.005.484-.173 1.06-.604 1.568-.786 1.091-.534 2.04-1.07 3.523-1.379 1.487-.381 3.33-.885 4.96-1.735 1.657-.833 3.13-1.95 4.397-3.168"/>
    <path fill="#a4a6b0" d="M325.323 31.138c.894-.47-.919-.61-3.347-1.228-2.432-.555-6.008-1.789-9.38-1.012-1.59.365-3.164 1.154-4.178 2.207a7.787 7.787 0 0 0-2.035 3.106c-.421 1.028-.349 1.694-.279 2.279.09.571.306.972.66 1.156.351.184.802.131 1.32-.12.513-.225 1.114-.8 1.702-1.095.543-.362 1.214-.83 1.88-1.145.649-.378 1.35-.568 2.203-.785 1.707-.385 3.734-.691 5.698-1.232a32.55 32.55 0 0 0 5.756-2.13m21.413 4.973c1.184-.24-.896-.894-3.924-1.71-3.005-.806-7.31-1.909-10.753-1.472-.83.014-1.654.237-2.442.452-.788.237-1.526.39-2.239.735-1.387.76-2.74 1.502-3.409 2.26-1.317 1.54-1.908 2.819-1.46 3.474.45.654 1.853.56 3.755-.123.964-.318 1.874-.273 2.827-.602.49-.117 1.122-.128 1.693-.236.588-.095 1.178-.243 1.852-.243 5.158-.384 9.338-1.513 14.1-2.535m12.205 7.78c.385-.375.022-.428-.604-.37-.682.137-1.356-.042-2.195-.68-.45-.345-.974-.788-1.626-1.326l-1.125-.841c-.418-.254-.549-.454-1.212-.744-1.687-.758-3.37-1.69-4.912-1.864-1.521-.3-2.978-.484-4.267-.365-1.3.059-2.467.182-3.35.457-1.824.505-2.955 1.215-2.966 2.006-.076 1.686 4.695 2.608 9.385 3.524 1.234.131 2.261.532 3.34.636l.796.092c.089-.009.362.064.3-.009l.415.092c.516.106 1.028.209 1.535.31 1.044.197 2.189.534 3.442.495 1.242-.039 2.376-.53 3.044-1.412m10.69 6.946c.864-.917-1.267-.062-4.113.39-1.423.195-3.002.211-4.342-.129a5.951 5.951 0 0 0-.782-.27c-.243-.05-.772-.34-1.131-.484-.783-.346-1.122-.591-1.685-.895-.989-.593-2.156-1.457-3.384-2.173-1.312-.744-2.679-1.265-4.007-1.404a10.094 10.094 0 0 0-1.805.011 5.735 5.735 0 0 0-1.03.446c-.566.32-.889.685-.906 1.08-.016.397.27.787.808 1.154.267.184.599.36.98.53.26.245.516.476.777.668a44.806 44.806 0 0 1 2.097 1.817c.886.813 1.917 1.816 3.507 2.794.766.46 1.687.847 2.464 1.098.713.172 1.17.342 2.19.417.91.104 1.723.073 2.42-.086.726-.089 1.39-.326 2.013-.574 2.498-1.03 4.197-2.683 5.93-4.39m42.194 23.813c.512-1.248-1.195.516-3.98 1.917-2.815 1.449-6.893 2.092-9.861 2.318-5.913.621-11.079.354-11.541 1.92-.51 1.443 4.807 4.51 12.114 3.797 3.604-.343 6.423-1.772 8.559-3.552 2.144-1.811 3.612-4.004 4.709-6.4m7.543 10.338c.373-.552.008-.513-.747-.145-.732.404-1.96.958-3.37 1.164-1.453.223-3.082.042-5.146-.183-2.02-.24-4.016-.404-5.673-.435-6.631-.117-12.006 1.075-12.006 2.663 0 1.588 5.375 2.967 12.006 3.084 3.33.023 5.92-.32 8.633-1.167 1.351-.462 2.632-1.084 3.71-1.942 1.053-.9 1.9-1.894 2.593-3.04"/>
    <path fill="#a4a6b0" d="M342.33 19.186c.092-.937-1.089.337-2.526 2.008-.376.348-.702.875-1.117 1.106-.431.304-.618.546-1.261.97-.493.331-1.19.905-1.449 1.056-.481.331-.902.654-1.325.991-1.621 1.232-3.403 3.257-3.81 5.135-.114.468-.195.908-.192 1.256.036.318.1.605.184.853.172.496.442.841.81.989.368.147.8.086 1.264-.153.234-.12.477-.285.722-.49.228-.132.47-.271.727-.421.958-.647 2.113-1.304 3.918-2.711a11.18 11.18 0 0 0 1.2-1.123l.268-.292c.295-.304.209-.251.326-.396l.4-.585c.251-.393.477-.788.683-1.187.237-.504.44-1.03.607-1.521.613-1.99.356-3.68.57-5.485"/>
    <path fill="#a4a6b0" d="M351.471 16.88c.131-.674-1.08-.019-2.437.99l-1.036.819c-.395.22-.785.45-1.147.685-.365.237-.705.479-1.008.727-.332.228-.7.415-.975.635-.59.426-1.022.9-1.526 1.404a8.107 8.107 0 0 0-1.256 1.527c-.624 1.011-.794 1.97-.365 2.638.432.666 1.381.914 2.568.775a8.08 8.08 0 0 0 1.924-.49c.682-.274 1.462-.789 2.195-1.327a9.03 9.03 0 0 0 .994-.869 8.49 8.49 0 0 0 .693-1.078c.401-.727.677-1.454.886-2.156.259-1.488.223-2.937.49-4.28m9.194-5.24c.298-.26.134-.438-.457-.497-.565-.072-1.67.067-2.737.853-2.206 1.632-3.197 4.527-3.688 5.753-.465 1.41-.657 2.106-.852 2.903-.042.172-.05.381-.122.61-.15.226-.27.451-.351.671-.162.438-.181.853-.028 1.22.153.368.46.65.886.845.214.097.456.175.724.23.32 0 .735-.083 1.175-.216 1.724-.466 3.428-2.452 3.996-4.377.644-1.934.37-3.201.248-4.407-.161-1.148-.089-2.577 1.206-3.589m21.328-7.629c.621-.164.407-.382-.451-.604-.838-.254-2.42-.388-4.33.156-1.917.554-3.772 1.9-5.237 3.07-1.275.983-2.754 1.902-3.985 2.836-2.459 1.83-4.64 3.997-5.742 6.207a11.344 11.344 0 0 0-.638 1.604c-.098.449-.059.808-.04 1.14.062.655.265 1.097.622 1.27.36.173.835.059 1.392-.295.279-.162.568-.446.894-.671a9.49 9.49 0 0 0 .98-.563c1.413-.922 3.543-2.293 5.991-4.104 1.217-.914 2.309-1.917 3.239-3.011 1.005-1.22 1.434-2.14 2.058-3.065 1.075-1.839 2.67-3.382 5.247-3.97m17.36-2.543c.63-.12.48-.351-.412-.632-.819-.418-2.754-.287-4.45.777-1.674 1.067-2.958 2.435-3.93 2.842-1.14.56-2.685.84-3.94 1.136-1.326.298-2.794.566-4.262 1.21-1.423.604-2.67 1.481-3.5 2.515-.95.992-.997 1.73-1.176 2.376-.111.636-.036 1.112.256 1.382.293.268.772.301 1.39.134.596-.109 1.432-.722 2.14-.777 1.364-.482 3.19-.644 6.38-1.226.77-.165 1.587-.451 2.303-.705a21.61 21.61 0 0 0 2.044-1.106l.345-.206.086-.08.17-.163.332-.323c.2-.19.44-.44.727-.802.264-.323.506-.646.73-.967l.431-.827c.546-1.087.883-2.05 1.484-2.895.568-.869 1.577-1.501 2.852-1.663m22.993 2.787c1.18-.136-.794-.925-3.682-2.21-1.287-.56-3.72-1.523-5.392-1.768-.454-.09-.908-.176-1.356-.262l-.042-.008h-.011L411.481 0h-.022l-.1.003-.195.005-.39.017-.774.04c-1.025.013-1.983.297-2.855.487-3.464 1.072-5.7 2.975-7.113 4.257-1.378 1.345-2.317 2.498-1.935 3.223.36.68 1.704.928 3.81.381 2.108-.504 4.514-1.652 6.856-2.348.61-.114 1.153-.36 1.721-.457l.83-.203.404-.12.05-.014.014-.003c.078 0-.676-.011-.353-.005h.002l.009-.003h.03l.12-.009.242-.016c1.281-.09 2.524-.332 3.518-.38 2.089-.253 4.615-.345 6.996-.6M449.92 9.43c.473.02.44-.234-.098-.69-.518-.519-1.66-.953-3.063-1.134-2.813-.27-6.055.668-7.951 1.446a28.398 28.398 0 0 0-4.403 2.315c-.719.674-1.992 1.209-1.98 2.02.005.743.473 1.716 2.553 2.003 1.78.29 4.025-.184 6.038-1.034 2.033-.855 3.259-1.953 4.487-2.973 1.203-.98 2.478-2.058 4.417-1.953"/>
    <path fill="#a4a6b0" d="M457.345 18.71c.407.27.513.041.26-.655-.22-.73-1.062-1.697-2.245-2.485-2.398-1.571-5.807-2.234-8.071-2.26-4.637.042-7.748 1.41-7.935 2.912-.189 1.671 3.777 2.878 7.876 2.833 2.08.022 3.674-.384 5.25-.73 1.543-.303 3.208-.71 4.865.385m7.078 6.667c.8-.039-.248-1.084-2.222-1.984-1.994-.894-4.554-1.418-5.899-1.735-.74-.109-1.334-.279-1.924-.307-.468-.145-.933.017-1.56-.142-1.239-.342-2.256-.245-2.757.368-.501.618-.39 1.635.192 2.786.296.568 1.162 1.242 2.047 1.858.87.47 1.9.92 2.93 1.081 4.205.666 5.98-1.755 9.193-1.925m5.708 7.237c.777.067-.094-1.204-2.16-2.02-2.034-.78-4.568-1.022-5.715-1.195-1.011-.095-1.928-.184-2.71-.256-.192-.025-.401-.003-.644-.053a3.276 3.276 0 0 0-.718-.19c-.46-.058-.866.014-1.192.24-.329.226-.543.582-.652 1.03-.053.226-.08.474-.08.745.033.29.183.665.361 1.047.382.772.998 1.493 1.925 2.106.902.569 2.055.964 3.105 1.045 4.222.298 5.3-2.477 8.48-2.5"/>
    <path fill="#a4a6b0" d="M474.337 40.793c.624.184.253-.991-.719-2.535-.334-.688-1.534-1.883-2.333-2.476l-.59-.427-.148-.103-.076-.047-.036-.025-.02-.014-.008-.006-.005-.003-.173-.072-.465-.192a6.274 6.274 0 0 0-1.754-.457c-2.164-.148-2.682.17-3.342.418-.26.237-.894.145-1.304.262-.434.108-.785.317-1.02.64-.233.32-.328.72-.297 1.17.056.455.056.917.763 1.541 1.19 1.276 3.598 1.596 4.553 1.68.251.03.49.025.672.04.03-.032.359.046.156-.096l.518.081c.345.045.687.061 1.027.064l.747-.014c1.102-.05 2.587.212 3.854.571m1.764 11.013c.758-.012-.392-.964-.76-2.366-.25-.763-.423-1.719-1.033-3.056-.173-.34-.407-.772-.566-1.02-.156-.236-.309-.47-.46-.696l-.3-.32-.173-.173-.35-.334-.686-.605c-.86-.8-1.96-1.131-2.857-1.518-.91-.22-1.771-.343-2.46-.32-1.328.1-2.28.537-2.536 1.29-.26.749.225 1.67 1.217 2.554.46.449.944.883 1.534 1.27.452.499 1.1.755 1.59 1.274.268.228.546.415.842.573l.055.031.028.014.014.008.008.003.003.003c.12.128-.161-.176-.13-.142h.002l.12.103.248.195.468.343c.37.189 1 .64 1.66 1.125 1.3.97 3.013 1.82 4.522 1.764m.016 13.308c.34.791.894-.674 1.058-3.067.009-.602.022-1.262-.03-1.95-.106-.691-.24-1.416-.401-2.137a22.154 22.154 0 0 0-.81-2.054c-.324-.632-.73-1.175-1.09-1.674-1.512-1.875-3.434-2.998-4.832-3.413-1.384-.365-2.476-.267-2.943.374-.468.64-.223 1.707.55 2.908.717 1.207 1.683 2.424 2.736 3.717a56.591 56.591 0 0 0 3.035 3.29c1.011 1.136 2.036 2.41 2.727 4.006m-3.435 15.405c.282.959.872-.774 1.532-3.25.666-2.441 1.574-5.99 1.114-8.919a7.12 7.12 0 0 0-.47-2.064c-.24-.669-.443-1.293-.755-1.88-.755-1.148-1.535-2.26-2.237-2.734-1.423-.905-2.61-1.214-3.222-.713-.615.505-.54 1.722.078 3.285.276.788.206 1.48.485 2.173.075.393.108.866.206 1.298.114.43.203.894.225 1.421.443 3.998 1.827 7.57 3.044 11.383m-2.44 13.14c-.128.467.109.526.713.016.607-.504 1.184-1.736 1.337-3.065.392-2.724-.22-5.917-.953-7.953-1.607-4.118-3.71-6.472-5.213-6.26-.758.203-1.31 1.15-1.292 2.813-.023 1.555.4 3.494 1.114 5.427.707 1.94 1.69 3.263 2.642 4.553.853 1.287 2.103 2.546 1.652 4.468m-10.385 8.229c-.278.797 1.103.086 2.857-1.365.889-.71 1.836-1.713 2.7-2.83.397-.602.765-1.251 1.096-1.873.315-.635.477-1.36.64-1.975.193-.613.182-1.265.174-1.886-.04-.624.005-1.195-.176-1.777-.34-1.106-.71-2.246-1.197-2.722-.956-1.056-1.916-1.572-2.66-1.296-.744.279-1.128 1.296-1.147 2.714.027.752-.287 1.223-.265 1.827.008.279-.15.638-.175.961-.053.332-.042.677-.179 1.028-.624 2.711-.59 5.951-1.668 9.194m-8.186 7.177c-.153.864 1.084-.161 2.721-1.783 1.63-1.627 3.71-3.997 4.71-6.129.537-1 .86-2.148 1.108-3.15.248-1.031.262-2.282.2-3.107-.35-1.52-1.071-2.368-1.843-2.43-.81-.069-1.532.842-2.208 2.11-.457.524-.71.947-1.137 1.655-.456.718-.802 1.512-1.286 2.41-1.758 3.532-1.59 6.897-2.265 10.424m-10.712 4.41c-.078.81 1.044-.248 2.562-1.452 1.498-1.225 3.773-2.674 5.222-4.301.712-.733 1.322-1.71 1.801-2.532.488-.97.822-2.003.958-2.772-.01-1.407-.384-2.419-1.125-2.706-.74-.286-1.704.207-2.662 1.237-.54.349-.986.672-1.46 1.137-.618.51-1.105 1.095-1.787 1.797-2.538 2.76-3.237 6.34-3.51 9.592m-9.462 1.065c-.229.677 1.016.173 2.634-.643 1.613-.822 3.749-2.065 5.016-3.405 1.25-1.25 2.175-2.93 2.498-4.48.125-1.312-.337-2.175-1.03-2.518-.727-.365-1.66.09-2.615.727-.878.337-1.83 1.129-2.997 2.293-2.208 2.282-2.551 5.293-3.506 8.026m-12.554 2.17c-.376.825 1.125.023 3.088-.924 1.944-.962 4.804-1.926 6.824-3.402.985-.635 1.868-1.608 2.592-2.413.702-1.014 1.323-2.02 1.527-2.791.292-1.513.133-2.652-.546-3.056-.683-.407-1.758-.006-2.944.975-.61.423-1.223.646-1.752 1.1-.749.41-1.356.959-2.233 1.524-3.314 2.279-5.175 5.67-6.556 8.987"/>
    <path fill="#a4a6b0" d="M428.81 128.837c1.42.898-.309-1.635-3.42-4.41-1.506-1.41-3.208-3.008-4.447-4.61-1.237-1.652-1.733-3.09-1.696-4.18.008-.93.364-1.802 1.314-2.983.958-1.181 2.041-2.34 2.821-3.65 1.81-2.922 1.164-4.59.554-4.883-.746-.382-1.935 1.278-3.592 2.187-.875.646-2.153 1.429-3.573 2.65-.733.698-1.504 1.445-2.178 2.618-.382.499-.574 1.215-.791 1.897l-.15.521-.07.265-.034.13-.008.034-.03.415v.048l-.009.724c-.042.362.092 1.295.234 1.986.148.739.407 1.226.627 1.814a10.95 10.95 0 0 0 1.86 2.672c1.381 1.44 2.852 2.292 4.256 3.014 2.82 1.435 5.564 2.09 8.332 3.741m41.423-72.717c-.061-2.006-.318-1.22-.674 1.303l-.29 2.201c-.19.822-.398 1.739-.626 2.733-.349 2-1.22 4.224-2.036 6.625-1.774 4.722-4.99 10.038-8.765 13.902l-.674.76-.871.739-1.73 1.465-.855.73-.053.045-.027.022-.012.011c.09-.072-.222.181.2-.161l-.113.075-.226.147-.448.296-1.766 1.175c-2.373 1.463-4.642 2.82-6.781 3.828-2.111 1.084-4.245 1.925-6.328 2.6-2.072.674-3.882 1.108-6.169 1.417l-.799.129-.025.005c-.044.003.351-.03.178-.016l-.014.002-.05.003-.1.011-.2.017-.401.036-1.56.148c-1 .092-1.972.178-2.913.264-1.86.148-3.568.232-5.1.201-3.069-.045-5.388-.582-6.937-1.215-1.456-.546-2.467-1.287-2.743-.95-.214.265-.08 1.29 1.51 2.817 1.49 1.44 4.28 2.797 7.756 3.39 1.735.312 3.631.466 5.63.521a85.8 85.8 0 0 0 3.064.017c.515-.005 1.036-.014 1.565-.02l.396-.005.198-.006h.097l.293-.022.804-.07c2.03-.122 4.715-.562 7.155-1.287 2.431-.702 4.882-1.632 7.233-2.833 2.384-1.148 4.503-2.468 6.464-3.8 1.002-.646 1.899-1.37 2.81-2.042l.88-.68.579-.568 1.136-1.123c1.518-1.345 2.888-3.265 4.166-4.99 1.243-1.752 2.084-3.57 3.042-5.3 3.22-7.21 4.495-14.543 4.13-22.547M333.546 10.573c-.69-.134.084 1.011.198 2.385.15 1.435-.022 3.633.368 5.497.362 1.796 1.275 3.65 2.515 4.638.699.588 1.292.836 1.735.777.467 0 .866-.13 1.155-.4.29-.271.446-.658.48-1.126-.028-.49.041-1 .102-1.357.023-.95-.039-2.131-.37-3.736-.585-3.087-3.314-6.115-6.183-6.678"/>
    <path fill="#a4a6b0" d="M321.402 4.57c-.85.042.407 1.017 2.013 2.252.382.328.828.632 1.22.983.368.376.741.733 1.117 1.061.3.374.554.733.841 1.031.27.307.351.644.568.878.245.223.304.515.438.766.097.25.387.496.414.727.076.231.19.454.332.688.156.215.323.474.36.864.308 1.376.893 2.287 1.678 2.404.786.117 1.621-.582 2.34-1.805.398-.518.47-1.836.507-3.048.044-.657-.22-1.215-.385-1.867-.2-.632-.406-1.3-.852-1.838-.4-.56-.816-1.092-1.256-1.513-.482-.354-.963-.66-1.437-.922-.93-.585-1.919-.633-2.796-.822-1.805-.173-3.425.092-5.102.162m-12.86-.044c-.713.254.576.861 2.127 1.753 1.582.877 3.479 2.156 4.866 2.956 1.453.752 2.729 1.32 3.868 1.532 1.228.401 2.259.376 2.793-.215.53-.587.476-1.613-.07-2.8-.735-1.25-2.1-2.666-3.882-3.585-3.662-1.88-6.887-.563-9.703.36m-13.475 1.848c-.788.368.78.786 2.824 1.27 2.094.443 4.406 1.34 5.954 1.992.813.237 1.551.644 2.309.828.688.3 1.362.434 2.044.618 1.379.44 2.481.404 2.974-.217.496-.618.293-1.705-.44-2.959-.398-.624-1.11-1.32-1.91-2.014-.855-.577-1.788-1.262-2.955-1.635-2.28-.908-4.378-.58-6.08-.07-1.724.585-3.158 1.463-4.72 2.187"/>
    <path fill="#a4a6b0" d="M283.783 11.05c-.755.516.93.597 3.153.823 2.236.2 5.13.693 7.257.833 4.22.231 8.007-.544 8.16-2.154.15-1.546-3.208-3.323-7.873-3.585-4.679-.198-7.68 2.098-10.697 4.084"/>
    <path fill="#a4a6b0" d="M277.524 18.186c-.602.733 1.1.318 3.33-.337 2.265-.713 4.952-1.156 6.916-1.426 3.874-.638 7.7-1.7 7.656-3.349-.012-.794-.939-1.501-2.426-2.003-1.507-.479-3.754-.727-6.23-.306-2.523.41-4.364 1.721-5.729 3.059-1.359 1.398-2.322 2.917-3.517 4.362"/>
    <path fill="#a4a6b0" d="M271.21 24.803c-1.03 1.476 6.308-1.711 9.536-2.254 1.749-.474 3.23-.911 4.562-1.471 1.384-.513 2.242-1.226 2.245-2.017.002-.797-.853-1.519-2.234-2.048-1.426-.49-3.788-.652-6.113 0-2.406.635-3.896 2.092-5.027 3.46-1.108 1.43-1.897 2.92-2.969 4.33"/>
    <path fill="#a4a6b0" d="M272.736 29.17c-.03.52.98.114 2.038-.157 1.059-.298 2.315-.378 3.284-.768.902-.385 1.85-1.04 2.431-1.806.538-.758.733-1.596.449-2.34-.282-.741-.983-1.245-1.891-1.457-.872-.237-1.955-.223-3.228.312-1.24.493-2.106 1.619-2.548 2.77-.46 1.183-.477 2.412-.535 3.445M433.369 2.243c.396-.223.245-.424-.42-.546-.674-.176-1.852-.009-3.092.52-2.434 1.11-4.676 3.305-5.784 4.07-.577.477-.914.683-1.242.892-.159.106-.343.223-.56.273a3.11 3.11 0 0 1-.64.229c-.376.225-1.12.167-1.585.309-.488.131-.844.37-1.025.724-.184.354-.173.786 0 1.262.2.48.382 1.003 1.312 1.555.417.29.913.535 1.49.666.565.19 1.214.253 1.93.195 1.409-.081 2.877-.752 3.865-1.583 2.061-1.696 2.518-3.307 3.103-4.75.543-1.415 1.01-2.936 2.648-3.816m3.653 139.38c.616.431.607.1.1-.786-.481-.886-1.567-2.33-3.255-3.586-3.364-2.66-8.511-4.318-11.24-5.683-2.902-1.234-4.757-2.914-6.202-4.374-.716-.63-1.37-1.46-1.914-1.964-.557-.49-1.039-.694-1.409-.552-.37.145-.59.622-.674 1.363-.095.738-.086 1.702.429 3.098.198.704.537 1.387.96 2.086.38.739.937 1.427 1.566 2.126 1.256 1.39 2.98 2.605 4.815 3.424 3.718 1.674 6.59 1.766 9.218 2.176 2.607.362 5.183.85 7.606 2.671m5.34 20.869c.498.61.565.267.303-.736-.323-.958-.713-2.766-1.816-4.586-1.888-3.9-5.912-8.123-8.965-10.46-1.534-1.24-3.01-2.221-4.414-3.124a40.372 40.372 0 0 0-3.718-2.145c-2.228-1.228-3.865-1.69-4.383-1.092-.521.602.178 2.15 1.726 4.168.82.992 1.908 2.109 3.156 3.27 1.2 1.115 2.646 2.277 4.069 3.427 2.96 2.276 5.336 3.836 7.697 5.424 1.178.786 2.19 1.691 3.337 2.58 1.072.939 1.985 2.067 3.008 3.274m10.079 15.155c1.718.36-.958-1.331-4.732-3.337-3.498-1.789-7.609-6.018-10.251-8.467-1.073-1.114-2.604-3.042-3.487-4.07-.995-1.26-2.003-2.669-3.072-3.733-.501-.54-1.095-.997-1.585-1.362-.57-.38-1.136-.672-1.554-.814-.819-.148-1.376-.075-1.601.25-.226.327-.095.878.334 1.594.137.37.248.716.426 1.112.192.462.407.975.643 1.538.499 1.148 1.036 2.588 1.995 4.332 1.17 1.908 1.969 3.179 3.717 5.093l.594.651.075.078.203.179.148.117.292.231c.396.295.78.588 1.159.872l.57.41.315.234.145.094.284.187 1.125.713c.747.454 1.476.872 2.2 1.268l.27.145.068.036.178.114.02.008.035.014.142.053.577.21 1.139.398c.721.275 1.551.484 2.4.646.828.162 1.638.365 2.42.44 1.583.203 3.145.43 4.808.766m-4.747 20.086c.345.596.487.312.457-.599-.095-.875-.09-2.546-.766-4.27-1.03-3.67-3.71-7.882-5.748-10.409-1.056-1.306-2.017-2.438-3.003-3.454-.896-.987-1.718-1.814-2.534-2.505-1.526-1.61-2.813-2.413-3.503-2.017-.688.393-.65 1.906-.025 4.031a27.012 27.012 0 0 0 1.838 3.68 41.913 41.913 0 0 0 2.732 3.842c2.077 2.569 3.954 4.221 5.784 5.895.958.811 1.693 1.703 2.587 2.608.855.916 1.457 2.017 2.181 3.198m1.942 11.487c2.008 1.683-3.5-8.497-7.678-13.177-4.197-4.522-8.541-7.316-9.708-6.244-1.17 1.076 1.284 5.611 5.478 10.133 4.06 4.555 7.848 6.101 11.908 9.288m-1.244 15.367c.616 1.03.68-1.134-.175-4.265-.838-3.146-2.788-6.901-4.325-9.219-.805-1.187-1.529-2.231-2.309-3.17a21.704 21.704 0 0 0-2.036-2.324c-1.261-1.47-2.4-2.215-3.122-1.88-.718.337-.882 1.685-.562 3.594.24.972.654 2.142 1.203 3.37.557 1.134 1.24 2.41 2.036 3.58 3.141 4.764 6.72 6.219 9.29 10.314m-.613 24.276c.362 1.655.933-1.295.771-5.875-.1-1.134-.136-2.393-.362-3.661-.267-1.27-.543-2.583-.818-3.88a110.858 110.858 0 0 0-1.257-3.709c-.442-1.184-1.005-2.234-1.481-3.21-1.997-3.841-4.462-6.87-6.442-8.836-1.997-1.897-3.553-2.842-4.2-2.382-.646.462-.259 2.24.894 4.744 1.078 2.49 2.847 5.65 4.66 9.14 1.857 3.43 3.367 6.216 4.826 8.907.75 1.352 1.287 2.742 1.955 4.163.599 1.434 1.003 2.958 1.454 4.6m-2.06 9.951c.162.527.38.362.608-.35.197-.694.568-2.034.39-3.522-.11-3.087-1.443-6.828-2.671-9.063a26.786 26.786 0 0 0-1.9-3.056c-.612-.866-1.172-1.554-1.77-2.159-1.12-1.337-2.165-2.059-2.906-1.763-.732.295-1.036 1.512-.869 3.27.154.897.449 2.014.861 3.118.398 1.05.936 2.212 1.518 3.301 1.211 2.232 2.506 3.686 3.748 5.157 1.262 1.454 2.426 2.928 2.991 5.067m1.695 15.637c.417.978.888-.891.537-3.82-.323-2.95-1.913-6.516-3.317-8.591a24.155 24.155 0 0 0-2.139-2.8c-.676-.78-1.32-1.415-1.966-1.939-1.245-1.178-2.362-1.719-3.058-1.337-.696.384-.838 1.613-.501 3.293.231.85.613 1.866 1.108 2.9.477.978 1.106 2.045 1.758 3.045 2.598 4.014 5.759 5.313 7.578 9.25m-298.522-57.259c-.042.914.211.563.76-.398.565-.98 1.68-2.63 3.117-4.61 2.865-3.949 6.823-9.37 8.792-13.953.997-2.268 1.726-4.622 2.002-6.95.3-2.302-.02-4.695-.95-6.461-.924-1.789-2.275-2.733-3.289-3.148-.919-.273-1.51-.195-1.743.117-.245.323-.028.908.41 1.677.258.702.684 1.616.801 2.733.337 2.165-.701 5.697-2.492 9.728-1.796 4.02-3.267 7.483-4.453 10.877-1.125 3.384-2.407 6.691-2.955 10.388m1.383 8.584c-.048.552.247.387.72-.18.55-.55.948-1.578 1.956-2.567 1.643-2.095 4.49-4.407 6.36-6.594.917-1.02 1.736-2.265 2.404-3.332a18.144 18.144 0 0 0 1.454-3.446c.234-1.87.017-3.182-.713-3.49-.732-.31-1.835.44-3.027 1.902a17.484 17.484 0 0 0-1.986 1.908c-.838.797-1.568 1.691-2.504 2.73-3.559 4.087-4.67 8.634-4.664 13.07m-2.443 17.013c-.033.618.256.42.719-.256.487-.677 1-1.83 1.94-3.126 1.669-2.625 4.273-5.91 5.933-8.508 1.623-2.555 2.899-5.213 3.514-7.314.496-2.033.432-3.47-.27-3.839-.704-.37-1.919.418-3.328 1.95-1.417 1.4-3.091 3.489-4.779 6.146-3.28 5.285-3.64 9.985-3.729 14.947m1.39 15.303c-.025.63.262.418.718-.287.226-.35.496-.822.783-1.373.14-.276.287-.571.443-.883.211-.293.431-.6.663-.92 1.604-2.613 4.67-5.494 6.608-8.252.97-1.276 1.733-2.841 2.384-4.148.538-1.554.995-3.017 1.08-4.12-.019-2.137-.417-3.55-1.188-3.736-.772-.187-1.769.891-2.76 2.786-.566.852-1.253 1.596-1.791 2.56-.824.997-1.479 2.106-2.426 3.354-3.592 4.9-4.81 9.968-4.514 15.02m1.05 19.832c-.059.769.22.585.72-.298.452-.87 1.368-2.505 1.792-4.463.593-2.095.927-4.01 1.487-6.135.649-2.354 1.075-3.811 1.882-5.28 1.354-2.852 3.223-5.44 4.39-7.516 1.186-2.05 1.804-3.64 1.217-4.19-.574-.532-2.114-.055-4.209 1.438-2.027 1.504-4.712 3.942-6.567 7.761a12.56 12.56 0 0 0-1.05 2.864l-.178.705-.022.087-.045.192-.002.039-.017.153-.028.304c-.03.404-.061.8-.089 1.192-.039.789-.086 1.521-.053 2.298.056.8.131 1.572.22 2.321.362 2.964.922 5.43.552 8.528m3.752 18.354c.179 1.622 1.025-1.17 1.585-5.31.479-3.936 1.473-9.188 2.735-12.26 1.264-3.271 2.776-6.453 3.484-9.052.774-2.635.61-4.296-.07-4.638-.738-.371-1.994.936-3.567 2.824-1.538 1.97-3.665 4.854-5.222 8.843-.724 2.006-1.106 4.034-1.134 5.814-.01 1.638.034 3.176.368 4.823.515 3.203 1.47 5.733 1.821 8.956"/>
    <path fill="#a4a6b0" d="M159.629 313.031c.036.802.292.58.685-.446.465-1.01.721-2.903.652-5.106-.1-2.137-.53-4.644-.616-6.567-.114-2.228.073-3.95.504-5.558 1.543-6.304 5.34-11.436 4.039-12.572-.607-.46-2.148.027-4.214 1.936-1.947 1.855-4.411 4.94-5.417 9.324-.25 1.09-.412 2.14-.381 3.182.008.568-.04.902.047 1.621.072.415.145.822.217 1.223.14.783.476 1.783.735 2.586.307.743.622 1.47.945 2.14 1.28 2.663 2.748 4.983 2.804 8.237m5.18 23.547c.12.895.354.502.635-.576.242-1.087.891-2.817 1.871-4.979.471-1.086 1.025-2.301 1.504-3.674.265-.63.451-1.51.657-2.296.215-.839.243-1.418.365-2.14.212-3.64-.523-6.223-.969-8.466-1.041-4.368-1.743-7.84-1.206-9.949.29-1.13.53-1.863.975-2.652.49-.755.654-1.329.429-1.652-.229-.329-.825-.376-1.705-.186-.871.203-2.395 1.223-3.389 2.785-1.089 1.616-1.579 3.876-1.59 6.113-.022 2.26.376 4.563.886 6.811.51 2.246 1.1 4.126 1.47 5.731.064.323.159.894.226 1.006.036.465.07.922.103 1.376.06.905.053 1.485.05 2.332-.106 3.279-.891 6.822-.312 10.416m277.256-46.196c.783.736.223-1.18-.209-3.71-.47-2.538-.418-6.004-.83-8.706-.18-1.29-.548-2.641-.894-3.775-.47-1.237-.969-2.346-1.49-3.132-1.117-1.42-2.175-2.153-2.913-1.86-.738.292-1.014 1.554-.863 3.356-.011.867-.03 1.77.092 2.744.041 1.123.206 2.238.395 3.566.766 5.196 3.57 8.676 6.712 11.517m-3.82 24.335c-.351.608-.07.633.782.048.93-.493 1.961-2.207 2.223-4.265.526-4.196-1.153-8.82-2.356-11.79-1.29-2.987-2.649-5.413-3.593-7.107-.95-1.382-1.546-2.937-2.356-2.903-.738.022-1.713 1.142-1.587 3.886.064 2.435.983 5.433 2.255 8.383 1.27 2.964 2.68 5.015 3.84 7.034 1.095 1.953 2.296 4.196.792 6.714m-5.548 17.45c-.426.576-.12.601.766.144.426-.248 1.078-.526 1.618-1.184.284-.309.624-.64.916-1.042.242-.429.493-.9.744-1.41.874-2.083.88-4.71.462-6.967-.401-2.298-1.161-4.293-1.835-5.89-1.401-3.156-2.886-5.635-3.866-7.385-.98-1.426-1.57-3.073-2.387-3.017-.726.042-1.724 1.19-1.54 4.054.12 2.546 1.198 5.641 2.53 8.65 1.333 3.025 2.636 5.084 3.472 7.199.847 2.011 1.028 4.59-.88 6.848m-7.971 17.088c-.554.574-.248.63.8.187 1.127-.301 2.65-1.828 3.611-4.012 1.777-4.508.906-10.308-.01-13.985a50.238 50.238 0 0 0-3.332-9.002c-.548-1.142-.966-1.755-1.4-2.46-.396-.66-.802-1.014-1.198-.986-.395.028-.744.432-1.033 1.14-.279.652-.373 2.008-.323 3.245.086 2.622.805 5.984 1.724 9.5.91 3.516 1.927 6.149 2.584 8.72.287 1.273.543 2.56.41 3.873-.081.651-.165 1.354-.521 1.966-.237.71-.75 1.24-1.312 1.814m-254.123-2.779c.663.858.329-1.114.766-3.48.415-2.384 1.905-5.362 2.754-7.9.836-2.491 1.27-5.135.992-7.124-.262-2.173-1.114-2.975-1.869-3.056-.819-.08-1.45 1.26-2.155 2.513a46.901 46.901 0 0 0-2.426 5.884c-1.718 4.964-.613 9.82 1.938 13.163m6.016 15.688c.325 1.245.877-.987 1.228-4.319.309-3.351.504-7.535 1.025-10.09.041-.685.189-1.298.353-1.883.15-.583.223-1.204.365-1.728.418-.964.476-1.91.863-2.87.855-1.905 1.073-3.328.452-3.819-.621-.493-1.967.037-3.635 1.296-.821.654-1.68 1.972-2.56 3.34-.372.705-.61 1.465-.904 2.265-.304.8-.54 1.638-.61 2.505-.106.863-.206 1.699-.204 2.476.048.766.123 1.494.22 2.193.156 1.415.613 2.588.975 3.775.819 2.312 1.783 4.388 2.432 6.859m9.422 16.027c.126.658.354.443.633-.423.292-.856.576-2.407.465-4.28-.109-3.839-2.036-8.355-2.593-10.82-.76-2.49-.51-4.569-.3-6.413.038-.858.275-1.803.28-2.471.009-.68-.147-1.151-.487-1.354-.342-.207-.833-.123-1.431.203-.6.337-1.304.81-2.045 1.906a7.694 7.694 0 0 0-1.038 1.79 8.357 8.357 0 0 0-.747 2.288c-.384 1.683-.3 3.697.206 5.494 1.025 3.658 2.732 5.524 4.05 7.502 1.353 1.92 2.598 3.918 3.007 6.578m8.93 16.926c.681 1.368.464-1.362.303-5.245-.192-3.892-.037-9.055-.167-12.785-.156-3.7-.56-7.149-1.176-9.63-.646-2.441-1.442-3.926-2.233-3.885-.794.042-1.432 1.605-1.824 4.101-.424 2.452-.666 5.829-.507 9.662.362 7.656 2.96 12.325 5.603 17.782m10.116 8.826c.295.55.468.332.493-.554.014-.446-.008-1.078-.195-1.705-.159-.58-.343-1.248-.538-1.973-.701-2.805-.813-6.519-1.03-9.213-.36-5.404-1.437-10.249-3.069-10.21-1.535.03-3.052 4.569-2.657 10.69.192 1.537.387 2.908.866 4.156a28.454 28.454 0 0 0 1.724 3.377c1.195 2.212 3.325 3.254 4.406 5.432m16.153 11.5c.05.744.304.538.677-.409.379-.92.844-2.697.565-4.847-.214-2.148-1.094-4.544-2.208-6.59-1.117-2.058-2.354-3.821-3.348-5.217-2.041-2.758-3.581-4.984-4.475-6.781-.195-.412-.412-.8-.64-1.165-.21-.392-.343-.835-.53-1.145-.354-.643-.735-.997-1.133-.992-.396.006-.77.371-1.103 1.026-.156.342-.351.699-.443 1.223a14.801 14.801 0 0 0-.12 1.933c.022 2.803 1.593 6.338 3.79 9.269 2.187 2.978 4.197 4.689 5.857 6.603 1.64 1.858 3.039 4.081 3.111 7.093m11.365 9.38c.242.479.404.178.524-.521.06-.351.108-.794.139-1.29.058-.513.214-1.176.306-1.842.206-1.337.49-3.462.412-5.009l-.005-.624c-.017-.278-.061-.51-.098-.769l-.253-1.482c-.276-.858-.538-1.774-.869-2.401-1.309-2.689-2.651-4.45-3.484-5.62-.203-.286-.454-.518-.663-.818a5.266 5.266 0 0 0-.57-.859c-.388-.465-.792-.702-1.184-.665-.396.036-.747.345-1.045.872-.147.262-.281.58-.4.947-.09.393-.09.93-.079 1.504.059 2.293 1.159 4.842 2.206 7.04l1.3 2.75c.41 1.02.797 1.992 1.184 2.959.733 1.732 1.468 4 2.58 5.828m16.906 8.344c.448.385.535.117.27-.685-.217-.827-1.083-2.05-2.275-3.15-.588-.566-1.245-1.076-1.833-1.586-.67-.557-.933-.833-1.626-1.513-.368-.496-.727-.986-1.072-1.454-.215-.532-.596-.936-.713-1.399-.774-1.64-1.064-3.883-1.57-5.7-.5-1.785-1.207-2.916-1.998-2.92-.796-.002-1.523 1.093-2.063 2.904-.477 1.727-1.078 4.652.398 8.087 1.601 3.343 4.186 4.647 6.525 5.252 2.158.54 4.155.551 5.957 2.164m9.681 5.56c.362.22.407.022.304-.39a5.211 5.211 0 0 0-.26-.727c-.089-.287-.06-.65-.133-.958.061-.742.231-1.58.568-2.809.315-1.234.643-2.83.465-4.635l-.008-.076-.078-.248a30.851 30.851 0 0 0-.674-1.936 28.717 28.717 0 0 0-.86-1.571c-1.736-2.552-3.504-3.973-4.663-4.948a9.555 9.555 0 0 0-.858-.602 5.365 5.365 0 0 0-.793-.62c-.507-.319-.958-.419-1.323-.266-.368.154-.613.546-.741 1.126-.064.29-.106.624-.106 1.006.059.415.164.894.323 1.423.602 2.028 2.111 4.157 3.337 6.004.217.393.481.755.704 1.095.181.342.387.66.613.97-.028-.11-.059-.215-.084-.316.535 1.028.8 2.655 1.27 4.355.418 1.713 1.454 3.496 2.997 4.123m19.388 3.529c1.064.259-.281-1.212-2.576-2.903-1.134-.847-2.487-1.739-3.573-2.597-1.112-.866-1.81-1.657-2.223-2.3-1.718-2.505-1.952-7.47-3.665-7.506-.768-.022-1.649.819-2.222 2.672-.29.963-.47 2.128-.39 3.51.056 1.368.523 3.048 1.532 4.56 1.024 1.538 2.4 2.407 3.576 2.923 1.205.54 2.305.727 3.364.886 2.102.273 4.06.248 6.177.755m7.335 1.78c.434-.139.042-.69-.474-2.51-.534-1.757-1.18-4.217-1.885-5.841-.716-1.625-1.573-3.01-2.409-3.931-.432-.5-.802-.72-1.223-.99-.4-.278-.807-.4-1.197-.33-.39.069-.73.32-1.005.718-.265.395-.399 1.145-.452 1.816-.097 1.421.232 3.224 1.028 5.034.8 1.808 2.005 3.023 3.334 3.993a16 16 0 0 0 2.086 1.284c.693.357 1.515.774 2.197.758m10.118 2.56c.15.39.37.279.616-.25.178-.51.648-1.533.52-2.709.064-2.496-1.34-5.463-2.579-6.937-.629-.816-1.261-1.398-1.902-1.947a8.902 8.902 0 0 0-1.749-1.142c-1.144-.669-2.172-.864-2.813-.393-.64.468-.78 1.496-.467 2.789.2.654.557 1.42.985 2.164.388.697.942 1.438 1.449 2.1 1.116 1.363 2.15 2.074 3.272 2.91 1.086.816 2.139 1.827 2.668 3.415m9.75-.685c.27.671.952-.476 1.3-2.496.401-2.023-.192-4.923-1.114-6.489-.897-1.627-1.997-2.677-3.005-3.307-1.017-.64-1.983-.824-2.654-.4-.671.42-.922 1.37-.785 2.56.142 1.203.713 2.638 1.406 3.908.735 1.279 1.526 2.037 2.481 2.942.892.903 1.816 1.93 2.37 3.282m7.384-2.419c.053.853 1.02-.518 2.242-1.927 1.2-1.446 3.328-2.438 4.996-3.79.769-.59 1.61-1.454 2.231-2.172.68-.928 1.265-1.845 1.49-2.572.312-1.418.173-2.51-.49-2.947-.663-.438-1.724-.131-2.902.713-.602.34-1.19.54-1.713.936-.749.435-1.362.903-2.228 1.577-1.604 1.217-2.82 3.076-3.383 4.859-.243.936-.315 1.886-.41 2.727.045.903.153 1.769.167 2.596m12.914-1.187c-.445.747 1.058.26 3.172-.735 2.1-.995 4.921-2.78 6.395-5.068.73-1.109 1.23-2.43 1.386-3.722.134-1.323-.105-2.499-.54-3.41a6.645 6.645 0 0 0-.755-1.164 2.977 2.977 0 0 0-.738-.466c-.473-.214-.907-.256-1.27-.094-.362.164-.618.515-.768 1.01-.084.243-.112.547-.167.837a8.14 8.14 0 0 0-.287.665c-.337.976-.813 1.848-1.674 3.207-1.86 2.669-2.919 5.898-4.754 8.94m16.663-6.79c.106.73.925-.36 2.22-1.563 1.289-1.234 3.236-2.95 4.272-4.875 1.041-1.867 1.398-4.43.615-6.057a5.377 5.377 0 0 0-.646-1.09c-.22-.261-.448-.333-.666-.45-.44-.196-.857-.24-1.23-.104-.374.137-.663.443-.87.875-.116.2-.153.502-.275.708l-.351.504c-.426.78-.944 1.552-1.64 2.9-1.485 2.67-1.741 6.138-1.43 9.152m12.286-4.171c-.49 1.083 1.295-.087 3.573-2.675.599-.596 1.122-1.521 1.665-2.485.632-1.047.78-1.786 1.145-2.688.674-1.839 1.242-3.148 1.649-4.486.997-2.318 2.228-4.794 2.799-6.744.568-1.956.579-3.366-.1-3.773-.683-.406-1.928.27-3.39 1.692-1.451 1.429-3.253 3.49-4.648 6.705-.535 1.577-.802 3.07-.992 4.441-.117 1.137-.01 2.594-.092 3.507.031 1.92-.693 4.26-1.61 6.506m14.883-10.835c.02.908 1.04-.421 2.31-2.34 1.26-1.903 3.004-4.547 3.67-6.935.342-1.15.51-2.318.557-3.41-.023-1.114-.064-2.192-.323-2.903-.507-1.443-1.217-2.34-2.011-2.348-.794-.009-1.52.875-2.053 2.31-.261.73-.632 1.345-.843 2.122-.293.775-.555 1.666-.839 2.613-1.175 3.767-.596 7.266-.468 10.89m7.442-2.963c-.49.505-.176.563.73.257.896-.293 2.434-1 3.885-2.48 1.481-1.426 2.77-3.627 3.428-5.88.668-2.255.852-4.464.863-6.23-.025-3.533-.551-6.447-1-8.542-.476-1.944-.933-3.543-1.746-3.588-.766-.045-1.72 1.045-2.317 3.496-.59 2.304-.696 5.458-.68 8.634.012 3.184.21 5.466-.016 7.77-.22 2.26-1.089 4.63-3.147 6.563m27.827-15.992c.574.05.496-.211-.092-.688a13.095 13.095 0 0 0-1.23-.844c-.246-.145-.507-.303-.786-.47l-.434-.249-.112-.06-.028-.018c.293.115.07.02.131.042l-.036-.036-.142-.145c-1.507-1.134-1.306-4.034-2.913-7.591-.17-.315-.337-.577-.51-.859-.228-.348-.454-.69-.674-1.028a25.733 25.733 0 0 0-1.668-1.621c-1.186-.813-2.309-1.399-3.38-1.627-1.067-.32-1.78-.223-2.37-.1-.583.133-.976.381-1.126.75-.15.367-.042.818.279 1.32.306.498.935 1.056 1.361 1.646.51.521 1.028 1.223 1.616 1.872.22.376.46.733.74 1.076l.014.016c-.064-.097.142.22-.142-.217v.003l.003.008.009.011.025.053.055.106.109.212.228.426.47.85c.151.462.327.794.566 1.254.262.562.524 1.072.825 1.585.342.554.693 1.072 1.05 1.554.598.797.696.755 1.384 1.365 1.2 1.009 2.306 1.193 3.525 1.363 1.067-.04 2.106-.064 3.253.041"/>
    <path fill="#a4a6b0" d="M401.203 394.694c.153.975.978-.524 1.838-3.029.504-1.25.691-2.746.883-4.245.092-.75.162-1.502.206-2.22.02-.725-.094-1.458-.172-2.098-.19-1.29-.46-2.505-.775-3.566-.392-.967-.888-1.728-1.348-2.388-.94-1.293-1.902-1.972-2.656-1.736-.76.237-1.17 1.346-1.22 2.95-.042.795.072 1.74.158 2.711-.03.923.017 1.89.16 2.887.478 4.03 2.364 6.847 2.926 10.734m4.85-9.496c.353.981.624-.93 2.019-2.788.724-1.073 1.793-2.05 2.687-4.335.21-.527.268-.805.399-1.215.153-.487.172-1.025.24-1.532.166-1.036-.018-1.978-.143-2.842-.844-3.343-2.498-5.123-3.459-6.307a9.707 9.707 0 0 0-.746-.733c-.24-.273-.463-.532-.688-.721-.451-.385-.88-.552-1.267-.457-.385.095-.688.44-.908.989-.106.276-.204.59-.254.97-.014.412.011.89.078 1.429.237 2.022 1.248 4.29 1.632 6.064.32 1.625.49 3.282.282 5.138-.276 1.992-.546 4.362.128 6.34m7.837-12.28c.293.35.407.172.415-.307a6.851 6.851 0 0 0-.058-.906c.005-.356.014-.771.022-1.234.122-.927.334-1.958.699-3.223.36-1.273.732-2.789.872-4.371l.005-.061-.016-.168a34.182 34.182 0 0 0-.407-3.142c-.337-1.449-.863-2.747-1.331-3.828-.463-1.003-.995-1.858-1.474-2.644-.919-1.616-1.874-2.527-2.648-2.348-.774.178-1.217 1.412-1.312 3.26-.02.932.153 2.083.387 3.328.193 1.176.504 2.338.786 3.533.136.827.342 1.582.598 2.29l-.01-.22c.275 1.613.467 3.393.927 5.215.443 1.828 1.306 3.555 2.545 4.825m5.05-10.652c.245.916.91-.694 1.615-3.046.708-2.292 1.596-5.783.92-8.658-.073-.688-.38-1.346-.633-1.967-.3-.621-.465-1.22-.913-1.736-.785-.989-1.59-2.022-2.281-2.323-1.4-.777-2.562-.995-3.153-.465-.593.529-.5 1.702.123 3.17.398.763.315 1.43.635 2.098.167.292.161.774.292 1.15.092.407.279.78.307 1.254.62 3.482 2.016 6.879 3.088 10.523m-32.8-207.798c7.178-1.691 4.373-1.788-5.09-.758-4.73.513-11.16 1.276-18.662 2.516-1.883.298-3.84.61-5.871.93-1.014.165-2.044.332-3.091.5l-1.585.255-.8.131-1.05.22c-4.244.875-8.733 1.797-13.417 2.759-18.771 3.65-40.825 6.689-62.749 8.421-21.92 1.795-43.682 2.427-61.798 2.842-36.224.738-69.268.705-93.236 1.903-24.02 1.117-38.767 3.206-38.767 5.29 0 2.148 14.836 3.892 38.65 5.547 23.865 1.569 56.911 3.326 93.695 2.58 36.768-.889 66.455-4.756 93.626-11.08 6.792-1.593 13.457-3.165 20.004-5.115l9.817-2.797 9.725-3.156 4.88-1.577 1.222-.393.53-.175.618-.173 2.481-.691 10.026-2.772c6.728-1.922 13.674-3.482 20.843-5.207m-72.014-45.417c1.036-1.995 2.607-3.803 4.59-4.926.977-.596 2.008-.96 3.141-1.178l1.334-.242 1.607-.084c2.084-.003 4.066.51 5.723 1.516 1.254.8 2.167 1.824 2.941 2.875a11.8 11.8 0 0 1 2.262 2.978c.13-5.85-.566-11.676-1.067-17.058-.061-.56-.17-1.06-.245-1.597.462-.017.908-.072 1.354-.13 1.172.526 2.484.882 3.924 1.058.002.003.002.005.002.011 1.747 11.316 5.047 26.076-4.23 35.139-3.406 3.33-7.94 5.583-12.797 4.981-2.593-.343-5.116-1.755-6.74-3.68-.765-.995-1.515-1.903-2.052-3.087-.418-.797-.972-2.343-1.184-3.354-1.03-4.516-.612-9.185 1.437-13.222"/>
    <path fill="#000" d="M317.766 113.299a4.875 4.875 0 1 0 4.874-4.875 4.875 4.875 0 0 0-4.874 4.875"/>
    <path fill="#a4a6b0" d="M219.28 104.124c.977-.596 2.008-.961 3.144-1.179l1.331-.242 1.61-.084c2.08-.002 4.066.51 5.723 1.519 1.253.797 2.167 1.822 2.938 2.872.894.855 1.657 1.85 2.264 2.978.131-5.85-.565-11.676-1.066-17.058a52.39 52.39 0 0 0-.485-3.335c.354.003.705-.02 1.056.006 1.345.05 2.645-.134 3.885-.493.22 1.05.415 2.106.579 3.165 1.746 11.319 5.046 26.076-4.23 35.138-3.41 3.332-7.94 5.583-12.8 4.984-2.59-.345-5.116-1.758-6.737-3.683-.769-.991-1.515-1.902-2.055-3.086-.418-.797-.972-2.343-1.184-3.355-1.03-4.516-.613-9.185 1.437-13.222 1.036-1.994 2.607-3.802 4.59-4.925"/>
    <path fill="#000" d="M218.46 111.875a4.875 4.875 0 0 0 4.565 5.165 4.875 4.875 0 0 0 .6-9.731 4.87 4.87 0 0 0-5.164 4.566"/>
    <path fill="#a4a6b0" d="M450.276 24.948c2.2 1.368 1.573.652-1.073-1.504-2.662-2.081-7.898-4.92-14.635-6.57-3.347-.924-7.012-1.501-10.808-2.092-3.715-.504-7.709-1.072-11.703-1.217-7.981-.42-16.047.448-22.474 2.577-1.602.588-3.295 1.131-4.752 1.772-1.456.702-2.656 1.242-4.258 2.061a71.813 71.813 0 0 0-7.594 4.79c-4.637 3.395-8.394 7.2-10.775 11.018-2.396 3.844-3.248 7.536-3.203 10.104-.036 1.324.195 2.187.395 2.803.195.61.393.93.59.928.201-.003.388-.33.566-.945.17-.616.315-1.568.674-2.557.596-2.048 1.855-4.984 4.292-7.985 2.45-3.011 6.043-6.112 10.474-9.012a85.184 85.184 0 0 1 7.224-4.174c1.323-.607 2.668-1.225 4.033-1.85 1.392-.587 2.72-.963 4.105-1.487 5.723-1.811 11.234-2.588 16.4-2.962 5.214-.365 9.996-.298 14.87-.08 4.776.186 9.385.47 14.016 1.284 4.623.783 9.288 2.273 13.636 5.098m-68.94 35.015c.498.192.52-.073.077-.714-.417-.685-1.47-1.49-2.846-2.148-2.78-1.264-6.503-1.654-8.906-1.627-2.44.045-4.467.343-5.921.644-1.234.373-2.596.596-2.807 1.376-.2.73.267 1.805 2.217 2.644 1.723.791 4.144 1.126 6.597 1.081 2.468-.042 4.286-.585 6.055-1.064 1.743-.449 3.526-.99 5.533-.192m8.11 10.17c.813-1.173-1.376.607-3.927-.159-1.284-.323-2.735-1.276-4.086-2.393a32.92 32.92 0 0 1-1.933-1.789c-.565-.554-1.453-1.398-2.166-1.947-1.552-1.198-3.56-2.056-5.361-2.301a13.283 13.283 0 0 0-4.328.228c-2.253.49-3.546 1.237-3.562 2.023-.017.8 1.387 1.493 3.49 2.04 1.06.264 2.224.545 3.286.885 1.005.401 1.918.889 3.018 1.713 1.04.83 2.3 1.859 3.732 2.653 1.379.757 2.805 1.273 4.261 1.52 2.891.58 6.027-.328 7.576-2.473m17.628-5.3c.457-.621.123-.613-.774-.126-.922.474-2.4 1.483-3.849 2.828-1.543 1.312-2.802 2.533-4.796 3.898l-.34.253-.17.126-.083.064-.042.03-.005.006.209-.164-.011.002-.02.011-.632.287-1.203.583c-.87.234-1.59.62-2.387.757-3.01.82-6.202 1.115-8.594 1.639-2.404.501-3.916 1.206-3.916 2-.003.794 1.476 1.524 3.907 2.064 2.415.493 5.996.93 10.138-.164 2.058-.54 3.823-1.55 5.227-2.71l.267-.207.131-.106.017-.011.203-.162.003-.005.006-.006.025-.028.044-.055.365-.446.696-.889c.449-.596.886-1.14 1.27-1.866 1.654-2.747 2.35-5.168 4.314-7.603m-125.32 505.151c-.014-.49-.14-.529-.357-.2-.462.638-.96 2.894-3.562 5.106-2.464 2.313-7.157 4.274-13.136 5.934-3.014.833-6.356 1.602-10.03 2.544-3.884 1.009-7.521 2.243-11.4 3.438-7.757 2.465-16.182 4.808-24.678 6.9-2.242.463-4.507.928-6.782 1.4l-3.425.704-.861.178-.214.045-.056.011c.061-.014-.209.047.122-.03l-.103.016-.42.059-1.677.242c-4.509.616-8.842 1.41-13.63 1.822-2.344.25-4.684.499-7.018.75-2.01.197-4.339.35-6.447.423-2.144.07-4.255.072-6.216-.048-1.93-.108.167-.607 1.41-1.707.59-.597 1.3-1.126 2.06-1.616.73-.507 1.451-1.011 2.164-1.507l2.12-1.5c.726-.456 1.478-.863 2.214-1.297 1.506-.856 2.86-1.73 4.45-2.583l5.019-2.505 1.239-.624a5.119 5.119 0 0 1-.178.084l.039-.014.075-.03.15-.062.3-.122.602-.246 2.393-.977c6.266-2.814 12.619-4.764 18.729-6.522 12.273-3.394 24.017-4.572 33.904-5.809 19.913-2.009 32.623-3.574 32.579-5.78-.042-2.023-12.416-4.302-33.03-5.046-2.57-.134-5.294-.078-8.132-.028-2.844.106-5.79-.005-8.87.332l-9.55.86c-3.278.558-6.653 1.134-10.112 1.722-6.868 1.538-14.09 3.435-21.239 6.391l-2.718 1.042-.682.262-.343.13-.172.068-.084.033-.3.134-1.254.596-5.06 2.421c-1.746.892-3.623 2.017-5.442 3.04-.91.532-1.844 1.041-2.743 1.604l-2.618 1.825c-1.727 1.293-3.506 2.287-5.11 3.811-1.607 1.474-3.198 2.93-4.766 4.371-1.108 1.15-1.172 1.234-2.297 2.66-.886 1.149-1.61 2.3-2.348 3.89-.677 1.658-1.454 3.909-.941 6.981a10.46 10.46 0 0 0 1.754 4.18c.847 1.194 1.766 2.002 2.646 2.654 3.478 2.304 5.851 2.505 8.09 2.931 2.217.318 4.189.382 6.105.382 3.813-.02 7.327-.354 10.75-.811l2.546-.373c1.083-.16 1.665-.293 2.514-.443 1.574-.293 3.133-.585 4.682-.875 3.08-.563 6.13-1.159 9.246-1.964 3.125-.783 6.002-1.413 9.185-2.33 2.846-.91 5.659-1.813 8.45-2.707 11.398-3.992 21.862-8.648 32.314-13.556 5.107-2.416 10.677-4.218 16.122-6.695 2.71-1.237 5.408-2.616 7.856-4.382 2.429-1.75 4.623-4 5.648-6.759.582-1.351.493-2.354.524-2.828Zm32.94 1.753c-.157-.574-.29-.632-.405-.178-.064.446-.314 1.44-.128 2.886.17 1.435.65 3.413 1.888 5.374 2.334 4.135 7.188 7.815 12.95 11.177 2.894 1.68 6.066 3.305 9.266 5.018 3.002 1.613 6.411 3.739 9.976 5.82 7.085 4.215 15.005 8.48 23.658 12.648 2.106.92 4.23 1.844 6.367 2.777l3.214 1.388.804.348.58.231.429.153 1.718.622c4.565 1.613 9.29 3.43 13.744 4.691l6.75 2.053c2.56.75 4.83 1.318 7.3 1.864 2.437.53 4.902.984 7.489 1.284 2.61.28 5.247.502 8.553.095 1.662-.262 3.545-.546 6.02-2.006 1.212-.763 2.588-1.858 3.61-3.554.537-.792.866-1.7 1.17-2.603.25-.874.356-1.713.429-2.563.07-3.206-.777-5.023-1.446-6.61-.663-1.527-1.752-3.171-2.189-3.82-3.17-4.115-6.116-7.558-9.357-10.32l-2.35-2.153c-.817-.68-1.675-1.306-2.507-1.955-1.666-1.26-3.379-2.622-4.988-3.742-1.577-1.03-3.142-2.053-4.693-3.07l-1.164-.758-.279-.175-.08-.045-.162-.086-.32-.176-.643-.353-2.557-1.39c-6.69-3.884-13.594-6.729-20.197-9.164-3.35-1.047-6.617-2.064-9.792-3.056-3.214-.73-6.333-1.437-9.349-2.123-3.01-.746-5.946-1.028-8.747-1.512-2.808-.43-5.5-.847-8.066-1.056-20.528-2.009-33.094-1.402-33.406.596-.34 2.184 12.051 5.43 31.518 10.074 9.636 2.543 21.116 5.276 32.83 10.274 5.82 2.555 11.858 5.335 17.695 8.957l2.24 1.29.562.323.284.162.14.08.071.04.034.019a5.99 5.99 0 0 0-.164-.106l1.147.783 4.637 3.15c1.465 1.057 2.69 2.104 4.069 3.152.668.53 1.362 1.033 2.022 1.582l1.902 1.77c1.209 1.203 2.69 2.278 3.657 3.518 1.047 1.203 2.289 2.237.827 2.137-2.947-.21-6.027-.663-9.035-1.21l-2.25-.431c-.515-.087-1.496-.329-2.217-.482-1.562-.346-3.113-.686-4.65-1.025-3.098-.658-6.12-1.307-8.921-2.076-2.799-.735-5.818-1.424-8.377-2.142-2.852-.883-5.673-1.758-8.472-2.627-10.79-3.605-21.263-7.804-31.816-12.448-5.391-2.38-10.964-4.053-16.34-6.452-2.687-1.204-5.358-2.555-7.822-4.352-2.434-1.786-4.74-4.131-5.849-7.277-.62-1.554-.61-2.674-.813-3.24ZM430.2 424.19c-.156.828.262.619.986-.192.713-.813 1.777-2.223 3.27-3.557a23.05 23.05 0 0 1 5.224-3.647c1.955-.978 4.008-1.663 5.734-2.237 6.915-2.262 13.59-3.056 13.772-5.268-.008-1.034-1.465-2.16-4.5-2.8-2.908-.624-7.141-.669-11.647.785-4.506 1.443-7.628 4.29-9.561 7.302-1.95 3.067-2.763 6.294-3.278 9.614"/>
    <path fill="#a4a6b0" d="M448.4 451.133c.41.916.596.417.652-.847.005-.627.002-1.446.13-2.45.04-.974.234-2.13.416-3.367.431-2.49 1.1-5.377 1.832-8.297.69-2.892 1.373-5.736 1.938-8.098.109-.544.218-1.081.323-1.61.123-.53.354-1.043.513-1.555a57.36 57.36 0 0 0 .916-3.003c.702-1.937 1.329-3.734 1.738-5.327.991-3.22 1.139-5.466.212-5.973-.928-.507-2.758.819-4.963 3.374a42.482 42.482 0 0 0-3.431 5.048 77.64 77.64 0 0 0-1.552 3.387c-.24.602-.537 1.187-.726 1.842-.156.668-.318 1.348-.48 2.036-.676 2.881-.854 4.954-.893 7.152-.056 2.137.016 4.215.259 6.22.484 3.987 1.375 7.832 3.116 11.468"/>
    <path fill="#a4a6b0" d="M461.026 453.575c.615.911.699.373.454-1.011-.276-1.368-.744-3.636-.925-6.355-.476-5.43.538-12.673 1.053-18.058.485-5.363.596-10.473.006-14.217-.588-3.883-1.752-5.886-2.777-5.892-1.086-.006-1.84 2.424-2.637 5.714-.786 3.435-1.719 8.19-2.22 13.732-.944 11.085 2.033 18.966 7.046 26.087"/>
    <path fill="#a4a6b0" d="M470.504 439.547c.972 1.215.554-1.668-.398-5.393-.488-1.847-.833-4.335-1.412-6.58-.437-1.859-.449-3.7-.504-5.391-.073-3.352-.05-6.868-.638-9.592-.267-1.413-.682-2.424-1.167-3.1-.468-.695-.977-1.074-1.507-1.065-.529.011-1.027.41-1.473 1.12-.432.727-.846 1.75-1.267 2.847-.763 2.298-1.677 5.697-1.601 10.024.039 2.159.551 4.215 1.306 6.003l.133.368.076.134.156.259.314.515.646.992c.435.646.88 1.268 1.334 1.875 1.674 2.457 4.139 4.575 6.002 6.984"/>
    <path fill="#a4a6b0" d="M448.364 178.988c25.822 76.983 24.371 154.022 17.654 233.78-.747 8.882-14.68 8.954-13.925 0 6.617-78.554 8.296-154.2-17.156-230.078-2.865-8.538 10.586-12.171 13.427-3.702m-55.907-16.722c.117.892.702-.604 1.006-3.036.359-2.402-.003-5.912-1.304-8.116-.51-1.14-1.398-2.008-2.102-2.816-.883-.702-1.727-1.352-2.42-1.641-1.387-.493-2.39-.577-2.68-.134-.292.44.187 1.326 1.192 2.396.457.554.772 1.173 1.287 1.741.37.727.978 1.388 1.345 2.254 1.613 3.273 3.097 5.772 3.676 9.352M189.72 195.888c.153-.668.312-.992.468-1.51.507-1.32 1.097-2.212 1.699-3.335 2.807-4.05 7.146-6.675 11.77-8.224 1.163-.37 2.486-.71 3.606-.947l1.62-.278.404-.07.326-.047.215-.017.849-.073c2.27-.192 4.517-.381 6.609-.395l5.996-.198c1.863.011 3.935-.415 5.823-.585 2.111-.351 4.144-.839 6.133-1.376 1.682 1.487 3.83 2.546 6.441 2.958a64.234 64.234 0 0 1-11.825 3.661c-1.952.25-3.773.708-5.962.797-2.15.15-4.348.29-6.372.368-2.12.053-4.136.264-6.191.45l-.777.068-.192.017-.05.005-.031.006-.404.072-1.62.29a36.685 36.685 0 0 0-2.817.755c-3.748 1.265-7.775 3.49-9.647 7.151-1.11 1.984-1.317 3.658-.626 4.856.643 1.29 2.785 2.396 5.054 2.967 2.376.602 4.685.691 7.517.66 1.423.028 2.9.073 4.542.46.808.187 1.713.51 2.613 1.126.933.599 1.718 1.78 1.977 2.939.387 2.273-.518 3.947-.905 5.009l-1.356 3.518c-.855 2.282-1.379 4.483-1.454 6.564-.095 1.053.108 2.031.242 3.009.323.916.524 1.886 1 2.705.487.97.97 1.878 1.49 2.59.465.775 1.047 1.497 1.61 2.193 2.261 2.767 4.634 4.753 6.372 6.216 3.564 2.853 4.634 3.744 1.568 1.878-3.028-1.909-5.874-3.931-8.35-6.313a32.374 32.374 0 0 1-3.392-3.873c-.487-.696-.908-1.412-1.365-2.114-.431-.797-.726-1.588-1.094-2.393-1.198-3.344-.79-6.999.003-10.28.392-1.664.902-3.28 1.395-4.865.627-1.68.727-2.961.298-3.287-.304-.435-1.866-.763-3.39-.738-1.564-.023-3.241.186-5.16.209-1.905.016-3.846-.142-5.834-.591-1.978-.468-4.058-1.178-6.008-2.736-1.985-1.493-3.378-4.507-3.138-7.182.005-.677.192-1.382.32-2.07m197.47-88.662c2.022.666 1.418.08-.955-1.315-2.378-1.376-6.492-3.691-11.672-5.876-10.27-4.577-24.536-9.416-35.03-11.394a78.657 78.657 0 0 0-7.66-1.379l-7.189-.972c-4.653-.396-8.884-.524-12.39-.574-6.907.37-11.199 1.148-11.244 2.2-.046 1.062 4.167 2.199 11.007 3.213 3.331.735 7.26 1.404 11.63 2.15 2.2.438 4.506.9 6.896 1.377 2.4.418 4.876.894 7.397 1.485 5.074 1.033 9.652 1.964 13.93 2.833 4.309.775 8.288 1.596 12.168 2.38 7.775 1.495 15.058 3.136 23.112 5.872m-191.885-2.341c-1.32.886-.63.87 1.334.248 1.977-.602 5.144-1.94 9.107-3.148 7.815-2.633 18.35-5.472 25.88-7.03l2.766-.693c.916-.178 1.819-.356 2.707-.532 1.774-.362 3.481-.738 5.108-1.123 3.22-.596 6.105-1.111 8.578-1.735 5.163-.778 8.363-1.761 8.349-2.825-.011-1.053-3.22-1.984-8.416-2.594-2.674-.067-5.943-.092-9.517.167-1.749.206-3.581.452-5.48.733l-2.894.451-2.924.686c-1.972.479-3.838.977-5.615 1.49-1.754.58-3.403 1.234-4.988 1.858-3.188 1.201-6.007 2.686-8.692 4.165-5.377 2.931-10.07 6.269-15.303 9.882M524.2 116.977c1.66.276 2.005.273 1.236.025-.732-.276-2.751-.785-5.48-.17-2.708.538-5.919 1.942-9.67 2.162-1.84.059-3.712-.329-5.743-1.128-2.01-.775-4.425-1.738-7.12-1.794h-.06l-.094.01c-2.665.277-4.665 1.798-6.464 2.826-1.816 1.1-3.537 1.75-5.3 1.552h-.016l-.134-.006c-1.916-.072-3.788-.908-5.734-2.014-1.961-1.064-3.96-2.471-6.824-3.084l-.827-.106-.412-.053-.206-.025-.103-.014-.05-.006-.362-.01-.028.005-1.863.295c-1.276.128-2.303.688-3.428 1.028-2.053.894-3.863 1.925-5.473 2.644l-1.197.543-1.176.365c-.81.332-1.473.304-2.158.426-.577.229-1.693-.08-2.529-.122l-.671-.075-.084-.011-.041-.003-.02-.003h-.011l-.006-.003c-.052-.008.454.084.237.045l-.12-.045-.242-.086c-.323-.126-.649-.181-.98-.385-1.329-.624-2.665-1.7-4.261-2.643-1.588-.959-3.47-1.644-5.353-1.85l-.1-.011-.075.002c-2.638.076-4.707.992-6.581 1.792-1.875.833-3.534 1.724-5.091 2.462-3.097 1.552-5.877 2.405-8.021 1.998-2.208-.376-3.414-2-4.32-2.925-.824-1.126-1.347-1.683-1.514-1.591-.168.095.03.836.55 2.134.67 1.173 1.8 3.485 4.741 4.396 2.913.917 6.442.014 9.722-1.362 1.627-.677 3.353-1.393 5.166-2.145 1.758-.672 3.64-1.324 5.35-1.285l-.172-.008c1.278.217 2.526.674 3.815 1.49 1.295.794 2.643 1.962 4.498 2.9.426.262.975.424 1.487.614l.39.133.198.067.406.067.671.084c.956.058 1.65.356 2.897.175 1.139-.097 2.348-.187 3.289-.56l1.507-.474 1.38-.618c2.413-1.09 4.404-2.354 6.353-3 .97-.449 1.93-.51 2.872-.72l.175-.035.045-.012.01-.002h.007c-.663-.017-.182-.003-.326-.009l.025.003.106.011.415.045.83.083c.632.017.863.237 1.28.332 1.63.532 3.518 1.652 5.426 2.605 1.963.964 4.205 1.666 6.51 1.677l-.133-.009c2.774.196 5.256-1.07 7.057-2.331 1.855-1.257 3.46-2.533 5.25-2.825l-.106.005c2.097-.086 4.164.485 6.325 1.156 2.153.68 4.534 1.118 6.843.789 2.32-.279 4.464-1.084 6.653-1.908 2.161-.794 4.448-1.72 6.957-1.48m4.708 83.827c1.396.942 1.71 1.084 1.114.538-.551-.555-2.175-1.858-4.912-2.438-2.685-.638-6.189-.7-9.69-2.064-1.7-.71-3.241-1.844-4.75-3.416-1.507-1.54-3.303-3.426-5.73-4.596l-.055-.026-.089-.03c-2.537-.858-4.988-.31-7.052-.123-2.11.245-3.946.114-5.466-.797l-.014-.008-.12-.061c-1.713-.864-3.064-2.402-4.373-4.218-1.342-1.786-2.573-3.898-4.92-5.647l-.708-.44-.354-.22-.175-.11-.09-.055-.041-.028-.326-.158-.028-.009-1.816-.507c-1.214-.415-2.38-.334-3.545-.493-2.239-.042-4.314.142-6.077.123l-1.314-.006-1.22-.156c-.877-.036-1.468-.34-2.139-.51-.62-.036-1.506-.78-2.25-1.167l-.577-.348-.072-.042-.036-.022-.02-.012-.008-.005-.003-.003c-.047-.03.376.265.195.14l-.092-.093-.184-.178c-.242-.248-.512-.434-.73-.76-.949-1.12-1.718-2.653-2.77-4.176-1.047-1.533-2.473-2.94-4.1-3.912l-.086-.05-.067-.03c-2.431-1.031-4.695-1.062-6.734-1.112-2.047-.025-3.927.094-5.65.117-3.462.12-6.345-.265-8.125-1.527-1.852-1.26-2.27-3.24-2.71-4.457-.28-1.366-.523-2.093-.715-2.076-.192.014-.318.772-.387 2.168.122 1.345.186 3.917 2.481 5.973 2.264 2.044 5.852 2.694 9.405 2.81 1.76.065 3.629.131 5.59.201 1.877.12 3.86.315 5.397 1.062l-.153-.081c1.075.73 2.016 1.666 2.849 2.944.846 1.262 1.587 2.884 2.882 4.51.279.419.71.792 1.097 1.18l.298.283.15.143.346.23.574.355c.844.454 1.35 1.01 2.562 1.367 1.075.385 2.211.808 3.22.861l1.57.198 1.512.011c2.646.017 4.983-.306 7.027-.08 1.067-.006 1.963.34 2.907.54l.176.042.044.008.012.003.005.003c-.596-.293-.161-.081-.292-.142l.022.01.09.054.361.214.719.424c.568.275.685.57 1.025.833 1.258 1.161 2.512 2.967 3.848 4.627 1.385 1.697 3.13 3.268 5.222 4.237l-.117-.06c2.44 1.33 5.222 1.214 7.386.818 2.209-.368 4.197-.86 5.949-.381l-.098-.04c1.941.795 3.582 2.176 5.27 3.686 1.67 1.513 3.656 2.903 5.89 3.57 2.228.712 4.511.874 6.845 1.033 2.295.178 4.757.29 6.94 1.554m3.017-41.59c1.562.628 1.9.7 1.2.293-.654-.429-2.514-1.362-5.313-1.348-2.76-.059-6.197.621-9.907.025-1.813-.337-3.556-1.12-5.366-2.337-1.796-1.19-3.946-2.653-6.567-3.288l-.059-.014-.092-.008c-2.662-.304-4.943.747-6.923 1.365-2.01.685-3.832.945-5.511.373l-.014-.005-.128-.034c-1.858-.482-3.504-1.702-5.167-3.2-1.687-1.463-3.333-3.268-5.998-4.483l-.786-.282-.39-.139-.195-.072-.097-.034-.05-.016-.351-.09-.028-.002-1.883-.112c-1.272-.15-2.398.176-3.57.268-2.197.429-4.186 1.044-5.913 1.398l-1.289.273-1.223.103c-.863.15-1.503-.022-2.2-.047-.612.097-1.634-.446-2.442-.666l-.638-.217-.08-.028-.04-.014-.02-.006-.01-.005h-.006c-.05-.022.423.178.223.092l-.109-.07-.22-.136c-.287-.19-.593-.315-.871-.588-1.165-.894-2.24-2.232-3.59-3.5-1.348-1.275-3.036-2.35-4.832-2.958l-.095-.03-.072-.017c-2.593-.493-4.813-.045-6.815.331-2.008.41-3.821.925-5.5 1.31-3.36.847-6.255 1.078-8.263.22-2.078-.842-2.902-2.689-3.588-3.79-.562-1.275-.952-1.933-1.136-1.877-.186.056-.15.825.078 2.201.401 1.29 1.006 3.792 3.682 5.316 2.646 1.523 6.288 1.4 9.786.766 1.735-.31 3.573-.638 5.506-.981 1.86-.279 3.84-.507 5.5-.103l-.167-.045c1.206.488 2.323 1.204 3.407 2.28 1.094 1.052 2.16 2.482 3.768 3.8.359.347.86.623 1.32.919l.353.217.176.106.384.153.638.226c.922.264 1.532.702 2.79.796 1.134.15 2.334.324 3.331.162l1.577-.14 1.481-.306c2.59-.54 4.804-1.348 6.848-1.56 1.045-.228 1.994-.08 2.958-.083l.181.002h.061c-.643-.158-.175-.041-.314-.078l.022.009.1.033.398.134.791.262c.616.15.794.415 1.181.596 1.476.872 3.08 2.37 4.735 3.714 1.71 1.367 3.748 2.535 5.999 3.039l-.129-.033c2.668.788 5.362.086 7.392-.755 2.083-.828 3.924-1.73 5.737-1.627l-.103-.017c2.063.365 3.96 1.37 5.926 2.49 1.952 1.126 4.186 2.068 6.509 2.246 2.328.228 4.595-.098 6.91-.432 2.28-.31 4.711-.719 7.112.056M126.834 52.647c.763.181 2.72.883 4.643 2.914 1.949 1.959 3.832 4.914 6.823 7.19 1.495 1.076 3.267 1.797 5.394 2.265 2.1.482 4.646 1.028 6.91 2.485l.053.034.072.058c2.055 1.72 2.869 4.096 3.788 5.954.894 1.928 1.963 3.427 3.537 4.246l.013.008.115.07c1.629 1.011 3.648 1.36 5.882 1.526 2.222.212 4.662.16 7.38 1.248l.746.374.373.184.184.094.095.045.044.025.307.192.022.02 1.379 1.284c.988.82 1.531 1.858 2.272 2.766 1.206 1.89 2.136 3.753 3.072 5.25l.69 1.12.772.955c.487.73 1.056 1.075 1.554 1.56.351.51 1.451.875 2.167 1.306l.59.307.059.017.248.06c.337.079.637.213 1.027.23 1.05.16 2.267.147 3.54.155a14.462 14.462 0 0 0-1.574 3.667 18.71 18.71 0 0 1-2.47-.12c-.498-.02-1.044-.192-1.573-.32l-.401-.106-.201-.056-.376-.173-.601-.304c-.828-.484-1.568-.624-2.504-1.468-.891-.719-1.847-1.465-2.418-2.3l-.988-1.235-.8-1.284c-1.398-2.249-2.342-4.41-3.6-6.035-.555-.914-1.318-1.499-1.98-2.198l-.112-.111-.27-.145-.735-.39c-.535-.34-.85-.287-1.248-.443-1.649-.465-3.84-.59-5.957-.861-2.136-.292-4.35-.953-6.25-2.192-2.392-1.39-3.743-3.809-4.53-5.854-.836-2.067-1.457-4.009-2.766-5.251-1.68-1.215-3.688-1.886-5.83-2.527-2.163-.638-4.383-1.605-6.118-3.162-1.771-1.527-3.102-3.39-4.459-5.299-1.35-1.864-2.732-3.906-4.948-5.106-1.532-.697-1.819-.892-1.042-.67m-50.823 67.45c.769-.153 2.84-.33 5.436.717 2.585.97 5.529 2.872 9.194 3.694 1.81.356 3.718.273 5.85-.187 2.11-.437 4.65-1.003 7.317-.621l.059.008.091.025c2.585.705 4.312 2.527 5.924 3.834 1.613 1.379 3.208 2.298 4.98 2.387l.016.003.134.014c1.902.24 3.882-.284 5.982-1.062 2.108-.732 4.306-1.8 7.23-1.941l.835.03.415.014.207.006.103.005h.052l.36.05.028.009 1.788.593c1.239.332 2.163 1.05 3.216 1.569 1.883 1.212 3.504 2.521 4.977 3.49l1.094.73 1.1.55c.727.445 1.368.534 2.003.751a12.056 12.056 0 0 0-3.89 2.577l-1.168-.587-1.264-.833c-2.206-1.463-3.963-3.034-5.784-3.987-.886-.602-1.822-.813-2.716-1.173l-.145-.056-.309-.02-.832-.046c-.627-.09-.889.091-1.318.117-1.69.261-3.737 1.061-5.773 1.696-2.064.627-4.35.947-6.595.61-2.754-.264-4.988-1.902-6.556-3.432-1.62-1.53-2.99-3.037-4.7-3.622-2.03-.404-4.14-.18-6.35.128-2.234.324-4.654.371-6.88-.325-2.247-.65-4.232-1.789-6.26-2.96-2.002-1.13-4.11-2.412-6.625-2.582-1.683.006-2.025-.053-1.226-.172m20.745-36.46c.783.012 2.846.276 5.163 1.845 2.323 1.493 4.799 3.975 8.21 5.55 1.694.73 3.576 1.052 5.757 1.05 2.153.016 4.757.002 7.283.939l.055.019.084.045c2.378 1.234 3.684 3.379 4.982 4.995 1.29 1.688 2.654 2.922 4.367 3.385l.017.002.125.045c1.81.635 3.857.54 6.074.223 2.214-.273 4.587-.85 7.475-.373l.81.203.404.103.301.075.05.014.34.123.025.014 1.624.958c1.142.582 1.896 1.482 2.815 2.21 1.585 1.582 2.894 3.206 4.13 4.462l.917.945.958.769c.635.604 1.261.822 1.852 1.186.454.424 1.607.544 2.398.811l.643.173h.061l.256.008c.346.003.669.07 1.053 0 1.465-.094 3.103-.604 4.93-.9 1.83-.312 3.832-.261 5.661.237l.095.025.07.03c1.437.614 2.562 1.43 3.559 2.29-1.36.33-2.585.834-3.662 1.497-.351-.2-.708-.365-1.067-.504-1.25-.257-2.56-.287-4.033-.003-1.495.265-3.177.858-5.247 1.053-.492.09-1.063.039-1.61.028l-.411-.02-.207-.008-.403-.09-.655-.163c-.913-.299-1.665-.274-2.763-.898-1.022-.507-2.116-1.033-2.854-1.724l-1.231-.995-1.058-1.08c-1.85-1.895-3.237-3.8-4.816-5.116-.74-.774-1.61-1.178-2.409-1.721l-.13-.084-.296-.083-.805-.223c-.593-.218-.888-.098-1.311-.162-1.71-.1-3.877.25-6.002.44-2.15.179-4.453.012-6.575-.79-2.638-.842-4.476-2.915-5.687-4.74-1.259-1.838-2.284-3.602-3.832-4.532-1.9-.825-4.005-1.048-6.233-1.212-2.253-.156-4.629-.622-6.656-1.77-2.061-1.108-3.763-2.64-5.498-4.212-1.718-1.53-3.509-3.226-5.932-3.92-1.646-.35-1.966-.479-1.161-.428"/>
  </g>
</svg>
