<svg xmlns="http://www.w3.org/2000/svg" width="304" height="237" viewBox="0 0 304 237">
  <g fill="none" fill-rule="evenodd">
    <path fill="#1d1d1f" d="M156.917 209.391c-4.174 4.397 7.014 9.73 10.263 11.508 4.866 2.665 8.647 5.02 13.535 5.931 2.766.515 5.159 1.883 7.98 2.303 2.312.344 4.976.343 7.434.22 1.068-3.48-3.312-5.876-5.612-7.818-2.543-2.147-5.632-4.149-8.557-6.108-4.026-2.697-8.251-3.437-13.278-4.273-2.73-.454-4.991-1.122-7.765-1.263-1.518-.077-2.678-.169-4-.75m-17.79-.375c-2.906 2.028-9.021 1.874-12.833 2.687-6.75 1.439-11.02 4.605-16.108 8.945-2.32 1.978-8.621 9.17-2.24 10.288 3.595.629 8.445-2.58 11.68-3.835 2.662-1.032 5.846-2.686 8.468-4.021 4.297-2.188 8.745-4.47 12.39-7.522 2.245-1.88 4.36-3.11 2.924-6.627-.98-.334-2.088-.65-2.914-.712m81.627-185.46c-.275-.603-.504-1.368-.843-1.927-.297-.49-.788-.762-1.156-1.19-.5-.581-.98-1.188-1.516-1.776-.707-.773-1.155-1.708-2.045-2.354a59.023 59.023 0 0 0-3.203-2.137c-2.8-1.761-5.913-2.173-9.023-3.213-1.702-.57-3.37-1.027-5.177-1.02-1.987.007-3.953.363-5.914.563-3.5.355-6.962 1.419-10.505 1.52-1.062.03-1.445 0-1.741-.998-.24-.81-.376-1.586-.667-2.42-.443-1.273-1.45-2.888-2.642-3.582-.956-.557-1.837-1.342-2.843-1.63-.876-.25-1.938.039-2.863-.14-.978-.187-1.96-.564-2.945-.698-1.225-.167-2.65.198-3.86.398-1.152.192-2.312.447-3.402.878-1.036.409-2.085 1.015-2.57 2.069-.45.977-.554 2.282-1.451 3.044-.491.416-1.27.246-1.94.246-.99 0-2.01-.076-2.993-.006-1.39.099-2.867.648-4.237.933-3.428.713-6.748 1.572-10.056 2.69-1.718.58-3.76 1.449-5.216 2.549-.954.72-1.95 1.307-3 1.73-1.052.423-2.008 1.225-2.954 1.83-.725.465-1.685.677-2.281 1.326-.664.723-1.202 1.566-1.911 2.3-1.588 1.646-3.26 3.233-5.174 4.497-4.592 3.029-11.598 5.233-17.333 4.658-2.387-.24-4.784-.387-7.172-.625-2.326-.231-4.72-.11-7.006-.653-1.35-.321-2.85-.568-4.232-.563-2.492.009-4.582.095-6.59 1.77-1.38 1.152-2.538 3.248-1.837 5.074.34.884 1.153 1.677 1.659 2.404.504.724.93 1.854 1.595 2.417.898.76 2.066.438 3.088.752.56.173.932.503 1.564.68 1.336.378 2.726.39 4.049.82 1.479.483 2.944 1.01 4.415 1.517 2.942 1.012 5.889 2.014 8.872 2.899 3.136.93 6.338 2.23 9.49 3.025 1.458.368 2.865.363 4.345.405 1.627.047 3.358.696 4.833 1.347.546.242 1.158.369 1.68.653.876.474 2.204 1.096 2.622 2.08.45 1.06-.55 2.13-1.332 2.776-6.286 5.182-14.69 4.609-22.123 6.953a5.975 5.975 0 0 1-.543.142 6.7 6.7 0 0 1-.68.52l-.25.167a4.064 4.064 0 0 1-.875.442c-.384.907-.531 1.92-.34 2.786.527 2.379 3.505 2.513 4.45 4.587 1.082 2.378-2.068 5.747-2.75 8.146-2.28 8.032-1.745 18.18.075 26.18.196.86.41 1.713.628 2.564.476.747.763 1.62.782 2.552 2.234 3.433 3.02 7.139 4.112 11.022 1.264 4.495 4.139 7.973 6.689 11.813 2.293 3.454 4.373 7.034 6.432 10.628a238.499 238.499 0 0 0 4.84 4.304c4.205 3.666 9.21 7.702 14.474 10.255.393.01.77.082 1.138.18.134-.01.268-.026.405-.026l.493.066c.418.053.835.094 1.257.1.34.005.672.053.994.123a5.518 5.518 0 0 1 2.415.024 5.148 5.148 0 0 1 1.758-.23c3.614.124 7.228.165 10.845.166.5 0 1.007.01 1.517.02.695-.372 1.473-.603 2.304-.603h.25c.524 0 1.022.108 1.499.264a5.747 5.747 0 0 1 2.172-1.335c1.876-.644 3.45-1.165 5.018-1.892 4.273-2.701 8.52-5.425 12.853-8.021a77.704 77.704 0 0 0 4.442-6.025c3.594-5.363 7.964-10.73 10.358-16.675 2.36-5.862 3.552-12.608 4.73-18.723 1.534-7.948 2.335-16.382 1.928-24.6-.33-6.653-.326-14.336-1.325-20.98-.25-1.651-.764-3.65-1.112-5.623-.086-.486-.945-1.247-1.15-1.81a5.653 5.653 0 0 1-.32-2.287c.076-1.162.622-3.133 1.912-3.51.67-.195 1.44-.058 2.127-.136.688-.078 1.338-.14 2.049-.135 1.575.01 3.152.016 4.724-.093 3.026-.21 6.095-.866 8.587-2.688 1.467-1.073 3.02-1.841 3.935-3.518.94-1.725 1.186-3.697 1.947-5.482 1.293-3.03 1.047-6.648.366-9.805-.352-1.63-.93-3.21-1.62-4.724Z"/>
    <path fill="#fff" fill-opacity=".05" d="M192.773 221.49c5.266 3.64.273 12.312-5.047 8.635-5.932-4.1-13.28-5.255-19.333-9.167-.1-.065-.19-.135-.284-.204a4.555 4.555 0 0 1-1.693-1.947c-1.577 0-2.766-.6-3.57-1.504a5.721 5.721 0 0 1-.582-.035c-.064-.007-.125-.019-.188-.028a5.05 5.05 0 0 1-.615-.13 4.588 4.588 0 0 1-.39-.128c-.053-.02-.105-.039-.155-.06a4.252 4.252 0 0 1-.429-.208c-.02-.01-.043-.02-.063-.033a4.335 4.335 0 0 1-1.278-1.12 5.01 5.01 0 0 1-.306-.445c-1.195-.474-2.032-1.382-2.492-2.47a722.722 722.722 0 0 0-8.24.015c-.723.005-4.32-.314-4.525.267.278-.485.501-1.104.504-1.68-.33 1.692-1.815 2.837-3.087 3.874-2.68 2.186-5.638 4.15-8.93 5.506-1.29.531-2.423 1.171-3.754 1.616-.816.273-1.788.463-2.576.803-.866.374-1.615 1.032-2.436 1.51-1.098.641-2.226 1.18-3.305 1.86-2.038 1.288-4.004 2.613-6.41 3.1-2.119.427-4.907 2.038-6.97.628-1.369-.935-.265-3.055.525-4.089 1.015-1.332 2.222-2.488 3.237-3.819 1.182-1.55 2.7-2.457 4.32-3.513 1.565-1.02 5.937-3.033 5.117-5.552-1.067-.138-2.122.082-3.175.135-.57.03-1.155-.055-1.722.001-7.664.75-15.396 1.16-23.082 1.881-9.376.88-18.86 1.906-28.032 4.121-2.612.632-5.31 1.331-7.716 2.563-1.026.526-2.675 1.41-2.675 2.768 0 6.627 44.772 12 100 12 55.23 0 100-5.373 100-12 0-5.763-33.869-10.568-79.008-11.726 5.848 3.44 12.732 4.681 18.365 8.575Z"/>
    <path fill="#a4a6b0" d="M142.205 209.285c.173-.079.355-.146.545-.205-.46-16.353-1.619-33.399-2.725-49.68-.218-3.2-5.219-3.22-5 0 1.145 16.851 2.684 33.816 3.09 50.731.805-.944 1.59-.928 3.208-.928.286 0 .59.035.882.082M82.156 34.405c-1.802 6.694-8.689 10.66-15.383 8.859-6.695-1.802-10.66-8.69-8.859-15.383 1.801-6.695 8.69-10.661 15.383-8.86 6.694 1.802 10.661 8.69 8.86 15.384"/>
    <path fill="#a4a6b0" d="M74.45 26.69c-1.422-.434-.848-.399 1.03-.045 1.874.363 5.063 1.004 8.893 1.634 3.83.611 8.324 1.164 12.738 1.368 1.108.03 2.176.127 3.297.102 1.086-.01 2.246.026 3.221-.018 1.01-.099 2.012-.062 2.941-.268l1.378-.222c.45-.079.871-.226 1.292-.328 6.788-1.775 11.484-6.622 15.126-9.847 1.864-1.625 3.587-2.754 4.94-3.287 1.293-.503 2.051-.587 2.13-.434.095.185-.562.621-1.65 1.391-1.04.744-2.457 2-4.075 3.735l-2.71 2.89c-.53.51-1.03 1.054-1.64 1.58-.577.504-1.115 1.034-1.773 1.552-2.598 2.135-5.824 4.07-9.638 5.076-3.79 1.046-7.412.817-10.432.657-3.175-.268-6.066-.653-8.828-1.208-5.532-1.087-10.564-2.579-16.24-4.329m54.087-11.897c-.161.025-.159-.066-.018-.24.143-.155.419-.486.83-.662.822-.46 1.976-.626 2.604-.696.346-.022.613-.064.89-.053.209-.035.408.024.655.008.51-.089.899-.022 1.045.222.147.244.024.62-.294 1.028-.184.2-.549.402-.94.585-.351.118-.772.24-1.163.263-.816.072-1.354-.117-1.895-.275-.534-.167-1.073-.31-1.714-.18"/>
    <path fill="#a4a6b0" d="M131.987 12.085c-.177.006-.16-.085.04-.248.184-.173.627-.381 1.195-.381.539 0 1.136.173 1.461.197.068.013.209.024.328.037l.09.01.045.005.023.003h.011l.005.002-.121-.02h.001l.002-.001.123-.017c.159-.008.313-.035.459-.058.567-.08 1.36-.297 2.025-.225.173.017.327.043.453.08.108.049.201.103.278.16.154.116.243.247.25.39.007.142-.067.282-.209.413a1.572 1.572 0 0 1-.261.189c-.08.07-.162.14-.25.203-.384.242-.942.646-1.973.828a2.543 2.543 0 0 1-.748.017l-.178-.022-.29-.047-.242-.11a4.999 4.999 0 0 1-.528-.3c-.157-.11-.272-.218-.396-.326-.431-.414-.848-.843-1.593-.78"/>
    <path fill="#a4a6b0" d="M135.476 10.108c-.335-.062.219-.399 1.13-.463.896-.062 1.984.078 2.637.201l1.488.323c.25.146.784.051.915.312.083.116.1.27.059.451.002.164-.222.424-.532.627-.585.395-1.523.48-2.327.311-1.62-.332-2.094-1.408-3.37-1.762"/>
    <path fill="#a4a6b0" d="M138.847 8.449c-.267-.096.197-.355.984-.421.784-.071 1.779.126 2.361.375.306.128.556.263.79.418.215.138.392.287.545.446.343.303.513.627.429.899-.085.272-.408.44-.862.494a3.501 3.501 0 0 1-.827-.08 5.03 5.03 0 0 1-.869-.273c-1.147-.465-1.485-1.42-2.551-1.858"/>
    <path fill="#a4a6b0" d="M142.833 7.36c-.095-.23.376-.086.933.183.268.152.603.268.9.41.147.07.29.143.418.22.13.06.246.096.344.154.2.11.368.247.53.401.23.127.426.268.583.415.313.294.464.612.38.883-.086.273-.392.447-.817.51a2.919 2.919 0 0 1-.715.006 4.957 4.957 0 0 1-.932-.395c-1.254-.738-1.25-1.868-1.624-2.788m7.095-.72c-.32-.178.346-.248 1.284-.248.924-.009 2.24.017 3.212.415.479.164.896.46 1.253.727.33.312.654.62.789.886.289.537.37.972.173 1.178-.196.207-.633.145-1.18-.122-.278-.143-.55-.197-.825-.353-.306-.107-.606-.28-.968-.398-1.397-.51-2.494-1.34-3.738-2.086"/>
    <path fill="#a4a6b0" d="M147.59 7.579c-.158-.266.398-.044 1.064.072.668.13 1.57.037 2.336.094.356.03.754.1 1.079.183.374.114.71.244.947.39.419.317.638.65.557.923-.081.273-.447.435-.973.475-.245.047-.492.096-.76.099a6.344 6.344 0 0 1-1.031-.016c-1.541-.107-2.668-1.148-3.22-2.22"/>
    <path fill="#a4a6b0" d="M144.546 6.635c-.168-.25.348-.144 1.088.168.382.152.765.371 1.129.604.373.243.71.48.935.67.238.201.434.421.62.641.219.212.4.427.536.631.272.41.36.781.2 1.018-.16.236-.535.292-1.015.192-.24-.05-.506-.14-.784-.265a5.776 5.776 0 0 1-.866-.624c-.611-.516-.82-.984-1.07-1.52-.231-.509-.44-1.008-.773-1.515m12.771-.037c.028-.179.352-.024.695.344.34.343.708 1.039.553 1.733-.04.316-.25.632-.452.853-.243.212-.57.412-.712.376-.317-.03-.586-.171-.733-.415-.146-.245-.143-.546-.018-.836.088-.157-.07-.227-.07-.248-.049-.068-.028-.077-.033-.152.062-.212.657-.934.77-1.655"/>
    <path fill="#a4a6b0" d="M162.917 5.44c.292-.046-.031.387-.6.919-.275.257-.627.54-.894.783-.282.244-.41.446-.536.596-.474.724-1.194 1.936-1.749 1.713-.274-.082-.44-.426-.492-.916-.048-.464.05-1.242.583-2.022.158-.19.323-.364.493-.502.18-.112.357-.207.531-.286a3.42 3.42 0 0 1 .94-.19c.582-.03 1.136 0 1.724-.094m4.654 1.942c.318.138-.294.258-1.125.517-.845.253-1.905.659-2.607.919-.713.257-1.278.481-1.68.649-.345.049-.739.424-.996.293-.228-.11-.506-.474-.087-1.271.353-.677 1.152-1.289 2.063-1.611.917-.32 1.705-.279 2.415-.14.71.147 1.36.389 2.017.644m3.233 2.521c.337.011-.15.435-1.1.61-.95.168-2.115.012-2.64.032-.542-.03-.921.066-1.35.15-.192.015-.433.111-.617.126-.186.016-.338-.022-.44-.12-.103-.1-.145-.25-.137-.439.013-.189.045-.403.262-.689.096-.144.218-.287.368-.41.142-.137.317-.26.526-.363a2.87 2.87 0 0 1 1.425-.317c1 .038 1.52.418 2.034.72.5.312.996.638 1.669.7"/>
    <path fill="#a4a6b0" d="M175.194 12.128c.381.106-.31.371-1.378.293-1.05-.08-2.296-.407-2.896-.383-.315-.004-.576-.005-.837.066-.26.047-.536.147-.758.221-.23.048-.494.191-.692.222-.203.04-.365.015-.469-.082-.105-.097-.143-.256-.12-.462.03-.21.066-.448.307-.764.22-.318.531-.637.996-.887.45-.27 1.07-.397 1.654-.375 1.192.08 1.832.592 2.4 1.01.562.433 1.056.897 1.793 1.141m6.923 3.716c.398.212-.41.238-1.575.053-1.167-.19-2.593-.564-3.5-.67-.235-.064-.452-.067-.665-.089-.208-.016-.428-.072-.61-.076-.36.024-.672-.076-1.035-.055-.724.06-1.22-.039-1.313-.308-.095-.269.229-.657.829-1.069.303-.2.84-.33 1.393-.465.279-.053.549-.037.845-.045.293 0 .6 0 .888.071 2.393.483 3.16 1.84 4.743 2.653"/>
    <path fill="#a4a6b0" d="M185.733 19.677c.217-.014.192.079-.081.257-.129.105-.346.172-.648.202a2.049 2.049 0 0 1-.95-.24 6.674 6.674 0 0 1-.803-.524l-.33-.23c-.112-.063-.287-.216-.345-.21-.508-.228-.927-.551-1.347-.704-1.541-.756-3.109-1.52-2.926-2.097.077-.274.536-.414 1.215-.42.332-.013.749.054 1.205.155.458.079.946.279 1.445.525.514.212.878.586 1.221.895l.242.242.142.147.086.126c.109.16.225.349.332.54.196.352.318.689.532.946.198.254.574.473 1.01.39m3.055 3.406c.44-.067-.166.488-1.418.834-.624.155-1.436.218-2.244-.008a8.306 8.306 0 0 1-.64-.256c-.217-.097-.3-.167-.452-.252a4.603 4.603 0 0 1-.84-.673c-.459-.487-.723-.93-.955-1.295-.215-.338-.406-.62-.557-.826a2.99 2.99 0 0 1-.207-.304 2.238 2.238 0 0 1-.29-.275c-.153-.176-.216-.338-.173-.474.043-.136.188-.233.415-.29.113-.03.246-.05.398-.06.178.03.391.082.627.165.448.172.873.481 1.258.861.36.362.684.771.971 1.07l.413.405c.18.145.395.362.477.407.098.091.216.198.378.286.144.108.304.185.47.266.664.32 1.473.505 2.37.42m12.47 12.157c.222-.11.209.003.009.276-.194.277-.608.695-1.22 1.05a6.41 6.41 0 0 1-2.2.751 7.344 7.344 0 0 1-2.237-.01c-2.6-.436-4.156-1.995-3.846-2.447.306-.5 2.073.074 4.18.411 1.054.176 1.88.33 2.722.408.833.066 1.71.025 2.591-.439m1.63 4.303c.236-.081.208.03-.03.277-.226.253-.737.618-1.485.793-.737.183-1.648.077-2.345-.045a21.024 21.024 0 0 1-1.989-.448c-2.289-.66-4.023-1.64-3.875-2.19.148-.55 2.122-.461 4.411.198 1.141.317 2.032.812 2.781 1.193.376.179.751.339 1.175.399.418.042.895.007 1.357-.177M182.366 9.5c.255-.187.143.38-.265 1.186-.13.202-.215.433-.438.648-.192.208-.453.475-.623.591-.213.158-.325.263-.62.44a5.707 5.707 0 0 1-.596.312c-.757.32-1.22.44-1.611.574l-.292.078a1.448 1.448 0 0 1-.295.103c-.184.04-.34.021-.453-.065-.114-.086-.175-.23-.188-.418a1.423 1.423 0 0 1 .015-.313c.032-.12.1-.266.183-.418.317-.613 1.124-1.149 1.8-1.424a5.51 5.51 0 0 1 .489-.19l.117-.035c-.055.036.055-.016.075-.019l.244-.076c.16-.047.32-.084.48-.115l.359-.078c.515-.108 1.092-.408 1.619-.78"/>
    <path fill="#a4a6b0" d="M185.735 9.572c.244-.094.106.346-.256.952-.09.15-.192.313-.309.473a8.313 8.313 0 0 1-.928.82c-.164.11-.33.176-.484.242-.304.119-.623.224-.885.255a2.897 2.897 0 0 1-.713-.01c-.424-.062-.73-.236-.817-.507-.087-.272.061-.588.372-.881.155-.146.351-.286.578-.412.221-.127.415-.252.66-.344.12-.047.237-.08.355-.104a2.12 2.12 0 0 1 .317-.092c.215-.044.442-.058.683-.066.453-.075.936-.142 1.427-.326m3.556-.904c.254.083-.247.302-.456.695-.222.375-.383 1.119-.806 1.753-.376.614-1.153 1.145-1.794 1.145a1.51 1.51 0 0 1-.427-.035 1.195 1.195 0 0 1-.23-.147.59.59 0 0 1-.228-.375.59.59 0 0 1 .123-.421 1.21 1.21 0 0 1 .184-.2c.047-.073.07-.144.1-.2.142-.258.274-.481.566-.927.29-.427.728-.867 1.287-1.147.558-.297 1.21-.32 1.68-.141m8.052-.66c.202.09.093.152-.186.192-.28.025-.727.092-1.16.27-.437.182-.889.523-1.429.916-.63.44-1.272.733-1.774.939-1.018.399-1.884.675-2.46.864a3.589 3.589 0 0 1-.392.103c-.134.048-.26.119-.373.149-.226.07-.402.066-.51-.027-.107-.094-.137-.266-.098-.498.025-.117.046-.246.12-.392a4.1 4.1 0 0 1 .371-.497c.59-.663 1.547-1.21 2.57-1.615.513-.205.957-.34 1.362-.453.356-.098.848-.28 1.305-.353.944-.211 1.888.005 2.654.403m6.237.733c.183.098.058.149-.19.18-.258-.005-.577.124-.91.386-.193.17-.4.355-.616.544-.147.116-.22.21-.439.346-.18.116-.436.275-.558.319-.782.339-1.53.364-2.12.349-1.16-.095-1.81-.21-2.328-.17-.25-.046-.597.088-.814.07-.23 0-.393-.056-.469-.176-.075-.12-.058-.293.04-.503.121-.208.207-.46.629-.714.385-.281.9-.47 1.448-.545.57-.086 1.103-.042 1.59-.022.247.013.444.012.656.038a4.95 4.95 0 0 1 .573.019c-.001.029.453-.035.494-.045l.208-.023.285-.081c.382-.107.822-.256 1.276-.29.46-.052.901.094 1.245.318m7.71 3.11c.394.254-.457.21-1.597-.165a169.31 169.31 0 0 0-.84-.269l-.405-.137-.484-.116c-.162-.04-.322-.083-.48-.123l-.015-.004h-.003c.056.015-.129-.038.126.035H207.582l-.025-.002-.052-.002-.102-.004-.199-.012c-.262-.037-.506.002-.728-.016-.877.022-1.818.196-2.596.174-.78-.007-1.225-.218-1.286-.487-.065-.287.368-.6.972-.937.61-.313 1.562-.764 2.864-.812.32.015.63.01.911.08l.412.1.197.055.024.007.006.002.125.036h.001l.003.002.01.005.038.021.076.043c.402.234.762.453 1.127.79.725.616 1.151 1.221 1.928 1.736m9.035 4.344c.168.25-.365.056-1.011.171-.676.106-1.633.447-2.425.554-.778.107-1.601.06-2.19-.205-.695-.294-.766-.674-.7-.933.073-.282.564-.349.876-.515.415-.133.995-.29 1.743-.392a4.44 4.44 0 0 1 2.093.214c.64.226 1.247.61 1.614 1.106"/>
    <path fill="#a4a6b0" d="M221.97 20.027c.023.152-.088.114-.245.015-.144-.104-.408-.23-.73-.343-.657-.231-1.674-.371-2.393-.57-1.425-.367-2.688-1.155-2.467-1.716.205-.503 1.412-.687 3.023-.27.791.221 1.398.63 1.88 1.134.472.498.861 1.128.931 1.75m1.907 3.057c.166.208-.338.163-.983.11-.64-.06-1.571-.103-2.286-.46-.342-.153-.657-.405-.915-.648-.25-.296-.487-.61-.536-.836-.095-.452-.038-.815.193-.982.23-.167.592-.105.99.13.202.112.379.1.528.194.202.065.392.178.639.285.954.436 1.718 1.358 2.37 2.207m1.29 3.032c.122.214-.33.118-.894.133-.568 0-1.42.077-2.168-.208a2.565 2.565 0 0 1-.979-.652 1.939 1.939 0 0 1-.47-.91 1.397 1.397 0 0 1-.029-.397c.026-.093.058-.177.098-.25a.603.603 0 0 1 .321-.297.6.6 0 0 1 .436.03c.076.031.154.075.232.131.08.04.154.052.22.078.263.1.572.215.914.343.84.301 1.807 1.134 2.32 2"/>
    <path fill="#a4a6b0" d="M225.822 29.304c.06.251-.373.035-.881-.307-.125-.086-.261-.185-.364-.225-.122-.059-.166-.102-.351-.193l-.23-.127-.054-.032-.028-.016-.013-.008-.007-.004-.004-.002h-.001l-.001-.002c.103.08.028.022.05.04l-.068-.018-.254-.092c-.324-.117-1.13-.453-1.422-1.007-.187-.282-.144-.442-.121-.605a.62.62 0 0 1 .212-.377.62.62 0 0 1 .413-.127c.154-.003.365.09.477.03.25-.024.46-.086 1.197.167.179.073.343.156.496.281l.259.214.107.156a3.13 3.13 0 0 1 .347.754c.174.56.113 1.01.24 1.5m-.374 4.023c.082.127.005.17-.215.115-.217-.04-.593-.255-.869-.633-.279-.36-.482-.825-.643-1.083l-.27-.416-.006-.008V31.3l.032.062v-.001l-.003-.003-.01-.01-.02-.02-.038-.041-.07-.08a1.848 1.848 0 0 1-.12-.158c-.123-.225-.324-.375-.433-.59a3.544 3.544 0 0 1-.414-.583c-.26-.398-.343-.763-.184-1 .16-.235.53-.298 1-.21.241.057.528.18.824.34.274.219.625.436.848.795.121.17.225.34.313.507l.065.125.016.055.03.109.05.23c.085.429.042.72-.004.979-.093.504-.244 1.003.121 1.52m-1.31 4.432c-.14.276-.275-.287-.425-1.012-.136-.752-.45-1.506-.707-2.024-.245-.547-.468-1.058-.602-1.543-.156-.49-.142-.881.08-1.06.221-.178.608-.11 1.055.145.445.274 1.008.843 1.357 1.634.375.808.263 1.6.072 2.205-.222.616-.555 1.11-.83 1.655m-2.626 5.007c-.177.328-.266-.337-.191-1.317.087-.986.323-2.17.38-2.87.041-.185.055-.355.055-.514.006-.159.038-.325.049-.469-.032-.266.056-.499.034-.798-.068-.6.02-1.029.279-1.146.26-.117.643.101 1.051.547.2.23.367.688.521 1.157.053.233.065.468.086.722.027.255.02.512-.029.76-.346 2.042-1.565 2.604-2.235 3.928m-2.014 4.229c-.128.066-.123-.058-.102-.216a2.879 2.879 0 0 0-.02-.755c-.076-.681-.336-1.68-.402-2.416-.066-.737-.032-1.448.121-1.985.15-.58.428-.855.71-.855.541.067 1.051 1.079 1.224 2.657a4.189 4.189 0 0 1-.345 2.069c-.27.586-.63 1.239-1.186 1.5m-4.36 1.877c-.63.204 1.25-1.988 1.551-2.883.081-.11.11-.23.158-.34.04-.11.128-.22.151-.317.05-.211.202-.345.263-.608.138-.491.366-.807.65-.834.283-.027.57.242.802.697.124.21.146.64.16 1.055.01.219-.059.412-.105.633-.054.216-.11.442-.235.638a4.383 4.383 0 0 1-.354.556 4.872 4.872 0 0 1-.424.389c-.279.25-.592.353-.879.486-.589.219-1.163.316-1.738.528"/>
    <path fill="#a4a6b0" d="M211.606 50.617c-.285.174-.087-.406.36-1.14a19.475 19.475 0 0 1 1.537-2.137c.252-.265.446-.508.671-.715.213-.205.341-.33.548-.467.353-.377.688-.625.962-.526.262.094.434.455.413 1.014a3.94 3.94 0 0 1-.359 1.058c-.179.326-.399.693-.679.99-1.113 1.249-2.329 1.26-3.453 1.923m-4.133.537c-.261.18-.148-.394.354-1.114.504-.725 1.364-1.407 1.904-1.766.302-.18.526-.337.788-.456.207-.118.392-.188.61-.258.43-.268.81-.349 1.04-.18.23.167.266.554.138 1.042a3.85 3.85 0 0 1-.59.871c-.244.241-.546.523-.861.71-1.267.816-2.3.462-3.383 1.151m-3.342-.55c-.263.069-.04-.385.438-.914.477-.53 1.155-1.091 1.634-1.387.514-.295.918-.481 1.253-.516.391-.132.757-.202.975-.008.21.184.288.526.122.97-.256.506-.733 1.002-1.283 1.319-1.127.67-2.097.278-3.139.536m-4.554-.42c-.326.107-.006-.426.727-1.025.744-.605 1.851-1.069 2.491-1.325.357-.114.62-.248.917-.32.225-.108.46-.128.71-.218.502-.229.912-.268 1.111-.064.198.205.147.614-.096 1.111-.142.248-.45.54-.788.825-.327.211-.724.466-1.125.595-1.62.58-2.613-.02-3.947.42"/>
    <path fill="#a4a6b0" d="M201.818 55.566c.217.496-.454-.164-1.59-1.142-.558-.505-1.214-1.139-1.75-1.97-.254-.429-.496-.893-.603-1.428a3.692 3.692 0 0 1-.084-.808c.016-.289.061-.652.11-.769l.07-.25.004-.017.05-.14.005-.012.024-.042.05-.085.1-.167c.14-.216.272-.447.451-.584.343-.344.68-.53 1-.704.605-.29 1.122-.443 1.485-.585.66-.16 1.226-.625 1.45-.423.184.158.252.797-.648 1.641-.392.381-.876.682-1.318 1.002-.44.32-.645.59-.735.911-.217.723.12 1.735.527 2.672.4.952.922 1.88 1.402 2.9m21.483-21.394c.258-.684.26-.409.074.53-.048.233-.1.511-.177.821l-.349 1.001a7.26 7.26 0 0 1-.482 1.155c-.203.396-.39.835-.646 1.257-.996 1.73-2.47 3.506-4.494 4.892l-.37.266-.36.198-.716.388-.354.192-.023.012-.112.052-.048.02-.097.036-.192.075c-.257.1-.51.197-.762.293-1.02.351-2.013.656-2.949.826-.927.196-1.864.29-2.772.307a12.135 12.135 0 0 1-2.6-.222l-.287-.05-.102-.02-.035-.009-.069-.017-.137-.035-.545-.139c-.362-.093-.717-.19-1.06-.292a13.563 13.563 0 0 1-1.904-.706c-1.15-.53-1.992-1.26-2.374-1.898-.409-.678-.36-1.045-.26-1.117.127-.092.408.26.862.585.478.363 1.233.766 2.293 1.068a19.22 19.22 0 0 0 1.786.406l1.035.18.554.095.143.024.071.013.036.006.018.003.004.001c.062.011-.079-.014-.063-.01h.01l.288.03c.823.106 1.491.125 2.272.084.785-.04 1.603-.132 2.436-.31a25.125 25.125 0 0 0 2.382-.59c.38-.1.746-.236 1.11-.346l.136-.043.067-.02.034-.012.017-.005.01-.003h.003l-.084.037.265-.12.523-.235c.742-.287 1.246-.648 1.815-.97.557-.337 1.07-.78 1.598-1.163 1.972-1.713 3.588-3.772 4.581-6.52M180.117 5.457c-.046-.134.037-.16.232-.07.203.08.478.335.697.719.416.782.473 1.81.45 2.366a5.82 5.82 0 0 1-.219 1.329 2.14 2.14 0 0 0-.163.46.59.59 0 0 1-.27.346.592.592 0 0 1-.439.032c-.16-.022-.342-.163-.529-.432-.337-.46-.482-1.186-.44-1.843.038-.665.268-1.085.473-1.5.2-.401.411-.862.208-1.407m-3.698-3.253c-.205-.225.353-.197 1.15.114.194.089.411.176.623.305.207.14.422.295.631.46.194.19.374.413.54.625.163.217.253.493.345.719.105.228.114.479.124.717-.003.24.036.459-.04.683-.127.417-.275.867-.46 1.008-.364.358-.719.522-.98.408-.26-.114-.379-.483-.359-.99a.595.595 0 0 0-.043-.333 1.125 1.125 0 0 1-.05-.27c.011-.082-.067-.194-.077-.29-.023-.1-.016-.206-.08-.306-.267-.78-.51-1.924-1.324-2.85M171.921.97c-.239-.16.286-.294 1.075-.152.785.131 1.753.597 2.271 1.113.532.485.873 1.103 1.012 1.605.08.462.002.822-.237.977-.24.155-.6.068-.988-.186-.376-.18-.765-.496-1.199-.893-.837-.749-1.005-1.757-1.934-2.464M167.05.35c-.286-.131.257-.314 1.125-.343.859-.054 2.093.262 2.793.803.37.238.629.562.872.842.212.316.395.623.475.877.137.503.106.898-.123 1.067-.23.168-.615.079-1.052-.203-.22-.127-.44-.237-.652-.405-.244-.134-.463-.344-.723-.502-.956-.665-1.548-1.586-2.715-2.136"/>
    <path fill="#a4a6b0" d="M162.668.915c-.335-.076.223-.369 1.154-.493.928-.13 2.16-.005 2.945.263 1.592.526 2.591 1.455 2.395 1.977-.203.544-1.589.46-3.03-.015-1.437-.443-2.126-1.373-3.464-1.732"/>
    <path fill="#a4a6b0" d="M159.778 2.815c-.34.022.109-.4.923-.852.792-.471 2.127-.8 3.038-.681.898.086 1.654.38 2.132.687.469.313.724.644.654.92-.14.577-1.565.588-2.967.448a14.087 14.087 0 0 1-1.867-.332c-.602-.12-1.23-.231-1.913-.19"/>
    <path fill="#a4a6b0" d="M156.968 4.52c-.317.021.091-.393.807-.859.693-.475 1.856-.943 2.758-.92.867-.008 1.671.268 2.12.572.43.311.658.641.583.916-.075.275-.439.443-.966.491-.514.07-1.068.084-1.719.084-1.218.031-2.29-.356-3.583-.284"/>
    <path fill="#a4a6b0" d="M157.028 6.214c-.193.055-.158-.337.207-.817.362-.49 1.103-.865 1.57-.912.491-.067.868.03 1.148.192.295.16.491.4.52.682.028.284-.117.557-.374.77-.273.21-.663.35-1.012.4-.367.042-.62-.072-.955-.197-.322-.12-.708-.217-1.104-.118m58.32 5.981c.255.125-.272.243-.735.654-.503.411-1.137 1.197-2.042 1.592-.42.196-.992.292-1.488.188a1.735 1.735 0 0 1-.65-.248 1.55 1.55 0 0 1-.456-.37c-.27-.277-.285-.476-.309-.66-.016-.182.021-.333.117-.438.096-.105.242-.156.423-.156.175-.005.427.084.58.041.078.001.156-.002.242-.02a.61.61 0 0 0 .22-.042c.133-.041.27-.082.514-.193.936-.426 2.471-.836 3.583-.348m-11.884 48.552c.087.244-.04.19-.281-.036-.238-.227-.607-.61-1.132-.963-1-.742-2.661-1.374-3.802-2.338a5.246 5.246 0 0 1-1.35-1.637c-.154-.3-.282-.59-.345-.882a3.13 3.13 0 0 1-.14-.814c-.047-.53.04-.866.14-1.114.099-.248.22-.393.362-.408.142-.015.29.101.438.323.14.225.29.574.48.86.365.64.852 1.395 1.743 2.094.864.72 1.73 1.407 2.4 2.22a7.655 7.655 0 0 1 1.487 2.695m-.113 7.682c.022.553-.377-.368-1.027-1.573-.635-1.225-1.793-2.617-2.606-3.684-.386-.532-.778-1.069-1.091-1.567a12.896 12.896 0 0 1-.79-1.428c-.348-.844-.446-1.446-.21-1.605.236-.16.76.152 1.418.787.337.301.705.662 1.09 1.09.402.443.823.921 1.239 1.494 1.683 2.264 1.91 4.318 1.977 6.486m-.916 6.266c.16.53-.497-.202-1.233-1.484-.74-1.288-1.403-3.084-1.864-4.249-.2-.616-.461-1.127-.626-1.653-.226-.452-.365-.889-.532-1.29-.406-.799-.546-1.382-.325-1.56.222-.18.763.08 1.46.642.336.313.699.796 1.082 1.328.289.538.656 1.146.87 1.804.949 2.633.517 4.334 1.168 6.462"/>
    <path fill="#a4a6b0" d="M203.432 74.171c.032.235-.078.167-.267-.083-.215-.242-.399-.696-.799-1.157-.672-.969-1.796-2.084-2.543-3.01-.363-.45-.7-.939-.98-1.379a9.694 9.694 0 0 1-.66-1.32c-.224-.764-.239-1.307.008-1.448.248-.14.711.146 1.26.724.292.248.587.545.91.9.352.364.697.77 1.076 1.24 1.488 1.855 1.846 3.65 1.995 5.533m.73 4.188c.39.792-2.68-1.824-4.128-3.448-1.506-1.623-2.387-3.251-1.968-3.636.42-.386 1.98.617 3.487 2.24 1.49 1.669 1.766 3.269 2.608 4.844m-.475 5.46c.04.413-.39-.209-1.02-1.03-.625-.83-1.561-1.862-2.138-2.732a10.582 10.582 0 0 1-.731-1.284 7.45 7.45 0 0 1-.432-1.21c-.115-.685-.057-1.169.202-1.289.258-.12.668.146 1.12.674.24.235.484.51.732.834.28.337.54.712.829 1.138 1.124 1.69 1.269 3.256 1.438 4.9m-.23 8.666c-.055.6-.327-.448-.78-1.893-.135-.358-.24-.75-.4-1.14-.163-.386-.329-.784-.494-1.18a33.541 33.541 0 0 1-.559-1.128c-.177-.363-.383-.697-.537-1.012-.65-1.254-1.285-2.387-1.673-3.282-.414-.898-.553-1.537-.322-1.702.232-.166.792.173 1.51.854a13.048 13.048 0 0 1 2.312 3.172c.747 1.366.982 2.664 1.082 3.835.055.588.001 1.17.001 1.735-.026.571-.115 1.146-.14 1.741m-.74 3.556c-.035.18-.12.1-.233-.12-.124-.22-.205-.565-.45-.963-.398-.793-1.107-1.778-1.549-2.582a10.484 10.484 0 0 1-.545-1.185 6.526 6.526 0 0 1-.31-1.118c-.059-.632.05-1.07.312-1.174.266-.107.642.152 1.043.632.215.217.417.464.636.775.234.325.458.677.682 1.097.872 1.643.781 3.209.414 4.638m.611 5.647c-.034.364-.345-.24-.815-.98-.46-.753-1.227-1.636-1.721-2.37a10.676 10.676 0 0 1-.631-1.092 6.347 6.347 0 0 1-.398-1.042c-.121-.602-.07-1.044.18-1.181.249-.137.651.056 1.098.479.232.189.464.417.706.696.259.294.513.616.768 1.006 1.017 1.54.957 3.055.813 4.484M96.256 95.758c-.102.217-.163.126-.185-.191a6.107 6.107 0 0 1 0-.637l.027-.426c.028-.144.072-.294.114-.453.284-1.33 1.25-2.791 1.85-3.654.34-.447.575-.846.87-1.204.194-.346.44-.613.644-.92.356-.68.714-1.066.99-1 .278.068.42.575.428 1.342-.031.397-.195.922-.388 1.479-.234.469-.508 1.03-.856 1.489-.7.976-1.355 1.517-1.972 2.103-.325.282-.56.593-.86.915-.271.33-.444.726-.662 1.157m.384 7.09c-.108.24-.16.11-.173-.237-.03-.357.057-.878-.002-1.577-.014-.633-.064-1.582.004-2.407.052-.738.237-1.789.604-2.427.666-1.37 1.63-2.245 2.359-2.785.752-.537 1.304-.708 1.51-.517.212.198-.01.77-.437 1.504-.42.746-1.09 1.675-1.576 2.698-.89 1.954-1.283 3.865-2.29 5.747m1.339 6.637c-.121.54-.289-.43-.509-1.895-.242-1.531-.276-3.614.317-5.126.559-1.432 1.323-2.467 1.875-3.174.565-.68 1.016-1.148 1.281-1.015.244.124.302.72.025 1.665-.254.934-.797 2.076-1.251 3.25-.209.594-.388 1.09-.538 1.616-.158.574-.348 1.099-.451 1.567-.277.959-.502 2.025-.749 3.112m2.015 5.993c-.078.263-.145.134-.203-.205-.034-.339-.166-.888-.378-1.532-.228-.665-.56-1.398-.785-2.367-.209-.855-.231-1.927-.017-2.68.36-1.576 1.246-2.682 1.945-3.349.74-.685 1.294-.86 1.511-.696.468.41-.895 2.251-1.448 4.515-.064.282-.13.547-.153.803l-.06.338-.025.445c-.022.297-.008.484-.03.735l.007.787c.01 1.056-.007 2.166-.364 3.206m1.857 8.488c-.05.336-.131.228-.223-.23-.109-.455-.065-1.263.098-2.132.074-.44.169-.891.231-1.337.048-.238.037-.414.063-.616.025-.185.002-.481.007-.716-.066-.69-.364-1.677-.541-2.462-.183-.807-.325-1.634-.317-2.445.003-.803.18-1.614.571-2.194.357-.561.904-.927 1.216-1 .317-.068.53-.051.612.066.081.117.022.322-.154.594-.16.283-.245.546-.35.952-.193.757.06 2.003.434 3.57.176.787.32 1.546.324 2.338-.01.228-.009.36-.039.65l-.105.485a7.11 7.11 0 0 1-.344 1.02c-.528 1.21-1.3 2.093-1.483 3.457m99.585-16.484c.056.194-.045.181-.254.008-.185-.18-.582-.49-.84-.974-.639-.94-1.022-2.372-1.16-3.272-.067-.476-.126-.876-.142-1.279-.044-.35-.036-.674-.032-.985-.054-.647.045-1.1.31-1.205.264-.105.645.158 1.046.668.186.282.365.68.534 1.124a9.2 9.2 0 0 1 .321 1.355c.144.963.073 1.667.023 2.384-.042.363-.017.692-.022 1.067.01.365.113.715.216 1.11m-1.35 8.5c-.175.14-.162-.005-.08-.254.113-.234.132-.64.029-1.124-.202-.988-1.032-2.365-1.477-3.426-.457-1.06-.787-2.135-.81-3.009-.045-.985.304-1.387.57-1.395.29-.012.504.545.845 1.042.34.608.827 1.478 1.29 2.55.46 1.071.673 2.071.67 3.054a4.91 4.91 0 0 1-.217 1.442c-.179.456-.418.884-.82 1.12m-1.977 6.25c-.203.127-.178-.008-.04-.273.064-.136.192-.28.24-.497.033-.103.08-.203.109-.313l.042-.358c.07-.984-.678-2.37-1.162-3.457-.478-1.08-.865-2.19-.908-3.105-.066-1.028.29-1.44.552-1.455.294-.02.506.571.858 1.083.352.63.885 1.518 1.388 2.651.496 1.125.719 2.244.572 3.316-.13 1.087-.795 1.99-1.651 2.408m-2.844 6.121c-.233.119-.18-.024 0-.283l.159-.208.126-.302a.886.886 0 0 0 .11-.349c.018-.136.073-.25.07-.407.108-1.185-.456-2.917-.78-4.171-.33-1.262-.588-2.468-.618-3.41-.02-.444.015-.931.115-1.165.104-.254.229-.399.37-.409.143-.01.289.117.43.354.157.253.307.473.504.883.373.774.845 1.891 1.196 3.231.346 1.337.384 2.539.15 3.651-.218 1.094-.838 2.186-1.832 2.585m-91.32-.771c.02.2-.076.17-.255-.045-.182-.211-.431-.637-.56-1.208-.293-1.161 0-2.673.293-3.541.299-.896.619-1.595.87-2.112.254-.45.48-.931.775-.902.27.029.577.317.672 1.097.1.714-.057 1.663-.356 2.557-.3.9-.668 1.483-.981 2.09-.307.596-.568 1.259-.458 2.064m2.147 5.57c-.071.443-.34-.32-.634-1.463-.301-1.126-.641-2.764-.408-4.039.026-.31.11-.612.219-.899.106-.287.19-.56.325-.813.316-.49.624-.964.919-1.199.599-.45 1.082-.642 1.305-.465.223.177.145.688-.161 1.371-.14.344-.161.684-.311 1.03-.051.188-.076.412-.131.621-.06.21-.112.43-.127.675-.243 1.882-.675 3.4-.996 5.18m3.383 5.738c-.131.452-.235-.392-.658-1.421-.385-1.037-1.331-2.275-1.688-3.625-.182-.645-.212-1.367-.075-1.972a3 3 0 0 1 .269-.821 2.76 2.76 0 0 1 .372-.643 2.02 2.02 0 0 1 .734-.684c.215-.117.391-.147.513-.074.123.074.179.243.176.487-.001.24-.087.579-.101.887-.074.662-.165 1.408.108 2.302.24.908.544 1.87.609 2.813.083.949-.028 1.856-.259 2.75m3.214 6.138c.07.555-.462-.288-.955-1.702-.502-1.412-.83-3.37-.877-4.735-.057-1.376.029-2.587.182-3.468.14-.895.369-1.457.654-1.472.284-.015.57.518.803 1.394.22.891.366 2.13.422 3.457.13 2.651-.465 4.293-.23 6.526m3.63 3.154c.012.203-.095.13-.255-.067-.078-.098-.16-.224-.31-.377a11.502 11.502 0 0 1-.496-.605c-.708-.972-1.186-2.555-1.268-3.645-.142-2.197.404-3.826.954-3.837.587-.014.973 1.725 1.102 3.665.062.475.03.924.04 1.328.026.397.016.782-.006 1.175-.086.751.222 1.518.239 2.363m5.798 4.06c-.073.244-.142.125-.207-.192-.06-.314-.132-.828-.39-1.363-.45-1.085-1.648-2.25-2.439-3.332-.787-1.053-1.351-2.321-1.36-3.328 0-.264.016-.497.043-.693.032-.188.103-.317.159-.44.12-.234.252-.366.395-.368.142-.002.28.125.407.357.067.11.115.27.19.41.083.13.16.27.23.419.322.645.874 1.444 1.608 2.433.72.985 1.276 1.994 1.526 3.044.26 1.05.183 2.1-.162 3.053m4.088 3.455c0 .21-.09.174-.246-.066a4.415 4.415 0 0 1-.274-.512c-.091-.215-.144-.454-.22-.728-.143-.547-.211-.99-.391-1.61l-.054-.216-.061-.155-.111-.305c-.114-.215-.174-.403-.283-.609-.376-.789-.771-1.704-.792-2.527-.004-.206-.005-.399.028-.54.043-.132.09-.246.144-.34.106-.19.232-.3.373-.313.142-.013.287.072.426.24.07.082.139.185.205.307.075.108.166.191.239.294.299.42.78 1.052 1.25 2.017.23.484.362 1.023.383 1.54-.006.48-.053.805-.153 1.235-.187.845-.514 1.431-.463 2.288m6.094 3.042c.077.18-.044.156-.255.036-.202-.132-.543-.29-.993-.453-.222-.086-.486-.167-.775-.286a6.147 6.147 0 0 1-.9-.451c-.378-.257-.58-.478-.847-.739-.213-.297-.45-.566-.558-.876-.53-1.232-.314-2.282-.143-2.902.194-.65.456-1.043.74-1.042.285.001.539.407.719 1.048.182.652.286 1.457.563 2.046a7.113 7.113 0 0 0 1.088 1.689c.492.558 1.09 1.187 1.36 1.93m3.507 2.03c.091.146.045.187-.127.12a2.08 2.08 0 0 1-.349-.186c-.137-.1-.26-.273-.41-.471-.228-.42-.334-.995-.364-1.475-.036-.477-.095-.888-.186-1.166l.031.116a4.605 4.605 0 0 1-.214-.386 4.63 4.63 0 0 1-.232-.364c-.439-.662-.982-1.426-1.198-2.154a3.504 3.504 0 0 1-.116-.511c0-.137.015-.257.038-.361.046-.21.134-.35.265-.405.132-.054.294-.018.476.095.091.056.186.134.285.224.104.064.208.136.308.215.417.35 1.051.86 1.674 1.777.123.21.238.41.327.622a7.4 7.4 0 0 1 .197.645l.03.113c.053.913-.28 1.467-.479 1.963-.214.47-.368 1.039.044 1.589m7 1.292c.285.254-.394.153-1.367-.058-.488-.11-1.062-.246-1.66-.502-.592-.244-1.235-.688-1.598-1.245a3.291 3.291 0 0 1-.55-1.637 3.608 3.608 0 0 1 .141-1.26c.206-.665.521-.967.797-.958.616.012.7 1.794 1.317 2.694.286.447.8.916 1.311 1.428.521.506 1.034 1.03 1.61 1.538m2.663.652c.136.093.109.181-.208.159-.261-.039-.625-.237-.933-.5-.638-.531-1.253-1.354-1.537-2.004-.286-.65-.405-1.297-.37-1.807.019-.241.067-.51.162-.652.099-.143.22-.233.36-.258.14-.025.287.019.43.119.152.098.286.176.44.355.3.331.609.828.865 1.411.258.583.318 1.114.358 1.643.02.265.034.531.08.789.054.261.096.533.353.745m3.502.733c-.098.258-.296-.246-.63-.738-.322-.504-.91-1.033-1.316-1.525a6.753 6.753 0 0 1-.52-.754 3.91 3.91 0 0 1-.354-.777c-.112-.464-.062-.833.168-1 .23-.169.599-.1 1.01.14.208.103.41.231.628.41.23.197.458.406.683.7.914 1.131.763 2.56.33 3.544m3.501-.237c-.088.238-.322-.194-.597-.712-.269-.53-.695-1.063-.958-1.524-.248-.456-.453-.972-.505-1.403-.049-.427.041-.768.282-.919.242-.152.588-.086.954.144.362.226.756.603 1.08 1.187.328.571.353 1.21.261 1.744-.108.548-.34 1.013-.517 1.483m2.656-.909c-.158.281-.31-.278-.148-1.21.162-.984 1.087-1.979 1.633-2.407.312-.24.53-.409.8-.565.188-.142.4-.215.615-.336.423-.304.804-.413 1.042-.257.238.157.288.55.177 1.058-.082.261-.292.591-.536.924a6.033 6.033 0 0 1-.801.78c-.604.466-1.03.63-1.532.865a8.724 8.724 0 0 0-.687.448 4.49 4.49 0 0 0-.563.7m4.695-.527c-.3.142-.04-.412.447-1.09.487-.677 1.089-1.497 1.385-1.98.31-.487.48-.8.6-1.15.027-.074.064-.154.104-.239.02-.104.03-.213.06-.3.054-.178.146-.305.276-.363.129-.059.285-.044.456.033.085.042.174.086.265.168.089.107.183.247.27.417.157.328.243.75.196 1.224a3.2 3.2 0 0 1-.5 1.337c-.534.792-1.178 1.105-1.774 1.336-.603.226-1.196.336-1.785.607m5.926-2.341c-.15.26-.321-.294-.144-1.102.178-.793.595-1.666.839-2.14.25-.483.436-.76.589-1.04l.126-.181c.044-.073.057-.181.099-.253.074-.156.178-.265.312-.314.133-.05.284-.034.442.036.078.043.16.068.239.162.08.1.159.232.232.39.28.585.154 1.505-.221 2.175-.745 1.329-1.836 1.286-2.513 2.267m4.44-1.56c-.347.307-.034-.473.341-1.489.117-.256.143-.508.204-.747.076-.196.082-.606.132-.912.077-.614.262-1.388.444-1.933a7.415 7.415 0 0 1 1.669-2.408c.524-.51.97-.753 1.215-.607.245.146.242.652.037 1.354-.204.7-.647 1.59-1.005 2.422a7.756 7.756 0 0 1-.503 1.238c-.212.462-.341.793-.638 1.213-.147.204-.294.393-.44.57-.154.165-.323.3-.481.447-.311.295-.655.543-.976.851m5.317-3.83c-.176.285-.263-.319-.184-1.209.082-.896.354-1.984.533-2.652.102-.34.196-.66.301-.938.076-.279.21-.5.303-.762.191-.515.452-.832.736-.829.285.003.54.325.723.843.093.255.108.642.116 1.042a5.09 5.09 0 0 1-.2 1.224c-.523 1.657-1.633 2.124-2.328 3.28m2.752-1.172c-.22.098-.183-.028 0-.277.187-.243.516-.623.748-1.126a4.84 4.84 0 0 0 .458-1.72c.054-.632.028-1.296.03-1.865-.005-1.14.033-2.271.246-3.098.214-.881.556-1.271.83-1.256.293.017.457.59.628 1.289.162.75.35 1.798.36 3.066.01 1.26-.331 2.402-.945 3.26-.617.87-1.461 1.382-2.355 1.727m4.62-5.443c-.171.237-.252-.295-.236-1.044.035-.768.08-1.607.012-2.034-.06-.49-.057-.849-.106-1.339-.061-.476.025-.84.273-.982.247-.142.608-.033.993.257.376.281.845 1.083.899 1.942.045.91-.343 1.491-.701 1.936-.38.441-.793.794-1.133 1.264m3.86-2.634c-.129.314-.297-.314-.417-1.16-.032-.422-.168-.911-.244-1.383-.04-.236-.073-.469-.096-.692-.032-.217-.089-.405-.11-.587a5.84 5.84 0 0 1-.056-1.035c-.032-.349-.073-.689-.059-.974.02-.576.167-.974.439-1.059.272-.085.617.16.954.624.166.236.344.509.484.857.114.38.21.816.278 1.28.219 1.85-.644 2.879-1.173 4.129m1.739-3.368c-.047.197-.13.143-.225-.13-.118-.268-.15-.788-.033-1.363.115-.534.35-1.178.355-1.462.016-.082.02-.27.034-.397.01-.1-.021-.19-.02-.278.01-.173-.058-.344-.071-.499-.138-.637-.5-1.45-.586-2.177a3.439 3.439 0 0 1-.028-.513c.018-.136.053-.249.09-.348.08-.197.188-.32.327-.355.138-.034.293.026.454.164.082.067.162.161.248.26.092.08.182.167.269.262.344.425.938 1.064 1.24 2.264.252 1.274-.262 2.228-.815 2.817-.52.543-1.075.931-1.24 1.755m2.838-4.327c.04.173-.024.187-.173.06-.157-.12-.387-.391-.577-.825-.164-.428-.263-.995-.281-1.52-.022-.52-.035-1.005-.071-1.41l.003.082a6.997 6.997 0 0 1-.195-.825c-.1-.428-.212-.845-.282-1.267-.084-.447-.146-.86-.14-1.195.035-.663.194-1.106.472-1.17.278-.064.62.263.95.843.173.282.364.588.53.949.168.387.358.854.479 1.373.073.403.113.783.126 1.13l.003.08c-.102.83-.414 1.393-.64 1.924-.232.522-.4 1.105-.204 1.77m1.79-3.914c-.1.338-.33-.256-.497-1.162-.153-.918-.258-2.021-.424-2.614-.01-.17-.077-.304-.111-.45-.046-.135-.044-.308-.104-.413-.115-.24-.085-.48-.23-.753-.223-.527-.256-.948-.043-1.138.212-.19.63-.112 1.133.167.247.108.536.479.819.834.16.185.22.4.328.623.09.223.2.459.226.706a6 6 0 0 1 .082.71 5.782 5.782 0 0 1-.07.614c-.053.4-.2.709-.322 1.033-.271.62-.588 1.172-.787 1.843m-8.925-72.35c2.63.086 1.652.32-1.732.627-1.692.152-3.987.36-6.729.39-1.37.031-2.856.078-4.432.09-1.575-.034-3.24-.07-4.98-.106-6.954-.228-15.053-.948-22.983-2.128-7.928-1.189-15.679-2.79-22.058-4.313-12.749-3.089-24.046-6.61-32.142-9.37-8.083-2.77-13.01-4.814-12.805-5.55.201-.728 5.475-.016 13.85 1.803 8.366 1.803 19.786 4.717 32.384 7.77 12.6 3.038 22.72 5.41 32.345 7.298 9.62 1.85 18.762 3.238 29.282 3.49m34.787-39.256c.555.727.256.502-.56-.311-.834-.792-2.4-1.987-4.565-2.945-1.063-.508-2.284-.942-3.537-1.396-1.294-.441-2.58-.9-3.894-1.23-2.615-.704-5.267-1.015-7.418-.892-.528.052-1.024.059-1.561.132l-1.57.265a30.54 30.54 0 0 0-2.895.773c-1.808.592-3.341 1.33-4.472 2.146-1.126.813-1.837 1.713-2.233 2.367-.216.309-.356.626-.472.824-.12.197-.215.292-.284.275-.07-.018-.108-.147-.119-.378a2.807 2.807 0 0 1 .124-1.008c.225-.894.864-2.094 2.053-3.203 1.183-1.101 2.84-2.07 4.764-2.813a25.646 25.646 0 0 1 3.08-.952c.632-.135 1.099-.21 1.67-.317.563-.086 1.201-.117 1.813-.171 2.425-.105 4.57.268 6.483.796 1.906.529 3.632 1.254 5.18 1.989 1.584.74 3.101 1.527 4.542 2.474 1.444.935 2.796 2.098 3.87 3.575m-27.173 5.698c.109.321-.367-.077-1.148-.25-.798-.198-1.974-.29-2.838-.508-.855-.214-1.662-.556-2.186-.99-.598-.473-.66-.889-.522-1.124.146-.25.638-.2 1.1-.215.533.03 1.264.117 2.114.33a5.428 5.428 0 0 1 2.125 1.054c.578.471 1.087 1.053 1.355 1.703m2.09 4.34c.246-.058.213.048-.07.277-.275.206-.94.505-1.745.335-.806-.138-1.564-.645-2.166-1.206a7.507 7.507 0 0 1-.8-.897l-.537-.721a4.447 4.447 0 0 0-.887-.876c-.335-.217-.713-.423-1.056-.614-.678-.385-1.1-.756-1.019-1.032.08-.271.596-.41 1.423-.37.41.019.923.095 1.522.326.602.253 1.218.738 1.644 1.298.423.577.636 1.03.843 1.406.216.396.421.76.656 1.087.235.326.501.624.863.827.357.204.835.287 1.33.16m6.607-.193c.25-.085.19.041-.053.286-.246.238-.661.592-1.164 1.092-.503.472-1.278 1.131-1.942 1.497l-.13.08-.064.04-.032.02-.016.01-.11.046-.331.12c-.221.074-.441.156-.66.212-.44.066-.873.166-1.25.14-1.537-.008-2.74-.494-3.53-.89-.792-.414-1.237-.805-1.162-1.079.074-.276.664-.379 1.544-.328.879.041 2.013.236 3.133.234.563.004 1.04-.048 1.507-.112l.088-.009.045-.004h.005c.019-.008-.16.068-.083.036h.002l.003-.002.012-.004.025-.008.196-.062.387-.114c.254-.074.52-.129.722-.213.863-.272 1.85-.702 2.858-.988m-56.43 178.569c.041-.21.087-.234.14-.074.035.157.15.507.121 1.029a4.674 4.674 0 0 1-.536 1.974c-.728 1.54-2.37 2.985-4.347 4.339-.99.677-2.086 1.34-3.186 2.038-1.034.655-2.199 1.506-3.42 2.344a110.384 110.384 0 0 1-8.144 5.145l-2.208 1.16-1.114.58-.28.146-.2.098-.15.067-.6.267c-1.593.696-3.237 1.47-4.799 2.038a1572 1572 0 0 1-2.364.91 38.81 38.81 0 0 1-2.566.859c-.859.253-1.729.48-2.648.655-.928.168-1.866.317-3.06.257-.602-.05-1.284-.103-2.209-.561-.454-.242-.975-.598-1.385-1.178-.213-.27-.355-.586-.487-.901a4.736 4.736 0 0 1-.22-.907c-.109-1.146.147-1.818.344-2.404.198-.564.545-1.18.685-1.425 1.028-1.555 1.993-2.865 3.082-3.937l.786-.833c.274-.264.565-.512.846-.766.564-.494 1.141-1.027 1.69-1.47l1.6-1.221.396-.301.096-.07.027-.018.055-.036.111-.071.221-.143.88-.565c2.294-1.565 4.692-2.763 6.993-3.807l3.427-1.35 3.293-1.004c1.058-.345 2.102-.523 3.094-.77.994-.226 1.947-.446 2.86-.588 7.3-1.255 11.815-1.365 11.98-.658.177.772-4.175 2.258-11.025 4.428-3.385 1.162-7.425 2.44-11.489 4.535-2.018 1.067-4.108 2.22-6.104 3.669l-.768.52-.193.13-.097.065-.049.033-.024.016-.012.008.056-.042-.39.31-1.579 1.249c-.497.416-.908.823-1.375 1.234-.225.207-.46.405-.682.62l-.635.683c-.4.46-.904.885-1.218 1.355l-1.02 1.357-.064.084c-.012.018.076-.128.035-.06 1.966-.66 3.304-1.082 4.013-1.264l.794-.213c.182-.044.527-.157.781-.23l1.64-.49c1.091-.315 2.157-.626 3.14-.975.983-.336 2.046-.661 2.943-.985l2.966-1.161c3.77-1.573 7.412-3.35 11.07-5.287 1.868-.992 3.82-1.737 5.682-2.736.931-.502 1.853-1.055 2.688-1.763.826-.702 1.59-1.602 1.905-2.757.182-.572.15-.973.207-1.181Z"/>
    <path fill="#a4a6b0" d="M157.459 209.87a6.41 6.41 0 0 0-1.437.187c.453-16.447 1.62-33.607 2.735-49.992.217-3.198 5.219-3.22 5 0-1.146 16.853-2.685 33.818-3.09 50.732-.806-.943-1.59-.927-3.208-.927"/>
    <path fill="#a4a6b0" d="M155.576 211.36c.028-.175.074-.183.136-.055.134.25.204 1.075 1.024 1.987.766.94 2.343 1.863 4.391 2.738 1.032.442 2.185.874 3.447 1.385 1.334.545 2.57 1.158 3.894 1.768.947.448 1.926.894 2.926 1.335 1.79.79 3.65 1.563 5.526 2.3l2.346.822 1.186.415.297.104.075.027.018.006-.042-.016.037.01.146.042.585.166c1.576.435 3.08.924 4.764 1.3l2.461.601c.707.167 1.528.333 2.275.46.76.127 1.511.23 2.214.28.432.034-.03-.224-.419-.675a4.475 4.475 0 0 0-.657-.673l-.698-.64-.682-.634c-.237-.198-.486-.378-.726-.569-.496-.376-.935-.752-1.46-1.13l-1.667-1.132-.41-.28c-.02-.014.127.081.058.038l-.013-.008-.025-.014-.05-.029-.102-.058-.202-.116-.805-.462c-2.096-1.3-4.263-2.299-6.354-3.216-4.205-1.794-8.328-2.775-11.788-3.688-6.989-1.666-11.438-2.83-11.316-3.614.111-.718 4.623-.936 11.994-.216.922.076 1.888.225 2.896.38 1.007.173 2.061.275 3.141.542l3.358.762 3.516 1.097c2.371.875 4.85 1.895 7.252 3.29l.918.5.231.125.115.063.058.032.03.016.1.062.417.272c.557.365 1.12.732 1.684 1.103.58.401 1.194.89 1.791 1.342.3.233.607.46.9.702l.844.774c.554.542 1.138.982 1.637 1.6l1.487 1.783c.34.463.358.495.69 1.056.26.451.463.895.65 1.496.162.622.33 1.46.001 2.53a3.756 3.756 0 0 1-.824 1.402 4.133 4.133 0 0 1-1.069.818c-1.348.653-2.2.61-3.019.656a15.12 15.12 0 0 1-2.19-.156 30.085 30.085 0 0 1-3.787-.803l-.888-.255c-.378-.108-.579-.184-.875-.277l-1.623-.535a46.673 46.673 0 0 1-3.196-1.14c-1.075-.429-2.069-.79-3.159-1.269l-2.877-1.368c-3.865-1.965-7.366-4.12-10.85-6.368-1.704-1.103-3.599-2.01-5.418-3.152-.906-.57-1.8-1.189-2.587-1.934-.78-.739-1.454-1.645-1.687-2.675-.143-.509-.063-.86-.05-1.03Zm28.187-149.512c1.356-1.357.974-.753-.68 1.13-1.693 1.847-5.159 4.429-9.76 6.623-9.21 4.4-22.614 7.188-32.253 7.298-9.59.259-18.362-1.04-24.305-3.411-2.968-1.18-5.186-2.561-6.582-3.74-1.31-1.177-1.87-1.974-1.767-2.106.13-.17.958.38 2.43 1.266 1.451.805 3.665 1.855 6.557 2.743 5.782 1.789 14.256 2.75 23.595 2.499 4.665-.1 8.87-.518 12.753-1.086 3.898-.571 7.497-1.254 10.941-2.106 3.44-.858 6.734-1.877 9.951-3.262 3.201-1.39 6.385-3.145 9.12-5.848"/>
    <path fill="#a4a6b0" d="M126.24 54.601c.152-.562.229-.347.24.423 0 .384.018.915-.116 1.527-.056.308-.11.647-.191 1l-.358 1.091c-.558 1.505-1.55 3.15-2.818 4.52-1.262 1.375-2.772 2.446-4.09 3.19-2.663 1.458-5.38 2.07-7.34 2.122-2.041.052-3.11-.357-3.15-.708-.045-.4 1.2-.706 2.84-1.21 1.707-.519 3.999-1.342 6.32-2.613 2.316-1.274 4.028-2.534 5.497-3.953 1.439-1.429 2.63-3.119 3.167-5.389"/>
    <path fill="#a4a6b0" d="M109.887 84.542c1.052.75.591.577-.834-.313-.699-.462-1.65-1.113-2.618-2.12a9.294 9.294 0 0 1-1.369-1.8c-.238-.357-.373-.787-.541-1.209-.102-.445-.215-.906-.207-1.38-.027-.946.158-1.906.436-2.802.135-.449.285-.9.434-1.338.182-.478.237-.798.2-.932-.036-.037-.013-.044-.091-.086a1.252 1.252 0 0 0-.389-.126c-.353-.067-.799-.073-1.258-.06-.923.054-2.069.071-3.122-.164a6.45 6.45 0 0 1-1.609-.563c-.527-.266-1.066-.679-1.438-1.28-.38-.602-.5-1.339-.441-1.982.052-.313.128-.734.205-.904l.113-.33.041-.107.024-.047.049-.093.098-.186c.474-1.033 1.29-1.782 2.085-2.374.816-.589 1.685-.954 2.518-1.245.418-.132.893-.254 1.295-.339l.583-.1.145-.026.116-.016.077-.007.306-.025c.815-.069 1.621-.138 2.372-.142l2.153-.07c.67.002 1.413-.15 2.091-.21 2.545-.426 4.901-1.283 6.718-2.143 1.856-.862 3.2-1.83 4.167-2.446.942-.705 1.504-1.06 1.602-.955.096.103-.275.651-1.053 1.541-.857.85-2.152 2.063-4.029 3.146a23.45 23.45 0 0 1-7.136 2.737c-.701.091-1.355.255-2.141.286-.771.055-1.561.105-2.288.133-.76.02-1.484.094-2.223.161l-.278.025-.07.006c.007-.002-.065.008.007-.003l-.036.007-.145.026-.582.104a13.3 13.3 0 0 0-1.011.271c-1.362.456-2.526 1.183-3.223 2.126-.126.24-.318.527-.402.714-.053.154-.148.363-.166.47-.007.1-.052.188-.054.296-.033.44.069.75.401 1.071.706.635 1.972.941 3.104 1.02.576.043 1.221.02 1.892.086.335.032.684.09 1.045.198.354.114.783.313 1.078.737.294.427.308.951.222 1.313-.036.194-.107.351-.162.526l-.177.417c-.235.551-.466 1.086-.656 1.628-.381 1.075-.63 2.207-.359 3.315.624 2.245 2.471 4.047 4.531 5.563m67.019-18.738c.39.482.13.374-.503-.08l-.537-.403c-.216-.133-.476-.257-.741-.406-.507-.334-1.202-.532-1.903-.8-1.454-.425-3.3-.549-4.972-.36l-.626.061-.694.133-.686.128c-.107.017-.347.102-.511.145-.723.234-1.417.536-2.017.89-2.452 1.36-4.241 3.342-5.21 4.89-.516.787-.76 1.474-1.015 1.944-.196.555-.382.871-.574.862-.187-.009-.363-.326-.495-.912a6.24 6.24 0 0 1 .312-2.694c.7-2.158 2.61-4.805 5.644-6.494.747-.437 1.542-.732 2.319-.965.417-.09.764-.187 1.223-.234l1.003-.078c.646-.055 1.423.017 2.079.044.662.106 1.295.196 1.905.358 2.43.664 4.514 1.981 5.999 3.971"/>
    <path fill="#a4a6b0" d="M164.352 68.538c-.14.384-.205-.355.107-1.422.31-1.055 1.07-2.357 1.862-3.082.77-.738 1.682-1.2 2.395-1.322.772-.132 1.129.047 1.178.214.056.194-.397.402-.841.698a11.43 11.43 0 0 0-1.782 1.405 40.617 40.617 0 0 0-1.667 1.677c-.486.535-.943 1.083-1.252 1.832"/>
    <path stroke="#a4a6b0" stroke-width=".5" d="M126.083 56.308c-.06.396-.25.78-.5 1"/>
    <path fill="#a4a6b0" d="M128.454 74.817c4.354.806 8.807.853 13.218.703 3.959-.135 7.695-.973 11.578-1.212 1.819-.111 2.403.394 3.158-1.167.598-1.239.535-2.631 1.134-3.87.752-1.556 2.093-2.635 3.545-3.596 1.47-.973 6.99-3.219 4.329-5.325-1.5-1.187-4.74-1.037-6.503-1.168-4.374-.324-9.385.549-13.653-.591-4.607-1.231-8.95-3.358-13.68-4.125-1.266-.205-3.84-.374-4.838.509-.803.71-.916 2.618-1.454 3.616-1.907 3.535-4.285 4.607-7.671 6.31-1.307.658-2.687 1.721-4.192 2.082-1.183.284-3.707-.327-3.675 1.325.004.219-.028.427.03.638 3.029 1.434 5.426 3.161 8.82 4.017 3.226.814 6.674 1.265 9.854 1.854M184.4 64.245c-.177.216.027-.234.338-.886.326-.646.674-1.519.705-2.122.035-.15.031-.297.011-.437-.018-.138-.003-.283-.035-.405-.092-.237-.095-.467-.202-.673-.201-.407-.287-.685-.208-.737.079-.053.307.13.612.466.154.163.268.472.41.78.06.16.064.336.094.516.033.183.041.37.002.56-.069.775-.428 1.274-.72 1.715-.322.428-.656.791-1.007 1.223m-14.047-1.666c.394.168.777.287 1.207.376.456.093.734.252 1.138.469.464.249.923.53 1.397.75.313.145.594.35.913.46.157.054.355.062.498.128.253.118.393.33.556.48.428.392.833.632 1.16 1.126.293.447.346.394.754.095.465-.342 1.001-.601 1.501-.906.654-.4 1.272-.905 1.917-1.328.3-.197.67-.474.905-.735.176-.195.297-.477.49-.644.185-.16.41-.287.596-.46.183-.167.277-.331.43-.537.211-.286.591-.45.663-.83-.445-.167-.983-.1-1.447-.1-1.123 0-2.247.005-3.37 0-.972-.004-1.94.149-2.91.157-.78.005-1.562-.001-2.342-.001-.859 0-1.769-.06-2.619.055-.319.043-.7.083-.946.31-.368.344-.322.756-.272 1.197m66.245-3.232c.532.243.612.303.35.23-.253-.081-.854-.3-1.774-.202-.91.065-2.141.438-3.673.319-.77-.075-1.583-.381-2.29-.792-.71-.404-1.378-.782-2.132-.915l.054.008c-.592-.04-1.25.27-2.01.572-.74.308-1.737.556-2.692.278l.052.013c-.99-.197-1.797-.771-2.45-1.307-.655-.541-1.264-1.057-1.782-1.28-1.24-.45-2.633.164-4.04.5l-.53.12-.563.06c-.357.065-.79.01-1.197-.036-.452-.026-.675-.18-1.008-.268l-.23-.077-.138-.052-.065-.037-.128-.075c-.167-.103-.348-.2-.48-.321-.586-.463-.978-.97-1.378-1.34a3.66 3.66 0 0 0-1.237-.795l.06.015c-.6-.134-1.308-.04-1.974.073l-1.97.388c-1.252.252-2.56.32-3.52-.21-.97-.528-1.204-1.422-1.356-1.883-.091-.493-.11-.767-.043-.79.065-.02.21.214.42.668.254.389.563 1.047 1.314 1.335.726.295 1.765.193 2.965-.134.6-.15 1.248-.345 1.966-.505.716-.15 1.51-.325 2.444-.164l.027.004.034.01a4.81 4.81 0 0 1 1.753 1.032c.494.446.889.918 1.312 1.232.103.095.213.138.318.204l.079.048.04.024c.073.03-.1-.04-.081-.032h.002l.004.002.007.003.014.004.029.009.23.074c.292.074.663.262.882.223.25.005.48.062.79.003l.439-.045.46-.107c.813-.18 1.647-.498 2.575-.605.448-.093.93-.044 1.39-.027l.087.005h.027l.12.028.01.003.036.012.142.049.283.098c.17.039.422.2.63.314.81.502 1.319 1.052 1.864 1.512.532.452 1.067.769 1.638.938l.047.012c.633.219 1.317.11 2.04-.135.714-.224 1.513-.584 2.416-.48l.03.004.008.002c1.757.44 2.776 1.862 4.389 2.038.783.133 1.617.074 2.442.002.826-.065 1.708-.16 2.522.146m-4.33 29.804c.383.442.43.53.224.356-.198-.181-.654-.63-1.53-.923-.855-.32-2.129-.494-3.473-1.24-.669-.39-1.279-1.006-1.75-1.673-.479-.664-.929-1.286-1.559-1.72l.046.03c-.522-.283-1.25-.276-2.066-.317-.8-.03-1.81-.22-2.563-.87l.042.034c-.818-.59-1.312-1.45-1.684-2.208-.37-.765-.708-1.488-1.087-1.905-.939-.925-2.46-.948-3.879-1.228l-.532-.112-.539-.181c-.35-.09-.72-.32-1.073-.53-.4-.212-.539-.444-.804-.663l-.177-.166-.105-.105-.043-.061-.085-.122c-.109-.163-.234-.326-.303-.491-.34-.665-.486-1.288-.695-1.792a3.632 3.632 0 0 0-.794-1.238l.05.039c-.49-.372-1.174-.581-1.826-.756l-1.953-.468c-1.243-.292-2.459-.774-3.112-1.655-.662-.886-.503-1.796-.45-2.278.123-.486.221-.743.29-.736.068.009.102.28.105.782.068.459.075 1.186.638 1.76.537.57 1.524.91 2.751 1.114.608.114 1.28.206 1.998.359.714.163 1.508.334 2.291.869l.022.015.026.024a4.822 4.822 0 0 1 1.166 1.667c.263.61.425 1.205.68 1.666.053.13.135.215.203.319l.052.076.026.039a2.721 2.721 0 0 1-.06-.063l.002.002.002.002.006.005.011.01.022.02.18.164c.233.189.492.514.708.57.225.108.411.256.717.33l.418.143.463.095c.813.175 1.704.233 2.592.522.446.1.864.347 1.275.554l.077.04.02.01.004.003.1.075.006.006.027.026.11.104.216.207c.14.107.301.358.442.547.527.795.761 1.506 1.065 2.152.295.632.65 1.143 1.1 1.535l.036.03c.485.462 1.152.649 1.911.727.743.093 1.62.099 2.397.57l.026.016.006.005c1.413 1.132 1.75 2.849 3.142 3.68.656.448 1.44.74 2.22 1.019.777.285 1.62.566 2.231 1.183m4.03-14.405c.469.352.533.428.294.3-.23-.134-.771-.476-1.69-.58-.902-.132-2.185-.033-3.655-.48-.736-.24-1.463-.713-2.064-1.266-.608-.548-1.18-1.061-1.887-1.353l.052.02c-.57-.167-1.28-.007-2.086.125-.79.14-1.816.168-2.69-.31l.049.025c-.924-.405-1.588-1.14-2.111-1.804-.523-.67-1.006-1.305-1.464-1.633-1.113-.706-2.606-.408-4.052-.383l-.543.003-.564-.063c-.363-.014-.773-.16-1.161-.293-.437-.123-.621-.32-.927-.478l-.207-.125-.125-.081-.055-.05-.108-.102c-.141-.136-.298-.268-.4-.416-.473-.578-.747-1.157-1.057-1.605a3.652 3.652 0 0 0-1.037-1.043l.055.028c-.556-.261-1.268-.321-1.943-.354l-2.008-.046c-1.277-.024-2.567-.24-3.39-.963-.835-.726-.87-1.65-.92-2.131.017-.501.059-.774.128-.78.069-.007.159.252.267.74.164.436.323 1.145.995 1.588.645.445 1.682.569 2.924.508.619-.016 1.293-.068 2.029-.07.732.009 1.544.009 2.422.367l.025.01.03.018a4.813 4.813 0 0 1 1.49 1.384c.388.542.67 1.088 1.017 1.486.08.115.178.18.266.268l.067.064.034.032c.065.044-.088-.06-.072-.048h.002l.003.002.006.004.014.008.026.015.209.122c.269.135.59.398.813.407.242.059.456.165.77.173l.439.05.472-.004c.832 0 1.716-.131 2.645-.036.457.005.918.157 1.363.273l.084.023.02.006h.006l.112.054.008.005.033.019.128.079.255.156c.159.075.37.287.548.442.683.666 1.06 1.312 1.495 1.879.42.556.876.98 1.397 1.269l.043.022c.57.349 1.262.392 2.02.308.746-.066 1.605-.245 2.464.052l.028.01.008.003c1.62.809 2.31 2.417 3.847 2.936.735.299 1.563.42 2.384.528.82.115 1.702.212 2.43.686M114.027 3.418c.643.638.913 1.481 1.19 2.26.275.793.545 1.57 1.002 2.275.44.712 1.107 1.27 1.79 1.706.672.437 1.296.872 1.752 1.46.326.56.343 1.292.423 2.088.065.784.286 1.753.97 2.474.53.62 1.226 1.07 1.933 1.386.701.307 1.444.571 1.965.9.122.092.235.105.385.276l.214.21.08.077.025.05c.067.13.141.254.213.382.345-.287.693-.574 1.047-.859l-.22-.37-.005-.009-.086-.098-.013-.013-.028-.025-.054-.05-.109-.102-.22-.204c-.827-.65-1.673-.878-2.418-1.175-.752-.283-1.412-.607-1.872-1.12l-.032-.036-.005-.004c-.459-.44-.676-1.065-.789-1.819-.129-.734-.17-1.634-.705-2.433l-.019-.028-.014-.017c-.633-.73-1.455-1.176-2.13-1.553-.686-.377-1.224-.804-1.63-1.326-.802-1.086-1.152-2.294-1.625-3.165-.458-.895-1.062-1.334-1.306-1.473-.245-.156-.166-.06.291.335M105.9 30.003c.15.034.259-.001.466.092l.282.1.104.038.044.034c.215.169.44.326.65.523.497-.134.973-.302 1.437-.49-.304-.281-.55-.615-.937-.85l-.557-.385-.008-.006-.12-.053-.017-.006-.035-.012-.07-.023-.142-.047-.285-.094c-1.022-.246-1.887-.101-2.687-.062-.802.056-1.537.036-2.17-.238l-.043-.02-.005-.001c-.602-.21-1.06-.687-1.476-1.325-.423-.613-.835-1.415-1.654-1.92l-.03-.017-.018-.01c-.881-.4-1.813-.462-2.584-.524-.781-.056-1.447-.221-2.034-.527-1.181-.653-2.002-1.606-2.796-2.2-.788-.623-1.52-.771-1.8-.796-.288-.04-.176.015.404.184.85.312 1.447.966 2.023 1.558.58.608 1.149 1.2 1.858 1.652.696.464 1.535.692 2.337.806.794.118 1.543.253 2.202.597.53.374.85 1.032 1.254 1.723.386.685.99 1.475 1.912 1.845.739.342 1.56.462 2.334.455.766-.013 1.55-.082 2.16-.001m-.067-13.78c.751.281 1.454.571 2.026 1.046.44.478.614 1.188.863 1.948.233.752.657 1.651 1.48 2.207.651.491 1.428.781 2.186.937.751.15 1.534.247 2.113.454.14.065.253.054.436.19l.254.157.094.058.036.043c.221.266.48.494.656.835.246.366.45.802.666 1.268.383-.249.773-.49 1.172-.718-.14-.29-.283-.59-.45-.896-.244-.344-.413-.73-.747-1.046l-.463-.494-.008-.008-.105-.076-.016-.01-.032-.019-.064-.037-.128-.076-.259-.152c-.947-.456-1.823-.497-2.614-.627-.795-.114-1.51-.288-2.07-.689l-.039-.028-.005-.003c-.543-.333-.889-.895-1.163-1.607-.284-.688-.517-1.559-1.212-2.224l-.025-.023-.017-.013c-.776-.578-1.674-.835-2.415-1.059-.75-.219-1.368-.52-1.877-.943-1.017-.887-1.619-1.992-2.269-2.74-.639-.775-1.324-1.075-1.593-1.158-.272-.099-.175-.022.357.265.765.484 1.21 1.25 1.65 1.95.438.716.87 1.416 1.467 2.006.583.6 1.355 1 2.115 1.281m22.817 10.825a3.337 3.337 0 0 1 1.192-.181l.486.015.571.09c.731.154 1.391.48 1.898.958.381.374.626.8.819 1.228.251.366.445.772.574 1.213.48-2.044.669-4.141.893-6.07.04-.414.064-.815.078-1.206.123.027.248.045.369.08a4.4 4.4 0 0 0 1.402.116c-.001.385-.011.77-.032 1.154-.227 4.105-.165 9.532-4.097 12.026-1.444.916-3.204 1.37-4.866.798a3.935 3.935 0 0 1-2.094-1.793c-.195-.406-.39-.781-.492-1.237a5.728 5.728 0 0 1-.166-1.266c-.027-1.662.467-3.271 1.487-4.536.512-.624 1.198-1.142 1.978-1.39"/>
    <path fill="#1d1d1f" d="M127.784 29.708a1.75 1.75 0 1 0 3.374.932 1.75 1.75 0 0 0-3.373-.932"/>
    <path fill="#a4a6b0" d="M187.006 32.317c.585.483.283.406-.588-.043-.874-.444-2.285-1.297-4.057-2.189-3.496-1.849-8.243-4.092-11.671-5.52a47.872 47.872 0 0 0-2.488-1.072l-2.32-.995c-1.48-.587-2.811-1.114-3.926-1.62-2.328-.864-3.724-1.576-3.63-1.945.096-.367 1.66-.32 4.115.062 1.228.278 2.704.637 4.31 1.123l2.453.875c.853.302 1.722.647 2.589 1.053.873.392 1.697.78 2.48 1.162.776.396 1.495.823 2.192 1.225 1.4.792 2.634 1.641 3.807 2.488 2.357 1.673 4.415 3.441 6.734 5.396m-66.911-7.024c-.57.095-.398-.067.279-.39a21.982 21.982 0 0 1 3.33-1.265c2.927-.918 6.988-1.654 9.91-1.643l1.08-.024 1.05.057c.688.042 1.35.092 1.98.15 1.274.174 2.42.426 3.356.648 1.78.6 2.837 1.165 2.764 1.536-.075.374-1.272.482-3.144.372-.915.035-1.967.001-3.142-.028a60.587 60.587 0 0 1-2.87 0l-1.021.038c-.691.021-1.348.024-1.98.014l-1.822.036c-1.175-.023-2.265.005-3.333.01-2.137.002-4.163.081-6.437.49m41.78 10.572c.544-.595 1.257-1.075 2.05-1.28a3.337 3.337 0 0 1 1.198-.117l.485.041.566.12c.722.194 1.362.556 1.843 1.06.36.393.582.833.752 1.27.231.38.402.795.508 1.242.59-2.016.89-4.1 1.218-6.013.188-1.234.28-2.388.096-3.348-.126-.866-.686-1.69-1.328-2.085-.605-.385-1.227-.264-1.8.108-.557.374-.986.861-1.318 1.263-.66.82-.978 1.353-1.115 1.293-.114-.046-.045-.676.467-1.709.265-.509.63-1.128 1.293-1.725.35-.28.77-.576 1.342-.704.571-.128 1.227-.03 1.786.237 1.075.551 1.925 1.564 2.272 2.955.326 1.291.257 2.634.112 3.956-.448 4.087-.677 9.51-4.738 11.788-1.492.837-3.273 1.196-4.902.536a3.936 3.936 0 0 1-1.994-1.904c-.174-.416-.348-.8-.425-1.262a5.722 5.722 0 0 1-.098-1.272c.063-1.662.642-3.24 1.73-4.45"/>
    <path fill="#1d1d1f" d="M162.74 37.678a1.75 1.75 0 1 0 3.381.908 1.75 1.75 0 0 0-3.38-.908"/>
    <path fill="#a4a6b0" d="M181.477 145.864c-.17-.433-.525-.771-.18-1.2.222-.277.598-.442.916-.581.711-.31 1.425-.381 2.18-.137.44.14.6.51.862.874.41.567.81 1.14 1.2 1.72.144.213.302.41.468.6 1.093 3.06 1.846 6.353 2.366 9.758.713 4.594.986 9.408 1.093 14.358l.026 1.862.008.975-.009.93c-.003 1.206-.065 2.602-.12 3.848-.115 2.55-.282 5.092-.37 7.626-.087 2.532-.125 5.169.07 7.81.198 2.629.643 5.297 1.654 7.556.104.302.261.556.416.81l.446.784.547.675.27.346.032.044c.031.03.022.023.005.007l.055.052.206.198c.55.516 1.115 1.092 1.655 1.565l1.553 1.227c2.273 1.63 4.875 2.859 7.668 3.64 5.607 1.58 11.82 1.403 17.741.658 5.947-.751 11.694-2.095 17.02-3.316 5.326-1.235 10.245-2.404 14.553-3.156 4.303-.77 7.984-1.135 10.72-1.147 1.363-.028 2.494.059 3.342.126.852.104 1.426.19 1.697.256.542.139-.127.167-2.226.148-4.2.107-8.197.834-12.042 1.766-3.848.93-7.563 2.042-11.247 3.165-7.369 2.235-14.607 4.62-22.488 6.01-3.938.675-8.049 1.086-12.354.846-4.29-.225-8.81-1.294-13.038-3.524-1.019-.64-2.07-1.157-3.079-1.97-.5-.377-1.034-.766-1.51-1.151l-1.255-1.133-.315-.285-.158-.143-.079-.072-.039-.035-.108-.106-.02-.025-.688-.798-.679-.815c-.194-.287-.37-.584-.554-.88l-.542-.893c-.174-.301-.29-.615-.437-.924-.276-.622-.577-1.25-.754-1.886-.864-2.548-1.276-5.161-1.453-7.761-.184-2.606-.174-5.225-.082-7.868.093-2.643.272-5.21.402-7.698.064-1.273.13-2.378.15-3.656l.02-.93.002-.876v-1.816c-.03-4.814-.193-9.433-.725-13.731-.519-4.298-1.389-8.29-2.792-11.727"/>
    <path fill="#1d1d1f" stroke="#a4a6b0" stroke-width="5" d="m17.95 85.927 268-.878c8.285-.027 15.023 6.667 15.05 14.951v53c0 8.284-6.716 15-15 15H18c-8.284 0-15-6.716-15-15v-52.073c0-8.265 6.686-14.972 14.95-15Z"/>
    <path fill="#a4a6b0" d="M112.07 158.597c.105.965.252 2.074.438 3.15.187 1.076.434 2.106.624 2.954.407 1.69.882 3.125 1.316 4.15.352.941.85 1.755.552 2.021-.259.232-1.042.162-2.137-.894-1.012-.967-1.942-2.68-2.407-4.642-.45-1.967-.323-3.593-.053-5.058.283-1.468.723-2.794 1.19-4.239.25-.719.287.634.476 2.558Z"/>
    <path fill="#a4a6b0" d="M107.126 156.931c.131-.777.415.597.764 2.582.173.991.397 2.121.684 3.161.285 1.045.67 1.96 1.054 2.65.386.69.863 1.271 1.34 1.81.5.514 1.011.987 1.446 1.375.22.193.412.383.59.561.194.172.356.334.48.483.248.3.347.545.266.717-.08.172-.334.253-.723.252a4.673 4.673 0 0 1-.68-.06 8.519 8.519 0 0 1-.896-.263 8.357 8.357 0 0 1-2.16-1.167c-.745-.585-1.51-1.374-2.064-2.367-1.067-2.023-1.038-3.81-.878-5.307.175-1.523.53-2.882.777-4.427"/>
    <path fill="#a4a6b0" d="M102.61 160.03c.16-.47.228-.256.228.388-.001.322-.018.75-.05 1.255-.03.504.02 1.084.014 1.705.095 1.214.249 2.654.898 3.639.595 1.005 1.566 1.555 2.554 1.898 1.987.66 4.211.823 5.795 1.09 1.608.25 2.619.587 2.618.968-.002.379-.995.73-2.629.978-1.632.206-3.982.439-6.719-.45-1.365-.462-2.545-1.417-3.225-2.512-.161-.284-.31-.563-.448-.837-.097-.288-.169-.577-.242-.856-.185-.557-.148-1.101-.177-1.621.064-2.074.708-3.77 1.383-5.644m95.21-4.53c-.007-.773.58.484.963 2.526.178 1.017.297 2.223.296 3.427a15.867 15.867 0 0 1-.37 3.383c-.464 1.961-1.394 3.674-2.406 4.641-1.095 1.057-1.878 1.126-2.136.895-.3-.266.199-1.08.55-2.022.435-1.025.91-2.46 1.317-4.15.388-1.69.753-3.095 1.105-4.46.34-1.366.656-2.699.68-4.24"/>
    <path fill="#a4a6b0" d="M202.29 156.432c.118-.77.46.573.672 2.648a17.82 17.82 0 0 1 .019 3.538c-.122 1.258-.487 2.558-1.042 3.548-.554.993-1.32 1.78-2.064 2.367a8.388 8.388 0 0 1-2.16 1.167 8.26 8.26 0 0 1-.896.26c-.258.04-.486.062-.68.063-.388 0-.642-.08-.723-.252-.081-.172.018-.418.266-.717.124-.15.286-.311.48-.484.178-.178.37-.368.59-.56.435-.388.946-.862 1.446-1.377.477-.537.954-1.12 1.34-1.81.74-1.387 1.217-2.747 1.66-4.12.44-1.368.84-2.727 1.092-4.271"/>
    <path fill="#a4a6b0" d="M206.8 159.473c-.04-.504.102-.35.36.26.128.305.285.724.461 1.231.174.507.277 1.131.427 1.808.177 1.362.363 3.104-.413 4.84-.206.413-.462.815-.708 1.212a15.3 15.3 0 0 1-.958.993 20.84 20.84 0 0 1-1.068.72c-.362.167-.716.323-1.054.464-2.737.888-5.087.656-6.719.45-1.634-.249-2.628-.599-2.629-.978 0-.38 1.01-.718 2.618-.968 1.584-.267 3.807-.429 5.795-1.09.985-.344 1.65-.807 2.21-1.363.126-.15.26-.298.398-.444l.304-.524c.248-.33.341-.754.507-1.147.522-1.638.672-3.468.468-5.464"/>
  </g>
</svg>
