<svg xmlns="http://www.w3.org/2000/svg" width="291" height="232" viewBox="0 0 291 232">
  <g fill="none" fill-rule="evenodd">
    <path fill="#e3e4e7" d="M281.178 79.016c.302-.012.207.125-.12.34-.326.212-.882.516-1.433.977a8.283 8.283 0 0 0-1.566 1.668c-.45.644-.798 1.337-1.092 1.922-1.163 2.34-1.791 4.67-2.585 4.62-.367-.057-.691-.633-.762-1.745-.07-1.066.134-2.572.884-4.097a6.32 6.32 0 0 1 3.09-3.019c1.189-.534 2.378-.655 3.584-.666"/>
    <path fill="#e3e4e7" d="M289.804 86.88c.304.193.117.234-.335.187-.222-.03-.513-.073-.877-.08-.348-.037-.768-.027-1.217-.027-.907.024-1.967.113-3.042.22-1.062.097-2.108.19-2.977.269-.2.01-.395.02-.588.032-.195.016-.39.072-.58.1-.381.07-.753.127-1.113.17-.725.15-1.395.28-1.982.343-1.195.185-2.001.12-2.133-.235-.132-.356.433-.937 1.455-1.588.537-.31 1.199-.651 1.97-.958.405-.13.835-.255 1.285-.375.227-.055.45-.13.692-.163l.748-.065a11.368 11.368 0 0 1 2.586.053c.763.092 1.497.225 2.197.415 1.39.379 2.71.895 3.91 1.702"/>
    <path fill="#e3e4e7" d="M290.016 91.493c.292.265.096.268-.383.109-.47-.17-1.252-.453-2.209-.658-1.904-.451-4.529-.466-6.469-.562-1.93-.106-3.75-.331-5.049-.736-1.35-.41-2-.927-1.949-1.291.055-.387.957-.53 2.166-.642a37.49 37.49 0 0 1 4.993-.077c3.985.24 6.631 1.706 8.9 3.857"/>
    <path fill="#e3e4e7" d="M284.542 94.133c.381.408-.622.11-1.895-.421-.63-.27-1.497-.52-2.264-.843-.637-.251-1.29-.351-1.888-.458-1.187-.2-2.437-.375-3.374-.725-.488-.168-.825-.368-1.04-.575-.224-.203-.332-.403-.3-.591.03-.187.197-.343.473-.465.281-.115.665-.21 1.078-.302a10.577 10.577 0 0 1 3.642-.05 5.846 5.846 0 0 1 2.065.776l.124.066.043.034.085.069.166.138.318.28c.208.189.405.38.598.572.786.722 1.41 1.708 2.17 2.495"/>
    <path fill="#e3e4e7" d="M193.144 72.756c26.004 13.167 53.442 16.646 82.12 18.394 3.193.195 3.941-4.75.721-4.947-28.244-1.723-55.199-5.048-80.829-18.026-2.885-1.46-4.873 3.13-2.012 4.58"/>
    <path fill="#ffffff" fill-opacity=".04" d="M170.875 207.436c5.848 3.44 12.732 4.681 18.365 8.575 1.37.947-.263 1.102-1.123 1.13-2.458.075-4.99-.369-7.414-.71-3.143-.443-6.273-.969-9.398-1.524-3.242-.575-6.018-2.297-9.352-2.745-1.534-.207-2.911-.573-4.156-1.379-1.454-.94-2.773-1.346-4.285-2.038-1.08-.495-2.387-1.582-3.63-1.583-3.373 0-9.92.085-13.207.125-.461.724-4.561 3.311-4.976 3.205a4.126 4.126 0 0 1-1.625 1.487l-1 .5c-1.233.616-2.492.878-3.853.504-.087-.024-.166-.068-.252-.097-.792 1.145-2.098 1.942-3.92 1.942-.405 0-.774-.053-1.126-.129-.798.786-1.921 1.296-3.373 1.296-.043 0-.082-.005-.125-.006-.767.618-1.778 1.006-3.042 1.006-.035 0-.067-.004-.101-.005-.023 0-.043.005-.065.005-.498 0-.952-.066-1.373-.176a5.124 5.124 0 0 1-1.687 1.64c-.6.351-1.06.49-1.582.575a5.42 5.42 0 0 1-.882.112l-.143.016a3.175 3.175 0 0 1-.898-.05 4.972 4.972 0 0 1-.804-.169c-.708.445-1.58.72-2.631.72-6.45 0 1.06-9.918 1.52-9.782a4.504 4.504 0 0 1 1.16-.514 4.932 4.932 0 0 1 3.149-.193c.029.008.054.023.082.032.232-.387.516-.74.856-1.047-35.365 1.85-60.101 6.078-60.101 11.003 0 6.627 44.772 12 100 12 55.229 0 100-5.373 100-12 0-5.763-33.87-10.568-79.008-11.726"/>
    <path fill="#1d1d1f" d="M106.05 2.467c-5.2-.758-12.62-.726-17.247 2.252-4.436 2.856-9.49 8.613-10.002 13.942-.435 4.524 1.036 9.133 3.072 12.877 2.27 4.174 5.042 6.326 9.87 7.36 4.147.887 8.845 1.04 7.7 6.496-1.353 6.455-4.49 11.864-6.656 17.842-2.673 7.375-3.475 15.556-2.987 23.426.184 2.964 1.114 5.825 1.444 8.781.402 3.591.04 6.325 1.313 9.719 1.202 3.207 1.505 6.54 2.285 9.817.782 3.287 2.834 5.886 3.472 9.316.81 4.359 3.523 8.61 5.487 12.616.95 1.938 2.166 3.566 3.562 5.189 2.255 2.62 4.003 3.23 7.035 4.55 5.119 2.226 8.075 7.356 13.2 8.77 5.365 1.478 10.095 2.992 15.936 2.992 6.008 0 10.847-.228 16.223-2.763 5.257-2.477 10.19-6.578 14.194-10.694 3.649-3.749 6.157-8.43 9.397-12.524 4.046-5.11 6.422-12.035 7.695-18.452.476-2.397.08-4.876.494-7.269.307-1.77 1.04-3.431 1.25-5.298.503-4.49-.21-9.157 1.123-13.514 1.2-3.926.808-7.248.196-11.236-.492-3.203-1.775-7.07-1.646-10.215 6.839-4.575 19.098-1.27 26.792-2.093 5.366-.573 6.998-2.294 5.505-7.434-.798-2.752-2.028-4.047-4.751-4.947-2.573-.85-5.54-.828-8.213-1.367-3.321-.669-6.311-1.53-9.548-2.439-5.068-1.424-10.228-2.764-14.451-5.756-4.025-2.852-7.724-8.378-10.494-12.556-2.5-3.77-5.4-6.093-8.944-8.887-2.858-2.256-7.01-5.7-10.556-7.124-1.687-.678-6.106-.59-7.17-1.928-1.696-2.139.54-5.022-2.067-7.066-3.467-2.718-7.785-3.864-12.275-3.688-4.401.173-6.502 3.006-8.526 6.457-.92 1.568-8.772-2.037-10.144-2.518-3.726-1.31-7.668-2.066-11.568-2.634m43.17 199.963c-3.415 5.01 8.44 8.245 11.23 9.884 4.352 2.56 10.085 3.401 15.056 3.517 2.813.065 5.394 1.032 8.245.995 2.337-.03 4.967-.459 7.374-.974.496-3.606-4.211-5.269-6.792-6.818-2.854-1.71-6.224-3.193-9.426-4.658-4.406-2.017-8.694-2.07-13.791-2.09-2.766-.01-5.106-.309-7.866-.003-1.511.167-2.671.261-4.07-.1m-17.39 2.303c-3.126 1.668-9.18.787-13.061 1.14-6.874.626-11.49 3.262-17.06 6.965-2.538 1.689-9.65 8.08-3.447 9.948 3.495 1.054 8.693-1.554 12.055-2.416 2.765-.71 6.123-1.972 8.886-2.986 4.526-1.66 9.213-3.397 13.196-5.994 2.452-1.6 4.7-2.57 3.69-6.232-.931-.45-1.994-.893-2.807-1.054"/>
    <path fill="#e3e4e7" d="M111.22 142.885c.17-.433.525-.772.181-1.2-.223-.278-.599-.442-.917-.582-.71-.309-1.425-.38-2.18-.137-.439.141-.6.51-.862.874-.409.567-.81 1.14-1.2 1.72a6.017 6.017 0 0 1-.468.6c-1.093 3.06-1.846 6.353-2.366 9.758-.713 4.594-.986 9.409-1.093 14.358l-.026 1.862-.008.975.01.93c.002 1.207.064 2.602.12 3.849.114 2.55.281 5.091.37 7.626.086 2.531.124 5.168-.07 7.81-.199 2.629-.644 5.297-1.655 7.555-.104.302-.26.556-.416.811l-.446.784-.547.674-.269.347-.033.043c-.03.03-.022.023-.005.007l-.055.052-.206.198c-.549.516-1.115 1.093-1.655 1.565-.516.409-1.034.817-1.553 1.227-2.273 1.631-4.875 2.86-7.668 3.64-5.607 1.58-11.82 1.404-17.74.659-5.948-.751-11.695-2.095-17.02-3.316-5.327-1.236-10.246-2.405-14.554-3.157-4.303-.768-7.984-1.135-10.719-1.147-1.364-.028-2.495.06-3.343.126-.852.105-1.426.192-1.697.257-.542.139.127.167 2.226.148 4.201.107 8.197.834 12.042 1.766 3.848.93 7.563 2.041 11.247 3.165 7.37 2.234 14.607 4.62 22.488 6.01 3.938.675 8.05 1.085 12.354.846 4.29-.225 8.811-1.294 13.038-3.524 1.02-.64 2.071-1.157 3.08-1.97.5-.377 1.033-.767 1.51-1.151l1.254-1.133.315-.286.158-.143.08-.071.038-.036.108-.106.021-.025.687-.798.68-.815c.193-.286.37-.584.553-.879l.542-.894c.174-.3.29-.614.437-.924.276-.621.577-1.249.754-1.886.864-2.548 1.276-5.16 1.453-7.76.184-2.607.174-5.226.082-7.869-.093-2.643-.272-5.209-.402-7.698-.064-1.273-.13-2.377-.149-3.656l-.02-.928-.003-.877v-1.816c.031-4.814.193-9.433.725-13.731.52-4.298 1.39-8.29 2.792-11.727m39.772 59.736a5.8 5.8 0 0 0-1.325.15c.454-15.237 1.936-30.515 3.05-45.695.217-2.963 5.22-2.983 5 0-1.146 15.614-2.685 31.33-3.089 47.002-.807-.873-2.018-1.457-3.636-1.457m-20.602-47.659c-1.481-.403-3.29.293-3.156 2.114 1.174 16.004 2.753 32.117 3.108 48.177.806-.883 2.022-1.474 3.65-1.474.48 0 .92.056 1.329.152-.4-15.189-1.858-30.42-2.99-45.559-1.121-.799-1.768-2.066-1.941-3.41m86.694-97.91c0 6.932 5.62 12.551 12.553 12.551 6.932 0 12.552-5.619 12.552-12.552s-5.62-12.553-12.552-12.553c-6.933 0-12.553 5.62-12.553 12.553"/>
    <path fill="#e3e4e7" d="M226.529 51.853c1.487.076.926.18-.99.292-1.913.12-5.185.208-9.117.1-3.934-.13-8.514-.504-13.03-1.294-1.121-.218-2.285-.383-3.346-.654-1.096-.266-2.106-.464-3.22-.78-1.061-.362-2.136-.598-3.096-1.07l-1.434-.63c-.465-.213-.887-.49-1.315-.728-3.42-1.964-6.033-4.669-7.987-7.406-.501-.672-.883-1.323-1.31-1.959-.451-.667-.793-1.322-1.171-1.952l-1.867-3.496c-1.111-2.095-2.153-3.676-2.964-4.665-.851-1.026-1.372-1.618-1.232-1.772.116-.127.826.151 1.945.973 1.167.866 2.538 2.404 3.915 4.458 2.68 4.06 5.954 9.961 12.048 13.44 3.013 1.768 6.068 2.516 9.116 3.376 2.94.728 5.722 1.378 8.454 1.864a121.777 121.777 0 0 0 16.6 1.903"/>
    <path fill="#e3e4e7" d="M177.26 26.19c.134.265-.389.032-1.052-.12-.662-.168-1.633-.215-2.418-.51-.37-.126-.747-.352-1.055-.557-.33-.278-.63-.569-.756-.808-.2-.478-.222-.872-.017-1.07.205-.198.598-.16 1.068.058.234.08.442.073.634.162.27.061.517.171.846.282 1.263.44 2.236 1.477 2.75 2.562"/>
    <path fill="#e3e4e7" d="M174.657 22.7c.2.272-.415.02-1.009.181-.336.081-.703.262-1.365.37-.177.031-.284.037-.408.05l-.09.006-.046.004-.023.001-.01.001-.007.001-.13-.014-.229-.036a2.994 2.994 0 0 1-.82-.236c-.949-.444-1.382-.979-1.69-1.313-.069-.083-.129-.172-.189-.26a1.604 1.604 0 0 1-.203-.25c-.102-.165-.138-.319-.094-.454.043-.136.163-.24.342-.31.09-.037.194-.065.311-.084.131-.003.287.011.458.04.66.103 1.37.52 1.897.743.135.057.257.123.375.163l.087.04.043.022.021.012.011.006.003.001.001.001h.001l-.12-.012.008.002.257.06c.191.053.264.071.398.12l.462.118c.671.144 1.395.493 1.758 1.027"/>
    <path fill="#e3e4e7" d="M171.85 19.91c.234.184-.308.197-1.034.34-.738.137-1.777.365-2.617.307-.82-.046-1.704-.37-2.167-.905-.246-.277-.395-.585-.351-.743.008-.185.065-.33.175-.42.194-.219.684.011.965-.064l1.52.074c1.345.083 2.495.701 3.509 1.41"/>
    <path fill="#e3e4e7" d="M169.041 17.436c.218.15-.275.25-.876.419-.609.16-1.392.44-2.025.53-.303.04-.63.055-.91.039a3.452 3.452 0 0 1-.819-.14c-.425-.168-.693-.415-.704-.7-.01-.284.238-.552.648-.756.19-.114.398-.211.642-.29a4.68 4.68 0 0 1 .871-.197c1.292-.173 2.306.503 3.173 1.095"/>
    <path fill="#e3e4e7" d="M165.623 15.322c.258-.044.032.363-.436.884-.222.276-.55.513-.889.738-.17.112-.343.217-.513.311a3.502 3.502 0 0 1-.558.18 4.818 4.818 0 0 1-1.003.14 2.911 2.911 0 0 1-.688-.193c-.394-.17-.644-.418-.656-.702-.012-.285.217-.553.596-.755.19-.102.417-.187.67-.249.197-.107.395-.197.616-.25.878-.235 1.84.081 2.861-.104m-6.767-2.51c.36.1-.269.329-1.234.505-.977.164-2.197.247-2.917.35-.38.022-.715.11-1.038.134-.306.079-.583.06-.888.127-.598.115-1.036.062-1.172-.188-.136-.251.055-.65.474-1.093.2-.222.591-.436.992-.652.414-.164.894-.342 1.398-.376 1.032-.117 1.755.158 2.416.415.65.276 1.255.582 1.97.779"/>
    <path fill="#e3e4e7" d="M160.957 14.307c.165-.018.157.073.004.242-.077.085-.19.189-.337.306-.144.13-.328.242-.55.32-.886.434-2.179.414-2.889.274a6.484 6.484 0 0 1-1-.252c-.258-.073-.484-.185-.708-.293-.498-.177-.809-.428-.817-.711-.007-.287.291-.55.78-.748.265-.08.623-.119 1.014-.13.335.004.738.04 1.09.104.742.14 1.202.381 1.711.606.26.137.5.178.793.27.285.07.575.037.91.012"/>
    <path fill="#e3e4e7" d="M164.119 14.198c.286-.021-.09.395-.643.86-.276.218-.605.503-.943.76a5.653 5.653 0 0 1-1.046.655 5.688 5.688 0 0 1-1 .378c-.3.049-.58.066-.824.052-.49-.028-.838-.18-.931-.45-.092-.27.089-.605.458-.93.184-.162.415-.322.68-.47.239-.164.485-.325.767-.46a4.653 4.653 0 0 1 1.742-.403c.587-.025 1.173.052 1.74.008m-12.237-3.42c.34-.163.024 1.536.163 1.686-.024.071-.007.085-.07.14-.006.02-.177.046-.134.22.046.312-.029.604-.234.802-.205.198-.502.264-.816.21-.145 0-.41-.28-.59-.547-.136-.266-.257-.626-.215-.942.045-.688.45-.979.8-1.176.371-.184.761-.254 1.096-.393"/>
    <path fill="#e3e4e7" d="M146.754 7.957c-.14-.256.382-.094 1.055.235.347.17.728.367 1.127.665.4.286.787.764.973 1.23.31.891.203 1.668.035 2.104-.176.46-.427.748-.71.756-.596.071-.977-1.286-1.246-2.108-.052-.086-.074-.176-.099-.274a1.492 1.492 0 0 1-.126-.3c-.104-.226-.21-.47-.318-.73-.23-.518-.41-1.065-.69-1.578m-5.102.617c-.349-.137.323-.331 1.323-.224.988.096 2.262.51 3.061 1.075.795.547 1.408 1.345 1.573 2.091.198.879-.165 1.158-.413 1.205-.283.06-.566-.405-.887-.542-.344-.266-.832-.63-1.453-1.063-.623-.424-1.105-.873-1.583-1.328-.48-.449-.953-.913-1.62-1.214m-3.721 1.612c-.223-.226.354-.138 1.086-.196.725-.034 1.771-.29 2.775-.045.477.11.959.357 1.293.676.176.153.313.318.414.488.113.158.193.327.248.491.136.333.111.547.074.734-.039.184-.12.318-.244.387-.125.07-.282.066-.458.002-.174-.062-.381-.217-.563-.282-.392-.192-.733-.384-1.265-.495-.534-.137-1.195-.318-1.781-.623a6.547 6.547 0 0 1-1.579-1.137"/>
    <path fill="#e3e4e7" d="M133.069 11.177c-.321-.169.33-.219 1.202-.441.873-.199 2.157-.642 3.368-.363.57.131 1.136.414 1.5.792.384.362.602.752.73 1.115.152.369.126.608.1.818-.031.205-.11.349-.235.415-.127.066-.29.047-.475-.043-.184-.081-.4-.287-.611-.393-.195-.13-.435-.298-.675-.411-.233-.136-.485-.204-.791-.282-.613-.138-1.341-.248-2.046-.442a11.69 11.69 0 0 1-2.067-.765m-7.689 1.785c-.425-.086.322-.32 1.41-.614 1.078-.289 2.623-.685 3.86-.528.297.005.594.085.877.162.283.085.548.14.804.264.498.273.984.54 1.224.811.473.553.685 1.012.524 1.247-.16.235-.665.201-1.348-.044-.346-.114-.673-.098-1.015-.216-.176-.042-.403-.046-.608-.085-.21-.034-.423-.087-.665-.087-1.853-.138-3.353-.543-5.063-.91m-4.382 2.793c-.138-.135-.008-.154.217-.133.245.05.487-.015.787-.244.163-.124.35-.283.585-.476l.404-.302c.15-.09.197-.163.435-.267.606-.272 1.21-.607 1.764-.669.546-.108 1.069-.174 1.532-.13.467.02.886.064 1.203.163.655.181 1.06.436 1.065.72.027.605-1.686.936-3.37 1.265-.443.047-.812.191-1.2.228l-.285.033c-.032-.003-.13.023-.108-.003l-.15.033-.55.111c-.375.071-.786.192-1.236.178-.446-.014-.853-.19-1.093-.507m-3.839 2.493c-.31-.329.455-.022 1.477.14.512.07 1.078.076 1.56-.046.098-.04.188-.074.28-.097.087-.018.277-.122.406-.174.281-.124.403-.212.605-.32.355-.214.774-.524 1.215-.78.471-.268.962-.455 1.44-.505.25-.019.467-.015.648.004.144.048.267.102.37.16.202.115.318.246.324.388.006.142-.097.283-.29.414a2.23 2.23 0 0 1-.352.19 3 3 0 0 1-.279.24c-.2.16-.457.382-.753.652-.318.292-.688.652-1.258 1.003a4.504 4.504 0 0 1-.886.394c-.256.062-.42.123-.786.15a2.615 2.615 0 0 1-.869-.03 2.924 2.924 0 0 1-.723-.207c-.897-.37-1.506-.963-2.129-1.576m-15.15 8.548c-.184-.448.429.185 1.429.688 1.01.52 2.475.751 3.54.832 2.124.223 3.979.127 4.145.69.183.517-1.726 1.618-4.35 1.362a5.543 5.543 0 0 1-3.073-1.275c-.77-.65-1.297-1.437-1.691-2.297m-2.709 3.71c-.134-.197-.003-.183.268-.051.263.145.704.344 1.21.418.522.08 1.107.015 1.848-.066a21.411 21.411 0 0 1 2.037-.156c2.381-.042 4.311.386 4.311.956s-1.93 1.065-4.311 1.107c-1.196.008-2.126-.115-3.1-.42-.485-.165-.945-.388-1.332-.696a4.445 4.445 0 0 1-.931-1.091"/>
    <path fill="#e3e4e7" d="M126.963 6.887c-.033-.336.39.12.907.72.135.126.25.315.4.398.156.109.223.196.454.348.177.119.427.325.52.379.173.119.323.235.476.356.582.442 1.222 1.169 1.368 1.843.04.168.07.326.069.45a1.564 1.564 0 0 1-.066.307c-.062.178-.16.302-.291.355-.132.053-.287.03-.454-.055a1.398 1.398 0 0 1-.26-.176 28.802 28.802 0 0 1-.26-.151c-.344-.232-.76-.468-1.407-.973-.152-.12-.3-.263-.431-.403l-.096-.105c-.106-.11-.075-.09-.117-.142l-.144-.21a5.417 5.417 0 0 1-.245-.426 5.17 5.17 0 0 1-.218-.546c-.22-.714-.128-1.321-.205-1.97"/>
    <path fill="#e3e4e7" d="M123.68 6.06c-.047-.243.388-.008.875.354l.372.294c.142.08.282.162.412.246.131.085.253.172.362.261.119.082.251.15.35.228.212.153.367.323.548.504.186.18.339.367.451.548.224.363.285.707.131.947-.155.24-.496.328-.922.278a2.902 2.902 0 0 1-.691-.176c-.245-.098-.525-.283-.788-.476a3.242 3.242 0 0 1-.357-.312 3.048 3.048 0 0 1-.249-.387 3.872 3.872 0 0 1-.318-.774c-.093-.534-.08-1.054-.176-1.536m-3.301-1.881c-.107-.093-.048-.157.164-.178.203-.026.6.024.983.306.792.586 1.148 1.625 1.324 2.065.167.506.236.756.306 1.042.015.062.018.137.044.219.054.08.097.162.126.24a.59.59 0 0 1 .01.439.592.592 0 0 1-.318.303 1.24 1.24 0 0 1-.26.083c-.115 0-.264-.03-.422-.078-.62-.167-1.231-.88-1.435-1.571-.231-.694-.133-1.15-.09-1.582.059-.412.033-.925-.432-1.288m-7.658-2.739c-.223-.059-.146-.137.162-.217.3-.09.869-.139 1.555.056.688.2 1.355.682 1.88 1.102.458.353.989.683 1.43 1.018.884.657 1.667 1.435 2.064 2.228.102.214.177.408.228.576.035.161.02.29.014.41-.022.234-.095.393-.223.455-.13.062-.3.021-.5-.106-.1-.058-.204-.16-.321-.24a3.408 3.408 0 0 1-.352-.203c-.507-.33-1.272-.823-2.151-1.473a7.245 7.245 0 0 1-1.163-1.08c-.361-.439-.515-.769-.74-1.1-.385-.66-.958-1.215-1.883-1.426m-6.234-.912c-.226-.043-.172-.126.148-.227.294-.15.99-.103 1.598.279.601.383 1.062.874 1.411 1.02.41.2.964.302 1.415.408.476.107 1.003.203 1.53.434.511.217.96.532 1.257.903.341.356.358.62.422.853.04.228.013.399-.092.496-.105.096-.277.108-.499.048-.214-.04-.514-.26-.768-.28-.49-.172-1.146-.23-2.29-.44a6.792 6.792 0 0 1-.828-.252 7.76 7.76 0 0 1-.734-.397l-.124-.074-.03-.03-.062-.057-.119-.116a2.657 2.657 0 0 1-.26-.288 5.544 5.544 0 0 1-.263-.347l-.155-.297c-.196-.39-.317-.736-.533-1.04-.204-.311-.566-.538-1.024-.596m-8.256 1c-.424-.049.285-.332 1.322-.793.462-.201 1.336-.547 1.936-.635l.487-.094.015-.003h.003l.137-.002h.01l.034.001.071.002.14.006.278.014c.368.005.712.107 1.025.175 1.244.385 2.047 1.068 2.554 1.528.495.483.832.897.695 1.157-.129.244-.612.333-1.368.137-.757-.181-1.62-.593-2.462-.843-.219-.041-.414-.129-.618-.164l-.298-.073-.145-.042-.018-.006-.005-.001.127-.002-.004-.001h-.01l-.044-.003-.087-.006c-.46-.032-.906-.119-1.263-.136-.75-.091-1.657-.124-2.512-.216M88.33 3.385c-.171.007-.158-.084.034-.248.187-.186.597-.342 1.1-.407 1.01-.097 2.175.24 2.856.52.696.292 1.214.594 1.58.83.259.242.716.434.712.725-.003.267-.17.616-.917.72-.64.103-1.445-.067-2.168-.372-.731-.307-1.17-.7-1.611-1.067-.432-.352-.89-.739-1.586-.7"/>
    <path fill="#e3e4e7" d="M85.664 6.716c-.146.097-.184.015-.093-.235.079-.262.38-.61.806-.892.86-.564 2.085-.802 2.898-.811 1.665.015 2.782.506 2.849 1.045.068.6-1.356 1.033-2.828 1.017-.747.008-1.32-.138-1.885-.262-.554-.11-1.152-.255-1.747.138m-2.542 2.393c-.287-.014.088-.389.798-.712.716-.321 1.635-.509 2.118-.623.266-.039.48-.1.691-.11.168-.052.335.006.56-.051.445-.123.81-.088.99.132.18.222.14.587-.069 1-.106.204-.417.446-.735.667-.312.169-.682.33-1.052.388-1.51.239-2.147-.63-3.3-.691m-2.05 2.598c-.28.024.034-.432.776-.725.73-.28 1.64-.367 2.052-.43l.973-.091c.069-.01.144-.001.23-.02.09-.033.177-.056.259-.067a.6.6 0 0 1 .428.086.603.603 0 0 1 .234.37c.019.08.029.17.03.267a1.412 1.412 0 0 1-.131.376 1.936 1.936 0 0 1-.691.756 2.558 2.558 0 0 1-1.115.375c-1.516.107-1.903-.89-3.045-.897"/>
    <path fill="#e3e4e7" d="M79.563 14.643c-.224.066-.09-.356.258-.91.12-.247.55-.676.838-.89l.212-.152.053-.037.027-.017.013-.01.007-.004.003-.002.002-.001.062-.026.167-.07c.228-.095.44-.142.63-.163.777-.053.963.06 1.2.15.093.085.32.052.468.094a.62.62 0 0 1 .366.23.623.623 0 0 1 .107.42c-.02.163-.02.329-.274.553-.427.458-1.292.573-1.635.603-.09.01-.176.009-.241.014-.011-.011-.13.017-.056-.034l-.186.029a3.072 3.072 0 0 1-.37.023l-.267-.005c-.396-.018-.928.076-1.384.205m-.634 3.953c-.272-.005.14-.346.273-.85.09-.273.152-.616.371-1.096.062-.122.146-.278.203-.366.056-.085.111-.17.165-.25l.108-.115.062-.063.126-.12.246-.216c.31-.287.704-.406 1.026-.545.327-.08.636-.123.883-.115.477.036.818.193.911.463.093.268-.08.6-.437.916a3.641 3.641 0 0 1-.55.456c-.163.18-.396.271-.572.457a1.7 1.7 0 0 1-.302.206l-.02.011-.01.006-.006.003h-.002v.002c-.044.046.057-.063.046-.052l-.044.038-.089.07-.168.122a5.75 5.75 0 0 0-.596.404c-.467.349-1.082.654-1.624.634m-.005 4.776c-.122.285-.321-.241-.38-1.1-.003-.216-.008-.453.01-.7.039-.248.087-.508.145-.767a7.95 7.95 0 0 1 .29-.738c.117-.227.263-.422.392-.6.543-.673 1.233-1.076 1.735-1.226.497-.13.889-.096 1.057.134.168.23.08.613-.198 1.044-.257.433-.604.87-.982 1.334-.378.442-.694.782-1.09 1.181-.363.409-.731.865-.98 1.438m1.234 5.53c-.101.344-.313-.278-.55-1.167-.24-.876-.565-2.15-.4-3.2.017-.253.077-.502.169-.742.086-.24.159-.464.27-.675.272-.412.552-.81.804-.98.51-.326.937-.437 1.157-.257.22.181.194.618-.028 1.18-.1.282-.074.53-.174.78-.027.14-.04.31-.074.465a2.337 2.337 0 0 0-.081.51c-.16 1.435-.656 2.717-1.093 4.086m.876 4.716c.046.168-.039.19-.256.006-.218-.18-.425-.623-.48-1.1-.14-.977.08-2.123.342-2.855.577-1.477 1.332-2.323 1.872-2.247.272.073.47.413.464 1.01.008.559-.143 1.255-.399 1.949-.255.695-.608 1.17-.95 1.633-.306.462-.754.914-.593 1.604m3.73 2.954c.1.286-.397.031-1.027-.49a6.128 6.128 0 0 1-.969-1.016 8.06 8.06 0 0 1-.394-.672c-.113-.228-.17-.488-.23-.709-.069-.22-.065-.454-.062-.677.014-.224-.002-.429.063-.638.122-.397.255-.806.43-.977.343-.379.688-.564.955-.465.267.1.405.465.411.974-.009.27.104.44.096.656-.003.1.054.23.063.345.02.12.015.243.064.37.224.972.212 2.135.6 3.3m2.938 2.575c.055.31-.389-.058-.977-.64-.585-.584-1.332-1.435-1.69-2.2-.194-.359-.31-.77-.399-1.13a3.895 3.895 0 0 1-.07-1.116c.124-.546.383-.85.66-.872.291-.025.55.302.793.757.164.188.256.34.408.594.164.258.288.543.462.865.631 1.268.571 2.476.813 3.742m3.847 1.583c.028.291-.375-.089-.92-.52-.538-.44-1.355-.96-1.875-1.545-.256-.263-.475-.614-.648-.909a3.893 3.893 0 0 1-.343-.995c.004-.505.138-.868.404-.97.266-.104.612.073.956.443.194.125.354.241.524.408.222.183.397.393.642.645.911.991 1.161 2.276 1.26 3.443m3.398.383c.082.243-.365.062-.946-.231-.58-.295-1.346-.741-1.801-1.222-.45-.45-.781-1.052-.897-1.608-.045-.471.12-.781.37-.904.26-.131.596.032.939.26.315.122.657.406 1.076.824.793.819.916 1.9 1.259 2.88m4.508.78c.135.296-.404.008-1.11-.332-.697-.345-1.724-.691-2.45-1.221-.353-.228-.67-.577-.931-.866-.251-.364-.474-.725-.547-1.002-.105-.543-.048-.952.196-1.097.245-.146.63-.002 1.057.35.219.152.439.232.629.395.269.147.487.344.802.547 1.19.818 1.858 2.035 2.354 3.226"/>
    <path fill="#e3e4e7" d="M95.91 46.246c-.51.322.111-.587 1.228-1.583.541-.506 1.152-1.08 1.597-1.655.444-.593.621-1.11.609-1.5-.003-.334-.132-.647-.472-1.071-.345-.424-.733-.84-1.014-1.31-.649-1.05-.417-1.648-.199-1.753.269-.137.695.459 1.291.785.314.232.773.513 1.283.95.263.252.54.52.782.94.137.18.206.437.284.682l.054.187.025.095.012.047.003.012.011.149v.017l.003.26c.015.13-.034.465-.084.713-.053.265-.146.44-.225.65a3.93 3.93 0 0 1-.668.96c-.496.517-1.024.823-1.528 1.082-1.013.515-1.998.75-2.992 1.343M81.037 20.144c.022-.72.114-.438.242.468l.104.79.225.981c.125.718.438 1.516.73 2.378.638 1.695 1.793 3.603 3.148 4.99l.242.273.313.265.62.526.308.262.019.016.01.008.004.004-.072-.058.04.027.082.053.16.106.635.422c.852.525 1.667 1.012 2.435 1.374.758.389 1.524.691 2.272.933.743.242 1.393.398 2.215.509l.287.046.009.002-.064-.006.005.001.018.001.036.004.072.006.144.013.56.053 1.046.095c.668.053 1.28.083 1.83.072 1.103-.016 1.936-.209 2.492-.436.523-.196.886-.462.985-.341.077.095.029.463-.542 1.011-.535.517-1.537 1.004-2.785 1.217a13.7 13.7 0 0 1-2.022.187c-.358.009-.726.01-1.1.006l-.562-.007-.142-.003-.071-.001h-.036l-.104-.008-.29-.025a12.174 12.174 0 0 1-2.568-.462 14.66 14.66 0 0 1-2.597-1.017 18.052 18.052 0 0 1-2.321-1.364c-.36-.232-.682-.492-1.01-.733l-.315-.244-.208-.204-.408-.403c-.545-.483-1.037-1.172-1.496-1.791-.446-.629-.748-1.282-1.092-1.903-1.157-2.588-1.614-5.22-1.483-8.093m49.08-16.349c.247-.048-.032.363-.072.856-.054.515.008 1.304-.132 1.973-.13.645-.458 1.31-.903 1.665-.25.211-.464.3-.623.28a.591.591 0 0 1-.415-.145.591.591 0 0 1-.172-.404 2.168 2.168 0 0 0-.038-.487 5.843 5.843 0 0 1 .134-1.34c.21-1.109 1.19-2.196 2.22-2.398"/>
    <path fill="#e3e4e7" d="M134.477 1.64c.305.016-.146.366-.723.809-.137.118-.297.227-.438.353a7.089 7.089 0 0 1-.401.38c-.108.135-.2.264-.302.37-.097.11-.126.232-.204.316-.088.08-.11.185-.157.275-.035.09-.14.178-.15.26a1.185 1.185 0 0 1-.118.248.595.595 0 0 0-.13.31c-.11.494-.32.82-.602.863-.282.042-.582-.21-.84-.648-.143-.186-.168-.66-.182-1.094-.016-.236.079-.436.138-.67.072-.227.146-.467.306-.66.145-.201.293-.392.45-.543.174-.127.347-.237.518-.331.334-.21.688-.227 1.003-.295.648-.062 1.23.033 1.832.058m4.618-.016c.256.091-.207.31-.764.63-.568.314-1.25.773-1.747 1.06-.522.27-.98.474-1.39.55-.44.144-.81.135-1.002-.077-.19-.21-.171-.579.025-1.005.264-.449.754-.957 1.394-1.287 1.315-.675 2.473-.202 3.484.13m4.838.663c.283.132-.28.282-1.014.456-.752.159-1.582.48-2.138.715-.292.085-.557.23-.829.297-.247.108-.489.156-.734.222-.495.158-.89.145-1.068-.078-.178-.222-.105-.612.158-1.062.143-.224.4-.474.686-.723.307-.207.642-.453 1.061-.587.82-.326 1.572-.208 2.183-.025.62.21 1.134.525 1.695.785"/>
    <path fill="#e3e4e7" d="M147.985 3.967c.27.185-.334.214-1.132.295-.803.072-1.842.249-2.606.299-1.515.083-2.875-.195-2.93-.773-.054-.555 1.152-1.193 2.827-1.287 1.68-.071 2.758.753 3.84 1.466"/>
    <path fill="#e3e4e7" d="M150.232 6.528c.216.263-.395.114-1.196-.121-.813-.256-1.778-.415-2.483-.512-1.39-.229-2.765-.61-2.749-1.202.004-.285.337-.539.871-.719.541-.172 1.348-.261 2.237-.11.906.147 1.567.618 2.057 1.098.49.502.834 1.047 1.263 1.566"/>
    <path fill="#e3e4e7" d="M152.5 8.903c.368.53-2.266-.614-3.426-.81-.627-.17-1.159-.326-1.637-.527-.497-.184-.805-.44-.806-.724 0-.286.306-.545.802-.735.512-.176 1.36-.234 2.195 0 .864.228 1.4.75 1.805 1.242.398.513.681 1.048 1.066 1.554"/>
    <path fill="#e3e4e7" d="M151.952 10.47c.01.187-.352.041-.732-.056-.38-.107-.831-.136-1.18-.276-.323-.138-.663-.373-.872-.648-.194-.272-.263-.573-.162-.84.102-.266.354-.447.68-.523.313-.085.702-.08 1.159.112.445.177.756.581.915.994.165.425.17.866.192 1.237M94.273.805c-.142-.08-.088-.152.151-.196.242-.063.665-.003 1.11.187.874.398 1.679 1.186 2.077 1.461.207.171.328.245.446.32.057.038.123.08.201.098.079.04.154.062.229.082.136.081.403.06.57.111.175.047.303.133.368.26.066.127.062.282 0 .453-.072.172-.137.36-.471.558a1.54 1.54 0 0 1-.535.239 1.735 1.735 0 0 1-.693.07c-.506-.029-1.033-.27-1.388-.568-.74-.609-.904-1.187-1.114-1.705-.195-.508-.363-1.054-.951-1.37m-1.312 50.03c-.22.155-.218.036-.036-.282.173-.318.563-.836 1.17-1.287 1.207-.955 3.055-1.55 4.035-2.04 1.042-.443 1.708-1.046 2.227-1.57.257-.226.492-.524.687-.705.2-.176.373-.249.506-.198.133.052.212.223.242.489.034.265.031.611-.154 1.112a3.058 3.058 0 0 1-.345.749c-.136.265-.336.512-.562.763a5.253 5.253 0 0 1-1.729 1.229c-1.335.601-2.366.634-3.31.781-.936.13-1.86.305-2.73.959m-1.918 7.49c-.179.22-.203.097-.109-.263.116-.344.256-.993.652-1.646.678-1.4 2.123-2.916 3.219-3.755a17.517 17.517 0 0 1 1.585-1.121c.483-.313.932-.566 1.335-.77.8-.442 1.388-.607 1.574-.392.187.216-.064.772-.62 1.496-.294.356-.685.757-1.133 1.174-.431.4-.95.817-1.461 1.23-1.062.817-1.915 1.377-2.763 1.947-.424.282-.787.607-1.199.926-.385.337-.713.742-1.08 1.175m-3.619 5.44c-.617.129.344-.478 1.699-1.198 1.256-.642 2.732-2.16 3.681-3.04.385-.4.935-1.091 1.252-1.46.357-.452.719-.958 1.103-1.34.18-.194.393-.358.569-.49.205-.135.408-.24.558-.291.294-.053.494-.027.575.09.081.117.034.315-.12.572-.049.133-.089.257-.153.399l-.231.552c-.179.412-.372.929-.716 1.555-.42.685-.707 1.14-1.336 1.828l-.212.234-.027.028-.073.064-.053.042-.105.083-.416.313-.205.147-.113.084-.052.034-.102.067-.404.256c-.268.163-.53.313-.79.455l-.097.052-.024.013-.064.04-.007.004-.013.005-.051.019-.207.075-.409.143a5.159 5.159 0 0 1-.862.232c-.297.058-.588.13-.869.158-.568.073-1.129.154-1.726.275m1.705 7.21c-.124.213-.175.112-.164-.216.034-.314.032-.913.275-1.532.37-1.317 1.33-2.83 2.064-3.736.379-.47.724-.876 1.078-1.24.322-.354.617-.651.91-.9.548-.577 1.01-.865 1.258-.723.247.14.233.684.009 1.447a9.812 9.812 0 0 1-.66 1.32c-.28.44-.617.93-.981 1.38-.746.922-1.42 1.514-2.077 2.115-.345.291-.608.611-.93.936-.306.33-.522.725-.782 1.148m-.698 4.124c-.721.604 1.257-3.05 2.757-4.73 1.507-1.623 3.067-2.626 3.486-2.241.42.386-.461 2.014-1.967 3.637-1.458 1.635-2.817 2.19-4.276 3.334m.447 5.516c-.221.37-.244-.407.063-1.531.3-1.13 1-2.477 1.553-3.31.289-.425.549-.8.829-1.137.248-.325.492-.6.73-.834.454-.528.863-.795 1.122-.675.258.12.317.605.202 1.29a7.45 7.45 0 0 1-.432 1.21c-.2.407-.445.865-.731 1.285-1.128 1.71-2.413 2.232-3.336 3.702m.22 8.714c-.131.594-.335-.465-.277-2.11.036-.406.048-.858.13-1.313l.293-1.394c.146-.453.298-.903.452-1.33.159-.425.361-.803.532-1.153a13.048 13.048 0 0 1 2.313-3.171c.717-.681 1.276-1.02 1.508-.856.232.166.093.805-.321 1.704-.387.894-1.022 2.028-1.673 3.28l-1.733 3.197c-.269.485-.462.984-.703 1.494-.214.515-.359 1.063-.521 1.651m.74 3.573c-.059.189-.137.13-.219-.126-.07-.25-.204-.73-.14-1.264.04-1.108.518-2.451.96-3.253.224-.42.447-.772.681-1.097a6 6 0 0 1 .636-.775c.402-.48.777-.74 1.043-.633.263.106.372.543.312 1.174a6.41 6.41 0 0 1-.309 1.119c-.143.377-.336.794-.545 1.185-.435.8-.9 1.323-1.346 1.85-.453.523-.87 1.052-1.074 1.82m-.608 5.613c-.15.35-.319-.32-.193-1.371.116-1.06.687-2.34 1.191-3.084a8.67 8.67 0 0 1 .768-1.005c.242-.28.474-.508.706-.696.447-.423.848-.617 1.098-.48.25.138.301.579.18 1.182a6.34 6.34 0 0 1-.398 1.04c-.172.352-.397.735-.63 1.094-.934 1.44-2.069 1.907-2.722 3.32M196.42 77.96c.015.328-.076.202-.273-.143-.203-.352-.603-.944-1.119-1.655-1.029-1.417-2.45-3.363-3.157-5.008-.357-.814-.62-1.659-.719-2.495-.108-.826.007-1.685.341-2.319.332-.642.817-.981 1.181-1.13.33-.098.542-.07.626.042.088.116.01.326-.147.602-.093.252-.246.58-.288.981-.121.777.252 2.045.896 3.492.645 1.443 1.172 2.686 1.598 3.904.404 1.215.864 2.402 1.061 3.729m-.496 3.081c.017.198-.09.14-.26-.065-.197-.197-.34-.566-.701-.92-.59-.753-1.612-1.583-2.284-2.368-.33-.366-.623-.813-.863-1.196a6.511 6.511 0 0 1-.522-1.237c-.084-.67-.006-1.142.256-1.253.263-.11.659.158 1.087.683.245.2.468.414.713.685.3.286.563.607.899.98 1.278 1.467 1.676 3.1 1.675 4.691m.877 6.107c.01.222-.092.151-.258-.092-.175-.243-.36-.657-.697-1.122-.6-.942-1.534-2.12-2.13-3.054-.583-.917-1.041-1.87-1.262-2.625-.178-.73-.155-1.246.097-1.378.253-.133.689.15 1.195.7.509.502 1.11 1.252 1.716 2.206 1.178 1.897 1.307 3.584 1.339 5.365m-.5 5.493c.01.226-.093.15-.257-.103a6.112 6.112 0 0 1-.281-.493l-.16-.317-.237-.33c-.576-.938-1.677-1.972-2.373-2.962-.348-.458-.622-1.02-.856-1.489-.193-.558-.357-1.083-.388-1.479.007-.767.15-1.274.427-1.34.277-.068.635.32.99 1 .204.305.45.572.644.918.296.358.53.756.87 1.204 1.29 1.76 1.728 3.578 1.622 5.391m-.377 7.12c.02.275-.08.21-.26-.108-.161-.312-.49-.899-.642-1.602-.213-.752-.333-1.439-.534-2.202-.233-.845-.386-1.368-.676-1.895-.486-1.024-1.157-1.953-1.576-2.698-.426-.736-.648-1.307-.437-1.504.206-.19.759-.02 1.51.516.729.54 1.694 1.415 2.359 2.786.172.335.295.68.377 1.028l.064.253.008.031.016.07v.013l.007.055.01.11c.01.144.022.286.033.427.013.283.03.546.019.825-.021.287-.048.564-.08.833-.13 1.064-.331 1.95-.198 3.061m-1.348 6.589c-.064.582-.368-.42-.569-1.906-.172-1.413-.529-3.299-.982-4.401-.454-1.175-.997-2.317-1.25-3.25-.279-.946-.22-1.542.024-1.665.265-.132.716.337 1.281 1.014.552.708 1.316 1.743 1.875 3.175.26.72.397 1.448.406 2.087.005.588-.01 1.14-.13 1.73-.186 1.15-.529 2.058-.655 3.216"/>
    <path fill="#e3e4e7" d="M192.565 112.362c-.013.288-.105.208-.246-.16-.167-.363-.26-1.042-.234-1.833.036-.767.19-1.667.22-2.357.042-.8-.025-1.418-.18-1.995-.554-2.263-1.917-4.105-1.45-4.513.218-.165.77.01 1.513.695.699.666 1.584 1.773 1.945 3.347.09.39.148.768.137 1.142-.003.204.014.324-.017.582l-.078.439c-.05.28-.171.64-.264.928-.11.267-.223.528-.34.768-.46.956-.986 1.789-1.006 2.957m-1.86 8.452c-.042.321-.126.18-.228-.207-.087-.39-.32-1.011-.672-1.787-.17-.39-.368-.826-.54-1.319-.094-.226-.162-.542-.236-.824-.077-.301-.086-.509-.131-.768-.076-1.307.188-2.234.348-3.039.374-1.568.626-2.814.434-3.571-.105-.406-.191-.669-.351-.952-.176-.271-.235-.477-.154-.593.082-.118.296-.135.612-.067.313.073.86.439 1.217 1 .39.58.567 1.391.57 2.194.009.811-.134 1.638-.317 2.445-.183.806-.395 1.481-.528 2.057-.023.116-.057.321-.081.361l-.037.494c-.022.325-.02.533-.018.837.038 1.177.32 2.449.112 3.739M91.15 104.232c-.281.264-.08-.424.075-1.332.169-.91.15-2.155.298-3.125a9.2 9.2 0 0 1 .32-1.355c.17-.444.349-.842.536-1.124.4-.51.78-.773 1.046-.668.265.105.364.558.31 1.205.004.311.01.635-.032.985-.016.403-.075.803-.143 1.28-.275 1.865-1.282 3.114-2.41 4.134m1.371 8.735c.126.218.025.227-.28.017-.335-.177-.705-.792-.799-1.53-.189-1.507.414-3.167.846-4.233.463-1.072.951-1.943 1.29-2.55.341-.497.555-1.055.846-1.043.265.008.615.41.57 1.395-.023.874-.353 1.95-.81 3.01-.456 1.063-.962 1.8-1.379 2.524-.393.701-.825 1.506-.284 2.41m1.993 6.263c.153.207.043.216-.275.052-.153-.089-.387-.189-.581-.425-.103-.11-.224-.23-.33-.374a10.932 10.932 0 0 1-.266-.506c-.314-.748-.317-1.69-.166-2.5.144-.826.417-1.542.659-2.115.503-1.133 1.035-2.023 1.388-2.65.352-.513.564-1.104.857-1.084.26.015.619.427.553 1.455-.043.914-.43 2.025-.908 3.105-.48 1.086-.947 1.825-1.247 2.584-.304.722-.37 1.648.316 2.458m2.861 6.134c.2.206.09.226-.286.067-.406-.108-.953-.656-1.297-1.44-.639-1.618-.325-3.7.003-5.02.351-1.34.823-2.457 1.196-3.23.197-.41.347-.63.503-.884.142-.237.288-.364.43-.354.142.01.267.155.371.41.1.233.134.72.116 1.164-.03.941-.289 2.148-.619 3.41-.327 1.262-.69 2.207-.928 3.13-.103.457-.195.92-.147 1.39.03.234.06.486.187.706.085.255.27.445.471.651m91.248-.997c-.238.308-.118-.4-.275-1.25-.149-.855-.684-1.924-.989-2.835-.3-.894-.456-1.843-.356-2.557.094-.78.4-1.068.671-1.097.294-.03.521.452.774.902.253.517.572 1.216.871 2.112.617 1.782.22 3.525-.696 4.725m-2.16 5.63c-.117.448-.315-.353-.44-1.55-.112-1.202-.182-2.704-.369-3.621a3.107 3.107 0 0 0-.127-.676c-.054-.21-.08-.432-.13-.62-.15-.346-.172-.686-.31-1.03-.308-.684-.386-1.195-.163-1.371.224-.177.706.013 1.305.465.295.235.603.708.92 1.199.133.253.22.526.324.813.11.287.194.588.22.899.037.31.073.61.072.889-.017.275-.044.536-.079.787-.056.508-.22.929-.35 1.355-.294.83-.64 1.575-.873 2.462m-3.383 5.753c-.045.236-.127.159-.227-.152-.105-.307-.207-.864-.167-1.536.039-1.378.73-3 .93-3.884.274-.894.184-1.64.109-2.302-.014-.308-.1-.647-.101-.887-.003-.244.053-.413.175-.486.123-.074.299-.044.514.073.215.12.468.29.734.684.14.184.273.398.373.643a3 3 0 0 1 .268.82c.138.605.108 1.328-.074 1.973-.368 1.313-.981 1.983-1.454 2.693-.486.689-.933 1.406-1.08 2.36m-3.206 6.077c-.245.49-.167-.49-.11-1.883.07-1.397.014-3.25.06-4.59.057-1.328.202-2.566.423-3.457.232-.875.518-1.409.802-1.393.285.014.514.576.655 1.472.152.88.239 2.091.18 3.468-.128 2.748-1.061 4.424-2.01 6.383m-3.632 3.167c-.106.197-.168.12-.177-.198-.005-.16.003-.387.07-.612l.193-.708c.252-1.007.292-2.34.37-3.308.129-1.94.515-3.679 1.102-3.665.55.012 1.096 1.64.954 3.838-.07.552-.14 1.043-.311 1.492-.191.447-.402.846-.62 1.212-.428.794-1.193 1.168-1.581 1.95m-5.8 4.127c-.018.267-.11.193-.243-.147a3.527 3.527 0 0 1-.203-1.74c.077-.77.393-1.63.793-2.365.4-.739.845-1.371 1.202-1.873.733-.99 1.286-1.789 1.607-2.434.07-.147.148-.286.23-.417.075-.141.123-.3.19-.411.127-.232.264-.359.407-.357.142.003.276.134.396.369.056.122.126.25.159.438.027.196.042.43.043.694-.008 1.007-.572 2.276-1.361 3.328-.785 1.069-1.507 1.683-2.103 2.37-.59.667-1.091 1.465-1.117 2.546m-4.081 3.367c-.087.171-.145.064-.188-.188a4.35 4.35 0 0 1-.05-.463c-.021-.184-.077-.422-.11-.66-.074-.48-.176-1.244-.148-1.798l.002-.225c.006-.1.022-.183.035-.275l.09-.532c.099-.308.194-.637.313-.862.47-.965.952-1.597 1.25-2.017.074-.103.164-.186.239-.294a1.89 1.89 0 0 1 .205-.308c.139-.167.284-.252.425-.24.142.014.268.125.375.314.053.094.1.207.144.34.032.14.032.333.028.54-.021.822-.416 1.738-.792 2.526-.17.356-.321.678-.467.987l-.425 1.063c-.263.621-.527 1.435-.926 2.091m-6.071 2.996c-.161.138-.192.042-.097-.246.078-.297.389-.736.817-1.131.21-.203.447-.386.658-.57.24-.2.335-.298.584-.542l.384-.522c.078-.191.215-.336.257-.502.278-.59.382-1.394.564-2.046.179-.641.433-1.047.717-1.048.285-.001.547.392.74 1.042.172.62.388 1.67-.142 2.903-.575 1.2-1.503 1.668-2.343 1.885-.775.194-1.492.198-2.14.777m-3.475 1.995c-.13.08-.146.008-.11-.14.02-.073.052-.164.093-.26.033-.104.023-.234.049-.345-.022-.266-.083-.567-.204-1.008-.113-.443-.231-1.016-.167-1.664l.003-.027.028-.089c.075-.239.156-.474.242-.695.102-.2.206-.39.309-.564.623-.916 1.257-1.426 1.674-1.776.1-.079.204-.15.308-.216.099-.09.194-.168.285-.223.18-.114.344-.15.475-.095.132.055.22.196.266.404.023.104.038.224.038.361a3.504 3.504 0 0 1-.116.511c-.216.728-.758 1.493-1.198 2.155-.078.141-.173.271-.253.393a2.838 2.838 0 0 1-.22.348l.03-.113c-.192.37-.287.953-.456 1.563-.15.615-.522 1.255-1.076 1.48m-6.962 1.267c-.382.093.101-.435.925-1.042.407-.304.893-.624 1.283-.932.4-.311.65-.595.798-.826.617-.899.701-2.681 1.316-2.694.276-.008.592.294.797.959.105.346.17.764.141 1.26a3.274 3.274 0 0 1-.55 1.637 2.917 2.917 0 0 1-1.284 1.049c-.433.194-.828.261-1.208.318-.755.098-1.458.089-2.218.271m-2.634.64c-.156-.05-.015-.249.17-.902.192-.63.424-1.514.677-2.097.257-.583.565-1.08.865-1.41.155-.18.288-.259.44-.356.143-.1.29-.144.43-.119.14.025.261.115.36.258.095.142.143.411.162.652.035.51-.083 1.157-.369 1.807-.287.65-.72 1.085-1.197 1.433a5.746 5.746 0 0 1-.749.461c-.249.128-.544.278-.789.272m-3.633.92c-.054.14-.134.1-.22-.09-.065-.184-.234-.55-.188-.973-.023-.896.481-1.96.926-2.49.225-.293.453-.502.683-.699.217-.179.42-.307.628-.41.411-.24.78-.31 1.01-.14.23.167.28.536.168 1-.072.235-.2.51-.354.777a6.9 6.9 0 0 1-.52.754c-.4.49-.772.744-1.175 1.044-.39.293-.768.656-.958 1.226m-3.5-.245c-.097.24-.342-.172-.467-.897-.144-.726.069-1.767.4-2.329.322-.584.716-.96 1.079-1.186.365-.23.71-.297.953-.144.24.15.33.492.282.919-.051.431-.256.946-.505 1.403-.264.459-.548.73-.891 1.055-.32.325-.652.694-.851 1.179m-2.652-.869c-.019.306-.366-.186-.805-.692-.43-.519-1.195-.875-1.794-1.36a5.971 5.971 0 0 1-.8-.78c-.245-.333-.455-.662-.536-.923-.112-.509-.062-.9.176-1.058.238-.157.62-.047 1.042.256.216.122.427.194.615.336.27.156.49.324.8.566a3.64 3.64 0 0 1 1.215 1.744c.087.336.113.677.147.98-.016.323-.055.634-.06.931m-4.637-.426c.16.268-.38.093-1.139-.264-.754-.357-1.767-.998-2.296-1.819a3.192 3.192 0 0 1-.499-1.336 2.32 2.32 0 0 1 .195-1.224c.088-.17.182-.31.271-.418.091-.08.18-.126.265-.167.17-.077.326-.092.456-.034.13.06.222.185.276.363.03.087.04.196.06.3.04.086.077.166.103.24.121.35.292.662.601 1.15.668.958 1.048 2.117 1.707 3.21m-5.983-2.438c-.038.262-.332-.13-.796-.561-.464-.443-1.163-1.06-1.535-1.75-.374-.67-.502-1.59-.22-2.174.072-.16.152-.29.231-.391.08-.094.161-.12.24-.162.157-.07.308-.086.441-.037a.58.58 0 0 1 .312.314c.042.072.056.18.1.254l.125.18c.153.28.34.558.59 1.042.532.958.624 2.203.512 3.285m-4.411-1.498c.176.39-.465-.03-1.283-.96-.215-.214-.403-.546-.598-.892-.226-.376-.28-.64-.411-.965-.242-.66-.446-1.13-.592-1.61-.358-.832-.8-1.72-1.005-2.42-.204-.703-.208-1.209.036-1.355.245-.145.692.098 1.217.608a7.436 7.436 0 0 1 1.669 2.407 8.48 8.48 0 0 1 .356 1.594c.042.407.004.93.033 1.258-.011.69.249 1.53.578 2.335m-5.344-3.889c-.007.326-.373-.15-.83-.84-.452-.683-1.078-1.632-1.317-2.489a5.081 5.081 0 0 1-.2-1.224c.008-.4.023-.787.116-1.042.182-.518.437-.84.722-.843.285-.003.546.314.737.83.094.261.227.482.303.761.105.278.2.598.301.938.422 1.352.214 2.608.168 3.91m-2.672-1.064c.176.18.063.202-.262.092a3.554 3.554 0 0 1-1.395-.89c-.532-.512-.995-1.302-1.23-2.111a8.1 8.1 0 0 1-.31-2.236c.008-1.268.197-2.314.358-3.066.171-.698.335-1.272.627-1.288.275-.016.618.375.832 1.255.212.827.251 1.959.244 3.099-.004 1.143-.075 1.962.006 2.789.08.81.391 1.662 1.13 2.356m-9.992-5.74c-.206.017-.178-.077.033-.248.102-.083.265-.193.442-.303l.282-.169.156-.089.04-.022.01-.006c-.105.041-.025.007-.047.015l.013-.013.051-.052c.541-.407.47-1.448 1.046-2.725.061-.113.121-.207.183-.308l.242-.369c.2-.212.402-.408.6-.582.425-.292.828-.502 1.213-.584.383-.115.64-.08.851-.036.21.048.35.137.404.27.054.131.015.293-.1.473-.11.18-.336.38-.489.591-.183.187-.369.44-.58.672a2.944 2.944 0 0 1-.266.386l-.005.006.051-.078v.004l-.004.004-.009.02-.02.037-.039.076-.082.153-.169.305c-.054.166-.117.285-.203.45a6.619 6.619 0 0 1-.296.57 8.084 8.084 0 0 1-.377.557c-.215.286-.25.271-.497.49-.43.362-.828.428-1.266.49a8.817 8.817 0 0 0-1.168.014"/>
    <path fill="#e3e4e7" d="M105.823 141.674c-.056.35-.351-.188-.66-1.087-.181-.448-.248-.986-.317-1.523a13.424 13.424 0 0 1-.074-.797c-.007-.26.034-.523.062-.754.068-.463.165-.899.278-1.28.14-.346.319-.62.484-.857.338-.464.682-.708.954-.623.272.086.42.484.438 1.06.015.285-.026.624-.057.973.01.33-.006.678-.057 1.035-.172 1.447-.85 2.459-1.051 3.853m-1.742-3.408c-.127.352-.224-.334-.725-1-.26-.386-.644-.737-.965-1.557-.075-.189-.096-.289-.143-.436-.055-.175-.062-.368-.086-.55-.06-.372.006-.71.052-1.02.302-1.2.897-1.839 1.241-2.264a3.68 3.68 0 0 1 .268-.263c.086-.098.166-.19.247-.259.162-.138.316-.198.455-.164.138.034.247.158.326.355.038.1.073.212.091.348a3.31 3.31 0 0 1-.028.513c-.085.726-.448 1.54-.586 2.177-.115.583-.175 1.178-.1 1.844.098.715.195 1.566-.047 2.276m-2.814-4.408c-.105.126-.146.062-.149-.11a2.458 2.458 0 0 1 .021-.325l-.008-.443a7.822 7.822 0 0 0-.25-1.157 8.604 8.604 0 0 1-.314-1.57l-.002-.021.006-.06c.035-.403.084-.79.146-1.128.121-.52.311-.986.478-1.374.166-.36.357-.667.53-.95.33-.58.672-.906.95-.842.278.064.437.507.471 1.17.007.335-.055.748-.139 1.195-.069.422-.18.839-.282 1.268a4.509 4.509 0 0 1-.215.822l.004-.08c-.099.58-.167 1.219-.333 1.873-.159.656-.469 1.276-.914 1.732m-1.813-3.824c-.088.329-.327-.249-.58-1.093-.254-.823-.573-2.076-.33-3.108.026-.247.136-.483.227-.706.108-.223.167-.438.328-.623.282-.355.571-.726.819-.834.503-.279.92-.357 1.132-.167.213.19.18.611-.044 1.138-.143.274-.113.513-.228.753-.06.105-.058.278-.105.413-.033.146-.1.28-.11.45-.223 1.25-.724 2.469-1.109 3.777m8.305-89.26c.164-.324.329-.576.455-.778.15-.187.267-.322.352-.41.17-.175.215-.158.154.022-.111.354-.738 1.35-.933 3.13-.212 1.733-.028 4.305 1.266 6.78.576 1.125 1.657 2.322 2.95 3.253 1.298.957 2.854 1.74 4.593 2.35 3.488 1.239 7.62 1.756 12.029 2.353 4.547.636 8.89 1.535 13.367 2.089 2.23.255 4.449.616 6.642.793l6.476.589 6.293.41c1.943.107 3.943.132 5.777.209 3.704.11 7.308.322 10.81.396l10.112.166c6.446.147 12.308.212 17.2.42 9.792.443 15.845 1.122 15.847 1.877.002.764-6.052 1.46-15.838 2.012-4.897.29-10.69.628-17.188.759l-10.2.154c-3.541-.001-7.223-.176-10.986-.29-1.9-.073-3.68-.125-5.551-.234l-5.203-.458c-1.686-.133-3.373-.361-5.021-.583-1.647-.225-3.262-.432-4.84-.677l-4.615-.85c-1.513-.274-2.997-.56-4.448-.93l-8.397-2.044c-2.73-.63-5.491-1.188-8.211-1.992-2.71-.802-5.416-1.801-7.825-3.402-.617-.37-1.167-.85-1.735-1.29-.276-.232-.526-.498-.79-.745a6.454 6.454 0 0 1-.74-.791c-.99-1.041-1.703-2.386-2.148-3.76-.451-1.377-.635-2.837-.61-4.292.024-1.454.33-2.92.956-4.236"/>
    <path fill="#e3e4e7" d="M137.09 39.143c-.373-.716-.937-1.365-1.649-1.768a3.318 3.318 0 0 0-1.128-.423l-.479-.087-.577-.03c-.748 0-1.46.183-2.055.544-.45.287-.778.655-1.056 1.032a4.236 4.236 0 0 0-.812 1.07c-.047-2.1.203-4.192.383-6.124.022-.2.061-.38.088-.573a5.127 5.127 0 0 1-.486-.047 4.864 4.864 0 0 1-1.409.38v.004c-.628 4.062-1.813 9.36 1.518 12.613 1.223 1.195 2.851 2.004 4.595 1.788a3.933 3.933 0 0 0 2.42-1.32c.275-.358.544-.684.737-1.109.15-.286.35-.84.425-1.204.37-1.62.22-3.297-.516-4.746"/>
    <path fill="#1d1d1f" d="M135.782 40.668a1.75 1.75 0 1 1-3.5 0 1.75 1.75 0 0 1 3.5 0"/>
    <path fill="#e3e4e7" d="M171.146 37.375a3.316 3.316 0 0 0-1.129-.423l-.478-.087-.578-.03c-.747 0-1.46.183-2.055.545-.45.286-.778.654-1.055 1.031a4.281 4.281 0 0 0-.813 1.07c-.047-2.1.203-4.192.383-6.124.046-.415.106-.81.174-1.197-.127.001-.253-.007-.379.002a4.404 4.404 0 0 1-1.395-.177c-.079.377-.149.756-.208 1.136-.627 4.063-1.812 9.36 1.519 12.613 1.224 1.196 2.851 2.004 4.596 1.79a3.937 3.937 0 0 0 2.419-1.323c.276-.356.544-.683.738-1.108.15-.286.349-.84.425-1.204.37-1.62.22-3.297-.516-4.746-.372-.716-.936-1.365-1.648-1.768"/>
    <path fill="#1d1d1f" d="M171.44 40.157a1.75 1.75 0 1 1-3.493.215 1.75 1.75 0 0 1 3.493-.215"/>
    <path fill="#e3e4e7" d="M88.203 8.955c-.79.491-.565.234.385-.54.956-.747 2.836-1.766 5.255-2.358 1.202-.332 2.518-.539 3.88-.75 1.335-.182 2.769-.386 4.203-.438 2.865-.15 5.762.161 8.069.925.576.211 1.184.406 1.706.636.524.252.955.446 1.53.74a25.67 25.67 0 0 1 2.726 1.72c1.666 1.218 3.015 2.584 3.87 3.954.86 1.38 1.166 2.705 1.15 3.627a2.81 2.81 0 0 1-.142 1.006c-.07.22-.141.334-.212.333-.072 0-.14-.118-.203-.339-.061-.22-.113-.563-.242-.918-.214-.735-.666-1.789-1.541-2.866-.88-1.08-2.17-2.194-3.761-3.235a30.59 30.59 0 0 0-2.594-1.498l-1.448-.664c-.5-.21-.977-.346-1.474-.534-2.055-.65-4.035-.929-5.89-1.063-1.871-.13-3.588-.107-5.338-.029-1.715.067-3.37.17-5.033.461-1.66.281-3.335.816-4.896 1.83m24.754 12.568c-.178.07-.187-.026-.028-.256.15-.245.528-.534 1.022-.77.998-.454 2.336-.595 3.198-.584a11.61 11.61 0 0 1 2.126.23c.443.134.932.215 1.008.494.072.262-.096.648-.796.95-.62.284-1.488.404-2.37.387-.885-.015-1.538-.21-2.173-.381-.626-.162-1.266-.355-1.987-.07m-2.912 3.651c-.292-.421.494.218 1.41-.057.46-.116.982-.458 1.468-.859.25-.212.464-.416.694-.642.202-.2.52-.502.777-.699.557-.43 1.278-.738 1.926-.826a4.767 4.767 0 0 1 1.553.082c.809.176 1.273.444 1.279.726.006.287-.498.536-1.253.732-.38.095-.8.196-1.18.318a4.49 4.49 0 0 0-1.084.615c-.373.298-.825.667-1.34.952a4.889 4.889 0 0 1-1.53.546c-1.038.208-2.164-.118-2.72-.888m-6.33-1.902c-.165-.223-.044-.22.278-.045.331.17.862.532 1.382 1.015.554.47 1.006.909 1.722 1.399l.122.09.061.046.03.023.015.01.002.003c.07.054-.092-.072-.075-.06l.004.002.007.004.227.103.432.209c.311.084.571.223.856.272 1.082.294 2.228.4 3.087.588.863.18 1.406.433 1.406.718s-.53.547-1.403.74c-.867.178-2.154.335-3.64-.058a4.933 4.933 0 0 1-1.877-.972l-.096-.075-.047-.038-.006-.004-.073-.058v-.002l-.003-.002-.009-.01-.016-.02-.13-.16-.25-.32c-.162-.213-.319-.408-.457-.67-.594-.985-.844-1.854-1.549-2.728m44.999 181.323c.005-.176.05-.19.128-.072.166.229.345 1.039 1.279 1.833.885.83 2.57 1.534 4.717 2.13 1.082.299 2.282.575 3.6.913 1.396.362 2.702.805 4.096 1.234a140.39 140.39 0 0 0 8.86 2.477l2.435.502 1.23.253.309.064.077.016.02.004c-.022-.005.075.017-.044-.011l.037.006.15.02.603.088c1.619.22 3.175.506 4.895.654l2.519.269c.722.07 1.558.126 2.315.152.77.025 1.528.026 2.232-.017.693-.04-.06-.218-.506-.613a4.374 4.374 0 0 0-.74-.58c-.262-.182-.521-.362-.776-.541l-.761-.538c-.262-.164-.532-.31-.796-.466-.541-.307-1.027-.621-1.598-.927l-1.802-.9-.445-.223a1.84 1.84 0 0 0 .064.03l-.014-.005-.027-.011-.054-.022-.108-.044-.216-.088-.858-.351c-2.251-1.01-4.532-1.71-6.726-2.341-4.407-1.218-8.624-1.641-12.174-2.085-7.15-.721-11.714-1.283-11.698-2.075.015-.726 4.458-1.544 11.86-1.811.923-.048 1.9-.028 2.92-.01 1.02.038 2.079-.001 3.185.119l3.429.309 3.632.618c2.465.552 5.058 1.233 7.625 2.294l.976.374.245.094.123.047.062.024.03.012.108.048.45.214 1.817.869c.627.32 1.3.724 1.954 1.09.327.192.663.375.985.577l.94.655c.62.464 1.259.82 1.835 1.368l1.71 1.569c.4.413.423.443.826.955.318.412.578.825.843 1.396.243.595.522 1.403.338 2.506a3.754 3.754 0 0 1-.63 1.5 4.135 4.135 0 0 1-.95.953c-1.25.827-2.1.899-2.905 1.052a14.88 14.88 0 0 1-2.192.137 29.907 29.907 0 0 1-3.86-.291l-.914-.134c-.39-.057-.598-.105-.903-.16-.565-.104-1.125-.21-1.681-.313a46.612 46.612 0 0 1-3.32-.705c-1.122-.281-2.155-.507-3.298-.836l-3.034-.972c-4.093-1.433-7.85-3.104-11.603-4.866-1.834-.867-3.834-1.514-5.79-2.403-.972-.444-1.941-.94-2.82-1.572-.872-.63-1.66-1.437-2.028-2.427-.21-.485-.177-.845-.188-1.015Zm-11.828.629c.056-.206.104-.227.145-.064.023.16.113.517.046 1.036a4.65 4.65 0 0 1-.678 1.929c-.838 1.484-2.58 2.805-4.65 4.012-1.039.603-2.178 1.186-3.327 1.8-1.078.58-2.302 1.343-3.582 2.09a110.2 110.2 0 0 1-8.495 4.54l-2.286.997-1.154.498-.29.125-.207.083-.154.055-.617.223c-1.639.579-3.336 1.23-4.935 1.684l-2.424.737c-.919.269-1.734.473-2.62.669-.876.19-1.76.353-2.69.46-.937.1-1.884.18-3.07.035-.598-.094-1.274-.196-2.163-.72-.435-.274-.929-.667-1.296-1.276-.193-.284-.31-.61-.42-.934a4.716 4.716 0 0 1-.154-.92c-.025-1.151.28-1.803.52-2.373.237-.548.628-1.138.785-1.371 1.138-1.477 2.196-2.713 3.36-3.704l.844-.773c.293-.244.601-.47.9-.702.598-.452 1.213-.941 1.791-1.343l1.685-1.102.418-.272.1-.063.03-.016.057-.031.115-.063.231-.126.918-.5c2.402-1.394 4.881-2.415 7.252-3.29l3.516-1.096 3.357-.762c1.081-.268 2.135-.37 3.141-.542 1.008-.155 1.975-.305 2.896-.38 7.371-.721 11.883-.503 11.995.214.122.784-4.327 1.949-11.317 3.616-3.46.913-7.582 1.894-11.788 3.688-2.09.917-4.258 1.915-6.354 3.215l-.804.463-.202.116-.102.058-.05.029-.026.014-.012.007a2.15 2.15 0 0 1 .06-.038l-.413.28-1.665 1.132c-.526.379-.966.755-1.46 1.13-.24.19-.49.372-.727.569l-.683.635c-.434.432-.966.818-1.313 1.263-.376.432-.822.803-.298.767a30.518 30.518 0 0 0 3.245-.434l.808-.155c.185-.031.537-.118.796-.173l1.67-.368c1.112-.236 2.197-.47 3.203-.745 1.005-.264 2.09-.511 3.008-.77 1.024-.316 2.037-.63 3.042-.942 3.874-1.294 7.635-2.801 11.423-4.468 1.937-.854 3.938-1.455 5.868-2.316.965-.432 1.924-.917 2.81-1.562.873-.641 1.701-1.483 2.1-2.612.222-.558.218-.96.291-1.163ZM14.813 24.438c-.233-.193-.24-.026-.11.343.13.366.388.945.547 1.646.173.695.268 1.493.236 2.275-.033.785-.174 1.548-.295 2.19-.492 2.567-1.404 4.8-.74 5.242.324.177.931-.084 1.661-.926.701-.805 1.452-2.127 1.78-3.795a6.325 6.325 0 0 0-.63-4.273c-.624-1.146-1.496-1.963-2.449-2.702"/>
    <path fill="#e3e4e7" d="M3.187 25.469c-.36-.031-.235.115.153.352.195.11.453.253.746.467.299.182.628.444.985.716.708.569 1.497 1.28 2.287 2.018l2.206 2.018.449.38c.144.132.265.294.399.432.262.287.524.557.783.81.486.558.94 1.067 1.37 1.473.839.87 1.518 1.308 1.839 1.105.32-.203.223-1.008-.195-2.145-.24-.572-.56-1.244-.99-1.956a27.183 27.183 0 0 0-.793-1.076c-.147-.181-.28-.376-.452-.55l-.555-.503a11.328 11.328 0 0 0-2.09-1.525 15.28 15.28 0 0 0-2-1c-1.336-.542-2.698-.931-4.142-1.016"/>
    <path fill="#e3e4e7" d="M.224 29.01c-.393.035-.24.155.238.318.478.152 1.27.4 2.157.815 1.788.795 3.886 2.373 5.487 3.472 1.6 1.085 3.185 2.008 4.463 2.473 1.322.492 2.153.474 2.333.153.19-.34-.441-1-1.335-1.822a37.31 37.31 0 0 0-3.925-3.086c-3.317-2.224-6.31-2.66-9.418-2.323"/>
    <path fill="#e3e4e7" d="M2.98 34.427c-.55.094.427.464 1.762.813.664.168 1.506.493 2.312.7.66.187 1.24.503 1.78.78 1.065.56 2.166 1.178 3.123 1.468.49.16.88.207 1.177.173.3-.027.507-.121.596-.29.09-.167.051-.393-.095-.657-.154-.261-.402-.57-.674-.892a10.601 10.601 0 0 0-2.869-2.247 5.856 5.856 0 0 0-2.112-.634l-.139-.022h-.055l-.109.005-.216.009-.423.03c-.28.025-.552.057-.822.093-1.063.098-2.157.505-3.237.67"/>
    <path fill="#e3e4e7" d="M88.648 72.785c-28.666-5.277-52.604-19.13-76.479-35.11-2.66-1.78-.259-6.169 2.422-4.374 23.515 15.738 46.976 29.421 75.23 34.622 3.18.586 1.981 5.443-1.173 4.862m22.207-34.296c-.726.239-.51.029.343-.472a37.051 37.051 0 0 1 4.19-2.11c3.689-1.642 8.81-3.38 12.579-4.09a28.252 28.252 0 0 1 2.75-.494l2.582-.35a62.793 62.793 0 0 1 4.449-.205c2.48.133 4.02.412 4.037.79.017.38-1.496.789-3.952 1.153-1.196.264-2.607.504-4.176.772l-2.477.494c-.861.15-1.75.32-2.655.533l-5.002 1.017c-1.547.278-2.976.573-4.37.854-2.791.537-5.406 1.126-8.298 2.108m68.9-.84c.474.317.226.311-.479.088-.71-.216-1.847-.696-3.27-1.13-2.806-.945-6.589-1.964-9.293-2.523l-.993-.249-.972-.19c-.637-.13-1.25-.266-1.834-.404-1.156-.214-2.192-.399-3.08-.623-1.854-.279-3.003-.632-2.999-1.014.005-.378 1.157-.712 3.023-.93.96-.025 2.134-.034 3.417.06a67.44 67.44 0 0 1 3.007.424l1.05.246c.708.172 1.378.351 2.016.535.63.208 1.221.443 1.791.667 1.145.431 2.157.964 3.121 1.495 1.931 1.052 3.616 2.25 5.495 3.547m-118.096 4.34c-.596.1-.72.099-.444.01.263-.1.988-.282 1.968-.061.972.193 2.125.697 3.472.776.66.02 1.333-.118 2.062-.405.722-.278 1.589-.624 2.557-.644h.02l.035.004c.956.099 1.675.645 2.32 1.014.653.395 1.27.628 1.904.557h.006l.048-.002c.688-.026 1.36-.326 2.059-.723.704-.382 1.42-.887 2.449-1.107l.298-.038.148-.02.074-.008.036-.005.019-.002.13-.004.01.002.669.106c.458.046.827.247 1.23.369.738.32 1.388.69 1.966.949l.43.195.422.13c.29.12.529.11.775.154.207.082.608-.03.908-.044l.24-.027.03-.004.016-.001.007-.001h.004l.002-.001-.085.016.043-.016.087-.031c.116-.045.233-.065.352-.138.477-.224.957-.61 1.53-.95a4.805 4.805 0 0 1 1.922-.663l.036-.004h.026c.948.028 1.69.357 2.364.644.673.299 1.269.619 1.828.884 1.112.557 2.11.863 2.88.717.793-.135 1.226-.718 1.55-1.05.297-.404.485-.604.545-.571.06.034-.011.3-.198.766-.24.42-.646 1.25-1.703 1.578-1.045.329-2.312.005-3.49-.49l-1.855-.77c-.631-.24-1.307-.474-1.921-.46l.062-.003a3.658 3.658 0 0 0-1.37.535c-.465.285-.95.704-1.615 1.04-.153.095-.35.153-.534.22l-.14.049-.071.024-.146.024-.241.03c-.343.02-.592.128-1.04.063-.41-.035-.843-.067-1.181-.201l-.541-.17-.496-.222c-.866-.391-1.581-.845-2.281-1.077-.348-.161-.693-.183-1.031-.258l-.063-.013-.016-.004-.004-.001h-.002l.117-.003h-.01l-.037.005-.15.016-.297.03c-.227.006-.31.085-.46.119-.585.19-1.263.593-1.948.935-.705.346-1.51.598-2.338.602l.048-.003c-.996.07-1.887-.384-2.534-.837-.666-.451-1.242-.91-1.885-1.014l.038.002c-.753-.031-1.495.174-2.271.415-.773.244-1.628.4-2.457.283-.833-.1-1.603-.39-2.39-.685-.775-.285-1.596-.617-2.497-.531"/>
    <path fill="#e3e4e7" d="M59.968 72.078c-.501.338-.614.39-.4.193.198-.199.78-.667 1.764-.875.964-.229 2.222-.25 3.479-.74.61-.256 1.164-.663 1.707-1.227.54-.553 1.185-1.23 2.056-1.65l.02-.009.032-.01c.91-.309 1.79-.112 2.532-.045.758.088 1.417.041 1.963-.286l.005-.003.043-.022c.615-.31 1.1-.862 1.57-1.514.482-.64.924-1.399 1.767-2.027l.254-.158.127-.079.063-.039.032-.02.015-.01.117-.057.01-.003.652-.182c.436-.149.855-.12 1.273-.177.804-.015 1.549.051 2.182.044l.472-.002.438-.056c.315-.013.527-.122.768-.183.223-.013.54-.28.808-.419l.207-.125.026-.015.013-.008.007-.004.003-.002c.018-.012-.134.094-.07.05l.034-.034.066-.064c.087-.089.184-.156.262-.273.34-.402.617-.952.995-1.499a4.827 4.827 0 0 1 1.472-1.404l.03-.018.025-.01c.873-.37 1.686-.382 2.418-.4.735-.009 1.41.034 2.029.042 1.243.043 2.278-.095 2.917-.548.665-.452.815-1.163.973-1.6.1-.49.188-.75.257-.745.069.005.114.277.139.778-.043.483-.067 1.406-.891 2.144-.813.734-2.101.967-3.377 1.01l-2.007.071c-.674.043-1.386.113-1.938.381l.055-.029a3.646 3.646 0 0 0-1.023 1.057c-.304.453-.57 1.035-1.035 1.62-.1.15-.255.283-.394.422l-.107.102-.054.051-.124.083-.206.127c-.304.163-.485.363-.92.491-.386.138-.794.29-1.156.31l-.564.07-.543.004c-.95.006-1.79-.11-2.523-.029-.383-.002-.705.122-1.044.194l-.063.015-.016.003-.004.001-.002.001c.214-.105.058-.029.106-.05l-.01.003-.031.02-.13.076-.258.152c-.204.1-.246.205-.368.3-.452.416-.902 1.064-1.382 1.66-.497.61-1.124 1.173-1.875 1.521l.042-.022c-.876.478-1.875.436-2.652.294-.793-.132-1.507-.309-2.136-.137l.035-.014c-.697.285-1.286.781-1.892 1.323-.6.543-1.313 1.042-2.115 1.281-.8.256-1.62.314-2.458.371-.824.064-1.71.104-2.492.558M58.885 57.15c-.561.225-.682.25-.432.105.236-.154.904-.49 1.909-.484.99-.021 2.225.223 3.557.009.65-.121 1.277-.402 1.927-.84.645-.426 1.417-.951 2.358-1.18l.02-.004.034-.003c.956-.11 1.775.268 2.486.49.72.246 1.375.339 1.978.134l.006-.002.046-.012c.667-.173 1.258-.611 1.855-1.15.606-.524 1.197-1.172 2.154-1.608l.282-.101.14-.05.07-.026.035-.012.018-.006.126-.032.01-.001.676-.04c.457-.054.86.063 1.28.096.79.154 1.505.375 2.125.502l.463.098.439.037c.31.054.54-.008.79-.017.22.035.587-.16.877-.24l.229-.077.029-.01.014-.005.007-.002.004-.002h.002c.018-.008-.152.064-.08.033l.039-.025.079-.05c.103-.067.213-.112.313-.21.418-.321.804-.801 1.289-1.256a4.831 4.831 0 0 1 1.735-1.062l.033-.011.027-.006c.93-.177 1.728-.016 2.447.119.72.147 1.372.332 1.975.47 1.206.304 2.246.387 2.967.079.746-.302 1.042-.965 1.288-1.36.202-.458.342-.694.408-.674.066.02.054.296-.028.79-.144.463-.361 1.36-1.322 1.908-.95.547-2.258.503-3.514.275-.623-.111-1.283-.23-1.977-.352-.668-.1-1.38-.182-1.975-.037l.059-.016a3.649 3.649 0 0 0-1.222.818c-.393.378-.776.89-1.353 1.364-.13.125-.31.224-.474.33l-.127.078-.063.038-.138.055-.23.08c-.33.096-.55.253-1.001.287-.407.054-.838.116-1.196.058l-.566-.05-.532-.11c-.93-.194-1.725-.484-2.46-.56-.374-.082-.715-.03-1.061-.03H77.652c.23-.056.062-.014.113-.027l-.01.003-.034.012-.143.048-.284.094c-.221.054-.285.149-.424.214-.53.313-1.106.85-1.7 1.333-.614.49-1.347.91-2.154 1.09l.046-.011c-.958.283-1.925.03-2.654-.271-.748-.297-1.41-.621-2.06-.584l.037-.006c-.741.13-1.422.492-2.128.894-.701.404-1.503.742-2.337.806-.836.082-1.65-.035-2.481-.155-.82-.111-1.693-.258-2.554.02M204.34 18.898c-.274.064-.977.317-1.667 1.046-.7.703-1.376 1.764-2.45 2.58-.537.386-1.173.645-1.937.813-.754.174-1.668.37-2.48.893l-.02.011-.026.021c-.738.617-1.03 1.47-1.36 2.137-.32.692-.705 1.23-1.27 1.524l-.005.004-.04.024c-.586.363-1.31.488-2.113.549-.798.076-1.674.056-2.65.448l-.268.133-.134.067-.066.034-.034.016-.016.008-.11.07-.008.006-.495.462c-.355.294-.55.666-.816.992-.433.678-.767 1.348-1.103 1.884l-.248.403-.277.342c-.175.262-.379.386-.558.56-.126.184-.52.315-.778.47l-.212.11-.02.005-.09.023c-.12.027-.229.075-.369.081-.377.059-.814.053-1.27.056.247.408.436.852.564 1.316a6.72 6.72 0 0 0 .887-.042c.18-.008.375-.07.565-.116l.144-.038.072-.02.135-.062.216-.108c.297-.175.563-.224.9-.528.32-.258.662-.526.867-.826l.355-.443.287-.46c.502-.808.841-1.584 1.293-2.167.2-.327.473-.537.711-.788l.04-.04.097-.052.264-.14c.192-.122.305-.104.448-.16.592-.166 1.38-.211 2.14-.308.766-.105 1.561-.342 2.243-.787.86-.5 1.344-1.367 1.627-2.102.3-.741.523-1.439.993-1.884.603-.436 1.324-.677 2.093-.907.777-.23 1.574-.576 2.197-1.136.636-.547 1.114-1.216 1.601-1.901.485-.67.981-1.402 1.777-1.834.55-.25.653-.32.374-.24m18.25 24.212c-.277-.056-1.02-.12-1.953.256-.928.349-1.985 1.032-3.3 1.326-.65.128-1.336.098-2.102-.067-.757-.157-1.669-.36-2.627-.223l-.02.003-.034.01c-.928.252-1.548.907-2.127 1.375-.579.495-1.152.825-1.788.858h-.006l-.048.006c-.683.086-1.394-.102-2.148-.381-.757-.264-1.546-.646-2.596-.697l-.3.01-.149.005-.074.002-.037.002h-.019l-.129.018-.01.003-.642.213c-.445.12-.777.377-1.155.563-.676.436-1.258.906-1.787 1.254l-.393.261-.395.197c-.26.16-.49.192-.719.27a4.329 4.329 0 0 1 1.397.925l.42-.21.453-.3c.792-.524 1.423-1.088 2.077-1.43.318-.216.654-.292.975-.421l.052-.02.111-.008.3-.017c.224-.032.318.033.472.042.607.095 1.342.382 2.073.61.741.225 1.562.34 2.368.219.99-.096 1.791-.683 2.354-1.232.582-.55 1.074-1.09 1.688-1.3.73-.145 1.486-.066 2.28.045.802.116 1.671.133 2.47-.117.807-.233 1.52-.642 2.248-1.062.72-.406 1.476-.866 2.38-.927.603.002.726-.019.44-.062m-7.45-13.086c-.28.004-1.021.099-1.853.662-.834.535-1.723 1.427-2.948 1.991-.608.263-1.284.379-2.067.378-.773.006-1.708 0-2.615.337l-.02.007-.03.016c-.854.443-1.323 1.213-1.79 1.793-.462.605-.952 1.048-1.567 1.214l-.006.002-.045.016c-.65.227-1.385.194-2.181.08-.795-.099-1.647-.306-2.684-.135l-.291.073-.145.037-.108.027-.018.005-.122.044-.01.005-.582.345c-.41.209-.681.532-1.011.793-.57.567-1.04 1.15-1.483 1.601l-.33.34-.343.276c-.228.216-.453.294-.665.425-.163.153-.577.196-.861.291l-.231.063h-.022l-.092.003c-.124 0-.24.025-.378 0-.526-.035-1.114-.218-1.77-.323a4.801 4.801 0 0 0-2.033.084l-.034.01-.025.01c-.516.22-.92.514-1.278.823a4.53 4.53 0 0 1 1.315.537c.126-.072.254-.131.383-.181a3.632 3.632 0 0 1 1.448-.002c.537.096 1.14.309 1.884.379.177.032.382.014.578.01l.148-.008.074-.002.145-.032.235-.06c.328-.107.598-.098.992-.322.367-.181.76-.37 1.025-.618l.442-.358.38-.388c.664-.68 1.162-1.364 1.729-1.836.266-.277.578-.422.865-.617l.047-.03.106-.03.289-.08c.213-.078.319-.035.47-.059.615-.035 1.393.09 2.156.158.772.064 1.599.005 2.36-.284.948-.301 1.608-1.045 2.043-1.7.452-.66.82-1.294 1.376-1.628.682-.296 1.438-.376 2.238-.434.809-.056 1.662-.223 2.39-.636.74-.398 1.35-.947 1.974-1.512.617-.549 1.26-1.158 2.13-1.407.59-.126.706-.172.417-.154M104.569 43.123c-.225.231-.07-.325.364-1.09.412-.767 1.271-1.699 2.118-2.052.392-.218.834-.277 1.211-.358.404-.01.787-.017 1.05.05.503.155.81.347.798.537-.01.19-.339.341-.859.432-.25.062-.473.172-.743.224-.263.13-.58.188-.87.36-1.169.593-2.133.993-3.069 1.897m54.192 49.414c-.583.886-.863 1.16-.789.99.06-.178.476-.798.98-1.877.491-1.068 1.111-2.639 1.14-4.556.007-.95-.187-1.972-.696-2.898-.508-.927-1.346-1.728-2.404-2.327l-1.48-.839 1.634-.565c1.546-.534 3.134-.839 4.5-1.524.308-.188.668-.378.91-.587.226-.218.475-.35.738-.773l.195-.267.097-.133.025-.034.012-.016.006-.009c-.138.21-.036.053-.066.098l.031-.066.25-.523c.137-.353.253-.707.296-1.048.097-.692-.06-1.256-.467-1.67-.415-.41-1.11-.706-1.86-.788a6.909 6.909 0 0 0-1.252-.04l-.6.024-.606.105c-.806.156-1.616.438-2.417.815-3.234 1.465-6.223 4.07-10.19 5.137l-.776.191-.67.102-.332.05-.082.011-.042.006-.122.013-.175.005-.698.018c-.927.002-1.847.095-2.737.011l-2.619-.247c-.842-.15-1.658-.33-2.454-.492-.747-.124-1.45-.376-2.16-.593-.702-.237-1.424-.409-2.093-.7-1.34-.57-2.69-1.078-3.91-1.782-.618-.336-1.249-.638-1.837-.997-.58-.37-1.155-.739-1.724-1.104l-.846-.545-.793-.6-1.553-1.187a40.648 40.648 0 0 1-8.993-10.168 32.498 32.498 0 0 1-3.635-8.4c-.444-2.08-.526-3.258-.356-3.306.195-.056.633 1.05 1.387 3.017.85 1.873 2.101 4.596 4.228 7.62 2.146 2.986 5.072 6.315 8.94 9.25.491.353.988.712 1.49 1.075l.757.55.805.492c.54.331 1.083.666 1.632 1.004.556.327 1.15.596 1.728.903 1.147.644 2.401 1.094 3.645 1.618.62.268 1.284.415 1.93.633.653.198 1.301.433 1.981.542 1.022.182 2.01.488 3.01.534.993.082 1.97.263 2.93.2l1.43-.012H144.476l.044-.002h.011c.075-.007-.089.011-.068.008l.023-.003.185-.023.733-.094c.461-.084.79-.167 1.216-.283.416-.139.834-.255 1.243-.435 3.305-1.297 6.217-3.633 9.834-4.67.463-.103.907-.242 1.386-.28l.704-.085.715.003a8.61 8.61 0 0 1 1.347.093c.507.074.956.176 1.42.364.908.333 1.812.991 2.28 1.962.493.964.405 2.046.144 2.914a3.796 3.796 0 0 1-.235.642 4.371 4.371 0 0 1-.292.6l-.16.286-.04.072-.02.036-.01.018-.057.084-.097.117-.386.468c-.067.078-.125.156-.198.234l-.273.23-.55.442c-.38.24-.762.442-1.15.625-1.579.67-3.21.87-4.736 1.294l.061-.557c.895.61 1.71 1.365 2.28 2.3.574.93.873 2.014.91 3.101.054 2.191-.784 4.316-1.979 6.198"/>
    <path fill="#e3e4e7" d="M140.642 77.951c-6.135-1.804-6.73-10.449-6.25-15.665.217-2.358-1.674-2.026-3.42-2.11-2.336-.113-4.688-.87-6.954-1.443-4.748-1.198-9.755-2.534-13.876-5.282-1.75 5.75 8.75 14.25 12.5 18 4.5 4.25 10.5 7 16.75 6.75"/>
    <path fill="#e3e4e7" d="M137.887 60.892c.315-.886-.034.735-.31 3.148-.122 1.207-.206 2.613-.135 3.982.078 1.368.34 2.677.689 3.7.313 1.046.877 1.903 1.42 2.649a9.443 9.443 0 0 0 1.823 1.676c.296.2.564.384.803.546.27.139.502.266.687.378.37.225.56.39.528.48-.033.089-.286.093-.714.022a11.065 11.065 0 0 1-.77-.16 17.699 17.699 0 0 1-1.012-.42c-.742-.347-1.54-.906-2.302-1.693-.703-.82-1.402-1.838-1.764-3.032a10.61 10.61 0 0 1-.554-3.303 10.86 10.86 0 0 1 .05-1.468c.03-.472.096-.925.175-1.368.303-1.772.798-3.361 1.386-5.137"/>
    <path fill="#1d1d1f" d="M203.392 185.951h-120l3-101h114z"/>
    <path stroke="#e3e4e7" stroke-width="4" d="M203.392 185.951h-120l3-101h114z"/>
    <path fill="#1d1d1f" d="M197.513 181.201H90.02l2.688-92h102.118z"/>
    <path stroke="#e3e4e7" d="M197.513 181.201H90.02l2.688-92h102.118z"/>
    <path fill="#e3e4e7" d="M102.62 90.932c-.75 1.216-2.54 2.005-3.839 2.019a7.383 7.383 0 0 1-1.216-.093c-1.318-.204-3.09-.76-3.529-2.19-.245-.797-.012-1.76.035-2.575a51.1 51.1 0 0 0 .095-3.057c-.002-4.026-.534-8.323-2.838-11.738-.494-.733-1.106-1.488-1.874-1.923a.17.17 0 0 0 .138.014c-.829-1.852-1.076-3.242-.013-5.142.657-1.175 1.767-2.95 3.282-2.984.694-.016 1.302.416 1.854.789 1.221.824 2.294 1.86 3.214 3.007 3.372 4.204 4.672 9.743 5.058 15.012.191 2.602.214 5.264-.022 7.865a2.301 2.301 0 0 1-.345.996m93.56-25.435a16.147 16.147 0 0 0-.47-.784c-1.856.048-3.715.04-5.568-.011a5.752 5.752 0 0 1-.751-.075 15.827 15.827 0 0 0-1.561 1.683c-3.372 4.203-4.671 9.742-5.058 15.01-.191 2.604-.215 5.265.022 7.866.033.356.156.69.345.996.75 1.216 2.54 2.006 3.84 2.02a7.38 7.38 0 0 0 1.215-.094c1.318-.204 3.09-.76 3.529-2.19.245-.797.012-1.76-.035-2.575a51.1 51.1 0 0 1-.095-3.057c.002-4.026.534-8.322 2.837-11.737.496-.734 1.107-1.49 1.875-1.924a.175.175 0 0 1-.138.015c.829-1.852 1.076-3.242.013-5.143"/>
  </g>
</svg>
