<svg xmlns="http://www.w3.org/2000/svg" width="561" height="644" viewBox="0 0 561 644">
  <g fill="none" fill-rule="evenodd">
    <path fill="#ffffff" fill-opacity=".05" d="M329.177 579.432c15.91 9.361 34.64 12.739 49.965 23.336 14.327 9.906.742 33.506-13.731 23.5-16.14-11.159-36.133-14.302-52.599-24.948-.275-.177-.517-.367-.772-.555-2.068-1.304-3.608-3.162-4.598-5.299h-.008c-4.291 0-7.526-1.633-9.716-4.093a15.56 15.56 0 0 1-1.58-.095c-.175-.02-.34-.052-.512-.076-.395-.06-.78-.128-1.154-.218a10.37 10.37 0 0 1-.52-.136 12.479 12.479 0 0 1-1.063-.348c-.142-.055-.283-.106-.42-.164-.404-.168-.794-.359-1.166-.566-.057-.03-.117-.057-.172-.09a11.695 11.695 0 0 1-2.424-1.853c-.013-.01-.024-.024-.038-.038a12.787 12.787 0 0 1-1.847-2.367c-3.251-1.29-5.529-3.761-6.78-6.722-2.65-.009-5.308-.014-7.977-.014-9.18 0-18.212.07-27.155.18-1.251 1.973-3.03 3.605-5.349 4.612-1.276.686-2.731 1.173-4.372 1.4-2.152 2.016-5.104 3.333-8.92 3.333-1.331 0-2.547-.174-3.676-.463-1.08 1.682-2.544 3.108-4.421 4.047-.909.455-1.815.906-2.721 1.36-3.355 1.677-6.78 2.39-10.483 1.372-.236-.065-.451-.185-.685-.264-2.155 3.116-5.708 5.285-10.662 5.285-1.105 0-2.109-.144-3.067-.35-2.17 2.138-5.226 3.526-9.176 3.526-.117 0-.223-.013-.34-.016-2.087 1.682-4.838 2.738-8.277 2.738-.095 0-.182-.011-.274-.014-.063 0-.117.014-.177.014-1.355 0-2.59-.18-3.736-.48-1.175 1.8-2.704 3.356-4.59 4.461-1.632.958-2.88 1.334-4.304 1.568-.753.166-1.559.26-2.4.304-.135.017-.244.028-.388.044-.797.079-1.622.016-2.443-.139-.77-.098-1.5-.25-2.188-.457-1.926 1.211-4.298 1.957-7.158 1.957-17.545 0-17.545-27.214 0-27.214 1.516 0 2.884.225 4.138.596a12.253 12.253 0 0 1 3.156-1.4c2.661-1.063 5.654-1.327 8.565-.525.079.022.147.063.223.088a12.368 12.368 0 0 1 2.329-2.85C67.298 586.434 0 597.94 0 611.343 0 629.378 121.809 644 272.065 644c150.259 0 272.065-14.622 272.065-32.657 0-15.684-92.146-28.76-214.953-31.911l199.952 33.272"/>
    <path fill="#dbdbdd" d="M553.052 338.805c-3.083-5.211-6.962-10.033-11.68-13.805-1.113-1.02-2.43-1.753-3.635-2.63l-1.85-1.254-.348-.234c-.199-.117.286.15-.476-.28l-.44-.22-.885-.441-3.52-1.759c-.526-.302-1.287-.563-2.025-.824l-2.195-.773c-5.89-2.169-11.354-2.689-17.01-3.075-2.778.081-5.563.032-8.279.335-2.696.405-5.425.557-8.015 1.273-10.48 2.28-20.075 6.665-28.12 12.579-8.018 5.908-14.55 13.479-18.202 22.01-.786 2.202-1.63 4.251-2.282 6.488l-.37 1.483-.335 1.671c-.247 1.135-.35 2.186-.506 3.258-.498 4.27-.402 8.534.601 12.663.477 2.06 1.328 4.079 2.433 5.943 1.224 1.807 2.688 3.538 4.557 4.64.879.648 1.842 1.053 2.808 1.418.949.446 1.918.58 2.867.778.955.243 1.87.25 2.772.275l1.344.038.166.006c.15-.008-.217.019.357-.02l.07-.007.283-.044.564-.082c.653-.049 1.681-.334 2.636-.645 1.02-.28 1.627-.69 2.413-1.036a23.581 23.581 0 0 0 3.877-2.526c2.285-1.837 4.163-3.774 5.588-5.807 2.944-3.957 4.299-8.205 4.09-11.6-.137-1.695-.605-3.101-1.214-4.087-.465-1.066-1.238-1.545-1.57-1.96-.78-.74-.778-.546-.027.578.819.969 2.196 3.606 1.57 7.35-.735 3.69-2.743 6.812-5.077 9.452-2.37 2.62-5.166 4.85-8.344 6.267-6.271 3.078-14.7.28-17.064-5.97-2.563-6.077-1.763-13.047-.15-19.148 2.01-6.175 4.968-11.874 9.289-16.557 4.271-4.67 9.285-8.562 14.737-11.673 5.545-2.958 11.408-5.222 17.472-6.68 6.1-1.299 12.314-1.851 18.463-1.487 3.036.428 6.105.67 9.013 1.579l2.21.555c.718.204 1.34.523 2.015.77l1.986.773c.662.253 1.31.452 2.06.925 11.283 5.528 18.596 15.744 21.273 28.066 2.726 12.247 1.368 26.134-2.462 39.254-.406 1.56-1.048 3.361-1.65 5.13l-.45 1.328-.112.332c.062-.21-.057.117-.076.147l-.256.607-1.023 2.43c-.7 1.614-1.322 3.277-2.079 4.877-.827 1.562-1.657 3.135-2.49 4.713-.426.784-.802 1.6-1.27 2.362l-1.469 2.254c-.996 1.491-1.912 3.05-2.97 4.517-2.278 2.814-4.376 5.819-7.031 8.39-2.419 2.795-5.332 5.13-8.127 7.648-3.05 2.201-5.996 4.632-9.386 6.493-3.218 2.125-6.818 3.696-10.36 5.44l-5.575 2.17c-1.844.791-3.85 1.196-5.781 1.83-7.833 2.202-15.867 3.606-23.89 3.8l-2.99.147-2.9-.066c-1.965-.073-3.78-.002-5.847-.168-2.1-.196-4.192-.395-6.274-.591l-1.561-.147-.18-.016-.297-.05-.704-.116-2.813-.452c-14.958-2.667-28.341-9.794-39.21-19-5.433-4.592-10.363-9.746-14.648-14.966-2.057-2.417-4.408-5.655-6.293-8.216l-6.043-8.33c-1.94-2.719-3.912-5.405-5.59-7.982-1.742-2.596-3.497-5.057-5.08-7.849l-1.682-2.803c-.824 4.21-3.403 8.001-7.737 9.678 1.29 2.392 2.824 4.857 4.345 7.358 1.771 2.988 3.635 5.753 5.52 8.635 1.9 2.833 3.828 5.713 5.787 8.64 2.163 3.16 3.896 5.762 6.393 8.96 4.688 6.096 9.923 11.884 16.003 17.3 12.055 10.771 27.743 19.605 45.528 22.988l3.338.577.835.144.42.07.657.074 1.56.163 6.268.656c2.138.193 4.568.19 6.853.283l3.49.095 3.418-.138c9.122-.18 18.378-1.731 27.46-4.295 18.198-4.898 37.1-16.418 50.628-33.849 6.742-8.676 12.194-18.66 15.82-29.328.999-2.997 1.666-4.953 2.427-7.982.787-2.833 1.363-5.617 1.9-8.393.957-5.604 1.703-11.289 1.703-17.085.138-11.504-1.927-23.6-7.942-34.217M239.163 569.33c1.303 0 2.802.234 3.91.509-1.233-44.76-4.41-91.459-7.441-136.05-.59-8.702-14.2-8.762-13.604 0 3.118 45.865 7.305 92.034 8.407 138.064 2.193-2.566 4.326-2.523 8.728-2.523M78.191 93.63c-4.903 18.217-23.64 29.013-41.852 24.109-18.215-4.904-29.005-23.647-24.102-41.864 4.9-18.22 23.64-29.013 41.852-24.109C72.3 56.667 83.094 75.413 78.19 93.63"/>
    <path fill="#dbdbdd" d="M57.226 72.633c-3.87-1.178-2.307-1.083 2.8-.12 5.1.988 13.777 2.732 24.197 4.447 10.417 1.663 22.646 3.168 34.655 3.723 3.015.081 5.92.345 8.968.277 2.957-.03 6.116.071 8.765-.049 2.746-.269 5.474-.168 8.002-.729 1.273-.204 2.525-.408 3.749-.604 1.222-.215 2.37-.615 3.515-.893 18.468-4.83 31.241-18.02 41.153-26.797 5.07-4.423 9.759-7.495 13.437-8.946 3.52-1.368 5.583-1.597 5.798-1.18.258.503-1.53 1.69-4.49 3.785-2.829 2.024-6.684 5.442-11.086 10.164l-7.376 7.865c-1.439 1.388-2.802 2.868-4.459 4.3-1.57 1.371-3.033 2.814-4.824 4.223-7.068 5.81-15.845 11.074-26.219 13.814-10.314 2.847-20.17 2.224-28.384 1.788-8.638-.729-16.504-1.777-24.018-3.287-15.05-2.958-28.741-7.019-44.183-11.781m147.151-32.377c-.438.068-.432-.18-.049-.656.39-.42 1.14-1.32 2.259-1.8 2.236-1.254 5.376-1.703 7.084-1.893.942-.06 1.668-.174 2.422-.144.568-.096 1.11.065 1.782.021 1.387-.242 2.445-.06 2.843.605.4.664.065 1.684-.8 2.797-.5.542-1.494 1.094-2.558 1.592-.955.321-2.1.65-3.164.716-2.22.196-3.683-.319-5.155-.748-1.453-.455-2.92-.844-4.664-.49"/>
    <path fill="#dbdbdd" d="M213.763 32.887c-.481.016-.435-.231.11-.675.5-.47 1.705-1.037 3.25-1.037 1.467 0 3.091.471 3.975.536.185.036.569.066.893.101l.245.027.122.014.063.008.03.003.013.003c.3.049-.403-.066-.33-.055h.004l.005-.003.335-.046c.432-.022.851-.095 1.248-.158 1.543-.217 3.7-.808 5.51-.612.47.046.89.117 1.232.218.294.133.547.28.757.438.419.313.66.67.68 1.059.019.386-.183.767-.569 1.123-.193.177-.43.349-.71.515-.22.193-.44.384-.68.552-1.045.659-2.563 1.758-5.368 2.254-.696.1-1.366.147-2.035.046l-.484-.06-.79-.128-.658-.297a13.599 13.599 0 0 1-1.436-.816c-.427-.3-.743-.596-1.078-.89-1.172-1.127-2.307-2.294-4.334-2.12"/>
    <path fill="#dbdbdd" d="M223.255 27.508c-.911-.169.593-1.086 3.077-1.26 2.435-.169 5.395.212 7.172.547 1.534.332 2.922.634 4.048.879.683.397 2.133.139 2.49.85.225.315.271.734.16 1.226.005.447-.604 1.154-1.448 1.707-1.591 1.075-4.143 1.306-6.33.846-4.408-.903-5.698-3.832-9.17-4.795"/>
    <path fill="#dbdbdd" d="M232.427 22.993c-.726-.262.536-.966 2.674-1.146 2.136-.193 4.843.343 6.427 1.02.832.349 1.512.716 2.149 1.138a8.12 8.12 0 0 1 1.483 1.214c.933.824 1.395 1.706 1.164 2.446-.228.74-1.107 1.2-2.342 1.345-.648.027-1.431-.047-2.25-.215a13.68 13.68 0 0 1-2.365-.746c-3.12-1.265-4.04-3.864-6.94-5.056"/>
    <path fill="#dbdbdd" d="M243.273 20.027c-.259-.626 1.023-.231 2.538.501.73.414 1.64.73 2.446 1.113.403.19.79.392 1.14.602.354.16.67.26.939.419.541.296.998.672 1.439 1.091.623.346 1.159.73 1.586 1.13.852.8 1.263 1.665 1.031 2.402-.231.743-1.064 1.217-2.22 1.386a7.939 7.939 0 0 1-1.945.019c-.786-.232-1.665-.605-2.536-1.075-3.411-2.009-3.403-5.084-4.418-7.588m19.301-1.962c-.868-.482.942-.672 3.494-.672 2.514-.025 6.097.046 8.738 1.13 1.304.445 2.438 1.251 3.41 1.978.9.849 1.779 1.687 2.146 2.41.786 1.462 1.007 2.646.47 3.207-.533.563-1.722.394-3.21-.332-.756-.39-1.496-.537-2.244-.961-.833-.291-1.649-.762-2.634-1.083-3.8-1.39-6.785-3.647-10.17-5.677"/>
    <path fill="#dbdbdd" d="M256.213 20.625c-.43-.724 1.083-.12 2.895.196 1.817.354 4.271.1 6.355.256.971.081 2.051.272 2.936.498 1.017.31 1.931.664 2.576 1.061 1.14.863 1.736 1.769 1.516 2.512-.22.743-1.217 1.184-2.648 1.293-.666.128-1.338.26-2.065.27-.881.062-1.738.048-2.807-.044-4.193-.292-7.259-3.125-8.758-6.042"/>
    <path fill="#dbdbdd" d="M247.931 18.057c-.457-.68.947-.392 2.96.457 1.04.414 2.081 1.01 3.072 1.644 1.014.661 1.934 1.306 2.543 1.82.648.55 1.181 1.15 1.687 1.748a10.565 10.565 0 0 1 1.459 1.717c.74 1.116.979 2.125.546 2.77-.435.643-1.458.795-2.764.523a10.47 10.47 0 0 1-2.13-.721c-.762-.428-1.57-1.029-2.359-1.698-1.662-1.405-2.228-2.678-2.911-4.137-.628-1.385-1.194-2.743-2.103-4.123m34.747-.101c.076-.487.957-.065 1.89.936.926.933 1.927 2.828 1.505 4.716-.111.86-.683 1.72-1.23 2.322-.66.577-1.553 1.12-1.937 1.023-.862-.082-1.594-.466-1.994-1.13-.397-.666-.389-1.485-.049-2.275.24-.427-.193-.617-.19-.675-.134-.185-.077-.21-.09-.413.169-.577 1.787-2.542 2.095-4.504"/>
    <path fill="#dbdbdd" d="M297.912 14.807c.797-.128-.085 1.05-1.63 2.498-.75.7-1.706 1.472-2.435 2.131-.767.664-1.115 1.214-1.458 1.622-1.287 1.97-3.246 5.269-4.756 4.662-.743-.223-1.2-1.16-1.338-2.493-.134-1.263.136-3.38 1.583-5.503.433-.514.882-.99 1.344-1.366.487-.305.971-.563 1.445-.778.908-.332 1.76-.457 2.554-.517 1.59-.08 3.096.002 4.69-.256m12.664 5.285c.865.376-.8.702-3.06 1.407-2.3.689-5.183 1.794-7.093 2.501-1.94.7-3.48 1.31-4.57 1.766-.94.134-2.011 1.154-2.713.798-.618-.3-1.374-1.29-.234-3.46.96-1.842 3.134-3.507 5.612-4.383 2.495-.871 4.64-.76 6.57-.381 1.93.4 3.7 1.058 5.488 1.752m8.795 6.862c.917.03-.408 1.184-2.993 1.657-2.585.46-5.754.036-7.18.09-1.477-.084-2.508.18-3.673.408-.525.041-1.178.302-1.678.343-.506.044-.92-.06-1.2-.326-.278-.273-.395-.68-.37-1.195.035-.514.122-1.097.713-1.875a5.102 5.102 0 0 1 1.001-1.116c.386-.373.862-.71 1.431-.988 1.102-.601 2.547-.911 3.874-.862 2.72.103 4.138 1.137 5.534 1.956 1.36.852 2.713 1.74 4.54 1.908"/>
    <path fill="#dbdbdd" d="M331.316 33.007c1.036.288-.844 1.01-3.75.797-2.859-.22-6.246-1.108-7.878-1.042-.857-.011-1.57-.014-2.278.18-.707.127-1.458.4-2.062.6-.628.131-1.344.52-1.883.605-.552.106-.993.04-1.276-.223-.285-.264-.389-.697-.331-1.258.084-.571.185-1.219.843-2.079a7.58 7.58 0 0 1 2.707-2.414c1.224-.737 2.908-1.08 4.5-1.02 3.243.215 4.984 1.61 6.527 2.748 1.532 1.179 2.876 2.442 4.88 3.106m18.834 10.112c1.083.577-1.113.647-4.285.144-3.175-.517-7.058-1.535-9.522-1.824-.64-.174-1.233-.182-1.81-.242-.566-.043-1.164-.196-1.657-.207-.982.066-1.833-.206-2.818-.15-1.97.161-3.317-.105-3.575-.837-.256-.733.626-1.788 2.258-2.91.824-.544 2.288-.898 3.79-1.265.759-.144 1.494-.1 2.299-.123.797-.002 1.632-.002 2.416.194 6.51 1.314 8.597 5.004 12.904 7.22"/>
    <path fill="#dbdbdd" d="M359.987 53.549c.59-.038.523.215-.22.7-.351.285-.941.467-1.763.55-.803.018-1.752-.221-2.585-.654-.802-.427-1.54-.953-2.184-1.426l-.898-.623c-.305-.174-.781-.59-.939-.575-1.382-.62-2.522-1.499-3.665-1.915-4.192-2.058-8.458-4.137-7.96-5.707.21-.746 1.458-1.127 3.305-1.14.904-.039 2.038.144 3.279.419 1.246.215 2.573.759 3.931 1.428 1.401.577 2.389 1.595 3.322 2.436l.658.659.387.4.234.343c.296.435.612.95.903 1.472.533.955.865 1.872 1.447 2.572.54.69 1.562 1.287 2.748 1.061m8.313 9.27c1.197-.183-.452 1.328-3.858 2.27-1.698.421-3.907.593-6.105-.022a22.593 22.593 0 0 1-1.744-.697c-.588-.264-.817-.455-1.227-.686-.751-.44-1.7-1.23-2.286-1.831-1.248-1.326-1.967-2.534-2.598-3.525a42.91 42.91 0 0 0-1.515-2.248 8.135 8.135 0 0 1-.563-.827 6.089 6.089 0 0 1-.792-.748c-.414-.48-.585-.92-.468-1.29.117-.37.511-.634 1.129-.792.307-.08.67-.136 1.083-.16.484.078 1.064.222 1.706.448 1.218.468 2.375 1.31 3.422 2.343.98.986 1.861 2.099 2.642 2.91.392.383.764.75 1.124 1.105.487.394 1.074.985 1.297 1.107.267.248.588.539 1.029.778.391.294.827.504 1.278.724a12.117 12.117 0 0 0 6.446 1.14m33.927 33.089c.604-.3.569.008.025.75-.525.755-1.654 1.892-3.32 2.856-1.65.96-3.806 1.72-5.982 2.046-2.182.346-4.345.242-6.086-.03-7.077-1.184-11.31-5.426-10.467-6.656.836-1.364 5.64.201 11.375 1.118 2.865.479 5.113.898 7.406 1.11 2.264.18 4.652.068 7.05-1.194m4.433 11.708c.642-.22.566.081-.085.753-.612.689-2.002 1.682-4.037 2.158-2.005.498-4.484.21-6.38-.122-1.948-.354-3.855-.77-5.411-1.22-6.228-1.793-10.945-4.46-10.543-5.956.403-1.5 5.773-1.258 12.001.536 3.104.862 5.528 2.21 7.566 3.246 1.023.487 2.043.923 3.197 1.086 1.137.115 2.435.02 3.692-.481m-55.834-81.76c.693-.51.389 1.03-.721 3.227-.351.55-.585 1.178-1.192 1.764-.522.566-1.235 1.292-1.695 1.608-.58.43-.884.716-1.687 1.197-.568.332-1.137.643-1.621.85-2.06.868-3.317 1.197-4.383 1.561-.28.077-.544.147-.795.213a3.94 3.94 0 0 1-.802.28c-.501.106-.923.057-1.233-.177-.31-.234-.476-.626-.511-1.137a3.873 3.873 0 0 1 .04-.852c.088-.33.275-.724.498-1.138.863-1.668 3.058-3.127 4.898-3.875.484-.21.9-.378 1.33-.517l.318-.095c-.15.098.15-.044.204-.052l.661-.207c.441-.128.876-.228 1.31-.313l.976-.212c1.4-.294 2.97-1.11 4.405-2.126"/>
    <path fill="#dbdbdd" d="M359.994 26.048c.664-.255.288.942-.696 2.591a17.76 17.76 0 0 1-.841 1.288c-.378.389-.79.783-1.216 1.162-.427.38-.87.743-1.309 1.072-.446.296-.9.476-1.317.656-.827.324-1.695.61-2.407.694a7.88 7.88 0 0 1-1.94-.025c-1.154-.171-1.986-.645-2.223-1.382-.237-.74.166-1.6 1.012-2.398a7.878 7.878 0 0 1 1.573-1.121c.6-.346 1.129-.686 1.795-.936a5.66 5.66 0 0 1 .969-.283 5.64 5.64 0 0 1 .86-.25c.584-.12 1.202-.159 1.858-.18 1.232-.204 2.546-.387 3.882-.888m9.674-2.46c.69.227-.672.823-1.241 1.892-.604 1.02-1.042 3.046-2.193 4.77-1.023 1.672-3.137 3.117-4.88 3.117-.45.014-.863-.011-1.162-.095a3.252 3.252 0 0 1-.626-.4c-.351-.292-.572-.637-.62-1.02-.052-.385.07-.774.334-1.147.133-.185.302-.37.5-.544.129-.199.191-.392.273-.544.386-.702.745-1.31 1.54-2.523.789-1.162 1.98-2.36 3.501-3.121 1.518-.809 3.295-.869 4.574-.384m21.904-1.794c.55.245.253.411-.506.52-.762.068-1.978.25-3.159.735-1.186.495-2.416 1.423-3.885 2.493-1.714 1.2-3.46 1.995-4.826 2.555-2.77 1.086-5.126 1.837-6.693 2.352-.348.114-.71.206-1.067.28-.364.13-.71.324-1.015.405-.614.194-1.093.18-1.387-.073-.291-.256-.373-.724-.267-1.355.068-.319.125-.67.327-1.067.253-.406.587-.863 1.01-1.353 1.602-1.804 4.208-3.293 6.991-4.395a34.966 34.966 0 0 1 3.706-1.233c.968-.266 2.307-.762 3.55-.96 2.568-.574 5.137.013 7.22 1.096m16.97 1.995c.496.267.158.406-.516.493-.702-.016-1.57.335-2.476 1.048-.525.465-1.091.966-1.676 1.48-.4.316-.599.574-1.194.942-.49.315-1.19.748-1.519.868-2.127.922-4.165.99-5.77.95-3.156-.259-4.922-.572-6.331-.463-.68-.125-1.624.24-2.215.19-.625.003-1.069-.152-1.276-.479-.206-.326-.157-.797.11-1.368.328-.566.562-1.25 1.708-1.944 1.047-.764 2.448-1.276 3.942-1.483 1.548-.234 3-.114 4.326-.06.672.036 1.208.033 1.785.104.53-.011 1.042.003 1.559.052-.006.078 1.23-.096 1.344-.123l.563-.062.775-.22c1.042-.292 2.236-.698 3.474-.79 1.252-.142 2.452.256 3.388.865m20.973 8.465c1.074.69-1.24.568-4.342-.45-.716-.23-1.489-.478-2.286-.731l-1.102-.373-1.316-.316c-.441-.112-.876-.226-1.306-.335l-.041-.01-.008-.003.343.098h-.006l-.019-.003-.068-.003-.141-.005-.278-.011-.541-.033c-.713-.1-1.377.006-1.981-.043-2.386.06-4.946.533-7.063.473-2.125-.019-3.333-.593-3.499-1.325-.176-.781 1.002-1.633 2.645-2.55 1.657-.852 4.25-2.08 7.792-2.21.868.041 1.711.027 2.478.218l1.121.272.536.15.066.019.016.005.34.098h.003l.008.006.024.013.106.057.207.117c1.094.637 2.073 1.233 3.066 2.148 1.973 1.679 3.132 3.325 5.246 4.727m24.58 11.822c.457.68-.994.152-2.751.465-1.84.289-4.443 1.217-6.598 1.508-2.116.291-4.355.163-5.958-.558-1.89-.8-2.084-1.834-1.904-2.539.198-.767 1.534-.95 2.383-1.401 1.129-.362 2.707-.79 4.742-1.067a12.077 12.077 0 0 1 5.694.582c1.744.615 3.393 1.658 4.392 3.01"/>
    <path fill="#dbdbdd" d="M458.574 54.502c.065.413-.237.31-.664.04-.392-.282-1.11-.625-1.986-.933-1.788-.629-4.555-1.01-6.51-1.551-3.878-.999-7.314-3.143-6.713-4.67.558-1.369 3.842-1.87 8.225-.735 2.152.602 3.803 1.715 5.115 3.086 1.284 1.356 2.342 3.07 2.533 4.763m5.186 8.32c.452.567-.92.444-2.674.297-1.741-.16-4.274-.277-6.22-1.249-.93-.416-1.787-1.102-2.489-1.764-.68-.805-1.325-1.662-1.458-2.275-.259-1.23-.104-2.218.525-2.672.628-.455 1.61-.286 2.693.351.55.308 1.031.275 1.437.53.55.178 1.066.485 1.738.776 2.596 1.187 4.674 3.696 6.448 6.006m3.511 8.252c.332.582-.9.32-2.432.361-1.545 0-3.863.21-5.898-.566-.969-.342-1.957-1.01-2.664-1.774-.72-.814-1.115-1.652-1.279-2.476-.073-.409-.12-.798-.079-1.08.071-.254.158-.483.267-.681.215-.398.509-.678.873-.808.365-.128.77-.096 1.187.078.206.088.419.207.63.36.216.109.42.141.597.212l2.489.933c2.283.82 4.916 3.086 6.31 5.44"/>
    <path fill="#dbdbdd" d="M469.055 79.749c.166.683-1.015.095-2.397-.836-.34-.234-.71-.503-.99-.612-.332-.16-.452-.278-.955-.525l-.623-.343-.15-.09-.076-.044-.036-.021-.019-.011-.01-.006-.003-.003-.003-.002c.28.215.076.06.139.109l-.188-.05-.69-.25c-.882-.318-3.073-1.233-3.87-2.74-.508-.768-.391-1.203-.329-1.647.084-.43.275-.783.577-1.026.302-.245.685-.353 1.124-.345.418-.008.993.242 1.297.081.683-.065 1.254-.234 3.257.455.487.199.933.424 1.35.765l.704.582.291.425c.182.288.343.582.487.884.182.39.335.79.457 1.167.474 1.522.308 2.746.656 4.083m-1.02 10.947c.224.345.014.462-.584.313-.59-.11-1.614-.694-2.365-1.723-.759-.977-1.31-2.245-1.749-2.947-.253-.39-.5-.77-.737-1.132l-.014-.022v-.003c-.022-.038.169.321.087.169l-.002-.003-.006-.008-.027-.027-.055-.055-.103-.111-.19-.218a5.03 5.03 0 0 1-.33-.43c-.331-.612-.878-1.02-1.175-1.606-.46-.511-.808-1.047-1.126-1.586-.71-1.083-.933-2.077-.5-2.719.432-.642 1.441-.814 2.72-.571.656.152 1.436.49 2.239.925.748.593 1.703 1.184 2.31 2.16.329.463.612.926.851 1.38l.177.34.044.15.081.297.134.626c.234 1.167.117 1.962-.009 2.664-.253 1.372-.663 2.73.33 4.137m-3.566 12.061c-.38.751-.748-.781-1.156-2.754-.37-2.047-1.225-4.098-1.924-5.508-.666-1.489-1.27-2.88-1.638-4.2-.424-1.33-.386-2.397.218-2.881.604-.487 1.657-.302 2.873.392 1.21.745 2.742 2.294 3.692 4.446 1.02 2.2.715 4.355.196 6.001-.604 1.677-1.51 3.024-2.261 4.504m-7.143 13.628c-.482.892-.724-.918-.52-3.585.237-2.683.88-5.905 1.034-7.81.112-.503.15-.966.15-1.399.016-.433.106-.884.133-1.276-.087-.724.152-1.358.093-2.172-.185-1.633.054-2.8.759-3.119.707-.318 1.749.275 2.859 1.489.544.626.999 1.872 1.418 3.149.144.634.176 1.273.233 1.965a6.837 6.837 0 0 1-.078 2.068c-.942 5.557-4.258 7.086-6.081 10.69m-5.478 11.507c-.349.18-.335-.158-.278-.587.057-.433.076-1.103-.054-2.055-.207-1.853-.914-4.57-1.094-6.575-.18-2.006-.087-3.94.33-5.402.405-1.576 1.164-2.327 1.928-2.327 1.475.182 2.862 2.936 3.333 7.23.188 2.118-.22 3.958-.939 5.631-.734 1.595-1.716 3.372-3.226 4.085m-11.862 5.105c-1.717.556 3.4-5.41 4.22-7.845.22-.3.296-.626.43-.926.108-.299.348-.598.41-.862.134-.575.55-.94.716-1.655.375-1.336.996-2.196 1.766-2.27.772-.073 1.55.659 2.184 1.897.338.574.397 1.745.435 2.871.025.596-.16 1.121-.285 1.723-.147.588-.302 1.203-.64 1.736-.302.55-.62 1.067-.963 1.513-.378.392-.767.743-1.153 1.059-.76.68-1.61.96-2.392 1.323-1.602.596-3.164.86-4.728 1.436"/>
    <path fill="#dbdbdd" d="M430.38 137.749c-.776.473-.237-1.105.98-3.103 1.207-1.997 2.96-4.351 4.18-5.815.686-.721 1.214-1.383 1.826-1.946.58-.558.928-.895 1.491-1.271.96-1.026 1.872-1.7 2.618-1.431.712.255 1.18 1.238 1.123 2.759-.152.795-.481 1.97-.977 2.88-.487.886-1.085 1.885-1.847 2.693-3.028 3.4-6.336 3.43-9.394 5.234m-11.246 1.463c-.71.487-.402-1.072.963-3.032 1.371-1.973 3.711-3.829 5.18-4.806.822-.49 1.431-.917 2.144-1.24.563-.322 1.067-.512 1.663-.703 1.167-.73 2.2-.95 2.826-.493.626.458.724 1.51.376 2.839-.324.691-.9 1.581-1.605 2.37-.664.656-1.486 1.424-2.343 1.932-3.447 2.221-6.257 1.258-9.204 3.133m-9.091-1.498c-.716.187-.109-1.048 1.191-2.488 1.298-1.44 3.143-2.969 4.446-3.774 1.398-.803 2.498-1.31 3.409-1.405 1.064-.359 2.06-.55 2.653-.021.568.5.783 1.431.332 2.64-.697 1.376-1.995 2.726-3.491 3.589-3.066 1.823-5.705.757-8.54 1.459m-12.39-1.144c-.886.294-.016-1.156 1.978-2.787 2.025-1.646 5.036-2.909 6.778-3.605.97-.31 1.684-.675 2.494-.871.613-.294 1.25-.349 1.93-.594 1.368-.623 2.483-.729 3.025-.174.538.558.4 1.671-.261 3.024-.387.675-1.227 1.467-2.147 2.245-.887.574-1.967 1.268-3.058 1.62-4.408 1.578-7.11-.055-10.738 1.142"/>
    <path fill="#dbdbdd" d="M403.75 151.22c.59 1.35-1.235-.447-4.329-3.108-1.515-1.375-3.3-3.1-4.76-5.362-.689-1.167-1.347-2.43-1.639-3.886-.168-.713-.217-1.431-.228-2.199.043-.786.166-1.774.296-2.092l.194-.683.01-.044.134-.384.016-.03.065-.114.134-.231.272-.455c.38-.588.743-1.216 1.23-1.59.933-.935 1.85-1.444 2.717-1.915 1.65-.792 3.056-1.206 4.043-1.592 1.796-.435 3.336-1.7 3.945-1.151.5.43.686 2.169-1.763 4.466-1.066 1.037-2.383 1.856-3.585 2.727-1.198.87-1.755 1.605-2 2.479-.59 1.967.324 4.721 1.434 7.271 1.088 2.594 2.508 5.114 3.814 7.893m58.447-58.224c.702-1.861.708-1.113.202 1.44-.13.637-.275 1.393-.482 2.237l-.95 2.724c-.334 1.004-.737 2.074-1.31 3.143-.553 1.078-1.062 2.273-1.758 3.421-2.71 4.706-6.723 9.542-12.227 13.313l-1.01.724-.976.54-1.948 1.055-.963.523-.063.032-.304.142-.13.051-.265.101-.522.204-2.073.798c-2.778.955-5.477 1.785-8.023 2.248-2.522.533-5.072.789-7.542.835-2.487.065-5.129-.204-7.077-.604l-.778-.136-.277-.055-.095-.024-.188-.046-.373-.096-1.483-.378a81.613 81.613 0 0 1-2.886-.795c-1.872-.56-3.621-1.183-5.178-1.92-3.131-1.443-5.42-3.433-6.458-5.166-1.113-1.845-.98-2.844-.71-3.04.348-.25 1.112.708 2.347 1.592 1.3.988 3.355 2.085 6.239 2.907 1.436.416 3.069.77 4.859 1.104l2.816.49 1.507.259.39.065.192.036.098.016.05.008.01.003-.171-.03.024.003.786.081c2.24.289 4.057.34 6.182.229 2.135-.11 4.361-.36 6.627-.844 2.272-.424 4.421-1.012 6.48-1.608 1.035-.27 2.03-.64 3.02-.94l.37-.116.183-.057.093-.03.046-.014.024-.008.011-.003c.218-.095-.285.128-.228.104l.72-.33 1.424-.636c2.018-.781 3.39-1.764 4.938-2.64 1.515-.917 2.908-2.126 4.347-3.165 5.365-4.662 9.762-10.265 12.463-17.747M344.71 14.853c-.125-.365.101-.436.632-.19.552.217 1.3.911 1.896 1.956 1.132 2.128 1.287 4.926 1.224 6.439-.092 1.597-.337 2.724-.596 3.617a5.824 5.824 0 0 0-.443 1.254c-.15.433-.395.757-.737.94-.343.181-.749.203-1.192.086-.435-.06-.93-.443-1.44-1.175-.919-1.25-1.31-3.228-1.196-5.016.103-1.81.729-2.953 1.287-4.08.544-1.093 1.118-2.348.565-3.831M334.65 6c-.558-.612.96-.536 3.125.31.531.243 1.121.48 1.698.83.563.382 1.148.803 1.717 1.252.528.52 1.017 1.124 1.469 1.701.444.59.688 1.342.939 1.957.285.62.31 1.304.337 1.951-.008.656.098 1.25-.112 1.86-.342 1.134-.745 2.359-1.251 2.742-.988.975-1.953 1.42-2.664 1.11-.71-.31-1.03-1.314-.974-2.694.063-.378-.027-.664-.12-.906a3.062 3.062 0 0 1-.138-.732c.033-.226-.18-.53-.207-.792-.062-.272-.043-.56-.217-.833-.727-2.122-1.39-5.236-3.603-7.756m-12.237-3.357c-.65-.438.778-.8 2.925-.413 2.135.356 4.769 1.625 6.178 3.029 1.448 1.32 2.375 3.002 2.754 4.368.214 1.257.005 2.237-.645 2.658-.653.422-1.633.186-2.688-.506-1.023-.49-2.082-1.35-3.262-2.43-2.28-2.038-2.735-4.781-5.262-6.706M309.155.95c-.779-.357.699-.855 3.06-.934 2.337-.147 5.695.713 7.6 2.186 1.006.647 1.71 1.529 2.372 2.294.576.857 1.074 1.692 1.292 2.384.373 1.369.288 2.443-.335 2.903-.626.458-1.673.215-2.862-.552-.598-.346-1.2-.645-1.774-1.102-.664-.365-1.26-.936-1.967-1.366-2.6-1.81-4.211-4.317-7.386-5.813"/>
    <path fill="#dbdbdd" d="M297.236 2.49c-.911-.207.607-1.004 3.14-1.341 2.525-.357 5.876-.014 8.01.715 4.333 1.432 7.051 3.96 6.518 5.38-.552 1.481-4.323 1.25-8.243-.04-3.91-1.206-5.785-3.737-9.425-4.714"/>
    <path fill="#dbdbdd" d="M289.373 7.66c-.923.06.296-1.088 2.51-2.318 2.156-1.282 5.788-2.177 8.266-1.854 2.443.235 4.5 1.037 5.8 1.87 1.277.852 1.97 1.753 1.78 2.504-.378 1.57-4.258 1.6-8.072 1.219-1.926-.201-3.423-.514-5.08-.904-1.637-.326-3.343-.628-5.204-.517"/>
    <path fill="#dbdbdd" d="M281.73 12.301c-.863.057.247-1.07 2.195-2.337 1.885-1.293 5.05-2.567 7.503-2.504 2.359-.022 4.544.73 5.768 1.557 1.17.846 1.79 1.744 1.586 2.492-.204.749-1.194 1.206-2.628 1.337-1.398.19-2.906.228-4.677.228-3.314.085-6.23-.969-9.748-.773"/>
    <path fill="#dbdbdd" d="M281.892 16.912c-.525.15-.43-.917.563-2.224.985-1.336 3.001-2.354 4.272-2.481 1.335-.183 2.361.081 3.123.522.803.433 1.336 1.086 1.415 1.856.076.773-.319 1.516-1.018 2.096-.743.571-1.804.952-2.753 1.085-.999.117-1.687-.193-2.598-.533-.876-.327-1.927-.59-3.004-.321m158.666 16.276c.696.34-.737.66-1.997 1.78-1.369 1.118-3.093 3.257-5.556 4.332-1.142.533-2.698.795-4.048.512-.688-.128-1.287-.352-1.771-.675a4.216 4.216 0 0 1-1.238-1.007c-.735-.754-.775-1.296-.84-1.796-.044-.496.056-.907.318-1.192.26-.286.658-.425 1.15-.425.477-.014 1.162.229 1.576.112.215.002.427-.006.66-.055.219.008.42-.054.597-.114.364-.112.734-.223 1.4-.525 2.547-1.16 6.724-2.275 9.749-.947m-32.333 132.13c.236.665-.106.515-.765-.097-.647-.618-1.651-1.66-3.08-2.621-2.72-2.02-7.24-3.74-10.344-6.363-1.523-1.238-2.843-2.822-3.672-4.455-.42-.819-.768-1.608-.94-2.4-.22-.767-.366-1.497-.377-2.215-.13-1.445.106-2.357.38-3.032.267-.675.6-1.07.983-1.11.386-.041.792.272 1.191.879.384.612.792 1.562 1.306 2.337.993 1.742 2.318 3.8 4.742 5.702 2.351 1.96 4.71 3.829 6.533 6.041 1.853 2.197 3.213 4.646 4.043 7.335m-.308 20.905c.06 1.505-1.025-1.001-2.794-4.28-1.73-3.337-4.878-7.123-7.09-10.026-1.05-1.448-2.12-2.91-2.968-4.265-.882-1.412-1.627-2.743-2.147-3.886-.95-2.297-1.216-3.935-.574-4.368.642-.435 2.07.414 3.858 2.142a38.47 38.47 0 0 1 2.966 2.966c1.093 1.206 2.239 2.507 3.37 4.066 4.58 6.161 5.2 11.751 5.38 17.651m-2.494 17.052c.436 1.443-1.352-.55-3.354-4.038-2.014-3.505-3.817-8.393-5.072-11.563-.544-1.677-1.254-3.068-1.703-4.499-.615-1.23-.993-2.42-1.447-3.51-1.105-2.175-1.486-3.762-.884-4.249.604-.487 2.076.218 3.972 1.75.914.852 1.902 2.166 2.944 3.614.789 1.464 1.784 3.119 2.37 4.91 2.581 7.165 1.403 11.794 3.174 17.585"/>
    <path fill="#dbdbdd" d="M408.14 201.851c.088.64-.212.455-.726-.226-.585-.658-1.085-1.894-2.174-3.148-1.828-2.637-4.886-5.672-6.918-8.192a41.428 41.428 0 0 1-2.667-3.753 26.386 26.386 0 0 1-1.795-3.595c-.61-2.076-.65-3.554.022-3.938.674-.383 1.934.398 3.425 1.97.797.676 1.6 1.484 2.476 2.447.96.994 1.899 2.099 2.93 3.375 4.048 5.05 5.022 9.936 5.428 15.06m1.984 11.395c1.061 2.156-7.289-4.964-11.228-9.383-4.097-4.417-6.494-8.847-5.354-9.895 1.142-1.05 5.387 1.679 9.487 6.096 4.053 4.542 4.804 8.896 7.095 13.182m-1.294 14.862c.108 1.124-1.059-.57-2.776-2.803-1.7-2.26-4.246-5.068-5.816-7.435-.778-1.14-1.445-2.387-1.99-3.495-.535-1.2-.94-2.343-1.174-3.292-.313-1.865-.153-3.182.55-3.508.701-.327 1.817.397 3.049 1.834.65.64 1.314 1.385 1.989 2.27.762.917 1.469 1.937 2.255 3.096 3.058 4.6 3.453 8.861 3.913 13.333m-.625 23.586c-.15 1.633-.89-1.22-2.125-5.152-.364-.974-.65-2.044-1.088-3.102-.44-1.05-.892-2.134-1.341-3.212a91.289 91.289 0 0 1-1.521-3.07c-.482-.987-1.042-1.896-1.461-2.754-1.769-3.412-3.496-6.496-4.552-8.931-1.126-2.444-1.504-4.183-.876-4.632.631-.452 2.155.47 4.106 2.324 1.934 1.921 4.342 4.88 6.293 8.632 2.032 3.718 2.671 7.25 2.943 10.437.15 1.6.003 3.184.003 4.722-.07 1.554-.313 3.118-.38 4.738m-2.014 9.675c-.095.49-.329.272-.634-.324-.337-.601-.557-1.54-1.224-2.623-1.083-2.158-3.012-4.839-4.217-7.027a28.99 28.99 0 0 1-1.48-3.225 17.765 17.765 0 0 1-.843-3.042c-.16-1.72.133-2.91.849-3.195.723-.291 1.746.413 2.837 1.72.585.59 1.135 1.262 1.73 2.109a25.789 25.789 0 0 1 1.856 2.985c2.372 4.471 2.125 8.733 1.126 12.622m1.661 15.369c-.092.99-.938-.65-2.217-2.667-1.251-2.05-3.336-4.452-4.682-6.45a29.057 29.057 0 0 1-1.717-2.972c-.484-1.012-.857-2.003-1.083-2.835-.329-1.639-.19-2.842.49-3.214.677-.373 1.771.152 2.987 1.303a15.605 15.605 0 0 1 1.921 1.894 23.64 23.64 0 0 1 2.09 2.738c2.766 4.19 2.603 8.314 2.211 12.203m-290.267-47.746c-.297.495-.455.264-.48-.507.041-.732-.06-2.193.534-3.644.881-3.148 3.333-6.542 5-8.496.912-1.018 1.627-1.888 2.446-2.667a17.066 17.066 0 0 1 1.937-1.864c1.165-1.429 2.242-2.164 2.955-1.859.716.302.93 1.584.7 3.41a17.62 17.62 0 0 1-1.42 3.367c-.654 1.042-1.451 2.258-2.349 3.254-1.825 2.112-3.496 3.263-5.12 4.488-.868.58-1.496 1.25-2.304 1.94-.77.703-1.266 1.6-1.9 2.578m-2.39 16.638c-.283.569-.446.318-.492-.528-.03-.83-.049-2.343.403-3.976.72-3.377 2.609-7.46 4.233-9.996 1.649-2.596 3.284-4.64 4.669-6.003 1.376-1.5 2.562-2.267 3.25-1.905.684.36.749 1.763.265 3.75-.602 2.052-1.848 4.648-3.434 7.144-3.101 5.064-6.695 6.901-8.894 11.514m1.355 14.967c-.277.59-.443.343-.503-.52-.027-.433-.03-1.02.002-1.734.022-.362.044-.748.071-1.159.076-.392.196-.8.31-1.233.773-3.616 3.401-7.595 5.034-9.944.925-1.216 1.564-2.302 2.37-3.276.524-.942 1.196-1.669 1.749-2.501.968-1.85 1.942-2.904 2.696-2.722.753.183 1.142 1.565 1.161 3.65-.084 1.08-.53 2.509-1.055 4.025-.637 1.276-1.382 2.805-2.329 4.052-1.902 2.656-3.686 4.128-5.365 5.723-.884.767-1.521 1.614-2.337 2.49-.74.898-1.21 1.976-1.804 3.149m1.045 19.294c-.294.656-.435.302-.47-.642-.082-.972.154-2.39-.006-4.295-.038-1.72-.174-4.302.01-6.548.142-2.008.646-4.868 1.644-6.604 1.812-3.729 4.435-6.11 6.418-7.58 2.046-1.461 3.55-1.926 4.108-1.407.577.54-.027 2.093-1.189 4.093-1.14 2.03-2.965 4.559-4.287 7.343-2.42 5.315-3.491 10.518-6.228 15.64m3.64 18.06c-.328 1.472-.785-1.168-1.384-5.158-.658-4.166-.75-9.835.862-13.95 1.521-3.897 3.6-6.713 5.102-8.637 1.537-1.848 2.764-3.125 3.482-2.763.664.338.827 1.96.07 4.531-.69 2.542-2.168 5.65-3.403 8.845-.568 1.62-1.055 2.966-1.463 4.398-.428 1.562-.947 2.99-1.23 4.264-.751 2.61-1.363 5.511-2.035 8.47m5.48 16.311c-.209.716-.394.365-.552-.558-.09-.922-.451-2.416-1.025-4.169-.62-1.81-1.524-3.804-2.136-6.441-.569-2.327-.631-5.245-.05-7.297.983-4.286 3.39-7.296 5.293-9.11 2.016-1.865 3.523-2.341 4.113-1.895 1.273 1.113-2.435 6.126-3.942 12.287-.174.768-.354 1.489-.416 2.186l-.164.92-.065 1.21c-.062.809-.024 1.318-.081 2l.016 2.142c.03 2.874-.016 5.895-.99 8.725m5.053 23.097c-.136.915-.356.621-.606-.623-.297-1.24-.177-3.44.266-5.804.202-1.195.46-2.425.629-3.639.13-.648.1-1.127.171-1.676.068-.504.006-1.31.02-1.949-.18-1.875-.991-4.564-1.473-6.7-.497-2.196-.884-4.447-.862-6.654.008-2.185.49-4.392 1.553-5.97.972-1.527 2.46-2.523 3.309-2.722.862-.185 1.442-.139 1.662.18.223.318.063.876-.416 1.616-.435.77-.667 1.486-.952 2.59-.525 2.06.163 5.452 1.18 9.719.48 2.139.871 4.205.882 6.36-.027.62-.025.98-.106 1.769-.095.446-.19.884-.286 1.32-.207.86-.59 1.967-.936 2.776-1.436 3.295-3.537 5.695-4.035 9.407m270.936-44.858c.153.528-.122.492-.69.022-.504-.493-1.584-1.334-2.286-2.651-1.738-2.561-2.78-6.455-3.156-8.905-.182-1.295-.343-2.384-.386-3.48-.12-.953-.098-1.835-.087-2.68-.147-1.762.122-2.994.84-3.28.721-.286 1.758.43 2.849 1.818.506.767.993 1.85 1.453 3.059.337 1.107.696 2.427.873 3.687.392 2.62.199 4.537.063 6.488-.115.988-.047 1.883-.06 2.904.027.993.307 1.946.587 3.018m-3.671 23.135c-.48.378-.444-.014-.22-.691.307-.637.358-1.745.078-3.06-.55-2.688-2.808-6.435-4.018-9.323-1.244-2.884-2.141-5.81-2.201-8.188-.123-2.681.827-3.775 1.548-3.797.792-.032 1.374 1.483 2.301 2.836.925 1.655 2.25 4.022 3.51 6.94 1.249 2.914 1.828 5.636 1.82 8.31-.008 1.34-.19 2.673-.587 3.925-.487 1.241-1.14 2.406-2.231 3.048m-5.381 17.008c-.552.346-.484-.021-.106-.743.171-.37.52-.764.653-1.352.087-.28.215-.55.294-.852.035-.31.073-.637.114-.974.19-2.678-1.845-6.453-3.161-9.408-1.3-2.94-2.354-5.963-2.47-8.45-.18-2.798.79-3.919 1.504-3.96.797-.054 1.374 1.554 2.331 2.948.958 1.711 2.408 4.13 3.777 7.214 1.349 3.062 1.956 6.107 1.556 9.024-.351 2.958-2.163 5.416-4.492 6.553m-7.738 16.658c-.634.324-.49-.065 0-.77l.433-.566c.103-.248.22-.523.342-.822.15-.264.264-.572.302-.95.047-.37.196-.68.188-1.108.294-3.224-1.24-7.938-2.122-11.35-.895-3.435-1.6-6.717-1.681-9.28-.052-1.209.04-2.534.312-3.171.283-.691.623-1.086 1.01-1.113.386-.027.783.318 1.17.963.424.689.832 1.287 1.368 2.403a49.073 49.073 0 0 1 3.254 8.793c.944 3.639 1.045 6.91.408 9.936-.593 2.977-2.28 5.949-4.984 7.035m-248.45-2.1c.058.545-.206.466-.693-.122-.496-.574-1.173-1.733-1.521-3.287-.8-3.16 0-7.274.794-9.637a46.23 46.23 0 0 1 2.37-5.747c.688-1.225 1.306-2.534 2.106-2.455.737.079 1.57.863 1.828 2.985.272 1.944-.155 4.526-.969 6.96-.816 2.451-1.817 4.035-2.669 5.69-.835 1.619-1.545 3.423-1.246 5.614m5.841 15.157c-.193 1.209-.925-.87-1.725-3.981-.818-3.062-1.743-7.52-1.107-10.99.068-.843.297-1.665.593-2.446.289-.78.52-1.524.884-2.212.863-1.336 1.7-2.624 2.5-3.263 1.633-1.228 2.944-1.747 3.551-1.268.607.484.395 1.875-.438 3.733-.38.937-.438 1.862-.846 2.803-.136.512-.207 1.122-.356 1.69-.16.57-.305 1.17-.346 1.837-.661 5.122-1.836 9.253-2.71 14.097m9.206 15.614c-.357 1.23-.64-1.067-1.79-3.867-1.048-2.823-3.622-6.192-4.593-9.866-.495-1.755-.577-3.72-.204-5.366.15-.838.403-1.584.732-2.235a7.51 7.51 0 0 1 1.012-1.75c.724-1.069 1.412-1.532 1.997-1.86.585-.32 1.064-.4 1.396-.202.334.201.487.661.478 1.325-.002.653-.236 1.576-.274 2.414-.202 1.802-.45 3.832.293 6.265.653 2.47 1.48 5.091 1.657 7.655.226 2.583-.076 5.051-.704 7.487m8.743 16.703c.19 1.51-1.257-.787-2.598-4.635-1.366-3.84-2.258-9.168-2.386-12.883-.155-3.745.079-7.04.495-9.438.384-2.436 1.004-3.965 1.78-4.006.772-.04 1.55 1.41 2.184 3.794.601 2.424.996 5.794 1.148 9.408.351 7.214-1.265 11.683-.623 17.76m9.873 8.583c.032.553-.259.354-.694-.182-.215-.267-.433-.61-.84-1.026a31.301 31.301 0 0 1-1.353-1.647c-1.926-2.645-3.227-6.953-3.45-9.92-.386-5.978 1.1-10.411 2.596-10.441 1.597-.038 2.647 4.694 2.998 9.974.169 1.292.084 2.514.109 3.614.07 1.08.043 2.128-.017 3.198-.233 2.043.604 4.13.65 6.43m15.775 11.048c-.199.664-.386.34-.563-.523-.16-.854-.357-2.253-1.061-3.71-1.222-2.952-4.484-6.122-6.633-9.067-2.144-2.866-3.678-6.316-3.7-9.057 0-.718.04-1.352.114-1.886.09-.511.28-.863.433-1.195.326-.64.688-.998 1.077-1.004.386-.005.762.34 1.107.972.183.3.313.735.517 1.116.223.356.436.737.626 1.14.876 1.755 2.378 3.93 4.372 6.621 1.962 2.68 3.474 5.427 4.155 8.284.707 2.86.497 5.715-.444 8.309m11.123 9.404c.003.571-.245.473-.672-.18-.21-.329-.465-.797-.743-1.393-.247-.585-.391-1.236-.595-1.981-.392-1.489-.577-2.697-1.067-4.382l-.147-.588-.166-.421c-.103-.28-.204-.561-.302-.83-.31-.585-.473-1.097-.77-1.658-1.023-2.147-2.097-4.637-2.157-6.877-.008-.56-.011-1.086.079-1.472a5 5 0 0 1 .391-.923c.289-.517.632-.816 1.015-.851.387-.036.781.196 1.16.65.19.226.377.506.557.838.204.294.452.517.65.8.814 1.143 2.125 2.863 3.401 5.49a10.897 10.897 0 0 1 1.042 4.188c-.016 1.306-.144 2.193-.416 3.363-.509 2.3-1.399 3.895-1.26 6.227m16.58 8.277c.209.49-.12.425-.694.098-.55-.359-1.478-.789-2.702-1.232-.604-.234-1.322-.455-2.108-.779-.716-.258-1.856-.862-2.449-1.227-1.028-.7-1.575-1.3-2.304-2.011-.58-.808-1.225-1.54-1.518-2.384-1.44-3.353-.855-6.21-.39-7.898.528-1.769 1.241-2.838 2.014-2.835.775.002 1.466 1.107 1.956 2.852.495 1.774.778 3.965 1.532 5.568a19.36 19.36 0 0 0 2.96 4.596c1.338 1.519 2.968 3.23 3.703 5.252m9.54 5.524c.247.398.122.51-.346.33a5.66 5.66 0 0 1-.95-.51c-.373-.269-.71-.742-1.118-1.281-.618-1.143-.906-2.708-.988-4.014-.098-1.298-.258-2.417-.506-3.173l.085.315c-.223-.359-.414-.71-.583-1.05a12.6 12.6 0 0 1-.63-.99c-1.195-1.802-2.672-3.881-3.26-5.863a9.54 9.54 0 0 1-.316-1.39c0-.373.041-.7.104-.983.125-.568.364-.952.72-1.102.36-.147.8-.049 1.296.259.247.152.503.364.775.61.283.173.566.37.838.584 1.135.953 2.86 2.34 4.554 4.836.335.575.648 1.119.89 1.693.215.604.392 1.192.536 1.755l.082.308c.144 2.485-.765 3.992-1.303 5.342-.583 1.282-1.002 2.828.12 4.324m19.044 3.518c.775.692-1.072.417-3.72-.158-1.327-.302-2.888-.669-4.518-1.366-1.608-.664-3.357-1.872-4.342-3.388-.985-1.475-1.442-3.119-1.5-4.455-.075-1.35.099-2.484.384-3.429.56-1.81 1.418-2.631 2.169-2.61 1.676.036 1.904 4.885 3.583 7.335.778 1.216 2.174 2.492 3.567 3.886 1.417 1.377 2.813 2.8 4.377 4.185m7.246 1.773c.37.253.296.493-.566.433-.71-.106-1.7-.645-2.539-1.36-1.735-1.446-3.409-3.685-4.181-5.454-.778-1.77-1.102-3.53-1.007-4.918.052-.656.182-1.388.44-1.774.27-.39.602-.634.983-.702.38-.069.778.051 1.17.323.41.267.775.48 1.194.966.816.901 1.657 2.254 2.354 3.84.702 1.587.865 3.032.974 4.472.054.72.092 1.445.22 2.147.144.71.258 1.45.958 2.027m9.528 1.995c-.267.703-.806-.67-1.714-2.008-.876-1.372-2.473-2.811-3.58-4.15-.493-.648-1.035-1.372-1.413-2.052-.421-.727-.77-1.475-.966-2.115-.304-1.262-.168-2.267.458-2.724.625-.457 1.63-.27 2.747.384.566.28 1.119.629 1.709 1.116.628.536 1.246 1.105 1.858 1.902 2.487 3.08 2.076 6.967.9 9.647m9.524-.644c-.24.648-.876-.528-1.624-1.937-.732-1.445-1.89-2.893-2.606-4.148-.675-1.24-1.233-2.645-1.374-3.818-.134-1.162.111-2.09.767-2.501.658-.414 1.6-.234 2.593.392.987.615 2.06 1.64 2.938 3.23.895 1.554.966 3.293.713 4.746-.294 1.492-.928 2.757-1.407 4.036m7.224-2.474c-.43.762-.843-.756-.402-3.295.44-2.675 2.957-5.383 4.445-6.548.846-.656 1.442-1.113 2.177-1.538.509-.386 1.085-.585 1.67-.914 1.151-.827 2.188-1.124 2.835-.7.648.428.784 1.497.482 2.88-.223.71-.795 1.608-1.458 2.515-.607.699-1.429 1.545-2.18 2.122-1.643 1.268-2.802 1.712-4.168 2.354-.606.346-1.2.751-1.869 1.22a12.22 12.22 0 0 0-1.532 1.904m12.775-1.434c-.816.387-.106-1.12 1.216-2.969 1.325-1.84 2.963-4.071 3.768-5.385.844-1.326 1.306-2.178 1.635-3.133.071-.198.172-.416.28-.648.055-.283.082-.58.164-.816.147-.484.397-.83.75-.988.354-.16.776-.12 1.241.09.232.114.474.234.721.457.242.291.498.672.738 1.135.424.893.658 2.041.53 3.331-.155 1.263-.645 2.553-1.357 3.639-1.456 2.155-3.208 3.007-4.83 3.635-1.64.615-3.254.915-4.856 1.652m16.123-6.373c-.406.71-.874-.8-.392-2.999.484-2.158 1.619-4.534 2.282-5.82.68-1.318 1.19-2.072 1.603-2.834.12-.174.234-.337.343-.492.12-.2.155-.493.269-.689.201-.424.484-.721.846-.854.365-.137.776-.093 1.205.098.213.117.436.185.65.44.218.275.436.632.632 1.064.764 1.59.419 4.093-.601 5.917-2.027 3.617-4.996 3.5-6.837 6.17m12.078-4.247c-.941.838-.09-1.285.93-4.05.316-.696.387-1.382.553-2.033.206-.533.223-1.649.359-2.482.212-1.67.715-3.777 1.208-5.26 1.36-3.143 3.123-5.157 4.54-6.553 1.429-1.388 2.642-2.05 3.309-1.652.666.397.656 1.774.1 3.685-.557 1.905-1.76 4.324-2.734 6.591-.402 1.24-.83 2.349-1.368 3.37-.577 1.256-.93 2.157-1.736 3.3-.4.555-.803 1.07-1.197 1.551-.416.45-.882.817-1.311 1.217-.847.803-1.78 1.478-2.653 2.316m14.465-10.426c-.479.778-.715-.865-.503-3.287.226-2.439.966-5.4 1.453-7.218.277-.928.533-1.796.818-2.552.207-.76.57-1.364.825-2.074.52-1.402 1.227-2.264 2.002-2.256.776.008 1.47.884 1.967 2.294.253.694.294 1.747.316 2.836a13.854 13.854 0 0 1-.544 3.33c-1.423 4.51-4.443 5.781-6.334 8.927m7.486-3.19c-.599.266-.498-.077.003-.754.506-.661 1.4-1.696 2.032-3.064.67-1.345 1.094-2.964 1.246-4.681.147-1.72.076-3.527.084-5.076-.016-3.102.087-6.18.667-8.43.582-2.398 1.513-3.46 2.26-3.419.795.046 1.241 1.606 1.707 3.508.44 2.044.955 4.893.98 8.344.029 3.429-.901 6.537-2.572 8.872-1.679 2.367-3.975 3.76-6.407 4.7m12.573-14.811c-.468.645-.688-.803-.645-2.841.095-2.09.22-4.374.033-5.536-.16-1.336-.155-2.31-.289-3.644-.166-1.295.068-2.289.74-2.672.675-.387 1.657-.09 2.705.7 1.023.764 2.299 2.946 2.446 5.284.122 2.477-.934 4.058-1.908 5.269-1.03 1.2-2.157 2.16-3.082 3.44m10.5-7.17c-.348.855-.805-.854-1.131-3.157-.09-1.148-.457-2.479-.664-3.763a29.422 29.422 0 0 1-.261-1.884c-.09-.59-.242-1.102-.3-1.597a15.897 15.897 0 0 1-.155-2.817c-.087-.95-.196-1.875-.157-2.65.051-1.568.451-2.651 1.191-2.882.74-.232 1.679.435 2.598 1.698.45.642.934 1.385 1.314 2.332.31 1.034.575 2.22.757 3.483.596 5.035-1.752 7.835-3.192 11.237m4.732-9.165c-.128.536-.351.389-.612-.354-.321-.73-.406-2.145-.09-3.71.313-1.453.955-3.205.966-3.978.043-.223.054-.735.092-1.08.03-.273-.057-.518-.054-.757.03-.47-.158-.936-.193-1.358-.376-1.734-1.36-3.949-1.592-5.925a9.041 9.041 0 0 1-.079-1.396c.049-.37.147-.677.248-.947.215-.536.511-.873.887-.966.375-.092.797.07 1.237.446.22.183.438.439.672.705.25.22.496.457.732.716.936 1.157 2.552 2.896 3.377 6.161.683 3.467-.713 6.064-2.22 7.667-1.415 1.477-2.925 2.533-3.371 4.776m7.718-11.776c.11.47-.065.508-.47.166-.427-.33-1.053-1.067-1.57-2.248-.446-1.165-.716-2.708-.765-4.137-.06-1.415-.095-2.735-.193-3.837l.008.223a19.046 19.046 0 0 1-.53-2.245c-.272-1.165-.577-2.3-.767-3.448-.229-1.217-.397-2.34-.378-3.252.092-1.805.525-3.01 1.281-3.184.756-.174 1.69.715 2.587 2.294.468.767.988 1.6 1.44 2.582.457 1.054.974 2.325 1.303 3.737.198 1.097.307 2.13.343 3.075l.008.218c-.278 2.259-1.127 3.79-1.744 5.236-.629 1.42-1.086 3.007-.553 4.82m4.87-10.655c-.271.92-.897-.697-1.351-3.162-.417-2.498-.702-5.497-1.154-7.114-.027-.463-.21-.827-.302-1.225-.125-.367-.12-.838-.283-1.123-.313-.654-.231-1.304-.623-2.05-.61-1.434-.7-2.58-.12-3.097.577-.514 1.714-.304 3.083.455.672.294 1.458 1.303 2.228 2.27.438.503.599 1.088.892 1.695.248.607.545 1.249.615 1.921.117.672.19 1.317.223 1.932-.035.583-.1 1.14-.187 1.671-.147 1.089-.545 1.93-.88 2.812-.736 1.687-1.599 3.19-2.14 5.015m-24.281-196.893c7.155.234 4.494.868-4.712 1.706-4.604.414-10.847.98-18.307 1.061-3.73.085-7.77.213-12.058.243-4.285-.09-8.818-.188-13.55-.286-18.919-.62-40.953-2.58-62.528-5.791-21.57-3.236-42.657-7.596-60.012-11.738-34.686-8.406-65.42-17.988-87.447-25.5-21.991-7.54-35.393-13.1-34.838-15.106.547-1.978 14.895-.04 37.678 4.91 22.764 4.906 53.834 12.836 88.108 21.142 34.278 8.27 61.814 14.726 88 19.864 26.173 5.034 51.045 8.812 79.666 9.495M127.676 393.549c-.757.324-.645-.117-.025-.982.623-.852 1.744-2.167 2.699-3.87a22.626 22.626 0 0 0 2.37-5.759c.517-2.073.734-4.174.916-5.943.691-7.076.036-13.613 2.106-14.252.985-.213 2.367.939 3.621 3.698 1.211 2.643 2.15 6.67 1.72 11.278-.422 4.602-2.473 8.186-4.938 10.668-2.509 2.509-5.414 3.967-8.47 5.162"/>
    <path fill="#dbdbdd" d="M98.134 381.896c-.96-.196-.525-.482.67-.8.595-.14 1.376-.31 2.306-.645.92-.243 1.98-.673 3.12-1.11 2.286-.94 4.895-2.189 7.523-3.506 2.61-1.27 5.178-2.523 7.31-3.562l1.467-.65c.48-.23.92-.561 1.374-.82a54.564 54.564 0 0 1 2.67-1.507c1.697-1.08 3.278-2.06 4.709-2.79 2.859-1.625 4.967-2.242 5.648-1.467.683.779-.194 2.803-2.163 5.449a41.165 41.165 0 0 1-4.087 4.343c-.9.718-1.871 1.456-2.9 2.196-.522.36-1.017.768-1.602 1.086-.604.291-1.216.588-1.84.887-2.603 1.257-4.54 1.864-6.627 2.368-2.027.506-4.024.879-5.985 1.07-3.905.383-7.76.348-11.593-.542"/>
    <path fill="#dbdbdd" d="M93.13 370.369c-.998-.392-.502-.588.869-.648 1.363-.027 3.624-.06 6.255-.465 5.278-.694 11.968-3.198 16.993-4.83 5.008-1.598 9.857-2.787 13.549-3.016 3.827-.264 5.985.422 6.205 1.399.237 1.037-1.92 2.272-4.886 3.728-3.11 1.475-7.444 3.375-12.621 5.027-10.368 3.249-18.514 2.079-26.363-1.195"/>
    <path fill="#dbdbdd" d="M104.496 358.356c-1.363-.67 1.474-.882 5.226-.762 1.864.073 4.31-.125 6.573-.05 1.86.025 3.621-.353 5.243-.66 3.213-.64 6.562-1.405 9.28-1.424 1.404-.043 2.457.139 3.205.457.762.3 1.23.705 1.333 1.214.103.506-.172 1.064-.754 1.641-.604.563-1.488 1.179-2.448 1.81-2.03 1.22-5.074 2.808-9.215 3.655-2.068.419-4.136.364-6.002.024l-.378-.049-.142-.046-.282-.093-.556-.19-1.082-.406a43.375 43.375 0 0 1-2.07-.876c-2.7-1.075-5.24-2.98-7.931-4.245M450.393 58.71c1.51 1.979.697 1.367-1.52-.846-2.272-2.155-6.53-5.407-12.423-8.014-2.89-1.383-6.211-2.564-9.623-3.8-3.52-1.2-7.016-2.446-10.594-3.344-7.112-1.919-14.327-2.765-20.18-2.43-1.436.141-2.785.16-4.249.359-1.445.245-2.87.484-4.271.721a83.07 83.07 0 0 0-7.877 2.104c-4.916 1.61-9.09 3.622-12.166 5.84-3.061 2.212-4.995 4.662-6.073 6.441-.59.841-.968 1.704-1.284 2.243-.326.536-.585.795-.773.748-.19-.049-.293-.4-.323-1.028-.033-.632-.033-1.505.337-2.744.612-2.433 2.35-5.698 5.585-8.716 3.216-2.997 7.724-5.63 12.962-7.656A69.76 69.76 0 0 1 386.3 36c1.716-.368 2.987-.572 4.54-.863 1.534-.234 3.27-.319 4.933-.466 6.6-.285 12.433.73 17.64 2.167 5.186 1.44 9.882 3.412 14.093 5.413 4.31 2.013 8.437 4.155 12.357 6.732 3.929 2.545 7.607 5.71 10.53 9.73m-73.93 15.507c.296.874-1-.21-3.124-.683-2.171-.536-5.37-.79-7.721-1.38-2.326-.582-4.522-1.513-5.948-2.697-1.627-1.284-1.795-2.416-1.42-3.056.397-.683 1.736-.547 2.996-.585 1.447.082 3.436.318 5.748.895a14.767 14.767 0 0 1 5.782 2.871c1.572 1.282 2.957 2.866 3.686 4.635m5.687 11.81c.67-.158.58.13-.193.753-.745.561-2.555 1.375-4.745.912-2.193-.376-4.255-1.755-5.893-3.282a20.427 20.427 0 0 1-2.176-2.441l-1.461-1.962c-.827-1.059-1.565-1.75-2.413-2.384-.912-.59-1.94-1.151-2.873-1.671-1.845-1.048-2.993-2.058-2.773-2.809.215-.737 1.622-1.113 3.872-1.004 1.115.05 2.51.256 4.14.885 1.638.688 3.314 2.008 4.473 3.532 1.151 1.57 1.73 2.806 2.294 3.826.587 1.078 1.145 2.069 1.785 2.958.639.888 1.363 1.699 2.347 2.251.972.555 2.272.781 3.616.436m17.978-.524c.68-.232.517.111-.144.778-.67.648-1.799 1.611-3.167 2.972-1.369 1.284-3.477 3.078-5.284 4.074l-.35.217-.178.11-.087.051-.043.027-.297.128-.903.324c-.601.204-1.2.427-1.796.58-1.194.18-2.375.451-3.398.378-4.184-.02-7.454-1.342-9.606-2.42-2.155-1.126-3.366-2.19-3.162-2.936.202-.751 1.807-1.031 4.2-.892 2.392.111 5.478.642 8.525.636 1.531.011 2.832-.13 4.1-.304l.24-.025.122-.01h.013c.052-.023-.432.184-.226.097l.006-.003.008-.002.033-.011.068-.022.533-.169 1.053-.31c.69-.201 1.417-.351 1.964-.58 2.348-.74 5.033-1.91 7.776-2.688M245.744 573.8c.225-.534.361-.572.413-.12.003.44.117 1.434-.253 2.811a12.695 12.695 0 0 1-2.525 4.958c-2.8 3.699-7.98 6.63-13.995 9.136-3.017 1.25-6.3 2.406-9.62 3.652-3.12 1.168-6.695 2.784-10.417 4.336-7.409 3.156-15.633 6.259-24.551 9.165-2.158.615-4.337 1.236-6.525 1.862l-3.292.925-.827.231-.59.147-.435.096-1.744.375c-4.63.969-9.44 2.115-13.916 2.754-2.272.373-4.541.743-6.802 1.11-2.576.392-4.848.648-7.31.855-2.43.193-4.873.313-7.42.27-2.562-.071-5.144-.2-8.292-1.024-1.575-.468-3.36-.99-5.57-2.724-1.074-.898-2.263-2.136-3.03-3.91-.42-.839-.62-1.759-.795-2.673-.13-.879-.122-1.704-.081-2.536.348-3.114 1.406-4.763 2.258-6.213.84-1.391 2.108-2.842 2.617-3.413 3.602-3.57 6.903-6.52 10.401-8.771l2.558-1.78c.876-.552 1.79-1.048 2.68-1.57 1.776-.999 3.61-2.098 5.316-2.97 1.66-.794 3.308-1.58 4.94-2.364l1.227-.583.292-.13.084-.033.169-.065.331-.128.67-.256 2.655-1.018c6.984-2.887 14.039-4.74 20.745-6.24l9.881-1.684 9.33-.841c3.009-.327 5.887-.22 8.665-.324 2.772-.05 5.433-.104 7.944.027 20.138.727 32.226 2.95 32.267 4.923.044 2.158-12.373 3.69-31.826 5.652-9.661 1.209-21.131 2.36-33.121 5.675-5.97 1.717-12.175 3.622-18.3 6.37l-2.334.956-.587.24-.294.119-.147.06-.074.03-.038.016c-.201.092.234-.112.174-.084l-1.21.61c-1.622.81-3.257 1.624-4.903 2.448-1.553.83-2.876 1.685-4.347 2.52-.719.425-1.453.822-2.166 1.269l-2.07 1.467c-1.325 1.004-2.9 1.853-3.997 2.93-1.173 1.026-2.509 1.865-1.08 1.96 2.88.182 5.92.141 8.907.005l2.234-.128c.509-.013 1.49-.122 2.206-.176l4.636-.387c3.085-.234 6.097-.468 8.908-.849 2.805-.348 5.82-.62 8.39-.982 2.876-.488 5.722-.967 8.546-1.443 10.912-2.087 21.602-4.79 32.419-7.91 5.534-1.601 11.146-2.496 16.661-4.121 2.759-.817 5.52-1.777 8.14-3.195 2.59-1.412 5.126-3.383 6.609-6.284.802-1.423.939-2.509 1.21-3.031Zm37.32-2.657c-1.304 0-2.803.234-3.91.51 1.232-44.76 4.41-91.46 7.441-136.05.59-8.703 14.199-8.763 13.603 0-3.118 45.864-7.305 92.033-8.407 138.063-2.192-2.566-4.325-2.523-8.727-2.523"/>
    <path fill="#dbdbdd" d="M277.942 575.197c.076-.474.201-.495.37-.147.364.678.555 2.925 2.786 5.407 2.084 2.559 6.374 5.07 11.946 7.452 2.81 1.202 5.945 2.378 9.378 3.769 3.63 1.483 6.992 3.151 10.594 4.811 7.188 3.397 15.04 6.763 22.995 9.893 2.111.74 4.242 1.485 6.383 2.237l3.227 1.129.808.283.204.073.051.017c-.057-.022.196.073-.114-.044l.098.027.397.115 1.592.452c4.288 1.183 8.38 2.514 12.961 3.535 2.24.547 4.473 1.094 6.695 1.638 1.924.454 4.158.906 6.19 1.25 2.065.347 4.108.625 6.023.764 1.883.147-.081-.61-1.14-1.837-.497-.653-1.115-1.257-1.787-1.832l-1.899-1.741-1.855-1.726c-.645-.539-1.323-1.028-1.976-1.548-1.35-1.023-2.543-2.047-3.974-3.075l-4.533-3.081-1.118-.765c-.055-.035.348.223.16.106l-.035-.021-.068-.039-.139-.078-.275-.158-.55-.316-2.19-1.257c-5.702-3.54-11.598-6.257-17.286-8.752-11.44-4.883-22.655-7.552-32.071-10.037-19.015-4.534-31.12-7.704-30.787-9.835.302-1.954 12.577-2.547 32.631-.588 2.509.207 5.137.612 7.88 1.034 2.739.471 5.606.749 8.545 1.475 2.946.67 5.996 1.36 9.136 2.074 3.101.969 6.293 1.965 9.566 2.985 6.45 2.382 13.192 5.157 19.73 8.951l2.497 1.36.629.344.313.171.157.087.08.044.271.168 1.138.74c1.515.994 3.044 1.993 4.581 3.002 1.575 1.092 3.249 2.422 4.873 3.653.816.634 1.651 1.249 2.448 1.91l2.297 2.106c1.507 1.475 3.096 2.673 4.453 4.355 1.366 1.635 2.713 3.254 4.046 4.852.925 1.26.974 1.347 1.877 2.874.708 1.227 1.26 2.435 1.769 4.071.44 1.693.897 3.973.002 6.882a10.258 10.258 0 0 1-2.241 3.819c-.977 1.047-1.97 1.709-2.909 2.226-3.667 1.777-5.988 1.66-8.213 1.785-2.185.019-4.106-.177-5.961-.425-3.687-.517-7.047-1.298-10.3-2.185l-2.417-.694c-1.028-.294-1.575-.5-2.378-.754l-4.418-1.456c-2.911-.947-5.787-1.921-8.695-3.105-2.925-1.165-5.63-2.15-8.595-3.45-2.633-1.255-5.242-2.493-7.827-3.723-10.515-5.348-20.04-11.215-29.522-17.33-4.633-3.002-9.789-5.47-14.738-8.578-2.464-1.552-4.897-3.236-7.038-5.264-2.125-2.01-3.956-4.476-4.59-7.28-.389-1.385-.171-2.342-.138-2.805ZM122.226 319.99c-13.72-6.354-37.123-7.87-36.43-27.203.444-12.352 4.599-24.346 9.977-35.36 5.66-11.593 12.75-22.74 20.675-32.907 1.744-2.234 15.676-22.043 19.36-27.968-.06-.294-1.551-1.513-1.59-1.815-1.446-2.321-6.23 1.595-7.932-1.132-15.318 19.159-37.015 47.11-46.154 69.07-6.711 16.13-13.864 38.11-.127 52.485 10.839 11.345 28.868 12.38 41.936 19.994 4.532 2.643 6.121 6.619 7.095 11.533.922 4.654-3.028 10.603-1.276 14.394 5.074 10.967 12.257-4.362 13.625-8.423 5.15-15.289-6.486-26.798-19.159-32.668m284.432 71.99c.59.621.19.705-.917.357-1.107-.337-2.95-1.154-4.818-2.73-1.886-1.532-3.801-3.807-5.09-6.39a22.556 22.556 0 0 1-2.21-7.638c-.43-4.605.509-8.633 1.717-11.275 1.257-2.76 2.636-3.911 3.621-3.701 2.073.642 1.415 7.176 2.109 14.254.337 3.538.63 6.292 1.281 9.114.672 2.776 1.877 5.598 4.307 8.01"/>
    <path fill="#dbdbdd" d="M436.621 380.436c1.02.139.708.446-.642.838-.68.215-1.618.417-2.726.452-1.134.122-2.41.054-3.814-.05-2.778-.266-5.934-.943-8.886-1.817-2.979-.876-5.558-1.712-8.189-2.996-.62-.302-1.232-.596-1.84-.89-.581-.319-1.076-.727-1.602-1.083a77.976 77.976 0 0 1-2.9-2.196 41.432 41.432 0 0 1-4.086-4.344c-1.967-2.645-2.846-4.67-2.163-5.445.68-.779 2.789-.164 5.65 1.464 1.432.73 3.012 1.709 4.71 2.786.873.463 1.763.967 2.666 1.51.457.26.898.589 1.377.82.482.212.969.43 1.464.648 1.823.903 3.986 1.994 5.768 2.963 1.82 1.02 3.4 2.05 4.973 3.01 3.131 1.894 6.14 3.84 10.24 4.33"/>
    <path fill="#dbdbdd" d="M441.741 368.89c1.105-.07.805.302-.525.956-1.317.68-3.746 1.505-6.774 1.864-3.02.37-6.593.296-9.999-.185-3.411-.474-6.635-1.293-9.23-2.099-5.178-1.651-9.512-3.551-12.622-5.026-2.966-1.459-5.123-2.691-4.889-3.726.223-.977 2.378-1.665 6.208-1.401 3.692.228 8.54 1.418 13.55 3.015 5.016 1.595 8.743 3.247 12.449 4.594 3.676 1.317 7.411 2.384 11.832 2.008"/>
    <path fill="#dbdbdd" d="M430.394 356.872c1.57-.027-.745 1.407-4.704 3.12-1.988.864-4.179 1.36-6.423 1.972l-.835.204-.207.052-.052.01-.28.03-.125.012-.503.043c-.675.046-1.342.09-1.992.13-1.249-.062-2.5-.114-3.507-.348-4.14-.846-7.185-2.435-9.215-3.652-.957-.631-1.844-1.246-2.448-1.81-.583-.576-.857-1.134-.754-1.64.103-.507.571-.915 1.333-1.214.751-.319 1.801-.5 3.205-.457 2.72.016 6.067.78 9.28 1.423 1.532.288 2.911.55 4.217.797l.063.014.03.005.016.006h.006c.046-.003-.39.04-.202.022h.003l.15.008.296.016.588.04 1.148.112c.756.088 1.496.194 2.225.31 1.478.262 2.868.531 4.247.605 1.401.125 2.87.215 4.44.19"/>
    <path fill="#dbdbdd" d="M410.666 318.76c13.72-6.355 37.123-7.871 36.43-27.204-.444-12.353-4.599-24.346-9.978-35.36-5.658-11.593-12.748-22.74-20.674-32.907-2.342-3.002-4.611-6.066-6.72-9.24-1.972-2.968-4.331-6.207-5.52-9.592-.53-1.516-.536-3.149-1.031-4.667-.988-4.695-.014.15-.03.147-.188-.732.196-1.288.414-1.973.568-1.794.312-3.843.886-5.598.534-1.633 1.467-.55 2.278.46 15.858 19.812 36.26 45.123 46.038 68.617 6.712 16.13 13.865 38.111.128 52.486-10.841 11.345-28.871 12.38-41.938 19.994-4.31 2.514-6.633 6.727-7.839 11.438-.566 2.213-1.825 7.481-.897 9.558.965 2.163 4.353 2.33 4.535 5.132.261 3.998-5.017 5.236-7.915 3.984-4.02-1.739-6.01-8.697-7.326-12.608-5.15-15.289 6.486-26.798 19.159-32.668M236.173 85.558c.177 1.146-.25.767-1.01-.5-.72-1.263-1.863-3.452-3.816-5.302-1.878-1.916-4.49-3.415-7.392-4.142-2.914-.73-6.021-.765-8.62-.732-10.542.294-19.427 3.227-20.353 1.249-.353-.933 1.206-2.792 4.87-4.784 3.54-1.91 8.924-3.764 15.326-3.946 6.366-.218 11.9 2.024 15.497 5.527 3.656 3.56 5.063 8.058 5.498 12.63m31.282 6.96c-1.866.84-1.374.228.778-1.367 1.102-.748 2.506-1.97 4.495-2.868.98-.493 2.04-1.023 3.164-1.587 1.145-.522 2.435-.884 3.757-1.358 5.308-1.739 12.017-2.604 18.55-1.815 6.526.781 12.689 3.03 17.412 5.49 9.481 5.007 16.296 12.025 20.165 17.656 1.937 2.93 3.308 5.317 3.899 7.1.666 1.772.835 2.89.408 3.181-.427.292-1.407-.27-2.816-1.537-1.368-1.345-3.316-3.122-5.517-5.312-4.596-4.393-11.275-10.062-19.616-14.462-1.012-.612-2.065-1.056-3.083-1.519-1.023-.446-1.991-.977-2.984-1.36-2.01-.68-3.877-1.606-5.795-2.05-.95-.285-1.883-.566-2.8-.84-.93-.22-1.858-.368-2.772-.567-1.831-.462-3.64-.61-5.45-.78-7.196-.61-14.45.394-21.795 3.994m87.174 75.797c3.689-3.693 2.65-2.05-1.85 3.075-4.606 5.026-14.036 12.053-26.554 18.024-25.057 11.974-61.525 19.561-87.75 19.86-26.093.706-49.956-2.83-66.125-9.282-8.074-3.208-14.109-6.97-17.907-10.175-3.567-3.206-5.087-5.375-4.807-5.734.353-.46 2.606 1.037 6.611 3.445 3.948 2.19 9.971 5.048 17.84 7.465 15.73 4.868 38.785 7.486 64.196 6.8 12.689-.271 24.13-1.409 34.693-2.955 10.606-1.554 20.397-3.412 29.767-5.731 9.36-2.335 18.321-5.108 27.073-8.877 8.71-3.783 17.372-8.56 24.813-15.915"/>
    <path fill="#dbdbdd" d="M198.13 148.593c.408-1.53.62-.944.648 1.151.005 1.045.051 2.49-.313 4.156-.153.838-.3 1.76-.52 2.721-.307.94-.634 1.932-.974 2.97-1.518 4.095-4.217 8.572-7.667 12.297-3.433 3.745-7.541 6.66-11.127 8.682-7.245 3.97-14.637 5.633-19.967 5.777-5.556.14-8.464-.971-8.573-1.926-.122-1.092 3.268-1.922 7.724-3.296 4.647-1.41 10.883-3.65 17.2-7.108 6.298-3.468 10.956-6.897 14.953-10.758 3.915-3.89 7.158-8.488 8.616-14.666"/>
    <path fill="#dbdbdd" d="M153.637 230.074c2.862 2.042 1.608 1.57-2.269-.851-1.904-1.258-4.49-3.03-7.123-5.77-1.276-1.292-2.742-3.165-3.724-4.898-.648-.972-1.018-2.142-1.472-3.29-.278-1.212-.585-2.466-.563-3.759-.074-2.572.43-5.184 1.186-7.622.367-1.222.775-2.452 1.18-3.642.496-1.3.645-2.171.545-2.536-.098-.1-.036-.12-.248-.234a3.405 3.405 0 0 0-1.058-.343c-.96-.182-2.174-.199-3.423-.163-2.51.147-5.629.193-8.494-.447a17.543 17.543 0 0 1-4.377-1.532c-1.434-.724-2.9-1.848-3.912-3.486-1.034-1.635-1.36-3.641-1.2-5.391.141-.852.348-1.998.558-2.46l.307-.901.112-.288.065-.128.133-.253.267-.507c1.29-2.81 3.51-4.85 5.672-6.46 2.22-1.603 4.585-2.597 6.85-3.388 1.14-.36 2.43-.692 3.524-.923l1.586-.275.395-.068.315-.043.21-.02.832-.068c2.218-.187 4.41-.375 6.454-.386l5.857-.193c1.823.008 3.845-.406 5.69-.572 6.92-1.156 13.333-3.489 18.277-5.829 5.05-2.346 8.706-4.983 11.337-6.657 2.562-1.918 4.091-2.887 4.36-2.598.26.28-.75 1.771-2.867 4.193-2.331 2.313-5.855 5.614-10.961 8.562-5.134 2.977-11.479 5.818-19.415 7.448-1.907.248-3.686.694-5.825.779-2.097.15-4.247.285-6.225.362-2.067.051-4.037.255-6.048.438l-.756.068-.19.016c.019-.005-.177.022.019-.008l-.098.019-.395.07-1.583.284a36.177 36.177 0 0 0-2.75.737c-3.706 1.241-6.873 3.22-8.77 5.786-.342.65-.865 1.434-1.093 1.943-.144.42-.403.988-.452 1.276-.019.275-.141.515-.147.809-.09 1.194.188 2.04 1.091 2.914 1.921 1.728 5.365 2.561 8.445 2.776 1.567.117 3.322.052 5.148.234.911.087 1.86.242 2.843.54.963.31 2.13.85 2.933 2.005.8 1.162.838 2.588.604 3.573-.098.528-.292.955-.441 1.431l-.482 1.135c-.64 1.5-1.268 2.956-1.785 4.43-1.036 2.926-1.714 6.007-.976 9.022 1.697 6.11 6.722 11.014 12.327 15.14m182.335-50.995c1.064 1.312.353 1.018-1.369-.217-.416-.313-.906-.684-1.458-1.097-.59-.362-1.298-.7-2.019-1.105-1.38-.909-3.27-1.448-5.177-2.177-3.956-1.157-8.978-1.494-13.527-.98l-1.703.166-1.888.362-1.867.348c-.29.047-.944.278-1.39.395-1.967.637-3.855 1.459-5.488 2.42-6.67 3.7-11.538 9.097-14.171 13.307-1.407 2.145-2.07 4.014-2.765 5.293-.533 1.51-1.039 2.37-1.561 2.346-.51-.024-.988-.887-1.347-2.482a17.027 17.027 0 0 1 .849-7.331c1.907-5.873 7.1-13.077 15.355-17.673 2.032-1.19 4.195-1.992 6.31-2.626 1.134-.248 2.078-.51 3.327-.637.927-.071 1.836-.142 2.729-.212 1.757-.15 3.871.046 5.656.12 1.8.288 3.523.533 5.183.974 6.61 1.807 12.28 5.39 16.32 10.806"/>
    <path fill="#dbdbdd" d="M301.817 186.521c-.376 1.045-.558-.966.29-3.87.844-2.87 2.915-6.414 5.067-8.387 2.095-2.008 4.576-3.271 6.516-3.598 2.103-.359 3.071.128 3.205.583.152.528-1.08 1.094-2.289 1.9-1.357.846-3.082 2.138-4.848 3.823a110.521 110.521 0 0 0-4.535 4.564c-1.322 1.456-2.566 2.947-3.406 4.985"/>
    <path stroke="#dbdbdd" stroke-width=".5" d="M197.702 153.237c-.163 1.078-.683 2.125-1.36 2.721"/>
    <path fill="#dbdbdd" d="M204.151 203.608c11.846 2.194 23.96 2.322 35.962 1.913 10.77-.367 20.935-2.648 31.5-3.298 4.948-.302 6.537 1.072 8.591-3.176 1.627-3.372 1.456-7.16 3.085-10.532 2.046-4.234 5.695-7.17 9.645-9.786 4.002-2.648 19.02-8.76 11.778-14.492-4.081-3.23-12.896-2.822-17.693-3.178-11.9-.882-25.533 1.494-37.145-1.609-12.534-3.35-24.347-9.138-37.218-11.225-3.445-.558-10.445-1.018-13.163 1.385-2.184 1.932-2.492 7.124-3.955 9.84-5.189 9.62-11.658 12.538-20.87 17.173-3.556 1.79-7.311 4.683-11.406 5.666-3.218.772-10.085-.89-9.998 3.605.01.596-.076 1.162.082 1.737 8.24 3.902 14.762 8.602 23.996 10.932 8.777 2.215 18.157 3.442 26.81 5.045m152.212-28.77c-.482.588.073-.636.92-2.41.886-1.759 1.833-4.135 1.917-5.776.096-.41.085-.808.03-1.189-.049-.375-.008-.77-.095-1.102-.25-.645-.258-1.27-.55-1.832-.546-1.107-.78-1.864-.565-2.005.215-.144.835.35 1.665 1.268.419.444.729 1.284 1.115 2.123.163.432.174.914.256 1.404.09.498.112 1.007.005 1.521-.187 2.112-1.164 3.47-1.958 4.67-.876 1.165-1.785 2.153-2.74 3.328m-38.217-4.536c1.072.458 2.114.781 3.284 1.024 1.24.253 1.997.685 3.096 1.276 1.262.678 2.511 1.445 3.8 2.041.852.395 1.617.953 2.485 1.252.427.147.966.169 1.355.348.688.321 1.069.901 1.512 1.31 1.165 1.063 2.267 1.716 3.154 3.06.8 1.217.944 1.073 2.054.26 1.265-.931 2.723-1.636 4.083-2.466 1.78-1.086 3.461-2.463 5.213-3.614.819-.536 1.826-1.29 2.465-2 .479-.531.808-1.299 1.333-1.753.503-.436 1.113-.781 1.622-1.25.498-.456.753-.903 1.17-1.463.574-.779 1.607-1.222 1.803-2.26-1.21-.454-2.674-.271-3.936-.271-3.056 0-6.114.013-9.169 0-2.645-.011-5.28.405-7.92.427-2.122.014-4.247-.003-6.369-.003-2.337 0-4.813-.163-7.125.15-.868.117-1.907.226-2.574.846-1.001.934-.876 2.055-.74 3.255m180.228-8.796c1.448.662 1.665.825.955.626-.69-.22-2.326-.813-4.829-.55-2.476.178-5.825 1.193-9.993.869-2.095-.204-4.307-1.037-6.227-2.156-1.935-1.099-3.752-2.128-5.803-2.49l.146.022c-1.61-.109-3.4.735-5.465 1.557-2.016.838-4.729 1.513-7.327.756l.141.036c-2.69-.536-4.886-2.099-6.665-3.557-1.782-1.472-3.44-2.877-4.848-3.48-3.371-1.226-7.161.443-10.986 1.357l-1.442.327-1.537.163c-.972.177-2.147.027-3.257-.098-1.23-.07-1.837-.487-2.743-.73l-.623-.209-.378-.141-.177-.101-.348-.204c-.454-.28-.947-.542-1.306-.874-1.594-1.26-2.66-2.637-3.749-3.647-1.077-1.028-2.182-1.709-3.365-2.163l.163.04c-1.63-.364-3.559-.105-5.37.2-1.88.372-3.673.723-5.36 1.055-3.406.686-6.962.871-9.574-.568-2.642-1.44-3.279-3.873-3.692-5.128-.248-1.341-.297-2.087-.117-2.147.18-.057.571.58 1.143 1.815.69 1.06 1.531 2.85 3.574 3.634 1.976.802 4.802.525 8.067-.365 1.633-.406 3.396-.939 5.349-1.374 1.95-.406 4.108-.885 6.65-.447l.073.011.092.03c1.763.56 3.434 1.581 4.77 2.806 1.344 1.21 2.418 2.498 3.572 3.353.277.258.577.375.862.555l.215.13.109.066c.199.081-.27-.106-.218-.087l.003.002.01.003.02.008.038.011.079.025.628.201c.792.201 1.801.713 2.397.607.68.013 1.309.169 2.15.008l1.194-.122 1.254-.292c2.21-.487 4.481-1.355 7.003-1.646 1.219-.253 2.53-.12 3.782-.074l.237.014.057.003h.016l.33.073.024.008.098.033.386.133.77.267c.468.106 1.148.544 1.714.855 2.204 1.366 3.588 2.863 5.074 4.114 1.445 1.23 2.9 2.093 4.454 2.553l.128.033c1.722.596 3.583.302 5.55-.368 1.942-.61 4.116-1.589 6.573-1.303l.081.008.022.005c4.78 1.2 7.555 5.068 11.941 5.547 2.13.362 4.4.201 6.644.005 2.247-.177 4.65-.435 6.861.397m-11.78 81.11c1.043 1.203 1.17 1.442.61.969-.538-.493-1.78-1.712-4.162-2.512-2.327-.871-5.793-1.345-9.45-3.375-1.82-1.058-3.479-2.738-4.76-4.553-1.304-1.807-2.528-3.5-4.242-4.68l.125.081c-1.42-.77-3.398-.751-5.62-.863-2.18-.079-4.925-.596-6.974-2.364l.115.09c-2.226-1.606-3.57-3.944-4.582-6.01-1.007-2.081-1.926-4.049-2.957-5.184-2.555-2.517-6.696-2.58-10.554-3.342l-1.447-.305-1.466-.492c-.955-.242-1.962-.868-2.92-1.442-1.088-.577-1.466-1.209-2.187-1.805l-.482-.452-.285-.285-.117-.166-.232-.332c-.296-.444-.636-.888-.824-1.337-.925-1.81-1.322-3.505-1.888-4.876-.552-1.386-1.273-2.463-2.163-3.37l.133.107c-1.33-1.013-3.191-1.581-4.965-2.058-1.866-.446-3.64-.87-5.313-1.273-3.382-.795-6.69-2.107-8.467-4.504-1.801-2.411-1.368-4.888-1.224-6.2.334-1.322.601-2.022.789-2 .185.022.277.762.285 2.126.185 1.249.204 3.227 1.736 4.792 1.461 1.551 4.146 2.476 7.485 3.029 1.654.31 3.48.56 5.436.977 1.942.443 4.102.909 6.233 2.365l.06.04.07.066c1.371 1.246 2.465 2.866 3.172 4.537.716 1.662 1.157 3.279 1.85 4.533.145.354.368.586.553.869l.141.206.071.107a7.4 7.4 0 0 1-.163-.172l.005.006.006.005.016.014.03.027.06.057.487.444c.636.514 1.341 1.398 1.929 1.55.612.295 1.118.697 1.95.902l1.138.386 1.26.258c2.211.477 4.635.635 7.051 1.421 1.214.275 2.35.944 3.472 1.508l.207.109.051.027.014.008.27.204.018.016.074.071.299.283.588.564c.38.29.818.974 1.202 1.488 1.434 2.164 2.07 4.099 2.898 5.857.802 1.72 1.768 3.11 2.99 4.177l.103.082c1.317 1.257 3.131 1.766 5.196 1.978 2.022.253 4.405.27 6.522 1.551l.07.044.017.013c3.844 3.081 4.758 7.754 8.548 10.018 1.785 1.216 3.915 2.014 6.037 2.77 2.117.776 4.408 1.54 6.073 3.22m10.966-39.202c1.273.958 1.447 1.165.8.82-.629-.368-2.1-1.299-4.6-1.58-2.455-.361-5.943-.092-9.945-1.305-2.002-.654-3.98-1.944-5.615-3.448-1.654-1.492-3.208-2.888-5.134-3.683l.141.055c-1.55-.455-3.482-.02-5.675.34-2.15.384-4.94.457-7.316-.84l.13.064c-2.513-1.102-4.32-3.102-5.742-4.909-1.423-1.823-2.737-3.551-3.983-4.444-3.029-1.921-7.09-1.11-11.025-1.042l-1.477.008-1.534-.172c-.988-.038-2.103-.435-3.159-.797-1.186-.335-1.69-.87-2.522-1.3l-.563-.341-.34-.22-.15-.137-.294-.277c-.383-.37-.81-.73-1.088-1.132-1.287-1.573-2.032-3.149-2.876-4.368-.83-1.238-1.763-2.14-2.821-2.839l.15.077c-1.513-.71-3.45-.874-5.287-.964-1.918-.043-3.74-.087-5.463-.125-3.471-.065-6.984-.65-9.223-2.62-2.269-1.976-2.367-4.488-2.503-5.8.047-1.363.16-2.106.349-2.123.187-.019.432.686.726 2.017.446 1.184.879 3.113 2.707 4.319 1.755 1.21 4.576 1.548 7.955 1.382 1.684-.043 3.518-.185 5.52-.19 1.992.024 4.201.024 6.59.998l.068.028.084.049c1.603.928 3.012 2.283 4.057 3.766 1.05 1.475 1.82 2.961 2.761 4.044.218.313.484.493.724.73l.182.174.093.087c.176.12-.24-.16-.196-.13l.005.002.008.003.02.01.035.022.07.041.57.332c.73.367 1.604 1.083 2.21 1.108.66.16 1.242.449 2.099.47l1.191.14 1.284-.014c2.264 0 4.669-.357 7.196-.098 1.244.013 2.498.427 3.709.743l.228.062.055.017.016.002.305.145.021.013.09.052.348.215.697.424c.43.204 1.004.781 1.488 1.203 1.858 1.813 2.887 3.57 4.068 5.114 1.145 1.513 2.383 2.67 3.8 3.453l.117.06c1.554.95 3.434 1.067 5.499.838 2.03-.18 4.364-.666 6.7.142l.077.027.022.008c4.407 2.202 6.284 6.578 10.466 7.99 2 .814 4.252 1.146 6.486 1.437 2.23.313 4.633.577 6.614 1.867M164.898 9.303c1.75 1.736 2.485 4.03 3.238 6.147.748 2.161 1.483 4.276 2.726 6.194 1.197 1.938 3.012 3.454 4.868 4.643 1.83 1.19 3.528 2.373 4.769 3.97.887 1.527.933 3.52 1.15 5.685.178 2.134.779 4.771 2.64 6.733 1.442 1.685 3.335 2.912 5.259 3.772 1.907.836 3.928 1.554 5.346 2.447.332.253.64.288 1.047.754l.582.568.215.213.071.133c.182.354.384.694.58 1.042.938-.78 1.885-1.562 2.848-2.337l-.598-1.007-.014-.025-.234-.267-.035-.035-.077-.068-.146-.139-.297-.275-.599-.555c-2.25-1.769-4.551-2.39-6.578-3.197-2.046-.77-3.842-1.652-5.093-3.048l-.087-.098-.014-.011c-1.249-1.2-1.839-2.899-2.146-4.95-.351-1.998-.463-4.447-1.918-6.622l-.052-.076-.038-.046c-1.722-1.99-3.959-3.2-5.795-4.227-1.867-1.026-3.33-2.188-4.435-3.608-2.182-2.956-3.134-6.243-4.42-8.613-1.247-2.436-2.89-3.63-3.554-4.01-.667-.424-.452-.162.792.913M142.787 81.65c.408.093.704-.002 1.268.25l.767.276.283.1.12.093c.584.46 1.2.887 1.768 1.423a34.387 34.387 0 0 0 3.91-1.33c-.828-.768-1.494-1.677-2.55-2.317l-1.515-1.047-.022-.017-.324-.144-.049-.016-.095-.033-.19-.063-.387-.127-.775-.256c-2.78-.67-5.134-.275-7.31-.169-2.182.152-4.182.098-5.901-.648l-.12-.051-.014-.006c-1.638-.571-2.881-1.87-4.015-3.606-1.151-1.668-2.272-3.85-4.5-5.222l-.08-.05-.051-.024c-2.397-1.09-4.933-1.26-7.03-1.428-2.125-.153-3.937-.602-5.534-1.435-3.213-1.777-5.447-4.37-7.607-5.987-2.144-1.695-4.135-2.098-4.897-2.166-.784-.106-.479.041 1.099.5 2.313.85 3.937 2.63 5.504 4.24 1.578 1.655 3.126 3.27 5.055 4.497 1.893 1.262 4.176 1.883 6.358 2.193 2.16.321 4.198.689 5.99 1.625 1.443 1.018 2.313 2.808 3.413 4.689 1.05 1.864 2.693 4.014 5.201 5.02 2.011.932 4.245 1.258 6.35 1.239 2.085-.035 4.22-.223 5.88-.003m-.184-37.503c2.043.767 3.956 1.557 5.512 2.85 1.194 1.3 1.67 3.232 2.348 5.3.634 2.047 1.787 4.494 4.026 6.007 1.772 1.336 3.886 2.125 5.948 2.55 2.043.405 4.173.672 5.748 1.235.379.177.689.147 1.187.515l.69.43.256.157.098.117c.602.724 1.306 1.345 1.785 2.273.67.996 1.222 2.182 1.812 3.45a65.237 65.237 0 0 1 3.189-1.953c-.381-.792-.77-1.606-1.227-2.439-.661-.936-1.121-1.986-2.03-2.846l-1.26-1.345-.021-.021-.286-.207-.044-.028-.087-.051-.174-.1-.348-.208-.705-.413c-2.576-1.241-4.96-1.353-7.111-1.707-2.163-.31-4.109-.784-5.632-1.875l-.106-.076-.014-.008c-1.477-.906-2.418-2.436-3.164-4.373-.773-1.873-1.407-4.243-3.297-6.053l-.068-.062-.047-.036c-2.11-1.573-4.554-2.272-6.57-2.882-2.043-.596-3.722-1.418-5.107-2.566-2.767-2.414-4.404-5.421-6.173-7.46-1.738-2.106-3.602-2.922-4.334-3.148-.74-.27-.476-.06.971.72 2.082 1.318 3.292 3.4 4.487 5.308 1.194 1.948 2.367 3.853 3.994 5.459 1.586 1.633 3.686 2.721 5.754 3.486"/>
  </g>
</svg>
