<?xml version="1.0" encoding="UTF-8" standalone="no"?><!DOCTYPE svg PUBLIC "-//W3C//DTD SVG 1.1//EN" "http://www.w3.org/Graphics/SVG/1.1/DTD/svg11.dtd"><svg width="100%" height="100%" viewBox="0 0 3324 3832" version="1.1" xmlns="http://www.w3.org/2000/svg" xmlns:xlink="http://www.w3.org/1999/xlink" xml:space="preserve" xmlns:serif="http://www.serif.com/" style="fill-rule:evenodd;clip-rule:evenodd;stroke-linejoin:round;stroke-miterlimit:2;"><rect id="Artboard1" x="0" y="0" width="3323.44" height="3831.22" style="fill:none;"/><path d="M390.097,1075.42c-130.713,-40.046 -246.971,-142.858 -310.488,-263.083c-76.379,-144.567 -82,-323.471 -33.987,-478.167c35.771,-115.26 108.6,-226.077 217.725,-282.925c2.525,-1.297 5.065,-2.561 7.621,-3.795c2.555,-1.234 5.126,-2.436 7.712,-3.607c2.586,-1.171 5.186,-2.31 7.8,-3.417c2.614,-1.107 5.24,-2.182 7.879,-3.225c2.639,-1.043 5.292,-2.053 7.959,-3.031c2.664,-0.978 5.34,-1.923 8.029,-2.835c2.686,-0.913 5.383,-1.792 8.092,-2.638c2.711,-0.846 5.43,-1.659 8.158,-2.439c2.73,-0.779 5.469,-1.525 8.217,-2.238c2.747,-0.712 5.502,-1.391 8.266,-2.036c2.764,-0.645 5.536,-1.256 8.317,-1.833c2.778,-0.577 5.562,-1.12 8.354,-1.629c2.792,-0.509 5.59,-0.984 8.396,-1.424c2.803,-0.44 5.611,-0.846 8.425,-1.218c2.814,-0.371 5.632,-0.708 8.454,-1.011c2.822,-0.302 5.649,-0.57 8.479,-0.803c2.828,-0.234 5.659,-0.432 8.492,-0.596c2.833,-0.164 5.668,-0.294 8.504,-0.388c2.839,-0.094 5.676,-0.154 8.513,-0.179c2.838,-0.025 5.677,-0.015 8.516,0.029c2.836,0.045 5.672,0.124 8.509,0.238c2.836,0.114 5.67,0.263 8.504,0.447c2.833,0.183 5.662,0.401 8.487,0.654c2.828,0.253 5.652,0.54 8.471,0.862c2.822,0.322 5.639,0.678 8.45,1.069c2.811,0.391 5.617,0.817 8.417,1.276c2.8,0.46 5.594,0.953 8.383,1.482c2.789,0.528 5.571,1.09 8.346,1.686c2.775,0.597 5.543,1.227 8.304,1.891c2.758,0.664 5.508,1.362 8.25,2.093c2.744,0.731 5.478,1.496 8.2,2.295c2.725,0.798 5.439,1.63 8.142,2.495c128.787,41.352 228.121,146.347 288.429,264.562c27.858,54.609 46.537,113.038 63.258,171.842c30.125,-17.096 63.971,-27.487 96.817,-38.012c-8.758,-9.138 -14.358,-15.459 -13.721,-28.638c0.604,-12.521 3.154,-23.162 13.029,-31.5c25.084,-21.167 74.654,-16.604 104.909,-13.012c6.694,0.764 13.344,1.804 19.95,3.12c-11.946,-11.929 -26.73,-25.704 -26.338,-44.091c0.179,-8.413 4.408,-15.467 10.55,-20.996c22.921,-20.642 58.242,-20.963 87.246,-18.563c75.042,6.205 152.783,34.334 219.621,68.488c15.75,8.05 30.95,24.529 47.35,29.683c35.975,11.309 75.762,12.313 112.741,20.434c95.78,21.037 224.059,69.308 301.871,128.875c85.938,-189.663 224.188,-369.657 425,-445.557c107.163,-40.503 215.829,-43.661 321.35,3.936c102.634,46.294 179.475,133.983 219.029,238.858c1.756,4.6 3.456,9.221 5.1,13.863c1.642,4.641 3.225,9.304 4.75,13.987c1.528,4.681 2.996,9.381 4.405,14.1c1.411,4.717 2.762,9.452 4.054,14.204c1.294,4.75 2.527,9.517 3.7,14.3c1.175,4.781 2.29,9.577 3.346,14.388c1.055,4.808 2.05,9.63 2.983,14.466c0.936,4.834 1.812,9.68 2.629,14.538c0.814,4.856 1.568,9.721 2.263,14.596c0.694,4.875 1.329,9.757 1.904,14.646c0.572,4.891 1.084,9.789 1.537,14.691c0.45,4.906 0.84,9.814 1.171,14.725c0.331,4.914 0.6,9.831 0.808,14.75c0.206,4.92 0.352,9.842 0.438,14.767c0.086,4.922 0.111,9.846 0.075,14.771c-0.036,4.922 -0.133,9.844 -0.292,14.766c-0.158,4.923 -0.378,9.842 -0.658,14.759c-0.281,4.916 -0.622,9.828 -1.025,14.733c-0.403,4.908 -0.867,9.811 -1.392,14.708c-0.522,4.895 -1.107,9.784 -1.754,14.667c-0.644,4.881 -1.35,9.753 -2.117,14.617c-0.766,4.866 -1.593,9.721 -2.479,14.562c-0.886,4.845 -1.833,9.677 -2.841,14.496c-1.006,4.82 -2.071,9.627 -3.196,14.421c-1.128,4.794 -2.314,9.574 -3.559,14.337c-1.244,4.764 -2.547,9.513 -3.908,14.246c-1.364,4.731 -2.786,9.445 -4.267,14.142c-1.477,4.697 -3.015,9.375 -4.612,14.033c-1.595,4.659 -3.247,9.296 -4.958,13.913c-1.712,4.619 -3.478,9.215 -5.3,13.787c-1.825,4.575 -3.707,9.125 -5.646,13.65c-1.936,4.528 -3.929,9.031 -5.979,13.509c-2.095,4.644 -4.246,9.261 -6.455,13.85c-2.211,4.589 -4.477,9.15 -6.8,13.683c-2.322,4.536 -4.7,9.042 -7.133,13.517c-2.433,4.475 -4.922,8.919 -7.467,13.333c-2.541,4.411 -5.139,8.792 -7.791,13.142c-2.65,4.35 -5.354,8.666 -8.113,12.95c-2.761,4.28 -5.573,8.527 -8.437,12.741c-2.861,4.211 -5.775,8.388 -8.742,12.529c-2.969,4.142 -5.987,8.245 -9.054,12.309c-3.07,4.066 -6.188,8.094 -9.354,12.083c-3.17,3.989 -6.388,7.939 -9.654,11.85c-3.264,3.908 -6.577,7.777 -9.938,11.604c-3.364,3.828 -6.772,7.613 -10.225,11.354c-3.456,3.745 -6.957,7.445 -10.504,11.1c-3.547,3.656 -7.139,7.269 -10.775,10.838c-3.636,3.567 -7.315,7.089 -11.038,10.567c-3.722,3.475 -7.487,6.904 -11.295,10.287c-3.809,3.383 -7.659,6.72 -11.55,10.008c-3.889,3.289 -7.82,6.53 -11.792,9.721c-3.97,3.189 -7.978,6.329 -12.025,9.421c-4.05,3.092 -8.136,6.133 -12.258,9.125c-4.125,2.992 -8.285,5.931 -12.48,8.817c-4.197,2.889 -8.429,5.725 -12.695,8.508c-4.267,2.783 -8.567,5.514 -12.9,8.192c-4.334,2.675 -8.7,5.297 -13.1,7.866c-4.398,2.57 -8.827,5.084 -13.288,7.542c-4.461,2.458 -8.953,4.863 -13.475,7.213c-4.519,2.347 -9.068,4.639 -13.646,6.875c-4.578,2.236 -9.182,4.414 -13.812,6.533c-4.631,2.122 -9.286,4.187 -13.967,6.196c-4.683,2.005 -9.39,3.953 -14.121,5.841c-4.73,1.892 -9.483,3.724 -14.258,5.496c-17.214,6.173 -34.64,11.673 -52.279,16.5c-17.639,4.825 -35.438,8.964 -53.396,12.417c-17.958,3.453 -36.022,6.208 -54.192,8.267c-18.172,2.058 -36.396,3.414 -54.671,4.066c15.871,108.171 29.755,221.692 5.575,329.975c20.738,2.613 63.975,3.829 77.542,21.434c3.996,5.183 5.329,10.629 3.929,17.1c-1.437,6.637 -5.029,11.062 -10.841,14.408c-17.405,10.012 -61.13,-0.967 -81.125,-2.754c-24.671,68.408 -49.455,132.283 -91.871,192.133c18.675,10.188 91.171,43.429 96.637,61.767c2.071,6.941 -0.546,14.854 -4.787,20.446c-3.346,4.416 -8.217,7.858 -13.784,8.67c-16.525,2.409 -85.779,-39.966 -106.175,-49.125c-19.179,19.546 -36.691,40.58 -55.829,60.109c-15.15,15.466 -31.746,29.216 -47.375,44.133c46.296,35.108 87.646,85.425 95.809,144.683c4.404,31.938 -0.925,65.788 -20.4,92.175c-2.984,4.046 -6.471,7.655 -10.03,11.192c100.646,124.488 185.209,388.271 168.992,547.496c-6.042,59.333 -29.696,131.804 -75.25,172.862c92.083,52.684 161.171,112.488 189.829,218.9c5.359,19.884 8.15,40.092 10.713,60.488c19.229,15.758 104.387,11.3 129.6,9.029c71.341,-6.425 148.579,-45.637 194.221,-101.017c3.294,-4.05 6.475,-8.187 9.541,-12.412c3.067,-4.222 6.015,-8.528 8.846,-12.917c2.828,-4.386 5.535,-8.847 8.121,-13.383c2.583,-4.536 5.04,-9.139 7.371,-13.808c2.33,-4.673 4.532,-9.405 6.604,-14.196c2.069,-4.792 4.007,-9.636 5.812,-14.534c1.803,-4.9 3.471,-9.844 5.005,-14.833c1.53,-4.992 2.923,-10.021 4.179,-15.087c43.421,-179.7 -111.025,-338.225 -185.367,-487.542c-3.947,-7.744 -7.711,-15.576 -11.292,-23.496c-3.58,-7.922 -6.973,-15.922 -10.179,-24c-3.208,-8.078 -6.225,-16.228 -9.05,-24.45c-2.825,-8.219 -5.457,-16.5 -7.896,-24.842c-2.439,-8.344 -4.68,-16.74 -6.725,-25.187c-2.044,-8.447 -3.891,-16.939 -5.541,-25.475c-1.648,-8.533 -3.095,-17.101 -4.342,-25.704c-1.247,-8.603 -2.293,-17.229 -3.137,-25.879c-7.788,-83.967 10.808,-176.834 56.279,-248.421c15.758,-24.813 34.962,-46.459 53.737,-68.954c21.759,-17.5 42.654,-35.475 66.254,-50.563c78.171,-49.987 172.871,-69.104 264.721,-59.45c104.704,11 206.963,64.85 273.159,147.196c58.933,73.308 94.479,167.5 83.329,262.271c-3.479,29.6 -11.484,66.558 -36.109,85.891c-9.691,7.609 -21.9,11.534 -34.2,9.609c-14.537,-2.275 -25.395,-9.025 -36.129,-18.642c-0.462,-0.796 -0.937,-1.587 -1.396,-2.392c-15.395,-27.016 -12.137,-62.283 -17.454,-92.379c-16.466,-93.204 -88.012,-175.141 -179.479,-201.471c-3.558,-0.994 -7.14,-1.902 -10.746,-2.725c-3.603,-0.822 -7.223,-1.555 -10.862,-2.2c-3.639,-0.647 -7.291,-1.205 -10.954,-1.675c-3.667,-0.469 -7.342,-0.85 -11.025,-1.141c-3.687,-0.289 -7.375,-0.49 -11.067,-0.604c-3.695,-0.114 -7.39,-0.138 -11.088,-0.071c-3.694,0.066 -7.384,0.223 -11.07,0.471c-3.689,0.244 -7.37,0.577 -11.042,1c-3.67,0.425 -7.328,0.937 -10.975,1.537c-3.647,0.6 -7.278,1.289 -10.892,2.067c-3.611,0.778 -7.203,1.641 -10.775,2.591c-3.572,0.95 -7.118,1.987 -10.637,3.109c-3.523,1.122 -7.016,2.329 -10.479,3.621c-3.462,1.291 -6.891,2.666 -10.288,4.125c-3.394,1.458 -6.753,2.997 -10.075,4.616c-3.322,1.62 -6.603,3.32 -9.842,5.1c-3.091,1.698 -6.139,3.471 -9.141,5.321c-3.003,1.85 -5.959,3.775 -8.867,5.775c-2.906,1.997 -5.761,4.067 -8.567,6.208c-2.802,2.142 -5.55,4.352 -8.241,6.63c-2.692,2.28 -5.325,4.625 -7.9,7.033c-2.578,2.411 -5.092,4.885 -7.542,7.421c-2.45,2.539 -4.836,5.136 -7.158,7.791c-2.323,2.656 -4.575,5.369 -6.759,8.138c-2.186,2.769 -4.301,5.592 -6.345,8.467c-2.045,2.875 -4.016,5.798 -5.913,8.77c-1.897,2.975 -3.719,5.995 -5.467,9.059c-1.744,3.064 -3.412,6.171 -5.004,9.321c-1.591,3.147 -3.103,6.333 -4.533,9.558c-1.431,3.225 -2.781,6.483 -4.05,9.775c-1.267,3.292 -2.452,6.612 -3.554,9.962c-1.1,3.35 -2.117,6.727 -3.05,10.13c-21.625,76.229 3.971,148.191 41.541,214.695c34.184,60.517 75.684,116.142 112.959,174.667c11.158,17.261 21.664,34.911 31.516,52.95c9.853,18.039 19.025,36.417 27.517,55.133c8.489,18.717 16.276,37.723 23.363,57.017c7.083,19.295 13.443,38.825 19.079,58.592c29.879,132.383 16.608,251.996 -57.029,368.271c-79.171,125.016 -203.471,202.254 -346.209,234.025c-88.291,19.654 -194.546,20.383 -281.658,-6c-17.483,16.812 -34.742,34.079 -53.842,49.07c-105.887,83.13 -238.191,118.363 -365.704,153.109c22.125,31.016 28.342,77.137 21.917,114.125c-8.159,46.979 -38.125,86.154 -76.934,112.779c-61.783,42.383 -135.637,49.333 -207.491,35.692c-95.534,-18.138 -187.634,-64.475 -274.754,-106.2c-35.863,-17.18 -72.313,-33.3 -107.08,-52.65c-132.625,59.35 -318.304,122.72 -460.745,68.77c-46.813,-17.733 -90.65,-43.091 -111.63,-90.72c-13.845,-31.43 -12.891,-61.3 -15.212,-94.684c-41.783,-7.079 -83.929,-11.737 -125.658,-19.237c-140.588,-25.279 -314.763,-72.071 -401.559,-194.492c-41.887,-59.087 -55.871,-137.183 -43.262,-207.992c0.88,-4.7 1.876,-9.376 2.987,-14.029c1.111,-4.65 2.335,-9.271 3.671,-13.862c1.339,-4.592 2.789,-9.147 4.35,-13.667c1.561,-4.519 3.233,-8.997 5.017,-13.433c1.78,-4.439 3.669,-8.831 5.666,-13.175c1.998,-4.345 4.102,-8.638 6.313,-12.879c2.208,-4.242 4.519,-8.427 6.933,-12.555c2.414,-4.127 4.929,-8.193 7.546,-12.195c2.614,-4.006 5.325,-7.943 8.133,-11.813c2.809,-3.869 5.71,-7.669 8.705,-11.4c2.994,-3.728 6.079,-7.379 9.254,-10.954c3.175,-3.578 6.434,-7.074 9.779,-10.488c3.347,-3.416 6.776,-6.748 10.287,-9.995c3.509,-3.248 7.096,-6.407 10.763,-9.48c3.667,-3.072 7.405,-6.051 11.217,-8.937c3.811,-2.886 7.691,-5.678 11.641,-8.375l3.596,-2.467c-56.583,-35.15 -91.842,-87.216 -106.808,-151.996c-17.075,-73.891 -7.592,-149.629 33.141,-214.162c29.23,-46.313 67.834,-77.617 116.909,-101.167c-20.042,-47.221 -65.742,-153.241 -72.234,-200.879c-1.787,-13.117 -1.545,-26.212 3.43,-38.658c4.962,-12.429 13.92,-22.096 26.341,-27.221c15.854,-6.538 35.929,-6.458 51.429,1.042c41.063,19.879 83.659,150.583 110.838,195.312c30.858,-28.85 58.204,-62.237 85.7,-94.262c89.95,-104.788 178.108,-221.121 298.521,-292.63c-25.388,-14.762 -51.725,-27.475 -76.717,-42.987c-126.608,-78.588 -217.862,-175.513 -281.321,-310.921c-37.158,3.796 -73.537,7.325 -110.375,13.8c-31.941,5.613 -66.758,15.346 -99.033,17.079c-6.888,0.371 -14.263,-0.833 -19.404,-5.896c-3.934,-3.875 -5.459,-9.229 -4.942,-14.641c0.883,-9.179 7.225,-16.646 14.733,-21.438c27.942,-17.816 162.346,-34.816 201.409,-38.421c-12.075,-37.945 -20.834,-75.183 -26.359,-114.633c-43.92,-14.829 -89.991,-23.321 -135.72,-30.387c-18.259,-2.821 -39.275,-2.68 -56.788,-8.025c-8.687,-2.65 -19.887,-8.355 -23.967,-17.055c-2.441,-5.208 -2.687,-8.187 -1.229,-13.654c6.929,-9.671 16,-12.341 27.442,-14.216c54.117,-8.867 132.487,14.654 185.212,28.791c0.467,-120.471 15.709,-231.9 47.188,-348.133Zm331.392,1648.17c28.058,0.716 55.881,3.651 83.47,8.804c1.375,-32.184 6.167,-64.375 10.425,-96.284c1.875,-14.07 7.925,-34.783 5.967,-48.191c-21.05,31.941 -43.746,63.341 -68.379,92.625c-11.613,13.804 -28.033,26.537 -37.433,41.675c4.079,1.837 2.066,1.516 5.95,1.371Z" style="fill:#313945;fill-rule:nonzero;"/><path d="M2407.86,103.718c57.984,-2.738 108.092,3.616 161.938,26.383c83.654,35.369 154.292,105.346 188.175,189.788c-44.504,-62.563 -98.396,-112.304 -172.913,-135.596c-81.579,-25.5 -165.12,-12.946 -239.662,27.013c-146.083,78.312 -235.975,246.283 -282.679,399.87c-11.417,37.538 -52.088,185.725 -35.288,213.942c3.038,5.108 8.725,9.912 14.634,10.908c11.462,1.925 75.854,-58.071 88.195,-68.208c-17.616,46.242 -27.208,92.775 -37.341,140.971c93.271,149.479 134.383,393.671 99.166,565.658c-105.92,-5.971 -223.933,9.396 -324.816,42.388c-28.442,9.3 -84.95,25.362 -99.238,53.537c0.325,2.833 -0.237,4.55 2.125,6.517c8.521,7.096 20.454,5.171 30.329,2.971c38.517,-8.584 76.092,-22.863 114.8,-31.913c87.446,-20.45 175.271,-24.325 264.721,-24.171c-21.791,62.346 -46.937,122.204 -85.787,176.196c-81.171,-31.675 -175.259,-46.267 -261.746,-53.746c-16.042,-1.387 -41.975,-6.112 -56.508,1.25c-4.488,2.275 -8.188,5.784 -9.288,10.892c-0.708,3.279 -0.054,7.075 1.563,9.967c3.15,5.645 16.866,8.279 22.85,9.787c24.95,6.292 50.995,9.325 76.233,14.571c65.047,13.092 129.429,28.893 193.146,47.404c-115.913,134.763 -308.517,236.838 -478.084,284.379c-26.158,7.07 -52.53,13.217 -79.116,18.442c-22.4,4.412 -61.079,6.608 -80.088,16.375c-16.533,8.492 -30.062,25.612 -44.871,36.967c-55.733,42.725 -130.562,55.475 -198.895,45.912c-50.742,-10.721 -94.196,-36.046 -132.021,-71.021c-11.396,-10.537 -21.5,-24.9 -35.134,-32.579c-22.575,-12.721 -53.816,-18.379 -78.591,-26.687c-198.567,-66.559 -386.629,-180.038 -483.138,-373.167c19.817,0.558 65.121,4.375 81.388,-4.25c3.533,-1.875 6.533,-4.867 7.346,-8.833c1.191,-5.817 -0.242,-10.046 -3.8,-14.705c-15.584,-20.412 -82.905,-20.104 -106.192,-20.937c-10.871,-32.813 -17.921,-65.879 -24.854,-99.679c20.121,8.221 98.933,47.329 113.487,46.391c4.967,-0.316 10.009,-1.92 12.954,-6.287c2.875,-4.258 4.121,-8.113 2.655,-13.167c-7.738,-26.608 -108.255,-66.275 -135.342,-79.325c-10.121,-103 19.196,-260.691 47.708,-360.079c66.479,-231.687 203.559,-436.925 423.213,-546.887c34.141,-17.131 69.334,-31.727 105.579,-43.788c24.008,-8.025 53.292,-12.058 75.087,-24.817c7.25,-4.245 12.246,-8.362 14.592,-16.658c-3.829,-16.325 -23.233,-31.029 -35.05,-42.646c48.108,2.384 101.667,8.854 144.25,33.034c15.663,8.891 32.342,23.041 49.175,28.908c6.842,2.383 11.925,1.596 18.413,-1.463c3.837,-5.004 5.445,-8.75 4.72,-15.195c-4.566,-40.613 -73.22,-95.321 -103.708,-121.255c14.317,1.048 28.571,2.656 42.763,4.825c14.188,2.167 28.272,4.888 42.25,8.163c13.975,3.275 27.801,7.092 41.479,11.45c13.677,4.361 27.162,9.251 40.454,14.671c24.621,9.925 59.962,22.708 77.767,42.712c4.662,5.238 7.416,12.759 10.141,19.159c34.154,6.041 69.217,6.112 103.571,12.1c98.738,17.216 256.683,71.008 334.196,133.741c-5.258,15.492 -11.75,32.109 -13.817,48.379c-1.333,10.496 -0.625,22.175 6.692,30.505c4.842,5.508 14.471,10.462 21.937,10.212c12.863,-0.433 17.18,-17.879 20.896,-28.1c40.196,-110.529 92.15,-213.658 166.796,-305.192c92.238,-113.109 221.513,-211.031 370.583,-225.987Z" style="fill:#f2f2f4;fill-rule:nonzero;"/><path d="M1040.2,1487.1c43.154,-4.229 96.584,4.454 135.059,24.921c17.625,9.379 35.562,23.175 40.895,43.358c5.509,20.85 -3.558,44.192 -14.733,61.592c-27.033,42.112 -72.708,59.596 -119.279,70.333c4.371,45.075 18.392,90.346 49.55,124.392c94.925,8.829 199.05,-28.438 272.787,-87.583c-5.32,-1.755 -10.879,-3.438 -15.995,-5.713c-7.059,-3.142 -10.1,-7.654 -12.967,-14.554c0.262,-5.638 0.379,-8.733 4.446,-12.992c5.954,-6.241 16.366,-8.508 24.637,-8.771c25.842,-0.825 60.129,11.242 78.384,29.371c7.77,7.717 16.666,20.7 14.945,32.35c-0.679,4.575 -3.004,8.679 -7.133,10.959c-11.725,6.47 -35.442,-7.975 -47.675,-12.467c-13.8,18.917 -33.675,34.762 -44.604,55.354c-8.346,15.717 -10.767,36.071 -16.85,52.95c-23.771,65.958 -60.413,130.692 -122.767,166.533c-7.016,3.764 -14.278,6.981 -21.783,9.65c-7.503,2.667 -15.164,4.756 -22.983,6.267c-50.559,10.1 -96.592,-2.037 -138.696,-30.904c-57.563,-39.471 -100.404,-103.254 -113.504,-171.867c-47.067,-16.3 -92.43,-42.983 -126.871,-79.35c-14.763,-15.587 -29.829,-41.462 -28.517,-63.375c0.375,-6.204 2.121,-9.096 6.783,-13.004c3.5,-0.675 6.53,-1.229 10.092,-0.637c16.9,2.812 44.367,45.283 59.425,59.22c9.725,9.005 21.133,16.03 32.4,22.921c49.963,30.571 104.775,43.079 161.617,53.638c-27.842,-36.629 -34.921,-79 -40.117,-123.538c-23.717,-7.633 -46.171,-16.554 -66.167,-31.758c-25.016,-19.017 -47.858,-49.092 -51.583,-81c-1.896,-16.225 2.208,-31.85 12.629,-44.538c25.079,-30.533 71.663,-38.079 108.575,-41.758Z" style="fill:#313945;fill-rule:nonzero;"/><path d="M1040.4,1530.78c3.496,-0.545 6.95,-0.825 10.475,-1.029c45.025,-2.566 91.15,5.9 125.671,36.709c-1.586,3.861 -3.287,7.67 -5.104,11.429c-16.896,34.508 -43.488,51.783 -78.538,63.871c-1.137,0.27 -2.275,0.558 -3.416,0.808c-29.046,6.387 -59.021,-3.775 -83.046,-20.008c-14.829,-10.021 -44.083,-34.425 -45.85,-53.059c-0.558,-5.833 0.562,-9.779 4.204,-14.387c13.413,-16.979 55.433,-21.692 75.604,-24.334Z" style="fill:#fed3b9;fill-rule:nonzero;"/><path d="M1343.54,1815.36l1.541,0.516c1.317,9.188 -13.041,35.688 -17.075,45.65c-10.544,-2.144 -21.185,-3.562 -31.921,-4.254c-10.736,-0.694 -21.47,-0.657 -32.204,0.113c-71.275,4.866 -135.741,40.995 -182.408,94.091c-11.896,-11.896 -22.813,-24.079 -33.379,-37.166c-14.496,-21.7 -25.009,-43.059 -34.442,-67.363c106.171,31.129 230.175,13.596 329.888,-31.587Z" style="fill:#e1a39e;fill-rule:nonzero;"/><path d="M1277.25,1895.36c11.65,-0.7 22.087,0.337 33.592,1.933c-11.596,29.2 -33.438,55.792 -59.459,73.325c-28.616,19.283 -60.571,28.029 -94.916,21.538c-14.596,-3.696 -27.588,-10.142 -40.638,-17.484c0.521,-0.666 1.021,-1.35 1.558,-2.004c39.134,-47.387 100.217,-71.042 159.863,-77.308Z" style="fill:#fac3b7;fill-rule:nonzero;"/><path d="M1565.41,1182.99c29.413,0.671 55.288,8.929 77.417,28.996c35.588,32.266 53.908,84.47 56.3,131.533c2.608,51.246 -12.579,104.079 -47.717,142.292c-24.758,26.925 -53.958,40.67 -90.595,42.362c-29.392,-0.033 -56.246,-9.937 -78.471,-29.104c-35.171,-30.333 -53.017,-76.875 -56.217,-122.375c-3.662,-52.113 8.95,-108.613 44.058,-148.679c25.117,-28.667 57.659,-42.375 95.225,-45.025Z" style="fill:#313945;fill-rule:nonzero;"/><path d="M1534.96,1310.26c3.858,-6.434 8.12,-13.096 15.616,-15.721c8.138,-2.85 21.292,-0.05 28.284,4.683c6.616,4.479 10.35,11.975 11.395,19.746c1.85,13.704 -1.829,28.442 -10.479,39.288c-4.946,6.204 -12.108,12.033 -20.354,12.541c-8.292,0.509 -14.45,-4.508 -19.737,-10.221c-2.25,-2.433 -3.125,-3.854 -4.667,-6.904c-1.05,-2.337 -1.683,-3.575 -2.483,-5.858c-4.38,-12.525 -3.317,-25.758 2.425,-37.554Z" style="fill:#fff;fill-rule:nonzero;"/><path d="M1535.02,1353.68c-1.05,-2.337 -1.683,-3.575 -2.483,-5.858c-4.38,-12.525 -3.317,-25.758 2.425,-37.554c5,8.612 5.791,28.766 2.745,38.246c-0.908,2.82 -1.241,3.054 -2.687,5.166Z" style="fill:#fbf4ed;fill-rule:nonzero;"/><path d="M726.701,1165.53c23.85,-1.004 43.938,-0.258 65.671,11.396c34.308,18.396 55.562,54.971 66.712,91.1c16.305,52.834 11.684,114.671 -14.437,163.638c-19.671,36.879 -48.429,60.891 -88.442,72.829c-24.083,4.767 -46.329,1.608 -67.754,-10.767c-35.975,-20.775 -56.746,-59.737 -66.433,-98.95c-13.929,-56.387 -6.796,-120.4 24.033,-170.204c19.521,-31.529 44.188,-50.512 80.65,-59.042Z" style="fill:#313945;fill-rule:nonzero;"/><path d="M751.914,1273.94c2.895,-0.292 5.762,-0.6 8.675,-0.638c9.358,-0.116 16.808,2.963 23.2,9.884c7.575,8.2 10.312,19.35 9.333,30.283c-1.279,14.3 -7.196,23.508 -17.925,32.575c-4.117,1.096 -8.538,2.433 -12.825,2.404c-6.417,-0.046 -13.546,-3.021 -18.008,-7.671c-11.48,-11.966 -10.205,-30.8 -9.55,-46.02c5.12,-8.23 9.437,-14.73 17.1,-20.817Z" style="fill:#fff;fill-rule:nonzero;"/><path d="M1576.22,855.639c17.671,-2.696 37.316,-0.775 54.691,2.954c45.88,9.854 93.634,38.271 118.788,78.758c5.837,9.396 12.008,21.675 9.367,32.934c-3.613,4.708 -4.417,5.233 -9.93,7.466c-14.92,-1.246 -30.5,-22.487 -41.283,-32.733c-41.667,-35.779 -96.942,-60.608 -152.396,-43.858c-15.687,4.737 -28.087,15.25 -45.221,12.72c-4.154,-2.879 -6.795,-4 -7.287,-9.62c-0.538,-6.125 2.796,-12.975 6.254,-17.805c15.308,-21.37 42.533,-27.487 67.017,-30.816Z" style="fill:#313945;fill-rule:nonzero;"/><path d="M744.068,843.055c0.7,-0.116 1.396,-0.279 2.104,-0.345c24.496,-2.284 54.179,4.27 73.904,19.533c6.854,5.3 12.783,12.537 12.8,21.658c0.008,6.767 -2.654,12.779 -7.758,17.117c-16.396,4.6 -32,-11.754 -47.729,-14.629c-38.088,-6.963 -75.013,9.837 -105.892,30.187c-14.654,11.659 -29.838,33.838 -45.613,41.967c-6.529,3.362 -10.904,3.579 -17.733,1.233c-1.879,-2.541 -2.95,-4.35 -3.1,-7.654c-0.671,-14.642 9.888,-31.254 18.471,-42.504c28.758,-37.679 74.246,-60.275 120.546,-66.563Z" style="fill:#313945;fill-rule:nonzero;"/><path d="M1968.47,1900.7c35.362,18.175 70.662,56.846 83.237,94.838c8.83,26.671 6,50.316 -6.345,75.121c-28.171,-22.542 -54.871,-49.475 -93.217,-50.888c-29.988,-1.108 -60.675,7.442 -88.821,16.879c-47.737,16.009 -94.833,36.029 -140.875,56.342c-48.717,21.487 -313.246,146.579 -338.542,173.058c-4.595,4.813 -5.275,8.55 -5.362,15.009c1.758,3.708 2.946,5.608 6.333,8.129c8.171,6.079 22.15,5.208 31.384,2.625c11.083,-3.104 21.229,-9.517 31.85,-13.879c35.233,-14.463 68.645,-29.925 102.691,-47.171c84.213,-42.663 291.213,-147.021 376.542,-158.196c23.104,-3.025 39.975,2.329 58.417,16.421c112.175,85.725 191.412,337.425 208.395,475.546c8.859,72.037 -4.154,155.316 -50.141,213.679c-70.367,89.296 -200.834,134.071 -309.979,147.396c7.404,-18.142 13.945,-35.138 16.229,-54.755c5.629,-48.458 -9.775,-100.683 -39.988,-138.854c-41.546,-52.496 -109.612,-75.641 -173.791,-83.387c48.445,-29.234 91.375,-57.15 148.654,-67.05c34.287,-5.925 70.679,-8.442 105.446,-5.25c16.683,1.529 33.712,5.904 50.462,5.833c5.025,-0.021 8.733,-0.525 12.9,-3.546c3.558,-5.575 5.317,-11.308 3.254,-17.933c-1.929,-6.2 -8.416,-11.079 -13.629,-14.45c-39.175,-25.317 -117.279,-23.25 -161.15,-14.213c-4.292,-37.337 -14.617,-177.454 -34.775,-202.1c-4.337,-5.3 -10.104,-8.295 -16.833,-9.05c-3.284,1.355 -5.138,1.555 -7.396,4.5c-22.533,29.425 5.896,180.442 11.867,220.68c-62.934,20.387 -122.342,49.241 -161.409,104.687c-21.786,0.861 -43.564,1.899 -65.333,3.113c-111.225,7.216 -205.271,50.916 -278.717,134.641c-4.037,2.729 -4.591,3.096 -9.4,3.054c-29.454,-0.25 -62.371,-7.779 -91.646,-11.925c-51.997,-7.252 -103.94,-14.877 -155.829,-22.875c-37.654,-6.012 -75.466,-13.658 -113.408,-17.425c-1.163,-49.416 7.087,-98.67 10.55,-147.895c4.725,-67.163 -9.213,-148.921 -13.917,-217.784c-1.546,-22.666 -3.575,-45.454 -4.375,-68.158c-0.729,-20.538 0.667,-41.783 -2.312,-62.121c-1.154,-7.883 -3.517,-22.608 -10.121,-28.121c-2.429,-2.029 -4.863,-3.666 -8.1,-3.537c-5.533,0.225 -10.288,3.275 -14.063,7.133c-24.441,24.971 -3.054,245.908 1.105,287.242c-7.373,11.697 -14.964,23.251 -22.775,34.662c-7.809,11.411 -15.83,22.673 -24.063,33.784c-8.231,11.108 -16.669,22.058 -25.317,32.85c-8.644,10.791 -17.489,21.416 -26.533,31.875c-9.047,10.458 -18.287,20.743 -27.721,30.854c-9.43,10.111 -19.05,20.04 -28.858,29.787c-9.806,9.748 -19.792,19.307 -29.958,28.679c-10.167,9.373 -20.507,18.55 -31.021,27.534c22.796,-35.275 32.683,-81.975 31.987,-123.6c-0.883,-53.059 -20.096,-104.367 -59.108,-141.259c-54.621,-51.645 -114.55,-58.72 -185.867,-56.925c11.892,-14.654 26.459,-27.82 39.459,-41.545c20.625,-21.945 40.888,-44.218 60.791,-66.821c84.5,-95.796 205.75,-261.213 329.296,-303.475c22.683,16.65 38.983,49.054 57.238,70.866c56.77,67.838 130.958,123.309 209.895,162.284c13.775,6.804 28.28,14.971 43.196,18.837c9.892,2.567 20.746,5.775 29.963,0.334c2.096,-3.417 3.8,-5.992 3.783,-10.184c0.003,-1.289 -0.142,-2.559 -0.433,-3.812c-0.295,-1.253 -0.727,-2.457 -1.296,-3.613c-8.733,-17.821 -66.288,-43.166 -85.733,-55.487c-66.425,-42.088 -118.184,-87.367 -168.663,-147.663c27.046,12.379 57.996,17.054 83.654,32.296c15.904,9.45 29.167,26.017 43.884,37.533c43.954,34.388 90.52,54.117 143.929,68.109c9.6,14.279 19.483,28.341 31.025,41.141c12.721,14.113 32.95,33.817 52.962,33.963c43.371,0.321 155.996,-125.392 191.904,-161.75c35.75,-8.438 73.384,-9.917 109.459,-18.308c148.816,-34.621 281.158,-98.046 405.079,-186.309Z" style="fill:#7a7bbe;fill-rule:nonzero;"/><path d="M2129.22,2869.39c20.175,1.387 66.879,35.125 84.137,48.15c55.984,42.242 94.967,104.992 104.046,174.775c9.859,75.737 -9.412,148.917 -56.75,209.137c-105.521,134.234 -332.571,180.725 -492.687,210.021c-79.306,15.025 -159.046,27.214 -239.221,36.567c-18.471,1.662 -36.8,3.171 -55.354,3.654c-0.446,-0.317 -0.896,-0.621 -1.338,-0.946c-84.6,-62.704 -118.158,-179.237 -133.962,-278.483c18.575,-28.4 54.325,-62.8 79.45,-86.492c86.654,-81.696 165.737,-131.333 277.666,-172.871c20.021,-7.429 40.834,-12.329 60.805,-19.495c13.12,-4.709 24.154,-14.625 37.829,-17.921c25.537,-6.154 56.566,-0.534 83.225,-3.688c93.741,-11.079 175.191,-49.441 252.154,-102.408Z" style="fill:#45759a;fill-rule:nonzero;"/><path d="M2481.4,220.381c4.097,-0.244 8.199,-0.392 12.304,-0.445c4.106,-0.053 8.21,-0.011 12.313,0.127c4.102,0.137 8.2,0.37 12.291,0.697c4.092,0.328 8.174,0.75 12.246,1.268c4.072,0.517 8.131,1.129 12.175,1.836c4.045,0.705 8.07,1.504 12.075,2.396c4.009,0.891 7.993,1.876 11.954,2.954c3.961,1.078 7.895,2.247 11.8,3.508c3.906,1.261 7.781,2.611 11.625,4.05c3.845,1.442 7.655,2.971 11.43,4.588c3.772,1.616 7.505,3.32 11.2,5.112c3.691,1.789 7.341,3.664 10.95,5.625c3.605,1.961 7.165,4.004 10.679,6.129c3.511,2.125 6.972,4.331 10.383,6.617c3.408,2.286 6.763,4.65 10.063,7.092c3.3,2.441 6.541,4.958 9.725,7.55c69.558,55.787 109.67,137.287 119.262,225.216c14.992,137.434 -32.725,273.396 -118.275,380.059c-104,129.662 -249.108,187.333 -409.767,205.304c-9.433,0.441 -18.925,1.908 -28.304,3c-11.225,-27.896 -18.541,-57.846 -28.866,-86.209c-15.705,-43.133 -35.525,-84.316 -55.438,-125.629c7.125,-31.755 16.872,-62.686 29.242,-92.791c10.483,-24.892 26.908,-52.725 31.991,-79.2c1.33,-6.942 1.034,-14.025 -3.579,-19.817c-3.941,-4.946 -10.287,-7.271 -16.433,-7.679c-27.308,-1.817 -88.658,50.375 -108.904,68.629c26.183,-135.963 75.283,-275.2 163.65,-383.817c61.766,-75.925 142.516,-136.241 242.208,-146.17Z" style="fill:#fac3b7;fill-rule:nonzero;"/><path d="M711.593,2776.71c68.487,-1.663 138.687,12.279 206.129,22.487c94.362,14.284 189.296,29.025 284.354,37.859c-1.456,4.089 -2.812,8.209 -4.071,12.362c-9.125,29.488 -11.45,60.379 4.175,88.392c15.55,27.871 40.488,38.35 69.646,46.283c9.946,11.475 19.338,21.667 32.488,29.671c29.304,17.842 59.466,16.329 91.429,8.887c5.896,4.888 12.55,9.688 19.15,13.609c34.654,20.587 73.254,12.741 109.725,2.866c-65.992,45.434 -124.125,95.596 -180.854,152.163c-30.946,30.858 -71.542,77.879 -105.146,102.225c-8.338,6.037 -18.084,8.796 -28.309,8.937c-38.254,0.525 -80.625,-12.337 -118.104,-20.125c-43.319,-8.841 -86.703,-17.362 -130.15,-25.562c-75.729,-13.6 -712.021,-129.617 -726.608,-143.942c8.529,-20.729 155.5,-129.458 186.896,-155.996c15.987,-13.512 30.387,-28.587 44.833,-43.704c30.542,29.975 80.708,93.3 110.529,114.25c6.917,4.859 13.017,7.838 21.592,6.475c3.321,-2.091 5.187,-3.483 7.221,-6.962c17.9,-30.613 -21.109,-149.896 -30.2,-184.834c49.141,-26.287 75.696,-61.579 135.275,-65.341Z" style="fill:#f2f2f4;fill-rule:nonzero;"/><path d="M352.355,195.381c46.538,-4.55 96.659,15.072 133.05,42.999c114.529,87.896 139.225,253.33 156.338,387.684c-21.179,25.979 -45.279,49.433 -66.096,75.871c-9.15,11.802 -18.038,23.798 -26.663,35.987c-8.627,12.189 -16.986,24.56 -25.075,37.113c-8.089,12.552 -15.9,25.275 -23.433,38.166c-7.536,12.895 -14.787,25.946 -21.754,39.154c-6.967,13.209 -13.643,26.563 -20.029,40.063c-6.384,13.497 -12.473,27.128 -18.267,40.892c-5.792,13.764 -11.282,27.647 -16.471,41.65c-5.186,14.002 -10.066,28.112 -14.641,42.329l-24.334,-7.934c-10.728,-4.3 -21.28,-8.991 -31.658,-14.075c-10.378,-5.083 -20.553,-10.544 -30.525,-16.383c-9.975,-5.836 -19.718,-12.035 -29.229,-18.596c-9.514,-6.564 -18.771,-13.469 -27.771,-20.716c-99.088,-79.138 -158.942,-195.475 -173.008,-320.905c-12.442,-110.962 11.5,-230.9 82.537,-319.429c45.892,-57.183 103.079,-96.14 177.029,-103.87Z" style="fill:#fac3b7;fill-rule:nonzero;"/><path d="M2867.31,1845.42c2.729,-0.304 5.512,-0.338 8.254,-0.446c104.237,-4.192 195.6,22.088 273.316,94.313c62.655,58.22 106.038,137.337 108.642,224.054c0.579,19.362 -2.283,62.804 -15.721,77.012l-2.933,-0.3c-3.517,-7.737 -3.308,-16.133 -4.396,-24.446c-12.425,-95.2 -46.296,-172.82 -124.612,-231.937c-3.778,-2.847 -7.623,-5.599 -11.534,-8.254c-3.914,-2.656 -7.891,-5.211 -11.933,-7.667c-4.042,-2.458 -8.142,-4.814 -12.3,-7.067c-4.156,-2.255 -8.367,-4.405 -12.633,-6.45c-4.264,-2.044 -8.577,-3.98 -12.938,-5.808c-4.361,-1.83 -8.765,-3.551 -13.212,-5.162c-4.445,-1.611 -8.928,-3.111 -13.45,-4.5c-4.52,-1.386 -9.073,-2.661 -13.659,-3.825c-4.583,-1.161 -9.193,-2.207 -13.829,-3.138c-4.639,-0.933 -9.296,-1.751 -13.971,-2.454c-4.678,-0.7 -9.369,-1.283 -14.075,-1.75c-4.705,-0.469 -9.421,-0.821 -14.146,-1.054c-4.722,-0.231 -9.448,-0.346 -14.179,-0.346c-4.728,0.003 -9.454,0.122 -14.179,0.358c-4.722,0.236 -9.436,0.591 -14.142,1.063c-4.705,0.469 -9.397,1.057 -14.075,1.762c-4.336,0.625 -8.654,1.359 -12.954,2.2c-4.3,0.839 -8.576,1.785 -12.829,2.838c-4.25,1.053 -8.474,2.211 -12.671,3.475c-4.194,1.264 -8.354,2.63 -12.479,4.1c-4.128,1.469 -8.217,3.04 -12.267,4.712c-4.047,1.675 -8.051,3.449 -12.012,5.321c-3.961,1.872 -7.872,3.843 -11.733,5.913c-3.862,2.066 -7.67,4.227 -11.425,6.483c-3.756,2.258 -7.452,4.608 -11.088,7.05c-3.639,2.439 -7.214,4.968 -10.725,7.587c-3.514,2.62 -6.96,5.324 -10.337,8.113c-3.375,2.792 -6.681,5.665 -9.917,8.621c-3.233,2.953 -6.392,5.986 -9.475,9.1c-3.083,3.111 -6.088,6.297 -9.013,9.558c-2.925,3.261 -5.768,6.593 -8.529,9.996c-2.758,3.403 -5.43,6.872 -8.016,10.408c-27.155,37.204 -42.667,79.454 -47.03,125.238c-15.354,161.012 107.409,287.296 183.046,416.429c41.025,70.037 75.584,147.296 87.863,228.021c17.146,112.704 -15.204,222.4 -82.034,313.425c-30.733,42.604 -72.65,79.966 -116.85,108.1c-3.839,2.403 -7.708,4.758 -11.608,7.066c-3.897,2.309 -7.822,4.57 -11.775,6.784c-3.953,2.211 -7.932,4.373 -11.937,6.487c-4.009,2.117 -8.041,4.182 -12.096,6.196c-4.059,2.017 -8.139,3.983 -12.242,5.9c-4.106,1.917 -8.233,3.782 -12.383,5.596c-4.153,1.814 -8.325,3.578 -12.517,5.292c-4.194,1.714 -8.41,3.375 -12.646,4.983c-4.233,1.608 -8.486,3.165 -12.758,4.671c-4.272,1.505 -8.564,2.958 -12.875,4.358c-4.306,1.4 -8.629,2.747 -12.971,4.042c-4.342,1.294 -8.699,2.535 -13.071,3.721c-4.372,1.189 -8.758,2.323 -13.158,3.404c-4.4,1.08 -8.811,2.105 -13.233,3.075c-4.425,0.972 -8.862,1.89 -13.309,2.754c-4.447,0.864 -8.904,1.672 -13.371,2.425c-4.469,0.756 -8.945,1.456 -13.429,2.1c-4.483,0.644 -8.975,1.233 -13.475,1.767c-4.497,0.533 -9.001,1.012 -13.512,1.437c-4.509,0.425 -9.023,0.793 -13.542,1.104c-4.519,0.314 -9.042,0.573 -13.567,0.775c-4.527,0.203 -9.055,0.35 -13.583,0.442c-4.531,0.092 -9.06,0.128 -13.587,0.108c-4.531,-0.019 -9.062,-0.094 -13.592,-0.225c-4.528,-0.13 -9.053,-0.315 -13.575,-0.554c-4.525,-0.242 -9.046,-0.539 -13.563,-0.892c-4.516,-0.352 -9.027,-0.759 -13.533,-1.22c-4.506,-0.464 -9.006,-0.982 -13.5,-1.555c-4.494,-0.572 -8.981,-1.2 -13.458,-1.883c-4.478,-0.68 -8.948,-1.418 -13.409,-2.212c-4.461,-0.792 -8.911,-1.638 -13.35,-2.538c-4.439,-0.9 -8.866,-1.855 -13.283,-2.867c26.875,-41.733 38.45,-86.312 45.646,-134.712c41.658,11.467 84.992,13.012 127.837,8.658c95.005,-9.65 179.975,-50.629 240.517,-125.541c36.592,-45.275 57.179,-95.921 64.488,-153.55c32.312,-254.742 -220.113,-414.759 -246.334,-663.538c-9.871,-93.687 12.934,-185.404 72.734,-259.142c58.691,-72.37 143.341,-114.025 235.2,-123.362Z" style="fill:#fac3b7;fill-rule:nonzero;"/><path d="M939.726,3316.26c85.958,-5.333 168.246,23.25 251.733,38.392c0.573,4.931 1.241,9.847 2.005,14.75c0.763,4.903 1.623,9.788 2.579,14.654c0.958,4.87 2.011,9.718 3.158,14.546c1.147,4.828 2.389,9.632 3.725,14.413c1.336,4.777 2.765,9.527 4.288,14.25c1.522,4.722 3.137,9.412 4.845,14.07c1.709,4.662 3.507,9.287 5.396,13.875c1.889,4.587 3.867,9.135 5.934,13.646c2.069,4.511 4.226,8.979 6.47,13.404c2.245,4.428 4.575,8.809 6.992,13.142c2.414,4.333 4.914,8.618 7.5,12.854c2.583,4.236 5.25,8.42 8,12.55c2.75,4.131 5.579,8.206 8.488,12.225c2.911,4.02 5.898,7.981 8.962,11.884c3.067,3.902 6.208,7.743 9.425,11.52c3.217,3.778 6.506,7.492 9.867,11.142c-133.684,62.042 -297.379,131.067 -447.217,110.083c-11.537,-1.616 -31.696,-4.245 -37.987,-15.416c-2.255,-4 -2.363,-9.138 -1.313,-13.513c10.271,-42.791 85.279,-78.579 119.704,-97.666c4.246,-5.896 5.054,-10.009 5.509,-17.021c-2.409,-4.567 -3.45,-5.713 -8.5,-7.909c-11.542,-5.025 -30.813,0.43 -41.925,4.705c-53.53,20.591 -99.817,63.362 -122.542,115.733c-3.133,-1.144 -6.225,-2.392 -9.275,-3.742c-17.604,-7.821 -33.908,-24.925 -40.258,-43.204c-18.996,-54.687 44.283,-107.5 85.879,-131.525c19.758,-11.417 66.487,-23.546 75.862,-42.792c-0.483,-4.045 0.021,-5.22 -2.775,-8.441c-4.875,-5.629 -12.075,-7.554 -19.3,-7.725c-54.621,-1.3 -117.775,49.891 -155.275,84.975c13.075,-32.784 28.671,-64.284 51.884,-91.192c52.487,-60.846 120.579,-81.204 198.162,-86.667Z" style="fill:#f2f2f4;fill-rule:nonzero;"/><path d="M247.264,2950.76c35.116,0.104 69.562,9.204 104.825,8.708c-44.367,28.558 -144.855,99.083 -161.305,148.008c-3.616,10.759 -3.812,21.959 1.663,32.134c5.475,10.179 15.312,18.229 26.029,22.383c39.054,15.137 99.929,23.146 142.354,31.933c86.309,17.879 172.384,37.571 259.046,53.559c62.508,11.529 137.933,20.625 197.988,36.658c-35.625,16.312 -65.734,39.217 -94.892,64.992c-41.621,44.404 -56.442,78.9 -83.363,131.083c-7.416,-0.414 -14.8,-1.157 -22.15,-2.229c-36.075,-5.004 -72.2,-12.754 -107.87,-20.159c-116.555,-24.2 -264.213,-59.187 -338.83,-159.558c-35.175,-47.317 -52.604,-109.508 -43.683,-168.104c11.938,-78.463 58.088,-133.804 120.188,-179.408Z" style="fill:#45759a;fill-rule:nonzero;"/><path d="M1528.71,2701.72c59.775,-2.983 131.566,-1.587 186.295,24.125c35.588,16.721 66.075,46.25 79.075,83.867c10.384,30.046 11.05,64.108 -3.445,92.95c-38.038,75.679 -122.488,23.733 -173.938,40.191c-13.733,4.392 -27.05,13.442 -39.579,20.58c-23.888,13.604 -47.683,27.041 -73.896,35.725c-17.5,5.795 -45.904,13.545 -62.867,4.137c-6.283,-3.487 -10.095,-10.204 -11.712,-16.987c-8.129,-34.059 34.146,-78.046 57.733,-98.471c13.425,-11.621 36.988,-25.584 45.8,-41.096c2.684,-4.721 3.375,-9.479 0.946,-14.604c-2.183,-4.6 -6.475,-6.884 -11.375,-7.346c-24.696,-2.325 -74.883,43.783 -90.946,61.004c-26.891,29.096 -40.166,58.579 -52.483,95.975c-12.371,0.413 -25.754,0.521 -37.833,-2.467c-9.067,-2.241 -16.571,-6.35 -21.134,-14.77c-3.833,-7.08 -2.783,-18.471 -1.596,-26.075c11.83,-75.892 115.855,-118.692 124.05,-148.675c-0.808,-4.592 -0.933,-7.159 -5.391,-9.838c-6.213,-3.729 -15.009,-2.975 -21.588,-0.908c-48.554,15.237 -104.191,69.237 -127.6,113.746c-6.575,12.495 -8.087,29.466 -14.846,40.391c-1.341,2.175 -1.25,2.204 -3.662,2.484c-7.2,0.841 -15.533,-2.255 -20.742,-7.238c-8.541,-8.171 -10.316,-22.092 -10.666,-33.267c-1.113,-35.108 18.762,-68.095 41.795,-92.995c64.292,-69.496 157.617,-96.675 249.605,-100.438Z" style="fill:#f2f2f4;fill-rule:nonzero;"/><path d="M415.418,70.463c60.862,1.354 115.266,16.807 167.762,47.959c134.292,79.693 206.454,229.421 243.242,375.496c-50.6,29.154 -99.829,59.108 -144.483,97.033c-3.817,-81.629 -25.471,-167.983 -58.367,-242.833c-23.521,-55.192 -58.533,-107.458 -105.871,-144.978c-51.408,-40.745 -113.229,-62.186 -178.962,-54.03c-69.9,8.674 -136.196,52.698 -182.042,104.604c-15.342,17.366 -28.183,36.45 -42.338,54.733c16.821,-42.933 42.938,-85.624 73.542,-120.114c61.317,-69.093 134.279,-112.311 227.517,-117.87Z" style="fill:#f2f2f4;fill-rule:nonzero;"/><path d="M266.455,2502.45l2.171,0.046c12.283,7.367 32.242,60.108 40.121,75.908c19.454,39.03 40.925,78.596 66.8,113.763c18.179,24.708 41.904,49.058 56.446,75.871c8.416,15.521 9.587,37.896 3.866,54.675c-2.32,6.8 -6.579,12.616 -13.291,15.571c-12.375,5.45 -28.821,0.745 -40.784,-3.667c-34.504,-12.742 -68.804,-40 -92.287,-67.954c-11.238,-13.375 -51.367,-78.088 -54.954,-80.754c-1.7,-1.267 -3.934,-1.592 -5.9,-2.388c-5.117,1.925 -7.509,3.342 -10.104,8.375c-6.717,13.008 -1.43,24.575 3.025,37.146c20.375,57.479 75.379,109.017 128.454,136.608c30.066,13.521 53.616,18.879 86.679,12.938c-9.971,7.854 -19.433,15.733 -31.567,20.041c-46.204,16.405 -100.366,-15.475 -133.616,-45.962c-11.042,-10.121 -28.488,-31.983 -42.696,-36.863c-5.213,-1.791 -6.996,-0.758 -11.463,1.534c-3.058,4.591 -4.196,8.454 -3.916,13.954c1.433,28.5 36.491,54.779 56.679,71.858c-3.317,-1.196 -6.534,-2.425 -9.779,-3.812c-50.2,-21.459 -86.263,-64.588 -105.888,-114.992c-1.358,-3.505 -2.632,-7.042 -3.821,-10.608c-1.186,-3.567 -2.285,-7.16 -3.296,-10.779c-1.014,-3.623 -1.937,-7.266 -2.77,-10.93c-0.834,-3.666 -1.577,-7.351 -2.23,-11.054c-0.655,-3.702 -1.219,-7.418 -1.691,-11.146c-0.473,-3.73 -0.854,-7.469 -1.146,-11.216c-0.289,-3.75 -0.486,-7.503 -0.592,-11.259c-0.108,-3.758 -0.123,-7.516 -0.046,-11.275c0.075,-3.761 0.243,-7.516 0.505,-11.266c0.258,-3.75 0.608,-7.492 1.05,-11.225c0.444,-3.734 0.977,-7.453 1.6,-11.159c0.625,-3.708 1.338,-7.398 2.141,-11.07c0.806,-3.673 1.7,-7.323 2.684,-10.95c0.98,-3.631 2.05,-7.234 3.208,-10.809c1.158,-3.577 2.403,-7.123 3.733,-10.637c1.334,-3.517 2.75,-6.999 4.25,-10.446c21.784,-49.225 58.242,-86.45 108.425,-106.067Z" style="fill:#fef7e0;fill-rule:nonzero;"/><path d="M1640.41,3582.95c4.7,-0.033 8.495,0.409 12.962,1.975c44.313,15.554 115.154,69.621 135.775,112.8c3.896,8.159 6.667,18.046 2.721,26.725c-6.621,14.567 -39,21.434 -53.225,25.384c-2.831,-3.773 -5.774,-7.453 -8.829,-11.042c-3.056,-3.592 -6.218,-7.086 -9.488,-10.483c-3.269,-3.398 -6.64,-6.691 -10.112,-9.88c-3.473,-3.188 -7.039,-6.269 -10.7,-9.241c-3.661,-2.97 -7.41,-5.825 -11.246,-8.567c-3.836,-2.742 -7.753,-5.362 -11.75,-7.862c-3.997,-2.5 -8.067,-4.875 -12.208,-7.125c-4.145,-2.253 -8.353,-4.375 -12.625,-6.367c-14.113,-6.563 -31.68,-14.171 -47.1,-8.638c-4.434,4.309 -4.838,5.58 -6.621,11.563c11.458,18.542 44.65,33.9 62.262,47.392c12.434,9.525 23.263,19.995 33.934,31.433c-26.584,0.212 -51.796,-2.767 -77.95,-7.288c-78.796,-18.583 -152.563,-52.25 -225.609,-86.429c-32.758,-15.329 -65.396,-32.416 -99.475,-44.566c15.292,-7.117 31.184,-13.067 46.838,-19.334c38.35,12.542 81.221,15.421 120.566,5.367c11.455,-2.925 22.759,-8.808 34.438,-10.304c17.204,-2.2 34.808,-2.267 52.092,-3.975c31.829,-3.146 63.62,-7.517 95.35,-11.538Z" style="fill:#f2f2f4;fill-rule:nonzero;"/><path d="M412.33,2481.83c37.746,3.896 73.05,8.721 106.079,28.917c32.009,19.571 55.421,50.729 63.696,87.483c10.496,46.596 -0.283,107.142 -25.641,147.45c-7.063,7.563 -14.4,14.625 -24.805,16.971c-13.57,3.059 -30.308,-3.083 -41.416,-10.716c-54.454,-37.417 -4.104,-109.2 -14.942,-147.471c-2.812,-9.938 -9.429,-13.425 -17.696,-18.563c-16.621,-33.662 -31.062,-69.329 -45.275,-104.071Z" style="fill:#f2f2f4;fill-rule:nonzero;"/><path d="M229.601,2227.07c8.013,2.671 11.438,5.396 16.004,12.483c23.092,35.838 37.396,80.6 55.725,119.246c27.892,58.788 56.546,116.834 83.734,175.996c10.895,23.708 23.862,47.417 32.279,72.138c6.262,18.4 12.896,46.491 8.404,65.595l-3.429,2.08c-6.206,-6.609 -12.036,-13.534 -17.492,-20.775c-5.453,-7.245 -10.499,-14.761 -15.137,-22.55c-39.221,-65.113 -162.559,-319.413 -167.209,-385.834c-0.616,-8.816 1.775,-12.033 7.121,-18.379Z" style="fill:#45759a;fill-rule:nonzero;"/><path d="M1297.16,3313.25l1.9,2.288c14.192,86.137 51.93,185.195 113.505,248.404c-17.221,-0.013 -33.605,-0.438 -50.48,-4.146c-8.616,-4.204 -16.154,-8.796 -23.57,-14.829c-54.505,-44.354 -93.45,-126.567 -100.7,-195.7c25.095,-8.1 40.962,-16.892 59.345,-36.017Z" style="fill:#45759a;fill-rule:nonzero;"/><path d="M1824.43,3553.68c0.671,0.292 1.425,0.442 2.013,0.875c8.762,6.5 16.054,22.792 19.004,32.971c10.213,35.246 3.796,69.654 -14.033,101.067c-9,-18.096 -19.604,-34.646 -31.713,-50.796c-25.941,-27.337 -51.716,-48.304 -84.654,-66.7c36.442,-5.996 73.004,-11 109.383,-17.417Z" style="fill:#fef7e0;fill-rule:nonzero;"/><path d="M507.78,2805.52c6.804,3.096 9.125,7.087 12.35,13.646c6.863,13.975 18.317,51.379 10.796,65.621c-3.204,6.07 -5.85,5.862 -12.058,7.7c-12.854,-11.805 -20.204,-26.492 -25.929,-42.75c-3.713,-10.542 -8.909,-26.788 -3.038,-37.246c1.942,-3.454 13.7,-5.713 17.879,-6.971Z" style="fill:#45759a;fill-rule:nonzero;"/><path d="M1306.83,2186.62l4.167,-0.446l-0.662,2.5c-10.471,10.796 -26.088,28.838 -40.542,33.375l-5.338,-3.446c-6.987,-6.329 -14.412,-12.262 -21.625,-18.346c20.663,-6.025 42.959,-8.541 64,-13.637Z" style="fill:#f2f2f4;fill-rule:nonzero;"/><path d="M547.051,2913.07l2.004,1.112c5.284,9.813 11.146,30.571 11.45,41.646l-2.858,-2.046c-4.642,-8.275 -10.525,-14.233 -15.821,-21.841c-3.133,-4.496 -4.617,-7.775 -3.879,-13.163l9.104,-5.708Z" style="fill:#45759a;fill-rule:nonzero;"/></svg>