<svg xmlns="http://www.w3.org/2000/svg" xml:space="preserve" style="fill-rule:evenodd;clip-rule:evenodd;stroke-linejoin:round;stroke-miterlimit:2" viewBox="0 0 1139 923"><path d="M180.17.701h1149.38v989.617H180.17z" style="fill:none" transform="matrix(.99064 0 0 .93176 -178.483 -.654)"/><path d="M278.858 753.339a35.84 35.84 0 0 1 4.298-.093c7.845.246 14.937 4.477 20.167 10.138 10.036 10.862 16.255 30.314 15.525 45.082-.153 3.09-.566 5.699-2.967 7.879-2.308.652-2.827.48-5.173-.151-4.432-4.594-8.902-9.226-13.685-13.457-8.95-7.918-20.536-15.232-25.963-26.216-2.117-4.283-3.61-9.772-1.788-14.405 1.831-4.658 5.267-6.869 9.586-8.777Z" style="fill:#323945;fill-rule:nonzero" transform="translate(-178.648 -47.156)"/><path d="M280.987 764.141c3.649-.075 6.449.313 9.626 2.287 8.074 5.017 14.692 16.551 16.459 25.742.422 2.195.965 4.314-.315 6.189-7.155-6.944-25.509-19.028-27.459-28.359-.496-2.373.456-3.908 1.689-5.859Z" style="fill:#fff;fill-rule:nonzero" transform="translate(-178.648 -47.156)"/><path d="M253.005 796.078c2.306-.176 4.564-.233 6.87-.006 10.128.996 18.811 7.837 25.002 15.518 3.662 4.544 9.71 12.873 8.746 19.144-.225 1.467-.984 2.82-2.24 3.644-2.573 1.688-5.617 1.06-8.435.574-8.871-2.232-18.032-4.161-26.712-7.033-5.703-1.886-11.895-4.929-14.508-10.706-1.571-3.472-1.726-8.202-.27-11.767 2.12-5.192 6.625-7.505 11.547-9.368Z" style="fill:#323945;fill-rule:nonzero" transform="translate(-178.648 -47.156)"/><path d="M255.338 805.71c1.731-.007 3.512.075 5.216.378 6.634 1.18 14.477 8.409 18.055 13.83.944 1.43 1.549 2.107 1.225 3.784l-1.977-.002c-7.186-2.359-18.825-3.578-24.448-8.784-1.661-1.538-1.779-2.438-1.977-4.54.89-2.276 1.957-3.237 3.906-4.666Z" style="fill:#fff;fill-rule:nonzero" transform="translate(-178.648 -47.156)"/><path d="M343.077 294.217a44.648 44.648 0 0 1 7.128.087 44.711 44.711 0 0 1 10.441 2.242 44.988 44.988 0 0 1 6.536 2.846 45.08 45.08 0 0 1 3.078 1.804c3.021 1.899 6.681 4.811 7.3 8.532.287 1.723-.192 3.303-1.201 4.708-4.166 5.797-14.506 6.696-20.927 7.983-8.429 1.937-19.036 4.255-26.921-.469-2.976-1.783-5.199-4.503-5.928-7.936-.731-3.442.448-6.968 2.387-9.804 4.25-6.215 11.024-8.671 18.107-9.993Z" style="fill:#323945;fill-rule:nonzero" transform="translate(-178.648 -47.156)"/><path d="M345.793 304.044c7.003-.421 12.917 2.482 19.058 5.394-5.295.892-10.516 2.094-15.753 3.272-3.696.79-9.483 2.162-13.03.634-1.899-.819-2.303-1.221-3.081-3.098.183-.601.33-1.101.725-1.603 2.706-3.444 8.071-4.084 12.081-4.599Z" style="fill:#fff;fill-rule:nonzero" transform="translate(-178.648 -47.156)"/><path d="M673.571 141.853a126.262 126.262 0 0 1 3.369-11.543 127.16 127.16 0 0 1 4.459-11.168 124.881 124.881 0 0 1 7.567-14.129 124.583 124.583 0 0 1 9.308-13.049 125.684 125.684 0 0 1 5.259-6.052c20.52-21.803 47.893-34.988 77.966-35.842 29.337-.833 57.215 10.748 78.386 30.954 24.98 23.842 37.16 58.628 37.951 92.645.8 34.38-9.749 68.778-33.922 93.917a102.967 102.967 0 0 1-3.709 3.652 106.225 106.225 0 0 1-7.926 6.744 109.605 109.605 0 0 1-4.199 3.075 111.57 111.57 0 0 1-4.344 2.868 109.65 109.65 0 0 1-6.763 3.898 109.666 109.666 0 0 1-4.659 2.32 105.328 105.328 0 0 1-7.185 3.05 106.647 106.647 0 0 1-12.408 3.897 109.519 109.519 0 0 1-5.08 1.132 105.602 105.602 0 0 1-5.128.884 107.112 107.112 0 0 1-12.957 1.114c8.458 38.466-.015 73.372-18.502 107.446 14.826-14.614 28.219-31.015 42.111-46.521a7667.035 7667.035 0 0 0 72.603-81.065c13.599-15.338 29.155-34.672 44.076-48.312 5.158-4.714 11.72-7.305 18.745-6.921 4.961.271 9.74 2.104 13.073 5.904 4.807 5.479 8.174 13.042 7.666 20.435-.37 5.397-2.529 8.941-5.727 13.132-7.666 10.049-17.114 19.168-25.699 28.472l-42.436 46.428-46.372 50.739c-8.359 9.141-16.487 19.225-25.725 27.46 7.649 7.277 13.473 15.523 16.872 25.593a57.086 57.086 0 0 1 1.534 5.348 56.01 56.01 0 0 1 1.004 5.472 57.322 57.322 0 0 1 .49 8.328 56.093 56.093 0 0 1-.354 5.552 56.46 56.46 0 0 1-2.326 10.868 56.697 56.697 0 0 1-3.112 7.739c4.432 8.981 8.466 17.969 11.305 27.596 6.754 22.907 9.872 50.227-2.135 71.977-8.173 14.805-19.461 21.796-35.251 26.232 1.098 6.173 2.349 30.981 1.364 37.048-1.293 7.96-4.958 11.909-11.363 16.512 13.808 5.957 28.601 9.7 43.686 6.463 11.65-2.501 22.038-9.587 29.419-18.838 38.995-48.871-21.144-112.537 17.211-171.329a63.337 63.337 0 0 1 5.696-7.504 62.919 62.919 0 0 1 14.413-12.052 63.993 63.993 0 0 1 5.526-2.992 63.46 63.46 0 0 1 5.796-2.424 62.585 62.585 0 0 1 9.076-2.523c18.718-3.791 37.608-.455 53.477 10.232 10.877 7.324 19.733 19.036 22.093 32.104 1.77 9.771 2.71 24.014-3.37 32.608-2.58 3.658-8.16 7.74-12.674 8.251-12.698 1.436-13.07-21.345-16.284-28.856-1.715-4.008-4.829-7.766-8.186-10.514-5.628-4.607-13.109-6.423-20.276-5.599-7.641.879-14.345 5.05-19.017 11.088-15.65 20.23-3.743 52.602.969 75.201 1.965 9.426 3.169 18.931 4.288 28.486 25.558-8.45 53.783-12.961 80.35-17.431 8.17-1.374 16.72-1.736 24.75-3.605 2.45-4.75-2.65-40.932-4.49-46.848-2.24-7.22-7.41-14.567-8.03-22.124-.23-2.845.44-5.487 2.45-7.574 2.22-2.31 5.66-3.596 8.75-4.24 4.54-.947 9.43-.861 14.06-1.338 8.83-.912 17.65-2.089 26.47-3.176 22.66-2.793 45.62-7.174 68.43-8.242 18.68-.875 38.03 3.72 56.55 6.073 18.09 2.297 37.09 3.091 54.83 7.573 3.53.892 7.96 2.295 10.61 4.922 2 1.993 2.93 4.607 2.85 7.39.38.658.43.649.66 1.495.89 3.199-1.29 10.154-1.87 13.507-1.15 6.539-1.91 31.133-4.01 34.409 5.16-.507 10.85-.55 14.36-4.919 2.51-3.134 2.72-7.399 2.33-11.238-.92-9.106-3.07-18.16-4.41-27.221-2.45-16.637-5.53-45.603-10.6-60.659-1.24-3.67-2.99-7.805-6.48-9.838-8.2-4.783-59.8-8.614-73.01-10.331-8.84-1.15-20.88-1.431-27.98-7.342-2.94-2.446-4.77-5.679-5.11-9.506-.47-5.292.93-11.212 4.55-15.235 2.89-3.211 6.15-4.353 10.34-4.585 16.88-.936 78.06 6.633 94.24 11.35 7.78 2.267 16.05 5.651 22.15 11.126 6.65 5.959 11.43 13.715 14.46 22.066 6.15 16.9 13.97 77.723 15.03 97.339.68 12.533 0 28.836-8.93 38.604-10.7 11.694-24.38 12.941-39.3 13.67.97 4.792.71 10.471-1.53 14.889-2.61 5.15-6.34 7.527-11.68 9.291.31 1.067.63 2.161.62 3.283-.11 15.763-2.06 32.037-3.24 47.799-2.65 34.668-5.61 69.31-8.87 103.926l-3.32 37.435c-.58 6.673-.51 14.35-2.31 20.757-1.3 4.637-3.69 7.058-7.75 9.385.54.336 1.06.685 1.57 1.077 9.01 7.021 11.21 17.422 12.66 28.101l.64.129c5.1 3.352 11.73 8.586 13.11 14.815-.63 2.732-1.4 3.939-3.89 5.53-5.57 3.552-12.45 5.04-18.83 6.379-24.25 5.088-49.31 7.731-73.79 11.583-16.95 2.667-34.01 5.177-50.9 8.149-8.08 1.421-16.02 3.559-24.12 4.837-2.89.456-6.47 1.231-9.32.625-6.96 1.707-14.52.551-21.39-.905-10.02-.19-20.36-6.859-30.14-9.341-13.37-3.393-27.024-6.261-40.544-8.984-8.131-1.637-16.434-2.906-24.407-5.204-6.533-1.013-13.931-4.851-18.407-9.721-6.537-7.114-7.267-15.766-6.983-24.938 1.716-7.484 4.511-14.266 9.39-20.291 2.217-2.738 5.69-6.226 9.406-6.43.314-.017.628-.011.943-.017l.267-.831c-1.715-.724-3.609-1.564-4.989-2.835-2.703-2.487-4.024-6.566-4.764-10.058-3.046-14.363-3.189-31.78-4.655-46.561-4.412-44.514-9.154-89.855-10.133-134.562-3.577 7.352-5.95 15.27-9.605 22.601-8.684 17.418-25.065 33.047-42.796 41.026-25.656 11.545-56.252 10.599-82.295.883-.566 17.814-.565 36.102 12.689 49.914 3.396 3.538 8.783 7.029 11.121 11.312 1.701 3.115.37 7.506 1.526 10.593.614 1.64 10.441 9.209 12.439 11.502 2.469 2.833 4.208 6.524 5.945 9.842 5.351 18.378 3.649 35.122-5.649 52.02-2.961 5.382-6.576 10.328-10.174 15.293 4.558 2.685 10.903 4.926 12.678 10.274-.25 2.616-.538 3.825-2.62 5.692-9.945 8.912-36.659 10.809-49.564 12.272-17.871.645-50.143 3.334-66.329-5.968-12.334-2.658-25.667-2.576-38.246-2.637-23.732-.114-47.611 1.019-71.317 2.181-14.446.708-29.333 2.017-43.768 1.368-3.943-.294-21.515.397-24.404 1.453-11.665 2.821-25.693 1.916-37.676 2.247-4 .111-8.908-.238-12.751.885 5.662 1.649 12.353 1.48 18.252 1.966 11.785.969 23.469 1.834 35.141 3.829 8.391 1.53 19.673 3.286 26.625 8.384 3.108 2.279 5.014 5.267 5.444 9.127.402 3.602-.558 7.091-2.863 9.901-12.669 15.447-68.589 15.135-88.851 16.485-.499 2.249-.94 5.181-2.685 6.805-10.157 9.46-86.239 10.205-102.636 10.115-24.269-.134-104.766-2.89-121.277-20.157-2.223-2.325-3.562-5.204-3.314-8.456.507-6.644 5.618-11.048 10.316-15.057-19.543-2.873-60.465-2.752-75.209-15.351-3.176-2.714-6.315-7.399-6.474-11.659-.902-24.224 76.158-26.146 78.871-28.722 1.47-1.396 1.441-5.868 3.66-7.992 3.244-3.106 15.182-1.439 19.612-1.547 37.453-.908 44.444-40.888 65.66-63.095 18.145-18.993 38.41-23.659 63.821-24.219 1.436-5.336 4.669-10.899 8.848-14.541 6.772-5.9 13.674-5.967 22.116-5.3 8.326-7.893 15.833-17.308 23.613-25.796l52.165-57.315c-22.432-3.761-48.346-14.756-65.006-30.753-13.791-13.241-20.22-29.805-20.597-48.824-.819-41.231 21.857-88.189 49.872-117.522-35.07-14.814-56.644-38.085-74.139-71.18-8.028 1.96-16.561 3.524-24.341 6.295-6.653 2.371-12.881 5.908-19.36 8.704-2.637 1.138-5.074 1.808-7.983 1.608-1.514-.883-1.967-.894-2.337-2.809-.267-1.384 1.251-3.787 2.021-4.825 8.289-11.183 35-18.343 48.311-20.125-2.836-8.462-5.086-16.937-7.194-25.604a156.156 156.156 0 0 0-32.026-.601c-5.588.526-11.467 1.689-17.043 1.751-2.04.023-3.507-.335-5.339-1.22-1.259-1.475-1.415-1.648-1.692-3.677.471-1.774 1.166-2.942 2.569-4.156 8.792-7.607 40.838-5.249 52.248-4.823-2.681-19.099-.013-40.267 3.545-59.064-4.536-1.073-8.887-2.192-13.131-4.183-25.025-11.739-43.798-36.793-52.908-62.381-11.483-32.253-11.133-71.23 3.787-102.326 12.583-26.224 33.828-49.392 61.779-59.15 25.744-8.986 52.426-9.434 77.258 2.62 27.288 13.246 43.778 37.344 53.45 65.328 6.313-1.109 12.516-1.55 18.907-1.858-.385-3.633-.858-7.289.318-10.834 1.099-3.312 3.536-6.236 6.691-7.749 11.601-5.563 45.411 5.031 57.313 10.225 6.53 2.85 12.847 7.491 19.583 9.614 5.473 1.725 11.574 2.298 17.207 3.542 7.481 1.653 14.703 4.172 21.885 6.804ZM633.87 827.849c4.208 6.309 5.054 13.906 5.173 21.309 23.759.174 47.516 2.377 71.232 2.47 4.07-6.807 9.954-10.582 15.669-15.795l1.089-.35c-.739-3.058-22.811-24.33-27.246-28.776-20.092-20.146-29.69-46.039-29.631-74.233a468.426 468.426 0 0 0-27.28-.985c-.346.495-.682.997-1.009 1.506-15.428 24.035-4.354 54.126-4.264 79.424.021 5.705-4.89 10.138-3.733 15.43Zm-152.287-51.285c2.123 5.389 3.892 10.925 3.032 16.785-1.024 6.977-5.56 11.678-11.037 15.679 9.66 20.462 10.34 37.606 8.127 59.578 1.573.264 3.192.445 4.697.988 1.286-4.376 1.465-8.697 3.208-13.047 7.45-18.588 22.343-26.398 39.791-33.749-9.056-18.006-10.427-47.22-9.007-67.033.53-7.404 2.257-14.689 2.534-22.094l.027-.856c-13.642 14.567-26.402 30.541-41.372 43.749ZM253.193 881.02c-11.881 1.118-49.681 5.608-58.329 14.678-.657.689-.928 1.549-1.23 2.429 1.093 2.882 2.946 3.937 5.702 5.173 19.829 8.895 43.951 5.924 64.745 10.662 4.312.983 13.256 3.203 14.948 7.854.498 1.368.227 2.739-.487 3.997-3.19 5.618-10.712 7.43-13.994 12.473.649 2.34 1.343 3.098 3.474 4.373 26.64 15.942 166.411 17.934 197.185 8.683 1.8-.541 3.768-1.186 4.758-2.914.36-.631.569-1.332.83-2.006.855-2.202 2.404-3.443 4.56-4.35 9.014-3.788 26.656-2.536 36.831-2.75 10.813-.365 42.799-3.068 50.387-10.602.548-.545.842-1.122 1.188-1.803-.415-2.126-.73-2.558-2.551-3.802-11.743-8.021-57.53-11.05-72.652-11.039.613 4.77.943 8.059-2.268 12.081-4.877 6.109-12.908 7.762-20.291 8.478-13.223 1.281-26.796 1.222-37.932-6.872-10.192 5.057-19.399 7.364-30.515 3.607-2.35-.795-4.684-1.695-6.9-2.816-14.92 6.645-34.174 11.933-50.164 5.94-4.831-1.811-7.58-4.405-10.768-8.347-10.232-.37-24.711.05-32.039-8.472-1.425-1.657-2.51-7.338-3.586-8.117-3.428-2.483-13.754.641-19.38-8.167-4.086-6.397 1.968-17.296-7.717-18.472-4.575-.555-9.228-.252-13.805.101Z" style="fill:#313945;fill-rule:nonzero" transform="translate(-178.648 -47.156)"/><path d="M1076.29 929.546c4.88-1.522 9.56-4.939 12.94-8.715a35.226 35.226 0 0 0 1.51-1.848 35.799 35.799 0 0 0 1.37-1.957c.21-.335.42-.673.62-1.016.21-.343.4-.689.59-1.039.19-.35.37-.704.55-1.061.17-.357.34-.717.5-1.08.17-.363.32-.73.47-1.099.15-.369.29-.741.42-1.116.13-.375.26-.752.38-1.131s.23-.761.34-1.145c.11-.384.21-.77.3-1.157s.17-.776.25-1.167c.07-.391.14-.783.2-1.176.06-.393.11-.787.16-1.182.05-.395.09-.791.12-1.188.03-.397.06-.794.07-1.192.02-.397.03-.795.03-1.193s-.01-.796-.02-1.194c-.01-.397-.04-.794-.07-1.191-.03-.397-.06-.794-.11-1.189-.04-.395-.09-.79-.15-1.184-.06-.393-.13-.785-.2-1.176-.07-.391-.16-.781-.25-1.169s-.18-.774-.28-1.158l-.33-1.147a43 43 0 0 0-.38-1.133c-.13-.375-.27-.748-.42-1.118-.15-.37-.3-.737-.46-1.101-.16-.365-.33-.726-.5-1.084-.17-.358-.35-.712-.54-1.063-1.26-2.381-4.39-5.411-4.51-7.958 6.12-4.561 81.53-14.465 99.18-19.947l.72-.226c.36 1.778-1.52 5.313-2.06 7.153-3.07 10.462-3.09 18.104 2.32 27.833 3.4 6.11 8.6 10.939 15.45 12.803 7.58 2.065 15.93.265 22.65-3.568 9.57-5.462 13.42-13.594 16.24-23.768l.64.129c5.1 3.352 11.73 8.586 13.11 14.815-.63 2.732-1.4 3.939-3.89 5.53-5.57 3.552-12.45 5.04-18.83 6.379-24.25 5.088-49.31 7.731-73.79 11.583-16.95 2.667-34.01 5.177-50.9 8.149-8.08 1.421-16.02 3.559-24.12 4.837-2.89.456-6.47 1.231-9.32.625ZM639.043 849.158c23.759.174 47.516 2.377 71.232 2.47-4.509 9.09-8.258 18.547-4.757 28.729 2.202 6.404 6.781 11.323 11.732 15.767-12.334-2.658-25.667-2.576-38.246-2.637-23.732-.114-47.611 1.019-71.317 2.181-14.446.708-29.333 2.017-43.768 1.368 3.473-2.411 11.297-2.835 15.541-3.876 14.787-3.626 32.209-8.054 44.769-16.921 9.77-6.898 12.955-15.729 14.814-27.081ZM988.479 856.04c12.011 3.113 23.771 7.172 35.711 10.547 6.19 1.748 17.86 3.796 23.19 6.565-.09.326-.17.654-.28.977-1.06 3.364-5.15 6.767-7.17 9.781-5.13 7.674-3.39 21.95.3 29.841 4.82 10.294 11.42 10.136 14.67 14.89-10.02-.19-20.36-6.859-30.14-9.341-13.37-3.393-27.024-6.261-40.544-8.984-8.131-1.637-16.434-2.906-24.407-5.204 10.653-1.403 19.546-3.337 26.512-12.356a33.56 33.56 0 0 0 1.837-2.69 32.888 32.888 0 0 0 2.239-4.342c.213-.5.413-1.005.6-1.515a32.903 32.903 0 0 0 1.85-7.914 32.794 32.794 0 0 0 .186-3.253 33.95 33.95 0 0 0-.134-3.255 32.601 32.601 0 0 0-.188-1.619c-.601-4.443-2.261-8.138-4.232-12.128ZM481.705 868.606c1.573.264 3.192.445 4.697.988.238 5.795 3.045 10.788 7.337 14.647 12.249 11.015 30.538 11.041 45.776 14.248-11.665 2.821-25.693 1.916-37.676 2.247-4 .111-8.908-.238-12.751.885-.153.104-.294.231-.461.312-1.698.819-5.962.378-7.794-.042a4.611 4.611 0 0 1-3.116-2.41c-3.332-6.467 1.87-24.023 3.988-30.875ZM783.579 902.092l-1.999-.597c21.379-7.226 25.911-11.516 41.505-27.641 4.558 2.685 10.903 4.926 12.678 10.274-.25 2.616-.538 3.825-2.62 5.692-9.945 8.912-36.659 10.809-49.564 12.272Z" style="fill:#c9cdd4;fill-rule:nonzero" transform="translate(-178.648 -47.156)"/><path d="M670.637 153.66c-1.148 5.716-2.628 10.816.99 16.061.805 1.167 1.761 1.845 2.988 2.509 1.905.093 2.607.125 4.002-1.293 3.642-3.704 6.377-24.912 8.344-31.405 12.112-39.98 46.773-73.187 89.435-76.804a92.08 92.08 0 0 1 4.697-.242 97.085 97.085 0 0 1 4.704-.009 97.067 97.067 0 0 1 4.698.223 97.357 97.357 0 0 1 4.681.456 95.815 95.815 0 0 1 4.653.687 90.38 90.38 0 0 1 4.613.916 90.435 90.435 0 0 1 4.562 1.143 92.6 92.6 0 0 1 4.501 1.367 95.514 95.514 0 0 1 13.018 5.413 95.887 95.887 0 0 1 4.144 2.226 93.514 93.514 0 0 1 4.028 2.429 93.605 93.605 0 0 1 3.903 2.624 96.117 96.117 0 0 1 5.6 4.291c.604.5 1.202 1.007 1.794 1.522 23.441 19.988 36.227 49.021 38.614 79.461 2.521 32.152-5.392 64.894-26.632 89.697-14.852 17.345-37.647 30.492-60.638 32.194-3.821.273-7.647.361-11.477.264l-3.336-8.908c-4.132-13.991-13.254-27.238-21.632-38.949 5.739-4.953 13.554-8.642 18.431-14.392 1.838-2.168 3.455-5.111 3.035-8.054-.306-2.148-1.738-3.934-3.408-5.233-9.031-7.029-21.905-7.291-32.67-5.749 5.905-7.122 11.997-14.074 18.716-20.446 4.727-4.483 18.502-14.065 21.271-18.54.666-1.076.367-1.712.172-2.883-1.456-.871-2.54-1.086-4.25-.993-13.31.723-29.203 17.752-37.784 27.071a195.685 195.685 0 0 1 2.336-14.547c4.99-24.938 15.928-54.92 38.219-69.481 16.396-10.71 43.14-10.511 58.753 1.922a57.604 57.604 0 0 1 7.663 7.281c2.619 3.038 7.838 12.916 11.164 14.097 1.115.396 2.581.549 3.754.799.098-.199.199-.395.294-.596 1.76-3.74.929-6.562-.484-10.23-4.568-11.866-17.678-22.655-29.073-27.594a62.903 62.903 0 0 0-8.871-3.041 62.989 62.989 0 0 0-9.221-1.704 63.768 63.768 0 0 0-12.493-.131 63.517 63.517 0 0 0-6.196.855 63.992 63.992 0 0 0-6.082 1.46 63.674 63.674 0 0 0-5.909 2.049c-21.199 8.691-34.585 27.663-43.015 48.171-8.046 19.574-10.774 39.695-12.643 60.604-.368 4.125-1.785 12.205.255 16.015.92 1.719 2.535 2.316 4.371 2.593 9.006 1.362 22.427-5.464 30.541-.298l1.027 1.734c-3.059 6.654-24.076 12.579-20.208 21.714 2.967 7.005 10.079 12.605 13.614 19.508 19.037 37.165 24.378 75.024 10.151 114.801-6.613 18.49-17.824 37.428-31.582 51.509-7.516-.022-13.114.438-20.257 3.175-13.519-10.161-45.771-20.059-62.71-17.478-1.639.25-3.326.573-4.464 1.863.063 1.524.311 1.726 1.44 2.793 3.84 3.632 26.178 6.805 33.067 8.898 8.688 2.639 16.726 6.399 24.757 10.588-1.076 1.248-2.201 2.413-3.495 3.439-6.035 4.788-12.964 8.571-19.241 13.053-6.086 4.346-12.123 11.269-18.927 14.276-9.049 4-19.997 5.435-29.581 7.956-3.68.968-5.803 2.296-5.462 6.418.049.596.135 1.191.219 1.783-10.591 11.035-33.282 21.946-46.309 32.909-13.329-7.879-24.978-17.857-36.252-28.424 10.126 1.519 37.844 4.888 46.398-1.032 1.65-1.142 1.736-1.913 2.014-3.725-1.406-2.004-2.605-2.135-4.936-2.535-11.323-1.948-26.775-.822-39.086-2.247-46.217-5.348-94.805-22.658-123.275-61.444-4.818-6.564-8.761-13.465-12.307-20.784 5.371.346 9.231.844 14.01-2.092l.996-1.611c-.585-2.091-1.168-3.01-3.113-4.154-4.817-2.835-10.294-2.353-15.664-2.299-2.969-7.344-4.963-14.85-6.765-22.554 5.8 1.775 13.521 5.146 19.589 3.687 1.6-1.431 1.398-1.595 1.619-3.632-.899-2.958-2.727-4.429-5.41-5.835-5.284-2.77-12.098-4.386-17.81-6.246-4.139-50.885 10.663-106.913 44.093-146.249 20.815-24.494 49.192-44.555 81.228-50.28 4.073 2.24 8.976 5.729 13.83 4.163 1.594-.514 1.88-1.174 2.493-2.637-.323-3.624-2.181-6.375-4.907-8.703-2.945-2.516-7.159-3.832-10.71-5.226 20.624-7.072 36.617 6.464 39.936 5.198.859-.327 1.629-1.171 2.045-1.972.861-1.655.772-3.335.221-5.088-2.424-7.707-10.772-12.758-15.668-18.768a111.595 111.595 0 0 1 12.606.541 111.543 111.543 0 0 1 12.464 1.968 111.125 111.125 0 0 1 23.861 8.094c5.091 2.449 9.974 6.544 15.321 8.236 14.531 4.6 30.061 4.916 44.01 11.833Z" style="fill:#f2f2f4;fill-rule:nonzero" transform="translate(-178.648 -47.156)"/><path d="M744.404 190.314a195.685 195.685 0 0 1 2.336-14.547c4.99-24.938 15.928-54.92 38.219-69.481 16.396-10.71 43.14-10.511 58.753 1.922a57.604 57.604 0 0 1 7.663 7.281c2.619 3.038 7.838 12.916 11.164 14.097 1.115.396 2.581.549 3.754.799 11.683 29.246 11.536 63.712-.853 92.638-9.343 21.814-25.752 40.819-48.158 49.682-10.915 4.317-23.076 5.693-34.759 5.777-4.132-13.991-13.254-27.238-21.632-38.949 5.739-4.953 13.554-8.642 18.431-14.392 1.838-2.168 3.455-5.111 3.035-8.054-.306-2.148-1.738-3.934-3.408-5.233-9.031-7.029-21.905-7.291-32.67-5.749 5.905-7.122 11.997-14.074 18.716-20.446 4.727-4.483 18.502-14.065 21.271-18.54.666-1.076.367-1.712.172-2.883-1.456-.871-2.54-1.086-4.25-.993-13.31.723-29.203 17.752-37.784 27.071Z" style="fill:#fac3b7;fill-rule:nonzero" transform="translate(-178.648 -47.156)"/><path d="M506.142 359.533c10.243-.633 20.564-.429 28.957 6.348 4.083 3.297 6.914 7.851 7.392 13.136.442 4.89-1.354 9.744-4.546 13.42-6.014 6.925-14.502 8.518-23.202 9.013 3.476 6.019 6.055 12.631 8.167 19.238l-.089 2.783c-1.072 1.604-1.011 1.767-2.959 2.344-1.551-.448-2.506-1.068-3.675-2.174-5.858-5.541-8.174-13.9-8.452-21.723-4.537-1.144-8.955-2.192-12.983-4.67-5.246-3.226-9.932-8.087-11.262-14.283-1.001-4.667.011-9.282 2.712-13.226 4.471-6.527 12.573-8.916 19.94-10.206Z" style="fill:#313945;fill-rule:nonzero" transform="translate(-178.648 -47.156)"/><path d="M505.399 369.231c6.615-.434 13.241-.654 19.45 1.978 3.414 1.448 7.251 4.084 8.484 7.727a5.816 5.816 0 0 1 .266 1.118 5.817 5.817 0 0 1-.032 1.72 6 6 0 0 1-.307 1.108c-.07.179-.149.354-.236.525-2.25 4.448-8.322 7.203-12.761 8.691-6.758.588-13.3.642-19.504-2.42-3.494-1.725-7.273-4.835-8.389-8.697-.478-1.654-.247-3.299.655-4.765 2.516-4.087 8.011-5.874 12.374-6.985Z" style="fill:#fac3b7;fill-rule:nonzero" transform="translate(-178.648 -47.156)"/><path d="M726.747 287.531c.493.203.984.416 1.456.666 1.158.612 2.066 1.275 2.723 2.433 1.722 3.035 7.715 20.993 9.005 25.256 1.933 6.383 2.744 13.827-.573 19.908-2.5 4.582-5.966 5.896-10.626 7.326-3.98-.168-7.949-1.028-10.923-3.871-3.369-3.221-4.669-7.991-4.692-12.528-.039-7.834 8.282-33.811 13.63-39.19Z" style="fill:#323945;fill-rule:nonzero" transform="translate(-178.648 -47.156)"/><path d="M727.506 307.963c.281.314.386.419.663.789 3.571 4.769 5.252 14.008 4.119 19.817-.686 3.514-1.945 5.04-4.832 7.081-2.805-1.594-4.524-2.916-5.498-6.118-2.21-7.265 2.248-15.39 5.548-21.569Z" style="fill:#fff;fill-rule:nonzero" transform="translate(-178.648 -47.156)"/><path d="M589.507 325.201c4.295 1.108 7.597 5.337 11.186 7.85 4.519 3.166 10.239 5.25 15.556 6.578 7.18 1.793 15.196 2.412 22.562 1.625 4.208-.45 8.793-2.252 12.981-1.455 1.524 1.443 1.664 1.752 2.195 3.79-.945 4.001-4.162 6.082-7.291 8.375-7.407 3.09-15.193 4.211-23.199 3.88-12.671-.525-26.115-4.76-34.869-14.399-2.414-2.657-3.695-5.463-3.386-9.109.297-3.497 1.81-4.939 4.265-7.135Z" style="fill:#313945;fill-rule:nonzero" transform="translate(-178.648 -47.156)"/><path d="M697.98 379.159c14.769-1.921 34.53-.023 48.636 4.874 4.346 1.509 10.612 4.125 12.567 8.695.531 1.243.269 1.238-.139 2.423-4.571 2.156-23.189-4.074-29.865-4.852-11.659-1.658-23.878-1.595-35.613-.887-6.082.367-22.906 3.659-27.659 2.497-1.698-.415-1.769-1.029-2.545-2.396.118-.775.091-1.791.597-2.395 5.754-6.86 25.627-7.226 34.021-7.959ZM569.66 426.377c9.444-1.07 20.095 1.682 28.89 4.971 5.026 1.88 13.758 5.457 15.773 11.026.695 1.92.31 2.668-.47 4.395-1.405.637-2.175 1.161-3.804.892-3.241-.537-7.466-3.54-10.594-4.85-5.092-2.134-10.357-3.491-15.773-4.5-22.298-2.8-32.057 8.196-45.221 7.763-1.302-1.145-1.541-1.998-1.951-3.658.216-1.409.503-2.301 1.423-3.423 6.709-8.192 21.779-11.536 31.727-12.616Z" style="fill:#323945;fill-rule:nonzero" transform="translate(-178.648 -47.156)"/><path d="M703.026 236.663c.709.407 1.429.801 1.943 1.459 3.155 4.035-5.181 26.941-5.673 33.319-.333 4.322.168 8.603 3.074 12.007 1.919.812 1.905.939 4.018.276 9.887-9.531-2.268-20.151.99-27.924 1.523-.383 1.854-.461 3.282.239 4.658 2.283 6.405 7.74 7.952 12.265.629 2.751 1.282 5.65 1.23 8.487-.085 4.631-1.939 9.305-5.388 12.449a14.884 14.884 0 0 1-2.405 1.756 14.94 14.94 0 0 1-4.134 1.667 14.875 14.875 0 0 1-2.95.403c-.497.019-.994.012-1.491-.019-3.567-.234-6.823-1.979-9.129-4.686-3.849-4.516-4.644-10.924-4.265-16.64.714-10.792 4.576-27.71 12.946-35.058ZM487.314 322.372c2.511.064 3.461.407 5.435 1.841.819 2.24 1.135 3.58.1 5.923-2.948 6.673-10.956 11.645-17.404 14.319-10.227 4.242-20.816 4.513-31.063.318a37.648 37.648 0 0 1-2.775-1.745c-3.096-2.169-4.94-4.782-5.539-8.539 2.77-8.521 22.407-2.046 29.816-3.046 7.995-1.078 14.738-4.827 21.43-9.071ZM590.88 224.674c6.459 1.021 11.646 9.178 16.738 13.218 3.201 2.54 6.816 4.538 10.468 6.344 6.874 3.399 25.404 4.297 29.474 9.477-.028 2.425-.598 2.617-2.12 4.414-.186.052-.371.106-.558.154-12.014 3.071-29.102-3.087-39.334-9.203-6.313-3.773-14.683-9.552-16.374-17.257-.651-2.966.14-4.652 1.706-7.147ZM493.303 217.978c.651-.013 1.425-.076 2.076.048 1.735.331 2.014 1.091 2.833 2.467.257 5.536-3.452 10.908-7.043 14.844-9.984 10.944-24.106 15.107-38.473 15.869-1.364-.453-2.939-.86-4.071-1.772-1.29-1.037-1.247-1.376-1.442-3.003 2.576-4.37 25.201-9.737 32.121-14.306 5.473-3.614 9.82-9.169 13.999-14.147Z" style="fill:#313945;fill-rule:nonzero" transform="translate(-178.648 -47.156)"/><path d="M1241.5 631.278c.98.716 1.16.908 1.38 2.205.58 3.467-.78 8.52-1.04 12.092-1.16 15.904-2.18 31.782-3.56 47.672l-8.16 93.79c-1.35 15.404-2.3 30.979-4.1 46.331-.2 1.676-.52 2.685-1.53 4.047-.77.68-1.49 1.035-2.44 1.438-4.57 1.939-10.57 2.63-15.46 3.658-12.59 2.685-25.21 5.16-37.88 7.426-28.09 5.274-55.8 11.251-84.24 14.564-5.98.698-12.91 2.179-18.91 1.75-11.93-.85-94.133-26.578-105.431-31.544-2.655-1.167-3.345-1.75-4.376-4.386-3.009-21.748-4.063-44.119-6.079-66.011-3.368-36.587-7.323-73.435-8.55-110.153 48.959 14.891 102.896 29.673 154.296 21.504 22.59-3.59 44.96-10.931 66.75-17.745 26.44-8.267 53.56-16.493 79.33-26.638Z" style="fill:#f5c64f;fill-rule:nonzero" transform="translate(-178.648 -47.156)"/><path d="M1154.57 735.551c2.31-.304 3.91-.538 6.15.305 7.51 6.214 38.54 62.846 41.09 72.93.6 2.39.16 4.821-1.22 6.862-4.31 6.393-43.17 13.613-52.13 15.182-7.27 2.749-21.14 3.901-29.08 4.131-3.66.106-8.91.143-11.74-2.479-.74-2.06-.67-3.813-.33-5.946 1.98-12.586 33.74-73.738 42.05-85.76 1.48-2.152 3.08-3.705 5.21-5.225Z" style="fill:#323945;fill-rule:nonzero" transform="translate(-178.648 -47.156)"/><path d="M1155.49 745.305c4.18 2.237 34.45 54.168 39.33 62.659.91 1.571 1.15 1.567.69 3.324-7.17 5.4-34.81 10.343-44.85 11.738-.22.111-.42.243-.65.335-5.13 2.089-28.64 5.504-33.53 3.756l-.56-1.256c.56-12.988 32.2-64.803 39.57-80.556Z" style="fill:#f5c64f;fill-rule:nonzero" transform="translate(-178.648 -47.156)"/><path d="M1162.14 816.351c.82-5.515-11.25-19.413-13.63-25.367l-.33-.829-.58-.207c-1.16 2.493-2.14 5.045-4.09 7.029l-1.3-.235c-.7-1.14-1.23-1.76-1.32-3.129-.31-5.062 4.95-14.024 8.29-17.798 2.1-2.374 4.87-4.29 8.15-4.31 2.87-.017 5.56 1.44 7.42 3.571 1.93 2.221 2.89 4.799 2.44 7.748-.38 2.494-1.29 3.564-3.16 5.006l-1.24.208c-.12-.121-.25-.246-.37-.364-1.74-1.644-3.51-2.356-5.69-3.216l-1.82.189c-.89 1.313-1.38 2.078-1.45 3.73 1.23 1.602 1.79 1.937 3.87 2.141 2.27.225 5.04-.366 7.31-.693 1.09.322 2.26.67 3.24 1.262 3.23 1.956 7.08 6.923 7.54 10.62.21 1.68.18 1.904-.83 3.226-2.82-.749-4.65-3.806-6.75-5.771-1.62-1.52-2.86-1.948-5-1.902l-.69 1.436c1.81 9.061 9.54 8.778 15.04 13.924.11.1.21.206.31.309-3.86 2.86-10.69 2.904-15.36 3.422Z" style="fill:#313945;fill-rule:nonzero" transform="translate(-178.648 -47.156)"/><path d="M1146.74 813.569c1.8-.233 3.68-.527 5.5-.529 1.78-.002 3.68.12 4.98 1.346-.14.189-.26.387-.41.566-2.25 2.723-8.7 2.295-11.99 2.366-1.45.183-3.02.45-4.48.408-1.81-.052-3.42-.271-4.74-1.564 2.62-1.815 7.93-2.049 11.14-2.593Z" style="fill:#1c2f58;fill-rule:nonzero" transform="translate(-178.648 -47.156)"/><path d="M1059.72 689.767c.17-.023.34-.054.51-.069 2.28-.2 3.07.213 4.77 1.591 3.54 6.635 4.29 109.336 4.2 125.975-.03 7.008.82 32.791-3.33 36.894-.43.484-1.01.611-1.6.851l-1.05-1.128c-2.89-13.627-1.79-34.395-2.32-49.061-1.27-34.995-3.9-70.619-2.68-105.62.12-3.302.5-6.28 1.5-9.433Z" style="fill:#313945;fill-rule:nonzero" transform="translate(-178.648 -47.156)"/><path d="M1187.59 690.541c2.27-.361 4.23-.502 6.33.62 2.83 1.513 4.63 4.711 5.49 7.705 1.48 5.189.97 11.826-1.79 16.529-1.62 2.758-3.25 4.332-6.35 5.191-.61.14-1.17.277-1.8.233-2.21-.155-4.59-1.451-5.97-3.171-3.33-4.146-3.19-11.361-2.41-16.314.8-5.003 2.39-7.804 6.5-10.793Z" style="fill:#323945;fill-rule:nonzero" transform="translate(-178.648 -47.156)"/><path d="M1187.8 697.289c1.05-.117 2.11-.115 3.17-.152.62.418 1.28.819 1.76 1.412 1.74 2.132 1.92 5.473 1.61 8.074-.43 3.634-1.02 5.44-3.92 7.753-.36.139-1.24.011-1.65-.006-.32-.288-.57-.468-.81-.816-2.64-3.841-1.18-12.084-.16-16.265Z" style="fill:#f5c64f;fill-rule:nonzero" transform="translate(-178.648 -47.156)"/><path d="M1216.21 686.786c2.11-.213 2.53-.548 4.33.685.34.88.61 1.566.7 2.518.35 3.808.37 23.232-1.62 25.321-.78.815-1.18.59-2.23.66-5.65-2.9-5.64-11.294-9.75-15.765-.12-.125-.24-.242-.36-.363a56.343 56.343 0 0 1 1 11.372c-.03 2.784.03 4.572-1.96 6.555-1.05.132-1.47-.131-2.38-.649-1.94-4.234-1.52-11.435-1.54-16.209-.02-3.19-.19-9.886 2.47-12.17.92-.791 1.2-.479 2.33-.378.99.706 1.86 1.482 2.57 2.473 2.3 3.166 4.93 8.815 4.16 12.737 3.09-4.808 1.23-11.303 2.28-16.787ZM1115.52 701.039l2.88.124c1.17.552 1.83 1.095 2.55 2.189 2.86 4.354 8.88 19.478 7.59 24.459-.32 1.242-.86 1.217-1.89 1.849-2.53-.69-4.43-3.876-6.19-5.765l-3.55.105c-3.59 1.812-3.03 5.823-6.34 7.959l-1.65-.43c-1-1.678-1.18-2.863-.99-4.813.62-6.053 2.96-21.89 7.59-25.677ZM1093.46 701.791c1.11-.161 2.23-.3 3.35-.265 2.62.079 4.55 1.152 6.32 3.05 1.8 1.922 2.45 3.346 2.26 5.989-.11 1.613-.1 1.554-1.3 2.574-3.1-.527-5.08-3.074-7.84-4.365-1.72-.805-2.18-.747-3.93-.135-1.37 1.97-1.17 4.944-1.05 7.257.21 3.799.17 8.038 3.18 10.776 2.12.56 2.03.476 3.84-.473 1.06-1.675 1.52-2.946 1.82-4.906 1.78-.271 2.89-.396 4.61.199 1.13 1.612 1.49 2.244 1.03 4.241-.53 2.336-2.92 4.733-4.84 6.012-2.19 1.469-4.97 2.484-7.61 1.747-2.81-.782-5.18-2.754-6.6-5.273-2.87-5.065-2.46-12.126-.84-17.513 1.38-4.558 3.54-6.674 7.6-8.915ZM1143.67 697.287c.66-.101 1.06-.178 1.75-.205.83-.032 2.04-.051 2.54.66 2.67 3.802 1.88 16.126 1.07 20.56-.6 3.254-2.1 6.839-5.01 8.648-2.08 1.292-4.56 1.499-6.91.924-8.33-2.038-4.15-13.349-7.74-18.927-.09-.137-.19-.266-.28-.399 1.15-2.003.96-3.854 1.28-6.063.31-2.181 1.37-3.442 3.09-4.691l.84.155c4.11 4.443 1.55 15.298 3.51 21.085.62 1.824.93 2.54 2.61 3.397 6.4-3.573.91-18.451 3.1-24.759l.15-.385ZM1163.3 694.293c1.64-.19 2.93-.119 4.55.144 1.53 1.643 1.32 1.868 1.43 4.016-1.51 1.928-3.58 1.888-5.78 2.897-1.85 4.773.95 13.297.22 18.742-.29 2.145-.52 2.649-2.2 3.929-2-.079-2.77-.705-4.29-1.964 1.56-5.034.99-14.292-.26-19.43-1.07.027-2.21.093-3.28-.038-1.94-.238-2.53-.505-3.62-2.058.18-.982.32-2.014.94-2.828 1.71-2.254 9.45-2.895 12.29-3.41ZM1171.14 693.537c2.12-.263 2.96-.793 4.75.483 2.64 5.714 2.23 12.954 2.29 19.12.04 3.542.59 6.258-2 8.897-1.44.11-1.42-.078-2.59-.977-2.81-6.527-2.11-20.259-2.45-27.523Z" style="fill:#323945;fill-rule:nonzero" transform="translate(-178.648 -47.156)"/><path d="M1037.22 518.71c7.67-1.208 36.42 6.019 47.05 7.67 21.92 3.402 44.94 6.946 67.16 7.127 24.2.197 49.2-3.4 73.14-6.701 10.35-1.426 23.91-1.98 33.59-5.828.16.467.37.971.45 1.47.61 4.015-1.29 11.028-1.67 15.323-.76 8.734-.17 17.721-1.22 26.381-.18 1.428-.68 2.64-1.49 3.827-5.38-.093-10.54-.635-15.26 2.485-3 1.986-4.98 4.675-5.67 8.245-.87 4.469.75 9.351 3.25 13.048 4.53 6.688 11.38 8.1 18.76 9.486.2.427.28.59.45 1.066.8 2.294.57 5.875-.63 8.024-1.74 3.094-5.23 5.256-8.32 6.797-10.46 5.21-22.87 8.398-33.97 12.195a1659.488 1659.488 0 0 1-81.97 26.392c-64.07 18.859-90.66 12.969-154.161-2.863-13.418-3.345-34.007-7.435-45.679-13.959-3.046-1.703-6.655-4.223-7.468-7.841-.448-1.994.19-3.808 1.405-5.393 3.16-4.123 8.859-7.01 13.653-8.7 8.954-3.155 19.113-4.405 28.424-6.196A1161.273 1161.273 0 0 1 1040 598.768c.1.102.21.19.29.305 1.32 1.829.66 5.018.21 7.028.09.159.2.31.28.476 1.63 3.325 1.92 9.763.73 13.245-17.64.482-33.7 6.471-50.138 12.288-9.712-1.171-44.572-13.261-49.39-12.354-1.99.375-2.512 1.417-3.523 2.958.294 2.049.569 2.737 2.228 4.083 14.657 11.891 95.053 23.714 117.183 24.975a161.051 161.051 0 0 0 34.65-1.57c19.97-3.04 128.16-32.699 136.04-43.43.32-1.998.41-1.948-.76-3.773-2.34-1.198-4.2-1.021-6.72-.572-7.28 1.304-14.65 4.378-21.7 6.672-15.2 4.947-31.14 10.511-46.67 14.108 2.35-4.773 1.29-42.721-.28-48.916-.55-2.154-1.68-5.232-3.79-6.313-1.08-.558-1.35-.191-2.46.129-6.36 6.938-3.34 36.233-2.79 45.937.2 3.535 1.01 7.208.4 10.714-.02.158-.06.314-.09.471-2.75 1.848-7.72 2.647-10.95 3.558-6.21 1.751-13.11 3.86-19.57 4.055-8.54.257-17.76-2.837-26.11-4.618-11.23-2.405-22.5-4.643-33.79-6.712.27-.492.29-.467.46-1.105 1.16-4.176-6.01-75.508-7.95-83.059-1.72-6.661-5.32-12.633-8.57-18.638Z" style="fill:#f5c64f;fill-rule:nonzero" transform="translate(-178.648 -47.156)"/><path d="M1051.86 532.984c.17-.035.33-.075.5-.104 6.9-1.217 43.61 6.196 52.79 7.543 13.54 1.988 27.11 3.657 40.8 4.199 30.81 1.22 62.2-5.018 92.67-8.932 3.44-.441 7.28-1.444 10.23.624l.09 1.384c-1.29 1.484-2.72 1.78-4.56 2.334-.8.402-1.48.732-2.34 1.006-10.65 3.417-22.83 4.751-33.92 6.424-18.56 2.8-37.78 5.556-56.57 5.557-22.15.001-47.61-4.257-69.35-8.34-8.32-1.562-20.79-2.655-27.98-7.037-2.06-1.26-1.97-2.489-2.36-4.658Z" style="fill:#323945;fill-rule:nonzero" transform="translate(-178.648 -47.156)"/><path d="m789.167 672.885.68.289c3.41 9.304-2.853 27.753-4.618 37.725-4.625 26.143 1.272 41.166 16.231 62.399-3.13 4.903-7.082 9.596-11.287 13.588-18.856 17.897-43.662 24.849-69.265 24.064-19.746-14.24-36.142-38.854-39.224-63.014-.945-7.409.04-17.417-2.785-24.274-9.845-2.09-19.747-1.694-29.705-2.544-7.77-.663-15.429-2.294-23.145-3.379-3.553-.499-8.755-.794-11.756 1.442l-.049 1.432c4.093 4.82 11.123 6.301 16.895 8.221-7.932 18.262-8.887 29.747-8.901 49.167-.006 7.014 1.092 13.959 1.992 20.901-13.272 6.324-29.363 7.924-43.956 7.725-12.295-.167-35.574-2.094-44.153-11.547-5.447-6.002-5.434-31.192-5.004-39.799 1.097-21.957 7.696-45.726 24.466-60.9 1.476.707 2.97 1.368 4.542 1.831 5.203 1.533 10.462.275 15.722 1.246 8.718 1.611 17.12 3.809 25.965 4.78 57.028 6.259 136.588-1.382 187.355-29.353Z" style="fill:#487598;fill-rule:nonzero" transform="translate(-178.648 -47.156)"/><path d="M403.83 280.471c-5.007-1.546-9.756-3.434-14.335-6.005-22.583-12.678-38.518-37.966-45.215-62.5a119.502 119.502 0 0 1-1.489-5.798 122.905 122.905 0 0 1-1.199-5.865 117.23 117.23 0 0 1-.908-5.917 118.652 118.652 0 0 1-.613-5.955 119.11 119.11 0 0 1-.318-5.978c-.028-.997-.044-1.995-.048-2.993a124.484 124.484 0 0 1 .127-5.985 119.102 119.102 0 0 1 .424-5.971 119.14 119.14 0 0 1 1.188-8.899 121.813 121.813 0 0 1 3.436-14.557 119.588 119.588 0 0 1 1.875-5.685 120.969 120.969 0 0 1 8.725-19.022c13.031-22.634 33.896-39.803 59.31-46.55 21.227-5.635 43.451-3.522 62.6 7.658 24.787 14.472 37.749 39.043 44.88 65.903-19.36 6.353-38.208 16.363-53.955 29.322-.215-1.74-.461-3.476-.738-5.207-3.604-22.284-15.297-48.929-34.019-62.221-11.274-8.004-24.114-10.768-37.705-8.313-14.361 2.594-27.819 10.547-36.026 22.814-2.088 3.121-6.478 9.934-5.287 13.875.746 2.468 2.526 3.202 4.525 4.5l.606-.624c3.72-3.87 6.338-8.444 9.696-12.588 8.193-10.108 20.872-16.798 33.972-17.225 10.799-.352 20.668 4.188 28.457 11.507 16.747 15.737 23.407 41.195 25.239 63.345-22.972 22.662-42.589 53.679-50.184 85.315l-3.021 9.619Z" style="fill:#fac3b7;fill-rule:nonzero" transform="translate(-178.648 -47.156)"/><path d="M403.83 280.471c-5.007-1.546-9.756-3.434-14.335-6.005-22.583-12.678-38.518-37.966-45.215-62.5a119.502 119.502 0 0 1-1.489-5.798 122.905 122.905 0 0 1-1.199-5.865 117.23 117.23 0 0 1-.908-5.917 118.652 118.652 0 0 1-.613-5.955 119.11 119.11 0 0 1-.318-5.978c-.028-.997-.044-1.995-.048-2.993a124.484 124.484 0 0 1 .127-5.985 119.102 119.102 0 0 1 .424-5.971 119.14 119.14 0 0 1 1.188-8.899 121.813 121.813 0 0 1 3.436-14.557 119.588 119.588 0 0 1 1.875-5.685 120.969 120.969 0 0 1 8.725-19.022c13.031-22.634 33.896-39.803 59.31-46.55 21.227-5.635 43.451-3.522 62.6 7.658 24.787 14.472 37.749 39.043 44.88 65.903-19.36 6.353-38.208 16.363-53.955 29.322-.215-1.74-.461-3.476-.738-5.207-3.604-22.284-15.297-48.929-34.019-62.221-11.274-8.004-24.114-10.768-37.705-8.313-14.361 2.594-27.819 10.547-36.026 22.814-2.088 3.121-6.478 9.934-5.287 13.875.746 2.468 2.526 3.202 4.525 4.5-10.063 14.974-8.414 44.246-5.061 61.197 4.419 22.336 16.703 49.012 36.134 61.871 5.28 3.494 10.64 5.083 16.713 6.662l-3.021 9.619Z" style="fill:#f2f2f4;fill-rule:nonzero" transform="translate(-178.648 -47.156)"/><path d="m678.103 477.173 2.815.432c.04 1.508-10.297 8.596-12.539 15.085-2.714 7.858.413 14.075 3.732 21.043-10.959 12.723-23.819 24.516-35.589 36.537-10.343 10.564-20.267 22.105-31.2 32.008-15.434-6.683-31.319-6.32-46.962-.355-10.535-5.508-22.54-8.233-32.703-14.292-3.334-13.385-6.679-34.964-17.703-44.322-1.034-.878-.995-.855-2.311-.737-2.668 6.098 8.597 33.264 9.806 42.013l.065.495c-6.081-1.083-13.945-4.411-19.981-3.728-1.977.224-2.577.629-3.696 2.176l.424 1.573c4.815 4.95 27.66 11.29 35.661 14.203-15.299 11.858-27.454 21.505-35.207 40.121-3.712 10.368-3.377 18.684-.851 29.247-13.187-7.135-28.77-15.573-37.23-28.393-9.984-15.13-10.67-35.859-7.037-53.156 2.001-9.528 4.614-19.213 8.039-28.331 5.92-15.764 22.252-48.897 36.601-57.972 1.596-1.009 3.498-2.023 5.426-1.994 6.839.101 31.626 7.615 40.871 9.692 12.866 15.973 32.114 34.118 52.63 38.623 15.953-5.481 44.19-30.356 60.928-39.819 8.158-4.613 17.141-7.277 26.011-10.149Z" style="fill:#7a7bbe;fill-rule:nonzero" transform="translate(-178.648 -47.156)"/><path d="M516.994 496.115c1.956.255 3.201.914 4.805 2.032 8.637 6.019 16.626 13.129 25.102 19.394 6.243 4.614 14.008 8.664 19.64 13.896 1.824 1.695 1.826 2.046 2.272 4.423-15.143-1.111-34.997-16.196-45.343-27.098-3.797-4.002-6.627-6.99-6.476-12.647Z" style="fill:#313945;fill-rule:nonzero" transform="translate(-178.648 -47.156)"/><path d="M486.541 510.638c3.304 2.403 6.204 5.944 8.136 9.529 1.893 3.511 2.206 5.02 1.041 8.824-4.237-2.228-7.573-7.119-9.298-11.494-1.129-2.862-1.112-4.108.121-6.859Z" style="fill:#323945;fill-rule:nonzero" transform="translate(-178.648 -47.156)"/><path d="M704.244 543.646c3.079 1.971 2.984 10.326 4.041 13.967 1.616 5.572 4.547 12.965 8.81 17.064 5.226 5.025 12.265 4.189 17.83 7.96 3.395 2.301 5.777 6.019 8.892 8.683 8.496 7.264 19.948 13.619 30.513 17.124 5.893 1.955 23.998 3.932 26.8 5.492.684 1.42.869 2.35.741 3.944-.353 4.41-2.613 7.901-5.831 10.77-16.224 14.468-72.242 28.934-95.398 33.076-9.242 1.653-18.645 3.234-27.977 4.265-6.604.729-13.357.801-19.907 1.982-1.784.321-3.411.597-4.824 1.804 1.409 1.671 3.926 2.175 6.014 2.742 6.748 1.835 16.365.858 23.358.417 41.923-2.647 86.709-15.039 123.294-35.857.702.028.942.408 1.483.829.657 3.893-.108 8.035-.548 11.934-3.797 5.517-8.545 9.367-14.27 12.8-47.866 28.711-149.665 39.22-203.212 25.718 2.034-3.321 4.16-6.259 6.714-9.199 8.278-2.437 14.043-5.721 20.497-11.477l1.466.097c9.099.555 16.966-.712 23.966-7.034 5.537-5.001 8.688-11.768 9.036-19.211.568-12.147-5.311-18.296-12.979-26.737 26.667-20.179 46.044-49.579 71.491-71.153Z" style="fill:#7a7bbe;fill-rule:nonzero" transform="translate(-178.648 -47.156)"/><path d="M253.193 881.02c4.577-.353 9.23-.656 13.805-.101 9.685 1.176 3.631 12.075 7.717 18.472 5.626 8.808 15.952 5.684 19.38 8.167 1.076.779 2.161 6.46 3.586 8.117 7.328 8.522 21.807 8.102 32.039 8.472 3.188 3.942 5.937 6.536 10.768 8.347 15.99 5.993 35.244.705 50.164-5.94 2.216 1.121 4.55 2.021 6.9 2.816 11.116 3.757 20.323 1.45 30.515-3.607 11.136 8.094 24.709 8.153 37.932 6.872 7.383-.716 15.414-2.369 20.291-8.478 3.211-4.022 2.881-7.311 2.268-12.081 15.122-.011 60.909 3.018 72.652 11.039 1.821 1.244 2.136 1.676 2.551 3.802-.346.681-.64 1.258-1.188 1.803-7.588 7.534-39.574 10.237-50.387 10.602-10.175.214-27.817-1.038-36.831 2.75-2.156.907-3.705 2.148-4.56 4.35-.261.674-.47 1.375-.83 2.006-.99 1.728-2.958 2.373-4.758 2.914-30.774 9.251-170.545 7.259-197.185-8.683-2.131-1.275-2.825-2.033-3.474-4.373 3.282-5.043 10.804-6.855 13.994-12.473.714-1.258.985-2.629.487-3.997-1.692-4.651-10.636-6.871-14.948-7.854-20.794-4.738-44.916-1.767-64.745-10.662-2.756-1.236-4.609-2.291-5.702-5.173.302-.88.573-1.74 1.23-2.429 8.648-9.07 46.448-13.56 58.329-14.678Zm132.82 70.761c-19.814-5.013-40.414-5.178-60.673-6.776-9.144-.722-18.866-2.522-28.008-1.745 7.087.343 11.77 4.397 18.456 5.52 21.354 3.587 48.621 5.027 70.225 3.001Zm-137.521-46.657c-13.466-4.27-27.185-7.053-41.409-6.112 6.755 3.515 33.483 8.054 40.857 6.297.189-.045.368-.124.552-.185Z" style="fill:#c9cdd4;fill-rule:nonzero" transform="translate(-178.648 -47.156)"/><path d="M419.511 801.539c.163-.031.323-.085.488-.094 3.771-.209 12.698 8.247 16.054 10.883-3.074 23.48-6.956 36.058-14.38 58.514l.57-.494c15.676-13.698 19.751-35.379 21.035-55.113 3.184.079 6.353.463 9.521.782 3.602 34.5.806 45.123-16.241 75.771-3.319 5.968-5.814 12.67-9.566 18.334-3.563 5.379-8.212 8.583-14.543 9.829-3.288.647-6.729 1.483-9.633-.484-.912-6.937 10.077-14.758 11.293-22.199.297-1.819-.2-2.511-1.226-3.94-1.081-.289-1.193-.536-2.278-.046-2.318 1.047-4.855 5.041-6.515 7.004-10.303 12.188-22.554 20.987-38.776 22.805-5.345.599-17.574 1.916-22.01-1.603.039-.441-.147-.967.118-1.321 1.622-2.167 9.282-5.384 11.979-7.223 4.835-3.296 9.226-7.102 13.616-10.96 13.877-13.688 20.392-32.685 29.836-49.282 3.719-6.535 10.408-14.201 12.392-21.402.332-1.206.27-1.17-.364-2.212-.499.044-.9.05-1.375.18-13.258 3.62-25.27 32.128-31.83 43.535-9.875 17.17-24.234 32.951-44.104 38.141-6.684 1.747-19.55 3.122-25.606-1.156-1.644-1.162-1.692-2-1.885-3.809 3.939-4.387 26.347-11.238 34.6-19.504 18.31-18.34 24.482-44.409 40.954-63.841 10.064-11.874 22.225-19.847 37.876-21.095Z" style="fill:#fff;fill-rule:nonzero" transform="translate(-178.648 -47.156)"/><path d="M940.448 464.622c13.624-1.679 29.192 1.807 40.333 9.965a41.801 41.801 0 0 1 4.764 4.009 41.527 41.527 0 0 1 2.825 3.045 43.063 43.063 0 0 1 2.511 3.309 41.85 41.85 0 0 1 3.126 5.386 42.297 42.297 0 0 1 3.342 9.808c.141.678.266 1.359.373 2.044 1.478 9.728-.629 17.187-6.319 25.044-4.142-13.947-3.444-25.601-15.199-36.338-7.623-6.964-17.68-10.314-27.949-9.767-10.84.577-20.239 5.259-27.396 13.385-21.212 24.086-9.07 55.837-3.303 83.228 2.358 11.201 3.599 22.286 4.418 33.694-4.542 4.35-8.103 9.36-9.11 15.711-1.098 6.917 1.182 12.114 5.134 17.621-5.597 20.119-13.91 34.801-30.011 48.568a76.34 76.34 0 0 1-15.772 9.35c-23.795 10.204-50.746 8.797-74.406-.785 1.837-8.028 2.755-16.013 3.361-24.214a78.402 78.402 0 0 0 5.245 2.024 81.628 81.628 0 0 0 5.374 1.651 82.291 82.291 0 0 0 5.476 1.27 78.958 78.958 0 0 0 5.551.884 79.784 79.784 0 0 0 8.41.591 79.685 79.685 0 0 0 14.004-.983c15.972-2.429 29.836-10.499 39.32-23.66 15.551-21.583 16.976-51.268 12.625-76.682-1.831-10.696-4.895-21.158-6.634-31.871-3.564-21.948-1.56-46.077 11.937-64.515 9.594-13.106 22.207-19.398 37.97-21.772Z" style="fill:#fac3b7;fill-rule:nonzero" transform="translate(-178.648 -47.156)"/><path d="M794.733 450.564c2.054.671 4.259 1.712 6.136 2.772 17.54 9.905 32.836 47.99 37.845 66.897 5.298 19.998 7.774 44.12-3.248 62.641-5.447 9.154-13.863 15.461-24.211 17.984-19.066 4.649-36.834-2.339-52.926-12.084-4.217-2.49-7.737-5.857-11.203-9.273 22.629-8.289 43.09-29.933 47.773-54.034.745-3.835-.518-12.495 1.196-15.248 6.816-1.212 13.478 10.068 20.094 9.234 1.175-.148 1.331-.796 2.047-1.656.344-2.184.456-3.783-.686-5.754-6.248-10.788-24.655-15.573-36.112-18.357-1.438-9.335-1-18.848-2.447-28.216 6.274-4.114 10.781-9.357 15.742-14.906Z" style="fill:#7a7bbe;fill-rule:nonzero" transform="translate(-178.648 -47.156)"/><path d="M943.571 237.893c3.516-.222 6.281.357 9.35 2.118 1.757 1.009 2.927 2.389 3.403 4.388 1.065 4.466-1.429 9.713-3.852 13.351-4.632 6.953-11.17 13.307-16.751 19.525l-35.485 39.18-77.915 85.95c-14.104 15.665-27.565 32.092-42.068 47.363-1.663 1.751-2.919 3.13-5.393 3.62-4.56-5.956-8.941-11.314-14.65-16.19 20.882-20.726 40.112-43.945 59.66-65.971l70.958-78.486c14.205-15.838 30.11-36.087 45.389-50.139 2.265-2.083 4.558-3.452 7.354-4.709Z" style="fill:#987957;fill-rule:nonzero" transform="translate(-178.648 -47.156)"/><path d="M733.982 439.066c7.496-.359 13.655 1.886 19.635 6.424 9.363 7.105 14.968 18.226 16.362 29.785 2.232 18.516-4.184 35.783-15.575 50.198-8.107 10.258-17.221 15.991-30.265 17.452-19.479-7.436-12.925-25.527-33.494-32.685-3.168-.176-6.011-.384-9.062-1.338-2.042-1.713-2.954-3.573-3.378-6.211-.659-4.103.591-7.371 2.953-10.665 10.638-14.839 26.372-3.156 37.433-4.905.907-.653 1.471-.707 1.697-1.863.369-1.879-.698-3.917-1.848-5.328-6.378-7.828-20.248-8.209-29.511-9.256 23.689-27.816 37.685-4.298 48.357-7.735 1.121-1.927 1.249-2.413 1.299-4.644-2.618-6.225-9.947-9.26-15.745-11.805.159-.246.315-.493.477-.737 3.108-4.669 5.352-5.715 10.665-6.687ZM573.913 589.038c4.504-.331 9.496-.573 13.977-.004 11.653 1.481 22.645 8.432 29.624 17.787 3.961 5.309 7.125 11.956 6.082 18.741-.974 6.333-4.801 10.585-9.825 14.178-3.525-8.283-7.827-15.838-14.773-21.778-3.23-2.762-9.477-7.241-13.97-6.664-1.643.211-1.8.616-2.789 1.822.01 3.378 14.952 17.801 17.966 23.014 3.112 5.381 5.764 12.078 3.89 18.332-2.148 7.172-8.419 11.899-14.777 15.154-1.518-11.185-6.523-20.519-15.295-27.644-3.33-2.485-6.728-5.318-10.871-6.191-2.213-.467-4.374-.869-6.371.409-.918 6.111 16.222 17.517 19.856 24.444 2.466 4.7 2.845 9.623 1.272 14.68-1.258 4.048-3.934 9.551-7.979 11.378-7.077 3.197-14.579-13.902-18.753-18.242-11.851-12.321-14.419-4.447-23.244-8.028-3.171-2.867-4.695-6.171-5.541-10.34-1.979-9.748 1.745-19.136 7.152-27.106 9.945-14.657 26.699-30.517 44.369-33.942ZM819.851 797.816c3.749 3.574 6.843 8.247 8.71 13.073 3.972 10.266 3.021 23.597-1.416 33.578-7.92 17.814-23.244 36.186-41.762 42.94-4.587 1.673-13.505 5-18.024 2.888-8.827-9.205 4.294-20.371 2.482-29.654l-1.307-.692c-3.544.726-6.475 2.677-8.691 5.512-7.3 9.338-5.127 16.657-3.84 27.114l-1.05 1.247c-1.254.237-2.173.303-3.445.101-6.172-.979-11.278-3.448-14.81-8.623-1.765-12.375 6.479-16.609 7.145-26.333-1.259-1.347-1.171-1.306-3.009-1.443-3.361 1.271-5.721 3.476-7.986 6.2-6.971 8.385-5.9 15.439-4.882 25.612-.922-.448-1.838-.908-2.747-1.381-4.397-2.294-8.511-5.057-9.927-10.129-1.695-6.068.051-13.481 3.163-18.814 11.609-19.901 33.008-19.259 52.139-24.304 21.666-5.714 37.988-17.329 49.257-36.892ZM540.177 832.086c5.011.257 11.98 4.496 17.185 5.855 23.041 6.015 46.605 3.09 68.311-6.017 1.225 4.619 2.341 9.424 2.528 14.215.208 5.325-.94 12.413-4.807 16.378-11.839 12.138-57.042 24.247-73.872 24.042-2.786-.034-4.442-.454-6.376-2.453-1.218-6.072 4.441-13.89 7.708-18.8.922-1.602 2.382-3.664 2.664-5.493.224-1.449-.228-1.889-.99-3.007-2.107-.277-2.828-.183-4.736.803-10.773 5.569-12.374 17.716-15.288 28.151l-1.166-.428.685.995c-1.048.163-1.98.255-3.041.12-3.487-.442-9.177-2.333-11.186-5.33-6.318-9.427 7.197-21.512 9.09-30.284l-1.516-.893c-4.069 1.99-8.295 5.091-11.504 8.29-6.505 6.483-6.939 12.904-6.969 21.602-3.992-3.412-7.091-6.077-8.291-11.424-1.141-5.082.559-10.046 3.315-14.283 8.269-12.717 24.072-18.899 38.256-22.039Z" style="fill:#f2f2f4;fill-rule:nonzero" transform="translate(-178.648 -47.156)"/><path d="M400.305 783.441c4.226-.511 8.604-.257 12.857-.218l2.453 7.397c-7.871 2.572-15.672 5.297-22.744 9.696-34.431 21.416-37.429 67.95-68.836 86.379-7.048 4.136-28.182 11.945-36.016 9.164-1.61-.572-2.319-1.233-3.063-2.692 3.668-4.858 17.72-6.983 23.792-9.231 3.834-1.42 7.302-3.203 10.809-5.293 3.13-2.133 10.081-7.136 10.849-10.964.232-1.156-.035-1.136-.619-2.047-4.359-1.228-27.244 14.223-40.132 13.992-6.886-.123-11.224-3.262-15.791-8.096 4.701-.606 9.461-.732 14.145-1.446 19.601-2.987 35.942-14.064 46.47-30.85 5.504-8.776 10.013-18.188 16.209-26.524a75.015 75.015 0 0 1 4.74-5.661 76.476 76.476 0 0 1 8.084-7.562 76.825 76.825 0 0 1 5.965-4.352 74.457 74.457 0 0 1 3.134-1.953 75.855 75.855 0 0 1 27.694-9.739Z" style="fill:#fff;fill-rule:nonzero" transform="translate(-178.648 -47.156)"/><path d="M533.625 672.603c1.817.032 3.444.154 5.084 1.012 3.398 1.777 7.901 5.76 8.685 9.609.568 2.787-.465 4.498-2.054 6.69-11.424 15.768-27.787 31.597-40.985 46.278a2853.872 2853.872 0 0 0-22.163 24.873c-3.414 3.947-6.554 8.367-10.167 12.094-1.546 1.594-2.078 1.642-4.2 1.982-4.397-1.105-9.841-2.969-13.114-6.234-1.498-1.494-2.546-3.514-2.494-5.664.049-2.045.815-2.987 1.99-4.572 8.021-10.818 18.574-20.811 27.703-30.749 17.051-18.565 33.93-37.462 51.715-55.319Z" style="fill:#987957;fill-rule:nonzero" transform="translate(-178.648 -47.156)"/><path d="M1257.95 433.228c1.6-.212 3.25-.437 4.87-.36 7.2.341 14.14 4.453 18.89 9.69 4.01 4.416 6.48 9.537 8.28 15.182 5.14 16.181 15.62 86.722 14.6 103.025-.51 8.111-3.27 16.578-9.59 22.045-10.46 9.04-27.69 6.897-40.44 6.136-2.86-.653-5.64-1.127-8.1-2.81-1.09-1.792-1.26-2.24-1.35-4.327 3.9-6.293 31.29-2.652 40.07-6.784 3.29-1.544 5.31-5.183 6.34-8.526 1.09-3.51 1.28-7.002 1.12-10.65-.71-16.149-11.36-91.55-17.82-103.094-3.89-6.958-10.46-10.253-17.87-12.299.1-.138.21-.266.3-.412 1.18-2.046 1.26-4.584.7-6.816Z" style="fill:#f5c64f;fill-rule:nonzero" transform="translate(-178.648 -47.156)"/><path d="M682.417 519.764c2.816.371 5.736 1.325 8.501 2.025 3.483 3.579 5.696 7.256 7.425 11.933-22.795 23.198-44.528 47.386-67.641 70.281-5.316-5.941-9.616-11.516-16.066-16.462 11.794-12.483 24.283-24.282 36.262-36.576 10.161-10.429 19.972-22.309 31.519-31.201Z" style="fill:#987957;fill-rule:nonzero" transform="translate(-178.648 -47.156)"/><path d="M461.397 815.716c1.481.059 2.324.382 3.651.969 2.751 2.727 4.117 7.193 5.196 10.83 5.148 17.356 1.169 35.044-2.046 52.31-1.082 5.81-2.409 11.798-2.268 17.734.276 11.69 3.61 11.236 10.623 18.044.116 1.175.433 1.411-.383 2.378-3.09 3.66-13.449 3.732-18.124 4.038-5.286.088-14.745-.403-18.944-3.989-1.323-1.13-1.802-2.37-1.679-4.094.615-8.572 12.423-27.9 16.522-36.244 6.945-14.14 9.517-30.552 8.756-46.193-.248-5.083-1.248-10.135-1.304-15.209-.002-.191 0-.383 0-.574Z" style="fill:#fff;fill-rule:nonzero" transform="translate(-178.648 -47.156)"/><path d="M778.982 502.838c2.738 1.229 4.265 3.912 5.458 6.57 3.077 6.86 1.349 15.691-1.274 22.424-5.649 14.505-18.992 29.245-33.319 35.526-7.935 3.479-14.951 3.876-23.047.754-1.338-1.092-2.71-2.262-3.843-3.572-2.292-2.651-4.864-7.293-4.653-10.834.721-1.226.841-1.772 2.329-2.14 6.132-1.517 11.401 1.446 20.316-2.007 19.437-7.528 30.13-28.822 38.033-46.721Z" style="fill:#7a7bbe;fill-rule:nonzero" transform="translate(-178.648 -47.156)"/><path d="M1140.02 505.24c5.39-.379 10.78-.624 16.18-.283 9.64.609 66.97 6.758 73.22 9.273-6.08 3.83-59.32 8.652-69.08 8.881.58-1.027.74-2.219.86-3.379.26-2.538-.01-5.164-1.62-7.216.17-1.662-.19-2.035-.94-3.488-1.69-1.026-1.63-1.075-3.58-.74-5.34 4.631-1.83 10.385-5.27 15.275-.08.124-.18.239-.27.358-26.04-1.931-52.03-6.271-77.86-9.94 22.81-2.708 45.53-6.13 68.36-8.741Z" style="fill:#f5c64f;fill-rule:nonzero" transform="translate(-178.648 -47.156)"/><path d="M534.976 806.941c6.954 1.645 13.627 4.319 20.634 5.859 22.609 4.971 48.558 3.726 69.998-5.316l1.069.701c1.482 3.861-.285 7.931-1.774 11.53-4.037 4.262-9.212 6.183-14.802 7.684-19.563 5.254-48.507 5.358-66.377-5.351-6.116-3.666-7.076-8.733-8.748-15.107Z" style="fill:#487598;fill-rule:nonzero" transform="translate(-178.648 -47.156)"/><path d="M435.088 764.66c.991.004 2.414-.184 3.352.016 3.493.746 9.776 12.306 14.368 15.156 4.123 2.56 9.393 2.985 14.016 4.233 2.15.58 4.533 1.409 5.574 3.568.93 1.928.597 4.322-.024 6.286-1.522 4.816-5.58 7.528-9.76 9.826-7.651 2.349-15.297 1.616-22.376-2.14a31.357 31.357 0 0 1-2.674-1.565 29.444 29.444 0 0 1-1.275-.881 31.43 31.43 0 0 1-3.538-3.009 31.453 31.453 0 0 1-2.091-2.287 30.529 30.529 0 0 1-1.852-2.484 31.742 31.742 0 0 1-1.593-2.658 31.405 31.405 0 0 1-1.32-2.803 30.15 30.15 0 0 1-1.033-2.922c-1.172-3.974-1.471-8.505.684-12.215 2.239-3.856 5.487-5.076 9.542-6.121Z" style="fill:#987957;fill-rule:nonzero" transform="translate(-178.648 -47.156)"/><path d="M1167 418.975c13.68-1.712 66.44 4.425 81.45 7.36.76 1.434.89 2.518.85 4.131-.09 3.277-.35 7.159-2.85 9.519-.63.091-.76.129-1.48.115-5.87-.116-12.26-1.586-18.14-2.244-11.98-1.342-54.89-3.814-61.16-10.964-.66-2.724.52-5.32 1.33-7.917Z" style="fill:#626764;fill-rule:nonzero" transform="translate(-178.648 -47.156)"/><path d="M805.832 782.115c1.72.238 2.936.77 4.077 2.146 1.312 1.582 1.546 3.653 1.261 5.623-1.243 8.584-10.162 17.423-16.715 22.403-17.371 13.202-38.813 17.979-60.206 15.072-2.239-.666-3.637-1.652-5.006-3.578-.938-1.32-1.21-1.514-.951-3.095 2.322-1.35 5.987-1.114 8.69-1.398 27.848-2.936 51.343-15.438 68.85-37.173Z" style="fill:#487598;fill-rule:nonzero" transform="translate(-178.648 -47.156)"/><path d="M534.932 585.091c4.784-.377 9.066 1.047 13.589 2.363-10.399 10.675-22.085 20.043-29.883 32.985-6.677 11.083-8.7 22.479-5.565 35.015-.662.109-1.27.218-1.944.151-2.731-.272-6.436-2.609-7.968-4.873-3.877-5.728-4.392-14.443-3.273-21.058 3.361-19.873 19.582-33.51 35.044-44.583Z" style="fill:#7a7bbe;fill-rule:nonzero" transform="translate(-178.648 -47.156)"/><path d="m1053.7 884.814 1.5.35c2.46 3.253-.25 13.219 3.26 18.617 1.68 2.583 5.27 4.622 8.27 5.202 10.19 1.969 11.74-8.261 18.14-12.383 1.43 1.562 1.72 3.786 1.66 5.904-.09 3.368-1.37 6.256-3.75 8.591-.09 2.267-2.21 4.756-3.91 6.172-3.46 2.873-9.42 3.02-13.66 2.429-6.14-.859-11.91-4.022-15.55-9.107-.19-.261-.36-.527-.53-.798-.17-.271-.34-.545-.5-.824-.16-.279-.31-.561-.45-.847a14.58 14.58 0 0 1-.41-.868c-.13-.293-.26-.589-.37-.888a14.842 14.842 0 0 1-.6-1.824 15.164 15.164 0 0 1-.42-1.875c-.06-.315-.11-.632-.14-.951-.04-.318-.07-.637-.1-.956-.02-.319-.03-.639-.04-.96-.01-.32-.01-.64 0-.961.01-.32.02-.64.05-.959.03-.319.06-.638.1-.956.04-.318.09-.635.14-.95.87-5.04 3.14-8.276 7.31-11.158ZM956.069 854.031c4.574 2.267-1.899 19.662 1.371 26.256 1.318 2.655 3.84 4.34 6.587 5.254 7.778 2.585 11.138-5.137 16.977-8.129.855.739.951.572 1.158 1.806.499 2.976-1.373 5.492-3.019 7.757-1.066 1.045-2.139 2.087-3.286 3.045-3.229 2.698-9.232 3.808-13.384 3.355-5.143-.561-9.906-2.983-13.155-7.049-3.43-4.293-4.574-9.618-3.921-15.009.912-7.533 4.857-12.75 10.672-17.286Z" style="fill:#626764;fill-rule:nonzero" transform="translate(-178.648 -47.156)"/><path d="M816.019 426.496c1.648.619 3.004 2.124 4.198 3.393 10.372 11.023 11.917 26.99 11.568 41.349l-4.511-5.832c-6.818-10.428-14.189-17.736-23.665-25.694 4.243-4.287 8.166-8.908 12.41-13.216Z" style="fill:#7a7bbe;fill-rule:nonzero" transform="translate(-178.648 -47.156)"/><path d="m1198.83 864.582 1.35.417c1.3 5.063 5.24 12.619 5.03 17.451 3.57.641 7.46 1.461 11.1 1.002 8.45-1.065 9.81-10.004 14.27-15.78l.96.419c.53 1.351 1.03 2.696 1.26 4.137.59 3.609.33 5.792-1.85 8.746.14 1.31.14 1.619-.38 2.842-1.82 4.249-5.19 6.97-9.44 8.581-5.26 1.992-11.6 2.14-16.76-.25-3.95-1.826-6.73-5.111-8.09-9.207-1.62-4.879-1.44-10.408.88-15.002l1.67-3.356ZM1069.01 876.58l8.61-.296c.13.177.26.351.39.531 2.18 3.204 3.2 7.481 2.37 11.298-1.1 5.042-4.41 7.549-8.42 10.247-.18.206-.33.442-.55.617-1.2.994-2.67.875-4.08.753-5.75-4.736-4.11-15.501-5.16-22.29 2.27-.432 4.54-.644 6.84-.86ZM970.116 849.178c5.205 1.795 6.942 5.322 9.792 9.736-2.298 5.641-4.633 12.237-8.349 17.088-.429.302-.537.402-1.083.638-1.72.744-2.387.679-4.117.07-3.851-6.442 2.489-19.659 3.641-26.789l.116-.743Z" style="fill:#626764;fill-rule:nonzero" transform="translate(-178.648 -47.156)"/><path d="m1213.01 851.831 4.79-.337c2.04 1.003 2.9 2.135 3.79 4.276 1.92 4.605 1.32 10.081-.72 14.562-1.28 2.817-2.29 3.393-5.01 4.463l-2.3-.184c-.51-.479-.96-.882-1.25-1.542-1.09-2.457-4.05-17.608-3.52-19.505l4.22-1.733Z" style="fill:#626764;fill-rule:nonzero" transform="translate(-178.648 -47.156)"/><path d="M634.822 632.926c.6.586.836.912 1.029 1.737 1.013 4.328-.358 8.763-2.71 12.402-4.062 6.289-9.077 9.874-16.335 11.359-.465-.681-.758-1.622-1.09-2.385.665-6.526 10.341-11.056 14.595-15.753 1.925-2.126 3.22-4.822 4.511-7.36Z" style="fill:#fef7df;fill-rule:nonzero" transform="translate(-178.648 -47.156)"/></svg>
