<svg xmlns="http://www.w3.org/2000/svg" width="989" height="912" viewBox="0 0 989 912"><g fill="none" transform="translate(.34 .844)"><path fill="#313945" d="M191.805444,0 C213.543444,0.1782 231.759444,5.2087 249.707444,17.6101 C281.768444,39.7643 297.010444,72.9139 303.741444,110.2699 C318.305444,103.0139 310.529444,95.4549 334.636444,94.9099 C334.286444,93.4659 333.853444,91.9159 333.742444,90.4319 C333.511444,87.3459 335.437444,82.8059 337.393444,80.4559 C341.218444,75.8619 347.721444,74.5559 353.377444,74.0679 C375.740444,72.1379 400.290444,81.9289 417.111444,96.1889 C454.020444,100.0329 492.650444,111.1909 522.375444,134.2619 C527.281444,109.1799 542.769444,82.2639 558.411444,62.3789 C579.037444,36.1563 607.658444,13.1217 641.800444,9.1568 C665.784444,6.3716 689.221444,12.0776 708.270444,27.2449 C731.000444,45.3385 743.160444,72.1689 746.320444,100.6359 C750.610444,139.3229 739.530444,180.8389 715.080444,211.2779 C689.685444,242.8869 656.881444,258.8509 617.027444,263.2379 C623.789444,287.7709 623.998444,314.9139 619.334444,339.8169 C624.106444,340.7719 629.424444,341.5299 633.937444,343.3389 C636.820444,344.4949 641.544444,346.9119 642.651444,349.9749 C643.167444,351.4029 642.645444,351.7959 641.969444,353.0319 C635.456444,357.2619 624.207444,353.4879 617.216444,352.0839 C611.546444,371.7689 602.990444,387.8359 590.970444,404.3659 C594.805444,406.6719 599.493444,409.2439 602.007444,413.0829 C603.354444,415.1399 603.468444,416.1919 602.943444,418.4399 C602.155444,419.1569 601.487444,419.7689 600.447444,420.0879 C593.907444,422.0959 587.047444,417.3829 581.640444,414.3139 C575.296444,421.4719 568.166444,427.4509 560.769444,433.4799 C562.039444,434.2999 563.289111,435.1499 564.518444,436.0299 C576.546444,444.7099 581.812444,458.7169 584.051444,472.8529 C601.577444,480.7739 622.185444,486.1149 641.198444,488.8519 C651.581444,490.3459 663.012444,490.7219 673.011444,493.8869 C676.822444,495.0939 679.207444,497.2559 681.955444,500.0549 C686.475444,498.1989 690.960444,496.9279 695.752444,496.0109 C717.800444,491.7919 744.880444,492.8689 763.840444,505.9299 C777.270444,515.1829 783.870444,527.7829 786.680444,543.5149 L787.450444,544.3309 C788.310444,544.0929 787.920444,544.0359 788.710444,544.4879 C793.100444,546.9829 795.320444,550.5319 796.580444,555.3609 C797.880444,560.3429 799.070444,569.5669 796.430444,574.0639 C818.860444,577.8029 841.490444,580.9839 863.830444,585.2189 C871.590444,586.6899 881.300444,589.0339 885.930444,596.0949 C888.010444,599.2699 889.070444,603.1149 889.620444,606.8309 C891.060444,616.4089 891.690444,647.9169 889.580444,656.7839 C895.070444,654.9129 900.130444,651.4979 905.720444,649.5049 C919.870444,644.4519 934.930444,645.9829 948.380444,652.4619 C964.910444,660.4269 977.130444,677.2159 983.040444,694.2989 C986.870444,705.3719 990.340444,722.2789 984.910444,733.0999 C983.190444,736.5089 979.620444,740.7229 975.820444,741.7769 C965.640444,744.6039 959.370444,720.8289 955.810444,714.3609 C951.780444,707.0429 946.300444,699.9769 938.940444,695.7839 C932.540444,692.1409 925.440444,691.4849 918.390444,693.4229 C912.170444,695.1289 906.970444,698.9139 902.510444,703.4879 C882.270444,724.2809 896.460444,738.2739 887.040444,753.9359 C882.340444,761.7689 872.110444,764.6629 863.840444,766.7709 C863.870444,766.9459 863.920444,767.1179 863.940444,767.2939 C864.990444,778.9789 839.200444,819.2469 831.100444,829.0969 C808.530444,856.5299 777.540444,874.3989 741.910444,877.8059 C684.573444,883.2869 633.995444,854.6629 591.120444,819.4179 C582.679444,812.6209 574.794444,804.6429 566.969444,797.1369 C550.674444,781.5059 534.725444,765.3979 517.922444,750.3129 C518.899444,759.6759 518.605444,769.5339 518.915444,778.9819 C519.393444,793.5769 520.657444,808.8099 519.388444,823.3609 C519.109444,826.5589 518.449444,829.3599 517.337444,832.3629 C521.268444,837.1389 524.135444,842.5919 526.095444,848.4569 C530.114444,860.4839 530.548444,875.9869 524.563444,887.4649 C519.469444,897.2359 510.096444,902.5959 499.869444,905.7589 C478.241444,912.4459 445.384444,912.7559 425.188444,901.7349 C416.783444,897.1489 410.480444,890.0459 407.887444,880.7389 C403.510444,865.0309 408.168444,849.3589 415.778444,835.5959 C414.041444,832.9399 412.213444,830.0889 411.535444,826.9429 C409.537444,817.6679 410.493444,805.2669 409.350444,795.3319 C407.029444,775.1489 402.266444,755.6589 397.169444,736.0459 C387.785444,735.1159 378.404444,735.0109 369.009444,733.8469 C366.746777,745.3829 365.047777,757.001233 363.912444,768.7019 C362.554444,782.9419 362.739444,822.2679 357.708444,832.1559 C358.384444,835.0629 358.971444,838.0069 359.309444,840.9739 C360.677444,853.0129 357.794444,864.3879 350.101444,873.8429 C336.503444,890.5549 311.133444,896.9979 290.526444,899.1289 C268.270444,901.4299 228.797444,901.5009 210.679444,886.4009 C204.971444,881.6439 201.734444,874.8529 201.076444,867.5009 C201.024444,866.909567 200.987111,866.317567 200.964444,865.7249 C200.941777,865.131567 200.934111,864.538233 200.941444,863.9449 C200.948777,863.351567 200.970777,862.7589 201.007444,862.1669 C201.044111,861.574233 201.095777,860.983233 201.162444,860.3939 C201.228444,859.8039 201.309444,859.216233 201.405444,858.6309 C201.501444,858.0449 201.611777,857.4619 201.736444,856.8819 C201.861111,856.3019 202.000444,855.725233 202.154444,855.1519 C202.307777,854.579233 202.475777,854.010233 202.658444,853.4449 C202.840444,852.880233 203.036444,852.320567 203.246444,851.7659 C203.457111,851.210567 203.681111,850.661233 203.918444,850.1179 C204.156444,849.5739 204.407444,849.036233 204.671444,848.5049 C204.936111,847.974233 205.213777,847.450233 205.504444,846.9329 C205.795111,846.415567 206.098777,845.9059 206.415444,845.4039 C206.731444,844.9019 207.060111,844.4079 207.401444,843.9219 C207.742111,843.436567 208.094777,842.9599 208.459444,842.4919 C208.824111,842.0239 209.200444,841.565233 209.588444,841.1159 C221.130444,827.5059 240.267444,822.5039 257.384444,820.9399 C245.947444,796.9879 248.464444,706.5779 251.543444,677.7629 C247.398444,675.7799 243.482444,673.8949 240.531444,670.2579 C237.790444,666.8789 236.833444,663.0309 236.223444,658.8149 C235.161444,651.4709 235.645444,643.6439 235.665444,636.2159 C235.939444,609.630567 237.529777,583.1239 240.436444,556.6959 C223.407444,559.4129 206.675444,561.3049 189.397444,560.4359 C172.530444,559.5869 141.194444,556.9979 129.548444,544.1179 C113.514444,551.0699 91.3224439,551.6739 74.0574439,550.8609 C58.3274439,550.1209 33.0354439,547.1559 22.0734439,534.8609 C18.0164439,530.3099 17.8534439,526.4809 18.1504439,520.6669 C14.2644439,519.1249 10.3954439,517.4899 7.1714439,514.7689 C3.3464439,511.5399 0.286443899,507.1559 0.0244438993,502.0109 C-0.346556101,494.7569 3.5574439,489.7509 8.2074439,484.6769 C5.7514439,481.6139 3.6694439,478.1599 3.5804439,474.1189 C3.5724439,473.798233 3.57211057,473.477567 3.5794439,473.1569 C3.5874439,472.836233 3.6034439,472.516233 3.6274439,472.1969 C3.6514439,471.8769 3.6834439,471.5579 3.7234439,471.2399 C3.7634439,470.921233 3.8114439,470.604233 3.8674439,470.2889 C3.9234439,469.9729 3.98711057,469.658567 4.0584439,469.3459 C4.1304439,469.0339 4.21011057,468.723567 4.2974439,468.4149 C4.38477723,468.106233 4.47977723,467.7999 4.5824439,467.4959 C4.68511057,467.192567 4.7954439,466.891567 4.9134439,466.5929 C5.0314439,466.2949 5.15677723,465.9999 5.2894439,465.7079 C5.42211057,465.4159 5.56211057,465.127567 5.7094439,464.8429 C5.85677723,464.557567 6.01111057,464.276567 6.1724439,463.9999 C6.33377723,463.722567 6.50177723,463.449567 6.6764439,463.1809 C6.85177723,462.912233 7.0334439,462.648233 7.2214439,462.3889 C7.41011057,462.129567 7.60477723,461.8749 7.8054439,461.6249 C8.00677723,461.3749 8.21411057,461.130233 8.4274439,460.8909 C8.64077723,460.651567 8.86011057,460.4179 9.0854439,460.1899 C23.6424439,445.3849 61.6994439,447.3669 81.1644439,447.1849 C77.9954439,441.6049 74.0244439,434.0669 73.3534439,427.5729 C72.7014439,421.2579 73.3974439,413.7469 77.6864439,408.7879 C81.1124439,404.8259 86.4224439,402.5639 91.5974439,402.2349 C108.540444,401.1569 118.331444,420.3079 128.319444,431.1329 C135.278777,438.6669 142.680111,445.7379 150.523444,452.3459 C153.790444,449.9499 156.957444,447.5779 161.132444,447.1599 C171.536444,446.1169 183.610444,450.3459 194.194444,450.9889 C211.485444,452.0389 228.430444,450.5149 245.665444,449.6559 C216.520444,432.0659 195.333444,412.7999 179.876444,382.1289 C173.345444,383.5889 153.902444,389.4289 148.239444,387.7659 C146.300444,387.1969 145.826444,386.5919 144.882444,384.8879 C144.894444,383.3139 144.802444,382.5389 145.674444,381.1579 C150.243444,373.9199 167.975444,372.3029 176.032444,370.7999 C172.101444,359.9949 170.370444,348.7559 169.585444,337.3209 C162.035444,337.1689 126.458444,339.0769 122.552444,335.9629 C122.124444,334.9609 121.737444,334.1229 121.790444,333.0099 C121.868444,331.3719 122.402444,329.8829 123.665444,328.7999 C130.986444,322.5239 160.136444,324.0069 169.635444,325.0439 C169.425444,296.2519 175.362444,267.8919 184.127444,240.6029 C170.291444,236.1189 158.459444,229.2799 147.504444,219.7169 C120.726444,196.3429 106.750444,160.9939 104.389444,126.0819 C102.075444,91.8649 110.799444,53.7301 133.913444,27.5054 C149.122444,10.2502 169.019444,1.3864 191.805444,0 Z M550.630444,706.5589 C549.588444,689.9399 547.127444,642.8329 554.204444,629.3849 L554.809444,628.6359 C557.512444,625.3159 560.196444,622.9409 564.122444,621.1679 C575.159444,616.1829 589.185444,614.4889 601.030444,611.8909 C613.554444,609.1439 625.998444,606.0509 638.494444,603.2569 C641.152444,602.6619 646.707444,602.4659 646.032444,598.6399 C645.864444,597.6849 645.362444,596.7009 644.524444,596.2279 C644.317444,596.1109 599.788444,592.3089 594.138444,591.4919 C584.198444,589.974567 574.336444,588.0549 564.552444,585.7329 C554.768444,583.410233 545.095444,580.693233 535.533444,577.5819 C537.544444,596.7569 537.237444,616.4179 537.360444,635.6899 C537.424444,645.6619 538.351444,656.7579 536.589444,666.5509 C535.941444,670.1559 534.559444,673.3849 532.206444,676.2139 C529.476444,679.4959 525.418444,681.8369 521.587444,683.6119 C532.795444,689.1949 541.564444,698.1109 550.630444,706.5589 Z M685.302444,822.6249 L695.205444,825.5599 C719.210444,832.4199 746.040444,833.5529 768.600444,821.2169 C780.510444,814.7019 789.680444,804.2199 797.600444,793.3829 C798.950444,791.5319 801.180444,789.1459 801.890444,786.9659 C801.940444,786.8029 801.960444,786.6319 801.990444,786.4649 L800.890444,786.2299 C790.180444,791.6249 775.400444,794.9199 763.810444,798.4579 C737.557111,806.237233 711.387777,814.2929 685.302444,822.6249 Z"/><path fill="#F2F2F4" d="M518.970444,151.5049 C519.250444,155.2999 519.489444,159.1079 522.625444,161.7499 C523.635444,162.5999 524.317444,162.4819 525.586444,162.5959 C528.771444,161.2549 530.079444,159.1919 531.349444,156.0739 C535.817444,145.1019 538.315444,133.2919 542.865444,122.2429 C557.488444,86.7269 584.785444,48.1724 621.089444,32.4608 C639.429444,24.5238 661.078444,22.8433 679.854444,30.3298 C699.186444,38.0381 713.850444,55.0109 721.830444,73.9089 C734.780444,104.5779 732.570444,141.2879 720.090444,171.7259 C708.260444,200.5989 684.547444,225.2669 655.659444,237.4459 C640.925444,243.6569 625.565444,245.5369 609.722444,246.3969 C608.656444,243.2169 607.714444,239.9069 606.475444,236.7959 C603.497444,228.3729 599.732444,220.3209 596.011444,212.2099 L604.181444,192.3119 C606.033444,187.6759 609.993444,178.2359 607.692444,173.4899 C607.014444,172.0899 606.167444,171.2309 604.623444,170.7869 C597.943444,168.8699 586.489444,177.2939 581.080444,180.6169 C582.554444,155.3279 590.365444,126.9899 602.285444,104.6039 C616.717444,77.5019 644.193444,50.4987 677.643444,59.3039 C681.781444,60.3929 694.710444,66.7729 696.951444,66.8369 C697.468444,66.8519 698.578444,66.3419 699.120444,66.1769 C693.357444,57.1299 684.711444,51.7574 674.290444,49.4831 C657.622444,45.8455 640.199444,50.3354 626.108444,59.5619 C594.838444,80.0359 580.410444,119.7299 573.398444,154.6799 C571.688444,163.2019 565.835444,188.5549 569.828444,195.6399 C571.985444,196.7359 573.519444,196.6839 575.817444,195.9559 C582.471444,193.8479 589.057444,189.1859 595.103444,185.6649 C590.591444,195.4919 586.198444,205.2499 582.605444,215.4639 C602.679444,256.4439 610.268444,292.5499 604.340444,338.0959 C577.424444,334.8489 548.463444,337.6259 522.003444,343.0959 C515.663444,344.4059 509.536444,344.8769 504.143444,348.9559 C503.348444,349.5559 502.678444,350.2209 502.041444,350.9809 L502.058444,352.4799 C504.751444,354.9349 509.359444,354.8829 512.829444,354.6939 C520.148444,354.2949 527.481444,352.2289 534.818444,351.4339 C556.579444,349.0769 578.989444,348.1729 600.810444,350.1569 C594.747444,368.0069 587.904444,382.0829 576.754444,397.3009 C562.819444,391.3439 517.069444,372.8159 503.605444,377.8619 C502.193444,378.3909 500.687444,379.3859 500.098444,380.8329 C499.903444,381.3129 499.859444,381.6319 499.737444,382.1639 C500.914444,384.1739 501.709444,385.0029 504.082444,385.5809 C511.280444,387.3329 518.609444,388.4589 525.784444,390.3769 C540.313444,394.2619 553.990444,400.0799 567.602444,406.3929 C528.360444,442.2389 478.430444,463.0299 425.099444,464.2609 C405.644444,481.3999 383.984444,497.7959 359.700444,507.5289 C355.559777,503.2009 351.538777,498.7639 347.637444,494.2179 C352.205444,495.2099 357.687444,496.7879 362.186444,494.8019 L363.008444,493.5449 C362.565444,491.5589 362.301444,490.4829 360.401444,489.3689 C355.522444,486.5099 349.590444,485.3699 344.450444,482.9949 C332.386444,477.4199 322.938444,467.2729 314.029444,457.6919 C267.933444,447.1749 225.276444,428.0439 199.207444,386.5419 C197.569444,383.9329 196.011444,381.2979 194.671444,378.5219 C202.050444,377.0979 213.739444,376.6489 220.097444,372.9269 L221.070444,370.2969 C217.702444,367.2719 212.173444,365.9559 207.709444,366.2469 C202.287444,366.6009 196.375444,367.6629 191.072444,368.8509 C187.765444,358.7789 185.316444,348.7479 183.475444,338.3119 C191.600444,339.5209 209.920444,344.4409 217.192444,342.7499 C218.904444,341.2759 218.971444,341.0679 219.507444,338.8619 C218.269444,336.2679 217.129444,335.4139 214.373444,334.4459 C203.926444,330.7749 194.013444,328.8129 183.135444,326.9529 C184.570444,265.9709 206.865444,203.2599 251.657444,160.6329 C266.427444,146.5759 290.504444,129.4379 310.192444,123.9359 C314.805444,122.6469 319.747444,122.5049 324.492444,121.9719 C327.827444,121.5979 331.535444,121.3369 332.450444,117.6229 C331.012444,113.8529 327.451444,112.0929 324.140444,110.1749 C328.481444,109.8129 332.874444,109.3609 337.225444,109.7679 C343.455444,110.3509 360.438444,116.0439 365.177444,111.3789 C365.745444,108.4809 364.861444,106.7409 363.195444,104.3099 C359.465444,98.8649 353.909444,95.0839 348.713444,91.1549 C367.874444,90.2419 385.564444,94.1549 402.124444,103.9739 C406.041444,106.2959 409.939444,110.7269 414.122444,112.2119 C422.381444,115.1429 432.290444,114.8039 440.920444,116.5859 C468.427444,122.2659 496.671444,134.3029 518.970444,151.5049 Z"/><path fill="#FAC3B7" d="M581.080444,180.6169 C582.554444,155.3279 590.365444,126.9899 602.285444,104.6039 C616.717444,77.5019 644.193444,50.4987 677.643444,59.3039 C681.781444,60.3929 694.710444,66.7729 696.951444,66.8369 C697.468444,66.8519 698.578444,66.3419 699.120444,66.1769 C707.380444,70.6129 712.560444,84.9179 715.180444,93.5669 C723.590444,121.4249 718.730444,155.2959 704.960444,180.6679 C692.560444,203.5029 669.732444,223.1759 644.676444,230.5499 C632.149444,234.2359 619.577444,237.0179 606.475444,236.7959 C603.497444,228.3729 599.732444,220.3209 596.011444,212.2099 L604.181444,192.3119 C606.033444,187.6759 609.993444,178.2359 607.692444,173.4899 C607.014444,172.0899 606.167444,171.2309 604.623444,170.7869 C597.943444,168.8699 586.489444,177.2939 581.080444,180.6169 Z"/><path fill="#313945" d="M330.635444,339.6709 C341.761444,338.7419 355.050444,338.3959 365.068444,343.9629 C368.924444,346.1059 372.257444,349.4579 373.327444,353.8589 C374.413444,358.3269 373.035444,362.9259 370.542444,366.6589 C364.868444,375.1589 354.449444,380.6869 344.669444,382.7279 C346.578444,388.9269 349.168444,394.5879 352.407444,400.1889 C376.697444,400.7309 404.720444,396.6969 424.536444,381.6369 L424.543444,380.7159 C422.953444,380.5939 420.581444,380.6559 419.156444,379.9269 C417.856444,379.2629 417.821444,378.2229 417.426444,376.9589 C417.878444,375.5249 417.869444,374.9329 419.245444,374.1299 C422.577444,372.1879 428.894444,373.5069 432.449444,374.2999 C437.716444,375.4739 445.428444,378.0239 448.344444,383.0189 C449.224444,384.5279 449.169444,384.7579 448.738444,386.4289 C448.393444,386.6329 448.194444,386.7589 447.813444,386.9389 C444.375444,388.5609 440.357444,386.6589 437.037444,385.5189 C427.911444,411.4359 414.106444,433.4489 393.280444,451.4559 C387.089444,456.2209 380.521444,460.5189 372.942444,462.6959 C372.396444,462.857233 371.846444,463.0049 371.292444,463.1389 C370.739111,463.2729 370.182777,463.393233 369.623444,463.4999 C369.064111,463.6059 368.502111,463.698233 367.937444,463.7769 C367.373444,463.8549 366.808111,463.919233 366.241444,463.9699 C365.673444,464.0199 365.105111,464.0559 364.536444,464.0779 C363.967111,464.100567 363.397777,464.108567 362.828444,464.1019 C362.259111,464.0959 361.690111,464.075567 361.121444,464.0409 C360.553444,464.006233 359.986444,463.957567 359.420444,463.8949 C358.853777,463.832233 358.289444,463.755567 357.727444,463.6649 C357.165444,463.574233 356.605777,463.469567 356.048444,463.3509 C355.491777,463.232233 354.938111,463.0999 354.387444,462.9539 C353.836777,462.8079 353.290111,462.648233 352.747444,462.4749 C352.205444,462.302233 351.667777,462.1159 351.134444,461.9159 C350.601111,461.7159 350.073111,461.502567 349.550444,461.2759 C349.027777,461.0499 348.511111,460.8109 348.000444,460.5589 C347.489111,460.3069 346.984777,460.042567 346.487444,459.7659 C327.540444,449.1919 318.726444,426.1479 313.175444,406.3759 C308.804777,404.859233 304.535777,403.0959 300.368444,401.0859 C293.418444,397.7259 276.498444,387.6409 274.541444,380.2179 C274.002444,378.1719 274.582444,377.3289 275.495444,375.5779 C278.179444,374.2039 279.678444,374.7339 282.166444,376.4389 C286.649444,379.5109 290.228444,383.9219 294.684444,387.0489 C307.582444,396.0999 325.489444,398.8539 340.732444,400.5239 C338.288444,394.4469 336.060444,388.4959 334.378444,382.1599 C331.531444,381.0469 328.590444,379.9539 325.982444,378.3429 C319.299444,374.2159 313.437444,366.8459 311.737444,359.0869 C310.892444,355.2329 311.158444,351.0149 313.485444,347.6989 C317.466444,342.0249 324.265444,340.7549 330.635444,339.6709 Z"/><path fill="#E1A39E" d="M421.631444,395.0739 C422.017444,395.4089 422.007444,395.8309 422.134444,396.3159 C421.043777,398.8639 419.872111,401.374233 418.619444,403.8469 C417.366777,406.3189 416.036444,408.748567 414.628444,411.1359 C413.219777,413.522567 411.735777,415.861567 410.176444,418.1529 C408.617111,420.444233 406.986111,422.683233 405.283444,424.8699 C398.463444,421.5219 391.460444,419.2839 383.875444,418.5129 C363.401444,416.4319 352.452444,423.6739 337.361444,436.0179 C335.566444,435.4269 334.485444,433.1189 333.480444,431.6009 C329.097444,424.2669 326.215444,416.7949 323.533444,408.7249 C358.130444,414.4089 390.854444,412.9059 421.631444,395.0739 Z"/><path fill="#FAC3B7" d="M374.013444 426.7359C383.226444 426.0719 390.890444 427.6969 399.468444 430.8299 391.207444 440.7909 381.189444 449.1869 368.594444 452.7579 366.866444 453.0979 365.154444 453.2539 363.395444 453.2669 354.262444 453.3329 348.394444 448.3869 342.217444 442.2599 352.524444 434.2929 360.835444 428.7549 374.013444 426.7359ZM335.799444 348.0119C341.627444 347.4629 348.716444 347.7199 354.366444 349.2149 357.560444 350.0599 361.544444 351.6999 363.106444 354.7989 363.898444 356.3719 363.932444 358.1539 363.389444 359.8109 361.396444 365.9009 353.401444 370.3139 348.049444 372.9179 347.100777 373.1899 346.144111 373.431233 345.179444 373.6419 339.696444 374.8149 334.603444 373.0839 330.060444 370.0109 326.139444 367.3589 321.516444 362.8649 320.751444 357.9839 320.454444 356.0899 320.833444 354.2259 322.017444 352.6959 325.161444 348.6299 331.127444 348.5529 335.799444 348.0119Z"/><path fill="#313945" d="M449.167444,266.7899 C455.081444,266.3779 460.273444,266.8999 465.605444,269.7139 C473.451444,273.8549 478.592444,281.7269 481.145444,290.0439 C484.577444,301.2259 483.527444,314.0109 477.936444,324.3269 C472.938444,333.5469 465.678444,339.0129 455.768444,342.0029 C449.396444,342.4469 443.788444,342.2909 437.962444,339.3859 C430.593444,335.7109 425.669444,328.8719 423.136444,321.1729 C419.293444,309.4929 420.713444,295.8789 426.418444,285.0349 C431.523444,275.3329 438.849444,269.9339 449.167444,266.7899 Z"/><path fill="#F2F2F4" d="M457.178444,288.2979 C457.320444,288.2519 457.463777,288.2089 457.608444,288.1689 C457.753111,288.129567 457.898444,288.093567 458.044444,288.0609 C458.190444,288.0289 458.337111,287.9999 458.484444,287.9739 C458.631777,287.948567 458.779777,287.926567 458.928444,287.9079 C459.077111,287.8899 459.226111,287.875233 459.375444,287.8639 C459.524777,287.852567 459.674111,287.844567 459.823444,287.8399 C459.973444,287.8359 460.123111,287.835233 460.272444,287.8379 C460.422444,287.841233 460.572111,287.8479 460.721444,287.8579 C460.870777,287.8679 461.019777,287.881567 461.168444,287.8989 C461.317111,287.916233 461.465111,287.9369 461.612444,287.9609 C461.760444,287.9849 461.907444,288.012567 462.053444,288.0439 C462.200111,288.075233 462.345777,288.110233 462.490444,288.1489 C462.635111,288.1869 462.778777,288.228233 462.921444,288.2729 C463.064111,288.318233 463.205777,288.3669 463.346444,288.4189 C463.487111,288.4709 463.626111,288.5259 463.763444,288.5839 C463.901444,288.642567 464.037777,288.704567 464.172444,288.7699 C464.307777,288.834567 464.441111,288.902567 464.572444,288.9739 C464.703777,289.045233 464.833444,289.119567 464.961444,289.1969 C465.089444,289.2749 465.215777,289.355567 465.340444,289.4389 C465.464444,289.522233 465.586444,289.608567 465.706444,289.6979 C465.826444,289.787233 465.944444,289.879567 466.060444,289.9749 C466.175777,290.070233 466.289111,290.1679 466.400444,290.2679 C466.511111,290.368567 466.619444,290.471567 466.725444,290.5769 C466.832111,290.6829 466.935777,290.7909 467.036444,290.9009 C467.137777,291.011567 467.236111,291.124567 467.331444,291.2399 C467.426777,291.355233 467.519444,291.472567 467.609444,291.5919 C467.699444,291.7119 467.786444,291.8339 467.870444,291.9579 C467.954444,292.081233 468.035777,292.2069 468.114444,292.3349 C468.192444,292.4629 468.267444,292.592233 468.339444,292.7229 C468.411444,292.854233 468.480111,292.987233 468.545444,293.1219 C468.611444,293.256567 468.673777,293.392567 468.732444,293.5299 C468.791777,293.6679 468.847777,293.8069 468.900444,293.9469 C468.953111,294.0869 469.002111,294.228233 469.047444,294.3709 C469.093444,294.513567 469.135777,294.657233 469.174444,294.8019 C469.213777,294.9459 469.249444,295.091233 469.281444,295.2379 C469.313444,295.3839 469.341777,295.5309 469.366444,295.6789 C469.391777,295.826233 469.413111,295.974233 469.430444,296.1229 C469.448444,296.271567 469.463111,296.420567 469.474444,296.5699 C469.485111,296.719233 469.492111,296.868567 469.495444,297.0179 C469.499444,297.1679 469.499777,297.317567 469.496444,297.4669 C469.492444,297.6169 469.485111,297.766567 469.474444,297.9159 C469.464444,298.065233 469.450444,298.214233 469.432444,298.3629 C469.414444,298.511567 469.393111,298.659567 469.368444,298.8069 C469.343777,298.9549 469.315444,299.1019 469.283444,299.2479 C469.252111,299.394567 469.217111,299.5399 469.178444,299.6839 C469.139777,299.828567 469.097444,299.972233 469.051444,300.1149 C469.006111,300.257567 468.957111,300.399233 468.904444,300.5399 C468.852444,300.6799 468.797111,300.818567 468.738444,300.9559 C468.679111,301.0939 468.616777,301.230233 468.551444,301.3649 C468.486111,301.499567 468.417444,301.632567 468.345444,301.7639 C468.274111,301.895233 468.199444,302.024567 468.121444,302.1519 C468.043444,302.2799 467.962444,302.4059 467.878444,302.5299 C467.794444,302.6539 467.707444,302.7759 467.617444,302.8959 C467.527444,303.015233 467.434777,303.132567 467.339444,303.2479 C467.244111,303.363233 467.146111,303.476233 467.045444,303.5869 C466.944777,303.697567 466.841444,303.8059 466.735444,303.9119 C466.629444,304.0179 466.521111,304.1209 466.410444,304.2209 C466.299111,304.321567 466.185777,304.419567 466.070444,304.5149 C465.955111,304.610233 465.837444,304.702567 465.717444,304.7919 C465.597444,304.881233 465.475444,304.9679 465.351444,305.0519 C465.227444,305.1359 465.101444,305.216567 464.973444,305.2939 C464.845444,305.3719 464.715777,305.446567 464.584444,305.5179 C464.453111,305.589233 464.320111,305.657567 464.185444,305.7229 C464.050777,305.788233 463.914444,305.850233 463.776444,305.9089 C463.582444,305.991567 463.385777,306.0679 463.186444,306.1379 C462.986444,306.207233 462.784777,306.2699 462.581444,306.3259 C462.378111,306.3819 462.172777,306.4309 461.965444,306.4729 C461.758777,306.5149 461.550777,306.5499 461.341444,306.5779 C461.132111,306.606567 460.922111,306.6279 460.711444,306.6419 C460.500777,306.6559 460.289777,306.662567 460.078444,306.661945 C459.867777,306.661945 459.656777,306.654567 459.445444,306.6399 C459.234777,306.6259 459.025111,306.604567 458.816444,306.5759 C458.607111,306.547233 458.399111,306.511567 458.192444,306.4689 C457.985111,306.4269 457.779777,306.377567 457.576444,306.3209 C457.373111,306.2649 457.171777,306.2019 456.972444,306.1319 C456.773111,306.0619 456.576444,305.985233 456.382444,305.9019 C456.188444,305.818567 455.997444,305.7289 455.809444,305.6329 C455.620777,305.5369 455.436111,305.4349 455.255444,305.3269 C455.074111,305.218233 454.896777,305.103567 454.723444,304.9829 C454.549444,304.8629 454.380111,304.7369 454.215444,304.6049 C454.050777,304.4729 453.890444,304.335567 453.734444,304.1929 C453.578444,304.050233 453.427777,303.902567 453.282444,303.7499 C453.136444,303.597233 452.995777,303.4399 452.860444,303.2779 C452.725111,303.1159 452.595444,302.949233 452.471444,302.7779 C452.347444,302.607233 452.229444,302.432233 452.117444,302.2529 C452.004777,302.074233 451.898444,301.8919 451.798444,301.7059 C451.699111,301.5199 451.605777,301.330567 451.518444,301.1379 C451.431111,300.9459 451.350444,300.7509 451.276444,300.5529 C451.202444,300.3549 451.135111,300.1549 451.074444,299.9529 C451.013777,299.7509 450.959777,299.5469 450.912444,299.3409 C450.865777,299.1349 450.826111,298.927567 450.793444,298.7189 C450.760111,298.510233 450.734111,298.300567 450.715444,298.0899 C450.696777,297.8799 450.685111,297.669233 450.680444,297.4579 C450.675777,297.246567 450.678111,297.035567 450.687444,296.8249 C450.696777,296.613567 450.713444,296.403233 450.737444,296.1939 C450.760777,295.9839 450.791444,295.7749 450.829444,295.5669 C450.867444,295.3589 450.912111,295.152567 450.963444,294.9479 C451.014777,294.743233 451.073111,294.540567 451.138444,294.3399 C451.203777,294.138567 451.275777,293.9399 451.354444,293.7439 C451.433111,293.5479 451.518444,293.3549 451.610444,293.1649 C451.701777,292.974233 451.799777,292.787233 451.904444,292.6039 C452.008444,292.4199 452.118444,292.2399 452.234444,292.0639 C452.351111,291.887233 452.473444,291.7149 452.601444,291.5469 C452.729444,291.3789 452.862777,291.215233 453.001444,291.0559 C453.140111,290.897233 453.284111,290.743233 453.433444,290.5939 C453.582777,290.444567 453.737111,290.300233 453.896444,290.1609 C454.055111,290.022233 454.218444,289.8889 454.386444,289.7609 C454.554444,289.6329 454.726777,289.510567 454.903444,289.3939 C455.079444,289.2779 455.259444,289.167567 455.443444,289.0629 C455.626777,288.9589 455.813777,288.861233 456.004444,288.7699 C456.194444,288.6779 456.387444,288.592567 456.583444,288.5139 C456.779444,288.435233 456.977777,288.363233 457.178444,288.2979 Z"/><path fill="#313945" d="M264.744444,263.1879 C270.809444,262.8289 276.290444,264.1739 281.285444,267.7269 C288.955444,273.1829 293.226444,282.7969 294.586444,291.8829 C296.282444,303.2199 293.774444,315.8869 286.799444,325.1219 C281.561444,332.0579 275.116444,335.7709 266.598444,337.0419 C261.402444,337.3359 256.000444,335.8659 251.578444,333.1549 C244.106444,328.5749 239.539444,320.5789 237.664444,312.1789 C235.049444,300.4639 237.296444,287.1279 243.928444,277.0809 C249.066444,269.2979 255.699444,265.0369 264.744444,263.1879 Z"/><path fill="#F2F2F4" d="M271.119444,283.0939 C271.266777,283.049233 271.414777,283.008233 271.563444,282.9709 C271.712777,282.934233 271.862777,282.9009 272.013444,282.8709 C272.164111,282.8409 272.315777,282.8149 272.468444,282.7929 C272.620444,282.770233 272.772777,282.751567 272.925444,282.7369 C273.078777,282.721567 273.232111,282.710233 273.385444,282.7029 C273.538777,282.696233 273.692444,282.6929 273.846444,282.6929 C273.999777,282.6929 274.153111,282.6969 274.306444,282.7049 C274.460444,282.7129 274.613777,282.724567 274.766444,282.7399 C274.919777,282.755233 275.072444,282.774233 275.224444,282.7969 C275.376444,282.820233 275.527444,282.8469 275.677444,282.8769 C275.828777,282.9069 275.978777,282.9409 276.127444,282.9789 C276.276111,283.0169 276.424111,283.058233 276.571444,283.1029 C276.718111,283.148233 276.863777,283.1969 277.008444,283.2489 C277.153111,283.3009 277.296444,283.356567 277.438444,283.4159 C277.580444,283.475233 277.720777,283.5379 277.859444,283.6039 C277.998111,283.6699 278.135111,283.739567 278.270444,283.8129 C278.405777,283.885567 278.539111,283.961567 278.670444,284.0409 C278.802444,284.120233 278.932111,284.2029 279.059444,284.2889 C279.186777,284.3749 279.312111,284.4639 279.435444,284.5559 C279.558111,284.6479 279.678777,284.7429 279.797444,284.8409 C279.916111,284.9389 280.032111,285.039567 280.145444,285.1429 C280.258777,285.2469 280.369777,285.353567 280.478444,285.4629 C280.586444,285.571567 280.691777,285.683233 280.794444,285.7979 C280.897111,285.9119 280.997111,286.028567 281.094444,286.1479 C281.191111,286.267233 281.285111,286.3889 281.376444,286.5129 C281.467111,286.6369 281.554777,286.7629 281.639444,286.8909 C281.724777,287.0189 281.806444,287.149233 281.884444,287.2819 C281.963111,287.4139 282.038111,287.5479 282.109444,287.6839 C282.181444,287.8199 282.250111,287.957567 282.315444,288.0969 C282.380111,288.236233 282.441444,288.3769 282.499444,288.5189 C282.557444,288.661567 282.612111,288.805233 282.663444,288.9499 C282.714111,289.095233 282.761444,289.241567 282.805444,289.3889 C282.849444,289.536233 282.889444,289.684567 282.925444,289.8339 C282.962111,289.983233 282.995111,290.133567 283.024444,290.2849 C283.053777,290.435567 283.079111,290.5869 283.100444,290.7389 C283.121777,290.891567 283.139777,291.044233 283.154444,291.1969 C283.168444,291.350233 283.178777,291.503567 283.185444,291.6569 C283.192111,291.8109 283.194777,291.964567 283.193444,292.1179 C283.192111,292.2719 283.187444,292.425567 283.179444,292.5789 C283.170777,292.732233 283.158444,292.885567 283.142444,293.0389 C283.126444,293.191567 283.106444,293.3439 283.082444,293.4959 C283.059111,293.6479 283.031777,293.799233 283.000444,293.9499 C282.969777,294.100567 282.935111,294.250233 282.896444,294.3989 C282.857777,294.547567 282.815777,294.695233 282.770444,294.8419 C282.724444,294.989233 282.675111,295.1349 282.622444,295.2789 C282.569777,295.423567 282.513444,295.566567 282.453444,295.7079 C282.393444,295.849233 282.330111,295.989233 282.263444,296.1279 C282.196777,296.266567 282.126444,296.403233 282.052444,296.5379 C281.979111,296.673233 281.902444,296.806567 281.822444,296.9379 C281.742444,297.069233 281.659111,297.198233 281.572444,297.3249 C281.485777,297.452233 281.396111,297.577233 281.303444,297.6999 C281.211444,297.822567 281.116111,297.9429 281.017444,298.0609 C280.918777,298.1789 280.817444,298.294567 280.713444,298.4079 C280.608777,298.520567 280.501777,298.6309 280.392444,298.7389 C280.282444,298.846233 280.170111,298.951233 280.055444,299.0539 C279.940777,299.1559 279.823444,299.255233 279.703444,299.3519 C279.584111,299.4479 279.462111,299.541233 279.337444,299.6319 C279.213444,299.722567 279.087111,299.8099 278.958444,299.8939 C278.829777,299.9779 278.699111,300.0589 278.566444,300.1369 C278.433777,300.2149 278.299444,300.289233 278.163444,300.3599 C278.027444,300.431233 277.889444,300.499233 277.749444,300.5639 C277.610111,300.6279 277.469111,300.688567 277.326444,300.7459 C277.183777,300.803233 277.039777,300.857233 276.894444,300.9079 C276.749111,300.9579 276.602777,301.004567 276.455444,301.0479 C276.308777,301.090567 276.161111,301.1299 276.012444,301.1659 C275.863777,301.201233 275.714444,301.2329 275.564444,301.2609 C275.414444,301.289567 275.263777,301.314233 275.112444,301.3349 C274.961111,301.356233 274.809444,301.373567 274.657444,301.3869 C274.504777,301.400233 274.352111,301.4099 274.199444,301.4159 C274.047444,301.4219 273.894777,301.424233 273.741444,301.4229 C273.588777,301.421567 273.436111,301.416567 273.283444,301.4079 C273.131444,301.398567 272.979444,301.3859 272.827444,301.3699 C272.675444,301.353233 272.524111,301.3329 272.373444,301.3089 C272.222111,301.285567 272.071777,301.258233 271.922444,301.2269 C271.773111,301.195567 271.624444,301.1609 271.476444,301.1229 C271.328444,301.084233 271.181444,301.042233 271.035444,300.9969 C270.890111,300.9509 270.745777,300.901567 270.602444,300.8489 C270.459111,300.796233 270.317111,300.740233 270.176444,300.6809 C270.035777,300.6209 269.896444,300.5579 269.758444,300.4919 C269.621111,300.425233 269.485444,300.355233 269.351444,300.2819 C269.216777,300.209233 269.084444,300.1329 268.954444,300.0529 C268.823777,299.973567 268.695444,299.8909 268.569444,299.8049 C268.442777,299.7189 268.318444,299.6299 268.196444,299.5379 C268.074444,299.4459 267.954777,299.351233 267.837444,299.2539 C267.720111,299.1559 267.605111,299.055233 267.492444,298.9519 C267.380444,298.848567 267.270777,298.742567 267.163444,298.6339 C267.056111,298.524567 266.951444,298.4129 266.849444,298.2989 C266.747444,298.185567 266.648444,298.069233 266.552444,297.9499 C266.456444,297.831233 266.363444,297.710233 266.273444,297.5869 C266.183444,297.463567 266.096111,297.338233 266.011444,297.2109 C265.927444,297.0829 265.846777,296.953233 265.769444,296.8219 C265.691444,296.690567 265.616777,296.557233 265.545444,296.4219 C265.474777,296.286567 265.407111,296.149567 265.342444,296.0109 C265.277777,295.8729 265.216777,295.7329 265.159444,295.5909 C265.101444,295.449567 265.047111,295.3069 264.996444,295.1629 C264.945777,295.0189 264.898777,294.873567 264.855444,294.7269 C264.812111,294.580233 264.772111,294.4329 264.735444,294.2849 C264.699444,294.136233 264.666777,293.9869 264.637444,293.8369 C264.608777,293.6869 264.583444,293.536233 264.561444,293.3849 C264.540111,293.233567 264.522444,293.0819 264.508444,292.9299 C264.493777,292.7779 264.483111,292.625567 264.476444,292.4729 C264.469777,292.320233 264.466777,292.167567 264.467353,292.0149 C264.468111,291.861567 264.472444,291.7089 264.480444,291.5569 C264.489111,291.404233 264.501111,291.2519 264.516444,291.0999 C264.532444,290.9479 264.551777,290.796233 264.574444,290.6449 C264.597777,290.493567 264.624444,290.343233 264.654444,290.1939 C264.685111,290.0439 264.719111,289.8949 264.756444,289.7469 C264.794444,289.5989 264.835777,289.4519 264.880444,289.3059 C264.925777,289.1599 264.974444,289.0149 265.026444,288.8709 C265.078444,288.727567 265.133777,288.585233 265.192444,288.4439 C265.251777,288.303233 265.314111,288.1639 265.379444,288.0259 C265.445444,287.8879 265.514777,287.751567 265.587444,287.6169 C265.659444,287.482233 265.735111,287.349567 265.814444,287.2189 C265.893111,287.088233 265.975111,286.959567 266.060444,286.8329 C266.145777,286.706233 266.234111,286.581567 266.325444,286.4589 C266.416777,286.336233 266.511111,286.2159 266.608444,286.0979 C266.705111,285.980567 266.805111,285.865233 266.908444,285.7519 C267.011111,285.639233 267.116444,285.5289 267.224444,285.4209 C267.333111,285.3129 267.444111,285.2079 267.557444,285.1059 C267.670777,285.003233 267.786444,284.903567 267.904444,284.8069 C268.023111,284.710233 268.143777,284.616567 268.266444,284.5259 C268.389777,284.435233 268.514777,284.347567 268.641444,284.2629 C268.768777,284.178233 268.898111,284.096567 269.029444,284.0179 C269.160111,283.939233 269.293111,283.864233 269.428444,283.7929 C269.563111,283.7209 269.699444,283.652233 269.837444,283.5869 C269.975444,283.521567 270.115111,283.4599 270.256444,283.4019 C270.397777,283.343233 270.540444,283.288233 270.684444,283.2369 C270.828444,283.185567 270.973444,283.1379 271.119444,283.0939 Z"/><path fill="#313945" d="M450.479444 197.1679C457.948444 196.6839 465.281444 197.4939 472.112444 200.7019 478.732444 203.8109 486.302444 209.8779 488.579444 217.1229 489.356444 219.5959 489.487444 221.5079 488.332444 223.8559 487.202444 224.5949 486.900444 224.9819 485.555444 224.9299 481.185444 224.7619 477.334444 218.5019 474.400444 215.5059 463.265444 208.0289 454.184444 206.6789 441.585444 211.1589 438.829444 212.1399 436.036444 213.4519 433.054444 213.0289 431.484444 212.0839 430.967444 211.3139 430.132997 209.6979 430.129444 207.6649 430.123444 206.7889 431.505444 205.1259 435.551444 200.2539 444.514444 198.0529 450.479444 197.1679ZM269.510444 195.6279C276.796444 194.9509 284.734444 195.5779 291.156444 199.3809 293.973444 201.0499 297.339444 203.9929 297.942444 207.3529 298.314444 209.4309 297.859444 210.1519 296.751444 211.7599 291.756444 213.8879 285.921444 208.0739 280.873444 206.9059 276.563444 205.9089 272.380444 206.2859 268.043444 206.8629 260.684444 208.8099 255.687444 214.1869 248.986444 217.3189 246.927444 218.2809 245.734444 218.3799 243.613444 217.6349L243.156444 216.1919C243.504444 213.4859 244.499444 211.0339 246.011444 208.7689 251.291444 200.8599 260.637444 197.4809 269.510444 195.6279Z"/><path fill="#7A7BBE" d="M549.006444,442.1079 C549.763444,442.1399 550.234444,442.1389 550.927444,442.4789 C559.992444,446.9189 565.565444,460.1539 568.453444,469.1999 C551.659444,464.5299 535.018444,465.3659 518.352444,470.1009 C490.950444,477.8859 465.316444,490.0879 439.123444,501.0289 L415.407444,510.9299 C411.826444,512.4129 407.890444,513.3779 404.463444,515.1829 C403.194444,515.8509 401.725444,517.0179 401.088444,518.3379 C400.467444,519.6269 400.923444,520.2599 401.329444,521.5369 C403.453444,523.2229 405.544444,523.1079 408.155444,522.6039 C415.927444,521.1059 423.378444,517.4619 430.746444,514.6829 C455.424444,505.3769 479.096444,494.2009 504.339444,486.3229 C549.570444,472.2069 556.014444,480.0529 597.640444,492.8299 C611.190444,496.9889 625.253444,499.3399 639.161444,501.9689 C637.712111,503.765567 636.299444,505.590567 634.923444,507.4439 C634.450777,508.076567 633.986111,508.714567 633.529444,509.3579 C633.072777,510.0019 632.623777,510.651233 632.182444,511.3059 C631.741777,511.960567 631.309111,512.620567 630.884444,513.2859 C630.459111,513.9519 630.042444,514.622567 629.634444,515.2979 C629.225777,515.973233 628.825777,516.653567 628.434444,517.3389 C628.042444,518.0249 627.659111,518.715233 627.284444,519.4099 C626.909111,520.104567 626.542777,520.8039 626.185444,521.5079 C625.827444,522.211233 625.478111,522.919233 625.137444,523.6319 C624.797444,524.3439 624.465777,525.060233 624.142444,525.7809 C623.819777,526.5009 623.505777,527.2249 623.200444,527.9529 C622.895777,528.681567 622.599777,529.413567 622.312444,530.1489 C622.025111,530.884233 621.746777,531.6229 621.477444,532.3649 C621.208111,533.1069 620.948111,533.852233 620.697444,534.6009 C620.446777,535.349567 620.205111,536.1009 619.972444,536.8549 C619.739777,537.609567 619.516444,538.3669 619.302444,539.1269 C619.088444,539.8869 618.883777,540.649233 618.688444,541.4139 C618.493111,542.179233 618.307111,542.946567 618.130444,543.7159 C617.953777,544.485233 617.786444,545.256567 617.628444,546.0299 C617.471111,546.8039 617.323111,547.579567 617.184444,548.3569 C617.045777,549.133567 616.916444,549.912233 616.796444,550.6929 C616.677111,551.473567 616.567111,552.255233 616.466444,553.0379 C616.365777,553.821233 616.274777,554.605567 616.193444,555.3909 C616.112111,556.176233 616.040444,556.962233 615.978444,557.7489 C615.916444,558.536233 615.863777,559.3239 615.820444,560.1119 C615.777777,560.900567 615.744777,561.689233 615.721444,562.4779 C615.698111,563.267233 615.684111,564.056567 615.679444,564.8459 C615.675444,565.6359 615.681111,566.425567 615.696444,567.2149 C615.711111,568.004233 615.735777,568.793233 615.770444,569.5819 C615.804444,570.370567 615.848444,571.158567 615.902444,571.9459 C615.956444,572.7339 616.019777,573.5209 616.092444,574.3069 C616.165111,575.0929 616.247777,575.8779 616.340444,576.6619 C616.432444,577.446567 616.534111,578.229567 616.645444,579.0109 C607.682444,577.7569 598.662444,576.9999 589.732444,575.4689 C575.162444,572.9719 560.761444,569.2319 546.462444,565.5119 C537.363444,563.1439 515.640444,554.4189 508.616444,553.9789 C506.068444,553.8199 504.971444,554.9709 503.334444,556.6109 C503.092444,557.7229 502.799444,558.2389 503.173444,559.3579 C504.929444,564.6269 515.827444,568.3169 520.573444,570.3699 C522.275444,585.9119 524.836444,629.5499 522.522444,644.1279 C522.224444,645.9989 521.707444,647.3679 520.111444,648.4549 C512.149444,653.8799 497.404444,656.0019 487.968444,657.6149 C428.422444,667.7929 365.368444,666.1629 305.846444,656.5979 C287.283444,653.5859 265.178444,650.4579 249.015444,640.2819 C248.973444,624.057233 249.418111,607.846233 250.349444,591.6489 C251.280111,575.4509 252.695777,559.295567 254.596444,543.1829 C255.902444,531.4539 259.157444,519.5899 259.836444,507.8739 C259.995444,505.1289 260.090444,502.2649 258.162444,500.1049 C256.250444,499.7499 255.453444,499.5069 253.762444,500.7639 C247.202444,505.6389 244.366444,532.5239 243.205444,540.9599 C218.449444,547.1699 191.222444,546.8269 166.131444,542.8559 C165.997444,541.989233 165.872777,541.1209 165.757444,540.2509 C162.326444,514.2619 167.574444,485.6919 183.781444,464.6059 C209.260444,467.9389 236.591444,466.3809 261.745444,461.3769 C273.548444,481.2539 288.476444,496.5849 308.628444,508.0849 C312.801444,510.4669 323.442444,516.7079 328.011444,515.0379 C329.142444,514.6249 329.059444,514.1569 329.550444,513.1409 C328.743444,507.8299 322.005444,505.3019 317.798444,502.5239 C301.320444,491.6409 288.802444,480.4929 277.936444,463.9639 C288.186444,466.9429 297.857444,469.2179 308.496444,470.3199 C315.107444,479.2259 323.050444,485.1359 330.714444,492.8639 C339.779444,502.0039 346.776444,512.5619 358.080444,519.2959 C383.700444,512.0279 407.921444,495.5129 429.217444,479.9459 C472.270444,478.9829 513.060444,465.4709 549.006444,442.1079 Z"/><path fill="#487699" d="M262.976444,681.9129 C269.294444,682.8429 275.749444,685.0439 281.977444,686.5439 C291.361444,688.7059 300.810444,690.531567 310.324444,692.0209 C373.028444,701.9569 440.520444,703.4419 502.833444,690.2099 C503.931444,699.7809 503.494444,709.9539 503.801444,719.6189 C504.684444,747.3889 504.611444,775.6659 507.109444,803.3159 C477.373444,813.4639 453.220444,812.0059 422.797444,807.2089 C422.370111,801.7809 421.905777,796.356233 421.404444,790.9349 C418.925444,769.6939 415.970444,744.8739 406.471444,725.4929 C391.862444,724.1869 377.335444,722.7809 362.844444,720.4509 C353.987444,719.0269 345.000444,716.4129 336.086444,715.7249 C333.349444,715.5139 330.601444,715.3679 328.163444,716.8019 L328.416444,719.4859 C332.139444,725.3829 349.348444,728.1989 356.056444,730.0119 C350.836444,753.1129 349.373444,777.7279 348.097444,801.3519 C317.758444,805.3639 293.974444,803.5109 264.333444,796.5449 C260.162444,758.8679 261.650444,719.7359 262.976444,681.9129 Z"/><path fill="#FAC3B7" d="M189.929444,226.0999 C183.786444,223.7369 177.904444,220.9859 172.317444,217.4979 C147.119444,201.7659 130.657444,175.0399 124.129444,146.4069 C116.787444,114.2069 121.145444,78.5969 138.954444,50.4274 C148.836444,34.7973 162.754444,22.6749 181.184444,18.6838 C200.566444,14.4866 221.206444,19.3312 237.632444,30.1322 C269.181444,50.8781 281.251444,81.6279 288.707444,117.0449 C276.418444,123.2409 265.526444,130.9129 254.602444,139.2309 C254.081444,130.6809 252.679444,121.9619 250.778444,113.6149 C244.729444,87.0479 231.339444,58.5879 207.415444,43.7703 C197.108444,37.3872 184.438444,33.9742 172.429444,36.8735 C164.519444,38.7834 157.588444,43.0185 153.265444,49.9999 L154.849444,50.9814 C168.564444,46.3082 180.812444,41.7282 194.723444,48.5592 C215.116444,58.5729 228.197444,80.0859 235.163444,101.0039 C236.406777,104.7819 237.522444,108.5969 238.510444,112.4489 C239.497777,116.301567 240.355444,120.1829 241.083444,124.0929 C241.811444,128.0029 242.408111,131.9329 242.873444,135.8829 C243.338111,139.8329 243.670444,143.7939 243.870444,147.7659 C241.261777,150.2299 238.713111,152.754567 236.224444,155.3399 C233.735777,157.924567 231.310111,160.567233 228.947444,163.2679 C226.584111,165.968567 224.286444,168.7239 222.054444,171.5339 C219.822444,174.343233 217.658444,177.204567 215.562444,180.1179 C213.466444,183.030567 211.440777,185.991233 209.485444,188.9999 C207.530111,192.009233 205.647444,195.063233 203.837444,198.1619 C202.027444,201.260567 200.292111,204.400233 198.631444,207.5809 C196.970777,210.762233 195.386444,213.981233 193.878444,217.2379 L189.929444,226.0999 Z"/><path fill="#F2F2F4" d="M189.929444,226.0999 C183.786444,223.7369 177.904444,220.9859 172.317444,217.4979 C147.119444,201.7659 130.657444,175.0399 124.129444,146.4069 C116.787444,114.2069 121.145444,78.5969 138.954444,50.4274 C148.836444,34.7973 162.754444,22.6749 181.184444,18.6838 C200.566444,14.4866 221.206444,19.3312 237.632444,30.1322 C269.181444,50.8781 281.251444,81.6279 288.707444,117.0449 C276.418444,123.2409 265.526444,130.9129 254.602444,139.2309 C254.081444,130.6809 252.679444,121.9619 250.778444,113.6149 C244.729444,87.0479 231.339444,58.5879 207.415444,43.7703 C197.108444,37.3872 184.438444,33.9742 172.429444,36.8735 C164.519444,38.7834 157.588444,43.0185 153.265444,49.9999 C153.160444,50.3154 153.061444,50.633 152.950444,50.9465 C151.796444,54.1999 148.778444,57.5959 146.927444,60.5809 C143.922111,65.3469 141.283111,70.3079 139.010444,75.4639 C127.506444,101.9169 128.729444,140.5059 140.398444,166.7579 C147.378444,182.4619 160.414444,199.9819 175.802444,208.2739 C181.644444,211.4229 188.568444,213.2609 193.878444,217.2379 L189.929444,226.0999 Z"/><path fill="#DA4C4C" d="M798.410444 587.4319C807.030444 587.6409 862.930444 596.9579 870.650444 599.7249 873.280444 600.6669 874.280444 601.5249 875.410444 604.1089 878.530444 611.2579 879.660444 645.6209 876.770444 652.7039 851.570444 659.651233 826.297111 666.325233 800.950444 672.7259 801.070444 672.4319 801.190444 672.1409 801.300444 671.8439 802.450444 668.6009 802.140444 661.7839 800.520444 658.7379 799.100444 656.0519 796.440444 654.2839 793.600444 653.3889 785.960444 650.9839 769.720444 654.9859 762.760444 658.8349 752.250444 664.6499 758.190444 675.5859 755.420444 684.4329 755.370444 684.5989 755.300444 684.7609 755.250444 684.9239 750.470444 688.1069 679.843444 705.9289 668.758444 708.9799 669.026444 692.1019 670.268444 674.4489 667.655444 657.7479L796.420444 625.1549C816.590444 619.9879 838.070444 615.8569 857.780444 609.4909 860.520444 608.6069 864.470444 606.8849 866.170444 604.4909 866.850444 603.5279 866.730444 603.9339 866.520444 602.8379 863.640444 600.9209 859.150444 601.1909 855.820444 601.5829 846.020444 602.7389 835.870444 605.9919 826.260444 608.3299L775.760444 620.7889C765.330444 623.4079 754.860444 626.4069 744.300444 628.3999 740.220444 631.0719 670.479444 647.5769 659.517444 650.4249 649.409444 646.7999 585.657444 632.0909 579.550444 633.8719 578.213444 634.2619 578.119444 634.7519 577.499444 635.8889 578.076444 638.1429 578.721444 638.9469 580.831444 640.0939 593.500444 646.9839 652.985444 653.8369 658.030444 659.4099 662.633444 664.4939 660.239444 699.9559 660.021444 708.6819 646.763444 705.6319 633.877444 701.7679 620.766444 698.2009 600.982444 692.8179 581.362444 687.5579 561.835444 681.2719 561.743444 669.9629 559.259444 645.6109 564.753444 635.8599 566.162444 633.3589 569.604444 631.8049 572.217444 630.8469 579.006444 628.3559 586.867444 627.4639 593.959444 625.9239 611.486444 622.1169 629.206444 618.6569 646.566444 614.1559 646.509444 619.4649 645.583444 628.0469 649.418444 632.2119 652.878444 635.9689 660.353444 636.3659 665.114444 636.2549 670.248444 636.1349 676.828444 634.9759 680.365444 630.8479 684.636444 625.8639 682.846444 613.9879 682.655444 607.8559 687.864444 606.2019 692.985444 604.2899 698.120444 602.4219 712.980444 607.3889 715.050444 603.4009 728.900444 601.8819 733.530444 601.3759 737.940444 602.6369 742.470444 600.9639 748.980444 598.5619 754.500444 591.9929 761.650444 591.5189 762.710444 593.4969 762.200444 596.3779 762.220444 598.6099 762.250444 601.6179 762.890444 604.1529 765.220444 606.2549 769.320444 609.9559 775.380444 610.1649 780.590444 609.8289 785.480444 609.5139 793.190444 608.5339 796.390444 604.3189 799.310444 600.4829 798.910444 592.0029 798.410444 587.4319ZM874.360444 662.4509 876.840444 662.5509C878.530444 665.7359 878.450444 740.9419 876.890444 746.8489 874.850444 749.9109 871.620444 751.3749 868.290444 752.6539 860.510444 755.6419 852.160444 757.5739 844.190444 760.0449L787.240444 777.3699C748.090444 789.3309 708.780444 803.0039 669.001444 812.6659L669.018444 793.0959C669.118444 768.1459 669.028444 743.196567 668.748444 718.2479 687.651777 713.4239 706.512444 708.438233 725.330444 703.2909 734.940444 700.7339 746.010444 698.7359 755.170444 694.9299 756.830444 698.7559 755.890444 703.7349 756.110444 707.8639 756.270444 710.6499 756.810444 712.6459 758.920444 714.5569 767.790444 718.1469 781.980444 713.8089 790.670444 710.7059 795.270444 709.0629 799.170444 706.4799 801.250444 701.8589 803.590444 696.6519 803.340444 687.2299 801.280444 681.8789 814.160444 680.1049 827.260444 675.4659 839.870444 672.0749 851.200444 669.0289 863.460444 666.6169 874.360444 662.4509ZM562.271444 690.8359C593.196444 701.6619 628.352444 710.4709 660.291444 718.1949 659.659444 748.8679 660.645444 779.5999 660.116444 810.2879 651.257444 808.5669 641.807444 804.2989 633.309444 801.1649 609.709444 792.4639 585.020444 783.6609 562.668444 772.0889 562.378444 745.0049 562.855444 717.9159 562.271444 690.8359Z"/><path fill="#F2F2F4" d="M91.6654439 415.8729C94.6154439 416.2139 97.0074439 416.6879 99.4474439 418.5499 105.492444 423.1619 110.425444 430.9489 115.632444 436.5959 124.238444 445.828567 133.469777 454.386567 143.326444 462.2699 129.794444 481.3679 124.269444 506.4359 127.727444 529.5169 105.096444 539.3599 61.4484439 539.4309 38.5174439 530.3169 35.3564439 529.0599 32.6684439 527.5979 31.2324439 524.3569 31.2014439 521.8399 31.4014439 521.5059 32.7554439 519.3609 43.5834439 513.3819 64.5814439 518.2289 69.4314439 513.9599 70.4224439 507.7909 68.4324439 500.3919 68.6974439 494.0029 68.8774439 489.6729 71.2714439 483.0799 69.8134439 479.2319 62.6184439 472.9699 31.6964439 479.7419 21.8434439 478.9209 19.5184439 478.7269 18.1004439 478.3189 16.5764439 476.5349 16.3014439 475.5969 16.1244439 474.9169 16.3384439 473.9379 20.7144439 453.8309 88.6824439 464.6739 98.5264439 458.8459 102.946444 452.0499 85.8494439 435.8049 86.6744439 424.3959 86.9674439 420.3489 88.7544439 418.3409 91.6654439 415.8729ZM710.240444 507.1049C714.490444 506.7809 718.900444 506.8279 723.160444 506.8739 738.140444 507.0329 753.180444 511.1469 763.780444 522.2399 771.160444 529.9579 774.950444 539.8999 774.650444 550.5709 774.390444 559.7659 771.660444 569.8739 764.670444 576.2769 763.150444 577.6699 761.490444 578.7729 759.410444 578.6809 758.740444 575.2099 761.760444 569.0559 762.430444 565.3779 763.490444 559.5879 763.190444 552.2059 761.650444 546.5179 760.550444 542.4099 757.650444 536.1479 753.670444 534.1039 752.290444 533.3939 751.910444 533.5999 750.520444 534.0009 749.100444 537.0879 753.240444 550.0079 753.510444 554.3649 753.663777 556.9769 753.617111 559.5859 753.370444 562.1919 753.130444 564.797233 752.697111 567.3699 752.070444 569.9099 750.490444 576.2989 746.850444 583.7199 741.070444 587.2609 738.050444 588.8859 734.020444 589.1899 730.650444 589.7519 736.160444 583.1909 736.880444 571.4559 736.780444 563.2299 736.720444 557.5559 736.180444 548.2009 731.860444 543.9779 731.900444 543.4189 731.950444 543.1339 731.870444 542.6079 731.570444 540.6419 729.830444 538.8129 728.340444 537.6229 726.570444 536.2119 724.740444 534.9729 722.450444 535.2229 720.440444 538.9959 725.570444 547.3299 726.630444 551.5159 729.250444 561.7909 727.080444 579.1799 721.490444 588.3169 719.670444 591.3079 717.000444 593.9499 713.470444 594.7019 709.120444 595.6269 705.510444 593.8789 701.990444 591.5969 702.610444 589.5799 703.210444 587.5529 703.670444 585.4899 705.960444 575.2049 705.970444 563.8979 700.102444 554.7549 698.226444 551.8299 695.129444 548.0049 691.523444 547.3979 690.057444 547.1499 688.638444 547.5159 687.476444 548.4379 684.159444 551.0729 683.668444 555.1809 683.189444 559.0769 671.707444 559.4399 663.638444 561.4099 654.420444 568.3969 654.242444 567.0909 654.087777 565.7819 653.956444 564.4699 652.634444 551.0449 655.189444 538.0489 664.004444 527.5239 675.459444 513.8459 693.093444 508.6109 710.240444 507.1049Z"/><path fill="#FAC3B7" d="M845.510444,771.9769 C846.760444,771.6919 847.320444,771.5889 848.520444,772.0759 C848.670444,775.2389 846.460444,778.5659 845.160444,781.4339 C839.030444,794.9289 832.790444,806.9589 823.410444,818.5939 C803.210444,843.6699 775.320444,860.8699 742.980444,864.2429 C688.385444,869.9389 640.759444,842.9789 599.743444,809.7399 C594.468444,805.3059 589.453444,800.6249 584.430444,795.9109 C607.957444,805.1079 631.618444,813.7829 655.258444,822.6669 C662.296444,825.3119 669.002444,828.7919 675.911444,831.7499 C679.348111,833.2159 682.837444,834.543233 686.379444,835.7319 C689.922111,836.920567 693.506111,837.966567 697.131444,838.8699 C700.757444,839.773233 704.413777,840.5309 708.100444,841.1429 C711.787111,841.755567 715.490444,842.2209 719.210444,842.5389 C746.150444,844.7639 770.700444,837.9639 791.480444,820.2129 C800.490444,812.5119 818.450444,791.8669 819.400444,779.8939 C827.610444,778.1389 838.070444,775.8929 845.510444,771.9769 Z"/><path fill="#F2F2F4" d="M260.370444 832.6309C270.388444 831.1969 280.037444 834.0939 289.838444 835.7249 308.315444 838.7989 327.079444 839.4739 345.376444 835.0129 346.526444 840.3349 347.375444 845.4129 346.503444 850.8509 345.111444 859.5349 339.972444 866.3629 332.898444 871.3659 317.188444 882.4789 279.311444 890.2329 260.653444 886.9489 260.259444 886.4909 260.099444 886.3739 259.874444 885.7229 255.061444 871.8509 274.225444 864.4259 277.048444 856.5789 277.101444 856.4309 277.141444 856.2779 277.187444 856.1269 277.067444 856.0949 276.946444 856.0649 276.826444 856.0299 275.842444 855.7469 274.954444 855.5609 273.916444 855.5849 269.052444 855.7019 263.549444 858.4999 260.128444 861.8339 253.141444 868.6439 250.769444 876.9899 250.586444 886.4889 244.825444 885.7909 236.832444 885.5339 231.823444 882.6179 230.084444 881.6069 228.728444 880.0599 228.258444 878.0689 225.842444 867.8259 239.228444 858.5659 243.989444 851.3009 244.711444 850.1989 244.654444 850.2769 244.383444 848.9969 241.233444 848.2289 236.825444 849.4439 234.126444 851.1029 223.687444 857.5169 221.139444 865.4809 218.410444 876.8029 216.417444 873.6649 214.341444 870.3639 213.750444 866.6349 212.847444 860.9459 214.337444 855.6779 217.740444 851.0869 227.181444 838.3519 245.619444 834.9159 260.370444 832.6309ZM505.512444 838.4269 507.134444 838.6479C509.938444 841.3209 511.970444 845.4689 513.367444 849.0389 516.905444 858.0739 518.172444 869.7949 514.079444 878.8629 510.401444 887.0099 504.187444 890.1319 496.190444 893.0779 497.401444 888.1919 498.341444 883.2399 498.129444 878.1859 497.871444 872.0359 496.542444 863.6439 491.311444 859.5429 489.689444 858.2719 488.892444 858.0079 486.895444 858.1509 484.259444 863.8499 489.497444 872.6309 489.539444 879.1449 489.574444 884.7419 487.922444 889.8209 486.194444 895.0659 475.447444 897.1829 464.282444 896.5909 453.438444 895.7799 449.845444 887.6899 448.603444 880.7999 450.388444 872.1079 451.016444 869.7049 451.948444 867.3289 452.687444 864.9519 453.396444 862.6709 454.196444 860.7079 453.049444 858.5229L451.388444 858.2309C448.380444 859.0989 446.523444 860.5659 444.903444 863.2749 439.493444 872.3169 439.871444 884.8329 442.464444 894.6499 438.873444 893.6799 435.082444 892.3089 431.775444 890.6099 426.071444 887.6779 421.632444 882.7509 419.735444 876.5919 415.981444 864.4029 420.588444 851.2679 426.259444 840.4929 450.047444 848.7859 481.950444 846.6519 505.512444 838.4269Z"/><path fill="#7A7BBE" d="M248.876444,650.1649 C250.888444,650.966233 252.905777,651.753233 254.928444,652.5259 C272.855444,659.4539 292.255444,662.5769 311.217444,665.2699 C318.198111,666.311233 325.194777,667.230567 332.207444,668.0279 C339.220777,668.825233 346.245444,669.499567 353.281444,670.0509 C360.318111,670.6029 367.362111,671.0319 374.413444,671.3379 C381.464777,671.6439 388.519111,671.826567 395.576444,671.8859 C402.634444,671.945233 409.691111,671.881233 416.746444,671.6939 C423.801777,671.507233 430.851777,671.197233 437.896444,670.7639 C444.941111,670.330567 451.976111,669.774233 459.001444,669.0949 C466.026777,668.416233 473.038111,667.6149 480.035444,666.6909 C494.126444,664.6879 509.439444,662.4349 522.544444,656.6379 C522.372444,660.9599 522.620444,665.3559 520.484444,669.2369 C502.573444,681.4499 455.095444,685.1099 432.582444,686.2789 C416.336444,687.1209 400.086111,687.221233 383.831444,686.5799 C359.467444,685.4619 267.456444,677.5359 251.731444,662.0849 C248.710444,659.1159 249.069444,654.0659 248.876444,650.1649 Z"/><path fill="#FAC3B7" d="M919.170444,659.4519 C924.590444,659.0089 930.240444,659.7499 935.430444,661.3479 C949.580444,665.7079 960.260444,676.4959 966.950444,689.4549 C972.170444,699.5659 976.120444,713.7139 972.620444,724.9199 C972.960444,723.6919 972.770444,722.8049 972.430444,721.6119 C970.080444,713.3249 962.060444,697.2669 954.410444,693.0099 C954.210444,692.5449 954.040444,692.0949 953.760444,691.6739 C949.940444,685.9789 939.500444,681.7279 933.050444,680.4259 C919.550444,677.7039 907.750444,683.1489 897.680444,691.8439 C894.740444,694.3929 892.190444,697.3389 888.890444,699.4659 C888.730444,699.5729 888.560444,699.6739 888.390444,699.7769 C891.110444,694.4839 890.560444,678.9019 888.970444,673.1719 C891.520444,671.8529 893.880444,669.6449 896.300444,668.0429 C903.610444,663.2009 910.660444,660.9459 919.170444,659.4519 Z"/><path fill="#7A7BBE" d="M163.633444 461.0129C167.557444 460.8639 171.623444 461.7179 175.506444 462.2789 164.899444 480.2469 157.163444 499.8439 156.935444 521.0669 156.865444 527.5449 158.944444 534.4169 158.095444 540.8209 156.138444 541.4999 153.912444 540.5889 151.971444 540.0889 149.276444 539.3119 140.675444 537.4439 139.260444 535.1959 136.447444 530.7279 138.120444 512.0369 139.017444 506.4049 141.753444 489.2269 149.215444 471.4109 163.633444 461.0129ZM648.360444 502.9569C655.142444 503.6149 661.872444 504.7429 668.606444 505.7759 658.072444 513.7429 648.893444 523.6999 644.299444 536.2759 638.993444 550.8009 640.173444 565.2049 646.611444 579.0519L645.815444 579.9889C638.843444 581.2659 630.676444 580.3659 623.610444 579.8429 623.483111 578.7209 623.383777 577.596233 623.312444 576.4689 621.564444 548.8289 630.046444 523.7399 648.360444 502.9569Z"/><path fill="#FAC3B7" d="M516.944444,692.6999 C525.915444,698.9579 542.384444,717.1569 550.624444,725.8239 C550.810444,738.2009 550.662444,750.6039 550.678444,762.9849 C543.781444,758.8229 524.359444,737.4509 517.702444,730.3899 C517.261777,717.830567 517.009111,705.267233 516.944444,692.6999 Z"/><path fill="#958F8F" d="M689.030444,566.3569 C690.378444,566.0829 691.381444,566.1659 692.730444,566.3049 C693.157444,566.7309 693.346444,566.8739 693.670444,567.3309 C696.050444,570.6849 694.218444,578.6739 693.654444,582.4289 C687.565444,583.6879 680.854444,584.4889 676.273444,589.1129 C670.011444,595.4339 673.107444,617.4289 672.887444,626.5999 C669.719444,627.0149 666.529444,627.2349 663.345444,627.4949 C661.402444,627.1689 659.722444,626.7039 657.894444,625.9679 C656.775444,624.5559 656.653444,624.2059 656.434444,622.4169 C655.567444,615.3169 655.711444,592.8229 657.006444,585.9999 C657.709444,582.2959 658.972444,578.7449 661.393444,575.8059 C667.840444,567.9809 679.702444,567.3649 689.030444,566.3569 Z"/><path fill="#487699" d="M507.141444 813.0389C508.047444 816.7529 507.136444 821.7069 506.817444 825.5299 505.236777 826.312567 503.618444 827.0079 501.962444 827.6159 481.385444 835.1449 444.746444 836.4569 424.960444 827.1349 424.747444 826.9089 424.525444 826.6909 424.321444 826.4559 422.140444 823.9369 423.362444 818.6439 423.651444 815.5839 450.270444 823.7389 480.813444 820.4899 507.141444 813.0389ZM264.514444 806.1059C292.042444 813.0029 319.831444 814.9139 347.970444 810.4189 348.026444 814.7219 347.955444 818.7769 347.266444 823.0309 325.646444 829.9439 291.639444 826.3299 270.068444 820.2699 267.142444 815.5739 265.250444 811.6319 264.514444 806.1059Z"/><path fill="#958F8F" d="M787.350444,661.6979 C789.080444,661.4679 790.290444,661.2969 791.960444,661.8669 C792.950444,668.3009 793.710444,695.6079 791.290444,700.6619 C784.010444,702.6629 776.540444,704.6989 769.070444,705.8119 L767.010444,706.2009 L766.200444,705.1869 C765.620444,701.3849 765.360444,671.9419 766.620444,669.6329 C769.220444,664.8799 782.150444,663.0899 787.350444,661.6979 Z"/><path fill="#F2F2F4" d="M40.8254439,488.3459 C47.6254439,487.8319 54.6454439,488.1219 61.4734439,488.0869 C61.4514439,494.4119 61.5994439,500.7459 61.6734439,507.0699 C52.1014439,505.9409 43.0644439,505.6469 33.6414439,508.1719 L24.9994439,511.1619 C22.2084439,510.0189 19.1294439,508.6859 16.6464439,506.9769 C14.8154439,505.7159 12.6964439,503.6569 12.3664439,501.3469 C12.1084439,499.5439 12.8084439,497.8409 14.0154439,496.4939 C20.1554439,489.6449 32.2924439,488.9849 40.8254439,488.3459 Z"/><path fill="#958F8F" d="M785.140444,564.1659 C785.650444,564.2949 786.140444,564.6909 786.590444,564.9629 C786.630444,565.1599 786.670444,565.3569 786.710444,565.5549 C787.980444,571.8139 790.270444,595.5799 787.110444,600.4309 C783.130444,601.2629 778.910444,601.1329 774.850444,601.2239 L774.350444,601.1419 C771.520444,598.7349 773.670444,590.0159 772.750444,586.1169 C772.920444,586.0099 773.100444,585.9169 773.260444,585.7949 C778.620444,581.7529 784.160444,570.7149 785.140444,564.1659 Z"/></g></svg>