<svg xmlns="http://www.w3.org/2000/svg" width="1042" height="931" viewBox="0 0 1042 931"><g fill="none" transform="translate(.622 .198)"><path fill="#313945" d="M727.109461,0.00564350016 C748.975461,-0.278155043 771.796461,10.169245 787.381461,25.124145 C812.583461,49.305945 824.492461,85.472645 824.905461,119.825645 C825.335461,155.456645 814.363461,192.769645 788.909461,218.591645 C764.214461,243.643645 731.475461,254.829645 696.772461,254.954645 C698.261794,261.001312 699.630794,267.075312 700.879461,273.176645 C707.501461,306.297645 707.997461,344.836645 695.345461,376.571645 C691.254461,386.832645 685.629461,396.077645 679.535461,405.243645 L679.957461,405.528645 C694.139461,415.165645 702.571461,424.562645 705.758461,441.869645 C709.201461,460.570645 705.298461,481.489645 694.441461,497.164645 C702.007461,510.186645 705.709461,515.217645 710.742461,530.088645 C736.226461,530.466645 761.752461,530.199645 787.240461,530.186645 C810.635461,530.173645 834.073461,530.448645 857.463461,529.989645 C859.633461,524.729645 862.546461,519.545645 865.492461,514.677645 C879.790461,491.045645 900.897461,472.364645 928.208461,465.814645 C950.798461,460.400645 974.538461,463.683645 994.268461,476.030645 C1016.78846,490.116645 1033.12846,514.258645 1038.87846,540.109645 C1042.03846,554.277645 1043.20846,574.835645 1034.95846,587.635645 C1033.52846,589.859645 1030.85846,593.386645 1027.97846,593.705645 C1024.20846,594.122645 1022.17846,589.475645 1021.13846,586.567645 C1019.00846,580.652645 1018.67846,573.922645 1017.38846,567.768645 C1013.38846,548.720645 1003.62846,531.197645 988.568461,518.711645 C977.268461,509.344645 963.858461,504.237645 949.098461,505.741645 C933.208461,507.357645 920.628461,517.794645 910.922461,529.722645 L941.018461,529.549645 C958.258461,529.497645 974.508461,528.227645 987.808461,541.312645 C996.658461,550.021645 999.298461,560.724645 999.468461,572.764645 C999.898461,604.917645 999.558461,637.118645 999.578461,669.276645 C999.588461,683.298645 1001.14846,707.604645 998.598461,720.253645 C997.178461,727.302645 992.978461,734.209645 987.968461,739.285645 C982.938461,744.377645 977.418461,747.738645 970.438461,749.451645 C959.448461,752.148645 946.168461,750.731645 934.838461,750.681645 L888.468461,750.601645 C886.675461,754.375645 884.541461,757.896645 882.208461,761.359645 C862.275461,790.944645 833.871461,811.559645 798.528461,818.451645 C750.619461,827.793645 711.680461,814.010645 672.396461,787.577645 C672.446461,797.414979 671.854461,807.213645 670.620461,816.973645 C671.044461,817.440645 671.461461,817.910645 671.841461,818.416645 C675.469461,823.239645 675.100461,833.162645 674.342461,838.837645 C673.441461,845.585645 671.031461,850.453645 665.541461,854.583645 C666.700461,857.661645 667.386461,860.874645 667.959461,864.108645 C670.344461,877.579645 670.335461,892.783645 662.115461,904.342645 C651.623461,919.096645 630.880461,925.503645 613.830461,928.238645 C591.389461,931.838645 551.616461,933.112645 532.753461,919.185645 C526.690461,914.708645 522.727461,908.307645 521.609461,900.837645 C519.240461,885.007645 528.188461,870.596645 537.250461,858.480645 C530.692461,855.534645 526.104461,851.840645 523.515461,844.910645 C523.312128,844.367979 523.122128,843.820312 522.945461,843.267645 C522.768794,842.715645 522.605794,842.159645 522.456461,841.599645 C522.306461,841.039645 522.170794,840.476312 522.049461,839.909645 C521.927461,839.342312 521.819461,838.772645 521.725461,838.200645 C521.631461,837.628645 521.551461,837.054645 521.485461,836.478645 C521.420128,835.902645 521.368461,835.325312 521.330461,834.746645 C521.293128,834.168645 521.269794,833.589645 521.260461,833.009645 C521.251128,832.430312 521.256128,831.850645 521.275461,831.270645 C521.294794,830.691312 521.328128,830.112979 521.375461,829.535645 C521.422794,828.957645 521.484461,828.381312 521.560461,827.806645 C521.636461,827.231979 521.726128,826.659312 521.829461,826.088645 C521.933461,825.518645 522.051128,824.951312 522.182461,824.386645 C522.314461,823.821979 522.459794,823.260979 522.618461,822.703645 C522.777794,822.145645 522.950461,821.592312 523.136461,821.043645 C523.322461,820.494312 523.521794,819.949979 523.734461,819.410645 C523.947794,818.871312 524.173794,818.337645 524.412461,817.809645 C522.400461,802.951645 521.440461,787.383645 516.810461,773.058645 C506.932461,770.151645 496.586461,770.614645 486.376461,770.455645 C486.642461,774.772645 486.059461,779.373645 485.789461,783.700645 C485.209461,792.993645 484.480461,802.297645 484.316461,811.609645 L485.201461,813.215645 C488.035461,818.285645 487.879461,824.463645 487.438461,830.122645 C486.712461,839.436645 485.038461,845.515645 477.766461,851.726645 C478.870461,855.806645 479.650461,859.947979 480.106461,864.150645 C481.291461,874.844645 481.918461,888.081645 474.632461,896.941645 C461.561461,912.838645 416.298461,919.664645 396.528461,921.727645 C372.871461,923.957645 344.722461,924.874645 321.725461,917.641645 C314.296461,915.305645 307.031461,911.174645 303.444461,903.925645 C300.509461,897.994645 300.761461,890.608645 302.999461,884.482645 C310.274461,864.561645 332.076461,854.836645 349.916461,846.572645 C347.569461,842.647645 346.540461,838.848645 345.932461,834.358645 C344.882461,826.590645 343.644461,816.973645 348.695461,810.430645 C346.403461,790.624645 345.715461,770.560645 345.554461,750.635645 L127.241461,750.622645 L66.156461,750.676645 C55.197461,750.694645 43.157461,751.683645 32.350461,749.987645 C24.938461,748.824645 17.835561,744.671645 12.508361,739.477645 C2.66456103,729.879645 0.500661027,719.380645 0.431861027,706.065645 L0.440661027,612.708645 C0.413961027,598.970645 -0.989138973,574.234645 1.35546103,562.051645 C1.53686103,561.062979 1.75496103,560.082312 2.00976103,559.109645 C2.26456103,558.136979 2.55536103,557.175645 2.88216103,556.225645 C3.20896103,555.274312 3.57082769,554.336979 3.96776103,553.413645 C4.36476103,552.490312 4.79569436,551.582979 5.26056103,550.691645 C5.72542769,549.800312 6.22299436,548.927645 6.75326103,548.073645 C7.28346103,547.219645 7.84486103,546.386645 8.43746103,545.574645 C9.03006103,544.762645 9.65219436,543.973979 10.303861,543.208645 C10.955461,542.443312 11.6347944,541.703312 12.341861,540.988645 C17.001561,536.354645 24.059461,532.157645 30.567461,530.969645 C37.818461,529.645645 45.697461,530.196645 53.057461,530.215645 L85.011461,530.259645 L205.202461,530.219645 C205.638461,524.277645 207.745461,518.313645 210.691461,513.154645 C217.515461,501.199645 229.435461,494.700645 242.344461,491.170645 C267.366461,484.329645 294.557461,486.543645 317.174461,499.461645 C330.510461,485.847645 344.187461,474.520645 360.292461,464.354645 C352.135461,460.854645 344.002461,457.278645 336.208461,453.015645 C311.759461,439.643645 283.340461,414.012645 275.275461,386.593645 C260.897461,386.940645 246.864461,387.917645 232.567461,389.597645 C225.008461,390.486645 217.384461,392.054645 209.817461,392.627645 C207.746461,392.783645 205.211461,392.916645 203.280461,392.067645 C202.096461,391.546645 202.041461,391.293645 201.588461,390.169645 C201.865461,389.117645 202.202461,388.469645 202.968461,387.711645 C212.412461,378.364645 257.117461,375.771645 270.818461,375.587645 C267.880461,366.453645 265.797461,357.340645 264.377461,347.863645 C254.532461,344.809645 244.166461,342.510645 234.111461,340.239645 C227.434461,338.730645 200.720461,334.580645 197.042461,331.927645 C195.726461,330.978645 195.631461,330.411645 195.385461,328.856645 C196.079461,327.233645 196.268461,326.979645 197.672461,325.913645 C209.763461,323.593645 250.492461,331.605645 263.209461,335.352645 C259.723461,307.498645 263.176461,278.964645 267.576461,251.430645 C262.136461,249.626645 256.843128,247.463312 251.696461,244.940645 C221.074461,229.870645 199.810461,205.416645 188.809461,173.117645 C176.060461,135.688645 178.659461,88.480645 196.312461,53.021045 C206.958461,31.636245 223.841461,14.890445 246.736461,7.25154496 C268.142461,0.109544957 291.457461,2.57224496 311.489461,12.755745 C345.753461,30.174445 364.753461,65.850645 376.270461,100.837645 C386.079461,96.857645 395.836461,94.381645 406.288461,92.891645 C406.179461,92.681645 406.074461,92.470645 405.963461,92.262645 C404.743461,89.980645 404.010461,87.650645 404.281461,85.016645 C404.302794,84.7919783 404.335461,84.5689783 404.379461,84.347645 C404.424128,84.1263116 404.480128,83.9079783 404.547461,83.692645 C404.614794,83.4773116 404.693128,83.2659783 404.782461,83.058645 C404.871794,82.8519783 404.971794,82.6503116 405.082461,82.453645 C405.193128,82.2569783 405.313794,82.066645 405.444461,81.882645 C405.575128,81.698645 405.715128,81.5219783 405.864461,81.352645 C406.013128,81.182645 406.170461,81.0213116 406.336461,80.868645 C406.502461,80.7159783 406.676128,80.5723116 406.857461,80.437645 C413.561461,75.469645 428.769461,78.524645 436.651461,79.488645 C435.564461,77.556645 434.338461,75.488645 433.811461,73.316645 C433.301461,71.216645 433.209461,68.600645 434.403461,66.704645 C435.597461,64.811645 437.747461,63.993645 439.866461,63.645645 C457.532461,60.749045 492.812461,73.688645 507.089461,84.482645 C539.539461,84.067645 583.731461,94.532645 611.195461,111.806645 C616.946461,85.545645 632.199461,58.307545 649.860461,38.216945 C670.840461,14.350345 695.355461,2.04074496 727.109461,0.00564350016 Z M815.506461,757.306645 C818.827461,755.484645 821.800461,753.620645 824.590461,751.033645 C809.990461,749.578645 793.953461,750.651645 779.202461,750.661645 C758.107461,750.676645 736.781461,750.004645 715.723461,750.800645 C735.600461,765.678645 763.512461,769.847645 787.638461,766.438645 C797.505461,765.044645 806.656461,761.822645 815.506461,757.306645 Z"/><path fill="#FFF" d="M313.015461,544.431645 C350.821461,544.975645 388.675461,544.594645 426.486461,544.589645 L554.167461,544.432645 C554.231461,544.715645 554.291461,544.998645 554.359461,545.280645 C556.074461,552.460645 559.938461,558.562645 566.377461,562.340645 C573.170461,566.325645 580.830461,566.906645 588.334461,564.919645 C592.549461,568.004645 596.516461,569.939645 601.664461,570.978645 C610.304461,572.724645 619.867461,572.131645 627.343461,567.166645 C635.761461,569.427645 644.031461,569.882645 652.199461,566.296645 C661.944461,562.018645 666.314461,554.039645 669.941461,544.529645 L864.538461,544.582645 L926.178461,544.546645 C937.428461,544.540645 948.878461,544.079645 960.108461,544.734645 C964.388461,544.984645 967.938461,545.459645 971.768461,547.547645 C977.878461,550.884645 981.958461,556.467645 983.858461,563.097645 C984.778461,566.317645 985.168461,569.679645 985.288461,573.019645 C986.108461,595.449645 985.228461,618.186645 985.258461,640.657645 L985.308461,680.355645 C985.318461,687.435645 985.618461,694.636645 985.228461,701.700645 C985.158461,702.958645 984.898461,703.733645 984.278461,704.829645 C984.788461,705.694645 985.048461,706.304645 985.148461,707.322645 C985.798461,714.059645 983.378461,720.509645 979.068461,725.619645 C974.528461,731.004645 968.738461,734.431645 961.638461,734.994645 C947.578461,736.107645 932.758461,735.148645 918.638461,735.111645 L839.651461,735.107645 L579.529461,735.109645 L218.854461,735.113645 L100.862461,735.122645 C80.590461,735.130645 60.039461,735.881645 39.798461,735.035645 C33.616461,734.776645 28.308461,732.448645 23.743461,728.315645 C18.373161,723.451645 15.907361,716.901645 15.532561,709.787645 C15.011261,699.890645 15.356761,689.838645 15.351061,679.925645 L15.342461,624.748645 L15.358961,589.675645 C15.364561,582.245645 14.966261,574.541645 15.989161,567.173645 C16.797861,561.348645 18.272361,557.224645 22.290461,552.820645 C27.434461,547.182645 33.728461,545.023645 41.217461,544.648645 L207.334461,544.490645 C210.103461,550.701645 213.559461,556.434645 219.498461,560.068645 C226.907461,564.601645 234.208461,564.096645 242.346461,562.057645 C244.099461,562.975645 245.832461,563.953645 247.645461,564.750645 C257.041461,568.880645 267.674461,566.725645 276.735461,563.009645 C277.003461,563.093645 277.269461,563.180645 277.537461,563.261645 C285.240461,565.594645 293.107461,564.902645 300.216461,561.016645 C306.922461,557.352645 310.902461,551.655645 313.015461,544.431645 Z"/><path fill="#F2F2F4" d="M608.167461,125.596645 C606.582461,133.532645 602.057461,151.468645 606.625461,158.522645 C607.348461,159.640645 608.252461,160.308645 609.580461,160.543645 C610.514461,160.708645 611.530461,160.593645 612.361461,160.072645 C613.619461,159.282645 614.259461,158.079645 614.723461,156.708645 C616.604461,151.159645 617.027461,144.579645 618.058461,138.791645 C618.803461,134.613645 620.022461,130.510645 621.169461,126.427645 C631.443461,89.834645 650.212461,50.715445 682.998461,29.218745 C699.414461,18.455445 717.695461,13.777145 737.201461,16.516345 C758.314461,19.481145 775.559461,32.287545 788.097461,49.093145 C808.326461,76.206645 813.504461,110.938645 808.543461,143.765645 C804.054461,173.475645 790.618461,201.149645 765.985461,219.295645 C743.773461,235.657645 718.241461,239.869645 691.431461,240.860645 C689.714461,235.830645 688.134461,230.670645 686.201461,225.724645 C683.903461,219.963645 681.551461,214.335645 678.697461,208.822645 C688.222461,195.738645 696.505461,177.265645 696.886461,160.915645 C696.988461,156.511645 696.541461,150.678645 693.196461,147.465645 C691.788461,146.113645 689.974461,145.544645 688.046461,145.600645 C678.268461,145.886645 667.694461,157.458645 661.177461,163.950645 C665.568461,144.252645 670.103461,124.867645 678.691461,106.497645 C688.303461,85.938645 703.759461,63.549645 725.964461,55.696045 C741.123461,50.334545 757.625461,52.803945 770.197461,62.958645 C773.247461,65.422645 777.408461,70.181645 780.916461,71.609645 C781.100461,71.684645 781.297461,71.721645 781.488461,71.777645 C778.839461,62.119145 772.115461,54.420245 763.448461,49.537545 C751.794461,42.971745 737.054461,41.988845 724.299461,45.675245 C701.783461,52.182745 685.016461,72.038645 674.189461,91.955645 C661.433461,115.421645 653.867461,143.615645 651.139461,170.069645 C650.721461,174.118645 649.678461,181.174645 651.164461,185.073645 C651.477461,185.895645 651.521461,185.890645 651.959461,186.497645 L653.001461,186.496645 C663.657461,175.281645 672.488461,159.147645 688.213461,154.488645 C689.088461,175.386645 677.432461,193.324645 667.848461,211.039645 C673.358461,222.617645 677.247461,234.891645 680.690461,247.222645 C691.323461,285.301645 696.881461,329.088645 683.482461,367.253645 C670.530461,404.142645 642.401461,426.128645 608.387461,442.350645 C583.135461,454.393645 556.026461,461.792645 528.720461,467.359645 C525.287461,468.059645 516.045461,469.119645 514.816461,472.487645 C516.668461,475.159645 520.395461,475.497645 523.402461,476.200645 C505.474461,489.268645 485.382461,498.932645 467.306461,511.664645 C454.140461,503.018645 442.623461,492.780645 433.984461,479.493645 C448.607461,480.314645 471.605461,481.557645 484.853461,475.254645 L485.555461,474.235645 C483.665461,472.122645 480.096461,471.899645 477.371461,471.742645 C463.611461,470.950645 450.064461,470.430645 436.368461,468.636645 C390.354461,462.606645 339.938461,446.707645 307.750461,411.494645 C305.983794,409.591312 304.293794,407.621979 302.680461,405.586645 C301.067794,403.550645 299.536794,401.455312 298.087461,399.300645 C296.638128,397.145312 295.275128,394.936645 293.998461,392.674645 C292.721794,390.413312 291.535128,388.105312 290.438461,385.750645 C293.096461,385.238645 296.906461,384.893645 298.749461,382.718645 C299.312461,382.054645 299.063461,381.698645 298.985461,380.904645 C295.969461,377.429645 290.231461,376.901645 285.913461,376.277645 C282.444461,367.285645 280.462461,358.124645 278.386461,348.741645 C283.302461,350.425645 289.098461,353.048645 294.357461,352.693645 L295.736461,351.277645 C292.024461,345.573645 283.522461,341.829645 277.403461,339.244645 C269.511461,281.462645 283.266461,208.085645 319.001461,160.952645 C340.831461,132.159645 374.365461,110.164645 410.491461,104.842645 C415.531461,104.099645 421.352461,105.718645 426.119461,104.563645 C426.324461,100.636645 421.041461,93.935645 418.922461,90.558645 C433.727461,90.828645 445.888461,93.818645 459.313461,99.871645 C456.871461,90.740645 452.871461,83.652645 447.304461,76.048645 C462.810461,78.381645 477.081461,82.322645 491.057461,89.592645 C495.626461,91.968645 499.687461,95.887645 504.711461,97.215645 C512.512461,99.277645 524.462461,98.569645 533.014461,99.711645 C559.427461,103.239645 584.842461,112.961645 608.167461,125.596645 Z"/><path fill="#FAC3B7" d="M661.177461,163.950645 C665.568461,144.252645 670.103461,124.867645 678.691461,106.497645 C688.303461,85.938645 703.759461,63.549645 725.964461,55.696045 C741.123461,50.334545 757.625461,52.803945 770.197461,62.958645 C773.247461,65.422645 777.408461,70.181645 780.916461,71.609645 C781.100461,71.684645 781.297461,71.721645 781.488461,71.777645 C781.541461,71.935645 781.593461,72.093645 781.648461,72.250645 C784.243461,79.639645 788.312461,86.398645 790.838461,93.894645 C798.937461,117.932645 797.124461,146.235645 786.403461,169.218645 C776.149461,191.198645 756.573461,209.835645 733.742461,218.090645 C722.785461,222.052645 710.802461,225.159645 699.141461,225.738645 C695.215461,225.933645 689.848461,224.710645 686.201461,225.724645 C683.903461,219.963645 681.551461,214.335645 678.697461,208.822645 C688.222461,195.738645 696.505461,177.265645 696.886461,160.915645 C696.988461,156.511645 696.541461,150.678645 693.196461,147.465645 C691.788461,146.113645 689.974461,145.544645 688.046461,145.600645 C678.268461,145.886645 667.694461,157.458645 661.177461,163.950645 Z"/><path fill="#313945" d="M410.987461,343.565645 C418.963461,343.023645 428.507461,343.784645 435.707461,347.580645 C439.560461,349.610645 442.820461,352.752645 444.051461,357.029645 C445.552461,362.247645 443.680461,367.951645 440.966461,372.452645 C436.066461,380.577645 426.878461,386.956645 417.739461,389.227645 L418.131461,391.521645 C419.765461,400.936645 420.819461,411.810645 429.487461,417.632645 C438.935461,423.977645 453.925461,424.193645 464.699461,422.215645 C481.353461,419.159645 492.232461,408.761645 501.571461,395.346645 C500.186461,394.513645 498.124461,393.487645 497.186461,392.124645 C496.343461,390.900645 496.531461,390.070645 496.759461,388.686645 C497.743461,387.423645 498.627461,386.771645 500.201461,386.352645 C504.432461,385.228645 509.018461,386.601645 512.620461,388.882645 C516.589461,391.396645 519.159461,395.075645 520.136461,399.669645 C520.588461,401.797645 520.531461,402.994645 519.320461,404.816645 C518.509461,405.209645 517.922461,405.479645 517.002461,405.473645 C513.377461,405.449645 511.786461,403.417645 509.367461,401.079645 C508.290461,403.431645 507.132461,405.848645 505.710461,408.013645 C496.941461,421.371645 482.617461,429.101645 467.335461,432.362645 C463.871461,432.963645 460.435461,433.407645 456.923461,433.613645 C443.086461,434.424645 429.236461,432.093645 418.595461,422.712645 C414.822461,425.367645 411.036461,427.358645 406.573461,428.595645 C395.324461,431.712645 382.335461,430.277645 372.216461,424.398645 C371.642461,424.067979 371.077128,423.723312 370.520461,423.364645 C369.963128,423.005312 369.415461,422.632645 368.877461,422.246645 C368.338794,421.860645 367.810461,421.461312 367.292461,421.048645 C366.773794,420.636645 366.265794,420.211645 365.768461,419.773645 C365.271128,419.335645 364.785128,418.885645 364.310461,418.423645 C363.835794,417.961645 363.372794,417.488312 362.921461,417.003645 C362.470128,416.518312 362.031128,416.022312 361.604461,415.515645 C361.177794,415.008979 360.763794,414.491979 360.362461,413.964645 C359.961794,413.436645 359.574461,412.899312 359.200461,412.352645 C358.826461,411.805979 358.466128,411.250312 358.119461,410.685645 C357.772794,410.120979 357.440794,409.547979 357.123461,408.966645 C356.805461,408.385312 356.502128,407.796312 356.213461,407.199645 C355.924794,406.603645 355.651128,406.000645 355.392461,405.390645 C355.133794,404.780645 354.890461,404.164645 354.662461,403.542645 C354.434461,402.920645 354.222128,402.293312 354.025461,401.660645 C353.828794,401.027979 353.648128,400.390645 353.483461,399.748645 C352.311461,395.308645 352.178461,391.422645 354.706461,387.338645 C355.628461,385.847645 356.555461,384.978645 358.282461,384.542645 C364.064461,386.282645 363.888461,399.485645 366.916461,404.846645 C370.937461,411.966645 377.672461,416.685645 385.518461,418.767645 C395.537461,421.426645 404.425461,419.645645 413.254461,414.527645 C410.363461,405.899645 408.986461,398.155645 408.912461,389.046645 C405.298461,387.115645 401.679461,385.204645 398.423461,382.696645 C392.387461,378.048645 386.616461,370.889645 385.850461,363.050645 C385.457461,359.041645 386.601461,355.112645 389.229461,352.041645 C394.526461,345.850645 403.285461,344.112645 410.987461,343.565645 Z"/><path fill="#FAC3B7" d="M411.647461,350.364645 C416.050461,349.983645 421.046461,350.347645 425.379461,351.201645 C428.827461,351.881645 432.906461,353.216645 434.850461,356.387645 C436.036461,358.322645 436.145461,360.547645 435.512461,362.692645 C433.302461,370.191645 424.068461,376.709645 417.488461,380.118645 C417.117461,380.230645 416.740461,380.324645 416.362461,380.405645 C412.178461,381.301645 408.351461,379.329645 404.928461,377.091645 C400.255461,374.036645 394.272461,368.697645 393.240461,362.975645 C392.842461,360.773645 393.307461,358.542645 394.665461,356.744645 C398.351461,351.866645 406.019461,350.977645 411.647461,350.364645 Z"/><path fill="#313945" d="M521.787461,262.174645 C528.050461,261.655645 533.454461,262.092645 539.016461,265.350645 C547.877461,270.541645 553.201461,280.487645 555.635461,290.182645 C558.704461,302.407645 557.630461,316.421645 550.998461,327.331645 C546.055461,335.463645 539.384461,339.646645 530.305461,341.907645 C523.678461,342.552645 517.463461,342.016645 511.532461,338.746645 C503.865461,334.521645 499.099461,326.916645 496.706461,318.671645 C492.927461,305.647645 494.550461,290.617645 501.245461,278.791645 C506.032461,270.334645 512.422461,264.817645 521.787461,262.174645 Z"/><path fill="#FFF" d="M535.028461,280.765645 C535.941461,280.817645 536.892461,280.865645 537.784461,281.078645 C540.318461,281.680645 542.346461,283.654645 543.524461,285.905645 C545.113461,288.943645 545.214461,292.721645 543.992461,295.903645 C542.748461,299.138645 540.850461,300.371645 537.793461,301.735645 C537.106461,301.644645 536.420461,301.549645 535.740461,301.412645 C533.094461,300.876645 530.862461,299.438645 529.423461,297.127645 C527.882461,294.652645 527.531461,291.603645 528.243461,288.799645 C529.251461,284.826645 531.559461,282.694645 535.028461,280.765645 Z"/><path fill="#313945" d="M350.779461,256.504645 C356.131461,256.161645 360.982461,257.212645 365.523461,260.170645 C373.666461,265.475645 377.990461,275.060645 379.861461,284.292645 C382.603461,297.823645 381.053461,312.754645 373.273461,324.437645 C368.507461,331.596645 362.486461,335.753645 354.044461,337.433645 C349.116461,337.816645 343.902461,336.645645 339.657461,334.099645 C331.642461,329.291645 327.163461,320.922645 324.976461,312.068645 C321.588461,298.353645 323.622461,283.187645 331.083461,271.133645 C335.822461,263.477645 341.943461,258.519645 350.779461,256.504645 Z"/><path fill="#FFF" d="M357.372461,274.681645 C358.438461,274.539645 359.542461,274.376645 360.619461,274.398645 C363.117461,274.451645 365.683461,275.993645 367.185461,277.933645 C369.066461,280.361645 369.592461,283.606645 369.071461,286.585645 C368.419461,290.316645 366.488461,292.496645 363.501461,294.648645 C362.646461,294.772645 361.764461,294.901645 360.899461,294.881645 C358.514461,294.823645 355.916461,293.441645 354.421461,291.610645 C352.478461,289.231645 351.855461,285.975645 352.252461,282.978645 C352.754461,279.187645 354.439461,276.974645 357.372461,274.681645 Z"/><path fill="#3A5668" d="M631.704461,345.260645 C638.274461,344.373645 646.670461,344.496645 653.229461,345.190645 C656.454461,345.531645 664.295461,346.509645 666.186461,349.258645 C666.670461,349.963645 666.351461,350.476645 666.212461,351.254645 C659.831461,354.099645 640.723461,353.556645 632.586461,354.401645 C624.668461,355.223645 616.875461,356.502645 609.061461,358.004645 C601.197461,359.781645 590.443461,363.626645 582.491461,362.647645 C581.008461,362.465645 580.392461,362.252645 579.467461,361.096645 L579.894461,359.841645 C589.801461,349.548645 617.536461,346.449645 631.704461,345.260645 Z M575.308461,383.827645 C576.318461,383.764979 577.329128,383.717312 578.340461,383.684645 C598.349461,382.943645 618.591461,387.364645 637.562461,393.439645 C641.203461,394.605645 647.037461,396.038645 649.774461,398.790645 C650.719461,399.741645 650.619461,400.012645 650.611461,401.273645 C649.390461,402.727645 648.269461,403.159645 646.517461,403.828645 C631.911461,402.208645 616.915461,397.958645 602.465461,395.022645 C592.095461,392.916645 580.179461,392.194645 570.417461,388.210645 C570.011461,387.132645 570.037461,387.192645 570.474461,386.120645 C572.087461,384.861645 573.343461,384.366645 575.308461,383.827645 Z"/><path fill="#313945" d="M520.980461,186.086645 C525.155461,185.735645 529.419461,185.658645 533.561461,186.347645 C543.687461,188.031645 553.538461,193.514645 559.531461,201.976645 C561.093461,204.180645 563.388461,208.188645 562.749461,211.020645 C562.456461,212.318645 562.079461,212.417645 561.040461,213.115645 C559.193461,213.166645 558.263461,212.466645 556.751461,211.477645 C547.832461,202.859645 538.337461,197.110645 525.705461,196.377645 C522.337461,196.181645 518.799461,197.028645 515.502461,196.600645 C513.483461,196.338645 511.798461,195.394645 510.615461,193.757645 C510.608461,192.535645 510.554461,192.137645 511.318461,191.109645 C513.801461,187.768645 517.158461,186.837645 520.980461,186.086645 Z M351.592461,182.772645 C353.883461,182.653645 356.283461,182.559645 358.556461,182.917645 C361.589461,183.395645 366.665461,185.048645 368.344461,187.862645 C368.949461,188.876645 368.995461,190.111645 368.610461,191.203645 C368.274461,192.154645 367.911461,192.981645 366.962461,193.463645 C363.933461,195.004645 354.631461,193.534645 350.510461,194.061645 C345.666461,194.681645 341.788461,196.249645 337.462461,198.457645 C334.902461,200.206645 331.614461,202.954645 328.651461,203.770645 C327.108461,204.195645 326.112461,204.243645 324.739461,203.421645 L324.454461,201.984645 C325.003461,199.792645 325.967461,198.033645 327.339461,196.242645 C333.361461,188.378645 341.945461,184.124645 351.592461,182.772645 Z"/><path fill="#FAC3B7" d="M271.164461,237.024645 C265.637461,235.450645 260.443461,233.207645 255.336461,230.581645 C228.832461,216.955645 210.888461,193.575645 201.927461,165.408645 C191.337461,132.122645 193.016461,91.699645 209.299461,60.518845 C218.614461,42.680845 233.628461,27.105745 253.284461,21.139745 C270.773461,15.831045 290.548461,18.956945 306.454461,27.545345 C336.192461,43.602845 353.524461,76.813645 362.705461,108.092645 C347.330461,116.742645 334.216461,126.035645 321.584461,138.389645 C321.399128,135.345645 321.117461,132.310645 320.739461,129.284645 C320.361461,126.257979 319.887794,123.246645 319.318461,120.250645 C318.748461,117.254645 318.084461,114.279979 317.326461,111.326645 C316.567794,108.372645 315.716461,105.445645 314.772461,102.545645 C308.302461,82.530645 296.381461,59.228145 276.907461,49.446645 C276.356128,49.172445 275.798461,48.911945 275.234461,48.665145 C274.669794,48.418345 274.099794,48.185545 273.524461,47.966745 C272.948461,47.7478783 272.367794,47.543245 271.782461,47.352845 C271.196461,47.162445 270.606461,46.986545 270.012461,46.825145 C269.418461,46.6636783 268.820794,46.5168783 268.219461,46.384745 C267.617461,46.2526116 267.012794,46.1352783 266.405461,46.032745 C265.798794,45.9302783 265.189461,45.842745 264.577461,45.770145 C263.966128,45.697545 263.353461,45.639945 262.739461,45.597345 C262.124794,45.5548116 261.509794,45.527345 260.894461,45.514945 C260.278461,45.502545 259.662794,45.505245 259.047461,45.523045 C258.431461,45.540845 257.816794,45.5737116 257.203461,45.621645 C256.589461,45.669645 255.976794,45.7326116 255.365461,45.810545 C254.754794,45.888545 254.146461,45.981445 253.540461,46.089245 C252.933794,46.197045 252.330461,46.319645 251.730461,46.457045 C251.129794,46.594445 250.533128,46.7464783 249.940461,46.913145 C249.347794,47.0798116 248.759461,47.2609116 248.175461,47.456445 C238.828461,50.633545 232.143461,57.361845 227.868461,66.133645 C238.873461,59.207645 249.927461,51.801345 263.582461,54.889445 C276.467461,57.803445 286.432461,69.197645 293.079461,79.965645 C305.589461,100.231645 311.153461,126.129645 312.255461,149.756645 C295.177461,172.274645 283.557461,195.001645 275.013461,221.943645 C273.587461,226.929645 272.408461,231.990645 271.164461,237.024645 Z"/><path fill="#F2F2F4" d="M271.164461,237.024645 C265.637461,235.450645 260.443461,233.207645 255.336461,230.581645 C228.832461,216.955645 210.888461,193.575645 201.927461,165.408645 C191.337461,132.122645 193.016461,91.699645 209.299461,60.518845 C218.614461,42.680845 233.628461,27.105745 253.284461,21.139745 C270.773461,15.831045 290.548461,18.956945 306.454461,27.545345 C336.192461,43.602845 353.524461,76.813645 362.705461,108.092645 C347.330461,116.742645 334.216461,126.035645 321.584461,138.389645 C321.399128,135.345645 321.117461,132.310645 320.739461,129.284645 C320.361461,126.257979 319.887794,123.246645 319.318461,120.250645 C318.748461,117.254645 318.084461,114.279979 317.326461,111.326645 C316.567794,108.372645 315.716461,105.445645 314.772461,102.545645 C308.302461,82.530645 296.381461,59.228145 276.907461,49.446645 C276.356128,49.172445 275.798461,48.911945 275.234461,48.665145 C274.669794,48.418345 274.099794,48.185545 273.524461,47.966745 C272.948461,47.7478783 272.367794,47.543245 271.782461,47.352845 C271.196461,47.162445 270.606461,46.986545 270.012461,46.825145 C269.418461,46.6636783 268.820794,46.5168783 268.219461,46.384745 C267.617461,46.2526116 267.012794,46.1352783 266.405461,46.032745 C265.798794,45.9302783 265.189461,45.842745 264.577461,45.770145 C263.966128,45.697545 263.353461,45.639945 262.739461,45.597345 C262.124794,45.5548116 261.509794,45.527345 260.894461,45.514945 C260.278461,45.502545 259.662794,45.505245 259.047461,45.523045 C258.431461,45.540845 257.816794,45.5737116 257.203461,45.621645 C256.589461,45.669645 255.976794,45.7326116 255.365461,45.810545 C254.754794,45.888545 254.146461,45.981445 253.540461,46.089245 C252.933794,46.197045 252.330461,46.319645 251.730461,46.457045 C251.129794,46.594445 250.533128,46.7464783 249.940461,46.913145 C249.347794,47.0798116 248.759461,47.2609116 248.175461,47.456445 C238.828461,50.633545 232.143461,57.361845 227.868461,66.133645 L227.560461,66.943645 C224.315461,75.314645 219.405461,83.008645 216.193461,91.523645 C206.347461,117.627645 207.196461,148.552645 218.271461,174.125645 C226.834461,193.899645 242.780461,210.945645 263.089461,218.829645 C265.008794,219.581645 266.965461,220.218312 268.959461,220.739645 C270.953461,221.260312 272.971461,221.661645 275.013461,221.943645 C273.587461,226.929645 272.408461,231.990645 271.164461,237.024645 Z"/><path fill="#467599" d="M355.966461,750.548645 L649.118461,750.591645 C649.744461,774.592645 649.462461,798.428645 649.017461,822.425645 C628.479461,829.128645 600.565461,828.899645 579.102461,828.176645 C564.143461,827.542645 550.064461,826.074645 535.878461,821.008645 C533.507461,806.500645 532.005461,792.194645 528.749461,777.806645 C527.725461,773.281645 526.614461,766.992645 522.284461,764.466645 C513.933461,759.593645 469.469461,759.864645 459.519461,762.610645 C457.072461,763.285645 454.952461,764.087645 453.609461,766.329645 C453.709461,767.625645 453.659461,767.969645 454.593461,768.961645 C456.473461,770.960645 460.298461,770.675645 462.860461,770.830645 C460.814461,786.776645 459.993461,802.960645 458.169461,818.954645 C428.817461,824.891645 388.620461,825.293645 360.629461,813.962645 C356.568461,797.725645 356.064461,767.777645 355.966461,750.548645 Z"/><path fill="#7A7BBE" d="M671.408461,414.317645 C672.947461,414.916645 674.506461,415.514645 675.988461,416.246645 C684.155461,420.278645 690.446461,429.434645 693.238461,437.876645 C698.723461,454.462645 694.130461,472.696645 686.590461,487.825645 C675.047461,477.659645 667.490461,464.908645 650.842461,461.010645 C640.210461,458.521645 629.471461,460.815645 619.383461,464.368645 C599.865461,471.243645 582.486461,484.553645 564.205461,494.192645 C554.668128,499.255979 545.035461,504.130979 535.307461,508.817645 C526.909461,512.821645 518.089461,516.435645 510.195461,521.379645 C510.629461,521.690645 510.710461,521.794645 511.302461,521.957645 C526.435461,526.133645 577.615461,497.893645 591.775461,489.502645 C600.837461,484.133645 609.169461,477.499645 618.967461,473.437645 C629.366461,469.125645 639.900461,467.556645 650.514461,472.064645 C671.288461,480.887645 690.722461,509.405645 698.976461,529.785645 C691.371794,529.733645 683.767461,529.750979 676.163461,529.837645 C675.339461,526.089645 674.296461,522.603645 672.532461,519.178645 C666.669461,507.795645 655.462461,499.851645 643.426461,496.072645 C623.977461,489.966645 598.644461,490.358645 580.412461,500.045645 C567.964461,506.659645 559.576461,516.187645 555.403461,529.712645 L454.597461,529.639645 L368.998461,529.675645 C368.920461,523.420645 370.616461,517.325645 370.601461,511.117645 C370.597461,509.468645 370.591461,508.092645 369.387461,506.902645 C368.814461,507.042645 368.714461,507.022645 368.152461,507.407645 C362.914461,510.991645 361.049461,523.909645 360.323461,529.627645 C352.769461,529.603645 345.216128,529.649979 337.663461,529.766645 C334.596461,520.887645 330.758461,514.113645 324.690461,506.930645 C336.365461,496.334645 348.192461,484.167645 361.771461,476.135645 C363.658461,478.783645 365.748461,481.285645 367.871461,483.746645 C383.207461,501.519645 407.418461,520.984645 431.524461,522.778645 C425.070461,518.005645 417.999461,514.004645 411.366461,509.467645 C397.439461,499.942645 376.565461,483.611645 369.460461,468.353645 C378.163794,470.758312 386.937461,472.872312 395.781461,474.695645 C404.624794,476.518312 413.518794,478.046645 422.463461,479.280645 C432.864461,496.536645 446.613461,512.234645 465.078461,521.149645 C481.461461,515.893645 508.070461,498.756645 523.051461,489.089645 C527.989461,485.902645 532.568461,481.146645 537.967461,478.897645 C544.736461,476.077645 553.752461,475.626645 561.005461,474.055645 C571.965461,471.681645 582.928461,468.317645 593.461461,464.487645 C603.174461,460.955645 613.002461,456.710645 622.091461,451.792645 C629.222461,447.933645 636.412461,442.549645 644.049461,439.927645 C652.106461,437.160645 662.509461,438.286645 669.809461,435.053645 L669.979461,434.099645 C666.639461,430.915645 657.156461,431.121645 652.781461,431.203645 C659.125461,425.665645 665.420461,420.251645 671.408461,414.317645 Z"/><path fill="#F2F2F4" d="M367.543461,853.398645 C372.258461,853.056645 383.650461,857.190645 389.316461,858.088645 C414.385461,862.062645 443.077461,861.674645 467.657461,855.029645 C469.471461,863.824645 471.057461,876.423645 467.663461,885.032645 C465.231461,891.201645 459.773461,894.012645 453.978461,896.523645 C432.917461,905.653645 404.171461,909.779645 381.368461,911.147645 C378.125461,911.342645 371.976461,912.358645 369.135461,910.735645 C368.160461,910.178645 367.435461,908.962645 367.078461,907.920645 C364.871461,901.486645 368.888461,892.352645 371.477461,886.617645 C372.170461,885.080645 373.427461,882.942645 373.537461,881.272645 C373.612461,880.139645 373.262461,879.916645 372.549461,879.165645 L371.001461,879.229645 C369.008461,880.280645 367.625461,881.590645 366.222461,883.350645 C359.692461,891.548645 358.979461,901.390645 360.339461,911.339645 C353.012461,911.335645 341.044461,911.865645 334.505461,908.712645 C332.344461,907.670645 330.767461,906.052645 329.993461,903.758645 C327.001461,894.900645 334.007461,885.592645 337.781461,878.246645 C338.558461,876.734645 339.031461,875.618645 338.485461,873.986645 C337.149461,873.791645 336.306461,874.150645 335.174461,874.812645 C328.180461,878.899645 322.545461,889.450645 322.237461,897.380645 C322.130461,900.151645 323.303461,903.136645 322.553461,905.818645 C321.221461,906.011645 320.003461,905.741645 318.805461,905.133645 C315.818461,903.616645 313.657461,900.176645 312.749461,897.042645 C311.486461,892.685645 312.847461,888.127645 315.000461,884.276645 C324.523461,867.242645 349.867461,858.427645 367.543461,853.398645 Z"/><path fill="#FAC3B7" d="M671.614461,750.519645 L693.960461,750.618645 C717.280461,766.214645 737.288461,777.243645 766.308461,778.268645 C797.320461,779.364645 818.596461,771.922645 841.483461,750.619645 C852.518461,750.309645 863.638461,750.567645 874.682461,750.560645 C870.935461,756.974645 866.798461,762.812645 862.048461,768.508645 C861.476461,769.184645 860.896794,769.854312 860.309461,770.517645 C859.722794,771.180979 859.128128,771.837312 858.525461,772.486645 C857.923461,773.135979 857.314128,773.778312 856.697461,774.413645 C856.080128,775.048979 855.455794,775.677312 854.824461,776.298645 C854.193128,776.919312 853.554794,777.532979 852.909461,778.139645 C852.263461,778.745645 851.610794,779.344645 850.951461,779.936645 C850.292794,780.527979 849.627128,781.111645 848.954461,781.687645 C848.281794,782.263645 847.602461,782.831979 846.916461,783.392645 C846.230461,783.953312 845.538461,784.505645 844.840461,785.049645 C844.141794,785.594312 843.437128,786.130979 842.726461,786.659645 C842.015794,787.188312 841.299128,787.708645 840.576461,788.220645 C839.853794,788.732645 839.125461,789.236312 838.391461,789.731645 C837.656794,790.226312 836.916794,790.712979 836.171461,791.191645 C835.426128,791.669645 834.675461,792.139312 833.919461,792.600645 C833.162794,793.061312 832.401461,793.513312 831.635461,793.956645 C830.868794,794.400645 830.097128,794.835312 829.320461,795.260645 C828.543794,795.686645 827.762461,796.103645 826.976461,796.511645 C826.190461,796.918979 825.399794,797.317645 824.604461,797.707645 C823.809128,798.096979 823.009461,798.477312 822.205461,798.848645 C821.400794,799.219979 820.592461,799.581979 819.780461,799.934645 C818.967794,800.287312 818.151461,800.630645 817.331461,800.964645 C816.511461,801.298645 815.687461,801.623312 814.859461,801.938645 C814.032128,802.253312 813.201128,802.558645 812.366461,802.854645 C811.531794,803.150645 810.693794,803.436979 809.852461,803.713645 C809.011128,803.990979 808.166794,804.257979 807.319461,804.514645 C806.471461,804.771979 805.621128,805.019645 804.768461,805.257645 C803.915128,805.495645 803.059461,805.723645 802.201461,805.941645 C801.342794,806.159645 800.482128,806.367979 799.619461,806.566645 C798.756128,806.764645 797.890794,806.952979 797.023461,807.131645 C796.156128,807.310312 795.286794,807.478645 794.415461,807.636645 C793.544128,807.795312 792.670794,807.943979 791.795461,808.082645 C790.920794,808.220645 790.044794,808.348979 789.167461,808.467645 C745.258461,814.157645 706.398461,798.661645 672.167461,772.125645 C672.305461,764.948645 671.849461,757.696645 671.614461,750.519645 Z"/><path fill="#F2F2F4" d="M655.262461,858.613645 C656.394461,859.552645 656.527461,861.467645 656.705461,862.827645 C658.205461,874.317645 658.962461,889.238645 651.454461,898.876645 C641.675461,911.430645 620.591461,915.953645 605.702461,917.871645 C595.476461,902.233645 607.294461,892.389645 603.720461,884.271645 L602.715461,884.204645 C601.017461,885.438645 599.793461,886.960645 598.756461,888.786645 C593.432461,898.160645 593.813461,908.662645 596.383461,918.736645 C585.409461,919.285645 573.095461,919.420645 562.336461,917.050645 C558.702461,908.743645 559.158461,901.848645 561.644461,893.291645 C562.601461,890.503645 565.142461,885.266645 564.675461,882.425645 L563.531461,882.252645 C561.420461,883.041645 560.197461,884.179645 558.836461,885.965645 C552.102461,894.801645 552.078461,904.708645 553.342461,915.180645 C548.121461,914.129645 542.829461,912.759645 538.604461,909.339645 C534.701461,906.178645 532.486461,901.680645 532.163461,896.681645 C531.312461,883.485645 540.387461,869.873645 548.538461,860.336645 C576.921461,867.998645 626.817461,866.324645 655.262461,858.613645 Z M263.856461,499.773645 C276.575461,499.368645 289.231461,499.781645 301.177461,504.679645 C313.478461,509.723645 320.666461,517.617645 325.797461,529.677645 C323.277461,529.737645 320.618461,529.929645 318.111461,529.670645 C315.369461,529.387645 309.448461,527.584645 307.121461,528.431645 C303.480461,529.757645 301.222461,544.061645 298.302461,548.518645 C296.617461,551.090645 294.535461,553.162645 291.419461,553.758645 C288.423461,554.331645 284.414461,553.604645 281.995461,551.683645 C274.710461,545.898645 278.291461,530.234645 277.269461,522.910645 C277.086461,521.598645 276.802461,521.470645 275.837461,520.673645 C274.413461,520.603645 274.060461,520.480645 272.982461,521.581645 C269.031461,525.616645 269.356461,539.193645 269.921461,544.442645 C270.404461,547.595645 271.189461,550.744645 271.850461,553.867645 C266.186461,555.649645 259.671461,556.473645 253.806461,555.252645 C236.560461,551.662645 246.153461,528.699645 242.154461,522.349645 L241.043461,522.118645 C240.506461,522.457645 240.420461,522.474645 239.917461,523.012645 C238.634461,524.383645 237.688461,526.589645 236.942461,528.310645 C233.095461,537.184645 235.087461,542.915645 235.947461,552.077645 C235.413461,552.373645 234.941461,552.646645 234.332461,552.757645 C230.966461,553.376645 224.958461,550.918645 222.452461,548.833645 C218.729461,545.734645 217.194461,540.950645 216.888461,536.255645 C216.393461,528.643645 218.870461,520.389645 223.995461,514.658645 C233.300461,504.252645 250.584461,500.528645 263.856461,499.773645 Z M613.729461,503.162645 C624.804461,503.285645 635.725461,503.845645 645.995461,508.421645 C655.525461,512.667645 661.323461,518.867645 665.026461,528.547645 C658.848461,536.129645 659.167461,547.583645 651.559461,553.880645 C647.404461,557.319645 641.181461,558.200645 635.928461,557.625645 C634.022461,557.417645 632.388461,556.700645 631.281461,555.084645 C626.080461,547.492645 633.963461,537.048645 634.770461,529.092645 C634.914461,527.673645 634.902461,526.902645 633.971461,525.823645 C633.768461,525.838645 633.561461,525.824645 633.362461,525.867645 C631.488461,526.273645 629.511461,528.356645 628.271461,529.746645 C618.490461,540.709645 623.728461,554.983645 621.010461,558.862645 C617.762461,561.060645 614.015461,560.933645 610.238461,561.048645 C607.794461,561.008645 605.146461,560.851645 602.770461,560.208645 C599.861461,559.420645 597.085461,557.689645 595.573461,555.017645 C589.246461,543.842645 600.623461,533.163645 603.187461,523.235645 C603.494461,522.043645 603.515461,521.810645 602.921461,520.804645 C602.733461,520.796645 602.546461,520.766645 602.359461,520.780645 C599.899461,520.968645 597.156461,523.091645 595.476461,524.787645 C590.556461,529.755645 585.217461,538.768645 585.371461,545.878645 C585.423461,548.229645 586.003461,552.158645 584.840461,554.201645 C583.723461,555.016645 582.853461,555.576645 581.454461,555.747645 C577.495461,556.231645 572.770461,554.110645 569.812461,551.601645 C566.280461,548.605645 564.523461,544.407645 564.307461,539.830645 C563.937461,531.987645 567.515461,524.600645 572.662461,518.874645 C583.398461,506.929645 598.453461,504.079645 613.729461,503.162645 Z"/><path fill="#FAC3B7" d="M943.248461,475.086645 C948.178461,475.650645 953.378461,474.997645 958.398461,475.506645 C975.728461,477.260645 991.638461,485.873645 1004.06846,497.835645 C1004.62179,498.370979 1005.16513,498.912645 1005.69846,499.460645 C1006.23846,500.009312 1006.76846,500.564312 1007.28846,501.125645 C1007.81513,501.686979 1008.33513,502.254312 1008.84846,502.827645 C1009.35513,503.401645 1009.85846,503.981645 1010.35846,504.567645 C1010.85179,505.153645 1011.33846,505.745645 1011.81846,506.343645 C1012.29846,506.941645 1012.77513,507.545312 1013.24846,508.154645 C1013.71513,508.763979 1014.17179,509.378979 1014.61846,509.999645 C1015.07179,510.620312 1015.51846,511.246312 1015.95846,511.877645 C1016.39179,512.508979 1016.82179,513.145645 1017.24846,513.787645 C1017.66846,514.428979 1018.08179,515.075645 1018.48846,515.727645 C1018.89513,516.379645 1019.29179,517.036312 1019.67846,517.697645 C1020.07179,518.359645 1020.45513,519.025979 1020.82846,519.696645 C1021.20179,520.367312 1021.56513,521.042645 1021.91846,521.722645 C1022.27846,522.401979 1022.62846,523.085645 1022.96846,523.773645 C1023.30846,524.461645 1023.64179,525.153979 1023.96846,525.850645 C1024.28846,526.546645 1024.60179,527.246645 1024.90846,527.950645 C1025.21513,528.654645 1025.51513,529.361979 1025.80846,530.072645 C1026.09513,530.783979 1026.37513,531.498645 1026.64846,532.216645 C1026.92179,532.934645 1027.18513,533.655645 1027.43846,534.379645 C1027.69846,535.104312 1027.94513,535.831645 1028.17846,536.561645 C1028.41846,537.292312 1028.64846,538.025645 1028.86846,538.761645 C1029.08846,539.497645 1029.29846,540.235979 1029.49846,540.976645 C1029.69846,541.717312 1029.89179,542.460645 1030.07846,543.206645 C1030.25846,543.951979 1030.43179,544.699645 1030.59846,545.449645 C1030.76513,546.199645 1030.92179,546.951645 1031.06846,547.705645 C1031.21513,548.458979 1031.35179,549.214312 1031.47846,549.971645 C1031.60513,550.728312 1031.72513,551.486645 1031.83846,552.246645 C1031.95179,553.006645 1032.05179,553.767979 1032.13846,554.530645 C1032.23179,555.292645 1032.31513,556.055979 1032.38846,556.820645 C1032.46179,557.584645 1032.52513,558.349645 1032.57846,559.115645 C1032.63846,559.881645 1032.68513,560.648312 1032.71846,561.415645 C1032.75179,562.182312 1032.77846,562.949645 1032.79846,563.717645 C1032.90846,571.278645 1032.27846,580.787645 1026.75846,586.501645 C1028.90846,581.607645 1027.03846,573.093645 1026.03846,567.963645 C1022.90846,551.946645 1011.13846,523.234645 997.438461,514.016645 C996.378461,510.865645 989.208461,506.466645 986.408461,504.687645 C972.788461,496.029645 957.128461,492.591645 941.248461,496.235645 C922.448461,500.552645 908.205461,513.612645 898.215461,529.595645 L871.041461,529.603645 C874.278794,523.624979 877.881128,517.875312 881.848461,512.354645 C897.807461,490.534645 916.743461,479.252645 943.248461,475.086645 Z"/><path fill="#467599" d="M663.847461,825.556645 L664.374461,826.352645 C664.882461,831.328645 664.998461,840.241645 662.258461,844.473645 C659.626461,848.539645 652.545461,850.596645 648.070461,851.706645 C621.502461,858.296645 558.715461,860.487645 534.984461,846.088645 C531.105461,841.605645 531.013461,834.233645 530.306461,828.570645 C565.515461,840.023645 629.628461,839.563645 663.847461,825.556645 Z M355.432461,821.088645 C361.392461,822.678645 367.061461,824.899645 373.149461,826.179645 C398.976461,831.611645 430.745461,832.503645 456.689461,827.548645 C456.470128,834.347312 456.213794,841.144312 455.920461,847.939645 C449.070461,850.929645 435.411461,850.970645 427.655461,851.093645 C412.549461,851.332645 369.290461,849.947645 359.287461,839.542645 C354.837461,834.913645 355.449461,827.057645 355.432461,821.088645 Z M654.287461,750.611645 L661.405461,750.733645 C661.243461,759.181645 662.208461,767.462645 662.579461,775.882645 C663.110461,787.920645 662.501461,806.740645 660.532461,818.574645 C658.468461,819.407645 656.218461,819.976645 654.091461,820.649645 C653.484461,797.379645 654.589461,773.923645 654.287461,750.611645 Z M468.361461,771.202645 L476.102461,771.624645 C475.889128,778.115312 475.577794,784.601312 475.168461,791.082645 C474.868461,796.105645 474.851461,813.232645 471.709461,816.020645 L464.169461,818.184645 C466.468461,802.591645 466.402461,786.782645 468.361461,771.202645 Z M477.456461,822.720645 C478.426461,827.512645 477.775461,835.312645 475.298461,839.493645 C472.187461,844.742645 466.429461,845.877645 461.012461,847.359645 C460.045461,841.098645 461.567461,833.182645 462.235461,826.890645 C467.481461,826.110645 472.470461,824.481645 477.456461,822.720645 Z"/></g></svg>