<?xml version="1.0" encoding="UTF-8" standalone="no"?><!DOCTYPE svg PUBLIC "-//W3C//DTD SVG 1.1//EN" "http://www.w3.org/Graphics/SVG/1.1/DTD/svg11.dtd"><svg width="100%" height="100%" viewBox="0 0 65192 62659" version="1.1" xmlns="http://www.w3.org/2000/svg" xmlns:xlink="http://www.w3.org/1999/xlink" xml:space="preserve" xmlns:serif="http://www.serif.com/" style="fill-rule:evenodd;clip-rule:evenodd;stroke-linejoin:round;stroke-miterlimit:2;"><g><path d="M20879.9,38115.8c132.483,418.887 667.358,3403.87 950.763,3778.68c283.404,374.792 409.391,271.425 677.308,-422.308c267.9,-693.734 223.021,-1013.98 91.946,-1731.27c-131.075,-717.309 -1852.48,-2044 -1720.02,-1625.1Z" style="fill:#f2f2f4;fill-rule:nonzero;"/><path d="M16692.6,15.713c972.571,-71.13 2049.32,334.6 2851.56,859.183c2228.14,1457.07 3385.85,3977.68 3913.91,6499.67c164.496,-24.967 327.621,-56.93 490.954,-88.18c-18.8,-213.766 -58.663,-477.22 -9.688,-687.429c27.571,-118.558 87.971,-215.071 194.013,-278.941c491.683,-296.217 1570.24,-69.809 2101.85,53.525c-81.458,-181.859 -166.162,-368.405 -217.879,-561.113c-74.583,-277.342 -80.225,-559.112 77.325,-809.617c107.846,-171.441 266.354,-275.241 465.712,-309.304c736.18,-125.958 2188.07,627.084 2844.76,1008.89c345.85,201.025 719.616,495.225 1101.56,613.854c441.563,137.083 960.067,108.596 1418.33,200.679c1631.08,327.758 3566.63,852.638 4946.42,1824.72c633.596,-1983.08 1356.25,-3567.57 2682.93,-5187.42c525.608,-641.737 1111.98,-1250.12 1778.79,-1746.28c402.863,-299.758 1496.46,-1067.99 2021.79,-972.796c107.708,19.529 211.65,70.4 268.504,168.158c51.583,88.68 21.704,185.313 1.808,278.68l-9.117,41.145c51.875,43.734 150.034,-14.529 214.496,-36.266c645.679,-217.9 1277.78,-392.604 1966.15,-387.984c1392.07,9.321 2722.94,674.755 3684.46,1659.44c1676.72,1717.08 2269.17,4142.57 2239.15,6482.79c-29.238,2275.68 -907.709,4534.67 -2551.37,6126.88c-1685.26,1632.53 -3954.86,2434.39 -6288.12,2404.08c508.037,1652.35 824.304,3263.45 814.096,4998.71c399.879,103.888 785.383,217.375 1157.55,399.896c710.571,348.296 1251.09,907.396 1505.21,1664.41c261.646,779.375 231.771,1873.78 -136.062,2614.45c374.27,790.292 654.791,1650.4 573.858,2536.46c-140.125,1533.35 -1021.2,2648.73 -2157.99,3604.46c646.908,131.583 1330,233.354 1945.09,481.546c423.175,170.729 817.708,451.546 991.387,889.254c110.467,278.35 108.23,587.171 98.68,882.012c-37.484,1158.21 -685.988,5350 -1122.19,6317.33c-190.675,422.966 -502.671,552.95 -912.604,707.62c-125.225,1366.46 -400.608,2696.68 -669.633,4040.51c-116.913,584.062 -321.771,1217.67 -347.292,1809.53c524.442,399.375 962.879,892.587 1422.74,1361.77c578.629,590.487 1200.8,1154.73 1898.65,1602.57c1232.35,790.938 2744.65,1169.27 4194.96,849.463c59.217,-13.213 118.104,-27.9 176.646,-44.046c58.508,-16.162 116.562,-33.733 174.204,-52.742c57.671,-18.995 114.808,-39.391 171.442,-61.2c56.645,-21.837 112.725,-45.066 168.175,-69.65c55.504,-24.604 110.366,-50.541 164.566,-77.85c54.2,-27.291 107.708,-55.937 160.521,-85.937c52.762,-29.946 104.775,-61.163 156.042,-93.663c51.25,-32.516 101.666,-66.266 151.25,-101.283c49.583,-35 98.262,-71.217 146.058,-108.646c47.829,-37.433 94.687,-75.975 140.537,-115.679c45.921,-39.721 90.817,-80.571 134.705,-122.533c43.837,-41.963 86.633,-84.95 128.404,-128.975c41.754,-44.079 82.379,-89.15 121.875,-135.209c39.55,-46.041 77.916,-93.075 115.104,-141.058c37.221,-47.971 73.229,-96.825 107.987,-146.546c34.775,-49.725 68.317,-100.296 100.625,-151.704c1446.11,-2325.45 -306.266,-4579.08 -1366.46,-6612.71c-368.783,-707.554 -675.85,-1454.65 -849.392,-2235.61c-12.641,-56.337 -24.55,-112.829 -35.729,-169.495c-11.25,-56.617 -21.808,-113.355 -31.683,-170.209c-9.846,-56.912 -18.996,-113.908 -27.433,-171.008c-8.488,-57.154 -16.25,-114.358 -23.28,-171.65c-7.1,-57.292 -13.454,-114.671 -19.1,-172.1c-5.641,-57.483 -10.604,-115.017 -14.912,-172.604c-4.233,-57.517 -7.775,-115.121 -10.625,-172.813c-2.846,-57.675 -5,-115.383 -6.442,-173.108c-1.437,-57.725 -2.187,-115.45 -2.237,-173.175c-0.054,-57.729 0.625,-115.454 2.029,-173.179c1.337,-57.675 3.421,-115.346 6.217,-173.021c2.795,-57.675 6.266,-115.313 10.416,-172.9c4.2,-57.567 9.079,-115.104 14.688,-172.588c5.591,-57.445 11.875,-114.808 18.871,-172.099c6.995,-57.325 14.687,-114.546 23.075,-171.65c8.4,-57.15 17.483,-114.184 27.275,-171.075c9.737,-56.859 20.208,-113.63 31.404,-170.296c11.129,-56.667 22.971,-113.159 35.504,-169.479c12.587,-56.371 25.833,-112.588 39.721,-168.63c13.941,-56.02 28.525,-111.875 43.766,-167.533c15.28,-55.642 31.25,-111.129 47.884,-166.442c16.633,-55.275 33.925,-110.345 51.875,-165.225c17.987,-54.879 36.65,-109.512 55.991,-163.925c19.288,-54.391 39.25,-108.541 59.892,-162.462c20.629,-53.908 41.929,-107.588 63.875,-161.025c21.892,-53.388 44.463,-106.513 67.708,-159.358c23.246,-52.846 47.117,-105.417 71.613,-157.692c24.55,-52.275 49.725,-104.254 75.521,-155.9c25.746,-51.65 52.154,-102.971 79.2,-153.996c27.066,-50.971 54.725,-101.65 82.971,-151.996c28.262,-50.346 57.154,-100.329 86.666,-149.946c29.463,-49.62 59.567,-98.891 90.279,-147.795c985.242,-1541.67 2405.24,-2611.25 4209.42,-2995.73c1689.74,-360.087 3371.96,-29.358 4816.12,911.092c1459.93,950.746 2482.13,2555.78 2828.77,4252.75c233.158,1141.27 142.725,2846.28 -551.059,3838.47c-104.237,149.012 -251.529,303.387 -444.879,316.25c-217.812,14.392 -445.033,-189.304 -531.546,-375.867c-143.662,-309.6 -119.133,-792.604 -156.979,-1135.42c-149.15,-1349.83 -682.796,-2704.93 -1659.57,-3671.29c-798.68,-790.154 -1814.67,-1197.78 -2935.92,-1180.85c-53.958,0.329 -107.883,2.033 -161.738,5.071c-53.87,3.037 -107.62,7.446 -161.25,13.229c-53.629,5.779 -107.083,12.933 -160.366,21.404c-53.296,8.459 -106.317,18.267 -159.079,29.446c-52.796,11.146 -105.275,23.613 -157.396,37.396c-52.188,13.854 -103.959,28.975 -155.313,45.367c-51.404,16.437 -102.358,34.166 -152.846,53.158c-50.504,19.008 -100.487,39.271 -149.966,60.762c-49.479,21.513 -98.384,44.271 -146.7,68.3c-48.317,24.009 -95.992,49.217 -143.004,75.592c-47.084,26.421 -93.421,54.008 -139.046,82.758c-45.659,28.734 -90.554,58.63 -134.688,89.688c-44.183,31.008 -87.5,63.108 -130,96.283c-42.533,33.229 -84.166,67.5 -124.912,102.796c-40.8,35.35 -80.696,71.683 -119.654,109.012c-38.975,37.325 -76.942,75.625 -113.938,114.88c-443.854,462.012 -761.562,1056.19 -920.575,1675.48c-611.321,2380.07 1147,4297.79 2069.17,6318.29c469.616,1029.01 787.691,2133.54 798.75,3270.69c18.091,1862.21 -634.688,3555.7 -1952.83,4880.29c-1462.1,1469.25 -3434.03,2180.85 -5494.21,2179.05c-2636.15,-2.396 -5055.42,-1238.87 -6879.92,-3078.05c45.279,1737.85 154.15,3474.46 202.762,5212.46c13.663,490.608 77.55,983.662 66.338,1474.05c-3.7,162.325 -0.73,355.537 -89.775,496.091c-188.371,297.588 -593.455,415.071 -920.642,473.163c-538.996,95.625 -1443.37,135.625 -1900.68,-210c-251.963,-190.329 -298.975,-450.088 -341.234,-741.979l-150.087,-4604.29c-20.763,-829.858 29.083,-1709.13 -75.45,-2530.24c-630.138,167.692 -1268.23,294.063 -1907.92,418.992l-40.225,5061.12c-11.929,770.471 53.109,1580.21 -37.9,2344.62c-30.241,254.337 -96.216,644.375 -276.771,830.729c-276.841,285.658 -687.57,367.029 -1070.24,380.642c-617.329,21.979 -1554.69,63.8 -2031.32,-403.804c-428.229,-420.067 -347.654,-1250.51 -352.638,-1798.75c-441.266,-97.15 -1101.13,-81.025 -1443.08,-409.217c-140.762,-135.121 -178.75,-390.921 -199.791,-575.158c-80.45,-701.684 -16.925,-1472.29 10.262,-2178.02l85.571,-2943.37c-429.167,-63.437 -889.321,-45.346 -1323.92,-54.825c-57.729,572.55 -180.333,1143.59 -227.208,1713.9c-25.604,312.138 25.246,635.417 24.375,949.221c-1.021,365.154 -44.771,734.304 -77.846,1097.86c-106.771,126.162 -218.821,241.979 -337.517,356.995c48.613,516.425 118.055,1429.53 85.28,1924.62c-48.821,736.109 -502.971,1351.06 -1047.02,1819.01c-1366.98,1175.78 -3331.46,1408.78 -5059.71,1283.49l-78.63,106.196c-201.316,274.95 -431.995,485.383 -758.816,599.6c-664.5,232.363 -2039.64,245.158 -2669.27,-78.125c-925.575,-475.258 -414.567,-1615.3 -662.988,-2405.59c-255.208,-63.23 -1174.98,290.866 -1496.16,378.541c-1752.02,478.296 -4838.46,1040.59 -6466.5,72.271c-358.575,-213.333 -612.483,-551.875 -707.671,-958.921c-116.458,-498.108 -49.55,-1021.55 231.333,-1455.8c753.771,-1165.43 1781.11,-1634.69 3098.6,-1909.36c-413.262,-926.508 -306.858,-1580.52 -421.008,-2539.5c-63.229,-531.112 -206.3,-1055.35 -282.254,-1586.23c-222.292,-1554.96 -81.6,-2677.45 192.116,-4189.88c-3169.48,-41.021 -6338.25,-363.575 -9503.54,-512.813c6.025,2616.91 -6.321,5233.71 -37.034,7850.42c-3.541,1128.39 -44.27,2248.4 -73.712,3375.65c-10.625,407.116 40.504,827.396 -9.413,1231.48c-31.162,251.962 -123.104,499.129 -301.854,684.183c-408.646,423.108 -1122.15,519.463 -1684.53,524.583c-534.721,4.863 -1730.1,-1.008 -2112.93,-410.225c-116.409,-124.412 -168.959,-302.291 -193.367,-467.154c-28.683,-193.941 -16.946,-396.058 -30.542,-591.65c-83.591,-1203.99 -43.021,-2420.14 -39.166,-3628.63l68.041,-8852.71c-403.837,-19.529 -918.771,-82.688 -1242.87,-341.146c-236.18,-188.367 -307.292,-506.146 -336.546,-792.533c-58.038,-568.142 -88.125,-1466.58 306.337,-1927.74c129.742,-151.683 282.379,-218.596 467.813,-280.087c713.108,-236.617 2458.82,-420.28 3258.37,-486.842c-211.77,-621.092 -338.437,-1293.47 -499.008,-1930.62c-341.267,-1323.11 -671.946,-2648.84 -992.012,-3977.2l-799.15,-3194.88c-144.238,-582.029 -321.892,-1177.67 -404.655,-1772c-40.608,-291.596 -18.3,-541.459 100.384,-814.305c112.412,-258.541 257.775,-422.033 524.929,-524.029c219.704,-83.837 437.658,-96.058 669.583,-95.329c963.909,2.883 1940.07,68.942 2903.8,108.279l4486.17,157.188c1547.17,49.341 3095.85,117.554 4643.08,153.075l2420.64,67.275c483.142,12.15 970.275,2.308 1452.62,31.179c199.946,12.012 414.792,43.333 596.129,132.517c213.108,104.895 340.067,333.125 428.108,544.133c161.388,386.858 227.638,820.312 317.271,1228.94c191.184,871.962 349.396,1777.28 610.609,2630.21c493.491,-486.321 840.279,-1230.38 1211.51,-1815.25c448.213,-706.092 941.613,-1405.88 1468.09,-2055.85c-516.563,-251.65 -1076.53,-424.825 -1599.31,-672.95c-1621.75,-769.671 -3229.89,-1853.37 -4365.54,-3259.69c-386.788,-478.888 -703.767,-1000 -1024.58,-1523.66c-845.279,6.075 -1669.06,42.325 -2509.05,143.733c-497.621,60.121 -995.45,164.355 -1494.06,207.534c-144.254,12.516 -319.167,26.7 -457.187,-22.05c-66.475,-23.525 -75.017,-26.771 -105.905,-91.667c19.325,-59.025 38.421,-87.671 83.405,-132.725c601.425,-602.796 3365.82,-845.346 4239.58,-832.187c-212.083,-548.975 -361.025,-1101.27 -495.225,-1672.67c-559.6,-210.5 -1139.24,-381.855 -1716.79,-535.434c-551.945,-146.7 -2651.18,-538.125 -3000.22,-828.854c5.5,-84.271 -0.504,-121.3 76.613,-174.775c204.358,-141.629 632.587,-74.929 870.867,-52.15c1293.56,123.696 2501.39,459.633 3735.9,849.392c-319.671,-2188 16.633,-5002.88 795.783,-7063.67c-1018.73,-314.462 -1818.28,-759.775 -2628.32,-1459.43c-1666.16,-1438.8 -2563,-3608.44 -2708.56,-5772.71c-172.379,-2563.37 493.208,-5358.5 2220.21,-7318.12c933.73,-1059.48 2107.41,-1683.33 3519.96,-1773.82l-0,0.041Zm5629.33,41564.6c308.229,-504.846 338.454,-1222.45 196.321,-1789.36c-144.029,-574.15 -505.208,-1040.57 -1018.09,-1335c-139.391,-80 -292.033,-143.141 -438.804,-208.47c126.809,495.225 729.238,3367.85 932.659,3646.93c162.325,-43.405 238.07,-180.642 327.916,-314.096Z" style="fill:#313945;fill-rule:nonzero;"/><path d="M40116.5,43410.8c-87.671,-43.558 -116.388,-42.1 -156.542,-129.775c107.063,-130.208 377.167,-220.57 535.521,-275.9c802.013,-280.245 1906.25,-1438 2408.58,-2116.82c128.317,1063.21 187.413,3329.06 -467.171,4178.04c-310.033,401.979 -1188.8,540.225 -1675.71,569.012c-15.833,0.938 -31.754,-0.937 -47.588,-1.375c-166.162,29.15 -334.425,48.388 -501.595,70.817c168.837,-287.983 259.254,-592.012 285.158,-923.679c38.192,-489.808 -53.525,-989.221 -380.646,-1370.3l0,-0.021Z" style="fill:#7a7bbe;fill-rule:nonzero;"/><path d="M42760,1531.84c-164.133,289.496 -796.65,1279.18 -722.363,1565.76c14.55,-13.591 84.567,-80.346 99.688,-89.654c286.667,-176.942 536.825,-432.429 809.029,-638.125c784.063,-592.621 1781.25,-979.546 2770.9,-988.383c1171.73,-9.825 2199.51,487.341 3020.1,1303.23c1469.41,1460.94 2083.12,3583.33 2091.76,5613.79c8.729,2143.66 -653.667,4235.96 -2193.25,5766.79c-1653.06,1643.6 -3740.36,2295.5 -6031.46,2281.11l-343.816,-836.596l-112.709,-289.133c-120.608,-225.121 -239.966,-450.888 -358.075,-677.292c554.913,-929.183 1116.18,-1936.63 1350.92,-3002.33c53.821,-244.359 85.209,-552.796 -69.375,-769.375c-110.104,-154.238 -289.062,-210.367 -469.55,-228.3c-611.179,-60.696 -1153.07,390.329 -1589.7,754.983c233.871,-1329.93 631.579,-2680.92 1189.3,-3912.19c547.104,-1207.61 1802.31,-3118.27 3107.36,-3608.86c867.187,-498.87 1689.38,-527.033 2643.94,-339.15c-644.879,-448.75 -1390.69,-628.35 -2167.53,-492.17c-1432.07,251.075 -2585.14,1388.61 -3376.08,2541.16c-1188.73,1732.28 -1760.55,3770.33 -2101.49,5818c-75.45,453.125 -210.366,1099.9 -130.071,1554.46c12.155,68.575 30.038,111.475 78.925,162.987c92.242,-4.133 135.642,-46.079 197.709,-111.546c614.216,-647.933 1120.8,-1420 2019.6,-1711.16c-188.942,1189.96 -695.609,2395.69 -1317.85,3428.18c211.946,700.158 522.046,1371.3 743.992,2071.46c864.287,2727.08 1559.46,6301.67 141.562,8946.42c-1598.59,2982.07 -5212.96,4612.04 -8308.08,5532.83c-705.05,207.171 -1417.36,385.367 -2136.93,534.567c-720.346,-0.713 -1432.59,261.875 -2147.29,298.333c-1226.77,191.25 -3172.88,-73.35 -4386.79,-360.329c-3120.59,-737.85 -6133.75,-2447.48 -7849.54,-5224.75c256.721,37.604 519.375,92.083 773.871,15.263l-1.892,-47.1c-232.708,-191.409 -643.438,-273.075 -932.204,-358.646c-301.146,-520.767 -449.879,-1103.16 -618.279,-1675.92c472.516,166.7 940.12,346.129 1402.85,538.262c-222.22,-218.508 -456.841,-422.779 -703.837,-612.779c-278.3,-210.137 -596.075,-402.775 -834.721,-657.846c-19.479,-219.029 -35.104,-438.366 -46.875,-657.987c-11.754,-219.563 -19.671,-439.304 -23.717,-659.217c-4.062,-219.846 -4.254,-439.741 -0.591,-659.637c3.716,-219.859 11.271,-439.6 22.658,-659.217c11.425,-219.617 26.7,-438.975 45.85,-658.054c19.096,-219.1 42.05,-437.779 68.871,-656.042c26.858,-218.266 57.5,-436.008 91.946,-653.212c34.479,-217.204 72.758,-433.734 114.862,-649.6c42.1,-215.854 87.967,-430.888 137.584,-645.104c49.67,-214.221 103.091,-427.521 160.245,-639.896c57.134,-212.346 118.005,-423.646 182.567,-633.909c64.583,-210.208 132.813,-419.216 204.725,-627.012c71.942,-207.813 147.517,-414.308 226.7,-619.517c79.183,-205.137 161.963,-408.854 248.333,-611.108c86.338,-202.258 176.2,-402.917 269.617,-601.996c93.404,-199.062 190.296,-396.458 290.646,-592.154c885.917,-1763.32 2308.66,-3510.85 4027.64,-4521.92c671.875,-395.104 1363.42,-657.187 2099.03,-900.675c506.212,230.4 1012.58,406.613 1541.46,577.05c-475.35,-467.312 -866.546,-861.979 -1106.7,-1493.21c1148.44,27.862 2238.12,360.104 3324.36,707.325c-152.917,-293.767 -375.867,-545.279 -577.396,-806.563c-350.416,-454.216 -589.2,-880.137 -787.621,-1418.47c1071.47,207.1 2357.2,813.646 3172.1,1546.01c174.48,156.825 304.167,374.566 467.363,546.216l53.608,-2.741c46.875,-98.092 57.225,-146.425 44.638,-256.146c-7.45,-65.471 -12.884,-112.346 -9.984,-179.342c293.542,-13.229 620.8,62.154 911.388,106.7c1835.58,281.688 3719.1,931.425 5287.04,1931.86c-39.359,290.8 -126.738,676.442 -17.659,960.142c33.717,87.604 78.059,137.15 163.629,176.804c115.384,10.921 183.388,-17.221 286.684,-60.487c111.616,-143.438 582.9,-2024.22 720.054,-2418.68c824.062,-2369.79 2549.76,-5243.08 4868.33,-6366.17l-0.004,-0.004Z" style="fill:#f2f2f4;fill-rule:nonzero;"/><path d="M45308.8,3777.28c867.188,-498.871 1689.38,-527.033 2643.94,-339.15c950.521,536.404 1604.25,1724.41 1890.78,2740.19c114.946,407.466 234.879,902.116 209.567,1325.23c47.583,525.816 66.908,1064.67 -6.513,1589.12c-5.208,423.33 -114.237,833.329 -234.237,1236.11c-369.288,1239.22 -922.1,2242.55 -1849.25,3151.84c-1173.89,1151.27 -2769.81,1791.53 -4387.79,1958.4c-429.846,44.342 -894.254,-7.445 -1314.67,70.75l-112.708,-289.133c-120.608,-225.121 -239.967,-450.887 -358.075,-677.292c554.916,-929.183 1116.18,-1936.63 1350.92,-3002.33c53.82,-244.358 85.208,-552.795 -69.375,-769.375c-110.105,-154.237 -289.063,-210.366 -469.546,-228.3c-611.183,-60.695 -1153.08,390.33 -1589.71,754.984c233.875,-1329.93 631.584,-2680.92 1189.31,-3912.19c547.1,-1207.6 1802.31,-3118.27 3107.36,-3608.85l-0.004,0Z" style="fill:#fac3b7;fill-rule:nonzero;"/><path d="M32105,18201.6c468.091,-53.245 900.454,10.555 1310.4,256.946c624.566,375.292 1003.84,1036.82 1168.91,1731.77c197.188,830.296 96.787,1746.03 -359.95,2476.85c-355.192,568.284 -880.296,908.788 -1527.13,1054.53c-455.505,79.079 -946.25,-4.688 -1356.84,-217.155c-572.708,-296.437 -981.996,-855.241 -1165.87,-1465.71c-245.158,-813.733 -142.225,-1806.35 264.6,-2551.15c382.9,-701.025 913.992,-1062.43 1665.88,-1286.1Z" style="fill:#313945;fill-rule:nonzero;"/><path d="M31917.2,19027.4c114.445,19.308 227.571,39.791 330.433,96.65c21.425,11.995 42.171,25 62.292,38.975c20.104,14.046 39.516,29.012 58.229,44.933c18.662,15.867 36.512,32.621 53.525,50.275c17.033,17.642 33.158,36.096 48.404,55.329c15.225,19.204 29.512,39.1 42.812,59.688c13.317,20.645 25.588,41.858 36.821,63.645c11.2,21.809 21.321,44.117 30.384,66.93c9.062,22.758 16.996,45.92 23.8,69.512c8.925,32.604 16.129,65.592 21.633,98.958c5.504,33.371 9.254,66.93 11.283,100.696c2.034,33.75 2.292,67.534 0.8,101.338c-1.458,33.767 -4.654,67.379 -9.616,100.85c-4.984,33.421 -11.65,66.529 -20.054,99.304c-8.384,32.763 -18.438,65 -30.155,96.721c-11.77,31.683 -25.121,62.691 -40.07,93.037c-14.967,30.329 -31.426,59.809 -49.409,88.454c-141.787,226.996 -303.108,310.192 -555.487,375.434c-95.121,-6.579 -188.509,-13.663 -278.575,-47.654c-176.217,-66.496 -329.792,-223.388 -395.538,-399.309c-86.737,-231.771 -66.271,-502.966 37.463,-725.691c135.783,-291.392 329.062,-418.267 621.025,-528.075Z" style="fill:#fff;fill-rule:nonzero;"/><path d="M24006.6,24825.2c560.538,-51.146 1208.61,-22.934 1723.89,226.491c279.65,135.346 526.475,353.596 621.804,657.484c95.346,303.75 12.154,642.133 -133.821,915.504c-323.783,606.333 -863.07,830.087 -1481.04,1020.9c6.512,323.941 32.762,651.704 147.571,957.258c10.12,27.238 20.904,54.217 32.325,80.938c11.479,26.72 23.579,53.125 36.32,79.22c12.78,26.092 26.18,51.855 40.209,77.325c14.046,25.467 28.7,50.555 43.991,75.296c15.28,24.704 31.146,49.025 47.588,73.004c16.496,23.905 33.579,47.43 51.217,70.521c17.654,23.104 35.866,45.746 54.616,67.934c18.767,22.166 38.054,43.904 57.884,65.17c19.862,21.217 40.208,41.946 61.041,62.209c20.883,20.204 42.259,39.912 64.096,59.096c21.788,19.2 44.079,37.829 66.842,55.921c22.758,18.037 45.954,35.52 69.583,52.445c23.629,16.98 47.654,33.317 72.05,49.046c24.458,15.729 49.271,30.834 74.442,45.346c25.175,14.533 50.679,28.421 76.529,41.667c25.904,13.266 52.083,25.887 78.558,37.85c786.892,356.041 1812.5,268.437 2598.6,-40.888c778.8,-306.421 1730.54,-954.775 2071.84,-1745.8c-149.6,-96.791 -397.5,-219.829 -423.905,-413.837c-12.658,-93.542 29.738,-165.088 92.013,-230.4c93.975,-98.679 258.246,-149.671 391.425,-141.492c355.537,21.7 712.879,287.1 938.8,546.508c144.742,166.163 284.358,359.305 266.858,588.317c-35.883,59.55 -41.458,84.567 -103.958,120.954c-178.888,104.167 -442.708,1.963 -630.571,-41.804c-367.329,597.863 -718.021,966.421 -1267.36,1393.16c-68.092,49.913 -137.467,97.988 -208.109,144.238c-70.658,46.196 -142.483,90.483 -215.504,132.879c-73.004,42.396 -147.1,82.813 -222.292,121.233c-75.17,38.405 -151.316,74.759 -228.437,109.1c-77.117,34.375 -155.088,66.646 -233.942,96.788c-78.904,30.192 -158.521,58.229 -238.854,84.129c-80.346,25.938 -161.317,49.688 -242.917,71.25c-81.645,21.6 -163.8,40.992 -246.458,58.163c-1010.78,220.762 -1908.49,120 -2785.45,-438.525c-210.712,43.837 -432.292,71.545 -647.275,80.016c-781.612,31.025 -1505.57,-212.533 -2078.42,-755.712c-296.354,-281.042 -658.766,-729.025 -650.083,-1156.4c1.875,-94.621 15.396,-133.092 80.5,-199.792c337.537,20.104 742.121,707.671 987.554,941.546c519.529,495.154 1136.88,599.754 1827.26,586.875c-355.75,-627.884 -452.833,-1137.29 -460.07,-1856.84c-432.796,-33.992 -826.025,-110.608 -1185.76,-376.946c-309.1,-228.887 -537.675,-568.575 -585.712,-954.425c-4.83,-39.654 -7.642,-79.412 -8.475,-119.287c-0.867,-39.934 0.295,-79.792 3.475,-119.584c3.191,-39.775 8.35,-79.308 15.483,-118.562c7.137,-39.304 16.233,-78.125 27.275,-116.458c11.042,-38.384 23.958,-76.092 38.767,-113.142c14.862,-37.083 31.512,-73.317 49.983,-108.713c18.421,-35.4 38.612,-69.758 60.558,-103.091c21.892,-33.367 45.434,-65.554 70.604,-96.563c336.08,-422.171 831.167,-533.491 1336.88,-597.516Z" style="fill:#313945;fill-rule:nonzero;"/><path d="M24116.8,25295.7c397.275,-43.263 905.017,-5 1271.06,164.133c170.279,78.629 331.233,205.729 393.733,388.525c53.592,156.837 24.375,327.187 -50.783,471.579c-197.709,379.704 -620.45,593.092 -1008.75,725.833c-458.855,35.017 -902.863,14.984 -1295.87,-257.083c-205.521,-142.292 -377.033,-348.387 -418.838,-600.762c-28.508,-171.809 7.951,-348.317 114.221,-487.709c230.538,-302.521 643.959,-358.508 995.225,-404.516Z" style="fill:#fac3b7;fill-rule:nonzero;"/><path d="M20984.5,18055.4c359.375,-13.371 671.437,12.517 989.146,203.646c507.883,305.554 789.358,934.304 922.97,1490.59c214.775,893.525 97.155,1887.8 -393.662,2673.11c-336.008,537.533 -782.917,902.987 -1407.28,1043.77c-386.129,29.725 -732.05,-36.108 -1056.42,-261.508c-527.413,-366.683 -786.371,-971.287 -904.721,-1581.53c-172.675,-890.554 -47.1,-1897.93 474.167,-2657.19c343.679,-500.504 775.904,-796.075 1375.8,-910.883Z" style="fill:#313945;fill-rule:nonzero;"/><path d="M21118.8,18880c86.304,-3.109 162.325,6.946 244.654,32.05c165,50.279 306.996,161.091 386.717,315.104c124.429,240.158 110.175,561.633 21.475,810.696c-106.179,298.383 -276.388,466.354 -560.329,596.212c-111.821,-8.541 -233.142,-10.708 -336.804,-57.291c-196.963,-88.471 -342.363,-275.171 -406.388,-478.159c-82.762,-262.379 -51.512,-568.871 86.004,-807.516c131.738,-228.805 315.104,-344.03 564.671,-411.096Z" style="fill:#fff;fill-rule:nonzero;"/><path d="M35031.1,25579.9c94.046,-138.75 196.48,-251.667 331.667,-352c1214.27,-901.404 3856.13,-1427.81 5338.04,-1191.4c-8.68,23.071 -17.567,46.008 -25.971,69.221c-43.038,118.558 -72.55,131.371 -169.409,209.129c-875.641,194.221 -1769.1,292.9 -2644.97,505.142c-946.546,229.304 -1875.57,571.612 -2829.36,759.912l-0.004,0Zm-2890.83,-12086.5c503.179,-36.53 986.321,60.554 1440.82,279.304c600.554,288.991 1097.31,782.846 1305.71,1423.25c42.533,130.641 72.188,259.55 8.317,384.183c-106.909,-1.233 -133.909,-30.088 -222.45,-86.371c-470.121,-509.983 -955.571,-991.892 -1625.35,-1224.32c-394.254,-136.791 -1091.08,-60.541 -1363.21,-293.541c-30.016,-67.571 -62.133,-106.842 -23.158,-180.334c94.913,-178.608 299.2,-249.65 479.321,-302.166Zm3565.18,13013.5c482.933,48.471 957.9,40.883 1439.17,125.433c559.029,98.246 2188.08,458.629 2509.55,916.321l-23.942,70.017l-160.242,28.504c-562.641,-103.158 -3720.26,-669.2 -4004.78,-853.088l-12.587,-61.2c54.55,-107.066 156.404,-160.52 252.829,-225.987Zm-14590.6,-13188.1c80.729,-9.546 162.325,-9.842 243.558,-8.246c196.25,3.766 507.742,74.791 635.138,238.941c58.437,75.296 79.933,141.338 66.687,236.321c-9.479,67.775 -57.5,183.888 -122.971,213.175c-197.05,88.038 -571.908,-26.475 -797.012,-12.654c-409.375,24.963 -876.6,358.8 -1189.46,605.604c-126.233,108.371 -356.7,360.975 -521.337,371.459c-74.358,-47.309 -89.342,-56.492 -110.675,-148.438c-37.833,-163.192 50.483,-353.367 140.483,-483.712c366.025,-530.105 1031.96,-897.292 1655.59,-1012.45Z" style="fill:#313945;fill-rule:nonzero;"/><path d="M40700.7,24036.5c218.905,29.359 431.355,66.684 646.7,115.659c-277.62,71.912 -556.195,134.046 -842.083,162.691c96.858,-77.758 126.371,-90.57 169.408,-209.129c8.405,-23.212 17.292,-46.146 25.975,-69.221Z" style="fill:#030404;fill-rule:nonzero;"/><path d="M4841.54,42943.3c-138.821,-386.287 -212.588,-812.345 -310.817,-1211.74c-178.575,-731.613 -361.387,-1462.19 -548.438,-2191.68l-1091.91,-4354.17c-230.087,-914.496 -486.112,-1830.23 -684.291,-2751.89c-35.363,-164.412 -61.734,-337.746 -51.596,-506.217c8.196,-136.145 64.725,-221.216 176.946,-297.675c116.787,-79.633 260.433,-78.833 396.925,-76.958c814.133,11.646 1630.73,83.767 2444.88,113.713l6522.08,218.245l4406.25,143.438c621.092,20.767 1270.54,-26.542 1884.91,57.521c185.471,25.312 244.2,115.521 351.409,255.916l55.346,-107.775c390.12,910.521 614.583,2393.23 837.604,3393.3l1218.75,5364.75l-35.884,33.263l-101.929,-389.963l-45.575,17.134l5.142,-60.467c-141.633,300.917 217.95,724.529 105.762,1042.4c64.671,542.966 261.93,1072.55 350.767,1612.62c28.854,175.641 39.425,350.833 -66.771,501.875c-154.95,83.696 -369.429,74.65 -542.241,82.187c-908.646,39.425 -1853.45,-46.808 -2763.89,-81.754l-5565.83,-231.337l-4260.67,-189.08c-620,-24.375 -1615.02,-1.737 -2197.25,-91.512c-199.654,-30.813 -346.146,-162.896 -489.687,-294.129l0.004,-0.009Z" style="fill:#c2c0bf;fill-rule:nonzero;"/><path d="M18393.2,32234c390.121,910.52 614.583,2393.23 837.604,3393.3l1218.75,5364.75l-35.883,33.263l-101.929,-389.967l-45.571,17.138l5.137,-60.467c-141.633,300.917 217.95,724.529 105.763,1042.4c-454.825,-2022.33 -897.796,-4047.24 -1328.92,-6074.75c-126.146,-590.608 -588.958,-2739.05 -710.296,-3217.88l55.346,-107.775Z" style="fill:#030404;fill-rule:nonzero;"/><path d="M12086.3,35410.1c-141.64,-17.632 -277.558,-28.996 -410.273,34.893c-127.411,61.324 -216.339,157.668 -302.748,266.424c-356.745,449.117 -637.766,967.445 -964.046,1439.55c-321.677,465.296 -661.506,920.388 -987.33,1383.44c-212.748,302.314 -545.687,1114.43 -679.973,1461.77c187.518,93.174 187.518,93.174 399.111,112.668c554.417,89.505 1111.37,65.445 1670.99,78.052c321.773,7.232 641.406,46.568 963.016,19.513c436.244,39.321 1153.9,93.522 1574.34,30.984c291.064,-43.264 443.703,-158.424 613.439,-389.211c11.233,-91.094 27.768,-189.628 18.436,-281.464c-25.442,-250.734 -196.423,-1101.45 -333.144,-1287.78c-144.732,-48.539 -607.358,200.922 -771.356,258.773c-171.082,-131.667 -228.198,-216.314 -296.474,-421.318c43.169,-82.316 88.879,-185.56 156.951,-249.977c97.928,-92.616 408.106,-238.861 455.421,-344.793c51.324,-114.926 -8.837,-295.189 -49.796,-405.221c-135.086,-363.301 -590.525,-1250.38 -830.488,-1540.25c-64.196,-77.537 -135.818,-123.957 -226.077,-166.058Z" style="fill:#8b8b8a;fill-rule:nonzero;"/><path d="M11231.3,38422.4c-126.602,18.905 -264.509,34.528 -384.443,78.97c-200.982,74.355 -378.279,242.97 -456.178,442.821c-52.006,133.38 -56.464,266.418 6.84,396.646c46.277,95.139 228.684,244.964 327.035,276.622l161.233,-4.473c89.97,-1.542 173.559,-0.204 260.415,-28.27c174.033,-56.178 362.871,-166.254 441.142,-339.191c98.645,-218.122 33.162,-382.555 -47.761,-589.395c-99.843,-81.147 -205.444,-156.367 -308.283,-233.73Zm-112.535,-2148.77c-106.16,15.858 -221.792,28.956 -322.346,66.206c-168.539,62.36 -317.174,203.734 -382.501,371.309c-43.601,111.828 -47.358,223.385 5.739,332.571c38.792,79.785 191.757,205.393 274.194,231.942l135.201,-3.732c75.433,-1.311 145.519,-0.18 218.359,-23.713c145.914,-47.111 304.252,-139.406 369.882,-284.418c82.704,-182.885 27.79,-320.753 -40.062,-494.204c-83.712,-68.026 -172.25,-131.082 -258.461,-195.961l-0.005,-0Z" style="fill:#c2c0bf;fill-rule:nonzero;"/><path d="M43699.2,22935.4c379.337,119.2 768.958,263.454 1083.56,512.796c482.342,359.529 815.537,780.675 905.521,1398.59c125.296,860.246 -258.388,1423.46 -215.346,2080.87c22.063,335.938 357.342,1041.73 451.75,1457.46c143.371,1238.85 -70.313,2218.09 -858.575,3205.87c-399.529,500.659 -871.963,961.005 -1431.79,1277.85c-334.929,-880.642 -811.562,-1822.4 -1712.9,-2231.68c-1155.3,-524.671 -2596.56,-11.008 -3712.24,416.075c-1736.69,664.792 -3392.8,1562.57 -5022.42,2451.55c-1231.06,671.512 -2476.35,1336.88 -3670.73,2071.53c1246.75,-310.975 2382.03,-940.384 3524.97,-1510.19c1278.08,-637.154 2552.01,-1279.51 3853.87,-1867.33c671.37,-303.108 1382.31,-638.387 2098.24,-819.879c657.259,-318.438 1600.4,-511.217 2310.61,-264.325c694.808,241.529 1172.47,866.233 1470.12,1512.36c908.854,1972.73 755.575,4761.88 -5.988,6777.29c-505.071,1336.67 -1531.68,2517.8 -2843.47,3108.87c-1725.77,777.55 -3733.88,797.517 -5595.42,764.029c340.433,-334.412 484.6,-627.312 631.229,-1075.09c235.816,-680.85 251.008,-1449.52 6.441,-2127.97c-382.17,-1060.17 -1204.22,-1698.99 -2192.43,-2157.69c174.913,-89.912 350.259,-177.012 535.746,-243.421c1379.62,-493.92 3513.73,-371.958 4888.96,28.442c489.43,142.5 940.971,362.117 1400.02,579.633c-4.046,-19.966 -4.046,-41.233 -12.15,-59.896c-325.591,-749.27 -1703.77,-1119.65 -2423.89,-1290.8c-229.392,-54.458 -560.921,-79.129 -760.417,-194.583l4.271,-71.542c70.383,-332.033 238.35,-687.795 364.358,-1005.28c648.004,-1632.53 1264.55,-2407.92 2623.33,-3509.34c-166.129,71.475 -330.658,146.495 -493.558,225.054c-1870.73,919.633 -2628.47,2534.22 -3258.54,4411.46c-1310.68,119.288 -2220.83,43.175 -3342.95,879.408c-282.625,-26.266 -595.991,-80.729 -875.07,-8.383c-267.221,69.288 -410.296,232.983 -541.305,464.546c-1093.89,-435.988 -2242.76,-590.275 -3411.96,-413.992c-1609.17,242.692 -2735.18,1078.49 -3685.49,2366.82c193.662,-652.271 230.554,-1398.14 322.204,-2073.92c147.204,-1085.64 449.929,-2465.5 354.879,-3553.53c-184.533,435.834 -402.258,861.546 -564.304,1306.13c-468.092,1284.58 -632.746,2705.16 -698.788,4065.03c-57.5,-212.238 -113.854,-427.95 -194.65,-632.742c-381.079,-965.142 -1133.61,-1274.31 -2025.17,-1668.48c-133.179,-346.075 -119.512,-605.833 -61.129,-962.829c476.929,105.262 996.738,499.133 1486.41,476.858c76.821,-3.471 46.646,5.784 104.738,-53.316c-93.175,-295.275 -783.125,-668.246 -1025.75,-970.259c-9.704,-12.083 -19.096,-24.308 -28.646,-36.391c288.109,-586.667 1895.97,-3017.15 2355.03,-3371.16c296.145,658.925 686.475,1252.97 1208.84,1754.85c436.2,419.046 1305.7,1123.77 1943.51,1108.28c-116.183,-194.583 -495.745,-407.758 -678.683,-561.908c-672.308,-566.267 -1254.77,-1274.81 -1627.6,-2072.41c-133.175,-217.308 -245.292,-454.221 -365.017,-679.687c601.929,42.604 1200.82,194.583 1795.21,299.046c517.933,1015.39 1250,1968.25 2141.06,2683.45c503.267,-298.267 975.625,-672.242 1466.81,-993.646c1195.38,-782.121 2448.56,-1551.72 3718.32,-2205.07c824.217,-424.046 1902.41,-654.375 2786.73,-970.85c1517.8,-543.037 3046.44,-1280.95 4316.33,-2285.45c565.904,-447.554 1070.45,-952.033 1618.78,-1416.38c602.641,-510.346 1646.55,-1221.85 2058.3,-1861.68c-3.404,-238.004 -3.038,-492.846 -170.642,-679.688c-157.85,-175.866 -423.908,-221.146 -647.362,-240.883c164.429,-507.746 223.245,-1020.83 324.22,-1542.47l0.005,-0.016Z" style="fill:#7a7bbe;fill-rule:nonzero;"/><path d="M16611.2,15428c-453.488,-68.645 -865.45,-217.308 -1262.65,-447.479c-1600.19,-927.312 -2742.92,-2603.16 -3205.59,-4376.96c-612.484,-2348.09 -242.396,-5024.38 991.754,-7112.79c673.75,-1140.12 1616.75,-2122.05 2938.73,-2448.56c990.521,-244.671 2001.94,12.533 2857.5,538.712c2214.84,1362.23 3149.88,3841.36 3733.65,6241.38c-1130.71,678.817 -2289.86,1490.95 -3129.27,2519.76c-6.512,-2118.28 -195.816,-4586.54 -1472.29,-6369.5c-475.767,-664.446 -1184.25,-1269.7 -2016.93,-1393.02c-517.583,-76.65 -1144.46,38.421 -1566.7,356.025c881.441,-42.725 1620.09,96.354 2294.27,700.121c1526.98,1367.69 1938.09,3753.77 2033.72,5714.5c30.883,632.029 15.917,1265.49 44.633,1896.63c-814.029,1063.66 -1387.65,2115.08 -1899.89,3345.71l-340.921,835.504l-0,-0.025Z" style="fill:#fac3b7;fill-rule:nonzero;"/><path d="M16611.2,15428c-453.488,-68.645 -865.45,-217.308 -1262.65,-447.479c-1600.19,-927.312 -2742.92,-2603.16 -3205.59,-4376.96c-612.484,-2348.09 -242.396,-5024.38 991.754,-7112.79c673.75,-1140.12 1616.75,-2122.05 2938.73,-2448.56c990.521,-244.671 2001.94,12.533 2857.5,538.712c2214.84,1362.23 3149.88,3841.36 3733.65,6241.38c-1130.71,678.817 -2289.86,1490.95 -3129.27,2519.76c-6.512,-2118.28 -195.816,-4586.54 -1472.29,-6369.5c-475.767,-664.446 -1184.25,-1269.7 -2016.93,-1393.02c-517.583,-76.65 -1144.46,38.421 -1566.7,356.025c-186.338,199.962 -334.913,448.333 -483.142,677.637c-895.971,1385.76 -1398.08,3114.57 -1342.01,4767.58c61.421,1811.13 808.592,3774.08 2151.77,5024.25c628.175,584.633 1332.46,939.233 2146.11,1187.5l-340.92,835.505l-0,-0.03Z" style="fill:#f2f2f4;fill-rule:nonzero;"/><path d="M37598.6,43724.2c12.446,-1.809 24.808,-3.684 37.254,-5.35c479.813,-64.025 1570.89,-167.325 1956.74,149.446c188.004,154.304 207.829,446.337 220.921,672.812c20.329,350.554 -29.584,744.358 -275.105,1013.32c-168.245,184.391 -402.345,218.75 -636.425,268.229c-882.308,186.7 -1803.89,250.658 -2699.29,363.854l-4654.96,590.279c-1432.15,180.763 -2865.33,353.071 -4299.54,516.925c-853.596,96.075 -1710.8,212.033 -2570.75,226.217c-1364.65,22.566 -2746.53,-98.179 -4108.14,-177.45l-6049.21,-333.767c-1855.9,-96.946 -3711.88,-242.621 -5567.83,-323.646c-1734.43,-62.204 -3466.8,-160.175 -5197.17,-293.904c-804.496,-56.217 -1626.27,-88.25 -2426.04,-185.037c-140.92,-17.013 -255.366,-47.829 -381.666,-111.838c-211.65,-252.396 -172.742,-683.229 -147.413,-994.221c15.242,-187.133 44.375,-546.441 196.996,-671.579c475.05,-389.462 2637.38,-406.179 3392.41,-649.375c715,784.358 1130.52,736.821 2138.97,783.558c2312.93,107.346 4639.25,202.555 6948.08,371.026c566.683,41.37 1201.03,-6.305 1753.11,94.183c1882.22,29.079 3756.35,220.625 5641.42,173.108c380.85,-110.175 1541.37,-99.462 2010.12,-129.2c1698.49,-107.708 3397.78,-297.675 5091.08,-469.829c651.042,-66.196 1670.85,-95.713 2261.56,-270.554c317.708,-94.029 595.779,-374.775 865.175,-564.742c449.72,-10.05 899.441,38.058 1349.32,32.779l5150.38,-75.241l-0.008,-0Z" style="fill:#9c6543;fill-rule:nonzero;"/><path d="M39154.9,44064.2c123.038,12.658 269.738,9.183 367.621,90.712c-42.692,77.846 -115.104,88.904 -197.275,112.05c-519.825,146.421 -1135.78,165.45 -1673.75,228.021l-3712.53,412.463c-1622.61,182.083 -3248.91,338.766 -4869.71,535.016c-1516.2,183.596 -3053.16,424.254 -4579.5,475.471c-1202.4,40.362 -2432.15,-63.075 -3634.25,-119.863c-1819.6,-74.216 -3638.65,-160.154 -5457.21,-257.812c-2836.61,-140.675 -5672.25,-298.75 -8506.96,-474.254c-1419.98,-86.004 -2847.48,-151.109 -4264.42,-278.054c-300.921,-26.909 -903.734,-27.275 -1149.88,-179.184c-11.021,-6.804 -20.467,-15.85 -30.709,-23.804l16.475,-47.812c120.504,-49.042 239.721,-49.98 368.159,-47.813c618.229,10.263 1250.4,84.638 1868.45,125.208l4162.93,254.063c696.963,41.008 1400.31,109.812 2098.16,119.708c3551.49,199.271 7104.12,375.834 10657.8,529.667c545.362,56.2 1104.03,60.696 1652.34,83.179c896.2,36.821 1799.64,81.388 2695.83,24.238c1832.67,-116.825 3665.94,-423.317 5493.33,-616.896c1824.57,-188.559 3647.81,-389.025 5469.79,-601.421c1074.65,-115.888 2153.12,-204.638 3225.26,-342.883l-0.008,-0Z" style="fill:#313945;fill-rule:nonzero;"/><path d="M9960.5,44988.3c410.087,-140.262 1157.55,5.363 1603.58,27.775c461.738,23.3 5397.58,288.717 5421.46,272.363c19.759,-13.454 32.78,-34.792 49.2,-52.154c-180.85,-173.4 -1846.58,-159.584 -2202.19,-182.084l397.066,-26.179c1882.22,29.079 3756.36,220.625 5641.42,173.109l8.888,62.066c-232.067,146.629 -1483.28,-33.212 -1857.5,45.571l25.904,30.454c457.325,13.229 1301.79,-30.521 1711.94,126.509c-34.062,42.258 -90.187,40.158 -141.925,52.241c-3553.72,-153.804 -7106.33,-330.35 -10657.8,-529.671l-0.004,0Z" style="fill:#b27145;fill-rule:nonzero;"/><path d="M46299.6,50834.2c1365.31,1204.78 3091.88,2126.3 4963.54,2017.64c1286.75,-74.654 2577.12,-566.979 3446.82,-1544.41c838.546,-942.413 1148.8,-2099.18 1064.17,-3342.38c-218.245,-3204.06 -3430.62,-4963.29 -2838.54,-8994.04c172.742,-1176.44 715,-2284.88 1486.27,-3183.96c30.604,-35.834 61.666,-71.284 93.158,-106.334c31.442,-35.054 63.35,-69.708 95.712,-103.958c32.359,-34.287 65.121,-68.142 98.296,-101.563c33.179,-33.454 66.792,-66.495 100.854,-99.099c33.992,-32.605 68.367,-64.792 103.142,-96.563c34.825,-31.787 70.034,-63.108 105.625,-93.975c35.588,-30.9 71.525,-61.371 107.846,-91.354c36.354,-30 73.092,-59.55 110.175,-88.629c37.029,-29.079 74.462,-57.692 112.275,-85.85c37.758,-28.175 75.867,-55.85 114.354,-83.054c38.438,-27.188 77.242,-53.942 116.392,-80.226c39.112,-26.233 78.558,-51.979 118.35,-77.258c39.741,-25.262 79.808,-50.016 120.225,-74.287c40.366,-24.309 81.041,-48.075 122.033,-71.321c40.938,-23.3 82.204,-46.058 123.767,-68.279c41.529,-22.242 83.333,-43.959 125.433,-65.192c42.05,-21.217 84.375,-41.892 126.963,-62.067c42.57,-20.154 85.433,-39.775 128.541,-58.87c43.054,-19.096 86.371,-37.675 129.913,-55.713c43.508,-17.987 87.241,-35.433 131.233,-52.362c43.975,-16.98 88.142,-33.367 132.517,-49.2c44.358,-15.85 88.925,-31.146 133.679,-45.85c44.758,-14.759 89.708,-28.942 134.846,-42.538c45.087,-13.646 90.346,-26.717 135.762,-39.217c45.434,-12.483 91.009,-24.408 136.721,-35.8c45.763,-11.337 91.667,-22.116 137.671,-32.341c45.958,-10.209 92.05,-19.879 138.3,-28.996c46.25,-9.079 92.604,-17.583 139.046,-25.538c46.441,-7.916 92.966,-15.258 139.6,-22.066c46.633,-6.804 93.35,-13 140.121,-18.592c46.77,-5.642 93.629,-10.679 140.558,-15.121c46.871,-4.479 93.817,-8.371 140.833,-11.65c1423.1,-101.7 2887.58,424.271 3954.43,1362.2c1159.29,1019.17 1950.17,2484.58 2036.83,4038.93c8.625,154.08 10.242,308.246 4.842,462.517c-5.346,154.238 -17.675,307.917 -36.963,461.092c-19.337,153.108 -45.537,305.037 -78.629,455.8c-33.087,150.746 -72.916,299.687 -119.495,446.825c-195.609,-1786.9 -875.505,-3540.37 -2312.8,-4695.08c-953.992,-766.425 -2159.65,-1175.85 -3385.19,-1038.06c-1111.11,124.933 -2171.67,728.004 -2865.25,1601.93c-784.425,988.284 -1115.38,2224.6 -965.487,3473.53c128.612,1072.34 615.229,2031.61 1136.2,2960.87c1059.03,1888.82 2058.45,3722.5 1748.99,5976.71c-16.821,127.121 -37.775,253.579 -62.863,379.342c-25.071,125.783 -54.254,250.608 -87.517,374.496c-33.229,123.891 -70.487,246.546 -111.77,367.987c-41.288,121.371 -86.476,241.321 -135.559,359.809c-49.146,118.491 -102.062,235.241 -158.783,350.262c-56.771,115.017 -117.221,228.054 -181.354,339.113c-64.134,111.058 -131.842,219.912 -203.125,326.529c-71.234,106.629 -145.884,210.833 -223.959,312.587c-1116.46,1434.6 -2681.93,2207.46 -4470.33,2418.54c-1330.87,157.046 -2828.2,-22.138 -4049.05,-592.379c-1506.95,-522.067 -2805.47,-1677.88 -3817.19,-2877.68c440.175,-699.584 430.833,-1366.61 474.304,-2169.7c330.158,307.362 617.779,661.595 922.467,993.783c297.675,324.496 617.987,630.558 931.058,940.104l-0.013,-0.033Z" style="fill:#fac3b7;fill-rule:nonzero;"/><path d="M34999.7,47072.9c49.546,-6.804 71.546,0.866 118.783,14.166c189.375,420.575 130.762,1782.35 83.7,2270.76c-664.358,264.187 -2947.78,385.208 -3127.69,520.037c-408.125,305.713 -673.454,3788.49 -737.762,4404.08c-284.442,18.383 -563.021,52.675 -844.984,93.821c38.909,-1043.11 87.884,-2079.64 229.742,-3114.43c-318.717,613.213 -460.071,2380.92 -499.775,3130.49c-359.046,25.762 -718.316,47.462 -1077.85,65.104c-1114.29,31.979 -2329.13,-59.808 -3398.94,-370.938c6.996,-1194.93 31.3,-2389.52 72.916,-3583.77c18.525,-525.833 3.613,-1081.96 81.738,-1600.99c31.475,-209.062 80.587,-454.287 212.325,-623.404c95.329,-122.325 196.387,-173.833 345.554,-205.083c352.796,-73.788 731.475,-89.413 1090.64,-128.909l2135.85,-232.412l5315.75,-638.525l-0.004,-0.004Z" style="fill:#4b7493;fill-rule:nonzero;"/><path d="M2316.46,47018.8c434.184,3.767 873.663,52.517 1307.33,82.829c574.517,40.071 1157.31,63.509 1726.62,151.613c25.971,823.437 3.175,1654.88 2.671,2479.17l-3.471,4743.17l2.9,3130.99c1.371,602.429 28.142,1218.84 -15.554,1819.17c-19.742,271.2 -16.929,433.159 -235.313,622.971c-426.737,168.696 -924.671,214.842 -1379.98,216.579c-360.296,1.371 -1092.12,1.442 -1342.05,-302.587c-107.533,-130.871 -120.275,-490.454 -127.829,-664.2c-60.433,-1389.41 16.387,-2804.34 19.704,-4196.62c-18.108,-2694.55 -3.125,-5388.88 44.983,-8083.04l0,-0.025Z" style="fill:#9c6543;fill-rule:nonzero;"/><path d="M4343.67,48128.8c30.975,39.288 45.037,68.071 53.387,119.429c39.063,240.242 10.071,531.909 19.529,778.142c37.363,974.25 36.25,1947.41 36.513,2922.17c0.571,2122.9 55.883,4261.42 -12.413,6382.75c-8.212,254.687 -7.675,1087.24 -125.575,1249.84c-106.146,-207.741 -125.225,-432.654 -139.671,-661.891c-74.529,-1184.1 -16.42,-2406.25 -15.275,-3593.53c1.13,-1172.1 -66.825,-6419.25 183.505,-7196.92l-0,0.004Z" style="fill:#313945;fill-rule:nonzero;"/><path d="M22286.8,48179.6c947.05,-8.158 1893.67,73.146 2842.45,71.409c-0.434,2319.08 -79.775,4639.33 -95.4,6958.54c-8.975,1336.09 -42.396,2667.33 -77.988,4002.9c-18.591,699.584 2.379,1428.52 -73.212,2123.56c-13.888,127.741 -41.371,223.733 -104.096,336.004c-286.025,189.167 -628.904,220.487 -964.55,242.987c-402.55,26.913 -1191.77,67.709 -1501.16,-231.404c-116.233,-112.346 -117.187,-324.516 -128.975,-477.433c-45.416,-589.496 -21.404,-1189.9 -17.637,-1780.67l24.079,-2890.49c18.525,-1974.1 -10.279,-3949.58 17.292,-5923.38c11.283,-810.991 61.562,-1621.1 79.2,-2432.02l-0,-0.009Z" style="fill:#9c6543;fill-rule:nonzero;"/><path d="M24322.4,49915c64.304,405.538 33.333,844.408 32.116,1255.21l2.954,1795.58c5.884,1404.86 0.988,2809.69 -14.67,4214.5c-5,1182.45 8.02,2371.39 -56.355,3552.61c-13.387,245.137 -17.083,494.425 -111.041,724.233c-57.659,-103.733 -59.6,-226.996 -65.904,-343.088c-56.425,-1045.07 -16.925,-2109.24 -15.259,-3155.89c-6.321,-2122.01 34.809,-4243.12 123.4,-6363.29c25.246,-528.075 -27.483,-1170.87 104.759,-1679.85l-0,-0.008Z" style="fill:#313945;fill-rule:nonzero;"/><path d="M35845,46958.3c800.275,-171.529 1636.44,-207.691 2443.3,-364.304c22.084,472.325 17.396,944.359 -14.041,1416.09l-68.492,7362.17c-14.984,1354.69 24.512,2724.48 -63.454,4076.25c-13.454,206.53 -20.471,516.721 -138.596,688.734c-367.188,269.096 -1140.19,210.867 -1569.88,143.596c-168.905,-26.409 -409.496,-73.509 -522.709,-215.713c-126.891,-159.446 -142.429,-579.583 -153.141,-779.671c-53.246,-995.295 8.612,-2018.3 12.45,-3016.77c8.575,-2509.98 34.825,-5019.79 78.766,-7529.38c-14.896,-592.38 5.938,-1187.64 -4.2,-1781.03l0,0.02Z" style="fill:#9c6543;fill-rule:nonzero;"/><path d="M16454.9,47858.8c1109.81,70.175 2222.15,113.004 3332.83,168.054c610.083,30.159 1237.55,33.059 1841.08,126.584c7.013,696.77 -49.637,1397.43 -65.833,2094.34c-28.142,1212.59 -29.305,2427.59 -45.642,3640.62c-234.167,1.946 -470.054,25.454 -703.717,42.1c-87.446,-1048.17 -192.779,-2105.9 -186.546,-3158.28c3.388,-140.054 -0.087,-265.054 -28.504,-402.483c-218.108,400.745 -100.054,2977.14 -92.746,3593.96c-1344.46,-0.138 -2781.09,-8.542 -4060.97,-466.354c-109.742,-385.071 -164.655,-800.504 -228.734,-1195.61c-232.133,-1430.92 -404.008,-3088.11 238.784,-4442.92l-0,-0.017Z" style="fill:url(#_Linear1);fill-rule:nonzero;"/><path d="M25315.3,42507.1c-268.734,-62.433 -527.413,-134.479 -730.609,-332.691c-230.47,-224.825 -289.791,-547.45 -283.283,-857.709c14.325,-690.904 347.658,-1331.37 844.846,-1800.78c904.862,-854.304 2236.18,-1206.73 3455.5,-1157.98c1289.63,51.65 2568,407.621 3463.47,1383.04c423.612,554.759 655.816,1234.01 562.429,1936.7c-67.342,506.809 -329.217,1076.39 -745.521,1390.83c-154.808,116.912 -297.375,154.879 -487.55,125.52c-47.675,-68.141 -38.783,-109.025 -38.629,-188.662c0.367,-188.942 -64.462,-328.35 -201.025,-459.342c-49.567,-47.533 -104.529,-89.841 -158.854,-131.666c-252.829,-153.142 -448.213,-233.505 -749.65,-258.68c27.062,-176.858 56.579,-347.654 51.508,-527.187l-56.633,-34.446c-179.688,33.283 -746.683,627.538 -1190.9,780.888c-341.875,118.054 -911.892,249.929 -1250.66,69.737c-105.608,-56.196 -175.625,-148.871 -203.4,-264.825c-105.904,-442.412 168.109,-1025.9 424.392,-1382.81c82.983,-115.52 231.196,-264.183 284.15,-387.445c30.171,-70.159 5.433,-83.334 -22.867,-143.942l-78.991,-26.842c-320.521,36.667 -560.834,235.609 -765.625,472.588c-478.075,553.229 -501.371,1125.21 -447.554,1816.18c-282.759,23.942 -675.121,81.458 -906.525,-118.487c-175.505,-151.617 -241.688,-376.442 -262.309,-599.896c-95.421,-1035.09 758.679,-1534.22 722.879,-1934.03c-67.066,-24.375 -63.004,-31.546 -139.825,-13.888c-403.075,92.517 -715.279,443.213 -915.729,787.254c-359.012,616.025 -357.066,1183.16 -173.037,1858.58Z" style="fill:#f2f2f4;fill-rule:nonzero;"/><path d="M16590.5,56587.9c880.871,-172.95 1685.99,45.137 2566.77,92.171c779.88,41.595 1586.17,-10.784 2363.44,-83.196l-39.354,2360.97c-302.521,171.212 -605.038,283.625 -938.371,379.27c-606.196,234.288 -3307.08,1025.52 -3836.74,749.705c-580.588,-302.379 371.6,-1639.33 305.629,-1962.6l-66.617,-19.671c-288.196,107.916 -474.758,299.112 -648.004,546.283c-350.05,499.221 -357.133,960.158 -254.2,1537.55c-375.642,0 -941.913,57.863 -1269.1,-143.804c-127.308,-78.487 -209.338,-221.283 -247.688,-362.708c-220.833,-815.329 608.592,-1559.69 527.863,-1939.67l-69.375,-8.542c-183.158,68.804 -326.321,173.25 -467.813,307.884c-627.237,596.425 -507.883,860.745 -553.75,1628.47c-5.57,93.388 -18.591,136.13 -86.37,198.925l-100.471,-13.158c-188.888,-125.225 -283.854,-289.221 -342.446,-508.475c-90.138,-337.375 -11.513,-726.854 160.362,-1026.4c575.592,-1003.47 1947.19,-1463.54 2996.23,-1733Z" style="fill:#f2f2f4;fill-rule:nonzero;"/><path d="M16590.5,56587.9c880.871,-172.95 1685.99,45.137 2566.77,92.171c779.88,41.595 1586.17,-10.784 2363.44,-83.196l-39.354,2360.97c-302.521,171.212 -605.038,283.625 -938.371,379.27c1.304,-172.17 6.579,-348.02 -7.446,-519.687c-121.096,-1478.94 -1908.85,-1645.77 -3050.21,-1904.79c-300.713,-68.229 -657.417,-118.579 -894.829,-324.741Z" style="fill:#c2c0bf;fill-rule:nonzero;"/><path d="M43898.8,33667.4c700.017,-8.021 1596.06,218.037 2245.88,456.821c235.68,86.579 566.909,218.021 669.775,465.35c79.93,192.204 94.759,415.867 90.209,622.325c-24.392,1112.62 -621.755,5084.5 -1037.55,6088.96c-118.125,147.204 -220.35,247.692 -402.346,309.096c-275.675,93.108 -1521.91,102 -1748.12,-32.325c-109.654,-65.192 -148.871,-403.142 -164.775,-527.933c-50.209,-392.796 -139.754,-850.329 -103.454,-1245.07c27.275,-296.3 141.858,-627.171 213.908,-917.692c170.867,-689.6 344.546,-1389.46 406.25,-2098.8c46.344,-533 62.369,-1118.88 30.05,-1696.61c-26.607,-475.614 -85.98,-945.708 -188.175,-1376.23l-11.65,-47.9l0,0.017Z" style="fill:#9c6543;fill-rule:nonzero;"/><path d="M45646.2,34593c7.379,11.721 16.2,22.641 22.275,35.087c186.858,386.946 -657.917,4782.79 -811.267,5475.54c-66.616,301.058 -155.016,593.454 -251.079,886.283c-30.171,-7.308 -9.408,0.138 -49.2,-44.2c4.567,-797.746 1089.27,-6352.71 1089.27,-6352.71l0,-0.004Z" style="fill:#313945;fill-rule:nonzero;"/><path d="M30845.3,57017.1c52.242,-2.325 22.5,-5.5 87.242,20.68c115.604,481.42 112.271,1667.97 -82.379,2113.94c-304.983,698.559 -1247.83,1208.62 -1928.48,1479.17c-515.9,205.067 -1853.21,554.458 -2365.02,332.325c-457.604,-473.388 424.567,-1602.73 373.492,-2064.6l-57.363,-16.65c-156.545,68.733 -251.962,166.892 -368.558,286.617c-56.858,68.85 -110.762,139.962 -161.683,213.312c-50.888,73.404 -98.596,148.804 -143.163,226.2c-44.546,77.413 -85.779,156.546 -123.696,237.413c-37.9,80.833 -72.325,163.125 -103.3,246.891c-79.858,218.471 -93.525,717.813 -222.795,866.388c-35.45,40.8 -82.1,21.129 -130.938,18.891c-14.6,-21.562 -37.325,-39.429 -43.833,-64.6c-63.579,-247.033 58.087,-3425.99 103.087,-3881.01c604.013,21.129 1212.17,124.358 1817.55,162.621c1126.03,71.25 2234.53,-19.671 3349.83,-177.588Z" style="fill:#f2f2f4;fill-rule:nonzero;"/><path d="M18393.2,32234c44.2,-94.759 54.029,-102.571 142.638,-158.854c185.125,-19.967 320.541,99.529 457.033,208.262c189.6,553.246 278.142,1137.8 412.621,1705.94c318.766,1339.18 624.391,2681.34 916.891,4026.47c292.013,1310.33 612.484,2614.24 896.18,3926.37c119.358,552.155 260.783,1112.35 339.775,1671.72c35.312,250.088 60.329,563.092 -52.292,796.667c-57.358,118.925 -145.192,162.9 -265.483,199.425c-291.738,88.541 -608.142,77.625 -910.017,74.812c-1257.15,-11.512 -2517.87,-93.316 -3773.72,-152.208c-1833.73,-75.033 -3666.74,-164.546 -5499.08,-268.521c-1083.68,-62.692 -2167.71,-117.883 -3252.1,-165.575c-639.325,-28.871 -1290.37,-34.15 -1927.38,-93.021c-140.971,-13.108 -310.4,-39.062 -436.842,-106.858c-81.162,-43.471 -108.646,-76.821 -140.329,-161.458c8.246,-49.825 -1.234,-73.559 44.479,-104.809c118.992,-81.3 293.767,-77.621 433.021,-77.55c502.971,0.292 1013.39,52.084 1516.63,75.38l2887.59,124.862l6873.92,282.396c841.371,43.942 1683.12,79.6 2525.25,106.996c329.063,9.983 704.063,58.662 1028.58,8.887c171.284,-26.25 355.609,-108 406.892,-290.642c62.796,-223.887 -437.067,-2655.17 -567.917,-2870.66l-1218.75,-5364.75c-223.021,-1000.07 -447.483,-2482.78 -837.604,-3393.3l0.025,0.009Z" style="fill:#8b8b8a;fill-rule:nonzero;"/><path d="M41520.1,51812.1c581.096,-111.77 1158.58,-268.162 1733.73,-407.62c10.85,488.35 75.296,973.454 76.53,1463.04c55.345,719.617 344.254,6012.88 247.758,6361.67c-159.288,172.741 -499.859,174.775 -723.088,182.933c-244.654,8.908 -786.529,44.863 -965.854,-146.979c-234.737,-251.025 -300.066,-5427 -299.475,-6119.21c-75.679,-417.746 -51.441,-906.25 -69.604,-1333.84l0,0.008Z" style="fill:#9c6543;fill-rule:nonzero;"/><path d="M41868.8,48040.4c419.429,-22.434 1122.05,-4.863 1483.08,225.9c172.967,110.541 268.021,275.312 313.088,472.291c96.787,422.605 75.158,1350.49 -178.384,1704.79c-106.929,149.308 -300.575,220.783 -467.883,277.917c-691.7,236.408 -1475.92,344.621 -2192.43,497.916c-556.704,119.134 -1136.2,285.938 -1696.62,371.371c-89.912,13.684 -134.546,4.271 -205.937,-48.383l-12.221,-136.946l1.946,-1700.59c863.87,-172.884 1741.91,-296.738 2609.3,-455.505c347.012,-63.525 718.75,-113.212 1056.72,-214.062c165.296,-49.325 320.746,-129.183 450.729,-242.621l-8.608,-41.079c-471.129,-82.325 -1343.45,149.15 -1849.67,220.121c253.317,-279.738 404.792,-710.796 696.892,-931.125Z" style="fill:#9c6543;fill-rule:nonzero;"/><path d="M40116.5,43410.8c71.042,14.53 141.792,28.992 212.171,46.58c17.658,-8.68 34.583,-19.167 53.021,-26.109c224.462,-84.429 817.137,-45.504 1022.43,79.129c168.25,102.067 466.721,377.171 499.5,577.554c23.141,141.492 -49.638,269.809 -140.713,371.459c-256.72,286.458 -758.387,564.375 -1122.17,674.391c-21.195,6.371 -42.17,13.455 -63.299,19.896c-12.725,3.838 -25.538,7.238 -38.334,10.921c-44.775,109.963 -100.691,213.471 -89.566,334.929c77.416,97.221 147.137,98.596 264.045,134.409c-166.162,29.15 -334.425,48.387 -501.595,70.816c168.837,-287.983 259.254,-592.012 285.158,-923.679c38.192,-489.808 -53.525,-989.221 -380.646,-1370.3Zm-7147.08,-702.187c33.337,-66.217 64.237,-133.558 92.746,-202.05c28.541,-68.417 54.583,-137.792 78.125,-208.104c23.575,-70.263 44.633,-141.304 63.141,-213.109c18.525,-71.808 34.463,-144.166 47.829,-217.083c13.3,-72.971 24.03,-146.304 32.188,-219.983c8.092,-73.7 13.596,-147.571 16.492,-221.65c2.85,-74.113 3.058,-148.213 0.645,-222.292c-2.412,-74.113 -7.466,-148.054 -15.191,-221.788c-82.467,-849.391 -543.838,-1612.99 -1196.83,-2151.7c-195.675,-161.458 -429.617,-277.258 -620.225,-441.479c-63.871,-55.05 -74.946,-54.687 -81.459,-141.7c11.58,-8.904 22.205,-19.166 34.792,-26.633c248.767,-148.071 1016.13,-120.138 1296.51,-38.333c654.233,190.975 1308.53,873.562 1620.66,1462.81c457.554,863.717 402.346,1773.37 127.971,2681.65c-176.354,422.813 -434.742,696.979 -868.267,875.504c-370.817,152.709 -764.183,131.146 -1156.32,128.404c192.55,-200.158 367.688,-394.462 527.188,-622.466l-0.004,-0Z" style="fill:#7a7bbe;fill-rule:nonzero;"/><path d="M25752.6,54533.8c1635.62,433.092 2805.42,466.667 4454.04,401.475l0.296,424.775c-0.225,237.85 64.512,926.079 -86.875,1077.26c-1456.32,150.242 -2937.87,198.142 -4371.33,-156.025l3.837,-1747.48l0.033,0Z" style="fill:#45759b;fill-rule:nonzero;"/><path d="M43785,42362.9c357.846,-22.359 715.625,-18.734 1071.32,28.283c-15.692,1168.33 -470.85,2943.07 -696.909,4141.42c-74.791,396.479 -83.175,839.983 -199.583,1221.72c-24.15,79.062 -22.204,94.321 -97.292,134.254l-118.196,-78.196c-360.899,-306.579 -757.879,-392.154 -1217.37,-440.467c12.812,-449.583 7.012,-1137.23 220.345,-1536.6c214.842,-402.204 478.509,-687.22 617.467,-1136.65c215.642,-697.204 211.3,-1407.78 307.292,-2120.15c14.479,-107.637 24.6,-150.833 112.933,-213.612Z" style="fill:#9c6543;fill-rule:nonzero;"/><path d="M41960.8,46021.7c18.23,15.625 31.546,50.712 35.75,72.05c22.342,113.645 -15.92,278.716 -38.266,394.029c-137.517,710.866 -484.6,1202.53 -965.434,1728.94c-571.112,625.225 -1218.68,750.659 -2027.78,789.93c-112.916,-120.505 -45.504,-2117.19 -37.966,-2440.61c436.129,-146.408 953.629,-188.508 1408.69,-257.675c544.705,-78.262 1086.37,-173.816 1625,-286.666Z" style="fill:url(#_Linear2);fill-rule:nonzero;"/><path d="M16453,54094.6c1366.67,329.792 2699.57,380.867 4098.37,376.371c1.891,522.796 -18.438,1047.31 -28.925,1570.03c-929.342,57.137 -2868.93,-20.555 -3685.49,-389.255c-319.583,-487.775 -354.879,-991.387 -383.958,-1557.15Z" style="fill:#45759b;fill-rule:nonzero;"/><path d="M29449,32011.6c714.705,-36.458 1426.95,-299.046 2147.29,-298.333c190.017,62.933 361.613,132.012 539.133,225.191c-474.621,361.838 -1020.33,647.204 -1527.28,962.671c-776.337,482.883 -1526.34,1003.7 -2250,1562.43c-522.796,-611.616 -992.691,-1203.13 -1379.2,-1913.92c580.45,-11.492 2041.73,-127.309 2470.05,-538.038Z" style="fill:#f2f2f4;fill-rule:nonzero;"/><path d="M30362.8,43011.2l56.563,6.788c44.046,64.829 53.892,80.087 61.271,157.85c16.125,169.27 -9.254,286.595 -120.663,415.433c-63.662,73.646 -129.983,129.842 -225.554,155.017c-686.633,181.145 -1888.37,226.287 -2625.78,300.416c-1746.61,175.784 -3487.5,368.717 -5236.92,519.967l-94.342,-22.779c-39.929,-190.834 69.671,-498.4 115.246,-692.204c1640.95,-94.809 3278.42,-231.596 4912.42,-410.363c1049.55,-108.875 2129.84,-187.225 3157.78,-430.125l-0.013,0Z" style="fill:#8b8b8a;fill-rule:nonzero;"/><path d="M34813.2,52640.8c113.713,-22.291 244.946,-19.962 361.405,-28.937c-36.234,612.342 -11.58,1235.81 -20.971,1849.83l-68.3,3571.25l-480.379,-29.654c-155.817,-18.229 -325.525,-29.442 -442,-144.321c-128.542,-476.633 31.479,-4608.12 94.687,-5188.79c185.992,-1.508 370.225,-15.4 555.558,-29.358l0,-0.013Z" style="fill:#9c6543;fill-rule:nonzero;"/><path d="M34861.3,50109.2c103.437,-10.279 183.662,-14.55 286.825,9.616c122.829,259.255 19.966,1411.53 8.975,1764.53c-775.971,62.654 -1585.66,109.233 -2360.11,12.812c-153.02,-26.666 -306.233,-52.258 -459.637,-76.754c-13.817,-377.812 -40.5,-809.167 199.15,-1128.54c94.392,-125.8 223.525,-218.316 369.358,-275.537c456.163,-178.821 1437.07,-229.533 1955.43,-306.129Z" style="fill:url(#_Linear3);fill-rule:nonzero;"/><path d="M25271.5,42912.1c295.362,-42.1 574.287,162.988 830.362,292.605c-1066.55,76.249 -2130.78,186.925 -3197.92,262.449c-224.096,6.146 -447.759,26.771 -671.284,43.905l-79.791,-468.021c1040.73,19.166 2081.96,-45.209 3118.63,-130.938Z" style="fill:#8b8b8a;fill-rule:nonzero;"/><path d="M31091.7,54809.2c94.616,-7.375 110.383,-19.459 187.5,32.916c99.825,262.796 99.254,920.071 -30.088,1173.98c-75.521,148.141 -342.675,216.508 -488.437,271.77c-91.717,30.155 -151.25,47.084 -249.704,42.238c-82.467,-437.204 -21.042,-988.646 -19.896,-1438.94c200.679,-22.066 400.679,-53.816 600.625,-81.962Zm-9725.25,-433.021c55.121,-9.113 89.2,-3.608 143.729,4.708c131.583,271.421 39.933,1167.17 31.754,1513.02l-482.046,85.938l-137.658,12.812l-45.658,-38.492c-39.342,-490.016 -2.017,-1003.25 6.666,-1495.52c159.929,-33.696 321.821,-56.93 483.209,-82.467l0.004,-0Z" style="fill:#45759b;fill-rule:nonzero;"/><path d="M23370.3,40701.9c7.813,4.341 16.2,7.745 23.367,13.162c135.125,102.15 77.033,825.313 88.108,1026.47c-195.104,15.554 -380.504,37.188 -572.637,76.979l-32.988,8.68l-8.316,-53.109c180.625,-324.062 268.891,-802.862 502.466,-1072.19Z" style="fill:#9c6543;fill-rule:nonzero;"/><path d="M23108,42262.9c83.333,31.112 87.9,79.062 128.471,154.375c112.779,-17.884 234.096,-35.242 348.387,-36.613c91.942,-1.146 125,13.679 184.6,80.225l-27.412,54.825c-251.808,54.184 -574.221,-9.254 -834.638,-18.366c-255.416,0.291 -546.37,30.816 -792.966,-36.6l-0.279,-33.28c333.399,-163.491 633.454,-155.954 993.837,-164.566Z" style="fill:#8b8b8a;fill-rule:nonzero;"/></g><defs><linearGradient id="_Linear1" x1="0" y1="0" x2="1" y2="0" gradientUnits="userSpaceOnUse" gradientTransform="matrix(-2323.66,6265.25,-6265.25,-2323.66,20117.5,47665.4)"><stop offset="0" style="stop-color:#477599;stop-opacity:1"/><stop offset="1" style="stop-color:#50728c;stop-opacity:1"/></linearGradient><linearGradient id="_Linear2" x1="0" y1="0" x2="1" y2="0" gradientUnits="userSpaceOnUse" gradientTransform="matrix(-1511.89,2834.69,-2834.69,-1511.89,41297.2,46045.8)"><stop offset="0" style="stop-color:#477599;stop-opacity:1"/><stop offset="1" style="stop-color:#50728c;stop-opacity:1"/></linearGradient><linearGradient id="_Linear3" x1="0" y1="0" x2="1" y2="0" gradientUnits="userSpaceOnUse" gradientTransform="matrix(1973.68,686.546,-686.546,1973.68,32893,50730.4)"><stop offset="0" style="stop-color:#9c6543;stop-opacity:1"/><stop offset="1" style="stop-color:#a46a45;stop-opacity:1"/></linearGradient></defs></svg>