<svg xmlns="http://www.w3.org/2000/svg" width="747" height="895" viewBox="0 0 747 895"><g fill="none" fill-rule="evenodd" transform="translate(.191 .1)"><path fill="#313945" fill-rule="nonzero" d="M103.033579,0.109777793 C104.271579,0.0491777926 105.510246,0.0136777926 106.749579,0 C107.989579,0 109.228913,0 110.467579,0.0470777926 C111.706246,0.0867444592 112.943913,0.151444459 114.180579,0.241177793 C115.416579,0.330911126 116.650579,0.445611126 117.882579,0.585277793 C119.113913,0.724944459 120.341913,0.889444459 121.566579,1.07877779 C122.791913,1.26811113 124.012579,1.48214446 125.228579,1.72087779 C126.445246,1.95954446 127.656246,2.22274446 128.861579,2.51047779 C130.067579,2.79821113 131.267246,3.11017779 132.460579,3.44637779 C133.653246,3.78264446 134.838913,4.14284446 136.017579,4.52697779 C137.196246,4.91117779 138.366579,5.31904446 139.528579,5.75057779 C140.690579,6.18211113 141.843246,6.63697779 142.986579,7.11517779 C144.129913,7.59331113 145.263246,8.09441113 146.386579,8.61847779 C147.509913,9.14247779 148.622246,9.68897779 149.723579,10.2579778 C150.824913,10.8270445 151.914246,11.4181111 152.991579,12.0311778 C154.068913,12.6442445 155.133246,13.2788445 156.184579,13.9349778 C157.236579,14.5911111 158.274579,15.2682445 159.298579,15.9663778 C190.153579,36.5796778 205.308579,68.3116778 212.424579,103.631678 C219.430579,100.511678 226.730579,98.4536778 234.167579,96.6856778 C234.593579,94.0446778 234.897579,91.8196778 236.809579,89.8216778 C241.735579,84.6766778 251.809579,85.4466778 258.360579,85.3916778 C257.256579,83.5426778 256.120579,81.5516778 255.656579,79.4296778 C255.127579,77.0156778 255.580579,74.7336778 256.894579,72.6546778 C258.803579,69.6346778 261.742579,67.8006778 265.220579,67.1026778 C270.138579,66.1156778 275.787579,67.0316778 280.661579,67.9096778 C299.978579,71.3866778 317.552579,78.9376778 333.807579,89.8226778 C361.836579,90.5986778 403.704579,106.013678 428.342579,119.414678 C435.923579,95.8626778 450.241579,70.7706778 466.341579,51.9803778 C486.854579,28.0414778 515.522579,7.23367779 547.866579,4.84747779 C548.526579,4.79447779 549.187246,4.74981113 549.848579,4.71347779 C550.509913,4.67707779 551.171579,4.64904446 551.833579,4.62937779 C552.494913,4.60964446 553.156913,4.59824446 553.819579,4.59517779 C554.481579,4.59217779 555.143579,4.59747779 555.805579,4.61107779 C556.467579,4.62474446 557.129246,4.64671113 557.790579,4.67697779 C558.451913,4.70731113 559.112913,4.74594446 559.773579,4.79287779 C560.434246,4.83981113 561.094246,4.89504446 561.753579,4.95857779 C562.412913,5.02211113 563.071246,5.09394446 563.728579,5.17407779 C564.385913,5.25421113 565.041913,5.34257779 565.696579,5.43917779 C566.351913,5.53584446 567.005913,5.64071113 567.658579,5.75377779 C568.310579,5.86691113 568.961246,5.98821113 569.610579,6.11767779 C570.259913,6.24714446 570.907579,6.38477779 571.553579,6.53057779 C572.199579,6.67637779 572.843579,6.83027779 573.485579,6.99227779 C574.127579,7.15434446 574.767579,7.32441113 575.405579,7.50247779 C576.043579,7.68061113 576.678913,7.86674446 577.311579,8.06087779 C577.944913,8.25501113 578.575579,8.45707779 579.203579,8.66707779 C579.831579,8.87707779 580.456913,9.09494446 581.079579,9.32067779 C581.702246,9.54641113 582.321913,9.77994446 582.938579,10.0212778 C583.555246,10.2626111 584.168579,10.5116445 584.778579,10.7683778 C585.389246,11.0251778 585.996246,11.2896111 586.599579,11.5616778 C587.203579,11.8337445 587.803913,12.1133778 588.400579,12.4005778 C588.997246,12.6877111 589.590246,12.9823445 590.179579,13.2844778 C590.768913,13.5866111 591.354246,13.8960778 591.935579,14.2128778 C592.516913,14.5297445 593.094246,14.8538445 593.667579,15.1851778 C594.240913,15.5165778 594.809913,15.8551445 595.374579,16.2008778 C595.939246,16.5465445 596.499579,16.8993111 597.055579,17.2591778 C597.611579,17.6189778 598.162913,17.9857111 598.709579,18.3593778 C599.256246,18.7330445 599.798246,19.1135778 600.335579,19.5009778 C600.872913,19.8882445 601.404913,20.2822445 601.931579,20.6829778 C602.458913,21.0837111 602.980913,21.4910445 603.497579,21.9049778 C604.014913,22.3188445 604.526579,22.7391445 605.032579,23.1658778 C605.539246,23.5926111 606.040246,24.0256778 606.535579,24.4650778 C629.948579,44.9632778 641.222579,76.2116778 643.271579,106.615678 C645.690579,142.488678 634.411579,178.841678 610.595579,205.966678 C585.297579,234.778678 550.781579,249.459678 512.928579,251.899678 C517.812579,276.419678 519.159579,301.120678 514.608579,325.822678 C521.514579,326.780678 533.836579,327.102678 539.086579,331.715678 C540.254579,332.741678 540.968579,334.079678 540.858579,335.683678 C540.764579,337.032678 540.060579,337.909678 538.995579,338.663678 C534.727579,341.684678 517.911579,338.423678 512.441579,337.617678 C507.674579,352.877678 502.408579,369.181678 492.449579,381.926678 C496.823579,384.039678 502.406579,386.214678 505.356579,390.260678 C506.503579,391.834678 506.891579,393.090678 506.604579,395.060678 C505.878579,396.281678 505.207579,396.959678 503.834579,397.379678 C498.099579,399.133678 489.998579,394.519678 485.067579,391.840678 C477.951579,400.413344 470.243246,408.415011 461.942579,415.845678 C462.719913,416.543678 463.474246,417.266011 464.205579,418.012678 C464.937579,418.758678 465.644913,419.527011 466.327579,420.317678 C467.010913,421.108344 467.668246,421.920011 468.299579,422.752678 C468.931579,423.584678 469.536579,424.436011 470.114579,425.306678 C470.691913,426.177344 471.241579,427.065344 471.763579,427.970678 C472.284913,428.876011 472.777246,429.797011 473.240579,430.733678 C473.704579,431.670344 474.138246,432.620678 474.541579,433.584678 C474.944913,434.548678 475.317246,435.524344 475.658579,436.511678 C480.280579,449.612678 479.553579,463.355678 473.558579,475.829678 C485.481579,498.587678 493.527579,522.986678 493.101579,548.963678 C492.617579,578.446678 480.791579,609.728678 459.395579,630.496678 C461.279579,637.589678 463.578579,645.659678 461.892579,653.020678 C460.092579,660.883678 453.942579,664.874678 447.541579,668.811678 C466.318579,692.591678 489.372579,718.266678 516.946579,731.898678 C531.687579,739.185678 548.413579,741.619678 564.173579,736.122678 C577.905579,731.332678 590.297579,721.092678 596.646579,707.881678 C612.975579,673.903678 598.708579,645.625678 587.661579,613.622678 C576.591579,581.548678 573.930579,547.152678 589.296579,515.900678 C599.277579,495.599678 616.770579,479.307678 638.330579,472.081678 C658.100579,465.455678 681.005579,467.528678 699.540579,476.912678 C719.271579,486.901678 735.704579,505.356678 742.530579,526.478678 C746.089579,537.489678 748.614579,554.613678 742.845579,565.317678 C741.161579,568.441678 738.509579,570.535678 735.073579,571.438678 C721.103579,575.111678 716.455579,552.512678 710.852579,543.855678 C710.280579,542.983678 709.684579,542.128678 709.064579,541.290678 C708.445246,540.452678 707.802246,539.633011 707.135579,538.831678 C706.469579,538.029678 705.781246,537.247011 705.070579,536.483678 C704.360579,535.721011 703.629246,534.979011 702.876579,534.257678 C702.124579,533.535678 701.352579,532.835678 700.560579,532.157678 C699.768579,531.479678 698.958246,530.824678 698.129579,530.192678 C697.300913,529.560011 696.454913,528.951344 695.591579,528.366678 C694.728246,527.782011 693.849246,527.222344 692.954579,526.687678 C682.726579,520.471678 670.157579,518.051678 658.470579,521.046678 C648.383579,523.630678 640.104579,530.388678 634.883579,539.325678 C625.705579,555.036678 626.632579,571.962678 631.001579,588.948678 C640.512579,617.464678 653.786579,642.321678 655.434579,673.078678 C657.023579,702.721678 648.001579,731.666678 628.002579,753.850678 C607.944579,776.100678 579.706579,786.853678 550.191579,788.242678 C522.462579,789.546678 493.909579,780.131678 471.213579,764.465678 C461.476579,757.744678 452.706579,749.830678 443.974579,741.881678 C443.437579,755.528678 443.858579,769.317678 443.881579,782.979678 C443.891579,789.007678 444.840579,797.111678 443.219579,802.836678 C441.997579,807.152678 438.411579,809.286678 434.782579,811.358678 C435.508579,812.934011 436.185246,814.530011 436.812579,816.146678 C442.534579,831.299678 446.695579,853.418678 439.632579,868.800678 C435.089579,878.695678 426.136579,884.557678 416.208579,888.252678 C395.117579,896.103678 365.581579,896.561678 344.973579,886.893678 C336.038579,882.702678 329.543579,876.012678 326.196579,866.662678 C320.529579,850.834678 325.359579,829.245678 332.190579,814.539678 C329.479579,812.762678 326.261579,810.709678 324.795579,807.708678 C321.804579,801.583678 321.498579,793.253678 320.647579,786.565678 C318.788579,771.955678 316.151579,743.641678 310.870579,731.206678 L304.830579,730.175678 C303.239579,736.514678 303.065579,743.664678 302.418579,750.195678 C301.198579,762.143011 300.063579,774.098344 299.013579,786.061678 C298.467579,792.330678 298.507579,799.567678 296.505579,805.553678 C295.565579,808.363678 293.141579,810.739678 291.069579,812.768678 C292.757579,824.940678 292.423579,838.182678 286.883579,849.405678 C279.361579,864.647678 263.690579,874.182678 248.110579,879.450678 C220.853579,888.666678 185.041579,889.427678 158.899579,876.289678 C150.795579,872.216678 143.142579,865.680678 140.389579,856.746678 C138.057579,849.177678 138.975579,840.067678 142.695579,833.114678 C151.259579,817.107678 171.714579,810.247678 187.940579,805.378678 C186.054579,803.504678 184.797579,801.732678 184.126579,799.120678 C182.394579,792.387678 182.800579,784.466678 182.489579,777.483678 L180.863579,740.988678 C145.263579,714.402678 80.9365792,651.404678 61.4745792,612.733678 C51.7805792,615.490678 42.1375792,616.543678 32.4435792,613.158678 C20.8775792,609.118678 11.6255792,598.957678 6.47457922,588.087678 C-0.533420781,573.297678 -2.30742078,553.555678 3.41157922,538.075678 C8.75757922,523.603678 18.2775792,516.834678 31.8045792,510.631678 C31.8525792,483.356678 40.6185792,457.634678 60.1555792,438.073678 C79.3565792,418.847678 103.184579,409.885678 130.155579,409.858678 C117.268579,397.223678 107.500579,383.267678 99.7915792,366.975678 C94.4735792,368.000678 89.0905792,368.907678 83.8225792,370.166678 C79.1225792,371.290678 74.2265792,372.942678 69.4325792,373.474678 C68.1835792,373.613678 66.6405792,373.541678 65.5265792,372.887678 C64.3555792,372.199678 63.5275792,371.324678 63.2315792,369.958678 C62.9425792,368.627678 63.3425792,367.170678 64.0645792,366.040678 C67.7635792,360.259678 88.6685792,356.833678 95.8865792,355.571678 C91.4915792,345.102678 89.8855792,333.593678 88.6355792,322.382678 C80.7555792,321.312678 53.0095792,321.047678 48.4305792,318.366678 C46.6885792,317.346678 45.8245792,316.234678 45.2865792,314.315678 C45.5675792,312.946678 45.7795792,312.227678 46.8825792,311.297678 C54.0315792,305.267678 78.9605792,308.966678 88.4205792,310.089678 C88.6555792,280.972678 93.1195792,255.885678 102.218579,228.259678 C88.4185792,225.298678 74.8095792,216.691678 64.3245792,207.478678 C37.7525792,184.125678 22.4195792,152.205678 20.3375792,116.899678 C18.3965792,83.9986778 26.3385792,51.7763778 48.7135792,26.7964778 C62.5445792,11.3568778 82.2655792,1.26517779 103.033579,0.109777793 Z"/><path fill="#F2F2F4" fill-rule="nonzero" d="M425.780579,133.524678 C425.601579,136.610678 425.159579,140.826678 427.429579,143.340678 C428.186579,144.178678 428.979579,144.721678 430.165579,144.589678 C431.927579,144.394678 433.369579,143.082678 434.236579,141.632678 C437.415579,136.317678 439.011579,129.481678 441.082579,123.656678 C443.070579,118.065678 445.463579,112.601678 447.879579,107.184678 C464.215579,70.5736778 495.031579,32.1064778 534.958579,21.0714778 C552.455579,16.2357778 570.933579,18.1125778 586.774579,27.1739778 C606.738579,38.5928778 620.007579,60.8716778 625.754579,82.6036778 C634.185579,114.490678 629.521579,151.716678 612.699579,180.154678 C612.206913,180.983344 611.704579,181.806344 611.192579,182.623678 C610.679913,183.440344 610.157579,184.250678 609.625579,185.054678 C609.092913,185.858678 608.550913,186.656011 607.999579,187.446678 C607.448246,188.237344 606.887246,189.021344 606.316579,189.798678 C605.745913,190.576011 605.165913,191.346011 604.576579,192.108678 C603.987246,192.872011 603.388579,193.628011 602.780579,194.376678 C602.173246,195.125344 601.556579,195.866344 600.930579,196.599678 C600.304579,197.333011 599.669913,198.059011 599.026579,198.777678 C598.383246,199.495678 597.731246,200.205678 597.070579,200.907678 C596.409913,201.610344 595.740913,202.304678 595.063579,202.990678 C594.386246,203.676011 593.700246,204.353344 593.005579,205.022678 C592.311579,205.692011 591.609579,206.353011 590.899579,207.005678 C590.189579,207.657678 589.471913,208.301011 588.746579,208.935678 C588.020579,209.570344 587.286913,210.196344 586.545579,210.813678 C585.804913,211.430344 585.056579,212.038011 584.300579,212.636678 C583.545246,213.235344 582.782579,213.825011 582.012579,214.405678 C581.241913,214.985678 580.464579,215.556344 579.680579,216.117678 C578.897246,216.679011 578.106579,217.230678 577.308579,217.772678 C576.511246,218.314678 575.707579,218.847011 574.897579,219.369678 C574.086913,219.892344 573.270246,220.405011 572.447579,220.907678 C571.624913,221.409678 570.796246,221.902011 569.961579,222.384678 C569.126913,222.867344 568.286246,223.339678 567.439579,223.801678 C566.593579,224.263678 565.741913,224.715344 564.884579,225.156678 C564.027246,225.598011 563.164913,226.029011 562.297579,226.449678 C561.429579,226.869678 560.556579,227.279344 559.678579,227.678678 C558.801246,228.078011 557.918913,228.466344 557.031579,228.843678 C556.144246,229.221678 555.252579,229.588678 554.356579,229.944678 C553.460579,230.300678 552.560579,230.645678 551.656579,230.979678 C550.751913,231.313678 549.843246,231.636678 548.930579,231.948678 C548.018579,232.260678 547.102913,232.561678 546.183579,232.851678 C545.263579,233.141011 544.340246,233.419344 543.413579,233.686678 C542.487579,233.954011 541.558246,234.210011 540.625579,234.454678 C529.944579,237.191678 519.259579,237.842678 508.291579,238.191678 L504.995579,228.419678 C500.989579,218.690678 496.820579,209.450678 491.853579,200.162678 C495.363579,190.096678 505.560579,169.842678 504.596579,159.884678 C504.438579,158.254678 503.930579,157.552678 502.670579,156.571678 C497.878579,155.757678 485.524579,166.060678 480.980579,169.133678 C485.982579,136.822678 494.841579,105.046678 513.916579,77.9806778 C523.927579,63.7756778 537.645579,50.1891778 555.472579,47.1699778 C568.321579,44.9938778 581.924579,49.5929778 591.951579,57.6526778 C595.967579,60.8796778 599.404579,64.7626778 603.593579,67.7826778 C605.106579,67.8256778 605.586579,67.3666778 606.878579,66.6266778 C604.297579,57.0376778 595.575579,48.7812778 587.218579,43.9365778 C575.126579,36.9272778 561.324579,34.9147778 547.801579,38.5579778 C523.821579,45.0182778 506.565579,65.1676778 494.733579,86.0196778 C481.128579,109.993678 474.545579,135.795678 470.859579,162.896678 C470.095579,168.513678 468.388579,175.670678 469.743579,181.207678 C470.067579,182.531678 470.682579,183.897678 471.895579,184.624678 C472.601579,185.048678 473.639579,184.712678 474.380579,184.464678 C479.242579,182.834678 484.100579,178.919678 488.532579,176.289678 C484.742579,183.972678 480.546579,192.522678 478.502579,200.848678 C478.578579,201.031678 478.653579,201.216678 478.731579,201.398678 C481.705579,208.356678 486.134579,214.583678 489.093579,221.598678 C503.051579,254.683678 506.282579,289.021678 501.610579,324.443678 C478.612579,323.801678 456.248579,325.406678 434.050579,331.889678 C429.724579,333.152678 423.795579,334.575678 420.469579,337.783678 C419.667579,338.557678 419.311579,339.352678 418.902579,340.371678 C418.962579,341.352678 418.855579,342.093678 419.630579,342.832678 C421.369579,344.492678 424.090579,343.969678 426.207579,343.626678 C434.293579,342.316678 442.244579,340.150678 450.338579,338.832678 C465.978579,336.285678 482.176579,335.920678 497.983579,336.508678 C494.324579,350.490678 488.197579,365.700678 479.562579,377.398678 C468.971579,373.896678 427.209579,362.687678 417.808579,367.029678 C416.767579,367.510678 415.788579,368.287678 415.372579,369.394678 C414.930579,370.568678 415.088579,371.525678 415.544579,372.637678 C416.945579,374.175678 418.262579,374.837678 420.269579,375.402678 C425.284579,376.816678 430.732579,377.046678 435.861579,377.994678 C447.781579,380.199678 460.262579,382.923678 471.724579,386.919678 C448.893579,413.525678 411.528579,435.294678 377.585579,444.062678 C355.266579,434.021678 340.067579,429.551678 315.048579,430.458678 C331.230579,414.439678 337.524579,392.459678 343.214579,371.114678 C345.880579,372.747678 349.795579,376.357678 353.146579,375.784678 C353.668579,375.695678 354.060579,375.442678 354.507579,375.197678 C355.191579,373.629678 355.195579,372.629678 354.583579,371.009678 C352.660579,365.921678 347.707579,361.486678 342.709579,359.526678 C339.178579,358.142678 332.870579,357.562678 329.386579,359.078678 C328.077579,359.647678 326.124579,360.924678 325.739579,362.374678 C325.574579,362.997678 326.081579,363.334678 326.428579,363.808678 C328.976579,365.025678 332.468579,365.251678 334.652579,366.905678 L334.871579,367.785678 C330.252579,375.002678 310.359579,382.929678 302.000579,384.785678 C291.578579,387.100678 277.560579,387.537678 268.115579,381.720678 C263.962579,379.163678 261.869579,375.982678 259.982579,371.589678 C270.450579,367.220678 280.565579,362.039678 284.995579,350.809678 C287.005579,345.712678 287.725579,339.504678 285.328579,334.414678 C282.906579,329.271678 277.954579,326.400678 272.756579,324.670678 C260.811579,320.696678 242.031579,320.908678 230.704579,326.797678 C226.749579,328.854678 223.636579,331.999678 222.428579,336.372678 C220.770579,342.373678 223.224579,349.211678 226.362579,354.353678 C231.995579,363.584678 239.372579,368.693678 249.811579,371.396678 C251.080579,374.424678 253.759579,378.894678 252.547579,382.093678 C250.455579,384.252678 247.226579,384.246678 244.390579,384.280678 C233.667579,384.407678 218.410579,381.187678 210.492579,373.375678 C207.157579,370.085678 203.846579,363.995678 199.269579,362.665678 C197.918579,362.978678 197.353579,363.293678 196.605579,364.517678 C195.467579,366.380678 195.668579,369.123678 196.286579,371.116678 C199.004579,379.876678 207.511579,386.336678 215.439579,390.194678 C220.073579,392.448678 225.001579,393.913678 229.969579,395.224678 C233.494579,411.929678 240.459579,432.345678 255.596579,442.098678 C257.949579,443.614678 260.452579,444.796678 263.001579,445.937678 C256.496579,449.793678 249.672579,453.042678 243.139579,456.912678 C236.864579,453.714678 230.331579,451.532678 223.596579,449.540678 C219.703579,448.388678 215.562579,447.441678 211.869579,445.747678 C205.118579,442.651678 195.223579,431.578678 187.377579,426.708678 C180.824579,422.640678 173.799579,419.043678 166.514579,416.497678 C162.107579,414.956678 157.322579,413.920678 153.090579,411.960678 C141.123579,406.418678 119.820579,378.143678 114.543579,366.508678 C121.123579,366.156678 141.002579,366.763678 145.359579,362.261678 C145.683579,361.155678 145.862579,360.258678 145.316579,359.158678 C144.298579,357.107678 141.883579,356.170678 139.785579,355.686678 C130.155579,353.462678 119.366579,355.517678 109.596579,355.995678 C105.849579,345.695678 103.837579,335.550678 102.199579,324.768678 L102.927579,324.803678 C112.035579,325.292678 136.399579,332.431678 141.109579,331.954678 C142.077579,331.856678 143.220579,331.369678 143.924579,330.669678 C144.771579,329.828678 144.739579,329.485678 144.804579,328.369678 C143.178579,324.421678 137.874579,322.191678 134.131579,320.635678 C124.447579,316.610678 112.290579,313.537678 101.891579,312.537678 C101.171579,255.528678 122.154579,194.147678 162.335579,152.859678 C179.951579,134.759678 201.950579,120.187678 226.210579,112.734678 C230.732579,111.345678 236.386579,109.603678 241.140579,109.601678 C245.125579,109.599678 248.838579,114.641678 252.597579,113.146678 C253.434579,112.102678 254.145579,111.498678 254.094579,110.059678 C253.917579,105.094678 246.291579,102.812678 245.192579,98.4806778 C246.744579,96.8206778 251.687579,97.0426778 253.979579,96.9586778 C259.122579,96.7706778 264.667579,97.0556778 269.473579,99.0566778 C273.714579,100.821678 278.931579,107.871678 283.706579,105.303678 C284.715579,104.116678 285.301579,103.295678 285.202579,101.628678 C284.694579,93.0666778 272.354579,85.3336778 267.033579,79.7966778 C284.378579,80.2536778 302.189579,86.7386778 317.145579,95.2986778 C321.501579,97.7916778 325.562579,101.578678 330.344579,103.151678 C336.897579,105.308678 345.557579,104.919678 352.555579,106.243678 C373.321579,110.172678 408.753579,121.298678 425.780579,133.524678 Z"/><path fill="#FAC3B7" fill-rule="nonzero" d="M480.980579,169.133678 C485.982579,136.822678 494.841579,105.046678 513.916579,77.9806778 C523.927579,63.7756778 537.645579,50.1891778 555.472579,47.1699778 C568.321579,44.9938778 581.924579,49.5929778 591.951579,57.6526778 C595.967579,60.8796778 599.404579,64.7626778 603.593579,67.7826778 C605.106579,67.8256778 605.586579,67.3666778 606.878579,66.6266778 C609.455579,71.6856778 612.006579,76.7056778 613.891579,82.0756778 C621.813579,104.638678 621.792579,131.056678 614.479579,153.750678 C614.205579,154.598011 613.921246,155.442011 613.626579,156.282678 C613.331913,157.123344 613.026913,157.960011 612.711579,158.792678 C612.396246,159.626011 612.070579,160.455011 611.734579,161.279678 C611.398579,162.104344 611.052246,162.925011 610.695579,163.741678 C610.339579,164.557678 609.973246,165.369344 609.596579,166.176678 C609.220579,166.984011 608.834246,167.786678 608.437579,168.584678 C608.041579,169.382011 607.635579,170.174344 607.219579,170.961678 C606.803579,171.749678 606.377913,172.532011 605.942579,173.308678 C605.507246,174.086011 605.062246,174.857678 604.607579,175.623678 C604.152913,176.389678 603.689246,177.150011 603.216579,177.904678 C602.743246,178.659344 602.260579,179.408011 601.768579,180.150678 C601.276579,180.892678 600.775579,181.629011 600.265579,182.359678 C599.755579,183.089678 599.236579,183.813344 598.708579,184.530678 C598.180579,185.248011 597.643579,185.958678 597.097579,186.662678 C596.552246,187.366678 595.998246,188.063678 595.435579,188.753678 C594.872246,189.444344 594.300913,190.127678 593.721579,190.803678 C593.141579,191.479678 592.553246,192.148344 591.956579,192.809678 C591.360579,193.471678 590.756246,194.126011 590.143579,194.772678 C589.530913,195.418678 588.910246,196.057344 588.281579,196.688678 C587.653579,197.320011 587.017579,197.943344 586.373579,198.558678 C585.729579,199.174011 585.078246,199.781344 584.419579,200.380678 C583.760246,200.980011 583.093913,201.571011 582.420579,202.153678 C581.747246,202.737011 581.066579,203.311678 580.378579,203.877678 C579.690579,204.443011 578.995913,205.000344 578.294579,205.549678 C577.593246,206.098344 576.884913,206.638011 576.169579,207.168678 C575.454913,207.700011 574.733579,208.222344 574.005579,208.735678 C573.277579,209.249011 572.543246,209.753344 571.802579,210.248678 C571.062579,210.743344 570.316246,211.229011 569.563579,211.705678 C568.810913,212.182344 568.052579,212.649678 567.288579,213.107678 C566.524579,213.565678 565.755246,214.014011 564.980579,214.452678 C564.205246,214.891344 563.424579,215.320344 562.638579,215.739678 C561.853246,216.159011 561.062579,216.568678 560.266579,216.968678 C546.887579,223.769678 532.802579,227.876678 517.773579,228.585678 C513.965579,228.764678 508.494579,227.441678 504.995579,228.419678 C500.989579,218.690678 496.820579,209.450678 491.853579,200.162678 C495.363579,190.096678 505.560579,169.842678 504.596579,159.884678 C504.438579,158.254678 503.930579,157.552678 502.670579,156.571678 C497.878579,155.757678 485.524579,166.060678 480.980579,169.133678 Z"/><path fill="#313945" fill-rule="nonzero" d="M367.139579,253.616678 C373.510579,253.882678 379.079579,255.405678 383.980579,259.719678 C391.615579,266.439678 395.437579,277.922678 395.876579,287.846678 C396.409579,299.878678 393.518579,312.935678 385.071579,321.962678 C379.478579,327.940678 372.845579,330.231678 364.844579,330.547678 C358.356579,330.298678 352.830579,328.887678 347.747579,324.574678 C339.797579,317.830678 336.659579,307.474678 335.997579,297.394678 C335.215579,285.506678 338.320579,272.696678 346.317579,263.609678 C352.024579,257.124678 358.572579,254.200678 367.139579,253.616678 Z"/><path fill="#FFF" fill-rule="nonzero" d="M372.951579,271.864678 C374.330579,272.005678 375.892579,272.198678 377.171579,272.741678 C379.344579,273.663678 380.969579,275.695678 381.823579,277.847678 C381.940246,278.149678 382.041579,278.456344 382.127579,278.767678 C382.214246,279.079678 382.285246,279.394678 382.340579,279.712678 C382.396579,280.031344 382.436913,280.352011 382.461579,280.674678 C382.485579,280.997344 382.493913,281.320344 382.486579,281.643678 C382.479246,281.967011 382.456246,282.289011 382.417579,282.609678 C382.379579,282.931011 382.325579,283.249678 382.255579,283.565678 C382.185579,283.881011 382.100579,284.192344 382.000579,284.499678 C381.900579,284.807678 381.785579,285.109678 381.655579,285.405678 C380.450579,288.151678 378.666579,289.341678 375.964579,290.422678 C374.397579,290.416678 372.698579,290.394678 371.236579,289.761678 C369.126579,288.849678 367.499579,286.882678 366.726579,284.748678 C365.826579,282.262678 366.050579,279.470678 367.170579,277.093678 C368.436579,274.407678 370.231579,272.925678 372.951579,271.864678 Z"/><path fill="#313945" fill-rule="nonzero" d="M183.376579,249.502678 C189.365579,249.113678 195.084579,250.418678 199.969579,254.022678 C207.359579,259.473678 211.392579,268.934678 212.783579,277.781678 C214.665579,289.748678 212.174579,302.969678 204.881579,312.790678 C200.257579,319.016678 194.309579,322.662678 186.630579,323.764678 C181.479579,324.249678 175.940579,322.800678 171.677579,319.914678 C163.616579,314.458678 159.185579,304.584678 157.609579,295.254678 C155.626579,283.511678 157.943579,270.596678 164.962579,260.830678 C169.586579,254.396678 175.585579,250.824678 183.376579,249.502678 Z"/><path fill="#FFF" fill-rule="nonzero" d="M192.499579,267.872678 C193.766579,267.913678 195.149579,268.216678 196.330579,268.676678 C198.757579,269.620678 200.628579,271.873678 201.486579,274.285678 C202.372579,276.777678 202.265579,279.702678 201.119579,282.094678 C199.825579,284.796678 198.042579,286.002678 195.295579,286.998678 C194.129579,286.897678 192.910579,286.767678 191.779579,286.456678 C189.611579,285.859678 187.727579,283.880678 186.734579,281.930678 C185.473579,279.452678 185.355579,276.479678 186.285579,273.873678 C187.434579,270.650678 189.520579,269.264678 192.499579,267.872678 Z"/><path fill="#313945" fill-rule="nonzero" d="M368.110579,182.590678 C373.017579,181.858678 378.791579,182.947678 383.452579,184.488678 C393.297579,187.743678 403.189579,195.443678 407.824579,204.859678 C409.574579,208.415678 411.135579,213.181678 409.844579,217.077678 C409.390579,217.397678 409.025579,217.844678 408.439579,217.797678 C404.140579,217.447678 399.538579,209.322678 396.886579,206.188678 C386.601579,195.374678 372.863579,190.482678 358.339579,195.264678 C355.636579,196.154678 351.709579,198.960678 348.864579,198.231678 C347.508579,197.884678 347.277579,197.392678 346.617579,196.286678 C346.366579,193.582678 347.373579,191.301678 349.117579,189.242678 C352.923579,184.750678 362.609579,183.223678 368.110579,182.590678 Z M183.585579,180.480678 C184.164913,180.430011 184.745246,180.393678 185.326579,180.371678 C185.907913,180.349678 186.489246,180.342011 187.070579,180.348678 C187.652579,180.355344 188.233579,180.376011 188.813579,180.410678 C189.394246,180.446011 189.973579,180.495344 190.551579,180.558678 C191.130246,180.622678 191.706579,180.700678 192.280579,180.792678 C192.855246,180.884011 193.426913,180.989678 193.995579,181.109678 C194.564913,181.229678 195.130913,181.363678 195.693579,181.511678 C196.256246,181.659011 196.814913,181.820344 197.369579,181.995678 C197.924246,182.171011 198.474246,182.359678 199.019579,182.561678 C199.564913,182.763678 200.104913,182.979011 200.639579,183.207678 C201.174246,183.437011 201.702913,183.679011 202.225579,183.933678 C202.748913,184.188344 203.265246,184.455678 203.774579,184.735678 C204.284579,185.015678 204.787246,185.308011 205.282579,185.612678 C205.777913,185.917344 206.265579,186.234011 206.745579,186.562678 C207.225579,186.891344 207.696913,187.231678 208.159579,187.583678 C208.622913,187.935678 209.077246,188.298678 209.522579,188.672678 C210.931579,189.869678 212.381579,191.508678 212.252579,193.497678 C212.148579,195.113678 211.124579,196.516678 209.858579,197.427678 C206.201579,198.041678 202.033579,195.037678 198.744579,193.531678 C190.402579,189.708678 182.305579,190.937678 174.095579,194.039678 C171.284579,195.306678 168.603579,196.740678 166.181579,198.659678 C163.114579,201.089678 157.890579,208.239678 154.287579,208.651678 C153.392579,207.926678 152.921579,207.601678 152.777579,206.347678 C152.442579,203.415678 155.055579,199.604678 156.669579,197.279678 C162.978579,188.190678 172.814579,182.399678 183.585579,180.480678 Z"/><path fill="#D25D5A" fill-rule="nonzero" d="M122.109579,423.104678 C161.255579,420.870678 194.651579,440.012678 214.504579,473.506678 C216.420579,476.737678 223.146579,492.075678 225.699579,493.128678 C230.906579,490.210678 235.172579,482.239678 239.271579,477.741678 C242.441579,474.263678 246.032579,471.083678 249.674579,468.108678 C272.279579,449.643678 301.271579,439.312678 330.562579,442.349678 C354.249579,444.806678 377.758579,455.742678 392.921579,474.430678 C405.667579,490.138678 415.115579,513.173678 412.703579,533.718678 C410.653579,551.178678 378.548579,567.679678 365.264579,578.076678 C355.294579,575.787678 345.101579,574.832678 334.925579,576.460678 C327.852579,577.592678 320.001579,580.406678 315.752579,586.519678 C312.002579,591.915678 312.607579,597.750678 313.688579,603.827678 C310.404579,604.854678 307.186579,605.896678 304.100579,607.439678 C298.684579,610.147678 293.605579,614.317678 291.747579,620.290678 C290.115579,625.536678 291.559579,629.632678 293.977579,634.243678 C290.733579,638.515678 288.517579,642.317678 289.102579,647.936678 C290.026579,656.798678 296.449579,663.149678 302.999579,668.408678 C307.352579,675.276678 311.230579,679.124678 317.950579,683.680678 C307.989579,691.564678 296.324579,697.967678 285.259579,704.135678 C259.130579,718.702678 231.287579,733.442678 202.199579,741.003678 C193.307579,736.479678 184.911579,728.523678 177.291579,722.117678 C140.237579,690.963678 98.0015792,649.044678 73.0515792,607.740678 C78.0865792,604.081678 83.0305792,600.296678 85.7925792,594.532678 C89.5215792,586.747678 87.7405792,579.311678 84.8855792,571.695678 C85.5635792,568.793678 86.3855792,565.799678 86.6205792,562.822678 C87.2325792,555.077678 85.0065792,548.983678 80.0125792,543.164678 C80.6235792,541.458678 81.1035792,539.712678 81.2595792,537.898678 C81.8015792,531.596678 79.3255792,525.339678 75.2025792,520.644678 C67.4695792,511.840678 55.7695792,510.034678 44.6975792,509.266678 C43.8425792,489.115678 51.5295792,468.470678 64.3195792,452.987678 C79.0375792,435.169678 99.2815792,425.309678 122.109579,423.104678 Z"/><path fill="#FAC3B7" fill-rule="nonzero" d="M108.080579,215.999678 C99.7495792,214.012678 92.2285792,210.829678 84.8935792,206.393678 C60.5345792,191.661678 43.9575792,166.019678 37.3285792,138.649678 C30.2145792,109.277678 33.1905792,75.0356778 49.2315792,48.9974778 C58.9515792,33.2184778 74.0975792,19.9085778 92.4615792,15.6044778 C111.855579,11.0590778 131.623579,15.1833778 148.390579,25.6278778 C179.582579,45.0584778 192.311579,74.7956778 200.400579,109.066678 C188.800579,115.308678 177.950579,121.996678 168.013579,130.742678 C166.537579,114.160678 163.580579,98.2996778 157.617579,82.7216778 C150.162579,63.2486778 136.468579,43.2501778 116.793579,34.6207778 C105.203579,29.5378778 91.7975792,28.6885778 79.9305792,33.3714778 C71.0935792,36.8585778 63.7645792,42.6488778 59.8875792,51.4618778 C60.8635792,52.5673778 60.8525792,52.6714778 62.2875792,52.9242778 C65.9325792,51.9289778 69.4755792,48.5368778 72.7705792,46.5787778 C86.4565792,38.4450778 100.905579,37.6333778 114.853579,45.6663778 C134.122579,56.7636778 145.452579,79.3226778 150.845579,100.129678 C154.228579,113.181678 155.646579,126.438678 157.016579,139.820678 C137.793579,160.255678 123.235579,181.619678 111.549579,207.175678 C110.204579,210.023678 109.184579,213.049678 108.080579,215.999678 Z"/><path fill="#F2F2F4" fill-rule="nonzero" d="M108.080579,215.999678 C99.7495792,214.012678 92.2285792,210.829678 84.8935792,206.393678 C60.5345792,191.661678 43.9575792,166.019678 37.3285792,138.649678 C30.2145792,109.277678 33.1905792,75.0356778 49.2315792,48.9974778 C58.9515792,33.2184778 74.0975792,19.9085778 92.4615792,15.6044778 C111.855579,11.0590778 131.623579,15.1833778 148.390579,25.6278778 C179.582579,45.0584778 192.311579,74.7956778 200.400579,109.066678 C188.800579,115.308678 177.950579,121.996678 168.013579,130.742678 C166.537579,114.160678 163.580579,98.2996778 157.617579,82.7216778 C150.162579,63.2486778 136.468579,43.2501778 116.793579,34.6207778 C105.203579,29.5378778 91.7975792,28.6885778 79.9305792,33.3714778 C71.0935792,36.8585778 63.7645792,42.6488778 59.8875792,51.4618778 L59.5515792,52.1996778 C57.5315792,56.5726778 54.5085792,60.3866778 52.5695792,64.8856778 C40.9025792,91.9596778 39.3125792,120.889678 49.3965792,148.767678 C57.6055792,171.458678 74.4575792,192.137678 96.5785792,202.392678 C101.401579,204.627678 106.387579,205.980678 111.549579,207.175678 C110.204579,210.023678 109.184579,213.049678 108.080579,215.999678 Z"/><path fill="#FAC3B7" fill-rule="nonzero" d="M658.485579,481.603678 C666.349579,480.528678 676.208579,482.048678 683.741579,484.421678 C701.978579,490.167678 718.290579,504.293678 727.014579,521.219678 C731.673579,530.259678 734.084579,539.808678 733.603579,549.993678 C733.514579,551.868678 733.516579,554.477678 732.748579,556.184678 C732.531579,556.666678 732.209579,557.368678 731.689579,557.610678 L732.155579,557.164678 L730.762579,556.934678 C727.812579,551.891678 726.755579,545.818678 723.832579,540.688678 C715.214579,525.562678 701.172579,513.701678 684.214579,509.131678 C670.276579,505.375678 655.710579,506.508678 643.092579,513.791678 C632.648579,519.820678 624.904579,529.030678 620.186579,540.070678 C603.042579,580.187678 631.290579,615.412678 639.817579,653.260678 C640.323579,655.482678 640.761913,657.718011 641.132579,659.966678 C641.503246,662.215344 641.806246,664.473344 642.041579,666.740678 C642.276246,669.007344 642.442579,671.279344 642.540579,673.556678 C642.637913,675.833344 642.666913,678.111011 642.627579,680.389678 C642.588246,682.669011 642.480246,684.944678 642.303579,687.216678 C642.126246,689.488678 641.880913,691.753344 641.567579,694.010678 C641.254246,696.268678 640.873246,698.514678 640.424579,700.748678 C639.975913,702.983344 639.460246,705.202344 638.877579,707.405678 C638.685579,708.127678 638.484579,708.847011 638.274579,709.563678 C638.064579,710.280344 637.845579,710.994344 637.617579,711.705678 C637.389579,712.417011 637.152913,713.125678 636.907579,713.831678 C636.662913,714.537011 636.409246,715.239344 636.146579,715.938678 C635.883913,716.638011 635.612579,717.333678 635.332579,718.025678 C635.052579,718.718344 634.763913,719.407344 634.466579,720.092678 C634.169913,720.778011 633.864579,721.459678 633.550579,722.137678 C633.236579,722.815678 632.914246,723.489344 632.583579,724.158678 C632.253579,724.828678 631.914913,725.494344 631.567579,726.155678 C631.220246,726.817011 630.864913,727.474011 630.501579,728.126678 C630.138913,728.779344 629.767579,729.427344 629.387579,730.070678 C629.008246,730.714011 628.621246,731.352678 628.226579,731.986678 C627.831246,732.620678 627.428246,733.249678 627.017579,733.873678 C626.606913,734.497678 626.188246,735.116344 625.761579,735.729678 C625.335579,736.343011 624.901913,736.951011 624.460579,737.553678 C624.019913,738.156344 623.571579,738.753678 623.115579,739.345678 C622.659579,739.937011 622.196246,740.522678 621.725579,741.102678 C621.255579,741.683344 620.777913,742.257678 620.292579,742.825678 C619.807913,743.394344 619.316579,743.956678 618.818579,744.512678 C618.319913,745.068678 617.814246,745.618678 617.301579,746.162678 C616.789579,746.706011 616.270913,747.243011 615.745579,747.773678 C615.219579,748.304344 614.687579,748.828678 614.149579,749.346678 C613.610913,749.864011 613.065913,750.374678 612.514579,750.878678 C611.963246,751.382678 611.405913,751.880011 610.842579,752.370678 C610.279246,752.860678 609.709913,753.344011 609.134579,753.820678 C608.558579,754.296678 607.977246,754.765678 607.390579,755.227678 C606.803246,755.689011 606.210579,756.143344 605.612579,756.590678 C605.013913,757.038011 604.409913,757.477678 603.800579,757.909678 C603.191246,758.341678 602.576913,758.766011 601.957579,759.182678 C601.337579,759.600011 600.712579,760.009344 600.082579,760.410678 C599.452579,760.812011 598.817913,761.205678 598.178579,761.591678 C597.539246,761.977011 596.894913,762.354678 596.245579,762.724678 C570.762579,777.130678 540.918579,778.224678 513.178579,770.626678 C485.405579,762.227678 463.057579,744.485678 444.349579,722.837678 C444.796579,710.263678 444.679579,697.840678 444.339579,685.266678 C447.216913,688.954011 450.193913,692.559011 453.270579,696.081678 C456.347913,699.603678 459.519913,703.038011 462.786579,706.384678 C466.053913,709.731344 469.411579,712.985011 472.859579,716.145678 C476.306913,719.306344 479.839246,722.369011 483.456579,725.333678 C502.785579,741.194678 527.050579,754.034678 552.776579,751.395678 C571.187579,749.505678 588.391579,740.897678 600.092579,726.395678 C609.049579,715.295678 614.189579,702.540678 615.962579,688.406678 C621.525579,644.058678 596.340579,617.018678 592.105579,575.957678 C589.590579,551.574678 595.049579,526.209678 610.917579,507.008678 C623.220579,492.121678 639.272579,483.376678 658.485579,481.603678 Z"/><path fill="#487598" fill-rule="nonzero" d="M430.762579,676.505678 L432.237579,676.558678 C432.907579,677.813678 432.876579,679.062678 432.884579,680.446678 C432.953579,691.258678 432.167579,702.242678 431.988579,713.087678 C431.639913,741.727678 431.476579,770.368344 431.498579,799.009678 C430.476579,799.497011 429.443579,799.959011 428.399579,800.395678 C401.896579,811.422678 361.218579,812.440678 334.992579,801.481678 C332.758579,791.262678 332.647579,780.490678 330.885579,770.150678 C330.149579,760.720678 325.687579,730.552678 320.100579,724.164678 C313.937579,717.116678 297.248579,717.524678 288.396579,716.735678 C301.728579,707.436678 316.538579,700.768678 329.207579,690.329678 C340.299579,690.613678 350.873579,691.561678 361.745579,688.467678 C366.212579,687.195678 370.286579,684.423678 374.898579,683.688678 C380.359579,682.817678 386.175579,683.407678 391.713579,682.935678 C404.973579,681.804678 417.833579,679.610678 430.762579,676.505678 Z"/><path fill="#7A7BBE" fill-rule="nonzero" d="M442.029579,463.018678 C442.998579,462.946678 443.951579,462.868678 444.921579,462.975678 C449.017579,463.429678 452.366579,466.758678 454.813579,469.838678 C459.404579,475.616678 462.930579,482.456678 466.037579,489.121678 C476.203579,510.925678 482.179579,534.948678 479.446579,559.101678 C476.010579,589.467678 458.483579,617.549678 434.798579,636.453678 C429.421579,640.744678 411.275579,652.682678 405.191579,651.995678 L405.202579,651.220678 C408.276579,641.953678 408.243579,631.087678 406.327579,621.583678 C403.021579,605.189678 394.397579,591.411678 380.428579,582.171678 C396.748579,570.378678 419.364579,559.186678 424.436579,537.939678 C429.064579,518.547678 420.658579,494.332678 410.570579,477.974678 C420.670579,472.593678 430.546579,464.991678 442.029579,463.018678 Z"/><path fill="#487598" fill-rule="nonzero" d="M278.202579,722.337678 C282.703579,725.844678 287.389579,726.686678 292.859579,727.669678 C290.934913,742.834344 289.233913,758.024011 287.756579,773.238678 C286.908579,782.444678 286.657579,791.942678 285.155579,801.053678 C261.212579,808.702678 233.569579,807.710678 209.426579,802.029678 C204.931579,800.764678 200.696579,799.067678 196.465579,797.101678 C195.431579,791.283678 195.296579,785.198678 194.881579,779.308678 L192.835579,749.369678 C194.268579,750.105678 195.732579,750.898678 197.259579,751.420678 C213.562579,757.006678 262.460579,729.702678 278.202579,722.337678 Z"/><path fill="#F2F2F4" fill-rule="nonzero" d="M341.079579,588.082678 C351.014579,586.973678 364.447579,588.558678 373.458579,593.122678 C383.100579,598.004678 389.030579,608.284678 392.230579,618.250678 C395.840579,629.494678 396.402579,642.212678 390.768579,652.898678 C384.663579,664.479678 372.625579,672.000678 360.384579,675.701678 C346.600579,679.868678 333.472579,680.267678 320.568579,673.421678 C328.667579,673.505678 339.328579,673.990678 346.431579,669.435678 C347.481579,668.762678 347.997579,668.074678 348.307579,666.857678 C348.142579,665.888678 348.086579,665.348678 347.413579,664.580678 C345.173579,662.022678 332.257579,663.922678 328.502579,663.767678 L327.688579,663.730678 C322.458579,663.103678 317.452579,662.212678 312.643579,659.959678 C307.456579,657.529678 302.978579,653.919678 301.180579,648.238678 C300.702579,646.730678 300.769579,645.828678 301.507579,644.453678 C302.593579,643.824678 303.429579,643.729678 304.654579,643.837678 C307.689579,644.105678 310.793579,645.050678 313.791579,645.630678 C315.550246,645.976678 317.319579,646.253344 319.099579,646.460678 C320.880246,646.667344 322.666246,646.804011 324.457579,646.870678 C326.248246,646.936678 328.039246,646.932344 329.830579,646.857678 C331.621246,646.783011 333.406246,646.638011 335.185579,646.422678 C338.583579,645.976678 345.244579,644.397678 347.031579,641.225678 C347.747579,639.954678 347.510579,639.385678 347.165579,638.088678 C343.324579,634.309678 328.283579,636.358678 322.423579,635.885678 C317.135579,635.459678 307.390579,634.202678 303.960579,629.755678 C302.914579,628.399678 302.591579,626.747678 302.925579,625.078678 C306.220579,608.581678 336.959579,617.755678 344.452579,610.646678 C345.484579,609.667678 345.560579,609.275678 345.754579,607.949678 C343.048579,603.126678 331.119579,604.953678 326.279579,602.360678 C325.028579,601.690678 323.675579,599.984678 323.399579,598.573678 C323.128579,597.185678 323.427579,596.211678 324.212579,595.064678 C327.499579,590.255678 335.730579,588.745678 341.079579,588.082678 Z M200.260579,812.828678 C207.065579,813.899678 213.720579,815.982678 220.547579,817.104678 C239.988579,820.298678 259.906579,819.318678 279.218579,815.755678 C279.455579,818.916678 279.646579,822.135678 279.527579,825.305678 C279.083579,837.068678 274.920579,847.072678 266.142579,855.043678 C249.527579,870.132678 221.052579,873.966678 199.537579,872.849678 C198.798579,865.682678 199.673579,858.618678 204.773579,853.096678 C207.008579,850.675678 209.596579,848.514678 211.583579,845.875678 C212.575579,844.557678 213.903579,842.771678 213.683579,841.054678 L212.917579,840.497678 C209.669579,840.200678 206.632579,841.308678 203.697579,842.560678 C202.940246,842.974011 202.204579,843.422678 201.490579,843.906678 C200.775913,844.391344 200.086913,844.909011 199.423579,845.459678 C198.759579,846.011011 198.123579,846.593011 197.515579,847.205678 C196.908246,847.818344 196.331913,848.459011 195.786579,849.127678 C190.185579,855.899678 188.373579,863.526678 189.207579,872.174678 C183.910579,871.436678 176.607579,870.948678 171.915579,868.215678 C170.543579,867.416678 170.031579,866.387678 169.679579,864.880678 C167.124579,853.932678 174.436579,846.123678 182.026579,839.712678 C183.568579,838.409678 185.928579,836.840678 186.834579,835.005678 C187.190579,834.284678 186.930579,834.015678 186.723579,833.304678 C186.116579,832.960678 185.583579,832.692678 184.871579,832.649678 C179.541579,832.328678 172.415579,836.566678 168.583579,840.155678 C161.750579,846.556678 159.904579,854.062678 159.653579,863.162678 C157.261579,860.890678 154.860579,858.382678 153.187579,855.522678 C150.961579,851.718678 150.162579,847.610678 151.388579,843.321678 C156.744579,824.591678 185.630579,820.847678 200.260579,812.828678 Z M422.702579,815.501678 C424.135579,816.532678 424.708579,818.801678 425.267579,820.445678 C429.474579,832.813678 433.567579,853.060678 427.035579,865.303678 C423.062579,872.751678 412.922579,875.592678 405.460579,877.848678 C406.192579,875.494678 406.762246,873.101678 407.169579,870.669678 C408.494579,862.943678 407.488579,851.970678 402.591579,845.595678 C401.543579,844.232678 400.659579,843.760678 398.992579,843.490678 C398.561579,843.680678 397.974579,843.678678 397.699579,844.060678 C395.970579,846.470678 397.892579,861.585678 397.676579,865.485678 C397.406579,870.366678 396.603579,874.943678 394.650579,879.432678 L394.356579,880.094678 C388.483579,881.351678 381.385579,881.376678 375.425579,880.837678 C371.916579,880.520678 368.450579,879.580678 366.218579,876.661678 C362.408579,871.678678 362.803579,863.418678 363.419579,857.509678 C363.963579,854.982678 364.612579,852.395678 364.966579,849.836678 C365.209579,848.074678 365.142579,845.545678 363.979579,844.119678 C363.418579,843.430678 363.022579,843.604678 362.204579,843.519678 C360.261579,844.379678 359.057579,845.826678 357.964579,847.611678 C352.579579,856.409678 353.181579,868.016678 355.329579,877.665678 C354.420913,877.306344 353.518913,876.931011 352.623579,876.539678 C345.850579,873.602678 340.379579,869.138678 337.732579,862.031678 C332.983579,849.278678 338.764579,830.043678 344.107579,818.271678 C370.430579,823.578678 396.839579,822.898678 422.702579,815.501678 Z M42.5725792,522.095678 C49.5625792,521.740678 57.4225792,522.265678 63.3975792,526.286678 C67.9485792,529.348678 69.1995792,532.841678 70.1315792,537.949678 C69.9345792,537.918678 69.7375792,537.883678 69.5405792,537.855678 C56.5875792,535.993678 40.9625792,538.805678 30.4565792,547.023678 C28.8215792,548.301678 26.7595792,549.948678 26.6385792,552.202678 C26.5965792,552.981678 26.9915792,553.108678 27.4855792,553.633678 C32.7975792,555.116678 40.3985792,551.100678 45.6115792,549.825678 C49.7085792,548.822678 53.9625792,548.129678 58.1795792,547.934678 C62.4545792,547.736678 68.8055792,547.689678 72.0165792,550.904678 C75.4805792,554.371678 74.8865792,560.924678 74.8225792,565.402678 C63.1435792,565.251678 49.0765792,567.526678 39.1645792,574.107678 C36.6605792,575.769678 34.3555792,577.797678 33.7385792,580.839678 C34.0145792,581.627678 33.9455792,582.031678 34.7345792,582.456678 C36.7045792,583.519678 38.8795792,582.840678 40.9195792,582.345678 C45.0515792,581.069678 49.1845792,579.740678 53.3555792,578.597678 C59.1325792,577.013678 69.0235792,574.765678 74.4365792,578.113678 C75.8225792,578.971678 76.6295792,580.143678 76.9555792,581.756678 C77.5945792,584.914678 75.2405792,589.179678 73.4265792,591.576678 C68.1235792,598.583678 58.8415792,602.515678 50.2965792,603.479678 C42.4525792,604.364678 34.8775792,602.191678 28.7355792,597.194678 C19.4275792,589.621678 14.1435792,577.127678 12.9495792,565.399678 C11.8075792,554.182678 13.0015792,541.738678 20.5045792,532.763678 C26.3635792,525.756678 33.7565792,522.971678 42.5725792,522.095678 Z"/><path fill="#7A7BBE" fill-rule="nonzero" d="M450.481579,422.878678 C453.573579,424.421678 457.558579,430.147678 459.532579,433.095678 C465.925579,442.644678 466.919579,451.371678 464.697579,462.454678 C459.906579,457.980678 455.467579,453.438678 448.801579,451.923678 C436.151579,449.046678 422.495579,458.463678 412.289579,464.689678 C410.019579,465.964678 407.834579,467.552678 405.654579,468.983678 C399.854579,464.756678 395.152579,458.112678 389.577579,453.361678 C411.833579,446.185678 430.848579,435.371678 450.481579,422.878678 Z"/><path fill="#E1A39E" fill-rule="nonzero" d="M325.649579,387.890678 C326.308579,392.030678 320.524579,403.180678 318.310579,406.817678 C310.934579,403.654678 304.133579,401.937678 296.054579,402.021678 C277.782579,402.210678 265.587579,409.706678 253.178579,422.334678 C251.314579,419.857678 249.821579,417.375678 248.374579,414.635678 C245.008579,409.268678 243.418579,402.548678 241.808579,396.479678 C248.834579,396.607678 253.534579,395.467678 260.100579,392.966678 C265.707579,394.151678 271.201579,395.848678 276.870579,396.743678 C293.762579,399.411678 310.624579,395.827678 325.649579,387.890678 Z"/><path fill="#FAC3B7" fill-rule="nonzero" d="M254.049579,333.107678 C259.835579,332.868678 267.452579,333.343678 272.331579,336.703678 C274.196579,337.987678 275.581579,339.770678 275.950579,342.041678 C276.463579,345.212678 274.963579,348.347678 273.141579,350.841678 C268.989579,356.523678 262.655579,359.692678 255.841579,360.732678 C250.480579,360.762678 245.551579,358.967678 241.300579,355.707678 C237.738579,352.974678 233.651579,348.377678 233.182579,343.704678 C232.981579,341.704678 233.536579,339.777678 234.890579,338.280678 C239.105579,333.622678 248.241579,333.511678 254.049579,333.107678 Z M293.180579,411.110678 C297.563579,410.907678 302.401579,411.289678 306.690579,412.185678 C308.599579,412.583678 309.919579,413.043678 311.026579,414.752678 C311.211579,416.172678 311.013579,417.047678 310.238579,418.236678 C304.163579,427.562678 291.651579,432.821678 281.183579,434.864678 C276.389579,435.236678 266.371579,435.188678 262.551579,431.974678 C261.630579,431.198678 261.005579,430.248678 261.031579,428.996678 C261.062579,427.416678 262.284579,425.758678 263.253579,424.608678 C270.675579,415.803678 282.086579,412.042678 293.180579,411.110678 Z"/><path fill="#7A7BBE" fill-rule="nonzero" d="M449.014579,639.893678 C449.837579,641.761678 450.415579,643.632678 450.707579,645.662678 C451.150579,648.731678 450.252579,651.752678 448.359579,654.187678 C440.228579,664.647678 408.256579,669.040678 394.699579,670.524678 L393.910579,670.371678 L394.352579,670.626678 L392.959579,669.346678 C398.558579,665.785678 405.235579,665.768678 411.266579,663.383678 C427.206579,657.078678 436.127579,651.278678 449.014579,639.893678 Z M221.528579,463.278678 C225.527579,464.530678 229.493579,465.463678 233.604579,466.268678 L230.249579,469.804678 L227.517579,473.047678 L221.528579,463.278678 Z"/><path stroke="#313945" stroke-width="10" d="M326.624985,783.433172 C360.236369,792.21878 395.657659,792.21878 432.888857,783.433172 M185.701558,780.608985 C218.137044,786.805387 252.368718,787.903588 288.396579,783.903588"/></g></svg>