<svg xmlns="http://www.w3.org/2000/svg" width="646" height="872" viewBox="0 0 646 872"><g fill="none" transform="translate(.221 .094)"><path fill="#313945" d="M110.94971,0.107207753 C130.98071,-1.15159225 153.39771,8.84460775 168.66571,21.1653078 C191.99271,39.9889078 207.76471,70.5390078 210.97571,100.326008 C215.84071,98.2560078 221.47371,97.2220078 226.05371,94.6860078 C226.01871,94.3390078 225.99971,94.0090078 225.87871,93.6730078 C225.40571,92.3580078 224.93671,91.6700078 224.95671,90.1980078 C224.97771,88.6220078 225.62471,87.3850078 226.78371,86.3490078 C231.69771,81.9600078 245.71871,83.8140078 252.21571,83.9210078 C251.54971,82.6900078 250.86971,81.4430078 250.42171,80.1130078 C249.59471,77.6580078 249.52171,74.8800078 250.81571,72.5770078 C252.18571,70.1390078 254.65671,68.5620078 257.29971,67.8160078 C269.90971,64.2530078 294.99971,73.5730078 306.56271,79.3790078 C310.30871,81.2600078 313.77571,84.4490078 317.84971,85.5720078 C323.93571,87.2510078 330.73771,87.3170078 336.99771,88.5930078 C361.61971,93.6100078 380.62471,100.046008 402.37971,112.926008 C403.185043,110.324674 404.04671,107.742008 404.96471,105.178008 C405.882043,102.614008 406.85471,100.071008 407.88271,97.5490078 C408.91071,95.0270078 409.993043,92.5286744 411.12971,90.0540078 C412.266377,87.5793411 413.456377,85.1306744 414.69971,82.7080078 C415.942377,80.2846744 417.237377,77.8896744 418.58471,75.5230078 C419.932043,73.1563411 421.32971,70.8200078 422.77771,68.5140078 C424.226377,66.2080078 425.724377,63.9343411 427.27171,61.6930078 C428.819043,59.4523411 430.414377,57.2460078 432.05771,55.0740078 C452.02071,29.1706078 481.10571,7.03280775 514.29871,2.85010775 C536.27271,0.0811077529 556.99071,5.79700775 574.46571,19.3505078 C594.82071,35.1372078 606.18171,59.6680078 609.25871,84.9050078 C613.73671,121.632008 606.30671,158.707008 583.06271,188.194008 C559.12571,218.560008 528.97971,231.562008 491.43671,236.088008 C497.61371,260.055008 497.97271,283.846008 495.03571,308.284008 C500.92771,308.709008 510.78871,308.978008 515.05671,313.749008 C516.11371,314.930008 516.12271,315.655008 515.97771,317.114008 C515.57271,317.754008 515.18771,318.324008 514.56671,318.780008 C509.68971,322.364008 498.97371,320.488008 493.29571,319.749008 C489.61871,336.014008 481.39571,351.621008 472.08871,365.284008 C477.00971,367.896008 483.03771,370.579008 486.57271,375.055008 C487.79471,376.602008 488.48871,377.970008 488.28071,379.973008 C487.66171,381.077008 486.99771,381.660008 485.79871,382.069008 C479.13371,384.342008 469.64671,378.572008 463.72071,375.656008 C456.79071,381.589008 451.11171,388.605008 443.69971,394.072008 C444.95171,394.939341 446.16371,395.859008 447.33571,396.831008 C448.50771,397.803008 449.63571,398.823674 450.71971,399.893008 C451.80371,400.963008 452.839377,402.077674 453.82671,403.237008 C454.814043,404.396341 455.74971,405.596008 456.63371,406.836008 C466.72271,420.892008 468.04471,437.012008 465.37871,453.628008 C468.43371,460.389008 471.32671,466.853008 472.87171,474.159008 C478.23171,499.506008 473.77571,527.442008 462.24171,550.551008 C459.18371,556.678008 455.33471,562.331008 451.58871,568.049008 C451.89871,583.390008 457.87171,599.843008 455.08071,615.105008 C453.55671,623.435008 448.41371,627.028008 441.90471,631.586008 C442.61971,635.442008 442.56171,639.512008 442.54171,643.420008 C444.62571,647.009008 447.47071,650.251008 449.86871,653.648008 C455.10971,661.074008 460.10571,668.655008 465.44071,676.019008 C483.25371,700.607008 507.29771,728.835008 539.05371,733.715008 C551.53371,735.632008 564.88971,733.406008 575.18671,725.789008 C582.54871,720.344008 587.57171,712.948008 590.41271,704.281008 C603.99071,662.871008 561.53671,611.793008 541.11071,578.494008 C535.94371,570.071008 531.23771,560.767008 527.53771,551.594008 C519.88471,532.624008 517.03671,510.995008 520.09271,490.754008 C520.215377,489.891341 520.348377,489.030674 520.49171,488.172008 C520.63571,487.312674 520.790377,486.455341 520.95571,485.600008 C521.121043,484.744674 521.297043,483.891674 521.48371,483.041008 C521.670377,482.190341 521.867377,481.342008 522.07471,480.496008 C522.28271,479.650008 522.501043,478.807008 522.72971,477.967008 C522.958377,477.126341 523.19771,476.288674 523.44771,475.454008 C523.69771,474.619341 523.95771,473.788008 524.22771,472.960008 C524.498377,472.132008 524.779377,471.307674 525.07071,470.487008 C525.361377,469.666341 525.662377,468.849008 525.97371,468.035008 C526.285043,467.221674 526.60671,466.412341 526.93871,465.607008 C527.270043,464.801674 527.61171,464.000341 527.96371,463.203008 C528.315043,462.406341 528.676377,461.614008 529.04771,460.826008 C529.419043,460.038674 529.800377,459.255674 530.19171,458.477008 C530.582377,457.698341 530.983043,456.925008 531.39371,456.157008 C531.80371,455.388341 532.223377,454.625008 532.65271,453.867008 C533.082043,453.109674 533.52071,452.357341 533.96871,451.610008 C534.41671,450.863341 534.874043,450.122008 535.34071,449.386008 C535.807377,448.650674 536.283043,447.921341 536.76771,447.198008 C537.253043,446.474008 537.747043,445.756341 538.24971,445.045008 C538.752377,444.333674 539.26371,443.628674 539.78371,442.930008 C540.304377,442.232008 540.833377,441.540008 541.37071,440.854008 C541.908043,440.168674 542.454043,439.490341 543.00871,438.819008 C543.563377,438.147008 544.126377,437.482341 544.69771,436.825008 C545.269043,436.167008 545.848377,435.516341 546.43571,434.873008 C547.023043,434.230341 547.618043,433.594674 548.22071,432.966008 C548.824043,432.337341 549.435043,431.716674 550.05371,431.104008 C550.672377,430.490674 551.29871,429.885341 551.93271,429.288008 C552.56671,428.690674 553.208043,428.101008 553.85671,427.519008 C554.505377,426.937674 555.161043,426.364674 555.82371,425.800008 C556.486377,425.234674 557.156043,424.677674 557.83271,424.129008 C558.509377,423.581008 559.193043,423.041341 559.88371,422.510008 C560.57371,421.978674 561.270377,421.456008 561.97371,420.942008 C573.93271,412.184008 589.75871,404.564008 604.99371,407.178008 C609.26571,407.911008 613.27371,409.818008 615.77871,413.477008 C617.96871,416.676008 618.98771,420.830008 618.63571,424.677008 C617.06371,441.841008 597.00971,450.886008 586.38071,461.900008 C577.45971,471.144008 569.88371,482.768008 567.27371,495.504008 C560.85871,526.819008 587.70271,560.839008 604.21271,585.495008 C633.255506,627.828859 648.478543,660.353874 644.691796,696.276125 C641.304101,728.412844 634.14971,743.496008 614.58571,760.694008 C594.43971,778.404008 567.42371,785.303008 541.03371,783.559008 C497.52071,780.685008 467.80171,757.762008 440.43971,726.361008 C439.59571,732.275008 439.70871,738.452008 439.44971,744.418008 C439.063043,753.993341 438.546377,763.561341 437.89971,773.122008 C437.52071,779.006008 437.65171,785.318008 435.69171,790.936008 C434.80971,793.468008 433.24671,795.060008 431.43071,796.939008 C432.213377,798.411674 432.971043,799.897341 433.70371,801.396008 C439.57771,813.486008 441.95271,828.504008 437.37171,841.395008 C433.75171,851.583008 425.31271,859.221008 415.66671,863.716008 C395.98471,872.888008 368.87571,873.452008 348.58671,865.954008 C339.02871,862.423008 330.03171,856.311008 325.82571,846.695008 C318.55371,830.070008 324.64071,813.211008 331.02171,797.542008 C330.01571,797.051008 329.03071,796.533008 328.09471,795.918008 C324.93571,793.842008 322.68671,791.178008 321.32271,787.645008 C318.91071,781.399008 318.29071,774.300008 317.17171,767.712008 C315.965043,760.640674 314.662043,753.587341 313.26271,746.552008 C310.95871,734.870008 308.71471,723.147008 306.12771,711.524008 C304.54871,704.431008 302.47471,697.472008 301.12571,690.327008 C300.03971,706.560008 297.53671,723.058008 295.67371,739.239008 C294.19971,752.038008 293.37371,765.059008 291.58971,777.797008 C290.81671,783.316008 290.05771,787.418008 285.37371,790.946008 C288.51871,798.788008 289.57671,806.181008 287.66271,814.512008 C284.91771,826.462008 276.35071,834.721008 266.19271,840.922008 C240.55871,856.574008 195.94371,860.718008 166.96771,853.647008 C153.59271,850.382008 138.41271,844.688008 131.00071,832.225008 C130.75271,831.811674 130.515043,831.392341 130.28771,830.967008 C130.061043,830.542341 129.84471,830.112008 129.63871,829.676008 C129.433377,829.240008 129.23871,828.799008 129.05471,828.353008 C128.871377,827.907674 128.699043,827.457674 128.53771,827.003008 C128.377043,826.549008 128.227377,826.091008 128.08871,825.629008 C127.95071,825.167674 127.824043,824.703008 127.70871,824.235008 C127.594043,823.767008 127.49071,823.296341 127.39871,822.823008 C127.307377,822.349674 127.22771,821.874341 127.15971,821.397008 C127.09171,820.919674 127.03571,820.441008 126.99171,819.961008 C126.948377,819.481008 126.91671,819.000341 126.89671,818.519008 C126.87671,818.037674 126.86871,817.556008 126.87271,817.074008 C126.87671,816.592008 126.89271,816.110341 126.92071,815.629008 C126.94871,815.147674 126.989043,814.667341 127.04171,814.188008 C127.09371,813.709341 127.15771,813.232008 127.23371,812.756008 C127.30971,812.280008 127.397377,811.806008 127.49671,811.334008 C127.596043,810.862674 127.707377,810.394008 127.83071,809.928008 C132.43571,792.975008 148.98371,783.871008 164.33171,778.229008 C168.38771,776.738008 173.40771,776.182008 177.11871,774.089008 C177.23371,769.673008 176.41371,765.129008 175.97271,760.733008 C175.508043,755.777008 175.22171,750.810674 175.11371,745.834008 C174.07371,715.342008 173.420377,684.842008 173.15371,654.334008 C156.48471,654.760008 137.87071,653.627008 121.06571,653.115008 C108.09871,652.720008 94.47971,653.115008 81.61971,651.429008 C78.28371,650.992008 75.18971,650.168008 72.16671,648.651008 C68.88271,647.003008 65.89471,644.735008 63.72471,641.744008 C57.84371,633.639008 50.29871,606.118008 46.67871,595.280008 C40.13071,596.258008 33.98071,596.196008 28.16071,592.546008 C19.66571,587.218008 17.17771,577.993008 15.01171,568.879008 C11.36671,566.069008 8.09771003,563.084008 5.95471003,558.927008 C2.53171003,552.285008 3.43671003,545.211008 5.47671003,538.368008 C5.19804336,537.969341 4.9233767,537.568341 4.65271003,537.165008 C1.15371003,531.926008 -0.956289971,526.192008 0.430710029,519.849008 C2.44671003,510.628008 10.04771,506.038008 17.34771,501.309008 C13.48771,491.360008 1.83971003,458.653008 1.75871003,449.115008 C1.71571003,444.031008 4.05871003,439.825008 7.70271003,436.378008 C15.85571,428.665008 29.45571,430.936008 39.88571,431.113008 C41.10371,428.125008 42.16471,425.136008 44.45571,422.774008 C48.81171,418.283008 55.05871,418.443008 60.85971,418.353008 C61.56271,414.530008 62.55071,410.707008 64.27771,407.209008 C67.32571,401.035008 72.35971,396.588008 78.92771,394.481008 C86.59571,392.021008 96.18271,392.319008 103.34371,396.157008 C112.35971,400.989008 115.10671,408.967008 117.91271,418.024008 C124.73871,418.107008 132.97071,417.379008 139.47871,419.515008 C145.44271,421.473008 148.04371,425.743008 150.64671,431.040008 C161.84471,430.749008 173.17671,431.902008 184.29371,430.198008 C178.68471,427.119008 172.93971,424.325008 167.42571,421.068008 C140.40271,405.101008 118.09171,384.676008 103.97671,356.241008 C97.76071,356.369008 73.64371,361.057008 70.27471,359.613008 C68.81771,358.988008 67.47271,357.707008 67.06571,356.136008 C66.68971,354.686008 67.43271,353.020008 68.32071,351.894008 C73.83571,344.900008 91.03371,344.219008 99.25771,343.225008 C95.74771,333.259008 93.56371,323.414008 91.91571,313.014008 C85.97271,312.724008 50.80871,311.203008 48.64071,309.740008 C47.49071,308.965008 46.59771,307.434008 46.51971,306.047008 C46.44571,304.741008 47.08671,303.734008 48.01771,302.896008 C55.13771,296.487008 80.98271,300.198008 90.94671,301.034008 C90.54071,274.936008 93.82271,250.688008 101.38871,225.662008 C90.38871,221.201008 80.66771,216.164008 71.54671,208.458008 C45.98571,186.861008 31.98171,155.123008 29.39171,122.113008 C26.85171,89.7360078 33.24071,53.0730078 54.85271,27.8471078 C69.52771,10.7179078 88.57071,1.77180775 110.94971,0.107207753 Z"/><path fill="#F2F2F4" d="M517.71571,18.1052078 C532.83971,17.0960078 547.18871,19.5575078 559.96071,28.1280078 C580.74171,42.0716078 591.23971,64.7890078 595.91871,88.6020078 C592.90671,83.4170078 590.54871,77.8930078 587.51771,72.7040078 C579.59971,59.1450078 567.33171,46.9110078 552.71771,40.7664078 C538.28171,34.6965078 522.63571,35.3521078 508.27471,41.3009078 C483.73771,51.4650078 467.87271,73.8970078 458.11771,97.7790078 C450.69771,115.947008 446.73971,134.851008 444.20971,154.246008 C443.62071,158.762008 441.92471,166.474008 444.08371,170.641008 C444.76971,171.965008 445.34371,172.355008 446.70271,172.881008 C453.64171,172.823008 462.78871,166.036008 468.72771,162.673008 C464.45771,172.623008 459.08571,186.591008 460.32471,197.617008 C460.99471,203.579008 467.44071,213.553008 469.82171,219.518008 C470.510377,221.239341 471.170377,222.971341 471.80171,224.714008 C472.43371,226.457341 473.036377,228.210341 473.60971,229.973008 C474.18371,231.735674 474.728377,233.507341 475.24371,235.288008 C475.759043,237.068674 476.245043,238.857341 476.70171,240.654008 C477.158377,242.451341 477.585043,244.255341 477.98171,246.066008 C478.379043,247.876674 478.746043,249.693341 479.08271,251.516008 C479.420043,253.339341 479.727043,255.167341 480.00371,257.000008 C480.280377,258.833341 480.527043,260.670674 480.74371,262.512008 C480.95971,264.352674 481.145377,266.196674 481.30071,268.044008 C481.45671,269.891341 481.58171,271.740674 481.67571,273.592008 C481.770377,275.444008 481.83471,277.296674 481.86871,279.150008 C481.902043,281.003341 481.90471,282.857008 481.87671,284.711008 C481.849377,286.564341 481.791377,288.417008 481.70271,290.269008 C481.614043,292.120341 481.49471,293.970008 481.34471,295.818008 C481.195377,297.666008 481.015377,299.510674 480.80471,301.352008 C480.59471,303.194008 480.354043,305.032008 480.08271,306.866008 C459.51971,306.849008 444.03071,307.995008 423.89871,312.441008 C416.43171,314.090008 400.55871,318.057008 396.29471,324.735008 C396.16071,325.955008 395.99671,326.518008 396.96171,327.488008 C398.85771,329.396008 402.54171,328.406008 404.80971,327.812008 C409.45771,326.595008 414.04371,324.976008 418.72171,323.917008 C438.07571,319.535008 457.35671,318.813008 477.09871,318.984008 C472.26071,333.547008 466.17571,346.578008 457.85271,359.440008 C454.21871,358.536674 450.577043,357.665341 446.92771,356.826008 C437.09571,354.611008 401.65671,347.958008 394.09371,353.379008 C392.85371,354.267008 392.45771,355.146008 392.23971,356.607008 C393.33871,358.285008 394.54971,358.798008 396.47471,359.280008 C401.87471,360.632008 410.96771,361.168008 416.97571,362.115008 C428.02171,363.856008 438.91371,366.430008 449.80271,368.945008 C423.82171,397.347008 388.72371,415.556008 351.97171,425.730008 C347.49171,426.962008 342.968043,428.004341 338.40071,428.857008 C333.25571,429.777008 327.19571,430.060008 322.43171,432.234008 C316.83671,434.786008 307.03371,444.373008 301.01771,448.659008 C292.17971,454.670008 282.45371,461.435008 272.03071,464.123008 C264.54271,461.510008 261.77371,455.781008 255.87271,451.378008 C249.85871,446.891008 241.90071,445.075008 235.51871,440.711008 C230.59971,437.348008 227.51571,431.549008 222.54671,428.636008 C218.31671,426.156008 213.04071,425.079008 208.36671,423.659008 C172.38171,412.726008 137.85071,387.528008 120.00271,354.090008 C122.603377,353.944674 125.20271,353.780008 127.80071,353.596008 C131.56971,353.315008 137.19071,353.168008 139.79571,350.123008 C139.81271,349.128008 139.75071,349.044008 139.08871,348.329008 C134.30971,343.168008 121.03971,343.797008 114.44971,343.778008 C110.97971,334.672008 108.75971,325.199008 106.86871,315.662008 C115.02271,317.110008 123.60471,319.974008 131.76471,320.764008 C133.69271,320.950008 134.88271,321.102008 136.42071,319.850008 C136.82071,318.402008 136.95271,317.080008 136.19171,315.730008 C132.86971,309.835008 112.40871,305.299008 105.55371,303.583008 C102.96571,272.950008 111.40571,238.858008 122.88271,210.686008 C139.89771,168.922008 170.80371,134.785008 211.95071,115.686008 C217.54571,113.090008 223.70771,110.959008 229.60771,109.227008 C233.65971,108.038008 238.11371,107.128008 241.95271,105.365008 C243.38571,104.707008 244.50871,104.236008 244.83771,102.548008 C245.31871,100.073008 243.29971,97.7740078 241.90371,95.9990078 C249.04671,95.8550078 257.42771,95.8310078 264.27071,98.1200078 C267.36171,99.1540078 270.44671,101.066008 273.58771,101.796008 C274.80671,102.079008 274.96071,101.957008 275.97871,101.356008 C276.13471,100.882008 276.26671,100.580008 276.26771,100.048008 C276.28471,94.5910078 268.86471,86.3260078 265.28471,82.6230078 C278.30271,83.4280078 290.26471,87.4420078 301.56771,93.8630078 C305.02671,95.8280078 308.24271,98.6280078 312.05671,99.8400078 C317.89971,101.697008 324.72871,101.299008 330.79871,102.469008 C353.79771,106.903008 382.23571,115.325008 400.76671,129.879008 L400.66671,131.418008 C400.47371,134.068008 400.28171,137.448008 402.36371,139.534008 C403.13071,140.303008 404.08071,140.547008 405.12371,140.319008 C407.84771,139.724008 409.64771,136.906008 410.78571,134.607008 C414.49271,127.119008 416.61571,118.134008 419.54671,110.259008 C426.24271,92.2650078 436.49071,74.2980078 448.60671,59.4270078 C465.60171,38.5670078 490.41671,20.8982078 517.71571,18.1052078 Z"/><path fill="#313945" d="M242.64671,314.104008 C250.48571,313.135008 260.05271,314.006008 267.28071,317.420008 C271.84571,319.577008 275.77571,323.007008 277.37071,327.921008 C278.68671,331.978008 278.06171,336.453008 276.02571,340.158008 C271.58771,348.236008 262.35571,351.989008 253.99171,354.429008 C254.97371,359.631008 258.16071,374.804008 262.21771,377.652008 C265.05771,379.647008 270.32271,378.735008 273.55671,378.303008 C287.91371,376.386008 317.18871,367.450008 326.29071,355.450008 C323.58971,354.821008 319.95271,354.366008 317.66671,352.757008 C316.63271,352.030008 316.58571,351.922008 316.38671,350.743008 C317.88771,348.330008 321.13871,347.552008 323.68771,346.659008 C330.55871,347.741008 337.14371,349.755008 341.89571,355.211008 C344.03271,357.665008 345.96771,361.567008 345.31171,364.933008 C345.03271,366.364008 344.55571,366.612008 343.49271,367.492008 C340.16071,367.654008 338.62771,363.481008 336.03871,361.685008 C332.87271,361.647008 332.16871,366.297008 331.44071,368.766008 C325.07071,390.353008 312.86771,412.574008 293.53671,424.920008 C291.935377,425.892008 290.284043,426.769341 288.58271,427.552008 C286.881377,428.335341 285.14071,429.018674 283.36071,429.602008 C273.77271,432.706008 263.85071,432.572008 254.79871,427.898008 C237.56571,419.001008 231.41871,400.750008 225.98071,383.473008 C216.30471,379.345008 207.91071,374.280008 200.67671,366.543008 C196.32271,361.885008 191.09671,354.966008 191.59071,348.258008 C191.73871,346.246008 192.54371,345.137008 194.04471,343.867008 C197.34071,344.815008 201.34571,352.362008 203.62971,355.183008 C215.57271,369.933008 234.11871,376.205008 252.43471,378.173008 C248.76371,370.360008 247.00271,362.621008 245.59671,354.148008 C239.45071,353.701008 233.53471,351.728008 228.56671,348.041008 C223.72171,344.445008 219.57371,339.313008 218.86771,333.147008 C218.42671,329.296008 219.52671,325.631008 221.99971,322.647008 C227.03671,316.571008 235.21971,314.908008 242.64671,314.104008 Z"/><path fill="#FAC3B7" d="M286.04071,399.088008 C292.34871,398.428008 298.65471,399.365008 304.87271,400.317008 C304.01071,401.577008 303.126377,402.821008 302.21971,404.049008 C294.76671,414.065008 285.10871,421.094008 272.66871,422.968008 C264.36171,422.632008 258.39671,419.099008 252.55171,413.507008 C263.38271,406.309008 272.92271,400.738008 286.04071,399.088008 Z M244.58071,323.111008 C250.74371,322.582008 258.57771,322.950008 264.15571,325.890008 C266.18571,326.960008 267.98071,328.522008 268.53771,330.833008 C269.00471,332.769008 268.51871,334.727008 267.49371,336.397008 C264.41471,341.411008 258.13071,343.999008 252.68271,345.455008 C246.06671,346.260008 240.51771,345.432008 234.91671,341.479008 C231.97271,339.401008 228.16971,335.930008 227.66271,332.133008 C227.45271,330.559008 227.88271,329.050008 228.92371,327.854008 C232.32971,323.940008 239.76871,323.562008 244.58071,323.111008 Z"/><path fill="#E1A29E" d="M237.76971,386.661008 C241.77571,387.623008 245.821377,388.369674 249.90671,388.901008 C253.99271,389.431674 258.095043,389.744008 262.21371,389.838008 C265.18971,389.930008 268.31771,389.516008 271.25171,389.889008 C272.43771,390.040008 272.90171,390.225008 273.79771,390.944008 L273.69771,391.794008 C270.73371,394.120008 266.46071,395.409008 263.07571,397.199008 C257.74471,400.492008 252.74371,404.232008 247.69671,407.936008 C242.52671,402.259008 239.84271,393.895008 237.76971,386.661008 Z M317.82871,374.086008 L318.02771,374.436008 C317.00271,380.844008 313.30671,387.366008 310.07071,392.902008 C303.44871,391.393008 297.19071,390.365008 290.40371,390.026008 C289.877043,390.026008 289.350377,390.019341 288.82371,390.006008 C287.61271,389.968008 286.04771,390.081008 285.21571,389.176008 C287.21471,387.479008 300.16771,383.028008 303.76671,381.386008 C308.58271,379.191008 313.21071,376.664008 317.82871,374.086008 Z"/><path fill="#313945" d="M347.35071,243.972008 C353.56071,243.539008 359.16771,244.441008 364.46971,247.889008 C372.17071,252.897008 376.52271,261.995008 378.27871,270.763008 C380.62871,282.491008 378.86971,295.387008 372.08571,305.410008 C367.30071,312.479008 360.86671,316.250008 352.50971,317.811008 C347.11571,318.430008 341.24571,317.244008 336.59671,314.460008 C328.77871,309.779008 324.22871,301.276008 322.17671,292.641008 C319.40471,280.975008 321.12971,268.107008 327.56671,257.899008 C332.36071,250.298008 338.62671,245.941008 347.35071,243.972008 Z"/><path fill="#FFF" d="M354.96771,263.822008 C355.08971,263.777341 355.213043,263.735674 355.33771,263.697008 C355.46171,263.659008 355.58671,263.623674 355.71271,263.591008 C355.83871,263.559008 355.96571,263.529674 356.09371,263.503008 C356.221043,263.477008 356.349043,263.454008 356.47771,263.434008 C356.606377,263.414674 356.735377,263.398008 356.86471,263.384008 C356.994043,263.370674 357.12371,263.360341 357.25371,263.353008 C357.383043,263.345674 357.513043,263.341674 357.64371,263.341008 C357.77371,263.339674 357.90371,263.342008 358.03371,263.348008 C358.16371,263.353341 358.293377,263.362008 358.42271,263.374008 C358.55271,263.385341 358.682043,263.400341 358.81071,263.419008 C358.939377,263.437008 359.06771,263.458341 359.19571,263.483008 C359.32371,263.507008 359.45071,263.534341 359.57671,263.565008 C359.703377,263.595674 359.829043,263.629341 359.95371,263.666008 C360.078377,263.703341 360.202377,263.743341 360.32571,263.786008 C360.448377,263.828674 360.570043,263.874674 360.69071,263.924008 C360.811377,263.972674 360.93071,264.024341 361.04871,264.079008 C361.16671,264.133674 361.283377,264.191008 361.39871,264.251008 C361.514043,264.311674 361.62771,264.375008 361.73971,264.441008 C361.85171,264.507008 361.962043,264.575674 362.07071,264.647008 C362.180043,264.718341 362.287043,264.792341 362.39171,264.869008 C362.497043,264.945008 362.600377,265.024008 362.70171,265.106008 C362.803043,265.187341 362.902377,265.271341 362.99971,265.358008 C363.097043,265.444674 363.192043,265.533341 363.28471,265.624008 C363.378043,265.715341 363.46871,265.809008 363.55671,265.905008 C363.64471,266.000341 363.73071,266.098008 363.81471,266.198008 C363.898043,266.297341 363.979043,266.399008 364.05771,266.503008 C364.136377,266.606341 364.212377,266.712008 364.28571,266.820008 C364.359043,266.927341 364.42971,267.036341 364.49771,267.147008 C364.56571,267.258341 364.631043,267.371008 364.69371,267.485008 C364.75571,267.599008 364.815377,267.714341 364.87271,267.831008 C364.929377,267.948341 364.983377,268.066674 365.03471,268.186008 C365.085377,268.306008 365.133377,268.427008 365.17871,268.549008 C365.224043,268.671008 365.266043,268.794008 365.30471,268.918008 C365.344043,269.042008 365.380377,269.167008 365.41371,269.293008 C365.446377,269.419008 365.476043,269.545674 365.50271,269.673008 C365.530043,269.800341 365.554043,269.928341 365.57471,270.057008 C365.595377,270.185008 365.61271,270.313674 365.62671,270.443008 C365.64071,270.572341 365.65171,270.702008 365.65971,270.832008 C365.66771,270.962008 365.672377,271.092008 365.67371,271.222008 C365.67571,271.352008 365.674377,271.482008 365.66971,271.612008 C365.664377,271.742008 365.656377,271.872008 365.64571,272.002008 C365.634377,272.131341 365.620043,272.260674 365.60271,272.390008 C365.58471,272.518674 365.564043,272.647008 365.54071,272.775008 C365.51671,272.903008 365.48971,273.030341 365.45971,273.157008 C365.42971,273.283674 365.39671,273.409341 365.36071,273.534008 C365.32471,273.659341 365.285377,273.783341 365.24271,273.906008 C365.20071,274.029341 365.15571,274.151341 365.10771,274.272008 C365.05971,274.393341 365.008377,274.513008 364.95371,274.631008 C364.89971,274.749674 364.843043,274.866674 364.78371,274.982008 C364.72371,275.097341 364.661043,275.211341 364.59571,275.324008 C364.530377,275.436674 364.462377,275.547674 364.39171,275.657008 C364.321043,275.766341 364.24771,275.873674 364.17171,275.979008 C364.09571,276.084341 364.017043,276.188008 363.93571,276.290008 C363.855043,276.392008 363.771377,276.491674 363.68471,276.589008 C363.599377,276.687008 363.511377,276.782674 363.42071,276.876008 C363.330043,276.969341 363.237043,277.060341 363.14171,277.149008 C363.046377,277.237674 362.949043,277.324008 362.84971,277.408008 C362.750377,277.492008 362.649043,277.573674 362.54571,277.653008 C362.442377,277.732341 362.337377,277.809008 362.23071,277.883008 C362.123377,277.956341 362.014377,278.027341 361.90371,278.096008 C361.793043,278.164674 361.681043,278.230674 361.56771,278.294008 C361.45371,278.357341 361.338377,278.417674 361.22171,278.475008 C361.105043,278.532341 360.987043,278.587008 360.86771,278.639008 C360.748377,278.690341 360.62771,278.739008 360.50571,278.785008 C360.383043,278.831008 360.259377,278.874008 360.13471,278.914008 C360.010043,278.954008 359.884377,278.991008 359.75771,279.025008 C359.631043,279.059008 359.50371,279.089674 359.37571,279.117008 C359.24771,279.144341 359.119043,279.168674 358.98971,279.190008 C358.860377,279.211341 358.73071,279.229341 358.60071,279.244008 C358.47071,279.259341 358.340377,279.271008 358.20971,279.279008 C358.079043,279.287674 357.948043,279.293008 357.81671,279.295008 C357.686043,279.297008 357.555043,279.295674 357.42371,279.291008 C357.293043,279.286341 357.162377,279.278674 357.03171,279.268008 C356.90171,279.257341 356.77171,279.243341 356.64171,279.226008 C356.51171,279.208674 356.382377,279.188008 356.25371,279.164008 C356.124377,279.140008 355.996043,279.113008 355.86871,279.083008 C355.741377,279.053008 355.61471,279.020008 355.48871,278.984008 C355.36271,278.948008 355.23771,278.908674 355.11371,278.866008 C354.990377,278.823341 354.86771,278.778008 354.74571,278.730008 C354.62371,278.681341 354.503377,278.629674 354.38471,278.575008 C354.265377,278.521008 354.147377,278.464008 354.03071,278.404008 C353.91471,278.343341 353.800043,278.280008 353.68671,278.214008 C353.573377,278.148674 353.46171,278.080341 353.35171,278.009008 C353.242377,277.937674 353.134377,277.863674 353.02771,277.787008 C352.92171,277.710341 352.81771,277.631008 352.71571,277.549008 C352.613043,277.467008 352.51271,277.382674 352.41471,277.296008 C352.31671,277.209341 352.22071,277.120341 352.12671,277.029008 C352.03271,276.937674 351.941377,276.844008 351.85271,276.748008 C351.763377,276.652008 351.676377,276.553674 351.59171,276.453008 C351.50771,276.353008 351.426043,276.251008 351.34671,276.147008 C351.267377,276.042341 351.19071,275.936008 351.11671,275.828008 C351.04271,275.720008 350.971377,275.610341 350.90271,275.499008 C350.834043,275.387008 350.768043,275.273674 350.70471,275.159008 C350.642043,275.044341 350.582043,274.928008 350.52471,274.810008 C350.467377,274.692674 350.41271,274.573674 350.36071,274.453008 C350.309377,274.332341 350.261043,274.210674 350.21571,274.088008 C350.170377,273.965341 350.128043,273.841341 350.08871,273.716008 C350.049377,273.591341 350.013043,273.465674 349.97971,273.339008 C349.946377,273.212341 349.916377,273.084674 349.88971,272.956008 C349.862377,272.828008 349.83871,272.699341 349.81871,272.570008 C349.798043,272.440674 349.780377,272.310674 349.76571,272.180008 C349.75171,272.050008 349.741043,271.919674 349.73371,271.789008 C349.72571,271.658341 349.721043,271.527341 349.71971,271.396008 C349.718377,271.265341 349.720377,271.134341 349.72571,271.003008 C349.731043,270.872341 349.739377,270.741674 349.75071,270.611008 C349.76271,270.481008 349.77771,270.351008 349.79571,270.221008 C349.81371,270.091008 349.83471,269.961674 349.85871,269.833008 C349.883377,269.704341 349.911043,269.576341 349.94171,269.449008 C349.972377,269.321674 350.006043,269.195008 350.04271,269.069008 C350.080043,268.943674 350.120043,268.819008 350.16271,268.695008 C350.206043,268.571674 350.252377,268.449341 350.30171,268.328008 C350.350377,268.206008 350.402377,268.085674 350.45771,267.967008 C350.512377,267.848341 350.570377,267.731008 350.63171,267.615008 C350.692377,267.499008 350.75571,267.384341 350.82171,267.271008 C350.888377,267.158341 350.95771,267.047341 351.02971,266.938008 C351.10171,266.828008 351.176377,266.720341 351.25371,266.615008 C351.331043,266.509008 351.41071,266.405008 351.49271,266.303008 C351.575377,266.201008 351.660377,266.101341 351.74771,266.004008 C351.835043,265.906008 351.92471,265.810341 352.01671,265.717008 C352.108043,265.623674 352.202043,265.532674 352.29871,265.444008 C352.395377,265.355341 352.494043,265.269341 352.59471,265.186008 C352.695377,265.102008 352.798043,265.020674 352.90271,264.942008 C353.007377,264.863341 353.114043,264.787341 353.22271,264.714008 C353.331377,264.640008 353.441377,264.569008 353.55271,264.501008 C353.66471,264.433008 353.778377,264.368008 353.89371,264.306008 C354.009043,264.243341 354.12571,264.183674 354.24371,264.127008 C354.36171,264.070341 354.481043,264.016341 354.60171,263.965008 C354.722377,263.914341 354.844377,263.866674 354.96771,263.822008 Z"/><path fill="#313945" d="M177.67671,243.007008 C183.17371,242.616008 188.15871,242.974008 193.00671,245.884008 C199.79371,249.958008 204.09671,257.466008 206.04971,264.968008 C208.93871,276.064008 207.85371,288.887008 201.95971,298.848008 C197.80771,305.864008 191.82571,310.865008 183.82171,312.859008 C178.46471,313.660008 173.57771,313.259008 168.75871,310.520008 C161.55471,306.425008 157.14071,298.373008 155.14171,290.556008 C152.26371,279.300008 153.75571,266.499008 159.83471,256.522008 C164.08371,249.548008 169.64871,244.965008 177.67671,243.007008 Z"/><path fill="#FFF" d="M183.08071,260.280008 C183.205377,260.237341 183.331043,260.197674 183.45771,260.161008 C183.584377,260.124341 183.71171,260.090674 183.83971,260.060008 C183.968377,260.030008 184.097377,260.003008 184.22671,259.979008 C184.35671,259.954341 184.487043,259.933341 184.61771,259.916008 C184.748377,259.898008 184.879377,259.883674 185.01071,259.873008 C185.142043,259.861674 185.273377,259.853674 185.40471,259.849008 C185.53671,259.843674 185.66871,259.842008 185.80071,259.844008 C185.932043,259.845341 186.06371,259.850341 186.19571,259.859008 C186.327043,259.867008 186.458377,259.878341 186.58971,259.893008 C186.720377,259.907674 186.85071,259.925341 186.98071,259.946008 C187.11071,259.967341 187.240377,259.991674 187.36971,260.019008 C187.498377,260.046341 187.62671,260.076674 187.75471,260.110008 C187.882043,260.144008 188.008377,260.181008 188.13371,260.221008 C188.25971,260.261008 188.384377,260.304008 188.50771,260.350008 C188.631043,260.396008 188.753377,260.445008 188.87471,260.497008 C188.996043,260.549008 189.11571,260.603674 189.23371,260.661008 C189.352377,260.719008 189.469377,260.780008 189.58471,260.844008 C189.700043,260.907341 189.814043,260.973674 189.92671,261.043008 C190.03871,261.112341 190.149043,261.184341 190.25771,261.259008 C190.366377,261.333674 190.473043,261.411008 190.57771,261.491008 C190.683043,261.571008 190.786043,261.653341 190.88671,261.738008 C190.987377,261.822674 191.086043,261.910008 191.18271,262.000008 C191.279377,262.090008 191.37371,262.182008 191.46571,262.276008 C191.55771,262.370674 191.647043,262.467341 191.73371,262.566008 C191.821043,262.665341 191.906043,262.766341 191.98871,262.869008 C192.07071,262.972341 192.150377,263.077341 192.22771,263.184008 C192.305043,263.290674 192.379377,263.399341 192.45071,263.510008 C192.52271,263.620674 192.592043,263.733008 192.65871,263.847008 C192.72471,263.961008 192.788043,264.076341 192.84871,264.193008 C192.909377,264.310341 192.967043,264.429008 193.02171,264.549008 C193.076377,264.669008 193.128377,264.790008 193.17771,264.912008 C193.226377,265.034674 193.272043,265.158341 193.31471,265.283008 C193.357377,265.407674 193.397043,265.533341 193.43371,265.660008 C193.470377,265.786674 193.504043,265.914008 193.53471,266.042008 C193.56471,266.170674 193.59171,266.299674 193.61571,266.429008 C193.63971,266.559008 193.66071,266.689341 193.67871,266.820008 C193.696043,266.950674 193.710377,267.081674 193.72171,267.213008 C193.733043,267.344341 193.741043,267.475674 193.74571,267.607008 C193.750377,267.739008 193.75171,267.871008 193.74971,268.003008 C193.748377,268.134341 193.743377,268.266008 193.73471,268.398008 C193.72671,268.529341 193.715377,268.660674 193.70071,268.792008 C193.686043,268.922674 193.668043,269.053008 193.64671,269.183008 C193.626043,269.313008 193.602043,269.442674 193.57471,269.572008 C193.547377,269.700674 193.51671,269.828674 193.48271,269.956008 C193.44871,270.084008 193.412043,270.210674 193.37271,270.336008 C193.33271,270.461341 193.28971,270.586008 193.24371,270.710008 C193.19771,270.833341 193.148377,270.955674 193.09571,271.077008 C193.04371,271.197674 192.98871,271.317341 192.93071,271.436008 C192.873377,271.554674 192.81271,271.671674 192.74871,271.787008 C192.685377,271.902341 192.619043,272.016008 192.54971,272.128008 C192.480377,272.240008 192.408377,272.350341 192.33371,272.459008 C192.259043,272.567674 192.18171,272.674341 192.10171,272.779008 C192.02171,272.884341 191.939377,272.987341 191.85471,273.088008 C191.769377,273.188674 191.68171,273.287341 191.59171,273.384008 C191.502377,273.480674 191.410377,273.575008 191.31571,273.667008 C191.221043,273.758341 191.124377,273.847674 191.02571,273.935008 C190.927043,274.022341 190.826043,274.107341 190.72271,274.190008 C190.620043,274.272008 190.515043,274.351674 190.40771,274.429008 C190.301043,274.505674 190.192377,274.580008 190.08171,274.652008 C189.971043,274.724008 189.85871,274.793008 189.74471,274.859008 C189.63071,274.925008 189.515377,274.988341 189.39871,275.049008 C189.281377,275.109674 189.16271,275.167341 189.04271,275.222008 C188.92271,275.276674 188.80171,275.328674 188.67971,275.378008 C188.557043,275.426674 188.433377,275.472341 188.30871,275.515008 C188.184043,275.557674 188.058377,275.597341 187.93171,275.634008 C187.805043,275.670674 187.67771,275.704008 187.54971,275.734008 C187.421043,275.764674 187.292043,275.792008 187.16271,275.816008 C187.033377,275.840008 186.903377,275.860674 186.77271,275.878008 C186.642043,275.896008 186.511043,275.910341 186.37971,275.921008 C186.248377,275.932341 186.11671,275.940341 185.98471,275.945008 C185.853377,275.949674 185.72171,275.951341 185.58971,275.950008 C185.458377,275.948008 185.32671,275.943008 185.19471,275.935008 C185.063377,275.927008 184.932377,275.915674 184.80171,275.901008 C184.670377,275.886341 184.53971,275.868341 184.40971,275.847008 C184.27971,275.825674 184.150043,275.801341 184.02071,275.774008 C183.892043,275.746674 183.764043,275.716341 183.63671,275.683008 C183.509377,275.649008 183.38271,275.612008 183.25671,275.572008 C183.131377,275.532008 183.007043,275.489008 182.88371,275.443008 C182.760377,275.397008 182.638043,275.348008 182.51671,275.296008 C182.395377,275.244008 182.27571,275.189008 182.15771,275.131008 C182.039043,275.073674 181.922043,275.013008 181.80671,274.949008 C181.691377,274.885674 181.57771,274.819341 181.46571,274.750008 C181.35371,274.680674 181.243377,274.608674 181.13471,274.534008 C181.026043,274.459341 180.919377,274.382008 180.81471,274.302008 C180.709377,274.222008 180.606377,274.139674 180.50571,274.055008 C180.405043,273.970341 180.306377,273.883008 180.20971,273.793008 C180.11371,273.703008 180.01971,273.611008 179.92771,273.517008 C179.83571,273.422341 179.746043,273.325674 179.65871,273.227008 C179.571377,273.128341 179.48671,273.027341 179.40471,272.924008 C179.322043,272.821341 179.242377,272.716341 179.16571,272.609008 C179.088377,272.502341 179.01371,272.393674 178.94171,272.283008 C178.870377,272.173008 178.801377,272.061008 178.73471,271.947008 C178.66871,271.833008 178.605377,271.717341 178.54471,271.600008 C178.484043,271.483341 178.426377,271.365008 178.37171,271.245008 C178.317043,271.125008 178.265043,271.004008 178.21571,270.882008 C178.167043,270.759341 178.121377,270.635674 178.07871,270.511008 C178.036043,270.386341 177.996377,270.260674 177.95971,270.134008 C177.923043,270.007341 177.88971,269.880008 177.85971,269.752008 C177.829043,269.624008 177.80171,269.495008 177.77771,269.365008 C177.75371,269.235674 177.73271,269.105674 177.71471,268.975008 C177.697377,268.844341 177.683043,268.713341 177.67171,268.582008 C177.660377,268.450674 177.652377,268.319008 177.64771,268.187008 C177.643043,268.055674 177.64171,267.924008 177.64371,267.792008 C177.645043,267.660674 177.64971,267.529008 177.65771,267.397008 C177.666377,267.265674 177.678043,267.134674 177.69271,267.004008 C177.707377,266.872674 177.725043,266.742008 177.74571,266.612008 C177.767043,266.482008 177.791377,266.352341 177.81871,266.223008 C177.846043,266.094341 177.876377,265.966341 177.90971,265.839008 C177.94371,265.711674 177.98071,265.585008 178.02071,265.459008 C178.06071,265.333674 178.10371,265.209341 178.14971,265.086008 C178.19571,264.962674 178.24471,264.840341 178.29671,264.719008 C178.34871,264.597674 178.403377,264.478008 178.46071,264.360008 C178.51871,264.241341 178.57971,264.124341 178.64371,264.009008 C178.707043,263.893674 178.773377,263.780008 178.84271,263.668008 C178.912043,263.555341 178.984043,263.445008 179.05871,263.337008 C179.133377,263.228341 179.210377,263.121341 179.28971,263.016008 C179.36971,262.911341 179.452377,262.808674 179.53771,262.708008 C179.622377,262.607341 179.70971,262.508674 179.79971,262.412008 C179.889043,262.315341 179.981043,262.221008 180.07571,262.129008 C180.16971,262.037008 180.266377,261.947341 180.36571,261.860008 C180.464377,261.773341 180.565043,261.688674 180.66771,261.606008 C180.771043,261.524008 180.876043,261.444341 180.98271,261.367008 C181.089377,261.289674 181.198043,261.215341 181.30871,261.144008 C181.419377,261.072008 181.531377,261.003008 181.64471,260.937008 C181.75871,260.870341 181.874377,260.806674 181.99171,260.746008 C182.108377,260.685341 182.22671,260.627674 182.34671,260.573008 C182.46671,260.518341 182.58771,260.466674 182.70971,260.418008 C182.832377,260.368674 182.956043,260.322674 183.08071,260.280008 Z"/><path fill="#313945" d="M355.43771,178.584008 C361.17971,177.691008 368.27671,178.728008 373.73571,180.672008 C381.84671,183.559008 389.73071,190.034008 393.27171,198.001008 C394.49671,200.757008 395.04971,203.386008 393.93471,206.248008 C393.05671,207.009008 392.73571,207.453008 391.46171,207.160008 C388.19871,206.409008 385.95771,202.549008 384.13671,200.040008 C375.73671,190.858008 363.83971,185.873008 351.36871,188.503008 C347.71371,189.274008 344.13971,191.204008 340.39071,189.956008 C339.84271,189.382008 339.35571,189.141008 339.28271,188.304008 C339.15771,186.889008 339.85871,185.643008 340.74771,184.596008 C344.23471,180.485008 350.29971,179.075008 355.43771,178.584008 Z M176.64371,178.975008 C180.10671,178.696008 183.75371,178.587008 187.20071,179.048008 C191.29271,179.595008 198.04771,181.205008 200.47171,184.725008 C201.28071,185.900008 201.50871,187.528008 200.99871,188.882008 C200.37271,190.540008 199.06671,190.485008 197.59171,190.155008 C186.14371,187.586008 178.10971,186.991008 167.80271,193.356008 C164.66771,195.968008 158.62071,204.525008 154.80371,204.783008 C153.60171,204.081008 152.56371,203.454008 151.99071,202.087008 C151.33271,200.520008 151.84471,198.782008 152.57171,197.346008 C157.20471,188.193008 167.12571,181.867008 176.64371,178.975008 Z"/><path fill="#7A7BBE" d="M431.86671,403.021008 C434.94171,404.584008 437.80371,406.764008 440.26571,409.170008 C448.74671,417.455008 452.77571,428.502008 452.90571,440.207008 C452.71271,440.085008 452.52071,439.962008 452.32671,439.842008 C442.82171,433.993008 431.56771,431.951008 420.75671,434.685008 C412.64771,436.736008 404.81171,440.232008 397.01371,443.240008 L362.48971,456.460008 C349.379043,461.450674 336.33471,466.609674 323.35671,471.937008 C318.94671,473.761008 314.06071,475.279008 309.85371,477.507008 C308.77571,478.078008 308.18571,478.707008 307.57371,479.743008 C307.49071,481.177008 307.55371,481.397008 308.21371,482.678008 C317.60571,488.427008 406.99571,448.750008 426.24871,445.161008 C428.92571,444.662008 431.76971,444.777008 434.42771,445.328008 C442.58271,447.019008 449.53771,453.148008 453.79171,460.125008 C455.36471,462.704008 456.25371,465.777008 457.17271,468.635008 C462.56971,485.405008 462.36371,503.277008 458.39671,520.362008 C451.39571,550.521008 434.26071,576.276008 407.85471,592.711008 C382.11271,608.732008 351.78371,612.860008 322.07571,614.121008 C310.68071,614.604008 298.38971,614.984008 287.24171,612.397008 C294.91171,602.615008 298.87171,594.087008 300.78271,581.656008 C303.95371,561.016008 299.49871,543.735008 287.30371,527.019008 C295.29071,525.643008 303.48271,525.365008 311.56771,524.925008 C328.26371,524.015674 344.97171,523.641341 361.69171,523.802008 C365.82771,523.801008 380.18771,525.611008 382.81371,524.540008 C384.19371,523.977008 384.74071,523.443008 385.34071,522.120008 C385.19171,521.617008 385.11971,521.252008 384.79471,520.798008 C381.81471,516.633008 372.15871,514.842008 367.36971,513.661008 C370.72571,507.908008 382.21171,490.790008 382.03371,484.846008 L381.33571,484.274008 C375.14371,486.027008 359.34171,507.350008 354.65471,512.909008 C341.963377,513.019008 329.274377,513.256341 316.58771,513.621008 C307.37471,513.856008 297.01871,513.325008 288.06871,515.525008 C283.45571,516.659008 280.02971,518.560008 276.28171,521.442008 C257.89671,510.039008 237.13871,504.073008 215.56571,503.159008 C213.16471,491.670008 209.29471,480.549008 206.89971,469.091008 C211.73071,471.025008 225.42171,477.293008 229.63371,477.410008 C230.68671,477.439008 230.74871,477.428008 231.49671,476.654008 C231.51271,476.112008 231.54571,476.074008 231.37871,475.462008 C229.41071,468.255008 209.61571,460.894008 203.16271,457.287008 C200.61771,451.374008 197.90271,445.602008 195.04771,439.832008 C193.727043,437.666008 192.441377,435.479674 191.19071,433.273008 C199.02871,436.413008 209.63971,438.325008 216.68271,442.187008 C220.85171,443.936008 225.13971,448.694008 228.72971,451.596008 C236.07971,457.539008 258.66971,475.094008 267.01571,476.698008 C279.06071,479.014008 301.92771,463.799008 311.73271,456.618008 C316.83871,452.879008 322.57471,447.342008 328.38571,444.889008 C332.87771,442.994008 338.05571,442.624008 342.81571,441.743008 C348.203043,440.741008 353.547043,439.544341 358.84771,438.153008 C385.71971,431.073008 409.06171,418.538008 431.86671,403.021008 Z"/><path fill="#477599" d="M329.49771,650.857008 C335.67671,651.392008 342.60171,650.485008 348.79371,649.992008 C368.87371,648.391008 389.26771,645.285008 408.82871,640.477008 C416.00571,638.713008 422.97071,636.306008 430.10571,634.419008 C430.18171,657.101008 429.28371,679.855008 428.70671,702.530008 C428.16371,723.842008 428.03471,745.436008 426.04771,766.676008 C413.06071,772.192008 398.83871,774.985008 384.77671,775.727008 C369.40371,776.537008 354.78571,775.392008 339.89971,771.255008 C337.02671,770.457008 333.14071,769.624008 330.85671,767.632008 C329.83271,766.740008 329.54871,765.422008 329.22171,764.150008 C327.42871,757.176008 326.78471,749.585008 325.47271,742.470008 C324.07071,734.864008 314.25671,684.177008 309.12471,680.921008 C306.49571,679.254008 282.16271,677.609008 276.50671,676.363008 C272.43471,675.465008 265.95771,672.859008 261.84971,673.932008 C260.77071,674.214008 260.73371,674.220008 260.12971,675.204008 C260.30671,676.610008 260.90171,677.513008 261.85271,678.531008 C267.00571,684.052008 280.55171,688.628008 287.93971,688.924008 C288.12771,688.932008 288.31571,688.932008 288.50371,688.936008 C287.52071,694.962008 287.16571,701.182008 286.56971,707.262008 L283.29871,740.432008 C282.61071,747.343008 282.25571,754.617008 280.57471,761.364008 C275.06671,763.422008 269.22271,764.796008 263.44071,765.822008 C243.62271,769.338008 204.61471,767.987008 188.04071,756.392008 C185.96471,722.613008 186.12571,688.722008 185.25271,654.901008 C198.24871,655.957008 223.00971,658.246008 235.11471,656.331008 C240.93371,655.411008 244.72971,653.330008 248.17871,648.602008 C266.38171,651.617008 285.49971,651.532008 303.92471,651.492008 C310.88971,651.476008 318.12771,651.794008 325.03871,650.962008 L329.49771,650.857008 Z"/><path fill="#A78168" d="M153.29571,444.345008 C160.70071,444.292008 174.79771,442.809008 181.14371,446.432008 C188.97371,450.903008 199.97071,497.113008 202.48471,507.320008 C197.60171,508.740008 192.98571,510.284008 188.62771,512.957008 C181.62171,517.255008 175.39471,524.265008 173.62671,532.462008 C171.99771,540.018008 174.59171,546.221008 178.59071,552.427008 C176.98871,556.541008 176.15071,560.844008 176.66971,565.266008 C177.53371,572.634008 181.72971,577.730008 187.32171,582.165008 C187.16971,586.196008 187.63771,589.797008 189.70371,593.345008 C197.02771,605.924008 215.53771,604.384008 227.69171,607.969008 C227.88971,608.028008 228.08571,608.091008 228.28271,608.152008 C230.05971,609.915008 231.31371,611.431008 232.42271,613.695008 C234.39871,619.650008 240.35071,634.107008 238.52171,639.749008 C238.04171,641.231008 237.18271,642.324008 235.71471,642.921008 C233.76171,643.715008 231.29771,643.852008 229.20271,643.867008 C205.14071,644.040008 180.74671,642.201008 156.67671,641.339008 L111.20271,639.783008 C103.32171,639.515008 95.33371,639.505008 87.47471,638.888008 C84.65971,638.668008 81.70371,638.385008 79.12571,637.164008 C77.20471,636.255008 75.36171,634.863008 74.14471,633.103008 C69.63471,626.583008 62.95371,601.189008 59.83271,592.037008 C66.33171,587.763008 72.34071,582.158008 73.95771,574.193008 C75.42871,566.949008 72.32771,561.406008 68.48471,555.613008 C70.21771,551.363008 71.69071,547.435008 71.46071,542.738008 C71.12971,535.955008 67.70971,531.429008 62.97671,526.993008 C63.15771,525.517008 63.34271,524.032008 63.40471,522.546008 C63.41871,522.234674 63.4243767,521.923008 63.42171,521.611008 C63.4190434,521.299008 63.40871,520.987341 63.39071,520.676008 C63.3720434,520.364674 63.34571,520.054008 63.31171,519.744008 C63.2770434,519.434008 63.2343767,519.125008 63.18371,518.817008 C63.13371,518.509674 63.07571,518.203674 63.00971,517.899008 C62.94371,517.593674 62.86971,517.290674 62.78771,516.990008 C62.7063767,516.688674 62.6170434,516.390008 62.51971,516.094008 C62.4223767,515.797341 62.31771,515.503674 62.20571,515.213008 C62.09371,514.921674 61.9740434,514.633674 61.84671,514.349008 C61.7200434,514.064341 61.58571,513.783008 61.44371,513.505008 C61.3023767,513.227008 61.15371,512.953008 60.99771,512.683008 C60.8423767,512.412341 60.6800434,512.146008 60.51071,511.884008 C60.3413767,511.622674 60.1653767,511.365341 59.98271,511.112008 C59.8000434,510.859341 59.6110434,510.611341 59.41571,510.368008 C59.2203767,510.125341 59.0190434,509.887674 58.81171,509.655008 C58.60371,509.422341 58.3900434,509.195008 58.17071,508.973008 C50.92271,501.640008 40.74271,500.927008 31.06971,500.937008 L21.22271,471.722008 C19.11171,465.406008 16.58571,458.839008 15.30071,452.306008 C14.91871,450.367008 14.78571,448.461008 16.14271,446.827008 C17.60671,445.062008 19.99971,444.854008 22.11271,444.557008 C28.41471,444.239008 34.84771,444.534008 41.16271,444.584008 C43.35671,450.488008 44.65371,456.973008 47.87271,462.431008 C49.32171,464.889008 52.84771,469.474008 55.89171,470.085008 C58.7930434,470.666341 61.7210434,471.037008 64.67571,471.197008 C77.76871,471.845008 91.14471,471.335008 104.26571,471.331008 C115.50971,471.328008 142.52271,472.541008 151.35171,470.112008 C153.47171,469.529008 154.39871,468.181008 155.36871,466.289008 C158.73471,459.731008 155.30571,450.900008 153.29571,444.345008 Z"/><path fill="#FAC3B7" d="M530.21371,43.1147078 C542.99071,42.6614078 555.48371,47.4430078 565.33171,55.4330078 C565.822377,55.8270078 566.308377,56.2270078 566.78971,56.6330078 C567.270377,57.0390078 567.746377,57.4510078 568.21771,57.8690078 C568.688377,58.2863411 569.15371,58.7096744 569.61371,59.1390078 C570.074377,59.5683411 570.529377,60.0033411 570.97871,60.4440078 C571.428043,60.8846744 571.87171,61.3310078 572.30971,61.7830078 C572.748377,62.2350078 573.181043,62.6920078 573.60771,63.1540078 C574.035043,63.6166744 574.456377,64.0843411 574.87171,64.5570078 C575.287043,65.0303411 575.696377,65.5083411 576.09971,65.9910078 C576.50371,66.4743411 576.901043,66.9623411 577.29171,67.4550078 C577.68371,67.9483411 578.069043,68.4463411 578.44771,68.9490078 C578.827043,69.4516744 579.19971,69.9586744 579.56571,70.4700078 C579.932377,70.9820078 580.292377,71.4983411 580.64571,72.0190078 C580.99971,72.5396744 581.34671,73.0646744 581.68671,73.5940078 C582.027377,74.1233411 582.361377,74.6570078 582.68871,75.1950078 C583.016043,75.7323411 583.33671,76.2740078 583.65071,76.8200078 C583.96471,77.3653411 584.27171,77.9146744 584.57171,78.4680078 C584.87171,79.0213411 585.16471,79.5783411 585.45071,80.1390078 C585.737377,80.6990078 586.01671,81.2630078 586.28871,81.8310078 C586.561377,82.3983411 586.82671,82.9690078 587.08471,83.5430078 C587.34271,84.1170078 587.59371,84.6943411 587.83771,85.2750078 C588.08171,85.8550078 588.318377,86.4380078 588.54771,87.0240078 C588.777043,87.6106744 588.999043,88.1996744 589.21371,88.7910078 C589.428377,89.3830078 589.63571,89.9773411 589.83571,90.5740078 C590.03571,91.1706744 590.228043,91.7700078 590.41271,92.3720078 C590.598043,92.9733411 590.77571,93.5770078 590.94571,94.1830078 C591.11571,94.7890078 591.278043,95.3970078 591.43271,96.0070078 C591.587377,96.6170078 591.73471,97.2290078 591.87471,97.8430078 C592.014043,98.4570078 592.146043,99.0723411 592.27071,99.6890078 C592.395377,100.306341 592.512043,100.925008 592.62071,101.545008 C592.730043,102.165008 592.831377,102.786008 592.92471,103.408008 C593.01871,104.030674 593.10471,104.654341 593.18271,105.279008 C593.26071,105.903674 593.331043,106.529008 593.39371,107.155008 C595.96471,133.550008 586.19271,161.089008 569.32571,181.275008 C550.66771,203.606008 525.19171,217.455008 496.15871,219.980008 C492.30871,220.538008 488.28871,220.482008 484.39871,220.615008 C479.88571,211.767008 476.22871,202.414008 469.99671,194.582008 C472.28071,186.973008 474.47471,179.316008 477.00471,171.785008 C479.00771,165.825008 481.70071,159.571008 482.97771,153.439008 C483.34771,151.658008 483.80071,148.767008 483.02671,147.028008 C482.73571,146.373008 482.41671,145.703008 481.68871,145.491008 C477.21971,144.188008 459.44171,153.455008 454.69671,155.618008 C458.36371,124.724008 465.76971,89.5360078 486.80271,65.5120078 C498.52671,52.1210078 512.38171,44.3658078 530.21371,43.1147078 Z M96.08571,43.0748078 C96.8570434,43.0306078 97.62871,42.9911078 98.40071,42.9563078 C111.27071,42.3849078 122.20071,46.8700078 131.62471,55.6000078 C152.17471,74.6350078 158.45871,106.881008 159.38371,133.764008 C154.24571,139.761008 148.47171,145.222008 143.36171,151.273008 C141.481043,153.513008 139.64571,155.789674 137.85571,158.103008 C136.06571,160.416341 134.322377,162.764341 132.62571,165.147008 C130.92971,167.529674 129.281377,169.945341 127.68071,172.394008 C126.08071,174.842674 124.530043,177.322008 123.02871,179.832008 C121.527377,182.342008 120.07671,184.881008 118.67671,187.449008 C117.276043,190.017008 115.927377,192.612008 114.63071,195.234008 C113.333377,197.855341 112.089043,200.501674 110.89771,203.173008 C109.706377,205.844341 108.56871,208.538341 107.48471,211.255008 L106.55171,211.493008 C99.27271,209.808008 91.18371,204.807008 85.21271,200.395008 C63.82871,184.595008 49.13371,157.346008 45.35371,131.240008 C42.16871,109.241008 45.57071,84.6080078 59.18071,66.4770078 C68.21071,54.4470078 80.98571,45.2300078 96.08571,43.0748078 Z M596.61371,420.061008 C596.92971,420.030008 597.24471,419.991008 597.56171,419.968008 C599.59771,419.819008 602.93871,420.369008 604.48871,421.671008 C604.88271,422.380008 605.18671,422.937008 605.13271,423.785008 C604.52971,433.368008 580.77371,448.856008 573.88171,456.277008 C523.22571,510.812008 580.07571,567.083008 608.61171,614.563008 C621.45471,635.932008 632.56071,660.249008 633.22271,685.536008 C633.81571,708.170008 626.37071,729.984008 610.59171,746.429008 C610.12571,746.905674 609.654043,747.376341 609.17671,747.841008 C608.699377,748.306341 608.216377,748.765341 607.72771,749.218008 C607.239043,749.671341 606.74471,750.118341 606.24471,750.559008 C605.745377,751.000341 605.240377,751.435341 604.72971,751.864008 C604.21971,752.292674 603.704377,752.715008 603.18371,753.131008 C602.663043,753.547008 602.137377,753.956674 601.60671,754.360008 C601.076043,754.763341 600.54071,755.160008 600.00071,755.550008 C599.460043,755.940008 598.915043,756.323341 598.36571,756.700008 C597.81571,757.077341 597.261377,757.447341 596.70271,757.810008 C596.144043,758.173341 595.581043,758.529674 595.01371,758.879008 C594.446377,759.228341 593.87471,759.571008 593.29871,759.907008 C592.72271,760.242341 592.14271,760.570674 591.55871,760.892008 C590.97471,761.213341 590.387043,761.527341 589.79571,761.834008 C589.204377,762.140674 588.609043,762.440341 588.00971,762.733008 C587.411043,763.025008 586.80871,763.310008 586.20271,763.588008 C585.59671,763.865341 584.98771,764.135341 584.37571,764.398008 C583.763043,764.660674 583.147377,764.916008 582.52871,765.164008 C581.910043,765.411341 581.288377,765.651341 580.66371,765.884008 C580.039043,766.116008 579.41171,766.340674 578.78171,766.558008 C578.15171,766.775341 577.519043,766.984674 576.88371,767.186008 C576.248377,767.387341 575.61071,767.581008 574.97071,767.767008 C574.33071,767.953008 573.68871,768.131341 573.04471,768.302008 C572.400043,768.472008 571.75371,768.634341 571.10571,768.789008 C570.45771,768.943674 569.80771,769.090341 569.15571,769.229008 C568.50371,769.367008 567.850043,769.497341 567.19471,769.620008 C566.540043,769.742674 565.88371,769.857341 565.22571,769.964008 C564.56771,770.070674 563.90871,770.169008 563.24871,770.259008 C562.588043,770.349674 561.92671,770.432008 561.26471,770.506008 C560.602043,770.580674 559.939043,770.647008 559.27571,770.705008 C558.61171,770.763008 557.947043,770.812674 557.28171,770.854008 C556.616377,770.896008 555.951043,770.929674 555.28571,770.955008 C554.61971,770.980341 553.953377,770.997674 553.28671,771.007008 C518.25471,771.622008 487.42471,756.368008 462.70871,732.176008 C457.81171,727.382008 441.37471,710.446008 441.28471,704.030008 C441.78671,690.176674 442.141377,676.319341 442.34871,662.458008 C456.02171,687.105008 474.04871,711.240008 496.94171,727.996008 C514.67871,740.978008 535.48871,749.693008 557.80471,746.127008 C572.12571,743.839008 585.98871,736.379008 594.55271,724.467008 C600.63471,716.006008 603.79771,706.202008 604.98271,695.913008 C610.38571,648.982008 572.89871,609.299008 551.64871,571.113008 C543.32671,556.157008 536.35971,540.219008 533.64571,523.216008 C529.74971,498.809008 534.74371,472.897008 549.43471,452.738008 C560.66371,437.329008 577.26371,423.179008 596.61371,420.061008 Z"/><path fill="#F2F2F4" d="M216.68071,516.096008 C228.94171,515.266008 242.32771,518.193008 253.80671,522.325008 C265.85071,526.660008 279.63571,534.027008 285.09971,546.363008 C290.58971,558.760008 289.86571,576.991008 285.12971,589.518008 C282.92171,595.358008 278.06471,601.462008 272.25371,603.918008 C256.12271,610.737008 243.83571,599.238008 229.41571,595.596008 C221.69271,593.645008 212.77871,593.980008 205.45371,590.872008 C203.32471,589.968008 200.55271,588.209008 199.82871,585.851008 C199.45771,584.642008 199.78871,583.634008 200.41971,582.593008 C202.48271,579.188008 207.56771,577.828008 211.14171,576.819008 C215.73571,575.982341 220.367377,575.610341 225.03671,575.703008 C229.25371,575.767008 234.11471,576.489008 238.24071,575.597008 C238.75171,574.546008 238.71871,574.259008 238.52871,573.128008 C238.29271,571.726008 237.38271,570.511008 236.19671,569.744008 C229.92471,565.687008 214.69271,566.674008 207.57171,568.079008 C203.34271,568.913008 199.24571,570.462008 194.99871,571.168008 C193.56771,571.407008 192.57571,571.238008 191.43471,570.298008 C189.39371,568.616008 188.55471,564.975008 188.40971,562.466008 C188.24571,559.605008 189.23271,556.921008 191.14671,554.799008 C199.72671,545.288008 218.22471,546.368008 229.83871,545.745008 C232.05771,545.626008 235.21771,545.447008 236.78371,543.676008 L236.70771,542.649008 C236.377043,542.251674 236.022043,541.877341 235.64271,541.526008 C235.264043,541.174674 234.864043,540.849008 234.44271,540.549008 C234.021377,540.249008 233.58271,539.977341 233.12671,539.734008 C232.67071,539.490674 232.201043,539.277674 231.71771,539.095008 C225.26171,536.630008 208.97971,537.725008 202.14871,539.416008 C198.63171,540.287008 190.79271,543.887008 187.58271,543.431008 C185.78971,542.064008 185.14771,540.539008 184.85271,538.362008 C184.38371,534.898008 185.56971,531.647008 187.72571,528.959008 C194.28771,520.778008 206.70571,517.150008 216.68071,516.096008 Z M182.73071,786.024008 C183.69571,785.755008 184.49271,785.742008 185.47171,786.038008 C188.26271,786.882008 191.13171,788.578008 193.83071,789.745008 C196.417377,790.889008 199.05471,791.902008 201.74271,792.784008 C204.430043,793.666008 207.154377,794.413008 209.91571,795.025008 C230.32671,799.419008 254.51471,799.909008 274.64071,793.996008 C276.31971,801.136008 276.78571,810.073008 273.48571,816.792008 C268.39971,827.145008 255.70171,832.973008 245.39171,836.562008 C241.549043,837.882674 237.65971,839.048674 233.72371,840.060008 C229.78771,841.070674 225.818043,841.923008 221.81471,842.617008 C217.81071,843.311008 213.785377,843.844674 209.73871,844.218008 C205.69271,844.590674 201.638043,844.802008 197.57471,844.852008 C195.19271,844.893008 191.03771,845.376008 188.98471,844.031008 C186.75971,842.572008 185.80471,839.628008 185.69671,837.113008 C185.38171,829.811008 189.26871,823.446008 193.96871,818.252008 C195.35871,816.943008 196.99171,815.686008 197.78171,813.915008 L197.30371,812.880008 C196.44271,812.525008 195.94871,812.457008 194.99571,812.528008 C189.30671,812.951008 183.29271,817.074008 180.01571,821.577008 C175.28171,828.086008 174.69071,835.141008 175.92171,842.813008 C172.13771,842.183008 168.23071,841.394008 164.52671,840.376008 C161.29471,839.488008 158.04771,837.990008 156.41671,834.891008 C154.94971,832.106008 155.18171,828.851008 155.73371,825.862008 C158.18871,812.578008 170.07371,806.578008 171.18871,802.666008 L170.34571,802.207008 C164.68571,802.323008 158.63571,805.108008 154.37471,808.767008 C147.67071,814.525008 146.04471,822.146008 145.34771,830.539008 C142.80071,828.063008 140.87171,825.287008 139.88671,821.838008 C138.52471,817.069008 139.63171,812.297008 142.14971,808.118008 C150.23171,794.707008 168.51471,789.500008 182.73071,786.024008 Z M108.62871,15.6095078 C108.72171,15.5933078 108.81271,15.5695078 108.90671,15.5609078 C124.63071,14.1133078 141.38971,20.1972078 154.00671,29.3205078 C180.08071,48.1740078 191.63871,76.9960078 196.52771,107.756008 C186.81771,113.544008 177.51471,119.443008 168.43071,126.188008 C166.59171,107.813008 162.41871,91.0040078 154.61871,74.2030078 C147.72671,61.3640078 138.51171,49.2280078 125.59071,41.9646078 C114.52871,35.7458078 101.75271,34.0696078 89.50871,37.6290078 C71.54971,42.8494078 57.70371,57.1160078 48.99171,73.1340078 C51.73971,60.4140078 58.58171,47.7780078 66.87271,37.7979078 C77.69671,24.7669078 91.78571,17.2514078 108.62871,15.6095078 Z M418.86471,800.981008 L419.51571,801.158008 C421.55071,803.371008 423.01371,806.277008 424.15671,809.047008 C427.87171,818.054008 429.10471,829.371008 425.06171,838.482008 C421.23671,847.101008 414.08971,850.803008 405.79571,853.981008 C407.62171,845.340008 408.97771,837.253008 404.57371,829.103008 C403.45971,827.041008 401.85871,825.470008 399.53571,824.917008 C398.40571,824.648008 398.89471,824.601008 397.88371,825.185008 C396.88671,833.434008 399.52571,841.711008 397.38171,849.997008 C396.69571,852.645008 395.31071,855.018008 392.87371,856.390008 C387.08071,859.651008 372.67171,858.322008 366.24871,856.547008 C362.74571,848.314008 363.27271,839.584008 365.14371,831.032008 C365.77371,828.760008 367.59171,824.413008 366.42271,822.323008 L365.22271,822.026008 C363.58771,822.645008 362.44471,823.720008 361.27571,825.005008 C353.29071,833.789008 354.34371,843.748008 354.93871,854.748008 C352.47071,853.841008 349.89971,852.984008 347.58571,851.724008 C341.89071,848.621008 337.96571,843.590008 336.21771,837.358008 C332.86871,825.419008 337.31371,812.285008 343.12271,801.885008 C365.71371,808.520008 396.41171,807.530008 418.86471,800.981008 Z"/><path fill="#7A7BBE" d="M439.99071,581.304008 C441.62671,583.881008 442.82171,604.253008 442.63171,608.549008 C442.47271,612.142008 441.45771,615.391008 438.64671,617.777008 C433.41571,622.219008 424.18671,623.821008 417.65271,625.615008 C367.08771,639.491008 305.45571,641.874008 253.44271,636.861008 L252.36371,630.797008 C251.41671,626.466008 250.12071,622.192008 248.93871,617.919008 C256.76971,619.224008 264.72271,618.253008 272.50371,617.132008 C275.22871,619.280008 277.77771,620.931008 281.08871,622.105008 C293.81371,626.617008 316.92571,626.105008 330.75471,625.342008 C372.14171,623.061008 411.29771,613.330008 439.99071,581.304008 Z"/><path fill="#C3C2C1" d="M85.60171,405.992008 C89.90971,405.594008 94.33871,405.574008 98.23071,407.735008 C105.95371,412.024008 107.38571,423.068008 109.41971,430.847008 C114.40571,431.022008 131.22171,429.657008 134.39171,431.670008 C138.52871,434.297008 142.87371,448.782008 143.95271,453.659008 C144.38271,455.601008 144.58171,457.275008 143.47771,459.015008 C140.46471,460.975008 116.74571,459.932008 111.52871,459.911008 L79.71171,459.947008 C73.59971,459.950008 66.71371,460.597008 60.74571,459.329008 C59.95671,458.758008 59.46971,458.158008 58.97971,457.329008 C56.90571,453.820008 51.38371,437.229008 52.57871,433.927008 C54.83671,427.692008 65.67871,432.614008 70.44771,430.557008 C74.22771,428.926008 72.61971,418.592008 74.61971,414.416008 C76.80171,409.861008 81.05071,407.594008 85.60171,405.992008 Z"/><path fill="#313945" d="M86.72871,410.997008 C88.02871,410.889008 89.47971,410.814008 90.77171,411.020008 C93.56871,411.466008 96.33071,413.555008 97.80271,415.924008 C97.9960434,416.240008 98.17271,416.565341 98.33271,416.900008 C98.4920434,417.234674 98.6340434,417.576674 98.75871,417.926008 C98.88271,418.275341 98.9883767,418.630008 99.07571,418.990008 C99.1630434,419.350674 99.2313767,419.714674 99.28071,420.082008 C99.3300434,420.449341 99.3600434,420.818341 99.37071,421.189008 C99.3820434,421.559008 99.3740434,421.929008 99.34671,422.299008 C99.3193767,422.668341 99.27271,423.035674 99.20671,423.401008 C99.1413767,423.765674 99.0570434,424.126008 98.95371,424.482008 C97.88571,428.161008 95.49271,430.107008 92.22671,431.830008 C90.86471,431.888008 89.40371,431.983008 88.06471,431.692008 C85.40571,431.115008 82.93371,429.305008 81.47071,427.029008 C81.26471,426.709674 81.0760434,426.380341 80.90471,426.041008 C80.7340434,425.701674 80.5810434,425.354674 80.44571,425.000008 C80.3110434,424.644674 80.1950434,424.283341 80.09771,423.916008 C80.0010434,423.548674 79.9233767,423.177008 79.86471,422.801008 C79.80671,422.425674 79.7683767,422.048341 79.74971,421.669008 C79.7310434,421.289674 79.7323767,420.910341 79.75371,420.531008 C79.7743767,420.151008 79.8150434,419.773674 79.87571,419.399008 C79.9363767,419.023674 80.0163767,418.652674 80.11571,418.286008 C81.13071,414.556008 83.45971,412.751008 86.72871,410.997008 Z"/><path fill="#C3C2C1" d="M88.23171,418.305008 C88.3750434,418.261008 88.5203767,418.227008 88.66771,418.203008 C88.81571,418.178341 88.9643767,418.164008 89.11371,418.160008 C89.2630434,418.155341 89.4123767,418.160674 89.56171,418.176008 C89.7103767,418.192008 89.8573767,418.217674 90.00271,418.253008 C90.1480434,418.287674 90.2903767,418.332341 90.42971,418.387008 C90.56971,418.441008 90.7050434,418.504341 90.83571,418.577008 C90.9670434,418.649008 91.09271,418.729674 91.21271,418.819008 C91.33271,418.907674 91.4463767,419.004341 91.55371,419.109008 C91.6610434,419.213674 91.76071,419.324674 91.85271,419.442008 C91.9453767,419.560008 92.02971,419.683341 92.10571,419.812008 C92.18171,419.940674 92.24871,420.074008 92.30671,420.212008 C92.36471,420.350008 92.4133767,420.491341 92.45271,420.636008 C92.4913767,420.780008 92.52071,420.926341 92.54071,421.075008 C92.5600434,421.223008 92.56971,421.372008 92.56971,421.522008 C92.5690434,421.671341 92.55871,421.820008 92.53871,421.968008 C92.51871,422.116674 92.48871,422.263008 92.44871,422.407008 C92.40871,422.551008 92.3593767,422.692008 92.30071,422.830008 C92.24271,422.967341 92.1753767,423.100341 92.09871,423.229008 C92.0220434,423.357674 91.9373767,423.480674 91.84471,423.598008 C91.7520434,423.715341 91.65171,423.826008 91.54371,423.930008 C91.4363767,424.034008 91.3223767,424.130341 91.20171,424.219008 C91.0810434,424.307674 90.9550434,424.388008 90.82371,424.460008 C90.6923767,424.532008 90.5570434,424.594674 90.41771,424.648008 C90.27771,424.702008 90.1350434,424.746341 89.98971,424.781008 C89.8850434,424.805674 89.7793767,424.825674 89.67271,424.841008 C89.5660434,424.855674 89.45871,424.865008 89.35071,424.869008 C89.2433767,424.873674 89.13571,424.873008 89.02771,424.867008 C88.9203767,424.861008 88.8133767,424.850008 88.70671,424.834008 C88.6000434,424.818008 88.49471,424.796674 88.39071,424.770008 C88.2860434,424.744008 88.1830434,424.712674 88.08171,424.676008 C87.9803767,424.640008 87.88071,424.599008 87.78271,424.553008 C87.6853767,424.507008 87.5903767,424.456674 87.49771,424.402008 C87.4050434,424.346674 87.3153767,424.287341 87.22871,424.224008 C87.1420434,424.160008 87.0583767,424.092008 86.97771,424.020008 C86.8970434,423.948674 86.8203767,423.873341 86.74771,423.794008 C86.6743767,423.714674 86.6050434,423.632341 86.53971,423.547008 C86.4743767,423.461008 86.4133767,423.372341 86.35671,423.281008 C86.3000434,423.189008 86.2480434,423.094674 86.20071,422.998008 C86.1533767,422.901341 86.1103767,422.802674 86.07171,422.702008 C86.03371,422.601341 86.00071,422.499008 85.97271,422.395008 C85.94471,422.291008 85.9213767,422.186008 85.90271,422.080008 C85.88471,421.973341 85.8720434,421.866341 85.86471,421.759008 C85.85671,421.651674 85.8540434,421.544008 85.85671,421.436008 C85.85871,421.328674 85.8663767,421.221341 85.87971,421.114008 C85.8923767,421.007341 85.9103767,420.901341 85.93371,420.796008 C85.9563767,420.690674 85.9843767,420.586674 86.01771,420.484008 C86.0510434,420.382008 86.0890434,420.281341 86.13171,420.182008 C86.1743767,420.083341 86.22171,419.986674 86.27371,419.892008 C86.32571,419.798008 86.3823767,419.706674 86.44371,419.618008 C86.5043767,419.528674 86.5693767,419.442674 86.63871,419.360008 C86.7073767,419.278008 86.7803767,419.199008 86.85771,419.123008 C86.9343767,419.047674 87.0143767,418.976008 87.09771,418.908008 C87.18171,418.840008 87.26871,418.776341 87.35871,418.717008 C87.4480434,418.657674 87.5403767,418.602674 87.63571,418.552008 C87.7310434,418.501341 87.8283767,418.455341 87.92771,418.414008 C88.0270434,418.372674 88.1283767,418.336341 88.23171,418.305008 Z"/><path fill="#477599" d="M424.47371,777.361008 L425.09871,777.592008 C425.33271,778.206008 425.40371,778.290008 425.46371,779.048008 C425.68971,781.918008 424.25671,784.929008 422.45271,787.046008 C421.49571,788.168008 420.10671,789.580008 418.72871,790.178008 C412.19471,793.013008 397.57271,794.615008 390.14771,795.067008 C376.82371,795.878008 344.56771,795.961008 334.43871,787.010008 C332.70471,784.570008 332.08471,781.465008 331.29071,778.622008 C336.54171,780.138008 341.77671,781.918008 347.12871,783.029008 C372.39871,788.276008 400.53871,787.256008 424.47371,777.361008 Z M188.63671,768.062008 C195.51271,770.158008 202.02171,772.777008 209.09471,774.374008 C231.13271,779.350008 258.76971,778.792008 280.33271,772.138008 C279.72471,774.965008 279.28571,777.621008 277.85571,780.180008 C277.70071,780.326008 277.55371,780.480008 277.39171,780.619008 C269.12171,787.692008 244.00171,787.767008 233.57971,787.269008 C220.44071,786.641008 199.15571,784.367008 189.73571,774.061008 C189.26371,772.079008 188.96171,770.072008 188.63671,768.062008 Z"/><path fill="#F2F2F4" d="M28.02671,512.492008 C33.58571,512.043008 39.94071,511.923008 45.08671,514.364008 C47.44671,515.484008 49.61871,517.295008 50.37571,519.885008 C51.00171,522.026008 50.59971,524.241008 49.46071,526.133008 C46.41771,531.184008 39.64771,533.099008 34.31671,534.575008 C28.90271,535.290008 23.04671,535.835008 17.95371,533.421008 C15.26971,532.150008 12.87471,530.032008 11.99071,527.116008 C11.30771,524.861008 11.69871,522.495008 12.93071,520.506008 C16.01871,515.518008 22.61771,513.629008 28.02671,512.492008 Z M54.35871,536.892008 C56.20571,537.659008 57.51771,539.219008 58.45071,540.973008 C59.55871,543.055008 59.40871,545.562008 58.59471,547.712008 C57.01171,551.893008 53.54371,554.560008 49.57371,556.344008 C41.01171,560.191008 30.67071,560.752008 21.87071,557.462008 C18.69271,555.668008 16.76871,554.009008 15.39571,550.539008 C14.74771,548.901008 14.38871,546.948008 15.33371,545.338008 C15.65971,544.782008 15.86271,544.596008 16.32071,544.236008 C18.44571,542.568008 25.80671,543.914008 28.84271,543.868008 C37.77871,543.732008 46.14971,540.028008 54.35871,536.892008 Z M56.72371,564.954008 C57.33471,564.916008 57.53871,564.882008 58.20371,564.954008 C59.49071,565.093008 60.57671,565.627008 61.27271,566.767008 C62.26171,568.388008 62.05171,570.653008 61.48471,572.377008 C60.08171,576.644008 56.64971,579.695008 52.62771,581.482008 C46.66171,584.133008 40.90171,583.846008 34.96571,581.504008 C30.47071,578.465008 28.57571,575.438008 26.82371,570.437008 C37.56471,570.212008 46.58871,568.269008 56.72371,564.954008 Z"/></g></svg>