<svg xmlns="http://www.w3.org/2000/svg" width="888" height="906" viewBox="0 0 888 906"><g fill="none" transform="translate(.488 .338)"><path fill="#313945" d="M385.815169,0.36290281 C386.797169,0.19580281 386.546169,0.20440281 387.388169,0.16370281 C405.444169,-0.70999719 423.510169,2.08220281 441.343169,4.54050281 C476.574169,9.39710281 514.628169,13.4894028 542.106169,38.7375028 C559.303169,22.9840028 581.849169,10.0669028 605.248169,7.28790281 C605.962169,7.20510281 606.677169,7.13113614 607.393169,7.06600281 C608.108503,7.00086948 608.824836,6.94456948 609.542169,6.89710281 C610.259503,6.84970281 610.977169,6.81110281 611.695169,6.78130281 C612.413169,6.75156948 613.131503,6.73070281 613.850169,6.71870281 C614.568836,6.70663614 615.287503,6.70343614 616.006169,6.70910281 C616.724836,6.71483614 617.443503,6.72940281 618.162169,6.75280281 C618.880169,6.77626948 619.598169,6.80856948 620.316169,6.84970281 C621.033503,6.89083614 621.750503,6.94080281 622.467169,6.99960281 C623.183169,7.05846948 623.898503,7.12613614 624.613169,7.20260281 C625.327836,7.27906948 626.041503,7.36433614 626.754169,7.45840281 C627.466836,7.55246948 628.178169,7.65533614 628.888169,7.76700281 C629.598169,7.87860281 630.306503,7.99896948 631.013169,8.12810281 C631.720503,8.25723614 632.426169,8.39503614 633.130169,8.54150281 C633.833503,8.68803614 634.535169,8.84320281 635.235169,9.00700281 C635.935169,9.17086948 636.632836,9.34330281 637.328169,9.52430281 C638.023503,9.70536948 638.716836,9.89496948 639.408169,10.0931028 C640.098836,10.2912361 640.787169,10.4978695 641.473169,10.7130028 C642.158503,10.9281361 642.841503,11.1516695 643.522169,11.3836028 C644.202169,11.6156028 644.879503,11.8559361 645.554169,12.1046028 C646.228169,12.3532695 646.899169,12.6102361 647.567169,12.8755028 C648.235169,13.1407028 648.899836,13.4141361 649.561169,13.6958028 C650.222503,13.9774028 650.880169,14.2671361 651.534169,14.5650028 C652.188169,14.8628695 652.838503,15.1687695 653.485169,15.4827028 C654.131836,15.7965695 654.774503,16.1184028 655.413169,16.4482028 C656.051836,16.7779361 656.686503,17.1155028 657.317169,17.4609028 C657.947169,17.8063695 658.572836,18.1595361 659.194169,18.5204028 C659.816169,18.8812028 660.433503,19.2496361 661.046169,19.6257028 C661.658169,20.0018361 662.265836,20.3854361 662.869169,20.7765028 C663.471836,21.1675695 664.069836,21.5660028 664.663169,21.9718028 C665.256503,22.3776695 665.844836,22.7907695 666.428169,23.2111028 C667.010836,23.6314361 667.588503,24.0588695 668.161169,24.4934028 C668.733836,24.9280028 669.300836,25.3696028 669.862169,25.8182028 C695.526169,46.0143028 708.782169,78.3809028 712.423169,110.122903 C716.717169,147.560903 707.183169,186.587903 683.463169,216.211903 C682.406503,217.537236 681.322836,218.840236 680.212169,220.120903 C679.101503,221.401569 677.965169,222.659236 676.803169,223.893903 C675.641169,225.127903 674.454169,226.337569 673.242169,227.522903 C672.030836,228.708236 670.795503,229.868236 669.536169,231.002903 C668.276836,232.137569 666.994503,233.246236 665.689169,234.328903 C664.384503,235.410903 663.058169,236.465569 661.710169,237.492903 C660.362169,238.520903 658.993503,239.520569 657.604169,240.491903 C656.214836,241.463236 654.806169,242.405903 653.378169,243.319903 C651.950169,244.233236 650.504169,245.117236 649.040169,245.971903 C647.576169,246.825903 646.095169,247.649569 644.597169,248.442903 C643.099169,249.236236 641.585503,249.998569 640.056169,250.729903 C638.526836,251.461236 636.983169,252.160903 635.425169,252.828903 C633.867169,253.496903 632.296169,254.132903 630.712169,254.736903 C629.128169,255.340236 627.532169,255.910903 625.924169,256.448903 C624.316836,256.986903 622.699169,257.491569 621.071169,257.962903 C619.442503,258.434236 617.805169,258.872236 616.159169,259.276903 C608.845169,261.035903 601.486169,261.862903 594.027169,262.693903 C600.743169,290.135903 602.308169,316.313903 596.311169,344.101903 C599.028169,345.049903 602.260169,345.826903 604.155169,348.136903 C605.067169,349.248903 605.606169,350.372903 605.409169,351.838903 C605.271169,352.870903 604.559169,353.795903 603.689169,354.352903 C600.437169,356.434903 596.608169,355.270903 593.126169,354.496903 C588.518169,369.038903 580.777169,385.151903 570.523169,396.439903 C574.554169,397.153903 578.603169,397.847903 582.523169,399.051903 C597.260169,403.579903 608.928169,413.898903 616.106169,427.448903 C625.980169,446.088903 626.600169,469.401903 620.466169,489.319903 C614.698169,508.049903 603.948169,523.145903 586.566169,532.439903 C588.834169,542.780903 589.650169,557.036903 590.884169,567.816903 L594.767169,602.157903 C596.086169,614.023903 598.667169,627.561903 596.567169,639.394903 C595.001169,648.219903 588.374169,654.311903 581.385169,659.227903 C583.506169,670.849903 582.221169,685.379903 580.298169,697.076903 C591.699169,715.193903 607.514169,732.706903 624.720169,745.444903 C645.140169,760.560903 670.457169,769.524903 695.988169,765.555903 C711.924169,763.078903 727.703169,755.054903 737.319169,741.843903 C742.710169,734.437903 745.826169,725.914903 747.363169,716.926903 C753.975169,678.246903 726.611169,647.900903 720.847169,611.440903 C716.855169,586.189903 721.216169,559.738903 736.574169,538.901903 C737.015503,538.314569 737.463836,537.732903 737.919169,537.156903 C738.374503,536.580236 738.836836,536.009569 739.306169,535.444903 C739.775503,534.879569 740.251836,534.320236 740.735169,533.766903 C741.217836,533.213569 741.707503,532.666236 742.204169,532.124903 C742.700836,531.583569 743.203836,531.048569 743.713169,530.519903 C744.223169,529.991236 744.739169,529.468569 745.261169,528.951903 C745.783836,528.435903 746.312836,527.926236 746.848169,527.422903 C747.382836,526.919569 747.923836,526.422903 748.471169,525.932903 C749.018503,525.442903 749.571503,524.959569 750.130169,524.482903 C750.689503,524.006903 751.254503,523.537569 751.825169,523.074903 C752.395169,522.612236 752.971169,522.156569 753.553169,521.707903 C754.135169,521.259903 754.722503,520.818903 755.315169,520.384903 C755.907169,519.950903 756.504836,519.524236 757.108169,519.104903 C757.710836,518.685569 758.318836,518.273569 758.932169,517.868903 C759.545503,517.464236 760.163503,517.067236 760.786169,516.677903 C761.408836,516.289236 762.036503,515.907903 762.669169,515.533903 C763.301169,515.159903 763.937836,514.793903 764.579169,514.435903 C765.220503,514.077236 765.866169,513.726903 766.516169,513.384903 C767.165503,513.042236 767.819169,512.707903 768.477169,512.381903 C769.135169,512.055236 769.797169,511.736903 770.463169,511.426903 C771.129169,511.116903 771.798836,510.814903 772.472169,510.520903 C773.145503,510.227569 773.822169,509.942236 774.502169,509.664903 C775.182169,509.388236 775.865836,509.119569 776.553169,508.858903 C777.239836,508.598903 777.929836,508.347236 778.623169,508.103903 C779.315836,507.860569 780.011503,507.625569 780.710169,507.398903 C781.408836,507.172903 782.110503,506.955236 782.815169,506.745903 C783.519169,506.537236 784.225503,506.336903 784.934169,506.144903 C785.643503,505.952903 786.354836,505.769903 787.068169,505.595903 C787.782169,505.421903 788.497836,505.256569 789.215169,505.099903 C789.932503,504.942569 790.651836,504.794569 791.373169,504.655903 C792.094503,504.516569 792.817503,504.386236 793.542169,504.264903 C794.266169,504.143569 794.991836,504.031236 795.719169,503.927903 C796.373836,503.836569 797.029503,503.753236 797.686169,503.677903 C798.343503,503.601903 799.001169,503.534236 799.659169,503.474903 C800.317836,503.415569 800.976836,503.364236 801.636169,503.320903 C802.296169,503.277569 802.956503,503.242569 803.617169,503.215903 C804.277836,503.188569 804.938503,503.169236 805.599169,503.157903 C806.260503,503.147236 806.921503,503.144569 807.582169,503.149903 C808.243503,503.155236 808.904503,503.168569 809.565169,503.189903 C810.225836,503.211236 810.886169,503.240569 811.546169,503.277903 C812.206169,503.315236 812.865836,503.360569 813.525169,503.413903 C814.183836,503.467903 814.841836,503.529569 815.499169,503.598903 C816.157169,503.668903 816.813836,503.746903 817.469169,503.832903 C818.124503,503.918236 818.778836,504.011903 819.432169,504.113903 C820.085503,504.215903 820.737503,504.325569 821.388169,504.442903 C822.038836,504.560903 822.687836,504.686569 823.335169,504.819903 C823.982503,504.953236 824.628169,505.094569 825.272169,505.243903 C825.916169,505.393903 826.558169,505.551236 827.198169,505.715903 C827.838836,505.881236 828.477169,506.054236 829.113169,506.234903 C829.749169,506.415569 830.382836,506.603903 831.014169,506.799903 C831.645503,506.995903 832.274169,507.199569 832.900169,507.410903 C833.526836,507.622903 834.150503,507.842236 834.771169,508.068903 C835.392503,508.295569 836.010836,508.529903 836.626169,508.771903 C837.240836,509.013903 837.852836,509.263236 838.462169,509.519903 C839.071503,509.776569 839.677503,510.040903 840.280169,510.312903 C840.882836,510.584236 841.482169,510.863236 842.078169,511.149903 C842.674169,511.435903 843.266503,511.729569 843.855169,512.030903 C844.443836,512.331569 845.028836,512.639569 845.610169,512.954903 C846.191503,513.269569 846.768836,513.591569 847.342169,513.920903 C847.915503,514.250236 848.484503,514.586569 849.049169,514.929903 C849.614503,515.272569 850.175503,515.622569 850.732169,515.979903 C851.288169,516.336569 851.840169,516.700236 852.388169,517.070903 C852.935503,517.440903 853.478503,517.817903 854.017169,518.201903 C854.555836,518.585236 855.089503,518.975236 855.618169,519.371903 C856.140169,519.757236 856.657503,520.148903 857.170169,520.546903 C857.682836,520.945569 858.190169,521.350236 858.692169,521.760903 C859.194836,522.171569 859.692169,522.588569 860.184169,523.011903 C860.676169,523.435236 861.162836,523.864569 861.644169,524.299903 C862.124836,524.735236 862.600503,525.176569 863.071169,525.623903 C863.541169,526.070569 864.005836,526.523569 864.465169,526.982903 C864.923836,527.441569 865.377169,527.905903 865.825169,528.375903 C866.272503,528.845903 866.713836,529.321569 867.149169,529.802903 C867.585169,530.283569 868.014836,530.769903 868.438169,531.261903 C868.861503,531.753236 869.278836,532.250236 869.690169,532.752903 C870.100836,533.254903 870.505503,533.761903 870.904169,534.273903 C871.302836,534.785903 871.694836,535.302903 872.080169,535.824903 C872.466169,536.346903 872.845169,536.873903 873.217169,537.405903 C873.589836,537.937236 873.955836,538.473236 874.315169,539.013903 C874.673836,539.553903 875.026169,540.098569 875.372169,540.647903 C875.717503,541.197236 876.056169,541.750903 876.388169,542.308903 C876.719503,542.866903 877.044169,543.428569 877.362169,543.993903 C877.680169,544.559903 877.990836,545.129903 878.294169,545.703903 C878.597503,546.277236 878.893836,546.854236 879.183169,547.434903 C879.472503,548.016236 879.754503,548.600903 880.029169,549.188903 C880.303836,549.776903 880.571169,550.368236 880.831169,550.962903 C881.091169,551.557569 881.343503,552.155236 881.588169,552.755903 C881.833503,553.356569 882.071169,553.960569 882.301169,554.567903 C882.531169,555.174569 882.753503,555.784236 882.968169,556.396903 C883.182836,557.008903 883.390169,557.623569 883.590169,558.240903 C883.789503,558.858903 883.981169,559.478903 884.165169,560.100903 C884.349169,560.723569 884.525503,561.348236 884.694169,561.974903 C884.862169,562.601569 885.022836,563.230236 885.176169,563.860903 C885.328836,564.491569 885.473836,565.124236 885.611169,565.758903 C885.747836,566.392903 885.876836,567.028569 885.998169,567.665903 C886.119503,568.303903 886.232836,568.942903 886.338169,569.582903 C886.443503,570.223569 886.540836,570.865236 886.630169,571.507903 C888.075169,582.440903 887.607169,601.642903 880.262169,610.591903 C878.840169,612.324903 877.001169,613.566903 874.706169,613.652903 C872.063169,613.750903 870.034169,612.323903 868.703169,610.121903 C866.222169,606.021903 865.233169,600.488903 863.980169,595.914903 C860.167169,581.990903 854.725169,568.493903 843.831169,558.550903 C834.196169,549.755903 822.627169,544.484903 809.464169,545.151903 C797.856169,545.739903 786.597169,551.308903 778.830169,559.939903 C750.869169,591.011903 774.608169,625.068903 786.547169,656.685903 C792.061169,671.283903 795.143169,687.083903 795.970169,702.640903 C797.526169,731.943903 788.776169,760.434903 768.973169,782.369903 C748.821169,804.691903 718.745169,816.168903 689.034169,817.495903 C655.066169,819.012903 619.767169,807.193903 592.366169,787.356903 C584.981169,782.010903 578.368169,775.832903 571.647169,769.694903 C572.149169,775.068903 571.984169,780.497903 572.398169,785.882903 C573.290169,797.491903 576.860169,811.439903 571.123169,822.140903 C574.773169,837.666903 577.538169,853.968903 572.044169,869.437903 C567.579169,882.010903 558.457169,889.826903 546.724169,895.491903 C522.253169,906.350903 490.504169,909.054903 465.012169,900.232903 C455.917169,897.084903 447.094169,891.837903 442.864169,882.790903 C438.941169,874.399903 439.615169,863.679903 442.745169,855.144903 C446.889169,843.843903 457.134169,833.060903 468.008169,828.022903 C463.918169,825.288903 460.984169,822.566903 459.357169,817.793903 C456.739169,810.113903 458.011169,802.738903 457.141169,794.955903 C455.658169,781.672903 452.738169,768.284903 450.636169,755.048903 C449.131169,745.565903 448.520169,735.061903 445.894169,725.855903 L439.241169,725.553903 C437.363169,744.705903 433.190169,763.710903 431.398169,782.913903 C430.765169,789.698903 431.611169,796.581903 431.138169,803.396903 C430.639169,810.565903 430.222169,817.148903 424.465169,822.160903 C425.389169,825.255903 426.129169,828.317903 426.587169,831.519903 C428.135169,842.323903 427.330169,853.847903 420.514169,862.816903 C406.390169,881.403903 372.106169,888.933903 349.733169,891.784903 C325.908169,894.819903 293.131169,894.241903 273.456169,878.794903 C266.904169,873.649903 261.870169,866.838903 260.906169,858.346903 C259.837169,848.926903 262.304169,840.898903 268.319169,833.546903 C280.682169,818.437903 299.739169,814.322903 318.203169,812.565903 C315.853169,803.688903 317.024169,795.090903 316.660169,786.088903 C316.304169,777.281903 315.084169,768.624903 315.040169,759.770903 C263.606169,761.751903 205.008169,753.687903 156.322169,736.994903 C144.556169,732.960903 132.360169,728.308903 121.628169,721.961903 C115.526169,718.351903 109.718169,713.557903 106.403169,707.175903 C101.859169,698.427903 98.8721694,677.070903 95.7761694,666.112903 C92.2901694,653.775903 88.5091694,641.457903 84.6261694,629.240903 C82.6671694,623.074903 80.3161694,616.995903 78.7171694,610.727903 C75.4511694,611.364903 72.2191694,611.715903 68.8921694,611.592903 C60.0891694,611.264903 51.8291694,607.850903 45.8421694,601.296903 C38.4792694,593.237903 37.3770694,584.235903 37.8305694,573.751903 C36.5873694,572.168903 35.3775694,570.503903 34.3321694,568.781903 C30.8430694,563.034903 29.3686694,555.817903 31.1473694,549.258903 C32.6988694,543.536903 36.4319694,539.400903 41.4955694,536.479903 C31.7688694,509.241903 -5.81823064,442.820903 0.769869364,416.599903 C3.27406936,406.632903 10.6207694,398.772903 19.2054694,393.526903 C26.7844694,388.895903 36.9693694,385.886903 45.7751694,388.209903 C48.2121694,388.852903 51.6241694,389.998903 53.3551694,391.924903 C61.0721694,400.511903 62.7091694,415.104903 66.3621694,425.840903 C69.6951694,435.635903 73.6901694,446.380903 78.8251694,455.331903 C78.9291694,455.512903 79.0381694,455.691903 79.1441694,455.872903 C93.1191694,459.432903 107.969169,461.661903 122.251169,463.574903 C163.835169,469.144903 204.647169,470.156903 246.273169,464.694903 C255.010169,463.548903 263.801169,462.322903 272.438169,460.562903 C279.034169,459.217903 285.553169,457.367903 292.229169,456.463903 L293.098169,456.349903 C286.589169,452.765903 279.975169,449.494903 273.658169,445.557903 C246.823169,428.833903 225.571169,405.919903 213.482169,376.450903 C207.490169,377.485903 174.293169,383.631903 171.128169,382.039903 C169.820169,381.382903 169.116169,379.843903 168.894169,378.464903 C168.678169,377.118903 169.032169,375.854903 169.849169,374.769903 C174.638169,368.411903 201.753169,365.834903 209.802169,364.800903 C207.164169,357.109903 206.131169,348.792903 204.776169,340.804903 C196.674169,338.782903 166.023169,335.927903 161.480169,332.431903 C160.126169,331.389903 159.389169,329.653903 159.417169,327.959903 C159.437169,326.737903 159.947169,325.672903 160.912169,324.913903 C166.631169,320.416903 196.146169,326.275903 204.047169,327.420903 C203.833169,321.422903 203.277169,315.437903 203.175169,309.432903 C202.786169,286.539903 204.416169,261.010903 210.391169,238.808903 C196.903169,238.086903 173.985169,232.895903 164.096169,223.475903 C160.497169,220.046903 157.922169,215.548903 157.842169,210.485903 C157.701169,201.626903 164.535169,195.806903 170.302169,190.115903 C155.387169,165.134903 147.179169,139.092903 147.840169,109.863903 C148.487169,81.2579028 157.978169,50.1068028 179.145169,29.9523028 C193.713169,16.0815028 215.903169,6.63810281 236.153169,7.35420281 C259.288169,8.17230281 282.545169,20.2413028 298.166169,37.0459028 C326.348169,16.6348028 350.444169,4.08190281 385.815169,0.36290281 Z"/><path fill="#F2F2F4" d="M494.800169,161.211903 C497.630169,150.231903 500.402169,139.270903 504.151169,128.557903 C516.890169,92.1539028 539.072169,55.4369028 573.045169,35.4805028 C590.844169,25.0245028 611.442169,19.6476028 631.800169,24.9626028 C653.391169,30.5994028 670.469169,46.3221028 681.388169,65.3799028 C698.584169,95.3899028 701.867169,131.362903 692.706169,164.422903 C692.458836,165.346236 692.199836,166.266236 691.929169,167.182903 C691.658503,168.100236 691.376169,169.013569 691.082169,169.922903 C690.788836,170.832903 690.483836,171.738903 690.167169,172.640903 C689.851169,173.542903 689.523503,174.440903 689.184169,175.334903 C688.845503,176.228903 688.495169,177.118236 688.133169,178.002903 C687.771836,178.888236 687.399503,179.768569 687.016169,180.643903 C686.632836,181.519903 686.238503,182.390569 685.833169,183.255903 C685.427169,184.121903 685.010836,184.982569 684.584169,185.837903 C684.156836,186.693236 683.718836,187.542903 683.270169,188.386903 C682.822169,189.230903 682.363503,190.069236 681.894169,190.901903 C681.424169,191.735236 680.944169,192.561903 680.454169,193.381903 C679.963503,194.202569 679.462836,195.016903 678.952169,195.824903 C678.441503,196.632903 677.920503,197.434569 677.389169,198.229903 C676.858503,199.024569 676.317503,199.812569 675.766169,200.593903 C675.215503,201.375236 674.655169,202.149569 674.085169,202.916903 C673.514503,203.684236 672.934503,204.444236 672.345169,205.196903 C671.755836,205.949569 671.157169,206.694569 670.549169,207.431903 C669.941169,208.169903 669.323836,208.899903 668.697169,209.621903 C668.070503,210.343903 667.434836,211.057903 666.790169,211.763903 C666.146169,212.469903 665.492836,213.167569 664.830169,213.856903 C664.168169,214.546903 663.497836,215.228236 662.819169,215.900903 C662.139836,216.573569 661.452169,217.237569 660.756169,217.892903 C660.060169,218.548236 659.356169,219.194903 658.644169,219.832903 C657.932169,220.470236 657.212169,221.098903 656.484169,221.718903 C655.756169,222.338236 655.020503,222.948569 654.277169,223.549903 C653.533836,224.151236 652.783169,224.742903 652.025169,225.324903 C651.266503,225.906903 650.500836,226.479569 649.728169,227.042903 C648.955503,227.605569 648.176169,228.158569 647.390169,228.701903 C646.603503,229.245236 645.810169,229.778903 645.010169,230.302903 C644.210169,230.826236 643.403836,231.339236 642.591169,231.841903 C641.777836,232.345236 640.958836,232.838236 640.134169,233.320903 C639.308836,233.803569 638.477503,234.275569 637.640169,234.736903 C622.439169,243.267903 606.265169,247.887903 588.790169,247.697903 C587.557169,244.712903 586.280169,241.739903 585.092169,238.736903 C580.205169,228.664903 574.938169,218.898903 567.317169,210.598903 C570.272169,197.003903 576.466169,181.112903 575.988169,167.337903 C575.345169,166.353903 574.704169,165.327903 573.950169,164.424903 C572.865169,163.123903 571.229169,162.463903 569.578169,162.299903 C561.580169,161.506903 551.389169,169.712903 545.628169,174.507903 C547.927169,151.727903 553.716169,128.023903 564.297169,107.616903 C577.274169,82.5919028 603.635169,53.7729028 634.855169,57.9319028 C639.235169,58.5159028 649.172169,62.7599028 652.773169,61.6259028 C654.120169,60.6119028 654.628169,59.6769028 655.365169,58.1779028 C652.611169,53.0633028 647.405169,50.6680028 642.043169,49.0679028 C641.133169,48.8011695 640.217169,48.5571695 639.295169,48.3359028 C638.373169,48.1146361 637.446503,47.9164028 636.515169,47.7412028 C635.583169,47.5659361 634.647503,47.4139361 633.708169,47.2852028 C632.768836,47.1564695 631.826836,47.0511028 630.882169,46.9691028 C629.937503,46.8871028 628.991503,46.8286361 628.044169,46.7937028 C627.096169,46.7587028 626.148169,46.7472695 625.200169,46.7594028 C624.252169,46.7714695 623.305169,46.8070695 622.359169,46.8662028 C621.412503,46.9253361 620.468169,47.0079361 619.526169,47.1140028 C618.584169,47.2200028 617.645169,47.3493695 616.709169,47.5021028 C615.773836,47.6547695 614.842503,47.8305695 613.915169,48.0295028 C612.987836,48.2284361 612.066169,48.4502361 611.150169,48.6949028 C610.234169,48.9396361 609.324836,49.2069361 608.422169,49.4968028 C607.519503,49.7866695 606.624503,50.0987695 605.737169,50.4331028 C604.849836,50.7674361 603.971503,51.1235695 603.102169,51.5015028 C602.232836,51.8795028 601.373169,52.2788361 600.523169,52.6995028 C599.673836,53.1201028 598.835169,53.5615695 598.007169,54.0239028 C569.245169,69.7559028 549.987169,106.119903 541.141169,136.687903 C538.310169,146.473903 530.436169,180.654903 534.553169,188.729903 C535.304169,190.201903 536.417169,191.025903 537.991169,191.428903 C540.294169,192.018903 543.289169,189.987903 545.048169,188.708903 C551.256169,184.193903 556.853169,178.496903 563.611169,174.788903 C561.227836,181.870903 558.984503,188.996569 556.881169,196.165903 C555.304169,201.693903 554.053169,207.399903 552.249169,212.846903 C557.021169,218.839903 561.720169,224.764903 565.673169,231.348903 C582.340169,259.112903 588.532169,293.320903 584.929169,325.316903 C584.285169,331.037903 583.267169,336.731903 582.197169,342.385903 C553.629169,338.619903 526.297169,338.589903 497.992169,344.339903 C492.554169,345.444903 485.523169,346.225903 481.087169,349.809903 C479.687169,350.939903 479.090169,351.940903 478.747169,353.720903 C479.137169,355.005903 479.255169,355.646903 480.556169,356.329903 C481.719169,356.938903 483.223169,356.884903 484.483169,356.723903 C489.911169,356.027903 495.342169,354.602903 500.728169,353.623903 C509.224169,352.065903 517.776836,350.934903 526.386169,350.230903 C543.553169,348.843903 562.055169,348.947903 578.982169,352.435903 C572.650169,367.849903 564.274169,383.843903 552.592169,395.930903 C548.399169,393.392903 544.304169,391.149903 539.715169,389.411903 C526.988169,384.592903 491.409169,375.998903 479.123169,379.241903 C477.494169,379.670903 475.414169,380.827903 474.689169,382.435903 C474.179169,383.566903 474.563169,384.119903 475.014169,385.143903 C476.152169,386.135903 477.069169,386.718903 478.543169,387.111903 C483.641169,388.467903 489.440169,388.449903 494.691169,389.108903 C501.393169,389.950903 508.262169,391.463903 514.829169,393.051903 C519.950503,394.295903 525.004836,395.770236 529.992169,397.474903 C534.978836,399.180236 539.877836,401.108903 544.689169,403.260903 C520.123169,425.684903 487.982169,441.398903 456.333169,450.948903 C446.344169,453.962903 430.864169,456.801903 422.055169,460.754903 C417.139169,462.960903 413.402169,467.927903 409.104169,471.155903 C400.818169,477.379903 388.960169,485.592903 379.718169,490.152903 C375.673169,488.264903 372.168169,485.789903 368.739169,482.951903 C371.273169,482.404903 373.773169,481.865903 376.242169,481.061903 C369.450169,478.041903 362.120169,475.133903 356.132169,470.650903 C351.524169,467.200903 347.534169,461.594903 342.317169,459.198903 C335.434169,456.035903 326.695169,455.018903 319.402169,452.179903 C287.993169,439.950903 257.540169,423.141903 237.879169,394.791903 C233.914169,389.074903 230.052169,382.776903 227.499169,376.288903 C230.899169,376.005903 237.405169,376.094903 239.646169,373.006903 C240.057169,372.439903 240.323169,371.950903 240.117169,371.260903 C239.582169,369.463903 237.518169,368.288903 235.897169,367.601903 C231.941169,365.924903 227.404169,365.759903 223.166169,365.503903 C220.918169,358.793903 219.431169,352.171903 218.261169,345.198903 C221.065169,346.127903 225.414169,347.865903 228.227169,346.120903 C228.947169,345.674903 229.394169,345.326903 229.528169,344.478903 C229.756169,343.021903 229.131169,341.782903 228.240168,340.678903 C225.594169,337.402903 221.512169,336.242903 217.660169,335.001903 C213.152169,308.515903 217.044169,265.431903 224.531169,239.547903 C235.191169,240.111903 245.886169,241.526903 256.525169,242.476903 C291.398169,245.592903 326.150169,249.054903 361.199169,247.603903 C375.186503,247.039236 389.080503,245.584903 402.881169,243.240903 C415.193169,241.073903 428.710169,237.052903 441.179169,237.224903 C445.796169,237.287903 450.326169,238.050903 454.574169,239.907903 C458.343169,241.554903 466.116169,248.678903 469.247169,248.130903 C470.126169,247.300903 470.874169,246.638903 470.895169,245.337903 C470.956169,241.715903 465.327169,236.986903 462.700169,234.846903 C457.396169,230.527903 451.344169,227.816903 445.091169,225.199903 C457.903169,221.769903 496.275169,206.776903 502.830169,195.821903 C503.788169,194.220903 504.283169,192.413903 503.788169,190.563903 C503.069169,187.871903 500.803169,186.022903 498.453169,184.746903 C497.604169,184.284903 496.816169,184.040903 495.885169,183.807903 C498.460169,175.694903 498.549169,169.044903 494.800169,161.211903 Z"/><path fill="#FAC3B7" d="M545.628169,174.507903 C547.927169,151.727903 553.716169,128.023903 564.297169,107.616903 C577.274169,82.5919028 603.635169,53.7729028 634.855169,57.9319028 C639.235169,58.5159028 649.172169,62.7599028 652.773169,61.6259028 C654.120169,60.6119028 654.628169,59.6769028 655.365169,58.1779028 C664.380169,62.3119028 673.157169,82.8559028 676.523169,92.0009028 C676.845169,92.9015695 677.156169,93.8055695 677.456169,94.7129028 C677.756169,95.6209028 678.045169,96.5325695 678.323169,97.4479028 C678.601169,98.3625695 678.867836,99.2805695 679.123169,100.201903 C679.379169,101.123236 679.623503,102.047903 679.856169,102.975903 C680.089503,103.903236 680.311169,104.833236 680.521169,105.765903 C680.731836,106.698569 680.930836,107.633903 681.118169,108.571903 C681.305503,109.509236 681.481503,110.448903 681.646169,111.390903 C681.810836,112.332903 681.964169,113.276569 682.106169,114.221903 C682.247503,115.167903 682.377503,116.115236 682.496169,117.063903 C682.614836,118.012569 682.721836,118.962903 682.817169,119.914903 C682.913169,120.866236 682.997169,121.818569 683.069169,122.771903 C683.141169,123.725236 683.201836,124.679569 683.251169,125.634903 C683.299836,126.589569 683.337169,127.544903 683.363169,128.500903 C683.389169,129.456903 683.403169,130.412903 683.405953,131.368903 C683.407836,132.324903 683.398836,133.280903 683.378169,134.236903 C683.357503,135.192903 683.325169,136.148569 683.281169,137.103903 C683.236503,138.059236 683.180503,139.013903 683.113169,139.967903 C683.045836,140.921903 682.967169,141.874903 682.877169,142.826903 C682.786503,143.778236 682.684169,144.728903 682.570169,145.678903 C682.456836,146.628236 682.331503,147.575903 682.194169,148.521903 C682.057503,149.468569 681.909169,150.413236 681.749169,151.355903 C681.589836,152.298569 681.418836,153.239236 681.236169,154.177903 C681.052836,155.116569 680.858503,156.052903 680.653169,156.986903 C680.447836,157.920903 680.231169,158.852236 680.003169,159.780903 C679.774503,160.708903 679.534836,161.634569 679.284169,162.557903 C679.033503,163.480569 678.771503,164.399903 678.498169,165.315903 C678.224836,166.232569 677.940503,167.145569 677.645169,168.054903 C677.349836,168.964236 677.043503,169.869903 676.726169,170.771903 C676.408836,171.673903 676.080503,172.571903 675.741169,173.465903 C675.401836,174.359903 675.051503,175.249569 674.690169,176.134903 C674.329503,177.020903 673.957836,177.901903 673.575169,178.777903 C673.193169,179.654569 672.800169,180.526236 672.396169,181.392903 C662.190169,203.230903 642.697169,223.300903 619.706169,231.457903 C612.712169,233.938903 604.981169,236.108903 597.651169,237.290903 C593.816169,237.908903 588.611169,237.368903 585.092169,238.736903 C580.205169,228.664903 574.938169,218.898903 567.317169,210.598903 C570.272169,197.003903 576.466169,181.112903 575.988169,167.337903 C575.345169,166.353903 574.704169,165.327903 573.950169,164.424903 C572.865169,163.123903 571.229169,162.463903 569.578169,162.299903 C561.580169,161.506903 551.389169,169.712903 545.628169,174.507903 Z"/><path fill="#313945" d="M302.420169,359.820903 C308.029169,359.142903 314.506169,359.394903 320.069169,360.323903 C326.622169,361.416903 334.414169,364.135903 338.282169,369.852903 C340.529169,373.173903 340.974169,377.129903 340.036169,380.983903 C337.460169,391.577903 327.717169,397.843903 318.967169,402.992903 C320.948169,408.011903 323.721169,412.204903 328.094169,415.472903 C337.410169,422.437903 350.957169,422.975903 362.012169,421.176903 C373.905169,419.239903 394.626169,410.618903 401.463169,400.341903 C402.366169,398.984903 402.621169,397.954903 402.262169,396.327903 C400.414169,393.466903 397.497169,393.215903 395.002169,391.342903 C393.966169,390.564903 393.923169,390.236903 393.881169,389.073903 C394.619169,387.900903 395.346169,386.999903 396.649169,386.399903 C401.311169,384.248903 409.427169,387.517903 413.877169,389.295903 C418.436169,391.117903 423.171169,394.861903 424.948169,399.582903 C425.536169,401.145903 425.427169,402.165903 424.770169,403.660903 C423.235169,404.488903 421.271169,404.385903 419.635169,403.858903 C419.369169,403.772903 419.107169,403.676903 418.843169,403.584903 L413.741169,401.052903 C405.639169,419.410903 401.894169,444.812903 381.861169,454.654903 C376.193169,457.439903 369.561169,458.362903 363.535169,456.165903 C352.947169,452.304903 347.339169,441.810903 342.876169,432.241903 C339.209169,431.532903 335.534169,430.647903 332.038169,429.320903 C319.446169,424.540903 313.378169,415.257903 308.126169,403.405903 C303.987169,402.679903 300.170169,401.678903 296.518169,399.498903 C290.382169,395.834903 285.451169,389.462903 283.957169,382.418903 C282.925169,377.554903 283.623169,372.338903 286.538169,368.231903 C290.320169,362.905903 296.236169,360.818903 302.420169,359.820903 Z"/><path fill="#FAC3B7" d="M307.926169,368.380903 C312.735169,368.452903 317.482169,368.791903 322.125169,370.141903 C324.957169,370.964903 329.300169,372.581903 330.541169,375.568903 C331.318169,377.438903 331.160169,379.242903 330.324169,381.063903 C327.866169,386.413903 320.813169,390.774903 315.547169,392.812903 C314.540169,393.007903 313.529169,393.195903 312.510169,393.319903 C307.402169,393.938903 302.346169,392.327903 298.410169,389.030903 C295.436169,386.540903 292.844169,382.849903 292.555169,378.877903 C292.388169,376.572903 293.046169,374.364903 294.619169,372.647903 C298.017169,368.938903 303.247169,368.632903 307.926169,368.380903 Z M394.858169,421.112903 C395.307169,421.542903 395.102169,421.248903 395.282169,422.100903 C393.143169,427.769903 389.900169,433.471903 386.116169,438.206903 C382.797169,442.359903 378.309169,446.288903 372.780169,446.707903 C368.196169,447.055903 364.524169,444.981903 361.120169,442.152903 C358.278169,439.365903 356.373169,436.421903 354.510169,432.952903 C369.002169,431.547903 382.104169,428.386903 394.858169,421.112903 Z"/><path fill="#313945" d="M423.917169,280.822903 C429.894169,280.051903 436.625169,282.148903 441.490169,285.569903 C449.684169,291.330903 454.183169,301.019903 455.862169,310.664903 C457.938169,322.588903 455.390169,336.229903 448.249169,346.120903 C443.312169,352.958903 436.822169,357.208903 428.422169,358.514903 C422.261169,359.272903 415.212169,356.888903 410.335169,353.275903 C402.421169,347.414903 398.099169,337.561903 396.672169,328.039903 C394.890169,316.145903 396.989169,302.586903 404.276169,292.770903 C409.255169,286.062903 415.583169,282.085903 423.917169,280.822903 Z"/><path fill="#FFF" d="M431.495169,296.610903 C431.930169,296.607903 432.366169,296.614903 432.800169,296.644903 C435.393169,296.826903 437.553169,297.918903 439.214169,299.946903 C441.406169,302.623903 442.074169,306.335903 441.570169,309.699903 C441.008169,313.456903 439.553169,315.513903 436.560169,317.741903 C435.594169,317.749903 434.711169,317.727903 433.750169,317.568903 C431.458169,317.189903 429.538169,315.395903 428.330169,313.505903 C426.290169,310.317903 425.706169,306.051903 426.708169,302.412903 C427.525169,299.448903 428.830169,298.033903 431.495169,296.610903 Z"/><path fill="#313945" d="M264.115169,278.743903 C268.165169,278.457903 271.567169,278.716903 275.228169,280.635903 C281.582169,283.967903 285.743169,291.018903 287.883169,297.679903 C291.808169,309.889903 290.909169,325.667903 284.894169,337.077903 C281.637169,343.256903 276.816169,348.106903 270.015169,350.166903 C266.841169,350.699903 263.683169,350.126903 260.752169,348.832903 C254.630169,346.129903 250.724169,340.393903 248.301169,334.366903 C243.347169,322.043903 243.494169,306.463903 248.761169,294.264903 C251.910169,286.971903 256.617169,281.677903 264.115169,278.743903 Z"/><path fill="#FFF" d="M272.517169,291.609903 C273.337169,291.637903 274.206169,291.655903 275.007169,291.845903 C276.687169,292.243903 278.204169,293.983903 279.089169,295.370903 C281.152169,298.604903 281.702169,302.923903 280.786169,306.624903 C280.054169,309.586903 278.679169,311.322903 276.090169,312.858903 C273.488169,312.692903 271.823169,311.965903 270.131169,309.925903 C267.927169,307.270903 267.287169,303.598903 267.655169,300.242903 C268.085169,296.314903 269.439169,293.999903 272.517169,291.609903 Z"/><path fill="#76A1DA" d="M19.5337694,452.355903 C28.1054694,455.522903 35.8963694,460.023903 44.7791694,462.615903 C56.3991694,466.005903 68.7691694,467.548903 80.6671694,469.718903 C125.320169,477.861903 169.114169,483.245903 214.619169,480.988903 C224.202503,480.533569 233.758169,479.743569 243.286169,478.618903 C252.814836,477.494236 262.292169,476.037903 271.718169,474.249903 C278.266836,472.975903 284.802169,471.637569 291.324169,470.234903 C294.377169,469.552903 297.330169,468.556903 300.430169,468.083903 C303.150169,467.667903 307.237169,467.187903 309.739169,468.426903 C313.230169,470.156903 316.212169,486.386903 317.623169,491.135903 C322.543169,507.695903 328.151169,524.409903 334.390169,540.521903 C339.677169,554.173903 345.586169,567.581903 350.923169,581.215903 C337.746169,583.144903 319.504169,585.013903 310.116169,595.602903 C307.024169,599.088903 304.925169,603.960903 305.363169,608.679903 C305.929169,614.764903 310.074169,618.774903 314.398169,622.552903 C312.815169,628.221903 311.871169,634.007903 314.194169,639.653903 C316.966169,646.393903 323.008169,650.430903 329.415169,653.245903 C331.639169,660.645903 335.035169,666.045903 341.268169,670.672903 C356.092169,681.676903 375.352169,680.107903 392.565169,677.468903 C394.686169,685.263903 398.187169,693.011903 401.135169,700.545903 C402.618169,704.304903 412.848169,728.555903 412.172169,730.453903 C411.544169,732.219903 409.009169,733.515903 407.413169,734.250903 C397.247169,738.929903 377.838169,741.530903 366.308169,743.058903 C297.234169,752.215903 216.870169,746.678903 151.549169,721.627903 C140.740169,717.482903 125.927169,712.512903 118.507169,703.315903 C114.623169,698.501903 113.509169,684.034903 111.634169,677.085903 C107.532169,661.724569 103.065169,646.469903 98.2331694,631.321903 C95.4331694,622.509903 92.7651694,613.557903 89.0001694,605.103903 C91.8651694,600.512903 93.5811694,595.890903 93.0191694,590.395903 C92.1851694,582.236903 87.4331694,576.808903 81.3371694,571.909903 C81.9491694,567.138903 81.8801694,563.135903 79.7591694,558.663903 C75.4881694,549.658903 66.5631694,545.276903 57.6641694,542.078903 C45.7431694,511.860903 30.9285694,482.805903 19.5337694,452.355903 Z"/><path fill="#F3CF49" d="M307.702169,46.8714028 C300.892169,56.1969028 295.937169,67.1089028 291.704169,77.8149028 C290.053503,82.0209028 288.555503,86.2805695 287.210169,90.5939028 C285.864836,94.9072361 284.675503,99.2632361 283.642169,103.661903 C282.608836,108.060569 281.733836,112.490569 281.017169,116.951903 C280.301169,121.413236 279.745503,125.894236 279.350169,130.394903 C279.063169,133.443903 278.115169,138.628903 279.765169,141.320903 C280.509169,142.535903 281.198169,142.506903 282.468169,142.728903 C284.587169,141.820903 285.064169,139.853903 285.625169,137.725903 C287.388169,131.040903 287.709169,123.900903 289.343169,117.128903 C296.587169,87.1119028 310.927169,50.8204028 336.585169,32.1297028 C358.805169,15.9437028 387.938169,12.8567028 414.487169,16.4282028 C422.998169,17.5732028 431.301169,19.7493028 439.778169,21.0709028 C436.297169,22.1720028 432.803169,23.2688028 429.392169,24.5755028 C393.581169,38.2973028 367.275169,66.1569028 351.803169,100.771903 C348.214169,108.801903 335.506169,143.476903 339.377169,150.417903 C339.990169,151.516903 340.330169,151.596903 341.443169,151.960903 C344.433169,151.347903 345.246169,147.657903 346.068169,144.942903 C353.728169,119.653903 362.717169,94.8749028 379.756169,74.1439028 C399.426169,50.2116028 435.548169,29.9332028 466.534169,26.9962028 C491.888169,24.5931028 512.547169,34.7447028 531.692169,50.5585028 C510.215169,76.4289028 494.766169,103.603903 487.902169,136.827903 C486.428169,143.961903 484.755169,152.045903 485.520169,159.348903 C485.767169,161.702903 486.219169,163.623903 488.119169,165.158903 C489.123169,165.477903 489.846169,165.639903 490.874169,165.379903 C493.043169,164.832903 493.794169,163.012903 494.800169,161.211903 C498.549169,169.044903 498.460169,175.694903 495.885169,183.807903 C479.409169,180.576903 461.689169,180.406903 444.916169,179.205903 L357.418169,172.727903 C336.779503,171.201903 316.170169,169.349903 295.590169,167.171903 C282.236169,165.633903 268.489169,162.899903 255.091169,162.393903 C252.677169,162.302903 249.777169,162.272903 247.949169,163.991903 L248.354169,164.959903 C250.888169,167.149903 254.226169,168.364903 257.466169,169.124903 C261.492169,170.069903 266.153169,170.294903 270.298169,170.918903 C282.285503,172.772903 294.303169,174.403569 306.351169,175.810903 C349.791836,180.840903 393.330503,184.790569 436.967169,187.659903 C455.719169,188.923903 474.828169,188.967903 493.486169,191.079903 C484.191169,196.631903 474.970169,201.265903 464.759169,204.859903 C407.883169,224.878903 327.744169,221.866903 268.005169,216.144903 C254.353169,214.837903 240.530169,213.392903 226.961169,211.413903 C216.609169,209.904903 206.018169,207.688903 195.595169,206.933903 C193.609169,206.790903 190.909169,206.659903 189.117169,207.640903 C188.426169,208.019903 188.533169,208.406903 188.355169,209.104903 C188.592169,210.097903 188.895169,210.719903 189.697169,211.387903 C195.070169,215.864903 212.673169,217.376903 220.052169,218.532903 C232.272169,220.342236 244.522836,221.910569 256.804169,223.237903 C269.085503,224.565903 281.388169,225.652236 293.712169,226.496903 C306.036169,227.340903 318.372169,227.942903 330.720169,228.302903 C343.067503,228.662236 355.417503,228.779236 367.770169,228.653903 C386.937169,228.292903 406.079169,226.718903 425.216169,225.655903 C415.564169,229.767903 393.689169,232.244903 382.590169,233.363903 C365.076836,235.196569 347.517503,235.933236 329.912169,235.573903 C305.455169,235.175903 189.925169,227.983903 174.705169,214.792903 C173.584169,213.821903 172.530169,212.543903 172.606169,210.967903 C173.076169,201.247903 205.141169,181.834903 213.557169,177.177903 C218.646169,174.360903 232.651169,168.273903 235.615169,164.410903 C238.231169,161.000903 239.774169,147.226903 241.323169,142.169903 C254.007169,100.790903 273.852169,73.6439028 307.702169,46.8714028 Z"/><path fill="#7A7BBE" d="M561.502169,407.684903 C577.583169,410.588903 591.226169,414.617903 600.995169,428.833903 C610.562169,442.756903 612.127169,461.419903 609.041169,477.660903 C605.921169,494.084903 597.760169,508.163903 584.613169,518.495903 C582.052169,501.483903 578.482169,483.153903 567.887169,469.107903 C571.955169,470.206903 575.304169,471.473903 579.501169,470.408903 L580.483169,469.519903 C580.318169,467.555903 579.378169,466.481903 577.893169,465.229903 C574.732169,462.566903 570.352169,460.551903 566.387169,459.420903 C566.118169,459.542903 565.865169,459.710903 565.580169,459.787903 C563.405169,460.368903 559.466169,458.650903 557.045169,458.532903 C552.588169,458.315903 535.120169,460.136903 533.391169,459.263903 C526.980169,460.048903 520.095169,462.487903 514.012169,464.676903 C492.408169,472.451903 471.617169,481.803903 450.390169,490.476903 C441.183169,494.237903 431.930169,497.973903 422.661169,501.543903 C420.265169,502.466903 417.715169,503.054903 415.376169,504.117903 C414.070169,504.711903 412.027169,505.619903 411.187169,506.861903 C410.517169,507.851903 410.387169,509.030903 410.852169,510.155903 C411.078169,510.701903 411.286169,510.920903 411.624169,511.357903 C424.039169,514.348903 501.606169,478.857903 521.213169,472.879903 C530.964169,469.905903 541.695169,467.855903 551.928169,467.729903 C561.527169,473.178903 565.740169,484.484903 568.534169,494.591903 C568.807503,495.579903 569.068503,496.570903 569.317169,497.564903 C569.566503,498.559569 569.803169,499.556903 570.027169,500.556903 C570.251169,501.556903 570.462503,502.559569 570.661169,503.564903 C570.860503,504.570236 571.047169,505.577903 571.221169,506.587903 C571.394503,507.597903 571.555836,508.610236 571.705169,509.624903 C571.853836,510.638903 571.989836,511.654569 572.113169,512.671903 C572.236503,513.689236 572.347169,514.708236 572.445169,515.728903 C572.543169,516.748903 572.628503,517.769903 572.701169,518.791903 C572.773836,519.814569 572.833836,520.837903 572.881169,521.861903 C572.928503,522.885236 572.963169,523.909569 572.985169,524.934903 C573.006503,525.959569 573.015169,526.984236 573.011169,528.008903 C573.007836,529.033569 572.991503,530.058236 572.962169,531.082903 C572.932836,532.107569 572.890836,533.131569 572.836169,534.154903 C572.780836,535.178236 572.713169,536.200903 572.633169,537.222903 C572.553169,538.244903 572.460169,539.265569 572.354169,540.284903 C572.248836,541.304236 572.130503,542.322236 571.999169,543.338903 C571.868503,544.355569 571.724836,545.370236 571.568169,546.382903 C571.412169,547.396236 571.243503,548.407236 571.062169,549.415903 C570.880836,550.424569 570.686836,551.430903 570.480169,552.434903 C570.273503,553.438903 570.054503,554.439903 569.823169,555.437903 C569.591836,556.436569 569.348169,557.432236 569.092169,558.424903 C568.836169,559.416903 568.567836,560.405903 568.287169,561.391903 C568.005836,562.377236 567.712836,563.359236 567.408169,564.337903 C567.102836,565.316569 566.785169,566.291236 566.455169,567.261903 C566.125836,568.231903 565.784503,569.197903 565.431169,570.159903 C565.077836,571.122569 564.712503,572.080236 564.335169,573.032903 C563.957169,573.985569 563.567836,574.933569 563.167169,575.876903 C562.766503,576.820236 562.353836,577.758569 561.929169,578.691903 C561.505169,579.624569 561.069169,580.551903 560.621169,581.473903 C560.173836,582.395903 559.715169,583.312569 559.245169,584.223903 C558.775169,585.134569 558.293836,586.039236 557.801169,586.937903 C557.307836,587.836569 556.803836,588.728903 556.289169,589.614903 C539.432169,619.042903 510.501169,639.137903 477.976169,647.799903 C464.145169,651.483903 453.839169,652.006903 439.660169,652.993903 C448.072169,639.709903 450.882169,624.911903 447.433169,609.429903 C443.889169,593.518903 434.384169,580.488903 420.851169,571.684903 C431.237169,567.459903 442.090169,564.790903 452.853169,561.736903 C457.605169,560.387903 462.777169,558.285903 467.669169,557.872903 C471.583169,557.543903 475.594169,558.450903 479.217169,559.919903 C481.171169,560.712903 482.817169,561.942903 485.003169,561.635903 C486.115169,560.595903 486.286169,560.390903 486.724169,558.940903 C486.160169,556.285903 483.976169,554.795903 481.791169,553.414903 C479.497169,551.964903 477.077169,550.935903 474.556169,549.961903 C483.938169,540.283903 491.142169,530.120903 495.710169,517.317903 C496.836169,514.160903 498.138169,510.437903 498.107169,507.060903 C498.097169,505.956903 498.197169,505.784903 497.368169,505.000903 C495.654169,505.161903 494.122169,506.608903 493.035169,507.875903 C490.716169,510.578903 488.976169,514.499903 487.191169,517.597903 C482.971169,524.922903 478.594169,532.047903 472.742169,538.211903 C457.621169,554.137903 441.388169,551.862903 422.963169,559.660903 C418.218169,561.668903 414.364169,564.635903 410.164169,567.540903 C393.259169,562.800903 373.537169,557.937903 356.108169,562.940903 C348.469169,544.639903 337.936169,520.702903 333.204169,501.780903 C338.512169,504.630903 345.408169,508.278903 351.642169,508.093903 L352.518169,506.615903 L352.475169,507.869903 C352.258169,505.405903 350.948169,504.341903 349.072169,502.769903 C342.829169,497.535903 334.693169,494.858903 328.996169,488.984903 C326.504169,481.449903 324.539169,473.734903 322.459169,466.077903 C326.958169,467.187903 332.201169,467.572903 336.373169,469.570903 C340.169169,471.388903 343.667169,475.496903 346.793169,478.333903 C354.052169,484.919903 369.843169,499.452903 378.553169,502.970903 C391.808169,498.530903 404.876169,489.382903 416.074169,481.079903 C420.674169,477.669903 424.839169,472.818903 430.296169,470.863903 C435.065169,469.155903 440.203169,468.688903 445.076169,467.348903 C458.147503,463.855569 471.037836,459.788903 483.747169,455.148903 C502.315169,448.188903 519.281169,437.792903 537.949169,431.304903 C544.826169,428.913903 552.054169,426.792903 559.127169,425.073903 C562.603169,424.228903 566.223169,423.831903 569.628169,422.718903 C570.866169,422.313903 571.772169,421.824903 572.797169,421.033903 C573.154169,419.812903 573.012169,419.737903 572.522169,418.540903 C570.121169,416.537903 566.926169,416.791903 563.970169,417.051903 C557.752169,417.599903 551.352169,419.313903 545.478169,421.374903 C550.804169,417.020903 555.854169,411.492903 561.502169,407.684903 Z"/><path fill="#1E3456" d="M533.391169,459.263903 C543.684169,456.759903 556.249169,455.591903 566.387169,459.420903 C566.118169,459.542903 565.865169,459.710903 565.580169,459.787903 C563.405169,460.368903 559.466169,458.650903 557.045169,458.532903 C552.588169,458.315903 535.120169,460.136903 533.391169,459.263903 Z"/><path fill="#FAC3B7" d="M800.816169,515.348903 C808.467169,513.842903 818.472169,515.455903 825.894169,517.573903 C827.020836,517.901236 828.139169,518.255903 829.249169,518.637903 C830.358503,519.019903 831.457836,519.428903 832.547169,519.864903 C833.636503,520.301569 834.714503,520.764569 835.781169,521.253903 C836.847836,521.743236 837.901836,522.258236 838.943169,522.798903 C839.984503,523.340236 841.011836,523.906903 842.025169,524.498903 C843.038503,525.090236 844.036503,525.706236 845.019169,526.346903 C846.002503,526.988236 846.969169,527.652903 847.919169,528.340903 C848.869836,529.029569 849.802836,529.740903 850.718169,530.474903 C851.633503,531.209569 852.530169,531.965903 853.408169,532.743903 C854.286169,533.522569 855.144503,534.322236 855.983169,535.142903 C856.821836,535.963569 857.639836,536.804569 858.437169,537.665903 C859.234503,538.526569 860.010503,539.406569 860.765169,540.305903 C861.519169,541.204569 862.250503,542.121569 862.959169,543.056903 C863.667836,543.992236 864.353169,544.944236 865.015169,545.912903 C865.677836,546.881569 866.315836,547.866236 866.929169,548.866903 C867.542503,549.866903 868.131169,550.881569 868.695169,551.910903 C875.814169,564.861903 878.728169,580.879903 874.536169,595.231903 C872.412169,584.613903 868.809169,574.014903 863.227169,564.710903 C854.494169,550.155903 841.258169,539.112903 824.614169,535.004903 C823.714169,534.786236 822.809169,534.589903 821.899169,534.415903 C820.989169,534.241903 820.075503,534.090569 819.158169,533.961903 C818.240836,533.833903 817.320836,533.728569 816.398169,533.645903 C815.475503,533.563236 814.551169,533.503569 813.625169,533.466903 C812.699836,533.430903 811.773836,533.417569 810.847169,533.426903 C809.921169,533.436903 808.995836,533.469903 808.071169,533.525903 C807.146503,533.581236 806.223836,533.659903 805.303169,533.761903 C804.382503,533.863903 803.464836,533.988569 802.550169,534.135903 C801.635503,534.283903 800.725169,534.454236 799.819169,534.646903 C798.913169,534.840236 798.012503,535.055569 797.117169,535.292903 C796.221836,535.530903 795.332836,535.790903 794.450169,536.072903 C793.568169,536.355569 792.693503,536.659569 791.826169,536.984903 C790.958836,537.310903 790.100169,537.658236 789.250169,538.026903 C788.400836,538.395569 787.560836,538.785236 786.730169,539.195903 C785.899503,539.605903 785.079836,540.036569 784.271169,540.487903 C783.461836,540.939236 782.664503,541.410569 781.879169,541.901903 C780.664503,542.652569 779.479169,543.447569 778.323169,544.286903 C777.167836,545.125569 776.044836,546.005903 774.954169,546.927903 C773.863503,547.849903 772.808503,548.810903 771.789169,549.810903 C770.769836,550.810903 769.788836,551.847236 768.846169,552.919903 C767.903503,553.992569 767.001836,555.098569 766.141169,556.237903 C765.279836,557.377236 764.462169,558.546903 763.688169,559.746903 C762.914169,560.946903 762.185503,562.173903 761.502169,563.427903 C760.818836,564.681903 760.182836,565.959569 759.594169,567.260903 C742.278169,604.966903 770.263169,638.946903 779.811169,674.246903 C785.071169,693.690903 786.091169,713.604903 781.334169,733.263903 C775.786169,756.191903 761.659169,777.413903 741.242169,789.638903 C713.437169,806.287903 681.204169,808.742903 650.152169,801.072903 C643.143169,798.968903 636.282169,797.073903 629.491169,794.250903 C609.710169,786.030903 584.987169,769.818903 572.398169,752.244903 C572.571169,739.096903 574.989169,725.695903 576.858169,712.706903 C586.100169,727.836903 599.317169,741.847903 613.335169,752.657903 C637.042169,770.937903 665.839169,781.664903 696.005169,777.535903 C715.508169,774.866903 734.061169,765.697903 746.039169,749.766903 C753.942169,739.255903 758.231169,726.899903 759.341169,713.844903 C763.094169,669.704903 737.254169,645.886903 731.751169,606.384903 C728.693169,584.434903 734.019169,562.592903 747.551169,544.977903 C760.591169,528.001903 779.760169,518.025903 800.816169,515.348903 Z"/><path fill="#487599" d="M569.527169,664.162903 C571.926169,667.582903 561.808169,732.966903 561.052169,743.022903 C559.797169,759.736903 559.242169,777.115903 560.495169,793.839903 C536.205169,804.177903 494.176169,803.271903 469.047169,796.834903 C466.212169,781.551903 464.439169,766.057903 461.447169,750.780903 C459.481169,739.197569 457.721836,727.582903 456.169169,715.936903 C443.437169,713.650903 430.350169,713.528903 417.712169,710.428903 C414.654169,703.263903 412.176169,695.569903 409.801169,688.140903 C464.834169,689.988903 518.724169,688.257903 569.527169,664.162903 Z"/><path fill="#F2F2F4" d="M226.825169,23.3323028 C229.047169,22.9247028 231.649169,22.9485028 233.911169,22.9198028 C254.930169,22.6531028 271.540169,34.1731028 285.994169,48.3385028 C284.432169,49.6833028 282.893836,51.0545028 281.379169,52.4521028 C279.864503,53.8499695 278.374169,55.2732361 276.908169,56.7219028 C275.442169,58.1705695 274.001503,59.6439028 272.586169,61.1419028 C271.170169,62.6399028 269.780503,64.1615695 268.417169,65.7069028 C267.053836,67.2529028 265.717503,68.8215695 264.408169,70.4129028 C263.098836,72.0049028 261.817169,73.6185695 260.563169,75.2539028 C259.308503,76.8892361 258.082503,78.5459028 256.885169,80.2239028 C255.687836,81.9012361 254.519836,83.5985695 253.381169,85.3159028 C252.241836,87.0339028 251.132169,88.7705695 250.052169,90.5259028 C248.972836,92.2819028 247.923836,94.0555695 246.905169,95.8469028 C245.886503,97.6389028 244.898836,99.4475695 243.942169,101.272903 C242.984836,103.098236 242.059503,104.939569 241.166169,106.796903 C240.272836,108.654236 239.411169,110.526236 238.581169,112.412903 C237.751836,114.299569 236.955169,116.199903 236.191169,118.113903 C235.427169,120.028569 234.695836,121.955236 233.997169,123.893903 C233.299169,125.833236 232.634503,127.783903 232.003169,129.745903 C229.200169,138.404903 227.474169,147.267903 225.132169,156.043903 C219.475169,159.415903 213.473169,162.270903 207.762169,165.587903 C199.206169,170.188903 191.209169,175.927903 183.243169,181.464903 C173.517169,167.588903 167.488169,150.769903 164.993169,134.065903 C160.719169,105.450903 165.280169,73.0579028 183.041169,49.4917028 C193.807169,35.2062028 209.110169,25.8726028 226.825169,23.3323028 Z M361.955169,572.409903 C366.966169,572.093903 371.951169,571.950903 376.971169,572.161903 C393.484169,572.856903 412.887169,576.596903 424.496169,589.402903 C433.606169,599.452903 438.023169,613.240903 437.332169,626.720903 C436.911169,634.917903 434.226169,641.813903 428.018169,647.390903 C414.177169,659.824903 387.835169,669.966903 369.091169,668.780903 C358.690169,668.122903 350.088169,664.556903 343.120169,656.722903 C348.975169,656.592903 354.833169,657.034903 360.689169,656.927903 C366.494169,656.821903 371.638169,656.046903 375.830169,651.680903 C375.619169,650.550903 375.238169,648.801903 374.108169,648.254903 C370.442169,646.477903 362.891169,647.592903 358.759169,647.564903 C349.843169,647.503903 333.332169,646.236903 326.618169,639.610903 C324.452169,637.473903 322.049169,633.620903 322.354169,630.434903 C322.481169,629.110903 322.931169,628.012903 324.051169,627.217903 C326.688169,625.345903 331.799169,626.894903 334.747169,627.274903 C341.681169,628.168903 363.300169,629.902903 368.743169,624.800903 C370.068169,623.557903 370.403169,622.481903 370.414169,620.711903 C369.712169,619.442903 369.385169,619.047903 367.847169,618.765903 C363.085169,617.894903 357.551169,618.647903 352.712169,618.688903 C344.582169,618.756903 328.432169,617.318903 321.063169,614.189903 C318.813169,613.234903 316.965169,611.677903 316.141169,609.331903 C315.520169,607.565903 316.110169,605.347903 317.012169,603.791903 C323.846169,591.993903 354.390169,592.176903 367.279169,588.860903 C369.749169,588.224903 374.664169,586.758903 375.842169,584.228903 C376.142169,583.583903 375.761169,583.252903 375.489169,582.668903 C371.983169,580.196903 368.387169,580.143903 364.238169,579.681903 C363.445169,578.160903 362.553169,576.612903 361.977169,574.994903 C361.534169,573.752903 361.430169,573.559903 361.955169,572.409903 Z M326.252169,822.876903 C331.827169,822.446903 338.268169,826.114903 343.714169,827.450903 C365.834169,832.874903 392.113169,833.307903 413.822169,826.513903 C413.927169,826.910903 414.036169,827.306903 414.125169,827.707903 C415.969169,836.020903 416.310169,846.079903 411.295169,853.419903 C401.120169,868.313903 374.331169,875.690903 357.307169,878.689903 C348.854169,880.179903 324.766169,883.930903 318.543169,879.154903 C316.912169,877.902903 315.995169,876.034903 315.724169,874.020903 C314.761169,866.854903 319.893169,858.464903 324.028169,852.981903 C324.680169,852.201903 325.364169,851.412903 325.923169,850.562903 C326.639169,849.474903 326.787169,848.558903 326.541169,847.283903 C325.573169,846.284903 325.372169,846.074903 323.890169,846.012903 C320.568169,845.873903 316.949169,849.315903 314.944169,851.573903 C307.963169,859.437903 305.880169,868.884903 306.446169,879.101903 C300.449169,877.697903 292.316169,876.184903 287.642169,871.842903 C285.606169,869.950903 284.511169,867.531903 284.483169,864.743903 C284.388169,855.295903 292.360169,849.240903 298.169169,843.196903 C299.633169,841.671903 301.021169,840.288903 300.958169,838.078903 C300.269169,837.493903 300.198169,837.320903 299.261169,837.125903 C296.348169,836.518903 293.353169,838.399903 291.011169,839.959903 C281.970169,845.979903 276.966169,853.463903 274.778169,864.087903 C273.502169,861.256903 272.275169,858.588903 272.097169,855.429903 C271.763169,849.510903 274.403169,844.127903 278.212169,839.747903 C289.767169,826.458903 309.770169,824.144903 326.252169,822.876903 Z M478.997169,833.769903 C507.198169,839.187903 533.491169,838.384903 561.073169,829.658903 C562.922169,840.119903 564.732169,851.201903 561.755169,861.640903 C558.921169,871.577903 552.209169,878.705903 543.243169,883.529903 C536.482169,887.167903 516.752169,894.538903 509.408169,891.878903 C498.616169,887.969903 511.616169,860.401903 509.637169,855.670903 C508.718169,855.216903 507.578169,855.239903 506.604169,855.550903 C504.049169,856.365903 502.512169,858.658903 501.280169,860.892903 C495.785169,870.846903 494.192169,881.893903 497.402169,892.811903 C491.229169,892.602903 484.129169,892.594903 478.185169,890.886903 C475.446169,890.099903 473.054169,888.768903 471.683169,886.180903 C469.136169,881.371903 471.020169,871.365903 473.190169,866.535903 C474.705169,863.165903 476.650169,860.304903 477.648169,856.674903 C478.062169,855.172903 478.335169,853.780903 477.514169,852.363903 C476.336169,852.182903 476.035169,852.234903 474.928169,852.802903 C469.291169,855.699903 465.092169,862.731903 463.255169,868.613903 C463.704169,871.955903 464.468169,882.285903 462.897169,884.982903 L462.323169,885.032903 L461.506169,885.279903 C457.786169,883.511903 454.477169,880.523903 452.713169,876.757903 C450.208169,871.407903 451.256169,864.857903 453.265169,859.499903 C457.668169,847.752903 467.817169,838.886903 478.997169,833.769903 Z"/><path fill="#1E3456" d="M463.255169,868.613903 C463.704169,871.955903 464.468169,882.285903 462.897169,884.982903 L462.323169,885.032903 C461.260169,879.292903 461.671169,874.221903 463.255169,868.613903 Z"/><path fill="#7A7BBE" d="M578.189169,566.520903 C579.777169,572.819903 580.026169,579.986903 580.761169,586.459903 C582.304169,600.039903 585.062169,617.359903 584.458169,630.697903 C584.206169,636.260903 582.856169,639.724903 578.657169,643.507903 C542.939169,675.680903 455.615169,679.360903 410.271169,677.078903 C408.429169,676.873903 405.575169,676.967903 404.208169,675.643903 L404.414169,674.846903 C410.484169,670.736903 420.788169,666.617903 427.831169,662.673903 C433.918169,662.736903 439.933169,663.435903 446.044169,663.256903 C449.164169,663.142903 452.278169,662.939236 455.386169,662.645903 C458.494169,662.352569 461.591169,661.969903 464.677169,661.497903 C467.763169,661.025903 470.833169,660.465236 473.887169,659.815903 C476.941169,659.166569 479.973503,658.429903 482.984169,657.605903 C485.995503,656.781903 488.980503,655.871903 491.939169,654.875903 C494.898503,653.879903 497.826169,652.799236 500.722169,651.633903 C503.618836,650.469236 506.479503,649.221903 509.304169,647.891903 C512.128169,646.561903 514.911836,645.151569 517.655169,643.660903 C548.892169,626.719903 568.119169,600.181903 578.189169,566.520903 Z"/><path fill="#487599" d="M422.774169,723.245903 L428.743169,723.773903 C423.317169,743.308903 420.085169,771.269903 418.920169,791.828903 C404.190169,796.752903 379.059169,797.508903 363.646169,796.166903 C359.218169,795.782236 354.816169,795.198569 350.440169,794.415903 C346.064836,793.633903 341.733503,792.656236 337.446169,791.482903 C334.738169,790.801903 332.172169,789.707903 329.584169,788.674903 C327.570169,779.005903 327.720169,768.230903 327.489169,758.367903 C339.740169,757.990903 352.112169,756.718903 364.269169,755.198903 C377.930169,753.490903 412.958169,749.508903 421.312169,738.053903 C424.585169,733.564903 423.575169,728.336903 422.774169,723.245903 Z"/><path fill="#98BDD2" d="M35.9947694,400.743903 C37.9537694,400.558903 40.1547694,400.319903 42.0731694,400.876903 C43.6161694,401.325903 45.1431694,402.366903 45.9601694,403.770903 C49.1091694,409.186903 50.1611694,416.736903 51.9301694,422.732903 C55.0601694,433.339903 58.9261694,444.893903 64.2131694,454.610903 C58.1791694,453.790903 52.3161694,452.300903 46.4281694,450.791903 C40.9414694,449.121903 35.5464694,447.371903 30.4126694,444.774903 C23.8535694,441.457903 16.4914694,436.297903 14.2538694,428.931903 C12.7629694,424.024903 13.7657694,419.134903 16.2077694,414.717903 C20.3401694,407.242903 28.1171694,403.099903 35.9947694,400.743903 Z"/><path fill="#487599" d="M561.714169,804.203903 C562.606169,804.383903 562.559169,804.675903 563.064169,805.388903 C563.453169,807.490903 563.129169,810.264903 562.475169,812.312903 C561.615169,815.006903 559.327169,818.589903 556.697169,819.827903 C553.061169,821.540903 548.470169,822.203903 544.534169,823.011903 C522.032169,827.629903 495.660169,827.781903 473.827169,820.219903 C473.189836,819.810569 472.585169,819.357903 472.013169,818.861903 C469.030169,816.254903 469.420169,811.086903 469.267169,807.485903 C499.218169,814.599903 532.240169,812.393903 561.714169,804.203903 Z M328.225169,798.258903 C356.817169,807.919903 390.284169,809.835903 419.521169,801.777903 C419.330169,805.962903 419.254169,809.908903 416.931169,813.540903 C408.175169,820.243903 387.438169,820.299903 376.540169,819.969903 C364.574169,819.605903 337.595169,818.116903 329.747169,809.128903 C327.294169,806.318903 327.963169,801.703903 328.225169,798.258903 Z"/><path fill="#F2F2F4" d="M45.6991694,547.603903 C52.7881694,548.143903 64.0981694,554.575903 68.8781694,559.817903 C70.9711694,562.112903 72.6241694,564.977903 72.4011694,568.182903 C72.1931694,571.184903 70.4091694,572.713903 68.2071694,574.516903 C66.4071694,575.034903 64.6701694,575.415903 62.7861694,575.286903 C56.4551694,574.854903 50.0951694,571.478903 45.9451694,566.724903 C43.2905694,563.683903 40.9238694,559.394903 41.3488694,555.218903 C41.6886694,551.880903 43.1411694,549.659903 45.6991694,547.603903 Z M75.4581694,580.595903 C78.5401694,582.713903 81.5611694,585.649903 82.9261694,589.208903 C83.7531694,591.363903 83.8501694,593.729903 82.8271694,595.837903 C81.6211694,598.325903 79.3331694,600.028903 76.7431694,600.879903 C70.6081694,602.895903 64.0121694,600.940903 58.4911694,598.136903 C56.9845027,597.132236 55.5545027,596.028236 54.2011694,594.824903 C49.9441694,590.984903 49.1351694,586.947903 48.8731694,581.492903 C50.175836,581.984236 51.488836,582.445903 52.8121694,582.877903 C61.4561694,585.716903 67.5401694,584.630903 75.4581694,580.595903 Z"/></g></svg>
