<?xml version="1.0" encoding="UTF-8"?>
<svg width="803px" height="925px" viewBox="0 0 803 925" version="1.1" xmlns="http://www.w3.org/2000/svg" xmlns:xlink="http://www.w3.org/1999/xlink">
    <title>with-book</title>
    <defs>
        <linearGradient x1="30.9796631%" y1="53.64496%" x2="58.1972884%" y2="47.0730668%" id="linearGradient-1">
            <stop stop-color="#04081B" offset="0%"></stop>
            <stop stop-color="#112145" offset="100%"></stop>
        </linearGradient>
    </defs>
    <g id="Page-1" stroke="none" stroke-width="1" fill="none" fill-rule="evenodd">
        <g id="with-book" transform="translate(0.135379, 0.588141)" fill-rule="nonzero">
            <path d="M167.210621,0.604558655 C182.961621,-1.53854134 201.083621,2.21285866 215.398621,8.74865866 C243.522621,21.5895587 264.865621,47.9088587 274.795621,76.8608587 C276.828621,82.7868587 278.475621,88.8028587 280.049621,94.8648587 C280.936621,98.2768587 281.573621,102.073859 282.905621,105.316859 C283.349621,106.398859 283.317621,106.601859 284.439621,107.048859 C288.907621,105.579859 288.971621,98.5728587 292.963621,96.2398587 C300.443621,91.8668587 315.741621,94.5588587 323.555621,96.6758587 C321.197621,95.0788587 318.618621,93.8398587 316.298621,92.1918587 C314.431621,90.8648587 313.073621,89.2008587 312.766621,86.8778587 C312.441621,84.4148587 314.260621,80.8498587 315.667621,78.9528587 C318.161621,75.5898587 321.824621,73.8018587 325.909621,73.2148587 C346.085621,70.3198587 379.192621,85.7338587 395.360621,97.3768587 C425.009621,97.2988587 459.263621,111.101859 483.367621,127.937859 C490.553621,109.234859 499.081621,91.4308587 510.919621,75.1858587 C532.853621,45.0862587 563.002621,20.3464587 600.811621,14.5884587 C625.627621,10.8091587 651.755621,16.6246587 672.043621,31.6208587 C695.757621,49.1499587 707.514621,75.3358587 711.776621,103.913859 C717.306621,141.002859 707.559621,183.741859 685.083621,213.729859 C666.703621,238.252859 641.597621,255.457859 611.727621,262.742859 C600.085621,265.582859 588.309621,266.928859 576.478621,268.653859 C582.825621,294.373859 585.357621,322.033859 580.497621,348.255859 C587.028621,349.514859 597.293621,349.720859 602.649621,353.992859 C604.035621,355.097859 605.220621,356.721859 605.150621,358.580859 C605.100621,359.902859 604.449621,360.958859 603.511621,361.835859 C599.632621,365.461859 584.737621,360.738859 579.418621,360.259859 L578.639621,360.192859 C574.236621,376.254859 568.093621,391.087859 559.498621,405.380859 C565.063621,407.426859 574.138621,411.271859 577.613621,416.146859 C578.570621,417.489859 579.111621,418.988859 578.764621,420.647859 C578.408621,422.345859 577.153621,424.365859 575.488621,425.005859 C571.093621,426.694859 556.995621,417.288859 552.874621,414.955859 C547.119621,422.244859 541.150621,430.899859 533.553621,436.322859 C534.186288,436.728192 534.810288,437.146192 535.425621,437.576859 C546.163621,445.036859 552.842621,456.468859 555.054621,469.279859 C557.216621,481.798859 554.711621,495.522859 547.391621,505.948859 C548.494288,507.562859 549.548954,509.207525 550.555621,510.882859 C571.069621,545.105859 591.244621,604.401859 581.118621,643.981859 C576.467621,662.164859 564.993621,676.051859 548.988621,685.490859 C549.398621,687.967859 549.853621,690.471859 550.044621,692.975859 C550.576621,699.970859 548.928621,704.418859 544.486621,709.643859 C550.169621,722.584859 550.135621,736.553859 549.805621,750.421859 C573.354621,761.049859 597.423621,769.355859 623.597621,764.256859 C639.138621,761.229859 653.394621,753.155859 662.210621,739.750859 C688.214621,700.206859 653.814621,654.528859 636.631621,618.812859 C628.244621,601.380859 621.467621,583.362859 617.570621,564.386859 C611.475621,534.714859 614.264621,502.530859 631.452621,476.828859 C644.581621,457.194859 665.156621,442.132859 688.532621,437.626859 C689.304621,437.482192 690.077954,437.347192 690.852621,437.221859 C691.627954,437.096525 692.404621,436.980525 693.182621,436.873859 C693.959954,436.767859 694.738954,436.671192 695.519621,436.583859 C696.299621,436.496525 697.080954,436.418859 697.863621,436.350859 C698.645621,436.282859 699.428288,436.224525 700.211621,436.175859 C700.995621,436.126525 701.779954,436.087192 702.564621,436.057859 C703.349288,436.028525 704.133954,436.008525 704.918621,435.997859 C705.703954,435.987859 706.488954,435.987525 707.273621,435.996859 C708.058954,436.005525 708.843954,436.024192 709.628621,436.052859 C710.413288,436.080859 711.197621,436.118859 711.981621,436.166859 C712.764954,436.214192 713.547954,436.271192 714.330621,436.337859 C715.112621,436.404525 715.893954,436.480859 716.674621,436.566859 C717.454621,436.652859 718.233621,436.748525 719.011621,436.853859 C719.789621,436.959192 720.566288,437.073859 721.341621,437.197859 C722.116954,437.322525 722.890621,437.456525 723.662621,437.599859 C724.434621,437.743192 725.204621,437.895859 725.972621,438.057859 C726.741288,438.219859 727.507621,438.391525 728.271621,438.572859 C729.035621,438.753525 729.797288,438.943859 730.556621,439.143859 C731.315954,439.343859 732.072621,439.552859 732.826621,439.770859 C733.580621,439.989525 734.331954,440.217192 735.080621,440.453859 C735.829288,440.690525 736.574954,440.936525 737.317621,441.191859 C738.059621,441.447192 738.798954,441.711525 739.535621,441.984859 C740.271621,442.257525 741.003954,442.539525 741.732621,442.830859 C742.461954,443.122192 743.187621,443.422525 743.909621,443.731859 C744.630954,444.041192 745.348621,444.359192 746.062621,444.685859 C746.776621,445.012525 747.486288,445.347859 748.191621,445.691859 C748.897621,446.036525 749.598954,446.389525 750.295621,446.750859 C750.992954,447.112192 751.685621,447.482192 752.373621,447.860859 C753.061621,448.238859 753.744621,448.625525 754.422621,449.020859 C755.101288,449.416192 755.774954,449.819859 756.443621,450.231859 C757.111621,450.643859 757.774621,451.063859 758.432621,451.491859 C759.091288,451.919859 759.744288,452.355859 760.391621,452.799859 C781.292621,467.148859 796.214621,488.947859 800.759621,513.994859 C802.906621,525.825859 804.240621,544.349859 796.753621,554.591859 C794.578621,557.567859 791.376621,560.124859 787.612621,560.552859 C783.547621,561.014859 780.033621,558.935859 777.815621,555.629859 C774.522621,550.720859 772.754621,543.770859 770.807621,538.205859 C764.919621,521.377859 756.116621,505.113859 741.501621,494.314859 C730.413621,486.121859 716.825621,482.114859 703.091621,484.259859 C691.336621,486.096859 680.776621,492.999859 673.910621,502.639859 C663.525621,517.221859 661.563621,535.529859 664.398621,552.809859 C672.521621,595.994859 703.594621,629.852859 717.731621,670.801859 C727.899621,700.254859 727.153621,731.284859 713.303621,759.440859 C700.157621,786.167859 677.810621,805.117859 649.728621,814.578859 C612.484621,827.127859 567.837621,821.262859 532.880621,803.951859 C529.385621,808.108859 525.978621,812.309859 522.166621,816.188859 C497.575621,841.208859 461.475621,848.185859 427.689621,848.419859 C428.622621,850.315859 429.542621,852.279859 430.254621,854.268859 C434.889621,867.204859 435.001621,884.168859 429.086621,896.717859 C423.432621,908.714859 412.452621,916.703859 400.175621,921.072859 C386.822621,925.824859 371.341621,925.161859 358.561621,918.999859 C339.546621,909.830859 324.827621,889.160859 317.917621,869.684859 C311.812621,870.627859 305.627621,871.467859 299.588621,872.774859 C284.900621,875.955859 271.914621,880.077859 256.726621,877.338859 C224.830621,890.928859 187.927621,897.460859 153.439621,892.922859 C133.068621,890.241859 108.423621,881.708859 95.5726209,864.705859 C95.0586209,864.033859 94.5616209,863.349859 94.0816209,862.653859 C93.6016209,861.957192 93.1389543,861.249192 92.6936209,860.529859 C92.2482876,859.810525 91.8209543,859.080525 91.4116209,858.339859 C91.0029543,857.599859 90.6126209,856.849859 90.2406209,856.089859 C89.8686209,855.330525 89.5152876,854.562192 89.1806209,853.784859 C88.8466209,853.007525 88.5319543,852.222525 88.2366209,851.429859 C87.9412876,850.637192 87.6656209,849.837859 87.4096209,849.031859 C87.1542876,848.225192 86.9186209,847.412859 86.7026209,846.594859 C86.4866209,845.777525 86.2912876,844.954859 86.1166209,844.126859 C85.9412876,843.299525 85.7866209,842.468192 85.6526209,841.632859 C85.5186209,840.797525 85.4052876,839.959525 85.3126209,839.118859 C85.2199543,838.278192 85.1482876,837.435525 85.0976209,836.590859 C85.0462876,835.746859 85.0159543,834.901859 85.0066209,834.055859 C84.9972876,833.209859 85.0089543,832.364192 85.0416209,831.518859 C85.0742876,830.673525 85.1276209,829.829525 85.2016209,828.986859 C85.2756209,828.144192 85.3706209,827.303859 85.4866209,826.465859 C87.4386209,813.003859 95.7266209,802.627859 106.357621,794.696859 C94.7906209,782.041859 86.9016209,768.443859 85.4766209,751.031859 C84.5776209,740.048859 87.4686209,726.769859 93.7766209,717.633859 C96.9226209,713.078859 100.842621,709.198859 104.425621,704.999859 C95.0456209,700.328859 78.4516209,694.194859 70.9766209,687.782859 C65.4746209,683.063859 63.7766209,677.513859 63.3126209,670.540859 C58.1926209,670.049859 53.4006209,670.115859 48.4706209,668.383859 C42.0696209,666.134859 36.0406209,661.522859 33.2366209,655.240859 C31.3436209,651.000859 31.1516209,646.670859 32.8226209,642.385859 C31.0886209,641.444859 29.2666209,640.515859 27.6736209,639.347859 C22.1976209,635.329859 17.9356209,629.576859 17.0086209,622.712859 C16.3186209,617.602859 17.4426209,612.169859 20.6216209,608.060859 C17.2116209,604.807859 14.2916209,601.758859 12.2856209,597.407859 C9.58162092,591.544859 9.60862092,584.883859 11.9066209,578.894859 C14.3446209,572.542859 18.9006209,568.720859 24.9286209,565.976859 C19.5806209,553.733859 15.8346209,540.253859 11.6196209,527.577859 C8.10862092,517.020859 3.78862092,506.298859 1.07862092,495.525859 C0.431287588,493.022525 0.0726209214,490.478525 0,487.893859 C-0.0633790786,484.772859 1.11862092,481.851859 3.37962092,479.663859 C6.94562092,476.212859 12.1686209,476.777859 16.6906209,476.979859 C20.7766209,471.496859 25.6596209,464.347859 32.2686209,461.709859 C37.8356209,459.487859 42.8136209,461.740859 47.8856209,464.028859 C48.7986209,462.938859 49.7156209,461.841859 50.7416209,460.855859 C53.2866209,458.409859 55.9776209,457.241859 59.5366209,457.449859 C65.5046209,457.796859 71.6516209,461.056859 77.0736209,463.382859 C110.675621,477.796859 141.900621,500.997859 166.058621,528.360859 C181.317621,511.232859 195.482621,497.632859 214.225621,484.159859 C220.281621,479.806859 226.281621,475.590859 232.903621,472.123859 C197.925621,456.295859 168.678621,428.110859 153.839621,392.538859 C146.592621,393.406859 139.325621,394.224859 132.169621,395.686859 C126.786621,396.785859 121.321621,398.551859 115.883621,399.199859 C114.535621,399.360859 113.210621,399.588859 112.028621,398.781859 C110.635621,397.830859 109.312621,395.986859 109.159621,394.275859 C109.057621,393.142859 109.476621,392.076859 110.163621,391.195859 C115.794621,383.966859 141.326621,382.046859 150.407621,381.107859 C148.988288,376.317859 147.809621,371.469192 146.871621,366.561859 C145.933621,361.654525 145.240621,356.712859 144.792621,351.736859 C136.455621,350.483859 128.034621,349.101859 119.612621,348.628859 C112.802621,348.246859 105.253621,348.729859 98.5566209,347.615859 C97.2976209,347.405859 95.8316209,346.929859 94.8956209,346.021859 C93.6876209,344.850859 92.6656209,342.874859 92.7916209,341.183859 C92.8786209,340.021859 93.6986209,339.180859 94.6066209,338.539859 C103.121621,332.521859 133.514621,337.815859 144.285621,339.650859 C143.965621,307.361859 149.395621,275.611859 159.172621,244.860859 C147.550621,241.063859 136.847621,235.603859 127.230621,228.016859 C99.8666209,206.428859 83.5596209,174.547859 79.6776209,140.117859 C75.5936209,103.896859 82.5826209,64.0558587 105.781621,35.0386587 C121.257621,15.6824587 142.557621,3.44405866 167.210621,0.604558655 Z" id="Path" fill="#313945"></path>
            <path d="M480.901621,141.355859 C480.086621,145.597859 477.159621,155.917859 480.025621,159.477859 C480.817621,160.461859 481.892621,160.829859 483.121621,160.766859 C484.424621,160.699859 485.902621,160.057859 486.767621,159.090859 C488.604621,157.035859 496.074621,133.230859 498.244621,127.911859 C515.823621,84.8378587 552.600621,35.8098587 601.375621,28.2242587 C622.814621,24.8899587 646.118621,29.4667587 663.652621,42.5411587 C683.632621,57.4398587 694.238621,80.5828587 697.594621,104.825859 C702.548621,140.624859 694.225621,179.209859 672.256621,208.153859 C652.790621,233.800859 623.840621,249.179859 592.172621,253.417859 C585.380621,254.326859 578.613621,254.834859 571.771621,255.179859 L569.559621,248.069859 C565.684621,235.538859 558.896621,223.194859 552.579621,211.762859 C556.102621,201.679859 560.286621,191.843859 562.192621,181.266859 C562.861621,177.550859 564.001621,170.543859 561.377621,167.475859 C560.415621,166.352859 559.494621,165.938859 558.039621,165.771859 C552.006621,165.080859 542.965621,172.244859 538.583621,175.743859 C543.130621,140.358859 556.153621,104.238859 584.032621,80.4448587 C597.311621,69.1118587 613.498621,60.8458587 631.394621,62.3068587 C645.503621,63.4578587 658.593621,71.0938587 668.118621,81.3148587 C670.515621,83.8868587 672.610621,87.6638587 675.158621,89.8738587 C676.254621,90.8238587 677.158621,90.5138587 678.482621,90.4368587 C675.965621,78.0398587 668.050621,67.9408587 657.544621,61.0628587 C644.321621,52.4051587 628.658621,49.8462587 613.270621,53.1684587 C587.958621,58.6328587 566.824621,77.5648587 553.204621,98.9028587 C539.258621,120.753859 531.838621,144.912859 528.517621,170.476859 C527.760621,176.300859 526.521621,183.738859 527.866621,189.495859 C528.196621,190.905859 528.705621,191.773859 529.612621,192.883859 C530.536621,193.307859 530.782621,193.703859 531.795621,193.353859 C537.097621,191.519859 544.676621,181.126859 551.658621,177.543859 C550.185621,184.662859 548.603621,191.583859 546.042621,198.413859 C544.225621,203.256859 541.721621,208.067859 540.337621,213.034859 C563.552621,252.402859 573.803621,302.848859 567.201621,348.168859 C539.202621,346.764859 507.659621,352.908859 481.661621,363.216859 C477.112621,365.020859 471.344621,367.121859 467.567621,370.332859 C466.523621,371.219859 466.126621,372.086859 466.040621,373.458859 C465.981621,374.395859 466.254621,374.551859 466.720621,375.309859 C468.012621,375.806859 468.925621,375.845859 470.262621,375.606859 C474.277621,374.889859 477.981621,373.013859 481.826621,371.739859 C487.023621,370.018859 492.363621,368.551859 497.682621,367.259859 C519.537621,361.951859 541.792621,358.950859 564.305621,359.501859 C559.842621,373.419859 554.880621,389.727859 546.030621,401.526859 C525.187621,395.022859 495.862621,389.628859 474.435621,394.807859 C472.700621,395.226859 470.499621,395.471859 468.942621,396.329859 C468.209621,396.733859 467.903621,397.002859 467.499621,397.711859 C467.602621,398.866859 467.633621,399.351859 468.708621,400.074859 C472.179621,402.408859 494.601621,402.578859 500.517621,403.190859 C513.342621,404.516859 526.273621,406.462859 538.618621,410.297859 C511.881621,445.350859 470.268621,465.790859 428.647621,477.231859 C417.632621,480.259859 404.533621,481.838859 394.218621,485.135859 C388.215621,487.054859 382.659621,490.300859 377.010621,493.055859 C367.498621,497.695859 356.980621,501.231859 346.468621,502.626859 C325.956621,505.347859 307.485621,498.824859 291.318621,486.259859 C288.257621,483.880859 285.598621,480.684859 282.403621,478.566859 C278.002621,475.648859 271.769621,473.983859 266.829621,472.110859 C260.517621,469.714859 254.268954,467.164192 248.083621,464.458859 C214.626621,449.723859 183.746621,425.381859 168.363621,391.482859 C172.554621,391.956859 188.992621,394.798859 192.049621,392.714859 C192.637621,391.514859 192.678621,391.430859 192.469621,390.116859 C188.739621,385.135859 170.485621,382.683859 164.042621,381.369859 C161.815621,372.375859 160.272621,363.292859 158.758621,354.156859 C165.073288,356.183525 171.294954,358.463859 177.423621,360.997859 C181.245621,362.614859 185.066621,364.734859 188.991621,366.032859 C190.032621,366.376859 190.782621,366.536859 191.815621,366.118859 C192.262621,364.828859 192.412621,364.529859 191.853621,363.192859 C188.842621,355.991859 165.225621,346.178859 157.937621,343.646859 C157.356621,282.013859 175.625621,207.888859 219.975621,162.683859 C237.283621,145.042859 258.825621,131.412859 281.377621,121.495859 C285.483621,119.690859 290.955621,116.873859 295.493621,116.726859 C300.171621,116.574859 304.909621,120.411859 309.661621,120.875859 C310.450621,119.944859 310.854621,119.557859 310.702621,118.222859 C310.246621,114.196859 304.956621,109.941859 302.534621,106.816859 L303.204621,106.629859 C314.214621,103.658859 325.784621,106.122859 335.793621,111.150859 C338.728621,112.625859 342.205621,115.117859 345.509621,115.468859 C347.351621,115.663859 347.976621,115.211859 348.852621,113.744859 C349.006621,108.293859 342.659621,101.900859 339.123621,98.1598587 C334.986621,93.7838587 330.257621,90.0548587 326.364621,85.4408587 C345.352621,87.0298587 361.576621,91.8198587 378.300621,101.025859 C382.558621,103.368859 386.133621,107.377859 390.780621,108.870859 C397.154621,110.918859 404.772621,110.554859 411.435621,111.886859 C432.830621,116.166859 464.157621,127.228859 480.901621,141.355859 Z" id="Path" fill="#F2F2F4"></path>
            <path d="M538.583621,175.743859 C543.130621,140.358859 556.153621,104.238859 584.032621,80.4448587 C597.311621,69.1118587 613.498621,60.8458587 631.394621,62.3068587 C645.503621,63.4578587 658.593621,71.0938587 668.118621,81.3148587 C670.515621,83.8868587 672.610621,87.6638587 675.158621,89.8738587 C676.254621,90.8238587 677.158621,90.5138587 678.482621,90.4368587 C682.127621,93.2208587 685.065621,109.334859 685.714621,114.153859 C689.740621,144.066859 681.708621,176.463859 663.252621,200.464859 C662.261954,201.763525 661.243288,203.039859 660.196621,204.293859 C659.149954,205.548525 658.076288,206.779192 656.975621,207.985859 C655.874288,209.192525 654.746954,210.374192 653.593621,211.530859 C652.440954,212.688192 651.262954,213.819525 650.059621,214.924859 C648.856954,216.029525 647.630621,217.107525 646.380621,218.158859 C645.129954,219.210192 643.856954,220.233192 642.561621,221.227859 C641.265621,222.223192 639.948621,223.189192 638.610621,224.125859 C637.272621,225.063192 635.914621,225.970192 634.536621,226.846859 C633.158621,227.724192 631.761954,228.570859 630.346621,229.386859 C628.931288,230.202192 627.498621,230.986192 626.048621,231.738859 C624.599288,232.490859 623.133621,233.210859 621.651621,233.898859 C620.170288,234.586859 618.674288,235.241859 617.163621,235.863859 C615.652954,236.485859 614.129621,237.074192 612.593621,237.628859 C611.056954,238.183525 609.508954,238.704192 607.949621,239.190859 C606.390288,239.677525 604.820954,240.129859 603.241621,240.547859 C601.662288,240.965192 600.074621,241.347525 598.478621,241.694859 C592.219621,243.077859 577.341621,244.121859 572.634621,245.971859 C571.467621,246.430859 570.471621,247.227859 569.559621,248.069859 C565.684621,235.538859 558.896621,223.194859 552.579621,211.762859 C556.102621,201.679859 560.286621,191.843859 562.192621,181.266859 C562.861621,177.550859 564.001621,170.543859 561.377621,167.475859 C560.415621,166.352859 559.494621,165.938859 558.039621,165.771859 C552.006621,165.080859 542.965621,172.244859 538.583621,175.743859 Z" id="Path" fill="#FAC3B7"></path>
            <path d="M292.204621,362.593859 C302.263621,361.585859 315.165621,362.454859 324.418621,366.810859 C327.922621,368.459859 331.019621,371.037859 332.286621,374.802859 C333.935621,379.699859 332.168621,385.438859 329.835621,389.816859 C324.728621,399.401859 315.921621,405.959859 305.686621,409.126859 C308.114621,418.992859 312.832621,428.300859 317.630621,437.209859 C323.119288,437.409192 328.586288,437.149192 334.031621,436.429859 C351.274621,434.204859 374.888621,426.279859 385.888621,411.933859 C384.265621,410.322859 381.665621,408.336859 380.982621,406.137859 C381.286621,404.767859 381.723621,403.995859 382.942621,403.229859 C385.112621,401.866859 387.584621,401.604859 390.052621,402.204859 C393.855621,403.128859 397.308621,405.914859 399.290621,409.256859 C400.528621,411.345859 401.721621,414.615859 400.872621,417.051859 C400.417621,418.357859 399.729621,419.196859 398.469621,419.797859 C396.892621,420.550859 394.687621,419.595859 393.112621,419.115859 C377.067621,432.101859 371.947621,450.188859 357.563621,464.292859 C351.638621,469.643859 344.794621,473.798859 336.918621,475.497859 C327.587621,477.510859 318.232621,475.676859 310.283621,470.403859 C301.021621,464.258859 295.529621,454.607859 293.289621,443.896859 C281.407621,440.682859 268.100621,434.851859 260.237621,424.965859 C257.821621,421.928859 254.622621,416.520859 255.382621,412.462859 C255.657621,410.991859 256.299621,410.546859 257.423621,409.650859 C260.635621,409.776859 264.783621,416.861859 267.291621,419.208859 C269.427621,421.207859 271.940621,422.954859 274.407621,424.518859 C284.162621,430.700859 294.842621,433.263859 306.084621,435.252859 C302.254621,426.647859 298.668621,419.206859 296.337621,409.991859 C291.015621,409.093859 286.241621,407.473859 281.683621,404.542859 C274.842621,400.143859 269.100621,393.241859 267.576621,385.086859 C266.703621,380.420859 267.617621,375.778859 270.486621,371.959859 C275.509621,365.271859 284.393621,363.516859 292.204621,362.593859 Z" id="Path" fill="#313945"></path>
            <path d="M294.731621,372.120859 C300.321621,371.329859 307.033621,372.093859 312.552621,373.197859 C315.636621,373.814859 321.166621,374.905859 322.684621,377.947859 C323.525621,379.632859 323.246621,381.748859 322.613621,383.444859 C319.731621,391.163859 310.684621,397.473859 303.504621,400.793859 L299.404621,402.316859 C294.685621,400.962859 290.395621,399.047859 286.440621,396.101859 C282.309621,393.024859 276.824621,387.787859 276.280621,382.449859 C276.085621,380.535859 276.662621,378.716859 277.950621,377.281859 C281.751621,373.049859 289.432621,372.603859 294.731621,372.120859 Z" id="Path" fill="#FAC3B7"></path>
            <path d="M359.909621,440.897859 L360.638621,441.195859 C359.733621,445.107859 355.071621,450.251859 352.480621,453.503859 C347.526621,459.719859 341.014621,464.308859 332.892621,465.080859 C324.995621,465.831859 318.274621,463.118859 312.274621,458.275859 C308.749621,454.839859 306.621621,451.522859 304.682621,447.031859 C325.095621,449.641859 340.650621,448.082859 359.909621,440.897859 Z" id="Path" fill="#E1A39E"></path>
            <path d="M416.032621,280.455859 C423.023621,280.149859 428.802621,280.730859 434.948621,284.374859 C444.071621,289.782859 449.891621,299.725859 452.469621,309.801859 C455.664621,322.289859 454.167621,336.269859 447.531621,347.395859 C442.512621,355.811859 435.234621,360.947859 425.808621,363.370859 C418.129621,364.425859 411.041621,363.502859 404.338621,359.348859 C395.364621,353.786859 390.213621,344.238859 387.979621,334.152859 C385.122621,321.257859 387.463621,306.214859 394.731621,295.109859 C399.838621,287.307859 406.890621,282.353859 416.032621,280.455859 Z" id="Path" fill="#313945"></path>
            <path d="M424.836621,312.961859 C426.269621,312.947859 427.669621,312.944859 429.023621,313.481859 C431.090621,314.302859 432.701621,316.130859 433.475621,318.189859 C433.577621,318.465192 433.665621,318.744859 433.739621,319.028859 C433.812954,319.312859 433.872288,319.599859 433.917621,319.889859 C433.962288,320.180525 433.992621,320.472192 434.008621,320.764859 C434.024621,321.058192 434.025621,321.351525 434.011621,321.644859 C433.998288,321.938192 433.969954,322.229859 433.926621,322.519859 C433.883954,322.810525 433.826954,323.098192 433.755621,323.382859 C433.683621,323.667525 433.597621,323.947859 433.497621,324.223859 C433.397621,324.499859 433.284288,324.770192 433.157621,325.034859 C431.993621,327.475859 430.357621,328.503859 427.914621,329.463859 C427.118621,329.457859 426.347621,329.442859 425.562621,329.297859 C423.286621,328.878859 421.350621,327.519859 420.110621,325.564859 C418.923621,323.691859 418.670621,321.439859 419.185621,319.305859 C419.967621,316.065859 422.091621,314.542859 424.836621,312.961859 Z" id="Path" fill="#FFFFFF"></path>
            <path d="M236.124621,277.505859 C241.590621,277.093859 247.251621,278.756859 251.776621,281.818859 C260.368621,287.631859 265.472621,298.162859 267.188621,308.155859 C269.353621,320.768859 267.354621,334.863859 259.790621,345.420859 C254.747621,352.457859 248.368621,356.812859 239.756621,358.280859 C234.323621,358.843859 228.583621,357.366859 223.991621,354.429859 C215.402621,348.936859 210.514621,338.559859 208.632621,328.833859 C206.118621,315.850859 208.308621,301.100859 215.902621,290.113859 C221.013621,282.719859 227.349621,279.084859 236.124621,277.505859 Z" id="Path" fill="#313945"></path>
            <path d="M246.447621,308.936859 C247.491621,308.916859 248.464621,308.925859 249.488621,309.156859 C251.681621,309.650859 253.613621,310.994859 254.725621,312.969859 C255.843621,314.954859 256.014621,317.231859 255.328621,319.395859 C254.414621,322.279859 252.644621,323.781859 250.046621,325.135859 C249.230621,325.257859 248.478621,325.315859 247.649621,325.279859 C245.755621,325.197859 243.673621,324.123859 242.493621,322.646859 C241.045621,320.833859 240.811621,318.481859 241.159621,316.255859 C241.717621,312.679859 243.628621,310.977859 246.447621,308.936859 Z" id="Path" fill="#FFFFFF"></path>
            <path d="M418.504621,207.012859 C421.277621,206.779859 424.085621,206.677859 426.865621,206.843859 C438.283621,207.523859 450.593621,213.234859 458.075621,221.972859 C460.569621,224.884859 463.791621,229.203859 463.509621,233.159859 C462.939621,233.867859 463.002621,234.081859 462.029621,234.244859 C458.911621,234.769859 454.540621,230.351859 452.115621,228.488859 C442.412621,221.621859 429.189621,217.186859 417.215621,218.506859 C413.617621,218.903859 409.480621,220.516859 405.933621,220.264859 C404.325621,220.150859 403.187621,219.585859 402.145621,218.360859 C401.862621,216.951859 401.884621,216.226859 402.757621,214.958859 C406.226621,209.916859 412.843621,208.143859 418.504621,207.012859 Z" id="Path" fill="#313945"></path>
            <path d="M235.754621,205.040859 C240.377621,204.457859 244.954621,204.588859 249.400621,206.037859 C253.429621,207.351859 259.270621,209.973859 261.081621,214.011859 C261.613621,215.197859 261.579621,216.222859 261.056621,217.381859 C260.316621,219.022859 257.938621,218.587859 256.359621,218.431859 C244.246621,217.230859 238.793621,214.920859 226.683621,219.313859 C223.137621,220.762859 211.141621,229.138859 208.911621,228.885859 C208.304621,228.262859 208.191621,228.288859 207.991621,227.369859 C207.468621,224.952859 208.550621,223.247859 209.874621,221.340859 C216.243621,212.163859 224.821621,207.033859 235.754621,205.040859 Z" id="Path" fill="#313945"></path>
            <path d="M402.148621,548.620859 C405.302621,548.320859 408.476621,548.471859 411.638621,548.536859 C414.313621,566.846859 420.544621,584.956859 422.108621,603.402859 C410.771621,602.836859 399.343621,602.064859 388.433621,605.868859 C381.753621,608.197859 374.885621,612.147859 371.826621,618.841859 C369.298621,624.373859 370.305621,629.487859 372.212621,634.962859 C368.200621,639.539859 365.493621,644.880859 365.319621,651.075859 C365.203621,655.209859 366.379621,661.294859 369.291621,664.416859 C370.485621,665.697859 372.315621,667.021859 373.127621,668.564859 C374.391621,670.963859 375.081621,674.149859 375.974621,676.738859 C378.013621,682.654859 381.851621,688.065859 386.195621,692.538859 C398.494621,705.202859 417.077621,712.172859 434.568621,712.337859 C435.622621,716.612859 436.443621,720.839859 437.089621,725.194859 C415.853621,727.859859 394.431621,729.291859 373.124621,731.328859 C332.150621,735.245859 291.013621,739.508859 250.245621,745.174859 C242.439621,745.997859 234.809621,748.341859 226.998621,748.858859 C219.662621,749.344859 211.620621,747.961859 206.044621,742.806859 C203.988621,740.904859 202.796621,738.484859 201.967621,735.849859 C197.697621,722.262859 195.047621,706.423859 191.277621,692.361859 L175.350621,633.964859 C171.559621,620.392859 165.027621,603.235859 164.548621,589.345859 C173.041621,593.680859 181.601621,596.306859 191.191621,594.781859 C199.933621,593.392859 205.952621,588.343859 213.593621,584.509859 C218.053621,582.271859 222.959621,580.940859 227.777621,579.723859 C284.164621,565.482859 344.104621,553.024859 402.148621,548.620859 Z" id="Path" fill="#906D61"></path>
            <path d="M214.582621,592.104859 C215.585621,592.340859 216.358621,592.726859 217.095621,593.474859 C218.157621,594.550859 218.566621,596.042859 218.961621,597.456859 C222.239621,609.187859 224.223621,621.521859 227.064621,633.395859 C232.193621,654.836859 237.868621,676.149859 242.328621,697.748859 C244.111621,706.383859 247.774621,721.971859 247.550621,730.291859 C247.489621,732.555859 246.466621,733.557859 244.930621,735.037859 C244.454621,734.824859 244.127621,734.706859 243.695621,734.362859 C242.387621,733.324859 241.661621,731.838859 241.107621,730.307859 C238.923621,724.270859 237.715621,717.639859 236.190621,711.388859 C232.702621,697.096859 229.518621,682.764859 226.246621,668.424859 C221.698621,648.490859 212.935621,618.825859 211.928621,599.166859 C211.761621,595.908859 212.397621,594.502859 214.582621,592.104859 Z" id="Path" fill="#313945"></path>
            <path d="M533.121621,717.285859 C533.967621,717.314859 534.000621,717.487859 534.656621,717.967859 C540.098621,729.332859 538.849621,753.630859 536.314621,765.780859 C532.000621,786.455859 518.455621,806.938859 500.404621,818.203859 C481.812621,829.806859 458.913621,835.459859 437.156621,836.304859 C433.547621,836.444859 428.867621,836.943859 425.348621,836.085859 C424.275621,835.823859 424.683621,836.075859 424.065621,835.084859 C425.783621,831.123859 437.380621,825.837859 441.298621,822.420859 C443.543621,820.462859 445.528621,818.509859 445.763621,815.431859 C445.495621,814.502859 445.226621,813.936859 444.504621,813.298859 C443.583621,812.484859 442.248621,811.786859 440.983621,811.906859 C437.397621,812.246859 431.566621,816.880859 428.424621,818.784859 C396.350621,838.223859 349.402621,852.695859 312.231621,858.356859 C306.221621,859.271859 300.174621,860.348859 294.091621,860.578859 C291.045621,858.081859 288.202621,855.442859 285.371621,852.704859 C273.425621,840.549859 265.284621,826.071859 262.962621,809.019859 C261.632621,799.251859 261.676621,783.324859 268.288621,775.241859 C273.465621,768.913859 301.809621,752.077859 309.668621,749.832859 C314.699621,748.394859 320.816621,748.650859 326.047621,748.202859 C346.955621,746.409859 367.844621,743.744859 388.750621,741.782859 L419.145621,738.786859 C425.151621,738.179859 431.389621,737.871859 437.306621,736.673859 C440.062621,736.116859 443.379621,735.518859 445.189621,733.206859 C448.366621,729.148859 448.090621,722.898859 447.496621,718.041859 C458.479288,722.764525 469.269954,727.891192 479.868621,733.421859 C486.343621,736.874859 492.586621,741.208859 499.263621,744.208859 C500.786621,744.892859 501.255621,744.878859 502.754621,744.341859 C503.482621,743.276859 503.924621,742.533859 503.774621,741.183859 C503.276621,736.698859 496.051621,731.549859 492.825621,728.869859 C507.073621,726.993859 520.160621,723.602859 533.121621,717.285859 Z" id="Path" fill="#487598"></path>
            <path d="M164.160621,231.318859 C157.966621,230.044859 151.749621,226.844859 146.327621,223.681859 C120.879621,208.834859 104.391621,183.830859 97.0966209,155.623859 C88.4226209,122.083859 92.1906209,82.9848587 110.007621,52.9743587 C120.722621,34.9263587 137.045621,20.8769587 157.669621,15.6673587 C158.290954,15.514892 158.913954,15.3701253 159.538621,15.2330587 C160.163288,15.095992 160.789621,14.9666587 161.417621,14.8450587 C162.046288,14.7235253 162.675954,14.6097253 163.306621,14.5036587 C163.937288,14.3976587 164.569288,14.2994253 165.202621,14.2089587 C165.835954,14.1185587 166.470288,14.035992 167.105621,13.9612587 C167.740954,13.8865253 168.376954,13.8196587 169.013621,13.7606587 C169.650954,13.701592 170.288621,13.6504253 170.926621,13.6071587 C171.564621,13.563892 172.203288,13.5285253 172.842621,13.5010587 C173.481954,13.473592 174.121288,13.4540253 174.760621,13.4423587 C175.399954,13.4293435 176.039621,13.4268253 176.679621,13.4293435 C177.318954,13.435092 177.958621,13.4471253 178.598621,13.4670587 C179.237954,13.486992 179.876954,13.514792 180.515621,13.5504587 C181.154288,13.586192 181.792288,13.629792 182.429621,13.6812587 C183.067621,13.7327253 183.704621,13.792092 184.340621,13.8593587 C184.976621,13.9265587 185.611621,14.0016253 186.245621,14.0845587 C186.880288,14.167492 187.513621,14.2582253 188.145621,14.3567587 C188.777621,14.455292 189.408288,14.5616587 190.037621,14.6758587 C190.666954,14.789992 191.294954,14.911892 191.921621,15.0415587 C192.548288,15.1712253 193.172954,15.308592 193.795621,15.4536587 C194.418954,15.598792 195.040288,15.751592 195.659621,15.9120587 C196.278288,16.0724587 196.895288,16.2405253 197.510621,16.4162587 C198.125954,16.5919253 198.738954,16.775192 199.349621,16.9660587 C199.959621,17.1569253 200.567621,17.355292 201.173621,17.5611587 C201.778954,17.7670253 202.381954,17.9803253 202.982621,18.2010587 C203.583288,18.4218587 204.180954,18.6500253 204.775621,18.8855587 C205.370288,19.121092 205.961954,19.3639587 206.550621,19.6141587 C207.139288,19.864292 207.724954,20.1216587 208.307621,20.3862587 C208.889621,20.6509253 209.468621,20.9227253 210.044621,21.2016587 C210.619954,21.480592 211.191954,21.766592 211.760621,22.0596587 C212.329288,22.3527253 212.894288,22.652792 213.455621,22.9598587 C214.016954,23.2668587 214.574288,23.5807587 215.127621,23.9015587 C215.680954,24.2223587 216.230288,24.5499587 216.775621,24.8843587 C249.417621,44.7890587 261.400621,77.1918587 269.974621,112.309859 C263.603954,115.364525 257.379621,118.692525 251.301621,122.293859 C245.223621,125.895192 239.314954,129.755859 233.575621,133.875859 C233.318621,126.357859 232.161621,118.560859 230.708621,111.178859 C225.886621,86.6798587 214.352621,59.4878587 192.820621,45.1464587 C192.099288,44.6558587 191.365954,44.1837587 190.620621,43.7301587 C189.875288,43.276492 189.118954,42.841892 188.351621,42.4263587 C187.584288,42.0108253 186.806954,41.6148587 186.019621,41.2384587 C185.232288,40.8620587 184.435954,40.505692 183.630621,40.1693587 C182.825954,39.8330253 182.012954,39.517192 181.191621,39.2218587 C180.370954,38.9264587 179.542954,38.6519253 178.707621,38.3982587 C177.872954,38.144592 177.032288,37.912092 176.185621,37.7007587 C175.338954,37.4894253 174.487621,37.2995253 173.631621,37.1310587 C172.775621,36.962592 171.915954,36.8157587 171.052621,36.6905587 C170.188621,36.5654253 169.322288,36.4620587 168.453621,36.3804587 C167.584954,36.2989253 166.714621,36.239292 165.842621,36.2015587 C164.971288,36.1638253 164.099288,36.1480587 163.226621,36.1542587 C162.353954,36.1604587 161.482288,36.188592 160.611621,36.2386587 C159.740288,36.288792 158.870954,36.360792 158.003621,36.4546587 C157.135621,36.5485253 156.270954,36.6641587 155.409621,36.8015587 C154.547621,36.9389587 153.689954,37.0979587 152.836621,37.2785587 C138.054621,40.3718587 125.350621,49.8125587 117.293621,62.4458587 C114.611621,66.6508587 112.147621,71.4048587 113.273621,76.4988587 C113.510621,76.3638587 113.750621,76.2348587 113.983621,76.0938587 C117.235621,74.1278587 121.084621,67.8228587 123.914621,64.8258587 C135.078621,53.0003587 153.660621,44.4302587 170.108621,47.7404587 C184.146621,50.5658587 195.819621,61.9308587 203.396621,73.5328587 C216.801621,94.0568587 220.930621,119.443859 220.922621,143.527859 C215.466621,149.409859 209.540621,154.835859 204.253621,160.873859 C188.712621,178.622859 176.229621,199.905859 167.750621,221.905859 C166.429621,224.970859 165.347621,228.195859 164.160621,231.318859 Z" id="Path" fill="#FAC3B7"></path>
            <path d="M164.160621,231.318859 C157.966621,230.044859 151.749621,226.844859 146.327621,223.681859 C120.879621,208.834859 104.391621,183.830859 97.0966209,155.623859 C88.4226209,122.083859 92.1906209,82.9848587 110.007621,52.9743587 C120.722621,34.9263587 137.045621,20.8769587 157.669621,15.6673587 C158.290954,15.514892 158.913954,15.3701253 159.538621,15.2330587 C160.163288,15.095992 160.789621,14.9666587 161.417621,14.8450587 C162.046288,14.7235253 162.675954,14.6097253 163.306621,14.5036587 C163.937288,14.3976587 164.569288,14.2994253 165.202621,14.2089587 C165.835954,14.1185587 166.470288,14.035992 167.105621,13.9612587 C167.740954,13.8865253 168.376954,13.8196587 169.013621,13.7606587 C169.650954,13.701592 170.288621,13.6504253 170.926621,13.6071587 C171.564621,13.563892 172.203288,13.5285253 172.842621,13.5010587 C173.481954,13.473592 174.121288,13.4540253 174.760621,13.4423587 C175.399954,13.4293435 176.039621,13.4268253 176.679621,13.4293435 C177.318954,13.435092 177.958621,13.4471253 178.598621,13.4670587 C179.237954,13.486992 179.876954,13.514792 180.515621,13.5504587 C181.154288,13.586192 181.792288,13.629792 182.429621,13.6812587 C183.067621,13.7327253 183.704621,13.792092 184.340621,13.8593587 C184.976621,13.9265587 185.611621,14.0016253 186.245621,14.0845587 C186.880288,14.167492 187.513621,14.2582253 188.145621,14.3567587 C188.777621,14.455292 189.408288,14.5616587 190.037621,14.6758587 C190.666954,14.789992 191.294954,14.911892 191.921621,15.0415587 C192.548288,15.1712253 193.172954,15.308592 193.795621,15.4536587 C194.418954,15.598792 195.040288,15.751592 195.659621,15.9120587 C196.278288,16.0724587 196.895288,16.2405253 197.510621,16.4162587 C198.125954,16.5919253 198.738954,16.775192 199.349621,16.9660587 C199.959621,17.1569253 200.567621,17.355292 201.173621,17.5611587 C201.778954,17.7670253 202.381954,17.9803253 202.982621,18.2010587 C203.583288,18.4218587 204.180954,18.6500253 204.775621,18.8855587 C205.370288,19.121092 205.961954,19.3639587 206.550621,19.6141587 C207.139288,19.864292 207.724954,20.1216587 208.307621,20.3862587 C208.889621,20.6509253 209.468621,20.9227253 210.044621,21.2016587 C210.619954,21.480592 211.191954,21.766592 211.760621,22.0596587 C212.329288,22.3527253 212.894288,22.652792 213.455621,22.9598587 C214.016954,23.2668587 214.574288,23.5807587 215.127621,23.9015587 C215.680954,24.2223587 216.230288,24.5499587 216.775621,24.8843587 C249.417621,44.7890587 261.400621,77.1918587 269.974621,112.309859 C263.603954,115.364525 257.379621,118.692525 251.301621,122.293859 C245.223621,125.895192 239.314954,129.755859 233.575621,133.875859 C233.318621,126.357859 232.161621,118.560859 230.708621,111.178859 C225.886621,86.6798587 214.352621,59.4878587 192.820621,45.1464587 C192.099288,44.6558587 191.365954,44.1837587 190.620621,43.7301587 C189.875288,43.276492 189.118954,42.841892 188.351621,42.4263587 C187.584288,42.0108253 186.806954,41.6148587 186.019621,41.2384587 C185.232288,40.8620587 184.435954,40.505692 183.630621,40.1693587 C182.825954,39.8330253 182.012954,39.517192 181.191621,39.2218587 C180.370954,38.9264587 179.542954,38.6519253 178.707621,38.3982587 C177.872954,38.144592 177.032288,37.912092 176.185621,37.7007587 C175.338954,37.4894253 174.487621,37.2995253 173.631621,37.1310587 C172.775621,36.962592 171.915954,36.8157587 171.052621,36.6905587 C170.188621,36.5654253 169.322288,36.4620587 168.453621,36.3804587 C167.584954,36.2989253 166.714621,36.239292 165.842621,36.2015587 C164.971288,36.1638253 164.099288,36.1480587 163.226621,36.1542587 C162.353954,36.1604587 161.482288,36.188592 160.611621,36.2386587 C159.740288,36.288792 158.870954,36.360792 158.003621,36.4546587 C157.135621,36.5485253 156.270954,36.6641587 155.409621,36.8015587 C154.547621,36.9389587 153.689954,37.0979587 152.836621,37.2785587 C138.054621,40.3718587 125.350621,49.8125587 117.293621,62.4458587 C114.611621,66.6508587 112.147621,71.4048587 113.273621,76.4988587 C110.250621,85.1288587 107.299621,93.9528587 105.842621,103.004859 C102.004621,126.851859 106.438621,154.346859 116.875621,176.012859 C125.848621,194.637859 143.318621,213.339859 163.159621,220.427859 C163.917621,220.697859 164.674621,220.913859 165.443621,221.145859 C166.172621,221.364859 167.076621,221.583859 167.750621,221.905859 C166.429621,224.970859 165.347621,228.195859 164.160621,231.318859 Z" id="Path" fill="#F2F2F4"></path>
            <path d="M522.719621,444.723859 C526.944621,446.192859 532.082621,451.354859 534.795621,454.906859 C544.397621,467.476859 542.600621,481.131859 540.594621,495.796859 C534.174621,490.314859 527.613621,485.424859 519.256621,483.426859 C494.816621,477.584859 469.950621,494.012859 450.182621,506.071859 C446.651621,508.225859 438.052621,513.244859 437.643621,517.796859 C437.536621,518.992859 437.734621,519.892859 438.645621,520.740859 C439.934621,521.939859 441.924621,521.725859 443.476621,521.309859 C448.476621,519.965859 453.323621,516.664859 457.855621,514.184859 C466.710621,509.338859 475.661621,504.151859 484.944621,500.158859 C491.669621,497.265859 499.720621,494.638859 507.115621,494.603859 C516.904621,494.557859 524.393621,499.325859 531.104621,505.987859 C552.990621,527.711859 571.920621,587.638859 571.920621,618.405859 C571.920621,636.919859 567.588621,653.815859 554.058621,667.093859 C540.302621,680.594859 518.264621,688.192859 499.404621,690.349859 C493.300621,691.047859 487.216621,690.940859 481.084621,690.874859 C483.718621,686.744859 485.679621,682.508859 487.521621,677.974859 C489.505621,670.782859 490.454621,663.612859 490.114621,656.142859 C489.271621,637.654859 481.831621,622.517859 468.259621,610.121859 C475.538621,605.796859 484.209621,602.842859 492.616621,601.835859 C498.720621,601.104859 504.956621,601.320859 511.071621,601.778859 C514.050621,602.000859 517.469621,602.617859 520.427621,602.383859 C521.669621,602.286859 522.042621,601.953859 523.012621,601.238859 C523.599621,600.050859 524.030621,599.051859 523.713621,597.693859 C523.434621,596.499859 522.526621,595.609859 521.554621,594.937859 C512.897621,588.946859 495.562621,589.935859 485.788621,591.713859 C485.785954,588.556525 485.684288,585.402192 485.483621,582.250859 C485.282954,579.099525 484.983621,575.957859 484.585621,572.825859 C484.187621,569.693192 483.691621,566.576525 483.097621,563.475859 C482.504288,560.374525 481.813954,557.294859 481.026621,554.236859 C480.082621,550.578859 478.943621,544.118859 475.450621,542.071859 C474.148621,542.128859 473.606621,542.245859 472.675621,543.215859 C470.940621,545.022859 470.696621,547.583859 470.670621,549.963859 C470.588621,557.317859 472.526621,564.786859 473.603621,572.052859 C474.784288,580.370859 475.345288,588.730192 475.286621,597.130859 C470.308621,599.266859 465.999621,601.953859 461.563621,605.054859 C451.677621,599.919859 443.035621,596.986859 431.958621,595.782859 C431.347621,585.821859 425.455621,547.929859 419.799621,541.219859 C417.027621,537.931859 412.905621,537.564859 408.912621,537.274859 C407.304621,531.064859 404.223621,525.910859 400.643621,520.651859 C405.463621,513.941859 410.976621,508.368859 417.311621,503.078859 C436.980621,486.654859 455.758621,483.850859 477.903621,473.146859 C494.147621,465.294859 508.517621,455.812859 522.719621,444.723859 Z" id="Path" fill="#7A7BBE"></path>
            <path d="M548.409621,763.470859 C571.093621,774.271859 599.328621,780.539859 624.268621,776.283859 C643.388621,773.020859 660.656621,763.340859 671.844621,747.261859 C677.852621,738.627859 681.188621,728.556859 682.484621,718.163859 C687.268621,679.777859 663.674621,648.660859 648.037621,615.860859 C639.345621,597.628859 632.238621,578.767859 628.654621,558.835859 C623.797621,531.819859 626.662621,504.796859 642.763621,481.870859 C654.578621,465.045859 673.205621,452.608859 693.572621,449.174859 C715.392621,445.495859 737.576621,451.447859 755.487621,464.190859 C773.024621,476.667859 786.297621,496.521859 789.723621,517.888859 C790.685621,523.889859 792.013621,542.575859 788.021621,547.318859 C787.528621,547.905859 787.266621,547.704859 786.577621,547.696859 C783.208621,542.361859 781.874621,535.820859 779.873621,529.883859 C777.325621,522.322859 773.933621,514.657859 769.637621,507.918859 C759.062621,491.326859 743.398621,477.871859 723.858621,473.658859 C715.152621,472.057859 704.278621,471.278859 695.725621,474.114859 C694.135621,474.553859 692.546621,475.006859 690.994621,475.566859 C690.110621,475.887525 689.234954,476.229859 688.367621,476.593859 C687.500288,476.957859 686.642621,477.343192 685.794621,477.749859 C684.946621,478.155859 684.108954,478.582859 683.281621,479.030859 C682.454954,479.478859 681.639621,479.946859 680.835621,480.434859 C680.031621,480.922859 679.240288,481.430192 678.461621,481.956859 C677.682954,482.484192 676.917621,483.030525 676.165621,483.595859 C675.413621,484.160525 674.676288,484.743525 673.953621,485.344859 C673.230288,485.946192 672.522288,486.565192 671.829621,487.201859 C671.137621,487.838525 670.461288,488.491525 669.800621,489.160859 C669.140621,489.830859 668.497621,490.516859 667.871621,491.218859 C667.244954,491.920192 666.636288,492.636525 666.045621,493.367859 C665.454954,494.099859 664.882621,494.845859 664.328621,495.605859 C663.774621,496.365859 663.239621,497.138859 662.723621,497.924859 C662.207621,498.711525 661.711621,499.510192 661.235621,500.320859 C660.758954,501.132192 660.302954,501.954525 659.867621,502.787859 C659.431621,503.621192 659.016621,504.464859 658.622621,505.318859 C653.925621,515.390859 651.939621,526.147859 651.825621,537.217859 C651.301621,588.056859 689.855621,627.369859 706.037621,673.114859 C715.353621,699.452859 715.303621,728.671859 703.034621,754.090859 C702.691288,754.804859 702.338954,755.514525 701.977621,756.219859 C701.616288,756.924525 701.245954,757.624859 700.866621,758.320859 C700.487954,759.016859 700.100621,759.707859 699.704621,760.393859 C699.308621,761.079859 698.903954,761.761192 698.490621,762.437859 C698.077288,763.113859 697.655954,763.784525 697.226621,764.449859 C696.796621,765.115192 696.358288,765.775192 695.911621,766.429859 C695.464954,767.084525 695.010288,767.733525 694.547621,768.376859 C694.084954,769.019525 693.614621,769.656859 693.136621,770.288859 C692.657954,770.920192 692.171288,771.545525 691.676621,772.164859 C691.182621,772.784192 690.680954,773.397192 690.171621,774.003859 C689.661621,774.610525 689.144621,775.210525 688.620621,775.803859 C688.095954,776.397859 687.563954,776.985192 687.024621,777.565859 C686.485288,778.146525 685.938954,778.720192 685.385621,779.286859 C684.831621,779.853525 684.270954,780.413192 683.703621,780.965859 C683.136288,781.518525 682.561954,782.064192 681.980621,782.602859 C681.399288,783.141525 680.811288,783.672525 680.216621,784.195859 C679.621954,784.719859 679.020954,785.236192 678.413621,785.744859 C677.806288,786.253525 677.192621,786.754525 676.572621,787.247859 C675.952621,787.741192 675.326621,788.226859 674.694621,788.704859 C674.062621,789.182859 673.424954,789.652525 672.781621,790.113859 C672.137621,790.575859 671.487954,791.029525 670.832621,791.474859 C670.177288,791.920192 669.516621,792.357525 668.850621,792.786859 C668.184621,793.215525 667.513288,793.636192 666.836621,794.048859 C666.159954,794.460859 665.478288,794.864525 664.791621,795.259859 C664.104954,795.655192 663.413288,796.041859 662.716621,796.419859 C662.020621,796.797192 661.319621,797.166192 660.613621,797.526859 C659.908288,797.887525 659.198288,798.238859 658.483621,798.580859 C657.769621,798.923525 657.051288,799.257192 656.328621,799.581859 C655.605288,799.906525 654.878621,800.222192 654.148621,800.528859 C653.417954,800.835525 652.683621,801.132859 651.945621,801.420859 C651.206954,801.708859 650.465288,801.987525 649.720621,802.256859 C648.975288,802.526859 648.226954,802.787192 647.475621,803.037859 C612.141621,815.115859 571.802621,809.402859 538.738621,793.130859 C543.296621,783.462859 546.190621,773.889859 548.409621,763.470859 Z" id="Path" fill="#FAC3B7"></path>
            <path d="M13.2796209,492.068859 C36.0806209,500.454859 57.4126209,513.950859 78.0506209,526.591859 C93.8132876,536.050525 109.415954,545.766192 124.858621,555.738859 C134.951621,562.279859 147.451621,568.923859 155.806621,577.559859 C154.794621,581.924859 153.857621,586.138859 154.346621,590.659859 C155.677621,602.947859 160.223621,615.508859 163.311621,627.485859 C172.221621,662.050859 182.860621,696.334859 190.848621,731.112859 C187.071621,728.967859 182.952621,727.259859 179.018621,725.411859 C157.942621,715.478525 136.794288,705.702192 115.573621,696.082859 C104.559621,691.026859 92.9806209,686.324859 82.3806209,680.478859 C80.3196209,679.341859 77.6436209,677.774859 76.2176209,675.912859 C69.9486209,667.726859 83.7496209,661.557859 85.2246209,652.286859 C86.1946209,646.190859 83.2046209,641.011859 79.7266209,636.321859 C80.1019543,635.565859 80.4599543,634.801859 80.8006209,634.029859 C82.9846209,629.016859 83.3616209,623.304859 81.2806209,618.191859 C79.0236209,612.648859 74.6406209,608.881859 69.2696209,606.496859 C70.9996209,603.607859 72.4226209,600.843859 73.0926209,597.491859 C74.1376209,592.265859 72.9486209,587.205859 69.9946209,582.801859 C62.9926209,572.361859 50.2666209,569.424859 38.7116209,567.225859 C33.9146209,555.086859 30.2556209,542.296859 26.0436209,529.929859 C21.7716209,517.382859 16.8006209,504.834859 13.2796209,492.068859 Z" id="Path" fill="#906D61"></path>
            <path d="M152.984621,794.145858 C177.231621,794.143859 198.994621,801.027859 221.981621,807.791859 C221.140621,833.329859 227.906621,849.245859 243.712621,868.822859 C223.793621,877.061859 202.530621,880.870859 181.062621,881.881859 C171.890621,882.313859 138.328621,881.096859 132.462621,874.742859 C130.914621,873.065859 130.715621,870.651859 130.905621,868.472859 C131.671621,859.695859 137.874621,851.812859 144.945621,846.950859 C148.454621,844.537859 152.300621,842.537859 155.474621,839.678859 C155.613621,839.553859 155.748621,839.423859 155.884621,839.296859 C155.978621,838.454859 155.785621,838.300859 155.440621,837.554859 C154.743621,836.982859 154.355621,836.776859 153.434621,836.648859 C147.684621,835.848859 139.453621,840.069859 134.930621,843.360859 C125.741621,850.046859 121.787621,858.202859 120.098621,869.224859 C118.639621,868.524859 117.205621,867.798859 115.846621,866.915859 C110.255621,863.284859 104.522621,858.043859 103.282621,851.192859 C101.021621,838.696859 116.664621,825.560859 126.473621,820.418859 C130.675621,818.216859 143.560621,814.477859 145.430621,811.912859 C145.438621,810.978859 145.660621,811.036859 145.086621,810.520859 C143.993621,809.535859 142.345621,809.405859 140.936621,809.363859 C128.745621,808.996859 114.687621,815.883859 106.112621,824.243859 C103.215621,827.068859 101.072621,830.552859 98.1846209,833.294859 C97.5156209,832.567859 97.5756209,832.316859 97.5506209,831.295859 C97.3666209,823.734859 101.425621,816.635859 106.442621,811.246859 C118.578621,798.212859 135.898621,794.848859 152.984621,794.145858 Z" id="Path" fill="#F2F2F4"></path>
            <path d="M58.1596209,470.139859 C83.2386209,474.811859 118.008621,499.515859 136.939621,516.430859 C142.416288,521.310859 147.645288,526.443525 152.626621,531.828859 C157.607954,537.213525 162.318621,542.825525 166.758621,548.664859 C172.099621,555.807859 176.154621,562.842859 179.673621,571.012859 C180.355621,572.595859 181.056621,574.281859 182.331621,575.489859 C182.986621,576.110859 183.690621,576.611859 184.653621,576.506859 C186.857621,576.266859 192.267621,571.294859 194.086621,569.906859 C198.632621,566.470859 203.306621,563.218525 208.108621,560.149859 C212.910621,557.081192 217.825621,554.205859 222.853621,551.523859 C259.426621,532.149859 311.384621,514.431859 352.952621,512.598859 C360.757621,512.254859 379.572621,511.413859 385.038621,516.973859 C385.985621,517.936859 386.450621,518.981859 386.391621,520.311859 C383.943621,522.479859 374.707621,521.432859 371.320621,521.433859 C341.220621,521.436859 309.684621,529.345859 281.127621,538.501859 C282.432621,539.059859 282.987621,539.537859 283.881621,540.572859 C284.236621,540.982859 284.582621,541.275859 285.030621,541.580859 C310.197621,534.471859 360.140621,525.714859 385.930621,527.890859 C388.745621,528.128859 393.059621,528.616859 394.920621,530.990859 C396.294621,532.744859 397.126621,534.817859 396.940621,537.046859 L396.605621,537.449859 C395.601621,538.657859 391.573621,538.544859 390.027621,538.637859 C375.362621,539.510859 361.040621,541.663859 346.535621,543.848859 C317.769621,548.057525 289.255288,553.567192 260.992621,560.377859 C247.322621,563.576859 233.330621,566.384859 219.891621,570.416859 C209.729621,573.464859 201.631621,580.947859 191.613621,583.703859 C185.417621,585.407859 178.820621,584.865859 173.184621,581.698859 C167.252621,578.365859 165.494621,573.038859 161.419621,568.138859 C158.949621,565.167859 155.719621,562.601859 152.530621,560.440859 C124.339621,541.336859 95.2856209,522.641859 65.8556209,505.506859 C53.2536209,498.169859 40.3576209,491.462859 27.6276209,484.365859 C27.9266209,483.639859 28.2176209,482.918859 28.5896209,482.225859 C31.0126209,477.698859 34.5336209,476.504859 39.1606209,475.186859 C61.5016209,480.414859 102.148621,509.337859 121.093621,523.529859 C127.756621,528.521859 133.887621,534.982859 141.095621,539.086859 C130.724621,522.957859 99.2656209,498.333859 82.8796209,487.396859 C75.4326209,482.425859 64.0056209,476.484859 58.1596209,470.139859 Z" id="Path" fill="#EEEEEF"></path>
            <path d="M246.381621,552.558859 C256.789621,546.219859 269.552621,542.216859 281.127621,538.501859 C282.432621,539.059859 282.987621,539.537859 283.881621,540.572859 C284.236621,540.982859 284.582621,541.275859 285.030621,541.580859 C271.964621,544.440859 259.448621,549.742859 246.381621,552.558859 Z" id="Path" fill="url(#linearGradient-1)"></path>
            <path d="M116.927621,710.260859 C121.460621,711.310859 133.563621,717.862859 138.892621,720.280859 C156.629621,728.327859 174.575621,735.985859 192.266621,744.116859 C195.720621,749.260859 199.353621,753.396859 204.892621,756.337859 C219.910621,764.311859 236.934621,760.060859 252.258621,755.446859 C253.434621,756.037859 254.548621,756.672859 255.657621,757.384859 C258.436621,759.169859 262.286621,761.457859 263.038621,764.866859 C259.745621,768.967859 250.182621,772.632859 245.479621,775.686859 C241.180621,778.478859 237.318621,781.595859 233.509621,785.019859 C229.804621,788.491859 227.147621,792.419859 224.396621,796.665859 C189.602621,785.203859 154.228621,777.213859 118.300621,788.950859 C116.381621,787.103859 114.460621,785.247859 112.724621,783.223859 C102.959621,771.842859 97.0296209,756.554859 98.2946209,741.468859 C99.4116209,728.156859 107.049621,718.592859 116.927621,710.260859 Z" id="Path" fill="#487598"></path>
            <path d="M433.483621,606.341859 C436.078288,606.591192 438.633621,607.056192 441.149621,607.736859 C454.206621,611.142859 464.816621,619.652859 471.626621,631.208859 C478.473621,642.829859 481.073621,657.779859 477.540621,670.905859 C477.382621,671.513859 477.209621,672.117525 477.021621,672.716859 C476.832954,673.316859 476.629621,673.911192 476.411621,674.499859 C476.193621,675.089192 475.960954,675.672859 475.713621,676.250859 C475.466288,676.828192 475.204621,677.399192 474.928621,677.963859 C474.652621,678.527859 474.362621,679.084859 474.058621,679.634859 C473.754621,680.184859 473.436954,680.726859 473.105621,681.260859 C472.774954,681.794859 472.430621,682.320192 472.072621,682.836859 C471.715288,683.353525 471.345288,683.861192 470.962621,684.359859 C470.579288,684.857859 470.183954,685.345859 469.776621,685.823859 C469.369288,686.302525 468.950288,686.770525 468.519621,687.227859 C468.088288,687.685192 467.645954,688.131192 467.192621,688.565859 C466.739954,689.001192 466.276288,689.424859 465.801621,689.836859 C465.326954,690.248859 464.842288,690.648525 464.347621,691.035859 C463.852954,691.423192 463.348954,691.798192 462.835621,692.160859 C462.322288,692.522859 461.800288,692.871859 461.269621,693.207859 C460.738954,693.543859 460.199954,693.866525 459.652621,694.175859 C446.463621,701.589859 429.927621,702.221859 415.611621,698.042859 C403.273621,694.441859 393.224621,686.895859 386.985621,675.616859 C389.616954,676.660192 392.290954,677.578859 395.007621,678.372859 C397.724954,679.166192 400.472954,679.831525 403.251621,680.368859 C406.030954,680.905525 408.829288,681.311859 411.646621,681.587859 C414.463288,681.863192 417.286954,682.006859 420.117621,682.018859 C422.859621,682.053859 428.192621,682.180859 430.013621,679.728859 C430.815621,678.648859 430.784621,678.078859 430.616621,676.859859 C429.459621,675.575859 428.084621,675.180859 426.514621,674.594859 C410.966621,672.364859 393.079621,670.488859 380.323621,660.480859 C377.684621,658.410859 375.135621,655.795859 374.860621,652.273859 C374.665621,649.768859 376.027621,645.450859 377.877621,643.740859 C378.712621,642.968859 379.328621,642.896859 380.400621,643.058859 C383.635621,643.547859 387.120621,645.192859 390.306621,646.106859 C396.782621,647.965859 403.203621,649.066859 409.888621,649.707859 C415.930621,650.286859 428.915621,652.435859 433.634621,648.542859 C434.158621,647.196859 434.088621,646.927859 433.842621,645.485859 C432.772621,643.856859 430.400621,643.263859 428.588621,642.849859 C424.618621,641.942859 420.362621,641.880859 416.319621,641.376859 C407.517621,640.277859 392.988621,638.277859 385.532621,633.923859 C383.572621,632.778859 381.424621,631.058859 380.962621,628.724859 C380.492621,626.348859 381.873621,623.002859 383.385621,621.219859 C390.496621,612.830859 410.043621,613.211859 419.906621,614.590859 C425.527621,615.376859 432.026621,617.481859 437.647621,616.959859 C437.907621,616.464859 438.231621,615.917859 438.350621,615.365859 C438.999621,612.365859 435.062621,608.578859 433.483621,606.341859 Z" id="Path" fill="#F2F2F4"></path>
            <path d="M244.542621,478.879859 C247.691621,478.678859 251.599621,481.058859 254.558621,482.127859 C261.559621,484.658859 269.458621,486.191859 275.908621,489.923859 C279.542621,492.025859 282.727621,495.044859 286.020621,497.634859 C292.063621,502.389859 298.280621,506.090859 305.397621,509.003859 C294.907621,511.837192 284.527621,515.028525 274.257621,518.577859 C263.986954,522.126525 253.850954,526.024525 243.849621,530.271859 C244.687621,525.379859 247.963621,519.623859 246.740621,514.717859 C245.871621,513.778859 245.623621,513.365859 244.236621,513.358859 C236.590621,513.323859 235.936621,531.434859 231.838621,535.034859 C231.702621,535.154859 231.533621,535.232859 231.381621,535.331859 C223.716954,538.960525 216.215954,542.900525 208.878621,547.151859 C201.540621,551.403192 194.391621,555.951192 187.431621,560.795859 C183.501621,552.865859 178.892621,545.486859 174.129621,538.041859 C180.561621,531.644859 186.359621,524.626859 192.828621,518.230859 C207.850621,503.378859 226.380621,489.619859 244.542621,478.879859 Z" id="Path" fill="#7A7BBE"></path>
            <path d="M411.893621,840.393859 C414.008621,842.692859 415.430621,846.912859 416.490621,849.866859 C421.660621,864.278859 422.639621,879.728859 416.008621,893.768859 C406.530621,890.375859 400.449621,882.139859 395.693621,873.696859 C394.208621,871.059859 392.692621,867.776859 390.259621,865.897859 C389.544621,865.781859 389.070621,865.550859 388.384621,865.878859 C387.219621,866.435859 386.485621,867.534859 386.099621,868.740859 C385.249621,871.398859 386.419621,875.581859 387.765621,877.914859 C394.059621,888.824859 399.238621,895.110859 409.330621,902.673859 C407.205621,904.431859 404.843621,905.786859 402.385621,907.020859 C398.026621,909.208859 392.987621,910.671859 388.217621,908.969859 C378.732621,905.584859 371.721621,893.831859 367.616621,885.259859 C366.626621,883.150859 365.698621,880.494859 364.397621,878.613859 C363.665621,877.556859 363.058621,877.203859 361.848621,876.883859 C360.874621,877.107859 360.965621,876.924859 360.357621,877.543859 C358.941621,878.983859 358.712621,881.264859 358.731621,883.194859 C358.841621,894.158859 367.283621,904.635859 374.830621,911.784859 C372.285621,911.226859 369.694621,910.655859 367.254621,909.729859 C349.421621,902.957859 338.114621,883.974859 330.775621,867.412859 C337.760954,865.926859 344.699288,864.246525 351.590621,862.371859 C358.481954,860.497192 365.315621,858.431525 372.091621,856.174859 C378.866954,853.918192 385.574288,851.473525 392.213621,848.840859 C398.852288,846.208859 405.412288,843.393192 411.893621,840.393859 Z" id="Path" fill="#F2F2F4"></path>
            <path d="M253.868621,782.516859 C254.364621,783.964859 253.202621,786.848859 252.852621,788.397859 C251.854621,792.808859 251.739621,797.503859 251.790621,802.016859 C252.086621,827.760859 264.296621,847.133859 282.236621,864.583859 C276.001621,865.782859 269.958621,866.372859 263.607621,866.425859 C261.894621,866.383859 260.178621,866.185859 258.471621,866.032859 C257.039621,864.881525 255.656954,863.673859 254.323621,862.409859 C252.990954,861.145192 251.711621,859.828525 250.485621,858.459859 C249.259621,857.091192 248.091621,855.674859 246.981621,854.210859 C245.871621,852.746859 244.822954,851.240192 243.835621,849.690859 C235.972621,837.279859 230.523621,819.962859 233.979621,805.283859 C236.717621,793.651859 244.275621,788.384859 253.868621,782.516859 Z" id="Path" fill="#487598"></path>
            <path d="M536.804621,693.422859 L537.460621,693.485859 L538.056621,694.389859 C537.953621,695.762859 537.741621,697.038859 537.270621,698.339859 C535.030621,704.529859 528.068621,707.162859 522.593621,709.601859 C514.068621,713.397859 486.096621,720.510859 477.818621,719.124859 C472.565621,718.244859 467.165621,714.318859 462.077621,712.377859 L452.968621,709.572859 C459.460621,707.121859 464.996621,704.561859 470.783621,700.644859 C493.307621,704.677859 515.451621,701.089859 536.804621,693.422859 Z" id="Path" fill="#7A7BBE"></path>
            <path d="M29.3016209,578.492859 C33.3666209,578.338859 37.3166209,578.682859 41.3216209,579.394859 C47.7096209,580.530859 57.6076209,582.982859 61.3436209,588.751859 C62.8236209,591.035859 63.1696209,593.842859 62.5046209,596.461859 C61.5746209,600.123859 58.8976209,602.256859 55.7646209,604.058859 C51.3846209,605.591859 46.6136209,605.591859 42.0906209,604.739859 C35.5886209,603.515859 28.4226209,600.283859 24.7226209,594.595859 C23.1066209,592.110859 21.9656209,588.929859 22.7726209,585.957859 C23.7326209,582.425859 26.2566209,580.219859 29.3016209,578.492859 Z" id="Path" fill="#F2F2F4"></path>
            <path d="M30.9066209,612.815859 C42.4386209,616.692859 51.4086209,615.839859 63.1896209,614.388859 C65.0246209,615.257859 66.9256209,616.243859 68.4406209,617.608859 C70.6066209,619.558859 72.2306209,622.229859 72.2078622,625.214859 C72.1806209,628.641859 70.4246209,630.769859 68.0716209,633.029859 C66.9396209,633.696859 65.7976209,634.341859 64.5596209,634.795859 C56.6256209,637.704859 47.0636209,636.306859 39.5046209,632.934859 C35.3076209,631.062859 31.0006209,628.219859 29.4166209,623.682859 C28.0426209,619.751859 29.0636209,616.371859 30.9066209,612.815859 Z" id="Path" fill="#F2F2F4"></path>
            <path d="M70.4146209,643.430859 C70.8956209,643.458859 70.6186209,643.419859 71.3076209,643.647859 C72.2666209,643.965859 73.1976209,645.049859 73.6066209,645.993859 C74.4466209,647.931859 74.2286209,650.414859 73.3736209,652.301859 C72.0486209,655.227859 69.5166209,657.249859 66.5416209,658.345859 C60.9496209,660.405859 55.1176209,659.256859 49.8386209,656.937859 C45.4756209,653.883859 44.2796209,650.682859 42.7706209,645.769859 C52.8956209,646.765859 60.7326209,646.666859 70.4146209,643.430859 Z" id="Path" fill="#F2F2F4"></path>
            <path d="M406.101621,494.013859 C406.853621,493.920859 407.314621,494.013859 408.049621,494.155859 C408.104621,494.595859 408.164621,494.822859 408.058621,495.296859 C407.213621,499.065859 398.828621,506.091859 395.517621,508.052859 C393.785621,509.078859 390.259621,507.138859 388.243621,506.579859 C385.996621,505.803859 383.674621,505.184859 381.395621,504.503859 C388.883621,498.404859 396.791621,496.049859 406.101621,494.013859 Z" id="Path" fill="#7A7BBE"></path>
        </g>
    </g>
</svg>