<?xml version="1.0" encoding="UTF-8" standalone="no"?><!DOCTYPE svg PUBLIC "-//W3C//DTD SVG 1.1//EN" "http://www.w3.org/Graphics/SVG/1.1/DTD/svg11.dtd"><svg width="100%" height="100%" viewBox="0 0 2422 2954" version="1.1" xmlns="http://www.w3.org/2000/svg" xmlns:xlink="http://www.w3.org/1999/xlink" xml:space="preserve" xmlns:serif="http://www.serif.com/" style="fill-rule:evenodd;clip-rule:evenodd;stroke-linejoin:round;stroke-miterlimit:2;"><rect id="Artboard1" x="0" y="0" width="2421.03" height="2953.21" style="fill:none;"/><path d="M331.85,8.433c65.375,-2.117 129.084,14.211 183.913,50.629c94.437,62.727 145.458,158.862 167.304,267.865c42.658,-14.329 86.113,-22.008 130.963,-24.812c-8.621,-7.804 -18.546,-16.338 -22.209,-27.725c-2.7,-8.4 -0.966,-17.104 3.234,-24.692c4.925,-8.899 12.954,-14.998 22.733,-17.699c13.604,-3.759 29.629,-1.498 43.442,0.15c41.437,4.94 82.191,17.162 121.141,31.912c15.7,5.95 31.096,13.9 47.142,18.7c12.387,3.704 26.754,3.854 39.575,5.408c18.394,2.228 36.662,5.232 54.804,9.012c96.217,20.892 185.667,55.555 272.204,102.205c48.7,-114.3 98.3,-208.223 194.5,-290.978c69.196,-59.528 163.85,-103.935 257.038,-96.427c75.187,6.057 151.216,45.92 199.487,103.716c66.95,80.164 88.196,186.397 78.367,288.451c-12.617,130.979 -69.983,248.875 -172.4,332.963c-67.204,55.175 -143.013,88.65 -229.083,100.954c-17.671,2.529 -37.475,5.921 -55.238,4.129c13.479,73.658 19.004,147.354 6.946,221.746c26.371,8.779 68.292,3.929 90.304,21.7c4.283,3.454 6.892,7.55 7.083,13.2c0.117,3.475 -1.65,8.641 -4.145,10.991c-12.996,12.209 -82.463,-4.091 -102.538,-5.379c-10.717,47.4 -30.25,96.609 -58.3,136.471c18.733,8.988 82.438,36.292 91.088,50.842c3.52,5.925 5.583,14.412 2.975,21.096c-1.442,3.7 -3.513,6.512 -7.317,7.991c-14.208,5.534 -90.608,-38.204 -108.058,-47.071c-66.296,78.788 -148.638,136.596 -244.059,174.892c41.45,9.783 81.429,28.85 116.7,52.533c41.746,28.03 71.554,64.471 81.275,114.692c22.971,118.679 -28.8,238.838 -94.5,335c0.029,20.329 3.429,41.508 5.079,61.854c3.795,45.636 7.153,91.306 10.075,137.009c2.309,34.1 5.888,70.912 3.225,104.937c-1.341,17.163 -9.5,22.913 -21.933,33.358c22.733,28.788 51.742,53.538 82.504,73.363c69.104,44.537 158.85,69.662 240.488,51.367c54.112,-12.125 105.012,-39.271 134.912,-87.48c76.05,-122.608 -36.537,-251.829 -64.646,-370.095c-19.779,-83.217 -15.741,-172.663 30.505,-246.942c39.425,-63.325 101.783,-105.329 174.287,-121.675c83.608,-18.846 179.746,-4.063 252.258,42.317c57.509,36.787 104.259,92.187 118.546,160.291c6.825,32.521 6.325,73.134 -13.2,101.459c-8.458,12.275 -21.179,23.091 -36.379,25.22c-52.429,7.346 -52.95,-62.587 -68.429,-94.466c-11.458,-23.592 -29.179,-43.213 -50.596,-58.196c-43.162,-30.196 -96.467,-39.771 -147.867,-30.967c-30.625,8.15 -57.087,18.696 -79.229,42.209c-14.754,15.67 -24.733,34.104 -30.721,54.725c-26.575,91.52 42.321,181.504 74.609,262.833c17.483,44.046 28.421,90.204 29.525,137.687c2.154,92.817 -27.725,180.655 -92.604,247.938c-75.025,77.8 -177.925,111.208 -283.992,112.975c-111.104,1.846 -222.283,-37.892 -302.375,-115.558c1.254,66.008 10.458,132.129 10.254,198.087c-3.121,5.108 -6.654,10.042 -9.979,15.029c2.737,5.067 5.262,10.175 7.354,15.546c16.142,41.442 35.692,109.167 17.071,150.983c-15.95,35.83 -47.929,58.95 -83.963,72.259c-73.166,27.029 -165.625,25.208 -236.583,-7.834c-29.962,-13.954 -59.187,-36.362 -70.412,-68.687c-18.35,-52.829 11.758,-111.217 34.15,-158.121c-16.705,-33.087 -27.055,-72.479 -39.238,-107.525c-18.346,-52.767 -40.112,-107.104 -53.367,-161.342c-20.775,-4.837 -42.42,-4.612 -63.32,-9.095c-5.113,21.162 -7.142,43.666 -9.963,65.25c-4.189,31.114 -8.082,62.264 -11.679,93.45c-2.254,20.787 -2.908,42.629 -8.163,62.908c-4.345,16.754 -11.85,21.783 -26.02,30.192c9.287,31.754 14.833,70.758 -0.117,101.787c-25.325,52.55 -103.392,91.817 -156.746,109.446c-86.558,28.596 -193.317,34.446 -276.5,-8.138c-30.608,-15.666 -60.358,-38.658 -70.771,-72.92c-7.354,-24.196 -3.796,-51.055 7.904,-73.271c28.163,-53.454 94.221,-78.325 148.563,-95.6c-1.167,-39.229 -4.479,-78.475 -5.9,-117.725c-2.764,-65.878 -1.168,-131.65 4.787,-197.317c-15.362,-4.771 -35.35,-12.554 -45.541,-25.467c-6.509,-8.245 -8.163,-19.95 -8.654,-30.125c-0.963,-20.108 2.187,-41.341 3.858,-61.462c3.261,-41.714 7.412,-83.339 12.454,-124.875c-75.992,-24.15 -157.046,-54.475 -196.417,-129.604c-27.479,-52.438 -23.008,-115.054 -5.533,-169.904c36.067,-113.234 134.025,-205.605 228.821,-272.367c21.171,-14.908 42.567,-30.054 65.575,-42.038c-8.3,-2.07 -16.367,-5.05 -24.246,-8.362c-104.612,-43.958 -206.633,-127.013 -250.504,-233.667c-20.65,6.604 -88.558,35.725 -105.908,29.209c-5,-1.88 -10.167,-7.196 -11.55,-12.384c-0.913,-3.408 -0.23,-6.654 1.47,-9.675c10.53,-18.733 80.93,-38.954 102.775,-44.8c-5.408,-15.758 -9.8,-31.796 -13.175,-48.112c-3.375,-16.314 -5.707,-32.777 -6.995,-49.388c-20.846,-0.966 -106.446,-5.375 -119.83,-16.558c-4,-3.346 -7.216,-9.913 -6.841,-15.2c0.304,-4.292 2.612,-7.538 6.021,-9.954c18.533,-13.125 93.504,0.662 118.037,4.404c2.35,-88.688 5.9,-173.621 33.554,-258.979c-47.071,-13.084 -92.566,-38.459 -130.416,-69.042c-2.634,-2.128 -5.242,-4.287 -7.825,-6.479c-2.581,-2.192 -5.135,-4.414 -7.663,-6.667c-2.528,-2.252 -5.026,-4.536 -7.496,-6.85c-2.472,-2.316 -4.916,-4.661 -7.333,-7.033c-2.414,-2.375 -4.799,-4.778 -7.154,-7.208c-2.356,-2.434 -4.682,-4.895 -6.979,-7.384c-2.298,-2.489 -4.563,-5.004 -6.796,-7.546c-2.236,-2.544 -4.441,-5.115 -6.613,-7.712c-2.172,-2.597 -4.312,-5.221 -6.421,-7.871c-2.108,-2.65 -4.184,-5.325 -6.229,-8.025c-2.044,-2.7 -4.054,-5.423 -6.029,-8.171c-1.978,-2.75 -3.922,-5.523 -5.833,-8.321c-1.909,-2.794 -3.784,-5.612 -5.625,-8.454c-1.842,-2.844 -3.647,-5.708 -5.417,-8.591c-1.772,-2.886 -3.508,-5.795 -5.208,-8.725c-1.7,-2.928 -3.366,-5.875 -4.996,-8.842c-1.628,-2.969 -3.22,-5.958 -4.775,-8.967c-1.556,-3.008 -3.075,-6.034 -4.558,-9.079c-1.481,-3.044 -2.925,-6.105 -4.334,-9.183c-1.408,-3.081 -2.779,-6.178 -4.112,-9.292c-1.331,-3.111 -2.625,-6.239 -3.884,-9.383c-1.255,-3.145 -2.472,-6.304 -3.65,-9.479c-1.18,-3.175 -2.32,-6.363 -3.42,-9.563c-1.103,-3.203 -2.166,-6.418 -3.188,-9.646c-1.025,-3.227 -2.01,-6.468 -2.954,-9.721c-0.945,-3.25 -1.849,-6.512 -2.713,-9.787c-0.866,-3.272 -1.691,-6.556 -2.475,-9.85c-0.786,-3.294 -1.532,-6.597 -2.237,-9.908c-0.703,-3.314 -1.367,-6.635 -1.992,-9.963c-0.625,-3.328 -1.208,-6.662 -1.75,-10.004c-0.541,-3.342 -1.043,-6.69 -1.504,-10.046c-0.461,-3.355 -0.882,-6.715 -1.262,-10.079c-11.48,-109.454 11.462,-215.334 82.391,-301.564c60.146,-73.126 143.3,-117.055 237.304,-126.247Z" style="fill:#333944;fill-rule:nonzero;"/><path d="M1382.89,443.598c1.196,11.421 2.392,17.683 11.796,24.933c3.5,2.7 7.775,4.246 12.233,3.421c6.713,-1.241 12.317,-7.483 15.3,-13.287c7.096,-13.817 11.55,-29.638 16.913,-44.229c6.786,-18.203 14.289,-36.106 22.508,-53.709c55.263,-118.231 146.779,-239.774 274.013,-284.788c64.287,-22.744 130.245,-23.234 192.304,6.381c63.879,30.484 110.537,86.303 133.812,152.636c5.304,15.117 9.634,30.771 11.988,46.638l-1.488,1.687c-3.65,-2.587 -34.379,-61.762 -44.104,-74.028c-16.308,-20.564 -35.742,-36.964 -58.458,-49.977c-7.2,-4.125 -16.542,-7.458 -22.979,-12.506c-0.334,-0.26 -0.63,-0.56 -0.946,-0.84c-5.254,-11.857 -13.454,-16.972 -25.442,-21.597c-45.383,-17.507 -102.192,-11.272 -145.558,8.973c-107.188,50.038 -172.517,169.563 -210.846,276.6c-14.846,41.459 -58.725,182.734 -40.846,219.205c3.304,6.741 8.875,11.833 16.067,14.129c13.508,4.316 27.096,-1.917 38.675,-8.479c1.319,-0.75 2.632,-1.514 3.937,-2.292c-3.112,27.196 -8.954,57.958 -4.866,85.225c3.591,23.946 20.354,46.108 28.25,69.037c31.633,91.809 40.941,182.196 27.691,278.442c-42.208,0 -200.446,-1.796 -227.312,24.792c-4.242,4.204 -5.579,7.9 -6.409,13.7c1.542,4.537 2.392,6.858 7.171,8.933c18.363,7.963 77.104,-5.854 99.434,-7.837c39.583,-3.513 79.162,-3.33 118.866,-3.1c-14.779,44.608 -30.837,91.233 -58.429,129.783c-32.687,-11.838 -152.729,-52.029 -179.675,-40.471c-2.837,1.221 -5.492,3.396 -6.467,6.379c-1.233,3.767 -1.112,8.717 0.809,12.296c2.729,5.071 9.583,8.008 14.637,10c15.775,6.213 33.584,9.329 50.009,13.496c31.775,8.058 64.462,16.475 95.475,27.05c-120.821,146.808 -328.392,198.575 -509.063,216.008c-194.821,18.8 -435.104,-15.604 -590.567,-143.658c-42.17,-34.733 -80.137,-80.346 -101.87,-130.779c14.991,-3.884 53.27,-9.763 60.558,-23.521c2.033,-3.842 2.604,-7.917 1.258,-12.113c-1.341,-4.17 -4.021,-6.516 -7.866,-8.37c-16.013,-7.725 -51.946,6.42 -68.821,11.491c-7.554,-25.862 -11.771,-52.012 -16.059,-78.546c17.692,2.934 64.742,17.275 79.1,7.355c3.496,-2.417 5.455,-5.338 6.009,-9.613c0.741,-5.704 -1.513,-10.967 -5.5,-14.921c-15.621,-15.471 -62.271,-19.8 -84.088,-21.783c-0.386,-29.225 0.602,-58.404 2.963,-87.538c2.361,-29.133 6.084,-58.091 11.171,-86.875c23.212,-128.558 84.587,-282.691 177.4,-376.82c81.183,-82.334 205.445,-151.163 322.691,-152.146c15.429,-0.129 55.35,12.529 64.7,3.462c4.088,-3.962 7.075,-12.079 6.663,-17.729c-0.6,-8.137 -7.013,-14.2 -13.246,-18.687c-10.583,-7.621 -28.308,-14.513 -30.738,-28.85c-0.133,-0.784 -0.162,-1.584 -0.245,-2.375l1.766,-2.088c39.9,-2.637 86.979,12.404 123.7,27.642c14.496,6.016 29.117,14.658 44.246,18.812c12.229,3.359 26.367,3.071 38.979,4.309c17.188,1.687 34.638,4.491 51.567,7.879c87.321,17.466 200.721,57.787 277.229,102.858Z" style="fill:#f2f2f4;fill-rule:nonzero;"/><path d="M739.296,1059.79c36.913,-2.754 81.154,-2.383 115.45,13.6c10.309,4.804 20.459,11.383 24.213,22.696c4.362,13.141 0.154,26.396 -6.254,38.054c-18.996,34.554 -52.146,56.35 -89.167,67.025c11.937,45.487 25.096,87.512 46.542,129.621c32.345,0.812 63.641,0.141 95.441,-6.754c63.442,-13.759 127.267,-57.292 162.663,-111.85c-5.625,-2.317 -12.996,-4.642 -16.996,-9.45c-2.821,-3.392 -2.813,-6.638 -2.663,-10.813c1.95,-4.65 4.642,-6.775 8.813,-9.367c10.383,-6.454 23.321,-7.17 34.95,-4.016c19.258,5.221 35.979,20.871 45,38.416c4.354,8.463 7.054,18.642 3.408,27.863c-2.137,5.412 -6.546,11.629 -12.254,13.5c-12.617,4.133 -18.429,-24.588 -27.354,-29.533c-8.083,6.683 -12.442,18.02 -19.083,26.229c-17.388,21.504 -39.713,41.266 -61.755,57.754c-64.025,47 -145.812,61.379 -223.675,55.617c-67.829,-5.021 -154.025,-29.863 -199.25,-83.405c-8.208,-9.72 -19.141,-24.466 -17.416,-37.804c0.687,-5.329 3.704,-9.854 8.133,-12.854c16.329,-11.062 41.775,34.521 54.1,44.804c34.658,28.917 84.35,40.109 127.458,49.154c-22.275,-39.879 -36.337,-84.458 -44.279,-129.375c-10.608,-3.65 -20.641,-8.17 -30.166,-14.112c-23.471,-14.638 -49.446,-40.125 -55.08,-68.275c-1.975,-9.867 -0.595,-19.492 5.471,-27.683c14.95,-20.18 50.504,-25.909 73.75,-29.042Z" style="fill:#333944;fill-rule:nonzero;"/><path d="M744.042,1095.7c34.721,-3.025 71.963,0.738 104.279,14.158c-12.921,24.6 -35.412,43.642 -58.846,57.788c-10.175,5.154 -17.958,6.671 -29.166,3.658c-29.9,-8.033 -55.359,-36.104 -70.429,-61.937c17.695,-7.671 35.041,-11.65 54.162,-13.667Z" style="fill:#f1c5b9;fill-rule:nonzero;"/><path d="M1154.39,799.227c18.45,-1.637 35.308,-0.925 52.392,7.25c27.845,13.329 44.708,40.242 54.2,68.688c14.016,42.025 11.441,94.825 -8.88,134.416c-14.804,28.846 -35.42,45.25 -66.133,55.092c-20.921,2.817 -39.575,0.304 -58.05,-10.575c-28.508,-16.783 -45.383,-48.312 -52.875,-79.658c-10.25,-42.879 -6.779,-93.738 17.163,-131.638c14.95,-23.671 34.97,-37.25 62.183,-43.575Z" style="fill:#333944;fill-rule:nonzero;"/><path d="M1195.54,847.815c3.288,-0.329 6.7,-0.734 10.004,-0.571c6.113,0.3 12.159,5.092 15.734,9.758c6.075,7.942 7.779,18.467 6.312,28.184c-1.617,10.72 -6.379,17.941 -14.887,24.4c-3.488,0.187 -7.059,0.433 -10.55,0.22c-6.046,-0.362 -12.08,-4.337 -15.93,-8.854c-5.845,-6.862 -7.8,-15.996 -7.058,-24.825c1.129,-13.421 6.292,-19.979 16.375,-28.312Z" style="fill:#fff;fill-rule:nonzero;"/><path d="M547.455,799.048c17.366,-1.05 32.937,0.975 48.275,9.942c22.425,13.112 36.587,36.958 43.266,61.512c10.713,39.4 6.809,89.613 -13.958,125.229c-13.488,23.134 -32.238,36.488 -57.996,43.234c-17.154,1.546 -32.221,-0.079 -47.508,-8.934c-23.913,-13.85 -37.771,-38.679 -44.838,-64.616c-10.733,-39.413 -6.941,-87.925 13.954,-123.504c13.771,-23.45 32.855,-36.175 58.805,-42.863Z" style="fill:#333944;fill-rule:nonzero;"/><path d="M582.45,841.019c0.63,0.204 1.267,0.387 1.888,0.608c8.729,3.117 14.162,7.496 18.192,16.013c4.183,8.841 4.675,19.404 0.875,28.466c-3.888,9.267 -8.846,13.571 -18.055,17.188c-1.983,-0.2 -4.541,-0.308 -6.47,-0.967c-6.03,-2.071 -11.088,-6.766 -14.138,-12.312c-4.704,-8.55 -4.446,-18.692 -1.475,-27.775c3.388,-10.367 9.729,-16.296 19.183,-21.221Z" style="fill:#fff;fill-rule:nonzero;"/><path d="M1149.34,586.156c36.775,-5.216 76.242,7.838 106.154,28.875c13.817,9.721 36.638,28.613 38.942,46.175c0.683,5.234 -1.309,9.625 -4.642,13.467c-3.771,4.35 -10.533,7.488 -16.171,7.65c-11.087,0.317 -21.125,-11.725 -28.496,-18.675c-79.637,-69.158 -121.425,-14.754 -144.554,-27.037c-4.604,-2.446 -7.812,-6.93 -9.029,-11.959c-1.596,-6.587 0.017,-13.246 3.892,-18.729c9.508,-13.446 38.658,-17.483 53.904,-19.767Z" style="fill:#333944;fill-rule:nonzero;"/><path d="M558.317,587.594c7.679,-0.529 15.575,-0.771 23.233,0.133c18.413,2.171 47.417,9.817 58.563,25.492c2.912,4.1 3.483,8.233 2.479,13.075c-1.075,5.183 -5.171,11.008 -9.975,13.2c-10.633,4.85 -27.479,-4.438 -38.167,-7.196c-25.9,-6.683 -46.966,1.521 -68.908,14.621c-13.167,9.167 -26.158,28.433 -40.975,33.617c-4.85,1.695 -8.708,1.266 -13.342,-0.696c-5.441,-2.304 -11.195,-6.129 -12.912,-12.121c-2.063,-7.204 2.817,-15.4 6.725,-21.092c21.325,-31.054 56.479,-52.633 93.279,-59.033Z" style="fill:#333944;fill-rule:nonzero;"/><path d="M1945.78,145.93c0.316,0.28 0.612,0.58 0.946,0.84c6.437,5.048 15.779,8.381 22.979,12.506c22.716,13.013 42.15,29.413 58.458,49.977c9.725,12.266 40.454,71.441 44.104,74.028l1.488,-1.687c7.487,17.167 7.446,49.175 7.596,68.15c0.945,120.042 -37.859,236.175 -123.68,322.55c-87.52,88.083 -181.775,123.179 -304.895,123.237c-11.088,-27.545 -23.188,-54.141 -36.45,-80.716c1.216,-21.959 20.262,-142.829 13.7,-154.834c-2.73,-4.991 -7.155,-8.87 -12.913,-9.745c-16.171,-2.455 -40.796,20.204 -53.262,29.525c15.316,-92.65 46.833,-188.559 94.362,-269.763c47.75,-81.589 125.379,-165.071 228.508,-155.516c14.03,1.3 34.921,12.459 48.305,7.28c6.5,-2.515 8.462,-9.938 10.754,-15.832Z" style="fill:#f1c5b9;fill-rule:nonzero;"/><path d="M1264.81,1473.2c44.825,0.225 161.6,46.942 195.766,76.859c30.467,26.675 43.259,62.662 45.742,102.208c6.567,104.442 -42.517,223.508 -111.7,301.479c-62.742,70.713 -160.167,110.496 -253.421,115.758c-118.787,6.705 -292.921,-26.537 -383.162,-107.212c15.283,-68.908 38.491,-128.013 94.912,-173.567c7.254,1.5 14.021,4.263 20.933,6.867c20.417,8.637 40.75,18.462 61.734,25.608c33.412,11.371 68.229,19.142 101.008,32.375c29.692,11.992 55.858,32.475 86.171,42.471c3.925,1.328 7.905,2.465 11.942,3.413c4.036,0.944 8.107,1.694 12.212,2.25c4.108,0.555 8.233,0.912 12.375,1.07c4.139,0.162 8.278,0.123 12.417,-0.116c40.133,-2.596 84.083,-26.629 110.116,-56.909c15.38,-17.883 21.417,-45.679 8.609,-67.025c-8.304,-13.837 -22.759,-18.966 -23.667,-37.387c-0.7,-14.238 6.246,-28.783 11.746,-41.6c18.537,-43.175 44.929,-81.679 76.675,-116.258c11.033,-12.021 23.208,-23.038 33.896,-35.363c5.366,-6.187 8.854,-12.746 8.396,-21.079c-2.509,-3.488 -4.509,-5.4 -8.617,-6.946c-7.021,-2.637 -15.521,1.008 -21.454,4.613c-48.813,29.629 -117.588,143.687 -131.671,199.037l-0.663,2.688c-25.97,-8.667 -50.495,-18.563 -77.62,-23.475c-12.805,-22.23 -21.192,-46.088 -36.792,-66.825c17.321,-4.342 34.721,-7.121 52.483,-8.834c15.9,-1.533 34.05,-1.454 49.304,-6.237c7.009,-2.196 16.425,-6.817 19,-14.354c1.488,-4.367 -13.091,-89.271 -15.45,-98.738c-2.079,-8.325 -5.583,-16.058 -9.091,-23.854c15.716,-4.292 31.737,-8.6 47.871,-10.917Z" style="fill:#7a7bbe;fill-rule:nonzero;"/><path d="M82.9,242.66l2.817,1.684c3.167,-0.701 4.571,-1.045 6.979,-3.439c6.059,-6.016 10.163,-14.942 15.784,-21.642c21.712,-25.873 54.795,-57.055 87.975,-67.163c5.108,-1.556 8.445,-1.29 13.162,1.153c2.183,1.129 3.4,1.827 5.904,2.32c0.592,0.116 1.192,0.151 1.792,0.227c0.667,0.384 1.325,0.779 1.996,1.151c17.587,9.738 43.679,-1.352 63.546,-1.13c89.858,1.009 147.983,88.293 171.183,165.235c12.717,42.184 22.529,89.575 22.487,133.58c-0.254,0.433 -0.504,0.875 -0.77,1.304c-9.034,14.65 -23.467,27.429 -34.838,40.404c-13.367,15.453 -25.59,31.761 -36.671,48.925c-13.3,20.253 -25.505,41.144 -36.616,62.675c-11.112,21.531 -21.066,43.583 -29.863,66.158c-8.404,20.996 -14.675,43.5 -24.308,63.896c-86.488,-20.504 -154.7,-75.85 -201.129,-150.925c-1.645,-2.667 -3.257,-5.353 -4.838,-8.058c-1.58,-2.706 -3.129,-5.431 -4.646,-8.175c-1.514,-2.745 -2.994,-5.507 -4.441,-8.288c-1.448,-2.777 -2.86,-5.573 -4.238,-8.387c-1.38,-2.814 -2.725,-5.645 -4.033,-8.492c-1.311,-2.847 -2.588,-5.71 -3.829,-8.587c-1.242,-2.878 -2.448,-5.771 -3.617,-8.68c-1.17,-2.905 -2.304,-5.826 -3.404,-8.762c-1.1,-2.933 -2.164,-5.881 -3.192,-8.842c-1.028,-2.958 -2.019,-5.93 -2.975,-8.916c-0.955,-2.984 -1.875,-5.98 -2.758,-8.988c-0.884,-3.005 -1.729,-6.022 -2.538,-9.05c-0.811,-3.028 -1.584,-6.065 -2.321,-9.112c-0.736,-3.045 -1.434,-6.099 -2.095,-9.163c-0.662,-3.064 -1.285,-6.135 -1.871,-9.212c-0.589,-3.078 -1.139,-6.163 -1.65,-9.255c-0.511,-3.091 -0.985,-6.19 -1.421,-9.295c-0.439,-3.103 -0.839,-6.21 -1.2,-9.321c-0.361,-3.114 -0.683,-6.232 -0.967,-9.354c-0.286,-3.12 -0.534,-6.243 -0.746,-9.371c-0.208,-3.125 -0.379,-6.254 -0.512,-9.388c-0.133,-3.13 -0.229,-6.262 -0.288,-9.396c-0.055,-3.133 -0.075,-6.266 -0.058,-9.4c0.02,-3.133 0.076,-6.266 0.171,-9.4c0.097,-3.13 0.23,-6.261 0.4,-9.391c0.172,-3.128 0.382,-6.254 0.629,-9.379c0.247,-3.125 0.532,-6.246 0.854,-9.363c0.322,-3.117 0.682,-6.229 1.079,-9.337c0.4,-3.109 0.838,-6.211 1.313,-9.309c0.472,-3.097 0.983,-6.189 1.533,-9.275c0.547,-3.086 1.134,-6.165 1.759,-9.237c0.625,-3.07 1.286,-6.132 1.983,-9.188c4.287,-18.133 9.942,-38.421 18.487,-55.042Z" style="fill:#f1c5b9;fill-rule:nonzero;"/><path d="M1408.61,1998.28c9.725,13.325 15.258,211.58 15.72,243.717c-78.329,53.517 -232.633,83.863 -328.395,86.508c-79.8,2.205 -233.017,-6.55 -291.955,-62.295c-0.975,-1.121 -1.954,-2.238 -2.879,-3.405c-39.133,-49.416 -29.271,-124.958 -23.025,-183.408c18.938,-6.383 45.238,-17.629 65.138,-16.792c22.208,0.934 55.462,17.171 78.587,23.625c48.942,13.659 100.354,23.109 151.142,25.992c127.758,7.246 239.312,-28.237 335.667,-113.942Z" style="fill:#7a7bbe;fill-rule:nonzero;"/><path d="M822.642,2097.97c5.608,-0.321 11.333,-0.587 16.833,0.8c12.475,3.15 24.05,11.746 30.492,22.892c0.692,1.191 1.32,2.414 1.883,3.666c0.567,1.256 1.067,2.537 1.5,3.842c0.437,1.308 0.803,2.633 1.1,3.975c0.3,1.345 0.53,2.7 0.688,4.067c0.158,1.369 0.247,2.741 0.267,4.116c0.019,1.378 -0.032,2.752 -0.155,4.121c-0.125,1.373 -0.318,2.734 -0.579,4.084c-0.261,1.352 -0.591,2.687 -0.991,4.004c-3.93,13.091 -12.834,20.879 -24.459,27.162c-6.404,0.271 -12.841,0.5 -19.087,-1.196c-12.271,-3.333 -23.167,-12.837 -28.888,-24.083c-5.137,-10.092 -6.579,-22.308 -2.95,-33.129c4.184,-12.483 12.954,-18.85 24.346,-24.321Z" style="fill:#6969a3;fill-rule:nonzero;"/><path d="M2097.69,1621.49c40.742,-2.246 81.15,2.779 119.667,16.483c59.029,21.008 113.191,61.867 140.071,119.721c15.166,32.646 22.687,72.958 9.512,107.529c-1.825,4.787 -3.442,8.85 -8.4,11.058c-12.917,-4.283 -21.55,-56.379 -29.817,-73.046c-2.583,-5.15 -5.387,-10.175 -8.412,-15.075c-3.025,-4.9 -6.261,-9.658 -9.708,-14.275c-3.445,-4.616 -7.087,-9.072 -10.925,-13.366c-3.839,-4.295 -7.86,-8.411 -12.063,-12.35c-44.5,-41.721 -107.9,-61.696 -168.283,-59.171c-51.229,2.146 -102.15,22.271 -137.004,60.708c-2.481,2.759 -4.871,5.593 -7.171,8.504c-2.303,2.912 -4.51,5.892 -6.621,8.942c-2.111,3.05 -4.125,6.164 -6.042,9.342c-1.914,3.178 -3.726,6.414 -5.437,9.708c-1.711,3.292 -3.316,6.635 -4.813,10.029c-1.5,3.395 -2.89,6.832 -4.171,10.313c-1.283,3.483 -2.454,7.003 -3.512,10.558c-1.058,3.556 -2.003,7.142 -2.833,10.758c-22.988,100.121 41.366,186.48 76.229,274.967c16.333,41.458 27.129,83.579 28.854,128.329c0.214,4.903 0.307,9.807 0.279,14.713c-0.028,4.905 -0.178,9.808 -0.45,14.708c-0.272,4.897 -0.665,9.786 -1.179,14.667c-0.514,4.88 -1.147,9.744 -1.9,14.591c-0.756,4.848 -1.629,9.674 -2.621,14.48c-0.994,4.805 -2.107,9.583 -3.337,14.333c-1.231,4.75 -2.578,9.465 -4.042,14.146c-1.464,4.683 -3.042,9.328 -4.733,13.933c-1.695,4.606 -3.502,9.165 -5.421,13.679c-1.92,4.517 -3.95,8.982 -6.092,13.396c-2.142,4.414 -4.39,8.774 -6.746,13.079c-2.358,4.303 -4.821,8.545 -7.387,12.725c-2.567,4.181 -5.235,8.296 -8.004,12.346c-2.773,4.05 -5.642,8.028 -8.609,11.933c-2.966,3.909 -6.029,7.741 -9.187,11.496c-3.159,3.756 -6.407,7.431 -9.746,11.025c-62.958,66.9 -155.329,100.029 -245.8,102.884c-2.167,0.086 -4.335,0.155 -6.504,0.208c-91.409,2.212 -202.175,-32.017 -269.113,-96.167c-49.037,-46.996 -44.229,-84.096 -45.646,-147.571c19.171,15.963 34.967,36.363 53.655,53.046c2.372,2.123 4.769,4.216 7.191,6.279c2.422,2.064 4.871,4.098 7.346,6.1c2.472,2.003 4.97,3.975 7.492,5.917c2.522,1.942 5.068,3.852 7.637,5.729c2.57,1.881 5.161,3.728 7.775,5.542c2.617,1.814 5.254,3.594 7.913,5.342c2.658,1.75 5.339,3.466 8.041,5.15c2.7,1.68 5.423,3.329 8.167,4.945c2.742,1.614 5.503,3.195 8.283,4.742c2.784,1.547 5.585,3.06 8.405,4.538c2.816,1.477 5.652,2.919 8.508,4.325c2.855,1.408 5.728,2.78 8.617,4.116c2.888,1.336 5.793,2.636 8.712,3.9c2.922,1.264 5.858,2.492 8.808,3.684c2.953,1.191 5.918,2.347 8.896,3.466c2.981,1.117 5.974,2.198 8.979,3.242c3.009,1.044 6.028,2.051 9.059,3.021c3.03,0.969 6.073,1.901 9.129,2.796c3.055,0.894 6.121,1.751 9.196,2.57c3.075,0.817 6.159,1.596 9.254,2.338c3.097,0.742 6.201,1.446 9.312,2.112c3.114,0.664 6.235,1.291 9.363,1.88c3.128,0.586 6.262,1.134 9.404,1.645c3.142,0.512 6.289,0.982 9.442,1.413c3.153,0.433 6.311,0.826 9.475,1.179c3.161,0.356 6.328,0.671 9.5,0.946c3.169,0.275 6.343,0.511 9.521,0.708c3.177,0.2 6.357,0.359 9.537,0.475c3.181,0.12 6.361,0.199 9.542,0.238c3.183,0.041 6.366,0.041 9.55,-0c3.18,-0.039 6.361,-0.117 9.541,-0.234c3.181,-0.116 6.36,-0.273 9.538,-0.47c67.142,-4.146 135.183,-29.513 180.221,-81.159c3.5,-3.958 6.841,-8.048 10.025,-12.271c3.18,-4.219 6.193,-8.555 9.037,-13.008c2.845,-4.455 5.511,-9.014 8,-13.675c2.489,-4.664 4.793,-9.417 6.913,-14.258c2.119,-4.842 4.047,-9.759 5.783,-14.75c1.736,-4.992 3.275,-10.043 4.617,-15.154c1.341,-5.114 2.483,-10.271 3.425,-15.471c0.939,-5.2 1.675,-10.429 2.208,-15.688c14.325,-139.616 -91.692,-241.516 -99.954,-375.371c-4.163,-67.445 14.279,-135.033 59.692,-186.262c44.833,-50.575 106.066,-73.817 172.362,-77.883Z" style="fill:#f1c5b9;fill-rule:nonzero;"/><path d="M589.138,1493.75l3.404,1.254c1.392,9.459 -12.646,26.559 -17.071,34.963c-24.8,47.1 -15.187,86.196 0.034,134.3c-8.567,0.525 -17.1,1.812 -25.571,3.15c-47.354,7.471 -96.209,26.216 -125.013,66.341c-9.687,13.496 -22.775,38.625 -19.225,55.767c6.646,32.125 77.375,24.388 102.567,29.742c17.562,3.733 35.246,11.512 51.217,19.608c49.57,25.138 75.483,73.563 114.812,109.925c35.404,32.733 75.858,59.7 115.488,86.917c-23.813,11.133 -52.834,12.496 -78.684,13.204c-105.646,2.954 -229.666,-5.292 -323.033,-58.963c-38.592,-22.179 -68.708,-51.925 -80.267,-95.987c-15.016,-57.258 3.771,-119.325 32.759,-168.971c45.066,-77.179 113.154,-138.979 183.933,-192.183c19.558,-14.7 40.6,-32.65 64.65,-39.067Z" style="fill:#7a7bbe;fill-rule:nonzero;"/><path d="M1356.93,2320.98l2.687,0.779c5.646,16.196 6.425,86.9 7.775,109.034c4.65,76.183 10.942,152.325 14.483,228.562c-65.845,14.713 -129.4,27.6 -196.529,10.417c-28.683,-7.342 -56.579,-17.863 -85.291,-25.396c-8.43,-22.571 -14.813,-46.204 -22.384,-69.108c-17.633,-52.078 -34.93,-104.267 -51.891,-156.567l-12.313,-37.592c-74.258,-3.704 -144.625,-22.179 -216.6,-38.733c-4.858,-1.121 -7.483,-2.021 -10.158,-6.287l1.196,-3.917c8.845,-4.496 19.45,-5.746 29.125,-7.742c47.845,21.204 100.641,31.271 152.333,37.7c161.004,20.025 232.75,1.242 387.567,-41.15Z" style="fill:#7a7bbe;fill-rule:nonzero;"/><path d="M553.088,2320.69c49.896,11.062 102.429,17.846 153.596,18.171c20.521,0.129 42.258,-3.984 62.437,-2.838c3.675,0.213 4.617,-0.133 7.046,2.783c-2.379,4.388 -5.567,9.5 -6.721,14.388c-0.879,3.737 -0.262,8.337 2.017,11.462c14.125,19.367 85.158,33.221 110.604,39.396c-2.229,32.517 -8.104,65.534 -11.912,97.959c-4.305,36.654 -6.617,74.716 -14.017,110.829c-1,4.446 -1.929,7.508 -5.554,10.546c-8.65,7.258 -26.3,9.008 -37.325,11.425c-58.496,12.833 -118.188,9.216 -176.509,-2.8c-26.733,-5.509 -53.5,-12.413 -80.591,-15.859c-4.459,-27.879 -3.096,-57.941 -3.9,-86.162c-1.95,-68.692 -5.534,-141.038 0.829,-209.3Z" style="fill:#7a7bbe;fill-rule:nonzero;"/><path d="M543.771,2662.96c30.559,-3.237 59.442,6.15 89.104,12.013c66.088,13.058 131.025,14.121 196.746,-1.313c4.913,15.009 8.096,30.013 7.146,45.892c-1.592,26.517 -15.329,46.313 -34.946,62.929c-69.687,59.029 -176.066,81.921 -265.283,75.004c16.125,-31.795 33.237,-63.183 41.896,-97.991c-1.517,-4.638 -2.259,-6.675 -6.067,-10.009c-2.662,-0.545 -4.425,-1.466 -7.062,-0.395c-14.93,6.079 -53.813,84.591 -62.555,101.895c-12.95,-2.579 -29.558,-6.404 -40.429,-14.041c-5.441,-3.821 -7.6,-9.742 -8.683,-16.096c-6.267,-36.821 28.354,-63.975 46.704,-90.442c3.796,-5.479 7.829,-11.95 6.488,-18.846c-2.405,-2.362 -2.975,-3.091 -6.546,-3.32c-13.642,-0.863 -32.134,14.858 -41.6,23.95c-25.771,24.741 -31.646,50.162 -32.413,84.954c-13.225,-11.288 -26.183,-24.038 -29.871,-41.771c-3.162,-15.217 2.242,-29.863 11.117,-42.138c26.479,-36.641 93.321,-63.77 136.254,-70.275Z" style="fill:#f2f2f4;fill-rule:nonzero;"/><path d="M82.9,242.66c4.964,-11.814 10.628,-23.283 16.992,-34.407c6.361,-11.124 13.374,-21.821 21.038,-32.091c44.825,-60.06 114.179,-107.905 189.3,-118.15c71.487,-9.75 141.954,10.547 199.204,54.056c71.208,54.116 118.566,144.051 130.533,232.251c-43.804,23.383 -86.008,47.296 -124.437,79.029c-10.488,-87.55 -27.95,-179.616 -93.605,-243.968c-36.437,-35.713 -86.254,-61.966 -138.241,-61.234c-19.538,0.275 -46.879,2.211 -60.784,17.623c-5.854,6.486 -5.77,11.529 -5.587,20.031c-0.6,-0.076 -1.2,-0.111 -1.792,-0.227c-2.504,-0.493 -3.721,-1.191 -5.904,-2.32c-4.717,-2.443 -8.054,-2.709 -13.162,-1.153c-33.18,10.108 -66.263,41.29 -87.975,67.163c-5.621,6.7 -9.725,15.626 -15.784,21.642c-2.408,2.394 -3.812,2.738 -6.979,3.439l-2.817,-1.684Z" style="fill:#f2f2f4;fill-rule:nonzero;"/><path d="M515.638,2076.26c78.833,14.358 142.879,15.129 222.654,14.958c-2.125,47.942 -9.821,119.738 10.138,164.163c4.854,10.8 13.491,18.791 19.141,28.962c2.05,3.688 3.167,5.683 1.871,9.846l-7.3,1.65c-74.908,5.962 -193.196,-3.017 -259.787,-36.35c-1.125,-53.371 3.366,-131.442 13.283,-183.229Z" style="fill:#7a7bbe;fill-rule:nonzero;"/><path d="M1125.05,2692.87c16.038,3.25 31.254,11.175 47.296,14.916c69.35,16.18 134.508,9.659 202.517,-9.079c5.164,14.009 9.815,28.184 13.954,42.525c9.133,30.892 21.317,75.238 4.154,105.242c-17.642,30.85 -53.312,41.925 -85.487,50.087c3.837,-25.05 7.079,-95.029 -8.367,-115.612c-1.9,-2.533 -5,-4.796 -8.183,-5.058c-3.342,-0.28 -7.575,0.633 -9.88,3.27c-9.42,10.792 -2.1,50.613 -1.029,65.463c-0.058,19.7 -2.391,38.304 -7.85,57.212c-33.162,6.78 -77.904,3.359 -109.25,-9.675c0.975,-40.241 19.859,-71.354 33.746,-107.77c1.717,-4.5 4.75,-12.288 1.954,-16.875c-2.154,-3.53 -4.125,-3.967 -7.779,-5.271c-3.754,0.304 -5.987,1.108 -8.95,3.354c-29.987,22.717 -47.079,80 -52.437,115.562c-6.15,-3.516 -12.438,-6.879 -18.459,-10.616c-15.629,-9.709 -29.391,-24.867 -33.383,-43.209c-7.029,-32.316 30.067,-106.462 47.433,-134.466Z" style="fill:#f2f2f4;fill-rule:nonzero;"/><path d="M1172.13,1494.3c4.25,-0.483 5.3,-0.842 9.116,0.933c17.196,27.78 18.684,65.371 22.625,96.963c-25.547,2.167 -51.072,4.567 -76.575,7.2c-11.875,1.175 -24.795,1.221 -36.345,4.187c-5.859,1.505 -11.996,3.613 -15.213,9.025c0.992,13.025 33.846,67.58 40.846,87.7c2.367,6.805 6.992,18.742 3.792,25.434c-9.884,2.946 -30.159,-3.446 -41.575,-3.359c-24.346,0.188 -47.142,3.296 -70.821,8.821c-22.35,6.1 -42.2,15.8 -63.592,24.321c18.792,-43.421 41.654,-83.525 68.625,-122.35c15.867,-22.842 80.513,-115.371 101.333,-126.3c15.946,-8.371 40.092,-9.383 57.784,-12.575Z" style="fill:#7a7bbe;fill-rule:nonzero;"/><path d="M568.671,1697.88c38.55,-2.67 79.275,2.546 113.296,21.913c16.946,9.65 32.708,21.117 50.288,29.679l2.529,1.213c-33.621,48.179 -57.254,74.383 -68.746,134.629c-25.254,-29.55 -49.796,-54.134 -83.188,-74.638c-49.645,-29.112 -86.975,-32.175 -142.958,-28.958l0.675,-1.967c2.346,-6.729 5.283,-16.075 11.108,-20.696c25.938,-20.575 104.292,-4.7 120.342,-15.354c3.954,-2.621 4.371,-4.596 5.579,-8.837c-1.016,-2.554 -1.116,-3.813 -3.346,-5.6c-15.8,-12.679 -74.462,-5.196 -93.937,-2.092c27.525,-16.987 56.333,-25.542 88.358,-29.292Z" style="fill:#f2f2f4;fill-rule:nonzero;"/><path d="M1045.38,1517.72c0.934,0.308 1.409,1.367 2.067,2.088c-6.383,13.762 -35.375,46.508 -45.883,60.708c-26.509,35.821 -49.446,72.067 -69.563,111.871c-4.958,9.812 -21.996,49.779 -27.233,54.412c-1.158,1.025 -2.775,1.371 -4.163,2.054c-1.404,-1.829 -1.208,-1.087 -1.545,-3.112c-3.392,-20.571 -13.613,-40.283 -21.617,-59.479c-3.729,-9.534 -7.171,-19.034 -10.238,-28.8c10.767,-8.75 33.188,-4.096 51.4,-22.221c8.1,-8.058 12.2,-17.721 12.175,-29.167c-0.062,-32.021 -29.025,-63.929 -50.012,-85.175c40.639,0.97 81.274,0.86 121.904,-0.329c14.367,-0.454 28.254,-2.996 42.708,-2.85Z" style="fill:#fff;fill-rule:nonzero;"/><path d="M1067.87,1756.57c13.325,0.267 26.5,1.267 39.579,3.958c51.142,10.525 91.446,39.863 119.813,83.213c-15.363,12.125 -32.696,17.108 -51.238,22.358c-13.745,-32.741 -32.495,-60.337 -63.329,-79.091c-11.775,-7.163 -26.671,-15.08 -40.741,-11.671c-2.98,2.829 -2.88,2.666 -3.196,6.771c1.833,4.541 5.008,6.504 8.787,9.312c31.409,20.092 59.104,38.754 72.867,74.967c-35.538,-5.704 -78.121,-35.925 -113.388,-50.313c-24.933,-10.171 -51.425,-16.071 -75.941,-27.312c35.425,-16.463 67.258,-29.871 106.787,-32.192Z" style="fill:#f2f2f4;fill-rule:nonzero;"/><path d="M638.917,1482.22c1.983,1.092 2.192,1.092 4.121,2.758c12.879,11.117 49.287,171.725 52.354,198.93c-12.087,-3.596 -24.108,-7.446 -36.154,-11.184c-16.138,-4.004 -32.542,-6.787 -48.454,-11.683c-8.05,-15.408 -14.575,-32.833 -17.254,-50.063c-1.75,-11.266 -1.788,-22.741 0.866,-33.883c3.963,-16.654 35.359,-82.333 44.521,-94.875Z" style="fill:#7a7bbe;fill-rule:nonzero;"/><path d="M690.18,1494.99c14.695,-0.459 38.591,7.716 53.933,10.441c14.042,2.492 29.05,3.417 42.829,6.863c3.546,0.887 6.492,2.812 9.383,4.966c-22.25,19.53 -52.845,45.921 -60.275,75.75c-6.112,24.546 10.217,39.892 30.98,48.825c2.137,0.921 9.504,3.088 10.879,4.55c1.375,1.459 2.025,3.459 3.037,5.188c-9.541,20.692 -12.579,44.542 -21.596,65.654c-4.658,-1.929 -9.483,-3.887 -13.754,-6.596c-4.871,-3.096 -7.012,-6.483 -8.325,-12.025c-10.2,-43.071 -17.425,-86.708 -27.762,-129.8c-5.554,-23.154 -17.559,-50.787 -19.329,-73.816Z" style="fill:#fff;fill-rule:nonzero;"/><path d="M771.771,1760.69c7.454,4.725 15.25,6.562 21.917,12.692c1.383,5.395 -1.879,9.554 -4.792,14.1c-31.121,48.579 -54.396,83.854 -65.729,142.354c-9.408,-4.079 -16.4,-12.667 -23.408,-19.929c0.829,-47.975 37.887,-116.213 72.012,-149.217Z" style="fill:#7a7bbe;fill-rule:nonzero;"/><path d="M821.771,1649.69c17.35,17.287 38.825,82.837 39.534,106.558c-3.03,-6.842 -4.625,-17.792 -9.863,-22.988c-2.333,-2.308 -5.183,-1.37 -8.275,-1.4c-2.633,3 -6.508,9.225 -10.125,10.267c-5.537,1.592 -8.867,0.788 -13.758,-1.779c-6.913,-3.625 -14.138,-6.354 -21.392,-9.213c7.092,-28.529 11.813,-54.287 23.879,-81.445Z" style="fill:#7a7bbe;fill-rule:nonzero;"/><path d="M1154.38,1739.62c19.933,-0.446 79.279,29.9 95.812,41.879c5.779,4.188 13.363,9.929 13.771,17.717c0.383,7.317 -5.029,12.862 -9.225,18.217l-10.075,9.85c-22.962,-39.23 -53.912,-61.771 -90.283,-87.663Z" style="fill:#f2f2f4;fill-rule:nonzero;"/><path d="M850.017,1548.61c10.417,7.887 42.479,46.854 44.246,57.958c-1.971,4.85 -6.146,7.108 -10.25,10.021c-9.308,1.633 -19.029,1.633 -27.921,-2.025c-7.025,-2.896 -12.125,-8.704 -14.637,-15.825c-5.855,-16.6 1.279,-35.179 8.562,-50.129Z" style="fill:#7a7bbe;fill-rule:nonzero;"/><path d="M809.7,1568.44c-0.941,12.6 -5.3,32.637 -14.779,41.404c-4.512,1.846 -7.625,0.65 -12.096,-0.538c-2.329,-2.825 -3.154,-4.454 -3.862,-8.046c3.137,-14.591 19.512,-24.429 30.737,-32.82Z" style="fill:#7a7bbe;fill-rule:nonzero;"/></svg>
