<svg xmlns="http://www.w3.org/2000/svg" width="971" height="932" viewBox="0 0 971 932"><g fill="none" transform="translate(.226 .19)"><path fill="#313945" d="M117.115318,417.031921 C112.147318,405.379921 107.654318,393.535921 102.853318,381.814921 C91.8773178,355.469588 81.0980845,329.044255 70.5156178,302.538921 L33.8094178,213.874921 C25.3979178,193.399921 16.7076178,173.052921 8.58551781,152.461921 C6.07161781,146.087921 2.09281781,139.620921 0.59431781,132.951921 C-0.94508219,126.100921 0.93221781,114.903921 1.45081781,107.686921 C2.71948448,90.3255881 4.12471781,72.9755881 5.66651781,55.6369215 C6.90491781,41.1875215 7.59001781,26.4930215 9.37631781,12.1162215 C9.63701781,10.0181215 10.0483178,7.82142148 10.8490178,5.86052148 C11.8639178,3.37492148 14.0207178,1.58202148 16.5074178,0.655921482 C18.7563178,-0.181478518 21.4337178,-0.315178518 23.6038178,0.834821482 C30.0902178,4.27222148 50.6780178,32.2640215 56.5262178,39.9217215 L92.3623178,86.0499215 C97.1603178,92.2209215 103.438318,98.5309215 107.126318,105.362921 C110.637318,111.865921 112.028318,120.234921 113.864318,127.381921 C116.714318,138.474921 119.434318,149.617921 122.458318,160.663921 C136.193651,211.244588 149.536318,261.928588 162.486318,312.715921 L177.300318,369.428921 C179.520318,377.948921 181.162318,386.824921 183.798318,395.199921 L183.987318,395.787921 C192.450318,392.486921 209.317318,386.029921 218.044318,388.682921 C223.100318,390.219921 227.229318,394.053921 229.617318,398.710921 C233.074318,405.455921 234.083318,415.350921 231.632318,422.545921 C229.299318,429.398921 224.594318,432.242921 218.404318,435.131921 C224.458318,438.836921 229.033318,443.338921 232.607318,449.506921 C234.064318,452.022921 235.323318,454.771921 237.054318,457.100921 C237.314318,457.025921 237.573318,456.946921 237.834318,456.873921 C249.573318,453.619921 263.068318,456.956921 273.285318,462.933921 C283.106318,462.079921 292.852318,460.518921 302.628318,459.282921 C311.334318,458.181921 320.203318,457.432921 328.820318,455.781921 C323.482318,453.253921 318.423318,449.549921 313.541318,446.230921 C288.316318,429.078921 269.769318,406.650921 258.776318,378.099921 C251.820318,378.858921 237.652318,383.970921 231.634318,381.328921 C230.455318,380.811921 229.353318,379.945921 228.983318,378.662921 C228.518318,377.053921 229.008318,375.384921 229.875318,374.006921 C234.078318,367.328921 247.687318,365.996921 254.913318,364.395921 C252.295318,353.796921 251.055318,341.871921 250.705318,330.962921 C243.604318,330.169921 215.558318,327.209921 211.293318,323.417921 C210.013318,322.279921 209.153318,320.732921 209.275318,318.967921 C209.286651,318.803921 209.306651,318.640588 209.335318,318.477921 C209.363318,318.315921 209.399984,318.155588 209.445318,317.996921 C209.489984,317.838255 209.542651,317.682588 209.603318,317.529921 C209.663984,317.376588 209.732318,317.226921 209.808318,317.080921 C209.884318,316.934921 209.967651,316.792921 210.058318,316.654921 C210.148984,316.517588 210.246318,316.385255 210.350318,316.257921 C210.454984,316.129921 210.565651,316.007921 210.682318,315.891921 C210.798984,315.775921 210.921318,315.665921 211.049318,315.561921 C212.602318,314.290921 214.790318,313.790921 216.748318,313.658921 C224.598318,313.130921 242.077318,316.499921 250.763318,317.668921 C251.087318,298.994921 254.517318,280.117921 258.159318,261.851921 C249.033318,257.263921 240.537318,252.038921 232.469318,245.764921 C231.644651,245.116921 230.827984,244.458588 230.019318,243.789921 C229.209984,243.121921 228.409318,242.444255 227.617318,241.756921 C226.825318,241.068921 226.041651,240.371588 225.266318,239.664921 C224.490984,238.958255 223.724318,238.242255 222.966318,237.516921 C222.208984,236.791588 221.460318,236.056921 220.720318,235.312921 C219.980318,234.568921 219.249651,233.816255 218.528318,233.054921 C217.806984,232.293588 217.094984,231.523255 216.392318,230.743921 C215.688984,229.965255 214.995651,229.177921 214.312318,228.381921 C213.628984,227.586588 212.955318,226.782588 212.291318,225.969921 C211.627318,225.157921 210.973318,224.337921 210.329318,223.509921 C209.685984,222.681255 209.052318,221.845255 208.428318,221.001921 C207.804984,220.157921 207.191984,219.306588 206.589318,218.447921 C205.986651,217.589921 205.394318,216.724255 204.812318,215.850921 C204.230984,214.977588 203.660318,214.097588 203.100318,213.210921 C202.539651,212.323588 201.990318,211.429921 201.452318,210.529921 C200.913651,209.629255 200.386318,208.722588 199.870318,207.809921 C199.354318,206.896588 198.849318,205.976921 198.355318,205.050921 C197.861318,204.125588 197.378651,203.194255 196.907318,202.256921 C196.436651,201.319588 195.977318,200.376588 195.529318,199.427921 C195.080651,198.479255 194.643984,197.525588 194.219318,196.566921 C193.794651,195.607588 193.381651,194.643255 192.980318,193.673921 C192.578984,192.704588 192.189318,191.730588 191.811318,190.751921 C191.433984,189.773255 191.068651,188.789921 190.715318,187.801921 C190.361318,186.814588 190.019651,185.822921 189.690318,184.826921 C189.360984,183.830921 189.043651,182.830921 188.738318,181.826921 C188.433651,180.823588 188.140984,179.816588 187.860318,178.805921 C187.579651,177.794588 187.311651,176.780255 187.056318,175.762921 C186.800318,174.745588 186.556984,173.725255 186.326318,172.701921 C186.095651,171.678588 185.877318,170.652588 185.671318,169.623921 C185.465318,168.595255 185.271984,167.564255 185.091318,166.530921 C184.910651,165.497588 184.742651,164.462255 184.587318,163.424921 C184.431984,162.386921 184.289318,161.347588 184.159318,160.306921 C179.370318,121.002921 186.188318,77.6369215 211.145318,45.8896215 C211.561984,45.3574881 211.984984,44.8305548 212.414318,44.3088215 C212.844318,43.7870881 213.280318,43.2707215 213.722318,42.7597215 C214.164318,42.2487215 214.612651,41.7432548 215.067318,41.2433215 C215.522651,40.7433215 215.983651,40.2490215 216.450318,39.7604215 C216.916984,39.2718215 217.389651,38.7890215 217.868318,38.3120215 C218.347651,37.8350881 218.832318,37.3640881 219.322318,36.8990215 C219.812984,36.4340215 220.308984,35.9750881 220.810318,35.5222215 C221.312318,35.0694215 221.819651,34.6228548 222.332318,34.1825215 C222.844984,33.7421881 223.362984,33.3082215 223.886318,32.8806215 C224.409651,32.4530215 224.937984,32.0319548 225.471318,31.6174215 C226.005318,31.2028215 226.543984,30.7948881 227.087318,30.3936215 C227.631318,29.9922881 228.179984,29.5977215 228.733318,29.2099215 C229.287318,28.8221215 229.845651,28.4411881 230.408318,28.0671215 C230.970984,27.6930548 231.538318,27.3259881 232.110318,26.9659215 C232.682318,26.6058548 233.258651,26.2528548 233.839318,25.9069215 C234.419984,25.5610548 235.004651,25.2223548 235.593318,24.8908215 C236.181984,24.5593548 236.774984,24.2351548 237.372318,23.9182215 C237.968984,23.6013548 238.569651,23.2918548 239.174318,22.9897215 C239.778984,22.6875881 240.386984,22.3929548 240.998318,22.1058215 C241.610318,21.8186881 242.225651,21.5391215 242.844318,21.2671215 C243.462984,20.9951215 244.084984,20.7307881 244.710318,20.4741215 C245.335651,20.2174548 245.963651,19.9685215 246.594318,19.7273215 C247.225651,19.4861215 247.859984,19.2527215 248.497318,19.0271215 C249.134651,18.8015215 249.774318,18.5837881 250.416318,18.3739215 C251.058984,18.1640548 251.703984,17.9621548 252.351318,17.7682215 C252.998651,17.5742215 253.648318,17.3882548 254.300318,17.2103215 C254.952318,17.0323215 255.606318,16.8623881 256.262318,16.7005215 C256.918318,16.5386548 257.576318,16.3848881 258.236318,16.2392215 C258.896318,16.0935548 259.557984,15.9560215 260.221318,15.8266215 C260.884651,15.6972881 261.549318,15.5761215 262.215318,15.4631215 C262.881984,15.3500548 263.549651,15.2452548 264.218318,15.1487215 C264.886984,15.0521215 265.556984,14.9637881 266.228318,14.8837215 C287.419318,12.3769215 308.373318,20.7970215 324.765318,33.8570215 C345.841318,50.6491215 359.710318,73.8629215 367.425318,99.4989215 C369.030318,104.830921 370.757318,110.505921 371.393318,116.038921 C375.201318,114.418921 378.977318,113.214921 382.957318,112.072921 C381.645318,110.059921 380.310318,108.128921 380.204318,105.650921 C380.121318,103.686921 380.838318,101.916921 382.266318,100.568921 C388.483318,94.6999215 409.145318,96.8709215 417.464318,97.2309215 C416.148318,95.7569215 415.016318,94.3639215 414.391318,92.4589215 C413.343318,89.2649215 413.322318,85.9819215 415.039318,83.0039215 C416.223318,80.9479215 418.189318,79.6529215 420.466318,79.0829215 C429.639318,76.7849215 458.157318,86.8499215 467.973318,90.5619215 C475.305318,93.3349215 482.564318,96.8339215 490.022318,99.2109215 C497.978318,101.747921 506.627318,102.919921 514.773318,104.793921 C530.759318,108.472921 549.829318,114.755921 563.964318,123.041921 C566.482318,118.269921 568.194318,112.880921 570.467318,107.951921 C573.079984,102.235255 575.940984,96.6459215 579.050318,91.1839215 C582.159651,85.7219215 585.504984,80.4085881 589.086318,75.2439215 C608.426318,47.6935215 635.768318,24.4300215 669.854318,18.6191215 C692.364318,14.7815215 717.054318,21.0598215 735.540318,34.2873215 C761.818318,53.0896215 776.476318,84.1259215 781.441318,115.427921 C787.236318,151.956921 778.735318,191.372921 756.797318,221.334921 C731.513318,255.865921 700.625318,269.312921 659.289318,275.555921 C663.517318,295.464921 664.797318,315.470921 664.645318,335.782921 C671.284318,336.045921 687.812318,336.747921 692.721318,341.006921 C694.013318,342.128921 694.771318,343.560921 694.826318,345.283921 C694.878318,346.904921 694.270318,348.208921 693.054318,349.289921 C688.719318,353.141921 669.028318,349.434921 663.217318,348.777921 C657.871318,370.180921 650.455318,385.890921 638.485318,404.205921 C644.816318,400.609921 650.376318,395.842921 656.349318,391.703921 C658.070651,390.501921 659.817651,389.338921 661.590318,388.214921 C663.362984,387.090921 665.159651,386.006588 666.980318,384.961921 C668.800984,383.917255 670.643984,382.913588 672.509318,381.950921 C674.374651,380.987588 676.260651,380.066255 678.167318,379.186921 C680.073318,378.308255 681.997984,377.471921 683.941318,376.677921 C685.884651,375.883921 687.844318,375.133255 689.820318,374.425921 C691.796984,373.719255 693.788318,373.056588 695.794318,372.437921 C697.800318,371.819255 699.818984,371.245255 701.850318,370.715921 C738.305318,361.420921 776.695318,365.951921 809.146318,385.347921 C848.457318,408.842921 874.188318,449.361921 885.144318,493.195921 C897.801318,543.835921 888.230318,596.962921 861.591318,641.378921 C838.438318,676.155921 808.665318,701.154921 766.627318,709.463921 C765.472651,709.693255 764.315651,709.908255 763.156318,710.108921 C761.996318,710.309588 760.834318,710.496255 759.670318,710.668921 C758.505651,710.840921 757.339318,710.998588 756.171318,711.141921 C755.003318,711.285255 753.833651,711.414255 752.662318,711.528921 C751.490318,711.643588 750.317651,711.743921 749.144318,711.829921 C747.970318,711.915921 746.795318,711.987255 745.619318,712.043921 C744.443984,712.100588 743.267984,712.142921 742.091318,712.170921 C740.914651,712.198921 739.737984,712.212255 738.561318,712.210921 C737.383984,712.210255 736.206984,712.194921 735.030318,712.164921 C733.853651,712.134255 732.677651,712.089588 731.502318,712.030921 C730.326984,711.971588 729.152318,711.897921 727.978318,711.809921 C726.804984,711.721921 725.632651,711.619588 724.461318,711.502921 C723.289984,711.386255 722.120318,711.254921 720.952318,711.108921 C719.784318,710.963588 718.618318,710.803588 717.454318,710.628921 C716.290984,710.454921 715.129318,710.266255 713.969318,710.062921 C712.809984,709.860255 711.653318,709.643255 710.499318,709.411921 C709.345984,709.179921 708.195318,708.934255 707.047318,708.674921 C705.899318,708.414921 704.754651,708.140921 703.613318,707.852921 C702.471984,707.564921 701.334318,707.262921 700.200318,706.946921 C699.066984,706.630921 697.937318,706.300921 696.811318,705.956921 C695.685984,705.612921 694.564651,705.255255 693.447318,704.883921 C692.330651,704.512588 691.218651,704.127588 690.111318,703.728921 C689.003984,703.330255 687.901651,702.917921 686.804318,702.491921 C685.707651,702.065921 684.615984,701.626255 683.529318,701.172921 C682.442651,700.720255 681.361984,700.254255 680.287318,699.774921 C679.212651,699.295588 678.143984,698.802921 677.081318,698.296921 C676.018651,697.790921 674.962318,697.271921 673.912318,696.739921 C672.862318,696.208588 671.818984,695.663921 670.782318,695.105921 C669.745651,694.548588 668.715984,693.978588 667.693318,693.395921 C666.670651,692.812588 665.655651,692.217255 664.648318,691.609921 C663.640318,691.001921 662.639984,690.381588 661.647318,689.748921 C660.654651,689.116255 659.669984,688.471588 658.693318,687.814921 C628.262318,667.212921 606.551318,635.495921 594.606318,601.082921 C592.894318,596.255588 591.420651,591.356255 590.185318,586.384921 C589.042318,581.757921 588.276318,576.823921 586.388318,572.436921 C587.271318,583.099921 590.447318,593.385921 593.251318,603.669921 C595.022318,610.167921 597.135318,616.976921 597.134318,623.770921 C597.134318,628.011921 596.183318,631.947921 594.675318,635.879921 C600.994318,648.691921 604.509318,662.811921 610.740318,675.580921 C632.947318,687.466921 648.071318,695.153921 667.217318,712.196921 C684.895318,727.933921 698.710318,747.160921 715.939318,763.184921 C737.508318,783.244921 764.333318,795.348921 793.754318,786.595921 C809.448318,781.927921 822.121318,770.696921 829.791318,756.355921 C842.529318,732.537921 839.648318,704.647921 846.321318,679.222921 C848.553318,670.717921 852.125318,662.333921 856.341318,654.630921 C858.048318,651.513921 860.781318,647.997921 862.025318,644.734921 C872.912318,629.780921 886.600318,617.474921 905.508318,614.312921 C919.796318,611.923921 935.253318,615.834921 946.913318,624.366921 C959.046318,633.245921 967.519318,647.548921 969.816318,662.364921 C971.244318,671.568921 971.614318,687.345921 965.676318,695.104921 C964.345318,696.842921 962.000318,699.532921 959.574318,699.509921 C952.874318,699.448921 949.995318,681.167921 948.006318,676.144921 C946.105318,671.343921 943.556318,666.592921 940.134318,662.694921 C935.591318,657.521921 929.615318,654.474921 922.705318,654.104921 C915.154318,653.699921 907.628318,656.889921 902.254318,662.104921 C884.326318,679.503921 885.576318,706.618921 883.128318,729.529921 C882.243651,738.300588 880.705651,746.955255 878.514318,755.493921 C872.975318,776.432921 862.962318,794.659921 846.933318,809.405921 C826.054318,828.613921 796.521318,838.893921 768.257318,837.636921 C717.425318,835.376921 680.121318,799.979921 647.841318,764.516921 C652.394318,772.255921 658.853318,784.837921 659.653318,793.813921 C659.887318,796.443921 659.493318,798.951921 659.073318,801.536921 C664.092318,807.849921 668.160318,815.230921 672.412318,822.089921 C680.317318,834.839921 688.894318,847.830921 694.841318,861.627921 C700.487318,874.726921 704.014318,888.676921 698.394318,902.405921 C693.661318,913.969921 683.778318,921.628921 672.462318,926.271921 C653.196318,934.175921 628.889318,933.353921 609.844318,925.133921 C588.299318,915.834921 580.315318,897.698921 581.805318,875.198921 C582.265318,868.258921 584.171318,861.237921 583.592318,854.271921 C583.028318,847.487921 580.051318,841.006921 577.552318,834.755921 C573.383318,832.613921 568.839318,830.584921 565.280318,827.497921 C557.547318,820.789921 551.292318,811.424921 544.943318,803.382921 C532.239318,787.344255 519.816984,771.090255 507.676318,754.620921 C499.929318,743.908921 492.759318,732.289921 484.300318,722.164921 C475.944318,720.824921 459.892318,717.193921 452.208318,717.708921 C445.814318,718.137921 398.474318,741.332921 387.779318,745.767921 C389.048318,750.320921 389.399318,755.489921 390.118318,760.171921 C391.905318,771.796921 394.986318,784.918921 394.161318,796.702921 C393.859318,801.003921 392.811318,804.576921 390.959318,808.449921 C393.547318,814.314921 395.372318,820.191921 396.205318,826.566921 C397.704318,838.037921 395.835318,848.670921 388.605318,857.908921 C370.204318,881.420921 324.958318,892.907921 296.269318,896.268921 C274.257318,898.847921 241.440318,898.788921 223.391318,884.326921 C216.454318,878.768921 212.481318,870.840921 211.521318,862.065921 C210.224318,850.202921 213.242318,839.779921 220.743318,830.519921 C235.443318,812.371921 259.007318,808.898921 280.824318,806.615921 C270.536318,780.508921 259.383318,742.034921 265.831318,714.379921 C273.750318,680.420921 312.025318,648.126921 340.701318,630.141921 C335.377318,617.480921 342.655318,605.441921 344.122318,592.922921 C345.105318,584.537921 344.303318,574.966921 343.145318,566.596921 C318.152318,570.040921 292.794318,570.831921 268.146318,564.809921 C266.491318,565.533921 264.855318,566.341921 263.185318,567.022921 C253.384318,571.022921 242.113318,568.903921 232.755318,565.018921 C234.838318,570.457921 236.263318,575.351921 235.138318,581.270921 C233.609318,589.316921 228.555318,596.022921 221.897318,600.609921 C221.418651,600.941255 220.931651,601.260588 220.436318,601.567921 C219.941651,601.874588 219.439651,602.169255 218.930318,602.451921 C218.420984,602.733921 217.904984,603.003588 217.382318,603.260921 C216.859651,603.517588 216.330984,603.761255 215.796318,603.991921 C215.261651,604.221921 214.721651,604.438921 214.176318,604.642921 C213.630984,604.846921 213.080651,605.037255 212.525318,605.213921 C211.970651,605.390588 211.411651,605.553255 210.848318,605.701921 C210.285651,605.851255 209.719318,605.986255 209.149318,606.106921 C208.579984,606.227588 208.007984,606.334255 207.433318,606.426921 C206.857984,606.519588 206.280984,606.597921 205.702318,606.661921 C205.123651,606.725921 204.543651,606.775588 203.962318,606.810921 C203.380984,606.846255 202.798984,606.866921 202.216318,606.872921 C201.634318,606.879588 201.052318,606.871921 200.470318,606.849921 C199.888318,606.827255 199.307318,606.790255 198.727318,606.738921 C198.147318,606.688255 197.568984,606.622921 196.992318,606.542921 C196.414984,606.462921 195.840318,606.368921 195.268318,606.260921 C187.869318,604.854921 181.181318,600.941921 177.031318,594.534921 C171.511318,586.009921 172.035318,576.741921 173.986318,567.209921 C169.499318,560.564921 165.150318,561.502921 158.073318,559.634921 C150.590318,557.660921 143.858318,553.056921 140.218318,546.079921 C138.466318,542.722921 137.139318,539.048921 134.922318,535.959921 C131.949318,531.818921 127.965318,528.470921 125.434318,524.011921 C121.109318,516.389921 121.075318,507.649921 123.283318,499.379921 C117.950318,490.211921 115.688318,482.110921 118.156318,471.603921 C114.948318,473.290921 111.450318,474.804921 108.088318,476.164921 C102.036318,478.613921 96.2143178,479.836921 89.9743178,477.071921 C82.9073178,473.939921 77.6713178,467.206921 75.0223178,460.081921 C72.4577178,453.181921 71.6049178,443.993921 74.9263178,437.249921 C80.4703178,425.992921 105.642318,420.658921 117.115318,417.031921 Z"/><path fill="#F2F2F4" d="M679.127318,32.0219215 C697.100318,30.9569215 716.035318,37.1100215 730.154318,48.2350215 C743.781318,58.9729215 762.076318,83.5349215 764.104318,101.107921 C762.474318,97.9189215 760.856318,94.7029215 759.052318,91.6079215 C748.534318,73.5609215 732.720318,57.3659215 711.946318,51.9813215 C696.573318,47.9969215 680.520318,50.7761215 666.996318,58.9349215 C633.922318,78.8869215 615.479318,124.567921 606.676318,160.586921 C605.006318,167.422921 599.122318,185.712921 602.962318,191.430921 C603.754318,192.610921 605.250318,193.733921 606.714318,193.818921 C612.413318,194.147921 628.312318,176.778921 632.456318,172.567921 C631.213318,179.513921 629.440318,186.614921 627.137318,193.284921 C625.511318,197.993921 623.457318,202.646921 622.185318,207.462921 C622.116318,207.723921 622.056318,207.986921 621.989318,208.246921 C621.577318,209.828921 621.935318,210.965921 622.474318,212.479921 C624.489318,218.134921 627.392318,223.565921 629.711318,229.112921 C633.086318,237.183921 635.834318,245.475921 638.427318,253.825921 C646.796318,280.769921 649.731318,308.104921 649.735318,336.217921 C631.095318,336.274921 611.919318,337.642921 593.613318,341.283921 C586.546318,342.689921 561.768318,348.443921 558.903318,354.452921 C558.257318,355.806921 558.581318,356.486921 558.992318,357.806921 C561.952318,359.590921 571.758318,356.759921 575.262318,356.077921 C598.926318,351.469921 623.681318,348.152921 647.826318,349.480921 C643.490318,365.294921 637.575318,380.149921 627.232318,393.048921 C611.966318,387.777921 572.171318,375.669921 557.312318,382.606921 C556.051318,383.195921 555.547318,383.585921 555.030318,384.864921 C555.906318,386.701921 557.549318,387.506921 559.426318,388.158921 C564.076318,389.772921 569.446318,390.069921 574.290318,391.189921 C588.914318,394.569921 602.913318,398.197921 616.670318,404.343921 C592.877318,433.734921 530.529318,458.776921 494.488318,466.795921 C487.293651,468.387921 480.047984,469.697588 472.751318,470.724921 C466.834318,471.533921 460.093318,471.447921 454.470318,473.523921 C452.755318,474.156921 451.388318,474.789921 450.610318,476.488921 C450.693318,476.657921 450.757318,476.836921 450.859318,476.995921 C452.213318,479.116921 457.298318,479.741921 459.695318,480.437921 C456.419318,483.201921 452.577318,485.499921 449.029318,487.912921 C441.526318,492.851921 434.045318,498.049921 425.985318,502.050921 C417.525318,495.304921 409.667318,486.093921 403.452318,477.337921 C405.300318,476.866921 408.034318,476.451921 409.456318,475.116921 C410.321318,474.305921 410.161318,473.820921 410.030318,472.782921 C408.375318,470.486921 402.080318,469.716921 399.217318,469.008921 C385.817318,465.694921 372.221318,461.406921 359.752318,455.461921 C323.515318,438.186921 287.911318,415.506921 273.825318,375.682921 C281.359318,374.257921 291.062318,374.852921 297.981318,371.619921 C299.310318,370.998921 299.476318,370.555921 299.899318,369.197921 C299.776318,368.339921 299.673318,367.735921 299.082318,367.047921 C295.001318,362.291921 276.580318,362.753921 270.194318,362.698921 C268.037318,353.346921 266.716318,343.984921 265.713318,334.449921 C270.717318,335.333921 295.243318,342.101921 298.168318,341.099921 C298.789318,340.886921 298.890318,340.244921 299.158318,339.698921 C299.127318,338.712921 299.058318,338.052921 298.625318,337.141921 C295.259318,330.061921 273.238318,324.240921 265.561318,321.578921 C266.699318,284.980921 274.209318,249.505921 289.903318,216.297921 C306.097318,182.031921 332.517318,152.311921 366.277318,134.514921 C375.253318,129.782921 384.465318,126.254921 394.003318,122.837921 C399.018318,125.038921 405.096318,130.027921 410.421318,130.733921 C412.008318,130.943921 412.772318,130.449921 413.942318,129.457921 C414.565318,128.001921 414.794318,126.954921 414.480318,125.373921 C413.223318,119.037921 402.115318,113.779921 396.974318,110.167921 C408.200318,109.364921 425.134318,111.498921 434.724318,117.579921 C436.463318,118.682921 438.414318,120.105921 440.391318,120.691921 C441.969318,121.159921 444.063318,121.145921 445.454318,120.178921 C446.510318,119.444921 447.069318,118.258921 447.212318,117.008921 C448.112318,109.184921 434.410318,100.940921 429.007318,94.3799215 C442.959318,96.4369215 456.804318,101.157921 469.766318,106.655921 C474.669318,108.735921 479.431318,111.785921 484.546318,113.268921 C490.449318,114.979921 496.884318,115.116921 502.920318,116.434921 C521.828318,120.563921 543.396318,127.185921 560.426318,136.400921 C559.818318,143.297921 558.014318,150.315921 558.381318,157.259921 C558.509318,159.687921 558.939318,161.528921 560.738318,163.214921 C561.704318,163.603921 562.330318,163.851921 563.403318,163.719921 C566.536318,163.331921 567.868318,158.398921 568.636318,155.767921 C577.877318,124.108921 589.304318,96.4589215 610.953318,71.0229215 C628.524318,50.3780215 651.471318,34.2542215 679.127318,32.0219215 Z"/><path fill="#313945" d="M389.599318,341.972921 C398.654318,340.653921 411.775318,341.375921 419.961318,345.793921 C423.342318,347.618921 425.942318,350.434921 426.950318,354.197921 C428.476318,359.890921 426.492318,366.400921 423.455318,371.271921 C418.832318,378.688921 411.941318,383.347921 403.476318,385.303921 C405.937318,392.746921 409.063318,399.647921 413.299318,406.249921 C431.019318,398.177921 446.538318,382.370921 467.184318,382.491921 C467.884318,382.498588 468.583984,382.522921 469.283318,382.564921 C469.981984,382.607588 470.679318,382.667255 471.375318,382.743921 C472.071318,382.821255 472.764984,382.915921 473.456318,383.027921 C474.147651,383.139921 474.835651,383.268921 475.520318,383.414921 C476.204984,383.561588 476.885651,383.725255 477.562318,383.905921 C478.238318,384.086588 478.909651,384.284255 479.576318,384.498921 C480.242984,384.712921 480.903984,384.943588 481.559318,385.190921 C482.213984,385.438921 482.862318,385.702921 483.504318,385.982921 C484.145651,386.262921 484.779984,386.558921 485.407318,386.870921 C486.033984,387.182921 486.652651,387.510588 487.263318,387.853921 C487.873318,388.197255 488.474651,388.555588 489.067318,388.928921 C489.659318,389.302255 490.241984,389.690255 490.815318,390.092921 C491.387984,390.494921 491.950318,390.911588 492.502318,391.342921 C493.054318,391.773588 493.595318,392.217921 494.125318,392.675921 C494.654651,393.133921 495.172318,393.604921 495.678318,394.088921 C496.184318,394.572921 496.677984,395.069255 497.159318,395.577921 C505.331318,404.081921 510.380318,416.320921 510.005318,428.151921 C509.744318,436.367921 506.502318,442.186921 500.631318,447.693921 C498.307318,449.438921 495.840318,450.912921 493.136318,451.985921 C488.447318,453.847921 483.084318,454.806921 478.045318,454.859921 C461.110318,455.039921 444.286318,451.424921 427.504318,449.614921 C416.687318,448.448921 405.578318,448.650921 394.848318,446.962921 C390.980318,446.354921 386.668318,445.368921 383.124318,443.663921 C379.737318,442.034921 377.351318,438.522921 376.321318,434.995921 C375.130318,430.914921 375.409318,425.993921 377.573318,422.275921 C382.478318,413.852921 395.448318,411.454921 404.209318,409.386921 C398.756318,402.124921 395.729318,393.781921 392.869318,385.258921 C387.526318,384.240921 382.540318,382.474921 378.109318,379.261921 C372.314318,375.059921 368.321318,368.823921 367.365318,361.686921 C366.810318,357.545921 367.515318,353.333921 370.169318,350.009921 C374.696318,344.341921 382.821318,342.911921 389.599318,341.972921 Z"/><path fill="#E1A39E" d="M461.637318,395.942921 C470.138318,395.310921 478.321318,396.244921 485.314318,401.534921 C489.862318,404.974921 495.802318,412.387921 496.602318,418.136921 C495.654318,418.077921 495.927318,418.200921 495.258318,417.872921 C491.588318,416.076921 486.654318,415.657921 482.629318,415.096921 C460.113318,411.960921 440.421318,420.395921 422.777318,433.792921 L417.473318,437.528921 C408.805318,437.325921 396.486318,438.336921 388.616318,434.599921 C387.115318,433.887921 386.472318,433.223921 385.950318,431.666921 C386.110318,430.663921 386.316318,429.896921 386.900318,429.063921 C388.632318,426.594921 391.609318,424.996921 394.276318,423.730921 C403.448318,419.375921 414.179318,418.056921 423.540318,413.845921 C435.397318,408.510921 449.097318,398.002921 461.637318,395.942921 Z"/><path fill="#FAC3B7" d="M468.773318,424.515921 C475.845318,423.449921 489.084318,424.196921 495.163318,428.226921 C496.628318,429.197921 497.956318,430.632921 498.070318,432.479921 C498.184318,434.342921 497.017318,435.986921 495.678318,437.151921 C487.595318,444.189921 471.022318,441.927921 461.152318,441.140921 C450.247318,440.130921 439.331318,439.309921 428.435318,438.189921 C441.689318,431.048921 453.559318,425.923921 468.773318,424.515921 Z"/><path fill="#FCC6AC" d="M393.573318,352.001921 C398.716318,351.400921 405.389318,351.645921 410.285318,353.485921 C412.624318,354.365921 415.020318,355.840921 415.948318,358.287921 C416.766318,360.446921 416.250318,362.816921 415.216318,364.805921 C412.361318,370.293921 406.287318,373.866921 400.586318,375.663921 C395.531318,375.959921 391.243318,375.703921 386.674318,373.174921 C382.863318,371.064921 378.370318,367.087921 377.326318,362.662921 C376.888318,360.807921 377.116318,358.876921 378.260318,357.314921 C381.401318,353.022921 388.720318,352.578921 393.573318,352.001921 Z"/><path fill="#313945" d="M545.140318,231.445921 C549.142318,231.146921 554.364318,231.378921 557.544318,234.187921 C558.591318,235.111921 559.135318,236.180921 559.123512,237.597921 C559.114318,238.615921 558.606318,239.711921 558.040318,240.522921 C555.451318,244.232921 547.382318,244.266921 543.346318,245.224921 C541.034318,245.774921 538.784318,246.665921 536.615318,247.628921 C524.076318,253.193921 513.051318,261.607921 502.491318,270.230921 C504.238318,269.596921 506.027318,268.908921 507.871318,268.630921 C515.531318,267.475921 524.104318,270.240921 530.089318,275.015921 C538.030318,281.351921 542.480318,291.757921 543.607318,301.668921 C545.003318,313.944921 542.232318,327.824921 534.350318,337.598921 C529.393318,343.745921 522.433318,347.778921 514.525318,348.570921 C505.369318,349.488921 498.044318,346.557921 491.007318,340.757921 C487.175318,336.944921 484.233318,332.867921 482.149318,327.850921 C475.695318,312.311921 478.649318,297.468921 484.911318,282.528921 C481.096318,284.361921 477.438318,286.549921 473.498318,288.119921 C468.580318,290.078921 462.168318,290.722921 457.241318,288.425921 C453.339318,286.606921 449.788318,282.977921 448.328318,278.899921 C447.464318,276.485921 447.378318,273.914921 448.641318,271.623921 C449.630318,269.831921 450.889318,268.797921 452.813318,268.177921 C457.235318,268.597921 458.237318,273.674921 461.369318,276.066921 C463.497318,277.691921 467.434318,275.781921 469.482318,274.757921 C475.566318,271.715921 481.148318,267.116921 486.658318,263.147921 C498.811318,254.394921 510.941318,245.191921 524.287318,238.308921 C530.975318,234.858921 537.688318,232.511921 545.140318,231.445921 Z"/><path fill="#FFF" d="M523.357318,286.792921 C524.437318,286.814921 525.571318,286.814921 526.628318,287.055921 C528.859318,287.564921 530.964318,289.231921 532.160318,291.150921 C533.562318,293.399921 533.863318,296.157921 533.150318,298.692921 C532.216318,302.011921 530.219318,303.629921 527.282318,305.170921 C525.767318,305.261921 524.217318,305.299921 522.733318,304.922921 C520.609318,304.382921 518.722318,302.654921 517.732318,300.734921 C516.505318,298.357921 516.428318,295.588921 517.266318,293.077921 C518.367318,289.782921 520.387318,288.336921 523.357318,286.792921 Z"/><path fill="#313945" d="M309.295318,225.354921 C310.053984,225.310255 310.813318,225.288907 311.573318,225.288907 C330.077318,225.424921 353.081318,255.077921 365.662318,267.360921 C367.621318,269.273921 370.507318,271.825921 373.486318,271.450921 C377.114318,270.992921 378.224318,267.002921 380.587318,264.909921 C381.641318,263.975921 382.005318,264.078921 383.253318,264.293921 C385.289318,265.858921 386.372318,267.715921 386.659318,270.299921 C387.083318,274.115921 385.732318,278.161921 383.239318,281.057921 C380.976318,283.684921 377.127318,285.173921 373.710318,285.352921 C367.657318,285.670921 363.016318,281.791921 358.865318,277.914921 C361.345318,284.549921 363.655318,291.113921 364.539318,298.185921 C366.260318,311.949921 363.289318,324.715921 354.685318,335.647921 C352.272318,338.246921 349.544318,340.517921 346.306318,342.015921 C341.203318,344.376921 334.683318,344.680921 329.432318,342.614921 C322.697318,339.964921 318.248318,334.014921 315.550318,327.522921 C310.279318,314.841921 310.122318,296.884921 315.397318,284.178921 C318.312318,277.156921 323.488318,270.798921 330.739318,268.001921 C337.234318,265.497921 343.035318,266.437921 349.220318,269.111921 C340.739318,259.612921 331.311318,249.115921 320.838318,241.833921 C316.833318,239.049921 308.353318,238.261921 305.853318,235.318921 C304.794318,234.070921 304.215318,232.617921 304.553318,230.970921 C305.100318,228.303921 307.150318,226.752921 309.295318,225.354921 Z"/><path fill="#FFF" d="M346.677318,286.313921 C347.586318,286.249921 348.481318,286.190921 349.393318,286.260921 C351.985318,286.459921 354.154318,287.729921 355.727318,289.796921 C355.901984,290.024921 356.064651,290.261255 356.215318,290.505921 C356.365984,290.751255 356.503984,291.003255 356.629318,291.261921 C356.754651,291.520588 356.866651,291.784921 356.965318,292.054921 C357.063318,292.324921 357.147651,292.599255 357.218318,292.877921 C357.288984,293.156588 357.345318,293.438255 357.387318,293.722921 C357.429318,294.007588 357.456651,294.293255 357.469318,294.579921 C357.481984,294.867255 357.480318,295.154588 357.464318,295.441921 C357.448318,295.728588 357.417651,296.013921 357.372318,296.297921 C356.902318,299.248921 355.347318,300.871921 353.048318,302.607921 C352.096318,302.725921 351.142318,302.857921 350.180318,302.842921 C347.929318,302.806921 346.090318,301.884921 344.611318,300.187921 C343.072318,298.423921 342.411318,296.006921 342.572318,293.694921 C342.815318,290.191921 344.074318,288.514921 346.677318,286.313921 Z"/><path fill="#646562" d="M736.760318,380.526921 C737.181318,380.501921 737.602318,380.482921 738.024318,380.477921 C772.107318,380.079921 802.144318,391.892921 826.770318,415.554921 C858.767318,446.298921 876.090318,491.179921 876.823318,535.201921 C877.570318,580.001921 863.222318,624.917921 831.548318,657.426921 C806.678318,682.952921 775.367318,696.986921 739.649318,697.371921 C707.536318,697.954921 677.669318,685.747921 653.732318,664.593921 C621.181318,635.826921 602.899318,592.262921 600.276318,549.332921 C597.574318,505.120921 610.858318,460.343921 640.606318,426.965921 C666.824318,397.547921 697.399318,382.635921 736.760318,380.526921 Z"/><path fill="#313945" d="M735.583318,405.518921 C735.780318,405.484921 735.975318,405.436921 736.175318,405.415921 C760.895318,402.740921 786.586318,411.564921 805.898318,426.699921 C835.614318,449.987921 853.091318,483.453921 857.502318,520.796921 C862.039318,559.204921 852.124318,600.220921 827.917318,630.678921 C808.134318,655.570921 780.699318,669.797921 749.319318,673.254921 C748.481984,673.319588 747.644318,673.373921 746.806318,673.417921 C745.967651,673.462588 745.128651,673.496921 744.289318,673.520921 C743.449984,673.544921 742.610651,673.558921 741.771318,673.564083 C740.931318,673.566921 740.091651,673.560588 739.252318,673.543921 C738.412984,673.527255 737.573984,673.500588 736.735318,673.463921 C735.896651,673.427255 735.058318,673.380588 734.220318,673.323921 C733.382318,673.266588 732.545318,673.199255 731.709318,673.121921 C730.873318,673.045255 730.038318,672.958255 729.204318,672.860921 C728.370318,672.763588 727.537651,672.656255 726.706318,672.538921 C725.874984,672.420921 725.045318,672.293255 724.217318,672.155921 C723.388651,672.018588 722.561984,671.871255 721.737318,671.713921 C720.912651,671.556588 720.089984,671.389255 719.269318,671.211921 C718.448651,671.034588 717.630318,670.847255 716.814318,670.649921 C715.998318,670.452588 715.184651,670.245588 714.373318,670.028921 C713.561984,669.812255 712.753651,669.585921 711.948318,669.349921 C711.142318,669.113255 710.339318,668.867255 709.539318,668.611921 C708.739984,668.355921 707.943651,668.090588 707.150318,667.815921 C706.356984,667.541255 705.566984,667.256921 704.780318,666.962921 C703.993651,666.668921 703.210984,666.365588 702.432318,666.052921 C701.652984,665.739588 700.877651,665.417255 700.106318,665.085921 C699.334984,664.754588 698.567651,664.413921 697.804318,664.063921 C697.040984,663.713921 696.282318,663.354588 695.528318,662.985921 C694.773651,662.617255 694.023651,662.239588 693.278318,661.852921 C692.532984,661.466921 691.792318,661.071588 691.056318,660.666921 C690.320318,660.262255 689.589651,659.848921 688.864318,659.426921 C688.138318,659.004921 687.417651,658.574255 686.702318,658.134921 C685.986984,657.695588 685.276984,657.247588 684.572318,656.790921 C683.867651,656.334255 683.168651,655.869255 682.475318,655.395921 C681.781984,654.921921 681.094318,654.439921 680.412318,653.949921 C679.730984,653.459921 679.055318,652.961588 678.385318,652.454921 C677.715984,651.948921 677.052651,651.434588 676.395318,650.911921 C675.737984,650.389255 675.086984,649.858921 674.442318,649.320921 C645.535318,625.210921 630.095318,589.005921 626.744318,552.045921 C626.625651,550.859921 626.521318,549.672921 626.431318,548.484921 C626.341984,547.296921 626.267318,546.107921 626.207318,544.917921 C626.146651,543.727255 626.100984,542.536588 626.070318,541.345921 C626.039651,540.154588 626.021227,538.962921 626.021227,537.770921 C626.021227,536.579588 626.033318,535.388255 626.061318,534.196921 C626.088651,533.005588 626.130984,531.814921 626.188318,530.624921 C626.245651,529.434255 626.317318,528.244588 626.403318,527.055921 C626.489984,525.867921 626.591318,524.680921 626.707318,523.494921 C626.822651,522.308921 626.952984,521.124588 627.098318,519.941921 C627.242984,518.759255 627.402318,517.578255 627.576318,516.398921 C627.750318,515.220255 627.938651,514.043921 628.141318,512.869921 C628.344651,511.695255 628.562318,510.523588 628.794318,509.354921 C629.026318,508.186255 629.272651,507.020588 629.533318,505.857921 C629.793318,504.694588 630.067984,503.534921 630.357318,502.378921 C630.646651,501.222921 630.949984,500.070921 631.267318,498.922921 C631.585318,497.774255 631.916984,496.629588 632.262318,495.488921 C632.608318,494.348921 632.968318,493.213255 633.342318,492.081921 C633.715651,490.949921 634.103318,489.822921 634.505318,488.700921 C634.906651,487.579588 635.321651,486.462921 635.750318,485.350921 C636.179651,484.238921 636.622318,483.132588 637.078318,482.031921 C637.534984,480.931255 638.004984,479.836255 638.488318,478.746921 C638.971651,477.657588 639.468318,476.574588 639.978318,475.497921 C640.488318,474.421255 641.011318,473.350588 641.547318,472.285921 C642.083984,471.221921 642.633651,470.164588 643.196318,469.113921 C643.758318,468.063921 644.333318,467.020588 644.921318,465.983921 C645.509984,464.947921 646.110984,463.918921 646.724318,462.896921 C647.337651,461.875588 647.963651,460.861921 648.602318,459.855921 C649.240984,458.849921 649.891651,457.851588 650.554318,456.860921 C651.217651,455.870921 651.892984,454.889255 652.580318,453.915921 C653.267651,452.942588 653.966651,451.977921 654.677318,451.021921 C655.388651,450.065255 656.111651,449.117921 656.846318,448.179921 C657.580318,447.241255 658.325984,446.311921 659.083318,445.391921 C678.945318,421.666921 704.791318,408.270921 735.583318,405.518921 Z"/><path fill="#886E5A" d="M683.068318 438.642921C700.108318 426.106921 718.902318 418.224921 740.193318 417.760921 743.877318 438.834921 746.603318 460.352921 749.011318 481.619921 747.333318 481.781921 745.665318 482.015255 744.007318 482.319921 731.630318 484.505921 720.523318 493.064921 713.490318 503.234921 704.165318 516.715921 701.824318 534.835921 704.735318 550.748921 707.806318 567.532921 717.099318 579.129921 730.884318 588.560921 740.643318 593.089921 748.556318 594.748921 759.330318 594.209921 759.904318 593.955921 760.388318 593.973921 761.008318 593.934921 762.940318 596.874921 763.873318 650.350921 763.887318 658.573921 745.845318 662.619921 726.094318 662.927921 708.817318 655.461921 704.639318 620.432921 701.654318 585.256921 697.397318 550.218921 692.875318 513.006921 687.090318 475.909921 683.068318 438.642921ZM675.844318 446.168921 676.629318 446.803921C682.144318 495.860921 689.723318 544.656921 695.099318 593.751921 697.192318 612.867921 699.534318 632.302921 700.331318 651.504921 692.569318 646.902921 685.249318 642.005921 678.542318 635.945921 678.016318 635.519921 677.501984 635.079921 676.999318 634.625921 652.472318 612.755921 640.573318 576.562921 639.041318 544.490921 637.200318 505.967921 650.197318 474.368921 675.844318 446.168921ZM747.365318 417.808921C765.165318 417.342921 785.821318 424.815921 799.044318 436.770921 800.219318 442.450921 800.748318 448.347921 801.578318 454.096921 803.563651 467.636921 805.304651 481.208255 806.801318 494.810921 810.904318 529.652921 814.750318 564.293921 815.316318 599.411921 815.462318 608.465921 816.033318 617.873921 815.243318 626.892921 813.974651 628.322921 812.667984 629.717255 811.323318 631.075921 809.978651 632.435255 808.597651 633.756588 807.180318 635.039921 805.763651 636.323921 804.313318 637.568255 802.829318 638.772921 801.344651 639.976921 799.828318 641.139921 798.280318 642.261921 796.732318 643.383921 795.154984 644.463255 793.548318 645.499921 791.941651 646.535921 790.307984 647.527255 788.647318 648.473921 786.986651 649.421255 785.301318 650.322588 783.591318 651.177921 781.881984 652.033255 780.150318 652.841255 778.396318 653.601921 775.929318 654.731921 773.362318 655.569921 770.799318 656.450921 770.545984 635.020921 769.801984 613.608255 768.567318 592.212921 771.648318 590.720921 774.649318 589.141921 777.506318 587.246921 790.174318 578.847921 798.497318 565.285921 801.369318 550.450921 804.392318 534.842921 800.987318 517.648921 791.998318 504.504921 783.257318 491.720921 771.263318 484.418921 756.152318 481.644921 753.462318 460.376921 750.802318 438.962921 747.365318 417.808921Z"/><path fill="#8B8B8B" d="M747.088318,493.917921 C755.844318,493.138921 764.142318,494.542921 771.576318,499.371921 C781.618318,505.896921 787.986318,517.111921 790.318318,528.688921 C792.889318,541.455921 790.903318,555.419921 783.556318,566.316921 C777.366318,575.497921 769.075318,580.169921 758.383318,582.272921 C757.831984,582.337588 757.279318,582.389921 756.725318,582.429921 C756.171318,582.469921 755.616984,582.497588 755.062318,582.512921 C754.506984,582.528255 753.951984,582.531255 753.397318,582.521921 C752.841984,582.513255 752.287318,582.491921 751.733318,582.457921 C751.178651,582.424588 750.625318,582.378588 750.073318,582.319921 C749.521318,582.261921 748.970651,582.191588 748.421318,582.108921 C747.872651,582.026255 747.325651,581.931588 746.780318,581.824921 C746.235651,581.718255 745.693651,581.599588 745.154318,581.468921 C744.614318,581.338255 744.077984,581.195588 743.545318,581.040921 C743.011984,580.886255 742.482318,580.719921 741.956318,580.541921 C741.430318,580.363921 740.908651,580.174255 740.391318,579.972921 C739.873318,579.772255 739.360318,579.559921 738.852318,579.335921 C738.344318,579.111921 737.841318,578.876921 737.343318,578.630921 C736.845984,578.384921 736.353984,578.127921 735.867318,577.859921 C735.381318,577.591921 734.901318,577.313588 734.427318,577.024921 C733.953318,576.735588 733.485984,576.435921 733.025318,576.125921 C723.275318,569.705921 717.662318,558.980921 715.373318,547.759921 C712.832318,535.299921 714.618318,521.829921 721.765318,511.137921 C727.728318,502.215921 736.521318,495.940921 747.088318,493.917921 Z"/><path fill="#313945" d="M757.261318,508.793921 C757.738318,508.789921 757.941318,508.771921 758.388318,508.817921 C764.479318,509.438921 770.653318,513.731921 774.305318,518.472921 C779.799318,525.604921 782.325318,535.605921 781.244318,544.504921 C780.104318,553.889921 775.617318,561.154921 768.208318,566.904921 C766.042318,568.005921 763.720318,568.816921 761.458318,569.700921 C769.039318,561.608921 774.382318,552.638921 774.291318,541.219921 C774.169318,526.005921 767.463318,518.723921 757.261318,508.793921 Z"/><path fill="#886E5A" d="M807.831318,444.577921 C809.879318,445.650921 811.811318,447.927921 813.406318,449.593921 C824.692318,461.379921 833.248318,476.792921 838.565318,492.147921 C850.610318,526.936921 847.793318,567.897921 831.607318,600.965921 C829.123318,606.460921 826.093318,612.710921 822.203318,617.310921 C823.548318,577.018921 818.612318,534.558921 813.742318,494.529921 C811.728318,477.974921 808.738318,461.219921 807.831318,444.577921 Z"/><path fill="#7A7BBE" d="M613.917318,432.404921 L614.344318,432.368921 L614.790318,432.812921 C609.591318,441.070921 605.401318,449.779921 600.876318,458.405921 C590.762318,460.330921 580.618318,464.654921 571.076318,468.438921 C555.528318,474.603921 460.819318,515.333921 455.355318,523.267921 C454.699318,524.219921 454.700318,524.394921 454.882318,525.468921 C455.405318,525.814921 455.415318,525.860921 456.107318,526.092921 C459.048318,527.073921 464.204318,525.669921 467.138318,524.710921 C476.021318,521.804921 484.841318,517.905921 493.455318,514.260921 L533.507318,497.123921 C547.466318,491.187921 561.425318,485.026921 575.492318,479.371921 C581.974318,476.765921 588.703318,474.764921 595.098318,471.952921 C593.203318,477.728921 591.082318,483.416921 589.511318,489.295921 C583.707318,511.011921 582.635318,533.242921 583.803318,555.591921 C577.136651,553.620588 570.597984,551.290921 564.187318,548.602921 C559.674318,546.698921 554.780318,543.952921 550.022318,542.881921 C548.255318,542.483921 547.045318,542.499921 545.515318,543.489921 C545.350318,544.564921 545.405318,544.836921 545.825318,545.812921 C549.669318,554.745921 564.023318,559.598921 572.411318,562.758921 C573.049318,571.278921 573.848318,579.737921 575.521318,588.127921 C577.483318,597.966921 585.265318,617.162921 583.531318,625.671921 C582.690318,629.801921 580.544318,632.505921 577.057318,634.813921 C570.273318,639.303921 561.503318,641.611921 553.731318,643.826921 C506.676318,657.237921 447.097318,656.896921 399.524318,646.314921 C382.987318,642.635921 361.221318,636.323921 351.630318,621.199921 C352.181318,618.067921 353.106318,615.004921 353.938318,611.937921 C360.312318,585.592921 356.951318,572.293921 355.531318,546.313921 C354.851318,533.859921 354.947318,521.575921 354.747318,509.133921 C354.692318,505.752921 354.326318,501.844921 351.758318,499.367921 C351.024318,499.330921 350.738318,499.115921 350.164318,499.684921 C342.515318,507.258921 343.681318,542.874921 343.771318,553.649921 C336.711318,553.979921 329.666318,554.846921 322.607318,555.268921 C306.528318,556.230921 289.375318,555.794921 273.618318,552.206921 C284.383318,528.099921 287.546318,501.235921 279.536318,475.876921 C289.708318,475.579921 300.098318,473.684921 310.140318,472.101921 C322.794984,470.189255 335.417651,468.085588 348.008318,465.790921 C353.269318,474.886921 357.235318,483.846921 363.970318,492.136921 C372.584318,502.739921 383.067318,511.279921 394.816318,518.170921 C397.310318,519.633921 400.604318,521.796921 403.571318,521.902921 C404.854318,521.947921 405.384318,521.630921 406.344318,520.844921 C406.704318,516.855921 400.147318,512.807921 397.376318,510.399921 C382.092318,497.110921 372.633318,486.292921 361.530318,469.319921 C369.115318,473.371921 378.111318,475.659921 386.458318,477.539921 C393.797318,487.913921 410.925318,508.316921 421.566318,514.763921 C422.997318,515.630921 424.462318,516.323921 426.174318,516.107921 C433.311318,515.205921 449.142318,503.106921 455.954318,498.661921 C464.056318,493.375921 472.608318,486.871921 481.549318,483.171921 C489.202318,480.003921 497.734318,479.398921 505.731318,477.380921 C513.651318,475.385588 521.485651,473.096255 529.234318,470.512921 C536.982984,467.929588 544.623651,465.059588 552.156318,461.902921 C562.920318,457.420921 573.943318,452.693921 584.297318,447.336921 C594.501318,442.056921 602.452318,434.975921 613.917318,432.404921 Z"/><path fill="#4B7697" d="M349.836318,639.707921 C352.404318,639.563921 357.193318,643.568921 359.540318,644.922921 C367.529318,649.530921 375.994318,652.851921 384.852318,655.323921 C398.969318,659.262921 413.048318,662.390921 427.598318,664.234921 C474.036318,670.120921 542.878318,667.676921 584.207318,644.386921 C588.448318,655.232921 592.270318,666.238921 596.676318,677.023921 C604.797318,696.900921 613.757318,716.396921 622.472318,736.011921 C626.962318,746.118921 632.907318,755.635921 637.028318,765.926921 C638.233318,768.935921 639.288318,772.109921 638.743318,775.382921 C637.525318,782.695921 631.686318,789.131921 625.829318,793.326921 C610.686318,804.172921 585.877318,807.663921 567.820318,804.345921 C565.446318,803.909921 562.884318,803.206921 561.042318,801.559921 C555.339318,796.459921 550.602318,788.764921 545.938318,782.676921 C535.653318,769.250921 525.166318,755.902921 515.463318,742.047921 C511.044318,735.600921 506.188318,729.436921 501.643318,723.074921 C498.851318,719.165921 496.047318,713.758921 492.578318,710.543921 C492.302318,710.287921 492.047318,710.122921 491.709318,709.955921 C487.386318,707.815921 468.591318,705.673921 462.329318,704.533921 C452.239318,702.634588 442.180651,700.582255 432.153318,698.376921 C425.588318,696.951921 416.985318,693.412921 410.357318,694.000921 C408.724318,694.145921 407.797318,694.558921 406.735318,695.862921 C406.589318,696.767921 406.305318,697.358921 406.706318,698.229921 C409.119318,703.469921 426.990318,708.287921 432.859318,710.285921 C418.376318,716.093921 404.164318,722.862921 389.976318,729.353921 C383.039318,732.528921 372.349318,736.194921 366.543318,741.004921 C365.967318,742.433921 365.806318,742.720921 366.039318,744.221921 C368.056318,746.672921 371.150318,746.628921 374.078318,746.955921 C376.857318,756.782921 377.687318,768.730921 377.541318,778.956921 C375.112318,782.714921 371.487318,784.954921 367.450318,786.678921 C341.915318,797.584921 312.976318,793.938921 287.936318,784.007921 C285.906318,779.402921 284.895318,774.033921 283.712318,769.153921 C279.785318,752.956921 275.811318,735.991921 279.456318,719.332921 C286.876318,685.417921 321.879318,657.819921 349.836318,639.707921 Z"/><path fill="#BAB9B7" d="M21.9167178,18.1166215 C26.1217178,21.5336215 39.2799178,39.7860215 43.2784178,44.9129215 C59.2309178,65.3669215 75.8003178,85.5669215 91.1993178,106.419921 C93.0133178,108.876921 94.9843178,111.472921 96.1703178,114.306921 C99.1633178,121.455921 100.746318,131.125921 102.774318,138.730921 L117.216318,192.360921 C135.630318,261.355921 152.840318,330.711921 171.849318,399.541921 L155.371318,405.167921 C150.212318,386.936921 143.540318,368.878921 137.631318,350.855921 L105.486318,252.295921 C93.8583178,216.572588 81.9685845,180.936588 69.8171178,145.387921 C58.7802178,113.433921 47.6064178,81.7679215 33.1662178,51.1589215 C32.1265178,48.8020215 30.7270178,46.5416215 29.4833178,44.2836215 C30.6604178,49.4055215 32.5044178,54.5298215 34.0406178,59.5679215 C37.9456178,72.3769215 42.1732178,85.0309215 46.4591178,97.7159215 L77.8633178,190.398921 L126.773318,339.495921 C134.126318,361.925921 140.639318,384.789921 148.768318,406.942921 C142.517318,409.100921 136.122318,410.939921 129.792318,412.852921 C100.105318,335.892921 67.4264178,260.112921 36.5647178,183.626921 C32.3971178,173.297921 14.2408178,132.618921 13.4760178,125.233921 C12.6155178,116.923921 14.6567178,105.943921 15.3607178,97.4189215 C16.5849178,81.8742548 17.8934511,66.3368548 19.2863178,50.8067215 C20.2554178,39.9413215 21.5138178,29.0170215 21.9167178,18.1166215 Z"/><path fill="#FAC3B7" d="M695.007318 61.0069215C706.238318 59.9559215 718.395318 65.7049215 727.274318 72.0729215 747.088318 86.2839215 759.554318 110.611921 763.425318 134.296921 763.559984 135.171588 763.683651 136.047921 763.796318 136.925921 763.908984 137.803921 764.010984 138.682921 764.102318 139.562921 764.194318 140.443588 764.274984 141.324921 764.344318 142.206921 764.414318 143.089588 764.473318 143.972921 764.521318 144.856921 764.569984 145.740255 764.607651 146.624255 764.634318 147.508921 764.660984 148.393588 764.676651 149.278588 764.681318 150.163921 764.686651 151.049255 764.680984 151.934255 764.664318 152.818921 764.647651 153.703588 764.619984 154.588255 764.581318 155.472921 764.543318 156.356921 764.494318 157.240588 764.434318 158.123921 764.374318 159.006588 764.303651 159.888588 764.222318 160.769921 764.140984 161.651255 764.048651 162.531588 763.945318 163.410921 763.842651 164.289588 763.728984 165.167255 763.604318 166.043921 763.479651 166.919921 763.344318 167.794588 763.198318 168.667921 763.052984 169.540588 762.896651 170.411588 762.729318 171.280921 762.561984 172.150255 762.383984 173.017255 762.195318 173.881921 762.007318 174.746588 761.808651 175.608921 761.599318 176.468921 761.389318 177.328921 761.169318 178.186255 760.939318 179.040921 760.708651 179.895588 760.467651 180.747255 760.216318 181.595921 759.964984 182.444588 759.703318 183.289921 759.431318 184.131921 759.159984 184.974588 758.877984 185.813588 758.585318 186.648921 758.292651 187.484255 757.989984 188.315921 757.677318 189.143921 757.364651 189.971921 757.041651 190.795921 756.708318 191.615921 756.375651 192.435921 756.032984 193.251588 755.680318 194.062921 755.326984 194.874921 754.963984 195.682255 754.591318 196.484921 754.218651 197.287588 753.836318 198.085921 753.444318 198.879921 753.052318 199.673255 752.650318 200.461588 752.238318 201.244921 751.826984 202.028921 751.405984 202.807588 750.975318 203.580921 750.545318 204.354255 750.105651 205.122255 749.656318 205.884921 749.206984 206.646921 748.748318 207.403921 748.280318 208.155921 747.812318 208.907255 747.335318 209.652588 746.849318 210.391921 746.363318 211.131921 745.868318 211.865588 745.364318 212.592921 744.860318 213.320255 744.347651 214.041588 743.826318 214.756921 728.851318 235.236921 706.136318 250.095921 681.727318 256.687921 673.594318 258.884921 665.150318 260.073921 656.839318 261.372921L655.921318 261.327921C653.824318 259.225921 651.578318 248.933921 650.418318 245.487921 646.193318 232.934921 640.623318 221.108921 634.607318 209.333921 636.418651 204.539921 638.148984 199.717255 639.798318 194.865921 642.636318 186.435921 650.143318 162.203921 645.573318 154.629921 644.886318 153.492921 643.917318 152.812921 642.588318 152.643921 640.890318 152.427921 638.991318 153.214921 637.569318 154.069921 632.052318 157.388921 622.897318 166.683921 616.501318 171.304921 621.215318 141.872921 632.719318 110.486921 651.694318 87.2529215 663.124318 73.2569215 676.609318 62.8659215 695.007318 61.0069215ZM250.032318 56.9989215C260.773318 56.3759215 270.794318 58.7539215 279.422318 65.4249215 303.963318 84.3999215 311.856318 125.922921 315.673318 155.268921 289.849318 181.321921 273.815318 213.000921 262.670318 247.572921 257.591318 247.347921 245.808318 238.444921 241.542318 235.114921 216.764318 215.771921 201.714318 186.736921 198.066318 155.733921 195.100318 130.534921 196.981318 98.2609215 213.408318 77.6609215 222.803318 65.8799215 235.017318 58.6949215 250.032318 56.9989215ZM909.483318 625.961921C909.520318 625.956921 909.558318 625.948921 909.596318 625.946921 921.168318 625.157921 930.377318 626.774921 939.706318 634.037921 951.862318 643.502921 957.986318 657.247921 959.778318 672.323921 956.692318 664.658921 952.935318 657.871921 946.861318 652.143921 946.419318 651.728588 945.967318 651.324255 945.505318 650.930921 945.043984 650.537588 944.572984 650.155921 944.092318 649.785921 943.611651 649.415921 943.122318 649.057921 942.624318 648.711921 942.126318 648.365921 941.619984 648.032255 941.105318 647.710921 940.591318 647.389588 940.069651 647.080921 939.540318 646.784921 939.010318 646.488921 938.473651 646.206255 937.930318 645.936921 937.386984 645.667588 936.837318 645.411588 936.281318 645.168921 935.725984 644.926255 935.164651 644.697255 934.597318 644.481921 934.029984 644.266588 933.457984 644.065588 932.881318 643.878921 932.304651 643.691588 931.723651 643.518588 931.138318 643.359921 930.552318 643.201255 929.963318 643.056921 929.371318 642.926921 928.778651 642.797588 928.183318 642.682588 927.585318 642.581921 926.987318 642.481255 926.386984 642.395255 925.784318 642.323921 925.182318 642.252588 924.578651 642.195921 923.973318 642.153921 923.368651 642.112588 922.762984 642.085921 922.156318 642.073921 921.549651 642.061921 920.943318 642.064588 920.337318 642.081921 911.722318 642.383921 903.737318 645.616921 896.954318 650.865921 867.426318 673.716921 875.382318 719.566921 866.903318 752.481921 866.409318 754.465921 865.853651 756.432255 865.236318 758.380921 864.618318 760.330255 863.939984 762.257921 863.201318 764.163921 862.461984 766.069921 861.663651 767.950921 860.806318 769.806921 859.948318 771.662921 859.033318 773.490255 858.061318 775.288921 857.088651 777.086921 856.060318 778.852921 854.976318 780.586921 853.892318 782.320255 852.754984 784.017921 851.564318 785.679921 850.373651 787.341921 849.131651 788.964588 847.838318 790.547921 846.545651 792.131921 845.204318 793.673588 843.814318 795.172921 843.266318 795.756255 842.711318 796.332588 842.149318 796.901921 841.587318 797.471255 841.018318 798.033588 840.442318 798.588921 839.866318 799.144255 839.283651 799.692255 838.694318 800.232921 838.104318 800.774255 837.507984 801.307921 836.905318 801.833921 836.302651 802.359921 835.693651 802.878588 835.078318 803.389921 834.462318 803.900588 833.840318 804.403921 833.212318 804.899921 832.584318 805.395255 831.950318 805.882921 831.310318 806.362921 830.669651 806.842921 830.023318 807.314921 829.371318 807.778921 828.719984 808.242921 828.062651 808.698588 827.399318 809.145921 826.735984 809.593921 826.067318 810.033588 825.393318 810.464921 824.719318 810.895588 824.039984 811.318255 823.355318 811.732921 822.671318 812.146921 821.981984 812.552588 821.287318 812.949921 820.592651 813.347255 819.893318 813.735588 819.189318 814.114921 818.484651 814.494921 817.775651 814.866255 817.062318 815.228921 816.348984 815.590921 815.631318 815.944255 814.909318 816.288921 814.187318 816.633588 813.460984 816.969255 812.730318 817.295921 812.000318 817.621921 811.265984 817.939255 810.527318 818.247921 809.789318 818.556588 809.047318 818.855921 808.301318 819.145921 807.555984 819.435921 806.806984 819.716588 806.054318 819.987921 805.301651 820.259255 804.545651 820.521255 803.786318 820.773921 803.026984 821.026588 802.264984 821.269921 801.500318 821.503921 800.734984 821.737921 799.966984 821.962255 799.196318 822.176921 798.425651 822.391588 797.652318 822.596921 796.876318 822.792921 796.100318 822.988255 795.322318 823.174255 794.542318 823.350921 793.761651 823.527588 792.978984 823.694255 792.194318 823.850921 791.409651 824.008255 790.623318 824.155588 789.835318 824.292921 789.047318 824.430921 788.257651 824.558921 787.466318 824.676921 786.674984 824.794921 785.882318 824.902921 785.088318 825.000921 784.294318 825.099588 783.498984 825.188255 782.702318 825.266921 781.906318 825.345588 781.109318 825.414255 780.311318 825.472921 779.513318 825.531588 778.714651 825.580588 777.915318 825.619921 777.116651 825.659255 776.317318 825.688588 775.517318 825.707921 740.298318 826.789921 709.872318 808.361921 685.110318 784.921921 675.969318 776.268921 667.580318 766.901921 658.385318 758.282921 652.769318 753.017921 645.842318 748.086921 641.016318 742.144921 637.628318 737.973921 635.608318 732.445921 633.412318 727.573921 628.327318 716.296921 623.925318 704.587921 618.495318 693.491921 641.841318 706.854921 661.216318 723.296921 679.377318 743.029921 692.429318 757.212921 704.602318 772.205921 720.384318 783.520921 740.182318 797.715921 764.015318 804.536921 788.266318 800.469921 789.800984 800.212588 791.325651 799.905255 792.840318 799.547921 794.354984 799.189921 795.855984 798.782588 797.343318 798.325921 798.830651 797.869255 800.301651 797.364255 801.756318 796.810921 803.210318 796.256921 804.644651 795.655588 806.059318 795.006921 807.473984 794.358921 808.865984 793.664921 810.235318 792.924921 811.603984 792.184255 812.946651 791.399588 814.263318 790.570921 815.580651 789.742255 816.869318 788.871255 818.129318 787.957921 819.388651 787.043921 820.616651 786.089588 821.813318 785.094921 841.580318 768.884921 849.319318 743.932921 852.537318 719.474921 853.928318 708.900921 854.530318 698.142921 856.718318 687.693921 859.534318 674.239921 864.669318 661.069921 872.783318 649.908921 881.934318 637.320921 893.949318 628.468921 909.483318 625.961921Z"/><path fill="#F2F2F4" d="M379.258318 818.304921C382.522318 825.082921 383.892318 833.429921 381.833318 840.770921 378.825318 851.488921 367.637318 859.239921 358.325318 864.218921 339.088318 874.505921 315.937318 880.477921 294.394318 882.867921 289.414318 883.420921 283.667318 884.414921 278.794318 882.945921 277.039318 881.474921 276.345318 878.915921 276.184318 876.707921 275.374318 865.630921 283.366318 855.883921 289.910318 847.919921 289.991318 847.693921 290.102318 847.476921 290.153318 847.241921 290.426318 845.997921 290.221318 845.756921 289.528318 844.800921 288.273318 844.237921 287.366318 844.029921 285.978318 844.161921 281.039318 844.629921 276.892318 848.162921 273.935318 851.900921 266.422318 861.397921 265.032318 871.767921 266.462318 883.454921 260.401318 883.157921 253.635318 883.042921 248.034318 880.407921 245.200318 879.074921 242.832318 877.002921 241.822318 873.961921 239.406318 866.685921 245.426318 855.782921 250.315318 850.495921 252.523318 848.109921 257.655318 844.733921 258.630318 841.767921 259.033318 840.541921 258.991318 840.342921 258.392318 839.312921 257.579318 838.946921 256.969318 838.726921 256.064318 838.695921 250.931318 838.522921 246.228318 841.829921 242.590318 845.173921 234.337318 852.758921 231.921318 863.640921 231.552318 874.352921 227.549318 870.284921 224.637318 865.406921 224.149318 859.611921 223.492318 851.813921 226.997318 843.762921 232.015318 837.915921 244.668318 823.172921 266.878318 820.527921 285.091318 819.018921 292.824318 818.244921 298.110318 822.326921 305.200318 824.400921 330.526318 831.808921 355.959318 831.182921 379.258318 818.304921ZM651.690318 815.690921C652.109318 816.003921 652.160318 816.018921 652.575318 816.466921 656.919318 821.155921 660.361318 828.151921 663.725318 833.631921 673.525318 849.598921 687.298318 867.696921 687.050318 887.256921 686.934318 896.402921 683.127318 902.283921 676.865318 908.434921 676.825318 901.573921 676.920318 893.159921 673.655318 886.900921 671.208318 882.209921 666.697318 873.615921 661.181318 872.325921 659.821318 872.006921 659.249318 872.199921 658.069318 872.866921 657.777318 873.868921 657.625318 874.333921 657.933318 875.382921 658.597318 877.649921 660.296318 879.932921 661.336318 882.082921 664.867318 889.382921 667.205318 897.581921 665.848318 905.746921 665.193318 909.685921 663.408318 913.276921 660.080318 915.604921 653.688318 920.075921 643.976318 918.945921 636.730318 917.600921L637.157318 912.930921C638.047318 902.556921 638.196318 890.601921 631.372318 881.972921 630.099318 880.362921 628.188318 878.315921 626.061318 878.085921 624.976318 879.125921 624.848318 880.118921 624.866318 881.609921 624.981318 890.874921 629.616318 899.738921 627.424318 910.060921 627.069318 911.734921 626.274318 913.657921 624.633318 914.436921 621.712318 915.823921 617.721318 913.976921 615.037318 912.715921 601.388318 906.303921 594.515318 895.382921 595.048318 880.341921 595.348318 871.872921 597.115318 863.541921 596.781318 855.024921 596.514318 848.238921 594.646318 842.296921 592.367318 835.970921 615.037318 835.655921 634.333318 830.984921 651.690318 815.690921ZM266.611318 28.9951215C280.586318 27.5004215 294.575318 31.3932215 306.467318 38.7231215 336.740318 57.3809215 350.118318 89.7919215 357.837318 122.941921 347.367318 129.420921 337.514318 136.251921 328.048318 144.130921 326.923318 134.897921 324.367318 125.640921 321.712318 116.741921 316.493318 98.5119215 307.980318 78.5909215 295.127318 64.5369215 285.201318 53.6840215 273.060318 46.8201215 258.167318 46.3043215 241.305318 45.7203215 226.834318 51.3950215 214.678318 62.8719215 215.819651 61.0665881 217.046318 59.3212548 218.358318 57.6359215 230.249318 42.3270215 247.261318 31.4836215 266.611318 28.9951215ZM168.389318 453.484921 169.045318 453.820921C170.220318 460.736921 167.592318 469.257921 168.677318 477.146921 163.252318 478.849921 157.778318 480.625921 152.786318 483.392921 148.626318 485.699921 143.716318 489.332921 142.510318 494.193921 142.237318 495.295921 142.239318 495.290921 142.836318 496.314921 151.904318 493.418921 160.533318 489.136921 169.682318 486.243921 173.766318 494.515921 176.284318 500.168921 185.444318 503.567921 187.554318 504.350921 190.392318 505.001921 192.170318 506.318921 190.847318 508.465921 175.030318 511.898921 171.533318 513.167921 166.809318 514.882921 158.905318 518.663921 156.693318 523.412921 156.727318 524.622921 156.512318 524.624921 157.365318 525.585921 160.703318 525.820921 174.971318 520.839921 179.803318 519.688921 184.299318 518.617921 188.771318 517.853921 193.355318 517.285921 194.890318 517.215921 197.136318 516.891921 198.596318 517.381921 200.024318 517.861921 200.963318 519.464921 201.639318 520.701921 203.361318 523.855921 202.927318 526.917921 201.891318 530.261921 199.902318 536.684921 194.463318 541.415921 188.598318 544.344921 180.684318 548.295921 168.882318 549.930921 160.451318 546.964921 155.863318 545.351921 151.651318 542.254921 149.558318 537.764921 147.823318 534.041921 147.592318 530.775921 148.870318 526.946921 143.343318 524.175921 138.373318 520.299921 136.087318 514.343921 133.728318 508.200921 135.178318 502.969921 137.739318 497.248921 134.680318 492.518921 131.565318 487.699921 130.367318 482.107921 129.348318 477.357921 130.055318 472.595921 132.853318 468.572921 139.534318 458.968921 157.413318 455.341921 168.389318 453.484921Z"/><path fill="#F2F2F4" d="M198.960318,444.011921 C199.472318,443.963921 199.659318,443.933921 200.141318,443.928921 C206.371318,443.853921 212.032318,446.502921 216.440318,450.802921 C228.811318,462.870921 235.604318,484.352921 235.750318,501.298921 C235.838318,511.501921 234.331318,530.098921 226.519318,537.604921 C223.923318,540.098921 222.293318,540.073921 218.815318,540.035921 C217.342318,537.338921 216.495318,523.747921 217.220318,520.737921 C218.832318,520.138921 220.453318,519.464921 221.571318,518.096921 C222.745318,516.661921 223.047318,515.289921 222.844318,513.463921 C222.062318,512.174921 221.994318,512.110921 220.612318,511.509921 C218.924318,511.594921 218.013318,512.127921 216.573318,512.998921 L216.038318,513.327921 C214.755318,513.211921 213.498318,512.693921 212.404318,512.017921 C208.452318,509.574921 206.781318,504.337921 205.679318,500.079921 C207.370318,493.885921 209.253318,487.612921 209.668318,481.175921 C209.938318,476.998921 210.070318,470.700921 207.012318,467.499921 C206.157318,466.604921 205.349318,466.038921 204.082318,465.969921 C203.678318,466.289921 203.174318,466.514921 202.869318,466.930921 C202.411318,467.557921 201.321318,484.671921 197.838318,491.184921 C196.724318,493.268921 194.999318,495.872921 192.496318,496.358921 C190.751318,496.698921 189.067318,495.720921 187.739318,494.697921 C181.747318,490.084921 179.670318,482.863921 178.848318,475.678921 C177.952318,467.852921 178.065318,455.555921 183.396318,449.251921 C187.405318,444.512921 193.263318,444.599921 198.960318,444.011921 Z"/><path fill="#886E5A" d="M212.560318,400.844921 C213.808318,400.791921 214.637318,400.898921 215.567318,401.755921 C218.518318,404.473921 219.929318,409.917921 219.976505,413.769921 C219.999318,415.729921 219.671318,419.161921 217.896318,420.422921 C214.916318,422.538921 205.171318,423.658921 201.308318,424.481921 C189.031318,427.095921 176.787318,430.565921 164.858318,434.455921 C156.751651,437.177921 148.768318,440.223255 140.908318,443.591921 C133.048318,446.960588 125.337318,450.641255 117.775318,454.633921 C112.831318,457.202921 108.152318,460.332921 103.145318,462.767921 C100.600318,464.006921 98.6453178,464.948921 95.7823178,464.236921 C91.5563178,461.965921 88.6533178,457.681921 87.1213178,453.221921 C86.0013178,449.962921 85.5713178,446.278921 87.1973178,443.109921 C88.1473178,441.257921 89.5323178,440.621921 91.3623178,439.836921 C96.3163178,437.709921 101.757318,436.272921 106.900318,434.631921 L132.571318,426.327921 C159.119318,417.650921 185.679318,408.418921 212.560318,400.844921 Z"/><path fill="#7A7BBE" d="M242.094318,468.857921 C246.263318,468.711921 250.794318,468.999921 254.935318,469.566921 C259.165318,470.145921 262.456318,471.376921 265.020318,474.909921 C273.790318,486.993921 272.398318,508.252921 270.319318,522.128921 C268.867318,531.809921 265.660318,547.752921 257.307318,553.955921 C256.990651,554.094588 256.671318,554.226921 256.349318,554.352921 C248.915318,557.247921 241.738318,553.699921 234.992318,550.700921 C236.237318,548.807921 237.428318,546.899921 238.478318,544.889921 C246.948318,528.682921 249.737318,505.656921 247.003318,487.698921 C246.021318,481.250921 244.052318,475.058921 242.094318,468.857921 Z"/><path fill="#4B7697" d="M379.189318,791.764921 C379.329318,791.983921 379.498318,792.185921 379.608318,792.420921 C380.759318,794.877921 379.908318,800.184921 378.678318,802.544921 C375.635318,808.381921 367.273318,811.867921 361.305318,813.849921 C341.188318,820.528921 315.804318,816.996921 297.109318,807.626921 C294.784318,805.308921 294.044318,800.072921 293.188318,796.860921 C295.707651,797.844255 298.260651,798.730921 300.847318,799.520921 C320.018318,805.420921 343.468318,805.817921 362.625318,799.445921 C368.432318,797.513921 373.800318,794.620921 379.189318,791.764921 Z"/><path fill="#886E5A" d="M211.009318,562.809921 C213.941318,563.651921 216.950318,565.762921 218.944318,568.054921 C221.361318,570.833921 222.260318,574.844921 221.925318,578.448921 C221.518318,582.822921 218.944318,586.625921 215.630318,589.376921 C210.306318,593.796921 204.709318,594.729921 198.051318,594.114921 C197.085984,593.746255 196.128318,593.358921 195.178318,592.952921 C191.162318,591.215921 187.448318,587.977921 185.926318,583.785921 C184.146318,578.883921 185.778318,574.668921 187.945318,570.274921 C195.930318,568.483921 203.245318,565.287921 211.009318,562.809921 Z"/><path fill="#4B7697" d="M644.532318,789.689921 C644.684318,789.905921 644.871318,790.102921 644.989318,790.339921 C647.051318,794.495921 645.975318,801.092921 643.917318,805.029921 C639.507318,813.467921 628.747318,819.100921 619.974318,821.762921 C606.787318,825.764921 589.115318,827.783921 576.501318,821.024921 C574.196318,819.230921 572.204318,817.385921 570.218318,815.242921 C578.519318,815.556921 586.548318,816.285921 594.868318,815.370921 C614.587318,813.202921 632.012318,805.348921 644.532318,789.689921 Z"/><path fill="#886E5A" d="M199.681318,551.080921 C202.524318,549.298921 205.285318,547.537921 207.891318,545.417921 C204.996318,551.438921 203.227318,553.404921 197.047318,555.881921 C192.276318,557.773921 187.535318,558.085921 182.461318,558.258921 C188.595318,556.428921 193.751318,553.238921 199.681318,551.080921 Z"/></g></svg>