<?xml version="1.0" encoding="UTF-8" standalone="no"?><!DOCTYPE svg PUBLIC "-//W3C//DTD SVG 1.1//EN" "http://www.w3.org/Graphics/SVG/1.1/DTD/svg11.dtd"><svg width="100%" height="100%" viewBox="0 0 3543 3701" version="1.1" xmlns="http://www.w3.org/2000/svg" xmlns:xlink="http://www.w3.org/1999/xlink" xml:space="preserve" xmlns:serif="http://www.serif.com/" style="fill-rule:evenodd;clip-rule:evenodd;stroke-linejoin:round;stroke-miterlimit:2;"><rect id="Artboard1" x="0" y="0" width="3542.61" height="3700.98" style="fill:none;"/><path d="M1076.18,168.862c8.178,-4.966 16.422,-9.819 24.734,-14.558c8.311,-4.74 16.686,-9.365 25.125,-13.876c8.438,-4.51 16.937,-8.904 25.495,-13.182c8.559,-4.278 17.174,-8.437 25.846,-12.479c8.672,-4.042 17.399,-7.964 26.179,-11.767c8.778,-3.802 17.607,-7.484 26.488,-11.045c8.88,-3.56 17.808,-6.999 26.783,-10.315c8.975,-3.316 17.995,-6.509 27.059,-9.578c9.061,-3.07 18.162,-6.014 27.304,-8.834c9.144,-2.82 18.325,-5.514 27.541,-8.082c9.217,-2.569 18.467,-5.01 27.75,-7.325c9.284,-2.315 18.598,-4.503 27.942,-6.563c9.342,-2.059 18.711,-3.991 28.108,-5.794c9.398,-1.804 18.817,-3.478 28.259,-5.023c9.441,-1.545 18.903,-2.961 28.383,-4.247c9.481,-1.286 18.978,-2.442 28.492,-3.468c255.071,-25.639 539.8,33.512 741.366,198.635c72.034,-77.251 156.517,-132.782 261.48,-152.094c89.087,-16.389 184.97,13.484 258.025,64.602c108.437,75.876 175.55,201.242 197.483,330.071c26.829,157.55 -0.058,327.163 -94.125,458.509c-53.633,74.887 -140.954,156.883 -235.471,172.404c16.45,92.596 17.696,191.642 -28.679,276.725c-25.104,46.054 -57.542,75.237 -107.913,90.104c-25.079,27.596 -44.104,60.429 -68.145,89.046c-90.2,107.35 -178.621,175.637 -302.188,240.937c24.196,15.909 37.492,34.696 44.379,62.909c44.096,9.191 88.454,11.4 133.334,13.004c16.941,0.208 34.008,0.846 50.937,0.046c31.55,-1.025 63.508,-3.267 94.679,-8.388c55.004,-9.033 95.821,-24.191 151.925,-10.629c37.729,-17.887 66.284,-40.892 95.209,-70.833c26.137,-27.05 48.795,-64.313 85.062,-78.692c19.625,-7.783 44.046,-7.787 63.192,1.433c18.696,9 31.858,24.517 38.404,44.105c13.508,40.412 -4.375,80.704 -21.329,116.804c54.712,4.512 110.512,7.6 163.254,24.029c29.958,9.329 61.312,23.629 75.983,53.242c11.496,23.208 8.484,49.45 0.129,73.037c6.217,6.571 12.446,13.121 17.163,20.892c8.704,14.341 11.783,30.858 7.633,47.2c-7.779,30.666 -32.908,46.112 -58.458,60.716c-2.371,10.484 -4.342,21.688 -8.383,31.667c-11.634,28.7 -41.584,46.388 -69.038,57.542c-97.787,39.737 -261.892,45.146 -360.446,4.087c-4.683,7.488 -9.746,13.563 -16.571,19.221c-26.929,22.308 -63.345,30.058 -97.591,26.65c-12.4,-1.233 -25.784,-4.279 -38.209,-3.096c-28.008,2.675 -55.587,8.238 -83.762,10.542c-97.008,7.925 -190.975,3.792 -287.604,-6.358c2.612,87.104 10.837,174.458 17.1,261.37c2.8,38.884 12.625,107.259 5.071,143.625c-4.842,23.325 -19.384,36.938 -38.505,49.292c67.15,67.529 131.909,137.208 197.742,206.013c46.138,48.22 91.033,95.77 141.633,139.495c79.7,68.871 178.488,120.592 286.513,111.925c69.329,-5.558 134.712,-32.525 180.05,-86.779c67.692,-81 57.321,-188.879 28.067,-283.141c-20.867,-67.242 -49.709,-127.713 -55.584,-199.45c-8.208,-100.263 14.734,-200.071 81.171,-277.667c56.883,-66.438 136.596,-104.846 223.592,-111.167c82.166,-5.971 171.921,22.692 234.25,77.029c62.154,54.184 107.771,134.992 113.437,218.055c2.425,35.525 -1.158,88.004 -26.512,115.47c-7.717,8.359 -17.517,13.396 -29.017,13.263c-9.254,-0.104 -20.142,-3.733 -25.675,-11.613c-8.842,-12.579 -11.654,-32.666 -15.671,-47.341c-12.996,-47.525 -32.875,-92.867 -68.071,-128.279c-36.841,-37.067 -85.55,-60.905 -138.279,-60.738c-47.125,0.146 -89.941,16.238 -123.191,50.154c-20.046,20.442 -31.746,42.4 -40.221,69.534c-32.392,103.7 26.371,195.233 56.141,290.9c3.723,11.658 7.003,23.44 9.842,35.345c2.839,11.906 5.226,23.902 7.163,35.988c1.938,12.086 3.42,24.226 4.445,36.421c1.025,12.197 1.592,24.415 1.7,36.654c1.375,106.504 -34.162,214.729 -109.683,291.462c-89.625,91.067 -210.45,130.238 -336.554,130.38c-268.25,0.3 -445.196,-189.392 -621.433,-364.288c4.45,40.8 2.287,84.054 3.345,125.204c1.596,62.063 6.988,127.5 1.73,189.317c-1.159,13.621 -3.713,24.587 -9.084,37.167c13.65,27.716 22.929,58.85 28.984,89.075c9.4,46.92 12.425,103.891 -16.234,145.175c-29.754,42.854 -86.333,65.808 -135.733,75.333c-79.238,15.275 -189.946,12.633 -259.042,-34.538c-28.933,-19.754 -49.933,-47.316 -56.191,-82.4c-8.009,-44.891 8.975,-132.908 34.904,-169.57c-13.413,-7.313 -27.492,-15.055 -34.142,-29.575c-13.283,-29.021 -12.054,-70.6 -16.512,-102.396c-9.073,-66.625 -19.873,-132.968 -32.4,-199.029c-5.813,-29.438 -11.121,-60.684 -21.08,-89.021l-64.7,-0.275c-10.958,68.566 -20.137,137.371 -27.537,206.412c-5.208,47.434 -8.113,108.492 -20.021,153.929c-2.346,8.946 -7.15,16.659 -11.917,24.475c0.703,2.706 1.388,5.416 2.055,8.13c11.77,47.904 18.991,107.016 -8.884,150.991c-41.537,65.534 -142.337,92.288 -213.637,107.359c-101.263,21.408 -247.892,33.808 -337.3,-25.255c-27.35,-18.062 -49.063,-44.483 -55.192,-77.408c-7.342,-39.458 -0.342,-78.087 23.233,-110.687c43.45,-60.08 123.65,-93.934 194.771,-105.384c-38.846,-117.712 -39.133,-343.604 -34.95,-469.841c1.067,-32.142 0.35,-65.934 5.946,-97.588c-18.575,-11.15 -36.054,-21.979 -49.058,-39.842c-9.496,-13.045 -14.129,-27.462 -16.342,-43.308c-5.062,-36.246 -1.504,-75.642 0.483,-112.1c6.098,-97.081 15.707,-193.811 28.83,-290.192c-67.659,-0.491 -134.892,-2.204 -201.842,-13.033c-38.371,-6.204 -76.083,-17.467 -114.358,-23.058c-17.938,-2.621 -36.271,-0.771 -54.225,-3.125c-41.288,-5.413 -60.425,-27.163 -84.43,-58.334c-81.854,27.421 -167.087,29.134 -251.891,16.538c-55.492,-8.238 -156.913,-26.688 -190.217,-73.85c-15.363,-21.754 -14.902,-43.421 -10.308,-68.383c-11.037,-5.596 -21.546,-11.396 -30.711,-19.9c-13.777,-12.784 -22.223,-29.009 -22.475,-48.017c-0.386,-29.154 16.973,-48.483 35.662,-68.317c-0.913,-7.271 -1.946,-14.654 -2.026,-21.991c-0.226,-20.642 8.186,-39.334 22.927,-53.646c59.102,-57.392 206.081,-37.975 283.623,-35.392c-7.559,-18.937 -14.834,-37.517 -18.063,-57.737c-4.004,-25.042 -3.346,-62.942 12.784,-83.796c12.175,-15.742 34.775,-27.504 54.308,-30.113c65.508,-8.75 94.8,57.534 124.546,102.192c20.208,30.337 43.133,62.787 72.362,84.95l2.217,1.65c20.862,-7.742 40.433,-11.838 62.904,-9.417c32.783,3.534 62.354,21.063 94.15,29.079c89.096,22.455 208.304,34.717 299.713,24.417c-27.753,-12.011 -55.046,-24.99 -81.88,-38.937c-127.716,-66.98 -254.725,-183.55 -298.637,-323.967c-24.746,3.525 -50.221,6.25 -74.508,12.225c-21.046,5.175 -42.771,13.671 -64.18,16.567c-4.033,0.545 -7.933,-0.3 -11.645,-1.971c-0.748,-0.331 -1.475,-0.7 -2.184,-1.109c-0.708,-0.411 -1.391,-0.859 -2.05,-1.345c-0.658,-0.487 -1.287,-1.007 -1.887,-1.563c-0.6,-0.556 -1.168,-1.142 -1.704,-1.758c-0.534,-0.62 -1.032,-1.266 -1.496,-1.938c-0.464,-0.672 -0.891,-1.369 -1.279,-2.091c-0.387,-0.72 -0.732,-1.459 -1.038,-2.217c-0.305,-0.758 -0.568,-1.532 -0.787,-2.321c-1.925,-6.975 -0.509,-14.192 3.087,-20.371c17.988,-30.937 113.863,-38.221 148.338,-46.129c-8.788,-34 -7.93,-68.425 -14.755,-102.496c-24.05,-2.4 -47.95,-4.404 -72.12,-4.887c-20.521,-0.409 -42.371,0.975 -62.659,-1.688c-9.196,-1.208 -18.85,-3.733 -26.521,-9.141c-4.929,-3.475 -9.112,-8.596 -9.387,-14.875c-0.304,-6.992 3.646,-14.117 8.725,-18.671c21.287,-19.096 135.708,-9.538 164.879,-5.296c3.938,-25.383 4.942,-51.483 8.196,-77.033c3.778,-31.203 8.722,-62.221 14.833,-93.055c6.111,-30.833 13.37,-61.393 21.775,-91.679c-53.058,-20.1 -97.233,-43.421 -137.933,-83.625c-105.033,-103.75 -147.717,-236.946 -147.838,-382.233c-0.12,-151.913 49.575,-295.658 157.905,-404.268c62.195,-62.358 147.95,-100.485 236.433,-100.29c110.5,0.245 192.896,51.552 268.608,127.442Zm81.204,138.103c17.7,41.134 30.625,82.73 43.463,125.525l2.733,-0.916c19.5,-6.342 50.221,-7.163 66.771,-16.396c0.775,-4.025 0.175,-6.596 -0.596,-10.525c-1.537,-7.858 -1.541,-15.188 2.934,-22.15c7.045,-10.975 21.808,-15.375 33.912,-17.504c25.333,-4.454 50.904,0.537 76.317,-0.617c-9.134,-12.775 -19.613,-27.475 -16.771,-44.217c1.212,-7.145 5.492,-12.675 11.483,-16.579c29.15,-18.987 82.9,-9.383 114.609,-1.616c61.104,14.962 115.908,41.104 162.2,83.983c19.583,2.805 39.182,5.494 58.795,8.067c124.105,21.975 255.384,68.67 358.592,142.179c21.117,-57.709 42.842,-113.513 73.588,-167.009c-133.238,-103.22 -283.875,-167.595 -452.15,-184.09c-38.717,-3.795 -81.275,-6.613 -120.013,-2.758c-163.95,12.361 -270.654,51.144 -415.867,124.623Zm188.617,1680.78c17.821,14.95 34.825,30.68 51.858,46.509c18.73,16.779 37.355,33.308 57.775,48.046c50.417,-31.121 98.225,-67.046 146.817,-100.938c20.813,-14.512 43.542,-26.783 63.854,-41.875c4.113,-3.054 7.25,-4.754 8.55,-9.767c-2.437,-0.045 -5.029,-0.308 -7.441,0.071c-60.063,13.421 -67.88,25.346 -119.446,50.234c-3.75,1.841 -7.543,3.587 -11.379,5.237c-3.839,1.65 -7.716,3.203 -11.63,4.658c-3.916,1.456 -7.866,2.81 -11.85,4.063c-3.983,1.255 -7.997,2.41 -12.041,3.462c-4.042,1.053 -8.107,2.003 -12.196,2.85c-4.092,0.848 -8.201,1.591 -12.329,2.23c-4.128,0.641 -8.27,1.177 -12.425,1.608c-4.156,0.43 -8.318,0.755 -12.488,0.975c-4.172,0.219 -8.347,0.335 -12.525,0.346c-4.175,0.008 -8.348,-0.088 -12.521,-0.288c-4.175,-0.203 -8.34,-0.51 -12.495,-0.921c-4.156,-0.411 -8.3,-0.927 -12.434,-1.55c-4.13,-0.619 -8.241,-1.343 -12.333,-2.17c-4.095,-0.831 -8.165,-1.763 -12.213,-2.796c-4.047,-1.034 -8.066,-2.168 -12.058,-3.404c-3.989,-1.239 -7.944,-2.577 -11.867,-4.013c-2.395,-0.862 -4.795,-1.683 -7.183,-2.567Z" style="fill:#313945;fill-rule:nonzero;"/><path d="M2057.82,598.315c-4.396,19.334 -10.196,42.925 1.733,61.067c3.233,4.921 5.592,5.679 11.117,7.146c8.708,-1.888 16.391,-6.404 21.358,-14.017c14.538,-22.279 29.6,-93.066 41.454,-124.137c63.421,-166.221 181.821,-356.208 366.334,-400.5c77.433,-18.589 152.975,-0.309 219.766,41.32c96.559,60.184 158.767,166.784 183.684,275.805c31.904,139.596 15.595,294.862 -61.805,417.329c-54.087,85.579 -131.933,160.017 -231.633,187.092c-14.05,-21.413 -25.746,-38.58 -47.662,-52.771c-1.388,-0.563 -5.759,-3.6 -6.734,-4.721c-4.037,-4.629 -19.687,-43.713 -32.179,-59.529c-30.258,-38.313 -79.029,-65.25 -128.475,-64.738c-13.112,0.138 -27.671,5.825 -39.942,4.334c-3.291,-2.025 -4.2,-3.325 -5.904,-6.946c-14.604,-31.017 25.917,-83.438 37.609,-113.613c7.75,-20.016 22.32,-66.491 11.391,-86.387c-2.871,-5.234 -5.941,-7.75 -11.758,-9.225c-28.617,-7.267 -73.671,37.266 -94.604,52.446c1.358,-27.738 6.725,-55.23 13.187,-82.188c26.763,-111.667 84.013,-259.296 185.584,-320.6c42.937,-25.917 91.766,-34.45 140.508,-21.958c68.354,17.512 145.271,77.491 181.158,137.687c4.221,-9.675 2.109,-16.312 -1.758,-26c-25.892,-64.866 -74.9,-116.791 -139.846,-143.35c-3.503,-1.403 -7.039,-2.721 -10.608,-3.954c-3.57,-1.231 -7.166,-2.374 -10.788,-3.429c-3.625,-1.056 -7.273,-2.022 -10.946,-2.9c-3.669,-0.878 -7.359,-1.665 -11.07,-2.363c-3.709,-0.697 -7.434,-1.302 -11.175,-1.816c-3.739,-0.517 -7.488,-0.941 -11.246,-1.271c-3.761,-0.333 -7.528,-0.574 -11.3,-0.721c-3.772,-0.15 -7.546,-0.207 -11.321,-0.171c-3.775,0.036 -7.546,0.164 -11.313,0.384c-3.769,0.219 -7.53,0.531 -11.283,0.937c-3.753,0.403 -7.493,0.897 -11.221,1.483c-3.73,0.586 -7.443,1.263 -11.137,2.03c-3.697,0.769 -7.372,1.626 -11.025,2.57c-3.656,0.948 -7.285,1.984 -10.888,3.109c-3.603,1.125 -7.176,2.336 -10.721,3.633c-3.544,1.3 -7.055,2.685 -10.533,4.154c-96.854,40.875 -158.196,139.079 -195.721,233.096c-22.733,56.954 -74.841,227.867 -52.279,281.538c2.458,5.85 5.158,9.687 10.588,13.141c9.958,1.742 19.254,-4.216 27.104,-9.758c22.208,-15.675 42.583,-34.571 64.075,-51.279c-16.009,46.404 -81.417,131.654 -56.275,180.304c1.466,2.842 3.25,5.45 5.025,8.104c-15.954,18.738 -31.346,37.379 -44.109,58.521c-53.937,89.35 -71.175,203.533 -63.237,306.508c2.687,34.871 8.7,68.459 17.283,102.292c-64.666,-10.292 -234.162,-4.971 -286.729,33.475c-3.808,2.787 -6.383,6.212 -7.179,10.962c-0.879,5.221 1.029,10.705 4.479,14.642c4.617,5.267 11.183,7.608 18.05,7.542c26.383,-0.25 55.788,-11.984 82.038,-16.775c64.137,-11.7 141.579,-11.934 205.95,-0.463l1.375,1.842c32.254,43.8 36.825,61.779 84.7,91.992c-25.871,27.183 -52.68,53.975 -83.667,75.316c-62.058,-37.566 -231.308,-104.071 -298.563,-86.154c-6.408,1.708 -13.487,4.596 -16.783,10.721c-1.579,2.929 -1,5.967 -0.129,9.079c2.15,7.688 9.808,11.625 16.612,14.183c24.163,9.088 53.155,11.855 78.534,17.6c59.546,13.484 125.325,35.092 177.983,66.055c-85.767,57.708 -172.758,93.916 -272.192,121.604c-33.958,-33.659 -71.4,-45.35 -118.837,-45.296c-43.263,0.05 -93.9,12.967 -125.471,44.171c-20.692,20.45 -31.104,47.521 -31.037,76.429c0.037,18.421 4.67,35.979 11.57,52.937c-24.766,5.684 -48.629,11.313 -70.645,24.6c-16.867,10.18 -32.73,22.334 -50.359,31.171c-68.425,34.288 -147.537,25.375 -211.329,-14.625c-12.429,-7.791 -24.75,-16.887 -35.192,-27.229c-12.966,-12.846 -23.87,-31.95 -40.545,-40.029c-17.905,-8.671 -41.605,-10.8 -61.05,-15.513c-22.159,-5.366 -44.396,-12.32 -65.8,-20.237c-148.159,-54.804 -321.78,-179.838 -376.442,-332.25c19.683,-0.95 86.196,3.367 97.625,-8.888c3.662,-3.929 5.887,-9.366 5.6,-14.783c-0.304,-5.637 -3.175,-9.733 -7.538,-13.067c-19.579,-14.958 -84.695,-12.179 -109.987,-10.787c-6.558,-31.8 -10.142,-63.371 -12.667,-95.708c19.621,4.816 39.338,9.466 58.788,14.941c16.233,4.571 33.754,11.521 50.516,13.354c5.209,0.567 9.542,0.092 14.05,-2.925c6.038,-4.041 8.63,-9.454 9.692,-16.495c-2.129,-10.08 -7.571,-15.205 -16.158,-20.663c-32.888,-20.896 -79.304,-30.3 -117.042,-39.837c1.417,-54.692 11.117,-110.184 22.125,-163.667c37.079,-180.15 109.05,-370.142 245.196,-499.225c76.962,-72.971 174.137,-122.196 276.742,-147.579c19.304,-4.775 40.954,-11.242 60.875,-10.929c16.837,0.262 36.404,21.525 49.95,9.708c4.037,-3.529 6.833,-8.317 6.454,-13.863c-1.188,-17.366 -27.513,-35.841 -40.404,-45.345c31.837,-1.692 73.27,-0.767 104.379,7.762c13.371,3.667 27.841,11.65 41.412,13.208c4.846,0.559 9.071,-0.7 12.346,-4.612c4.221,-5.038 5.021,-12.363 3.729,-18.613c-4.846,-23.412 -47.637,-44.2 -62.958,-62.033c2.417,-3.625 2.787,-3.567 6.983,-4.237c42.154,-6.759 123.875,29.825 156.421,55.237c11.675,9.117 20.475,20.475 29.304,32.254c127.729,15.454 249.646,49.021 362.017,113.013c25.721,14.65 52.679,30.579 74.746,50.341Z" style="fill:#f2f2f4;fill-rule:nonzero;"/><path d="M2291.57,708.27c1.358,-27.738 6.725,-55.23 13.187,-82.188c26.763,-111.667 84.013,-259.296 185.584,-320.6c42.937,-25.917 91.766,-34.45 140.508,-21.958c68.354,17.512 145.271,77.491 181.158,137.687c0.063,0.634 0.071,1.271 0.188,1.896c0.621,3.379 1.991,5.579 3.479,8.621c10.029,20.479 15.362,45.05 19.817,67.308c17.1,85.488 11.737,168.838 -17.196,251.404c-29.159,83.213 -93.8,181.255 -175.425,221.042c-17.667,8.613 -77.446,22.621 -80.704,25.167c-1.388,-0.563 -5.759,-3.6 -6.734,-4.721c-4.037,-4.629 -19.687,-43.713 -32.179,-59.529c-30.258,-38.313 -79.029,-65.25 -128.475,-64.738c-13.112,0.138 -27.671,5.825 -39.942,4.334c-3.291,-2.025 -4.2,-3.325 -5.904,-6.946c-14.604,-31.017 25.917,-83.438 37.609,-113.613c7.75,-20.016 22.32,-66.491 11.391,-86.387c-2.871,-5.234 -5.941,-7.75 -11.758,-9.225c-28.617,-7.267 -73.671,37.266 -94.604,52.446Z" style="fill:#fac3b7;fill-rule:nonzero;"/><path d="M1288.07,1326.1c28.883,-1.604 60.458,2.933 88.104,11.192c19.975,5.97 45.583,22.712 54.779,41.57c23.138,47.463 -15.079,94.659 -52.271,120.821c-12.087,8.5 -45.504,21.809 -49.954,34.85c0.588,11.771 7.079,27.463 13.754,37.096c13.309,19.204 35.492,26.613 57.467,30.688c79.9,14.804 168.946,-16.021 234.467,-60.742c-11,-6.304 -15.738,-9.908 -20.154,-22.054c0.641,-5.325 0.537,-8.042 5.258,-11.559c5.142,-3.837 12.687,-4.762 18.896,-4.504c19.075,0.796 42.279,11.888 54.862,26.267c7.084,8.087 12.063,19.608 10.917,30.529c-0.638,6.096 -3.292,11.529 -8.646,14.871c-7.696,4.804 -16.046,3.492 -24.537,2.217c-12.805,-1.917 -33.105,63.975 -39.105,75.85c-35.375,70.012 -78.95,137.745 -148.033,178.095c-8.205,4.534 -16.724,8.378 -25.554,11.534c-8.828,3.155 -17.853,5.579 -27.075,7.271c-38.083,6.791 -73.758,-1.188 -105.383,-23.405c-61.696,-43.341 -94.459,-129.166 -107.175,-200.554c-43.017,-9.587 -86.634,-24.062 -120.117,-53.933c-12.7,-11.333 -32.567,-33.633 -32.025,-51.621c0.183,-6.075 1.779,-10.429 6.012,-14.746c14.759,-15.066 57.109,37.409 71.28,46.65c48.662,31.729 106.958,37.359 163.379,37.3c-11.242,-19.154 -18.096,-40.116 -22.413,-61.791c-20.191,-8.138 -38.862,-16.738 -56.141,-30.238c-26.28,-20.537 -49.705,-49.892 -53.334,-84.083c-2.066,-19.479 2.717,-39.109 15.788,-54.009c24.25,-27.65 62.671,-31.537 96.954,-33.562Z" style="fill:#313945;fill-rule:nonzero;"/><path d="M1592.82,1614.98l2.387,1.387c-8.383,27.15 -21.312,51.784 -37.587,74.98c-46.554,-22.846 -98.634,-26.421 -148.65,-13.359c-37.192,9.713 -76.134,32.029 -95.921,65.959c-6.633,-9.709 -12.054,-20.105 -17.679,-30.417c-12.438,-25.513 -22.138,-50.804 -29.742,-78.163c22.833,0.459 46.713,-6.541 68.829,-4.283c18.784,1.917 37.154,12.429 55.834,16.408c67.258,14.338 141.35,-4.354 202.529,-32.512Z" style="fill:#c18779;fill-rule:nonzero;"/><path d="M1278.07,1369.63c15.975,-1.337 33.029,-1.021 48.929,1.108c19.317,2.592 46.208,8.125 58.058,24.921c4.667,6.613 5.8,14.342 3.975,22.159c-6.341,27.125 -38.412,48.55 -60.708,62.183c-6.346,3.133 -13.021,5.775 -19.521,8.592c-10.247,-3.256 -20.05,-7.531 -29.408,-12.825c-22.129,-12.75 -50.504,-35.517 -56.625,-61.38c-1.813,-7.666 -1.192,-15.804 3.379,-22.412c10.567,-15.283 34.775,-19.517 51.921,-22.346Z" style="fill:#fac3b7;fill-rule:nonzero;"/><path d="M1442.79,1711.4c32.117,-3.5 63.446,1.687 94.934,7.229c-25.975,41.383 -59.271,70.596 -105.792,86.121c-23.887,6.225 -51.912,5.283 -73.721,-7.583c-6.754,-3.988 -12.987,-9.596 -14.312,-17.746c-1.279,-7.871 2.116,-15.725 6.804,-21.842c21.842,-28.504 57.658,-42.2 92.087,-46.179Z" style="fill:#fac3b7;fill-rule:nonzero;"/><path d="M1765.97,1056.92c24.329,0.171 47.279,6.446 66.875,21.341c31.904,24.255 48.65,63.246 53.583,102.184c6.175,48.691 -2.371,102.241 -33.654,141.4c-21.862,27.362 -49.492,42.504 -84.367,46.166c-24.312,-0.341 -46.404,-6.425 -66.108,-21.116c-30.317,-22.604 -47.721,-60.617 -53.187,-97.304c-7.267,-48.78 2.608,-102.367 32.337,-142.409c21.408,-28.837 48.838,-44.941 84.521,-50.262Z" style="fill:#313945;fill-rule:nonzero;"/><path d="M1778.78,1125.37c5.167,-0.367 10.792,-1.013 15.909,-0.063c8.975,1.663 16.791,8.063 21.462,15.725c5.683,9.325 6.604,20.821 3.538,31.188c-3.65,12.346 -10.321,18.316 -21.23,24.525c-3.916,0.5 -8.037,1.079 -11.958,0.396c-9.1,-1.58 -17.292,-7.888 -22.162,-15.575c-5.767,-9.1 -7.175,-20.875 -4.796,-31.28c2.762,-12.066 9.133,-18.433 19.237,-24.916Z" style="fill:#fef6dc;fill-rule:nonzero;"/><path d="M1033.32,1038.1c19.812,-1.896 39.112,2.354 56.116,12.916c27.888,17.33 44.259,50.213 51.355,81.388c10.97,48.217 4.004,104.321 -23.025,146.287c-19.796,30.734 -44.45,49.213 -80.413,57.009c-22.529,1.15 -42.237,-0.7 -61.871,-13.129c-26.271,-16.63 -41.912,-45.913 -48.812,-75.534c-11.713,-50.296 -2.384,-109.037 25.529,-152.637c19.65,-30.696 45.217,-48.642 81.121,-56.3Z" style="fill:#313945;fill-rule:nonzero;"/><path d="M1058.54,1096.24c3.583,0.15 7.146,0.292 10.679,0.975c9.467,1.838 16.737,7.825 21.617,16.029c5.775,9.696 6.658,21.1 3.579,31.85c-3.475,12.138 -10.9,17.838 -21.484,23.821c-2.712,0.046 -5.412,0.142 -8.112,-0.216c-9.108,-1.209 -17.463,-6.796 -22.738,-14.213c-6.4,-9 -8.058,-20.633 -5.591,-31.283c3.083,-13.342 10.712,-20.196 22.05,-26.963Z" style="fill:#fef6dc;fill-rule:nonzero;"/><path d="M1780.87,776.061c47.321,-4.262 94.95,13.775 130.846,44.084c14.4,12.158 44.566,40.387 44.237,60.341c-0.079,4.854 -1.358,9.088 -5.166,12.329c-5.3,4.513 -13.642,7.305 -20.588,6.109c-11.204,-1.929 -19.792,-16.454 -26.379,-24.813c-37.346,-37.221 -84.938,-59.254 -138.492,-48.383c-14.121,2.867 -30.054,8.937 -44.45,5.467c-7.262,-1.755 -11.8,-4.4 -15.508,-10.888c-0.025,-7.304 2.487,-12.321 7.167,-17.8c17.866,-20.937 42.841,-23.837 68.333,-26.446Z" style="fill:#313945;fill-rule:nonzero;"/><path d="M1038.3,765.515c3.379,-0.32 6.704,-0.62 10.1,-0.662c24.337,-0.288 61.867,8.508 79.154,26.646c4.354,4.566 6.758,10.212 5.804,16.571c-5,33.283 -63.741,7.816 -84.791,8.066c-22.017,0.263 -39.83,7.75 -58.234,18.859c-15.608,11.137 -29.812,32.254 -46.304,40.212c-5.433,2.621 -10.787,3.667 -16.554,1.633c-3.625,-3.675 -5.067,-6.412 -5.625,-11.67c-1.604,-15.192 8.154,-32.175 17.075,-43.638c24.854,-31.921 59.421,-51.329 99.375,-56.017Z" style="fill:#313945;fill-rule:nonzero;"/><path d="M2051.47,1838.54c14.308,-2.079 30.675,-0.05 44.317,4.746c8.004,2.813 17.045,5.971 20.941,13.913c-7.725,5.654 -41.362,7.254 -53.671,10.341c-18.958,4.75 -37.666,11.5 -55.666,19.067c-44.3,18.625 -83.896,47.833 -124.467,73.304c-35.533,22.039 -72.303,41.774 -110.308,59.204c-23.596,10.779 -47.513,21.5 -72.025,30.013c-22.004,7.641 -120.954,35.95 -131.692,43.266c-5.925,4.038 -8.446,8.184 -9.887,15.267c1.045,5.588 2.187,9.367 6.95,12.963c23.812,17.987 181.075,-42.721 210.479,-56.292c41.73,-19.645 82.244,-41.538 121.541,-65.679c51.2,-31.3 101.15,-65.942 158.53,-85.159c64.287,-21.533 124.325,-4.1 189.366,1.163c67.163,5.433 146.379,8.462 212.529,-4.508c-6.094,11.461 -11.457,23.254 -16.087,35.379c-32.558,87.137 -22.988,198.166 14.725,282.037c-112.138,24.375 -241.442,13.275 -354.367,1.092c-31.287,-3.375 -64.208,-10.888 -95.333,-12.346c-9.125,-0.429 -17.225,-0.45 -24.392,5.946c-2.058,4.525 -3.371,8.179 -1.512,13.125c7.379,19.671 58.962,29.967 77.791,37.996c4.542,38.075 4.367,77.325 6.767,115.637c5.183,72.659 9.76,145.356 13.729,218.092c-60.508,23.175 -121.796,35.862 -185.337,47.421c-255.171,46.412 -582.571,48.916 -831.034,-32.734c-23.666,-7.937 -46.629,-17.07 -69.704,-26.562c0.209,-117.063 17.392,-236.092 32.759,-352.121c7.295,-55.058 16.158,-109.421 21.695,-164.733c1.038,-10.363 4.017,-21.921 2.53,-32.3c-0.984,-6.871 -3.521,-9.988 -8.805,-14.188c-6.025,-0.704 -7.487,-1.096 -12.708,2.659c-23.754,17.083 -36.912,136.179 -44.446,169.545c-91.071,12.413 -230.175,-10.42 -318.896,-34.366c-1.263,-6.739 -2.325,-13.51 -3.183,-20.313c-11.158,-91.096 3.333,-207.875 60.979,-282.325c26.621,5.113 52.629,12.396 79.429,16.884c83.321,13.945 167.438,18.062 251.792,18.437c59.925,66.408 88.613,103.775 165.975,154.004c22.308,14.484 98.171,63.746 121.583,55.063c4.955,-1.834 7.942,-5.367 9.463,-10.388c3.837,-12.654 -6.367,-21.504 -15.875,-27.171c-93.821,-55.895 -196.85,-116.229 -255.688,-211.833c47.988,9.354 95.2,24.538 143.117,34.971c15.704,19.225 28.679,41.287 43.317,61.421c37.3,51.312 77.791,97.691 126.787,138.254c14.913,12.346 33.088,27.817 52.134,32.858c9.208,2.438 17.875,-0.646 26.32,-4.4c23.709,-10.537 46.013,-27.821 67.563,-42.229c33.704,-22.537 67.95,-44.675 100.821,-68.4c34.796,-25.117 69.541,-53.604 106.529,-75.254l2.408,-1.379c49.217,3.408 108.279,-7.267 146.429,-41.009c10.517,-9.295 18.234,-23.729 30.567,-30.591c29.6,-16.467 90.129,-23.517 125.221,-27.788Z" style="fill:#7a7bbe;fill-rule:nonzero;"/><path d="M1054.6,2763.94c25.958,2.238 54.25,13.871 79.796,20.388c42.178,10.447 84.721,19.103 127.629,25.967c15.558,2.511 31.147,4.819 46.767,6.925c15.619,2.105 31.262,4.009 46.929,5.712c15.669,1.7 31.358,3.199 47.066,4.496c15.706,1.294 31.427,2.386 47.163,3.275c15.736,0.886 31.48,1.569 47.233,2.05c15.753,0.48 31.509,0.757 47.267,0.829c15.761,0.072 31.521,-0.058 47.279,-0.392c15.756,-0.336 31.504,-0.876 47.246,-1.62c15.744,-0.742 31.475,-1.689 47.192,-2.842c15.719,-1.15 31.42,-2.503 47.104,-4.058c15.683,-1.559 31.343,-3.32 46.979,-5.284c15.639,-1.961 31.249,-4.125 46.829,-6.491c15.583,-2.367 31.132,-4.935 46.646,-7.705c15.517,-2.769 30.993,-5.74 46.429,-8.912c15.439,-3.17 30.833,-6.539 46.183,-10.108c15.353,-3.57 30.656,-7.337 45.909,-11.3c2.3,160.091 5.766,320.158 10.4,480.2c-120.871,30.404 -242.2,30.283 -363.3,1.695l-3.804,-31.05c-7.45,-42.137 -39.725,-268.358 -61.455,-292.287c-3.1,-3.413 -10.154,-3.496 -14.579,-3.633c-45.704,-1.43 -91.25,-0.088 -136.921,-4.4c-33.379,-3.15 -69.191,-14.425 -102.504,-13.521c-7.916,0.212 -14.029,1.312 -19.629,7.362c-0.717,4.913 -1.258,8.746 2.071,12.979c19.004,24.18 91.95,31.109 122.062,37.113c-5.958,26.604 -8.375,55.033 -12.008,82.1c-8.814,62.508 -15.692,125.229 -20.633,188.162c-111.563,24.113 -236.709,17.542 -344.442,-21.22c-20.1,-150.255 -18.242,-303.255 -12.904,-454.43Z" style="fill:#4b7493;fill-rule:nonzero;"/><path d="M718.552,956.707c-19.479,-6.479 -37.842,-14.142 -55.683,-24.371c-87.913,-50.425 -148.359,-144.291 -174.5,-240.458c-36.188,-133.121 -21.104,-291.508 48.146,-411.463c45.916,-79.533 116.508,-151.483 207.604,-175.231c69.254,-18.055 139.437,-5.904 200.629,30.376c113.4,67.23 170.479,196.297 202.404,318.793c-54.475,21.25 -101.967,47.512 -150.325,79.996c-3.671,-56.159 -15.4,-114.471 -35.296,-166.996c-23.837,-62.946 -63.912,-125.458 -127.466,-153.638c-45.575,-20.204 -95.35,-20.75 -141.725,-2.804c-50.705,19.621 -83.196,56.467 -104.855,105.338c0.688,-0.134 1.4,-0.192 2.071,-0.404c11.479,-3.605 27.146,-19.975 37.334,-27.438c52.012,-38.1 117.008,-63.942 179.825,-36.762c55.179,23.87 88.262,76.812 108.979,130.966c21.85,57.117 34.05,127.046 34.496,188.584c-98.055,102.187 -164.471,206.162 -215.392,338.683c-6.296,15.237 -11.079,31.179 -16.246,46.829Z" style="fill:#fac3b7;fill-rule:nonzero;"/><path d="M718.552,956.707c-19.479,-6.479 -37.842,-14.142 -55.683,-24.371c-87.913,-50.425 -148.359,-144.291 -174.5,-240.458c-36.188,-133.121 -21.104,-291.508 48.146,-411.463c45.916,-79.533 116.508,-151.483 207.604,-175.231c69.254,-18.055 139.437,-5.904 200.629,30.376c113.4,67.23 170.479,196.297 202.404,318.793c-54.475,21.25 -101.967,47.512 -150.325,79.996c-3.671,-56.159 -15.4,-114.471 -35.296,-166.996c-23.837,-62.946 -63.912,-125.458 -127.466,-153.638c-45.575,-20.204 -95.35,-20.75 -141.725,-2.804c-50.705,19.621 -83.196,56.467 -104.855,105.338c-63.441,106.258 -79.162,232.354 -49.108,352.446c20.563,82.17 62.417,172.262 138.167,216.716c16.666,9.779 36.483,20.067 55.504,23.9l2.75,0.567c-6.296,15.237 -11.079,31.179 -16.246,46.829Z" style="fill:#f2f2f4;fill-rule:nonzero;"/><path d="M3187.35,2282.35c16.842,-0.595 33.607,0.282 50.296,2.629c76.225,10.9 139.691,51.154 185.466,112.408c40.275,53.888 58.655,117.909 49.209,184.734c-19.129,-62.184 -48.529,-120.075 -98.884,-162.771c-2.98,-2.545 -6.022,-5.014 -9.125,-7.408c-3.1,-2.395 -6.259,-4.71 -9.479,-6.946c-3.216,-2.236 -6.489,-4.391 -9.816,-6.463c-3.325,-2.075 -6.7,-4.064 -10.125,-5.966c-3.425,-1.906 -6.895,-3.724 -10.409,-5.455c-3.516,-1.733 -7.072,-3.376 -10.666,-4.929c-3.6,-1.555 -7.235,-3.019 -10.905,-4.391c-3.669,-1.373 -7.37,-2.653 -11.104,-3.842c-3.736,-1.189 -7.498,-2.283 -11.287,-3.283c-3.789,-1 -7.6,-1.906 -11.434,-2.717c-3.833,-0.808 -7.684,-1.522 -11.554,-2.142c-3.869,-0.619 -7.753,-1.141 -11.65,-1.566c-3.894,-0.423 -7.797,-0.749 -11.708,-0.98c-3.914,-0.23 -7.829,-0.362 -11.746,-0.395c-3.919,-0.037 -7.837,0.026 -11.754,0.187c-3.914,0.161 -7.822,0.419 -11.725,0.775c-59.038,5.088 -111.213,33.079 -149.275,78.429c-57.504,68.504 -59.975,167.925 -36.071,250.446c25.767,88.967 64.713,142.367 72.954,242.075c7.925,95.904 -15.975,196.196 -79.641,270.283c-72.546,84.417 -172.588,125.013 -282.18,133.009c-168.07,12.271 -313.754,-67.725 -437.029,-173.759c-75.816,-62.987 -154.362,-142.92 -222.858,-214.379c-1.033,-34.119 -1.65,-68.246 -1.85,-102.379c-0.208,-24.433 0.904,-49.362 -2.208,-73.633c56.647,56.936 112.704,114.447 168.17,172.533c52.305,54.967 103.242,111.129 161.1,160.446c95.296,81.229 206.03,141.629 335.196,130.862c83.142,-6.929 161.263,-42.666 215.079,-107.491c70.759,-85.238 68.78,-204.954 37.988,-306.025c-21.05,-69.104 -51.442,-131.075 -58.058,-204.442c-7.913,-87.7 12.179,-173.971 70.066,-242.021c52.15,-61.304 118.096,-89.196 197.017,-95.433Z" style="fill:#fac3b7;fill-rule:nonzero;"/><path d="M2812,1743.52c8.796,1.754 16.879,5.083 21.963,12.841c23.625,36.05 -31.971,101.109 -40.2,134.888c-8.105,33.279 -0.717,73.004 -18.975,103.979c-13.896,23.575 -57.142,45.442 -60.146,61.167c3.991,5.196 8.596,7.212 15.158,7.937c14.45,1.6 38.163,-11.95 48.433,-20.875c39.28,-34.125 45.163,-81.612 48.95,-130.491c53.43,-4.771 151.7,6.175 199.825,27.229c14.713,6.433 25.317,13.658 30.93,29.475c2.129,6.012 2.029,10.271 -0.659,15.954c-4.383,2.633 -7.433,3.208 -12.55,2.533c-13.529,-1.779 -27.108,-6.204 -40.541,-8.837c-26.775,-5.25 -71.013,-10.171 -98.075,-5.588c-5.792,0.979 -13.8,3.063 -16.721,8.7c-1.938,3.742 -2.154,7.434 -1.167,11.434c1.917,7.766 11.367,11.937 18.308,14.004c13.784,4.112 29.4,4.179 43.671,5.483c34.317,3.138 85.954,7.338 114.396,27.163c6.896,4.804 12.813,11.07 14.092,19.683c1.054,7.1 -0.846,14.858 -5.142,20.612c-7.642,10.238 -18.325,13.3 -30.296,15.613c-37.375,0.471 -140.25,-20.092 -168.571,-6.254c-4.616,2.258 -7.808,7.354 -9.037,12.325c-1.208,4.866 -0.938,9.196 2.367,13.216c14.45,17.584 104.92,15.538 130.325,20.321c7.62,1.434 12.379,2.809 16.804,9.35c-0.113,2.467 0.029,2.942 -1.017,5.592c-5.45,13.829 -22.35,24.787 -35.258,30.692c-84.25,38.541 -242.154,40.083 -328.396,7.162c-21.854,-8.342 -46.992,-20.342 -56.55,-43.033c-22.963,-54.542 -16.467,-145.784 4.983,-199.475c6.425,-16.092 15.117,-31.096 27.138,-43.684c25.162,-26.341 60.887,-44.395 88.904,-68.104c31.542,-26.696 60.175,-75.204 97.054,-91.012Z" style="fill:#f2f2f4;fill-rule:nonzero;"/><path d="M402.39,1664.92c11.079,-0.28 22.687,0.583 31.62,7.904c27.592,22.6 43.584,67.221 64.471,96.766c20.342,28.78 44.042,52.875 69.525,76.967c-51.25,81.779 -63.391,162.238 -60.966,257.496c-4.809,2.742 -9.65,5.167 -14.738,7.367c-91.712,39.65 -245.283,22.016 -337.304,-15.105c-14.075,-5.679 -41.313,-18.029 -46.154,-33.25c-1.872,-5.883 -0.414,-8.929 1.971,-14.175c16.55,-15.845 98.045,-3.166 123.15,-3.166c15.375,-0 30.733,-0.279 42.095,-11.784c0.455,-0.458 0.892,-0.933 1.338,-1.4c-0.563,-7.737 -1.375,-15.941 -8.229,-20.841c-21.896,-15.642 -182.037,-3.529 -204.287,-36.417c-3.107,-4.596 -3.937,-7.592 -2.455,-13c14.923,-54.45 166.279,-18.429 193.358,-32.867c4.946,-2.637 7.563,-6.704 8.717,-12.108c0.929,-4.337 -0.296,-8.417 -3.079,-11.854c-20.275,-25.033 -137.517,-14.796 -172.703,-16.663c3.803,-13.945 6.455,-24.404 18.396,-33.77c50.799,-39.85 219.357,-20.575 282.994,-14.459c8.292,0.796 19.746,1.479 26.025,-5.071c17.45,-18.2 -38.004,-93.483 -32.458,-139.416c1.617,-13.384 6.433,-21.363 16.833,-29.688c0.621,-0.496 1.255,-0.975 1.88,-1.466Z" style="fill:#f2f2f4;fill-rule:nonzero;"/><path d="M1075.53,3353.01c26.396,-0.508 55.459,13.663 81.225,19.542c74.984,17.117 149.575,14.25 224.813,1.038c6.687,20.804 12.591,42.879 13.421,64.816c1.012,26.838 -7.084,49.1 -25.721,68.525c-59.571,62.079 -210.096,84.038 -293.734,85.817c-8.85,0.192 -18.745,1.112 -25.366,-5.2c-18.829,-54.35 42.833,-85.763 44.85,-115.638c0.216,-3.166 -1.584,-4.208 -3.413,-6.516c-5.25,-1.534 -8.871,-0.488 -14.012,0.737l-2.109,0.521c-14.07,5.604 -25.65,12.971 -36.125,24.033c-27.345,28.892 -31.97,62.242 -30.208,100.38c-24.517,-1.609 -59.425,-3.296 -77.975,-21.371c-7.112,-6.934 -10.279,-15.863 -10.012,-25.725c1.062,-39.613 34.937,-67.771 61.4,-92.242c5.983,-5.533 8.175,-8.671 8.45,-16.937c-2.675,-2.68 -2.842,-3.609 -6.763,-4.421c-14.471,-2.992 -32.267,9.791 -43.517,17.775c-33.279,23.608 -48.704,55.733 -55.35,95.15c-8.979,-12.225 -15.345,-24.175 -17.537,-39.417c-3.067,-21.342 4.721,-41.337 17.2,-58.362c41.175,-56.175 124.529,-82.534 190.483,-92.505Z" style="fill:#f2f2f4;fill-rule:nonzero;"/><path d="M1568.27,69.862c175.179,-12.597 366.02,30.498 522.016,110.107c44.434,22.676 85.304,49.896 126.363,78.105c-14.175,22.204 -30.371,43.612 -45.775,65.012c-108.525,-94.358 -242.746,-142.765 -380.588,-175.088c-242.279,-47.923 -443.358,0.249 -656.366,117.492c-10.813,-17.77 -20.805,-36.091 -31.055,-54.191c144.6,-79.045 300.084,-132.22 465.405,-141.437Z" style="fill:#535f68;fill-rule:nonzero;"/><path d="M1342.61,1981.55c6.691,-7.045 105.238,38.454 149.154,14.64c75.836,-41.123 185.294,-85.84 185.254,-69.295c-0.045,18.495 -142.815,132.768 -219.58,162.443c-21.707,8.391 -48.946,-27.803 -68.084,-45.768c-18.874,-17.718 -49.653,-58.957 -46.744,-62.02Z" style="fill:#f2f2f4;"/><path d="M2013.16,3394.03l4.162,1.721c6.067,9.779 10.604,20.696 14.354,31.554c14.992,43.404 27.779,103.375 5.35,146.704c-18.712,36.15 -61.071,49.429 -97.116,60.296c10.52,-34.171 16.441,-73.163 2.858,-107.383c-3.788,-9.538 -11.125,-22.88 -21.988,-25.755c-5.495,-1.454 -6.65,-0.87 -11.291,1.675c-8.263,15.275 0.704,39.621 2.091,56.355c1.83,22.095 -0.829,49.737 -16.208,66.829c-10.321,11.475 -24.546,15.679 -39.592,16.241c-15.683,0.588 -44.862,0.35 -56.166,-11.437c-17.234,-17.975 -16.45,-55.258 -15.921,-78.179c2.229,-13.054 5.442,-25.988 7.458,-39.067c1.063,-6.879 0.825,-14.442 -4.604,-19.579c-3.333,-3.154 -6.5,-4.629 -11.121,-3.513c-7.996,1.934 -14.775,9.188 -18.696,16.067c-19.729,34.646 -12.941,85.192 -2.812,121.613c-6.32,-2.525 -12.607,-5.124 -18.863,-7.796c-24.137,-10.392 -45.558,-25.925 -54.954,-51.459c-17.737,-48.22 8.629,-119.362 28.584,-163.745c107.237,23.604 199.241,23.641 304.475,-11.142Z" style="fill:#f2f2f4;fill-rule:nonzero;"/><path d="M2383.89,921.657c8.241,-0.458 16.579,0.371 24.691,1.879c37.238,6.925 64.113,30.488 85.159,60.709c-17.704,5.029 -34.021,10.362 -49.534,20.554c-47.32,31.096 -77.295,93.629 -88.445,147.462c-18.413,88.896 -9.792,174.4 40.662,250.825c-8.704,15.675 -18.1,30.817 -27.654,45.979c-7.388,10.721 -15.204,20.842 -23.442,30.921c-6.23,-3.511 -12.273,-7.321 -18.129,-11.429c-48.796,-34.567 -71.308,-105.617 -80.317,-161.733c-0.894,-5.486 -1.698,-10.985 -2.412,-16.496c-0.714,-5.514 -1.338,-11.036 -1.871,-16.567c-0.533,-5.533 -0.976,-11.073 -1.329,-16.621c-0.353,-5.547 -0.615,-11.098 -0.788,-16.654c-0.169,-5.555 -0.25,-11.112 -0.241,-16.671c0.011,-5.558 0.112,-11.114 0.304,-16.666c0.189,-5.556 0.469,-11.107 0.842,-16.654c0.372,-5.545 0.834,-11.082 1.387,-16.613c0.556,-5.531 1.2,-11.05 1.933,-16.558c0.734,-5.511 1.556,-11.009 2.467,-16.492c0.914,-5.481 1.917,-10.946 3.008,-16.396c1.089,-5.45 2.268,-10.882 3.538,-16.296c1.269,-5.411 2.626,-10.8 4.071,-16.166c1.444,-5.367 2.975,-10.709 4.591,-16.025c1.62,-5.32 3.325,-10.61 5.117,-15.871c1.792,-5.261 3.668,-10.492 5.629,-15.692c9.125,-24.721 19.184,-48.996 34.879,-70.366c19.146,-26.067 43.088,-47.384 75.884,-52.363Z" style="fill:#535f68;fill-rule:nonzero;"/><path d="M991.573,2634.9c3.342,1.021 6.671,2.533 9.946,3.783c256.412,97.854 577.854,102.683 846.687,61.125c77.475,-11.975 159.834,-27.142 231.754,-59.5c0.484,19.071 0.25,34.55 -8.375,52.096c-31.02,37.925 -199.254,64.8 -250.52,72.108c-212.463,30.288 -521.796,26.521 -725.238,-41.2c-25.554,-8.504 -58.017,-16.646 -79.233,-33.487c-18.167,-14.425 -23.088,-32.871 -25.021,-54.925Z" style="fill:#7a7bbe;fill-rule:nonzero;"/><path d="M2491.84,1033.96c4.762,-0.461 9.534,-0.657 14.317,-0.587c18.092,0.333 35.325,11.379 47.233,24.354c40.113,43.704 47.484,112.042 44.655,168.558c-3.196,63.859 -24.609,130.538 -72.934,174.3c16.142,-36.325 27.446,-77.383 20.267,-117.15c-4.813,-8.821 -10.954,-16.971 -19.838,-22.046c-8.404,-4.804 -17.354,-5.687 -26.533,-2.641c-35.867,11.9 -56.992,67.121 -72.792,97.916c-1.375,-2.9 -2.837,-5.758 -4.208,-8.658c-31.404,-66.504 -28.271,-158.733 -3.304,-226.721c14.067,-38.312 35.196,-69.846 73.137,-87.325Z" style="fill:#535f68;fill-rule:nonzero;"/><path d="M2546.95,1892.23c10.112,-1.012 20.512,-0.433 30.283,2.371c0.034,8.567 -20.091,37.979 -24.341,50.075c-8.396,23.904 -12.03,52.379 -13.738,77.6c-4.767,70.312 -0.6,136.333 47.15,191.025c-13.6,7.958 -26.462,11.183 -41.808,13.475c-11.238,1.171 -19.579,1.029 -29.429,-4.658c-22.509,-13 -33.25,-39.692 -39.4,-63.763c-17.884,-69.987 -18.942,-171.196 20.087,-234.992c13.154,-21.504 27.954,-25.479 51.196,-31.133Z" style="fill:#7a7bbe;fill-rule:nonzero;"/><path d="M1774.32,1752.89c27.537,-2.387 59.612,-3.712 83.425,12.688c12.358,8.508 19.333,21.046 21.441,35.766c2.6,18.167 -1.733,36.821 -12.941,51.45c-18.617,24.296 -48.713,34.75 -77.971,38.3c-4.171,0.692 -8.484,0.638 -12.713,0.68c-26.75,0.27 -56.721,-7.23 -75.85,-26.896c-16.421,-16.884 -16.825,-34.492 -15.991,-56.45c1.741,-3.146 3.579,-6.1 5.633,-9.059c21.6,-31.104 49.567,-40.091 84.967,-46.479Z" style="fill:#535f68;fill-rule:nonzero;"/><path d="M646.865,1842.29c14.929,0.517 28.508,4.209 42.82,8.13c-63.195,96.562 -75.187,202.666 -63.716,315.533c-8.75,-0.538 -17.204,-1.783 -25.842,-3.238c-5.379,-1.9 -10.908,-3.77 -15.912,-6.533c-14.763,-8.137 -24.025,-23.637 -28.73,-39.421c-18.266,-61.291 6.017,-164.158 35.467,-219.541c12.954,-24.359 28.296,-46.563 55.913,-54.93Z" style="fill:#7a7bbe;fill-rule:nonzero;"/><path d="M2021.11,3290.36c0.388,0.913 0.942,1.775 1.167,2.742c1.962,8.542 1.921,39.975 -2.467,46.783c-5.446,8.45 -18.562,13.363 -27.683,16.321c-78.325,25.413 -167.208,22.079 -247.625,9.9c-23.017,-3.487 -47.563,-6.883 -68.538,-17.45c-9.966,-14.454 -10.05,-38.958 -12.029,-56.287c115.234,22.712 242.742,28.82 357.175,-2.009Z" style="fill:#4b7493;fill-rule:nonzero;"/><path d="M1074.92,3254.79c105.037,31.03 224.396,41.021 331.825,17.284c-1.967,15.612 -4.146,30.862 -7.746,46.187c-3.067,2.321 -5.925,4.359 -9.525,5.792c-17.108,6.817 -37.892,8.987 -56.042,10.95c-81.896,8.858 -170.262,-0.013 -246.941,-31.1c-5.496,-16.1 -8.459,-32.438 -11.571,-49.113Z" style="fill:#4b7493;fill-rule:nonzero;"/><path d="M2499.12,1307.74c0.254,0.629 0.57,1.234 0.762,1.884c9.3,31.879 -31.225,105.191 -48.325,133.3c-116.842,192.058 -307.054,306.708 -521.546,358.104c-1.008,-3.988 -0.883,-8.217 -1.066,-12.317c2.22,-4.442 2.445,-5.779 7.329,-7.658c7.191,-2.771 16.187,-2.7 23.771,-4.646c19.016,-4.867 38.595,-12.392 57.07,-19.013c67.971,-24.37 129.892,-56.887 189.934,-96.845c146.362,-97.405 217.179,-194.721 292.071,-352.809Z" style="fill:#535f68;fill-rule:nonzero;"/></svg>