<svg xmlns="http://www.w3.org/2000/svg" width="771" height="899" viewBox="0 0 771 899"><g fill="none" fill-rule="evenodd" transform="translate(.778 .378)"><path fill="#313945" fill-rule="nonzero" d="M162.535966,218.459525 C135.656966,211.357525 115.545966,198.035525 101.332966,173.634525 C84.3369662,144.455525 81.3999662,104.930525 90.1389662,72.6205249 C96.8379662,47.8572249 113.054966,22.5703249 135.714966,9.63982489 C136.240966,9.33689156 136.770966,9.04065822 137.304966,8.75112489 C137.8383,8.46159156 138.3753,8.17882489 138.915966,7.90282489 C139.4573,7.62675822 140.001633,7.35759156 140.548966,7.09532489 C141.0963,6.83299156 141.646966,6.57762489 142.200966,6.32922489 C142.754966,6.08075822 143.311966,5.83932489 143.871966,5.60492489 C144.431966,5.37052489 144.994966,5.14322489 145.560966,4.92302489 C146.126966,4.70282489 146.6953,4.48979156 147.265966,4.28392489 C147.8373,4.07799156 148.410966,3.87932489 148.986966,3.68792489 C149.563633,3.49645822 150.1423,3.31229156 150.722966,3.13542489 C151.303633,2.95855822 151.886633,2.78905822 152.471966,2.62692489 C153.056633,2.46472489 153.643633,2.30992489 154.232966,2.16252489 C154.821633,2.01512489 155.4123,1.87519156 156.004966,1.74272489 C156.597633,1.61019156 157.191633,1.48515822 157.786966,1.36762489 C158.382966,1.25009156 158.979966,1.14009156 159.577966,1.03762489 C160.176633,0.935091557 160.7763,0.840158224 161.376966,0.752824891 C161.977633,0.665424891 162.579633,0.585591557 163.182966,0.513324891 C163.785633,0.441124891 164.3893,0.376524891 164.993966,0.319524891 C165.597966,0.262524891 166.202966,0.213124891 166.808966,0.171324891 C167.4143,0.129591557 168.0203,0.0954582242 168.626966,0.0689248908 C169.233633,0.0424582242 169.840633,0.0235915575 170.447966,0.0123248908 C171.054633,0 171.661633,0 172.268966,0 C172.8763,0 173.4833,0.0174915575 174.089966,0.0368248908 C174.696633,0.0562248908 175.302966,0.0832582242 175.908966,0.117924891 C176.515633,0.152591557 177.1213,0.194858224 177.725966,0.244724891 C178.3313,0.294658224 178.935633,0.352191557 179.538966,0.417324891 C180.142966,0.482458224 180.745633,0.555191557 181.346966,0.635524891 C181.948966,0.715858224 182.549633,0.803758224 183.148966,0.899224891 C183.748966,0.994691557 184.3473,1.09769156 184.943966,1.20822489 C185.5413,1.31875822 186.136966,1.43679156 186.730966,1.56232489 C187.324966,1.68785822 187.9173,1.82085822 188.507966,1.96132489 C189.098633,2.10179156 189.6873,2.24965822 190.273966,2.40492489 C190.8613,2.56019156 191.4463,2.72285822 192.028966,2.89292489 C216.764966,9.91422489 237.046966,30.0968249 249.211966,52.2155249 C256.267966,65.0455249 259.996966,78.6825249 262.838966,92.9325249 C273.972966,87.2145249 286.226966,81.8995249 298.295966,78.5245249 C296.825966,74.5635249 296.254966,70.2975249 298.146966,66.3415249 C299.666966,63.1615249 302.682966,61.1715249 305.931966,60.0535249 C319.146966,55.5103249 343.819966,62.4995249 355.843966,68.6765249 C360.636966,71.1395249 364.860966,74.1575249 369.046966,77.5315249 C393.990966,78.6475249 430.383966,87.7875249 450.821966,102.464525 C459.170966,68.8105249 484.549966,32.2964249 514.077966,14.3853249 C514.651966,14.0385916 515.2303,13.6988916 515.812966,13.3662249 C516.395633,13.0335582 516.981966,12.7080582 517.571966,12.3897249 C518.162633,12.0713249 518.756966,11.7601916 519.354966,11.4563249 C519.952966,11.1524582 520.5543,10.8559249 521.158966,10.5667249 C521.7643,10.2774582 522.372966,9.99565822 522.984966,9.72132489 C523.596966,9.44692489 524.2123,9.18002489 524.830966,8.92062489 C525.449633,8.66122489 526.0713,8.40942489 526.695966,8.16522489 C527.320633,7.92095822 527.9483,7.68435822 528.578966,7.45542489 C529.208966,7.22649156 529.841966,7.00525822 530.477966,6.79172489 C531.113966,6.57819156 531.7523,6.37245822 532.392966,6.17452489 C533.0343,5.97659156 533.677633,5.78649156 534.322966,5.60422489 C534.9683,5.42195822 535.615966,5.24755822 536.265966,5.08102489 C536.9153,4.91455822 537.566966,4.75602489 538.220966,4.60542489 C538.8743,4.45482489 539.529633,4.31219156 540.186966,4.17752489 C540.843633,4.04292489 541.5023,3.91632489 542.162966,3.79772489 C542.822966,3.67912489 543.4843,3.56859156 544.146966,3.46612489 C544.8103,3.36365822 545.4743,3.26929156 546.138966,3.18302489 C546.8043,3.09675822 547.470633,3.01859156 548.137966,2.94852489 C548.804633,2.87852489 549.4723,2.81662489 550.140966,2.76282489 C550.809633,2.70909156 551.478966,2.66349156 552.148966,2.62602489 C552.8183,2.58855822 553.4883,2.55929156 554.158966,2.53822489 C554.828966,2.51709156 555.4993,2.50412489 556.169966,2.49932489 C556.8413,2.49452489 557.5123,2.49792489 558.182966,2.50952489 C558.852966,2.52105822 559.5233,2.54079156 560.193966,2.56872489 C560.863966,2.59659156 561.533633,2.63265822 562.202966,2.67692489 C562.8723,2.72112489 563.540966,2.77349156 564.208966,2.83402489 C564.876966,2.89455822 565.543966,2.96322489 566.209966,3.04002489 C566.876633,3.11682489 567.541966,3.20172489 568.205966,3.29472489 C568.870633,3.38772489 569.533633,3.48879156 570.194966,3.59792489 C570.856966,3.70712489 571.5173,3.82435822 572.175966,3.94962489 C572.8353,4.07482489 573.492633,4.20809156 574.147966,4.34942489 C574.803966,4.49069156 575.457966,4.63992489 576.109966,4.79712489 C599.610966,10.5768249 618.986966,27.5498249 631.276966,48.0148249 C648.581966,76.8315249 651.897966,111.107525 643.689966,143.402525 C635.988966,173.700525 617.063966,202.239525 589.882966,218.326525 C570.667966,229.697525 549.652966,233.234525 527.673966,234.032525 C528.378633,238.686525 528.914633,243.359525 529.281966,248.051525 C529.6493,252.744192 529.846966,257.443858 529.874966,262.150525 C529.902966,266.857192 529.7613,271.558858 529.449966,276.255525 C529.138633,280.951525 528.6583,285.630525 528.008966,290.292525 C534.704966,290.930525 555.329966,292.684525 558.761966,298.007525 C559.333966,298.895525 559.387966,299.944525 558.985966,300.913525 C558.408966,302.302525 556.595966,303.994525 555.094966,304.306525 C552.033966,304.943525 531.378966,300.883525 526.593966,299.976525 C523.421966,314.482525 518.807966,327.604525 511.331966,340.497525 C516.262966,343.414525 530.117966,350.281525 531.542966,355.856525 C531.856966,357.081525 531.880966,358.484525 531.135966,359.574525 C530.722966,360.179525 529.881966,360.499525 529.185966,360.595525 C525.440966,361.109525 509.578966,350.872525 505.685966,348.429525 C502.3973,352.524192 498.901633,356.433858 495.198966,360.158525 C501.484966,368.813525 505.381966,376.721525 503.614966,387.702525 C502.745966,393.104525 500.525966,397.549525 497.496966,402.044525 C503.003966,408.000525 508.216966,414.299525 512.612966,421.128525 C528.024966,445.068525 544.101966,489.558525 550.231966,517.080525 C553.269966,530.721525 555.049966,544.163525 556.084966,558.079525 C573.962966,552.445525 589.189966,544.639525 598.272966,527.409525 C624.194966,478.237525 569.311966,432.952525 609.929966,382.809525 C618.044966,372.791525 628.845966,364.592525 641.244966,360.748525 C657.725966,355.639525 677.207966,357.130525 692.445966,365.327525 C706.594966,372.938525 718.133966,385.872525 722.668966,401.426525 C725.299966,410.453525 725.190966,423.400525 720.438966,431.752525 C718.989966,434.300525 716.901966,438.059525 713.828966,438.741525 C712.546966,439.026525 711.309966,438.519525 710.299966,437.752525 C705.379966,434.018525 703.318966,424.358525 700.867966,418.751525 C694.215966,403.534525 681.755966,392.423525 664.260966,394.163525 C655.875966,394.997525 647.947966,398.830525 642.624966,405.463525 C635.746966,414.035525 634.510966,424.748525 635.736966,435.361525 C637.204966,448.069525 641.316966,460.189525 644.371966,472.556525 C652.328966,504.771525 651.283966,535.818525 630.094966,562.959525 C619.645966,576.344525 611.393966,581.096525 596.709966,588.625525 C598.5693,590.772192 600.411966,592.933525 602.237966,595.109525 C628.319966,595.065525 654.400633,595.234525 680.479966,595.616525 C697.177966,595.701525 719.697966,594.006525 735.479966,597.651525 C736.485966,597.880858 737.482966,598.144858 738.470966,598.443525 C739.4583,598.742858 740.433966,599.076192 741.397966,599.443525 C742.362633,599.810192 743.312966,600.210525 744.248966,600.644525 C745.185633,601.078525 746.105633,601.544525 747.008966,602.042525 C747.912966,602.540525 748.7983,603.069525 749.664966,603.629525 C750.531633,604.189525 751.377633,604.779192 752.202966,605.398525 C753.0283,606.017858 753.830966,606.665192 754.610966,607.340525 C755.391633,608.015858 756.1473,608.717525 756.877966,609.445525 C771.965966,624.187525 769.579966,645.512525 769.670966,664.969525 L770.111966,790.731525 L770.096966,822.750525 C770.072966,829.623525 770.539966,837.300525 769.226966,844.036525 C767.510966,852.840525 762.522966,861.127525 756.251966,867.447525 C746.162966,877.616525 716.830966,892.845525 702.839966,896.085525 C695.743966,897.728525 688.466966,897.799525 681.225966,897.780282 L471.056966,896.635525 L404.035966,896.575525 C391.720966,896.581525 378.678966,897.295525 366.446966,896.141525 C339.352966,896.254858 312.2613,896.052192 285.171966,895.533525 C276.363966,896.447525 261.737966,895.588525 252.224966,895.583525 C234.421966,895.573525 216.000966,896.530525 198.281966,895.161525 C159.246966,895.734525 120.107966,894.862525 81.0719662,894.558525 C73.5569662,894.850525 66.0019662,894.714525 58.4819662,894.713525 C42.0799662,894.709525 26.9639662,894.387525 14.2259662,882.492525 C4.7499662,873.643525 0.563966201,860.842525 0.233966201,848.182525 C-0.0740337985,836.339525 0.585966201,824.447525 0.641966201,812.597525 L0.818966201,724.686525 L0.491966201,675.703525 C0.329966201,663.545525 -0.860033799,650.456525 1.1789662,638.462525 C2.5449662,630.420525 7.1429662,622.353525 12.7219662,616.475525 C23.8189662,604.784525 56.1969662,594.225525 72.1229662,593.913525 C88.3919662,593.594525 104.724966,593.993525 120.997966,594.122525 C125.155966,583.620525 134.062966,575.372525 144.390966,570.937525 C154.003966,566.809525 164.949966,565.252525 175.205966,563.469525 C175.747966,557.155525 176.435966,553.222525 180.548966,548.168525 L180.955966,547.661525 C179.897966,521.109525 207.999966,446.457525 221.390966,421.675525 C224.840966,415.291525 228.831966,409.010525 233.814966,403.699525 C235.2323,402.218192 236.679633,400.767192 238.156966,399.346525 C201.354966,381.548525 176.849966,361.947525 161.561966,322.611525 C153.911966,324.364525 146.154966,325.567525 138.501966,327.287525 C133.437966,328.425525 128.354966,330.152525 123.256966,331.045525 C122.078966,331.252525 120.972966,331.300525 119.901966,330.668525 C118.736966,329.980525 118.083966,328.737525 117.604966,327.534525 C117.770966,325.880525 118.039966,324.964525 119.347966,323.861525 C125.538966,318.643525 150.253966,314.479525 158.811966,313.326525 C157.286966,305.503525 156.163966,297.797525 155.607966,289.835525 C146.133966,287.769525 136.050966,286.854525 126.364966,286.562525 C121.699966,286.422525 116.275966,287.016525 111.729966,286.146525 C110.465966,285.904525 109.546966,285.247525 108.807966,284.177525 C107.839966,282.775525 107.612966,280.922525 108.168966,279.318525 C108.657966,277.904525 109.884966,277.066525 111.236966,276.599525 C117.634966,274.387525 147.762966,277.977525 155.286966,279.393525 C155.462966,259.062525 157.204966,238.145525 162.535966,218.459525 Z"/><path fill="#20334A" fill-rule="nonzero" d="M81.0719662 894.558525C86.6069662 893.800525 92.4959662 894.111525 98.0889662 894.086525L127.182966 894.037525 170.477966 893.993525C178.169966 893.979525 185.990966 893.684525 193.670966 894.048525 195.463966 894.133525 196.723966 894.242525 198.281966 895.161525 159.246966 895.734525 120.107966 894.862525 81.0719662 894.558525ZM285.171966 895.533525C293.516966 894.469525 362.575966 894.283525 366.446966 896.141525 339.352966 896.254858 312.2613 896.052192 285.171966 895.533525Z"/><path fill="#E4E4E4" fill-rule="nonzero" d="M38.7869662,620.823525 C60.0839662,619.896525 81.6979662,620.616525 103.026966,620.619525 C112.332966,620.621525 129.987966,619.632525 138.355966,621.095525 C142.693966,621.853525 145.749966,624.907525 149.795966,626.231525 C155.014966,627.940525 160.271966,625.952525 164.929966,623.639525 C166.2793,624.478192 167.665966,625.249525 169.089966,625.953525 C181.231966,631.948525 194.430966,624.364525 205.971966,620.446525 C205.760966,633.472525 204.920966,647.678525 206.941966,660.558525 C207.937966,666.907525 210.494966,668.514525 215.417966,672.101525 C206.046966,680.221525 198.148966,687.774525 193.477966,699.412525 L187.351966,699.864525 C186.404966,711.176525 187.128966,722.950525 187.018966,734.320525 L186.723966,762.526525 C186.662966,769.460525 186.304966,776.592525 187.376966,783.462525 C188.904966,793.258525 193.927966,801.540525 202.001966,807.341525 C213.460966,815.575525 229.816966,815.803525 243.214966,813.519525 C253.408966,811.781525 262.866966,806.456525 268.812966,797.860525 C271.498966,793.976525 273.151966,789.490525 274.087966,784.880525 C276.110966,774.915525 276.677966,739.579525 274.899966,729.944525 C278.398966,725.786525 281.873966,721.639525 284.801966,717.047525 C293.944966,702.709525 297.368966,687.395525 293.657966,670.712525 C295.150966,669.313525 296.414966,667.842525 297.683966,666.238525 C299.244966,651.789525 299.883966,637.472525 300.635966,622.981525 C309.107966,623.436525 317.733966,622.671525 326.192966,622.188525 C326.326966,636.834525 325.241966,651.531525 326.056966,666.167525 C326.507966,674.245525 328.846966,677.047525 334.715966,682.339525 C330.352966,688.312525 325.445966,693.724525 320.911966,699.548525 C313.399966,699.674525 303.251966,698.256525 296.091966,700.146525 C294.572966,701.582525 294.503966,703.968525 294.325966,705.994525 C293.900966,710.822525 294.185966,715.890525 294.188966,720.750525 L294.224966,747.795525 C294.231966,767.512525 293.453966,787.475525 294.202966,807.167525 C294.257966,808.630525 294.194966,810.499525 295.171966,811.666525 C301.049966,813.736525 334.230966,812.885525 342.776966,812.634525 C353.171966,812.329525 362.962966,809.799525 370.293966,801.949525 C375.951966,795.891525 378.254966,787.198525 377.891966,779.040525 C377.460966,769.331525 372.885966,763.347525 366.022966,756.998525 C376.334966,754.073525 383.540966,750.397525 391.786966,743.548525 C391.9203,757.943858 391.971633,772.339192 391.940966,786.734525 C391.947966,792.889525 391.623966,799.165525 391.988966,805.303525 C392.114966,807.427525 392.201966,810.811525 393.847966,812.291525 C399.766966,814.957525 408.824966,813.403525 415.223966,813.021525 L415.147966,735.548525 C420.785966,752.065858 426.069633,768.695525 430.998966,785.437525 C433.338966,793.183525 435.167966,801.880525 438.403966,809.272525 C439.193966,811.075525 439.794966,812.121525 441.749966,812.748525 C444.996966,813.788525 456.846966,813.697525 459.772966,812.172525 C461.540966,811.250525 462.348966,809.212525 463.075966,807.471525 C467.606966,796.610525 470.397966,784.396525 473.784966,773.116525 C477.753966,759.901525 482.303966,746.866525 486.243966,733.662525 C486.246966,752.495525 485.730966,771.331525 485.883966,790.159525 C485.935966,796.603525 485.590966,803.317525 486.130966,809.714525 C486.237966,810.984525 486.592966,811.994525 487.681966,812.755525 C490.233966,814.537525 503.372966,813.931525 506.747966,813.294525 C507.974966,813.062525 508.847966,812.661525 509.574966,811.615525 C510.162966,806.149525 509.794966,800.413525 509.760966,794.904525 L509.554966,765.061525 C509.433966,745.983525 510.322966,726.779525 509.744966,707.723525 C509.682966,705.690525 509.641966,703.674525 508.954966,701.741525 C508.442966,701.410525 508.002966,701.133525 507.414966,700.955525 C503.766966,699.847525 480.019966,700.674525 476.883966,702.350525 C476.5453,702.533192 476.2223,702.739858 475.914966,702.970525 C475.606966,703.201192 475.317966,703.453525 475.047966,703.727525 C474.778633,704.001525 474.530966,704.293858 474.304966,704.604525 C474.078966,704.915858 473.8773,705.242192 473.699966,705.583525 C471.755966,709.284525 467.607966,725.941525 465.935966,731.184525 C460.874966,748.835525 455.129966,766.293525 450.297966,784.005525 C447.575966,773.021525 428.944966,707.180525 425.307966,702.678525 C423.201966,700.071525 417.730966,700.405525 414.675966,700.188525 C414.776966,693.724525 415.043966,687.121525 414.520966,680.677525 L414.758966,680.338525 C414.888966,680.148525 415.014966,679.956525 415.145966,679.767525 C416.188966,678.263525 417.090966,676.929525 417.587966,675.144525 C420.530966,664.580525 421.394966,639.233525 422.357966,627.115525 C431.122966,627.296525 439.592966,625.064525 448.256966,624.223525 C456.910966,623.382525 466.041966,623.981525 474.738966,624.033525 C483.813966,624.087525 495.952966,623.134525 504.702966,625.099525 C514.759966,627.357525 523.802966,633.701525 533.950966,636.268525 C542.926966,638.539525 551.113966,638.404525 559.224966,633.573525 C562.150966,635.244525 565.214966,636.625525 568.603966,636.965525 C570.145966,637.109525 571.6803,637.050192 573.206966,636.787525 C577.125966,636.079525 580.828966,634.146525 584.713966,633.176525 C588.252966,632.293525 592.518966,632.534525 595.818966,631.007525 C598.602966,629.719525 601.043966,627.288525 603.396966,625.341525 C624.962966,626.410525 646.907966,625.708525 668.506966,625.598525 C677.902966,625.550525 688.284966,624.545525 697.557966,626.113525 C698.614633,626.301525 699.657633,626.546192 700.686966,626.847525 C701.716966,627.148858 702.727633,627.505192 703.718966,627.916525 C704.7103,628.327858 705.6763,628.791525 706.616966,629.307525 C707.557633,629.823525 708.467633,630.389192 709.346966,631.004525 C716.701966,636.045525 720.989966,643.408525 722.554966,652.114525 C724.955966,665.474525 723.729966,680.377525 723.732966,693.975525 L723.786966,765.122525 L723.877966,825.648525 C723.928966,836.015525 724.797966,846.783525 723.932966,857.096525 C723.442966,862.946525 721.962966,868.482525 718.503966,873.308525 C713.404966,880.426525 705.389966,884.667525 696.842966,886.007525 C689.581966,887.146525 681.685966,886.620525 674.340966,886.615525 L636.603966,886.569525 L487.245966,885.652525 L211.903966,884.589525 L106.712966,884.155525 C86.1709662,884.089525 65.3499662,884.748525 44.8379662,883.766525 C37.5619662,883.418525 30.8749662,881.824525 24.9109662,877.472525 C17.4509662,872.029525 12.9889662,864.058525 11.6909662,854.974525 C10.0999662,843.841525 11.2409662,830.980525 11.2539662,819.616525 L11.2279662,749.479525 C11.3152995,729.552192 11.2606329,709.625192 11.0639662,689.698525 C10.8389662,675.565525 9.7369662,658.055525 11.0619662,644.252525 C11.5499662,639.165525 13.6209662,633.717525 16.7889662,629.668525 C21.9619662,623.056525 30.9629662,621.602525 38.7869662,620.823525 Z"/><path fill="#313945" fill-rule="nonzero" d="M123.164966 696.835525C123.5543 696.800858 123.943966 696.771525 124.333966 696.747525 136.991966 695.986525 149.241966 699.176525 158.754966 707.877525 165.258966 713.825525 168.263966 720.829525 168.595966 729.601525 161.301966 729.718525 153.989966 729.621525 146.692966 729.629525 145.621966 726.751525 144.568966 723.899525 142.381966 721.662525 138.582966 717.776525 133.576966 716.332525 128.247966 716.229525 123.624966 716.139525 118.405966 716.835525 115.021966 720.301525 112.879966 722.495525 111.914966 725.454525 112.146966 728.494525 113.232966 742.688525 135.664966 745.230525 145.979966 749.176525 151.927966 751.451525 157.890966 754.651525 162.604966 758.981525 168.110966 764.038525 170.904966 770.695525 171.171966 778.086525 171.487966 786.782525 169.264966 795.786525 163.121966 802.208525 154.126966 811.613525 142.504966 813.960525 129.979966 814.317525 125.388966 814.212525 121.007966 813.844525 116.546966 812.693525 106.241966 810.035525 96.4459662 803.681525 91.0169662 794.372525 88.5249662 790.098525 85.7709662 783.434525 87.0629662 778.494525 89.3939662 776.544525 105.646966 777.601525 109.606966 777.651525 110.704966 781.876525 111.934966 785.542525 115.087966 788.697525 119.640966 793.253525 126.087966 794.125525 132.236966 793.978525 136.855966 793.868525 141.641966 792.988525 144.883966 789.404525 145.138633 789.119192 145.377966 788.821525 145.601966 788.511525 145.826633 788.201525 146.034633 787.880858 146.225966 787.549525 146.4173 787.218192 146.5913 786.877858 146.747966 786.528525 146.903966 786.179192 147.0423 785.822858 147.162966 785.459525 147.282966 785.096858 147.383966 784.728525 147.465966 784.354525 147.548633 783.981192 147.611633 783.604192 147.654966 783.223525 147.698966 782.843525 147.7233 782.462192 147.727966 782.079525 147.732633 781.697525 147.717633 781.315858 147.682966 780.934525 146.538966 767.631525 121.881966 764.970525 112.105966 761.571525 107.463966 759.957525 103.031966 757.757525 99.2439662 754.595525 92.7709662 749.190525 89.3549662 741.636525 88.6299662 733.331525 87.8479662 724.386525 89.7719662 714.835525 95.7769662 707.913525 102.648966 699.991525 113.147966 697.510525 123.164966 696.835525ZM570.079966 701.232525C589.264966 700.749525 608.538966 701.081525 627.732966 701.258525 635.478966 701.330525 645.507966 700.421525 652.909966 702.075525 653.819966 703.219525 653.974966 704.512525 654.145966 705.925525 654.638966 709.999525 655.382966 719.610525 652.886966 722.766525 648.527966 724.838525 629.939966 723.037525 623.830966 722.733525 623.331966 743.444525 623.615966 764.227525 623.691966 784.947525 623.738966 793.712525 624.716966 803.823525 623.112966 812.386525 622.847966 812.563525 622.599966 812.768525 622.317966 812.916525 619.534966 814.376525 602.826966 813.448525 599.918966 811.992525 598.887966 810.760525 598.857966 809.354525 598.748966 807.811525 598.140966 799.186525 598.980966 790.134525 599.078966 781.466525 599.297966 762.072525 599.548966 742.524525 599.001966 723.138525 588.783966 723.171192 578.5663 723.151858 568.348966 723.080525 567.812966 719.086525 567.789966 715.005525 567.852966 710.979525 567.902966 707.789525 567.685966 703.562525 570.079966 701.232525ZM531.277966 700.744525C536.673966 700.429525 549.223966 699.574525 553.974966 701.393525L553.916966 702.107525 554.302966 702.421525C555.309966 709.242525 554.784966 716.695525 554.790966 723.604525L554.798966 759.663525 554.781966 793.340525C554.775966 799.659525 555.325966 806.648525 554.260966 812.871525L553.702966 812.654525 553.858966 813.393525 553.601966 813.603525C548.059966 813.734525 536.552966 814.938525 531.669966 813.249525 530.802966 812.949525 530.566966 812.697525 530.269966 811.787525 529.114966 808.250525 530.153966 783.212525 530.160966 777.304525 530.189966 753.800525 529.358966 728.724525 530.251966 705.394525 530.318966 703.650525 530.456966 702.308525 531.277966 700.744525Z"/><path fill="#F2F2F4" fill-rule="nonzero" d="M448.149966,115.032525 C447.820966,118.169525 448.139966,119.951525 450.183966,122.455525 C451.003966,123.459525 451.809966,123.909525 453.088966,124.128525 C454.798966,123.846525 455.906966,123.092525 456.896966,121.670525 C458.462966,119.420525 464.124966,100.148525 465.911966,95.4755249 C478.201966,63.3455249 503.454966,27.1047249 538.004966,17.2978249 C555.295966,12.3900249 573.465966,14.0919249 589.134966,22.9971249 C610.410966,35.0897249 625.420966,57.8825249 631.653966,81.2165249 C639.509966,110.625525 634.854966,145.784525 619.438966,172.005525 C605.580966,195.576525 583.523966,211.574525 557.102966,218.363525 C547.024966,220.953525 535.981966,222.326525 525.596966,221.137525 C524.854966,218.113525 524.160966,215.066525 523.350966,212.060525 C519.712966,199.916525 515.163966,188.594525 508.342966,177.842525 C512.006966,170.986525 515.357966,163.618525 517.668966,156.191525 C519.021966,151.844525 521.320966,142.836525 518.672966,138.835525 C517.950966,137.745525 517.141966,137.114525 515.812966,136.969525 C509.744966,136.307525 501.369966,143.823525 497.274966,147.521525 C501.101966,124.521525 504.209966,101.514525 515.252966,80.5705249 C523.072966,65.7395249 535.616966,51.0099249 552.205966,46.0211249 C564.160966,42.4256249 577.142966,44.3930249 587.986966,50.3853249 C592.479966,52.8679249 596.549966,55.9936249 601.100966,58.4023249 C601.166966,54.2254249 598.981966,51.0206249 596.195966,48.0707249 C587.748966,39.1288249 575.860966,33.5176249 563.544966,33.4145249 C547.644966,33.2813249 533.573966,39.9512249 522.337966,51.0515249 C498.953966,74.1535249 493.128966,105.836525 488.756966,136.934525 C487.831966,143.514525 485.702966,151.252525 485.799966,157.841525 C485.821966,159.313525 486.022966,160.632525 487.153966,161.681525 C487.869966,162.345525 489.078966,162.523525 490.031966,162.408525 C496.563966,161.615525 504.960966,153.446525 509.842966,149.373525 C505.226966,159.095525 499.225966,168.280525 494.837966,178.017525 C498.016966,183.572525 501.341966,188.958525 504.012966,194.792525 C517.227966,223.654525 521.532966,257.208525 516.915966,288.611525 C494.681966,288.540525 472.792966,288.249525 451.406966,295.284525 C448.390966,296.277525 444.295966,297.396525 441.880966,299.510525 C440.898966,300.369525 440.704966,300.921525 440.590966,302.181525 C441.220966,303.352525 441.347966,303.612525 442.460966,304.312525 C449.945966,305.170525 462.953966,300.764525 471.119966,299.724525 C478.2713,298.865858 485.4473,298.353858 492.647966,298.188525 C499.848633,298.023192 507.0403,298.205525 514.222966,298.735525 C511.708966,311.994525 508.257966,325.732525 499.648966,336.466525 C486.038966,330.107525 454.331966,315.979525 439.631966,320.702525 C438.402966,321.097525 438.041966,321.545525 437.342966,322.593525 C437.347966,323.759525 437.547966,324.583525 438.383966,325.464525 C439.127966,326.249525 440.187966,326.633525 441.208966,326.897525 C443.829966,327.574525 446.602966,327.500525 449.261966,328.078525 C462.702966,330.999525 483.374966,335.750525 494.557966,343.333525 C488.793966,351.201525 481.254966,357.545525 473.386966,363.238525 C451.606966,378.997525 428.216966,388.025525 402.692966,395.845525 C394.802966,398.262525 386.714966,401.168525 378.558966,402.467525 C374.213966,403.159525 369.083966,403.103525 364.944966,404.487525 C359.677966,406.248525 354.770966,411.377525 349.678966,414.043525 C349.0943,414.347525 348.504633,414.641525 347.909966,414.925525 C347.3153,415.209525 346.715966,415.483192 346.111966,415.746525 C345.507966,416.009858 344.899633,416.262525 344.286966,416.504525 C343.6743,416.747192 343.057633,416.978858 342.436966,417.199525 C341.8163,417.420858 341.191966,417.631192 340.563966,417.830525 C339.935966,418.029858 339.304966,418.218525 338.670966,418.396525 C338.0363,418.574525 337.398966,418.741525 336.758966,418.897525 C336.1183,419.053525 335.4753,419.198192 334.829966,419.331525 C334.1853,419.465525 333.5383,419.588192 332.888966,419.699525 C332.239633,419.810858 331.5883,419.911192 330.934966,420.000525 C330.2823,420.089192 329.6283,420.166858 328.972966,420.233525 C328.316966,420.300192 327.6603,420.355525 327.002966,420.399525 C326.345633,420.443525 325.687633,420.475858 325.028966,420.496525 C324.3703,420.517858 323.711633,420.526643 323.052966,420.526643 C322.3943,420.526643 321.735633,420.512525 321.076966,420.488525 C320.4183,420.464525 319.7603,420.428858 319.102966,420.381525 C318.4463,420.334858 317.7903,420.276858 317.134966,420.207525 C316.479633,420.138192 315.825633,420.057525 315.172966,419.965525 C314.520966,419.873525 313.8703,419.770525 313.220966,419.656525 C312.5723,419.541858 311.925633,419.416525 311.280966,419.280525 C310.6363,419.143858 309.9943,418.996192 309.354966,418.837525 C308.715633,418.678858 308.078966,418.509192 307.444966,418.328525 C306.811633,418.147858 306.1813,417.956192 305.553966,417.753525 C304.926633,417.551525 304.3033,417.338525 303.683966,417.114525 C303.063966,416.890525 302.4483,416.656192 301.836966,416.411525 C301.224966,416.166858 300.617633,415.911525 300.014966,415.645525 C299.4123,415.379525 298.8143,415.103192 298.220966,414.816525 C297.626966,414.529858 297.038633,414.233192 296.455966,413.926525 C295.872633,413.619858 295.294966,413.303192 294.722966,412.976525 C294.1503,412.649858 293.583633,412.313525 293.022966,411.967525 C292.4623,411.621525 291.907966,411.265858 291.359966,410.900525 C290.8113,410.535192 290.2693,410.160525 289.733966,409.776525 C286.083966,407.122525 283.223966,403.325525 279.554966,400.849525 C275.612966,398.190525 261.055966,396.240525 254.626966,393.687525 C219.571966,379.767525 188.658966,357.767525 174.270966,321.596525 C179.259966,320.991525 192.896966,321.719525 196.020966,317.921525 C195.905966,316.715525 195.854966,316.629525 194.848966,315.837525 C188.699966,311.003525 177.960966,311.515525 170.550966,311.414525 C169.282966,305.123525 168.442966,298.960525 168.164966,292.547525 C173.230966,293.461525 191.331966,299.491525 194.617966,296.997525 C195.264966,296.506525 195.196966,296.051525 195.373966,295.312525 C194.603966,292.978525 192.007966,291.609525 189.925966,290.568525 C182.649966,286.927525 174.760966,284.665525 167.241524,281.608525 C167.068966,229.104525 182.623966,174.907525 220.412966,136.893525 C237.813966,119.388525 258.472966,107.626525 281.016966,98.0795249 C285.591966,101.325525 292.516966,106.661525 298.514966,105.513525 C300.144966,105.201525 301.305966,104.585525 302.335966,103.269525 C302.490966,102.192525 302.572966,101.986525 301.790966,101.096525 C299.526966,98.5175249 292.077966,97.7585249 291.473966,94.4725249 C293.538966,91.5695249 301.526966,90.0315249 304.986966,89.0725249 C310.157966,90.4855249 316.939966,93.7415249 322.255966,93.0565249 L323.112966,92.4195249 C323.310966,90.0585249 321.879966,88.2855249 320.391966,86.5415249 C316.791966,82.3225249 311.249966,78.2175249 309.249966,72.9825249 C309.382966,72.2735249 309.232966,71.9915249 309.923966,71.5925249 C315.002966,68.6595249 334.821966,73.8615249 340.567966,75.8205249 C351.015966,79.3835249 359.628966,85.0475249 367.599966,92.6085249 L370.657966,89.5615249 C397.112966,92.7525249 425.792966,99.8845249 448.149966,115.032525 Z"/><path fill="#FAC3B7" fill-rule="nonzero" d="M497.274966,147.521525 C501.101966,124.521525 504.209966,101.514525 515.252966,80.5705249 C523.072966,65.7395249 535.616966,51.0099249 552.205966,46.0211249 C564.160966,42.4256249 577.142966,44.3930249 587.986966,50.3853249 C592.479966,52.8679249 596.549966,55.9936249 601.100966,58.4023249 L600.985966,59.4084249 C616.607966,80.0235249 622.604966,103.109525 619.018966,128.822525 C615.479966,154.206525 602.425966,178.286525 581.815966,193.817525 C569.546966,203.062525 552.605966,211.108525 537.016966,211.761525 C533.140966,211.923525 526.779966,210.870525 523.350966,212.060525 C519.712966,199.916525 515.163966,188.594525 508.342966,177.842525 C512.006966,170.986525 515.357966,163.618525 517.668966,156.191525 C519.021966,151.844525 521.320966,142.836525 518.672966,138.835525 C517.950966,137.745525 517.141966,137.114525 515.812966,136.969525 C509.744966,136.307525 501.369966,143.823525 497.274966,147.521525 Z"/><path fill="#313945" fill-rule="nonzero" d="M291.986966,289.808525 C301.343966,289.078525 316.407966,289.971525 324.274966,295.678525 C327.001966,297.658525 329.390966,300.312525 329.851966,303.768525 C330.252966,306.771525 329.313966,309.682525 328.112966,312.400525 C321.063966,328.358525 304.576966,325.530525 301.132966,330.772525 C300.611966,331.565525 300.543966,332.603525 300.755966,333.514525 C301.753966,337.799525 306.374966,342.429525 309.981966,344.688525 C318.533966,350.043525 331.542966,349.117525 341.002966,346.804525 C351.159966,344.321525 363.337966,338.519525 368.886966,329.260525 C367.499966,328.362525 365.373966,327.292525 364.423966,325.898525 C363.662966,324.781525 363.638966,324.318525 363.838966,323.084525 L364.943966,322.420525 C371.125966,321.892525 378.842966,325.653525 383.549966,329.552525 C385.388966,331.076525 386.995966,332.545525 387.269966,335.014525 C386.882966,336.271525 386.447966,336.649525 385.424966,337.452525 C382.111966,338.140525 379.472966,336.495525 376.562966,335.117525 C364.185966,355.952525 363.273966,375.182525 343.507966,392.516525 C338.706966,396.120525 333.646966,398.940525 327.759966,400.337525 C327.157966,400.480858 326.552633,400.608858 325.943966,400.721525 C325.3353,400.834858 324.7243,400.932858 324.110966,401.015525 C323.497633,401.098192 322.882633,401.165525 322.265966,401.217525 C321.648633,401.269525 321.030966,401.306192 320.412966,401.327525 C319.7943,401.349786 319.1753,401.354858 318.555966,401.345525 C317.9373,401.336192 317.318966,401.311525 316.700966,401.271525 C316.083633,401.230858 315.4673,401.175192 314.851966,401.104525 C314.2373,401.033858 313.624633,400.947858 313.013966,400.846525 C312.4033,400.745192 311.795633,400.628525 311.190966,400.496525 C310.5863,400.365192 309.984966,400.218858 309.386966,400.057525 C308.789633,399.896192 308.196633,399.719858 307.607966,399.528525 C307.0193,399.337858 306.435633,399.132525 305.856966,398.912525 C305.2783,398.692525 304.705633,398.458192 304.138966,398.209525 C303.571633,397.961525 303.0113,397.699192 302.457966,397.422525 C301.903966,397.145858 301.3573,396.855858 300.817966,396.552525 C300.277966,396.249192 299.7463,395.932525 299.222966,395.602525 C285.119966,386.844525 278.842966,370.073525 275.310966,354.637525 C268.681966,352.605525 262.525966,349.562525 257.503966,344.715525 C253.898966,341.237525 246.852966,331.541525 247.377966,326.289525 C247.521966,324.847525 247.844966,324.603525 248.811966,323.624525 C250.306966,323.370525 251.030966,323.796525 252.125966,324.844525 C254.114966,326.748525 255.577966,329.325525 257.120966,331.585525 C260.956966,337.201525 265.480966,342.052525 271.606966,345.184525 C279.802966,349.374525 290.907966,347.219525 299.219966,344.606525 C296.492966,339.430525 294.811966,335.215525 294.934966,329.254525 C289.866966,327.889525 285.346966,326.344525 280.995966,323.320525 C275.634966,319.593525 270.808966,314.047525 269.742966,307.428525 C269.181966,303.940525 269.817966,300.420525 272.053966,297.621525 C276.532966,292.016525 285.276966,290.580525 291.986966,289.808525 Z"/><path fill="#FAC3B7" fill-rule="nonzero" d="M327.777966,367.820525 C335.615966,366.921525 343.036966,367.779525 350.521966,370.082525 C349.2873,372.102525 347.956966,374.057525 346.530966,375.947525 C339.628966,384.937525 332.026966,391.173525 320.522966,392.650525 C311.006966,392.466525 303.329966,389.340525 296.155966,383.115525 C305.243966,373.597525 314.832966,369.192525 327.777966,367.820525 Z"/><path fill="#E1A39E" fill-rule="nonzero" d="M360.796966,347.265525 L361.071966,347.830525 C359.274966,353.494525 356.802966,358.837525 354.062966,364.101525 C345.889966,360.950525 337.801966,360.209525 329.097966,360.643525 C314.134966,361.388525 302.958966,366.237525 292.902966,377.367525 C291.121966,375.208525 289.682966,373.060525 288.276966,370.644525 C285.557966,365.696525 283.488966,360.330525 281.329966,355.119525 C288.8693,353.697525 296.4173,352.321858 303.973966,350.992525 C306.809966,352.589525 309.702966,353.927525 312.807966,354.923525 C328.575966,359.981525 346.671966,354.624525 360.796966,347.265525 Z"/><path fill="#FAC3B7" fill-rule="nonzero" d="M291.007966,297.795525 C297.707966,297.061525 305.846966,297.304525 312.424966,298.739525 C315.432966,299.396525 319.243966,300.735525 320.893966,303.563525 C320.992633,303.728858 321.081966,303.898858 321.161966,304.073525 C321.241966,304.248858 321.312633,304.427525 321.373966,304.609525 C321.434633,304.792192 321.485633,304.977525 321.526966,305.165525 C321.5683,305.353525 321.5993,305.543192 321.619966,305.734525 C321.639966,305.925858 321.649966,306.117858 321.649966,306.310525 C321.649966,306.502525 321.639966,306.694192 321.619966,306.885525 C321.5993,307.076858 321.5683,307.266525 321.526966,307.454525 C321.485633,307.642525 321.434633,307.827858 321.373966,308.010525 C319.647966,313.221525 311.767966,317.817525 306.990966,319.940525 C300.961966,321.751525 294.811966,321.577525 289.074966,318.833525 C284.687966,316.734525 279.429966,312.514525 278.012966,307.647525 C277.474966,305.797525 277.670966,304.087525 278.733966,302.455525 C281.055966,298.891525 287.149966,298.312525 291.007966,297.795525 Z"/><path fill="#313945" fill-rule="nonzero" d="M396.393966,227.723525 C400.983966,227.415525 404.977966,227.995525 409.099966,230.175525 C415.924966,233.785525 420.401966,240.542525 422.682966,247.754525 C425.894966,257.911525 425.226966,269.626525 420.196966,279.091525 C416.045966,286.903525 409.898966,291.623525 401.467966,294.257525 C395.983966,295.181525 390.803966,294.420525 386.048966,291.437525 C379.152966,287.110525 374.814966,279.457525 373.087966,271.643525 C370.807966,261.329525 372.495966,248.083525 378.445966,239.206525 C382.759966,232.769525 388.827966,229.110525 396.393966,227.723525 Z"/><path fill="#F2F2F4" fill-rule="nonzero" d="M404.224966,240.581525 C405.080966,240.576525 405.847966,240.624525 406.690966,240.803525 C408.650966,241.217525 410.350966,242.893525 411.311966,244.580525 C412.621966,246.880525 412.771966,249.823525 412.021966,252.329525 C411.199966,255.074525 409.752966,256.554525 407.290966,257.900525 C406.226966,257.719525 405.246966,257.404525 404.276966,256.929525 C401.098966,255.374525 400.039966,252.387525 398.934966,249.265525 C400.057966,245.199525 400.873966,243.224525 404.224966,240.581525 Z"/><path fill="#313945" fill-rule="nonzero" d="M237.302966,227.305525 C241.585966,227.259525 245.656966,228.655525 249.094966,231.192525 C255.402966,235.845525 258.361966,243.595525 259.494966,251.095525 C261.111966,261.800525 259.659966,274.291525 252.892966,283.100525 C248.430966,288.908525 242.857966,291.759525 235.736966,292.761525 C230.907966,292.616525 227.036966,291.245525 223.221966,288.213525 C216.424966,282.811525 212.989966,274.046525 212.061966,265.616525 C210.931966,255.347525 213.191966,243.650525 219.967966,235.592525 C224.708966,229.954525 230.154966,227.798525 237.302966,227.305525 Z"/><path fill="#F2F2F4" fill-rule="nonzero" d="M243.886966,240.064525 C244.789966,240.290525 244.723966,240.249525 245.657966,240.595525 C247.512966,241.283525 248.737966,242.975525 249.441966,244.769525 C249.576633,245.121525 249.692633,245.479525 249.789966,245.843525 C249.887966,246.208192 249.9663,246.576525 250.024966,246.948525 C250.083633,247.321192 250.122966,247.695525 250.142966,248.071525 C250.162966,248.448192 250.1633,248.824858 250.143966,249.201525 C250.124633,249.578192 250.085633,249.952525 250.026966,250.324525 C249.9683,250.697192 249.8903,251.065525 249.792966,251.429525 C249.6963,251.794192 249.580633,252.152525 249.445966,252.504525 C249.311966,252.857192 249.159633,253.201525 248.988966,253.537525 C247.828966,255.843525 246.457966,256.818525 244.053966,257.609525 C241.434966,256.729525 239.696966,255.904525 238.323966,253.356525 C237.083966,251.055525 236.991966,248.406525 237.867966,245.964525 C238.974966,242.874525 240.973966,241.339525 243.886966,240.064525 Z"/><path fill="#313945" fill-rule="nonzero" d="M394.912966 160.731525C400.290966 160.364525 405.612966 160.779525 410.804966 162.277525 419.974966 164.923525 429.360966 170.963525 434.001966 179.512525 435.324966 181.949525 437.974966 186.719525 436.882966 189.449525 436.612966 190.122525 436.458966 189.978525 435.692966 190.330525 431.955966 190.153525 428.224966 185.320525 425.609966 182.762525 417.287966 176.027525 405.460966 169.620525 394.325966 172.008525 390.779966 172.768525 386.390966 177.163525 382.697966 175.656525 381.539966 175.183525 380.821966 174.329525 380.482966 173.132525 379.928966 171.171525 380.889966 168.525525 382.013966 166.930525 384.831966 162.932525 390.342966 161.451525 394.912966 160.731525ZM236.912966 161.673525C239.636966 161.438525 242.680966 161.296525 245.386966 161.693525 249.085966 162.235525 253.190966 163.984525 255.393966 167.150525 256.404966 168.602525 257.347966 171.535525 256.707966 173.280525 256.284966 174.431525 255.745966 175.237525 254.526966 175.625525 251.192966 176.686525 246.897966 173.810525 243.930966 172.657525 239.155966 170.800525 233.489966 173.561525 229.152966 175.523525 225.569966 177.523525 217.992966 185.090525 214.454966 184.642525 213.636966 184.538525 213.596966 184.085525 213.172966 183.462525 213.039966 180.485525 214.746966 177.588525 216.336966 175.158525 221.283966 167.602525 228.179966 163.493525 236.912966 161.673525Z"/><path fill="#7A7BBE" fill-rule="nonzero" d="M486.672966,367.551525 C489.612966,369.802525 491.863966,374.283525 492.502966,377.840525 C493.742966,384.741525 491.405966,390.676525 487.467966,396.209525 C475.927966,392.874525 464.679966,395.195525 453.960966,400.165525 C434.885966,409.008525 417.788966,421.853525 399.773966,432.583525 C391.232966,437.671525 381.691966,441.346525 373.390966,446.703525 C371.126966,448.164525 368.054966,449.945525 367.098966,452.567525 C367.401966,453.944525 367.658966,454.016525 368.732966,454.967525 C375.179966,456.299525 410.687966,435.410525 418.193966,430.796525 C428.724966,424.321525 438.664966,416.863525 449.693966,411.210525 C452.428633,409.796525 455.245966,408.573192 458.145966,407.540525 C461.045966,406.507858 464.002633,405.675858 467.015966,405.044525 C473.592966,403.643525 479.895966,402.958525 485.759966,406.936525 C509.566966,423.083525 530.051966,483.968525 537.516966,511.376525 C540.041966,520.646525 541.960966,530.305525 543.835966,539.730525 C544.707966,544.110525 546.409966,551.545525 543.551966,555.437525 C538.179966,562.751525 515.869966,567.908525 507.086966,568.934525 C500.541966,569.699525 488.487966,570.931525 482.898966,566.614525 C481.348966,565.416525 480.139966,563.852525 479.241966,562.120525 C475.084966,554.105525 473.430966,544.827525 471.059966,536.185525 C466.8633,520.695525 462.507633,505.250525 457.992966,489.850525 C455.312966,480.755525 452.836966,470.743525 448.616966,462.221525 C447.574966,460.117525 446.595966,458.530525 444.743966,457.072525 C443.398966,456.755525 443.418966,456.775525 442.178966,457.396525 C441.213966,458.807525 441.051966,459.362525 441.126966,461.072525 C441.474966,468.998525 446.958966,485.143525 449.371966,493.660525 C453.460633,508.131858 457.4463,522.631525 461.328966,537.159525 C462.831966,542.770525 465.637966,549.948525 465.546966,555.734525 C465.168966,556.265525 465.167966,556.332525 464.583966,556.794525 C462.930966,558.100525 459.296966,558.425525 457.202966,558.673525 C440.413966,560.661525 430.670966,557.162525 414.715966,554.769525 C409.565966,554.006858 404.387966,553.618192 399.181966,553.603525 C387.473966,553.577525 376.232966,555.918525 364.723966,557.658525 C342.702966,560.988525 322.127966,559.280525 300.529966,554.105525 C297.036966,552.810525 293.152966,551.983525 289.533966,551.043525 C275.106966,547.293525 263.451966,546.500525 248.888966,550.028525 C247.882966,541.459525 248.057966,533.384525 249.876966,524.926525 C250.767966,520.782525 252.053966,516.604525 252.496966,512.386525 C253.489966,502.920525 253.387966,493.162525 253.883966,483.645525 C254.524966,471.358525 255.905966,458.856525 255.308966,446.556525 C255.239966,445.133525 255.104966,443.137525 254.214966,441.948525 C253.480966,440.966525 252.982966,441.020525 251.896966,441.019525 C251.090966,441.596525 250.654966,442.142525 250.243966,443.031525 C245.848966,452.544525 244.733966,500.630525 243.681966,513.818525 C243.009966,522.248525 238.702966,529.678525 238.299966,538.115525 C238.059966,543.116525 238.642966,548.412525 240.425966,553.098525 C235.421966,555.733525 231.238966,558.967525 226.878966,562.559525 C215.704966,562.056525 199.498966,554.909525 191.796966,546.818525 C190.532966,524.219525 218.771966,450.362525 230.774966,428.137525 C234.138966,421.907525 238.053966,416.373525 242.580966,410.939525 C246.591966,416.408525 250.711966,421.587525 256.108966,425.764525 C260.186966,428.921525 264.791966,431.496525 269.091966,434.342525 C277.766966,440.083525 296.139966,453.865525 306.734966,452.560525 L307.215966,450.629525 C306.515966,449.241525 304.780966,447.913525 303.543966,447.023525 C300.312966,444.699525 296.468966,442.892525 293.027966,440.874525 C283.939966,435.545525 274.425966,429.878525 266.314966,423.134525 C259.866966,417.773525 254.924966,411.193525 250.161966,404.359525 C258.233966,407.085525 265.219966,409.177525 273.833966,409.112525 C281.876966,417.151525 292.493966,422.787525 301.738966,429.339525 C312.647966,437.070525 322.789966,445.610525 334.473966,452.208525 C348.6753,444.189858 362.2653,435.242525 375.243966,425.366525 C380.038966,421.728525 387.073966,413.960525 391.847966,411.500525 C399.434966,407.589525 409.251966,406.063525 417.439966,403.374525 C444.255966,394.565525 464.352966,384.956525 486.672966,367.551525 Z"/><path fill="#FAC3B7" fill-rule="nonzero" d="M165.823966,206.424525 C155.344966,204.519525 145.642966,200.154525 136.880966,194.143525 C115.832966,179.702525 104.155966,156.451525 99.7449662,131.827525 C94.1589662,100.645525 100.674966,67.3735249 118.923966,41.3144249 C129.394966,26.3620249 143.969966,15.5886249 162.200966,12.5322249 C178.648966,9.77482489 195.211966,14.3725249 208.599966,24.1213249 C232.353966,41.4191249 247.009966,69.6675249 251.496966,98.3355249 C243.183966,103.450525 235.115966,108.581525 227.358966,114.513525 C226.844966,96.7405249 220.973966,77.5945249 211.663966,62.4745249 C202.930966,48.2918249 190.073966,35.6521249 173.427966,31.7590249 C162.821966,29.2787249 151.349966,30.5383249 142.084966,36.4666249 C134.584966,41.2652249 128.893966,47.7341249 126.937966,56.5873249 C127.228966,56.4712249 127.521966,56.3600249 127.810966,56.2391249 C131.481966,54.7043249 134.900966,51.4688249 138.355966,49.3683249 C149.619966,42.5205249 163.314966,40.4385249 175.798966,45.1680249 C190.730966,50.8251249 201.301966,64.9465249 207.552966,79.1095249 C213.667966,92.9685249 216.297966,108.152525 217.150966,123.202525 C196.347966,144.136525 179.451966,168.260525 169.373966,196.157525 L165.823966,206.424525 Z"/><path fill="#F2F2F4" fill-rule="nonzero" d="M165.823966,206.424525 C155.344966,204.519525 145.642966,200.154525 136.880966,194.143525 C115.832966,179.702525 104.155966,156.451525 99.7449662,131.827525 C94.1589662,100.645525 100.674966,67.3735249 118.923966,41.3144249 C129.394966,26.3620249 143.969966,15.5886249 162.200966,12.5322249 C178.648966,9.77482489 195.211966,14.3725249 208.599966,24.1213249 C232.353966,41.4191249 247.009966,69.6675249 251.496966,98.3355249 C243.183966,103.450525 235.115966,108.581525 227.358966,114.513525 C226.844966,96.7405249 220.973966,77.5945249 211.663966,62.4745249 C202.930966,48.2918249 190.073966,35.6521249 173.427966,31.7590249 C162.821966,29.2787249 151.349966,30.5383249 142.084966,36.4666249 C134.584966,41.2652249 128.893966,47.7341249 126.937966,56.5873249 C116.474966,67.7725249 109.857966,97.5875249 110.373966,112.833525 C111.191966,136.952525 118.835966,162.999525 137.033966,179.843525 C146.205966,188.332525 157.283966,193.409525 169.373966,196.157525 L165.823966,206.424525 Z"/><path fill="#487598" fill-rule="nonzero" d="M395.907966 563.835525C422.110966 561.546525 438.294966 575.782525 468.461966 566.591525 472.207966 572.098525 475.543966 578.536525 475.704966 585.336525 475.865966 592.166525 472.881966 598.797525 468.063966 603.573525 456.849966 614.691525 436.037966 616.709525 421.162966 616.658525 421.213966 613.651525 421.340966 610.612525 421.260966 607.606525 421.213966 605.836525 420.922966 604.297525 419.440966 603.163525 418.355966 602.334525 417.572966 602.269525 416.262966 602.334525 412.692966 606.001525 410.249966 645.285525 409.471966 653.424525 408.903966 658.890525 408.753966 665.252525 407.272966 670.537525 406.754966 672.386525 406.148966 673.999525 404.350966 674.921525 401.104966 676.585525 396.647966 677.065525 393.067966 677.701525 373.163966 681.232525 357.784966 678.101525 338.864966 672.172525 337.635966 669.559525 337.086966 666.808525 336.848966 663.947525 335.753966 650.809525 337.369966 612.918525 340.752966 601.110525 341.2223 599.412525 341.782633 597.745192 342.433966 596.108525 343.0853 594.472525 343.823633 592.876192 344.648966 591.319525 345.4743 589.764192 346.381966 588.257858 347.371966 586.800525 348.361966 585.343858 349.4283 583.945192 350.570966 582.604525 362.557966 568.723525 378.350966 565.046525 395.907966 563.835525ZM262.565966 557.824525C275.642966 556.446525 288.442966 561.932525 300.940966 564.826525 316.790966 568.497525 332.838966 570.643525 349.121966 569.621525 334.536966 582.417525 331.587966 592.570525 327.944966 610.886525 319.027966 612.438525 309.398966 613.078525 300.393966 612.083525 300.734966 607.398525 302.371966 600.192525 299.864966 596.108525 299.075966 595.490525 298.579966 595.111525 297.536966 595.009525 296.345966 594.893525 295.335966 595.210525 294.534966 596.124525 291.196966 599.936525 289.801966 629.796525 289.577966 635.952525 288.422966 645.373525 288.895966 654.830525 286.299966 664.075525 285.742633 664.258858 285.182633 664.434858 284.619966 664.603525 264.360966 670.668525 237.139966 671.273525 218.132966 661.091525L218.072966 660.577525C215.723966 640.049525 215.320966 610.198525 222.570966 590.827525 224.726966 585.066525 227.995966 579.747525 231.839966 574.962525 239.970966 564.839525 249.634966 559.185525 262.565966 557.824525Z"/><path fill="#FAC3B7" fill-rule="nonzero" d="M656.121966,368.323525 C660.664966,368.142525 665.486966,368.239924 670.002966,368.764525 C683.426966,370.323525 696.637966,377.728525 704.996966,388.365525 C713.542966,399.240525 715.109966,410.648525 713.567966,424.041525 C709.640966,410.452525 702.044966,397.411525 689.548966,390.090525 C688.929633,389.729192 688.301633,389.383858 687.664966,389.054525 C687.0283,388.724525 686.383633,388.410858 685.730966,388.113525 C685.0783,387.816192 684.418633,387.535525 683.751966,387.271525 C683.085966,387.006858 682.4133,386.759525 681.733966,386.529525 C681.0553,386.298858 680.370966,386.085192 679.680966,385.888525 C678.991633,385.692525 678.297633,385.513858 677.598966,385.352525 C676.9003,385.191192 676.197966,385.047525 675.491966,384.921525 C674.785966,384.795525 674.0773,384.687192 673.365966,384.596525 C672.654633,384.505858 671.941633,384.432858 671.226966,384.377525 C670.5123,384.322858 669.796633,384.286192 669.079966,384.267525 C668.362633,384.248192 667.645633,384.247192 666.928966,384.264525 C666.2123,384.281192 665.4963,384.316192 664.780966,384.369525 C664.0663,384.422192 663.352966,384.492858 662.640966,384.581525 C661.929633,384.670192 661.220966,384.776858 660.514966,384.901525 C659.808966,385.025525 659.1063,385.167192 658.406966,385.326525 C657.707633,385.485858 657.012966,385.662858 656.322966,385.857525 C647.683966,388.217525 639.688966,392.971525 634.088966,400.038525 C612.662966,427.076525 635.750966,467.302525 638.014966,497.171525 C639.444966,516.039525 635.925966,533.347525 626.507966,549.793525 C615.768966,566.335525 604.274966,573.909525 587.037966,582.661525 C584.972633,581.641525 582.870966,580.703525 580.732966,579.847525 C578.5943,578.991525 576.425966,578.220192 574.227966,577.533525 C572.0293,576.846858 569.8073,576.247192 567.561966,575.734525 C565.316633,575.221192 563.054633,574.796192 560.775966,574.459525 C561.131966,572.058525 561.182966,569.617525 561.303966,567.194525 C577.143966,561.956525 591.108966,554.576525 601.767966,541.388525 C615.912966,523.884525 619.151966,500.821525 614.817966,479.201525 C611.963966,464.968525 607.151966,450.855525 605.648966,436.401525 C603.834966,418.972525 607.200966,402.061525 618.447966,388.269525 C628.282966,376.208525 640.696966,369.844525 656.121966,368.323525 Z"/><path fill="#F2F2F4" fill-rule="nonzero" d="M343.924966 684.065525C360.705966 692.082525 387.677966 688.748525 405.159966 684.680525 405.309966 689.680525 405.075966 694.662525 404.457966 699.626525 402.339966 715.738525 395.015966 729.284525 381.963966 739.166525 378.468966 741.812525 371.036966 747.113525 366.583966 746.523525 361.687966 742.825525 369.192966 728.618525 367.831966 723.604525 366.769966 722.754525 366.691966 722.865525 365.309966 722.897525 354.580966 732.392525 360.640966 741.357525 356.949966 746.426525 353.449966 748.546525 349.421966 747.719525 345.505966 747.498525 332.048966 736.701525 344.259966 719.634525 341.781966 714.666525 341.320966 714.476525 340.883966 714.263525 340.373966 714.217525 339.237966 714.116525 338.171966 714.671525 337.370966 715.430525 331.665966 720.831525 331.219966 732.392525 330.788966 739.679525 327.220966 735.867525 324.829966 731.579525 324.319966 726.311525 322.846966 711.097525 334.634966 694.934525 343.924966 684.065525ZM282.382966 674.221525 282.984966 674.376525C283.324966 674.939525 283.460966 675.095525 283.654966 675.815525 285.733966 683.483525 283.289966 695.539525 279.802966 702.463525 273.221966 715.532525 262.815966 728.986525 248.146966 733.405525 246.128966 734.013525 244.620966 734.151525 242.707966 733.159525 238.521966 728.641525 243.113966 717.792525 243.104966 711.991525 242.414966 710.931525 242.458966 710.983525 241.229966 710.671525 240.352966 710.960525 239.778966 711.339525 239.137966 711.989525 232.830966 718.382525 233.066966 727.299525 233.258966 735.603525 230.389966 736.160525 227.338966 736.821525 224.415966 736.456525 219.687966 735.865525 217.007966 733.369525 214.256966 729.683525 214.215966 726.463525 214.322966 723.390525 214.702966 720.191525 215.244966 715.717525 218.412966 709.951525 217.686966 705.627525 217.502966 704.524525 217.347966 704.430525 216.489966 703.832525 214.807966 704.084525 213.671966 705.284525 212.635966 706.554525 206.985966 713.479525 207.446966 724.379525 205.504966 726.611525L204.578966 726.526525C202.117966 724.101525 200.904966 718.599525 200.714966 715.190525 199.847966 699.598525 214.152966 685.518525 223.587966 674.667525 242.741966 681.306525 263.092966 678.717525 282.382966 674.221525ZM553.829966 582.589525C557.403966 582.877525 561.382966 583.920525 564.873966 584.809525 575.116966 587.418525 588.293966 591.982525 593.792966 601.807525 595.946966 605.657525 596.986966 610.965525 595.560966 615.241525 594.316966 618.971525 591.446966 620.585525 588.126966 622.169525 587.736966 617.824525 587.210966 613.421525 585.494966 609.367525 582.611966 602.558525 576.933966 599.282525 570.419966 596.612525 567.435966 595.389525 561.297966 593.632525 558.248966 594.865525L558.208966 595.842525C561.743966 600.680525 568.614966 601.946525 573.016966 605.885525 573.2383 606.086192 573.4543 606.292525 573.664966 606.504525 573.874966 606.715858 574.079966 606.932525 574.279966 607.154525 574.4793 607.376525 574.672966 607.603525 574.860966 607.835525 575.048966 608.067525 575.230966 608.304192 575.406966 608.545525 575.5823 608.786858 575.751966 609.032525 575.915966 609.282525 576.0793 609.532525 576.235966 609.786525 576.385966 610.044525 576.536633 610.301858 576.680633 610.563192 576.817966 610.828525 576.954633 611.093858 577.084633 611.362525 577.207966 611.634525 577.331966 611.906525 577.448633 612.181192 577.557966 612.458525 577.6673 612.736525 577.769633 613.017192 577.864966 613.300525 577.959633 613.583192 578.0473 613.868192 578.127966 614.155525 578.208633 614.442858 578.281966 614.732192 578.347966 615.023525 578.413966 615.314858 578.4723 615.607525 578.522966 615.901525 578.5743 616.196192 578.617633 616.491525 578.652966 616.787525 578.688966 617.084192 578.717633 617.381525 578.738966 617.679525 578.759633 617.976858 578.772633 618.274858 578.777966 618.573525 578.847966 621.136525 578.233966 623.804525 576.311966 625.618525 576.114633 625.805192 575.9083 625.981192 575.692966 626.146525 575.477633 626.311858 575.2543 626.465858 575.022966 626.608525 574.791633 626.751192 574.553966 626.881858 574.309966 627.000525 574.0653 627.119192 573.8153 627.224858 573.559966 627.317525 573.304633 627.410192 573.0453 627.489858 572.781966 627.556525 572.518633 627.622525 572.252633 627.675192 571.983966 627.714525 571.7153 627.753858 571.4453 627.779525 571.173966 627.791525 570.902633 627.802858 570.6313 627.800525 570.359966 627.784525 562.253966 627.281525 561.391966 620.485525 558.172966 614.887525 557.299966 613.369525 556.086966 611.994525 554.971966 610.648525 554.840966 610.529525 554.711966 610.408525 554.578966 610.291525 550.781966 606.981525 541.094966 600.159525 535.806966 601.267525 534.453966 601.551525 534.222966 601.903525 533.395966 602.914525 533.782966 606.749525 549.227966 610.560525 553.526966 624.941525 550.730966 626.413525 548.528966 627.222525 545.323966 627.346525 532.536966 627.837525 520.936966 620.013525 509.327966 615.734525 505.830966 614.445525 501.871966 614.786525 499.043966 612.002525 494.504966 607.533525 494.668966 601.491525 494.784966 595.611525 516.360966 599.493525 535.723966 594.305525 553.829966 582.589525ZM180.263966 571.807525C183.115966 573.139525 185.690966 576.390525 188.486966 578.089525 195.542966 582.379525 203.278966 584.973525 211.066966 587.540525 209.148966 593.914525 208.154966 600.632525 207.493966 607.241525 198.610966 611.458525 188.246966 617.770525 178.204966 617.717856 176.058966 617.706525 173.762966 617.504525 172.240966 615.912525 172.111966 615.053525 171.973966 614.212525 172.058966 613.341525 172.781966 605.937525 181.153966 602.123525 186.097966 597.770525 187.588966 596.457525 189.192966 594.972525 189.354966 592.912525L188.495966 592.205525C185.749966 591.987525 183.005966 593.275525 180.530966 594.342525 176.034966 596.279525 171.587966 598.522525 168.274966 602.233525 164.657966 606.285525 163.505966 614.283525 158.699966 616.531525 158.557966 616.598525 158.413966 616.660525 158.269966 616.724525 155.706966 616.839525 152.849966 617.150525 150.562966 615.735525 148.892966 614.703525 147.718966 613.099525 147.338966 611.172525 146.924966 609.069525 147.420966 606.967525 148.205966 605.014525 152.428966 594.507525 164.174966 593.789525 168.587966 586.879525 169.219966 585.889525 169.218966 585.732525 168.997966 584.646525 168.553966 584.379525 168.333966 584.205525 167.775966 584.100525 163.447966 583.279525 155.059966 586.481525 151.252966 588.601525 142.419966 593.521525 140.202966 602.113525 137.677966 611.086525 135.241966 609.230525 133.291966 607.246525 132.577966 604.174525 131.528966 599.667525 132.275966 594.669525 134.837966 590.808525 143.607966 577.596525 166.001966 574.684525 180.263966 571.807525Z"/><path fill="#E4E4E4" fill-rule="nonzero" d="M211.266966 742.297525C214.838966 743.919525 218.068966 745.455525 221.991966 746.109525 227.492966 747.027525 245.805966 745.027525 251.659966 743.853525 252.855966 755.352525 254.026966 777.790525 247.205966 787.246525 246.813966 787.653858 246.416633 788.055858 246.013966 788.452525 241.734966 792.685525 236.110966 794.100525 230.204966 793.970525 225.031966 793.856525 220.166966 792.371525 216.590966 788.465525 208.057966 779.145525 210.987966 754.532525 211.266966 742.297525ZM318.295966 766.644525C326.554966 766.661525 343.951966 764.511525 350.104966 769.737525 352.760966 771.994525 354.109966 775.387525 354.222966 778.829525 354.361966 783.041525 352.339966 786.119525 349.577966 789.087525 348.458966 789.952525 347.308966 790.866525 345.937966 791.286525 339.748966 793.178525 325.363966 792.093525 317.785966 792.631525 317.076966 784.373525 317.178966 774.857525 318.295966 766.644525Z"/><path fill="#7A7BBE" fill-rule="nonzero" d="M547.626966,563.535525 C547.709966,563.618525 547.802966,563.693525 547.875966,563.785525 C549.280966,565.563525 549.258966,567.304525 548.864966,569.421525 C547.947966,574.343525 544.831966,577.893525 540.712966,580.531525 C527.083966,589.255525 505.618966,589.418525 490.325966,586.073525 C489.336966,585.852525 488.649966,585.606525 487.779966,585.084525 C486.600966,583.024525 486.731966,580.298525 486.560966,577.967525 C492.267966,577.801525 497.959966,578.152525 503.681966,577.850525 C519.455966,577.017525 534.346966,571.946525 547.626966,563.535525 Z"/><path fill="#F2F2F4" fill-rule="nonzero" d="M373.866966,413.873525 C374.339966,413.843525 374.806966,413.986525 375.270966,414.078525 C373.414966,418.553525 340.529966,437.595525 334.647966,441.122525 C332.205966,439.677525 329.849966,437.995525 327.478966,436.431525 C324.493966,434.346525 321.582966,432.143525 318.648966,429.986525 C338.804966,431.004525 351.393966,425.903525 367.485966,414.027525 L373.866966,413.873525 Z"/><path fill="#7A7BBE" fill-rule="nonzero" d="M188.540966,554.967525 C197.574966,562.846525 209.178966,566.587525 220.517966,569.891525 C219.148966,572.273525 217.526966,574.581525 216.041966,576.897525 C215.796966,577.240525 215.267966,577.650525 214.953966,577.942525 C208.905966,578.029525 199.815966,573.847525 194.676966,570.696525 C191.176966,568.549525 187.159966,565.305525 186.348966,561.040525 C185.869966,558.518525 187.194966,556.948525 188.540966,554.967525 Z"/><path fill="#E4E4E4" fill-rule="nonzero" d="M317.648966,740.016525 C319.906966,742.578525 321.891966,745.599525 324.042966,748.282525 L317.391966,748.160525 L317.648966,740.016525 Z"/><path stroke="#313945" stroke-width="10" d="M210.558136 644.641056C222.231847 653.246111 238.745095 656.654965 260.097878 654.867619 283.839628 652.880303 291.520794 652.176834 291.520794 652.176834M332.558136 655.641056C340.235951 662.458764 356.749198 665.867619 382.097878 665.867619 406.203912 665.867619 413.473427 659.996902 413.473427 659.996902"/></g></svg>