<?xml version="1.0" encoding="UTF-8" standalone="no"?><!DOCTYPE svg PUBLIC "-//W3C//DTD SVG 1.1//EN" "http://www.w3.org/Graphics/SVG/1.1/DTD/svg11.dtd"><svg width="100%" height="100%" viewBox="0 0 15646 15038" version="1.1" xmlns="http://www.w3.org/2000/svg" xmlns:xlink="http://www.w3.org/1999/xlink" xml:space="preserve" xmlns:serif="http://www.serif.com/" style="fill-rule:evenodd;clip-rule:evenodd;stroke-linejoin:round;stroke-miterlimit:2;"><g><path d="M5011.17,9147.79c31.796,100.533 160.166,816.929 228.183,906.883c68.017,89.95 98.254,65.142 162.554,-101.354c64.296,-166.496 53.525,-243.354 22.067,-415.504c-31.458,-172.154 -444.596,-490.559 -412.804,-390.025Z" style="fill:#f2f2f4;fill-rule:nonzero;"/><path d="M4006.23,3.771c233.417,-17.071 491.838,80.304 684.375,206.204c534.755,349.696 812.605,954.642 939.338,1559.92c39.479,-5.992 78.629,-13.663 117.829,-21.163c-4.512,-51.304 -14.079,-114.533 -2.325,-164.983c6.617,-28.454 21.113,-51.617 46.563,-66.946c118.004,-71.092 376.858,-16.754 504.445,12.846c-19.55,-43.646 -39.879,-88.417 -52.291,-134.667c-17.9,-66.562 -19.254,-134.187 18.558,-194.308c25.883,-41.146 63.925,-66.058 111.771,-74.233c176.683,-30.23 525.137,150.5 682.742,242.133c83.004,48.246 172.708,118.854 264.375,147.325c105.975,32.9 230.416,26.063 340.4,48.163c391.458,78.662 855.991,204.633 1187.14,437.933c152.063,-475.938 325.5,-856.217 643.904,-1244.98c126.146,-154.017 266.875,-300.029 426.909,-419.108c96.687,-71.942 359.15,-256.317 485.229,-233.471c25.85,4.687 50.796,16.896 64.441,40.358c12.38,21.283 5.209,44.475 0.434,66.883l-2.188,9.875c12.45,10.496 36.008,-3.487 51.479,-8.704c154.963,-52.296 306.667,-94.225 471.875,-93.116c334.096,2.237 653.505,161.941 884.271,398.266c402.413,412.1 544.6,994.217 537.396,1555.87c-7.017,546.162 -217.85,1088.32 -612.329,1470.45c-404.463,391.808 -949.167,584.254 -1509.15,576.979c121.929,396.563 197.833,783.229 195.383,1199.69c95.971,24.933 188.492,52.17 277.813,95.975c170.537,83.591 300.262,217.775 361.25,399.458c62.795,187.05 55.625,449.708 -32.655,627.467c89.825,189.67 157.15,396.095 137.726,608.75c-33.63,368.004 -245.088,635.695 -517.917,865.07c155.258,31.58 319.2,56.005 466.821,115.571c101.562,40.975 196.25,108.371 237.933,213.421c26.512,66.804 25.975,140.921 23.683,211.683c-8.996,277.971 -164.637,1284 -269.325,1516.16c-45.762,101.512 -120.641,132.708 -219.025,169.829c-30.054,327.95 -96.146,647.204 -160.712,969.721c-28.059,140.175 -77.225,292.242 -83.35,434.287c125.866,95.85 231.091,214.221 341.458,326.825c138.871,141.717 288.192,277.134 455.675,384.617c295.763,189.825 658.717,280.625 1006.79,203.871c14.212,-3.171 28.345,-6.696 42.395,-10.571c14.042,-3.879 27.975,-8.096 41.809,-12.658c13.841,-4.559 27.554,-9.454 41.146,-14.688c13.595,-5.241 27.054,-10.816 40.362,-16.716c13.321,-5.905 26.488,-12.13 39.496,-18.684c13.008,-6.55 25.85,-13.425 38.525,-20.625c12.663,-7.187 25.146,-14.679 37.45,-22.479c12.3,-7.804 24.4,-15.904 36.3,-24.308c11.9,-8.4 23.583,-17.092 35.054,-26.075c11.479,-8.984 22.725,-18.234 33.729,-27.763c11.021,-9.533 21.796,-19.337 32.329,-29.408c10.521,-10.071 20.792,-20.388 30.817,-30.954c10.021,-10.579 19.771,-21.396 29.25,-32.45c9.492,-11.05 18.7,-22.338 27.625,-33.854c8.933,-11.513 17.575,-23.238 25.917,-35.171c8.346,-11.934 16.396,-24.071 24.15,-36.409c347.066,-558.108 -73.504,-1098.98 -327.95,-1587.05c-88.508,-169.813 -162.204,-349.117 -203.854,-536.546c-3.034,-13.521 -5.892,-27.079 -8.575,-40.679c-2.7,-13.588 -5.234,-27.205 -7.604,-40.85c-2.363,-13.659 -4.559,-27.338 -6.584,-41.042c-2.037,-13.717 -3.9,-27.446 -5.587,-41.196c-1.704,-13.75 -3.229,-27.521 -4.584,-41.304c-1.354,-13.796 -2.545,-27.604 -3.579,-41.425c-1.016,-13.804 -1.866,-27.629 -2.55,-41.475c-0.683,-13.842 -1.2,-27.692 -1.546,-41.546c-0.345,-13.854 -0.525,-27.708 -0.537,-41.562c-0.013,-13.855 0.15,-27.709 0.487,-41.563c0.321,-13.842 0.821,-27.683 1.492,-41.525c0.671,-13.842 1.504,-27.675 2.5,-41.496c1.008,-13.816 2.179,-27.625 3.525,-41.421c1.342,-13.787 2.85,-27.554 4.529,-41.304c1.679,-13.758 3.525,-27.491 5.538,-41.196c2.016,-13.716 4.196,-27.404 6.546,-41.058c2.337,-13.646 4.85,-27.271 7.537,-40.871c2.671,-13.6 5.513,-27.158 8.521,-40.675c3.021,-13.529 6.2,-27.021 9.533,-40.471c3.346,-13.445 6.846,-26.85 10.504,-40.208c3.667,-13.354 7.5,-26.671 11.492,-39.946c3.992,-13.266 8.142,-26.483 12.45,-39.654c4.317,-13.171 8.796,-26.283 13.438,-39.342c4.629,-13.054 9.42,-26.05 14.374,-38.991c4.951,-12.938 10.063,-25.821 15.33,-38.646c5.254,-12.813 10.671,-25.563 16.25,-38.246c5.579,-12.683 11.308,-25.3 17.187,-37.846c5.892,-12.546 11.934,-25.021 18.125,-37.416c6.179,-12.396 12.517,-24.713 19.008,-36.959c6.496,-12.233 13.134,-24.396 19.913,-36.479c6.783,-12.083 13.717,-24.079 20.8,-35.987c7.071,-11.909 14.296,-23.734 21.667,-35.471c236.458,-370 577.258,-626.7 1010.26,-718.975c405.538,-86.421 809.271,-7.046 1155.87,218.662c350.383,228.179 595.712,613.388 678.904,1020.66c55.958,273.904 34.254,683.108 -132.254,921.233c-25.017,35.763 -60.367,72.813 -106.771,75.9c-52.275,3.454 -106.808,-45.433 -127.571,-90.208c-34.479,-74.304 -28.592,-190.225 -37.675,-272.5c-35.796,-323.959 -163.871,-649.184 -398.296,-881.109c-191.683,-189.637 -435.52,-287.466 -704.62,-283.404c-12.95,0.079 -25.892,0.488 -38.817,1.217c-12.929,0.729 -25.829,1.787 -38.7,3.175c-12.871,1.387 -25.7,3.104 -38.488,5.137c-12.791,2.03 -25.516,4.384 -38.179,7.067c-12.671,2.675 -25.266,5.667 -37.775,8.975c-12.525,3.325 -24.95,6.954 -37.275,10.888c-12.337,3.945 -24.566,8.2 -36.683,12.758c-12.121,4.562 -24.117,9.425 -35.992,14.583c-11.875,5.163 -23.612,10.625 -35.208,16.392c-11.596,5.762 -23.038,11.812 -34.321,18.142c-11.3,6.341 -22.421,12.962 -33.371,19.862c-10.958,6.896 -21.733,14.071 -32.325,21.525c-10.604,7.442 -21,15.146 -31.2,23.108c-10.208,7.975 -20.2,16.2 -29.979,24.671c-9.792,8.484 -19.367,17.204 -28.717,26.163c-9.354,8.958 -18.466,18.15 -27.345,27.571c-106.525,110.883 -182.775,253.487 -220.938,402.116c-146.717,571.217 275.279,1031.47 496.6,1516.39c112.708,246.962 189.046,512.05 191.7,784.966c4.342,446.93 -152.325,853.367 -468.679,1171.27c-350.904,352.621 -824.167,523.404 -1318.61,522.971c-632.675,-0.575 -1213.3,-297.329 -1651.18,-738.733c10.867,417.083 36.996,833.87 48.663,1250.99c3.279,117.746 18.612,236.079 15.921,353.771c-0.888,38.958 -0.175,85.329 -21.546,119.062c-45.209,71.421 -142.429,99.617 -220.954,113.559c-129.359,22.95 -346.409,32.55 -456.163,-50.4c-60.471,-45.679 -71.754,-108.021 -81.896,-178.075l-36.021,-1105.03c-4.983,-199.166 6.98,-410.191 -18.108,-607.258c-151.233,40.246 -304.375,70.575 -457.9,100.558l-9.654,1214.67c-2.863,184.913 12.746,379.25 -9.096,562.709c-7.258,61.041 -23.092,154.65 -66.425,199.375c-66.442,68.558 -165.017,88.087 -256.858,91.354c-148.159,5.275 -373.125,15.312 -487.517,-96.913c-102.775,-100.816 -83.437,-300.121 -84.633,-431.7c-105.904,-23.316 -264.271,-19.446 -346.338,-98.212c-33.783,-32.429 -42.9,-93.821 -47.95,-138.038c-19.308,-168.404 -4.062,-353.35 2.463,-522.725l20.537,-706.408c-103,-15.225 -213.437,-10.883 -317.741,-13.158c-13.855,137.412 -43.28,274.462 -54.53,411.337c-6.145,74.913 6.059,152.5 5.85,227.813c-0.245,87.637 -10.745,176.233 -18.683,263.487c-25.625,30.279 -52.517,58.075 -81.004,85.679c11.667,123.942 28.333,343.088 20.467,461.909c-11.717,176.666 -120.713,324.254 -251.284,436.562c-328.075,282.188 -799.55,338.108 -1214.33,308.038l-18.871,25.487c-48.316,65.988 -103.679,116.492 -182.116,143.904c-159.48,55.767 -489.513,58.838 -640.625,-18.75c-222.138,-114.062 -99.496,-387.671 -159.117,-577.341c-61.25,-15.175 -281.996,69.808 -359.079,90.85c-420.484,114.791 -1161.23,249.741 -1551.96,17.345c-86.058,-51.2 -146.996,-132.45 -169.841,-230.141c-27.95,-119.546 -11.892,-245.171 55.52,-349.392c180.905,-279.704 427.467,-392.325 743.663,-458.246c-99.183,-222.362 -73.646,-379.325 -101.042,-609.479c-15.175,-127.467 -49.512,-253.283 -67.741,-380.696c-53.35,-373.191 -19.584,-642.587 46.108,-1005.57c-760.675,-9.845 -1521.18,-87.258 -2280.85,-123.075c1.446,628.059 -1.517,1256.09 -8.888,1884.1c-0.85,270.813 -10.625,539.617 -17.691,810.155c-2.55,97.708 9.721,198.575 -2.259,295.554c-7.479,60.471 -29.545,119.791 -72.445,164.204c-98.075,101.546 -269.317,124.671 -404.288,125.9c-128.333,1.167 -415.225,-0.242 -507.104,-98.454c-27.938,-29.859 -40.55,-72.55 -46.408,-112.117c-6.884,-46.546 -4.067,-95.054 -7.33,-141.996c-20.062,-288.958 -10.325,-580.833 -9.4,-870.871l16.33,-2124.65c-96.921,-4.687 -220.505,-19.845 -298.288,-81.875c-56.683,-45.208 -73.75,-121.475 -80.771,-190.208c-13.929,-136.354 -21.15,-351.979 73.521,-462.658c31.138,-36.404 67.771,-52.463 112.275,-67.221c171.146,-56.788 590.117,-100.867 782.008,-116.842c-50.825,-149.062 -81.225,-310.433 -119.762,-463.35c-81.904,-317.546 -161.267,-635.721 -238.083,-954.529l-191.796,-766.771c-34.617,-139.687 -77.254,-282.641 -97.117,-425.279c-9.746,-69.983 -4.392,-129.95 24.092,-195.433c26.979,-62.05 61.866,-101.288 125.983,-125.767c52.729,-20.121 105.038,-23.054 160.7,-22.879c231.338,0.692 465.617,16.546 696.913,25.987l1076.68,37.725c371.321,11.842 743.004,28.213 1114.34,36.738l580.954,16.146c115.954,2.916 232.866,0.554 348.629,7.483c47.987,2.883 99.55,10.4 143.071,31.804c51.146,25.175 81.616,79.95 102.746,130.592c38.733,92.846 54.633,196.875 76.145,294.946c45.884,209.271 83.855,426.546 146.546,631.25c118.438,-116.717 201.667,-295.292 290.763,-435.659c107.571,-169.462 225.987,-337.412 352.341,-493.404c-123.975,-60.396 -258.366,-101.958 -383.833,-161.508c-389.221,-184.721 -775.175,-444.808 -1047.73,-782.325c-92.829,-114.933 -168.904,-240 -245.9,-365.679c-202.867,1.458 -400.575,10.158 -602.171,34.496c-119.429,14.429 -238.908,39.445 -358.575,49.808c-34.621,3.004 -76.6,6.408 -109.725,-5.292c-15.954,-5.646 -18.004,-6.425 -25.417,-22c4.638,-14.166 9.221,-21.041 20.017,-31.854c144.342,-144.671 807.796,-202.883 1017.5,-199.725c-50.9,-131.754 -86.646,-264.304 -118.854,-401.442c-134.304,-50.52 -273.417,-91.645 -412.029,-128.504c-132.467,-35.208 -636.284,-129.15 -720.054,-198.925c1.32,-20.225 -0.121,-29.112 18.387,-41.946c49.046,-33.991 151.821,-17.983 209.008,-12.516c310.455,29.687 600.334,110.312 896.617,203.854c-76.721,-525.121 3.992,-1200.69 190.988,-1695.28c-244.496,-75.471 -436.388,-182.346 -630.796,-350.263c-399.879,-345.312 -615.121,-866.025 -650.054,-1385.45c-41.371,-615.208 118.37,-1286.04 532.85,-1756.35c224.095,-254.275 505.779,-404 844.791,-425.717Zm1351.04,9975.5c73.975,-121.163 81.229,-293.388 47.117,-429.446c-34.567,-137.796 -121.25,-249.737 -244.342,-320.4c-33.454,-19.2 -70.088,-34.354 -105.313,-50.033c30.434,118.854 175.017,808.283 223.838,875.262c38.958,-10.417 57.137,-43.354 78.7,-75.383Z" style="fill:#313945;fill-rule:nonzero;"/><path d="M10262.4,367.642c-39.392,69.479 -191.196,307.004 -173.367,375.783c3.492,-3.262 20.296,-19.283 23.925,-21.517c68.8,-42.466 128.838,-103.783 194.167,-153.15c188.175,-142.229 427.5,-235.091 665.017,-237.212c281.216,-2.358 527.883,116.962 724.825,312.775c352.658,350.625 499.95,860 502.021,1347.31c2.095,514.479 -156.88,1016.63 -526.38,1384.03c-396.733,394.463 -897.687,550.921 -1447.55,547.467l-82.516,-200.783l-27.05,-69.392c-28.946,-54.029 -57.592,-108.213 -85.938,-162.55c133.179,-223.004 267.883,-464.792 324.221,-720.558c12.917,-58.646 20.45,-132.671 -16.65,-184.65c-26.425,-37.017 -69.375,-50.488 -112.692,-54.792c-146.683,-14.567 -276.737,93.679 -381.529,181.196c56.129,-319.184 151.579,-643.421 285.433,-938.925c131.305,-289.825 432.555,-748.384 745.767,-866.125c208.125,-119.729 405.45,-126.488 634.546,-81.396c-154.771,-107.7 -333.767,-150.804 -520.208,-118.121c-343.696,60.258 -620.434,333.267 -810.259,609.879c-285.296,415.746 -422.533,904.88 -504.358,1396.32c-18.108,108.75 -50.488,263.975 -31.217,373.071c2.917,16.458 7.209,26.754 18.942,39.117c22.138,-0.992 32.554,-11.059 47.45,-26.771c147.412,-155.504 268.992,-340.8 484.704,-410.679c-45.346,285.591 -166.946,574.966 -316.283,822.762c50.867,168.038 125.291,329.113 178.558,497.15c207.429,654.5 374.271,1512.4 33.975,2147.14c-383.662,715.696 -1251.11,1106.89 -1993.94,1327.88c-169.212,49.721 -340.166,92.488 -512.862,128.296c-172.883,-0.171 -343.821,62.85 -515.35,71.6c-294.425,45.9 -761.492,-17.604 -1052.83,-86.479c-748.942,-177.084 -1472.1,-587.396 -1883.89,-1253.94c61.613,9.025 124.65,22.1 185.729,3.663l-0.454,-11.304c-55.85,-45.938 -154.425,-65.538 -223.729,-86.075c-72.275,-124.984 -107.971,-264.759 -148.387,-402.221c113.404,40.008 225.629,83.071 336.683,129.183c-53.333,-52.442 -109.642,-101.467 -168.921,-147.067c-66.792,-50.433 -143.058,-96.666 -200.333,-157.883c-4.675,-52.567 -8.425,-105.208 -11.25,-157.917c-2.821,-52.695 -4.721,-105.433 -5.692,-158.212c-0.975,-52.763 -1.021,-105.538 -0.142,-158.313c0.892,-52.766 2.705,-105.504 5.438,-158.212c2.742,-52.708 6.408,-105.354 11.004,-157.933c4.583,-52.584 10.092,-105.067 16.529,-157.45c6.446,-52.384 13.8,-104.642 22.067,-156.771c8.275,-52.129 17.462,-104.096 27.567,-155.904c10.104,-51.805 21.112,-103.413 33.02,-154.825c11.921,-51.413 24.742,-102.605 38.459,-153.575c13.712,-50.963 28.321,-101.675 43.816,-152.138c15.5,-50.45 31.875,-100.612 49.134,-150.483c17.266,-49.875 35.404,-99.434 54.408,-148.684c19.004,-49.233 38.871,-98.125 59.6,-146.666c20.721,-48.542 42.288,-96.7 64.708,-144.479c22.417,-47.775 45.671,-95.15 69.755,-142.117c212.62,-423.196 554.079,-842.604 966.633,-1085.26c161.25,-94.825 327.221,-157.725 503.767,-216.162c121.491,55.296 243.02,97.587 369.95,138.492c-114.084,-112.155 -207.971,-206.875 -265.609,-358.371c275.625,6.687 537.15,86.425 797.846,169.758c-36.7,-70.504 -90.208,-130.867 -138.575,-193.575c-84.1,-109.012 -141.408,-211.233 -189.029,-340.433c257.154,49.704 565.729,195.275 761.304,371.041c41.875,37.638 73,89.896 112.167,131.092l12.866,-0.658c11.25,-23.542 13.734,-35.142 10.713,-61.475c-1.788,-15.713 -3.092,-26.963 -2.396,-43.042c70.45,-3.175 148.992,14.917 218.733,25.608c440.538,67.605 892.584,223.542 1268.89,463.646c-9.446,69.792 -30.417,162.346 -4.238,230.434c8.092,21.025 18.734,32.916 39.271,42.433c27.692,2.621 44.013,-4.133 68.804,-14.517c26.788,-34.425 139.896,-485.812 172.813,-580.483c197.775,-568.75 611.942,-1258.34 1168.4,-1527.88Z" style="fill:#f2f2f4;fill-rule:nonzero;"/><path d="M10874.1,906.546c208.125,-119.729 405.45,-126.488 634.546,-81.396c228.125,128.737 385.021,413.858 453.788,657.646c27.587,97.792 56.371,216.508 50.296,318.054c11.42,126.196 16.058,255.521 -1.563,381.388c-1.25,101.599 -27.417,199.999 -56.217,296.666c-88.629,297.413 -221.304,538.213 -443.82,756.442c-281.734,276.304 -664.755,429.966 -1053.07,470.016c-103.163,10.642 -214.621,-1.787 -315.521,16.98l-27.05,-69.392c-28.946,-54.029 -57.592,-108.213 -85.938,-162.55c133.18,-223.004 267.884,-464.792 324.221,-720.558c12.917,-58.646 20.45,-132.671 -16.65,-184.65c-26.425,-37.017 -69.375,-50.488 -112.691,-54.792c-146.684,-14.567 -276.738,93.679 -381.53,181.196c56.13,-319.184 151.58,-643.421 285.434,-938.925c131.304,-289.825 432.554,-748.384 745.766,-866.125Z" style="fill:#fac3b7;fill-rule:nonzero;"/><path d="M10874.1,906.546l15.313,-0.488c20.121,-0.695 51.3,-9.72 66.804,1.113c-9.375,14.65 -14.967,18.416 -27.95,28.871c-60.521,48.712 -128.35,113.316 -176.546,174.166c-180.641,228.054 -398.262,697.863 -425.121,986.025c-22.554,242.1 30.275,339.963 86.459,563.055c41.7,165.537 57.012,395.05 15.171,560.258c-16.23,64.083 -44.392,122.604 -73.521,181.617c-36.496,73.941 -71.288,152.675 -134.792,207.724c-22.571,19.567 -51.183,42.396 -82.642,40.625c-3.629,-0.208 -7.237,-1.908 -10.833,-1.337c-3.942,0.625 -7.308,3.179 -10.954,4.775c-28.946,-54.029 -57.592,-108.213 -85.938,-162.55c133.18,-223.004 267.884,-464.792 324.221,-720.558c12.917,-58.646 20.45,-132.671 -16.65,-184.65c-26.425,-37.017 -69.375,-50.488 -112.691,-54.792c-146.684,-14.567 -276.738,93.679 -381.53,181.196c56.13,-319.184 151.58,-643.421 285.434,-938.925c131.304,-289.825 432.554,-748.384 745.766,-866.125Z" style="fill:#e1a39e;fill-rule:nonzero;"/><path d="M7705.21,4368.38c112.342,-12.779 216.109,2.533 314.496,61.667c149.896,90.07 240.921,248.837 280.538,415.625c47.325,199.271 23.229,419.046 -86.388,594.445c-85.246,136.388 -211.271,218.109 -366.512,253.088c-109.321,18.979 -227.1,-1.125 -325.642,-52.117c-137.45,-71.145 -235.679,-205.258 -279.808,-351.77c-58.838,-195.296 -34.134,-433.525 63.504,-612.275c91.896,-168.246 219.358,-254.984 399.812,-308.663Z" style="fill:#313945;fill-rule:nonzero;"/><path d="M7660.12,4566.58c27.467,4.634 54.617,9.55 79.304,23.196c5.142,2.879 10.121,6 14.95,9.354c4.825,3.371 9.484,6.963 13.975,10.784c4.479,3.808 8.763,7.829 12.846,12.066c4.088,4.234 7.958,8.663 11.617,13.279c3.654,4.609 7.083,9.384 10.275,14.325c3.196,4.955 6.141,10.046 8.837,15.275c2.688,5.234 5.117,10.588 7.292,16.063c2.175,5.462 4.079,11.021 5.712,16.683c2.142,7.825 3.871,15.742 5.192,23.75c1.321,8.009 2.221,16.063 2.708,24.167c0.488,8.1 0.55,16.208 0.192,24.321c-0.35,8.104 -1.117,16.171 -2.308,24.204c-1.196,8.021 -2.796,15.967 -4.813,23.833c-2.012,7.863 -4.425,15.6 -7.237,23.213c-2.825,7.604 -6.029,15.046 -9.617,22.329c-3.592,7.279 -7.542,14.354 -11.858,21.229c-34.029,54.479 -72.746,74.446 -133.317,90.104c-22.829,-1.579 -45.242,-3.279 -66.858,-11.437c-42.292,-15.959 -79.15,-53.613 -94.929,-95.834c-20.817,-55.625 -15.905,-120.712 8.991,-174.166c32.588,-69.934 78.975,-100.384 149.046,-126.738Z" style="fill:#fff;fill-rule:nonzero;"/><path d="M5761.58,5958.04c134.529,-12.275 290.067,-5.504 413.734,54.358c67.116,32.483 126.354,84.863 149.233,157.796c22.883,72.9 2.917,154.112 -32.117,219.721c-77.708,145.52 -207.137,199.221 -355.45,245.016c1.563,77.746 7.863,156.409 35.417,229.742c2.429,6.537 5.017,13.012 7.758,19.425c2.755,6.413 5.659,12.75 8.717,19.013c3.067,6.262 6.283,12.445 9.65,18.558c3.371,6.112 6.888,12.133 10.558,18.071c3.667,5.929 7.475,11.766 11.421,17.521c3.959,5.737 8.059,11.383 12.292,16.925c4.237,5.545 8.608,10.979 13.108,16.304c4.504,5.32 9.133,10.537 13.892,15.641c4.767,5.092 9.65,10.067 14.65,14.93c5.012,4.849 10.142,9.579 15.383,14.183c5.229,4.608 10.579,9.079 16.042,13.421c5.462,4.329 11.029,8.525 16.7,12.587c5.671,4.075 11.437,7.996 17.292,11.771c5.87,3.775 11.825,7.4 17.866,10.883c6.042,3.488 12.163,6.821 18.367,10c6.217,3.184 12.5,6.213 18.854,9.084c188.854,85.45 435,64.425 623.663,-9.813c186.912,-73.541 415.329,-229.146 497.241,-418.991c-35.904,-23.23 -95.4,-52.759 -101.737,-99.321c-3.038,-22.45 7.137,-39.621 22.083,-55.296c22.554,-23.683 61.979,-35.921 93.942,-33.958c85.329,5.208 171.091,68.904 225.312,131.162c34.738,39.879 68.246,86.233 64.046,141.196c-8.612,14.292 -9.95,20.296 -24.95,29.029c-42.933,25 -106.25,0.471 -151.337,-10.033c-88.159,143.487 -172.325,231.941 -304.167,334.358c-16.342,11.979 -32.992,23.517 -49.946,34.617c-16.958,11.087 -34.196,21.716 -51.721,31.891c-17.521,10.175 -35.304,19.875 -53.35,29.096c-18.041,9.217 -36.316,17.942 -54.825,26.184c-18.508,8.25 -37.221,15.995 -56.146,23.229c-18.937,7.246 -38.045,13.975 -57.325,20.191c-19.283,6.225 -38.716,11.925 -58.3,17.1c-19.595,5.184 -39.312,9.838 -59.15,13.959c-242.587,52.983 -458.037,28.8 -668.508,-105.246c-50.571,10.521 -103.75,17.171 -155.346,19.204c-187.587,7.446 -361.337,-51.008 -498.821,-181.371c-71.125,-67.45 -158.104,-174.966 -156.02,-277.537c0.45,-22.709 3.695,-31.942 19.32,-47.95c81.009,4.825 178.109,169.841 237.013,225.971c124.687,118.837 272.85,143.941 438.542,140.85c-85.38,-150.692 -108.68,-272.95 -110.417,-445.642c-103.871,-8.158 -198.246,-26.546 -284.583,-90.467c-74.184,-54.933 -129.042,-136.458 -140.571,-229.062c-1.159,-9.517 -1.834,-19.059 -2.034,-28.629c-0.208,-9.584 0.071,-19.15 0.834,-28.7c0.766,-9.546 2.004,-19.034 3.716,-28.455c1.713,-9.433 3.896,-18.75 6.546,-27.95c2.65,-9.212 5.75,-18.262 9.304,-27.154c3.567,-8.9 7.563,-17.596 11.996,-26.091c4.421,-8.496 9.267,-16.742 14.534,-24.742c5.254,-8.008 10.904,-15.733 16.945,-23.175c80.659,-101.321 199.48,-128.038 320.85,-143.404Z" style="fill:#313945;fill-rule:nonzero;"/><path d="M5788.04,6070.96c95.346,-10.383 217.204,-1.2 305.054,39.392c40.867,18.871 79.496,49.375 94.496,93.246c12.862,37.641 5.85,78.525 -12.188,113.179c-47.45,91.129 -148.908,142.342 -242.1,174.2c-110.125,8.404 -216.687,3.596 -311.008,-61.7c-49.325,-34.15 -90.488,-83.613 -100.521,-144.183c-6.842,-41.234 1.908,-83.596 27.413,-117.05c55.329,-72.605 154.55,-86.042 238.854,-97.084Z" style="fill:#fac3b7;fill-rule:nonzero;"/><path d="M5036.29,4333.29c86.25,-3.209 161.145,3.004 237.395,48.875c121.892,73.333 189.446,224.233 221.513,357.741c51.546,214.446 23.317,453.071 -94.479,641.546c-80.642,129.008 -187.9,216.717 -337.746,250.504c-92.671,7.134 -175.692,-8.666 -253.542,-62.762c-126.579,-88.004 -188.729,-233.109 -217.133,-379.567c-41.442,-213.733 -11.304,-455.504 113.8,-637.725c82.483,-120.121 186.217,-191.058 330.192,-218.612Z" style="fill:#313945;fill-rule:nonzero;"/><path d="M5068.5,4531.21c20.713,-0.746 38.958,1.667 58.717,7.692c39.6,12.067 73.679,38.662 92.812,75.625c29.863,57.638 26.442,134.792 5.154,194.567c-25.483,71.612 -66.333,111.925 -134.479,143.091c-26.837,-2.05 -55.954,-2.57 -80.833,-13.75c-47.271,-21.233 -82.167,-66.041 -97.533,-114.758c-19.863,-62.971 -12.363,-136.529 20.641,-193.804c31.617,-54.913 75.625,-82.567 135.521,-98.663Z" style="fill:#fff;fill-rule:nonzero;"/><path d="M8407.46,6139.17c22.571,-33.3 47.155,-60.4 79.6,-84.48c291.425,-216.337 925.471,-342.675 1281.13,-285.937c-2.083,5.537 -4.216,11.042 -6.233,16.613c-10.329,28.454 -17.412,31.529 -40.658,50.191c-210.154,46.613 -424.584,70.296 -634.792,121.234c-227.171,55.033 -450.137,137.187 -679.046,182.379Zm-693.8,-2900.75c120.763,-8.767 236.717,14.533 345.796,67.033c144.133,69.358 263.354,187.883 313.371,341.579c10.208,31.354 17.325,62.292 1.996,92.204c-25.658,-0.296 -32.138,-7.221 -53.388,-20.729c-112.829,-122.396 -229.337,-238.054 -390.083,-293.837c-94.621,-32.83 -261.858,-14.53 -327.171,-70.45c-7.204,-16.217 -14.912,-25.642 -5.558,-43.28c22.779,-42.866 71.808,-59.916 115.037,-72.52Zm855.642,3123.23c115.904,11.633 229.896,9.812 345.4,30.104c134.167,23.579 525.138,110.071 602.292,219.917l-5.746,16.804l-38.458,6.841c-135.034,-24.758 -892.863,-160.608 -961.146,-204.741l-3.021,-14.688c13.092,-25.696 37.537,-38.525 60.679,-54.237Zm-3501.75,-3165.14c19.375,-2.291 38.958,-2.362 58.454,-1.979c47.1,0.904 121.858,17.95 152.433,57.346c14.025,18.071 19.184,33.921 16.005,56.717c-2.275,16.266 -13.8,44.133 -29.513,51.162c-47.292,21.129 -137.258,-6.354 -191.283,-3.037c-98.25,5.991 -210.384,86.112 -285.471,145.345c-30.296,26.009 -85.608,86.634 -125.121,89.15c-17.846,-11.354 -21.442,-13.558 -26.562,-35.625c-9.08,-39.166 12.116,-84.808 33.716,-116.091c87.846,-127.225 247.671,-215.35 397.342,-242.988Z" style="fill:#313945;fill-rule:nonzero;"/><path d="M9768.17,5768.75c52.537,7.046 103.525,16.004 155.208,27.758c-66.629,17.259 -133.487,32.171 -202.1,39.046c23.246,-18.662 30.329,-21.737 40.658,-50.191c2.017,-5.571 4.15,-11.075 6.234,-16.613Z" style="fill:#030404;fill-rule:nonzero;"/><path d="M1161.97,10306.4c-33.317,-92.709 -51.021,-194.963 -74.596,-290.817c-42.858,-175.587 -86.733,-350.925 -131.625,-526.004l-262.058,-1045c-55.221,-219.479 -116.667,-439.254 -164.23,-660.454c-8.487,-39.459 -14.816,-81.059 -12.383,-121.492c1.967,-32.675 15.534,-53.092 42.467,-71.442c28.029,-19.112 62.504,-18.92 95.262,-18.47c195.392,2.795 391.375,20.104 586.771,27.291l1565.3,52.379l1057.5,34.425c149.062,4.984 304.929,-6.37 452.379,13.805c44.513,6.075 58.608,27.725 84.338,61.42l13.283,-25.866c93.629,218.525 147.5,574.375 201.025,814.391l292.5,1287.54l-8.612,7.983l-24.463,-93.591l-10.938,4.112l1.234,-14.512c-33.992,72.22 52.308,173.887 25.383,250.175c15.521,130.312 62.863,257.412 84.184,387.029c6.925,42.154 9.462,84.2 -16.025,120.45c-37.188,20.087 -88.663,17.916 -130.138,19.725c-218.075,9.462 -444.829,-11.234 -663.333,-19.621l-1335.8,-55.521l-1022.56,-45.379c-148.8,-5.85 -387.604,-0.417 -527.341,-21.963c-47.917,-7.395 -83.075,-39.095 -117.525,-70.591Z" style="fill:#c2c0bf;fill-rule:nonzero;"/><path d="M4414.38,7736.17c93.629,218.525 147.5,574.375 201.025,814.391l292.5,1287.54l-8.612,7.983l-24.463,-93.592l-10.937,4.113l1.233,-14.512c-33.992,72.22 52.308,173.887 25.383,250.175c-109.158,-485.359 -215.471,-971.338 -318.941,-1457.94c-30.275,-141.746 -141.35,-657.371 -170.471,-772.292l13.283,-25.866Z" style="fill:#030404;fill-rule:nonzero;"/><path d="M2626.01,8623.42c29.454,-0.942 57.613,-0.704 83.688,14.945c25.033,15.021 41.491,36.513 57.196,60.509c64.837,99.092 112.795,210.979 170.933,314.221c57.321,101.754 118.567,201.754 176.783,303.125c38.013,66.183 91.08,239.454 112.109,313.408c-40.317,15.604 -40.317,15.604 -84.188,15.604c-115.679,7.9 -229.729,-7.596 -345.021,-15.604c-66.291,-4.608 -132.75,-2.575 -198.358,-14.229c-90.433,-0.179 -239.004,-2.629 -324.258,-23.45c-59.021,-14.408 -88.221,-40.975 -118.746,-91.638c-0.584,-18.941 -2.117,-39.512 1.541,-58.216c9.98,-51.067 61.246,-222.729 92.884,-258.446c30.675,-7.238 121.062,52.812 153.683,67.812c37.667,-23.829 51.013,-40.15 68.933,-81.004c-7.316,-17.741 -14.758,-39.833 -27.533,-54.366c-18.379,-20.896 -79.379,-56.838 -87.1,-79.513c-8.375,-24.6 7.408,-60.521 17.913,-82.367c34.654,-72.133 145.091,-245.883 199.916,-300.933c14.667,-14.725 30.271,-22.912 49.625,-29.858Z" style="fill:#fff;fill-rule:nonzero;"/><path d="M2741.25,9254.5c25.162,8.083 52.737,15.875 75.687,28.938c38.463,21.866 68.95,62.145 78.142,105.466c6.138,28.913 2.6,56.167 -14.65,80.584c-12.608,17.837 -54.779,42.266 -75.875,45.429l-32.7,-6.3c-18.279,-3.321 -35.354,-5.842 -52.112,-14.463c-33.58,-17.262 -68.375,-46 -78.542,-83.85c-12.808,-47.737 6.029,-79.05 29.429,-118.487c23.054,-13.196 47.083,-24.992 70.621,-37.317Zm94.742,-434.029c21.099,6.779 44.22,13.312 63.462,24.262c32.254,18.338 57.812,52.109 65.521,88.434c5.146,24.241 2.183,47.095 -12.284,67.566c-10.57,14.959 -45.933,35.438 -63.616,38.092l-27.421,-5.279c-15.325,-2.788 -29.642,-4.9 -43.696,-12.129c-28.154,-14.475 -57.329,-38.571 -65.854,-70.309c-10.738,-40.025 5.058,-66.279 24.679,-99.35c19.329,-11.062 39.475,-20.95 59.208,-31.287Z" style="fill:#c2c0bf;fill-rule:nonzero;"/><path d="M10487.8,5504.5c91.041,28.608 184.55,63.229 260.054,123.071c115.762,86.287 195.729,187.362 217.325,335.662c30.071,206.459 -62.013,341.63 -51.683,499.409c5.295,80.625 85.762,250.016 108.42,349.791c34.409,297.325 -16.875,532.342 -206.058,769.409c-95.887,120.158 -209.271,230.641 -343.629,306.683c-80.383,-211.354 -194.775,-437.375 -411.096,-535.604c-277.271,-125.921 -623.175,-2.642 -890.937,99.858c-416.805,159.55 -814.271,375.017 -1205.38,588.371c-295.454,161.163 -594.325,320.85 -880.975,497.167c299.221,-74.634 571.688,-225.692 845.992,-362.446c306.738,-152.917 612.483,-307.083 924.929,-448.158c161.129,-72.746 331.754,-153.213 503.579,-196.771c157.742,-76.425 384.096,-122.692 554.546,-63.438c166.754,57.967 281.392,207.896 352.829,362.967c218.125,473.454 181.338,1142.85 -1.437,1626.55c-121.217,320.8 -367.604,604.271 -682.433,746.129c-414.184,186.612 -896.13,191.404 -1342.9,183.367c81.704,-80.259 116.304,-150.555 151.495,-258.021c56.596,-163.404 60.242,-347.884 1.546,-510.713c-91.721,-254.441 -289.012,-407.758 -526.183,-517.846c41.979,-21.579 84.062,-42.483 128.579,-58.421c331.108,-118.541 843.296,-89.27 1173.35,6.826c117.463,34.2 225.833,86.908 336.004,139.112c-0.971,-4.792 -0.971,-9.896 -2.916,-14.375c-78.142,-179.825 -408.905,-268.717 -581.734,-309.792c-55.054,-13.07 -134.621,-18.991 -182.5,-46.7l1.025,-17.17c16.892,-79.688 57.204,-165.071 87.446,-241.267c155.521,-391.808 303.492,-577.9 629.6,-842.242c-39.871,17.154 -79.358,35.159 -118.454,54.013c-448.975,220.712 -630.833,608.212 -782.05,1058.75c-314.563,28.629 -533,10.362 -802.308,211.058c-67.83,-6.304 -143.038,-19.375 -210.017,-2.012c-64.133,16.629 -98.471,55.916 -129.913,111.491c-262.533,-104.637 -538.262,-141.666 -818.87,-99.358c-386.2,58.246 -656.442,258.837 -884.517,568.037c46.479,-156.545 55.333,-335.554 77.329,-497.741c35.329,-260.554 107.983,-591.721 85.171,-852.846c-44.288,104.6 -96.542,206.771 -135.433,313.471c-112.342,308.3 -151.859,649.237 -167.709,975.608c-13.8,-50.937 -27.325,-102.708 -46.716,-151.858c-91.459,-231.634 -272.067,-305.834 -486.042,-400.434c-31.963,-83.058 -28.683,-145.4 -14.671,-231.079c114.463,25.263 239.217,119.792 356.738,114.446c18.437,-0.833 11.195,1.388 25.137,-12.796c-22.362,-70.866 -187.95,-160.379 -246.179,-232.862c-2.329,-2.9 -4.583,-5.834 -6.875,-8.734c69.146,-140.8 455.033,-724.116 565.208,-809.079c71.075,158.142 164.754,300.713 290.121,421.163c104.688,100.571 313.367,269.704 466.442,265.987c-27.884,-46.7 -118.979,-97.862 -162.884,-134.858c-161.354,-135.904 -301.145,-305.954 -390.625,-497.379c-31.962,-52.154 -58.87,-109.013 -87.604,-163.125c144.463,10.225 288.196,46.7 430.85,71.771c124.304,243.695 300,472.379 513.854,644.029c120.784,-71.584 234.15,-161.338 352.034,-238.475c286.891,-187.709 587.654,-372.413 892.396,-529.217c197.812,-101.771 456.579,-157.05 668.816,-233.004c364.271,-130.329 731.146,-307.429 1035.92,-548.508c135.817,-107.413 256.908,-228.488 388.508,-339.93c144.634,-122.483 395.171,-293.245 493.992,-446.804c-0.817,-57.121 -0.729,-118.283 -40.954,-163.125c-37.884,-42.208 -101.738,-53.075 -155.367,-57.812c39.463,-121.859 53.579,-245 77.813,-370.192Z" style="fill:#7a7bbe;fill-rule:nonzero;"/><path d="M9358.33,7530.92c157.742,-76.425 384.096,-122.692 554.546,-63.438c166.754,57.967 281.392,207.896 352.829,362.967c218.125,473.454 181.338,1142.85 -1.437,1626.55c-121.217,320.8 -367.604,604.271 -682.433,746.129c-414.184,186.612 -896.13,191.404 -1342.9,183.367c81.704,-80.259 116.304,-150.555 151.495,-258.021c483.8,-0.33 911.629,-20.659 1309.15,-339.184c294.2,-235.746 420.867,-587.916 458.696,-953.991c31.513,-305.088 38.471,-749.792 -172.362,-997.346c-186.892,-219.425 -427.688,-231.234 -694.392,-254.392c22.604,-12.258 45.292,-24.362 68.058,-36.321l-1.25,-16.316Zm1389.51,-1903.37c115.762,86.287 195.729,187.362 217.325,335.662c30.071,206.459 -62.013,341.629 -51.684,499.409c5.296,80.625 85.763,250.016 108.421,349.791c-60.4,54.967 -75.554,148.509 -147.221,212.067c-135.35,120.05 -328.387,284.167 -522.05,222.204c-78.733,-25.175 -153.854,-74.6 -228.662,-110.262c-80.054,-38.142 -160.488,-68.159 -249.567,-73.959l-12.554,-0.708c53.667,-63.179 82.033,-143.958 139.517,-203.25c217.1,-223.854 591.875,-406.283 681.925,-727.221c19.133,-68.175 -4.338,-134.929 -0.067,-203.404c4.146,-66.125 35.938,-135.521 49.442,-200.883c5.887,-28.471 4.116,-57.363 11.391,-85.555c1.196,-4.654 2.517,-9.254 3.784,-13.891Z" style="fill:#6969a3;fill-rule:nonzero;"/><path d="M8785.21,8722.92c290.017,1.425 494.25,40.779 705.692,258.35c24.325,25.033 47.412,51.858 66.096,81.387c-0.246,37.45 5.033,94.742 -19.309,125.471c-7.604,9.6 -8.383,6.146 -23.02,7.604l-10.938,-8.317c-0.971,-4.791 -0.971,-9.895 -2.917,-14.375c-78.141,-179.825 -408.904,-268.716 -581.733,-309.791c-55.054,-13.071 -134.621,-18.992 -182.5,-46.7l1.025,-17.171c26.646,-17.621 34.408,-47.813 47.604,-76.458Zm-2867.68,-844.063c73.404,57.117 113.384,248.959 208.542,256.196c-4.013,-17.708 -8.263,-21.579 -0.729,-38.767c81.233,141.079 204.321,233.613 335.816,326.184c15.884,11.196 35.713,17.829 50.692,29.562c17.588,13.788 21.375,26.563 24.308,47.571c-24.495,11.996 -40.383,0.592 -65.12,11.492c-27.884,-46.7 -118.98,-97.863 -162.884,-134.859c-161.354,-135.904 -301.146,-305.954 -390.625,-497.379Z" style="fill:#6969a3;fill-rule:nonzero;"/><path d="M3986.68,3702.71c-108.837,-16.475 -207.708,-52.154 -303.037,-107.395c-384.046,-222.555 -658.3,-624.759 -769.342,-1050.47c-146.996,-563.542 -58.175,-1205.85 238.021,-1707.07c161.7,-273.629 388.021,-509.292 705.296,-587.654c237.725,-58.721 480.466,3.008 685.8,129.291c531.562,326.934 755.971,921.925 896.075,1497.93c-271.371,162.916 -549.567,357.829 -751.025,604.741c-1.563,-508.387 -46.996,-1100.77 -353.35,-1528.68c-114.184,-159.467 -284.221,-304.729 -484.063,-334.325c-124.22,-18.396 -274.671,9.221 -376.008,85.446c211.546,-10.254 388.821,23.125 550.625,168.029c366.475,328.246 465.142,900.904 488.092,1371.48c7.412,151.687 3.82,303.717 10.712,455.192c-195.367,255.279 -333.037,507.62 -455.975,802.97l-81.821,200.521Z" style="fill:#fac3b7;fill-rule:nonzero;"/><path d="M3986.68,3702.71c-108.837,-16.475 -207.708,-52.154 -303.037,-107.395c-384.046,-222.555 -658.3,-624.759 -769.342,-1050.47c-146.996,-563.542 -58.175,-1205.85 238.021,-1707.07c161.7,-273.629 388.021,-509.292 705.296,-587.654c237.725,-58.721 480.466,3.008 685.8,129.291c531.562,326.934 755.971,921.925 896.075,1497.93c-271.371,162.916 -549.567,357.829 -751.025,604.741c-1.563,-508.387 -46.996,-1100.77 -353.35,-1528.68c-114.184,-159.467 -284.221,-304.729 -484.063,-334.325c-124.22,-18.396 -274.671,9.221 -376.008,85.446c-44.721,47.991 -80.379,107.6 -115.954,162.633c-215.033,332.583 -335.538,747.496 -322.083,1144.22c14.741,434.671 194.062,905.779 516.425,1205.82c150.762,140.312 319.791,225.416 515.066,284.999l-81.821,200.521Z" style="fill:#f2f2f4;fill-rule:nonzero;"/><path d="M9023.67,10493.8c2.987,-0.434 5.954,-0.884 8.941,-1.284c115.155,-15.366 377.013,-40.158 469.617,35.867c45.121,37.033 49.879,107.121 53.021,161.475c4.879,84.133 -7.1,178.646 -66.025,243.196c-40.379,44.254 -96.563,52.5 -152.742,64.375c-211.754,44.808 -432.933,60.158 -647.829,87.325l-1117.19,141.667c-343.716,43.383 -687.679,84.737 -1031.89,124.062c-204.863,23.058 -410.592,50.888 -616.979,54.292c-327.517,5.416 -659.167,-23.563 -985.954,-42.588l-1451.81,-80.104c-445.416,-23.267 -890.85,-58.229 -1336.28,-77.675c-416.263,-14.929 -832.033,-38.442 -1247.32,-70.537c-193.079,-13.492 -390.304,-21.18 -582.25,-44.409c-33.821,-4.083 -61.288,-11.479 -91.6,-26.841c-50.796,-60.575 -41.458,-163.975 -35.379,-238.613c3.658,-44.912 10.65,-131.146 47.279,-161.179c114.012,-93.471 632.971,-97.483 814.179,-155.85c171.6,188.246 271.325,176.837 513.354,188.054c555.104,25.763 1113.42,48.613 1667.54,89.046c136.004,9.929 288.246,-1.513 420.746,22.604c451.733,6.979 901.525,52.95 1353.94,41.546c91.404,-26.442 369.929,-23.871 482.429,-31.008c407.638,-25.85 815.467,-71.442 1221.86,-112.759c156.25,-15.887 401.004,-22.971 542.775,-64.933c76.25,-22.567 142.987,-89.946 207.642,-135.538c107.933,-2.412 215.866,9.134 323.837,7.867l1236.09,-18.058Z" style="fill:#9c6543;fill-rule:nonzero;"/><path d="M9397.17,10575.4c29.529,3.038 64.737,2.204 88.229,21.771c-10.246,18.683 -27.625,21.337 -47.346,26.892c-124.758,35.141 -272.587,39.708 -401.7,54.725l-891.008,98.991c-389.425,43.7 -779.738,81.304 -1168.73,128.404c-363.887,44.063 -732.758,101.821 -1099.08,114.113c-288.575,9.687 -583.716,-15.138 -872.221,-28.767c-436.704,-17.812 -873.275,-38.437 -1309.73,-61.875c-680.787,-33.762 -1361.34,-71.7 -2041.67,-113.821c-340.796,-20.641 -683.396,-36.266 -1023.46,-66.733c-72.221,-6.458 -216.896,-6.546 -275.971,-43.004c-2.645,-1.633 -4.912,-3.804 -7.37,-5.713l3.954,-11.475c28.921,-11.77 57.533,-11.995 88.358,-11.475c148.375,2.463 300.096,20.313 448.429,30.05l999.104,60.975c167.271,9.842 336.075,26.355 503.559,28.73c852.358,47.825 1704.99,90.2 2557.88,127.12c130.887,13.488 264.967,14.567 396.562,19.963c215.088,8.837 431.913,19.533 647,5.817c439.842,-28.038 879.825,-101.596 1318.4,-148.055c437.896,-45.254 875.475,-93.366 1312.75,-144.341c257.917,-27.813 516.75,-49.113 774.063,-82.292Z" style="fill:#313945;fill-rule:nonzero;"/><path d="M2390.52,10797.2c98.421,-33.663 277.812,1.287 384.858,6.666c110.817,5.592 1295.42,69.292 1301.15,65.367c4.742,-3.229 7.867,-8.35 11.808,-12.517c-43.404,-41.616 -443.179,-38.3 -528.525,-43.7l95.296,-6.283c451.733,6.979 901.525,52.95 1353.94,41.546l2.133,14.896c-55.696,35.191 -355.987,-7.971 -445.8,10.937l6.217,7.309c109.758,3.175 312.429,-7.325 410.866,30.362c-8.175,10.142 -21.645,9.638 -34.062,12.538c-852.892,-36.913 -1705.52,-79.284 -2557.88,-127.121Z" style="fill:#b27145;fill-rule:nonzero;"/><path d="M11111.9,12200.2c327.675,289.146 742.05,510.313 1191.25,484.234c308.821,-17.917 618.508,-136.075 827.237,-370.659c201.251,-226.179 275.713,-503.804 255.4,-802.171c-52.379,-768.975 -823.349,-1191.19 -681.249,-2158.57c41.458,-282.345 171.6,-548.37 356.704,-764.15c7.345,-8.6 14.8,-17.108 22.358,-25.52c7.546,-8.413 15.204,-16.73 22.971,-24.95c7.766,-8.229 15.629,-16.354 23.591,-24.375c7.963,-8.029 16.03,-15.959 24.205,-23.784c8.158,-7.825 16.408,-15.55 24.754,-23.175c8.358,-7.629 16.808,-15.146 25.35,-22.554c8.541,-7.416 17.166,-14.729 25.883,-21.925c8.725,-7.2 17.542,-14.292 26.442,-21.271c8.887,-6.979 17.871,-13.846 26.946,-20.604c9.062,-6.762 18.208,-13.404 27.445,-19.933c9.225,-6.525 18.538,-12.946 27.934,-19.254c9.387,-6.296 18.854,-12.475 28.404,-18.542c9.538,-6.063 19.154,-12.004 28.854,-17.829c9.688,-5.834 19.45,-11.538 29.288,-17.117c9.825,-5.592 19.729,-11.054 29.704,-16.387c9.967,-5.338 20,-10.55 30.104,-15.646c10.092,-5.092 20.25,-10.054 30.471,-14.896c10.217,-4.837 20.504,-9.546 30.85,-14.129c10.333,-4.583 20.729,-9.042 31.179,-13.371c10.442,-4.317 20.938,-8.504 31.496,-12.567c10.554,-4.075 21.154,-8.008 31.804,-11.808c10.646,-3.804 21.342,-7.475 32.083,-11.004c10.742,-3.542 21.53,-6.946 32.363,-10.209c10.821,-3.275 21.683,-6.412 32.583,-9.412c10.904,-2.996 21.842,-5.858 32.813,-8.592c10.983,-2.721 22,-5.308 33.041,-7.762c11.03,-2.45 22.092,-4.771 33.192,-6.959c11.1,-2.179 22.225,-4.22 33.371,-6.129c11.146,-1.9 22.312,-3.662 33.504,-5.296c11.192,-1.633 22.404,-3.12 33.629,-4.462c11.225,-1.354 22.471,-2.563 33.734,-3.629c11.249,-1.075 22.516,-2.009 33.8,-2.796c341.545,-24.408 693.02,101.825 949.062,326.929c278.229,244.6 468.042,596.3 488.838,969.342c2.07,36.979 2.458,73.979 1.162,111.004c-1.283,37.017 -4.242,73.9 -8.871,110.662c-4.641,36.746 -10.929,73.209 -18.871,109.392c-7.941,36.179 -17.5,71.925 -28.679,107.238c-46.946,-428.855 -210.121,-849.688 -555.071,-1126.82c-228.958,-183.942 -518.316,-282.204 -812.445,-249.134c-266.667,29.984 -521.2,174.721 -687.659,384.463c-188.262,237.188 -267.691,533.904 -231.717,833.646c30.867,257.362 147.655,487.587 272.688,710.608c254.167,453.317 494.029,893.4 419.758,1434.41c-4.037,30.509 -9.066,60.859 -15.087,91.042c-6.017,30.188 -13.021,60.146 -21.004,89.879c-7.975,29.734 -16.917,59.171 -26.825,88.317c-9.909,29.129 -20.754,57.917 -32.534,86.354c-11.795,28.438 -24.495,56.458 -38.108,84.063c-13.625,27.604 -28.133,54.733 -43.525,81.387c-15.392,26.654 -31.642,52.779 -48.75,78.367c-17.096,25.591 -35.012,50.6 -53.75,75.021c-267.95,344.304 -643.662,529.791 -1072.88,580.45c-319.409,37.691 -678.767,-5.313 -971.771,-142.171c-361.667,-125.296 -673.313,-402.692 -916.125,-690.642c105.642,-167.9 103.4,-327.987 113.833,-520.729c79.238,73.767 148.267,158.783 221.392,238.508c71.442,77.879 148.317,151.334 223.454,225.625Z" style="fill:#fac3b7;fill-rule:nonzero;"/><path d="M10667,11736c79.237,73.766 148.266,158.783 221.391,238.508c71.442,77.879 148.317,151.333 223.455,225.625c-1.371,4.913 -2.534,9.858 -4.117,14.704c-32.013,99.184 -166.596,102.429 -94.929,264.984c77.5,175.708 273.854,311.3 431.825,408.208c-14.134,5.8 -17.9,5.383 -27.467,17.971l9.879,6.546c16.163,10.883 29.2,20.312 42.254,34.825c-361.666,-125.296 -673.312,-402.692 -916.125,-690.642c105.642,-167.9 103.4,-327.988 113.834,-520.729Z" style="fill:#e1a39e;fill-rule:nonzero;"/><path d="M8399.92,11297.5c11.891,-1.633 17.171,0.208 28.508,3.4c45.45,100.938 31.383,427.763 20.088,544.983c-159.446,63.405 -707.467,92.45 -750.646,124.809c-97.95,73.371 -161.629,909.237 -177.063,1056.98c-68.266,4.412 -135.125,12.642 -202.796,22.517c9.338,-250.346 21.092,-499.113 55.138,-747.463c-76.492,147.171 -110.417,571.421 -119.946,751.317c-86.171,6.183 -172.396,11.391 -258.683,15.625c-267.429,7.675 -558.992,-14.354 -815.746,-89.025c1.679,-286.784 7.512,-573.484 17.5,-860.104c4.446,-126.2 0.867,-259.671 19.617,-384.238c7.554,-50.175 19.341,-109.029 50.958,-149.617c22.879,-29.358 47.133,-41.72 82.933,-49.22c84.671,-17.709 175.554,-21.459 261.754,-30.938l512.605,-55.779l1275.78,-153.246Z" style="fill:#4b7493;fill-rule:nonzero;"/><path d="M555.95,11284.5c104.204,0.904 209.679,12.604 313.758,19.879c137.884,9.617 277.755,15.242 414.388,36.387c6.233,197.625 0.762,397.171 0.641,595l-0.833,1138.36l0.696,751.437c0.329,144.583 6.754,292.521 -3.733,436.6c-4.738,65.088 -4.063,103.958 -56.475,149.513c-102.417,40.487 -221.921,51.562 -331.196,51.979c-86.471,0.329 -262.109,0.346 -322.092,-72.621c-25.808,-31.409 -28.866,-117.709 -30.679,-159.408c-14.504,-333.459 3.933,-673.042 4.729,-1007.19c-4.346,-646.692 -0.75,-1293.33 10.796,-1939.93Z" style="fill:url(#_Linear1);fill-rule:nonzero;"/><path d="M1042.48,11550.9c7.434,9.429 10.809,16.337 12.813,28.663c9.375,57.658 2.417,127.658 4.687,186.754c8.967,233.82 8.7,467.379 8.763,701.32c0.137,509.496 13.412,1022.74 -2.979,1531.86c-1.971,61.125 -1.842,260.937 -30.138,299.962c-25.475,-49.858 -30.054,-103.837 -33.521,-158.854c-17.887,-284.183 -3.941,-577.5 -3.666,-862.446c0.271,-281.304 -16.038,-1540.62 44.041,-1727.26Z" style="fill:#313945;fill-rule:nonzero;"/><path d="M5348.83,11563.1c227.292,-1.958 454.48,17.555 682.188,17.138c-0.104,556.579 -19.146,1113.44 -22.896,1670.05c-2.154,320.662 -10.175,640.158 -18.717,960.696c-4.462,167.9 0.571,342.845 -17.571,509.654c-3.333,30.658 -9.929,53.696 -24.983,80.641c-68.646,45.4 -150.937,52.917 -231.492,58.317c-96.612,6.459 -286.025,16.25 -360.279,-55.537c-27.896,-26.963 -28.125,-77.884 -30.954,-114.584c-10.9,-141.479 -5.137,-285.575 -4.233,-427.362l5.779,-693.717c4.446,-473.783 -2.467,-947.9 4.15,-1421.61c2.708,-194.638 14.775,-389.063 19.008,-583.684Z" style="fill:url(#_Linear2);fill-rule:nonzero;"/><path d="M5837.38,11979.6c15.433,97.329 8,202.658 7.708,301.25l0.709,430.938c1.412,337.166 0.237,674.325 -3.521,1011.48c-1.2,283.787 1.925,569.133 -13.525,852.625c-3.213,58.833 -4.1,118.662 -26.65,173.816c-13.838,-24.896 -14.304,-54.479 -15.817,-82.341c-13.542,-250.817 -4.062,-506.217 -3.662,-757.413c-1.517,-509.283 8.354,-1018.35 29.616,-1527.19c6.059,-126.738 -6.596,-281.009 25.142,-403.163Z" style="fill:#313945;fill-rule:nonzero;"/><path d="M8602.79,11270c192.066,-41.167 392.746,-49.846 586.391,-87.433c5.3,113.358 4.175,226.646 -3.37,339.862l-16.438,1766.92c-3.596,325.125 5.883,653.875 -15.229,978.3c-3.229,49.567 -4.913,124.013 -33.263,165.296c-88.125,64.583 -273.646,50.608 -376.771,34.463c-40.537,-6.338 -98.279,-17.642 -125.45,-51.771c-30.454,-38.267 -34.183,-139.1 -36.754,-187.121c-12.779,-238.871 2.067,-484.392 2.988,-724.025c2.058,-602.396 8.358,-1204.75 18.904,-1807.05c-3.575,-142.171 1.425,-285.033 -1.008,-427.446Z" style="fill:#9c6543;fill-rule:nonzero;"/><path d="M8602.79,11270c192.066,-41.167 392.746,-49.846 586.391,-87.433c5.3,113.358 4.175,226.646 -3.37,339.862c-3.767,-94.254 -1.613,-188.7 -5.73,-282.829c-14.183,73.646 -14.512,149.113 -17.27,223.854c-109.309,12.429 -466.425,77.534 -541.667,157.325c-10.992,11.667 -14.517,59.304 -17.346,76.667c-3.575,-142.171 1.425,-285.033 -1.008,-427.446Z" style="fill:#87563d;fill-rule:nonzero;"/><path d="M3949.18,11486.1c266.355,16.842 533.317,27.121 799.88,40.333c146.42,7.238 297.012,7.934 441.858,30.38c1.683,167.225 -11.913,335.383 -15.8,502.641c-6.754,291.021 -7.033,582.621 -10.954,873.75c-56.2,0.467 -112.813,6.109 -168.892,10.104c-20.987,-251.562 -46.267,-505.416 -44.771,-757.987c0.813,-33.613 -0.021,-63.613 -6.841,-96.596c-52.346,96.179 -24.013,714.513 -22.259,862.55c-322.671,-0.033 -667.462,-2.05 -974.633,-111.925c-26.338,-92.417 -39.517,-192.121 -54.896,-286.946c-55.712,-343.421 -96.962,-741.146 57.308,-1066.3Z" style="fill:url(#_Linear3);fill-rule:nonzero;"/><path d="M6075.67,10201.7c-64.496,-14.984 -126.579,-32.275 -175.346,-79.846c-55.313,-53.958 -69.55,-131.388 -67.988,-205.85c3.438,-165.817 83.438,-319.529 202.763,-432.188c217.167,-205.033 536.683,-289.616 829.321,-277.916c309.512,12.396 616.321,97.829 831.233,331.929c101.667,133.142 157.396,296.162 134.983,464.808c-16.162,121.634 -79.012,258.334 -178.925,333.8c-37.154,28.059 -71.37,37.171 -117.012,30.125c-11.442,-16.354 -9.308,-26.166 -9.271,-45.279c0.088,-45.346 -15.471,-78.804 -48.246,-110.242c-11.896,-11.408 -25.087,-21.562 -38.125,-31.6c-60.679,-36.754 -107.571,-56.041 -179.916,-62.083c6.495,-42.446 13.579,-83.437 12.362,-126.525l-13.592,-8.267c-43.125,7.988 -179.204,150.609 -285.816,187.413c-82.05,28.333 -218.854,59.983 -300.159,16.737c-25.346,-13.487 -42.15,-35.729 -48.816,-63.558c-25.417,-106.179 40.346,-246.217 101.854,-331.875c19.916,-27.725 55.487,-63.404 68.196,-92.987c7.241,-16.838 1.304,-20 -5.488,-34.546l-18.958,-6.442c-76.925,8.8 -134.6,56.546 -183.75,113.421c-114.738,132.775 -120.329,270.05 -107.413,435.883c-67.862,5.746 -162.029,19.55 -217.566,-28.437c-42.121,-36.388 -58.005,-90.346 -62.954,-143.975c-22.901,-248.421 182.083,-368.213 173.491,-464.167c-16.096,-5.85 -15.121,-7.571 -33.558,-3.333c-96.738,22.204 -171.667,106.371 -219.775,188.941c-86.163,147.846 -85.696,283.959 -41.529,446.059Z" style="fill:#f2f2f4;fill-rule:nonzero;"/><path d="M7695.62,9537.83c101.667,133.142 157.396,296.163 134.983,464.809c-16.162,121.633 -79.012,258.333 -178.925,333.8c-37.154,28.058 -71.37,37.171 -117.012,30.125c-11.442,-16.354 -9.309,-26.167 -9.271,-45.279c0.087,-45.346 -15.471,-78.805 -48.246,-110.242c-11.896,-11.408 -25.087,-21.563 -38.125,-31.6c35.938,-16.838 79.809,-34.633 108.833,-62.013c88.23,-83.158 157.538,-261.354 156.634,-382.812c-0.554,-73.992 -46.771,-121.096 -8.871,-196.788Z" style="fill:#c2c0bf;fill-rule:nonzero;"/><path d="M3981.73,13581.1c211.409,-41.508 404.638,10.833 616.025,22.121c187.171,9.983 380.68,-2.588 567.225,-19.967l-9.445,566.634c-72.605,41.091 -145.209,68.07 -225.209,91.025c-145.487,56.229 -793.7,246.125 -920.817,179.929c-139.341,-72.571 89.184,-393.438 73.351,-471.025l-15.988,-4.721c-69.167,25.9 -113.942,71.787 -155.521,131.108c-84.012,119.813 -85.712,230.438 -61.008,369.013c-90.154,-0 -226.059,13.887 -304.584,-34.513c-30.554,-18.837 -50.241,-53.108 -59.445,-87.05c-53,-195.679 146.062,-374.325 126.687,-465.521l-16.65,-2.05c-43.958,16.513 -78.317,41.58 -112.275,73.892c-150.537,143.142 -121.892,206.579 -132.9,390.833c-1.337,22.413 -4.462,32.671 -20.729,47.742l-24.113,-3.158c-45.333,-30.054 -68.125,-69.413 -82.187,-122.034c-21.633,-80.97 -2.763,-174.445 38.487,-246.337c138.142,-240.833 467.325,-351.25 719.096,-415.921Z" style="fill:#f2f2f4;fill-rule:nonzero;"/><path d="M3981.73,13581.1c211.409,-41.508 404.638,10.833 616.025,22.121c187.171,9.983 380.68,-2.588 567.225,-19.967l-9.445,566.634c-72.605,41.091 -145.209,68.07 -225.209,91.025c0.313,-41.321 1.579,-83.525 -1.787,-124.725c-29.063,-354.946 -458.125,-394.984 -732.05,-457.15c-72.171,-16.375 -157.78,-28.459 -214.759,-77.938Z" style="fill:#c2c0bf;fill-rule:nonzero;"/><path d="M10535.7,8080.17c168.004,-1.925 383.054,52.329 539.012,109.637c56.563,20.779 136.058,52.325 160.746,111.684c19.183,46.129 22.742,99.808 21.65,149.358c-5.854,267.029 -149.221,1220.28 -249.012,1461.35c-28.35,35.329 -52.884,59.446 -96.563,74.183c-66.162,22.346 -365.258,24.48 -419.55,-7.758c-26.317,-15.646 -35.729,-96.754 -39.546,-126.704c-12.05,-94.271 -33.541,-204.079 -24.829,-298.817c6.546,-71.112 34.046,-150.521 51.338,-220.246c41.008,-165.504 82.691,-333.47 97.5,-503.712c20.279,-233.229 16.37,-508.646 -37.95,-737.483l-2.796,-11.496Z" style="fill:url(#_Linear4);fill-rule:nonzero;"/><path d="M10955.1,8302.33c1.771,2.813 3.888,5.434 5.346,8.421c44.846,92.867 -157.9,1147.87 -194.704,1314.13c-15.988,72.254 -37.204,142.429 -60.259,212.708c-7.241,-1.754 -2.258,0.033 -11.808,-10.608c1.096,-191.459 190.871,-1403.11 261.425,-1524.65Z" style="fill:#313945;fill-rule:nonzero;"/><path d="M7402.88,13684.1c12.538,-0.558 5.4,-1.32 20.938,4.963c27.745,115.541 26.945,400.312 -19.771,507.346c-73.196,167.654 -299.479,290.07 -462.834,355c-123.816,49.216 -444.77,133.07 -567.604,79.758c-109.825,-113.613 101.896,-384.654 89.638,-495.504l-13.767,-3.996c-37.571,16.496 -60.471,40.054 -88.454,68.788c-13.646,16.524 -26.583,33.591 -38.804,51.195c-12.213,17.617 -23.663,35.713 -34.359,54.288c-10.691,18.579 -20.587,37.571 -29.687,56.979c-9.096,19.4 -17.358,39.15 -24.792,59.254c-19.166,52.433 -22.446,172.275 -53.471,207.933c-8.508,9.792 -19.704,5.071 -31.425,4.534c-3.504,-5.175 -8.958,-9.463 -10.52,-15.504c-15.259,-59.288 13.941,-822.238 24.741,-931.442c144.963,5.071 290.921,29.846 436.213,39.029c270.246,17.1 536.287,-4.721 803.958,-42.621Z" style="fill:#f2f2f4;fill-rule:nonzero;"/><path d="M4414.38,7736.17c10.608,-22.742 12.967,-24.617 34.233,-38.125c44.43,-4.792 76.93,23.887 109.688,49.983c45.504,132.779 66.754,273.071 99.029,409.425c76.504,321.404 149.854,643.521 220.054,966.354c70.083,314.479 146.996,627.417 215.083,942.329c28.646,132.517 62.588,266.963 81.546,401.213c8.475,60.021 14.479,135.142 -12.55,191.2c-13.766,28.542 -34.846,39.096 -63.716,47.862c-70.017,21.25 -145.954,18.63 -218.404,17.955c-301.717,-2.763 -604.288,-22.396 -905.692,-36.53c-440.096,-18.008 -880.017,-39.491 -1319.78,-64.445c-260.083,-15.046 -520.25,-28.292 -780.504,-39.738c-153.438,-6.929 -309.688,-8.196 -462.571,-22.325c-33.833,-3.146 -74.496,-9.375 -104.842,-25.646c-19.479,-10.433 -26.075,-18.437 -33.679,-38.75c1.979,-11.958 -0.296,-17.654 10.675,-25.154c28.558,-19.512 70.504,-18.629 103.925,-18.612c120.713,0.07 243.213,12.5 363.992,18.091l693.021,29.967l1649.74,67.775c201.929,10.546 403.95,19.104 606.059,25.679c78.975,2.396 168.975,14.079 246.858,2.133c41.108,-6.3 85.346,-25.92 97.654,-69.754c15.071,-53.733 -104.896,-637.241 -136.3,-688.958l-292.5,-1287.54c-53.525,-240.016 -107.396,-595.866 -201.025,-814.391Z" style="fill:#8b8b8a;fill-rule:nonzero;"/><path d="M9964.83,12434.9c139.463,-26.825 278.059,-64.359 416.096,-97.829c2.604,117.204 18.071,233.629 18.367,351.129c13.283,172.708 82.621,1443.09 59.462,1526.8c-38.229,41.458 -119.966,41.946 -173.541,43.904c-58.717,2.138 -188.767,10.767 -231.805,-35.275c-56.337,-60.246 -72.016,-1302.48 -71.874,-1468.61c-18.163,-100.259 -12.346,-217.5 -16.705,-320.121Z" style="fill:#9c6543;fill-rule:nonzero;"/><path d="M9964.83,12434.9c139.463,-26.825 278.059,-64.359 416.096,-97.829c2.604,117.204 18.071,233.629 18.367,351.129c-2.013,4.912 -4.113,9.771 -6.042,14.721c-10.642,27.291 -13.021,57.812 -16.667,86.716c-19.112,-3.766 -27.22,-9.441 -44.062,-18.958c-83.925,-47.463 -229.967,-38.054 -327.154,-41.7c-1.004,-4.633 -1.958,-9.288 -3.021,-13.925c-2.829,-12.463 -5.867,-22.829 -10.658,-34.546c-10.746,20.817 -8.629,50.796 -10.154,74.513c-18.163,-100.259 -12.346,-217.501 -16.705,-320.121Z" style="fill:#87563d;fill-rule:nonzero;"/><path d="M10048.5,11529.7c100.663,-5.384 269.292,-1.167 355.938,54.216c41.512,26.53 64.325,66.075 75.141,113.35c23.229,101.425 18.038,324.117 -42.812,409.15c-25.663,35.834 -72.138,52.988 -112.292,66.7c-166.008,56.738 -354.221,82.709 -526.183,119.5c-133.609,28.592 -272.688,68.625 -407.188,89.129c-21.579,3.284 -32.291,1.025 -49.425,-11.612l-2.933,-32.867l0.467,-408.141c207.329,-41.492 418.058,-71.217 626.233,-109.321c83.283,-15.246 172.5,-27.171 253.612,-51.375c39.671,-11.838 76.979,-31.004 108.175,-58.229l-2.066,-9.859c-113.071,-19.758 -322.429,35.796 -443.921,52.829c60.796,-67.137 97.15,-170.591 167.254,-223.47Z" style="fill:#9c6543;fill-rule:nonzero;"/><path d="M9627.96,10418.6c-21.041,-10.454 -27.933,-10.104 -37.57,-31.146c25.695,-31.25 90.52,-52.937 128.525,-66.216c192.483,-67.259 457.5,-345.121 578.058,-508.038c30.796,255.171 44.979,798.975 -112.121,1002.73c-74.408,96.475 -285.313,129.654 -402.171,136.563c-3.8,0.225 -7.621,-0.225 -11.421,-0.33c-39.879,6.996 -80.262,11.613 -120.383,16.996c40.521,-69.116 62.221,-142.083 68.438,-221.683c9.166,-117.554 -12.846,-237.413 -91.355,-328.871Z" style="fill:#6969a3;fill-rule:nonzero;"/><path d="M9627.96,10418.6c17.05,3.487 34.03,6.958 50.921,11.179c4.238,-2.083 8.3,-4.6 12.725,-6.266c53.871,-20.263 196.113,-10.921 245.383,18.991c40.38,24.496 112.013,90.521 119.88,138.613c5.554,33.958 -11.913,64.754 -33.771,89.15c-61.613,68.75 -182.013,135.45 -269.321,161.854c-5.087,1.529 -10.121,3.229 -15.192,4.775c-3.054,0.921 -6.129,1.737 -9.2,2.621c-10.746,26.391 -24.166,51.233 -21.496,80.383c18.58,23.333 35.313,23.663 63.371,32.258c-39.879,6.996 -80.262,11.613 -120.383,16.996c40.521,-69.116 62.221,-142.083 68.438,-221.683c9.166,-117.554 -12.846,-237.413 -91.355,-328.871Zm-1715.3,-168.525c8.001,-15.892 15.417,-32.054 22.259,-48.492c6.85,-16.42 13.1,-33.07 18.75,-49.945c5.658,-16.863 10.712,-33.913 15.154,-51.146c4.446,-17.234 8.271,-34.6 11.479,-52.1c3.192,-17.513 5.767,-35.113 7.725,-52.796c1.942,-17.688 3.263,-35.417 3.958,-53.196c0.684,-17.787 0.734,-35.571 0.155,-53.35c-0.579,-17.787 -1.792,-35.533 -3.646,-53.229c-19.792,-203.854 -130.521,-387.117 -287.238,-516.408c-46.962,-38.75 -103.108,-66.542 -148.854,-105.955c-15.329,-13.212 -17.987,-13.125 -19.55,-34.008c2.779,-2.137 5.329,-4.6 8.35,-6.392c59.704,-35.537 243.871,-28.833 311.163,-9.2c157.016,45.834 314.046,209.655 388.958,351.075c109.813,207.292 96.563,425.609 30.713,643.596c-42.325,101.475 -104.338,167.275 -208.384,210.121c-88.996,36.65 -183.404,31.475 -277.516,30.817c46.212,-48.038 88.245,-94.671 126.525,-149.392Z" style="fill:#7a7bbe;fill-rule:nonzero;"/><path d="M7912.67,10250.1c154.621,-27.675 155.141,20.658 281.912,-101.25c17.479,-16.808 30.484,-25 54.721,-24.704l22.742,34.408c-42.325,101.475 -104.338,167.275 -208.384,210.121c-88.995,36.65 -183.404,31.475 -277.516,30.817c46.212,-48.038 88.246,-94.671 126.525,-149.392Z" style="fill:#6969a3;fill-rule:nonzero;"/><path d="M6180.62,13088.1c392.55,103.942 673.3,112 1068.97,96.354l0.071,101.946c-0.054,57.084 15.483,222.259 -20.85,258.542c-349.517,36.058 -705.088,47.554 -1049.12,-37.446l0.921,-419.396Z" style="fill:#45759b;fill-rule:nonzero;"/><path d="M10508.4,10167.1c85.883,-5.366 171.75,-4.496 257.116,6.788c-3.766,280.4 -113.004,706.337 -167.258,993.941c-17.95,95.155 -19.962,201.596 -47.9,293.213c-5.796,18.975 -5.329,22.637 -23.35,32.221l-28.367,-18.767c-86.616,-73.579 -181.891,-94.117 -292.17,-105.712c3.075,-107.9 1.683,-272.934 52.883,-368.784c51.562,-96.529 114.842,-164.933 148.192,-272.796c51.754,-167.329 50.712,-337.866 73.75,-508.837c3.475,-25.833 5.904,-36.2 27.104,-51.267Z" style="fill:#87563d;fill-rule:nonzero;"/><path d="M10070.6,11045.2c4.375,3.75 7.571,12.171 8.58,17.292c5.362,27.275 -3.821,66.892 -9.184,94.567c-33.004,170.608 -116.304,288.608 -231.704,414.946c-137.067,150.054 -292.483,180.158 -486.667,189.583c-27.1,-28.921 -10.921,-508.125 -9.112,-585.746c104.671,-35.138 228.871,-45.242 338.087,-61.842c130.729,-18.783 260.729,-41.716 390,-68.8Z" style="fill:url(#_Linear5);fill-rule:nonzero;"/><path d="M3948.73,12982.7c328,79.15 647.896,91.408 983.609,90.329c0.454,125.471 -4.425,251.354 -6.942,376.808c-223.042,13.713 -688.542,-4.933 -884.517,-93.421c-76.7,-117.066 -85.171,-237.933 -92.15,-373.716Z" style="fill:#45759b;fill-rule:nonzero;"/><path d="M7067.75,7682.79c171.529,-8.75 342.467,-71.771 515.35,-71.6c45.604,15.104 86.787,31.683 129.392,54.046c-113.909,86.841 -244.879,155.329 -366.546,231.041c-186.321,115.892 -366.321,240.888 -540,374.984c-125.471,-146.788 -238.246,-288.751 -331.008,-459.342c139.308,-2.758 490.016,-30.554 592.812,-129.129Z" style="fill:#f2f2f4;fill-rule:nonzero;"/><path d="M7287.08,10322.7l13.575,1.629c10.571,15.559 12.934,19.221 14.705,37.884c3.87,40.625 -2.221,68.783 -28.959,99.704c-15.279,17.675 -31.196,31.162 -54.133,37.204c-164.792,43.475 -453.208,54.309 -630.188,72.1c-419.187,42.188 -837,88.492 -1256.86,124.792l-22.642,-5.467c-9.583,-45.8 16.721,-119.616 27.659,-166.129c393.829,-22.754 786.82,-55.583 1178.98,-98.487c251.891,-26.13 511.162,-44.934 757.866,-103.23Z" style="fill:#8b8b8a;fill-rule:nonzero;"/><path d="M8355.17,12633.8c27.291,-5.35 58.787,-4.791 86.737,-6.945c-8.696,146.962 -2.779,296.595 -5.033,443.958l-16.392,857.1l-115.291,-7.117c-37.396,-4.375 -78.126,-7.066 -106.08,-34.637c-30.85,-114.392 7.555,-1105.95 22.725,-1245.31c44.638,-0.362 88.854,-3.696 133.334,-7.046Z" style="fill:#9c6543;fill-rule:nonzero;"/><path d="M8366.71,12026.2c24.825,-2.467 44.079,-3.492 68.838,2.308c29.479,62.221 4.792,338.767 2.154,423.488c-186.233,15.037 -380.558,26.216 -566.425,3.075c-36.725,-6.4 -73.496,-12.542 -110.313,-18.421c-3.316,-90.675 -9.72,-194.2 47.796,-270.85c22.654,-30.192 53.646,-52.396 88.646,-66.129c109.479,-42.917 344.896,-55.088 469.304,-73.471Z" style="fill:url(#_Linear6);fill-rule:nonzero;"/><path d="M6065.17,10298.9c70.887,-10.104 137.829,39.117 199.287,70.225c-255.971,18.3 -511.387,44.862 -767.5,62.988c-53.783,1.475 -107.462,6.425 -161.108,10.537l-19.15,-112.325c249.775,4.6 499.671,-10.85 748.471,-31.425Z" style="fill:#8b8b8a;fill-rule:nonzero;"/><path d="M7462,13154.2c22.708,-1.77 26.492,-4.67 45,7.9c23.958,63.071 23.821,220.817 -7.221,281.755c-18.125,35.554 -82.242,51.962 -117.225,65.225c-22.012,7.237 -36.3,11.3 -59.929,10.137c-19.792,-104.929 -5.05,-237.275 -4.775,-345.346c48.163,-5.296 96.163,-12.916 144.15,-19.671Zm-2334.06,-103.925c13.229,-2.187 21.408,-0.866 34.495,1.13c31.58,65.141 9.584,280.12 7.621,363.125l-115.691,20.625l-33.038,3.075l-10.958,-9.238c-9.442,-117.604 -0.484,-240.779 1.6,-358.925c38.383,-8.087 77.237,-13.663 115.97,-19.792Z" style="fill:#45759b;fill-rule:nonzero;"/><path d="M5608.88,9768.46c1.875,1.042 3.888,1.859 5.608,3.159c32.43,24.516 18.488,198.075 21.146,246.354c-46.825,3.733 -91.321,8.925 -137.433,18.475l-7.917,2.083l-1.996,-12.746c43.35,-77.775 64.534,-192.687 120.592,-257.325Z" style="fill:#9c6543;fill-rule:nonzero;"/><path d="M5545.92,10143.1c20,7.467 21.096,18.975 30.833,37.05c27.067,-4.292 56.183,-8.458 83.613,-8.787c22.066,-0.275 30,3.283 44.304,19.254l-6.579,13.158c-60.434,13.004 -137.813,-2.221 -200.313,-4.408c-61.3,0.07 -131.129,7.396 -190.312,-8.784l-0.067,-7.987c80.016,-39.238 152.029,-37.429 238.521,-39.496Z" style="fill:#8b8b8a;fill-rule:nonzero;"/></g><defs><linearGradient id="_Linear1" x1="0" y1="0" x2="1" y2="0" gradientUnits="userSpaceOnUse" gradientTransform="matrix(-56.3467,103.896,-103.896,-56.3467,939.242,12802.2)"><stop offset="0" style="stop-color:#83533b;stop-opacity:1"/><stop offset="1" style="stop-color:#a86d45;stop-opacity:1"/></linearGradient><linearGradient id="_Linear2" x1="0" y1="0" x2="1" y2="0" gradientUnits="userSpaceOnUse" gradientTransform="matrix(-44.6625,89.6571,-89.6571,-44.6625,5696.63,13148.7)"><stop offset="0" style="stop-color:#85553c;stop-opacity:1"/><stop offset="1" style="stop-color:#a66c45;stop-opacity:1"/></linearGradient><linearGradient id="_Linear3" x1="0" y1="0" x2="1" y2="0" gradientUnits="userSpaceOnUse" gradientTransform="matrix(-557.679,1503.66,-1503.66,-557.679,4828.21,11439.7)"><stop offset="0" style="stop-color:#477599;stop-opacity:1"/><stop offset="1" style="stop-color:#50728c;stop-opacity:1"/></linearGradient><linearGradient id="_Linear4" x1="0" y1="0" x2="1" y2="0" gradientUnits="userSpaceOnUse" gradientTransform="matrix(142.005,133.181,-133.181,142.005,10758,9002.29)"><stop offset="0" style="stop-color:#7e4e3a;stop-opacity:1"/><stop offset="1" style="stop-color:#a66c46;stop-opacity:1"/></linearGradient><linearGradient id="_Linear5" x1="0" y1="0" x2="1" y2="0" gradientUnits="userSpaceOnUse" gradientTransform="matrix(-362.853,680.325,-680.325,-362.853,9911.33,11051)"><stop offset="0" style="stop-color:#477599;stop-opacity:1"/><stop offset="1" style="stop-color:#50728c;stop-opacity:1"/></linearGradient><linearGradient id="_Linear6" x1="0" y1="0" x2="1" y2="0" gradientUnits="userSpaceOnUse" gradientTransform="matrix(473.683,164.771,-164.771,473.683,7894.33,12175.3)"><stop offset="0" style="stop-color:#7f503a;stop-opacity:1"/><stop offset="1" style="stop-color:#a46a45;stop-opacity:1"/></linearGradient></defs></svg>