<?xml version="1.0" encoding="UTF-8" standalone="no"?><!DOCTYPE svg PUBLIC "-//W3C//DTD SVG 1.1//EN" "http://www.w3.org/Graphics/SVG/1.1/DTD/svg11.dtd"><svg width="100%" height="100%" viewBox="0 0 3975 3680" version="1.1" xmlns="http://www.w3.org/2000/svg" xmlns:xlink="http://www.w3.org/1999/xlink" xml:space="preserve" xmlns:serif="http://www.serif.com/" style="fill-rule:evenodd;clip-rule:evenodd;stroke-linejoin:round;stroke-miterlimit:2;"><g><path d="M2676.37,0.885c2.18,-0.158 4.355,-0.305 6.538,-0.346c105.904,-2.004 202.037,37.635 277.767,111.591c90.845,88.717 137.858,213.05 138.475,339.004c0.063,4.706 0.069,9.41 0.016,14.113c-0.05,4.705 -0.158,9.409 -0.325,14.112c-0.169,4.703 -0.394,9.403 -0.675,14.1c-0.283,4.695 -0.625,9.386 -1.025,14.075c-0.397,4.689 -0.853,9.372 -1.366,14.05c-0.514,4.675 -1.085,9.345 -1.713,14.008c-0.628,4.664 -1.312,9.318 -2.054,13.963c-0.745,4.647 -1.545,9.285 -2.4,13.912c-0.858,4.625 -1.772,9.239 -2.742,13.842c-0.969,4.606 -1.996,9.197 -3.079,13.775c-1.083,4.581 -2.224,9.146 -3.421,13.696c-1.194,4.55 -2.444,9.085 -3.75,13.604c-1.308,4.522 -2.671,9.026 -4.087,13.513c-1.42,4.486 -2.893,8.954 -4.421,13.404c-1.528,4.45 -3.11,8.88 -4.746,13.291c-1.636,4.412 -3.326,8.802 -5.071,13.171c-1.744,4.37 -3.543,8.718 -5.396,13.046c-1.85,4.325 -3.754,8.626 -5.712,12.904c-1.958,4.278 -3.968,8.532 -6.029,12.763c-2.061,4.228 -4.175,8.43 -6.342,12.608c-2.164,4.178 -4.381,8.328 -6.65,12.45c-2.267,4.122 -4.583,8.217 -6.95,12.283c-2.369,4.067 -4.787,8.103 -7.254,12.109c-2.467,4.005 -4.983,7.98 -7.55,11.925c-2.564,3.944 -5.177,7.857 -7.838,11.737c-2.664,3.881 -5.373,7.728 -8.129,11.542c-2.755,3.814 -5.558,7.593 -8.408,11.337c-2.847,3.745 -5.742,7.453 -8.683,11.125c-2.939,3.675 -5.924,7.313 -8.955,10.913c-3.027,3.6 -6.1,7.162 -9.216,10.687c-3.12,3.523 -6.281,7.007 -9.484,10.455c-3.202,3.447 -6.447,6.854 -9.733,10.22c-82.458,83.067 -188.567,130.23 -304.8,139.209c-28.087,2.171 -56.787,1.346 -84.971,1.408c18.075,93.367 22.484,191.979 8.392,286.088c22.296,4.75 53.171,7.816 69.337,25.362c3.759,4.075 6.646,8.908 6.063,14.65c-0.396,3.879 -3.521,7.346 -6.567,9.55c-19.65,14.233 -53.316,10.775 -76.221,7.892c-18.083,63.016 -39.533,120.358 -75.991,175.533c15.996,10.863 51.371,23.896 56.954,43.496c1.433,5.025 0.979,10.433 -2.092,14.775c-4.487,6.35 -12.15,9.758 -19.691,10.608c-21.95,2.471 -47.284,-15.587 -63.434,-28.941c-91.596,103.995 -150.791,149.145 -277.533,204.175c15.687,20.491 24.058,42.091 34.571,65.316c71.475,52.809 125.362,80.55 209.983,36.554c29.35,-15.262 49.771,-25.387 83.783,-23.366c10.13,-16.329 20.821,-30.288 34.459,-43.896c15.979,-15.946 47.887,-34.983 56.712,-55.533c13.479,-31.384 17.096,-72.005 24.513,-105.667l85.891,-404.529l24.292,-117.625c5.063,-24.571 9.067,-50.425 17.483,-74.075c3.717,-10.429 9.863,-16.734 18.675,-23.271c7.684,-5.7 18.009,-5.75 27.217,-6.121c34.946,-1.412 70.933,3.233 105.958,4.358l124.234,4.763c21.625,1.017 44.041,0.958 65.421,4.217c0.061,-3.184 0.17,-6.366 0.329,-9.546c1.154,-22.45 4.616,-55.671 22.829,-71.067c20.067,-16.967 56.196,-9.875 80.321,-8.112c10.5,-36.55 51.991,-225.284 70.121,-241.809c14.745,-13.441 31.312,-15.266 50.604,-14.033c30.187,1.925 106.258,5.108 133.216,12.771c11.221,3.191 25.646,10.171 32.613,19.929c6.467,9.062 6.842,24.346 5.996,34.937c-2.009,25.125 -11.142,50.871 -17.779,75.075c-11.167,40 -22.041,80.081 -32.621,120.242c4.762,0.633 9.546,1.033 14.325,1.533c18.616,1.95 39.579,4.938 51.687,21.009c15.742,20.879 7.617,52.196 3.534,75.612l189.029,7.121c43.937,1.654 90.404,1.254 133.583,10.213c28.063,5.82 56.617,17.116 82.117,30.033c17.366,8.8 34.675,20.025 40.525,39.692c3.454,11.616 2.233,23.35 0.483,35.125c-14.383,96.662 -42.579,204.487 -63.462,301.3l-125.063,582.32c-7.383,34.967 -40.321,165.938 -37.925,191.096c1.85,19.421 9.092,40.854 13.679,60.054l35.167,144.417l124.958,538.821c19.136,81.058 37.728,162.24 55.775,243.546c9.146,40.183 21.575,81.6 27.967,122.171c2.025,12.85 2.992,28.025 -3.9,39.666c-7.846,13.25 -27.946,18.188 -42.092,21.825c-62.471,16.071 -127.179,32.746 -186.746,-3.808c-13.108,-8.042 -17.25,-20.242 -21.991,-34.225c-8.375,-24.692 -12.713,-51.529 -18.396,-76.988l-29.5,-130.933l-112.863,-508.229c-34.945,-3.4 -72.008,-6.729 -106.433,-13.121c-7.012,112.096 -22.412,224.988 -34.508,336.683l-65.296,592.517c-3.246,28.817 -3.117,59.229 -28.229,78.296c-26.688,20.262 -73.754,31.65 -106.554,27.104c-29.513,-4.087 -98.559,-16.496 -123.842,-26.804c-8.908,-3.633 -19.588,-9.708 -24.933,-18.025c-5.417,-8.429 -5.175,-19.888 -4.909,-29.567c1.488,-53.525 11.067,-109.041 16.892,-162.391c9.287,-84.988 16.971,-170.838 28.979,-255.455c-60.729,-1.87 -123.687,-14.654 -183.925,-22.954c-105.781,-13.739 -211.326,-29.091 -316.637,-46.058c-18.88,72.221 -45.963,143.887 -69.35,214.929c-13.655,41.471 -24.534,87.638 -42.342,127.338c-5.2,11.591 -10.842,23.554 -22.254,30.066c-30.713,17.517 -73.929,3.571 -106.088,-2.371c-15.391,-2.841 -31.771,-4.366 -46.754,-8.908c-18.521,-5.621 -26.937,-15.487 -35.621,-32.008c1.671,-51.509 49.929,-173.938 67.338,-228.704l116,-355.53c33.122,-104.069 67.218,-207.819 102.287,-311.25c-36.887,-4.42 -190.208,-11.683 -210.187,-34.041c-11.709,-13.104 -13.363,-31.238 -12.004,-48.042c2.42,-29.917 8.958,-88.237 33.462,-107.329c15.533,-12.104 50.396,-4.138 68.95,-2.396c4.658,-31.433 12.196,-66.492 22.4,-96.562c-10.254,8.233 -21.992,14.812 -33.542,21.05c-78.408,42.325 -160.429,42.45 -244.804,17.391c8.217,47.8 21.179,194.588 12.642,238.796c-3.104,16.096 -9.567,27.129 -18.492,40.513c2.609,16.975 5.967,34.637 5.392,51.887c-0.958,28.458 -11.592,45.696 -31.488,64.721c-0.391,147.297 -6.22,294.378 -17.487,441.242c-3.508,40.62 -4.404,85.658 -15.017,125.016c-1.979,7.359 -5.458,13.821 -9.187,20.421l23.521,8.833c46.191,17.78 87.262,46.792 107.395,93.375c12.746,29.488 17.063,64.93 4.521,95.205c-13.608,32.845 -42.754,53.312 -74.55,66.404c-100.204,41.271 -250.004,19.925 -348.396,-21.75c-37.05,-16.917 -70.879,-37.184 -86.983,-76.588c-18.629,-45.562 -11.008,-118.362 7.771,-162.487c-8.821,-10.904 -19.883,-21.917 -22.963,-36.029c-7.375,-33.775 -3.229,-87.717 -4.125,-123.546c-1.67,-66.646 -5.362,-133.259 -6.845,-199.909c-16.605,3.234 -33.73,4.634 -50.53,6.617c-11.954,29.75 -16.391,65.513 -22.92,96.913c-13.15,62.127 -25.903,124.337 -38.259,186.629c-4.946,25.362 -7.541,51.512 -13.366,76.608c-6.263,26.954 -16.63,39.842 -39.846,54.408c1.794,5.164 3.408,10.384 4.841,15.659c16.542,61.262 29.259,142.104 -4.07,199.971c-26.567,46.12 -73.296,71.875 -123.471,85.008c-73.296,19.183 -159.988,11.346 -225.763,-27.775c-35.671,-21.217 -60.021,-48.833 -70.166,-89.779c-18.017,-72.713 1.5,-159.225 39.708,-222.338c-3.631,-4.997 -7.139,-10.079 -10.525,-15.246c-7.313,-11.366 -9.217,-22.466 -9.55,-35.716c-0.821,-32.284 7,-64.542 10.929,-96.484c5.179,-42.1 7.758,-86.416 16.717,-127.812c-57.109,96.046 -160.117,185.887 -263.638,227.767c-100.941,40.841 -216.633,46.495 -317.779,3.312c-129.75,-55.4 -183.937,-189.033 -165.254,-324.133c10.846,-78.434 61.412,-176.717 28.45,-254.288c-10.129,-23.837 -28.117,-40.871 -52.038,-50.541c-38.058,-15.388 -79.554,-11.605 -116.65,4.7c-77.96,34.262 -128.903,118.816 -145.048,199.854c-4.615,23.162 -2.727,49.579 -11.887,71.496c-4.06,9.712 -11.189,19.929 -21.618,23.383c-9.92,3.283 -21.39,0.112 -30.18,-4.85c-20.33,-11.475 -31.606,-33.929 -37.148,-55.746c-22.257,-87.629 -6.808,-169.204 39.607,-246.196c48.423,-80.325 125.89,-144.525 218.204,-166.775c79.308,-19.116 163.266,-8.816 233.195,34.184c4.798,2.958 9.48,6.087 14.046,9.387c4.57,3.297 9.013,6.758 13.329,10.383c4.314,3.623 8.492,7.398 12.534,11.325c4.041,3.931 7.933,8.002 11.675,12.213c3.744,4.211 7.33,8.554 10.758,13.029c3.428,4.472 6.688,9.064 9.779,13.775c3.092,4.711 6.007,9.529 8.746,14.454c2.742,4.922 5.3,9.939 7.675,15.05c75.083,158.984 -36.642,281.034 -5.371,406.663c8.529,34.254 28.142,64.712 59.279,82.479c37.063,21.146 83.455,19.379 123.459,8.687c163.566,-43.72 248.637,-225.433 325.421,-361.004c13.77,-24.316 31.508,-46.104 45.604,-70.258c-10.571,-36.763 -16.409,-69.45 0.483,-105.542c-1.458,-2.461 -2.867,-4.951 -4.225,-7.471c-34.45,-62.65 -0.229,-162.487 18.671,-227.191c-20.804,9.104 -41.808,17.991 -63.288,25.4c-89.887,30.987 -163.425,27.75 -248.083,-13.725c-28.767,21.779 -58.633,41.166 -91.892,55.379c-130.729,55.854 -282.404,24.217 -408.791,-27.988c-142.778,-58.975 -286.437,-179.679 -346.211,-324.279c-40.915,-98.979 -44.324,-209.837 -2.443,-309.025c41.671,-98.687 128.455,-172.271 226.716,-211.55c161.742,-64.654 358.538,-40.316 515.588,27.146c156.487,67.225 262.912,164.917 327.05,325.45c12.496,-8.117 24.429,-17.154 36.475,-25.929c-6.546,-16.533 -7.425,-30.796 -4.234,-48.363c7.088,-39.02 29.18,-70.908 61.384,-93.383c-113.75,-72.8 -187.159,-157.062 -234.588,-284.492c-28.612,4.275 -57.987,5.205 -86.779,8.38c-23.942,2.637 -49.162,8.27 -73.146,8.308c-6.258,0.008 -10.541,-0.788 -15.787,-4.392c-5.646,-3.879 -10.154,-10.704 -10.846,-17.625c-0.558,-5.621 1.967,-10.675 5.829,-14.554c24.946,-25.067 132.017,-27.212 167.85,-27.842c-5.921,-34.054 -9.583,-68.216 -12.95,-102.6c-42.321,-11.933 -87.087,-22.054 -130.379,-29.808c-19.325,-3.458 -39.629,-3.458 -58.617,-8.425c-5.937,-1.554 -11.912,-3.021 -15.912,-8.008c-4.25,-5.3 -5.146,-11.934 -4.184,-18.496c0.955,-6.529 4.055,-11.296 9.521,-15.092c29.2,-20.25 162.504,20.059 199.171,28.959c3.029,-33.092 1.917,-66.85 4.663,-100.134c1.783,-19.558 4.09,-39.055 6.92,-58.491c2.828,-19.437 6.175,-38.782 10.042,-58.038c3.864,-19.258 8.242,-38.397 13.133,-57.417c4.889,-19.022 10.285,-37.9 16.188,-56.633c-6.071,-1.875 -11.913,-4.196 -17.704,-6.804c-95.704,-43.088 -162.4,-131.854 -198.192,-228.3c-49.237,-132.692 -43.329,-299.833 15.958,-428.229c41.309,-89.459 110.467,-165.198 204.671,-198.969c73.9,-26.494 155.775,-18.401 226.121,15.13c108.221,51.582 179.354,147.907 219.825,258.555c10.617,29.034 16.429,59.417 26.808,88.409l0.834,2.262c32.271,-22.816 66.846,-39.641 106.704,-42.708c-3.758,-23.754 -4.025,-48.354 10.858,-68.767c10.934,-14.991 27.979,-23.221 46.046,-25.808c63.575,-9.108 148.583,19.204 202.429,52.471c19.746,12.2 38.654,31.141 60.221,39.354c21.613,8.237 46.904,9.787 69.458,15.442c80.575,20.208 172.305,49.854 239.163,99.887c25.996,-93.946 82.525,-191.725 145.829,-265.656c85.108,-99.394 198.925,-177.111 332.208,-187.443Zm-12.408,2945.94c100.958,15.787 202.717,27.254 303.971,41.091c30.692,4.192 61.862,7.221 92.371,12.454c22.141,2.809 46.191,4.305 67.604,10.592c12.989,-133.144 27.707,-266.099 44.154,-398.862c-89.721,-5.688 -181.642,-18.73 -271.175,-28.955c-35.254,-4.029 -75.454,-3.329 -109.579,-13.004c-23.233,73.392 -48.783,146.017 -73.342,218.971c-17.65,52.433 -33.804,106.221 -54.004,157.713Z" style="fill:#313945;fill-rule:nonzero;"/><path d="M2192.44,517.688c-0.966,21.275 -7.15,54.921 7.688,71.638c5.062,1.666 6.025,2.337 10.937,-0.659c6.584,-4.012 11.542,-15.57 14.071,-22.408c7.329,-19.821 11.1,-41.579 16.513,-62.025c7.671,-28.979 17.75,-58.867 29.125,-86.596c73.837,-180.008 246.196,-374.804 457.825,-355.141c87.537,8.134 166.8,54.07 222.208,121.646c74.15,90.429 101.221,211.504 89.438,326.258c-13.517,131.658 -76.584,259.316 -180.584,342.875c-95,76.325 -206.979,103.787 -327.058,89.591c-0.608,-0.07 -1.217,-0.158 -1.825,-0.237l-11.629,-38.283c-10.2,-27.167 -20.509,-53.963 -33.975,-79.746c-9.85,-18.859 -21.692,-36.529 -31.663,-55.325c8.35,-49.604 38.55,-91.713 58.625,-137.075c4.571,-10.338 11.938,-30.204 5.721,-41.15c-2.575,-4.538 -5.417,-7.059 -10.671,-8.063c-19.804,-3.796 -74.483,33.204 -93.716,43.8c1.816,-21.95 4.781,-43.743 8.895,-65.379c4.117,-21.639 9.359,-43 15.725,-64.083c32.655,-108.221 99.725,-224.821 202.58,-279.525c63.366,-33.7 138.833,-35.825 203.05,-2.871c15.837,8.125 35.262,25.746 52.079,29.875c0.85,0.208 1.733,0.25 2.6,0.375c-14.146,-36.879 -55.021,-64.777 -89.613,-80.251c-52.483,-23.477 -110.333,-21.552 -163.525,-1.144c-104.625,40.141 -178.591,140.878 -222.112,240.203c-31.871,72.738 -49.367,148.754 -54.729,227.917c-1.084,15.958 -4.196,37.175 2.1,52.125c2.316,5.504 4.829,7.475 9.875,10.329c21.862,-7.721 37.691,-28.225 56.279,-41.496c9.5,-6.783 20.262,-11.883 30.679,-17.1c-31.958,49.413 -63.071,98.046 -66.575,158.459c11.779,11.441 22.175,22.054 31.054,35.941c52.608,82.309 74.883,239.659 76.275,337.234c0.529,36.979 -0.946,75.595 -5.667,112.27c-106.77,-1.975 -186.304,-0.362 -290.02,27.142c-15.963,4.233 -45.063,10.588 -56.584,22.888c-3.846,4.112 -3.762,5.137 -3.862,10.445c3.725,5.367 7.454,8.563 13.975,9.671c23.016,3.9 55.379,-6.171 78.566,-9.446c34.281,-4.941 68.666,-9.005 103.155,-12.191c49.279,-4.092 98.095,-1.659 147.325,1.646c-18.942,59.233 -39.542,115.045 -73.075,167.958c-60.117,-21.496 -222.334,-71.7 -279.605,-44.088c-3.158,1.525 -4.991,2.984 -6.808,6.063c0.579,5.483 1.496,7.55 6.033,10.971c16.588,12.504 134.767,29.866 162.855,36.871c29.17,7.27 57.712,17.245 85.887,27.67c-109.183,131.313 -264.175,202.28 -429.258,234.267c-29.254,5.671 -58.384,11.263 -88.088,13.967c-22.887,2.087 -50.175,0.1 -71.962,6.112c-21.45,5.917 -41.621,23.796 -62.463,33.038c-82.937,36.766 -182.6,42.35 -255.416,-18.538c-21.309,-17.816 -38.188,-41.587 -61.555,-56.733c-34.375,-22.283 -78.258,-32.733 -115.779,-49.346c-95.8,-42.421 -185.733,-108.579 -243.662,-196.921c-18.113,-27.625 -32.375,-57.766 -45.934,-87.829c15.275,-1.242 49.255,-2.683 59.767,-15.612c2.488,-3.055 2.958,-6.692 3.675,-10.421c-2.271,-6.284 -4.662,-9.109 -10.854,-11.925c-20.304,-9.242 -47.492,-9.334 -69.408,-13.463c-5.755,-26.437 -7.88,-53.033 -10.4,-79.916c18.162,5.858 59.283,23.379 76.716,14.891c3.284,-1.6 2.863,-2.304 4.179,-5.412c-4.962,-17.217 -25.108,-29.592 -40.12,-37.9c-13.646,-7.55 -27.871,-14.15 -42.063,-20.6c-0.362,-38.688 -0.437,-76.863 2.992,-115.442c16.391,-184.496 84.071,-382.567 216.229,-516.9c76.304,-77.558 179.354,-137.992 285.179,-163.142c15.163,7.559 81.933,44.067 96.213,39.005c4.995,-1.775 5.683,-3.125 7.479,-7.621c-3.767,-16.375 -26.504,-32.079 -40.275,-40.759c-11.563,-7.283 -23.617,-13.8 -35.234,-21.025c46.33,-18.087 90.863,-32.083 139.042,-11.045c12.588,5.495 31.854,21.629 44.075,22.575c4.867,-3.242 4.863,-3.563 6.838,-9.109c-9.371,-46.012 -97.042,-74.721 -77.675,-101.725c4.108,-5.725 10.262,-6.95 16.816,-7.012c14.667,-0.138 29.204,2.929 43.534,5.666c64.525,12.325 113.679,42.409 161.575,86.18c106.308,16.433 258.02,50.637 337.995,125.116Z" style="fill:#f2f2f4;fill-rule:nonzero;"/><path d="M2413.47,626.788c1.816,-21.95 4.781,-43.743 8.895,-65.379c4.117,-21.639 9.359,-43 15.725,-64.083c32.655,-108.221 99.725,-224.821 202.58,-279.525c63.366,-33.7 138.833,-35.825 203.05,-2.871c15.837,8.125 35.262,25.746 52.079,29.875c0.85,0.208 1.733,0.25 2.6,0.375l6.083,-1.854c41.45,30.696 71.417,132.366 78.729,181.046c16.346,108.812 -20.937,226.5 -85.679,313.925c-63.292,85.462 -148.575,144.454 -254.787,160.245c-25.98,3.863 -51.246,6.23 -77.525,5.321c-13.038,-0.454 -34.438,-4.133 -46.071,0.484c-10.2,-27.167 -20.509,-53.963 -33.975,-79.746c-9.85,-18.859 -21.692,-36.529 -31.663,-55.325c8.35,-49.604 38.55,-91.713 58.625,-137.075c4.571,-10.338 11.938,-30.204 5.721,-41.15c-2.575,-4.538 -5.417,-7.059 -10.671,-8.063c-19.804,-3.796 -74.483,33.204 -93.716,43.8Z" style="fill:#fac3b7;fill-rule:nonzero;"/><path d="M1446.94,1284.12c20.934,-2.545 44.304,-0.345 64.679,4.946c25.334,6.579 52.738,20.354 65.625,44.159c8.084,14.933 8.705,31.7 3.696,47.729c-15.071,48.258 -58.329,67.991 -99.066,90.3c0.95,4.111 1.979,8.201 3.087,12.271c6.508,23.616 19.379,42.154 41.204,53.9c45.467,24.475 105.963,18.358 153.704,4.77c39.096,-11.125 81.067,-30.675 101.413,-67.462c-9.871,-6.817 -20.925,-12.579 -23.713,-25.179c1.692,-5.975 3.68,-9.313 9.209,-12.484c13.175,-7.545 28.866,-4.195 42.541,0.105c23.625,7.429 57.942,22.12 69.096,45.508c2.763,5.8 3.104,9.875 1.059,15.875c-2.15,1.471 -2.396,1.808 -5.155,2.804c-14.037,5.083 -33.57,-5.412 -46.162,-10.808c-20.025,22.312 -27.383,49.187 -36.15,77.137c-24.588,78.388 -54.579,141.696 -124.117,189.054c-13.146,7.2 -26.558,12.538 -41.254,15.642c-37.996,8.017 -76.333,-2.025 -108.337,-23.258c-53.475,-35.484 -79.9,-99.821 -92.263,-160.338c-36.983,-4.821 -71.542,-18.533 -100.525,-42.362c-30.046,-24.7 -60.146,-68.096 -63.267,-107.854c-0.904,-11.525 0.571,-18.834 8.238,-27.488c3.217,-1.312 4.808,-2.729 8.371,-1.858c18.691,4.575 31.146,49.496 41.45,65.816c21.854,34.63 64.833,64.738 105.729,72.68c16.958,3.295 27.329,-3.363 40.587,-12.55c-13.987,-20.038 -20.191,-39.517 -25.108,-63.15c-21.962,-5.146 -43.154,-12.571 -61.179,-26.53c-21.063,-16.308 -36.204,-39.658 -39.313,-66.437c-2.358,-20.321 2.95,-40.108 16.159,-55.863c22.2,-26.475 56.946,-35.454 89.762,-39.075Z" style="fill:#313945;fill-rule:nonzero;"/><path d="M1622.23,1608.11c37.175,-25.541 87.637,-32.725 128.458,-53.171c-6.654,23.988 -13.929,53.959 -28.075,74.717c-10.675,20.692 -22.729,41.446 -38.696,58.529c-21.758,23.279 -52.375,40.575 -84.787,41.025c-27.417,0.379 -50.354,-10.716 -69.796,-29.346c0.258,-0.516 0.508,-1.033 0.771,-1.545l1.325,-2.555c19.862,-38.954 56.429,-62.7 90.8,-87.654Z" style="fill:#fac3b7;fill-rule:nonzero;"/><path d="M1622.23,1608.11c37.175,-25.541 87.637,-32.725 128.458,-53.171c-6.654,23.988 -13.929,53.959 -28.075,74.717c-27.596,-11.733 -75.446,-7.05 -100.383,-21.546Z" style="fill:#e1a39e;fill-rule:nonzero;"/><path d="M1435.31,1323.61c21.371,-3.017 45.121,-2.175 66.083,3.142c13.588,3.441 29.471,9.408 36.634,22.45c4.116,7.504 4.195,15.991 1.82,24.066c-7.55,25.704 -35.245,43.042 -57.495,54.921c-2.664,0.792 -5.338,1.551 -8.021,2.279c-20.021,5.304 -40.313,1.754 -58,-8.95c-16.296,-9.858 -31.438,-26.621 -35.417,-45.716c-2.162,-10.38 -0.737,-21.067 5.5,-29.809c11.371,-15.941 30.854,-19.533 48.896,-22.383Z" style="fill:#fac3b7;fill-rule:nonzero;"/><path d="M1496.69,1570.46c27.125,12.271 49.159,20.333 79.092,22.175c-18.579,15.229 -35.321,32.8 -51.433,50.571l-20.617,25.992c-12.717,-16.534 -30.937,-46.955 -29.154,-68.23c1.262,-15.033 11.483,-21.52 22.112,-30.508Z" style="fill:#e1a39e;fill-rule:nonzero;"/><path d="M1930.12,1000.28c23.925,-1.487 45.854,2.904 66.208,16.038c32.321,20.862 50.429,55.825 58.162,92.62c10.738,51.067 4.93,111.871 -24.683,155.955c-19.25,28.662 -46.121,45.416 -79.917,51.783c-25.241,0.775 -48.012,-1.088 -70.087,-14.821c-31.871,-19.825 -50.775,-56.379 -58.3,-92.225c-10.904,-51.962 1.133,-113.229 30.796,-157.275c19.279,-28.633 43.816,-45.554 77.821,-52.075Z" style="fill:#313945;fill-rule:nonzero;"/><path d="M1964.42,1066.86c4.321,-0.279 8.846,-0.65 13.125,0.187c8.296,1.617 14.805,6.771 19.5,13.646c7.342,10.742 8.971,24.554 6.355,37.104c-2.763,13.275 -8.663,19.625 -19.642,27.013c-2.883,0.358 -5.825,0.812 -8.75,0.633c-1.022,-0.055 -2.039,-0.162 -3.05,-0.321c-1.008,-0.158 -2.007,-0.369 -2.996,-0.633c-0.989,-0.261 -1.962,-0.572 -2.921,-0.933c-0.955,-0.364 -1.891,-0.775 -2.808,-1.234c-0.914,-0.458 -1.803,-0.962 -2.667,-1.512c-0.861,-0.547 -1.693,-1.139 -2.496,-1.775c-0.802,-0.636 -1.569,-1.311 -2.3,-2.025c-0.733,-0.714 -1.427,-1.464 -2.083,-2.25c-8.1,-9.829 -9.662,-23.408 -8.217,-35.654c1.8,-15.209 7.355,-22.742 18.95,-32.246Z" style="fill:#fff;fill-rule:nonzero;"/><path d="M1230.58,989.976c16.308,-1.129 31.596,2.329 45.558,11.004c27.504,17.079 41.683,50.808 48.321,81.279c10.875,49.904 5.567,109.292 -22.646,152.879c-15.775,24.375 -37.092,41.629 -65.867,47.8c-14.962,1.375 -29.904,-2.721 -42.795,-10.266c-25.575,-14.963 -41.975,-44.863 -49.538,-72.805c-13.5,-49.87 -7.862,-113.104 18.621,-157.975c16.05,-27.2 37.65,-44.116 68.346,-51.916Z" style="fill:#313945;fill-rule:nonzero;"/><path d="M1263.34,1045.55c3.075,0.695 6.717,1.337 9.559,2.7c8.533,4.095 13.908,13.629 16.841,22.27c4.417,13.017 4.355,29.705 -2.483,41.921c-5.075,9.067 -11.517,11.559 -21.054,14.05c-9.917,-1.387 -17.188,-4.116 -23.375,-12.25c-6.908,-9.083 -8.408,-20.308 -6.308,-31.325c3.554,-18.658 11.783,-26.933 26.82,-37.366Z" style="fill:#fff;fill-rule:nonzero;"/><path d="M1951.76,713.292c28.029,-3.633 61.092,5.48 85.675,18.746c28.887,15.592 61.762,46.104 70.683,78.604c2.509,9.13 2.917,16.234 -1.746,24.667c-2.995,1.85 -4.008,3.379 -7.725,2.888c-11.616,-1.53 -26.483,-24.488 -34.579,-33.48c-32.7,-31.066 -81.571,-55.495 -127.537,-44.216c-13.175,3.233 -32.546,11.783 -45.775,9.241c-5.842,-1.125 -6.088,-1.783 -8.913,-6.562c-0.112,-9.846 3.604,-18.975 9.984,-26.533c13.779,-16.321 39.733,-21.088 59.933,-23.355Zm-711.504,12.03c24.216,-1.859 59.025,-1.75 78.021,15.529c5.012,4.558 8.166,10.741 8.004,17.633c-0.175,7.375 -2.442,11.158 -7.613,15.963c-12.362,3.825 -34.579,-5.505 -48.121,-7.055c-30.308,-3.475 -53.537,9.646 -76.608,27.375c-12.096,11.03 -25.679,34.35 -39.65,41.275c-5.033,2.492 -7.637,2.259 -12.862,0.759c-1.571,-1.975 -1.934,-2.179 -2.98,-4.838c-5.075,-12.916 5.384,-36.075 12.117,-46.771c21.196,-33.675 51.308,-51.77 89.692,-59.87Z" style="fill:#313945;fill-rule:nonzero;"/><path d="M2784.77,1060.6c42.62,-0.867 86.291,3.271 128.887,5.362l193.629,8.679c228.446,10.696 457.104,23.063 685.684,29.971c-8.796,66.213 -26.538,133.184 -40.513,198.567l-74.646,349.446l-116.7,546.508c-18.616,86.521 -35.437,173.571 -56.341,259.575c-68.434,-3.279 -137.638,-12.737 -205.938,-19.358l-395.271,-37.963l-264.804,-24.921c-44.904,-4.195 -93.637,-5.195 -137.654,-14.283l-1.538,-4.287c11.746,-39.209 19.496,-80.038 29.559,-119.771c29.871,-3.179 61.55,-8.421 87.925,-23.659c30.296,-17.508 40.841,-44.65 49.333,-76.687c42.029,-8.138 75.183,-13.217 108.7,-41.9c23.054,-19.729 55.667,-23.008 78.763,-44.783c24.933,-23.505 29.137,-54.713 29.716,-87.021c8.879,-4.546 17.321,-9.421 24.879,-16.004c17.075,-14.88 26.863,-35.346 28.221,-57.9c2.175,-36.113 -15.133,-61.042 -38.104,-86.371c13.663,-14.109 29.329,-26.717 43.704,-40.142c23.359,-21.812 46.2,-44.65 68.242,-67.792c32.229,-33.829 59.179,-70.958 88.871,-106.795c24.391,-5.359 48.512,-10.225 69.908,-23.771c45.708,-28.942 76.513,-80.979 87.796,-133.109c6.525,-30.158 14.754,-116.958 -4.308,-142.116c-3.125,-4.129 -5.225,-5.546 -10.267,-6.134c-19.204,11.43 -27.063,36.68 -45.225,48.792c-12.3,8.204 -29.938,11.121 -44.058,15.758c-40.321,13.242 -84.634,33.755 -110.55,68.709c-23.18,31.262 -26.967,63.546 -21.263,101.041c-22.458,22.105 -48.875,41.596 -73.058,61.9l-143.904,121.034c-10.03,-5.513 -20.309,-11.334 -31.413,-14.342c-45.104,-12.212 -91.55,12.833 -129.058,35.204c35.687,-152.85 65.887,-307.312 98.037,-460.958c13.938,-66.604 24.721,-134.871 42.759,-200.479Z" style="fill:#fefeff;fill-rule:nonzero;"/><path d="M1238.63,1725.31c5.387,-0.104 154.383,62.384 162.871,68.463c20.666,14.804 36.05,37.475 56.087,53.658c53.992,43.613 115.925,53.796 183.2,46.279c23.988,14.829 48.359,29.067 72.071,44.334c20.329,13.087 41.146,29.35 63.071,39.391c6.6,3.025 12.787,5.088 20.096,3.938c36.725,-5.779 120.229,-93.146 146.371,-123.946c13.008,-15.325 24.033,-32.108 36.375,-47.954c46.6,-6.421 92.383,-17.879 137.7,-30.225c7.508,8.9 16.279,18.691 19.97,29.9c17.196,52.191 -128.962,127.15 -165.891,144.562c-22.079,10.413 -47.592,17.113 -68.4,29.579c-7.225,4.334 -11.792,8.717 -15.679,16.146c0.129,5.242 0.108,6.471 4.441,10.154c6.071,5.167 20.017,5.563 27.425,4.188c72.854,-13.504 206.1,-86.383 247.171,-147.925c17.225,11.375 32.925,24.833 50.563,35.758c45.854,28.396 103.25,47.342 157.054,34.984c-1.167,6.23 -2.22,12.48 -3.159,18.75c-9.35,64.583 13.959,121.733 51.692,172.65c-20.167,24.625 -46.55,44.912 -63.546,72.016c-12.912,20.584 -17.25,41.459 -11.696,65.092c-53.72,4.837 -104.125,0.775 -155.604,-15.708c-6.575,-39.955 -26.804,-227.446 -51.104,-245.75c-4.225,-3.188 -8.812,-3.917 -13.846,-2.521c-16.879,4.675 -15.216,21.012 -13.066,34.625c6.679,42.362 15.754,84.25 21.504,126.808c10.9,80.658 16.808,162.646 21.566,243.871c2.005,34.162 6.459,70.871 4.084,104.983c-0.85,12.234 -2.725,27.471 -10.234,37.529c-28.058,37.609 -149.833,57.363 -197.691,63.092c-175.509,29.442 -495.854,19.038 -664.842,-43.629c-18.104,-6.713 -37.467,-13.363 -53.796,-23.808c-12.95,-8.28 -20.687,-18.805 -23.541,-34.025c-5.309,-28.3 33.225,-216.221 51.679,-241.375c8.712,-11.875 23.275,-22.113 34.329,-32.046c21.671,-19.471 42.171,-40.667 58.675,-64.771c9.6,-14.021 31.996,-45.896 26.812,-63.617c-1.758,-6.004 -5.862,-8.275 -10.787,-11.316c-22.05,-1.188 -44.217,43.975 -57.846,59.816c-54.008,62.788 -133.879,121.684 -214.858,143.042c-57.821,15.25 -129.829,15.762 -182.679,-15.25c14.341,-27.067 23.458,-48.542 26.237,-79.396c3.656,-0.925 7.289,-1.933 10.9,-3.025c3.611,-1.089 7.194,-2.261 10.75,-3.517c3.556,-1.255 7.082,-2.59 10.579,-4.004c3.495,-1.416 6.956,-2.912 10.384,-4.487c3.427,-1.575 6.816,-3.227 10.166,-4.954c3.353,-1.731 6.664,-3.535 9.934,-5.413c3.266,-1.883 6.49,-3.839 9.67,-5.867c3.181,-2.027 6.313,-4.126 9.396,-6.295c3.084,-2.173 6.115,-4.414 9.096,-6.725c2.981,-2.309 5.907,-4.685 8.779,-7.13c2.872,-2.444 5.688,-4.952 8.446,-7.525c2.758,-2.572 5.456,-5.207 8.092,-7.904c2.639,-2.694 5.214,-5.448 7.725,-8.262c2.511,-2.814 4.957,-5.684 7.337,-8.609c2.378,-2.925 4.689,-5.904 6.934,-8.937c2.244,-3.031 4.418,-6.111 6.52,-9.242c39.392,-59.321 41.621,-129.358 28.2,-197.216c25.313,-15.134 51.859,-32.33 78.925,-44c13.734,-5.921 26.467,-8.205 41.309,-5.821c49.596,7.95 100.437,41.016 144.212,64.466c38.725,20.746 78.079,41.909 118.946,58.063c31.217,12.342 148.788,58.079 177.554,40.637c5.3,-3.212 5.671,-4.741 7.442,-10.295c-0.7,-1.95 -0.629,-2.155 -2.146,-4.034c-0.417,-0.512 -0.942,-0.925 -1.446,-1.35c-11.741,-9.858 -117.391,-41.025 -143.987,-51.75c-39.825,-16.054 -79.642,-34.071 -117.225,-54.887c-46.2,-25.592 -90.446,-54.829 -140.267,-73.204c-46.4,-17.113 -49.537,-12.48 -95.358,-13.275c-2.534,-2.975 -3.909,-5.146 -5.209,-8.917c-3.754,-10.858 1.463,-23.104 6.796,-32.433c13.196,-23.075 29.142,-37.442 54.767,-44.434Z" style="fill:#7a7bbe;fill-rule:nonzero;"/><path d="M413.465,1529.99c16.275,-2.358 34.417,-1.504 50.95,-1.512c74.017,-0.05 144.35,10.017 215.204,31.396c145.867,44.016 282.063,134.896 354.925,272.021c32.275,60.745 51.955,135.575 30.388,203.329c-15.521,48.754 -51.463,83.946 -96.608,106.312c-17.734,8.784 -36.455,15.292 -54.055,24.409l-2.345,1.237c-17.78,30.938 -19.563,67.6 -44.109,95.033c-37.108,41.475 -97.279,56.23 -150.633,59.475c-28.817,3.3 -61.613,-0.583 -90.508,-3.883c-9.414,-1.117 -18.806,-2.396 -28.175,-3.837c-9.373,-1.442 -18.716,-3.043 -28.03,-4.805c-9.316,-1.761 -18.598,-3.682 -27.845,-5.762c-9.25,-2.081 -18.462,-4.321 -27.634,-6.721c-9.172,-2.397 -18.3,-4.951 -27.383,-7.662c-9.083,-2.712 -18.118,-5.58 -27.104,-8.605c-8.986,-3.022 -17.918,-6.197 -26.796,-9.525c-8.875,-3.33 -17.69,-6.812 -26.446,-10.445c-8.758,-3.634 -17.45,-7.416 -26.075,-11.346c-8.628,-3.934 -17.185,-8.013 -25.671,-12.238c-8.486,-4.225 -16.897,-8.596 -25.233,-13.112c-8.336,-4.514 -16.592,-9.171 -24.767,-13.971c-8.178,-4.8 -16.269,-9.739 -24.275,-14.817c-8.005,-5.078 -15.921,-10.291 -23.747,-15.641c-7.827,-5.35 -15.559,-10.832 -23.197,-16.446c-7.638,-5.617 -15.178,-11.363 -22.618,-17.238c-79.581,-63.179 -140.822,-145.191 -152.21,-248.683c-0.59,-5.006 -1.054,-10.024 -1.392,-15.054c-0.338,-5.031 -0.551,-10.067 -0.637,-15.109c-0.085,-5.038 -0.043,-10.077 0.121,-15.116c0.167,-5.039 0.459,-10.071 0.878,-15.096c0.418,-5.025 0.962,-10.035 1.631,-15.029c0.67,-4.997 1.464,-9.975 2.383,-14.934c0.919,-4.955 1.961,-9.886 3.127,-14.791c1.166,-4.906 2.454,-9.778 3.864,-14.617c1.41,-4.842 2.94,-9.644 4.591,-14.408c1.65,-4.761 3.419,-9.479 5.306,-14.154c1.887,-4.675 3.89,-9.3 6.009,-13.875c2.119,-4.575 4.35,-9.095 6.695,-13.559c2.346,-4.461 4.801,-8.862 7.367,-13.204c2.565,-4.339 5.238,-8.611 8.018,-12.817c2.779,-4.205 5.662,-8.338 8.649,-12.4c2.987,-4.063 6.073,-8.048 9.26,-11.954c71.264,-87.662 178.219,-129.537 288.127,-140.846Z" style="fill:#b2895e;fill-rule:nonzero;"/><path d="M826.324,1892.38c28.391,-0.771 55.02,5.879 79.35,20.708c28.712,17.5 50.725,45.975 57.816,79.134c0.336,1.497 0.635,3.002 0.896,4.516c0.258,1.514 0.479,3.034 0.663,4.559c0.183,1.522 0.329,3.05 0.437,4.583c0.106,1.53 0.172,3.064 0.2,4.6c0.031,1.533 0.021,3.068 -0.029,4.604c-0.047,1.533 -0.133,3.065 -0.258,4.596c-0.125,1.53 -0.289,3.057 -0.492,4.579c-0.203,1.522 -0.445,3.038 -0.725,4.546c-0.278,1.511 -0.595,3.014 -0.95,4.508c-0.353,1.495 -0.745,2.978 -1.175,4.45c-0.431,1.475 -0.897,2.938 -1.4,4.388c-0.503,1.45 -1.042,2.887 -1.617,4.312c-0.575,1.422 -1.186,2.829 -1.833,4.221c-0.647,1.395 -1.329,2.771 -2.046,4.129c-0.714,1.359 -1.462,2.697 -2.246,4.017c-0.783,1.319 -1.6,2.619 -2.45,3.9c-20.35,30.658 -51.096,41.546 -85.496,47.758c-35.291,0.938 -72.916,-8.866 -101.212,-30.504c-23.246,-17.775 -40.808,-44.704 -44.196,-74.092c-2.887,-25.004 4.771,-49.779 20.408,-69.395c21.075,-26.434 53.588,-40.084 86.355,-44.117Z" style="fill:#313945;fill-rule:nonzero;"/><path d="M820.228,1933.65c17.529,-1.092 34.058,3.129 49.591,11.275c21.73,11.395 44.284,32 51.18,56.187c3.816,13.371 2.416,27.783 -4.992,39.679c-9.167,14.721 -25.475,21.904 -41.596,25.85c-22.35,0.954 -43.025,0.721 -63.879,-8.558c-18.271,-8.133 -34.108,-22.208 -40.804,-41.45c-5.388,-15.483 -4.5,-32.054 3.2,-46.596c9.8,-18.5 27.758,-30.367 47.3,-36.387Z" style="fill:#fcf2d8;fill-rule:nonzero;"/><path d="M552.957,2046.36c45.55,-2.938 86.579,1.521 126.121,26.25c24.2,15.137 46.866,38.625 52.908,67.308c3.775,17.938 1.017,36.779 -9.687,51.879c-17.105,24.13 -47.484,34.992 -75.355,40.042c-47.537,4.992 -93.125,-2.442 -134.341,-27.742c-22.488,-13.804 -42.909,-33.787 -48.725,-60.437c-3.892,-17.833 -0.775,-36.646 9.446,-51.854c17.904,-26.638 49.495,-39.213 79.633,-45.446Z" style="fill:#313945;fill-rule:nonzero;"/><path d="M560.344,2079.74c32.721,-3.012 62.292,1.78 91.005,18.446c19.087,11.079 42.062,29.104 47.35,51.429c1.862,7.875 0.533,15.85 -4.15,22.5c-12.046,17.105 -37.646,22.238 -57.084,25.071c-33.15,3.379 -67.533,-0.121 -97.2,-16.196c-17.666,-9.57 -35.733,-24.666 -40.904,-44.945c-2.4,-9.417 -1.533,-18.93 3.788,-27.188c12.137,-18.837 36.662,-24.95 57.195,-29.117Z" style="fill:#19aede;fill-rule:nonzero;"/><path d="M274.071,1912.96c41.273,-3.092 83.34,2.988 118.248,26.6c22.259,15.058 42.525,37.696 47.163,64.904c0.386,2.392 0.65,4.797 0.792,7.217c0.138,2.419 0.156,4.839 0.054,7.258c-0.106,2.42 -0.334,4.828 -0.684,7.225c-0.35,2.397 -0.819,4.771 -1.408,7.121c-0.592,2.35 -1.3,4.664 -2.125,6.942c-0.828,2.278 -1.768,4.508 -2.821,6.691c-1.05,2.184 -2.21,4.307 -3.479,6.371c-1.267,2.064 -2.636,4.059 -4.108,5.984c-16.734,21.77 -45.163,32.866 -71.659,36.645c-41.55,5.834 -87.559,-3.82 -123.158,-26.041c-22.907,-14.3 -42.702,-35.259 -48.326,-62.471c-3.661,-17.717 -0.414,-35.821 10.207,-50.592c18.007,-25.041 51.952,-38.312 81.304,-43.854Z" style="fill:#313945;fill-rule:nonzero;"/><path d="M275.54,1948.33c30.517,-2.613 59.704,0.483 87.363,14.554c17.737,9.025 34.866,23.625 40.646,43.358c2.712,9.275 2.112,18.571 -3.042,26.88c-11.142,17.941 -34.829,24.433 -54.175,28.679c-32.221,1.858 -60.108,-0.992 -89.233,-15.8c-16.995,-8.646 -33.53,-22.088 -39.211,-41.034c-2.775,-9.254 -2.336,-18.65 2.835,-26.979c11.23,-18.083 35.105,-25.662 54.817,-29.658Z" style="fill:#5dbb56;fill-rule:nonzero;"/><path d="M449.265,1571.67c41.354,-4.521 88.496,10.308 122.671,33.179c24.146,16.158 47.004,39.221 52.129,68.916c2.717,15.755 0.25,32.434 -9.25,45.571c-16.516,22.829 -43.883,30.75 -70.35,34.488c-49.791,1.637 -98.171,-10.521 -138.329,-41.159c-21.037,-16.05 -40.225,-39.52 -43.367,-66.566c-1.695,-14.609 1.605,-28.675 10.867,-40.267c18.029,-22.562 48.067,-31.546 75.629,-34.162Z" style="fill:#313945;fill-rule:nonzero;"/><path d="M455.19,1607.03c29.359,-3.733 65.617,7.017 90.725,21.946c18.063,10.746 37.984,27.917 42.588,49.283c1.666,7.734 0.821,15.75 -3.809,22.338c-10.8,15.371 -32.812,17.662 -49.891,20.021c-37.488,-3.117 -73.125,-10.58 -104.546,-32.513c-13.938,-9.729 -32.908,-27.017 -35.279,-44.775c-0.742,-5.55 0.683,-10.858 4.116,-15.283c12.367,-15.942 37.446,-19.004 56.096,-21.017Z" style="fill:#ef5755;fill-rule:nonzero;"/><path d="M230.206,1694.15c41.274,-3.638 82.976,3.579 118.43,25.825c24.496,15.367 46.604,39.487 52.579,68.479c3.613,17.517 0.329,36.454 -10.058,51.154c-14.358,20.325 -40.404,31.263 -64.321,35.071c-2.544,0.464 -5.099,0.874 -7.662,1.229c-2.562,0.356 -5.13,0.654 -7.705,0.896c-2.577,0.245 -5.158,0.432 -7.741,0.563c-2.584,0.133 -5.168,0.209 -7.754,0.229c-2.589,0.019 -5.175,-0.017 -7.759,-0.109c-2.586,-0.091 -5.168,-0.24 -7.746,-0.445c-2.58,-0.203 -5.154,-0.462 -7.722,-0.775c-2.568,-0.317 -5.127,-0.688 -7.679,-1.113c-2.552,-0.425 -5.093,-0.905 -7.624,-1.442c-2.531,-0.536 -5.049,-1.126 -7.555,-1.77c-2.505,-0.645 -4.995,-1.343 -7.47,-2.096c-2.476,-0.753 -4.934,-1.559 -7.374,-2.417c-2.44,-0.858 -4.861,-1.769 -7.261,-2.733c-2.402,-0.964 -4.781,-1.979 -7.138,-3.046c-2.357,-1.067 -4.689,-2.183 -6.998,-3.35c-2.309,-1.167 -4.591,-2.383 -6.847,-3.65c-25.035,-14.267 -48.015,-36.15 -55.062,-65.004c-4.54,-18.596 -2.054,-39 8.728,-55.038c15.69,-23.329 43.117,-35.196 69.739,-40.458Z" style="fill:#313945;fill-rule:nonzero;"/><path d="M242.532,1727.54c26.446,-1.691 54.937,4.754 78.358,17.059c19.229,10.1 41.838,27.316 47.679,49.066c2.067,7.7 1.471,15.329 -2.691,22.229c-9.421,15.613 -31.234,21.75 -47.959,25.605c-36.308,2.095 -71.228,-0.005 -102.328,-21.096c-14.245,-9.663 -29.262,-25.267 -32.188,-42.934c-1.384,-8.354 0.434,-16.145 5.416,-22.995c12.199,-16.771 34.305,-23.346 53.713,-26.934Z" style="fill:#e89b25;fill-rule:nonzero;"/><path d="M744.828,1658.83c39.908,-1.713 77.591,7.904 111.425,29.517c26.875,17.166 51.721,43.887 58.133,75.962c3.463,17.338 1.371,35.704 -9.283,50.221c-13.538,18.446 -34.45,27.587 -56.396,30.733c-44.371,1.588 -84.713,-5.566 -122.175,-30.9c-24.383,-16.491 -44.967,-41.604 -50.117,-71.196c-3.133,-17.995 -0.321,-36.891 10.621,-51.837c14,-19.138 35.113,-28.621 57.792,-32.5Z" style="fill:#313945;fill-rule:nonzero;"/><path d="M756.228,1692.41c25.671,1.738 49.179,7.871 71.704,20.575c21.812,12.3 47.896,33.65 54.112,58.829c1.575,6.396 1.055,12.821 -2.562,18.492c-8.729,13.671 -28.225,18.542 -43.15,21.179c-28.1,1.396 -58.788,-7.521 -82.696,-22.146c-19.654,-12.016 -38.321,-31.083 -43.179,-54.283c-1.617,-7.725 -0.9,-15.342 3.637,-22.046c9.146,-13.517 27.038,-18.275 42.134,-20.6Z" style="fill:#6f85f9;fill-rule:nonzero;"/><path d="M1231.4,2694.7c36.429,11.621 70.671,27.025 108.016,36.617c188.905,48.525 431.459,60.575 623.405,26.533c51.112,-9.067 100.287,-22.875 149.487,-39.296c3.183,148.804 -8.562,299.804 -18.746,448.254c-106.708,31.3 -209.633,39.804 -316.108,1.925c-0.083,-37.991 -2.579,-76.112 -4.45,-114.05c-0.492,-46.966 -3.017,-93.966 -3.983,-140.937c33.162,-10.838 92.32,-16.846 115.333,-45.129c3.192,-3.921 5.217,-8.825 3.825,-13.934c-1.275,-4.679 -4.967,-9.108 -9.288,-11.279c-13.004,-6.521 -45.3,9.038 -59.458,13.417c-16.275,5.147 -32.789,9.358 -49.542,12.633c-16.752,3.272 -33.637,5.589 -50.654,6.95c-25.175,2.129 -55.95,-0.442 -79.737,7.417c-7.396,6.058 -10.742,15.15 -13.884,23.954c-12.966,36.35 -19.737,76.558 -28.091,114.258c-14.964,67.12 -29.304,134.372 -43.021,201.759c-20.625,5.216 -41.158,11.362 -62.213,14.604c-97.137,14.962 -189.912,-7.738 -278.408,-46.109c13.625,-97.479 17.325,-195.075 19.317,-293.333c1.379,-68.029 2.421,-136.292 -1.8,-204.254Z" style="fill:#617990;fill-rule:nonzero;"/><path d="M1004.77,832.038c-12.345,-4.746 -24.35,-11.296 -35.625,-18.175c-86.679,-52.879 -140.183,-140.762 -163.779,-238.012c-29.696,-122.388 -13.966,-268.238 52.404,-376.271c37.975,-61.814 96.338,-113.902 168.267,-130.936c69.767,-16.522 138.767,-0.551 198.658,37.251c106.755,67.378 158.067,183.218 185.025,301.893c-48.166,23.621 -94.916,48.442 -139.67,78.117c2.729,-67.763 -13.75,-140.775 -44.371,-201.233c-28.834,-56.921 -73.196,-110.075 -135.796,-130.209c-41.629,-13.389 -89.158,-11.458 -128.192,9.151c-36.783,19.42 -62.791,45.237 -75.408,85.474c0.804,-0.175 1.633,-0.258 2.412,-0.529c10.921,-3.762 23.08,-18.325 32.692,-25.504c46.592,-34.798 101.821,-44.653 156.188,-22.392c53.97,22.1 92.733,74.567 114.341,127.042c24.467,59.412 31.029,125.308 29.254,189.033c-17.07,25.079 -45.962,45.234 -66.362,68.125c-55.796,62.613 -99.529,136.729 -134.396,212.717c-5.047,11.561 -10.261,23.047 -15.642,34.458Z" style="fill:#fac3b7;fill-rule:nonzero;"/><path d="M1004.77,832.038c-12.345,-4.746 -24.35,-11.296 -35.625,-18.175c-86.679,-52.879 -140.183,-140.762 -163.779,-238.012c-29.696,-122.388 -13.966,-268.238 52.404,-376.271c37.975,-61.814 96.338,-113.902 168.267,-130.936c69.767,-16.522 138.767,-0.551 198.658,37.251c106.755,67.378 158.067,183.218 185.025,301.893c-48.166,23.621 -94.916,48.442 -139.67,78.117c2.729,-67.763 -13.75,-140.775 -44.371,-201.233c-28.834,-56.921 -73.196,-110.075 -135.796,-130.209c-41.629,-13.389 -89.158,-11.458 -128.192,9.151c-36.783,19.42 -62.791,45.237 -75.408,85.474c-12.246,18.459 -18.408,39.263 -24.779,60.309c-23.496,77.629 -29.713,153.762 -13.242,233.795c17.983,87.367 57.238,181.738 134.713,232.546c11.641,7.638 26.954,13.338 37.437,21.842c-5.047,11.561 -10.261,23.047 -15.642,34.458Z" style="fill:#f2f2f4;fill-rule:nonzero;"/><path d="M355.124,2498.67c15.525,-2.616 34.333,-1.645 50.07,-0.425c57.234,4.438 114.292,29.259 151.775,73.592c96.559,114.204 21.688,237.017 12.409,360.742c-4.313,57.508 4.891,115.679 43.979,160.296c31.125,35.533 75.492,53.758 122.096,56.683c180.237,11.308 307.029,-153.679 386.229,-294.217c16.975,-30.121 37.787,-84.35 62.55,-106.333c7.783,13.858 1.85,164.221 -3,185.146c-5.575,24.033 -21.258,44.625 -35.175,64.446c-51.996,74.054 -112.05,135.162 -188.388,184.154c-22.08,12.9 -44.984,24.115 -68.712,33.646c-80.167,31.979 -182.525,36.77 -262.513,1.562c-2.761,-1.189 -5.498,-2.43 -8.212,-3.725c-2.714,-1.297 -5.403,-2.643 -8.067,-4.037c-2.661,-1.398 -5.296,-2.845 -7.904,-4.342c-2.606,-1.497 -5.183,-3.045 -7.733,-4.642c-2.548,-1.594 -5.064,-3.237 -7.55,-4.929c-2.486,-1.692 -4.939,-3.43 -7.359,-5.217c-2.419,-1.783 -4.804,-3.612 -7.154,-5.487c-2.35,-1.878 -4.664,-3.799 -6.941,-5.763c-2.278,-1.963 -4.517,-3.969 -6.717,-6.016c-2.2,-2.05 -4.36,-4.141 -6.479,-6.271c-2.123,-2.133 -4.202,-4.306 -6.238,-6.517c-2.039,-2.211 -4.035,-4.459 -5.987,-6.746c-1.953,-2.286 -3.861,-4.608 -5.725,-6.966c-1.864,-2.361 -3.682,-4.756 -5.454,-7.184c-1.773,-2.43 -3.498,-4.893 -5.175,-7.387c-1.678,-2.495 -3.309,-5.02 -4.892,-7.575c-102.638,-167.729 50.858,-313.1 -7.092,-461.171c-14.025,-35.842 -39.35,-62.375 -74.85,-77.433c-47.133,-19.992 -104.404,-18.384 -151.441,0.979c-93.451,38.471 -147.027,124.75 -170.771,219.575c-5.42,21.646 -4.344,49.592 -12.672,69.254l-2.794,-0.379c-8.249,-11.888 -10.718,-30.938 -12.682,-45.1c-10.283,-74.125 21.574,-153.446 66.28,-211.242c50.587,-65.4 119.776,-110.337 202.289,-120.971Z" style="fill:#f7c3ab;fill-rule:nonzero;"/><path d="M3217.31,2617.7c37.588,5.425 76.621,10.087 114.558,12.046c-1.52,17.895 -0.491,44.908 -5.883,61.508c-7.525,94.492 -19.487,189.183 -30.058,283.404l-33.267,305.913l-24.075,222.3c-4.4,41.083 -7.696,82.704 -14.179,123.512c-37.554,-9.617 -77.283,-16.842 -115.783,-21.192c15.854,-100.033 22.225,-202.666 33.841,-303.395c23.759,-206.009 48.75,-412.288 68.475,-618.705c2.392,-21.762 5.071,-43.529 6.371,-65.391Z" style="fill:#b2895e;fill-rule:nonzero;"/><path d="M3217.31,2617.7c37.588,5.425 76.621,10.087 114.558,12.046c-1.52,17.895 -0.491,44.908 -5.883,61.508c-10.896,-4.463 -95.808,-6.463 -115.046,-8.163c2.392,-21.762 5.071,-43.529 6.371,-65.391Z" style="fill:#977047;fill-rule:nonzero;"/><path d="M2618.57,2555.02c38.798,3.989 77.568,8.217 116.313,12.684c-6.342,21.371 -12.65,42.583 -20.513,63.458c-66.487,187.904 -126.925,378.233 -189.491,567.483l-50.892,154.721c-10.192,31.042 -19.404,62.775 -31.912,92.959c-34.18,0.37 -74.363,-10.384 -107.6,-18.513c85.416,-271.529 177.791,-540.912 264.483,-812.046c5.55,-20.654 12.45,-40.612 19.612,-60.746Z" style="fill:#b2895e;fill-rule:nonzero;"/><path d="M2618.57,2555.02c38.798,3.989 77.568,8.217 116.313,12.684c-6.342,21.371 -12.65,42.583 -20.513,63.458c-23.012,-7.642 -87.708,-11.967 -115.412,-15.396c5.55,-20.654 12.45,-40.612 19.612,-60.746Z" style="fill:#977047;fill-rule:nonzero;"/><path d="M2408.87,2400.33c57.946,7.687 117.021,9.991 175.221,16.191l710.004,69.68l166.321,16.162c29.904,2.725 60.534,3.85 90.154,8.617c-4.358,27.096 -2.337,67.196 -10.675,91.729l-4.825,1.417c-243.075,-28.481 -486.376,-54.882 -729.904,-79.205c-87.333,-8.816 -174.614,-18.13 -261.841,-27.941c-50.405,-5.542 -101.546,-9.15 -151.475,-18.088c6.891,-25.721 11.716,-52.454 17.02,-78.562Z" style="fill:#b2895e;fill-rule:nonzero;"/><path d="M3683.58,2341c9.808,18.604 12.946,48.141 17.904,68.946l37.621,159c42.4,177.886 83.835,355.995 124.304,534.329c19.571,85.516 44.288,171.537 58.788,257.966c-19.421,2.925 -38.292,7.7 -57.325,12.425c-13.375,2.538 -26.667,5.925 -39.942,8.959c-10.217,-39.9 -17.613,-81.05 -26.613,-121.292c-19.822,-84.875 -39.145,-169.864 -57.97,-254.967c-17.395,-74.019 -34.074,-148.2 -50.038,-222.541c-8.725,-38.942 -19.9,-78.334 -26.058,-117.721c-8.146,-52.117 25.05,-107.1 11.354,-159.942c-3.567,-13.766 -15.738,-18.846 -27.017,-25.296c10.267,-46.591 20.396,-94.42 34.992,-139.866Z" style="fill:#977047;fill-rule:nonzero;"/><path d="M3834.21,1120.39c16.229,4.938 46.267,11.696 56.075,26.517c2.029,25.371 -22,113.187 -29.242,145.812l-42.266,194.192l-156.767,721.071c-12.183,56.739 -23.983,113.557 -35.4,170.454c-6.213,30.438 -10.454,64.075 -21.046,93.183c-20.037,-3.47 -40.346,-6.029 -60.462,-9.091c27.383,-113.209 48.987,-228.663 73.241,-342.625l135.359,-630.85l50.258,-236.6c9.362,-43.796 17.004,-89.3 30.25,-132.063Z" style="fill:#fefeff;fill-rule:nonzero;"/><path d="M1213.52,3335.11c83.184,46.079 204.979,47.954 295.279,27.104c17.742,48.008 29.325,121.613 7.155,170.025c-15.655,34.192 -45.938,48.363 -79.038,60.696c3.733,-32.029 8.729,-59.942 -1.746,-91.379c-3.496,-10.488 -10.346,-20.734 -20.741,-25.346c-4.584,-2.033 -4.742,-2.479 -9.634,-0.725c-2.408,10.812 1.1,23.554 2.754,34.425c1.825,22.779 1.875,48.437 -5.15,70.408c-2.533,7.921 -6.22,15.971 -14.258,19.517c-18.175,8.017 -57.879,6.958 -75.996,-0.808c-55.671,-23.867 -7.841,-98.98 -19.375,-127.763l-3.941,-0.45c-4.659,2.604 -8.38,5.421 -12.255,9.121c-28.479,27.146 -26.945,69.683 -27.316,106.117c-7.892,-2.638 -15.413,-5.517 -22.613,-9.746c-1.43,-0.825 -2.839,-1.685 -4.225,-2.579c-1.389,-0.898 -2.753,-1.828 -4.091,-2.792c-1.342,-0.964 -2.657,-1.961 -3.946,-2.992c-1.289,-1.03 -2.553,-2.093 -3.792,-3.187c-1.236,-1.095 -2.443,-2.22 -3.621,-3.375c-1.18,-1.156 -2.33,-2.341 -3.45,-3.554c-1.119,-1.214 -2.208,-2.456 -3.266,-3.725c-1.056,-1.27 -2.08,-2.564 -3.071,-3.884c-0.992,-1.319 -1.95,-2.664 -2.875,-4.033c-0.923,-1.367 -1.811,-2.757 -2.667,-4.171c-0.853,-1.414 -1.669,-2.849 -2.45,-4.304c-0.783,-1.453 -1.528,-2.926 -2.233,-4.421c-0.709,-1.492 -1.378,-3 -2.009,-4.525c-0.63,-1.528 -1.222,-3.069 -1.775,-4.625c-0.552,-1.555 -1.066,-3.124 -1.541,-4.704c-0.473,-1.583 -0.906,-3.176 -1.3,-4.779c-13.6,-56.229 3.971,-130.725 33.187,-179.546Zm580.184,-25.625c84.779,23.742 167.654,24.471 253.245,6.35c37.088,-7.85 77.317,9.254 108.109,29.537c26.221,17.267 55.012,44.575 60.879,76.671c3.646,19.954 -2.367,34.204 -13.367,50.121c-1.925,-10.279 -5.166,-20.171 -8.766,-29.975c-9.5,-25.867 -24.359,-52.187 -50.934,-63.442c-5.133,-2.175 -7.321,-3.316 -12.558,-1.166c-1.813,4.458 -1.867,4.812 0.337,9.187c3.25,6.446 9.742,12.867 13.959,18.892c16.654,23.8 26.325,48.704 24.125,78.096l-0.246,2.971c-12.238,19.941 -38.696,22.55 -59.8,27.833c-0.65,-14.433 -2.313,-29.146 -6.838,-42.921c-8.2,-24.979 -24.425,-47.929 -48.675,-59.387c-9.445,-4.467 -25.816,-10.263 -35.866,-6.471c1.25,13.504 26.587,29.816 35.821,40.341c13.42,15.309 19.245,35.996 17.32,56.2c-0.533,5.58 -0.733,6.1 -4.787,9.571c-36.179,4.571 -77.567,-2.162 -113.458,-8.737c-42.38,-7.763 -133.346,-29.321 -158.509,-68.238c-20.716,-32.046 -7.779,-90.975 0.009,-125.433Z" style="fill:#f2f2f4;fill-rule:nonzero;"/><path d="M1215.45,2583.66c40.42,12.529 79.254,29.738 119.933,41.863c68.633,20.458 141.471,29.016 212.612,35.191c159.163,13.817 319.842,13.13 476.742,-20.087c40.304,-8.533 82.517,-17.758 118.938,-37.496c1.641,17.783 4.408,35.421 -6.163,50.925c-96.367,74.375 -402.646,78.85 -525.362,70.15c-110.542,-7.833 -244.95,-21.721 -347,-66.954c-13.496,-5.983 -31.592,-13.5 -40.975,-25.263c-10.388,-13.025 -10.1,-32.633 -8.725,-48.329Z" style="fill:#7a7bbe;fill-rule:nonzero;"/><path d="M2640.78,2991.08c80.871,8.417 162.083,22.654 242.662,33.888l168.217,23.229c23.163,3.108 46.542,4.879 69.608,8.546c-0.641,15.925 -3.341,69.629 -12.133,80.32l-7.542,0.155l-313.387,-42.88c-56.417,-8.05 -114.996,-20.675 -171.758,-24.079c8.433,-26.279 16.25,-52.787 24.333,-79.179Z" style="fill:#b2895e;fill-rule:nonzero;"/><path d="M3365.98,2635.12c12.658,0.2 24.192,1.196 36.608,3.705c-12.746,94.212 -20.333,189.945 -30.196,284.583l-46.483,420.842l-17.975,165.212c-3.079,28.417 -4.467,59.025 -10.192,86.921c-1.479,7.217 -1.979,8.146 -7.175,13.617l-30.095,9.75c11.836,-99.703 22.83,-199.498 32.983,-299.384l72.525,-685.246Z" style="fill:#977047;fill-rule:nonzero;"/><path d="M2728.19,1733.85c13.042,-1.138 38.942,-4.05 49.542,5.183c3.75,3.262 5.108,7.137 4.163,12.017c-7.917,40.816 -85.938,38.708 -120.575,57.029c-11.434,6.05 -23.809,15.558 -27.759,28.341c10.063,18.48 65.792,-17.983 93.763,-2.87c6.491,3.508 10.321,9.583 12.216,16.587c0.489,1.881 0.884,3.782 1.184,5.704c0.297,1.922 0.498,3.854 0.604,5.796c0.105,1.942 0.114,3.883 0.025,5.825c-0.092,1.942 -0.279,3.874 -0.563,5.796c-0.283,1.925 -0.662,3.83 -1.137,5.717c-0.475,1.883 -1.043,3.74 -1.704,5.57c-0.661,1.828 -1.411,3.618 -2.25,5.371c-0.842,1.753 -1.768,3.46 -2.779,5.121c-26.946,44.729 -72.88,37.108 -115.038,48.692c-0.596,0.162 -1.183,0.341 -1.771,0.512c-29.304,17.634 -59.858,55.909 -84.687,80.554c-6.904,-15.341 -12.629,-31.795 -16.067,-48.275c-6.858,-32.87 -7.571,-73.866 12.133,-102.733c27.059,-39.646 110.846,-103.537 154.375,-125.1c15.08,-7.467 29.792,-11.962 46.325,-14.837Z" style="fill:#f2f2f4;fill-rule:nonzero;"/><path d="M3288.4,728.972c43.15,-0.305 88.704,4.341 131.6,9.075c-4.463,24.22 -44.659,199.112 -53.346,206.029c-44.689,-1.161 -89.318,-3.467 -133.888,-6.917c16.684,-69.425 35.142,-139.804 55.634,-208.187Z" style="fill:#b2895e;fill-rule:nonzero;"/><path d="M3598.99,2654.35c10.333,0.666 20.238,0.821 30.592,0.383c13.629,52.788 23.371,107.233 34.887,160.554c17.295,79.961 35.109,159.807 53.442,239.538l43.371,189.996c9.712,42.229 20.391,84.683 27.287,127.466c-9.471,0.779 -19.954,-5.371 -28.479,-9.058c-14.412,-46.154 -21.883,-96.221 -32.237,-143.571c-21.792,-97.13 -43.035,-194.38 -63.73,-291.75c-13.47,-61.358 -29.758,-122.133 -44.679,-183.162c-7.321,-29.946 -15.687,-59.917 -20.454,-90.396Z" style="fill:#977047;fill-rule:nonzero;"/><path d="M3220.82,1369.49l0.866,1.4c-0.008,40.259 -10.65,87.288 -32.487,121.596c-14.804,23.254 -39.925,44.875 -67.488,50.192c-17.279,3.337 -29.937,-1.229 -44.121,-10.859c-9.466,-10.5 -15.145,-22.641 -18.095,-36.5c-0.456,-2.141 -0.799,-4.302 -1.03,-6.483c-0.23,-2.178 -0.348,-4.362 -0.354,-6.554c-0.005,-2.189 0.103,-4.374 0.325,-6.554c0.22,-2.181 0.552,-4.343 0.996,-6.488c0.447,-2.144 1.003,-4.259 1.667,-6.346c0.664,-2.088 1.433,-4.137 2.308,-6.145c0.878,-2.009 1.856,-3.966 2.933,-5.871c1.081,-1.906 2.256,-3.752 3.525,-5.538c26.621,-37.904 106.363,-67.312 150.955,-75.85Z" style="fill:#c2c0bf;fill-rule:nonzero;"/><path d="M1210.32,3234.38c24.517,5.362 48.346,19.896 72.692,27.262c92,27.834 172.713,21.025 264.904,1.138c0.496,5.416 1.204,11.066 1.092,16.504c-0.258,12.196 -5.904,19.383 -14.254,27.646c-6.384,3.9 -13.059,6.866 -20.109,9.387c-75.691,27.088 -206.912,16.784 -279.02,-17.804c-13.905,-6.671 -28.055,-15.821 -32.905,-31.317c-3.895,-12.437 1.838,-22.066 7.6,-32.816Zm869.23,-25.746l5.837,-0.092l2.071,3.671c-0.333,12.867 0.358,28.667 -5.363,40.371c-7.037,14.404 -27.4,19.987 -41.641,24.404c-62.179,19.279 -185.421,15.6 -243.688,-15.525c-8.471,-5.129 -12.525,-8.992 -16.416,-18.267c-3.517,-8.391 -6.967,-16.141 -3.288,-25.091c1.529,-1.159 2.783,-2.825 4.588,-3.484c6.791,-2.47 57.475,11.975 68.641,13.634c77.921,11.554 154.196,2.204 229.259,-19.621Z" style="fill:#617990;fill-rule:nonzero;"/><path d="M3129.96,979.247c47.358,-0.938 94.9,2.912 142.167,5.475c47.262,2.558 94.554,4.075 141.775,7.32l-9.692,51.117c-25.425,3.429 -57.771,-1.517 -83.8,-2.679c-65.529,-2.929 -131.158,-6.833 -196.75,-7.592c4.308,-17.671 5.262,-35.546 6.3,-53.641Z" style="fill:#b2895e;fill-rule:nonzero;"/><path d="M2706.46,1962.79l2.321,0.313l-0.05,2.646c-18.238,29.312 -59.742,54.271 -86.058,78.166c-72.409,65.755 -154.767,157.505 -235.838,207.863c-1.654,-0.467 -0.562,-0.004 -2.504,-2.529c1.621,-11.104 3.396,-20.588 9.308,-30.309c16.425,-27.016 212.175,-221.6 238.742,-237.37c21.954,-13.03 47.15,-12.125 71.221,-18.059l2.858,-0.721Z" style="fill:#977047;fill-rule:nonzero;"/><path d="M2472.15,1894.4c2.091,8.85 -4.221,25.004 -5.292,34.825c-5.183,47.566 7.104,85.8 24.762,129.025c-12.454,14.466 -28.562,34.637 -44.837,44.604l-3.658,-3.617c-12.338,-24.904 -23.075,-49.762 -29.609,-76.896c-7.737,-32.141 -8.996,-70.171 9.609,-99.054c12.366,-19.204 27.95,-24.433 49.025,-28.887Z" style="fill:#7a7bbe;fill-rule:nonzero;"/><path d="M1896.82,1828.03c2.546,-0.529 5.15,-0.279 7.742,-0.246l0.542,2.492c-21.659,36.112 -79.163,84.275 -114.609,107.166c-13.13,-9.636 -26.498,-18.929 -40.104,-27.879c-15.104,-8.866 -29.892,-17.912 -44.392,-27.733c32.292,-10.821 60.105,-30.375 91.763,-41.242c29.787,-10.221 67.512,-9.421 99.058,-12.558Z" style="fill:#f2f2f4;fill-rule:nonzero;"/><path d="M133.156,2120.89c23.193,20.234 44.509,42.117 68.516,61.509c62.57,50.537 131.51,84.945 204.164,118.025c33.617,9.275 66.029,22.787 99.883,31.441c50.196,12.829 104.984,22.429 156.667,25.579c25.108,1.53 50.358,0.338 75.45,1.913c-109.133,18.042 -225.962,1.762 -328.033,-39.492c-12.088,-3.662 -24.409,-10.329 -35.946,-15.579c-80.546,-36.642 -190.345,-109.037 -240.701,-183.396Z" style="fill:#b2895e;fill-rule:nonzero;"/><path d="M2785.49,1935.71c9,-0.387 17.025,0.017 25.609,3.025c10.97,3.85 20.008,10.738 24.812,21.542c5.792,13.033 4.054,28.825 -1.667,41.562c-8.562,19.063 -23.92,30.488 -43.012,37.721c-8.05,1.729 -16.221,1.417 -24.204,-0.716c-9.613,-2.575 -17.442,-8.13 -21.913,-17.138c-6.312,-12.717 -5.95,-28.096 -1.375,-41.296c7.096,-20.466 22.404,-35.65 41.75,-44.7Z" style="fill:#fcf2d8;fill-rule:nonzero;"/><path d="M2878.4,1697.63c12.195,4.837 25.183,26.333 32.904,36.567c-0.192,0.275 -0.384,0.55 -0.571,0.829c-24.188,36.204 -85.417,79.546 -120.854,107.091l-12.375,9.675c-3.096,-10.175 -5.742,-20.512 -8.554,-30.775c5.011,-4.191 9.986,-8.425 14.925,-12.7c26.295,-22.837 37.095,-41.92 39.495,-77.037c17.009,-13 36.417,-23.133 55.03,-33.65Z" style="fill:#977047;fill-rule:nonzero;"/><path d="M3036.13,1553.7c9.162,3.662 17.866,12.004 25.775,18.008c-36.742,50.004 -83.771,96.283 -127.204,140.533l-2.28,-0.196c-9.279,-8.533 -16.02,-38.187 -20.587,-50.837c17.496,-16.313 37.05,-30.904 55.237,-46.492c23.313,-19.983 45.834,-40.908 69.059,-61.016Z" style="fill:#fcf2d8;fill-rule:nonzero;"/><path d="M3580.02,2515.96c20.162,1.992 40.158,6.004 59.933,10.317c-0.696,27.787 -2.733,58.204 -10.158,84.983c-0.542,0.579 -1.005,1.242 -1.625,1.738c-8.125,6.512 -41.234,-1.813 -51.775,-3.684c1.508,-31.105 2.716,-62.223 3.625,-93.354Z" style="fill:#977047;fill-rule:nonzero;"/><path d="M2862.94,1834.72c4.888,1.334 5.967,2.917 9.313,6.642c12.562,13.988 19.404,34.358 18.137,53.063c-1.066,15.737 -8.333,22.92 -19.804,32.908c-10.129,-8.171 -20.371,-16.008 -30.946,-23.592c-17.962,-7.937 -34.575,-8.333 -53.896,-9.333c23.938,-21.558 51.575,-40.088 77.196,-59.688Zm-168.046,198.159c11,15.333 21.884,29.05 35.946,41.729c-20.812,12.654 -40.033,16.146 -63.837,18.579c-13.809,0.471 -27.742,2.229 -41.513,3.492c21.954,-24.096 42.859,-44.588 69.404,-63.8Z" style="fill:#fcf2d8;fill-rule:nonzero;"/><path d="M2612.68,2138.38c3.579,0.046 1.7,-0.442 5.329,2.366c-0.063,0.667 -0.054,1.342 -0.192,2c-1.471,6.946 -7.437,13.696 -11.9,19.075c-30.487,36.775 -48.05,23.23 -85.187,35.992c-8.334,2.863 -16.692,9.308 -24,14.229l-3.196,0.021l-0.729,-2.254c8.579,-8.413 18.379,-10.617 27.733,-17.25c35.804,-25.396 41.804,-49.671 92.142,-54.179Z" style="fill:#7a7bbe;fill-rule:nonzero;"/><path d="M3449.41,1000.97l5.812,3.638l7.317,-2.046l1.329,1.646c1.125,10.533 1.621,31.417 -3.941,40.533c-5.963,0.709 -11.034,1.796 -16.75,-0.654c-6.725,-10.946 3.387,-30.579 6.233,-43.117Z" style="fill:#977047;fill-rule:nonzero;"/></g></svg>