<?xml version="1.0" encoding="UTF-8" standalone="no"?><!DOCTYPE svg PUBLIC "-//W3C//DTD SVG 1.1//EN" "http://www.w3.org/Graphics/SVG/1.1/DTD/svg11.dtd"><svg width="100%" height="100%" viewBox="0 0 4342 3880" version="1.1" xmlns="http://www.w3.org/2000/svg" xmlns:xlink="http://www.w3.org/1999/xlink" xml:space="preserve" xmlns:serif="http://www.serif.com/" style="fill-rule:evenodd;clip-rule:evenodd;stroke-linejoin:round;stroke-miterlimit:2;"><g><path d="M3032.21,0.849c91.109,-1.183 186.196,42.348 251.134,104.66c105.008,100.757 154.629,251.452 156.35,394.59c1.791,148.462 -43.925,303.933 -149.984,411.525c-102.895,104.383 -239.308,150.991 -383.904,151.512c6.206,25.194 11.91,50.503 17.113,75.925c27.591,138.004 29.658,298.583 -23.059,430.813c-17.045,42.754 -40.483,81.275 -65.875,119.466l1.759,1.188c59.091,40.154 94.225,79.308 107.504,151.421c14.346,77.92 -1.917,165.083 -47.154,230.395c31.525,54.259 46.95,75.221 67.921,137.184c106.183,1.575 212.541,0.462 318.741,0.408c97.479,-0.054 195.138,1.092 292.596,-0.821c9.042,-21.916 21.179,-43.516 33.454,-63.8c59.575,-98.466 147.521,-176.304 261.317,-203.596c94.125,-22.558 193.042,-8.879 275.25,42.567c93.833,58.692 161.917,159.283 185.875,266.996c13.167,59.033 18.042,144.692 -16.333,198.025c-5.959,9.267 -17.084,23.962 -29.084,25.292c-15.708,1.737 -24.166,-17.625 -28.5,-29.742c-8.875,-24.646 -10.25,-52.688 -15.625,-78.329c-16.666,-79.367 -57.333,-152.379 -120.083,-204.404c-47.083,-39.03 -102.958,-60.309 -164.458,-54.042c-66.209,6.733 -118.625,50.221 -159.067,99.921l125.4,-0.721c71.833,-0.217 139.542,-5.508 194.958,49.012c36.875,36.288 47.875,80.884 48.584,131.05c1.791,133.971 0.375,268.142 0.458,402.134c0.042,58.425 6.542,159.7 -4.083,212.404c-5.917,29.371 -23.417,58.15 -44.292,79.3c-20.958,21.217 -43.958,35.221 -73.042,42.358c-45.791,11.238 -101.125,5.334 -148.333,5.125l-193.208,-0.333c-7.471,15.725 -16.363,30.396 -26.084,44.825c-83.054,123.271 -201.404,209.167 -348.666,237.883c-199.621,38.925 -361.867,-18.504 -525.55,-128.641c0.208,40.988 -2.259,81.816 -7.4,122.483c1.766,1.946 3.504,3.904 5.087,6.012c15.117,20.096 13.579,61.442 10.421,85.088c-3.754,28.117 -13.796,48.4 -36.671,65.608c4.829,12.825 7.688,26.213 10.075,39.688c9.938,56.129 9.9,119.479 -24.35,167.641c-43.717,61.475 -130.146,88.171 -201.187,99.567c-93.505,15 -259.225,20.308 -337.821,-37.721c-25.263,-18.654 -41.775,-45.325 -46.434,-76.45c-9.87,-65.958 27.413,-126.004 65.171,-176.487c-27.325,-12.275 -46.441,-27.667 -57.229,-56.542c-0.847,-2.261 -1.639,-4.543 -2.375,-6.846c-0.736,-2.3 -1.415,-4.616 -2.037,-6.95c-0.625,-2.333 -1.191,-4.68 -1.696,-7.041c-0.509,-2.364 -0.959,-4.738 -1.35,-7.121c-0.392,-2.384 -0.725,-4.775 -1,-7.175c-0.272,-2.4 -0.488,-4.806 -0.646,-7.217c-0.156,-2.408 -0.253,-4.821 -0.292,-7.237c-0.039,-2.414 -0.018,-4.83 0.063,-7.246c0.08,-2.414 0.219,-4.824 0.416,-7.229c0.198,-2.409 0.455,-4.81 0.771,-7.205c0.317,-2.394 0.691,-4.78 1.121,-7.158c0.433,-2.375 0.924,-4.739 1.471,-7.092c0.55,-2.352 1.155,-4.69 1.817,-7.012c0.663,-2.325 1.383,-4.631 2.158,-6.917c0.775,-2.289 1.605,-4.557 2.492,-6.804c0.888,-2.247 1.83,-4.471 2.825,-6.671c-8.384,-61.908 -12.384,-126.775 -31.675,-186.462c-41.159,-12.113 -84.267,-10.184 -126.809,-10.846c1.109,17.987 -1.321,37.158 -2.446,55.187c-2.416,38.721 -5.454,77.488 -6.137,116.288l3.687,6.692c11.809,21.125 11.159,46.866 9.321,70.445c-3.025,38.809 -10,64.138 -40.3,90.017c4.6,17 7.85,34.256 9.75,51.767c4.938,44.558 7.55,99.712 -22.808,136.629c-54.463,66.237 -243.058,94.679 -325.433,103.275c-98.571,9.292 -215.859,13.112 -311.68,-17.025c-30.954,-9.733 -61.225,-26.946 -76.17,-57.15c-12.23,-24.713 -11.18,-55.488 -1.855,-81.013c30.313,-83.004 121.155,-123.525 195.488,-157.958c-9.779,-16.354 -14.067,-32.183 -16.6,-50.892c-4.375,-32.366 -9.533,-72.437 11.512,-99.7c-9.55,-82.525 -12.416,-166.125 -13.087,-249.145l-909.638,-0.055l-254.52,0.225c-45.663,0.075 -95.83,4.196 -140.859,-2.87c-30.883,-4.846 -60.478,-22.15 -82.675,-43.792c-41.016,-39.992 -50.032,-83.738 -50.319,-139.217l0.037,-388.987c-0.111,-57.242 -5.958,-160.309 3.811,-211.071c0.756,-4.12 1.665,-8.206 2.727,-12.258c1.061,-4.053 2.273,-8.059 3.635,-12.017c1.361,-3.964 2.869,-7.87 4.523,-11.717c1.654,-3.847 3.45,-7.628 5.387,-11.341c1.937,-3.714 4.01,-7.35 6.219,-10.909c2.209,-3.558 4.549,-7.029 7.018,-10.412c2.469,-3.384 5.061,-6.67 7.776,-9.859c2.715,-3.189 5.546,-6.272 8.492,-9.25c19.416,-19.308 48.823,-36.795 75.94,-41.745c30.213,-5.517 63.042,-3.221 93.708,-3.142l133.142,0.183l500.796,-0.166c1.817,-24.759 10.596,-49.609 22.871,-71.105c28.433,-49.812 78.1,-76.891 131.887,-91.6c104.259,-28.504 217.554,-19.279 311.792,34.546c55.567,-56.725 112.554,-103.921 179.658,-146.279c-33.987,-14.583 -67.875,-29.483 -100.35,-47.246c-101.871,-55.716 -220.283,-162.512 -253.887,-276.758c-59.909,1.446 -118.379,5.517 -177.95,12.517c-31.496,3.704 -63.263,10.237 -94.792,12.625c-8.629,0.65 -19.192,1.204 -27.237,-2.334c-4.934,-2.171 -5.163,-3.225 -7.05,-7.908c1.154,-4.383 2.558,-7.083 5.75,-10.242c39.35,-38.946 225.62,-49.75 282.708,-50.516c-12.242,-38.059 -20.921,-76.03 -26.838,-115.517c-41.02,-12.725 -84.212,-22.304 -126.108,-31.767c-27.821,-6.287 -139.129,-23.579 -154.454,-34.633c-5.483,-3.954 -5.879,-6.317 -6.904,-12.796c2.891,-6.762 3.679,-7.821 9.529,-12.262c50.379,-9.667 220.083,23.716 273.071,39.329c-14.525,-116.059 -0.138,-234.95 18.196,-349.675c-22.667,-7.517 -44.723,-16.531 -66.167,-27.042c-127.592,-62.792 -216.192,-164.683 -262.029,-299.262c-53.121,-155.955 -42.292,-352.655 31.262,-500.403c44.359,-89.103 114.704,-158.877 210.1,-190.706c89.192,-29.759 186.338,-19.497 269.804,22.934c142.767,72.578 221.934,221.229 269.921,367.008c40.871,-16.583 81.525,-26.9 125.075,-33.108c-0.454,-0.875 -0.891,-1.755 -1.354,-2.621c-5.083,-9.509 -8.137,-19.217 -7.008,-30.192c0.089,-0.936 0.225,-1.865 0.408,-2.787c0.186,-0.923 0.42,-1.832 0.7,-2.73c0.281,-0.897 0.607,-1.777 0.979,-2.641c0.372,-0.861 0.789,-1.702 1.25,-2.521c0.461,-0.82 0.964,-1.613 1.509,-2.379c0.544,-0.767 1.127,-1.503 1.75,-2.209c0.619,-0.708 1.275,-1.38 1.966,-2.016c0.692,-0.636 1.416,-1.235 2.171,-1.796c27.933,-20.7 91.3,-7.971 124.142,-3.954c-4.529,-8.05 -9.638,-16.667 -11.834,-25.717c-2.125,-8.75 -2.508,-19.65 2.467,-27.55c4.975,-7.887 13.933,-11.296 22.763,-12.746c73.608,-12.069 220.608,41.846 280.095,86.821c135.209,-1.729 319.342,41.875 433.775,113.85c23.963,-109.421 87.517,-222.913 161.105,-306.624c87.416,-99.444 189.562,-150.734 321.87,-159.213Zm368.321,3155.42c13.838,-7.591 26.225,-15.358 37.85,-26.137c-60.833,-6.063 -127.654,-1.592 -189.116,-1.55c-87.896,0.062 -176.755,-2.738 -264.496,0.579c82.821,61.992 199.121,79.363 299.646,65.158c41.112,-5.808 79.241,-19.233 116.116,-38.05Z" style="fill:#313945;fill-rule:nonzero;"/><path d="M1306.82,2269.29c157.525,2.267 315.25,0.679 472.796,0.659l532.004,-0.655c0.266,1.18 0.516,2.359 0.8,3.534c7.146,29.916 23.246,55.341 50.075,71.083c28.304,16.604 60.221,19.025 91.487,10.746c17.563,12.854 34.092,20.917 55.542,25.246c36,7.275 75.846,4.804 106.996,-15.884c35.075,9.421 69.533,11.317 103.566,-3.625c40.605,-17.825 58.813,-51.07 73.925,-90.695l810.821,0.22l256.834,-0.15c46.875,-0.025 94.583,-1.945 141.375,0.784c17.833,1.041 32.625,3.021 48.583,11.721c25.458,13.904 42.458,37.166 50.375,64.791c3.833,13.417 5.458,27.425 5.958,41.342c3.417,93.458 -0.25,188.196 -0.125,281.825l0.209,165.408c0.041,29.5 1.291,59.504 -0.334,88.938c-0.291,5.241 -1.375,8.471 -3.958,13.037c2.125,3.604 3.208,6.146 3.625,10.388c2.708,28.071 -7.375,54.946 -25.333,76.237c-18.917,22.438 -43.042,36.717 -72.625,39.063c-58.584,4.637 -120.334,0.641 -179.167,0.487l-329.113,-0.016l-1083.84,0.008l-1502.81,0.017l-491.633,0.037c-84.467,0.033 -170.096,3.163 -254.433,-0.362c-25.759,-1.08 -47.875,-10.78 -66.896,-28c-22.376,-20.267 -32.651,-47.559 -34.212,-77.2c-2.172,-41.238 -0.733,-83.121 -0.757,-124.425l-0.035,-229.905l0.068,-146.137c0.024,-30.958 -1.636,-63.058 2.626,-93.758c3.37,-24.271 9.514,-41.455 26.256,-59.805c21.433,-23.491 47.658,-32.487 78.862,-34.05l692.154,-0.658c11.538,25.879 25.938,49.767 50.684,64.908c30.87,18.888 61.291,16.784 95.2,8.288c7.304,3.825 14.525,7.9 22.079,11.221c39.15,17.208 83.454,8.229 121.208,-7.254c1.117,0.35 2.225,0.712 3.342,1.05c32.096,9.72 64.875,6.837 94.496,-9.355c27.941,-15.266 44.525,-39.004 53.329,-69.104Z" style="fill:#fff;fill-rule:nonzero;"/><path d="M2536.62,524.144c-6.604,33.067 -25.459,107.8 -6.425,137.192c3.012,4.658 6.779,7.442 12.312,8.421c3.892,0.687 8.125,0.208 11.588,-1.963c5.241,-3.291 7.908,-8.304 9.841,-14.016c7.838,-23.121 9.6,-50.538 13.896,-74.654c3.104,-17.409 8.184,-34.505 12.963,-51.517c42.808,-152.471 121.012,-315.468 257.621,-405.037c68.4,-44.847 144.57,-64.34 225.845,-52.927c87.971,12.353 159.825,65.713 212.067,135.737c84.288,112.973 105.863,257.689 85.192,394.469c-18.704,123.791 -74.688,239.1 -177.325,314.708c-92.55,68.175 -198.934,85.725 -310.642,89.854c-7.154,-20.958 -13.737,-42.458 -21.792,-63.067c-9.575,-24.004 -19.375,-47.454 -31.266,-70.425c39.687,-54.516 74.2,-131.487 75.787,-199.612c0.425,-18.35 -1.437,-42.654 -15.375,-56.042c-5.866,-5.633 -13.425,-8.004 -21.458,-7.771c-40.742,1.192 -84.8,49.409 -111.954,76.459c18.296,-82.075 37.191,-162.846 72.975,-239.388c40.05,-85.662 104.45,-178.95 196.971,-211.673c63.162,-22.34 131.92,-12.051 184.304,30.261c12.708,10.266 30.046,30.096 44.662,36.046c0.767,0.312 1.588,0.466 2.384,0.7c-11.038,-40.244 -39.055,-72.323 -75.167,-92.668c-48.558,-27.357 -109.975,-31.452 -163.121,-16.092c-93.817,27.114 -163.679,109.847 -208.792,192.835c-53.15,97.775 -84.675,215.25 -96.041,325.475c-1.742,16.87 -6.088,46.27 0.104,62.516c1.304,3.425 1.487,3.404 3.312,5.934l4.342,-0.005c44.4,-46.729 81.196,-113.954 146.717,-133.366c3.646,87.075 -44.921,161.816 -84.854,235.629c22.958,48.242 39.162,99.383 53.508,150.762c44.304,158.663 67.462,341.109 11.633,500.13c-53.966,153.704 -171.171,245.312 -312.896,312.904c-105.216,50.179 -218.17,81.008 -331.945,104.204c-14.305,2.917 -52.813,7.333 -57.934,21.367c7.717,11.133 23.246,12.541 35.775,15.47c-74.7,54.45 -158.416,94.717 -233.733,147.767c-54.858,-36.025 -102.846,-78.683 -138.842,-134.046c60.929,3.421 156.754,8.6 211.954,-17.662l2.925,-4.246c-7.875,-8.804 -22.745,-9.733 -34.1,-10.388c-57.333,-3.3 -113.779,-5.466 -170.845,-12.941c-191.725,-25.125 -401.792,-91.371 -535.909,-238.092c-7.361,-7.931 -14.403,-16.136 -21.125,-24.617c-6.719,-8.483 -13.098,-17.214 -19.137,-26.191c-6.039,-8.981 -11.718,-18.184 -17.038,-27.609c-5.319,-9.422 -10.264,-19.039 -14.833,-28.85c11.075,-2.133 26.95,-3.57 34.629,-12.633c2.346,-2.767 1.308,-4.25 0.983,-7.558c-12.566,-14.479 -36.475,-16.679 -54.466,-19.279c-14.454,-37.467 -22.713,-75.638 -31.363,-114.734c20.484,7.017 44.634,17.946 66.546,16.467l5.746,-5.9c-15.467,-23.767 -50.892,-39.367 -76.388,-50.138c-32.883,-240.758 24.43,-546.495 173.325,-742.883c90.959,-119.971 230.684,-211.617 381.209,-233.792c21,-3.095 45.254,3.65 65.116,-1.162c0.855,-16.363 -21.158,-44.283 -29.987,-58.354c61.687,1.125 112.358,13.583 168.296,38.804c-10.175,-38.046 -26.842,-67.579 -50.038,-99.263c64.609,9.721 124.071,26.142 182.304,56.434c19.038,9.9 35.959,26.229 56.892,31.762c32.504,8.592 82.296,5.642 117.929,10.4c110.054,14.7 215.95,55.209 313.138,107.854Z" style="fill:#f2f2f4;fill-rule:nonzero;"/><path d="M2757.5,683.953c18.296,-82.075 37.191,-162.846 72.975,-239.388c40.05,-85.662 104.45,-178.95 196.971,-211.673c63.162,-22.34 131.92,-12.051 184.304,30.261c12.708,10.266 30.046,30.096 44.662,36.046c0.767,0.312 1.588,0.466 2.384,0.7c0.22,0.658 0.437,1.316 0.666,1.97c10.813,30.788 27.767,58.95 38.292,90.184c33.746,100.158 26.192,218.087 -18.479,313.85c-42.725,91.583 -124.292,169.237 -219.421,203.633c-45.654,16.508 -95.583,29.454 -144.171,31.867c-16.358,0.812 -38.721,-4.284 -53.917,-0.059c-9.575,-24.004 -19.375,-47.454 -31.266,-70.425c39.687,-54.516 74.2,-131.487 75.787,-199.612c0.425,-18.35 -1.437,-42.654 -15.375,-56.042c-5.866,-5.633 -13.425,-8.004 -21.458,-7.771c-40.742,1.192 -84.8,49.409 -111.954,76.459Z" style="fill:#fac3b7;fill-rule:nonzero;"/><path d="M1715.04,1432.35c33.234,-2.259 73,0.912 103,16.729c16.055,8.458 29.638,21.55 34.767,39.371c6.254,21.741 -1.546,45.508 -12.854,64.262c-20.417,33.854 -58.7,60.433 -96.779,69.896l1.633,9.558c6.808,39.229 11.2,84.538 47.317,108.796c39.366,26.438 101.825,27.338 146.716,19.096c69.392,-12.733 114.721,-56.058 153.634,-111.954c-5.771,-3.471 -14.363,-7.746 -18.271,-13.425c-3.513,-5.1 -2.729,-8.559 -1.779,-14.325c4.1,-5.263 7.783,-7.979 14.341,-9.725c17.63,-4.684 36.738,1.037 51.746,10.541c16.538,10.475 27.246,25.805 31.317,44.946c1.883,8.867 1.646,13.854 -3.4,21.446c-3.379,1.638 -5.825,2.763 -9.658,2.738c-15.105,-0.1 -21.734,-8.567 -31.813,-18.309c-4.487,9.8 -9.312,19.871 -15.237,28.892c-36.538,55.658 -96.221,87.867 -159.896,101.454c-14.434,2.504 -28.75,4.354 -43.384,5.213c-57.654,3.379 -115.362,-6.334 -159.7,-45.421c-15.72,11.062 -31.495,19.358 -50.091,24.512c-46.871,12.988 -100.992,7.009 -143.154,-17.487c-2.392,-1.378 -4.748,-2.814 -7.067,-4.309c-2.322,-1.497 -4.604,-3.05 -6.846,-4.658c-2.244,-1.608 -4.446,-3.272 -6.604,-4.992c-2.161,-1.716 -4.278,-3.487 -6.35,-5.312c-2.072,-1.825 -4.097,-3.7 -6.075,-5.625c-1.978,-1.925 -3.907,-3.897 -5.788,-5.917c-1.88,-2.022 -3.709,-4.089 -5.487,-6.2c-1.778,-2.111 -3.503,-4.265 -5.175,-6.462c-1.67,-2.2 -3.283,-4.439 -4.842,-6.717c-1.558,-2.278 -3.059,-4.593 -4.504,-6.946c-1.444,-2.353 -2.828,-4.74 -4.15,-7.162c-1.325,-2.423 -2.589,-4.877 -3.792,-7.363c-1.202,-2.483 -2.343,-4.996 -3.42,-7.537c-1.078,-2.542 -2.092,-5.109 -3.042,-7.7c-0.95,-2.592 -1.835,-5.206 -2.654,-7.842c-0.82,-2.636 -1.572,-5.292 -2.259,-7.967c-4.883,-18.5 -5.437,-34.691 5.096,-51.708c3.842,-6.212 7.704,-9.833 14.9,-11.65c24.092,7.25 23.359,62.263 35.975,84.6c16.754,29.667 44.817,49.329 77.509,58.004c41.745,11.079 78.779,3.659 115.566,-17.666c-12.046,-35.95 -17.783,-68.217 -18.091,-106.171c-15.059,-8.046 -30.138,-16.009 -43.705,-26.459c-25.15,-19.366 -49.195,-49.195 -52.387,-81.858c-1.638,-16.704 3.129,-33.075 14.079,-45.871c22.071,-25.796 58.567,-33.037 90.658,-35.316Z" style="fill:#313945;fill-rule:nonzero;"/><path d="M1717.79,1460.68c18.346,-1.588 39.163,-0.071 57.217,3.487c14.367,2.834 31.363,8.396 39.463,21.609c4.941,8.062 5.395,17.333 2.758,26.27c-9.208,31.246 -47.683,58.405 -75.1,72.609c-1.546,0.466 -3.117,0.858 -4.692,1.196c-17.433,3.733 -33.379,-4.484 -47.641,-13.809c-19.471,-12.729 -44.4,-34.975 -48.7,-58.816c-1.659,-9.175 0.279,-18.471 5.937,-25.963c15.358,-20.325 47.308,-24.029 70.758,-26.583Z" style="fill:#fac3b7;fill-rule:nonzero;"/><path d="M2176.71,1093.22c26.096,-2.162 48.613,-0.341 71.788,13.234c36.92,21.629 59.104,63.071 69.245,103.466c12.788,50.938 8.313,109.33 -19.32,154.788c-20.596,33.883 -48.392,51.312 -86.221,60.733c-27.613,2.688 -53.509,0.454 -78.221,-13.171c-31.946,-17.604 -51.804,-49.291 -61.775,-83.645c-15.746,-54.267 -8.983,-116.892 18.912,-166.167c19.946,-35.238 46.571,-58.225 85.592,-69.238Z" style="fill:#313945;fill-rule:nonzero;"/><path d="M2231.88,1170.68c3.804,0.217 7.767,0.417 11.483,1.304c10.559,2.508 19.009,10.733 23.917,20.113c6.621,12.658 7.042,28.4 1.95,41.658c-5.183,13.479 -13.092,18.617 -25.829,24.3c-2.863,-0.379 -5.721,-0.775 -8.554,-1.346c-11.025,-2.233 -20.325,-8.225 -26.321,-17.854c-6.421,-10.313 -7.884,-23.017 -4.917,-34.7c4.2,-16.554 13.817,-25.438 28.271,-33.475Z" style="fill:#fff;fill-rule:nonzero;"/><path d="M1464.17,1069.59c22.3,-1.429 42.512,2.95 61.433,15.275c33.929,22.105 51.946,62.042 59.742,100.509c11.425,56.379 4.966,118.591 -27.45,167.271c-19.859,29.829 -44.946,47.15 -80.121,54.15c-20.533,1.595 -42.258,-3.284 -59.946,-13.892c-33.396,-20.033 -52.058,-54.904 -61.171,-91.796c-14.116,-57.146 -5.641,-120.337 25.446,-170.562c19.746,-31.9 45.25,-52.559 82.067,-60.955Z" style="fill:#313945;fill-rule:nonzero;"/><path d="M1491.64,1145.33c4.441,-0.592 9.041,-1.271 13.529,-1.179c10.408,0.221 21.1,6.646 27.358,14.729c7.838,10.117 10.029,23.637 7.858,36.05c-2.716,15.546 -10.762,24.629 -23.208,33.596c-3.562,0.516 -7.237,1.054 -10.842,0.971c-9.937,-0.242 -20.762,-6 -26.991,-13.63c-8.096,-9.912 -10.692,-23.479 -9.038,-35.966c2.092,-15.796 9.113,-25.017 21.334,-34.571Z" style="fill:#fff;fill-rule:nonzero;"/><path d="M2634.69,1439.41c27.375,-3.696 62.358,-3.183 89.687,-0.292c13.438,1.421 46.108,5.496 53.988,16.95c2.016,2.938 0.687,5.075 0.108,8.317c-26.588,11.854 -106.204,9.592 -140.108,13.113c-32.992,3.425 -65.463,8.754 -98.021,15.012c-32.767,7.404 -77.575,23.425 -110.709,19.346c-6.179,-0.758 -8.745,-1.646 -12.6,-6.463l1.78,-5.229c41.279,-42.887 156.841,-55.8 215.875,-60.754Zm-234.984,160.696c4.209,-0.261 8.42,-0.46 12.634,-0.596c83.37,-3.087 167.712,15.333 246.758,40.646c15.171,4.858 39.479,10.829 50.883,22.296c3.938,3.962 3.521,5.091 3.488,10.346c-5.088,6.058 -9.759,7.858 -17.059,10.645c-60.858,-6.75 -123.341,-24.458 -183.55,-36.691c-43.208,-8.775 -92.858,-11.784 -133.533,-28.384c-1.692,-4.491 -1.583,-4.241 0.238,-8.708c6.72,-5.246 11.954,-7.308 20.141,-9.554Z" style="fill:#313945;fill-rule:nonzero;"/><path d="M2173.34,776.186c17.395,-1.462 35.162,-1.783 52.42,1.088c42.192,7.016 83.238,29.862 108.209,65.12c6.508,9.184 16.071,25.884 13.408,37.684c-1.221,5.408 -2.792,5.821 -7.121,8.729c-7.696,0.212 -11.571,-2.704 -17.871,-6.825c-37.162,-35.908 -76.725,-59.863 -129.358,-62.917c-14.033,-0.816 -28.775,2.713 -42.512,0.929c-8.413,-1.091 -15.434,-5.025 -20.363,-11.845c-0.029,-5.092 -0.254,-6.75 2.929,-11.034c10.346,-13.921 24.334,-17.8 40.259,-20.929Zm-705.784,-13.808c9.546,-0.496 19.546,-0.888 29.017,0.604c12.637,1.992 33.787,8.879 40.783,20.604c2.521,4.225 2.713,9.371 1.109,13.921c-1.4,3.962 -2.913,7.408 -6.867,9.417c-12.621,6.42 -51.379,0.295 -68.55,2.491c-20.183,2.584 -36.342,9.117 -54.367,18.317c-10.666,7.287 -24.366,18.737 -36.712,22.137c-6.429,1.771 -10.579,1.971 -16.3,-1.454l-1.188,-5.987c2.288,-9.134 6.304,-16.463 12.021,-23.925c25.092,-32.767 60.858,-50.492 101.054,-56.125Z" style="fill:#313945;fill-rule:nonzero;"/><path d="M1132.44,988.428c-23.03,-6.559 -44.671,-15.904 -65.95,-26.846c-110.434,-56.775 -185.2,-154.192 -222.538,-271.554c-44.125,-138.692 -37.129,-307.121 30.717,-437.041c38.812,-74.325 101.371,-139.221 183.271,-164.08c72.87,-22.119 155.266,-9.095 221.541,26.69c123.909,66.907 196.125,205.285 234.379,335.614c-64.062,36.042 -118.704,74.763 -171.337,126.238c-0.772,-12.684 -1.946,-25.33 -3.521,-37.938c-1.575,-12.611 -3.549,-25.158 -5.921,-37.642c-2.375,-12.483 -5.141,-24.877 -8.3,-37.183c-3.161,-12.308 -6.708,-24.504 -10.641,-36.587c-26.959,-83.396 -76.63,-180.49 -157.771,-221.246c-2.297,-1.143 -4.621,-2.228 -6.971,-3.257c-2.353,-1.028 -4.728,-1.998 -7.125,-2.91c-2.4,-0.912 -4.82,-1.764 -7.258,-2.557c-2.442,-0.794 -4.9,-1.527 -7.375,-2.199c-2.475,-0.673 -4.966,-1.285 -7.471,-1.835c-2.509,-0.551 -5.028,-1.04 -7.559,-1.467c-2.527,-0.427 -5.066,-0.792 -7.616,-1.094c-2.547,-0.303 -5.1,-0.543 -7.659,-0.72c-2.561,-0.177 -5.123,-0.292 -7.687,-0.343c-2.567,-0.052 -5.132,-0.041 -7.696,0.033c-2.567,0.075 -5.128,0.211 -7.683,0.411c-2.559,0.2 -5.111,0.463 -7.659,0.787c-2.544,0.325 -5.079,0.712 -7.604,1.162c-2.528,0.449 -5.041,0.96 -7.541,1.532c-2.503,0.573 -4.989,1.206 -7.459,1.9c-2.469,0.695 -4.921,1.449 -7.354,2.264c-38.946,13.238 -66.8,41.273 -84.612,77.822c45.854,-28.858 91.912,-59.718 148.808,-46.851c53.687,12.142 95.208,59.618 122.904,104.484c52.125,84.442 75.308,192.35 79.9,290.796c-71.158,93.825 -119.575,188.521 -155.175,300.779c-5.942,20.775 -10.854,41.863 -16.037,62.838Z" style="fill:#fac3b7;fill-rule:nonzero;"/><path d="M1132.44,988.428c-23.03,-6.559 -44.671,-15.904 -65.95,-26.846c-110.434,-56.775 -185.2,-154.192 -222.538,-271.554c-44.125,-138.692 -37.129,-307.121 30.717,-437.041c38.812,-74.325 101.371,-139.221 183.271,-164.08c72.87,-22.119 155.266,-9.095 221.541,26.69c123.909,66.907 196.125,205.285 234.379,335.614c-64.062,36.042 -118.704,74.763 -171.337,126.238c-0.772,-12.684 -1.946,-25.33 -3.521,-37.938c-1.575,-12.611 -3.549,-25.158 -5.921,-37.642c-2.375,-12.483 -5.141,-24.877 -8.3,-37.183c-3.161,-12.308 -6.708,-24.504 -10.641,-36.587c-26.959,-83.396 -76.63,-180.49 -157.771,-221.246c-2.297,-1.143 -4.621,-2.228 -6.971,-3.257c-2.353,-1.028 -4.728,-1.998 -7.125,-2.91c-2.4,-0.912 -4.82,-1.764 -7.258,-2.557c-2.442,-0.794 -4.9,-1.527 -7.375,-2.199c-2.475,-0.673 -4.966,-1.285 -7.471,-1.835c-2.509,-0.551 -5.028,-1.04 -7.559,-1.467c-2.527,-0.427 -5.066,-0.792 -7.616,-1.094c-2.547,-0.303 -5.1,-0.543 -7.659,-0.72c-2.561,-0.177 -5.123,-0.292 -7.687,-0.343c-2.567,-0.052 -5.132,-0.041 -7.696,0.033c-2.567,0.075 -5.128,0.211 -7.683,0.411c-2.559,0.2 -5.111,0.463 -7.659,0.787c-2.544,0.325 -5.079,0.712 -7.604,1.162c-2.528,0.449 -5.041,0.96 -7.541,1.532c-2.503,0.573 -4.989,1.206 -7.459,1.9c-2.469,0.695 -4.921,1.449 -7.354,2.264c-38.946,13.238 -66.8,41.273 -84.612,77.822l-1.284,3.375c-13.521,34.879 -33.979,66.937 -47.362,102.417c-41.025,108.766 -37.488,237.62 8.658,344.175c35.679,82.391 102.121,153.416 186.742,186.266c7.997,3.134 16.15,5.786 24.458,7.959c8.308,2.169 16.717,3.841 25.225,5.016c-5.942,20.775 -10.854,41.863 -16.037,62.838Z" style="fill:#f2f2f4;fill-rule:nonzero;"/><path d="M1485.79,3128.11l1221.47,0.179c2.608,100.004 1.433,199.321 -0.421,299.309c-85.575,27.929 -201.883,26.975 -291.312,23.962c-62.33,-2.642 -120.992,-8.758 -180.1,-29.867c-9.88,-60.45 -16.138,-120.058 -29.705,-180.008c-4.266,-18.854 -8.895,-45.058 -26.937,-55.583c-34.796,-20.304 -220.063,-19.175 -261.521,-7.734c-10.196,2.813 -19.029,6.155 -24.625,15.496c0.417,5.4 0.208,6.834 4.1,10.967c7.833,8.329 23.771,7.142 34.446,7.787c-8.525,66.442 -11.946,133.875 -19.546,200.517c-122.3,24.738 -289.787,26.413 -406.417,-20.8c-16.92,-67.654 -19.02,-192.437 -19.429,-264.225Z" style="fill:#467599;fill-rule:nonzero;"/><path d="M2800.13,1727.15c6.412,2.495 12.908,4.987 19.083,8.037c34.029,16.8 60.242,54.95 71.875,90.125c22.854,69.108 3.717,145.083 -27.7,208.121c-48.096,-42.358 -79.583,-95.488 -148.95,-111.729c-44.3,-10.371 -89.046,-0.813 -131.079,13.991c-81.325,28.646 -153.737,84.105 -229.908,124.267c-39.739,21.097 -79.875,41.41 -120.409,60.938c-34.991,16.683 -71.741,31.741 -104.633,52.341c1.808,1.296 2.146,1.729 4.613,2.409c63.054,17.4 276.304,-100.267 335.304,-135.23c37.758,-22.37 72.475,-50.012 113.3,-66.937c43.329,-17.967 87.221,-24.504 131.446,-5.721c86.558,36.763 167.533,155.588 201.925,240.504c-31.687,-0.216 -63.371,-0.144 -95.055,0.217c-3.433,-15.617 -7.779,-30.142 -15.129,-44.413c-24.429,-47.429 -71.125,-80.529 -121.275,-96.275c-81.037,-25.441 -186.591,-23.808 -262.558,16.555c-51.867,27.558 -86.817,67.258 -104.204,123.612l-420.025,-0.304l-356.663,0.15c-0.325,-26.063 6.742,-51.458 6.679,-77.325c-0.016,-6.871 -0.041,-12.604 -5.058,-17.563c-2.387,0.584 -2.804,0.5 -5.146,2.105c-21.825,14.933 -29.596,68.758 -32.621,92.583c-31.475,-0.1 -62.947,0.093 -94.416,0.579c-12.779,-36.996 -28.771,-65.221 -54.054,-95.15c48.645,-44.15 97.925,-94.846 154.504,-128.312c7.862,11.033 16.571,21.458 25.416,31.712c63.9,74.054 164.78,155.158 265.221,162.633c-26.891,-19.887 -56.354,-36.558 -83.991,-55.462c-58.03,-39.688 -145.005,-107.733 -174.609,-171.308c36.264,10.019 72.821,18.827 109.671,26.425c36.847,7.594 73.906,13.962 111.175,19.104c43.338,71.9 100.625,137.308 177.563,174.454c68.262,-21.9 179.133,-93.304 241.554,-133.583c20.575,-13.28 39.654,-33.096 62.15,-42.467c28.204,-11.75 65.771,-13.629 95.991,-20.175c45.667,-9.892 91.346,-23.908 135.234,-39.867c40.471,-14.716 81.421,-32.404 119.291,-52.896c29.713,-16.079 59.671,-38.512 91.492,-49.437c33.571,-11.529 76.917,-6.838 107.333,-20.308l0.709,-3.975c-13.917,-13.267 -53.429,-12.409 -71.659,-12.067c26.434,-23.075 52.663,-45.633 77.613,-70.358Z" style="fill:#7a7bbe;fill-rule:nonzero;"/><path d="M1534.02,3556.65c19.646,-1.425 67.112,15.8 90.721,19.541c104.454,16.559 224.004,14.942 326.42,-12.745c7.559,36.645 14.167,89.141 0.025,125.012c-10.133,25.704 -32.875,37.417 -57.02,47.879c-87.755,38.042 -207.53,55.234 -302.542,60.934c-13.513,0.812 -39.133,5.045 -50.971,-1.717c-4.062,-2.321 -7.083,-7.388 -8.571,-11.729c-9.196,-26.809 7.542,-64.867 18.329,-88.763c2.888,-6.404 8.125,-15.312 8.584,-22.271c0.312,-4.72 -1.146,-5.65 -4.117,-8.779l-6.45,0.267c-8.304,4.379 -14.067,9.837 -19.912,17.171c-27.209,34.158 -30.18,75.166 -24.513,116.621c-30.529,-0.017 -80.396,2.191 -107.642,-10.946c-9.004,-4.342 -15.575,-11.084 -18.8,-20.642c-12.466,-36.908 16.725,-75.692 32.45,-106.3c3.238,-6.3 5.209,-10.95 2.934,-17.75c-5.567,-0.812 -9.079,0.683 -13.796,3.442c-29.142,17.029 -52.621,60.991 -53.904,94.033c-0.446,11.546 4.441,23.983 1.316,35.158c-5.55,0.805 -10.625,-0.32 -15.616,-2.854c-12.446,-6.321 -21.45,-20.654 -25.234,-33.712c-5.262,-18.154 0.409,-37.146 9.38,-53.192c39.679,-70.975 145.279,-107.704 218.929,-128.658Z" style="fill:#f2f2f4;fill-rule:nonzero;"/><path d="M2800.99,3127.99l93.109,0.413c97.166,64.983 180.533,110.937 301.45,115.208c129.216,4.567 217.866,-26.442 313.229,-115.204c45.979,-1.292 92.312,-0.217 138.329,-0.246c-15.613,26.725 -32.85,51.05 -52.642,74.783c-2.383,2.817 -4.798,5.607 -7.246,8.371c-2.444,2.764 -4.922,5.499 -7.433,8.204c-2.508,2.706 -5.047,5.382 -7.617,8.03c-2.572,2.647 -5.173,5.265 -7.804,7.854c-2.63,2.586 -5.29,5.143 -7.979,7.671c-2.692,2.525 -5.411,5.02 -8.158,7.487c-2.745,2.464 -5.518,4.896 -8.321,7.296c-2.803,2.4 -5.633,4.768 -8.492,7.104c-2.858,2.336 -5.741,4.638 -8.65,6.904c-2.911,2.27 -5.847,4.506 -8.808,6.709c-2.961,2.202 -5.947,4.37 -8.958,6.504c-3.012,2.133 -6.046,4.232 -9.105,6.296c-3.061,2.061 -6.144,4.088 -9.25,6.083c-3.105,1.992 -6.233,3.948 -9.383,5.871c-3.153,1.919 -6.325,3.802 -9.517,5.65c-3.194,1.85 -6.409,3.661 -9.645,5.433c-3.237,1.775 -6.492,3.513 -9.767,5.213c-3.275,1.697 -6.57,3.358 -9.883,4.983c-3.314,1.622 -6.646,3.207 -9.996,4.754c-3.353,1.547 -6.721,3.056 -10.104,4.525c-3.387,1.469 -6.788,2.9 -10.205,4.292c-3.416,1.391 -6.85,2.744 -10.3,4.058c-3.447,1.311 -6.909,2.583 -10.387,3.817c-3.478,1.233 -6.97,2.426 -10.475,3.579c-3.506,1.155 -7.024,2.268 -10.554,3.337c-3.534,1.073 -7.077,2.105 -10.629,3.096c-3.556,0.992 -7.121,1.942 -10.696,2.85c-3.578,0.909 -7.164,1.777 -10.759,2.604c-3.597,0.825 -7.202,1.61 -10.816,2.355c-3.614,0.744 -7.236,1.445 -10.867,2.104c-3.63,0.661 -7.269,1.28 -10.917,1.858c-3.644,0.575 -7.294,1.11 -10.95,1.604c-182.954,23.709 -344.87,-40.858 -487.5,-151.425c0.575,-29.904 -1.325,-60.121 -2.304,-90.025Z" style="fill:#fac3b7;fill-rule:nonzero;"/><path d="M2732.85,3578.38c4.717,3.912 5.271,11.892 6.012,17.558c6.25,47.875 9.405,110.046 -21.879,150.204c-40.746,52.309 -128.596,71.155 -190.633,79.146c-42.608,-65.158 6.633,-106.175 -8.258,-140l-4.188,-0.279c-7.075,5.142 -12.175,11.483 -16.496,19.092c-22.183,39.058 -20.596,82.816 -9.887,124.791c-45.725,2.288 -97.034,2.85 -141.863,-7.025c-15.141,-34.612 -13.241,-63.341 -2.883,-98.995c3.987,-11.617 14.575,-33.438 12.629,-45.275l-4.767,-0.721c-8.795,3.287 -13.891,8.029 -19.562,15.471c-28.058,36.816 -28.158,78.095 -22.892,121.729c-21.754,-4.379 -43.804,-10.088 -61.408,-24.338c-16.263,-13.171 -25.492,-31.912 -26.838,-52.741c-3.545,-54.984 34.267,-111.7 68.23,-151.438c118.262,31.925 326.162,24.95 444.683,-7.179Zm-1630.86,-1495.17c52.995,-1.687 105.729,0.034 155.504,20.442c51.254,21.017 81.204,53.908 102.583,104.158c-10.5,0.25 -21.579,1.05 -32.025,-0.029c-11.425,-1.179 -36.096,-8.692 -45.792,-5.162c-15.17,5.525 -24.579,65.125 -36.745,83.695c-7.021,10.717 -15.696,19.35 -28.68,21.834c-12.483,2.387 -29.187,-0.642 -39.266,-8.646c-30.354,-24.104 -15.434,-89.371 -19.692,-119.888c-0.762,-5.466 -1.946,-6 -5.967,-9.32c-5.933,-0.292 -7.404,-0.805 -11.895,3.783c-16.463,16.812 -15.109,73.383 -12.755,95.254c2.013,13.138 5.284,26.258 8.038,39.271c-23.6,7.425 -50.746,10.858 -75.183,5.771c-71.859,-14.959 -31.888,-110.638 -48.55,-137.096l-4.63,-0.963c-2.237,1.413 -2.595,1.484 -4.691,3.725c-5.346,5.713 -9.288,14.905 -12.396,22.075c-16.029,36.975 -7.729,60.855 -4.146,99.03c-2.225,1.233 -4.192,2.37 -6.729,2.833c-14.025,2.579 -39.058,-7.663 -49.5,-16.35c-15.513,-12.913 -21.908,-32.846 -23.183,-52.408c-2.063,-31.717 8.258,-66.109 29.612,-89.988c38.771,-43.358 110.788,-58.875 166.088,-62.021Zm1457.8,14.121c46.146,0.513 91.65,2.846 134.441,21.913c39.709,17.691 63.867,43.525 79.296,83.858c-25.741,31.592 -24.412,79.317 -56.112,105.554c-17.313,14.329 -43.242,18 -65.129,15.604c-7.942,-0.866 -14.75,-3.854 -19.363,-10.587c-21.671,-31.634 11.175,-75.15 14.538,-108.3c0.6,-5.913 0.55,-9.125 -3.33,-13.621c-0.845,0.062 -1.708,0.004 -2.537,0.183c-7.808,1.692 -16.046,10.371 -21.213,16.163c-40.754,45.679 -18.929,105.154 -30.254,121.316c-13.533,9.159 -29.146,8.63 -44.883,9.109c-10.183,-0.167 -21.217,-0.821 -31.117,-3.5c-12.121,-3.284 -23.687,-10.496 -29.987,-21.629c-26.363,-46.563 21.041,-91.059 31.725,-132.425c1.279,-4.967 1.366,-5.938 -1.109,-10.13c-0.783,-0.033 -1.562,-0.158 -2.341,-0.1c-10.25,0.784 -21.679,9.63 -28.679,16.696c-20.5,20.7 -42.746,58.254 -42.105,87.879c0.217,9.796 2.634,26.167 -2.212,34.68c-4.654,3.395 -8.279,5.729 -14.108,6.441c-16.496,2.017 -36.184,-6.821 -48.509,-17.275c-14.716,-12.483 -22.037,-29.975 -22.937,-49.046c-1.542,-32.679 13.366,-63.458 34.812,-87.316c44.734,-49.771 107.463,-61.646 171.113,-65.467Z" style="fill:#f2f2f4;fill-rule:nonzero;"/><path d="M3932.79,1980.35c20.541,2.35 42.208,-0.371 63.125,1.75c72.208,7.308 138.5,43.196 190.291,93.037c2.306,2.231 4.57,4.488 6.792,6.771c2.25,2.286 4.458,4.599 6.625,6.938c2.194,2.338 4.361,4.702 6.5,7.091c2.111,2.392 4.208,4.809 6.292,7.25c2.055,2.442 4.083,4.909 6.083,7.4c2,2.492 3.986,5.007 5.958,7.546c1.945,2.539 3.847,5.101 5.709,7.688c1.888,2.586 3.75,5.194 5.583,7.825c1.805,2.63 3.597,5.283 5.375,7.958c1.75,2.672 3.472,5.367 5.167,8.083c1.694,2.717 3.347,5.453 4.958,8.209c1.639,2.758 3.236,5.534 4.792,8.329c1.555,2.794 3.069,5.608 4.541,8.441c1.5,2.831 2.959,5.68 4.375,8.546c1.417,2.867 2.806,5.752 4.167,8.654c1.333,2.9 2.639,5.817 3.917,8.75c1.277,2.934 2.527,5.881 3.75,8.842c1.194,2.964 2.361,5.942 3.5,8.933c1.138,2.992 2.236,5.996 3.291,9.013c1.084,3.019 2.111,6.05 3.084,9.092c1,3.044 1.958,6.1 2.875,9.166c0.916,3.067 1.791,6.143 2.625,9.229c0.833,3.086 1.638,6.184 2.416,9.292c0.75,3.106 1.472,6.221 2.167,9.346c0.694,3.125 1.347,6.258 1.958,9.4c0.611,3.139 1.181,6.286 1.709,9.442c0.527,3.152 1.027,6.312 1.5,9.479c0.472,3.166 0.888,6.339 1.25,9.516c0.388,3.175 0.736,6.356 1.041,9.542c0.306,3.183 0.57,6.371 0.792,9.563c0.25,3.191 0.444,6.386 0.583,9.583c0.139,3.194 0.25,6.392 0.334,9.592c0.458,31.504 -2.167,71.125 -25.167,94.933c8.958,-20.392 1.167,-55.867 -3,-77.242c-13.042,-66.737 -62.083,-186.371 -119.167,-224.779c-4.416,-13.129 -34.291,-31.458 -45.958,-38.871c-56.75,-36.075 -122,-50.4 -188.167,-35.216c-78.333,17.987 -137.679,72.404 -179.304,139l-113.225,0.033c13.489,-24.911 28.499,-48.868 45.029,-71.871c66.496,-90.917 145.396,-137.925 255.834,-155.283Z" style="fill:#fac3b7;fill-rule:nonzero;"/><path d="M2768.62,3440.64l2.196,3.317c2.116,20.733 2.6,57.871 -8.817,75.504c-10.967,16.942 -40.471,25.513 -59.117,30.138c-110.7,27.458 -372.312,36.587 -471.191,-23.409c-16.163,-18.679 -16.546,-49.395 -19.492,-72.991c146.704,47.721 413.842,45.804 556.421,-12.559Zm-1285.06,-18.616c24.834,6.625 48.454,15.879 73.821,21.212c107.613,22.634 239.983,26.35 348.083,5.704c-0.913,28.328 -1.982,56.649 -3.204,84.963c-28.541,12.458 -85.454,12.629 -117.771,13.142c-62.941,0.995 -243.187,-4.775 -284.866,-48.13c-18.542,-19.287 -15.992,-52.02 -16.063,-76.891Zm1245.23,-293.654l29.659,0.508c-0.675,35.2 3.346,69.704 4.891,104.787c2.213,50.159 -0.325,128.575 -8.529,177.884c-8.6,3.471 -17.975,5.841 -26.837,8.646c-2.529,-96.959 2.075,-194.692 0.816,-291.825Zm-774.691,85.795l32.254,1.759c-0.889,27.044 -2.186,54.069 -3.892,81.075c-1.25,20.929 -1.321,92.291 -14.412,103.908l-31.417,9.017c9.579,-64.971 9.304,-130.842 17.467,-195.759Zm37.896,214.659c4.041,19.966 1.329,52.466 -8.992,69.887c-12.963,21.871 -36.954,26.6 -59.525,32.775c-4.029,-26.087 2.312,-59.071 5.096,-85.287c21.858,-3.25 42.646,-10.038 63.421,-17.375Z" style="fill:#467599;fill-rule:nonzero;"/></g></svg>