<?xml version="1.0" encoding="UTF-8" standalone="no"?><!DOCTYPE svg PUBLIC "-//W3C//DTD SVG 1.1//EN" "http://www.w3.org/Graphics/SVG/1.1/DTD/svg11.dtd"><svg width="100%" height="100%" viewBox="0 0 15734 16934" version="1.1" xmlns="http://www.w3.org/2000/svg" xmlns:xlink="http://www.w3.org/1999/xlink" xml:space="preserve" xmlns:serif="http://www.serif.com/" style="fill-rule:evenodd;clip-rule:evenodd;stroke-linejoin:round;stroke-miterlimit:2;"><rect id="Artboard1" x="0" y="0" width="15732.5" height="16932.2" style="fill:none;"/><path d="M8525.62,15765.7c6.554,-63.409 224.742,327.383 189.337,354.912c-115.316,89.654 -41.016,416.063 -100.341,399.963c-174.592,-47.384 -225.563,-235.304 -225.529,-451.129" style="fill:#f2f2f4;"/><path d="M10684.3,99.063c18.563,-2.255 37.179,-3.934 55.85,-5.042c18.667,-1.104 37.354,-1.638 56.059,-1.596c18.704,0.046 37.391,0.667 56.058,1.858c18.671,1.196 37.279,2.963 55.833,5.305c18.555,2.341 37.021,5.25 55.4,8.729c18.367,3.479 36.621,7.521 54.759,12.121c18.125,4.604 36.091,9.758 53.904,15.466c17.8,5.713 35.416,11.963 52.846,18.759c184.654,71.15 351.962,190.387 508.404,310.012c360.558,275.725 730.679,654.313 1128.51,866.625c62.454,33.383 126.625,63.058 192.517,89.029c65.891,25.963 133.054,48.046 201.492,66.25c134.358,36.738 374.27,51.963 480.262,128.054c45.087,32.363 70.4,74.309 77.708,129.188c8.454,63.471 -13.854,122.812 -51.808,172.983c-155.521,205.538 -523.088,325.313 -766.267,361.217c101.529,137.446 193.317,277.725 264.221,433.871c275.521,606.579 232.117,1360.17 -1.529,1973.85c-163.383,429.2 -450.067,814.392 -841.404,1060.73c-135.054,85.017 -276.738,149.55 -422.067,214.288c242.204,321.2 599.896,653.787 960.346,830c80.092,39.316 162.792,72.045 248.092,98.179c110.833,33.975 308.366,43.696 376.787,147.171c26.113,39.495 31.613,88.504 21.25,134.095c-35.521,156.18 -203.75,279.584 -329.808,362.342c-640.159,420.158 -1656.35,516.513 -2397.28,364.325c-30.384,58.263 -69.671,112.083 -106.617,166.354c117.746,62.967 458.979,268.488 508.821,383.925c9.721,22.479 14.062,49.409 2.204,72.134c-9.65,18.508 -32.462,35.729 -52.342,39.254c-130.641,23.158 -485.816,-239.896 -599.254,-321.979c-81.945,72.066 -173.575,154.583 -243.854,237.795c135.504,89.129 256.146,205.729 342.654,343.542c66.042,105.192 131.979,255.504 113.475,382.325c-7.275,49.808 -31.233,98.475 -42.258,148.333l-2.171,10.142c74.983,106.542 101.042,189.808 101.392,319.687c6.371,4.442 12.812,8.817 19.025,13.471c364.862,273.334 819.029,686.859 885.279,1157.88c21.508,152.966 13.021,306.108 -5.642,458.87c-51.129,418.592 -358.733,1781.37 -592.604,2084.25c-121.267,157.05 -288.246,233.13 -480.937,257.817c263.679,306.958 801.77,500.138 1196.49,542.325c365.225,39.063 782.571,-15.679 1075.22,-254.775c140.071,-114.425 242.45,-257.483 303.284,-427.883c177.637,-497.534 -69.08,-969.979 -278.646,-1413.12c-97.867,-206.959 -193.525,-415.313 -268.734,-631.804c-122.604,-352.95 -179.079,-728.23 -140.537,-1101.18c49.129,-475.625 267.587,-930.208 642.1,-1234.29c337.779,-274.254 737.429,-398.667 1172.33,-353.108c400.104,41.925 786.962,223.712 1041.67,541.475c210.991,263.229 327.725,591.162 288.004,930.416c-23.767,203.088 -116.475,387.621 -278.767,514.513c-46.321,36.216 -125.504,87.604 -187.675,73.575c-24.583,-5.554 -43.575,-17.238 -57.9,-38.021c-54.546,-79.063 27.225,-266.942 39.879,-360.292c28.438,-209.566 -24.2,-410.141 -152.046,-578.316c-140.487,-184.809 -349.829,-298.684 -578.837,-327.5c-14.608,-1.713 -29.25,-3.067 -43.925,-4.063c-14.663,-0.996 -29.35,-1.637 -44.063,-1.929c-14.7,-0.275 -29.395,-0.196 -44.095,0.246c-14.7,0.437 -29.375,1.237 -44.03,2.396c-14.662,1.154 -29.287,2.67 -43.87,4.545c-14.596,1.867 -29.125,4.092 -43.596,6.684c-14.479,2.583 -28.888,5.516 -43.229,8.804c-14.325,3.287 -28.567,6.921 -42.725,10.904c-14.155,3.979 -28.205,8.304 -42.15,12.967c-13.95,4.675 -27.767,9.687 -41.459,15.033c-13.704,5.338 -27.271,11.017 -40.696,17.033c-13.412,6.009 -26.679,12.338 -39.791,18.992c-13.113,6.658 -26.059,13.629 -38.838,20.921c-12.766,7.292 -25.354,14.892 -37.758,22.796c-12.396,7.904 -24.596,16.104 -36.6,24.6c-11.988,8.508 -23.771,17.3 -35.346,26.371c-152.137,121.112 -269.6,296.996 -333.887,479.671c-291.271,827.691 403,1594.08 648.679,2337.12c11.908,36.067 22.846,72.421 32.812,109.063c9.967,36.646 18.954,73.533 26.963,110.662c7.996,37.117 15,74.425 21.004,111.925c6.008,37.5 11.017,75.134 15.021,112.9c3.991,37.767 6.983,75.613 8.975,113.542c1.979,37.929 2.946,75.879 2.9,113.854c-0.046,37.975 -1.109,75.925 -3.179,113.854c-2.071,37.917 -5.15,75.754 -9.238,113.509c-1.7,15.533 -3.592,31.033 -5.675,46.508c-2.083,15.487 -4.358,30.946 -6.825,46.371c-2.475,15.429 -5.137,30.825 -7.983,46.183c-2.859,15.358 -5.904,30.675 -9.134,45.954c-3.241,15.288 -6.666,30.534 -10.279,45.729c-3.608,15.196 -7.412,30.346 -11.404,45.45c-3.992,15.105 -8.179,30.15 -12.554,45.142c-4.363,15.008 -8.908,29.958 -13.646,44.842c-4.742,14.883 -9.667,29.704 -14.771,44.462c-5.116,14.767 -10.412,29.467 -15.887,44.096c-5.475,14.629 -11.129,29.192 -16.963,43.683c-5.833,14.488 -11.85,28.905 -18.054,43.246c-6.192,14.338 -12.562,28.6 -19.117,42.775c-6.55,14.179 -13.279,28.279 -20.187,42.292c-6.9,14.017 -13.979,27.946 -21.233,41.792c-7.246,13.829 -14.667,27.575 -22.259,41.229c-7.591,13.646 -15.354,27.2 -23.279,40.662c-7.929,13.459 -16.025,26.821 -24.292,40.088c-8.262,13.25 -16.691,26.4 -25.291,39.441c-8.588,13.059 -17.338,25.996 -26.25,38.821c-8.913,12.838 -17.988,25.554 -27.225,38.159c-9.225,12.604 -18.604,25.087 -28.142,37.45c-9.55,12.37 -19.242,24.625 -29.079,36.754c-9.85,12.129 -19.85,24.129 -30,36.004c-10.138,11.887 -20.429,23.642 -30.867,35.262c-10.441,11.621 -21.021,23.109 -31.737,34.463c-10.729,11.362 -21.596,22.592 -32.604,33.679c-11.009,11.088 -22.146,22.038 -33.421,32.846c-11.271,10.812 -22.679,21.483 -34.217,32.017c-11.554,10.52 -23.225,20.9 -35.021,31.145c-11.804,10.23 -23.729,20.317 -35.779,30.259c-12.058,9.929 -24.237,19.716 -36.529,29.358c-497.029,393.071 -1127.48,494.758 -1742.46,423.108c87.48,65.642 181.421,128.142 276.021,182.917c84.046,48.663 256.288,118.592 317.538,182.654c29.216,30.575 46.108,91.267 45.779,132.692c-0.483,63.317 -34.858,116.529 -78.663,159.704c-117.516,115.871 -290.208,204.308 -441.579,266.008c-340.121,138.613 -676.387,190.417 -1041.84,174.217c-153.071,-6.787 -303.921,-21.996 -457.484,-21.596c-11.646,34.221 -23.229,68.909 -37.812,101.979c-99.288,225.017 -286.492,370.696 -512.188,457.5c-91.941,41.146 -200.433,64.063 -299.65,79.167c-335.087,51.025 -765.729,28.421 -1048.14,-181.442c-135.817,-100.921 -232.938,-245.746 -255.559,-415.066c-1.571,-11.425 -2.879,-22.88 -3.921,-34.359c-1.041,-11.471 -1.812,-22.962 -2.312,-34.479c-0.508,-11.517 -0.746,-23.037 -0.708,-34.567c0.033,-11.529 0.333,-23.05 0.9,-34.566c0.566,-11.517 1.4,-23.008 2.5,-34.479c1.1,-11.471 2.47,-22.909 4.116,-34.321c1.629,-11.413 3.529,-22.779 5.692,-34.1c2.167,-11.317 4.596,-22.588 7.292,-33.8c2.687,-11.204 5.633,-22.346 8.837,-33.421c3.208,-11.067 6.675,-22.054 10.4,-32.971c3.717,-10.912 7.688,-21.729 11.913,-32.446c4.22,-10.729 8.695,-21.354 13.416,-31.875c4.713,-10.508 9.671,-20.908 14.879,-31.2c5.196,-10.287 10.638,-20.45 16.321,-30.483c5.671,-10.025 11.575,-19.921 17.709,-29.688c6.133,-9.758 12.491,-19.362 19.079,-28.82c27.883,-39.655 66.146,-72.413 92.571,-112.5c12.045,-18.28 13.141,-28.384 7.966,-48.888c-26.716,-19.912 -564.496,-55.454 -644.583,-64.479c-176.092,-19.846 -351.042,-48.854 -527.308,-67.258c18.958,92.658 21.891,185.016 2.237,277.812c-48.454,228.767 -219.858,399.721 -409.65,524.046c-480.85,314.983 -1124.91,444.671 -1689.91,326.946c-169.375,-35.296 -363.596,-108.229 -459.671,-261.583c-76.684,-122.375 -68.525,-251.596 -38.179,-385.417c-61.025,-9.042 -121.755,-19.496 -181.684,-34.338c-239.337,-59.358 -548.525,-179.22 -678.837,-405.383c-24.738,-42.917 -41.996,-88.487 -47.359,-137.95c-7.866,-72.412 12.013,-149.117 35.33,-217.292c42.637,-124.637 112.133,-241.546 164.858,-362.362c128.337,-294.063 252.467,-587.484 359.254,-890.138c181.113,-520.787 336.892,-1049.04 467.346,-1584.76c85.192,-346.875 156.65,-697.342 246.925,-1042.88c-250.938,186.129 -524.425,363.283 -806.771,498.525c-258.904,124.012 -763.712,336.146 -1040.15,231.354c-130.121,-49.338 -206.963,-174.304 -260.938,-295.484c-168.541,-378.491 -287.537,-1112.99 -139.325,-1499.86c-31.091,-98.837 -46.3,-194.029 -57.758,-296.65c-130.504,-15.538 -269.167,-17.829 -384.808,-88.488c-126.129,-77.066 -175.767,-207.779 -206.546,-344.308c-62.45,-50.45 -115.592,-100.521 -153.038,-172.637c-78.25,-150.713 -58.02,-306.388 -9.708,-461.492c-52.917,-64.95 -94.912,-132.587 -117.671,-213.925c-34.621,-123.733 -19.116,-250.971 44.567,-362.517c87.237,-152.762 231.787,-227.225 395.396,-273.3c-66.146,-226.458 -109.479,-462.083 -159.667,-692.5c-95.267,-435.208 -185.871,-871.387 -271.808,-1308.54l-142.725,-702.084c-22.171,-112.933 -48.488,-226.337 -61.146,-340.833c-7.308,-66.058 -12.275,-141.7 15.712,-203.558c15.713,-34.742 43.75,-66.409 80.955,-78.263c32.258,-10.262 65.366,-4.758 94.22,12.221c63.592,37.446 91.684,125.417 116.7,190.938c94.409,247.341 152.084,519.062 221.509,774.462c122.283,454.871 241.1,910.646 356.458,1367.33c74.029,291.129 143.421,586.492 229.375,874.238c83.788,-46.913 167.45,-76.288 264.95,-64.1c8.946,1.091 17.842,2.529 26.683,4.325c8.834,1.795 17.584,3.929 26.25,6.404c8.671,2.491 17.221,5.308 25.663,8.458c8.446,3.158 16.758,6.642 24.929,10.45c8.171,3.808 16.175,7.933 24.008,12.379c7.85,4.442 15.513,9.188 22.988,14.234c7.467,5.05 14.729,10.379 21.787,15.991c7.05,5.613 13.867,11.5 20.45,17.654c134.759,123.821 302.955,471.825 434.517,639.655l6.925,8.662c13.663,-15.067 28.038,-32.533 45.208,-43.646c41.217,-26.7 101.288,-9.112 145.038,3.021c154.896,42.917 308.279,123.213 458.158,181.963c288.229,113.02 595.434,203.733 900.434,256.37c37.258,-92.1 105.537,-158.158 170.92,-230.729c-574.791,-404.983 -926.72,-694.825 -1128.96,-1407c-93.871,12.171 -575.121,74.134 -629.912,35.209c-9.913,-7.029 -18.059,-17.446 -20.68,-29.342c-6.283,-28.542 6.146,-57.95 23.767,-80.171c18.163,-22.933 43.492,-42.396 71.321,-51.771c117.396,-39.566 394.6,-60.904 525.679,-74.429c-0.817,-142.462 8.713,-284.929 9.129,-427.533c-133.646,-11.008 -269.546,-43.821 -403.021,-62.083c-101.316,-13.871 -209.304,-12.846 -308.75,-34.167c-21.837,-4.688 -41.337,-11.425 -56.562,-28.925c-13.854,-15.921 -18.558,-36.108 -15.346,-56.754c0.488,-3.009 1.129,-5.988 1.925,-8.938c0.788,-2.941 1.721,-5.842 2.796,-8.7c1.087,-2.846 2.308,-5.637 3.662,-8.367c1.367,-2.733 2.867,-5.387 4.5,-7.97c1.63,-2.579 3.384,-5.067 5.259,-7.463c1.887,-2.408 3.883,-4.712 5.991,-6.912c2.117,-2.196 4.334,-4.288 6.646,-6.267c2.329,-1.979 4.746,-3.838 7.259,-5.571c94.912,-65.767 629.67,14.479 765.345,37.063c74.255,-487.084 140.438,-950.796 324.671,-1411.37c-23.483,-16.942 -46.829,-34.079 -70.033,-51.404c-13.75,-10.35 -27.371,-20.863 -40.867,-31.546c-13.496,-10.696 -26.866,-21.546 -40.104,-32.554c-13.229,-11.005 -26.325,-22.167 -39.292,-33.488c-12.962,-11.329 -25.779,-22.816 -38.454,-34.462c-12.683,-11.634 -25.225,-23.421 -37.621,-35.363c-12.395,-11.946 -24.641,-24.041 -36.733,-36.287c-12.096,-12.246 -24.046,-24.634 -35.854,-37.171c-11.792,-12.533 -23.438,-25.208 -34.929,-38.021c-11.492,-12.812 -22.825,-25.762 -33.992,-38.854c-11.183,-13.1 -22.196,-26.329 -33.037,-39.688c-10.859,-13.354 -21.555,-26.845 -32.084,-40.466c-10.521,-13.621 -20.875,-27.367 -31.062,-41.234c-10.196,-13.875 -20.217,-27.875 -30.067,-41.995c-9.85,-14.109 -19.525,-28.338 -29.029,-42.692c-9.504,-14.35 -18.829,-28.821 -27.988,-43.404c-9.141,-14.571 -18.112,-29.259 -26.908,-44.063c-8.796,-14.791 -17.412,-29.691 -25.85,-44.704c-8.425,-15.008 -16.675,-30.112 -24.742,-45.312c-8.066,-15.209 -15.941,-30.513 -23.625,-45.921c-7.7,-15.392 -15.204,-30.879 -22.52,-46.459c-7.313,-15.587 -14.438,-31.258 -21.371,-47.012c-6.934,-15.75 -13.675,-31.592 -20.225,-47.517c-6.538,-15.912 -12.888,-31.908 -19.046,-47.987c-6.158,-16.063 -12.125,-32.209 -17.9,-48.438c-5.763,-16.212 -11.329,-32.5 -16.7,-48.854c-5.371,-16.354 -10.538,-32.771 -15.504,-49.254c-4.975,-16.479 -9.746,-33.021 -14.304,-49.617c-4.571,-16.583 -8.942,-33.229 -13.109,-49.929c-4.154,-16.712 -8.112,-33.467 -11.875,-50.262c-3.75,-16.792 -7.296,-33.634 -10.641,-50.521c-3.346,-16.884 -6.488,-33.809 -9.43,-50.763c-2.925,-16.966 -5.654,-33.962 -8.175,-50.991c-91.441,-652.5 93.405,-1507 496.13,-2036.4c175.104,-230.2 398.366,-424.279 694.129,-462.341c587.796,-75.65 998.908,470.829 1367.62,839.737c165.496,165.104 340.7,319.171 525.604,462.204c271.112,-206.216 521.496,-445.279 778.75,-668.645c732.137,-635.709 1333.87,-1072.27 2254.17,-1405.58c282.033,-102.142 579.462,-209.371 879.516,-239.025Zm-2080.35,16413.5l18.854,0.887c13.838,-42.554 4.43,-91.371 7.017,-135.816c5.675,-97.867 34.6,-195.888 73.333,-285.488c-39.654,-65.329 -123.958,-326.217 -172.225,-295.85c-48.262,30.367 -159.233,301.617 -117.358,478.054c1.363,5.813 2.871,11.584 4.513,17.313c1.654,5.729 3.454,11.412 5.4,17.046c1.933,5.637 4.008,11.229 6.233,16.771c2.221,5.533 4.583,11.008 7.083,16.425c2.5,5.416 5.134,10.762 7.896,16.041c2.779,5.279 5.683,10.488 8.717,15.625c3.033,5.138 6.191,10.192 9.479,15.154c3.287,4.98 6.7,9.871 10.242,14.671c3.533,4.804 7.183,9.517 10.958,14.134c3.771,4.616 7.662,9.137 11.667,13.558c4.004,4.421 8.116,8.737 12.341,12.95c4.213,4.217 8.538,8.317 12.971,12.312c4.433,3.992 8.958,7.875 13.575,11.646c4.629,3.763 9.346,7.409 14.15,10.938c4.813,3.521 9.708,6.925 14.688,10.208c4.987,3.279 10.05,6.425 15.191,9.446c8.296,4.879 16.734,9.533 25.275,13.975Z" style="fill:#333944;fill-rule:nonzero;"/><path d="M6198.12,3409.9c55.938,-0.763 183.821,116.233 232.517,150.675c161.391,114.1 337.1,212.312 512.225,303.579c632.583,329.721 1374.69,572.846 2040.5,843.192c580.208,235.591 1162.48,543.562 1627.87,968.371c78.525,71.666 182.621,160.258 223.713,260.745c129.1,315.713 105.021,990.296 -26.213,1307.64c-242.846,-52.171 -896.529,-103.175 -1102.38,3.037c-32.012,16.513 -50.137,36.288 -62.117,69.863c1.613,14.567 -0.366,22.05 9.93,33.596c41.962,47.062 161.875,24.062 220.937,20.537c178.038,-10.641 353.525,-12.987 531.459,3.384c115.695,10.641 230.054,30.766 345.624,43.266c-62.133,194.167 -173.749,396.734 -297.587,559.409c-217.221,-92.188 -564.546,-197.346 -801.492,-193.142c-44.846,0.796 -67.779,6.942 -98.804,39.912c-5.362,18.8 -9.754,26.946 1.667,45.155c20.904,33.25 74.375,55.816 109.221,69.812c102.516,41.196 211.841,60.763 318.054,89.513c114.583,31.025 227.883,70.383 340.992,106.425c-131.042,144.008 -304.967,271.75 -466.721,379.375c-523.575,330.362 -1115.09,488.333 -1724.2,568.958c-145.888,19.321 -299.863,7.621 -443.525,34.217c-120.504,22.325 -223.367,93.47 -342.95,120.262c-211.963,47.479 -532.329,15.137 -704.846,-128.7c-87.638,-73.054 -148.575,-158.887 -256.234,-207.863c-99.233,-45.158 -214.945,-69.1 -318.35,-106.754c-206.579,-75.208 -399.583,-179.062 -585.554,-295.558c-449.912,-281.788 -878.158,-687.063 -1000.94,-1222.41c87.9,-5.641 213.975,2.1 282.379,-58.904c8.246,-21.633 7.446,-21.287 -0.35,-43.246c-77.775,-77.104 -221.979,-84.499 -326.212,-94.254c-4.238,-117.033 -3.021,-233.212 -0.159,-350.262c80.538,23.596 239.254,106.096 318.284,88.021c23.733,-5.434 25.729,-10.484 38.42,-29.513c0.467,-14.512 1.25,-28.125 -3.612,-42.05c-34.896,-100.033 -237.188,-171.442 -328.733,-214.671c15.433,-320.537 83.35,-654.65 165.208,-964.304c186.875,-706.996 531.354,-1383.85 1109.03,-1849.88c145.154,-117.117 302.029,-213.817 462.95,-307.429Z" style="fill:#f2f2f4;fill-rule:nonzero;"/><path d="M6359.67,6956.67c126.091,-19.184 300.746,1.195 418.158,53.42c75.487,33.575 141.754,89.634 168.421,169.93c22.308,67.116 9.841,137.154 -21.563,199.166c-77.675,153.3 -236.579,251.354 -393.887,305c5.937,24.492 12.275,48.879 19.008,73.159c41.458,147.312 124.413,299.758 264.117,373.804c190.312,100.866 460.225,67.883 658.262,8.925c236.771,-70.488 578.804,-269.1 700.488,-492.434c-76.579,-17.708 -151.771,-15.537 -205.992,-81.354c-3.021,-19.858 -6.546,-29.15 8.925,-45.521c49.967,-52.9 165.504,-50.362 233.367,-45.154c121.287,9.288 285.558,50.209 364.637,149.738c15.729,19.791 26.909,52.641 20.209,78.404c-5.455,20.904 -13.492,35.087 -34.621,43.054c-54.425,20.504 -155.346,-31.042 -208.296,-51.371c-100.904,126.009 -180.071,273.804 -270.921,407.867c-165.625,231.437 -350.208,443.021 -609.029,573.729c-166.283,83.979 -371.683,113.667 -550.417,52.083c-182.516,-62.862 -293.191,-205.17 -374.062,-373.416c-102.254,-21.721 -209.096,-40.021 -306.579,-78.229c-143.109,-56.096 -254.463,-145.105 -314.096,-289.43c-13.092,-31.683 -25.434,-62.675 -11.288,-95.833c20.367,-11.754 27.604,-15.312 49.413,-0.592c229.216,154.605 289.858,207.659 567.429,264.255c-96.908,-154.063 -157.863,-302.88 -180.817,-483.784c-78.871,-20.575 -153.4,-52.204 -219.079,-100.921c-90.675,-67.237 -166.337,-169.895 -181.371,-283.8c-9.012,-68.195 6.092,-135.487 49.929,-189.375c87.188,-107.137 231.025,-129.062 359.655,-141.32Z" style="fill:#324050;fill-rule:nonzero;"/><path d="M6400.08,7121.46c88.4,-5.679 183.421,-5.262 268.125,23.734c41.234,14.112 85.938,38.937 103.175,81.42c12.659,31.13 6.754,66.025 -7.9,95.33c-47.621,95.208 -166.75,152.795 -263.646,184.479c-87.583,17.05 -170.225,-10.588 -244.2,-57.984c-53.716,-34.412 -133.07,-100.662 -140.8,-168.733c-3.087,-27.117 1.375,-53.037 19.271,-74.617c57.188,-68.958 183.317,-74.604 265.975,-83.629Z" style="fill:#f1c5b9;fill-rule:nonzero;"/><path d="M7802.08,8151.46c-2.675,34.95 -42.641,77.45 -64.446,104.184c-130.537,160.037 -342.795,304.862 -552.566,324.621c-134.984,12.725 -252.346,-24.55 -356.2,-111.842c-43.142,-42.204 -73.092,-87.933 -101.875,-140.296c8.387,2.292 16.771,4.654 25.241,6.65c350.142,82.638 746.009,4.321 1049.85,-183.317Z" style="fill:#e1a39e;fill-rule:nonzero;"/><path d="M8626.62,6036.62c124.721,-15.329 283.383,-7.725 405.587,23.317c88.98,22.604 157.588,67.725 204.046,148.525c77.604,135.016 61.825,337.221 18.717,481.371c-45.992,153.787 -146.771,289.6 -290.296,364.566c-148.141,77.396 -306.737,71.096 -462.429,23.559c-2.933,-1.667 -5.833,-3.367 -8.767,-4.984c-97.762,-53.712 -160.645,-124.304 -196.062,-231.266c-62.583,-188.959 -24.25,-401.755 62.604,-576.163c-67.187,15.783 -291.092,91.738 -339.233,75.225c-27.988,-9.583 -50.784,-21.65 -64.238,-48.854c2.5,-20.242 4.634,-27.238 18.054,-43.733c102.484,-126.042 488.942,-198.417 652.017,-211.563Z" style="fill:#333944;fill-rule:nonzero;"/><path d="M8932.42,6259.42c17.883,-0.867 35.762,-1.7 53.591,0.454c38.875,4.704 73.492,27.479 95.871,59.375c29.617,42.204 35.45,96.629 23.525,146.004c-15.4,63.854 -48.996,97.762 -103.925,130.225c-34.95,2.812 -66.683,3.996 -98.491,-12.879c-54.688,-29.013 -71.371,-88.942 -88.296,-143.838c6.283,-28.108 12.187,-58.091 21.858,-85.279c17.775,-49.946 49.496,-72.171 95.867,-94.062Z" style="fill:#fff;fill-rule:nonzero;"/><path d="M5515.33,5566.88c80.784,-1.596 159.55,13.542 230.4,53.975c113.717,64.912 178.092,182.275 211.563,304.967c52.883,193.854 25.954,427.812 -75.538,601.891c-72.97,125.138 -173.975,198.838 -313.525,235.817c-109.391,5.883 -205.625,-9.446 -293.108,-81.267c-112.275,-92.187 -177.412,-253.854 -193.037,-395.366c-21.092,-191.163 15.504,-410.746 139.67,-563.092c78.159,-95.9 172.259,-143.833 293.575,-156.925Z" style="fill:#333944;fill-rule:nonzero;"/><path d="M5678.75,5894.71c21.513,0.121 41.146,1.217 61.65,8.438c36.042,12.675 62.658,46.058 77.292,80.208c22.466,52.434 20.554,115.104 -3.092,166.788c-21.146,46.2 -49.754,66.2 -96.283,83.075c-22.917,0.191 -45.971,-0.054 -67.45,-9.304c-36.821,-15.834 -63.834,-49.655 -77.88,-86.442c-19.27,-50.417 -15.416,-108.596 7.534,-157.1c21.562,-45.575 51.408,-69.396 98.229,-85.663Z" style="fill:#fff;fill-rule:nonzero;"/><path d="M8677.67,4993.67c140.454,-10.834 277.729,25.608 390.712,110.954c26.913,20.329 60.246,48.212 60.263,85.383c0.016,28.054 -17.954,48.229 -37.517,65.571c-64.271,23.663 -118.283,-23.471 -177.692,-44.442c-171.025,-60.383 -317.587,-10.295 -471.616,65.45c-85.363,45.088 -268.888,193.717 -367.255,158.405c-19.15,-6.875 -19.829,-16.2 -24.879,-33.438c5.954,-37.692 19.359,-63.804 42.342,-94.342c130,-172.637 376.338,-284.166 585.642,-313.541Z" style="fill:#333944;fill-rule:nonzero;"/><path d="M5514.29,4680.12c76.962,-5 148.683,-2.1 222.083,25.817c113.717,43.262 205.642,137.812 254.079,248.733c19.813,45.346 47.938,127.533 20.729,175.417c-11.579,20.379 -21.266,21.733 -41.979,26.475c-66.333,-15.434 -105.812,-89.809 -146.283,-141.146c-160.85,-172.638 -249.6,-148.384 -457.742,-101.196c-28.437,6.437 -65.783,16.821 -94.637,10.517c-23.192,-5.05 -25.484,-8.367 -36.596,-27.255c-0.083,-8.32 0.504,-16.6 1.754,-24.825c1.238,-8.22 3.125,-16.291 5.658,-24.22c2.534,-7.93 5.684,-15.6 9.446,-23.021c3.75,-7.421 8.071,-14.496 12.967,-21.234c53.421,-74.183 165.175,-107.516 250.521,-124.062Z" style="fill:#333944;fill-rule:nonzero;"/><g><g><path d="M10163.8,9639.12c66.475,-2.729 130.78,-4.95 196.075,11.125c179.517,44.221 377.017,242.467 515.296,360.296c282.5,240.746 600.609,532.675 629.758,924.079c32.984,443.108 -290.47,1774.01 -484.533,2199.93c-35.712,78.4 -75.85,140.921 -132.221,205.85l4.863,-35.904c25.171,-176.267 -42.746,-399.129 -105.384,-562.067c-157.308,-409.112 -448.908,-737.791 -771.425,-1026.37c-60.97,-54.567 -139.129,-134.046 -211.091,-171.3c-65.384,-33.871 -147.85,-23.021 -215.904,-52.934c-15.988,-17.329 -22.013,-35.016 -24.03,-58.283c-12.587,-145.883 443.838,-475.071 560.226,-559.375c62.225,-45.05 151.999,-92.567 199.933,-149.963l-6.008,-17.208c-13.28,-7.671 -24.984,-11.475 -40.088,-13.367c-184.875,-23.141 -360.917,111.617 -495.587,219.95c-102.396,-115.175 -345.834,-331.979 -479.775,-396.825c-19.846,-9.6 -29.742,-13.716 -51.059,-5.904c-3.058,9.221 -3.771,9.671 -4.358,20.921c-6.546,124.654 225,267.725 297.775,357.933c1.842,2.275 3.612,4.638 5.417,6.963c-30.625,86.858 -50.171,148.075 -44.425,240.642c-42.813,43.75 -86.234,89.516 -113.559,144.862c-51.512,104.358 -37.121,213.975 -2.867,320.383l-12.379,5.105c-242.533,102.237 -482.687,259.045 -585.083,511.995c-65.158,160.955 -65.296,350.571 6.438,510.088c55.175,122.708 140.558,189.321 263.941,233.592c71.65,134.462 145.35,245.279 299.342,296.65c54.133,18.054 114.808,29.616 166.842,52.1c57.725,24.95 117.029,87.812 182.983,119.566c176.737,85.104 334.029,54.896 510.766,-6.508c19.167,30.125 37.951,60.492 56.355,91.092c69.337,154.775 171.7,307.241 255.779,455.591c234.879,414.463 447.187,846.7 789.183,1186.72c217.829,216.6 458.613,369.621 732.138,506.321c27.462,13.716 76.962,32.308 87.029,60.937c-29.879,80.104 -181.108,158.092 -254.963,196.284c-364.308,188.333 -747.587,223.229 -1150.33,201.008c-124.946,-6.892 -256.021,-27.308 -380.658,-14.929c-140.175,13.921 -273.038,68.35 -407.571,106.875c-257.342,73.712 -652.204,82.516 -904.321,-5.888c-139.446,-48.887 -256.825,-299.321 -314.6,-422.741c-544.062,-1162.08 -807.85,-3521.67 -705.121,-4812.46c16.563,-208.212 28.192,-454.029 99.584,-651.129c71.108,-42.604 155.745,-71.004 233.125,-101.075c314.008,-121.996 644.25,-219.15 970.5,-302.796l-32.792,147.554c67.812,-52.033 122.933,-120.816 192.204,-170.229c151.875,-108.333 488.383,-145.466 674.583,-157.15l0,-0.008Z" style="fill:#7a7bbe;fill-rule:nonzero;"/><path d="M10714.6,316.038c124.775,-13.409 249.863,-0.763 365.888,47.908c300.883,126.212 602.896,420.779 855.504,633.642c230.379,194.125 458.246,375.65 721.437,523.75c181.513,102.15 372.501,162.462 575.713,203.454c71.65,14.462 156.979,20.987 224.933,45.016c16.213,5.729 20.379,6.2 28,22.034c-2.654,10.208 -5,20.329 -10.104,29.687c-72.167,132.621 -595.121,273.417 -745,320.104c-36.354,-29.062 -72.829,-58.629 -111.579,-84.445c-281.508,-187.467 -658.229,-227.155 -984.775,-160.346c-57.292,-329.359 -194.375,-592.184 -378.438,-866.25c30.125,193.141 83.405,379.441 124.863,570.208c24.721,113.679 38.35,228.817 60.85,342.758c-381.042,130.592 -714.167,345.696 -1007.25,620.242c-166.704,150.125 -311.234,327.067 -442.763,508.354c-53.004,73.054 -99.879,151.109 -155.833,221.875l-5.625,7.013c-694.063,-438.925 -1272.88,-690.088 -2086.18,-835.346c-202.642,-36.183 -417.813,-72.242 -624.079,-63.25c633.366,-544.375 1257.43,-1136.73 2000.07,-1531.73c280.054,-148.946 576.529,-265.246 876.704,-366.325c234.859,-79.088 469.688,-163.283 717.671,-188.358Z" style="fill:#7a7bbe;fill-rule:nonzero;"/><path d="M3808.87,8678.12c476.6,200.346 944.829,394.792 1459.62,466.317c144.129,346.354 551.437,610.696 817.812,860.816c-208.941,698.021 -319.237,1419.22 -428.925,2137.95c-100,693.216 -207.129,1385.33 -321.387,2076.33c-67.138,406.2 -129.029,811.25 -231.634,1210.54c-19.966,77.708 -44.15,234.095 -117.933,273.729c-79.029,42.45 -437.971,-13.921 -529.429,-39.946c-189.425,-53.925 -408.088,-151.875 -507.413,-331.683c47.013,-168.142 143.142,-336.98 214.096,-497.05c105.729,-238.488 202.85,-484.759 290.192,-730.571c377.412,-1018.23 623.246,-2091.65 821.737,-3157.6c59.688,-320.488 138.821,-648.005 164.184,-972.85c7.587,-97.1 3.7,-196.042 2.691,-293.384c-244.254,403.421 -273.7,808.921 -371.77,1256.58c-94.775,78.28 -204.375,147.621 -305.28,218.35c-433.921,304.167 -922.829,608.734 -1463.02,653.23c143.788,-152.638 256.096,-384.896 329.205,-580.33c241.421,-645.279 446.629,-1576.93 283.783,-2261.14c-24.096,-101.305 -63.888,-194.809 -106.529,-289.288Z" style="fill:#7a7bbe;fill-rule:nonzero;"/><path d="M4585.62,1456.16c7.258,-6.442 8.125,-7.446 17.221,-14.046c157.171,-113.867 354.742,-131.425 541.287,-101.309c356.942,76.867 672.588,481.9 920.088,732.63c104.096,105.45 215.171,206.474 328.208,302.17c281.2,238.109 616.721,459.13 959.013,598.125l14.983,-7.675c48.838,16.979 89.479,42.988 136.283,61.929c143.055,57.917 283.542,108.175 431.667,152.063c15.138,4.5 9.638,3.25 27.221,0.558c-33.575,-50.037 -183.854,-80.991 -191.092,-131.129c-239.167,-164.567 -508.471,-256.65 -733.733,-450.592c221.633,-25.45 442.658,11.892 660.992,48.855c533.679,90.312 1042.25,253.246 1521.98,505.625c178.504,93.908 347.966,204.533 525.57,300.416c-34.116,73.163 -73.229,144.6 -110.016,216.496c-148.388,16.146 -305.208,-5.662 -450.663,25.329c120.192,58.921 259.013,115.484 389.638,145.85c-31.979,95.938 -62.571,200.121 -30.609,300.225c65.559,205.279 339.496,328.717 509.984,437.1c76.266,48.492 147.675,101.65 219.254,156.667c168.367,129.412 338.646,259.446 497.95,399.862c263.821,232.534 510.521,486.996 753.212,741.388c254.2,266.458 496.58,558.804 780.625,793.908c78.613,64.7 160.805,124.463 246.58,179.288c85.787,54.837 174.541,104.346 266.266,148.525c61.913,29.321 127.292,49.183 188.492,79.737l8.904,4.534c-853.229,-145.296 -1296.11,-543.821 -1875.38,-1138.06c-116.479,-119.479 -224.237,-246.25 -345.575,-361.075c-275.154,-260.4 -592.1,-487.966 -921.042,-675.312c-836.837,-476.634 -1783.7,-720.488 -2650.28,-1136.18c-250.591,-120.209 -503.125,-248.717 -728.683,-412.363c-341.475,-247.758 -635.85,-591.196 -863.142,-945.192c-100.121,-155.92 -182.466,-323.975 -306.129,-463.712c-134.529,-152.033 -314.633,-270.888 -522.758,-280.696c-218.804,-10.329 -432.154,88.888 -590.488,233.925c108.717,-163.229 214.15,-329.375 374.167,-447.867Z" style="fill:#7a7bbe;fill-rule:nonzero;"/><path d="M5829.08,12357.3c122.13,35.709 245.459,66.65 369.984,92.834c-109.43,380.708 -102.742,804.183 -64.425,1194.32c46.266,-210.138 71.004,-425.346 106.075,-637.55c29.654,-179.575 68.021,-357.259 115.104,-533.059c512.275,88.975 976.404,87.225 1489.39,7.675c41.008,538.113 110.316,1072.56 207.933,1603.33c43.387,250.241 85.592,514.758 163.596,756.891c-82.121,-13.941 -166.425,-18.679 -249.204,-29.112c-152.967,-19.255 -306.3,-44.48 -460.78,-46.459c-203.908,-2.604 -410.208,17.43 -614.408,22.5c-478.146,11.875 -969.812,-50.75 -1400.07,-266.391c50.883,-227.309 78.038,-464.009 113.038,-694.392c74.479,-490.313 140.92,-981.563 223.766,-1470.59Z" style="fill:#535a65;fill-rule:nonzero;"/><path d="M6925.54,10476.2c171.996,-92.033 332.587,-263.787 483.196,-389.516c314.391,-262.5 702.95,-586.163 1050.64,-796.388c205.988,-124.55 475.988,-148.558 703.613,-224.95c334.875,-112.358 626.437,-278.4 923.191,-465.779c174.775,108.575 410.888,294.842 464.638,506.492c6.004,23.646 7.725,47.587 5.85,71.808l-9.446,7.654c-61.458,-13.662 -117.688,-53.575 -175.433,-78.733c-145.346,-63.317 -368.092,-93.108 -509.496,-3.733c-10.121,6.391 -11.25,8.42 -18.3,16.095c4.846,18.246 -0.088,12.9 15.816,22.467c44.705,26.908 125.763,26.596 177.188,34.458c259.479,39.654 471.146,132.642 577.067,386.442c-155.592,-126.563 -443.421,-105.763 -631.513,-85.971c-244.2,25.675 -478.437,101.25 -713.054,170.088c-309.55,90.816 -620.071,177.933 -921.217,294.512c-288.591,111.738 -562.604,248.004 -842.604,378.263c-140.275,65.279 -301.229,119.479 -428.871,206.183c315.713,5 536.563,-122.9 826.08,-216.546c-97.659,351.338 -116.271,965.521 -100.713,1327.8c-642.483,56.075 -1212.12,52.429 -1844.58,-88.804c54.425,-243.279 87.725,-492.9 134.791,-737.95c40.155,-209.167 101.892,-445.104 127.205,-652.967c96.112,67.671 362.862,251.454 469.237,257.1l16.892,-9.167c5.521,-24.412 1.129,-32.45 -6.113,-55.92c26.513,-1.2 56.409,-8.317 82.363,-3.109c11.3,2.259 18.629,2.725 30.175,1.963c34.096,47.916 67.287,90.833 113.4,128.212Z" style="fill:#535a65;fill-rule:nonzero;"/><g><path d="M5942.33,11690.3c532.063,156.804 1325.03,173.559 1869.53,100.296c-2.413,171.458 30.175,346.267 16.25,516.858c-14.984,19.842 -28.959,17.38 -52.396,22.342c-622.309,105.975 -1313.04,64.013 -1911.22,-140.521c5.663,-162.671 41.979,-340.208 77.833,-498.975Z" style="fill:#333944;fill-rule:nonzero;"/><path d="M7389.17,14947.4c184.983,-20.296 400.975,29.671 584.221,55.121c100.954,14.012 206.195,20.8 305.241,44.912c25.158,99.792 56.754,196.858 87.621,294.933c-30.712,11.771 -68.175,4.896 -100.921,3.28c-84.946,-13.838 -175.154,-15.85 -261.162,-22.967c-236.717,-19.638 -481.492,-32.5 -715.242,-74.704c9.063,-102.834 32.883,-219.967 100.242,-300.575Z" style="fill:#7a7bbe;fill-rule:nonzero;"/><path d="M5456.67,14751.8c48.75,15 95.104,37.121 141.77,57.555c-2.17,131.804 9.83,263.679 19.271,395.07l-102.9,9.771l-147.083,18.542c34.55,-158.75 43.371,-324.633 88.942,-480.938Z" style="fill:#7a7bbe;fill-rule:nonzero;"/></g></g><path d="M6699.58,10349.2c-155.954,-179.271 -320.554,-306.771 -500.52,-459.584c-188.296,-159.895 -374.442,-326.25 -542.655,-507.466c-79.012,-85.104 -238.371,-277.654 -228.491,-400.4c4.983,-61.875 111.841,-129.096 158.525,-165.884c230.937,104.48 461.266,202.309 708.679,261.005c82.937,441.616 285.75,888.508 517,1271.18c-11.546,0.762 -18.875,0.296 -30.175,-1.963c-25.954,-5.208 -55.85,1.909 -82.363,3.109Z" style="fill:#535a65;fill-rule:nonzero;"/></g><path d="M9266.29,14644.9c-96.617,-195.313 -138.838,-428.213 -174.204,-641.042c69.079,122.467 121.112,258.092 176.929,387.171c260.5,478.717 512.671,981.112 919.321,1357.36c-80.209,-29.704 -152.43,-59.687 -222.55,-109.095c-278.284,-196.042 -524.688,-605.126 -665.784,-913.3c-12.154,-26.546 -23.925,-53.596 -33.712,-81.096Z" style="fill:#324050;fill-rule:nonzero;"/><path d="M9266.29,14644.9c-96.617,-195.313 -138.838,-428.213 -174.204,-641.042c69.079,122.467 121.112,258.092 176.929,387.171c-21.721,-6.371 -21.25,-8.713 -32.571,-29.183c-26.025,-47.067 -45.159,-96.146 -75.521,-141.009c8.092,55.367 18.942,108.942 33.942,162.884c10.191,36.72 80.866,233.279 78.471,249.687c-0.659,4.446 -4.705,7.675 -7.046,11.492Z" style="fill:#26323f;fill-rule:nonzero;"/><path d="M10371.7,4533.21l-11.733,-4.429c-141.075,-53.958 -562.188,-285.017 -620.4,-412.062c-35.938,-78.405 27.346,-203.525 58.421,-276.513c289.062,-678.887 868.871,-1368.14 1565.43,-1648.32c314.513,-126.525 687.221,-172.566 1006.43,-35.05c304.442,131.163 513.592,436.58 630.988,736.317c224.533,573.25 166.162,1265.25 -81.217,1823.02c-197.358,445.017 -574.025,841.058 -1034.11,1014.97c-61.442,23.212 -123.284,41.995 -186.946,58.004c-36.109,-39.325 -73.609,-78.004 -107.934,-118.854c-129.479,-138.125 -267.983,-268.542 -404.216,-399.896c-133.734,-128.958 -268.109,-263.333 -415.159,-377.188c4.517,-9.675 5.163,-36.141 13.246,-29.166c138.696,119.65 -361.658,-45.671 -171.908,-729.534c141.667,-510.57 487.708,-1062.9 957.467,-1324.6c204.583,-113.958 465.329,-182.966 695.9,-115.241c306.512,90.033 510.366,375.816 601.704,668.854c18.591,59.633 29.025,180.971 57.446,229.304c1.891,3.196 3.941,6.321 5.904,9.479c21.233,-294.166 -30.555,-607.9 -229.934,-836.65c-149.266,-171.267 -361.925,-265.171 -586.558,-280c-358.021,-23.625 -697.658,158.3 -958.075,389.813c-365.258,324.754 -642.308,813.262 -742.917,1291.68c-25.416,120.883 -34.687,242.967 -41.821,366.058l-0.004,0Z" style="fill:#f1c5b9;fill-rule:nonzero;"/><path d="M10371.7,4533.21l-11.733,-4.429c-141.075,-53.958 -562.188,-285.017 -620.4,-412.062c-35.938,-78.405 27.346,-203.525 58.421,-276.513c289.062,-678.887 868.871,-1368.14 1565.43,-1648.32c314.513,-126.525 687.221,-172.566 1006.43,-35.05c304.442,131.163 513.592,436.58 630.988,736.317c224.533,573.25 166.162,1265.25 -81.217,1823.02c-197.358,445.017 -574.025,841.058 -1034.11,1014.97c-61.442,23.212 -123.284,41.995 -186.946,58.004c-36.109,-39.325 -73.609,-78.004 -107.934,-118.854c30.225,-39.117 210.767,-79.621 267.259,-103.246c47.204,-19.725 93.141,-45.958 136.283,-73.354c505,-320.675 789.046,-876.284 889.688,-1451.28c22.204,-126.962 16.825,-322.966 44.183,-430.608c0.816,-3.208 1.979,-6.333 2.971,-9.496c21.233,-294.166 -30.555,-607.9 -229.934,-836.65c-149.266,-171.266 -361.925,-265.171 -586.558,-280c-358.021,-23.625 -697.658,158.3 -958.075,389.813c-365.258,324.754 -642.308,813.262 -742.917,1291.68c-25.416,120.883 -34.687,242.967 -41.821,366.058l-0.004,0Z" style="fill:#f2f2f4;fill-rule:nonzero;"/><path d="M7351.46,2973.73l14.984,-7.675c48.837,16.98 89.479,42.988 136.283,61.93c143.054,57.916 283.542,108.175 431.667,152.062c15.137,4.5 9.637,3.25 27.22,0.558c-33.575,-50.037 -183.854,-80.991 -191.091,-131.129c159.654,77.884 328.279,151.217 480.833,241.859c-308.837,-77.309 -615.608,-171.355 -899.896,-317.605Z" style="fill:#26323f;fill-rule:nonzero;"/><path d="M14067.8,8979.29c278.492,-14.429 535.784,26.283 781.7,164.183c275.142,154.308 506.288,421.496 589.846,728.508c66.596,244.65 23.888,461.234 -101.304,676.909c47.746,-248.071 31.529,-469.6 -93.054,-693.142c-136.129,-244.2 -356.233,-411.892 -624.983,-486.146c-17.5,-4.816 -35.109,-9.2 -52.83,-13.158c-17.72,-3.95 -35.525,-7.463 -53.42,-10.542c-17.892,-3.075 -35.85,-5.716 -53.871,-7.916c-18.021,-2.188 -36.084,-3.934 -54.184,-5.242c-18.112,-1.296 -36.246,-2.154 -54.391,-2.571c-18.15,-0.417 -36.296,-0.387 -54.446,0.088c-18.15,0.487 -36.275,1.412 -54.375,2.779c-18.1,1.379 -36.159,3.196 -54.167,5.45c-18.021,2.258 -35.967,4.962 -53.837,8.108c-17.884,3.138 -35.675,6.713 -53.384,10.729c-17.708,4.017 -35.304,8.467 -52.779,13.35c-17.487,4.888 -34.846,10.2 -52.067,15.938c-17.22,5.729 -34.291,11.883 -51.216,18.454c-16.921,6.587 -33.671,13.579 -50.259,20.975c-16.575,7.396 -32.958,15.196 -49.149,23.404c-16.192,8.204 -32.176,16.804 -47.951,25.796c-14.895,8.567 -29.595,17.45 -44.1,26.65c-14.499,9.212 -28.795,18.733 -42.879,28.558c-14.1,9.825 -27.971,19.959 -41.616,30.4c-13.646,10.429 -27.059,21.15 -40.242,32.171c-13.171,11.017 -26.104,22.321 -38.804,33.904c-12.683,11.588 -25.108,23.446 -37.271,35.575c-12.179,12.117 -24.075,24.496 -35.696,37.133c-11.633,12.65 -22.979,25.546 -34.046,38.684c-11.075,13.133 -21.858,26.508 -32.341,40.121c-10.475,13.608 -20.654,27.441 -30.542,41.491c-9.883,14.05 -19.454,28.313 -28.712,42.779c-9.259,14.467 -18.2,29.134 -26.825,43.992c-8.621,14.863 -16.913,29.904 -24.88,45.121c-7.962,15.233 -15.587,30.621 -22.879,46.163c-7.291,15.558 -14.242,31.262 -20.85,47.12c-6.608,15.854 -12.871,31.85 -18.787,47.984c-90.017,244.133 -108.038,514.916 -65.434,770.625c168.892,1013.68 1046.56,1681.53 735.4,2806.84c-127.779,462.084 -438.037,817.763 -849.879,1053.08c-465.504,242.342 -1033.89,296.354 -1542.64,172.775c-32.204,-7.812 -65.954,-18.087 -93.663,-36.716c-188.437,-126.684 -426.875,-544.221 -548.562,-743.996c420.646,191.046 849.012,327.171 1317.07,285.766c372.884,-32.987 757.346,-175.054 1001.27,-471.287c130.142,-158.038 208.058,-348.575 238.525,-550.208c101.079,-668.73 -299.792,-1222.03 -540.137,-1810.15c-96.459,-236.075 -169.409,-490.504 -193.596,-744.704c-45.521,-478.229 63.229,-958.212 376.512,-1331.8c249.217,-297.187 590.313,-478.612 975.729,-514.012Z" style="fill:#f1c5b9;fill-rule:nonzero;"/><path d="M4651.62,1860.21c41.125,-5.366 86.979,-7.587 128.471,-4.32c171.737,13.487 298.975,106.091 406.337,234.995c311.821,374.375 410.955,1033.35 366.788,1508.8c-82.708,106.042 -201.754,192.83 -293.492,292.605c-223.766,243.366 -399.704,527.604 -545.85,823.07l-56.562,120.125c-2.917,-1.895 -5.867,-3.716 -8.75,-5.662c-383.679,-257.567 -630.588,-725.796 -718.038,-1169.91c-94.183,-478.245 -30.471,-1055.21 249.342,-1465.47c119.358,-175.021 260.85,-294.584 471.754,-334.238Z" style="fill:#f1c5b9;fill-rule:nonzero;"/><path d="M11096.9,6169.08c77.067,56.388 144.271,148.767 216.179,213.75c311.929,281.892 675.921,572.709 1089.17,680.817c90.208,23.592 610.208,126.283 672.933,87.133c58.388,-36.421 165.975,-15.275 232.434,-10.987c-163.405,259.912 -525.159,375.729 -801.409,467.029c-382.012,129.687 -810.137,168.108 -1211.55,149.637c-145.729,-6.704 -290.362,-28.179 -436.179,-32.516c36.721,-91.167 78.888,-178.629 104.254,-273.925c77.067,18.887 287.917,97.725 350.78,89.704c24.062,-3.071 25.854,-8.542 39.15,-26.754c6.008,-33.734 -0.4,-62.084 -18.334,-91.196c-46.146,-74.896 -254.441,-113.142 -337.916,-134.654c101.112,-374.896 144.533,-730.746 100.487,-1118.04Z" style="fill:#6969a3;fill-rule:nonzero;"/><path d="M5780.92,15376.8c120.729,-15.783 235.571,21.596 352.862,42.967c298.579,54.408 602.138,48.488 890.488,-50.642c9.362,35.984 17.033,72.334 23.004,109.046c20.242,128.175 -7.954,253.542 -85.263,358.767c-258.383,351.683 -774.041,492.325 -1182.71,553.679c11.288,-246.042 112.379,-341.492 215.35,-545.675l4.754,-9.654l-10.329,3.316c-155.433,51.634 -248.213,148.038 -320.85,291.859c-35.712,84.896 -55.85,167.254 -64.512,258.816c-99.063,-0.833 -229.95,3.421 -325.001,-22.879c-18.387,-5.087 -30.35,-8.958 -37.379,-28.333c-27.587,-76.042 26.284,-233.508 59.096,-304.288c81.667,-176.25 210.592,-269.325 388.996,-335.958c-30.142,-4.354 -60.383,-8.854 -90.713,-11.562c-7.025,-0.692 -14.062,-1.209 -21.112,-1.542c-7.05,-0.35 -14.104,-0.517 -21.163,-0.504c-7.062,0.008 -14.116,0.2 -21.162,0.571c-7.05,0.358 -14.088,0.895 -21.113,1.616c-7.024,0.704 -14.029,1.592 -21.008,2.654c-6.979,1.067 -13.921,2.305 -20.833,3.717c-6.921,1.413 -13.8,2.996 -20.642,4.758c-6.829,1.746 -13.617,3.667 -20.362,5.763c-6.738,2.096 -13.421,4.358 -20.055,6.787c-6.629,2.43 -13.195,5.025 -19.687,7.78c-6.504,2.754 -12.933,5.67 -19.287,8.75c-6.355,3.079 -12.63,6.308 -18.821,9.687c-6.179,3.392 -12.279,6.933 -18.296,10.625c-6.021,3.704 -11.942,7.546 -17.763,11.525c-5.82,3.996 -11.537,8.125 -17.154,12.396c-5.625,4.283 -11.133,8.7 -16.525,13.25c-150.871,125.917 -218.733,319.65 -236.146,509.562c-75.208,-34.287 -160.016,-69.425 -193.995,-151.42c-29.617,-71.53 -4.913,-144.392 22.729,-211.825c68.75,-2.067 138.871,-7.188 199.754,-42.15c146.771,-84.271 185.208,-310.696 224.254,-460.071c158.213,-24.704 321.113,-35.192 480.592,-51.388Z" style="fill:#f2f2f4;fill-rule:nonzero;"/><path d="M9626.5,11720.1c17.867,-1.563 36.042,-3.108 53.508,2.138c203.542,61.02 679.409,612.1 789.638,808.366c-71.079,122.883 -162.05,222.933 -284.188,296.267c-31.004,18.612 -83.021,36.683 -105.85,64.079c-10.85,13.004 -6.25,18.667 -4.983,34.725c11.896,17.429 16.513,26.387 39.063,30.971c54.308,11.008 117.537,-22.134 165.037,-45.154c-7.121,42.429 -14.029,86.925 -34.063,125.554c-34.687,66.821 -98.629,111.354 -170.487,130.104c-97.692,25.504 -216.875,14.617 -302.779,-40.85c-89.025,-57.483 -122.688,-144.221 -142.846,-243.388c-7.396,-67.083 11.267,-181.995 -8.404,-233.525l-16.404,-6.854c-32.692,13.088 -56.634,39.979 -77.275,67.917c-67.55,91.371 -60.121,190.746 -46.65,296.871c-37.796,-17.688 -77.171,-36.404 -108.921,-63.921c-113.283,-98.196 -137.275,-253.404 -133.146,-395.712c1.288,-44.359 8.804,-94.321 3.925,-138.175c-2.258,-20.438 -6.321,-32.713 -22.187,-46.096c-7.967,2.95 -10.192,3.245 -17.863,9.183c-88.837,68.662 -113.562,220.642 -128.075,323.579c-12.512,-14.217 -24.275,-29.017 -35.296,-44.412c-11.029,-15.392 -21.266,-31.296 -30.712,-47.709c-9.429,-16.412 -18.025,-33.258 -25.779,-50.537c-7.742,-17.267 -14.613,-34.883 -20.609,-52.846c-37.429,-113.821 -32.796,-233.612 23.159,-340.904c118.02,-226.321 410.766,-365.904 642.187,-439.671Z" style="fill:#f2f2f4;fill-rule:nonzero;"/><path d="M2940.92,7994.67c35.4,-2.779 65.104,0.275 97.967,14.737c24.741,10.904 47.308,26.008 64.462,47.034c88.163,107.983 146.7,236.925 225.313,351.629c68.437,99.862 167.05,197.066 221.666,303.941c32.05,62.746 36.179,153.525 61.129,221.684l15.521,6.65c30.367,-9.879 45.938,-36.788 64.775,-60.971c78.142,157.779 123.317,724.408 85.296,901.508c-4.204,19.621 -7.137,36.079 -24.083,47.917c-64.859,-5.729 -129.354,-30.379 -191.388,-49.65c-82.341,-12.363 -147.675,13.004 -221.475,45.571l-86.304,-372.671c30.854,-9.983 71.6,-22.363 95.713,-44.517c15.695,-14.441 14.879,-19.287 16.441,-39.321c-23.262,-42.954 -103.696,-58.854 -140.921,-98.75c-108.837,-116.633 -114.962,-369.479 -105.85,-518.645c-129.029,-148.455 -233.508,-133.646 -326.129,-359.725c-33.662,-82.188 -56.962,-179.705 -18.175,-264.167c34.671,-75.45 93.263,-103.817 166.042,-132.254Z" style="fill:#f2f2f4;fill-rule:nonzero;"/><path d="M3515.54,9968.5c76.233,6.392 152.033,22.921 227.241,36.704c-6.25,33.8 -10.279,68.109 -16.166,102.029c-78.505,452.363 -220.796,1064.06 -459.146,1459.78c-25.142,41.738 -54.238,100.659 -94.463,128.942l-15.8,-6.825c-219.233,-361.421 -270.258,-925.033 -234.462,-1343.16c51.375,7.116 103.541,14.341 155.4,16.512c83.246,3.471 175.591,-10.279 236.929,-71.721c76.892,-77.012 79.808,-198.679 79.842,-300.521c39.879,-8.574 80.454,-14.72 120.625,-21.737Z" style="fill:#6969a3;fill-rule:nonzero;"/><path d="M6501.33,9259.17c89.009,40.746 172.863,92.22 264.238,127.621c233.246,90.4 522.983,81.962 761.266,15.4c81.146,-22.675 155,-67.5 237.43,-87.013c142.154,-33.683 290.4,-16.008 435.137,-55.367c-148.262,125.175 -307.879,241.338 -463.992,356.596c-257.395,201.392 -500.816,419.967 -758.437,620.4c-215.088,-283.541 -361.892,-642.187 -475.642,-977.637Z" style="fill:#f2f2f4;fill-rule:nonzero;"/><path d="M5754.58,14838.7c156.354,36.717 309.704,75.121 469.321,96.229c314.5,41.617 632.225,30.455 948.438,32.209c-5.292,43.854 -10.884,84.441 -24.946,126.629c-23.804,21.146 -48.179,38.508 -74.742,56.025c-131.458,68.246 -298.158,100.071 -444.929,108.612c-95.213,5.546 -189.208,6.867 -280.65,-0.191c-203.908,-15.738 -395.117,-73.146 -558.846,-218.3c-27.308,-66.213 -31.337,-130.713 -33.646,-201.213Z" style="fill:#7a7bbe;fill-rule:nonzero;"/><path d="M1817.08,4951.42c2.534,2.05 5.384,3.75 7.605,6.129c49.304,52.725 774.237,2785.89 801.145,3035.47c-65.329,-6.721 -124.862,-14.704 -188.054,-33.542c-62.871,-323.692 -129.708,-646.571 -200.504,-968.629c-54.512,-259.617 -102.187,-520.783 -158.942,-779.896c-91.666,-418.421 -191.075,-836.787 -261.25,-1259.53Z" style="fill:#6e5e55;fill-rule:nonzero;"/><path d="M2383.78,8171.04c60.367,-8.246 124.742,13.87 182.571,29.062c25.538,183.921 61.146,320.467 159.654,480.121c-102.433,-2.325 -202.379,6.425 -304.116,16.683c-90.921,2.259 -173.263,7.884 -254.93,-40.208c-58.108,-34.217 -102.345,-89.529 -116.32,-156.129c-13.471,-64.096 2.57,-128.021 40.554,-180.817c70.021,-97.308 180.558,-130.187 292.587,-148.712Z" style="fill:#f2f2f4;fill-rule:nonzero;"/><path d="M2514.22,8875.17c33.817,-2.375 70.258,-6.942 104.025,-4.096c41.892,3.558 86.579,31.633 112.537,63.787c37.117,46.021 50.955,110.346 43.263,168.329c-8.388,63.23 -42.883,117.292 -93.054,155.855c-86.584,66.508 -181.463,68.437 -284.484,55c-48.558,-10.313 -95.641,-19.567 -138.679,-45.817c-71.129,-43.404 -121.7,-109.638 -138.141,-191.913c-10.017,-50.154 -9.046,-108.158 23.508,-150.416c7.517,-9.771 24.183,-25.121 35.417,-29.684c39.77,-16.112 271.979,-15.645 335.604,-21.045l0.004,-0Z" style="fill:#f2f2f4;fill-rule:nonzero;"/><path d="M2906.95,8842.42c15.729,13.229 19.912,27.121 25.433,46.512c37.571,131.667 58.838,270.467 92.309,403.817c53.229,212.083 116.804,422.154 164.408,635.592c13.387,59.966 43.75,161.075 6.496,214.999c-22.796,32.988 -51.129,46.513 -89.271,54.671c-73.908,-23.662 -120.246,-53.212 -169.238,-113.941c-10.362,-121.805 -34.67,-244.063 -52.725,-365.034c-16.825,-112.812 -27.57,-225.554 -53.733,-336.808c168.263,-229.687 92.95,-289.458 76.771,-531.579c-0.175,-2.742 -0.296,-5.483 -0.45,-8.229Z" style="fill:#6e5e55;fill-rule:nonzero;"/><path d="M10558.5,12722.6c53.679,58.887 89.896,176.596 115.641,250.817c23.213,66.891 126.409,378.383 102.034,428.366c-39.429,25.663 -87.292,22.171 -132.517,21.825c-30.367,-8.041 -59.083,-18.091 -87.346,-31.962c-86.146,-42.242 -122.846,-110 -153.196,-196.459l2.78,-7.97c1.529,-4.442 2.916,-8.921 4.495,-13.35c65.521,-183.159 31.617,-262.571 148.109,-451.267Z" style="fill:#6969a3;fill-rule:nonzero;"/><path d="M8825.21,16227.9c155.938,63.075 296.113,99.237 462.742,120.575c-19.754,106.058 2.729,186.854 6.462,290.521l0.346,12.583c-96.112,9.446 -207.241,10.312 -302.412,-7.813c-59.688,-11.354 -114.117,-36.02 -148.125,-88.487c-62.033,-95.658 -38.508,-222.638 -19.013,-327.379Z" style="fill:#f2f2f4;fill-rule:nonzero;"/><path d="M10109,16250.8c6.108,5.954 7.1,4.375 6.491,13.088c-4.2,60.021 -131.145,171.129 -177.066,208.891c-110.329,90.692 -341.475,170.817 -486.109,156.163c-20.279,-89.95 -30.037,-181.042 -35.104,-272.988c235.363,-0.85 471.963,-12.325 691.788,-105.154Z" style="fill:#f2f2f4;fill-rule:nonzero;"/><path d="M5685.58,2802.71c43.142,38.855 81.196,103.838 118.367,150.521c82.05,103.004 165.762,203.175 255.137,299.896l-116.683,74.896c-63.1,39.883 -125.079,81.433 -185.937,124.654c30.191,-222.538 -29.392,-433.804 -70.884,-649.967Z" style="fill:#f2f2f4;fill-rule:nonzero;"/><path d="M2345.03,9481.96c114.117,15.796 221.859,13.542 336.321,7.238c10.659,59.862 17.95,116.912 18.263,177.779c-94.096,6.821 -197.829,-3.542 -275.884,-61.912c-39.654,-29.65 -71.162,-73.73 -78.7,-123.105Z" style="fill:#f2f2f4;fill-rule:nonzero;"/><path d="M1704.58,1945.67c35.817,-1.212 76.892,2.242 109.759,17.188c37.55,17.083 59.008,47.17 78.904,82.291c78.196,138.042 195.4,533.146 253.612,701.129c203.038,-5.795 408.142,-23.262 611.129,-9.254c81.405,5.629 203.088,12.763 257.813,81.6c21.875,27.5 27.654,61.838 22.9,96.008c-5.417,38.767 -23.7,73.817 -47.538,104.426c-105.4,135.433 -434.233,385.554 -582.275,501.283c0.471,1.129 0.992,2.258 1.442,3.387c68.75,174.063 195.575,546.771 214.933,727.205c4.859,45.416 2.15,93.404 -16.666,135.624c-15.817,35.467 -38.684,60.434 -76.354,72.638c-40.142,13.004 -89.813,0.158 -127.571,-14.442c-106.009,-40.975 -205.85,-113.508 -301.321,-174.687c-122.671,-78.629 -244.721,-156.809 -371.717,-228.421l-440.296,313.504c-88.908,62.104 -237.804,180.021 -352.537,155.246c-31.95,-6.892 -58.121,-24.688 -73.879,-53.612c-78.054,-143.28 117.904,-674.53 165.937,-835.763c-124.562,-100.975 -599.583,-414.567 -627.783,-541.579c-14.575,-65.663 28.958,-125.904 64.15,-176.979c230.562,-92.104 576.337,-82.709 826.508,-101.979c85,-236.096 167.292,-502.917 277.029,-727.121c33.75,-68.959 60.417,-102.638 133.821,-127.692Z" style="fill:#fed144;fill-rule:nonzero;"/><path d="M1722.29,2237.47c58.054,57.637 241.491,610.97 273.508,722.983c239.6,-16.283 503.454,-25.017 741.421,6.808c-167.517,183.35 -400.746,303.959 -555.242,499.459c69.096,231.025 179.342,472.066 199.6,712.708c-216.3,-69.583 -443.629,-268.071 -661.525,-360.171c-70.246,30.433 -141.754,86.908 -205.262,130.104c-132.309,90.034 -261.805,182.029 -400.363,262.38c12.583,-222.017 99.721,-456.167 160.346,-669.534c-171.875,-172.083 -386.458,-313.558 -579.596,-461.771c234.471,-63.662 503.9,-88.646 746.559,-93.941c102.758,-245.988 177.708,-502.671 280.554,-749.025Z" style="fill:#fef180;fill-rule:nonzero;"/><path d="M3128.7,1788.14c26.021,-0.659 47.238,2.033 72.15,10.12c24.688,8.021 49.325,21.98 59.271,47.5c10.658,27.346 2.291,58.855 -9.167,84.534c-47.966,107.412 -224.321,268.525 -333.383,310.346c-16.479,0.454 -32.604,-0.104 -48.959,-2.15c-31.354,-3.963 -68.145,-14.584 -86.129,-42.917c-9.95,-15.646 -9.929,-34.204 -6.075,-51.754c28.713,-130.938 243.021,-288.125 352.288,-355.679l0.004,-0Z" style="fill:#fed144;fill-rule:nonzero;"/><path d="M1771.15,1006.71c17.171,0.255 34.496,1.913 51.233,5.93c28.629,6.87 47.571,29.125 60.954,54.1c46.909,87.412 43.734,261.333 12.555,355.312c-16.65,50.188 -47.5,69.338 -92.955,92.188c-3.912,-0.813 -7.8,-1.738 -11.666,-2.78c-43.28,-11.266 -69.338,-28.662 -90.938,-68.75c-47.083,-87.408 -51.316,-245.9 -20,-340.054c17.204,-51.716 42.85,-73.071 90.817,-95.946Z" style="fill:#fed144;fill-rule:nonzero;"/><path d="M470.975,4626.67c36.488,-0.954 92.629,11.737 117.146,41.633c16.579,20.225 16.325,47.863 9.971,71.788c-29.675,111.683 -155.246,202.341 -249.75,258.612c-11.846,1.092 -23.829,2.5 -35.759,1.75c-26.329,-1.646 -66.825,-12.117 -82.641,-34.858c-14.588,-21.009 -10.613,-50.642 -3.396,-73.559c34.554,-109.637 145.95,-210.662 244.429,-265.366Z" style="fill:#fed144;fill-rule:nonzero;"/><path d="M583.875,2063.53c10.992,1.129 21.513,2.237 32.271,4.808c76.558,18.367 176.762,103.663 216.004,168.454c19.517,32.221 31.313,72.988 20.196,110.263c-12.721,42.654 -48.304,63.313 -84.358,84.65c-10.892,0.087 -18.896,0.537 -30.009,-1.421c-68.133,-12.017 -147.991,-88.421 -188.029,-141.479c-28.375,-37.6 -55.675,-90.554 -45.65,-139.354c9.067,-44.15 44.712,-63.579 79.575,-85.921Z" style="fill:#fed144;fill-rule:nonzero;"/><path d="M2935.02,4712.67c16.304,-2.121 33.091,-3.63 49.341,-0.088c68.35,14.825 151.284,84.913 186.3,144.217c18.596,31.492 30.104,71.179 18.075,107.117c-12.325,36.841 -41.266,52.537 -72.62,71.112c-14.671,0.679 -28.805,0.575 -43.455,-0.937c-66.546,-6.892 -144.671,-71.459 -181.687,-124.392c-22.846,-32.692 -39.304,-74.079 -30.954,-114.446c8.975,-43.367 39.845,-61.196 75,-82.587l-0,0.004Z" style="fill:#fed144;fill-rule:nonzero;"/><path d="M3203.26,3773.12c2.858,-0.45 5.729,-0.817 8.612,-1.096c2.871,-0.262 5.754,-0.433 8.646,-0.5c2.892,-0.083 5.787,-0.066 8.679,0.05c2.896,0.117 5.775,0.325 8.646,0.625c2.883,0.3 5.75,0.7 8.596,1.2c2.845,0.483 5.675,1.071 8.487,1.75c2.813,0.683 5.596,1.454 8.35,2.313c2.767,0.866 5.5,1.82 8.196,2.862c2.696,1.042 5.358,2.175 7.988,3.404c2.616,1.217 5.195,2.517 7.741,3.904c2.538,1.392 5.025,2.859 7.467,4.413c2.442,1.55 4.825,3.183 7.15,4.896c2.342,1.712 4.612,3.5 6.825,5.362c2.212,1.863 4.362,3.796 6.458,5.8c2.084,2 4.096,4.067 6.042,6.196c1.954,2.142 3.837,4.342 5.642,6.6c1.804,2.254 3.537,4.571 5.191,6.942c1.654,2.375 3.229,4.8 4.721,7.275c1.496,2.487 2.9,5.016 4.221,7.587c1.329,2.571 2.575,5.179 3.733,7.829c1.146,2.65 2.209,5.338 3.192,8.055c0.975,2.733 1.858,5.487 2.658,8.266c0.796,2.775 1.5,5.579 2.1,8.4c0.613,2.838 1.134,5.684 1.563,8.542c0.416,2.862 0.741,5.733 0.971,8.612c0.233,2.884 0.37,5.771 0.416,8.663c0.046,2.896 -0.004,5.787 -0.154,8.683c-0.15,2.879 -0.396,5.763 -0.729,8.646c-0.338,2.871 -0.771,5.729 -1.304,8.575c-0.521,2.838 -1.138,5.658 -1.859,8.471c-0.704,2.804 -1.508,5.575 -2.412,8.317c-0.892,2.754 -1.875,5.475 -2.95,8.162c-1.075,2.683 -2.242,5.329 -3.492,7.933c-1.25,2.613 -2.579,5.184 -3.991,7.709c-1.425,2.508 -2.93,4.983 -4.513,7.412c-1.575,2.417 -3.237,4.784 -4.983,7.1c-1.738,2.304 -3.546,4.554 -5.434,6.754c-1.887,2.188 -3.841,4.313 -5.87,6.371c-2.025,2.071 -4.113,4.067 -6.267,5.992c-2.163,1.921 -4.383,3.771 -6.667,5.554c-2.279,1.783 -4.616,3.483 -7.012,5.104c-2.384,1.634 -4.825,3.175 -7.325,4.634c-2.5,1.47 -5.042,2.854 -7.625,4.15c-2.579,1.295 -5.209,2.508 -7.879,3.629c-2.663,1.121 -5.359,2.154 -8.092,3.091c-2.729,0.946 -5.496,1.805 -8.3,2.567c-2.788,0.767 -5.596,1.438 -8.417,2.017c-2.837,0.566 -5.691,1.046 -8.562,1.441c-2.117,0.288 -4.242,0.525 -6.371,0.709c-2.129,0.187 -4.258,0.321 -6.388,0.4c-2.141,0.071 -4.275,0.091 -6.408,0.071c-2.137,-0.025 -4.275,-0.1 -6.404,-0.225c-2.142,-0.13 -4.271,-0.309 -6.388,-0.538c-2.129,-0.233 -4.25,-0.517 -6.354,-0.854c-2.108,-0.333 -4.208,-0.721 -6.304,-1.163c-2.096,-0.429 -4.171,-0.912 -6.233,-1.458c-2.071,-0.533 -4.125,-1.121 -6.163,-1.771c-2.037,-0.637 -4.062,-1.316 -6.075,-2.046c-2.004,-0.741 -3.987,-1.529 -5.954,-2.362c-1.971,-0.833 -3.912,-1.721 -5.833,-2.658c-1.921,-0.925 -3.825,-1.896 -5.713,-2.917c-1.875,-1.017 -3.721,-2.083 -5.537,-3.192c-1.829,-1.112 -3.629,-2.271 -5.4,-3.475c-1.771,-1.204 -3.509,-2.446 -5.209,-3.729c-1.712,-1.287 -3.391,-2.612 -5.037,-3.979c-1.642,-1.363 -3.25,-2.767 -4.825,-4.2c-1.575,-1.446 -3.113,-2.929 -4.617,-4.446c-1.504,-1.525 -2.971,-3.083 -4.391,-4.667c-1.425,-1.587 -2.813,-3.212 -4.167,-4.879c-1.346,-1.658 -2.646,-3.346 -3.908,-5.071c-1.271,-1.712 -2.5,-3.462 -3.68,-5.241c-1.183,-1.784 -2.316,-3.596 -3.404,-5.434c-1.087,-1.841 -2.133,-3.704 -3.141,-5.591c-0.996,-1.888 -1.95,-3.796 -2.867,-5.729c-0.9,-1.934 -1.763,-3.888 -2.583,-5.867c-0.813,-1.971 -1.575,-3.958 -2.292,-5.975c-0.721,-2.013 -1.383,-4.046 -2,-6.092c-0.613,-2.05 -1.179,-4.108 -1.7,-6.183c-0.508,-2.071 -0.971,-4.154 -1.388,-6.25c-0.416,-2.092 -0.783,-4.2 -1.095,-6.317c-0.313,-2.121 -0.571,-4.237 -0.78,-6.354c-0.208,-2.129 -0.366,-4.262 -0.47,-6.392c-0.105,-2.141 -0.155,-4.279 -0.155,-6.42c-0.012,-2.13 0.034,-4.267 0.138,-6.409c0.104,-2.129 0.262,-4.258 0.471,-6.387c0.208,-2.117 0.466,-4.238 0.779,-6.354c0.3,-2.117 0.658,-4.225 1.075,-6.321c0.417,-2.096 0.883,-4.179 1.392,-6.25c0.52,-2.071 1.087,-4.129 1.7,-6.179c0.612,-2.05 1.279,-4.08 1.995,-6.096c0.709,-2.013 1.467,-4.009 2.275,-5.988c0.813,-1.979 1.675,-3.937 2.588,-5.866c0.904,-1.934 1.85,-3.846 2.846,-5.73c1.008,-1.9 2.054,-3.762 3.141,-5.591c1.092,-1.842 2.225,-3.654 3.405,-5.434c1.17,-1.783 2.391,-3.537 3.662,-5.262c1.263,-1.725 2.567,-3.413 3.908,-5.067c1.342,-1.666 2.73,-3.296 4.167,-4.879c1.421,-1.6 2.879,-3.154 4.375,-4.671c1.504,-1.516 3.042,-3 4.617,-4.446c1.575,-1.445 3.183,-2.854 4.825,-4.216c1.646,-1.379 3.316,-2.709 5.021,-3.996c1.712,-1.283 3.445,-2.529 5.208,-3.729c1.771,-1.196 3.571,-2.35 5.396,-3.475c1.821,-1.109 3.666,-2.175 5.541,-3.192c1.875,-1.033 3.771,-2.008 5.692,-2.937c1.933,-0.925 3.883,-1.809 5.85,-2.655c1.958,-0.833 3.942,-1.62 5.958,-2.362c2,-0.742 4.021,-1.429 6.059,-2.067c2.037,-0.633 4.091,-1.225 6.162,-1.771c2.059,-0.541 4.138,-1.033 6.234,-1.475c2.095,-0.437 4.195,-0.825 6.3,-1.162Z" style="fill:#fed144;fill-rule:nonzero;"/><path d="M1106.35,5320.5c1.829,-0.742 3.679,-1.437 5.554,-2.083c1.867,-0.638 3.746,-1.234 5.646,-1.788c1.896,-0.558 3.804,-1.067 5.729,-1.529c1.921,-0.45 3.846,-0.863 5.78,-1.233c1.945,-0.359 3.895,-0.671 5.85,-0.938c1.958,-0.279 3.916,-0.496 5.887,-0.658c1.967,-0.175 3.938,-0.3 5.921,-0.383c1.975,-0.071 3.95,-0.092 5.917,-0.071c1.979,0.025 3.954,0.096 5.92,0.208c1.98,0.129 3.946,0.304 5.905,0.521c1.966,0.208 3.929,0.471 5.883,0.783c1.946,0.325 3.883,0.688 5.817,1.092c1.933,0.408 3.854,0.862 5.766,1.375c1.909,0.508 3.804,1.058 5.692,1.646c1.875,0.604 3.737,1.246 5.591,1.929c1.851,0.696 3.688,1.429 5.505,2.204c1.816,0.788 3.608,1.617 5.379,2.483c1.783,0.867 3.537,1.775 5.262,2.725c1.725,0.963 3.429,1.963 5.121,3.005c1.679,1.029 3.329,2.108 4.95,3.229c1.629,1.121 3.233,2.287 4.808,3.487c1.563,1.196 3.096,2.434 4.6,3.717c1.517,1.275 2.996,2.583 4.446,3.925c1.434,1.354 2.838,2.737 4.217,4.15c1.379,1.421 2.721,2.875 4.029,4.354c1.308,1.483 2.575,3 3.8,4.55c1.229,1.542 2.421,3.113 3.579,4.721c1.146,1.6 2.254,3.229 3.334,4.896c1.062,1.658 2.091,3.341 3.087,5.054c0.983,1.712 1.929,3.45 2.829,5.208c0.904,1.746 1.767,3.525 2.588,5.329c0.812,1.796 1.579,3.613 2.308,5.45c0.729,1.842 1.408,3.696 2.033,5.559c0.638,1.875 1.225,3.762 1.771,5.658c0.542,1.9 1.034,3.813 1.475,5.746c0.45,1.921 0.859,3.854 1.217,5.8c0.346,1.946 0.646,3.896 0.9,5.85c0.254,1.958 0.462,3.917 0.625,5.887c0.162,1.967 0.275,3.938 0.333,5.917c0.054,1.979 0.067,3.954 0.034,5.921c-0.034,1.979 -0.117,3.954 -0.242,5.921c-0.142,1.979 -0.325,3.946 -0.558,5.904c-0.23,1.967 -0.509,3.921 -0.834,5.867c-0.325,1.945 -0.691,3.883 -1.108,5.816c-0.429,1.934 -0.904,3.854 -1.425,5.763c-0.508,1.9 -1.071,3.791 -1.683,5.679c-0.617,1.875 -1.267,3.737 -1.963,5.587c-0.708,1.842 -1.454,3.667 -2.242,5.471c-0.795,1.817 -1.637,3.613 -2.516,5.384c-0.879,1.758 -1.8,3.499 -2.759,5.225c-0.962,1.724 -1.97,3.424 -3.02,5.104c-1.055,1.666 -2.15,3.308 -3.284,4.929c-1.121,1.621 -2.291,3.212 -3.504,4.775c-1.204,1.562 -2.45,3.096 -3.733,4.6c-1.288,1.504 -2.604,2.975 -3.959,4.408c-1.366,1.438 -2.762,2.838 -4.183,4.204c-1.425,1.367 -2.883,2.696 -4.375,3.992c-1.496,1.296 -3.017,2.554 -4.567,3.767c-1.554,1.229 -3.137,2.408 -4.758,3.541c-1.608,1.146 -3.246,2.254 -4.912,3.317c-1.667,1.054 -3.359,2.071 -5.071,3.054c-1.725,0.975 -3.467,1.904 -5.225,2.796c-1.759,0.892 -3.542,1.742 -5.346,2.554c-1.808,0.796 -3.629,1.554 -5.471,2.275c-1.829,0.704 -3.675,1.371 -5.537,1.996c-1.85,0.612 -3.721,1.188 -5.609,1.717c-1.887,0.52 -3.791,1.004 -5.712,1.441c-1.909,0.43 -3.825,0.813 -5.746,1.146c-1.933,0.346 -3.871,0.642 -5.817,0.888c-1.941,0.241 -3.891,0.437 -5.85,0.587c-1.954,0.15 -3.912,0.254 -5.866,0.313c-1.959,0.046 -3.917,0.054 -5.888,0.016c-1.954,-0.045 -3.912,-0.137 -5.867,-0.275c-1.954,-0.129 -3.904,-0.308 -5.85,-0.537c-1.945,-0.246 -3.883,-0.529 -5.816,-0.854c-1.934,-0.321 -3.854,-0.7 -5.763,-1.125c-1.921,-0.417 -3.825,-0.879 -5.712,-1.392c-1.888,-0.521 -3.763,-1.079 -5.625,-1.683c-1.863,-0.613 -3.717,-1.267 -5.554,-1.963c-1.83,-0.691 -3.642,-1.433 -5.438,-2.221c-1.792,-0.787 -3.571,-1.616 -5.329,-2.483c-1.746,-0.867 -3.479,-1.783 -5.192,-2.742c-1.712,-0.962 -3.4,-1.958 -5.066,-2.987c-1.659,-1.042 -3.288,-2.125 -4.896,-3.246c-1.609,-1.121 -3.192,-2.279 -4.742,-3.471c-1.554,-1.191 -3.075,-2.425 -4.567,-3.7c-1.495,-1.271 -2.954,-2.579 -4.379,-3.925c-1.429,-1.341 -2.825,-2.716 -4.183,-4.129c-1.363,-1.412 -2.688,-2.854 -3.979,-4.325c-1.288,-1.479 -2.542,-2.983 -3.759,-4.512c-1.216,-1.538 -2.391,-3.109 -3.533,-4.705c-1.142,-1.6 -2.242,-3.216 -3.3,-4.862c-1.062,-1.642 -2.083,-3.317 -3.058,-5.017c-0.979,-1.7 -1.917,-3.421 -2.813,-5.158c-0.896,-1.746 -1.746,-3.513 -2.554,-5.292c-0.808,-1.796 -1.571,-3.6 -2.292,-5.416c-0.72,-1.83 -1.395,-3.671 -2.025,-5.521c-0.629,-1.854 -1.216,-3.721 -1.754,-5.609c-0.537,-1.887 -1.029,-3.787 -1.475,-5.695c-0.446,-1.896 -0.846,-3.813 -1.2,-5.746c-0.35,-1.934 -0.654,-3.867 -0.912,-5.8c-0.259,-1.942 -0.467,-3.892 -0.629,-5.85c-0.163,-1.954 -0.275,-3.913 -0.342,-5.867c-0.067,-1.958 -0.088,-3.917 -0.058,-5.887c0.029,-1.955 0.108,-3.913 0.233,-5.867c0.125,-1.954 0.296,-3.908 0.517,-5.85c0.22,-1.946 0.487,-3.883 0.804,-5.817c0.316,-1.946 0.679,-3.871 1.087,-5.783c0.409,-1.921 0.867,-3.825 1.367,-5.708c0.504,-1.9 1.05,-3.78 1.646,-5.646c0.596,-1.875 1.233,-3.725 1.921,-5.554c0.683,-1.842 1.412,-3.659 2.187,-5.45c0.775,-1.809 1.592,-3.588 2.454,-5.35c0.863,-1.759 1.763,-3.492 2.709,-5.209c0.945,-1.721 1.933,-3.416 2.962,-5.083c1.029,-1.667 2.1,-3.313 3.208,-4.933c1.109,-1.609 2.259,-3.192 3.442,-4.755c1.188,-1.562 2.413,-3.091 3.675,-4.583c1.258,-1.504 2.558,-2.975 3.892,-4.412c1.333,-1.434 2.7,-2.834 4.1,-4.2c1.404,-1.38 2.837,-2.713 4.304,-4.013c1.467,-1.296 2.967,-2.554 4.496,-3.783c1.529,-1.225 3.087,-2.413 4.675,-3.559c1.583,-1.158 3.2,-2.266 4.841,-3.333c1.646,-1.075 3.313,-2.108 5,-3.092c1.692,-0.995 3.405,-1.941 5.142,-2.845c1.733,-0.905 3.492,-1.767 5.275,-2.588c1.783,-0.821 3.583,-1.596 5.4,-2.325Z" style="fill:#fed144;fill-rule:nonzero;"/><path d="M182.542,3683.77c1.508,-0.613 3.029,-1.188 4.562,-1.717c1.538,-0.533 3.084,-1.033 4.646,-1.496c1.558,-0.462 3.129,-0.892 4.708,-1.283c1.58,-0.383 3.167,-0.729 4.767,-1.042c1.596,-0.3 3.2,-0.566 4.808,-0.8c1.613,-0.229 3.225,-0.425 4.846,-0.587c1.617,-0.15 3.242,-0.267 4.867,-0.35c1.625,-0.067 3.25,-0.104 4.875,-0.104c1.629,-0 3.254,0.041 4.879,0.12c1.625,0.084 3.246,0.205 4.867,0.367c1.616,0.162 3.229,0.358 4.841,0.592c1.609,0.241 3.209,0.521 4.805,0.833c1.595,0.313 3.183,0.663 4.762,1.058c1.579,0.392 3.15,0.821 4.704,1.284c1.563,0.462 3.109,0.966 4.642,1.512c1.533,0.542 3.054,1.121 4.558,1.734c1.509,0.616 2.996,1.262 4.471,1.945c1.475,0.696 2.933,1.417 4.371,2.171c1.442,0.763 2.862,1.554 4.262,2.379c1.405,0.821 2.784,1.675 4.146,2.567c1.358,0.892 2.696,1.817 4.013,2.779c1.312,0.963 2.604,1.95 3.875,2.967c1.266,1.021 2.508,2.067 3.725,3.146c1.221,1.075 2.408,2.179 3.575,3.312c1.162,1.146 2.3,2.317 3.404,3.508c1.108,1.18 2.187,2.396 3.237,3.646c1.046,1.238 2.067,2.509 3.055,3.805c0.987,1.295 1.941,2.608 2.866,3.937c0.925,1.346 1.817,2.704 2.675,4.083c0.859,1.388 1.684,2.788 2.475,4.2c0.792,1.425 1.546,2.863 2.271,4.321c0.721,1.459 1.404,2.938 2.058,4.429c0.65,1.492 1.263,2.996 1.842,4.513c0.575,1.529 1.117,3.062 1.621,4.6c0.504,1.554 0.971,3.108 1.4,4.671c0.429,1.575 0.817,3.154 1.171,4.741c0.354,1.584 0.666,3.184 0.941,4.792c0.275,1.596 0.513,3.204 0.713,4.825c0.196,1.608 0.354,3.229 0.475,4.863c0.121,1.62 0.2,3.241 0.242,4.858c0.041,1.633 0.041,3.258 0.004,4.879c-0.038,1.633 -0.113,3.258 -0.229,4.879c-0.117,1.621 -0.271,3.242 -0.463,4.863c-0.192,1.608 -0.425,3.216 -0.696,4.825c-0.271,1.596 -0.583,3.196 -0.929,4.791c-0.35,1.588 -0.738,3.167 -1.162,4.742c-0.425,1.563 -0.888,3.117 -1.388,4.667c-0.496,1.554 -1.033,3.087 -1.608,4.604c-0.575,1.525 -1.184,3.037 -1.829,4.529c-0.65,1.492 -1.334,2.971 -2.05,4.429c-0.717,1.459 -1.471,2.896 -2.255,4.321c-0.791,1.425 -1.612,2.829 -2.466,4.221c-0.854,1.375 -1.742,2.737 -2.663,4.079c-0.921,1.342 -1.875,2.663 -2.858,3.958c-0.983,1.296 -2,2.563 -3.046,3.8c-1.046,1.25 -2.121,2.471 -3.225,3.663c-1.104,1.196 -2.237,2.362 -3.4,3.508c-1.162,1.134 -2.35,2.246 -3.562,3.334c-1.217,1.075 -2.455,2.129 -3.721,3.158c-1.263,1.021 -2.554,2.008 -3.867,2.971c-1.312,0.962 -2.65,1.887 -4.008,2.779c-1.359,0.9 -2.734,1.762 -4.134,2.583c-1.4,0.834 -2.82,1.634 -4.258,2.396c-1.437,0.754 -2.892,1.479 -4.367,2.171c-2.033,0.95 -4.095,1.837 -6.187,2.658c-2.092,0.809 -4.208,1.554 -6.35,2.238c-2.142,0.671 -4.304,1.275 -6.483,1.808c-2.184,0.521 -4.38,0.975 -6.592,1.371c-2.213,0.379 -4.433,0.687 -6.667,0.921c-2.233,0.241 -4.471,0.404 -6.712,0.483c-2.246,0.096 -4.488,0.104 -6.734,0.038c-2.245,-0.059 -4.483,-0.192 -6.72,-0.4c-2.234,-0.221 -4.459,-0.509 -6.675,-0.871c-2.217,-0.359 -4.417,-0.784 -6.605,-1.284c-2.187,-0.508 -4.354,-1.087 -6.504,-1.737c-2.15,-0.658 -4.275,-1.379 -6.375,-2.167c-2.1,-0.787 -4.171,-1.65 -6.216,-2.587c-2.042,-0.925 -4.055,-1.921 -6.03,-2.988c-1.979,-1.062 -3.916,-2.191 -5.82,-3.383c-1.9,-1.192 -3.763,-2.45 -5.58,-3.771c-1.816,-1.317 -3.591,-2.696 -5.316,-4.129c-1.725,-1.438 -3.404,-2.925 -5.029,-4.463c-1.63,-1.55 -3.205,-3.154 -4.725,-4.808c-1.521,-1.646 -2.984,-3.346 -4.392,-5.104c-1.408,-1.75 -2.754,-3.542 -4.042,-5.383c-1.287,-1.83 -2.512,-3.705 -3.679,-5.625c-1.162,-1.921 -2.258,-3.875 -3.292,-5.867c-1.033,-2.004 -2,-4.029 -2.895,-6.079c-0.896,-2.059 -1.725,-4.146 -2.484,-6.267c-0.758,-2.104 -1.446,-4.242 -2.062,-6.404c-0.617,-2.154 -1.163,-4.329 -1.634,-6.529c-0.47,-2.2 -0.87,-4.409 -1.195,-6.634c-0.325,-2.208 -0.575,-4.437 -0.75,-6.683c-0.175,-2.233 -0.28,-4.471 -0.305,-6.717c-0.025,-2.245 0.021,-4.491 0.146,-6.737c0.121,-2.233 0.317,-4.467 0.588,-6.7c0.275,-2.233 0.616,-4.45 1.037,-6.65c0.421,-2.213 0.913,-4.4 1.475,-6.563c0.567,-2.175 1.204,-4.329 1.913,-6.458c0.708,-2.129 1.483,-4.237 2.333,-6.321c0.85,-2.083 1.767,-4.129 2.75,-6.146c0.983,-2.012 2.038,-3.995 3.154,-5.954c1.117,-1.946 2.296,-3.846 3.542,-5.712c1.242,-1.875 2.546,-3.704 3.912,-5.484c1.367,-1.783 2.788,-3.52 4.271,-5.208c1.479,-1.679 3.017,-3.312 4.609,-4.896c1.587,-1.587 3.229,-3.121 4.92,-4.604c1.692,-1.467 3.434,-2.887 5.221,-4.25c1.784,-1.354 3.613,-2.65 5.488,-3.892c1.875,-1.237 3.787,-2.412 5.737,-3.525c1.95,-1.108 3.938,-2.158 5.959,-3.141c2.02,-0.971 4.07,-1.879 6.154,-2.725Z" style="fill:#fed144;fill-rule:nonzero;"/><path d="M2820.89,5675.71c5.62,0.709 11.25,1.355 16.854,2.15c30.887,4.48 57.483,17.292 74.15,44.967c14.375,23.838 16.354,50.625 9.1,76.908c-12.834,46.475 -35.8,64.184 -77.171,86.146c-3.733,-0.208 -7.483,-0.208 -11.183,-0.625c-28.455,-3.262 -61.492,-16.666 -77.638,-41.804c-16.3,-25.417 -19.375,-51.562 -12.117,-80.729c11.234,-45.121 39.825,-64.479 78.005,-87.013Z" style="fill:#fed144;fill-rule:nonzero;"/></svg>