<?xml version="1.0" encoding="UTF-8" standalone="no"?><!DOCTYPE svg PUBLIC "-//W3C//DTD SVG 1.1//EN" "http://www.w3.org/Graphics/SVG/1.1/DTD/svg11.dtd"><svg width="100%" height="100%" viewBox="0 0 3776 4064" version="1.1" xmlns="http://www.w3.org/2000/svg" xmlns:xlink="http://www.w3.org/1999/xlink" xml:space="preserve" xmlns:serif="http://www.serif.com/" style="fill-rule:evenodd;clip-rule:evenodd;stroke-linejoin:round;stroke-miterlimit:2;"><rect id="Artboard1" x="0" y="0" width="3775.81" height="4063.74" style="fill:none;"/><path d="M2046.15,3783.76c1.573,-15.218 53.938,78.572 45.441,85.179c-27.676,21.517 -9.844,99.855 -24.082,95.991c-41.902,-11.372 -54.135,-56.473 -54.127,-108.271" style="fill:#f2f2f4;"/><path d="M2564.24,23.775c4.455,-0.541 8.923,-0.944 13.404,-1.21c4.48,-0.265 8.965,-0.393 13.454,-0.383c4.489,0.011 8.974,0.16 13.454,0.446c4.481,0.287 8.947,0.711 13.4,1.273c4.453,0.562 8.885,1.26 13.296,2.095c4.408,0.835 8.789,1.805 13.142,2.909c4.35,1.105 8.662,2.342 12.937,3.712c4.272,1.371 8.5,2.871 12.683,4.502c44.317,17.076 84.471,45.693 122.017,74.403c86.534,66.174 175.363,157.035 270.842,207.99c14.989,8.012 30.39,15.134 46.204,21.367c15.814,6.231 31.933,11.531 48.358,15.9c32.246,8.817 89.825,12.471 115.263,30.733c10.821,7.767 16.896,17.834 18.65,31.005c2.029,15.233 -3.325,29.475 -12.434,41.516c-37.325,49.329 -125.541,78.075 -183.904,86.692c24.367,32.987 46.396,66.654 63.413,104.129c66.125,145.579 55.708,326.442 -0.367,473.725c-39.212,103.008 -108.016,195.454 -201.937,254.575c-32.413,20.404 -66.417,35.892 -101.296,51.429c58.129,77.088 143.975,156.909 230.483,199.2c19.222,9.436 39.07,17.291 59.542,23.563c26.6,8.154 74.008,10.487 90.429,35.321c6.267,9.479 7.587,21.241 5.1,32.183c-8.525,37.483 -48.9,67.1 -79.154,86.962c-153.638,100.838 -397.525,123.963 -575.346,87.438c-7.292,13.983 -16.721,26.9 -25.588,39.925c28.259,15.112 110.155,64.437 122.117,92.142c2.333,5.395 3.375,11.858 0.529,17.312c-2.316,4.442 -7.791,8.575 -12.562,9.421c-31.354,5.558 -116.596,-57.575 -143.821,-77.275c-19.667,17.296 -41.658,37.1 -58.525,57.071c32.521,21.391 61.475,49.375 82.237,82.45c15.85,25.246 31.675,61.321 27.234,91.758c-1.746,11.954 -7.496,23.634 -10.142,35.6l-0.521,2.434c17.996,25.57 24.25,45.554 24.334,76.725c1.529,1.066 3.075,2.116 4.566,3.233c87.567,65.6 196.567,164.846 212.467,277.892c5.162,36.712 3.125,73.466 -1.354,110.129c-12.271,100.462 -86.096,427.529 -142.225,500.22c-29.104,37.692 -69.179,55.951 -115.425,61.876c63.283,73.67 192.425,120.033 287.158,130.158c87.654,9.375 187.817,-3.763 258.054,-61.146c33.617,-27.462 58.188,-61.796 72.788,-102.692c42.633,-119.408 -16.579,-232.795 -66.875,-339.15c-23.488,-49.67 -46.446,-99.675 -64.496,-151.633c-29.425,-84.708 -42.979,-174.775 -33.729,-264.283c11.791,-114.15 64.221,-223.25 154.104,-296.229c81.067,-65.821 176.983,-95.68 281.358,-84.746c96.025,10.062 188.871,53.691 250,129.954c50.638,63.175 78.654,141.879 69.121,223.3c-5.704,48.741 -27.954,93.029 -66.904,123.483c-11.117,8.692 -30.121,21.025 -45.042,17.658c-5.9,-1.333 -10.458,-4.137 -13.896,-9.125c-13.091,-18.975 6.534,-64.066 9.571,-86.47c6.825,-50.296 -5.808,-98.434 -36.491,-138.796c-33.717,-44.354 -83.959,-71.684 -138.921,-78.6c-3.506,-0.411 -7.02,-0.736 -10.542,-0.975c-3.519,-0.239 -7.044,-0.393 -10.575,-0.463c-3.528,-0.066 -7.055,-0.047 -10.583,0.059c-3.528,0.105 -7.05,0.297 -10.567,0.575c-3.519,0.277 -7.029,0.641 -10.529,1.091c-3.503,0.448 -6.99,0.982 -10.463,1.604c-3.475,0.62 -6.933,1.324 -10.375,2.113c-3.438,0.789 -6.856,1.661 -10.254,2.617c-3.397,0.955 -6.769,1.993 -10.116,3.112c-3.348,1.122 -6.664,2.325 -9.95,3.608c-3.289,1.281 -6.545,2.644 -9.767,4.088c-3.219,1.442 -6.403,2.961 -9.55,4.558c-3.147,1.598 -6.254,3.271 -9.321,5.021c-3.064,1.75 -6.085,3.574 -9.062,5.471c-2.975,1.897 -5.903,3.865 -8.784,5.904c-2.877,2.042 -5.705,4.152 -8.483,6.329c-36.513,29.067 -64.704,71.279 -80.133,115.121c-69.905,198.646 96.72,382.579 155.683,560.908c2.858,8.656 5.483,17.381 7.875,26.175c2.392,8.795 4.549,17.648 6.471,26.559c1.919,8.908 3.6,17.862 5.041,26.862c1.442,9 2.644,18.032 3.605,27.096c0.958,9.064 1.676,18.147 2.154,27.25c0.475,9.103 0.707,18.211 0.696,27.325c-0.011,9.114 -0.266,18.222 -0.763,27.325c-0.497,9.1 -1.236,18.181 -2.217,27.242c-0.408,3.728 -0.862,7.448 -1.362,11.162c-0.5,3.717 -1.046,7.427 -1.638,11.129c-0.594,3.703 -1.233,7.398 -1.916,11.084c-0.686,3.686 -1.417,7.362 -2.192,11.029c-0.778,3.669 -1.6,7.328 -2.467,10.975c-0.866,3.647 -1.779,7.283 -2.737,10.908c-0.958,3.625 -1.963,7.236 -3.013,10.834c-1.047,3.602 -2.138,7.19 -3.275,10.762c-1.138,3.572 -2.32,7.129 -3.545,10.671c-1.228,3.544 -2.499,7.072 -3.813,10.583c-1.314,3.511 -2.671,7.006 -4.071,10.484c-1.4,3.477 -2.844,6.937 -4.333,10.379c-1.486,3.441 -3.015,6.864 -4.588,10.266c-1.572,3.403 -3.187,6.787 -4.845,10.15c-1.656,3.364 -3.355,6.707 -5.096,10.03c-1.739,3.319 -3.52,6.618 -5.342,9.895c-1.822,3.275 -3.685,6.528 -5.587,9.759c-1.903,3.23 -3.846,6.437 -5.83,9.621c-1.983,3.18 -4.006,6.336 -6.07,9.466c-2.061,3.134 -4.161,6.239 -6.3,9.317c-2.139,3.081 -4.317,6.133 -6.534,9.158c-2.214,3.025 -4.465,6.021 -6.754,8.988c-2.292,2.969 -4.618,5.91 -6.979,8.821c-2.364,2.911 -4.764,5.791 -7.2,8.641c-2.433,2.853 -4.903,5.674 -7.408,8.463c-2.506,2.789 -5.045,5.546 -7.617,8.271c-2.575,2.727 -5.183,5.422 -7.825,8.083c-2.642,2.661 -5.315,5.289 -8.021,7.883c-2.705,2.595 -5.443,5.156 -8.212,7.684c-2.773,2.525 -5.574,5.016 -8.405,7.475c-2.833,2.455 -5.695,4.876 -8.587,7.262c-2.894,2.383 -5.817,4.732 -8.767,7.046c-119.287,94.337 -270.596,118.742 -418.191,101.546c20.995,15.754 43.541,30.754 66.245,43.9c20.171,11.679 61.509,28.462 76.209,43.837c7.012,7.338 11.066,21.904 10.987,31.846c-0.116,15.196 -8.366,27.967 -18.879,38.329c-28.204,27.809 -69.65,49.034 -105.979,63.842c-81.629,33.267 -162.333,45.7 -250.042,41.812c-36.737,-1.629 -72.941,-5.279 -109.796,-5.183c-2.795,8.213 -5.575,16.538 -9.075,24.475c-23.829,54.004 -68.758,88.967 -122.925,109.8c-22.066,9.875 -48.104,15.375 -71.916,19c-80.421,12.246 -183.775,6.821 -251.554,-43.546c-32.596,-24.221 -55.905,-58.979 -61.334,-99.616c-0.377,-2.742 -0.691,-5.491 -0.941,-8.246c-0.25,-2.753 -0.435,-5.511 -0.555,-8.275c-0.122,-2.764 -0.179,-5.529 -0.17,-8.296c0.008,-2.767 0.08,-5.532 0.216,-8.296c0.136,-2.764 0.336,-5.522 0.6,-8.275c0.264,-2.753 0.593,-5.498 0.988,-8.237c0.391,-2.739 0.847,-5.467 1.366,-8.184c0.52,-2.716 1.103,-5.421 1.75,-8.112c0.645,-2.689 1.352,-5.363 2.121,-8.021c0.77,-2.656 1.602,-5.293 2.496,-7.913c0.892,-2.619 1.845,-5.215 2.859,-7.787c1.013,-2.575 2.087,-5.125 3.22,-7.65c1.131,-2.522 2.321,-5.018 3.571,-7.488c1.247,-2.469 2.553,-4.908 3.917,-7.316c1.361,-2.406 2.778,-4.781 4.25,-7.125c1.472,-2.342 2.998,-4.647 4.579,-6.917c6.692,-9.517 15.875,-17.379 22.217,-27c2.891,-4.387 3.154,-6.812 1.912,-11.733c-6.412,-4.779 -135.479,-13.309 -154.7,-15.475c-42.262,-4.763 -84.25,-11.725 -126.554,-16.142c4.55,22.238 5.254,44.404 0.537,66.675c-11.629,54.904 -52.766,95.933 -98.316,125.771c-115.404,75.596 -269.979,106.721 -405.579,78.467c-40.65,-8.471 -87.263,-25.975 -110.321,-62.78c-18.404,-29.37 -16.446,-60.383 -9.163,-92.5c-14.646,-2.17 -29.221,-4.679 -43.604,-8.241c-57.441,-14.246 -131.646,-43.013 -162.921,-97.292c-5.937,-10.3 -10.079,-21.237 -11.366,-33.108c-1.888,-17.379 2.883,-35.788 8.479,-52.15c10.233,-29.913 26.912,-57.971 39.566,-86.967c30.801,-70.575 60.592,-140.996 86.221,-213.633c43.467,-124.989 80.854,-251.77 112.163,-380.342c20.446,-83.25 37.596,-167.362 59.262,-250.292c-60.225,44.671 -125.862,87.188 -193.625,119.646c-62.137,29.763 -183.291,80.675 -249.637,55.525c-31.229,-11.841 -49.671,-41.833 -62.625,-70.916c-40.45,-90.838 -69.009,-267.117 -33.438,-359.967c-7.462,-23.721 -11.112,-46.567 -13.862,-71.196c-31.321,-3.729 -64.6,-4.279 -92.354,-21.237c-30.271,-18.496 -42.184,-49.867 -49.571,-82.634c-14.988,-12.108 -27.742,-24.125 -36.729,-41.433c-18.78,-36.171 -13.925,-73.533 -2.33,-110.758c-12.7,-15.588 -22.779,-31.821 -28.241,-51.342c-8.309,-29.696 -4.588,-60.233 10.696,-87.004c20.937,-36.663 55.629,-54.534 94.895,-65.592c-15.875,-54.35 -26.275,-110.9 -38.32,-166.2c-22.864,-104.45 -44.609,-209.133 -65.234,-314.05l-34.254,-168.5c-5.321,-27.104 -11.637,-54.321 -14.675,-81.8c-1.754,-15.854 -2.946,-34.008 3.771,-48.854c3.771,-8.338 10.5,-15.938 19.429,-18.783c7.742,-2.463 15.688,-1.142 22.613,2.933c15.262,8.987 22.004,30.1 28.008,45.825c22.658,59.362 36.5,124.575 53.162,185.871c29.348,109.169 57.864,218.555 85.55,328.158c17.767,69.871 34.421,140.758 55.05,209.817c20.109,-11.259 40.188,-18.309 63.588,-15.384c2.147,0.262 4.282,0.607 6.404,1.038c2.12,0.431 4.22,0.943 6.3,1.537c2.081,0.598 4.133,1.274 6.159,2.03c2.027,0.758 4.022,1.594 5.983,2.508c1.961,0.914 3.882,1.904 5.762,2.971c1.884,1.066 3.723,2.205 5.517,3.416c1.792,1.212 3.535,2.491 5.229,3.838c1.692,1.347 3.328,2.76 4.908,4.237c32.342,29.717 72.709,113.238 104.284,153.517l1.662,2.079c3.279,-3.616 6.729,-7.808 10.85,-10.475c9.892,-6.408 24.309,-2.187 34.809,0.725c37.175,10.3 73.987,29.571 109.958,43.671c69.175,27.125 142.904,48.896 216.104,61.529c8.942,-22.104 25.329,-37.958 41.021,-55.375c-137.95,-97.196 -222.413,-166.758 -270.95,-337.679c-22.529,2.921 -138.029,17.792 -151.179,8.45c-2.379,-1.687 -4.334,-4.187 -4.963,-7.042c-1.508,-6.85 1.475,-13.908 5.704,-19.241c4.359,-5.504 10.438,-10.175 17.117,-12.425c28.175,-9.496 94.704,-14.617 126.163,-17.863c-0.196,-34.191 2.091,-68.383 2.191,-102.608c-32.075,-2.642 -64.691,-10.517 -96.725,-14.9c-24.316,-3.329 -50.233,-3.083 -74.1,-8.2c-5.241,-1.125 -9.921,-2.742 -13.575,-6.942c-3.325,-3.821 -4.454,-8.666 -3.683,-13.621c0.117,-0.722 0.271,-1.437 0.462,-2.145c0.189,-0.706 0.413,-1.402 0.671,-2.088c0.261,-0.683 0.554,-1.353 0.879,-2.008c0.328,-0.656 0.688,-1.293 1.08,-1.913c0.391,-0.619 0.812,-1.216 1.262,-1.791c0.453,-0.578 0.932,-1.131 1.438,-1.659c0.508,-0.527 1.04,-1.029 1.595,-1.504c0.559,-0.475 1.139,-0.921 1.742,-1.337c22.779,-15.784 151.121,3.475 183.683,8.895c17.821,-116.9 33.705,-228.191 77.921,-338.729c-5.636,-4.066 -11.239,-8.179 -16.808,-12.337c-3.3,-2.484 -6.569,-5.007 -9.808,-7.571c-3.239,-2.567 -6.448,-5.171 -9.625,-7.813c-3.175,-2.641 -6.318,-5.32 -9.43,-8.037c-3.111,-2.719 -6.187,-5.476 -9.229,-8.271c-3.044,-2.792 -6.054,-5.621 -9.029,-8.487c-2.975,-2.867 -5.914,-5.77 -8.816,-8.709c-2.903,-2.939 -5.771,-5.912 -8.605,-8.921c-2.83,-3.008 -5.625,-6.05 -8.383,-9.125c-2.758,-3.075 -5.478,-6.183 -8.158,-9.325c-2.684,-3.144 -5.327,-6.319 -7.929,-9.525c-2.606,-3.205 -5.173,-6.443 -7.7,-9.712c-2.525,-3.269 -5.01,-6.568 -7.455,-9.896c-2.447,-3.33 -4.852,-6.69 -7.216,-10.079c-2.364,-3.386 -4.686,-6.801 -6.967,-10.246c-2.281,-3.444 -4.519,-6.917 -6.717,-10.417c-2.194,-3.497 -4.347,-7.022 -6.458,-10.575c-2.111,-3.55 -4.179,-7.126 -6.204,-10.729c-2.022,-3.602 -4.002,-7.227 -5.938,-10.875c-1.936,-3.65 -3.826,-7.323 -5.67,-11.021c-1.848,-3.694 -3.649,-7.411 -5.405,-11.15c-1.755,-3.741 -3.465,-7.502 -5.129,-11.283c-1.664,-3.78 -3.282,-7.582 -4.854,-11.404c-1.569,-3.819 -3.093,-7.658 -4.571,-11.517c-1.478,-3.855 -2.91,-7.73 -4.296,-11.625c-1.383,-3.891 -2.719,-7.8 -4.008,-11.725c-1.289,-3.925 -2.529,-7.865 -3.721,-11.821c-1.194,-3.955 -2.339,-7.925 -3.433,-11.908c-1.097,-3.98 -2.146,-7.975 -3.146,-11.983c-0.997,-4.011 -1.947,-8.032 -2.85,-12.063c-0.9,-4.03 -1.751,-8.072 -2.554,-12.125c-0.803,-4.052 -1.557,-8.114 -2.263,-12.183c-0.702,-4.072 -1.357,-8.151 -1.962,-12.238c-21.946,-156.6 22.417,-361.679 119.071,-488.737c42.025,-55.248 95.608,-101.827 166.591,-110.962c141.071,-18.156 239.738,112.999 328.23,201.537c39.719,39.625 81.768,76.601 126.145,110.929c65.067,-49.492 125.159,-106.867 186.9,-160.475c175.713,-152.57 320.129,-257.344 541,-337.338c67.688,-24.514 139.071,-50.249 211.084,-57.366Zm-499.284,3939.23l4.525,0.213c3.321,-10.213 1.063,-21.929 1.684,-32.596c1.362,-23.488 8.304,-47.013 17.6,-68.517c-9.517,-15.679 -29.75,-78.292 -41.334,-71.004c-11.583,7.288 -38.216,72.388 -28.166,114.733c0.327,1.395 0.689,2.78 1.083,4.155c0.397,1.375 0.829,2.739 1.296,4.091c0.464,1.353 0.962,2.695 1.496,4.025c0.533,1.328 1.1,2.642 1.7,3.942c0.6,1.3 1.232,2.583 1.895,3.85c0.667,1.267 1.364,2.517 2.092,3.75c0.728,1.233 1.486,2.446 2.275,3.637c0.789,1.195 1.608,2.369 2.458,3.521c0.848,1.153 1.724,2.284 2.63,3.392c0.905,1.108 1.839,2.193 2.8,3.254c0.961,1.061 1.948,2.097 2.962,3.108c1.011,1.012 2.049,1.996 3.113,2.955c1.064,0.958 2.15,1.89 3.258,2.795c1.111,0.903 2.243,1.778 3.396,2.625c1.155,0.845 2.33,1.662 3.525,2.45c1.197,0.787 2.412,1.542 3.646,2.267c1.991,1.171 4.016,2.288 6.066,3.354Z" style="fill:#333944;fill-rule:nonzero;"/><path d="M1487.55,818.375c13.425,-0.183 44.117,27.896 55.804,36.162c38.734,27.384 80.904,50.955 122.934,72.859c151.82,79.133 329.925,137.483 489.72,202.366c139.25,56.542 278.996,130.455 390.688,232.409c18.846,17.2 43.829,38.462 53.691,62.579c30.984,75.771 25.205,237.671 -6.291,313.833c-58.283,-12.521 -215.167,-24.762 -264.571,0.729c-7.683,3.963 -12.033,8.709 -14.908,16.767c0.387,3.496 -0.088,5.292 2.383,8.063c10.071,11.295 38.85,5.775 53.025,4.929c42.729,-2.554 84.846,-3.117 127.55,0.812c27.767,2.554 55.213,7.384 82.95,10.384c-14.912,46.6 -41.7,95.216 -71.421,134.258c-52.133,-22.125 -135.491,-47.363 -192.358,-46.354c-10.763,0.191 -16.267,1.666 -23.713,9.579c-1.287,4.512 -2.341,6.467 0.4,10.837c5.017,7.98 17.85,13.396 26.213,16.755c24.604,9.887 50.842,14.583 76.333,21.483c27.5,7.446 54.692,16.892 81.838,25.542c-31.45,34.562 -73.192,65.22 -112.013,91.05c-125.658,79.287 -267.621,117.2 -413.808,136.55c-35.013,4.637 -71.967,1.829 -106.446,8.212c-28.921,5.358 -53.608,22.433 -82.308,28.863c-50.871,11.395 -127.759,3.633 -169.163,-30.888c-21.033,-17.533 -35.658,-38.133 -61.496,-49.887c-23.816,-10.838 -51.587,-16.584 -76.404,-25.621c-49.579,-18.05 -95.9,-42.975 -140.533,-70.934c-107.979,-67.629 -210.758,-164.895 -240.225,-293.379c21.096,-1.354 51.354,0.504 67.771,-14.137c1.979,-5.192 1.787,-5.109 -0.084,-10.379c-18.666,-18.505 -53.275,-20.28 -78.291,-22.621c-1.017,-28.088 -0.725,-55.971 -0.038,-84.063c19.329,5.663 57.421,25.463 76.388,21.125c5.696,-1.304 6.175,-2.516 9.221,-7.083c0.112,-3.483 0.3,-6.75 -0.867,-10.092c-8.375,-24.008 -56.925,-41.146 -78.896,-51.521c3.704,-76.929 20.004,-157.116 39.65,-231.433c44.85,-169.679 127.525,-332.125 266.167,-443.971c34.837,-28.108 72.487,-51.316 111.108,-73.783Z" style="fill:#f2f2f4;fill-rule:nonzero;"/><path d="M1526.32,1669.6c30.262,-4.604 72.179,0.287 100.358,12.821c18.117,8.058 34.021,21.512 40.421,40.783c5.354,16.108 2.362,32.917 -5.175,47.8c-18.642,36.792 -56.779,60.325 -94.533,73.2c1.425,5.878 2.946,11.731 4.562,17.558c9.95,35.355 29.859,71.942 63.388,89.713c45.675,24.208 110.454,16.292 157.983,2.142c56.825,-16.917 138.913,-64.584 168.117,-118.184c-18.379,-4.25 -36.425,-3.729 -49.438,-19.525c-0.725,-4.766 -1.571,-6.996 2.142,-10.925c11.992,-12.696 39.721,-12.087 56.008,-10.837c29.109,2.229 68.534,12.05 87.513,35.937c3.775,4.75 6.458,12.634 4.85,18.817c-1.309,5.017 -3.238,8.421 -8.309,10.333c-13.062,4.921 -37.283,-7.45 -49.991,-12.329c-24.217,30.242 -43.217,65.713 -65.021,97.888c-39.75,55.545 -84.05,106.325 -146.167,137.695c-39.908,20.155 -89.204,27.28 -132.1,12.5c-43.804,-15.087 -70.366,-49.241 -89.775,-89.62c-24.541,-5.213 -50.183,-9.605 -73.579,-18.775c-34.346,-13.463 -61.071,-34.825 -75.383,-69.463c-3.142,-7.604 -6.104,-15.042 -2.709,-23c4.888,-2.821 6.625,-3.675 11.859,-0.142c55.012,37.105 69.566,49.838 136.183,63.421c-23.258,-36.975 -37.887,-72.691 -43.396,-116.108c-18.929,-4.938 -36.816,-12.529 -52.579,-24.221c-21.762,-16.137 -39.921,-40.775 -43.529,-68.112c-2.163,-16.367 1.462,-32.517 11.983,-45.45c20.925,-25.713 55.446,-30.975 86.317,-33.917Z" style="fill:#324050;fill-rule:nonzero;"/><path d="M1536.02,1709.15c21.216,-1.363 44.021,-1.263 64.35,5.696c9.896,3.387 20.625,9.345 24.762,19.541c3.038,7.471 1.621,15.846 -1.896,22.879c-11.429,22.85 -40.02,36.671 -63.275,44.275c-21.02,4.092 -40.854,-2.541 -58.608,-13.916c-12.892,-8.259 -31.937,-24.159 -33.792,-40.496c-0.741,-6.508 0.33,-12.729 4.625,-17.908c13.725,-16.55 43.996,-17.905 63.834,-20.071Z" style="fill:#f1c5b9;fill-rule:nonzero;"/><path d="M1872.5,1956.35c-0.642,8.388 -10.234,18.588 -15.467,25.004c-31.329,38.409 -82.271,73.167 -132.616,77.909c-32.396,3.054 -60.563,-5.892 -85.488,-26.842c-10.354,-10.129 -17.542,-21.104 -24.45,-33.671c2.013,0.55 4.025,1.117 6.058,1.596c84.034,19.833 179.042,1.037 251.963,-43.996Z" style="fill:#e1a39e;fill-rule:nonzero;"/><path d="M2070.39,1448.79c29.933,-3.679 68.012,-1.854 97.341,5.596c21.355,5.425 37.821,16.254 48.971,35.646c18.625,32.404 14.838,80.933 4.492,115.529c-11.038,36.909 -35.225,69.504 -69.671,87.496c-35.554,18.575 -73.617,17.063 -110.983,5.654c-0.704,-0.4 -1.4,-0.808 -2.104,-1.196c-23.463,-12.891 -38.555,-29.833 -47.055,-55.504c-15.02,-45.35 -5.82,-96.421 15.025,-138.279c-16.125,3.788 -69.862,22.017 -81.416,18.054c-6.717,-2.3 -12.188,-5.196 -15.417,-11.725c0.6,-4.858 1.112,-6.537 4.333,-10.496c24.596,-30.25 117.346,-47.62 156.484,-50.775Z" style="fill:#333944;fill-rule:nonzero;"/><path d="M2143.78,1502.26c4.292,-0.208 8.583,-0.408 12.862,0.109c9.33,1.129 17.638,6.595 23.009,14.25c7.108,10.129 8.508,23.191 5.646,35.041c-3.696,15.325 -11.759,23.463 -24.942,31.254c-8.388,0.675 -16.004,0.959 -23.638,-3.091c-13.125,-6.963 -17.129,-21.346 -21.191,-34.521c1.508,-6.746 2.925,-13.942 5.246,-20.467c4.266,-11.987 11.879,-17.321 23.008,-22.575Z" style="fill:#fff;fill-rule:nonzero;"/><path d="M1323.68,1336.05c19.388,-0.383 38.292,3.25 55.296,12.954c27.292,15.579 42.742,43.746 50.775,73.192c12.692,46.525 6.229,102.675 -18.129,144.454c-17.513,30.033 -41.754,47.721 -75.246,56.596c-26.254,1.412 -49.35,-2.267 -70.346,-19.504c-26.946,-22.125 -42.579,-60.925 -46.329,-94.888c-5.062,-45.879 3.721,-98.579 33.521,-135.142c18.758,-23.016 41.342,-34.52 70.458,-37.662Z" style="fill:#333944;fill-rule:nonzero;"/><path d="M1362.9,1414.73c5.163,0.029 9.875,0.292 14.796,2.025c8.65,3.042 15.038,11.054 18.55,19.25c5.392,12.584 4.933,27.625 -0.742,40.029c-5.075,11.088 -11.941,15.888 -23.108,19.938c-5.5,0.046 -11.033,-0.013 -16.188,-2.233c-8.837,-3.8 -15.32,-11.917 -18.691,-20.746c-4.625,-12.1 -3.7,-26.063 1.808,-37.704c5.175,-10.938 12.338,-16.655 23.575,-20.559Z" style="fill:#fff;fill-rule:nonzero;"/><path d="M2082.64,1198.48c33.709,-2.6 66.655,6.146 93.771,26.629c6.459,4.879 14.459,11.571 14.463,20.492c0.004,6.733 -4.309,11.575 -9.004,15.737c-15.425,5.679 -28.388,-5.633 -42.646,-10.666c-41.046,-14.492 -76.221,-2.471 -113.188,15.708c-20.487,10.821 -64.533,46.492 -88.141,38.017c-4.596,-1.65 -4.759,-3.888 -5.971,-8.025c1.429,-9.046 4.646,-15.313 10.162,-22.642c31.2,-41.433 90.321,-68.2 140.554,-75.25Z" style="fill:#333944;fill-rule:nonzero;"/><path d="M1323.43,1123.23c18.471,-1.2 35.684,-0.504 53.3,6.196c27.292,10.383 49.354,33.075 60.979,59.696c4.755,10.883 11.505,30.608 4.975,42.1c-2.779,4.891 -5.104,5.216 -10.075,6.354c-15.92,-3.704 -25.395,-21.554 -35.108,-33.875c-38.604,-41.433 -59.904,-35.612 -109.858,-24.287c-6.825,1.545 -15.788,4.037 -22.713,2.524c-5.566,-1.212 -6.116,-2.008 -8.783,-6.541c-0.02,-1.997 0.121,-3.984 0.421,-5.958c0.297,-1.973 0.75,-3.91 1.358,-5.813c0.608,-1.903 1.364,-3.744 2.267,-5.525c0.9,-1.781 1.937,-3.479 3.112,-5.096c12.821,-17.804 39.642,-25.804 60.125,-29.775Z" style="fill:#333944;fill-rule:nonzero;"/><g><g><path d="M2439.32,2313.39c15.954,-0.655 31.387,-1.188 47.058,2.67c43.084,10.613 90.484,58.192 123.671,86.471c67.8,57.779 144.146,127.842 151.142,221.779c7.916,106.346 -69.713,425.763 -116.288,527.984c-8.571,18.816 -18.204,33.821 -31.733,49.404l1.167,-8.617c6.041,-42.304 -10.259,-95.791 -25.292,-134.896c-37.754,-98.187 -107.738,-177.07 -185.142,-246.329c-14.633,-13.096 -33.391,-32.171 -50.662,-41.112c-15.692,-8.129 -35.484,-5.525 -51.817,-12.704c-3.837,-4.159 -5.283,-8.404 -5.767,-13.988c-3.021,-35.012 106.521,-114.017 134.454,-134.25c14.934,-10.812 36.48,-22.216 47.984,-35.991l-1.442,-4.13c-3.187,-1.841 -5.996,-2.754 -9.621,-3.208c-44.37,-5.554 -86.62,26.788 -118.941,52.788c-24.575,-27.642 -83,-79.675 -115.146,-95.238c-4.763,-2.304 -7.138,-3.292 -12.254,-1.417c-0.734,2.213 -0.905,2.321 -1.046,5.021c-1.571,29.917 54,64.254 71.466,85.904c0.442,0.546 0.867,1.113 1.3,1.671c-7.35,20.846 -12.041,35.538 -10.662,57.754c-10.275,10.5 -20.696,21.484 -27.254,34.767c-12.363,25.046 -8.909,51.354 -0.688,76.892l-2.971,1.225c-58.208,24.537 -115.845,62.171 -140.42,122.879c-15.638,38.629 -15.671,84.137 1.545,122.421c13.242,29.45 33.734,45.437 63.346,56.062c17.196,32.271 34.884,58.867 71.842,71.196c12.992,4.333 27.554,7.108 40.042,12.504c13.854,5.988 28.087,21.075 43.916,28.696c42.417,20.425 80.167,13.175 122.584,-1.562c4.6,7.23 9.108,14.518 13.525,21.862c16.641,37.146 41.208,73.738 61.387,109.342c56.371,99.471 107.325,203.208 189.404,284.812c52.279,51.984 110.067,88.709 175.713,121.517c6.591,3.292 18.471,7.754 20.887,14.625c-7.171,19.225 -43.466,37.942 -61.191,47.108c-87.434,45.2 -179.421,53.575 -276.08,48.242c-29.987,-1.654 -61.445,-6.554 -91.358,-3.583c-33.642,3.341 -65.529,16.404 -97.817,25.65c-61.762,17.691 -156.529,19.804 -217.037,-1.413c-33.467,-11.733 -61.638,-71.837 -75.504,-101.458c-130.575,-278.9 -193.884,-845.2 -169.229,-1154.99c3.975,-49.971 6.766,-108.967 23.9,-156.271c17.066,-10.225 37.379,-17.041 55.95,-24.258c75.362,-29.279 154.62,-52.596 232.92,-72.671l-7.87,35.413c16.275,-12.488 29.504,-28.996 46.129,-40.855c36.45,-26 117.212,-34.912 161.9,-37.716Z" style="fill:#7a7bbe;fill-rule:nonzero;"/><path d="M2571.5,75.849c29.946,-3.218 59.967,-0.183 87.813,11.498c72.212,30.291 144.695,100.987 205.321,152.074c55.291,46.59 109.979,90.156 173.145,125.7c43.563,24.516 89.4,38.991 138.171,48.829c17.196,3.471 37.675,5.037 53.984,10.804c3.891,1.375 4.891,1.488 6.72,5.288c-0.637,2.45 -1.2,4.879 -2.425,7.125c-17.32,31.829 -142.829,65.62 -178.8,76.825c-8.725,-6.975 -17.479,-14.071 -26.779,-20.267c-67.562,-44.992 -157.975,-54.517 -236.346,-38.483c-13.75,-79.046 -46.65,-142.124 -90.825,-207.9c7.23,46.354 20.017,91.066 29.967,136.85c5.933,27.283 9.204,54.916 14.604,82.262c-91.45,31.342 -171.4,82.967 -241.741,148.858c-40.009,36.03 -74.696,78.496 -106.263,122.005c-12.721,17.533 -23.971,36.266 -37.4,53.25l-1.35,1.683c-166.575,-105.342 -305.492,-165.621 -500.683,-200.483c-48.634,-8.684 -100.275,-17.338 -149.779,-15.18c152.008,-130.65 301.783,-272.815 480.016,-367.614c67.213,-35.747 138.367,-63.659 210.409,-87.918c56.366,-18.981 112.725,-39.188 172.241,-45.206Z" style="fill:#7a7bbe;fill-rule:nonzero;"/><path d="M914.129,2082.75c114.384,48.083 226.759,94.75 350.309,111.916c34.591,83.125 132.345,146.567 196.275,206.596c-50.146,167.525 -76.617,340.613 -102.942,513.109c-24,166.372 -49.711,332.479 -77.133,498.32c-16.113,97.488 -30.967,194.7 -55.592,290.53c-4.792,18.65 -10.596,56.183 -28.304,65.695c-18.967,10.188 -105.113,-3.341 -127.063,-9.587c-45.462,-12.942 -97.941,-36.45 -121.779,-79.604c11.283,-40.354 34.354,-80.875 51.383,-119.292c25.375,-57.237 48.684,-116.342 69.646,-175.337c90.579,-244.375 149.579,-501.996 197.217,-757.825c14.325,-76.917 33.317,-155.521 39.404,-233.484c1.821,-23.304 0.888,-47.05 0.646,-70.412c-58.621,96.821 -65.688,194.141 -89.225,301.579c-22.746,18.787 -49.05,35.429 -73.267,52.404c-104.141,73 -221.479,146.096 -351.125,156.775c34.509,-36.633 61.463,-92.375 79.009,-139.279c57.941,-154.867 107.191,-378.463 68.108,-542.675c-5.783,-24.313 -15.333,-46.754 -25.567,-69.429Z" style="fill:#7a7bbe;fill-rule:nonzero;"/><path d="M1100.55,349.479c1.742,-1.546 1.95,-1.787 4.133,-3.371c37.721,-27.328 85.138,-31.542 129.909,-24.314c85.666,18.448 161.421,115.656 220.821,175.831c24.983,25.308 51.641,49.554 78.77,72.521c67.488,57.146 148.013,110.191 230.163,143.55l3.596,-1.842c11.721,4.075 21.475,10.317 32.708,14.863c34.333,13.9 68.05,25.962 103.6,36.495c3.633,1.08 2.313,0.78 6.533,0.134c-8.058,-12.009 -44.125,-19.438 -45.862,-31.471c-57.4,-39.496 -122.033,-61.596 -176.096,-108.142c53.192,-6.108 106.238,2.854 158.638,11.725c128.083,21.675 250.141,60.779 365.275,121.35c42.841,22.538 83.512,49.088 126.137,72.1c-8.188,17.559 -17.575,34.704 -26.404,51.959c-35.613,3.875 -73.25,-1.359 -108.159,6.079c28.846,14.141 62.163,27.716 93.513,35.004c-7.675,23.025 -15.017,48.029 -7.346,72.054c15.734,49.267 81.479,78.892 122.396,104.904c18.304,11.638 35.442,24.396 52.621,37.6c40.408,31.059 81.275,62.267 119.508,95.967c63.317,55.808 122.525,116.879 180.771,177.933c61.008,63.95 119.179,134.113 187.35,190.538c18.867,15.528 38.593,29.871 59.179,43.029c20.589,13.161 41.89,25.043 63.904,35.646c14.859,7.037 30.55,11.804 45.238,19.137l2.137,1.088c-204.775,-34.871 -311.066,-130.517 -450.091,-273.134c-27.955,-28.675 -53.817,-59.1 -82.938,-86.658c-66.037,-62.496 -142.104,-117.112 -221.05,-162.075c-200.841,-114.392 -428.087,-172.917 -636.066,-272.683c-60.142,-28.85 -120.75,-59.692 -174.884,-98.967c-81.954,-59.462 -152.604,-141.887 -207.154,-226.846c-24.029,-37.421 -43.792,-77.754 -73.471,-111.291c-32.287,-36.488 -75.512,-65.013 -125.462,-67.367c-52.513,-2.479 -103.717,21.333 -141.717,56.142c26.092,-39.175 51.396,-79.05 89.8,-107.488Z" style="fill:#7a7bbe;fill-rule:nonzero;"/><path d="M1398.98,2965.76c29.311,8.57 58.91,15.996 88.796,22.28c-26.263,91.37 -24.658,193.004 -15.462,286.637c11.104,-50.433 17.041,-102.083 25.458,-153.012c7.117,-43.098 16.325,-85.742 27.625,-127.934c122.946,21.354 234.337,20.934 357.454,1.842c9.842,129.147 26.476,257.414 49.904,384.8c10.413,60.058 20.542,123.542 39.263,181.654c-19.709,-3.346 -39.942,-4.483 -59.809,-6.987c-36.712,-4.621 -73.512,-10.675 -110.587,-11.15c-48.938,-0.625 -98.45,4.183 -147.458,5.4c-114.755,2.85 -232.755,-12.18 -336.017,-63.934c12.212,-54.554 18.729,-111.362 27.129,-166.654c17.875,-117.675 33.821,-235.575 53.704,-352.942Z" style="fill:#7a7bbe;fill-rule:nonzero;"/><path d="M1662.13,2514.29c41.279,-22.088 79.821,-63.309 115.967,-93.484c75.454,-63 168.708,-140.679 252.154,-191.133c49.437,-29.892 114.237,-35.654 168.867,-53.988c80.37,-26.966 150.345,-66.816 221.566,-111.787c41.946,26.058 98.613,70.762 111.513,121.558c1.441,5.675 1.854,11.421 1.404,17.234l-2.267,1.837c-14.75,-3.279 -28.245,-12.858 -42.104,-18.896c-34.883,-15.196 -88.342,-22.346 -122.279,-0.896c-2.429,1.534 -2.7,2.021 -4.392,3.863c1.163,4.379 -0.021,3.096 3.796,5.392c10.729,6.458 30.183,6.383 42.525,8.27c62.275,9.517 113.075,31.834 138.496,92.746c-37.342,-30.375 -106.421,-25.383 -151.563,-20.633c-58.608,6.162 -114.825,24.3 -171.133,40.821c-74.292,21.796 -148.817,42.704 -221.092,70.683c-69.262,26.817 -135.025,59.521 -202.225,90.783c-33.666,15.667 -72.295,28.675 -102.929,49.484c75.771,1.2 128.775,-29.496 198.259,-51.971c-23.438,84.321 -27.905,231.725 -24.171,318.671c-154.196,13.458 -290.909,12.583 -442.7,-21.313c13.062,-58.387 21.054,-118.296 32.35,-177.108c9.637,-50.2 24.454,-106.825 30.529,-156.712c23.067,16.241 87.087,60.349 112.617,61.704l4.054,-2.2c1.325,-5.859 0.271,-7.788 -1.467,-13.421c6.363,-0.288 13.538,-1.996 19.767,-0.746c2.712,0.542 4.471,0.654 7.242,0.471c8.183,11.5 16.149,21.8 27.216,30.771Z" style="fill:#7a7bbe;fill-rule:nonzero;"/><g><path d="M1426.16,2805.68c127.695,37.633 318.008,41.654 448.687,24.071c-0.579,41.15 7.242,83.104 3.9,124.046c-3.596,4.762 -6.95,4.171 -12.575,5.362c-149.354,25.434 -315.129,15.363 -458.692,-33.725c1.359,-39.041 10.075,-81.65 18.68,-119.754Z" style="fill:#535a65;fill-rule:nonzero;"/><path d="M1773.4,3587.38c44.396,-4.871 96.234,7.121 140.213,13.229c24.229,3.363 49.487,4.992 73.258,10.779c6.038,23.95 13.621,47.246 21.029,70.784c-7.371,2.825 -16.362,1.175 -24.221,0.787c-20.387,-3.321 -42.037,-3.804 -62.679,-5.512c-56.812,-4.713 -115.558,-7.8 -171.658,-17.929c2.175,-24.68 7.892,-52.792 24.058,-72.138Z" style="fill:#7a7bbe;fill-rule:nonzero;"/><path d="M1309.6,3540.44c11.7,3.6 22.825,8.909 34.025,13.813c-0.521,31.633 2.359,63.283 4.625,94.817l-24.696,2.345l-35.3,4.45c8.292,-38.1 10.409,-77.912 21.346,-115.425Z" style="fill:#7a7bbe;fill-rule:nonzero;"/></g></g><path d="M1607.9,2483.8c-37.429,-43.025 -76.933,-73.625 -120.125,-110.3c-45.191,-38.375 -89.866,-78.3 -130.237,-121.792c-18.963,-20.425 -57.209,-66.637 -54.838,-96.096c1.196,-14.85 26.842,-30.983 38.046,-39.812c55.425,25.075 110.704,48.554 170.083,62.641c19.905,105.988 68.58,213.242 124.08,305.084c-2.771,0.183 -4.53,0.071 -7.242,-0.471c-6.229,-1.25 -13.404,0.458 -19.767,0.746Z" style="fill:#7a7bbe;fill-rule:nonzero;"/></g><path d="M2223.91,3514.78c-23.188,-46.875 -33.321,-102.771 -41.809,-153.85c16.579,29.392 29.067,61.942 42.463,92.921c62.52,114.892 123.041,235.467 220.637,325.767c-19.25,-7.129 -36.583,-14.325 -53.412,-26.183c-66.788,-47.05 -125.925,-145.23 -159.788,-219.192c-2.917,-6.371 -5.742,-12.863 -8.091,-19.463Z" style="fill:#324050;fill-rule:nonzero;"/><path d="M2223.91,3514.78c-23.188,-46.875 -33.321,-102.771 -41.809,-153.85c16.579,29.392 29.067,61.942 42.463,92.921c-5.213,-1.529 -5.1,-2.091 -7.817,-7.004c-6.246,-11.296 -10.838,-23.075 -18.125,-33.842c1.942,13.288 4.546,26.146 8.146,39.092c2.446,8.813 19.408,55.987 18.833,59.925c-0.158,1.067 -1.129,1.842 -1.691,2.758Z" style="fill:#26323f;fill-rule:nonzero;"/><path d="M2489.21,1087.97l-2.816,-1.063c-33.858,-12.95 -134.925,-68.404 -148.896,-98.895c-8.625,-18.817 6.563,-48.846 14.021,-66.363c69.375,-162.933 208.529,-328.354 375.704,-395.596c75.483,-30.366 164.933,-41.416 241.542,-8.412c73.066,31.479 123.262,104.779 151.437,176.716c53.888,137.58 39.879,303.659 -19.492,437.525c-47.366,106.804 -137.766,201.854 -248.187,243.592c-14.746,5.571 -29.588,10.079 -44.867,13.921c-8.666,-9.438 -17.666,-18.721 -25.904,-28.525c-31.075,-33.15 -64.316,-64.45 -97.012,-95.975c-32.096,-30.95 -64.346,-63.2 -99.638,-90.525c1.084,-2.322 1.239,-8.674 3.179,-7c33.287,28.716 -86.798,-10.961 -41.258,-175.088c34,-122.537 117.05,-255.095 229.792,-317.904c49.1,-27.35 111.679,-43.912 167.016,-27.658c73.563,21.608 122.488,90.196 144.409,160.525c4.462,14.312 6.966,43.433 13.787,55.033c0.454,0.767 0.946,1.517 1.417,2.275c5.096,-70.6 -7.333,-145.896 -55.184,-200.796c-35.824,-41.104 -86.862,-63.641 -140.774,-67.2c-85.925,-5.67 -167.438,37.992 -229.938,93.555c-87.662,77.941 -154.154,195.183 -178.3,310.004c-6.1,29.012 -8.325,58.312 -10.037,87.854Z" style="fill:#f1c5b9;fill-rule:nonzero;"/><path d="M2489.21,1087.97l-2.816,-1.063c-33.858,-12.95 -134.925,-68.404 -148.896,-98.895c-8.625,-18.817 6.563,-48.846 14.021,-66.363c69.375,-162.933 208.529,-328.354 375.704,-395.596c75.483,-30.366 164.933,-41.416 241.542,-8.412c73.066,31.479 123.262,104.779 151.437,176.716c53.888,137.58 39.879,303.659 -19.492,437.525c-47.366,106.804 -137.766,201.854 -248.187,243.592c-14.746,5.571 -29.588,10.079 -44.867,13.921c-8.666,-9.438 -17.666,-18.721 -25.904,-28.525c7.254,-9.388 50.584,-19.109 64.142,-24.779c11.329,-4.734 22.354,-11.03 32.708,-17.605c121.2,-76.962 189.371,-210.308 213.525,-348.308c5.329,-30.471 4.038,-77.512 10.604,-103.346c0.196,-0.77 0.475,-1.52 0.713,-2.279c5.096,-70.6 -7.333,-145.896 -55.184,-200.796c-35.824,-41.104 -86.862,-63.641 -140.774,-67.2c-85.925,-5.67 -167.438,37.992 -229.938,93.555c-87.662,77.941 -154.154,195.183 -178.3,310.004c-6.1,29.012 -8.325,58.312 -10.037,87.854Z" style="fill:#f2f2f4;fill-rule:nonzero;"/><path d="M1764.35,713.696l3.596,-1.842c11.721,4.075 21.475,10.317 32.708,14.863c34.333,13.9 68.05,25.962 103.6,36.495c3.633,1.08 2.313,0.78 6.533,0.134c-8.058,-12.009 -44.125,-19.438 -45.862,-31.471c38.317,18.692 78.787,36.292 115.4,58.046c-74.121,-18.554 -147.746,-41.125 -215.975,-76.225Z" style="fill:#26323f;fill-rule:nonzero;"/><path d="M3376.28,2155.03c66.838,-3.463 128.588,6.308 187.608,39.404c66.034,37.034 121.509,101.159 141.563,174.842c15.983,58.716 5.733,110.696 -24.313,162.458c11.459,-59.537 7.567,-112.704 -22.333,-166.354c-32.671,-58.608 -85.496,-98.854 -149.996,-116.675c-4.2,-1.156 -8.426,-2.208 -12.679,-3.158c-4.253,-0.948 -8.526,-1.791 -12.821,-2.53c-4.294,-0.738 -8.604,-1.372 -12.929,-1.9c-4.325,-0.525 -8.66,-0.944 -13.004,-1.258c-4.347,-0.311 -8.699,-0.517 -13.054,-0.617c-4.356,-0.1 -8.711,-0.093 -13.067,0.021c-4.356,0.117 -8.706,0.339 -13.05,0.667c-4.344,0.331 -8.678,0.767 -13,1.308c-4.325,0.542 -8.632,1.191 -12.921,1.946c-4.292,0.753 -8.562,1.611 -12.812,2.575c-4.25,0.964 -8.473,2.032 -12.667,3.204c-4.197,1.173 -8.363,2.448 -12.496,3.825c-4.133,1.375 -8.23,2.852 -12.292,4.429c-4.061,1.581 -8.081,3.259 -12.062,5.034c-3.978,1.775 -7.91,3.647 -11.796,5.617c-3.886,1.969 -7.722,4.033 -11.508,6.191c-3.575,2.056 -7.103,4.188 -10.584,6.396c-3.48,2.211 -6.911,4.496 -10.291,6.854c-3.384,2.358 -6.713,4.79 -9.988,7.296c-3.275,2.503 -6.494,5.076 -9.658,7.721c-3.161,2.644 -6.265,5.357 -9.313,8.137c-3.044,2.781 -6.026,5.627 -8.945,8.538c-2.923,2.908 -5.778,5.879 -8.567,8.912c-2.792,3.036 -5.515,6.131 -8.171,9.284c-2.658,3.152 -5.246,6.362 -7.762,9.629c-2.514,3.266 -4.957,6.586 -7.33,9.958c-2.372,3.372 -4.669,6.795 -6.891,10.267c-2.222,3.472 -4.368,6.992 -6.438,10.558c-2.069,3.567 -4.059,7.177 -5.971,10.829c-1.911,3.656 -3.741,7.349 -5.491,11.079c-1.75,3.734 -3.418,7.503 -5.004,11.309c-1.586,3.805 -3.089,7.644 -4.509,11.516c-21.604,58.592 -25.929,123.58 -15.704,184.95c40.534,243.284 251.175,403.567 176.496,673.642c-30.667,110.9 -105.129,196.263 -203.971,252.738c-111.721,58.162 -248.133,71.125 -370.233,41.466c-7.729,-1.875 -15.829,-4.341 -22.479,-8.812c-45.225,-30.404 -102.45,-130.613 -131.655,-178.559c100.955,45.851 203.763,78.521 316.096,68.584c89.492,-7.917 181.763,-42.013 240.304,-113.109c31.234,-37.929 49.934,-83.658 57.246,-132.05c24.259,-160.495 -71.95,-293.287 -129.633,-434.437c-23.15,-56.658 -40.658,-117.721 -46.463,-178.729c-10.925,-114.775 15.175,-229.971 90.363,-319.633c59.812,-71.325 141.675,-114.867 234.175,-123.363Z" style="fill:#f1c5b9;fill-rule:nonzero;"/><path d="M1116.39,446.45c9.87,-1.288 20.875,-1.821 30.833,-1.037c41.217,3.237 71.754,25.462 97.521,56.399c74.837,89.85 98.629,248.005 88.029,362.113c-19.85,25.45 -48.421,46.279 -70.438,70.225c-53.704,58.408 -95.929,126.625 -131.004,197.537l-13.575,28.83c-0.7,-0.455 -1.408,-0.892 -2.1,-1.359c-92.083,-61.816 -151.341,-174.191 -172.329,-280.779c-22.604,-114.779 -7.313,-253.25 59.842,-351.712c28.646,-42.005 62.604,-70.7 113.221,-80.217Z" style="fill:#f1c5b9;fill-rule:nonzero;"/><path d="M2663.25,1480.58c18.496,13.533 34.625,35.704 51.883,51.3c74.863,67.654 162.221,137.45 261.4,163.396c21.65,5.662 146.45,30.308 161.504,20.912c14.013,-8.741 39.834,-3.666 55.784,-2.637c-39.217,62.379 -126.038,90.175 -192.338,112.087c-91.683,31.125 -194.433,40.346 -290.771,35.913c-34.975,-1.609 -69.687,-6.763 -104.683,-7.804c8.813,-21.88 18.933,-42.871 25.021,-65.742c18.496,4.533 69.1,23.454 84.187,21.529c5.775,-0.737 6.205,-2.05 9.396,-6.421c1.442,-8.096 -0.096,-14.9 -4.4,-21.887c-11.075,-17.975 -61.066,-27.154 -81.1,-32.317c24.267,-89.975 34.688,-175.379 24.117,-268.329Z" style="fill:#6969a3;fill-rule:nonzero;"/><path d="M1387.42,3690.44c28.975,-3.788 56.537,5.183 84.687,10.312c71.659,13.058 144.513,11.637 213.717,-12.154c2.247,8.636 4.088,17.36 5.521,26.171c4.858,30.762 -1.909,60.85 -20.463,86.104c-62.012,84.404 -185.77,118.158 -283.85,132.883c2.709,-59.05 26.971,-81.958 51.684,-130.962l1.141,-2.317l-2.479,0.796c-37.304,12.392 -59.571,35.529 -77.004,70.046c-8.571,20.375 -13.404,40.141 -15.483,62.116c-23.775,-0.2 -55.188,0.821 -78,-5.491c-4.413,-1.221 -7.284,-2.15 -8.971,-6.8c-6.621,-18.25 6.308,-56.042 14.183,-73.029c19.6,-42.3 50.542,-64.638 93.359,-80.63c-7.234,-1.045 -14.492,-2.125 -21.771,-2.775c-1.686,-0.166 -3.375,-0.29 -5.067,-0.37c-1.692,-0.084 -3.385,-0.124 -5.079,-0.121c-1.695,0.002 -3.388,0.048 -5.079,0.137c-1.692,0.086 -3.381,0.215 -5.067,0.388c-1.686,0.169 -3.367,0.382 -5.042,0.637c-1.675,0.256 -3.341,0.553 -5,0.892c-1.661,0.339 -3.312,0.719 -4.954,1.142c-1.639,0.419 -3.268,0.88 -4.887,1.383c-1.617,0.503 -3.221,1.046 -4.813,1.629c-1.591,0.583 -3.167,1.206 -4.725,1.867c-1.561,0.661 -3.104,1.361 -4.629,2.1c-1.525,0.739 -3.031,1.514 -4.517,2.325c-1.483,0.814 -2.947,1.664 -4.391,2.55c-1.445,0.889 -2.866,1.811 -4.263,2.766c-1.397,0.959 -2.769,1.95 -4.117,2.975c-1.35,1.028 -2.672,2.088 -3.966,3.18c-36.209,30.22 -52.496,76.716 -56.675,122.295c-18.05,-8.229 -38.404,-16.662 -46.559,-36.341c-7.108,-17.167 -1.179,-34.654 5.455,-50.838c16.5,-0.496 33.329,-1.725 47.941,-10.116c35.225,-20.225 44.45,-74.567 53.821,-110.417c37.971,-5.929 77.067,-8.446 115.342,-12.333Z" style="fill:#f2f2f4;fill-rule:nonzero;"/><path d="M2310.36,2812.83c4.288,-0.375 8.65,-0.746 12.842,0.513c48.85,14.645 163.058,146.904 189.513,194.008c-17.059,29.492 -38.892,53.504 -68.205,71.104c-7.441,4.467 -19.925,8.804 -25.404,15.379c-2.604,3.121 -1.5,4.48 -1.196,8.334c2.855,4.183 3.963,6.333 9.375,7.433c13.034,2.642 28.209,-5.312 39.609,-10.837c-1.709,10.183 -3.367,20.862 -8.175,30.133c-8.325,16.037 -23.671,26.725 -40.917,31.225c-23.446,6.121 -52.05,3.508 -72.667,-9.804c-21.366,-13.796 -29.445,-34.613 -34.283,-58.413c-1.775,-16.1 2.704,-43.679 -2.017,-56.046l-3.937,-1.645c-7.846,3.141 -13.592,9.595 -18.546,16.3c-16.212,21.929 -14.429,45.779 -11.196,71.249c-9.071,-4.245 -18.521,-8.737 -26.141,-15.341c-27.188,-23.567 -32.946,-60.817 -31.955,-94.971c0.309,-10.646 2.113,-22.637 0.942,-33.162c-0.542,-4.905 -1.517,-7.851 -5.325,-11.063c-1.912,0.708 -2.446,0.779 -4.287,2.204c-21.321,16.479 -27.255,52.954 -30.738,77.659c-3.003,-3.412 -5.826,-6.964 -8.471,-10.659c-2.647,-3.694 -5.104,-7.511 -7.371,-11.45c-2.263,-3.939 -4.326,-7.982 -6.187,-12.129c-1.858,-4.144 -3.507,-8.372 -4.946,-12.683c-8.983,-27.317 -7.871,-56.067 5.558,-81.817c28.325,-54.317 98.584,-87.817 154.125,-105.521Z" style="fill:#f2f2f4;fill-rule:nonzero;"/><path d="M705.821,1918.72c8.496,-0.667 15.625,0.066 23.512,3.537c5.938,2.617 11.354,6.242 15.471,11.288c21.159,25.916 35.208,56.862 54.075,84.391c16.425,23.967 40.092,47.296 53.2,72.946c7.692,15.059 8.683,36.846 14.671,53.204l3.725,1.596c7.288,-2.371 11.025,-8.829 15.546,-14.633c18.754,37.867 29.596,173.858 20.471,216.362c-1.009,4.709 -1.713,8.659 -5.78,11.5c-15.566,-1.375 -31.045,-7.291 -45.933,-11.916c-19.762,-2.967 -35.442,3.121 -53.154,10.937l-20.713,-89.441c7.405,-2.396 17.184,-5.367 22.971,-10.684c3.767,-3.466 3.571,-4.629 3.946,-9.437c-5.583,-10.309 -24.887,-14.125 -33.821,-23.7c-26.121,-27.992 -27.591,-88.675 -25.404,-124.475c-30.967,-35.629 -56.042,-32.075 -78.271,-86.334c-8.079,-19.725 -13.671,-43.129 -4.362,-63.4c8.321,-18.108 22.383,-24.916 39.85,-31.741Z" style="fill:#f2f2f4;fill-rule:nonzero;"/><path d="M843.729,2392.44c18.296,1.534 36.488,5.501 54.538,8.809c-1.5,8.112 -2.467,16.346 -3.88,24.487c-18.841,108.567 -52.991,255.375 -110.195,350.346c-6.034,10.017 -13.017,24.158 -22.671,30.946l-3.792,-1.638c-52.616,-86.741 -64.862,-222.008 -56.271,-322.358c12.33,1.708 24.85,3.442 37.296,3.963c19.979,0.833 42.142,-2.467 56.863,-17.213c18.454,-18.483 19.154,-47.683 19.162,-72.125c9.571,-2.058 19.309,-3.533 28.95,-5.217Z" style="fill:#6969a3;fill-rule:nonzero;"/><path d="M1560.32,2222.2c21.362,9.779 41.487,22.133 63.417,30.629c55.979,21.696 125.516,19.671 182.704,3.696c19.475,-5.442 37.2,-16.2 56.983,-20.883c34.117,-8.084 69.696,-3.842 104.433,-13.288c-35.583,30.042 -73.891,57.921 -111.358,85.583c-61.775,48.334 -120.196,100.792 -182.025,148.896c-51.621,-68.05 -86.854,-154.125 -114.154,-234.633Z" style="fill:#f2f2f4;fill-rule:nonzero;"/><path d="M1381.1,3561.29c37.525,8.812 74.329,18.029 112.637,23.095c75.48,9.988 151.734,7.309 227.625,7.73c-1.27,10.525 -2.612,20.266 -5.987,30.391c-5.713,5.075 -11.563,9.242 -17.938,13.446c-31.55,16.379 -71.558,24.017 -106.783,26.067c-22.851,1.331 -45.41,1.648 -67.356,-0.046c-48.938,-3.777 -94.828,-17.555 -134.123,-52.392c-6.554,-15.891 -7.521,-31.371 -8.075,-48.291Z" style="fill:#7a7bbe;fill-rule:nonzero;"/><path d="M436.1,1188.34c0.608,0.492 1.292,0.9 1.825,1.471c11.833,12.654 185.817,668.613 192.275,728.513c-15.679,-1.613 -29.967,-3.529 -45.133,-8.05c-15.089,-77.686 -31.13,-155.177 -48.121,-232.471c-13.083,-62.308 -24.525,-124.988 -38.146,-187.175c-22,-100.421 -45.858,-200.829 -62.7,-302.288Z" style="fill:#6e5e55;fill-rule:nonzero;"/><path d="M572.108,1961.05c14.488,-1.979 29.938,3.329 43.817,6.975c6.129,44.141 14.675,76.912 38.317,115.229c-24.584,-0.558 -48.571,1.542 -72.988,4.004c-21.821,0.542 -41.583,1.892 -61.183,-9.65c-13.946,-8.212 -24.563,-21.487 -27.917,-37.471c-3.233,-15.383 0.617,-30.725 9.733,-43.396c16.805,-23.354 43.334,-31.245 70.221,-35.691Z" style="fill:#f2f2f4;fill-rule:nonzero;"/><path d="M603.413,2130.04c8.116,-0.57 16.862,-1.666 24.966,-0.983c10.054,0.854 20.779,7.592 27.009,15.309c8.908,11.045 12.229,26.483 10.383,40.399c-2.013,15.175 -10.292,28.15 -22.333,37.405c-20.78,15.962 -43.551,16.425 -68.276,13.2c-11.654,-2.475 -22.954,-4.696 -33.283,-10.996c-17.071,-10.417 -29.208,-26.313 -33.154,-46.059c-2.404,-12.037 -2.171,-25.958 5.642,-36.1c1.804,-2.345 5.804,-6.029 8.5,-7.124c9.545,-3.867 65.275,-3.755 80.545,-5.051Z" style="fill:#f2f2f4;fill-rule:nonzero;"/><path d="M697.667,2122.18c3.775,3.175 4.779,6.509 6.104,11.163c9.017,31.6 14.121,64.912 22.154,96.916c12.775,50.9 28.033,101.317 39.458,152.542c3.213,14.392 10.5,38.658 1.559,51.6c-5.471,7.917 -12.271,11.163 -21.425,13.121c-17.738,-5.679 -28.859,-12.771 -40.617,-27.346c-2.487,-29.233 -8.321,-58.575 -12.654,-87.608c-4.038,-27.075 -6.617,-54.133 -12.896,-80.834c40.383,-55.125 22.308,-69.47 18.425,-127.579c-0.042,-0.658 -0.071,-1.316 -0.108,-1.975Z" style="fill:#6e5e55;fill-rule:nonzero;"/><path d="M2534.05,3053.43c12.883,14.133 21.575,42.383 27.754,60.196c5.571,16.054 30.338,90.812 24.488,102.808c-9.463,6.159 -20.95,5.321 -31.804,5.238c-7.288,-1.93 -14.18,-4.342 -20.963,-7.671c-20.675,-10.138 -29.483,-26.4 -36.767,-47.15l0.667,-1.913c0.367,-1.066 0.7,-2.141 1.079,-3.204c15.725,-43.958 7.588,-63.017 35.546,-108.304Z" style="fill:#6969a3;fill-rule:nonzero;"/><path d="M2118.05,3894.7c37.425,15.138 71.067,23.817 111.058,28.938c-4.741,25.454 0.655,44.845 1.551,69.725l0.083,3.02c-23.067,2.267 -49.738,2.475 -72.579,-1.875c-14.325,-2.725 -27.388,-8.645 -35.55,-21.237c-14.888,-22.958 -9.242,-53.433 -4.563,-78.571Z" style="fill:#f2f2f4;fill-rule:nonzero;"/><path d="M2426.17,3900.2c1.466,1.429 1.704,1.05 1.558,3.141c-1.008,14.405 -31.475,41.071 -42.496,50.134c-26.479,21.766 -81.954,40.996 -116.666,37.479c-4.867,-21.588 -7.209,-43.45 -8.425,-65.517c56.487,-0.204 113.271,-2.958 166.029,-25.237Z" style="fill:#f2f2f4;fill-rule:nonzero;"/><path d="M1364.54,672.65c10.354,9.325 19.487,24.921 28.408,36.125c19.692,24.721 39.783,48.762 61.233,71.975l-28.004,17.975c-15.144,9.572 -30.019,19.544 -44.625,29.917c7.246,-53.409 -7.054,-104.113 -17.012,-155.992Z" style="fill:#f2f2f4;fill-rule:nonzero;"/><path d="M562.808,2275.67c27.388,3.791 53.246,3.25 80.717,1.737c2.558,14.367 4.308,28.059 4.383,42.667c-22.583,1.637 -47.479,-0.85 -66.212,-14.859c-9.517,-7.116 -17.079,-17.695 -18.888,-29.545Z" style="fill:#f2f2f4;fill-rule:nonzero;"/><path d="M409.1,466.962c8.596,-0.291 18.454,0.538 26.342,4.125c9.012,4.1 14.162,11.321 18.937,19.75c18.767,33.13 46.896,127.955 60.867,168.271c48.729,-1.391 97.954,-5.583 146.671,-2.221c19.537,1.351 48.741,3.063 61.875,19.584c5.25,6.6 6.637,14.841 5.496,23.042c-1.3,9.304 -5.688,17.716 -11.409,25.062c-25.296,32.504 -104.216,92.533 -139.746,120.308c0.113,0.271 0.238,0.542 0.346,0.813c16.5,41.775 46.938,131.225 51.584,174.529c1.166,10.9 0.516,22.417 -4,32.55c-3.796,8.512 -9.284,14.504 -18.325,17.433c-9.634,3.121 -21.555,0.038 -30.617,-3.466c-25.442,-9.834 -49.404,-27.242 -72.317,-41.925c-29.441,-18.871 -58.733,-37.634 -89.212,-54.821l-105.671,75.241c-21.338,14.905 -57.073,43.205 -84.609,37.259c-7.668,-1.654 -13.949,-5.925 -17.731,-12.867c-18.733,-34.387 28.297,-161.887 39.825,-200.583c-29.895,-24.234 -143.9,-99.496 -150.668,-129.979c-3.498,-15.759 6.95,-30.217 15.396,-42.475c55.335,-22.105 138.321,-19.85 198.362,-24.475c20.4,-56.663 40.15,-120.7 66.487,-174.509c8.1,-16.55 14.5,-24.633 32.117,-30.646Z" style="fill:#fed144;fill-rule:nonzero;"/><path d="M413.35,536.992c13.933,13.833 57.958,146.633 65.642,173.516c57.504,-3.908 120.829,-6.004 177.941,1.634c-40.204,44.004 -96.179,72.95 -133.258,119.87c16.583,55.446 43.042,113.296 47.904,171.05c-51.912,-16.7 -106.471,-64.337 -158.766,-86.441c-16.859,7.304 -34.021,20.858 -49.263,31.225c-31.754,21.608 -62.833,43.687 -96.087,62.971c3.02,-53.284 23.933,-109.48 38.483,-160.688c-41.25,-41.3 -92.75,-75.254 -139.103,-110.825c56.273,-15.279 120.936,-21.275 179.174,-22.546c24.662,-59.037 42.65,-120.641 67.333,-179.766Z" style="fill:#fef180;fill-rule:nonzero;"/><path d="M750.888,429.154c6.245,-0.158 11.337,0.488 17.316,2.429c5.925,1.925 11.838,5.275 14.225,11.4c2.558,6.563 0.55,14.125 -2.2,20.288c-11.512,25.779 -53.837,64.446 -80.012,74.483c-3.955,0.109 -7.825,-0.025 -11.75,-0.516c-7.525,-0.951 -16.355,-3.5 -20.671,-10.3c-2.388,-3.755 -2.383,-8.209 -1.458,-12.421c6.891,-31.425 58.325,-69.15 84.549,-85.363Z" style="fill:#fed144;fill-rule:nonzero;"/><path d="M425.075,241.61c4.121,0.061 8.279,0.459 12.296,1.423c6.871,1.649 11.417,6.99 14.629,12.984c11.258,20.979 10.496,62.72 3.013,85.275c-3.996,12.045 -11.4,16.641 -22.309,22.125c-0.939,-0.195 -1.872,-0.417 -2.8,-0.667c-10.387,-2.704 -16.641,-6.879 -21.825,-16.5c-11.3,-20.978 -12.316,-59.016 -4.8,-81.613c4.129,-12.412 10.284,-17.537 21.796,-23.027Z" style="fill:#fed144;fill-rule:nonzero;"/><path d="M113.034,1110.4c8.757,-0.229 22.231,2.817 28.115,9.992c3.979,4.854 3.918,11.487 2.393,17.229c-7.122,26.804 -37.259,48.562 -59.94,62.067c-2.843,0.262 -5.719,0.6 -8.582,0.42c-6.319,-0.395 -16.038,-2.908 -19.834,-8.366c-3.501,-5.042 -2.547,-12.154 -0.815,-17.654c8.293,-26.313 35.028,-50.559 58.663,-63.688Z" style="fill:#fed144;fill-rule:nonzero;"/><path d="M140.13,495.246c2.638,0.271 5.163,0.537 7.745,1.154c18.374,4.408 42.423,24.879 51.841,40.429c4.684,7.733 7.515,17.517 4.847,26.463c-3.053,10.237 -11.593,15.195 -20.246,20.316c-2.614,0.021 -4.535,0.129 -7.202,-0.341c-16.352,-2.884 -35.518,-21.221 -45.127,-33.955c-6.81,-9.024 -13.362,-21.733 -10.956,-33.445c2.176,-10.596 10.731,-15.259 19.098,-20.621Z" style="fill:#fed144;fill-rule:nonzero;"/><path d="M704.404,1131.04c3.913,-0.509 7.942,-0.871 11.842,-0.021c16.404,3.558 36.308,20.379 44.712,34.612c4.463,7.558 7.225,17.083 4.338,25.708c-2.958,8.842 -9.904,12.609 -17.429,17.067c-3.521,0.163 -6.913,0.138 -10.429,-0.225c-15.971,-1.654 -34.721,-17.15 -43.605,-29.854c-5.483,-7.846 -9.433,-17.779 -7.429,-27.467c2.154,-10.408 9.563,-14.687 18,-19.821Z" style="fill:#fed144;fill-rule:nonzero;"/><path d="M768.783,905.55c0.686,-0.108 1.375,-0.196 2.067,-0.263c0.689,-0.063 1.381,-0.104 2.075,-0.12c0.694,-0.02 1.389,-0.016 2.083,0.012c0.695,0.028 1.386,0.078 2.075,0.15c0.692,0.072 1.38,0.168 2.063,0.288c0.683,0.116 1.362,0.257 2.037,0.42c0.675,0.164 1.343,0.349 2.004,0.555c0.664,0.208 1.32,0.437 1.967,0.687c0.647,0.25 1.286,0.522 1.917,0.817c0.628,0.292 1.247,0.604 1.858,0.937c0.609,0.334 1.206,0.686 1.792,1.059c0.586,0.372 1.158,0.764 1.716,1.175c0.562,0.411 1.107,0.84 1.638,1.287c0.531,0.447 1.047,0.911 1.55,1.392c0.5,0.48 0.983,0.976 1.45,1.487c0.469,0.514 0.921,1.042 1.354,1.584c0.433,0.541 0.849,1.097 1.246,1.666c0.397,0.57 0.775,1.152 1.133,1.746c0.359,0.597 0.696,1.204 1.013,1.821c0.319,0.617 0.618,1.243 0.896,1.879c0.275,0.636 0.53,1.281 0.766,1.933c0.234,0.656 0.446,1.317 0.638,1.984c0.191,0.666 0.36,1.339 0.504,2.016c0.147,0.681 0.272,1.364 0.375,2.05c0.1,0.687 0.178,1.376 0.233,2.067c0.056,0.692 0.089,1.385 0.1,2.079c0.011,0.695 -0.001,1.389 -0.037,2.084c-0.036,0.691 -0.095,1.383 -0.175,2.075c-0.081,0.689 -0.185,1.375 -0.313,2.058c-0.125,0.681 -0.273,1.358 -0.446,2.033c-0.169,0.673 -0.362,1.338 -0.579,1.996c-0.214,0.661 -0.45,1.314 -0.708,1.959c-0.258,0.644 -0.538,1.279 -0.838,1.904c-0.3,0.627 -0.619,1.244 -0.958,1.85c-0.342,0.602 -0.703,1.196 -1.083,1.779c-0.378,0.58 -0.777,1.148 -1.196,1.704c-0.417,0.553 -0.851,1.093 -1.304,1.621c-0.453,0.525 -0.922,1.035 -1.409,1.529c-0.486,0.497 -0.987,0.976 -1.504,1.438c-0.519,0.461 -1.052,0.905 -1.6,1.333c-0.547,0.428 -1.108,0.836 -1.683,1.225c-0.572,0.392 -1.158,0.762 -1.758,1.112c-0.6,0.353 -1.21,0.685 -1.83,0.996c-0.619,0.311 -1.25,0.602 -1.891,0.871c-0.639,0.269 -1.286,0.517 -1.942,0.742c-0.655,0.227 -1.319,0.433 -1.992,0.616c-0.669,0.184 -1.343,0.345 -2.02,0.484c-0.681,0.136 -1.366,0.251 -2.055,0.346c-0.508,0.069 -1.018,0.126 -1.529,0.17c-0.511,0.045 -1.022,0.077 -1.533,0.096c-0.514,0.017 -1.026,0.022 -1.538,0.017c-0.513,-0.006 -1.026,-0.024 -1.537,-0.054c-0.514,-0.031 -1.025,-0.074 -1.533,-0.129c-0.511,-0.056 -1.02,-0.124 -1.525,-0.205c-0.506,-0.08 -1.01,-0.173 -1.513,-0.279c-0.503,-0.103 -1.001,-0.219 -1.496,-0.35c-0.497,-0.128 -0.99,-0.269 -1.479,-0.425c-0.489,-0.153 -0.975,-0.316 -1.458,-0.491c-0.481,-0.178 -0.957,-0.367 -1.429,-0.567c-0.473,-0.2 -0.939,-0.413 -1.4,-0.638c-0.461,-0.222 -0.918,-0.455 -1.371,-0.7c-0.45,-0.244 -0.893,-0.5 -1.329,-0.766c-0.439,-0.267 -0.871,-0.545 -1.296,-0.834c-0.425,-0.289 -0.842,-0.587 -1.25,-0.895c-0.411,-0.309 -0.814,-0.627 -1.209,-0.955c-0.394,-0.327 -0.78,-0.664 -1.158,-1.008c-0.378,-0.347 -0.747,-0.703 -1.108,-1.067c-0.361,-0.366 -0.713,-0.74 -1.054,-1.12c-0.342,-0.381 -0.675,-0.771 -1,-1.171c-0.323,-0.398 -0.635,-0.803 -0.938,-1.217c-0.305,-0.411 -0.6,-0.831 -0.883,-1.258c-0.284,-0.428 -0.556,-0.863 -0.817,-1.304c-0.261,-0.442 -0.512,-0.889 -0.754,-1.342c-0.239,-0.453 -0.468,-0.911 -0.688,-1.375c-0.216,-0.464 -0.423,-0.933 -0.62,-1.408c-0.195,-0.473 -0.378,-0.95 -0.55,-1.434c-0.173,-0.483 -0.332,-0.971 -0.48,-1.462c-0.147,-0.492 -0.283,-0.986 -0.408,-1.484c-0.122,-0.497 -0.233,-0.997 -0.333,-1.5c-0.1,-0.502 -0.188,-1.008 -0.263,-1.516c-0.075,-0.509 -0.137,-1.017 -0.187,-1.525c-0.05,-0.511 -0.088,-1.023 -0.113,-1.534c-0.025,-0.514 -0.037,-1.027 -0.037,-1.541c-0.003,-0.511 0.008,-1.024 0.033,-1.538c0.025,-0.511 0.063,-1.022 0.113,-1.533c0.05,-0.508 0.112,-1.017 0.187,-1.525c0.072,-0.508 0.158,-1.014 0.258,-1.517c0.1,-0.503 0.212,-1.003 0.334,-1.5c0.125,-0.497 0.261,-0.991 0.408,-1.483c0.147,-0.492 0.307,-0.979 0.479,-1.463c0.17,-0.483 0.352,-0.962 0.546,-1.437c0.195,-0.475 0.402,-0.945 0.621,-1.408c0.217,-0.464 0.444,-0.923 0.683,-1.375c0.242,-0.456 0.493,-0.903 0.754,-1.342c0.262,-0.442 0.534,-0.877 0.817,-1.304c0.281,-0.428 0.574,-0.849 0.879,-1.263c0.303,-0.414 0.616,-0.819 0.938,-1.216c0.322,-0.4 0.655,-0.791 1,-1.171c0.341,-0.384 0.691,-0.757 1.05,-1.121c0.361,-0.364 0.73,-0.72 1.108,-1.067c0.378,-0.347 0.764,-0.685 1.158,-1.012c0.395,-0.331 0.796,-0.65 1.205,-0.959c0.411,-0.308 0.827,-0.607 1.25,-0.895c0.425,-0.287 0.857,-0.564 1.295,-0.834c0.437,-0.266 0.88,-0.522 1.33,-0.766c0.45,-0.248 0.905,-0.482 1.366,-0.705c0.464,-0.222 0.932,-0.434 1.404,-0.637c0.47,-0.2 0.946,-0.389 1.43,-0.567c0.48,-0.178 0.965,-0.343 1.454,-0.496c0.489,-0.152 0.982,-0.294 1.479,-0.425c0.494,-0.13 0.993,-0.248 1.496,-0.354c0.503,-0.105 1.007,-0.198 1.512,-0.279Z" style="fill:#fed144;fill-rule:nonzero;"/><path d="M265.525,1276.92c0.439,-0.178 0.883,-0.345 1.333,-0.5c0.448,-0.153 0.899,-0.296 1.355,-0.429c0.455,-0.134 0.913,-0.256 1.375,-0.367c0.461,-0.108 0.923,-0.207 1.387,-0.296c0.467,-0.086 0.935,-0.161 1.404,-0.225c0.47,-0.067 0.94,-0.119 1.413,-0.158c0.472,-0.042 0.945,-0.072 1.421,-0.092c0.474,-0.017 0.948,-0.022 1.42,-0.017c0.475,0.006 0.949,0.023 1.421,0.05c0.475,0.031 0.947,0.073 1.417,0.125c0.472,0.05 0.943,0.113 1.412,0.188c0.467,0.078 0.932,0.165 1.396,0.262c0.464,0.098 0.925,0.207 1.384,0.33c0.458,0.122 0.913,0.254 1.366,0.395c0.45,0.145 0.897,0.299 1.342,0.463c0.444,0.167 0.885,0.343 1.321,0.529c0.436,0.189 0.866,0.388 1.291,0.596c0.428,0.208 0.849,0.426 1.263,0.654c0.414,0.231 0.823,0.471 1.229,0.721c0.403,0.247 0.799,0.506 1.188,0.775c0.391,0.269 0.776,0.549 1.154,0.837c0.375,0.287 0.743,0.584 1.104,0.892c0.364,0.306 0.719,0.62 1.067,0.942c0.344,0.325 0.681,0.657 1.012,0.996c0.331,0.341 0.653,0.69 0.967,1.045c0.314,0.356 0.618,0.72 0.912,1.092c0.295,0.37 0.581,0.747 0.859,1.133c0.275,0.384 0.541,0.775 0.8,1.175c0.255,0.398 0.502,0.802 0.741,1.213c0.236,0.411 0.463,0.828 0.679,1.25c0.217,0.419 0.424,0.846 0.621,1.279c0.195,0.431 0.379,0.867 0.554,1.308c0.175,0.442 0.338,0.887 0.488,1.334c0.153,0.45 0.294,0.903 0.425,1.358c0.13,0.456 0.248,0.915 0.354,1.379c0.108,0.461 0.206,0.925 0.292,1.392c0.083,0.467 0.155,0.935 0.216,1.404c0.061,0.47 0.111,0.94 0.15,1.413c0.039,0.472 0.066,0.945 0.08,1.42c0.013,0.475 0.016,0.949 0.008,1.421c-0.008,0.475 -0.028,0.949 -0.058,1.421c-0.034,0.475 -0.078,0.947 -0.134,1.417c-0.055,0.472 -0.122,0.941 -0.2,1.408c-0.078,0.467 -0.166,0.932 -0.266,1.396c-0.103,0.464 -0.217,0.925 -0.342,1.383c-0.122,0.456 -0.257,0.91 -0.404,1.363c-0.148,0.45 -0.304,0.897 -0.471,1.341c-0.17,0.442 -0.349,0.88 -0.538,1.313c-0.191,0.436 -0.393,0.867 -0.604,1.292c-0.211,0.422 -0.432,0.84 -0.662,1.254c-0.231,0.414 -0.473,0.822 -0.725,1.225c-0.253,0.4 -0.516,0.794 -0.788,1.183c-0.269,0.389 -0.55,0.771 -0.841,1.146c-0.289,0.375 -0.588,0.743 -0.896,1.104c-0.309,0.361 -0.625,0.714 -0.95,1.058c-0.328,0.345 -0.663,0.681 -1.004,1.009c-0.342,0.328 -0.692,0.647 -1.05,0.958c-0.359,0.311 -0.724,0.613 -1.096,0.904c-0.373,0.295 -0.753,0.578 -1.142,0.85c-0.386,0.275 -0.779,0.541 -1.179,0.796c-0.4,0.253 -0.806,0.497 -1.217,0.733c-0.414,0.234 -0.832,0.457 -1.254,0.671c-0.422,0.214 -0.85,0.418 -1.283,0.613c-0.434,0.191 -0.871,0.373 -1.313,0.546c-0.439,0.169 -0.882,0.329 -1.329,0.479c-0.444,0.147 -0.893,0.285 -1.346,0.412c-0.453,0.125 -0.91,0.241 -1.371,0.346c-0.458,0.103 -0.918,0.195 -1.379,0.275c-0.464,0.083 -0.929,0.154 -1.396,0.213c-0.466,0.058 -0.934,0.105 -1.404,0.141c-0.469,0.036 -0.939,0.061 -1.408,0.075c-0.47,0.011 -0.94,0.013 -1.413,0.004c-0.469,-0.011 -0.939,-0.033 -1.408,-0.066c-0.469,-0.031 -0.937,-0.074 -1.404,-0.129c-0.467,-0.059 -0.932,-0.127 -1.396,-0.205c-0.464,-0.077 -0.925,-0.168 -1.383,-0.27c-0.461,-0.1 -0.918,-0.211 -1.371,-0.334c-0.453,-0.125 -0.903,-0.259 -1.35,-0.404c-0.447,-0.147 -0.892,-0.304 -1.333,-0.471c-0.439,-0.166 -0.874,-0.344 -1.305,-0.533c-0.43,-0.189 -0.857,-0.388 -1.279,-0.596c-0.419,-0.208 -0.835,-0.428 -1.246,-0.658c-0.411,-0.231 -0.816,-0.47 -1.216,-0.717c-0.398,-0.25 -0.789,-0.51 -1.175,-0.779c-0.386,-0.269 -0.766,-0.547 -1.138,-0.833c-0.373,-0.286 -0.738,-0.582 -1.096,-0.888c-0.359,-0.305 -0.709,-0.619 -1.051,-0.942c-0.343,-0.322 -0.678,-0.652 -1.004,-0.991c-0.327,-0.339 -0.645,-0.685 -0.955,-1.038c-0.309,-0.355 -0.61,-0.716 -0.902,-1.083c-0.292,-0.369 -0.574,-0.746 -0.848,-1.129c-0.274,-0.384 -0.538,-0.772 -0.792,-1.167c-0.255,-0.394 -0.5,-0.796 -0.734,-1.204c-0.235,-0.408 -0.46,-0.821 -0.675,-1.238c-0.215,-0.419 -0.419,-0.843 -0.613,-1.27c-0.194,-0.431 -0.377,-0.864 -0.55,-1.3c-0.173,-0.439 -0.335,-0.881 -0.486,-1.325c-0.151,-0.445 -0.292,-0.893 -0.421,-1.346c-0.129,-0.453 -0.247,-0.909 -0.354,-1.367c-0.107,-0.455 -0.203,-0.915 -0.288,-1.379c-0.084,-0.464 -0.157,-0.928 -0.219,-1.392c-0.062,-0.466 -0.112,-0.934 -0.151,-1.404c-0.039,-0.469 -0.066,-0.939 -0.082,-1.408c-0.016,-0.47 -0.021,-0.94 -0.014,-1.413c0.007,-0.469 0.026,-0.939 0.056,-1.408c0.03,-0.469 0.071,-0.938 0.124,-1.404c0.053,-0.467 0.117,-0.932 0.193,-1.396c0.076,-0.467 0.163,-0.929 0.261,-1.388c0.098,-0.461 0.208,-0.918 0.328,-1.37c0.121,-0.456 0.252,-0.907 0.395,-1.355c0.143,-0.45 0.296,-0.894 0.461,-1.333c0.164,-0.442 0.339,-0.878 0.525,-1.308c0.186,-0.434 0.382,-0.861 0.589,-1.284c0.207,-0.422 0.423,-0.838 0.65,-1.25c0.227,-0.413 0.464,-0.82 0.711,-1.22c0.247,-0.4 0.504,-0.795 0.77,-1.184c0.266,-0.386 0.542,-0.766 0.826,-1.141c0.285,-0.375 0.579,-0.742 0.882,-1.1c0.302,-0.361 0.614,-0.714 0.934,-1.059c0.32,-0.344 0.648,-0.68 0.984,-1.008c0.337,-0.331 0.681,-0.651 1.033,-0.963c0.352,-0.311 0.712,-0.613 1.079,-0.908c0.367,-0.294 0.741,-0.579 1.122,-0.854c0.38,-0.278 0.768,-0.544 1.162,-0.8c0.395,-0.258 0.795,-0.506 1.2,-0.742c0.406,-0.239 0.817,-0.466 1.234,-0.683c0.416,-0.217 0.838,-0.424 1.266,-0.621c0.428,-0.197 0.86,-0.383 1.296,-0.558Z" style="fill:#fed144;fill-rule:nonzero;"/><path d="M43.81,884.104c0.362,-0.147 0.727,-0.285 1.095,-0.412c0.369,-0.128 0.74,-0.248 1.115,-0.359c0.374,-0.111 0.751,-0.214 1.13,-0.308c0.379,-0.092 0.76,-0.175 1.144,-0.25c0.383,-0.072 0.768,-0.136 1.154,-0.192c0.387,-0.055 0.774,-0.102 1.163,-0.141c0.388,-0.036 0.778,-0.064 1.168,-0.084c0.39,-0.016 0.78,-0.025 1.17,-0.025c0.391,0 0.781,0.01 1.171,0.029c0.39,0.02 0.779,0.049 1.168,0.088c0.388,0.039 0.775,0.086 1.162,0.142c0.386,0.058 0.77,0.125 1.153,0.2c0.383,0.075 0.764,0.159 1.143,0.254c0.379,0.094 0.756,0.197 1.129,0.308c0.375,0.111 0.746,0.232 1.114,0.363c0.368,0.13 0.733,0.269 1.094,0.416c0.362,0.148 0.719,0.303 1.073,0.467c0.354,0.167 0.704,0.34 1.049,0.521c0.346,0.183 0.687,0.373 1.023,0.571c0.337,0.197 0.668,0.402 0.995,0.616c0.326,0.214 0.647,0.436 0.963,0.667c0.315,0.231 0.625,0.468 0.93,0.712c0.304,0.245 0.602,0.496 0.894,0.755c0.293,0.258 0.578,0.523 0.858,0.795c0.279,0.275 0.552,0.556 0.817,0.842c0.266,0.283 0.525,0.575 0.777,0.875c0.251,0.297 0.496,0.602 0.733,0.913c0.237,0.311 0.466,0.626 0.688,0.945c0.222,0.323 0.436,0.649 0.642,0.98c0.206,0.333 0.404,0.669 0.594,1.008c0.19,0.342 0.371,0.687 0.545,1.037c0.173,0.35 0.337,0.705 0.494,1.063c0.156,0.358 0.303,0.719 0.442,1.083c0.138,0.367 0.268,0.735 0.389,1.104c0.121,0.373 0.233,0.746 0.336,1.121c0.103,0.378 0.196,0.757 0.281,1.138c0.085,0.38 0.16,0.764 0.226,1.15c0.066,0.383 0.123,0.769 0.171,1.158c0.047,0.386 0.085,0.775 0.114,1.167c0.029,0.389 0.048,0.778 0.058,1.166c0.01,0.392 0.01,0.782 0.001,1.171c-0.009,0.392 -0.027,0.782 -0.055,1.171c-0.028,0.389 -0.065,0.778 -0.111,1.167c-0.046,0.386 -0.102,0.772 -0.167,1.158c-0.065,0.383 -0.14,0.767 -0.223,1.15c-0.084,0.381 -0.177,0.76 -0.279,1.138c-0.102,0.375 -0.213,0.748 -0.333,1.12c-0.119,0.373 -0.248,0.741 -0.386,1.105c-0.138,0.366 -0.284,0.729 -0.439,1.087c-0.156,0.358 -0.32,0.713 -0.492,1.063c-0.172,0.35 -0.353,0.695 -0.541,1.037c-0.19,0.342 -0.387,0.679 -0.592,1.013c-0.205,0.33 -0.418,0.657 -0.639,0.979c-0.221,0.322 -0.45,0.639 -0.686,0.95c-0.236,0.311 -0.48,0.615 -0.731,0.912c-0.251,0.3 -0.509,0.593 -0.774,0.879c-0.265,0.287 -0.537,0.567 -0.816,0.842c-0.279,0.272 -0.564,0.539 -0.855,0.8c-0.292,0.258 -0.589,0.511 -0.893,0.758c-0.303,0.245 -0.613,0.482 -0.928,0.713c-0.315,0.231 -0.636,0.453 -0.962,0.667c-0.326,0.216 -0.656,0.423 -0.992,0.62c-0.336,0.2 -0.677,0.392 -1.022,0.575c-0.345,0.181 -0.694,0.355 -1.048,0.521c-0.488,0.228 -0.983,0.441 -1.485,0.638c-0.502,0.194 -1.01,0.373 -1.524,0.537c-0.514,0.161 -1.033,0.306 -1.556,0.434c-0.524,0.125 -1.051,0.234 -1.582,0.329c-0.531,0.091 -1.064,0.165 -1.6,0.221c-0.536,0.058 -1.073,0.097 -1.611,0.116c-0.539,0.023 -1.077,0.025 -1.616,0.009c-0.539,-0.014 -1.076,-0.046 -1.613,-0.096c-0.536,-0.053 -1.07,-0.122 -1.602,-0.209c-0.532,-0.086 -1.06,-0.188 -1.585,-0.308c-0.525,-0.122 -1.045,-0.261 -1.561,-0.417c-0.516,-0.158 -1.026,-0.331 -1.53,-0.52c-0.504,-0.189 -1.001,-0.396 -1.492,-0.621c-0.49,-0.222 -0.973,-0.461 -1.447,-0.717c-0.475,-0.255 -0.94,-0.526 -1.397,-0.812c-0.456,-0.286 -0.903,-0.588 -1.339,-0.905c-0.436,-0.316 -0.862,-0.647 -1.276,-0.991c-0.414,-0.345 -0.817,-0.702 -1.207,-1.071c-0.391,-0.372 -0.769,-0.757 -1.134,-1.154c-0.365,-0.395 -0.716,-0.803 -1.054,-1.225c-0.338,-0.42 -0.661,-0.85 -0.97,-1.292c-0.309,-0.439 -0.603,-0.889 -0.883,-1.35c-0.279,-0.461 -0.542,-0.93 -0.79,-1.408c-0.248,-0.481 -0.48,-0.967 -0.695,-1.459c-0.215,-0.494 -0.414,-0.995 -0.596,-1.504c-0.182,-0.505 -0.347,-1.018 -0.495,-1.537c-0.148,-0.517 -0.279,-1.039 -0.392,-1.567c-0.113,-0.528 -0.209,-1.058 -0.287,-1.592c-0.078,-0.53 -0.138,-1.065 -0.18,-1.604c-0.042,-0.536 -0.067,-1.073 -0.073,-1.612c-0.006,-0.539 0.005,-1.078 0.035,-1.617c0.029,-0.536 0.076,-1.072 0.141,-1.608c0.066,-0.536 0.148,-1.068 0.249,-1.596c0.101,-0.531 0.219,-1.056 0.354,-1.575c0.136,-0.522 0.289,-1.039 0.459,-1.55c0.17,-0.511 0.356,-1.017 0.56,-1.517c0.204,-0.5 0.424,-0.991 0.66,-1.475c0.236,-0.483 0.489,-0.959 0.757,-1.429c0.268,-0.467 0.551,-0.923 0.85,-1.371c0.298,-0.45 0.611,-0.889 0.939,-1.316c0.328,-0.428 0.669,-0.845 1.025,-1.25c0.355,-0.403 0.724,-0.795 1.106,-1.175c0.381,-0.381 0.775,-0.749 1.181,-1.105c0.406,-0.352 0.824,-0.693 1.253,-1.02c0.428,-0.325 0.867,-0.636 1.317,-0.934c0.45,-0.297 0.909,-0.579 1.377,-0.846c0.468,-0.266 0.945,-0.518 1.43,-0.754c0.485,-0.233 0.977,-0.451 1.477,-0.654Z" style="fill:#fed144;fill-rule:nonzero;"/><path d="M677.013,1362.17c1.349,0.17 2.7,0.325 4.045,0.516c7.413,1.075 13.796,4.15 17.796,10.792c3.45,5.721 3.925,12.15 2.184,18.458c-3.08,11.154 -8.592,15.404 -18.521,20.675c-0.896,-0.05 -1.796,-0.05 -2.684,-0.15c-6.829,-0.783 -14.758,-4 -18.633,-10.033c-3.912,-6.1 -4.65,-12.375 -2.908,-19.375c2.696,-10.829 9.558,-15.475 18.721,-20.883Z" style="fill:#fed144;fill-rule:nonzero;"/></svg>