<?xml version="1.0" encoding="utf-8" ?>
<svg xmlns="http://www.w3.org/2000/svg"
     xmlns:xlink="http://www.w3.org/1999/xlink"
     width="1024" height="1536"
     viewBox="0 0 1024 1536">
	<path fill="#1B2126" d="M208.765 119.484C217.357 117.662 228.255 119.37 236.606 121.56C282.882 133.696 316.263 180.857 339.048 219.844C374.47 193.807 452.136 151.332 493.92 150.056C526.949 149.047 587.988 190.014 612.278 212.594Q613.372 210.711 614.57 208.892C638.93 171.828 679.258 136.281 723.776 127.323C746.491 122.752 768.457 126.034 787.912 139.066C814.119 156.62 829.597 189.179 835.499 219.345C845.048 268.144 840.723 321.632 812.314 363.724C787.566 400.39 751.391 420.946 708.611 429.305C711.433 438.99 715.341 448.555 718.754 458.054Q729.145 487.197 739.985 516.176C744.807 529.171 750.994 543.233 753.502 556.89C754.54 562.541 754.286 567.92 752.608 573.433C749.382 584.035 742.016 594.131 735.052 602.634C712.645 629.988 684.941 650.881 653.737 667.292C661.547 679.682 668.191 693.291 673.854 706.779C678.427 717.669 681.309 727.895 676.553 739.259Q675.919 740.797 675.209 742.301Q674.499 743.805 673.715 745.272Q672.931 746.739 672.075 748.165Q671.219 749.592 670.292 750.974Q669.366 752.355 668.373 753.689Q667.379 755.023 666.32 756.306Q665.261 757.589 664.139 758.817Q663.018 760.046 661.836 761.217Q660.655 762.388 659.417 763.499Q658.178 764.61 656.886 765.658Q655.594 766.706 654.251 767.688Q652.909 768.67 651.519 769.584Q650.129 770.499 648.695 771.342Q647.262 772.186 645.788 772.958Q644.314 773.729 642.803 774.426Q641.292 775.123 639.749 775.744C642.376 791.888 643.128 808.538 644.959 824.813C650.261 871.942 660.724 951.564 686.921 990.321C692.788 999.001 699.788 1006.84 708.192 1013.15C714.49 1017.87 720.82 1021.13 728.06 1024.17C729.159 1024.63 731.686 1025.65 732.472 1026.48C732.874 1026.9 733.086 1027.47 733.393 1027.97C728.729 1033.25 719.79 1036 713.007 1036.96C691.482 1040.01 672.195 1031 655.418 1018.57C657.815 1025.54 660.502 1032.2 664.275 1038.55C674.176 1055.23 689.44 1068.57 708.579 1073.33Q710.057 1073.68 711.551 1073.97Q713.045 1074.25 714.551 1074.46Q716.057 1074.66 717.571 1074.8Q719.086 1074.93 720.604 1074.99Q722.124 1075.05 723.644 1075.03Q725.164 1075.02 726.681 1074.93Q728.199 1074.84 729.71 1074.67Q731.222 1074.51 732.723 1074.27Q734.224 1074.03 735.712 1073.72Q737.2 1073.41 738.671 1073.03Q740.142 1072.64 741.592 1072.18Q743.042 1071.73 744.468 1071.2Q745.894 1070.68 747.292 1070.08Q748.691 1069.48 750.058 1068.82Q751.426 1068.16 752.759 1067.43Q754.092 1066.69 755.388 1065.9Q756.745 1065.06 758.06 1064.16Q759.374 1063.26 760.643 1062.29Q761.912 1061.32 763.132 1060.3Q764.352 1059.27 765.52 1058.19Q766.688 1057.1 767.802 1055.96Q768.916 1054.82 769.972 1053.62Q771.028 1052.43 772.025 1051.18Q773.022 1049.94 773.956 1048.65Q774.891 1047.35 775.76 1046.02Q776.631 1044.68 777.434 1043.3Q778.238 1041.93 778.973 1040.51Q779.708 1039.1 780.373 1037.65Q781.038 1036.2 781.631 1034.72Q782.224 1033.24 782.744 1031.73Q783.264 1030.22 783.71 1028.69Q784.155 1027.16 784.525 1025.61C794.285 985.085 767.633 953.267 748.041 921.039C728.68 889.188 717.154 854.09 726.358 816.867Q726.649 815.687 726.97 814.515Q727.291 813.343 727.641 812.179Q727.991 811.015 728.369 809.86Q728.748 808.705 729.155 807.56Q729.563 806.415 729.998 805.281Q730.434 804.146 730.898 803.023Q731.361 801.899 731.853 800.788Q732.345 799.676 732.864 798.577Q733.383 797.478 733.929 796.393Q734.475 795.307 735.048 794.235Q735.621 793.164 736.221 792.106Q736.82 791.049 737.446 790.007Q738.072 788.965 738.723 787.939Q739.375 786.913 740.052 785.904Q740.728 784.894 741.43 783.902Q742.132 782.909 742.858 781.935Q743.584 780.96 744.334 780.004Q745.084 779.047 745.858 778.11Q746.632 777.173 747.428 776.255Q748.225 775.337 749.045 774.439Q749.864 773.542 750.706 772.665Q751.547 771.788 752.41 770.932Q753.273 770.076 754.157 769.242Q755.041 768.408 755.946 767.596Q756.85 766.784 757.775 765.995Q758.699 765.206 759.643 764.44Q760.587 763.674 761.549 762.932Q762.512 762.189 763.493 761.471Q764.474 760.753 765.472 760.06Q766.47 759.367 767.485 758.698Q768.501 758.03 769.532 757.387Q770.564 756.744 771.611 756.127C793.768 742.882 821.941 740.035 846.729 746.381Q847.899 746.679 849.061 747.006Q850.224 747.333 851.378 747.688Q852.532 748.044 853.677 748.427Q854.822 748.811 855.957 749.223Q857.092 749.634 858.217 750.074Q859.341 750.513 860.455 750.98Q861.568 751.447 862.67 751.941Q863.772 752.435 864.861 752.956Q865.95 753.478 867.026 754.025Q868.102 754.573 869.164 755.147Q870.227 755.721 871.274 756.321Q872.322 756.921 873.355 757.546Q874.388 758.172 875.405 758.823Q876.422 759.473 877.423 760.149Q878.423 760.824 879.407 761.524Q880.391 762.224 881.358 762.948Q882.324 763.672 883.272 764.419Q884.22 765.167 885.15 765.937Q886.079 766.708 886.99 767.501Q887.9 768.294 888.791 769.109Q889.681 769.924 890.551 770.761Q891.422 771.598 892.271 772.456Q893.12 773.314 893.948 774.193Q894.777 775.071 895.583 775.97Q896.389 776.869 897.173 777.787Q897.957 778.706 898.718 779.643Q899.479 780.58 900.216 781.536Q900.954 782.491 901.668 783.465Q902.382 784.438 903.072 785.429Q903.762 786.42 904.427 787.428Q905.092 788.435 905.733 789.458Q906.373 790.482 906.988 791.521C917.336 809.2 922.222 831.307 916.788 851.352C913.382 863.915 905.296 875.068 893.825 881.427C886.951 885.237 878.181 887.723 870.362 885.466C870.297 883.973 870.318 883.671 871.271 882.483C876.422 876.061 882.035 873.948 886.23 865.49C891.096 855.676 891.177 843.554 887.714 833.28C882.498 817.806 871.72 805.873 857.031 798.778C844.472 792.711 829.528 790.806 816.21 795.485Q814.98 795.921 813.772 796.416Q812.565 796.911 811.383 797.466Q810.201 798.02 809.048 798.631Q807.895 799.243 806.774 799.91Q805.652 800.577 804.565 801.299Q803.477 802.021 802.426 802.795Q801.376 803.569 800.364 804.394Q799.353 805.219 798.383 806.092Q797.414 806.966 796.488 807.886Q795.562 808.806 794.683 809.77Q793.804 810.735 792.973 811.741Q792.142 812.747 791.362 813.793Q790.582 814.839 789.853 815.922Q789.125 817.005 788.451 818.123Q787.778 819.24 787.159 820.39Q786.541 821.539 785.98 822.717C765.408 866.357 806.038 907.174 828.024 940.615Q832.96 948.046 836.999 956Q841.039 963.954 844.126 972.323C855.621 1003.91 854.885 1038.85 840.507 1069.4C825.985 1100.25 800.516 1122.67 768.486 1134.08C758.581 1137.61 733.385 1144.52 724.085 1140.08C724.224 1140.36 724.356 1140.64 724.501 1140.92C727.376 1146.37 734.834 1152.4 739.665 1156.44C765.355 1177.96 798.014 1193.05 832.056 1192.34C837.245 1192.23 863.928 1187.46 864.595 1187.65C864.68 1188.35 864.756 1188.96 864.62 1189.66C863.14 1197.32 851.656 1205.81 845.363 1210.07C825.803 1223.31 800.728 1228.67 777.416 1225.08C767.647 1223.58 758.194 1220.59 748.488 1218.9C743.401 1218.01 738.23 1219.51 733.176 1218.52C733.329 1218.93 733.485 1219.34 733.664 1219.75C735.485 1223.83 740.578 1230.84 744.79 1232.5C752.035 1245.72 790.453 1260.73 805.368 1263.47C810.765 1264.46 826.503 1264.48 829.4 1266.26C828.87 1268.25 827.441 1269.24 825.797 1270.41C804.249 1285.78 773.142 1285.7 748.155 1281.29C732.997 1278.62 707.006 1270.39 697.976 1257.55C701.925 1266.13 709.124 1272.56 715.699 1279.13C729.654 1293.07 742.47 1308.15 748.389 1327.38C749.895 1332.27 753.123 1344.68 750.237 1349.42C749.55 1350.55 749.223 1350.34 748.029 1350.66C742.318 1347.77 736.787 1342.44 731.615 1338.55C721.161 1330.71 709.681 1323.23 697.671 1317.98C682.016 1311.14 664.658 1306.39 647.915 1303.11C633.407 1300.27 615.781 1300.03 602.593 1293.13C594.474 1288.89 588.229 1281.61 581.124 1275.94C576.488 1272.24 570.201 1269.8 566.462 1265.18C568.528 1275.62 573.39 1285.96 580.46 1293.93C604.882 1321.48 646.191 1314.23 664.408 1342.85C667.158 1347.18 671.677 1355.13 670.53 1360.4C669.06 1361.24 668.551 1361.22 666.984 1360.49C664.2 1359.19 661.457 1356.95 658.81 1355.34Q656.018 1353.64 653.097 1352.17Q650.176 1350.7 647.145 1349.47Q644.114 1348.24 640.993 1347.27Q637.872 1346.29 634.682 1345.57C607.746 1339.52 598.531 1351.5 575.922 1352.78C568.536 1353.19 550.467 1351.65 544.674 1346.5C547.718 1354.19 557.473 1359.82 559.003 1367.58L558.32 1368.38C557.32 1368.47 556.317 1368.5 555.317 1368.39C538.535 1366.52 509.351 1358.86 498.809 1344.88C492.733 1336.82 494.042 1328.84 495.276 1319.41C478.244 1312.65 467.655 1292.84 454.277 1281.01C447.778 1275.26 440.289 1271.38 433.49 1266.17L432.997 1265.78C431.654 1287.53 436.281 1309.28 449.842 1326.82C454.623 1333.01 460.864 1338.72 464.664 1345.54L464.228 1346.59C459.541 1348.08 450.429 1345.71 445.429 1344.48C426.02 1339.72 406.272 1326.67 395.803 1309.29C395.337 1311.99 394.758 1314.8 393.831 1317.37C384.143 1344.29 351.127 1340.22 328.232 1341.68C321.044 1342.14 313.767 1343.5 306.78 1345.23C290.661 1349.21 285.968 1355.1 272.394 1361.7C271.146 1361.08 270.435 1359.75 270.05 1358.44C267.116 1348.51 278.254 1336.56 282.708 1328.51C282.814 1328.32 282.915 1328.13 283.019 1327.94C282.455 1328.31 281.962 1328.55 281.29 1328.68C273.134 1330.23 264.415 1329.66 256.596 1332.76C249.701 1335.5 230.472 1349.66 226.196 1349.15Q226.554 1346.58 226.958 1344.02C230.06 1324.79 242.529 1307.6 260.777 1300.27C271.705 1295.88 282.681 1293.65 292.422 1286.52C302.293 1279.29 306.313 1270.91 308.222 1259.14C296.709 1288.21 247.204 1284.3 220.833 1295.16C205.686 1301.4 202.22 1307.09 190.237 1316.63C188.784 1317.78 187.638 1318.71 185.765 1318.54C185.506 1317.47 185.381 1316.41 185.464 1315.3C187.711 1285.28 217.833 1272.84 237.594 1255.61C257.753 1238.04 269.288 1213.89 271.133 1187.26C264.722 1202.07 225.953 1216.46 211.589 1224.45C204.407 1228.45 197.502 1233.18 191.553 1238.87C182.925 1247.13 179.356 1256.62 173.173 1266.39L171.952 1266.62C165.738 1260.45 173.422 1235.06 176.956 1228.12C186.484 1209.4 204.893 1192.18 216.757 1173.85C256.931 1111.76 277.914 1035.08 276.81 961.381C269.518 984.54 260.582 1005.39 245.883 1024.94C238.827 1034.33 214.52 1060.99 203.207 1062.6C201.599 1059.25 205.911 1051.9 207.364 1048.39C214.342 1031.5 218.758 1014.48 219.781 996.196C221.567 964.289 216.985 935.119 205.576 905.263C197.641 884.5 186.899 863.431 186.021 840.825C184.64 805.278 212.282 772.275 233.287 746.145C242.047 735.249 250.666 724.09 260.191 713.848Q259.745 711.685 259.421 709.5C257.877 698.802 260.9 691.671 267.19 683.164C228.248 662.965 183.77 616.083 166.85 575.682C164.194 569.34 162.295 563.102 162.756 556.177C163.634 542.968 168.258 529.246 171.558 516.415Q182.554 474.276 195.849 432.805C200.4 418.276 204.466 403.297 210.248 389.216C206.799 387.213 203.263 385.23 200.019 382.907C166.099 358.621 143.9 313.878 137.37 273.49C130.636 231.837 136.141 185.718 161.418 150.918C173.227 134.659 188.506 122.666 208.765 119.484Z"/>
	<path fill="#EDE3C9" d="M266.945 464.68C260.628 428.578 272.585 386.238 293.456 356.638C311.19 331.488 352.778 298.334 383.516 293.16C417.543 287.433 457.359 311.809 483.797 330.974Q487.733 333.814 491.599 336.749Q495.465 339.683 499.258 342.711Q503.052 345.738 506.772 348.856Q510.491 351.974 514.134 355.182Q517.777 358.389 521.341 361.683Q524.905 364.978 528.388 368.357Q531.872 371.737 535.272 375.2Q538.673 378.663 541.988 382.207Q545.304 385.752 548.533 389.375Q551.762 392.998 554.902 396.699Q558.043 400.399 561.092 404.175Q564.142 407.95 567.1 411.798Q570.057 415.646 572.921 419.565Q575.784 423.483 578.552 427.47Q581.32 431.456 583.991 435.509Q586.661 439.561 589.233 443.677C594.05 451.43 600.88 460.418 602.335 469.553C604.975 486.13 598.768 501.909 592.304 516.755C592.302 516.862 592.295 516.969 592.299 517.076C592.333 518.019 592.333 518.76 592.005 519.676C587.354 532.677 568.328 541.361 556.53 546.294C557.651 547.212 558.033 547.789 558.555 549.137C558.024 551.895 553.909 554.874 552.06 557.173C550.724 558.833 549.865 560.158 550.092 562.297C550.668 562.576 551.101 562.808 551.753 562.856C568.333 564.073 584.249 555.954 595.783 544.718C598.136 542.426 599.453 539.474 601.813 537.328L602.107 538.837C599.043 548.16 591.157 559.417 583.296 565.154C560.391 581.868 529.718 560.568 509.641 577.724C489.751 594.72 497.985 626.761 477.213 645.327Q474.775 647.504 472.069 649.337C450.665 663.862 416.906 668.452 391.828 663.556C371.569 659.601 348.764 651.022 339.539 631.157C335.216 621.848 333.161 611.405 330.605 601.508C328.491 593.32 326.591 584.859 321.706 577.783C311.298 562.709 296.93 568.794 281.913 565.881C273.893 564.326 266.288 560.156 261.683 553.263C247.129 531.48 263.655 510.704 267.634 489.058C267.815 488.073 268.16 488.061 268.909 487.443L268.088 487.166C268.839 487.9 269.54 488.663 270.247 489.439C269.345 481.147 267.491 473.036 266.945 464.68Z"/>
	<defs>
		<linearGradient id="gradient_0" gradientUnits="userSpaceOnUse" x1="463.73294" y1="304.9505" x2="423.79758" y2="507.74039">
			<stop offset="0" stop-color="#6B6C67"/>
			<stop offset="1" stop-color="#B6B09C"/>
		</linearGradient>
	</defs>
	<path fill="url(#gradient_0)" d="M266.945 464.68C260.628 428.578 272.585 386.238 293.456 356.638C311.19 331.488 352.778 298.334 383.516 293.16C417.543 287.433 457.359 311.809 483.797 330.974Q487.733 333.814 491.599 336.749Q495.465 339.683 499.258 342.711Q503.052 345.738 506.772 348.856Q510.491 351.974 514.134 355.182Q517.777 358.389 521.341 361.683Q524.905 364.978 528.388 368.357Q531.872 371.737 535.272 375.2Q538.673 378.663 541.988 382.207Q545.304 385.752 548.533 389.375Q551.762 392.998 554.902 396.699Q558.043 400.399 561.092 404.175Q564.142 407.95 567.1 411.798Q570.057 415.646 572.921 419.565Q575.784 423.483 578.552 427.47Q581.32 431.456 583.991 435.509Q586.661 439.561 589.233 443.677C594.05 451.43 600.88 460.418 602.335 469.553C604.975 486.13 598.768 501.909 592.304 516.755C587.041 523.777 581.704 531.539 573.843 535.887C572.339 536.355 571.036 536.874 569.436 536.629C567.426 534.464 568.858 532.43 569.843 530.035C571.497 526.01 571.822 522.443 572.937 518.353C574.043 514.294 575.8 509.926 576.267 505.753C577.225 497.202 573.996 485.938 572.672 477.407C571.8 471.795 571.902 466.613 570.519 461C570.544 463.256 570.916 465.811 569.713 467.796C567.941 442.224 566.056 438.662 550.156 418.879L550.459 418.033C551.944 417.704 553.783 417.45 555.091 416.657C556.374 415.879 556.349 415.436 556.694 414.077C556.344 413.455 556.039 412.934 555.533 412.422C549.969 406.799 540.769 406.462 533.356 406.089C535.717 405.211 538.331 405.973 540.635 405.058C536.941 403.459 532.236 406.389 528.549 404.03C524.431 401.396 520.612 396.74 516.956 393.407C512.329 389.188 507.262 385.394 502.342 381.524C489.729 371.603 482.234 366.239 465.725 363.893C448.28 361.415 431.365 363.406 413.924 363.938C386.485 364.775 358.912 360.652 333.471 375.224C326.709 379.097 319.193 384.103 313.754 389.663C310.422 393.07 306.818 399.216 302.989 401.697C301.733 402.512 300.401 401.753 299.059 401.401L297.981 402.188C293.427 401.786 284.639 401.015 280.743 404.223C280.517 404.408 280.31 404.615 280.093 404.812L280.197 406.231C281.821 407.59 282.946 408.053 284.977 408.554L287.74 409.257C275.567 426.971 275.135 445.292 276.093 465.87C273.253 467.178 275.55 470.997 273.909 473.404C273.183 474.469 272.352 474.378 271.163 474.668C269.316 471.54 269.849 467.898 267.306 465.052C267.191 464.923 267.065 464.804 266.945 464.68Z"/>
	<path fill="#1B2126" d="M433.264 462.984C427.345 460.982 422.117 459.07 417.33 454.892C411.175 449.519 408.461 442.079 408.06 434.066C407.679 426.445 409.311 410.942 414.632 404.957C417.114 406.817 415.949 431.13 419.152 438.988C421.001 443.522 424.789 446.61 429.263 448.383C433.651 450.122 438.106 450.41 442.672 449.208C457.712 445.246 472.774 433.671 486.076 425.781C496.216 419.766 506.308 414.563 517.176 409.986C522.246 409.489 528.251 407.199 533.356 406.089C540.769 406.462 549.969 406.799 555.533 412.422C556.039 412.934 556.344 413.455 556.694 414.077C556.349 415.436 556.374 415.879 555.091 416.657C553.783 417.45 551.944 417.704 550.459 418.033L550.156 418.879C566.056 438.662 567.941 442.224 569.713 467.796C568.729 477.131 566.561 485.777 563.113 494.519C560.269 499.218 557.481 503.88 553.914 508.08C541.722 522.434 524.843 532.506 505.838 533.93C488.602 535.221 470.894 529.723 457.839 518.301C439.672 502.405 434.737 486.152 433.264 462.984Z"/>
	<path fill="#506D77" d="M501.569 447.917C505.644 447.383 508.931 447.79 512.861 448.971C518.563 450.684 523.4 453.99 526.241 459.333C529.445 465.36 529.634 473.007 527.605 479.439C524.684 488.694 518.074 493.992 509.745 498.295C506.173 498.556 503.295 498.091 499.964 496.76C492.655 493.84 487.189 488.356 484.124 481.108C481.615 475.171 481.145 468.712 483.736 462.715C487.217 454.659 493.814 451.058 501.569 447.917Z"/>
	<path fill="#B0D2D7" d="M494.577 463.592C498.098 460.322 500.649 458.498 505.296 457.065C510.371 458.312 514.843 459.508 517.715 464.361C519.81 467.899 519.802 473.079 518.675 476.955C518.585 477.261 518.482 477.563 518.386 477.867C516.458 480.469 514.493 483.046 511.525 484.527C508.324 486.125 504.7 486.525 501.291 485.367C497.992 484.246 495.441 481.736 494.008 478.592C491.668 473.461 492.659 468.646 494.577 463.592Z"/>
	<path fill="#1B2126" d="M287.74 409.257L284.977 408.554C282.946 408.053 281.821 407.59 280.197 406.231L280.093 404.812C280.31 404.615 280.517 404.408 280.743 404.223C284.639 401.015 293.427 401.786 297.981 402.188C303.758 404.769 308.99 407.762 314.26 411.273C323.794 419.061 355.26 448.297 366.656 446.608C369.845 446.135 372.35 443.536 374.076 440.974C380.452 431.51 380.114 413.505 387.498 406.196L389.003 406.612C392.137 412.626 389.16 434.112 387.164 440.404C384.243 449.616 378.966 454.287 371.256 459.713C369.643 481.527 367.144 502.402 349.456 517.698C340.303 525.613 328.652 529.802 316.529 528.716C302.303 527.442 292.358 519.166 283.585 508.583L283.187 508.096C301.225 520.41 309.337 523.913 331.13 522.437C312.581 519.343 302.14 517.155 289.276 502.612C282.048 490.697 278.777 479.422 276.093 465.87C275.135 445.292 275.567 426.971 287.74 409.257Z"/>
	<path fill="#506D77" d="M327.179 443.392C330.417 442.978 333.835 442.845 337.021 443.643C343.342 445.227 348.994 449.322 352.223 455.015C355.522 460.834 355.545 467.554 353.695 473.85C351.398 481.666 346.593 487.129 339.537 491.009C336.394 491.928 332.883 492.188 329.678 491.428C324.023 490.086 319.494 486.441 316.55 481.481C312.771 475.115 312.156 467.323 314.065 460.248C316.038 452.937 320.644 447.153 327.179 443.392Z"/>
	<path fill="#B0D2D7" d="M332.554 454.474C334.536 454.395 336.814 454.586 338.728 455.164Q339.349 455.351 339.948 455.598Q340.548 455.845 341.121 456.149Q341.693 456.453 342.234 456.812Q342.774 457.17 343.277 457.579Q343.781 457.988 344.241 458.444Q344.702 458.9 345.117 459.399Q345.531 459.897 345.895 460.434Q346.259 460.971 346.569 461.54C348.44 464.991 348.61 469.103 347.417 472.796C345.722 478.044 342.183 480.691 337.458 483.097C334.269 483.433 331.234 483.168 328.44 481.45C323.719 478.548 322.604 473.322 321.475 468.33Q321.837 467.106 322.226 465.89C324.21 459.724 326.947 457.33 332.554 454.474Z"/>
	<path fill="#495054" d="M592.304 516.755C592.302 516.862 592.295 516.969 592.299 517.076C592.333 518.019 592.333 518.76 592.005 519.676C587.354 532.677 568.328 541.361 556.53 546.294C557.651 547.212 558.033 547.789 558.555 549.137C558.024 551.895 553.909 554.874 552.06 557.173C550.724 558.833 549.865 560.158 550.092 562.297C550.668 562.576 551.101 562.808 551.753 562.856C568.333 564.073 584.249 555.954 595.783 544.718C598.136 542.426 599.453 539.474 601.813 537.328L602.107 538.837C599.043 548.16 591.157 559.417 583.296 565.154C560.391 581.868 529.718 560.568 509.641 577.724C489.751 594.72 497.985 626.761 477.213 645.327Q474.775 647.504 472.069 649.337C450.665 663.862 416.906 668.452 391.828 663.556C371.569 659.601 348.764 651.022 339.539 631.157C335.216 621.848 333.161 611.405 330.605 601.508C328.491 593.32 326.591 584.859 321.706 577.783C311.298 562.709 296.93 568.794 281.913 565.881C273.893 564.326 266.288 560.156 261.683 553.263C247.129 531.48 263.655 510.704 267.634 489.058C267.815 488.073 268.16 488.061 268.909 487.443L268.088 487.166C268.839 487.9 269.54 488.663 270.247 489.439C273.751 499.791 274.009 511.2 278.586 521.226C282.919 533.055 288.908 544.249 300.884 549.71C316.882 557.005 322.977 557.83 329.906 575.739C333.881 586.012 336.147 596.983 338.754 607.663C339.831 612.076 340.613 617.567 342.62 621.664C346.573 625.776 348.925 633.757 353.852 638.868C357.59 642.747 366.727 647.915 371.919 649.362C374.475 650.075 377.885 649.443 380.587 649.716C395.556 651.228 409.831 653.537 424.951 651.246C431.084 650.317 436.48 646.758 442.704 646.115C448.237 645.543 451.651 647.605 454.354 647.465C457.362 647.309 461.278 644.738 463.771 643.245C474.991 636.524 480.109 626.329 482.858 613.823C483.434 611.201 483.545 608.358 485.367 606.25C485.466 606.136 485.576 606.031 485.68 605.922C487.725 595.794 489.936 585.26 495.363 576.332C502.914 563.909 514.444 559.331 527.9 555.967C519.612 553.723 497.076 549.303 492.709 542.516C492.039 541.475 492.282 541.442 492.492 540.331C497.019 540.415 502.103 543.116 506.46 544.414C519.043 548.16 531.853 548.735 544.829 547.196C554.515 547.582 566.329 541.538 573.843 535.887C581.704 531.539 587.041 523.777 592.304 516.755Z"/>
	<path fill="#B8AF9C" d="M342.62 621.664C346.573 625.776 348.925 633.757 353.852 638.868C357.59 642.747 366.727 647.915 371.919 649.362C374.475 650.075 377.885 649.443 380.587 649.716C395.556 651.228 409.831 653.537 424.951 651.246C431.084 650.317 436.48 646.758 442.704 646.115C448.237 645.543 451.651 647.605 454.354 647.465C457.362 647.309 461.278 644.738 463.771 643.245C474.991 636.524 480.109 626.329 482.858 613.823C483.434 611.201 483.545 608.358 485.367 606.25C485.466 606.136 485.576 606.031 485.68 605.922C484.056 620.059 479.618 632.654 468.148 641.727C448.301 657.426 418.192 659.405 393.949 656.33C377.898 654.294 359.252 648.489 348.884 635.3C345.677 631.22 343.766 626.692 342.62 621.664Z"/>
	<path fill="#B8AF9C" d="M297.981 402.188L299.059 401.401C300.401 401.753 301.733 402.512 302.989 401.697C306.818 399.216 310.422 393.07 313.754 389.663C319.193 384.103 326.709 379.097 333.471 375.224C358.912 360.652 386.485 364.775 413.924 363.938C431.365 363.406 448.28 361.415 465.725 363.893C482.234 366.239 489.729 371.603 502.342 381.524C507.262 385.394 512.329 389.188 516.956 393.407C520.612 396.74 524.431 401.396 528.549 404.03C532.236 406.389 536.941 403.459 540.635 405.058C538.331 405.973 535.717 405.211 533.356 406.089C528.251 407.199 522.246 409.489 517.176 409.986L517.342 409.02C518.799 408.401 520.281 407.732 521.793 407.261C523.446 406.746 525.259 406.094 526.793 406.943L526.877 406.218C515.806 396.037 495.085 376.228 481.641 370.96C459.539 362.298 434.006 366.573 410.997 367.014C394.874 367.323 377.72 366.498 361.783 369.384C352.836 371.004 344.124 374.731 335.807 378.289C339.456 380.389 343.467 382.543 346.749 385.159C348.209 386.324 348.74 386.681 348.96 388.509C342.727 385.785 335.671 379.322 327.264 375.722C331.561 381.01 337.023 385.274 342.179 389.694C337.417 388.241 334.309 385.259 330.882 381.78C322.053 386.664 311.603 394.459 305.808 402.905L306.726 404.633L305.408 403.665C306.757 407.18 313.332 406.238 314.26 411.273C308.99 407.762 303.758 404.769 297.981 402.188Z"/>
	<path fill="#B8AF9C" d="M569.713 467.796C570.916 465.811 570.544 463.256 570.519 461C571.902 466.613 571.8 471.795 572.672 477.407C573.996 485.938 577.225 497.202 576.267 505.753C575.8 509.926 574.043 514.294 572.937 518.353C571.822 522.443 571.497 526.01 569.843 530.035C568.858 532.43 567.426 534.464 569.436 536.629C571.036 536.874 572.339 536.355 573.843 535.887C566.329 541.538 554.515 547.582 544.829 547.196L544.912 546.263C546.55 545.349 549.161 545.799 551.067 545.318C555.057 544.311 559.086 542.547 562.942 541.092L562.375 541.492C572.035 513.224 576.905 508.637 569.757 477.306C569.74 477.399 569.725 477.492 569.705 477.584C568.652 482.293 567.273 491.792 563.113 494.519C566.561 485.777 568.729 477.131 569.713 467.796Z"/>
	<path fill="#495054" d="M327.264 375.722C335.671 379.322 342.727 385.785 348.96 388.509C353.868 392.501 358.947 396.729 362.961 401.633C365.052 404.188 368.689 408.931 368.335 412.324C362.119 411.421 348.601 394.337 342.717 390.071C342.54 389.943 342.359 389.82 342.179 389.694C337.023 385.274 331.561 381.01 327.264 375.722Z"/>
	<path fill="#B8AF9C" d="M266.945 464.68C267.065 464.804 267.191 464.923 267.306 465.052C269.849 467.898 269.316 471.54 271.163 474.668C272.352 474.378 273.183 474.469 273.909 473.404C275.55 470.997 273.253 467.178 276.093 465.87C278.777 479.422 282.048 490.697 289.276 502.612C285.554 501.151 283.517 495.734 282.001 492.271C280.554 488.966 279.475 485.481 278.371 482.049C277.429 482.886 277.544 483.08 277.092 484.201C276.112 486.637 273.987 487.885 271.897 489.314C273.122 495.319 279.362 516.999 278.586 521.226C274.009 511.2 273.751 499.791 270.247 489.439C269.345 481.147 267.491 473.036 266.945 464.68Z"/>
	<path fill="#1B2126" d="M358.062 580.714C358.691 581.043 358.982 581.159 359.515 581.55C364.118 584.929 364.917 597.697 365.767 602.927C375.517 598.992 385.679 598.113 396.039 597.239C396.146 593.319 395.752 587.97 397.779 584.489C398.4 583.423 398.623 583.543 399.812 583.236C404.015 586.131 404.877 592.773 406.078 597.432C418.188 598.613 429.434 601.871 440.93 605.701Q441.141 599.592 441.726 593.508C442.118 589.473 443.094 584.802 446.38 582.107L447.826 582.307C451.596 586.918 451.837 597.962 452.68 603.934C453.488 610.253 457.543 617.392 457.081 623.467C455.494 624.111 455.327 624.047 453.681 623.641C437.163 619.564 426.953 612.93 408.349 610.967C395.428 609.604 381.558 610.782 369.285 615.112C364.01 616.973 358.801 619.596 353.469 621.17C351.315 621.806 350.922 621.784 348.917 620.791C349.029 616.869 356.121 584.91 358.062 580.714Z"/>
	<path fill="#1B2126" d="M391.65 495.732C392.941 495.949 394.243 496.227 395.481 496.661C400.486 498.414 404.505 507.899 406.658 512.45C411.084 521.809 422.534 540.75 418.849 551.057C417.601 552.335 417.054 553.077 415.091 553.058C407.432 552.981 398.572 542.201 393.7 537.215C392.532 536.322 391.296 535.153 389.827 534.849C388.577 534.59 381.659 549.175 377.327 552.031C375.888 552.979 374.207 553.6 372.499 553.04C371.028 552.559 369.613 551.268 368.998 549.855C366.434 543.963 369.923 533.927 371.914 528.292C375.63 517.773 380.954 500.825 391.65 495.732Z"/>
	<path fill="#495054" d="M486.239 377.924C487.823 377.884 488.497 377.889 489.918 378.72L489.921 380.355C483.702 385.748 474.808 389.648 467.753 394.035C456.244 401.193 445.049 409.089 434.084 417.054L432.289 417.706L431.123 417.023C431.14 416.458 431.11 416.295 431.327 415.688C436.653 400.784 471.535 383.263 486.239 377.924Z"/>
	<path fill="#495054" d="M387.492 626.397C391.086 626.203 394.712 625.989 398.309 626.188C402.704 626.43 412.778 626.86 415.868 630.321L415.535 631.875L413.181 633.346Q404.666 634.296 396.128 633.589C392.657 633.281 386.839 632.949 384.444 630.096C384.894 627.741 385.592 627.741 387.492 626.397Z"/>
	<path fill="#EDE3C9" d="M694.61 210.566C693.041 209.13 690.75 207.749 690.378 205.646C698.565 190.293 717.512 174.391 734.018 169.306C745.334 165.819 757.143 167.162 767.511 172.866C790.319 185.413 804.966 212.007 811.807 236.383C821.892 272.319 818.244 314.713 799.732 347.353C785.493 372.458 759.223 395.104 731.181 402.729C716.58 406.698 702.041 409.358 686.857 408.381C682.432 408.096 678.187 406.914 673.727 406.707C672.581 406.365 671.402 406.019 670.326 405.492C666.008 403.376 664.062 390.759 662.827 386.246C667.611 384.789 672.597 384.493 677.454 383.273C694.034 379.108 709.758 370.327 720.322 356.599C735.878 336.386 739.919 311.883 736.689 287.072C732.856 257.626 718.422 228.852 694.61 210.566Z"/>
	<path fill="#EDE3C9" d="M898.4 820.988C891.197 806.405 879.073 793.948 864.922 786.06C848.478 776.895 829.669 774.325 811.567 779.676Q809.959 780.146 808.376 780.696Q806.794 781.246 805.24 781.874Q803.687 782.502 802.167 783.207Q800.647 783.912 799.164 784.691Q797.681 785.471 796.239 786.324Q794.797 787.176 793.399 788.1Q792.001 789.023 790.651 790.015Q789.302 791.008 788.003 792.066Q786.704 793.124 785.459 794.245Q784.215 795.367 783.028 796.549Q781.841 797.732 780.715 798.972Q779.588 800.212 778.525 801.506Q777.462 802.801 776.465 804.147Q775.467 805.493 774.538 806.887Q773.61 808.281 772.751 809.72Q771.893 811.158 771.108 812.638C765.498 823.252 763.272 835.008 763.331 846.93C763.599 901.711 814.144 932.808 829.265 981.483Q829.686 982.814 830.074 984.154Q830.462 985.495 830.816 986.844Q831.171 988.194 831.492 989.552Q831.814 990.91 832.101 992.276Q832.389 993.641 832.643 995.014Q832.897 996.386 833.117 997.764Q833.336 999.142 833.522 1000.53Q833.708 1001.91 833.86 1003.3Q834.011 1004.68 834.129 1006.07Q834.246 1007.46 834.329 1008.86Q834.412 1010.25 834.461 1011.65Q834.51 1013.04 834.524 1014.44Q834.538 1015.83 834.518 1017.23Q834.497 1018.62 834.443 1020.02Q834.388 1021.41 834.299 1022.8Q834.21 1024.2 834.086 1025.59Q833.963 1026.98 833.805 1028.36Q833.647 1029.75 833.456 1031.13Q833.264 1032.51 833.038 1033.89Q832.812 1035.27 832.552 1036.64Q832.292 1038.01 831.999 1039.37Q831.705 1040.74 831.378 1042.1Q831.051 1043.45 830.69 1044.8Q830.329 1046.15 829.936 1047.49Q829.542 1048.83 829.115 1050.16Q828.689 1051.48 828.229 1052.8Q827.77 1054.12 827.278 1055.43Q826.786 1056.73 826.263 1058.03Q825.739 1059.32 825.183 1060.6Q824.628 1061.88 824.041 1063.15Q823.454 1064.41 822.836 1065.66Q822.218 1066.91 821.569 1068.15C811.511 1087.05 786.709 1111.7 766.023 1117.93C755.145 1121.21 740.345 1122.78 729.972 1117.15C721.67 1112.64 717.128 1104.47 714.525 1095.64C715.503 1094.25 715.624 1094.04 717.251 1093.58C719.846 1092.85 723.353 1093.44 726.123 1093.29C731.013 1093.03 735.908 1092 740.616 1090.69C765.183 1083.85 782.707 1072.24 795.263 1049.54C801.168 1038.86 803.972 1025.74 804.566 1013.59C807.459 954.361 758.463 924.855 743.742 871.627C736.744 846.323 738.561 819.909 751.888 796.957C761.794 779.896 779.707 766.414 798.791 761.452C820.828 755.723 844.995 758.21 864.732 769.952C883.273 780.982 897.767 798.547 903.03 819.648L898.4 820.988Z"/>
	<path fill="#506D77" d="M387.76 256.05C407.94 256.43 430.642 267.517 448.13 276.866C529.172 320.191 597.669 399.698 639.685 480.347C649.457 499.103 659.306 519.554 665.397 539.828C670.156 555.665 667.576 566.212 659.813 580.358C632.927 629.346 553.038 661.019 503.734 680.948C493.182 685.213 482.51 691.414 471.676 694.648L471.697 692.819L471.544 694.593L471.597 692.176L473.459 692.343L473.253 692.558C488.98 681.116 508.543 673.281 526.187 665.106C568.983 645.278 629.353 616.277 651.436 572.714C657.972 559.821 656.908 548.817 652.417 535.447C645.941 516.167 636.613 496.959 627.077 479.022C584.262 398.498 515.74 321.504 433.209 280.532C427.185 277.581 420.798 274.996 414.484 272.739C393.644 265.292 382.859 266.209 362.911 275.73C284.25 313.272 237.115 396.386 209.243 475.541C202.729 494.041 188.726 535.59 190.042 554.261C190.862 565.912 197.29 576.503 203.664 585.978C220.39 610.838 243.629 629.663 268.697 645.649C302.8 667.397 343.462 683.91 362.002 722.59C357.245 717.26 351.436 712.776 345.897 708.297C322.402 689.297 299.61 677.98 274.14 662.792Q263.162 656.268 252.688 648.96Q242.215 641.653 232.303 633.601C212.197 616.998 195.851 597.787 184.518 574.187C182.163 569.283 179.361 563.912 178.91 558.407C177.881 545.814 184.606 527.209 188.246 514.843C206.331 453.407 232.917 382.508 274.474 333.025C296.215 307.138 321.356 286.382 350.839 269.89C362.379 263.434 374.403 257.21 387.76 256.05Z"/>
	<path fill="#EDE3C9" d="M216.909 370.561C195.377 359.565 181.34 340.056 173.02 317.805C159.646 282.036 161.263 236.658 177.27 201.964C183.657 188.121 194.207 169.723 209.233 164.376C215.078 162.297 221.17 162.748 226.729 165.473C241.372 172.651 248.008 190.381 252.944 204.861Q246.981 210.019 241.759 215.926C227.591 228.298 218.355 255.619 217.082 274.08C215.819 292.387 219.783 315.284 232.224 329.397Q233.361 330.684 234.679 331.785C228.543 344.685 221.625 357.025 216.909 370.561Z"/>
	<path fill="#506D77" d="M741.508 142.804C752.381 142.118 763.735 145.349 773.379 150.183C791.282 159.157 807.969 179.788 814.371 198.931C804.33 182.587 792.336 167.351 775.018 158.195C761.167 150.872 746.425 148.913 731.409 153.633C700.453 163.365 680.448 193.671 666.023 220.914C651.505 249.218 642.823 278.662 637.031 309.819C636.346 297.228 636.499 284.947 638.48 272.456C643.994 237.683 662.115 200.119 684.866 173.357C699.672 155.942 718.502 144.623 741.508 142.804Z"/>
	<path fill="#506D77" d="M209.91 136.686Q211.691 136.573 213.475 136.515C226.505 136.122 239.388 142.519 248.662 151.359C276.525 177.918 286.045 221.705 286.818 258.663C285.326 260.997 283.335 262.961 281.46 264.99Q280.808 258.053 279.928 251.141C275.349 217.01 265.35 175.041 236.512 153.061C231.305 149.6 225.768 146.934 219.488 146.2C209.075 144.983 198.934 149.278 190.927 155.684C164.604 176.747 153.683 216.633 150.377 248.591C149.562 244.034 149.902 238.816 150.001 234.181C150.517 209.963 157.226 185.197 171.063 165.084C180.568 151.266 193.023 139.805 209.91 136.686Z"/>
	<path fill="#B8AF9C" d="M286.825 794.187C289.563 794.006 291.787 793.904 294.352 795.12C301.22 798.376 307.448 804.574 313.729 808.956C320.732 813.841 328.347 817.706 335.918 821.619C334.632 825.931 332.952 830.035 331.244 834.192C328.364 833.073 325.699 831.567 322.991 830.092C306.44 820.978 288.023 809.947 268.667 809.275C273.825 802.811 279.47 797.979 286.825 794.187Z"/>
	<path fill="#B8AF9C" d="M307.294 767.848C309.676 768.033 311.639 768.745 313.719 769.886C321.599 774.209 349.881 796.137 351.541 804.2C351.893 805.906 351.701 806.531 350.741 807.903C348.452 808.758 346.973 808.186 344.764 807.509C326.64 800.547 311.947 787.306 297.201 775.111C300.254 771.957 303.384 769.818 307.294 767.848Z"/>
	<path fill="#B8AF9C" d="M448.931 820.572C454.785 820.136 461.017 821.465 466.217 824.163C479.604 831.111 487.1 844.012 491.522 857.856C488.149 855.888 485.123 852.951 482.124 850.446C468.403 837.973 453.321 832.166 435.139 829.778C439.352 825.678 443.491 822.839 448.931 820.572Z"/>
	<path fill="#B8AF9C" d="M496.393 783.953C500.696 783.825 505.34 784.533 509.437 785.843C522.732 790.095 533.329 800.766 539.579 812.978L526.181 806.269C510.489 798.081 494.556 793.514 476.722 795.936C483.215 789.023 487.081 785.965 496.393 783.953Z"/>
	<path fill="#B8AF9C" d="M475.645 805.595C477.388 805.721 479.153 805.846 480.875 806.153C492.133 808.161 502.443 818.35 508.583 827.424C510.909 830.863 514.489 837.222 513.694 841.489L512.469 841.661L509.977 839.519C496.929 826.198 483.432 817.689 465.958 811.346C469.111 809.046 472.059 807.149 475.645 805.595Z"/>
	<path fill="#B8AF9C" d="M903.03 819.648C905.07 826.615 905.187 834.418 905.887 841.641C903.866 834.579 901.489 827.658 898.4 820.988L903.03 819.648Z"/>
</svg>
