<svg width="920" height="220" viewBox="0 0 920 220" fill="none" xmlns="http://www.w3.org/2000/svg">
  <g clip-path="url(#clip0_92_1758)">
    <rect width="700" height="220" transform="translate(80)"/>
    <rect x="82" y="12" width="56" height="56" rx="10" stroke="#DFE2FD" stroke-width="4"/>
    <rect x="82" y="82" width="56" height="56" rx="10" stroke="#DFE2FD" stroke-width="4"/>
    <rect x="82" y="152" width="56" height="56" rx="10" stroke="#DFE2FD" stroke-width="4"/>
    <rect x="154" y="12" width="56" height="56" rx="10" stroke="#DFE2FD" stroke-width="4"/>
    <rect x="154" y="82" width="56" height="56" rx="10" stroke="#DFE2FD" stroke-width="4"/>
    <rect x="154" y="152" width="56" height="56" rx="10" stroke="#DFE2FD" stroke-width="4"/>
    <rect x="226" y="12" width="56" height="56" rx="10" stroke="#DFE2FD" stroke-width="4"/>
    <rect x="226" y="82" width="56" height="56" rx="10" stroke="#DFE2FD" stroke-width="4"/>
    <rect x="226" y="152" width="56" height="56" rx="10" stroke="#DFE2FD" stroke-width="4"/>
    <circle cx="394" cy="110.378" r="6" fill="#DFE2FD"/>
    <circle cx="300" cy="110.378" r="6" fill="#DFE2FD"/>
    <rect x="410" y="82" width="149" height="56" rx="10" stroke="#DFE2FD" stroke-width="4"/>
    <rect x="422" y="91.6216" width="124" height="36" rx="6" fill="#787DC6"/>
    <rect x="434" y="103.622" width="100" height="12" rx="6"/>
    <path d="M687.959 27.5602L684.462 37.3784H681.906L678.409 27.5602H680.876L683.133 34.8536H683.235L685.498 27.5602H687.959ZM692.104 37.5766C691.482 37.5766 690.922 37.4658 690.423 37.2442C689.929 37.0183 689.537 36.6859 689.247 36.247C688.961 35.8081 688.819 35.2669 688.819 34.6234C688.819 34.0695 688.921 33.6114 689.125 33.2492C689.33 32.8869 689.609 32.5972 689.963 32.3798C690.316 32.1625 690.715 31.9984 691.158 31.8877C691.605 31.7726 692.068 31.6895 692.545 31.6384C693.12 31.5787 693.587 31.5254 693.945 31.4786C694.303 31.4274 694.563 31.3507 694.725 31.2484C694.891 31.1419 694.974 30.9778 694.974 30.7563V30.7179C694.974 30.2364 694.831 29.8635 694.546 29.5993C694.26 29.3351 693.849 29.203 693.312 29.203C692.745 29.203 692.296 29.3266 691.963 29.5737C691.635 29.8209 691.414 30.1128 691.299 30.4494L689.138 30.1426C689.309 29.546 689.59 29.0475 689.982 28.6469C690.374 28.2421 690.853 27.9395 691.42 27.7392C691.987 27.5347 692.613 27.4324 693.299 27.4324C693.772 27.4324 694.243 27.4878 694.712 27.5986C695.181 27.7094 695.609 27.8926 695.997 28.1483C696.385 28.3997 696.696 28.7428 696.93 29.1774C697.169 29.6121 697.288 30.1554 697.288 30.8074V37.3784H695.064V36.0297H694.987C694.846 36.3024 694.648 36.5581 694.392 36.7967C694.141 37.0311 693.824 37.2207 693.44 37.3656C693.061 37.5063 692.615 37.5766 692.104 37.5766ZM692.705 35.8763C693.169 35.8763 693.572 35.7847 693.913 35.6014C694.254 35.4139 694.516 35.1668 694.699 34.86C694.887 34.5531 694.98 34.2186 694.98 33.8564V32.6994C694.908 32.7591 694.784 32.8145 694.61 32.8656C694.439 32.9168 694.248 32.9615 694.034 32.9999C693.821 33.0382 693.61 33.0723 693.402 33.1021C693.193 33.132 693.012 33.1575 692.858 33.1788C692.513 33.2257 692.204 33.3024 691.931 33.409C691.659 33.5155 691.444 33.6646 691.286 33.8564C691.128 34.0439 691.049 34.2868 691.049 34.5851C691.049 35.0112 691.205 35.333 691.516 35.5503C691.827 35.7676 692.223 35.8763 692.705 35.8763ZM699.615 37.3784V27.5602H701.858V29.1966H701.961C702.14 28.6298 702.446 28.193 702.881 27.8862C703.32 27.5752 703.821 27.4196 704.383 27.4196C704.511 27.4196 704.654 27.426 704.811 27.4388C704.973 27.4473 705.108 27.4622 705.214 27.4835V29.6121C705.116 29.578 704.961 29.5482 704.748 29.5226C704.539 29.4928 704.336 29.4778 704.14 29.4778C703.718 29.4778 703.339 29.5695 703.002 29.7527C702.67 29.9317 702.408 30.181 702.216 30.5006C702.025 30.8202 701.929 31.1888 701.929 31.6064V37.3784H699.615ZM706.751 37.3784V27.5602H709.065V37.3784H706.751ZM707.915 26.1668C707.548 26.1668 707.233 26.0453 706.969 25.8024C706.705 25.5553 706.572 25.2591 706.572 24.9139C706.572 24.5645 706.705 24.2683 706.969 24.0254C707.233 23.7783 707.548 23.6547 707.915 23.6547C708.286 23.6547 708.601 23.7783 708.861 24.0254C709.125 24.2683 709.257 24.5645 709.257 24.9139C709.257 25.2591 709.125 25.5553 708.861 25.8024C708.601 26.0453 708.286 26.1668 707.915 26.1668ZM714.27 37.5766C713.648 37.5766 713.088 37.4658 712.589 37.2442C712.095 37.0183 711.703 36.6859 711.413 36.247C711.127 35.8081 710.985 35.2669 710.985 34.6234C710.985 34.0695 711.087 33.6114 711.291 33.2492C711.496 32.8869 711.775 32.5972 712.129 32.3798C712.482 32.1625 712.881 31.9984 713.324 31.8877C713.771 31.7726 714.234 31.6895 714.711 31.6384C715.286 31.5787 715.753 31.5254 716.111 31.4786C716.469 31.4274 716.729 31.3507 716.891 31.2484C717.057 31.1419 717.14 30.9778 717.14 30.7563V30.7179C717.14 30.2364 716.997 29.8635 716.712 29.5993C716.426 29.3351 716.015 29.203 715.478 29.203C714.911 29.203 714.462 29.3266 714.129 29.5737C713.801 29.8209 713.58 30.1128 713.465 30.4494L711.304 30.1426C711.475 29.546 711.756 29.0475 712.148 28.6469C712.54 28.2421 713.019 27.9395 713.586 27.7392C714.153 27.5347 714.779 27.4324 715.465 27.4324C715.938 27.4324 716.409 27.4878 716.878 27.5986C717.347 27.7094 717.775 27.8926 718.163 28.1483C718.551 28.3997 718.862 28.7428 719.096 29.1774C719.335 29.6121 719.454 30.1554 719.454 30.8074V37.3784H717.23V36.0297H717.153C717.012 36.3024 716.814 36.5581 716.558 36.7967C716.307 37.0311 715.99 37.2207 715.606 37.3656C715.227 37.5063 714.781 37.5766 714.27 37.5766ZM714.871 35.8763C715.335 35.8763 715.738 35.7847 716.079 35.6014C716.42 35.4139 716.682 35.1668 716.865 34.86C717.053 34.5531 717.146 34.2186 717.146 33.8564V32.6994C717.074 32.7591 716.95 32.8145 716.776 32.8656C716.605 32.9168 716.414 32.9615 716.2 32.9999C715.987 33.0382 715.776 33.0723 715.568 33.1021C715.359 33.132 715.178 33.1575 715.024 33.1788C714.679 33.2257 714.37 33.3024 714.097 33.409C713.825 33.5155 713.61 33.6646 713.452 33.8564C713.294 34.0439 713.215 34.2868 713.215 34.5851C713.215 35.0112 713.371 35.333 713.682 35.5503C713.993 35.7676 714.389 35.8763 714.871 35.8763ZM724.095 31.6256V37.3784H721.781V27.5602H723.992V29.2286H724.107C724.333 28.6788 724.693 28.2421 725.188 27.9182C725.686 27.5943 726.302 27.4324 727.035 27.4324C727.713 27.4324 728.303 27.5773 728.806 27.8671C729.313 28.1568 729.705 28.5766 729.982 29.1263C730.263 29.676 730.401 30.3429 730.397 31.127V37.3784H728.083V31.485C728.083 30.8287 727.913 30.3152 727.572 29.9445C727.235 29.5737 726.769 29.3884 726.172 29.3884C725.767 29.3884 725.407 29.4778 725.092 29.6568C724.781 29.8315 724.536 30.0851 724.357 30.4175C724.182 30.7499 724.095 31.1526 724.095 31.6256ZM737.652 27.5602V29.35H732.008V27.5602H737.652ZM733.401 25.208H735.715V34.4253C735.715 34.7364 735.762 34.975 735.856 35.1412C735.954 35.3031 736.082 35.4139 736.24 35.4736C736.397 35.5332 736.572 35.5631 736.764 35.5631C736.909 35.5631 737.041 35.5524 737.16 35.5311C737.284 35.5098 737.377 35.4906 737.441 35.4736L737.831 37.2825C737.708 37.3252 737.531 37.372 737.301 37.4232C737.075 37.4743 736.798 37.5041 736.47 37.5127C735.89 37.5297 735.368 37.4423 734.904 37.2506C734.439 37.0546 734.07 36.752 733.798 36.3429C733.529 35.9338 733.397 35.4225 733.401 34.8088V25.208ZM682.014 68.5766C681.392 68.5766 680.832 68.4658 680.333 68.2442C679.839 68.0183 679.447 67.6859 679.157 67.247C678.871 66.8081 678.729 66.2669 678.729 65.6234C678.729 65.0695 678.831 64.6114 679.036 64.2492C679.24 63.8869 679.519 63.5972 679.873 63.3798C680.227 63.1625 680.625 62.9984 681.068 62.8877C681.516 62.7726 681.978 62.6895 682.455 62.6384C683.031 62.5787 683.497 62.5254 683.855 62.4786C684.213 62.4274 684.473 62.3507 684.635 62.2484C684.801 62.1419 684.884 61.9778 684.884 61.7563V61.7179C684.884 61.2364 684.741 60.8635 684.456 60.5993C684.17 60.3351 683.759 60.203 683.222 60.203C682.656 60.203 682.206 60.3266 681.874 60.5737C681.545 60.8209 681.324 61.1128 681.209 61.4494L679.048 61.1426C679.219 60.546 679.5 60.0475 679.892 59.6469C680.284 59.2421 680.763 58.9395 681.33 58.7392C681.897 58.5347 682.523 58.4324 683.21 58.4324C683.683 58.4324 684.153 58.4878 684.622 58.5986C685.091 58.7094 685.519 58.8926 685.907 59.1483C686.295 59.3997 686.606 59.7428 686.84 60.1774C687.079 60.6121 687.198 61.1554 687.198 61.8074V68.3784H684.974V67.0297H684.897C684.756 67.3024 684.558 67.5581 684.303 67.7967C684.051 68.0311 683.734 68.2207 683.35 68.3656C682.971 68.5063 682.526 68.5766 682.014 68.5766ZM682.615 66.8763C683.08 66.8763 683.482 66.7847 683.823 66.6014C684.164 66.4139 684.426 66.1668 684.609 65.86C684.797 65.5531 684.891 65.2186 684.891 64.8564V63.6994C684.818 63.7591 684.695 63.8145 684.52 63.8656C684.349 63.9168 684.158 63.9615 683.945 63.9999C683.732 64.0382 683.521 64.0723 683.312 64.1021C683.103 64.132 682.922 64.1575 682.768 64.1788C682.423 64.2257 682.114 64.3024 681.842 64.409C681.569 64.5155 681.354 64.6646 681.196 64.8564C681.038 65.0439 680.96 65.2868 680.96 65.5851C680.96 66.0112 681.115 66.333 681.426 66.5503C681.737 66.7676 682.134 66.8763 682.615 66.8763ZM689.525 72.0602V58.5602H691.8V60.1838H691.935C692.054 59.9452 692.222 59.6916 692.44 59.4232C692.657 59.1504 692.951 58.9182 693.322 58.7264C693.692 58.5304 694.165 58.4324 694.741 58.4324C695.499 58.4324 696.183 58.6263 696.793 59.0141C697.406 59.3976 697.892 59.9665 698.25 60.7207C698.612 61.4707 698.793 62.3912 698.793 63.4821C698.793 64.5602 698.616 65.4764 698.263 66.2307C697.909 66.985 697.428 67.5602 696.818 67.9565C696.209 68.3528 695.518 68.551 694.747 68.551C694.185 68.551 693.718 68.4573 693.347 68.2698C692.977 68.0823 692.678 67.8564 692.452 67.5922C692.231 67.3237 692.058 67.0702 691.935 66.8315H691.839V72.0602H689.525ZM691.794 63.4693C691.794 64.1043 691.884 64.6604 692.062 65.1377C692.246 65.6149 692.508 65.9878 692.849 66.2563C693.194 66.5205 693.612 66.6526 694.102 66.6526C694.613 66.6526 695.041 66.5162 695.386 66.2435C695.732 65.9665 695.991 65.5894 696.166 65.1121C696.345 64.6305 696.435 64.083 696.435 63.4693C696.435 62.86 696.347 62.3188 696.173 61.8457C695.998 61.3727 695.738 61.002 695.393 60.7335C695.048 60.4651 694.617 60.3308 694.102 60.3308C693.607 60.3308 693.188 60.4608 692.842 60.7207C692.497 60.9807 692.235 61.345 692.056 61.8138C691.881 62.2825 691.794 62.8344 691.794 63.4693ZM700.775 72.0602V58.5602H703.05V60.1838H703.185C703.304 59.9452 703.472 59.6916 703.69 59.4232C703.907 59.1504 704.201 58.9182 704.572 58.7264C704.942 58.5304 705.415 58.4324 705.991 58.4324C706.749 58.4324 707.433 58.6263 708.043 59.0141C708.656 59.3976 709.142 59.9665 709.5 60.7207C709.862 61.4707 710.043 62.3912 710.043 63.4821C710.043 64.5602 709.866 65.4764 709.513 66.2307C709.159 66.985 708.678 67.5602 708.068 67.9565C707.459 68.3528 706.768 68.551 705.997 68.551C705.435 68.551 704.968 68.4573 704.597 68.2698C704.227 68.0823 703.928 67.8564 703.702 67.5922C703.481 67.3237 703.308 67.0702 703.185 66.8315H703.089V72.0602H700.775ZM703.044 63.4693C703.044 64.1043 703.134 64.6604 703.312 65.1377C703.496 65.6149 703.758 65.9878 704.099 66.2563C704.444 66.5205 704.862 66.6526 705.352 66.6526C705.863 66.6526 706.291 66.5162 706.636 66.2435C706.982 65.9665 707.241 65.5894 707.416 65.1121C707.595 64.6305 707.685 64.083 707.685 63.4693C707.685 62.86 707.597 62.3188 707.423 61.8457C707.248 61.3727 706.988 61.002 706.643 60.7335C706.298 60.4651 705.867 60.3308 705.352 60.3308C704.857 60.3308 704.438 60.4608 704.092 60.7207C703.747 60.9807 703.485 61.345 703.306 61.8138C703.131 62.2825 703.044 62.8344 703.044 63.4693ZM716.371 68.5702C715.387 68.5702 714.537 68.3656 713.821 67.9565C713.109 67.5432 712.562 66.9594 712.178 66.2051C711.795 65.4466 711.603 64.5538 711.603 63.5269C711.603 62.5169 711.795 61.6305 712.178 60.8678C712.566 60.1007 713.107 59.5041 713.802 59.078C714.496 58.6476 715.312 58.4324 716.25 58.4324C716.855 58.4324 717.426 58.5304 717.963 58.7264C718.504 58.9182 718.982 59.2165 719.395 59.6213C719.813 60.0261 720.141 60.5418 720.379 61.1682C720.618 61.7903 720.737 62.5318 720.737 63.3926V64.1021H712.69V62.5425H718.519C718.515 62.0993 718.419 61.7051 718.232 61.36C718.044 61.0105 717.782 60.7357 717.445 60.5354C717.113 60.3351 716.725 60.235 716.282 60.235C715.809 60.235 715.393 60.35 715.036 60.5801C714.678 60.806 714.398 61.1043 714.198 61.475C714.002 61.8415 713.902 62.2442 713.898 62.6831V64.0446C713.898 64.6156 714.002 65.1057 714.211 65.5148C714.42 65.9196 714.712 66.2307 715.087 66.448C715.462 66.6611 715.901 66.7676 716.403 66.7676C716.74 66.7676 717.045 66.7207 717.317 66.627C717.59 66.529 717.827 66.3862 718.027 66.1987C718.227 66.0112 718.379 65.779 718.481 65.502L720.641 65.7449C720.505 66.3159 720.245 66.8145 719.862 67.2406C719.482 67.6625 718.996 67.9906 718.404 68.225C717.812 68.4551 717.134 68.5702 716.371 68.5702ZM725.52 68.5766C724.898 68.5766 724.338 68.4658 723.839 68.2442C723.345 68.0183 722.953 67.6859 722.663 67.247C722.377 66.8081 722.235 66.2669 722.235 65.6234C722.235 65.0695 722.337 64.6114 722.541 64.2492C722.746 63.8869 723.025 63.5972 723.379 63.3798C723.732 63.1625 724.131 62.9984 724.574 62.8877C725.021 62.7726 725.484 62.6895 725.961 62.6384C726.536 62.5787 727.003 62.5254 727.361 62.4786C727.719 62.4274 727.979 62.3507 728.141 62.2484C728.307 62.1419 728.39 61.9778 728.39 61.7563V61.7179C728.39 61.2364 728.247 60.8635 727.962 60.5993C727.676 60.3351 727.265 60.203 726.728 60.203C726.161 60.203 725.712 60.3266 725.379 60.5737C725.051 60.8209 724.83 61.1128 724.715 61.4494L722.554 61.1426C722.725 60.546 723.006 60.0475 723.398 59.6469C723.79 59.2421 724.269 58.9395 724.836 58.7392C725.403 58.5347 726.029 58.4324 726.715 58.4324C727.188 58.4324 727.659 58.4878 728.128 58.5986C728.597 58.7094 729.025 58.8926 729.413 59.1483C729.801 59.3997 730.112 59.7428 730.346 60.1774C730.585 60.6121 730.704 61.1554 730.704 61.8074V68.3784H728.48V67.0297H728.403C728.262 67.3024 728.064 67.5581 727.808 67.7967C727.557 68.0311 727.24 68.2207 726.856 68.3656C726.477 68.5063 726.031 68.5766 725.52 68.5766ZM726.121 66.8763C726.585 66.8763 726.988 66.7847 727.329 66.6014C727.67 66.4139 727.932 66.1668 728.115 65.86C728.303 65.5531 728.396 65.2186 728.396 64.8564V63.6994C728.324 63.7591 728.2 63.8145 728.026 63.8656C727.855 63.9168 727.664 63.9615 727.45 63.9999C727.237 64.0382 727.026 64.0723 726.818 64.1021C726.609 64.132 726.428 64.1575 726.274 64.1788C725.929 64.2257 725.62 64.3024 725.347 64.409C725.075 64.5155 724.86 64.6646 724.702 64.8564C724.544 65.0439 724.465 65.2868 724.465 65.5851C724.465 66.0112 724.621 66.333 724.932 66.5503C725.243 66.7676 725.639 66.8763 726.121 66.8763ZM733.031 68.3784V58.5602H735.274V60.1966H735.377C735.556 59.6298 735.862 59.193 736.297 58.8862C736.736 58.5752 737.237 58.4196 737.799 58.4196C737.927 58.4196 738.07 58.426 738.227 58.4388C738.389 58.4473 738.524 58.4622 738.63 58.4835V60.6121C738.532 60.578 738.377 60.5482 738.164 60.5226C737.955 60.4928 737.752 60.4778 737.556 60.4778C737.134 60.4778 736.755 60.5695 736.419 60.7527C736.086 60.9317 735.824 61.181 735.632 61.5006C735.441 61.8202 735.345 62.1888 735.345 62.6064V68.3784H733.031ZM742.817 68.5766C742.195 68.5766 741.634 68.4658 741.136 68.2442C740.642 68.0183 740.249 67.6859 739.96 67.247C739.674 66.8081 739.531 66.2669 739.531 65.6234C739.531 65.0695 739.634 64.6114 739.838 64.2492C740.043 63.8869 740.322 63.5972 740.676 63.3798C741.029 63.1625 741.428 62.9984 741.871 62.8877C742.318 62.7726 742.781 62.6895 743.258 62.6384C743.833 62.5787 744.3 62.5254 744.658 62.4786C745.016 62.4274 745.276 62.3507 745.438 62.2484C745.604 62.1419 745.687 61.9778 745.687 61.7563V61.7179C745.687 61.2364 745.544 60.8635 745.259 60.5993C744.973 60.3351 744.562 60.203 744.025 60.203C743.458 60.203 743.009 60.3266 742.676 60.5737C742.348 60.8209 742.127 61.1128 742.012 61.4494L739.851 61.1426C740.021 60.546 740.303 60.0475 740.695 59.6469C741.087 59.2421 741.566 58.9395 742.133 58.7392C742.7 58.5347 743.326 58.4324 744.012 58.4324C744.485 58.4324 744.956 58.4878 745.425 58.5986C745.894 58.7094 746.322 58.8926 746.71 59.1483C747.097 59.3997 747.409 59.7428 747.643 60.1774C747.882 60.6121 748.001 61.1554 748.001 61.8074V68.3784H745.776V67.0297H745.7C745.559 67.3024 745.361 67.5581 745.105 67.7967C744.854 68.0311 744.536 68.2207 744.153 68.3656C743.774 68.5063 743.328 68.5766 742.817 68.5766ZM743.418 66.8763C743.882 66.8763 744.285 66.7847 744.626 66.6014C744.967 66.4139 745.229 66.1668 745.412 65.86C745.6 65.5531 745.693 65.2186 745.693 64.8564V63.6994C745.621 63.7591 745.497 63.8145 745.323 63.8656C745.152 63.9168 744.96 63.9615 744.747 63.9999C744.534 64.0382 744.323 64.0723 744.115 64.1021C743.906 64.132 743.725 64.1575 743.571 64.1788C743.226 64.2257 742.917 64.3024 742.644 64.409C742.372 64.5155 742.156 64.6646 741.999 64.8564C741.841 65.0439 741.762 65.2868 741.762 65.5851C741.762 66.0112 741.918 66.333 742.229 66.5503C742.54 66.7676 742.936 66.8763 743.418 66.8763ZM752.642 62.6256V68.3784H750.328V58.5602H752.539V60.2286H752.654C752.88 59.6788 753.24 59.2421 753.735 58.9182C754.233 58.5943 754.849 58.4324 755.582 58.4324C756.259 58.4324 756.85 58.5773 757.352 58.8671C757.86 59.1568 758.252 59.5766 758.529 60.1263C758.81 60.676 758.948 61.3429 758.944 62.127V68.3784H756.63V62.485C756.63 61.8287 756.46 61.3152 756.119 60.9445C755.782 60.5737 755.316 60.3884 754.719 60.3884C754.314 60.3884 753.954 60.4778 753.639 60.6568C753.328 60.8315 753.083 61.0851 752.904 61.4175C752.729 61.7499 752.642 62.1526 752.642 62.6256ZM765.579 68.5702C764.599 68.5702 763.757 68.355 763.054 67.9246C762.355 67.4942 761.816 66.8997 761.437 66.1412C761.062 65.3784 760.874 64.5006 760.874 63.5077C760.874 62.5105 761.066 61.6305 761.45 60.8678C761.833 60.1007 762.374 59.5041 763.073 59.078C763.776 58.6476 764.607 58.4324 765.566 58.4324C766.363 58.4324 767.068 58.5794 767.682 58.8734C768.3 59.1632 768.792 59.5744 769.159 60.1071C769.525 60.6355 769.734 61.2534 769.785 61.9608H767.573C767.484 61.4878 767.271 61.0936 766.934 60.7783C766.602 60.4587 766.156 60.2989 765.598 60.2989C765.125 60.2989 764.71 60.4267 764.352 60.6824C763.994 60.9338 763.715 61.296 763.514 61.769C763.318 62.2421 763.22 62.8088 763.22 63.4693C763.22 64.1384 763.318 64.7136 763.514 65.1952C763.71 65.6725 763.985 66.0411 764.339 66.301C764.697 66.5567 765.117 66.6845 765.598 66.6845C765.939 66.6845 766.244 66.6206 766.512 66.4928C766.785 66.3607 767.013 66.171 767.196 65.9239C767.379 65.6767 767.505 65.3763 767.573 65.0226H769.785C769.73 65.7172 769.525 66.333 769.171 66.8699C768.818 67.4026 768.336 67.8202 767.727 68.1227C767.117 68.421 766.401 68.5702 765.579 68.5702ZM776.032 68.5702C775.047 68.5702 774.197 68.3656 773.481 67.9565C772.77 67.5432 772.222 66.9594 771.838 66.2051C771.455 65.4466 771.263 64.5538 771.263 63.5269C771.263 62.5169 771.455 61.6305 771.838 60.8678C772.226 60.1007 772.767 59.5041 773.462 59.078C774.157 58.6476 774.973 58.4324 775.91 58.4324C776.515 58.4324 777.086 58.5304 777.623 58.7264C778.164 58.9182 778.642 59.2165 779.055 59.6213C779.473 60.0261 779.801 60.5418 780.039 61.1682C780.278 61.7903 780.397 62.5318 780.397 63.3926V64.1021H772.35V62.5425H778.179C778.175 62.0993 778.079 61.7051 777.892 61.36C777.704 61.0105 777.442 60.7357 777.105 60.5354C776.773 60.3351 776.385 60.235 775.942 60.235C775.469 60.235 775.054 60.35 774.696 60.5801C774.338 60.806 774.059 61.1043 773.858 61.475C773.662 61.8415 773.562 62.2442 773.558 62.6831V64.0446C773.558 64.6156 773.662 65.1057 773.871 65.5148C774.08 65.9196 774.372 66.2307 774.747 66.448C775.122 66.6611 775.561 66.7676 776.064 66.7676C776.4 66.7676 776.705 66.7207 776.978 66.627C777.25 66.529 777.487 66.3862 777.687 66.1987C777.887 66.0112 778.039 65.779 778.141 65.502L780.301 65.7449C780.165 66.3159 779.905 66.8145 779.522 67.2406C779.142 67.6625 778.657 67.9906 778.064 68.225C777.472 68.4551 776.794 68.5702 776.032 68.5702ZM686.949 92.1554L684.839 92.3855C684.78 92.1725 684.675 91.9722 684.526 91.7847C684.381 91.5972 684.185 91.4459 683.938 91.3308C683.691 91.2158 683.388 91.1582 683.031 91.1582C682.549 91.1582 682.144 91.2627 681.816 91.4715C681.492 91.6803 681.332 91.9509 681.337 92.2832C681.332 92.5688 681.437 92.801 681.65 92.98C681.867 93.159 682.225 93.306 682.724 93.421L684.398 93.779C685.327 93.9793 686.018 94.2967 686.469 94.7314C686.925 95.1661 687.156 95.735 687.16 96.4381C687.156 97.056 686.974 97.6014 686.616 98.0744C686.263 98.5432 685.771 98.9097 685.14 99.1739C684.509 99.4381 683.785 99.5702 682.967 99.5702C681.765 99.5702 680.798 99.3188 680.065 98.8159C679.332 98.3088 678.895 97.6036 678.754 96.7002L681.011 96.4828C681.113 96.926 681.33 97.2605 681.663 97.4864C681.995 97.7122 682.428 97.8252 682.96 97.8252C683.51 97.8252 683.951 97.7122 684.283 97.4864C684.62 97.2605 684.788 96.9814 684.788 96.649C684.788 96.3678 684.68 96.1355 684.462 95.9523C684.249 95.769 683.917 95.6284 683.465 95.5304L681.79 95.1788C680.849 94.9828 680.152 94.6526 679.7 94.1881C679.249 93.7193 679.025 93.127 679.029 92.4111C679.025 91.806 679.189 91.2818 679.521 90.8386C679.858 90.3912 680.325 90.046 680.921 89.8031C681.522 89.556 682.214 89.4324 682.999 89.4324C684.149 89.4324 685.055 89.6774 685.715 90.1675C686.38 90.6575 686.791 91.3202 686.949 92.1554ZM689.068 99.3784V89.5602H691.382V99.3784H689.068ZM690.231 88.1668C689.865 88.1668 689.549 88.0453 689.285 87.8024C689.021 87.5553 688.889 87.2591 688.889 86.9139C688.889 86.5645 689.021 86.2683 689.285 86.0254C689.549 85.7783 689.865 85.6547 690.231 85.6547C690.602 85.6547 690.917 85.7783 691.177 86.0254C691.441 86.2683 691.574 86.5645 691.574 86.9139C691.574 87.2591 691.441 87.5553 691.177 87.8024C690.917 88.0453 690.602 88.1668 690.231 88.1668ZM693.633 99.3784V97.9082L698.696 91.5609V91.4778H693.8V89.5602H701.528V91.1391L696.708 97.3777V97.4608H701.694V99.3784H693.633ZM707.934 99.5702C706.95 99.5702 706.099 99.3656 705.384 98.9565C704.672 98.5432 704.124 97.9594 703.741 97.2051C703.357 96.4466 703.165 95.5538 703.165 94.5269C703.165 93.5169 703.357 92.6305 703.741 91.8678C704.129 91.1007 704.67 90.5041 705.364 90.078C706.059 89.6476 706.875 89.4324 707.812 89.4324C708.418 89.4324 708.989 89.5304 709.526 89.7264C710.067 89.9182 710.544 90.2165 710.957 90.6213C711.375 91.0261 711.703 91.5418 711.942 92.1682C712.18 92.7903 712.3 93.5318 712.3 94.3926V95.1021H704.252V93.5425H710.082C710.077 93.0993 709.982 92.7051 709.794 92.36C709.607 92.0105 709.344 91.7357 709.008 91.5354C708.675 91.3351 708.288 91.235 707.844 91.235C707.371 91.235 706.956 91.35 706.598 91.5801C706.24 91.806 705.961 92.1043 705.761 92.475C705.565 92.8415 705.464 93.2442 705.46 93.6831V95.0446C705.46 95.6156 705.565 96.1057 705.773 96.5148C705.982 96.9196 706.274 97.2307 706.649 97.448C707.024 97.6611 707.463 97.7676 707.966 97.7676C708.303 97.7676 708.607 97.7207 708.88 97.627C709.153 97.529 709.389 97.3862 709.589 97.1987C709.79 97.0112 709.941 96.779 710.043 96.502L712.204 96.7449C712.067 97.3159 711.808 97.8145 711.424 98.2406C711.045 98.6625 710.559 98.9906 709.967 99.225C709.374 99.4551 708.697 99.5702 707.934 99.5702ZM686.949 123.155L684.839 123.386C684.78 123.172 684.675 122.972 684.526 122.785C684.381 122.597 684.185 122.446 683.938 122.331C683.691 122.216 683.388 122.158 683.031 122.158C682.549 122.158 682.144 122.263 681.816 122.471C681.492 122.68 681.332 122.951 681.337 123.283C681.332 123.569 681.437 123.801 681.65 123.98C681.867 124.159 682.225 124.306 682.724 124.421L684.398 124.779C685.327 124.979 686.018 125.297 686.469 125.731C686.925 126.166 687.156 126.735 687.16 127.438C687.156 128.056 686.974 128.601 686.616 129.074C686.263 129.543 685.771 129.91 685.14 130.174C684.509 130.438 683.785 130.57 682.967 130.57C681.765 130.57 680.798 130.319 680.065 129.816C679.332 129.309 678.895 128.604 678.754 127.7L681.011 127.483C681.113 127.926 681.33 128.261 681.663 128.486C681.995 128.712 682.428 128.825 682.96 128.825C683.51 128.825 683.951 128.712 684.283 128.486C684.62 128.261 684.788 127.981 684.788 127.649C684.788 127.368 684.68 127.136 684.462 126.952C684.249 126.769 683.917 126.628 683.465 126.53L681.79 126.179C680.849 125.983 680.152 125.653 679.7 125.188C679.249 124.719 679.025 124.127 679.029 123.411C679.025 122.806 679.189 122.282 679.521 121.839C679.858 121.391 680.325 121.046 680.921 120.803C681.522 120.556 682.214 120.432 682.999 120.432C684.149 120.432 685.055 120.677 685.715 121.167C686.38 121.658 686.791 122.32 686.949 123.155ZM693.971 120.56V122.35H688.326V120.56H693.971ZM689.72 118.208H692.034V127.425C692.034 127.736 692.081 127.975 692.174 128.141C692.272 128.303 692.4 128.414 692.558 128.474C692.716 128.533 692.89 128.563 693.082 128.563C693.227 128.563 693.359 128.552 693.478 128.531C693.602 128.51 693.696 128.491 693.76 128.474L694.15 130.283C694.026 130.325 693.849 130.372 693.619 130.423C693.393 130.474 693.116 130.504 692.788 130.513C692.208 130.53 691.686 130.442 691.222 130.251C690.757 130.055 690.389 129.752 690.116 129.343C689.848 128.934 689.716 128.422 689.72 127.809V118.208ZM698.731 130.577C698.109 130.577 697.548 130.466 697.05 130.244C696.556 130.018 696.164 129.686 695.874 129.247C695.588 128.808 695.445 128.267 695.445 127.623C695.445 127.069 695.548 126.611 695.752 126.249C695.957 125.887 696.236 125.597 696.59 125.38C696.943 125.163 697.342 124.998 697.785 124.888C698.232 124.773 698.695 124.689 699.172 124.638C699.747 124.579 700.214 124.525 700.572 124.479C700.93 124.427 701.19 124.351 701.352 124.248C701.518 124.142 701.601 123.978 701.601 123.756V123.718C701.601 123.236 701.458 122.864 701.173 122.599C700.887 122.335 700.476 122.203 699.939 122.203C699.372 122.203 698.923 122.327 698.59 122.574C698.262 122.821 698.041 123.113 697.926 123.449L695.765 123.143C695.936 122.546 696.217 122.047 696.609 121.647C697.001 121.242 697.48 120.939 698.047 120.739C698.614 120.535 699.24 120.432 699.926 120.432C700.399 120.432 700.87 120.488 701.339 120.599C701.808 120.709 702.236 120.893 702.624 121.148C703.012 121.4 703.323 121.743 703.557 122.177C703.796 122.612 703.915 123.155 703.915 123.807V130.378H701.691V129.03H701.614C701.473 129.302 701.275 129.558 701.019 129.797C700.768 130.031 700.45 130.221 700.067 130.366C699.688 130.506 699.242 130.577 698.731 130.577ZM699.332 128.876C699.796 128.876 700.199 128.785 700.54 128.601C700.881 128.414 701.143 128.167 701.326 127.86C701.514 127.553 701.607 127.219 701.607 126.856V125.699C701.535 125.759 701.411 125.814 701.237 125.866C701.066 125.917 700.874 125.962 700.661 126C700.448 126.038 700.237 126.072 700.029 126.102C699.82 126.132 699.639 126.158 699.485 126.179C699.14 126.226 698.831 126.302 698.558 126.409C698.286 126.515 698.07 126.665 697.913 126.856C697.755 127.044 697.676 127.287 697.676 127.585C697.676 128.011 697.832 128.333 698.143 128.55C698.454 128.768 698.85 128.876 699.332 128.876ZM711.144 120.56V122.35H705.5V120.56H711.144ZM706.894 118.208H709.208V127.425C709.208 127.736 709.254 127.975 709.348 128.141C709.446 128.303 709.574 128.414 709.732 128.474C709.889 128.533 710.064 128.563 710.256 128.563C710.401 128.563 710.533 128.552 710.652 128.531C710.776 128.51 710.869 128.491 710.933 128.474L711.323 130.283C711.2 130.325 711.023 130.372 710.793 130.423C710.567 130.474 710.29 130.504 709.962 130.513C709.382 130.53 708.86 130.442 708.396 130.251C707.931 130.055 707.563 129.752 707.29 129.343C707.021 128.934 706.889 128.422 706.894 127.809V118.208ZM717.321 130.57C716.336 130.57 715.486 130.366 714.77 129.957C714.059 129.543 713.511 128.959 713.127 128.205C712.744 127.447 712.552 126.554 712.552 125.527C712.552 124.517 712.744 123.631 713.127 122.868C713.515 122.101 714.056 121.504 714.751 121.078C715.446 120.648 716.262 120.432 717.199 120.432C717.804 120.432 718.375 120.53 718.912 120.726C719.453 120.918 719.931 121.216 720.344 121.621C720.762 122.026 721.09 122.542 721.328 123.168C721.567 123.79 721.686 124.532 721.686 125.393V126.102H713.639V124.542H719.468C719.464 124.099 719.368 123.705 719.181 123.36C718.993 123.011 718.731 122.736 718.395 122.535C718.062 122.335 717.674 122.235 717.231 122.235C716.758 122.235 716.343 122.35 715.985 122.58C715.627 122.806 715.348 123.104 715.147 123.475C714.951 123.841 714.851 124.244 714.847 124.683V126.045C714.847 126.616 714.951 127.106 715.16 127.515C715.369 127.92 715.661 128.231 716.036 128.448C716.411 128.661 716.85 128.768 717.353 128.768C717.689 128.768 717.994 128.721 718.267 128.627C718.539 128.529 718.776 128.386 718.976 128.199C719.176 128.011 719.328 127.779 719.43 127.502L721.591 127.745C721.454 128.316 721.194 128.814 720.811 129.241C720.431 129.663 719.946 129.991 719.353 130.225C718.761 130.455 718.083 130.57 717.321 130.57ZM686.949 154.155L684.839 154.386C684.78 154.172 684.675 153.972 684.526 153.785C684.381 153.597 684.185 153.446 683.938 153.331C683.691 153.216 683.388 153.158 683.031 153.158C682.549 153.158 682.144 153.263 681.816 153.471C681.492 153.68 681.332 153.951 681.337 154.283C681.332 154.569 681.437 154.801 681.65 154.98C681.867 155.159 682.225 155.306 682.724 155.421L684.398 155.779C685.327 155.979 686.018 156.297 686.469 156.731C686.925 157.166 687.156 157.735 687.16 158.438C687.156 159.056 686.974 159.601 686.616 160.074C686.263 160.543 685.771 160.91 685.14 161.174C684.509 161.438 683.785 161.57 682.967 161.57C681.765 161.57 680.798 161.319 680.065 160.816C679.332 160.309 678.895 159.604 678.754 158.7L681.011 158.483C681.113 158.926 681.33 159.261 681.663 159.486C681.995 159.712 682.428 159.825 682.96 159.825C683.51 159.825 683.951 159.712 684.283 159.486C684.62 159.261 684.788 158.981 684.788 158.649C684.788 158.368 684.68 158.136 684.462 157.952C684.249 157.769 683.917 157.628 683.465 157.53L681.79 157.179C680.849 156.983 680.152 156.653 679.7 156.188C679.249 155.719 679.025 155.127 679.029 154.411C679.025 153.806 679.189 153.282 679.521 152.839C679.858 152.391 680.325 152.046 680.921 151.803C681.522 151.556 682.214 151.432 682.999 151.432C684.149 151.432 685.055 151.677 685.715 152.167C686.38 152.658 686.791 153.32 686.949 154.155ZM691.382 155.626V161.378H689.068V148.288H691.331V153.229H691.446C691.676 152.675 692.032 152.238 692.513 151.918C692.999 151.594 693.617 151.432 694.367 151.432C695.049 151.432 695.643 151.575 696.15 151.861C696.657 152.146 697.049 152.564 697.326 153.114C697.608 153.663 697.748 154.334 697.748 155.127V161.378H695.434V155.485C695.434 154.824 695.264 154.311 694.923 153.944C694.586 153.574 694.113 153.388 693.504 153.388C693.095 153.388 692.728 153.478 692.404 153.657C692.085 153.832 691.833 154.085 691.65 154.417C691.471 154.75 691.382 155.153 691.382 155.626ZM704.39 161.57C703.431 161.57 702.6 161.359 701.897 160.937C701.194 160.515 700.648 159.925 700.26 159.167C699.877 158.408 699.685 157.522 699.685 156.508C699.685 155.493 699.877 154.605 700.26 153.842C700.648 153.079 701.194 152.487 701.897 152.065C702.6 151.643 703.431 151.432 704.39 151.432C705.348 151.432 706.179 151.643 706.882 152.065C707.586 152.487 708.129 153.079 708.512 153.842C708.9 154.605 709.094 155.493 709.094 156.508C709.094 157.522 708.9 158.408 708.512 159.167C708.129 159.925 707.586 160.515 706.882 160.937C706.179 161.359 705.348 161.57 704.39 161.57ZM704.402 159.716C704.922 159.716 705.357 159.574 705.706 159.288C706.056 158.998 706.316 158.611 706.486 158.125C706.661 157.639 706.748 157.098 706.748 156.501C706.748 155.9 706.661 155.357 706.486 154.871C706.316 154.381 706.056 153.991 705.706 153.702C705.357 153.412 704.922 153.267 704.402 153.267C703.87 153.267 703.426 153.412 703.073 153.702C702.723 153.991 702.461 154.381 702.287 154.871C702.116 155.357 702.031 155.9 702.031 156.501C702.031 157.098 702.116 157.639 702.287 158.125C702.461 158.611 702.723 158.998 703.073 159.288C703.426 159.574 703.87 159.716 704.402 159.716ZM712.803 161.378L710.029 151.56H712.388L714.113 158.464H714.203L715.967 151.56H718.3L720.064 158.425H720.16L721.861 151.56H724.226L721.445 161.378H719.035L717.194 154.743H717.06L715.219 161.378H712.803ZM730.306 161.378V151.56H732.62V161.378H730.306ZM731.469 150.167C731.103 150.167 730.788 150.045 730.523 149.802C730.259 149.555 730.127 149.259 730.127 148.914C730.127 148.564 730.259 148.268 730.523 148.025C730.788 147.778 731.103 147.655 731.469 147.655C731.84 147.655 732.156 147.778 732.415 148.025C732.68 148.268 732.812 148.564 732.812 148.914C732.812 149.259 732.68 149.555 732.415 149.802C732.156 150.045 731.84 150.167 731.469 150.167ZM739.282 161.57C738.302 161.57 737.46 161.355 736.757 160.925C736.058 160.494 735.519 159.9 735.14 159.141C734.765 158.378 734.578 157.501 734.578 156.508C734.578 155.511 734.769 154.631 735.153 153.868C735.536 153.101 736.078 152.504 736.776 152.078C737.48 151.648 738.311 151.432 739.269 151.432C740.066 151.432 740.771 151.579 741.385 151.873C742.003 152.163 742.495 152.574 742.862 153.107C743.228 153.636 743.437 154.253 743.488 154.961H741.276C741.187 154.488 740.974 154.094 740.637 153.778C740.305 153.459 739.86 153.299 739.301 153.299C738.828 153.299 738.413 153.427 738.055 153.682C737.697 153.934 737.418 154.296 737.218 154.769C737.021 155.242 736.923 155.809 736.923 156.469C736.923 157.138 737.021 157.714 737.218 158.195C737.414 158.672 737.688 159.041 738.042 159.301C738.4 159.557 738.82 159.685 739.301 159.685C739.642 159.685 739.947 159.621 740.215 159.493C740.488 159.361 740.716 159.171 740.899 158.924C741.083 158.677 741.208 158.376 741.276 158.023H743.488C743.433 158.717 743.228 159.333 742.874 159.87C742.521 160.403 742.039 160.82 741.43 161.123C740.82 161.421 740.105 161.57 739.282 161.57ZM749.671 161.57C748.712 161.57 747.881 161.359 747.178 160.937C746.475 160.515 745.929 159.925 745.542 159.167C745.158 158.408 744.966 157.522 744.966 156.508C744.966 155.493 745.158 154.605 745.542 153.842C745.929 153.079 746.475 152.487 747.178 152.065C747.881 151.643 748.712 151.432 749.671 151.432C750.63 151.432 751.461 151.643 752.164 152.065C752.867 152.487 753.41 153.079 753.794 153.842C754.181 154.605 754.375 155.493 754.375 156.508C754.375 157.522 754.181 158.408 753.794 159.167C753.41 159.925 752.867 160.515 752.164 160.937C751.461 161.359 750.63 161.57 749.671 161.57ZM749.684 159.716C750.203 159.716 750.638 159.574 750.988 159.288C751.337 158.998 751.597 158.611 751.767 158.125C751.942 157.639 752.029 157.098 752.029 156.501C752.029 155.9 751.942 155.357 751.767 154.871C751.597 154.381 751.337 153.991 750.988 153.702C750.638 153.412 750.203 153.267 749.684 153.267C749.151 153.267 748.708 153.412 748.354 153.702C748.005 153.991 747.743 154.381 747.568 154.871C747.397 155.357 747.312 155.9 747.312 156.501C747.312 157.098 747.397 157.639 747.568 158.125C747.743 158.611 748.005 158.998 748.354 159.288C748.708 159.574 749.151 159.716 749.684 159.716ZM758.653 155.626V161.378H756.339V151.56H758.551V153.229H758.666C758.892 152.679 759.252 152.242 759.746 151.918C760.245 151.594 760.861 151.432 761.594 151.432C762.271 151.432 762.861 151.577 763.364 151.867C763.871 152.157 764.263 152.577 764.54 153.126C764.822 153.676 764.96 154.343 764.956 155.127V161.378H762.642V155.485C762.642 154.829 762.471 154.315 762.131 153.944C761.794 153.574 761.327 153.388 760.731 153.388C760.326 153.388 759.966 153.478 759.65 153.657C759.339 153.832 759.094 154.085 758.915 154.417C758.741 154.75 758.653 155.153 758.653 155.626ZM683.472 192.57C682.491 192.57 681.65 192.355 680.947 191.925C680.248 191.494 679.709 190.9 679.33 190.141C678.955 189.378 678.767 188.501 678.767 187.508C678.767 186.511 678.959 185.631 679.342 184.868C679.726 184.101 680.267 183.504 680.966 183.078C681.669 182.648 682.5 182.432 683.459 182.432C684.256 182.432 684.961 182.579 685.575 182.873C686.192 183.163 686.685 183.574 687.051 184.107C687.418 184.636 687.626 185.253 687.678 185.961H685.466C685.376 185.488 685.163 185.094 684.827 184.778C684.494 184.459 684.049 184.299 683.491 184.299C683.018 184.299 682.602 184.427 682.244 184.682C681.886 184.934 681.607 185.296 681.407 185.769C681.211 186.242 681.113 186.809 681.113 187.469C681.113 188.138 681.211 188.714 681.407 189.195C681.603 189.672 681.878 190.041 682.232 190.301C682.589 190.557 683.009 190.685 683.491 190.685C683.832 190.685 684.136 190.621 684.405 190.493C684.678 190.361 684.906 190.171 685.089 189.924C685.272 189.677 685.398 189.376 685.466 189.023H687.678C687.622 189.717 687.418 190.333 687.064 190.87C686.71 191.403 686.229 191.82 685.619 192.123C685.01 192.421 684.294 192.57 683.472 192.57ZM693.86 192.57C692.901 192.57 692.07 192.359 691.367 191.937C690.664 191.515 690.119 190.925 689.731 190.167C689.347 189.408 689.156 188.522 689.156 187.508C689.156 186.493 689.347 185.605 689.731 184.842C690.119 184.079 690.664 183.487 691.367 183.065C692.07 182.643 692.901 182.432 693.86 182.432C694.819 182.432 695.65 182.643 696.353 183.065C697.056 183.487 697.6 184.079 697.983 184.842C698.371 185.605 698.565 186.493 698.565 187.508C698.565 188.522 698.371 189.408 697.983 190.167C697.6 190.925 697.056 191.515 696.353 191.937C695.65 192.359 694.819 192.57 693.86 192.57ZM693.873 190.716C694.393 190.716 694.828 190.574 695.177 190.288C695.526 189.998 695.786 189.611 695.957 189.125C696.132 188.639 696.219 188.098 696.219 187.501C696.219 186.9 696.132 186.357 695.957 185.871C695.786 185.381 695.526 184.991 695.177 184.702C694.828 184.412 694.393 184.267 693.873 184.267C693.34 184.267 692.897 184.412 692.544 184.702C692.194 184.991 691.932 185.381 691.757 185.871C691.587 186.357 691.502 186.9 691.502 187.501C691.502 188.098 691.587 188.639 691.757 189.125C691.932 189.611 692.194 189.998 692.544 190.288C692.897 190.574 693.34 190.716 693.873 190.716ZM702.843 179.288V192.378H700.529V179.288H702.843ZM709.505 192.57C708.546 192.57 707.715 192.359 707.012 191.937C706.309 191.515 705.763 190.925 705.376 190.167C704.992 189.408 704.8 188.522 704.8 187.508C704.8 186.493 704.992 185.605 705.376 184.842C705.763 184.079 706.309 183.487 707.012 183.065C707.715 182.643 708.546 182.432 709.505 182.432C710.464 182.432 711.295 182.643 711.998 183.065C712.701 183.487 713.244 184.079 713.628 184.842C714.015 185.605 714.209 186.493 714.209 187.508C714.209 188.522 714.015 189.408 713.628 190.167C713.244 190.925 712.701 191.515 711.998 191.937C711.295 192.359 710.464 192.57 709.505 192.57ZM709.518 190.716C710.037 190.716 710.472 190.574 710.822 190.288C711.171 189.998 711.431 189.611 711.601 189.125C711.776 188.639 711.863 188.098 711.863 187.501C711.863 186.9 711.776 186.357 711.601 185.871C711.431 185.381 711.171 184.991 710.822 184.702C710.472 184.412 710.037 184.267 709.518 184.267C708.985 184.267 708.542 184.412 708.188 184.702C707.839 184.991 707.577 185.381 707.402 185.871C707.231 186.357 707.146 186.9 707.146 187.501C707.146 188.098 707.231 188.639 707.402 189.125C707.577 189.611 707.839 189.998 708.188 190.288C708.542 190.574 708.985 190.716 709.518 190.716ZM716.173 192.378V182.56H718.417V184.197H718.519C718.698 183.63 719.005 183.193 719.44 182.886C719.879 182.575 720.379 182.42 720.942 182.42C721.07 182.42 721.212 182.426 721.37 182.439C721.532 182.447 721.666 182.462 721.773 182.484V184.612C721.675 184.578 721.519 184.548 721.306 184.523C721.097 184.493 720.895 184.478 720.699 184.478C720.277 184.478 719.898 184.569 719.561 184.753C719.229 184.932 718.967 185.181 718.775 185.501C718.583 185.82 718.487 186.189 718.487 186.606V192.378H716.173ZM727.775 192.378V182.56H729.987V184.229H730.102C730.306 183.666 730.645 183.227 731.118 182.912C731.591 182.592 732.156 182.432 732.812 182.432C733.477 182.432 734.037 182.594 734.493 182.918C734.953 183.238 735.277 183.675 735.464 184.229H735.567C735.784 183.683 736.151 183.248 736.666 182.925C737.186 182.596 737.802 182.432 738.513 182.432C739.417 182.432 740.154 182.718 740.725 183.289C741.296 183.86 741.582 184.693 741.582 185.788V192.378H739.261V186.146C739.261 185.537 739.099 185.091 738.776 184.81C738.452 184.525 738.055 184.382 737.587 184.382C737.028 184.382 736.592 184.557 736.276 184.906C735.965 185.251 735.81 185.701 735.81 186.255V192.378H733.54V186.05C733.54 185.543 733.387 185.138 733.08 184.836C732.778 184.533 732.381 184.382 731.891 184.382C731.559 184.382 731.256 184.467 730.984 184.638C730.711 184.804 730.494 185.04 730.332 185.347C730.17 185.65 730.089 186.003 730.089 186.408V192.378H727.775ZM748.212 192.57C747.253 192.57 746.422 192.359 745.719 191.937C745.016 191.515 744.47 190.925 744.083 190.167C743.699 189.408 743.507 188.522 743.507 187.508C743.507 186.493 743.699 185.605 744.083 184.842C744.47 184.079 745.016 183.487 745.719 183.065C746.422 182.643 747.253 182.432 748.212 182.432C749.171 182.432 750.002 182.643 750.705 183.065C751.408 183.487 751.951 184.079 752.335 184.842C752.722 185.605 752.916 186.493 752.916 187.508C752.916 188.522 752.722 189.408 752.335 190.167C751.951 190.925 751.408 191.515 750.705 191.937C750.002 192.359 749.171 192.57 748.212 192.57ZM748.225 190.716C748.744 190.716 749.179 190.574 749.529 190.288C749.878 189.998 750.138 189.611 750.308 189.125C750.483 188.639 750.57 188.098 750.57 187.501C750.57 186.9 750.483 186.357 750.308 185.871C750.138 185.381 749.878 184.991 749.529 184.702C749.179 184.412 748.744 184.267 748.225 184.267C747.692 184.267 747.249 184.412 746.895 184.702C746.546 184.991 746.284 185.381 746.109 185.871C745.938 186.357 745.853 186.9 745.853 187.501C745.853 188.098 745.938 188.639 746.109 189.125C746.284 189.611 746.546 189.998 746.895 190.288C747.249 190.574 747.692 190.716 748.225 190.716ZM758.524 192.551C757.752 192.551 757.062 192.353 756.453 191.957C755.843 191.56 755.362 190.985 755.008 190.231C754.654 189.476 754.478 188.56 754.478 187.482C754.478 186.391 754.657 185.471 755.015 184.721C755.377 183.966 755.865 183.398 756.478 183.014C757.092 182.626 757.776 182.432 758.53 182.432C759.105 182.432 759.578 182.53 759.949 182.726C760.32 182.918 760.614 183.15 760.831 183.423C761.049 183.692 761.217 183.945 761.336 184.184H761.432V179.288H763.752V192.378H761.477V190.832H761.336C761.217 191.07 761.044 191.324 760.819 191.592C760.593 191.856 760.294 192.082 759.924 192.27C759.553 192.457 759.086 192.551 758.524 192.551ZM759.169 190.653C759.659 190.653 760.077 190.52 760.422 190.256C760.767 189.988 761.029 189.615 761.208 189.138C761.387 188.66 761.477 188.104 761.477 187.469C761.477 186.834 761.387 186.283 761.208 185.814C761.034 185.345 760.774 184.981 760.429 184.721C760.088 184.461 759.668 184.331 759.169 184.331C758.654 184.331 758.223 184.465 757.878 184.734C757.533 185.002 757.273 185.373 757.098 185.846C756.924 186.319 756.836 186.86 756.836 187.469C756.836 188.083 756.924 188.631 757.098 189.112C757.277 189.589 757.539 189.966 757.885 190.243C758.234 190.516 758.662 190.653 759.169 190.653ZM770.565 192.57C769.58 192.57 768.73 192.366 768.014 191.957C767.303 191.543 766.755 190.959 766.372 190.205C765.988 189.447 765.796 188.554 765.796 187.527C765.796 186.517 765.988 185.631 766.372 184.868C766.759 184.101 767.301 183.504 767.995 183.078C768.69 182.648 769.506 182.432 770.443 182.432C771.048 182.432 771.619 182.53 772.156 182.726C772.698 182.918 773.175 183.216 773.588 183.621C774.006 184.026 774.334 184.542 774.573 185.168C774.811 185.79 774.931 186.532 774.931 187.393V188.102H766.883V186.542H772.713C772.708 186.099 772.612 185.705 772.425 185.36C772.237 185.011 771.975 184.736 771.639 184.535C771.306 184.335 770.919 184.235 770.475 184.235C770.002 184.235 769.587 184.35 769.229 184.58C768.871 184.806 768.592 185.104 768.392 185.475C768.195 185.841 768.095 186.244 768.091 186.683V188.045C768.091 188.616 768.195 189.106 768.404 189.515C768.613 189.92 768.905 190.231 769.28 190.448C769.655 190.661 770.094 190.768 770.597 190.768C770.933 190.768 771.238 190.721 771.511 190.627C771.784 190.529 772.02 190.386 772.22 190.199C772.421 190.011 772.572 189.779 772.674 189.502L774.835 189.745C774.698 190.316 774.438 190.814 774.055 191.241C773.676 191.663 773.19 191.991 772.597 192.225C772.005 192.455 771.328 192.57 770.565 192.57Z" fill="#6669AD"/>
    <circle cx="666" cy="33" r="6" fill="#DFE2FD"/>
    <circle cx="575" cy="110" r="6" fill="#DFE2FD"/>
    <path d="M574 110C578.333 84.3333 602.6 33.2 665 34" stroke="#DFE2FD"/>
    <path d="M574 110.991C578.333 136.657 602.6 187.791 665 186.991" stroke="#DFE2FD"/>
    <circle cx="666" cy="64" r="6" fill="#DFE2FD"/>
    <circle cx="666" cy="95" r="6" fill="#DFE2FD"/>
    <circle cx="666" cy="126" r="6" fill="#DFE2FD"/>
    <circle cx="666" cy="157" r="6" fill="#DFE2FD"/>
    <circle cx="666" cy="188" r="6" fill="#DFE2FD"/>
    <path d="M574.5 111C588.167 92.5 625.6 57 666 63" stroke="#DFE2FD"/>
    <path d="M574.5 109.325C588.167 127.825 625.6 163.325 666 157.325" stroke="#DFE2FD"/>
    <path d="M575.5 111C589.833 103.333 628.1 89.1 666.5 93.5" stroke="#DFE2FD"/>
    <path d="M575.5 109.673C589.833 117.34 628.1 131.573 666.5 127.173" stroke="#DFE2FD"/>
    <line x1="300" y1="110.878" x2="394" y2="110.878" stroke="#DFE2FD"/>
  </g>
  <defs>
    <clipPath id="clip0_92_1758">
      <rect width="700" height="220" transform="translate(80)"/>
    </clipPath>
  </defs>
</svg>
